<?xml version="1.0" encoding="utf-8" standalone="no"?>
<!DOCTYPE svg PUBLIC "-//W3C//DTD SVG 1.1//EN"
  "http://www.w3.org/Graphics/SVG/1.1/DTD/svg11.dtd">
<svg xmlns:xlink="http://www.w3.org/1999/xlink" width="576pt" height="288pt" viewBox="0 0 576 288" xmlns="http://www.w3.org/2000/svg" version="1.1">
 <metadata>
  <rdf:RDF xmlns:dc="http://purl.org/dc/elements/1.1/" xmlns:cc="http://creativecommons.org/ns#" xmlns:rdf="http://www.w3.org/1999/02/22-rdf-syntax-ns#">
   <cc:Work>
    <dc:type rdf:resource="http://purl.org/dc/dcmitype/StillImage"/>
    <dc:date>2024-11-01T10:25:36.260677</dc:date>
    <dc:format>image/svg+xml</dc:format>
    <dc:creator>
     <cc:Agent>
      <dc:title>Matplotlib v3.9.2, https://matplotlib.org/</dc:title>
     </cc:Agent>
    </dc:creator>
   </cc:Work>
  </rdf:RDF>
 </metadata>
 <defs>
  <style type="text/css">*{stroke-linejoin: round; stroke-linecap: butt}</style>
 </defs>
 <g id="figure_1">
  <g id="patch_1">
   <path d="M 0 288 
L 576 288 
L 576 0 
L 0 0 
L 0 288 
z
" style="fill: none"/>
  </g>
  <g id="axes_1">
   <g id="patch_2">
    <path d="M 53.876 238.804 
L 301.15988 238.804 
L 301.15988 23.568 
L 53.876 23.568 
L 53.876 238.804 
z
" style="fill: none"/>
   </g>
   <g id="matplotlib.axis_1">
    <g id="xtick_1">
     <g id="line2d_1">
      <defs>
       <path id="m8cfb7274d8" d="M 0 0 
L 0 4.8 
" style="stroke: #262626"/>
      </defs>
      <g>
       <use xlink:href="#m8cfb7274d8" x="65.116176" y="238.804" style="fill: #262626; stroke: #262626"/>
      </g>
     </g>
     <g id="text_1">
      <!-- 0 -->
      <g style="fill: #262626" transform="translate(62.316676 253.790625) scale(0.088 -0.088)">
       <defs>
        <path id="DejaVuSans-30" d="M 2034 4250 
Q 1547 4250 1301 3770 
Q 1056 3291 1056 2328 
Q 1056 1369 1301 889 
Q 1547 409 2034 409 
Q 2525 409 2770 889 
Q 3016 1369 3016 2328 
Q 3016 3291 2770 3770 
Q 2525 4250 2034 4250 
z
M 2034 4750 
Q 2819 4750 3233 4129 
Q 3647 3509 3647 2328 
Q 3647 1150 3233 529 
Q 2819 -91 2034 -91 
Q 1250 -91 836 529 
Q 422 1150 422 2328 
Q 422 3509 836 4129 
Q 1250 4750 2034 4750 
z
" transform="scale(0.015625)"/>
       </defs>
       <use xlink:href="#DejaVuSans-30"/>
      </g>
     </g>
    </g>
    <g id="xtick_2">
     <g id="line2d_2">
      <g>
       <use xlink:href="#m8cfb7274d8" x="110.53103" y="238.804" style="fill: #262626; stroke: #262626"/>
      </g>
     </g>
     <g id="text_2">
      <!-- 20 -->
      <g style="fill: #262626" transform="translate(104.93203 253.790625) scale(0.088 -0.088)">
       <defs>
        <path id="DejaVuSans-32" d="M 1228 531 
L 3431 531 
L 3431 0 
L 469 0 
L 469 531 
Q 828 903 1448 1529 
Q 2069 2156 2228 2338 
Q 2531 2678 2651 2914 
Q 2772 3150 2772 3378 
Q 2772 3750 2511 3984 
Q 2250 4219 1831 4219 
Q 1534 4219 1204 4116 
Q 875 4013 500 3803 
L 500 4441 
Q 881 4594 1212 4672 
Q 1544 4750 1819 4750 
Q 2544 4750 2975 4387 
Q 3406 4025 3406 3419 
Q 3406 3131 3298 2873 
Q 3191 2616 2906 2266 
Q 2828 2175 2409 1742 
Q 1991 1309 1228 531 
z
" transform="scale(0.015625)"/>
       </defs>
       <use xlink:href="#DejaVuSans-32"/>
       <use xlink:href="#DejaVuSans-30" x="63.623047"/>
      </g>
     </g>
    </g>
    <g id="xtick_3">
     <g id="line2d_3">
      <g>
       <use xlink:href="#m8cfb7274d8" x="155.945884" y="238.804" style="fill: #262626; stroke: #262626"/>
      </g>
     </g>
     <g id="text_3">
      <!-- 40 -->
      <g style="fill: #262626" transform="translate(150.346884 253.790625) scale(0.088 -0.088)">
       <defs>
        <path id="DejaVuSans-34" d="M 2419 4116 
L 825 1625 
L 2419 1625 
L 2419 4116 
z
M 2253 4666 
L 3047 4666 
L 3047 1625 
L 3713 1625 
L 3713 1100 
L 3047 1100 
L 3047 0 
L 2419 0 
L 2419 1100 
L 313 1100 
L 313 1709 
L 2253 4666 
z
" transform="scale(0.015625)"/>
       </defs>
       <use xlink:href="#DejaVuSans-34"/>
       <use xlink:href="#DejaVuSans-30" x="63.623047"/>
      </g>
     </g>
    </g>
    <g id="xtick_4">
     <g id="line2d_4">
      <g>
       <use xlink:href="#m8cfb7274d8" x="201.360738" y="238.804" style="fill: #262626; stroke: #262626"/>
      </g>
     </g>
     <g id="text_4">
      <!-- 60 -->
      <g style="fill: #262626" transform="translate(195.761738 253.790625) scale(0.088 -0.088)">
       <defs>
        <path id="DejaVuSans-36" d="M 2113 2584 
Q 1688 2584 1439 2293 
Q 1191 2003 1191 1497 
Q 1191 994 1439 701 
Q 1688 409 2113 409 
Q 2538 409 2786 701 
Q 3034 994 3034 1497 
Q 3034 2003 2786 2293 
Q 2538 2584 2113 2584 
z
M 3366 4563 
L 3366 3988 
Q 3128 4100 2886 4159 
Q 2644 4219 2406 4219 
Q 1781 4219 1451 3797 
Q 1122 3375 1075 2522 
Q 1259 2794 1537 2939 
Q 1816 3084 2150 3084 
Q 2853 3084 3261 2657 
Q 3669 2231 3669 1497 
Q 3669 778 3244 343 
Q 2819 -91 2113 -91 
Q 1303 -91 875 529 
Q 447 1150 447 2328 
Q 447 3434 972 4092 
Q 1497 4750 2381 4750 
Q 2619 4750 2861 4703 
Q 3103 4656 3366 4563 
z
" transform="scale(0.015625)"/>
       </defs>
       <use xlink:href="#DejaVuSans-36"/>
       <use xlink:href="#DejaVuSans-30" x="63.623047"/>
      </g>
     </g>
    </g>
    <g id="xtick_5">
     <g id="line2d_5">
      <g>
       <use xlink:href="#m8cfb7274d8" x="246.775592" y="238.804" style="fill: #262626; stroke: #262626"/>
      </g>
     </g>
     <g id="text_5">
      <!-- 80 -->
      <g style="fill: #262626" transform="translate(241.176592 253.790625) scale(0.088 -0.088)">
       <defs>
        <path id="DejaVuSans-38" d="M 2034 2216 
Q 1584 2216 1326 1975 
Q 1069 1734 1069 1313 
Q 1069 891 1326 650 
Q 1584 409 2034 409 
Q 2484 409 2743 651 
Q 3003 894 3003 1313 
Q 3003 1734 2745 1975 
Q 2488 2216 2034 2216 
z
M 1403 2484 
Q 997 2584 770 2862 
Q 544 3141 544 3541 
Q 544 4100 942 4425 
Q 1341 4750 2034 4750 
Q 2731 4750 3128 4425 
Q 3525 4100 3525 3541 
Q 3525 3141 3298 2862 
Q 3072 2584 2669 2484 
Q 3125 2378 3379 2068 
Q 3634 1759 3634 1313 
Q 3634 634 3220 271 
Q 2806 -91 2034 -91 
Q 1263 -91 848 271 
Q 434 634 434 1313 
Q 434 1759 690 2068 
Q 947 2378 1403 2484 
z
M 1172 3481 
Q 1172 3119 1398 2916 
Q 1625 2713 2034 2713 
Q 2441 2713 2670 2916 
Q 2900 3119 2900 3481 
Q 2900 3844 2670 4047 
Q 2441 4250 2034 4250 
Q 1625 4250 1398 4047 
Q 1172 3844 1172 3481 
z
" transform="scale(0.015625)"/>
       </defs>
       <use xlink:href="#DejaVuSans-38"/>
       <use xlink:href="#DejaVuSans-30" x="63.623047"/>
      </g>
     </g>
    </g>
    <g id="xtick_6">
     <g id="line2d_6">
      <g>
       <use xlink:href="#m8cfb7274d8" x="292.190446" y="238.804" style="fill: #262626; stroke: #262626"/>
      </g>
     </g>
     <g id="text_6">
      <!-- 100 -->
      <g style="fill: #262626" transform="translate(283.791946 253.790625) scale(0.088 -0.088)">
       <defs>
        <path id="DejaVuSans-31" d="M 794 531 
L 1825 531 
L 1825 4091 
L 703 3866 
L 703 4441 
L 1819 4666 
L 2450 4666 
L 2450 531 
L 3481 531 
L 3481 0 
L 794 0 
L 794 531 
z
" transform="scale(0.015625)"/>
       </defs>
       <use xlink:href="#DejaVuSans-31"/>
       <use xlink:href="#DejaVuSans-30" x="63.623047"/>
       <use xlink:href="#DejaVuSans-30" x="127.246094"/>
      </g>
     </g>
    </g>
   </g>
   <g id="matplotlib.axis_2">
    <g id="ytick_1">
     <g id="line2d_7">
      <defs>
       <path id="mc1f3ee92ec" d="M 0 0 
L -4.8 0 
" style="stroke: #262626"/>
      </defs>
      <g>
       <use xlink:href="#mc1f3ee92ec" x="53.876" y="229.020545" style="fill: #262626; stroke: #262626"/>
      </g>
     </g>
     <g id="text_7">
      <!-- 0.0 -->
      <g style="fill: #262626" transform="translate(31.58125 232.363858) scale(0.088 -0.088)">
       <defs>
        <path id="DejaVuSans-2e" d="M 684 794 
L 1344 794 
L 1344 0 
L 684 0 
L 684 794 
z
" transform="scale(0.015625)"/>
       </defs>
       <use xlink:href="#DejaVuSans-30"/>
       <use xlink:href="#DejaVuSans-2e" x="63.623047"/>
       <use xlink:href="#DejaVuSans-30" x="95.410156"/>
      </g>
     </g>
    </g>
    <g id="ytick_2">
     <g id="line2d_8">
      <g>
       <use xlink:href="#mc1f3ee92ec" x="53.876" y="189.886741" style="fill: #262626; stroke: #262626"/>
      </g>
     </g>
     <g id="text_8">
      <!-- 0.2 -->
      <g style="fill: #262626" transform="translate(31.58125 193.230054) scale(0.088 -0.088)">
       <use xlink:href="#DejaVuSans-30"/>
       <use xlink:href="#DejaVuSans-2e" x="63.623047"/>
       <use xlink:href="#DejaVuSans-32" x="95.410156"/>
      </g>
     </g>
    </g>
    <g id="ytick_3">
     <g id="line2d_9">
      <g>
       <use xlink:href="#mc1f3ee92ec" x="53.876" y="150.752937" style="fill: #262626; stroke: #262626"/>
      </g>
     </g>
     <g id="text_9">
      <!-- 0.4 -->
      <g style="fill: #262626" transform="translate(31.58125 154.09625) scale(0.088 -0.088)">
       <use xlink:href="#DejaVuSans-30"/>
       <use xlink:href="#DejaVuSans-2e" x="63.623047"/>
       <use xlink:href="#DejaVuSans-34" x="95.410156"/>
      </g>
     </g>
    </g>
    <g id="ytick_4">
     <g id="line2d_10">
      <g>
       <use xlink:href="#mc1f3ee92ec" x="53.876" y="111.619133" style="fill: #262626; stroke: #262626"/>
      </g>
     </g>
     <g id="text_10">
      <!-- 0.6 -->
      <g style="fill: #262626" transform="translate(31.58125 114.962445) scale(0.088 -0.088)">
       <use xlink:href="#DejaVuSans-30"/>
       <use xlink:href="#DejaVuSans-2e" x="63.623047"/>
       <use xlink:href="#DejaVuSans-36" x="95.410156"/>
      </g>
     </g>
    </g>
    <g id="ytick_5">
     <g id="line2d_11">
      <g>
       <use xlink:href="#mc1f3ee92ec" x="53.876" y="72.485329" style="fill: #262626; stroke: #262626"/>
      </g>
     </g>
     <g id="text_11">
      <!-- 0.8 -->
      <g style="fill: #262626" transform="translate(31.58125 75.828641) scale(0.088 -0.088)">
       <use xlink:href="#DejaVuSans-30"/>
       <use xlink:href="#DejaVuSans-2e" x="63.623047"/>
       <use xlink:href="#DejaVuSans-38" x="95.410156"/>
      </g>
     </g>
    </g>
    <g id="ytick_6">
     <g id="line2d_12">
      <g>
       <use xlink:href="#mc1f3ee92ec" x="53.876" y="33.351525" style="fill: #262626; stroke: #262626"/>
      </g>
     </g>
     <g id="text_12">
      <!-- 1.0 -->
      <g style="fill: #262626" transform="translate(31.58125 36.694837) scale(0.088 -0.088)">
       <use xlink:href="#DejaVuSans-31"/>
       <use xlink:href="#DejaVuSans-2e" x="63.623047"/>
       <use xlink:href="#DejaVuSans-30" x="95.410156"/>
      </g>
     </g>
    </g>
   </g>
   <g id="PolyCollection_1"/>
   <g id="PolyCollection_2"/>
   <g id="PolyCollection_3"/>
   <g id="PolyCollection_4"/>
   <g id="PolyCollection_5"/>
   <g id="PolyCollection_6"/>
   <g id="PolyCollection_7"/>
   <g id="PolyCollection_8"/>
   <g id="line2d_13">
    <path d="M 65.116176 224.799276 
L 67.386919 207.776688 
L 69.657662 185.680345 
L 71.928404 162.842419 
L 74.199147 141.602795 
L 76.46989 122.685336 
L 78.740633 106.314463 
L 81.011375 92.439892 
L 83.282118 80.821825 
L 85.552861 71.189556 
L 87.823603 63.25687 
L 90.094346 56.79633 
L 92.365089 51.609097 
L 94.635831 47.484461 
L 96.906574 44.234417 
L 99.177317 41.697132 
L 101.44806 39.739242 
L 103.718802 38.242452 
L 105.989545 37.104141 
L 108.260288 36.24176 
L 110.53103 35.590522 
L 112.801773 35.099332 
L 115.072516 34.726835 
L 117.343258 34.441715 
L 119.614001 34.22116 
L 121.884744 34.048971 
L 124.155486 33.913437 
L 126.426229 33.805627 
L 128.696972 33.718832 
L 130.967715 33.648424 
L 133.238457 33.591078 
L 135.5092 33.544427 
L 137.779943 33.50657 
L 140.050685 33.475908 
L 142.321428 33.451031 
L 144.592171 33.43089 
L 146.862913 33.414609 
L 149.133656 33.401488 
L 151.404399 33.39098 
L 153.675142 33.382571 
L 155.945884 33.375888 
L 158.216627 33.37057 
L 160.48737 33.366383 
L 162.758112 33.363082 
L 165.028855 33.360493 
L 167.299598 33.358464 
L 169.57034 33.356866 
L 171.841083 33.355618 
L 174.111826 33.35465 
L 176.382569 33.353892 
L 178.653311 33.353309 
L 180.924054 33.352854 
L 183.194797 33.352516 
L 185.465539 33.352259 
L 187.736282 33.352061 
L 190.007025 33.351909 
L 192.277767 33.351804 
L 194.54851 33.351723 
L 196.819253 33.351653 
L 199.089996 33.351618 
L 201.360738 33.351583 
L 203.631481 33.35156 
L 205.902224 33.351536 
L 208.172966 33.351525 
L 210.443709 33.351525 
L 212.714452 33.351525 
L 214.985194 33.351501 
L 217.255937 33.351501 
L 219.52668 33.351501 
L 221.797423 33.351501 
L 224.068165 33.351501 
L 226.338908 33.351501 
L 228.609651 33.351501 
L 230.880393 33.351501 
L 233.151136 33.351501 
L 235.421879 33.351501 
L 237.692621 33.351501 
L 239.963364 33.351501 
L 242.234107 33.351501 
L 244.504849 33.351501 
L 246.775592 33.351501 
L 249.046335 33.351501 
L 251.317078 33.351501 
L 253.58782 33.351501 
L 255.858563 33.351501 
L 258.129306 33.351501 
L 260.400048 33.351501 
L 262.670791 33.351501 
L 264.941534 33.351501 
L 267.212276 33.351501 
L 269.483019 33.351501 
L 271.753762 33.351501 
L 274.024505 33.351501 
L 276.295247 33.351501 
L 278.56599 33.351501 
L 280.836733 33.351501 
L 283.107475 33.351501 
L 285.378218 33.351501 
L 287.648961 33.351501 
L 289.919703 33.351501 
" clip-path="url(#pf4076d1b52)" style="fill: none; stroke-dasharray: 4.44,1.92; stroke-dashoffset: 0; stroke: #66ccee; stroke-opacity: 0.5; stroke-width: 1.2"/>
   </g>
   <g id="line2d_14">
    <path d="M 65.116176 228.596106 
L 67.386919 227.736595 
L 69.657662 225.345902 
L 71.928404 221.289222 
L 74.199147 215.71632 
L 76.46989 208.825449 
L 78.740633 201.005399 
L 81.011375 192.650887 
L 83.282118 183.93734 
L 85.552861 175.08353 
L 87.823603 166.2558 
L 90.094346 157.577681 
L 92.365089 149.16296 
L 94.635831 141.104678 
L 96.906574 133.433377 
L 99.177317 126.232805 
L 101.44806 119.578079 
L 103.718802 113.479902 
L 105.989545 107.943929 
L 108.260288 102.869207 
L 110.53103 98.222918 
L 112.801773 93.976452 
L 115.072516 90.070377 
L 117.343258 86.421978 
L 119.614001 83.005599 
L 121.884744 79.802638 
L 124.155486 76.789663 
L 126.426229 73.93669 
L 128.696972 71.235426 
L 130.967715 68.683341 
L 133.238457 66.276224 
L 135.5092 64.009166 
L 137.779943 61.868509 
L 140.050685 59.83824 
L 142.321428 57.922593 
L 144.592171 56.116133 
L 146.862913 54.410836 
L 149.133656 52.813979 
L 151.404399 51.323371 
L 153.675142 49.936864 
L 155.945884 48.648232 
L 158.216627 47.457088 
L 160.48737 46.353824 
L 162.758112 45.332083 
L 165.028855 44.386826 
L 167.299598 43.510461 
L 169.57034 42.698043 
L 171.841083 41.950191 
L 174.111826 41.26218 
L 176.382569 40.624016 
L 178.653311 40.034952 
L 180.924054 39.488912 
L 183.194797 38.986048 
L 185.465539 38.523047 
L 187.736282 38.098265 
L 190.007025 37.706874 
L 192.277767 37.351381 
L 194.54851 37.030176 
L 196.819253 36.73786 
L 199.089996 36.471412 
L 201.360738 36.232558 
L 203.631481 36.018488 
L 205.902224 35.823953 
L 208.172966 35.648008 
L 210.443709 35.48838 
L 212.714452 35.342431 
L 214.985194 35.209103 
L 217.255937 35.087623 
L 219.52668 34.976687 
L 221.797423 34.876445 
L 224.068165 34.785849 
L 226.338908 34.703474 
L 228.609651 34.629206 
L 230.880393 34.561013 
L 233.151136 34.497311 
L 235.421879 34.440222 
L 237.692621 34.386876 
L 239.963364 34.337881 
L 242.234107 34.294227 
L 244.504849 34.253967 
L 246.775592 34.21604 
L 249.046335 34.179419 
L 251.317078 34.142366 
L 253.58782 34.104264 
L 255.858563 34.063817 
L 258.129306 34.020793 
L 260.400048 33.974375 
L 262.670791 33.924412 
L 264.941534 33.870962 
L 267.212276 33.81449 
L 269.483019 33.755407 
L 271.753762 33.694574 
L 274.024505 33.633437 
L 276.295247 33.574202 
L 278.56599 33.518734 
L 280.836733 33.468421 
L 283.107475 33.426038 
L 285.378218 33.395598 
L 287.648961 33.373532 
L 289.919703 33.351501 
" clip-path="url(#pf4076d1b52)" style="fill: none; stroke: #66ccee; stroke-width: 1.2; stroke-linecap: round"/>
   </g>
   <g id="line2d_15">
    <path d="M 65.116176 229.020328 
L 67.386919 228.991083 
L 69.657662 228.850507 
L 71.928404 228.506231 
L 74.199147 227.865628 
L 76.46989 226.854796 
L 78.740633 225.423472 
L 81.011375 223.510956 
L 83.282118 221.093676 
L 85.552861 218.123982 
L 87.823603 214.590752 
L 90.094346 210.547679 
L 92.365089 206.026359 
L 94.635831 201.118767 
L 96.906574 195.887948 
L 99.177317 190.388167 
L 101.44806 184.647708 
L 103.718802 178.720475 
L 105.989545 172.669357 
L 108.260288 166.533806 
L 110.53103 160.3568 
L 112.801773 154.209231 
L 115.072516 148.145214 
L 117.343258 142.192751 
L 119.614001 136.382959 
L 121.884744 130.737939 
L 124.155486 125.291653 
L 126.426229 120.092221 
L 128.696972 115.162713 
L 130.967715 110.511607 
L 133.238457 106.122902 
L 135.5092 101.971768 
L 137.779943 98.030622 
L 140.050685 94.288933 
L 142.321428 90.728799 
L 144.592171 87.342102 
L 146.862913 84.109738 
L 149.133656 81.015322 
L 151.404399 78.041289 
L 153.675142 75.180572 
L 155.945884 72.425286 
L 158.216627 69.782651 
L 160.48737 67.264004 
L 162.758112 64.883653 
L 165.028855 62.635325 
L 167.299598 60.506972 
L 169.57034 58.489323 
L 171.841083 56.569839 
L 174.111826 54.736123 
L 176.382569 52.984862 
L 178.653311 51.325015 
L 180.924054 49.766786 
L 183.194797 48.309556 
L 185.465539 46.944906 
L 187.736282 45.666875 
L 190.007025 44.475148 
L 192.277767 43.374881 
L 194.54851 42.358178 
L 196.819253 41.420747 
L 199.089996 40.562168 
L 201.360738 39.776796 
L 203.631481 39.057739 
L 205.902224 38.398407 
L 208.172966 37.794415 
L 210.443709 37.242462 
L 212.714452 36.739843 
L 214.985194 36.284773 
L 217.255937 35.875619 
L 219.52668 35.509874 
L 221.797423 35.184517 
L 224.068165 34.897216 
L 226.338908 34.645953 
L 228.609651 34.427836 
L 230.880393 34.239459 
L 233.151136 34.077941 
L 235.421879 33.940857 
L 237.692621 33.82529 
L 239.963364 33.728326 
L 242.234107 33.647491 
L 244.504849 33.580803 
L 246.775592 33.526571 
L 249.046335 33.483092 
L 251.317078 33.448734 
L 253.58782 33.421921 
L 255.858563 33.401336 
L 258.129306 33.385848 
L 260.400048 33.374454 
L 262.670791 33.366266 
L 264.941534 33.360587 
L 267.212276 33.356784 
L 269.483019 33.354382 
L 271.753762 33.352959 
L 274.024505 33.352178 
L 276.295247 33.351793 
L 278.56599 33.351629 
L 280.836733 33.351571 
L 283.107475 33.35156 
L 285.378218 33.351548 
L 287.648961 33.351548 
L 289.919703 33.351548 
" clip-path="url(#pf4076d1b52)" style="fill: none; stroke-dasharray: 4.44,1.92; stroke-dashoffset: 0; stroke: #228833; stroke-opacity: 0.5; stroke-width: 1.2"/>
   </g>
   <g id="line2d_16">
    <path d="M 65.116176 228.842182 
L 67.386919 228.726968 
L 69.657662 228.558936 
L 71.928404 228.303307 
L 74.199147 227.92129 
L 76.46989 227.374126 
L 78.740633 226.628056 
L 81.011375 225.638989 
L 83.282118 224.3944 
L 85.552861 222.83224 
L 87.823603 220.955456 
L 90.094346 218.77169 
L 92.365089 216.319955 
L 94.635831 213.600824 
L 96.906574 210.662072 
L 99.177317 207.49913 
L 101.44806 204.119027 
L 103.718802 200.546002 
L 105.989545 196.791831 
L 108.260288 192.889572 
L 110.53103 188.852829 
L 112.801773 184.731945 
L 115.072516 180.581406 
L 117.343258 176.393138 
L 119.614001 172.188495 
L 121.884744 167.986085 
L 124.155486 163.794388 
L 126.426229 159.651388 
L 128.696972 155.57622 
L 130.967715 151.597677 
L 133.238457 147.721825 
L 135.5092 143.938652 
L 137.779943 140.239847 
L 140.050685 136.636182 
L 142.321428 133.103256 
L 144.592171 129.644647 
L 146.862913 126.248479 
L 149.133656 122.90792 
L 151.404399 119.625955 
L 153.675142 116.388215 
L 155.945884 113.196916 
L 158.216627 110.055032 
L 160.48737 106.973049 
L 162.758112 103.955199 
L 165.028855 100.994998 
L 167.299598 98.108646 
L 169.57034 95.286416 
L 171.841083 92.521672 
L 174.111826 89.803439 
L 176.382569 87.129886 
L 178.653311 84.504535 
L 180.924054 81.942828 
L 183.194797 79.439494 
L 185.465539 76.991837 
L 187.736282 74.599252 
L 190.007025 72.278604 
L 192.277767 70.032865 
L 194.54851 67.860532 
L 196.819253 65.755633 
L 199.089996 63.725959 
L 201.360738 61.770763 
L 203.631481 59.883072 
L 205.902224 58.054977 
L 208.172966 56.28024 
L 210.443709 54.552061 
L 212.714452 52.866135 
L 214.985194 51.234932 
L 217.255937 49.66027 
L 219.52668 48.14265 
L 221.797423 46.684196 
L 224.068165 45.288581 
L 226.338908 43.948772 
L 228.609651 42.666799 
L 230.880393 41.449216 
L 233.151136 40.303989 
L 235.421879 39.234768 
L 237.692621 38.262897 
L 239.963364 37.395035 
L 242.234107 36.637315 
L 244.504849 35.987827 
L 246.775592 35.45079 
L 249.046335 35.027828 
L 251.317078 34.699672 
L 253.58782 34.450893 
L 255.858563 34.261478 
L 258.129306 34.113851 
L 260.400048 33.996033 
L 262.670791 33.901273 
L 264.941534 33.823436 
L 267.212276 33.757471 
L 269.483019 33.69953 
L 271.753762 33.647269 
L 274.024505 33.599277 
L 276.295247 33.554853 
L 278.56599 33.513567 
L 280.836733 33.47543 
L 283.107475 33.440931 
L 285.378218 33.410795 
L 287.648961 33.382443 
L 289.919703 33.351536 
" clip-path="url(#pf4076d1b52)" style="fill: none; stroke: #228833; stroke-width: 1.2; stroke-linecap: round"/>
   </g>
   <g id="line2d_17">
    <path d="M 65.116176 229.020545 
L 67.386919 229.020544 
L 69.657662 229.020521 
L 71.928404 229.020385 
L 74.199147 229.01991 
L 76.46989 229.018675 
L 78.740633 229.016 
L 81.011375 229.010902 
L 83.282118 229.00203 
L 85.552861 228.987747 
L 87.823603 228.966003 
L 90.094346 228.934156 
L 92.365089 228.889072 
L 94.635831 228.827029 
L 96.906574 228.744245 
L 99.177317 228.636204 
L 101.44806 228.498001 
L 103.718802 228.325003 
L 105.989545 228.112259 
L 108.260288 227.853839 
L 110.53103 227.544242 
L 112.801773 227.178304 
L 115.072516 226.750418 
L 117.343258 226.254996 
L 119.614001 225.687918 
L 121.884744 225.045372 
L 124.155486 224.322456 
L 126.426229 223.51428 
L 128.696972 222.616953 
L 130.967715 221.625396 
L 133.238457 220.532539 
L 135.5092 219.33416 
L 137.779943 218.031278 
L 140.050685 216.625251 
L 142.321428 215.109329 
L 144.592171 213.479149 
L 146.862913 211.73556 
L 149.133656 209.879129 
L 151.404399 207.911549 
L 153.675142 205.834472 
L 155.945884 203.651055 
L 158.216627 201.357478 
L 160.48737 198.952093 
L 162.758112 196.433445 
L 165.028855 193.801103 
L 167.299598 191.061894 
L 169.57034 188.229649 
L 171.841083 185.307909 
L 174.111826 182.296549 
L 176.382569 179.196246 
L 178.653311 176.008307 
L 180.924054 172.734272 
L 183.194797 169.377105 
L 185.465539 165.93782 
L 187.736282 162.42218 
L 190.007025 158.836871 
L 192.277767 155.186158 
L 194.54851 151.47327 
L 196.819253 147.697888 
L 199.089996 143.866716 
L 201.360738 139.985645 
L 203.631481 136.059364 
L 205.902224 132.092006 
L 208.172966 128.091502 
L 210.443709 124.064763 
L 212.714452 120.018676 
L 214.985194 115.960751 
L 217.255937 111.903618 
L 219.52668 107.857741 
L 221.797423 103.827445 
L 224.068165 99.816171 
L 226.338908 95.829552 
L 228.609651 91.872941 
L 230.880393 87.952567 
L 233.151136 84.078762 
L 235.421879 80.260017 
L 237.692621 76.513138 
L 239.963364 72.853987 
L 242.234107 69.288546 
L 244.504849 65.822425 
L 246.775592 62.468291 
L 249.046335 59.240534 
L 251.317078 56.148416 
L 253.58782 53.202455 
L 255.858563 50.417184 
L 258.129306 47.80801 
L 260.400048 45.388927 
L 262.670791 43.170153 
L 264.941534 41.161379 
L 267.212276 39.376215 
L 269.483019 37.826919 
L 271.753762 36.521539 
L 274.024505 35.461648 
L 276.295247 34.64249 
L 278.56599 34.051303 
L 280.836733 33.66656 
L 283.107475 33.455883 
L 285.378218 33.371036 
L 287.648961 33.353507 
L 289.919703 33.351525 
" clip-path="url(#pf4076d1b52)" style="fill: none; stroke-dasharray: 4.44,1.92; stroke-dashoffset: 0; stroke: #ccbb44; stroke-opacity: 0.5; stroke-width: 1.2"/>
   </g>
   <g id="line2d_18">
    <path d="M 65.116176 228.557266 
L 67.386919 228.387141 
L 69.657662 228.263157 
L 71.928404 228.145241 
L 74.199147 228.019083 
L 76.46989 227.880347 
L 78.740633 227.727004 
L 81.011375 227.557341 
L 83.282118 227.369122 
L 85.552861 227.159175 
L 87.823603 226.924809 
L 90.094346 226.662453 
L 92.365089 226.370061 
L 94.635831 226.044476 
L 96.906574 225.682611 
L 99.177317 225.28131 
L 101.44806 224.836512 
L 103.718802 224.345925 
L 105.989545 223.805342 
L 108.260288 223.210448 
L 110.53103 222.558744 
L 112.801773 221.849529 
L 115.072516 221.077792 
L 117.343258 220.239838 
L 119.614001 219.336578 
L 121.884744 218.373531 
L 124.155486 217.3502 
L 126.426229 216.264088 
L 128.696972 215.113118 
L 130.967715 213.890842 
L 133.238457 212.590907 
L 135.5092 211.214432 
L 137.779943 209.766981 
L 140.050685 208.248659 
L 142.321428 206.659624 
L 144.592171 204.990688 
L 146.862913 203.237349 
L 149.133656 201.401872 
L 151.404399 199.486523 
L 153.675142 197.491373 
L 155.945884 195.415296 
L 158.216627 193.257696 
L 160.48737 191.018873 
L 162.758112 188.694772 
L 165.028855 186.288571 
L 167.299598 183.798757 
L 169.57034 181.233137 
L 171.841083 178.591817 
L 174.111826 175.871275 
L 176.382569 173.079053 
L 178.653311 170.212621 
L 180.924054 167.271436 
L 183.194797 164.260112 
L 185.465539 161.170133 
L 187.736282 158.003437 
L 190.007025 154.763848 
L 192.277767 151.452825 
L 194.54851 148.074741 
L 196.819253 144.633194 
L 199.089996 141.12563 
L 201.360738 137.555576 
L 203.631481 133.920194 
L 205.902224 130.222024 
L 208.172966 126.46557 
L 210.443709 122.651526 
L 212.714452 118.776543 
L 214.985194 114.841602 
L 217.255937 110.846271 
L 219.52668 106.791401 
L 221.797423 102.682113 
L 224.068165 98.524937 
L 226.338908 94.321227 
L 228.609651 90.068056 
L 230.880393 85.763358 
L 233.151136 81.402375 
L 235.421879 77.01872 
L 237.692621 72.599097 
L 239.963364 68.19214 
L 242.234107 63.849129 
L 244.504849 59.6537 
L 246.775592 55.680738 
L 249.046335 52.023044 
L 251.317078 48.755739 
L 253.58782 45.935982 
L 255.858563 43.565894 
L 258.129306 41.608028 
L 260.400048 40.001666 
L 262.670791 38.68839 
L 264.941534 37.616581 
L 267.212276 36.742549 
L 269.483019 36.024728 
L 271.753762 35.434766 
L 274.024505 34.947156 
L 276.295247 34.543169 
L 278.56599 34.212716 
L 280.836733 33.945848 
L 283.107475 33.735988 
L 285.378218 33.575368 
L 287.648961 33.451719 
L 289.919703 33.351501 
" clip-path="url(#pf4076d1b52)" style="fill: none; stroke: #ccbb44; stroke-width: 1.2; stroke-linecap: round"/>
   </g>
   <g id="line2d_19">
    <path d="M 65.116176 229.020545 
L 67.386919 229.020545 
L 69.657662 229.020545 
L 71.928404 229.020545 
L 74.199147 229.020545 
L 76.46989 229.020545 
L 78.740633 229.020545 
L 81.011375 229.020545 
L 83.282118 229.020545 
L 85.552861 229.020545 
L 87.823603 229.020545 
L 90.094346 229.020545 
L 92.365089 229.020545 
L 94.635831 229.020545 
L 96.906574 229.020545 
L 99.177317 229.020545 
L 101.44806 229.020545 
L 103.718802 229.020545 
L 105.989545 229.020545 
L 108.260288 229.020545 
L 110.53103 229.020545 
L 112.801773 229.020545 
L 115.072516 229.020545 
L 117.343258 229.020545 
L 119.614001 229.020545 
L 121.884744 229.020545 
L 124.155486 229.020545 
L 126.426229 229.020545 
L 128.696972 229.020545 
L 130.967715 229.020545 
L 133.238457 229.020545 
L 135.5092 229.020545 
L 137.779943 229.020545 
L 140.050685 229.020545 
L 142.321428 229.020545 
L 144.592171 229.020545 
L 146.862913 229.020545 
L 149.133656 229.020545 
L 151.404399 229.020545 
L 153.675142 229.020545 
L 155.945884 229.020545 
L 158.216627 229.020545 
L 160.48737 229.020545 
L 162.758112 229.020545 
L 165.028855 229.020544 
L 167.299598 229.020544 
L 169.57034 229.020543 
L 171.841083 229.020541 
L 174.111826 229.02054 
L 176.382569 229.020537 
L 178.653311 229.020533 
L 180.924054 229.020528 
L 183.194797 229.020521 
L 185.465539 229.02051 
L 187.736282 229.020495 
L 190.007025 229.020474 
L 192.277767 229.020444 
L 194.54851 229.020401 
L 196.819253 229.020341 
L 199.089996 229.020255 
L 201.360738 229.020132 
L 203.631481 229.019956 
L 205.902224 229.019703 
L 208.172966 229.01934 
L 210.443709 229.01882 
L 212.714452 229.018075 
L 214.985194 229.017009 
L 217.255937 229.015482 
L 219.52668 229.013291 
L 221.797423 229.010146 
L 224.068165 229.00564 
L 226.338908 228.999203 
L 228.609651 228.990032 
L 230.880393 228.976995 
L 233.151136 228.958498 
L 235.421879 228.932272 
L 237.692621 228.895056 
L 239.963364 228.842184 
L 242.234107 228.766983 
L 244.504849 228.65989 
L 246.775592 228.507226 
L 249.046335 228.289473 
L 251.317078 227.979475 
L 253.58782 227.540038 
L 255.858563 226.919264 
L 258.129306 226.043414 
L 260.400048 224.806749 
L 262.670791 223.059162 
L 264.941534 220.587486 
L 267.212276 217.09823 
L 269.483019 212.191382 
L 271.753762 205.331848 
L 274.024505 195.80662 
L 276.295247 182.693043 
L 278.56599 164.863672 
L 280.836733 141.140121 
L 283.107475 111.018577 
L 285.378218 76.159488 
L 287.648961 43.574665 
L 289.919703 33.351641 
" clip-path="url(#pf4076d1b52)" style="fill: none; stroke-dasharray: 4.44,1.92; stroke-dashoffset: 0; stroke: #ee6677; stroke-opacity: 0.5; stroke-width: 1.2"/>
   </g>
   <g id="line2d_20">
    <path d="M 65.116176 228.811835 
L 67.386919 228.750012 
L 69.657662 228.683049 
L 71.928404 228.597617 
L 74.199147 228.500538 
L 76.46989 228.398019 
L 78.740633 228.294386 
L 81.011375 228.192547 
L 83.282118 228.09404 
L 85.552861 227.999989 
L 87.823603 227.910791 
L 90.094346 227.826462 
L 92.365089 227.747308 
L 94.635831 227.673194 
L 96.906574 227.603821 
L 99.177317 227.538506 
L 101.44806 227.476881 
L 103.718802 227.418276 
L 105.989545 227.362279 
L 108.260288 227.307466 
L 110.53103 227.252697 
L 112.801773 227.197518 
L 115.072516 227.141331 
L 117.343258 227.081057 
L 119.614001 227.016794 
L 121.884744 226.949008 
L 124.155486 226.877276 
L 126.426229 226.800988 
L 128.696972 226.720039 
L 130.967715 226.631961 
L 133.238457 226.534431 
L 135.5092 226.426406 
L 137.779943 226.307764 
L 140.050685 226.179235 
L 142.321428 226.037626 
L 144.592171 225.878719 
L 146.862913 225.702205 
L 149.133656 225.510028 
L 151.404399 225.30074 
L 153.675142 225.070312 
L 155.945884 224.819225 
L 158.216627 224.544654 
L 160.48737 224.242147 
L 162.758112 223.911431 
L 165.028855 223.554229 
L 167.299598 223.173388 
L 169.57034 222.772013 
L 171.841083 222.344775 
L 174.111826 221.885176 
L 176.382569 221.392224 
L 178.653311 220.863746 
L 180.924054 220.300876 
L 183.194797 219.699368 
L 185.465539 219.058104 
L 187.736282 218.378829 
L 190.007025 217.661105 
L 192.277767 216.90244 
L 194.54851 216.097983 
L 196.819253 215.253648 
L 199.089996 214.378031 
L 201.360738 213.464962 
L 203.631481 212.502326 
L 205.902224 211.493433 
L 208.172966 210.433821 
L 210.443709 209.32521 
L 212.714452 208.166575 
L 214.985194 206.957971 
L 217.255937 205.703193 
L 219.52668 204.403721 
L 221.797423 203.048882 
L 224.068165 201.646461 
L 226.338908 200.184986 
L 228.609651 198.667626 
L 230.880393 197.09064 
L 233.151136 195.43961 
L 235.421879 193.705812 
L 237.692621 191.868892 
L 239.963364 189.872707 
L 242.234107 187.625269 
L 244.504849 184.949806 
L 246.775592 181.662835 
L 249.046335 177.526667 
L 251.317078 172.241006 
L 253.58782 165.546417 
L 255.858563 157.295961 
L 258.129306 147.569679 
L 260.400048 136.560082 
L 262.670791 124.585635 
L 264.941534 112.035385 
L 267.212276 99.326276 
L 269.483019 86.874401 
L 271.753762 75.057705 
L 274.024505 64.218291 
L 276.295247 54.669388 
L 278.56599 46.699486 
L 280.836733 40.532976 
L 283.107475 36.334409 
L 285.378218 34.149515 
L 287.648961 33.503362 
L 289.919703 33.351501 
" clip-path="url(#pf4076d1b52)" style="fill: none; stroke: #ee6677; stroke-width: 1.2; stroke-linecap: round"/>
   </g>
   <g id="patch_3">
    <path d="M 53.876 238.804 
L 53.876 23.568 
" style="fill: none; stroke: #262626; stroke-linejoin: miter; stroke-linecap: square"/>
   </g>
   <g id="patch_4">
    <path d="M 301.15988 238.804 
L 301.15988 23.568 
" style="fill: none; stroke: #262626; stroke-linejoin: miter; stroke-linecap: square"/>
   </g>
   <g id="patch_5">
    <path d="M 53.876 238.804 
L 301.15988 238.804 
" style="fill: none; stroke: #262626; stroke-linejoin: miter; stroke-linecap: square"/>
   </g>
   <g id="patch_6">
    <path d="M 53.876 23.568 
L 301.15988 23.568 
" style="fill: none; stroke: #262626; stroke-linejoin: miter; stroke-linecap: square"/>
   </g>
   <g id="text_13">
    <!-- Accuracy -->
    <g style="fill: #262626" transform="translate(155.60294 17.568) scale(0.096 -0.096)">
     <defs>
      <path id="DejaVuSans-41" d="M 2188 4044 
L 1331 1722 
L 3047 1722 
L 2188 4044 
z
M 1831 4666 
L 2547 4666 
L 4325 0 
L 3669 0 
L 3244 1197 
L 1141 1197 
L 716 0 
L 50 0 
L 1831 4666 
z
" transform="scale(0.015625)"/>
      <path id="DejaVuSans-63" d="M 3122 3366 
L 3122 2828 
Q 2878 2963 2633 3030 
Q 2388 3097 2138 3097 
Q 1578 3097 1268 2742 
Q 959 2388 959 1747 
Q 959 1106 1268 751 
Q 1578 397 2138 397 
Q 2388 397 2633 464 
Q 2878 531 3122 666 
L 3122 134 
Q 2881 22 2623 -34 
Q 2366 -91 2075 -91 
Q 1284 -91 818 406 
Q 353 903 353 1747 
Q 353 2603 823 3093 
Q 1294 3584 2113 3584 
Q 2378 3584 2631 3529 
Q 2884 3475 3122 3366 
z
" transform="scale(0.015625)"/>
      <path id="DejaVuSans-75" d="M 544 1381 
L 544 3500 
L 1119 3500 
L 1119 1403 
Q 1119 906 1312 657 
Q 1506 409 1894 409 
Q 2359 409 2629 706 
Q 2900 1003 2900 1516 
L 2900 3500 
L 3475 3500 
L 3475 0 
L 2900 0 
L 2900 538 
Q 2691 219 2414 64 
Q 2138 -91 1772 -91 
Q 1169 -91 856 284 
Q 544 659 544 1381 
z
M 1991 3584 
L 1991 3584 
z
" transform="scale(0.015625)"/>
      <path id="DejaVuSans-72" d="M 2631 2963 
Q 2534 3019 2420 3045 
Q 2306 3072 2169 3072 
Q 1681 3072 1420 2755 
Q 1159 2438 1159 1844 
L 1159 0 
L 581 0 
L 581 3500 
L 1159 3500 
L 1159 2956 
Q 1341 3275 1631 3429 
Q 1922 3584 2338 3584 
Q 2397 3584 2469 3576 
Q 2541 3569 2628 3553 
L 2631 2963 
z
" transform="scale(0.015625)"/>
      <path id="DejaVuSans-61" d="M 2194 1759 
Q 1497 1759 1228 1600 
Q 959 1441 959 1056 
Q 959 750 1161 570 
Q 1363 391 1709 391 
Q 2188 391 2477 730 
Q 2766 1069 2766 1631 
L 2766 1759 
L 2194 1759 
z
M 3341 1997 
L 3341 0 
L 2766 0 
L 2766 531 
Q 2569 213 2275 61 
Q 1981 -91 1556 -91 
Q 1019 -91 701 211 
Q 384 513 384 1019 
Q 384 1609 779 1909 
Q 1175 2209 1959 2209 
L 2766 2209 
L 2766 2266 
Q 2766 2663 2505 2880 
Q 2244 3097 1772 3097 
Q 1472 3097 1187 3025 
Q 903 2953 641 2809 
L 641 3341 
Q 956 3463 1253 3523 
Q 1550 3584 1831 3584 
Q 2591 3584 2966 3190 
Q 3341 2797 3341 1997 
z
" transform="scale(0.015625)"/>
      <path id="DejaVuSans-79" d="M 2059 -325 
Q 1816 -950 1584 -1140 
Q 1353 -1331 966 -1331 
L 506 -1331 
L 506 -850 
L 844 -850 
Q 1081 -850 1212 -737 
Q 1344 -625 1503 -206 
L 1606 56 
L 191 3500 
L 800 3500 
L 1894 763 
L 2988 3500 
L 3597 3500 
L 2059 -325 
z
" transform="scale(0.015625)"/>
     </defs>
     <use xlink:href="#DejaVuSans-41"/>
     <use xlink:href="#DejaVuSans-63" x="66.658203"/>
     <use xlink:href="#DejaVuSans-63" x="121.638672"/>
     <use xlink:href="#DejaVuSans-75" x="176.619141"/>
     <use xlink:href="#DejaVuSans-72" x="239.998047"/>
     <use xlink:href="#DejaVuSans-61" x="281.111328"/>
     <use xlink:href="#DejaVuSans-63" x="342.390625"/>
     <use xlink:href="#DejaVuSans-79" x="397.371094"/>
    </g>
   </g>
   <g id="legend_1">
    <g id="patch_7">
     <path d="M 60.036 95.966 
L 143.823 95.966 
Q 145.583 95.966 145.583 94.206 
L 145.583 29.728 
Q 145.583 27.968 143.823 27.968 
L 60.036 27.968 
Q 58.276 27.968 58.276 29.728 
L 58.276 94.206 
Q 58.276 95.966 60.036 95.966 
z
" style="fill: #ffffff; opacity: 0.8; stroke: #cccccc; stroke-width: 0.8; stroke-linejoin: miter"/>
    </g>
    <g id="text_14">
     <!-- Operation -->
     <g style="fill: #262626" transform="translate(78.04125 38.7825) scale(0.096 -0.096)">
      <defs>
       <path id="DejaVuSans-4f" d="M 2522 4238 
Q 1834 4238 1429 3725 
Q 1025 3213 1025 2328 
Q 1025 1447 1429 934 
Q 1834 422 2522 422 
Q 3209 422 3611 934 
Q 4013 1447 4013 2328 
Q 4013 3213 3611 3725 
Q 3209 4238 2522 4238 
z
M 2522 4750 
Q 3503 4750 4090 4092 
Q 4678 3434 4678 2328 
Q 4678 1225 4090 567 
Q 3503 -91 2522 -91 
Q 1538 -91 948 565 
Q 359 1222 359 2328 
Q 359 3434 948 4092 
Q 1538 4750 2522 4750 
z
" transform="scale(0.015625)"/>
       <path id="DejaVuSans-70" d="M 1159 525 
L 1159 -1331 
L 581 -1331 
L 581 3500 
L 1159 3500 
L 1159 2969 
Q 1341 3281 1617 3432 
Q 1894 3584 2278 3584 
Q 2916 3584 3314 3078 
Q 3713 2572 3713 1747 
Q 3713 922 3314 415 
Q 2916 -91 2278 -91 
Q 1894 -91 1617 61 
Q 1341 213 1159 525 
z
M 3116 1747 
Q 3116 2381 2855 2742 
Q 2594 3103 2138 3103 
Q 1681 3103 1420 2742 
Q 1159 2381 1159 1747 
Q 1159 1113 1420 752 
Q 1681 391 2138 391 
Q 2594 391 2855 752 
Q 3116 1113 3116 1747 
z
" transform="scale(0.015625)"/>
       <path id="DejaVuSans-65" d="M 3597 1894 
L 3597 1613 
L 953 1613 
Q 991 1019 1311 708 
Q 1631 397 2203 397 
Q 2534 397 2845 478 
Q 3156 559 3463 722 
L 3463 178 
Q 3153 47 2828 -22 
Q 2503 -91 2169 -91 
Q 1331 -91 842 396 
Q 353 884 353 1716 
Q 353 2575 817 3079 
Q 1281 3584 2069 3584 
Q 2775 3584 3186 3129 
Q 3597 2675 3597 1894 
z
M 3022 2063 
Q 3016 2534 2758 2815 
Q 2500 3097 2075 3097 
Q 1594 3097 1305 2825 
Q 1016 2553 972 2059 
L 3022 2063 
z
" transform="scale(0.015625)"/>
       <path id="DejaVuSans-74" d="M 1172 4494 
L 1172 3500 
L 2356 3500 
L 2356 3053 
L 1172 3053 
L 1172 1153 
Q 1172 725 1289 603 
Q 1406 481 1766 481 
L 2356 481 
L 2356 0 
L 1766 0 
Q 1100 0 847 248 
Q 594 497 594 1153 
L 594 3053 
L 172 3053 
L 172 3500 
L 594 3500 
L 594 4494 
L 1172 4494 
z
" transform="scale(0.015625)"/>
       <path id="DejaVuSans-69" d="M 603 3500 
L 1178 3500 
L 1178 0 
L 603 0 
L 603 3500 
z
M 603 4863 
L 1178 4863 
L 1178 4134 
L 603 4134 
L 603 4863 
z
" transform="scale(0.015625)"/>
       <path id="DejaVuSans-6f" d="M 1959 3097 
Q 1497 3097 1228 2736 
Q 959 2375 959 1747 
Q 959 1119 1226 758 
Q 1494 397 1959 397 
Q 2419 397 2687 759 
Q 2956 1122 2956 1747 
Q 2956 2369 2687 2733 
Q 2419 3097 1959 3097 
z
M 1959 3584 
Q 2709 3584 3137 3096 
Q 3566 2609 3566 1747 
Q 3566 888 3137 398 
Q 2709 -91 1959 -91 
Q 1206 -91 779 398 
Q 353 888 353 1747 
Q 353 2609 779 3096 
Q 1206 3584 1959 3584 
z
" transform="scale(0.015625)"/>
       <path id="DejaVuSans-6e" d="M 3513 2113 
L 3513 0 
L 2938 0 
L 2938 2094 
Q 2938 2591 2744 2837 
Q 2550 3084 2163 3084 
Q 1697 3084 1428 2787 
Q 1159 2491 1159 1978 
L 1159 0 
L 581 0 
L 581 3500 
L 1159 3500 
L 1159 2956 
Q 1366 3272 1645 3428 
Q 1925 3584 2291 3584 
Q 2894 3584 3203 3211 
Q 3513 2838 3513 2113 
z
" transform="scale(0.015625)"/>
      </defs>
      <use xlink:href="#DejaVuSans-4f"/>
      <use xlink:href="#DejaVuSans-70" x="78.710938"/>
      <use xlink:href="#DejaVuSans-65" x="142.1875"/>
      <use xlink:href="#DejaVuSans-72" x="203.710938"/>
      <use xlink:href="#DejaVuSans-61" x="244.824219"/>
      <use xlink:href="#DejaVuSans-74" x="306.103516"/>
      <use xlink:href="#DejaVuSans-69" x="345.3125"/>
      <use xlink:href="#DejaVuSans-6f" x="373.095703"/>
      <use xlink:href="#DejaVuSans-6e" x="434.277344"/>
     </g>
    </g>
    <g id="line2d_21">
     <path d="M 61.796 48.785625 
L 70.596 48.785625 
L 79.396 48.785625 
" style="fill: none; stroke: #66ccee; stroke-width: 1.2; stroke-linecap: round"/>
    </g>
    <g id="text_15">
     <!-- encoding -->
     <g style="fill: #262626" transform="translate(86.436 51.865625) scale(0.088 -0.088)">
      <defs>
       <path id="DejaVuSans-64" d="M 2906 2969 
L 2906 4863 
L 3481 4863 
L 3481 0 
L 2906 0 
L 2906 525 
Q 2725 213 2448 61 
Q 2172 -91 1784 -91 
Q 1150 -91 751 415 
Q 353 922 353 1747 
Q 353 2572 751 3078 
Q 1150 3584 1784 3584 
Q 2172 3584 2448 3432 
Q 2725 3281 2906 2969 
z
M 947 1747 
Q 947 1113 1208 752 
Q 1469 391 1925 391 
Q 2381 391 2643 752 
Q 2906 1113 2906 1747 
Q 2906 2381 2643 2742 
Q 2381 3103 1925 3103 
Q 1469 3103 1208 2742 
Q 947 2381 947 1747 
z
" transform="scale(0.015625)"/>
       <path id="DejaVuSans-67" d="M 2906 1791 
Q 2906 2416 2648 2759 
Q 2391 3103 1925 3103 
Q 1463 3103 1205 2759 
Q 947 2416 947 1791 
Q 947 1169 1205 825 
Q 1463 481 1925 481 
Q 2391 481 2648 825 
Q 2906 1169 2906 1791 
z
M 3481 434 
Q 3481 -459 3084 -895 
Q 2688 -1331 1869 -1331 
Q 1566 -1331 1297 -1286 
Q 1028 -1241 775 -1147 
L 775 -588 
Q 1028 -725 1275 -790 
Q 1522 -856 1778 -856 
Q 2344 -856 2625 -561 
Q 2906 -266 2906 331 
L 2906 616 
Q 2728 306 2450 153 
Q 2172 0 1784 0 
Q 1141 0 747 490 
Q 353 981 353 1791 
Q 353 2603 747 3093 
Q 1141 3584 1784 3584 
Q 2172 3584 2450 3431 
Q 2728 3278 2906 2969 
L 2906 3500 
L 3481 3500 
L 3481 434 
z
" transform="scale(0.015625)"/>
      </defs>
      <use xlink:href="#DejaVuSans-65"/>
      <use xlink:href="#DejaVuSans-6e" x="61.523438"/>
      <use xlink:href="#DejaVuSans-63" x="124.902344"/>
      <use xlink:href="#DejaVuSans-6f" x="179.882812"/>
      <use xlink:href="#DejaVuSans-64" x="241.064453"/>
      <use xlink:href="#DejaVuSans-69" x="304.541016"/>
      <use xlink:href="#DejaVuSans-6e" x="332.324219"/>
      <use xlink:href="#DejaVuSans-67" x="395.703125"/>
     </g>
    </g>
    <g id="line2d_22">
     <path d="M 61.796 61.702375 
L 70.596 61.702375 
L 79.396 61.702375 
" style="fill: none; stroke: #228833; stroke-width: 1.2; stroke-linecap: round"/>
    </g>
    <g id="text_16">
     <!-- decision -->
     <g style="fill: #262626" transform="translate(86.436 64.782375) scale(0.088 -0.088)">
      <defs>
       <path id="DejaVuSans-73" d="M 2834 3397 
L 2834 2853 
Q 2591 2978 2328 3040 
Q 2066 3103 1784 3103 
Q 1356 3103 1142 2972 
Q 928 2841 928 2578 
Q 928 2378 1081 2264 
Q 1234 2150 1697 2047 
L 1894 2003 
Q 2506 1872 2764 1633 
Q 3022 1394 3022 966 
Q 3022 478 2636 193 
Q 2250 -91 1575 -91 
Q 1294 -91 989 -36 
Q 684 19 347 128 
L 347 722 
Q 666 556 975 473 
Q 1284 391 1588 391 
Q 1994 391 2212 530 
Q 2431 669 2431 922 
Q 2431 1156 2273 1281 
Q 2116 1406 1581 1522 
L 1381 1569 
Q 847 1681 609 1914 
Q 372 2147 372 2553 
Q 372 3047 722 3315 
Q 1072 3584 1716 3584 
Q 2034 3584 2315 3537 
Q 2597 3491 2834 3397 
z
" transform="scale(0.015625)"/>
      </defs>
      <use xlink:href="#DejaVuSans-64"/>
      <use xlink:href="#DejaVuSans-65" x="63.476562"/>
      <use xlink:href="#DejaVuSans-63" x="125"/>
      <use xlink:href="#DejaVuSans-69" x="179.980469"/>
      <use xlink:href="#DejaVuSans-73" x="207.763672"/>
      <use xlink:href="#DejaVuSans-69" x="259.863281"/>
      <use xlink:href="#DejaVuSans-6f" x="287.646484"/>
      <use xlink:href="#DejaVuSans-6e" x="348.828125"/>
     </g>
    </g>
    <g id="line2d_23">
     <path d="M 61.796 74.619125 
L 70.596 74.619125 
L 79.396 74.619125 
" style="fill: none; stroke: #ccbb44; stroke-width: 1.2; stroke-linecap: round"/>
    </g>
    <g id="text_17">
     <!-- confirmation -->
     <g style="fill: #262626" transform="translate(86.436 77.699125) scale(0.088 -0.088)">
      <defs>
       <path id="DejaVuSans-66" d="M 2375 4863 
L 2375 4384 
L 1825 4384 
Q 1516 4384 1395 4259 
Q 1275 4134 1275 3809 
L 1275 3500 
L 2222 3500 
L 2222 3053 
L 1275 3053 
L 1275 0 
L 697 0 
L 697 3053 
L 147 3053 
L 147 3500 
L 697 3500 
L 697 3744 
Q 697 4328 969 4595 
Q 1241 4863 1831 4863 
L 2375 4863 
z
" transform="scale(0.015625)"/>
       <path id="DejaVuSans-6d" d="M 3328 2828 
Q 3544 3216 3844 3400 
Q 4144 3584 4550 3584 
Q 5097 3584 5394 3201 
Q 5691 2819 5691 2113 
L 5691 0 
L 5113 0 
L 5113 2094 
Q 5113 2597 4934 2840 
Q 4756 3084 4391 3084 
Q 3944 3084 3684 2787 
Q 3425 2491 3425 1978 
L 3425 0 
L 2847 0 
L 2847 2094 
Q 2847 2600 2669 2842 
Q 2491 3084 2119 3084 
Q 1678 3084 1418 2786 
Q 1159 2488 1159 1978 
L 1159 0 
L 581 0 
L 581 3500 
L 1159 3500 
L 1159 2956 
Q 1356 3278 1631 3431 
Q 1906 3584 2284 3584 
Q 2666 3584 2933 3390 
Q 3200 3197 3328 2828 
z
" transform="scale(0.015625)"/>
      </defs>
      <use xlink:href="#DejaVuSans-63"/>
      <use xlink:href="#DejaVuSans-6f" x="54.980469"/>
      <use xlink:href="#DejaVuSans-6e" x="116.162109"/>
      <use xlink:href="#DejaVuSans-66" x="179.541016"/>
      <use xlink:href="#DejaVuSans-69" x="214.746094"/>
      <use xlink:href="#DejaVuSans-72" x="242.529297"/>
      <use xlink:href="#DejaVuSans-6d" x="281.892578"/>
      <use xlink:href="#DejaVuSans-61" x="379.304688"/>
      <use xlink:href="#DejaVuSans-74" x="440.583984"/>
      <use xlink:href="#DejaVuSans-69" x="479.792969"/>
      <use xlink:href="#DejaVuSans-6f" x="507.576172"/>
      <use xlink:href="#DejaVuSans-6e" x="568.757812"/>
     </g>
    </g>
    <g id="line2d_24">
     <path d="M 61.796 87.535875 
L 70.596 87.535875 
L 79.396 87.535875 
" style="fill: none; stroke: #ee6677; stroke-width: 1.2; stroke-linecap: round"/>
    </g>
    <g id="text_18">
     <!-- response -->
     <g style="fill: #262626" transform="translate(86.436 90.615875) scale(0.088 -0.088)">
      <use xlink:href="#DejaVuSans-72"/>
      <use xlink:href="#DejaVuSans-65" x="38.863281"/>
      <use xlink:href="#DejaVuSans-73" x="100.386719"/>
      <use xlink:href="#DejaVuSans-70" x="152.486328"/>
      <use xlink:href="#DejaVuSans-6f" x="215.962891"/>
      <use xlink:href="#DejaVuSans-6e" x="277.144531"/>
      <use xlink:href="#DejaVuSans-73" x="340.523438"/>
      <use xlink:href="#DejaVuSans-65" x="392.623047"/>
     </g>
    </g>
   </g>
   <g id="legend_2">
    <g id="patch_8">
     <path d="M 247.32313 234.404 
L 294.99988 234.404 
Q 296.75988 234.404 296.75988 232.644 
L 296.75988 193.9995 
Q 296.75988 192.2395 294.99988 192.2395 
L 247.32313 192.2395 
Q 245.56313 192.2395 245.56313 193.9995 
L 245.56313 232.644 
Q 245.56313 234.404 247.32313 234.404 
z
" style="fill: #ffffff; opacity: 0.8; stroke: #cccccc; stroke-width: 0.8; stroke-linejoin: miter"/>
    </g>
    <g id="text_19">
     <!-- Source -->
     <g style="fill: #262626" transform="translate(254.677255 203.054) scale(0.096 -0.096)">
      <defs>
       <path id="DejaVuSans-53" d="M 3425 4513 
L 3425 3897 
Q 3066 4069 2747 4153 
Q 2428 4238 2131 4238 
Q 1616 4238 1336 4038 
Q 1056 3838 1056 3469 
Q 1056 3159 1242 3001 
Q 1428 2844 1947 2747 
L 2328 2669 
Q 3034 2534 3370 2195 
Q 3706 1856 3706 1288 
Q 3706 609 3251 259 
Q 2797 -91 1919 -91 
Q 1588 -91 1214 -16 
Q 841 59 441 206 
L 441 856 
Q 825 641 1194 531 
Q 1563 422 1919 422 
Q 2459 422 2753 634 
Q 3047 847 3047 1241 
Q 3047 1584 2836 1778 
Q 2625 1972 2144 2069 
L 1759 2144 
Q 1053 2284 737 2584 
Q 422 2884 422 3419 
Q 422 4038 858 4394 
Q 1294 4750 2059 4750 
Q 2388 4750 2728 4690 
Q 3069 4631 3425 4513 
z
" transform="scale(0.015625)"/>
      </defs>
      <use xlink:href="#DejaVuSans-53"/>
      <use xlink:href="#DejaVuSans-6f" x="63.476562"/>
      <use xlink:href="#DejaVuSans-75" x="124.658203"/>
      <use xlink:href="#DejaVuSans-72" x="188.037109"/>
      <use xlink:href="#DejaVuSans-63" x="226.900391"/>
      <use xlink:href="#DejaVuSans-65" x="281.880859"/>
     </g>
    </g>
    <g id="line2d_25">
     <path d="M 249.08313 213.057125 
L 257.88313 213.057125 
L 266.68313 213.057125 
" style="fill: none; stroke-dasharray: 4.44,1.92; stroke-dashoffset: 0; stroke: #000000; stroke-width: 1.2"/>
    </g>
    <g id="text_20">
     <!-- HMP -->
     <g style="fill: #262626" transform="translate(273.72313 216.137125) scale(0.088 -0.088)">
      <defs>
       <path id="DejaVuSans-48" d="M 628 4666 
L 1259 4666 
L 1259 2753 
L 3553 2753 
L 3553 4666 
L 4184 4666 
L 4184 0 
L 3553 0 
L 3553 2222 
L 1259 2222 
L 1259 0 
L 628 0 
L 628 4666 
z
" transform="scale(0.015625)"/>
       <path id="DejaVuSans-4d" d="M 628 4666 
L 1569 4666 
L 2759 1491 
L 3956 4666 
L 4897 4666 
L 4897 0 
L 4281 0 
L 4281 4097 
L 3078 897 
L 2444 897 
L 1241 4097 
L 1241 0 
L 628 0 
L 628 4666 
z
" transform="scale(0.015625)"/>
       <path id="DejaVuSans-50" d="M 1259 4147 
L 1259 2394 
L 2053 2394 
Q 2494 2394 2734 2622 
Q 2975 2850 2975 3272 
Q 2975 3691 2734 3919 
Q 2494 4147 2053 4147 
L 1259 4147 
z
M 628 4666 
L 2053 4666 
Q 2838 4666 3239 4311 
Q 3641 3956 3641 3272 
Q 3641 2581 3239 2228 
Q 2838 1875 2053 1875 
L 1259 1875 
L 1259 0 
L 628 0 
L 628 4666 
z
" transform="scale(0.015625)"/>
      </defs>
      <use xlink:href="#DejaVuSans-48"/>
      <use xlink:href="#DejaVuSans-4d" x="75.195312"/>
      <use xlink:href="#DejaVuSans-50" x="161.474609"/>
     </g>
    </g>
    <g id="line2d_26">
     <path d="M 249.08313 225.973875 
L 257.88313 225.973875 
L 266.68313 225.973875 
" style="fill: none; stroke: #000000; stroke-width: 1.2; stroke-linecap: round"/>
    </g>
    <g id="text_21">
     <!-- S4 -->
     <g style="fill: #262626" transform="translate(273.72313 229.053875) scale(0.088 -0.088)">
      <use xlink:href="#DejaVuSans-53"/>
      <use xlink:href="#DejaVuSans-34" x="63.476562"/>
     </g>
    </g>
   </g>
  </g>
  <g id="axes_2">
   <g id="patch_9">
    <path d="M 317.338 238.804 
L 564.62188 238.804 
L 564.62188 23.568 
L 317.338 23.568 
L 317.338 238.804 
z
" style="fill: none"/>
   </g>
   <g id="matplotlib.axis_3">
    <g id="xtick_7">
     <g id="line2d_27">
      <g>
       <use xlink:href="#m8cfb7274d8" x="328.578176" y="238.804" style="fill: #262626; stroke: #262626"/>
      </g>
     </g>
     <g id="text_22">
      <!-- 0 -->
      <g style="fill: #262626" transform="translate(325.778676 253.790625) scale(0.088 -0.088)">
       <use xlink:href="#DejaVuSans-30"/>
      </g>
     </g>
    </g>
    <g id="xtick_8">
     <g id="line2d_28">
      <g>
       <use xlink:href="#m8cfb7274d8" x="373.99303" y="238.804" style="fill: #262626; stroke: #262626"/>
      </g>
     </g>
     <g id="text_23">
      <!-- 20 -->
      <g style="fill: #262626" transform="translate(368.39403 253.790625) scale(0.088 -0.088)">
       <use xlink:href="#DejaVuSans-32"/>
       <use xlink:href="#DejaVuSans-30" x="63.623047"/>
      </g>
     </g>
    </g>
    <g id="xtick_9">
     <g id="line2d_29">
      <g>
       <use xlink:href="#m8cfb7274d8" x="419.407884" y="238.804" style="fill: #262626; stroke: #262626"/>
      </g>
     </g>
     <g id="text_24">
      <!-- 40 -->
      <g style="fill: #262626" transform="translate(413.808884 253.790625) scale(0.088 -0.088)">
       <use xlink:href="#DejaVuSans-34"/>
       <use xlink:href="#DejaVuSans-30" x="63.623047"/>
      </g>
     </g>
    </g>
    <g id="xtick_10">
     <g id="line2d_30">
      <g>
       <use xlink:href="#m8cfb7274d8" x="464.822738" y="238.804" style="fill: #262626; stroke: #262626"/>
      </g>
     </g>
     <g id="text_25">
      <!-- 60 -->
      <g style="fill: #262626" transform="translate(459.223738 253.790625) scale(0.088 -0.088)">
       <use xlink:href="#DejaVuSans-36"/>
       <use xlink:href="#DejaVuSans-30" x="63.623047"/>
      </g>
     </g>
    </g>
    <g id="xtick_11">
     <g id="line2d_31">
      <g>
       <use xlink:href="#m8cfb7274d8" x="510.237592" y="238.804" style="fill: #262626; stroke: #262626"/>
      </g>
     </g>
     <g id="text_26">
      <!-- 80 -->
      <g style="fill: #262626" transform="translate(504.638592 253.790625) scale(0.088 -0.088)">
       <use xlink:href="#DejaVuSans-38"/>
       <use xlink:href="#DejaVuSans-30" x="63.623047"/>
      </g>
     </g>
    </g>
    <g id="xtick_12">
     <g id="line2d_32">
      <g>
       <use xlink:href="#m8cfb7274d8" x="555.652446" y="238.804" style="fill: #262626; stroke: #262626"/>
      </g>
     </g>
     <g id="text_27">
      <!-- 100 -->
      <g style="fill: #262626" transform="translate(547.253946 253.790625) scale(0.088 -0.088)">
       <use xlink:href="#DejaVuSans-31"/>
       <use xlink:href="#DejaVuSans-30" x="63.623047"/>
       <use xlink:href="#DejaVuSans-30" x="127.246094"/>
      </g>
     </g>
    </g>
   </g>
   <g id="matplotlib.axis_4">
    <g id="ytick_7">
     <g id="line2d_33">
      <g>
       <use xlink:href="#mc1f3ee92ec" x="317.338" y="229.020545" style="fill: #262626; stroke: #262626"/>
      </g>
     </g>
    </g>
    <g id="ytick_8">
     <g id="line2d_34">
      <g>
       <use xlink:href="#mc1f3ee92ec" x="317.338" y="189.886741" style="fill: #262626; stroke: #262626"/>
      </g>
     </g>
    </g>
    <g id="ytick_9">
     <g id="line2d_35">
      <g>
       <use xlink:href="#mc1f3ee92ec" x="317.338" y="150.752937" style="fill: #262626; stroke: #262626"/>
      </g>
     </g>
    </g>
    <g id="ytick_10">
     <g id="line2d_36">
      <g>
       <use xlink:href="#mc1f3ee92ec" x="317.338" y="111.619133" style="fill: #262626; stroke: #262626"/>
      </g>
     </g>
    </g>
    <g id="ytick_11">
     <g id="line2d_37">
      <g>
       <use xlink:href="#mc1f3ee92ec" x="317.338" y="72.485329" style="fill: #262626; stroke: #262626"/>
      </g>
     </g>
    </g>
    <g id="ytick_12">
     <g id="line2d_38">
      <g>
       <use xlink:href="#mc1f3ee92ec" x="317.338" y="33.351525" style="fill: #262626; stroke: #262626"/>
      </g>
     </g>
    </g>
   </g>
   <g id="PolyCollection_9"/>
   <g id="PolyCollection_10"/>
   <g id="PolyCollection_11"/>
   <g id="PolyCollection_12"/>
   <g id="PolyCollection_13"/>
   <g id="PolyCollection_14"/>
   <g id="PolyCollection_15"/>
   <g id="PolyCollection_16"/>
   <g id="line2d_39">
    <path d="M 328.578176 228.110267 
L 330.848919 220.69585 
L 333.119662 209.031099 
L 335.390404 195.000471 
L 337.661147 180.06594 
L 339.93189 165.174602 
L 342.202633 150.900517 
L 344.473375 137.514226 
L 346.744118 125.128444 
L 349.014861 113.784067 
L 351.285603 103.461327 
L 353.556346 94.13488 
L 355.827089 85.768104 
L 358.097831 78.310968 
L 360.368574 71.717169 
L 362.639317 65.934306 
L 364.91006 60.894387 
L 367.180802 56.526465 
L 369.451545 52.765311 
L 371.722288 49.552062 
L 373.99303 46.8311 
L 376.263773 44.546338 
L 378.534516 42.640009 
L 380.805258 41.057358 
L 383.076001 39.749039 
L 385.346744 38.670418 
L 387.617486 37.782414 
L 389.888229 37.051845 
L 392.158972 36.450956 
L 394.429715 35.955964 
L 396.700457 35.546927 
L 398.9712 35.207178 
L 401.241943 34.923213 
L 403.512685 34.684546 
L 405.783428 34.482861 
L 408.054171 34.311698 
L 410.324913 34.165983 
L 412.595656 34.041751 
L 414.866399 33.93583 
L 417.137142 33.845548 
L 419.407884 33.768527 
L 421.678627 33.702831 
L 423.94937 33.64685 
L 426.220112 33.599207 
L 428.490855 33.558679 
L 430.761598 33.524204 
L 433.03234 33.494837 
L 435.303083 33.469867 
L 437.573826 33.44871 
L 439.844569 33.430913 
L 442.115311 33.41609 
L 444.386054 33.403844 
L 446.656797 33.393779 
L 448.927539 33.385557 
L 451.198282 33.37885 
L 453.469025 33.373404 
L 455.739767 33.369007 
L 458.01051 33.365462 
L 460.281253 33.362627 
L 462.551996 33.360342 
L 464.822738 33.358511 
L 467.093481 33.357053 
L 469.364224 33.355875 
L 471.634966 33.35493 
L 473.905709 33.354172 
L 476.176452 33.353577 
L 478.447194 33.353111 
L 480.717937 33.352737 
L 482.98868 33.352446 
L 485.259423 33.352224 
L 487.530165 33.352049 
L 489.800908 33.351921 
L 492.071651 33.351828 
L 494.342393 33.351746 
L 496.613136 33.351688 
L 498.883879 33.351653 
L 501.154621 33.351618 
L 503.425364 33.351594 
L 505.696107 33.351583 
L 507.966849 33.35156 
L 510.237592 33.35156 
L 512.508335 33.351548 
L 514.779078 33.351548 
L 517.04982 33.351548 
L 519.320563 33.351536 
L 521.591306 33.351536 
L 523.862048 33.351536 
L 526.132791 33.351536 
L 528.403534 33.351536 
L 530.674276 33.351536 
L 532.945019 33.351536 
L 535.215762 33.351536 
L 537.486505 33.351536 
L 539.757247 33.351536 
L 542.02799 33.351536 
L 544.298733 33.351536 
L 546.569475 33.351536 
L 548.840218 33.351536 
L 551.110961 33.351536 
L 553.381703 33.351536 
" clip-path="url(#pedb2dc677c)" style="fill: none; stroke-dasharray: 4.44,1.92; stroke-dashoffset: 0; stroke: #66ccee; stroke-opacity: 0.5; stroke-width: 1.2"/>
   </g>
   <g id="line2d_40">
    <path d="M 328.578176 228.641243 
L 330.848919 228.317472 
L 333.119662 227.558798 
L 335.390404 226.040082 
L 337.661147 223.71222 
L 339.93189 220.570357 
L 342.202633 216.683931 
L 344.473375 212.135883 
L 346.744118 207.004275 
L 349.014861 201.425163 
L 351.285603 195.504919 
L 353.556346 189.317571 
L 355.827089 182.956435 
L 358.097831 176.492784 
L 360.368574 170.003344 
L 362.639317 163.574649 
L 364.91006 157.269002 
L 367.180802 151.122792 
L 369.451545 145.181263 
L 371.722288 139.491551 
L 373.99303 134.087362 
L 376.263773 128.969791 
L 378.534516 124.142286 
L 380.805258 119.603434 
L 383.076001 115.352105 
L 385.346744 111.366232 
L 387.617486 107.625826 
L 389.888229 104.105381 
L 392.158972 100.779423 
L 394.429715 97.629877 
L 396.700457 94.639108 
L 398.9712 91.775347 
L 401.241943 89.021146 
L 403.512685 86.361297 
L 405.783428 83.77427 
L 408.054171 81.252368 
L 410.324913 78.78548 
L 412.595656 76.380556 
L 414.866399 74.043964 
L 417.137142 71.771133 
L 419.407884 69.571438 
L 421.678627 67.43638 
L 423.94937 65.364183 
L 426.220112 63.369159 
L 428.490855 61.456941 
L 430.761598 59.629674 
L 433.03234 57.884071 
L 435.303083 56.213692 
L 437.573826 54.61736 
L 439.844569 53.101047 
L 442.115311 51.669382 
L 444.386054 50.312931 
L 446.656797 49.029103 
L 448.927539 47.815439 
L 451.198282 46.66641 
L 453.469025 45.590367 
L 455.739767 44.583495 
L 458.01051 43.641493 
L 460.281253 42.764451 
L 462.551996 41.950984 
L 464.822738 41.194524 
L 467.093481 40.49232 
L 469.364224 39.841093 
L 471.634966 39.238629 
L 473.905709 38.681311 
L 476.176452 38.162644 
L 478.447194 37.681717 
L 480.717937 37.243628 
L 482.98868 36.85373 
L 485.259423 36.50843 
L 487.530165 36.207133 
L 489.800908 35.951789 
L 492.071651 35.736202 
L 494.342393 35.552898 
L 496.613136 35.402436 
L 498.883879 35.278006 
L 501.154621 35.172236 
L 503.425364 35.078258 
L 505.696107 34.992595 
L 507.966849 34.912075 
L 510.237592 34.831718 
L 512.508335 34.749356 
L 514.779078 34.663296 
L 517.04982 34.57256 
L 519.320563 34.477415 
L 521.591306 34.378491 
L 523.862048 34.2765 
L 526.132791 34.172235 
L 528.403534 34.066838 
L 530.674276 33.961476 
L 532.945019 33.858926 
L 535.215762 33.761915 
L 537.486505 33.673079 
L 539.757247 33.593189 
L 542.02799 33.522583 
L 544.298733 33.465447 
L 546.569475 33.426283 
L 548.840218 33.400275 
L 551.110961 33.376576 
L 553.381703 33.35156 
" clip-path="url(#pedb2dc677c)" style="fill: none; stroke: #66ccee; stroke-width: 1.2; stroke-linecap: round"/>
   </g>
   <g id="line2d_41">
    <path d="M 328.578176 229.020512 
L 330.848919 229.016035 
L 333.119662 228.989912 
L 335.390404 228.916378 
L 337.661147 228.764286 
L 339.93189 228.504814 
L 342.202633 228.111985 
L 344.473375 227.565482 
L 346.744118 226.843929 
L 349.014861 225.937717 
L 351.285603 224.82882 
L 353.556346 223.507608 
L 355.827089 221.970446 
L 358.097831 220.211189 
L 360.368574 218.218648 
L 362.639317 215.998053 
L 364.91006 213.538878 
L 367.180802 210.834175 
L 369.451545 207.8884 
L 371.722288 204.711751 
L 373.99303 201.309865 
L 376.263773 197.683387 
L 378.534516 193.827869 
L 380.805258 189.737151 
L 383.076001 185.43634 
L 385.346744 180.963292 
L 387.617486 176.351408 
L 389.888229 171.632489 
L 392.158972 166.835062 
L 394.429715 161.997829 
L 396.700457 157.164061 
L 398.9712 152.36384 
L 401.241943 147.62019 
L 403.512685 142.955783 
L 405.783428 138.395541 
L 408.054171 133.963072 
L 410.324913 129.675716 
L 412.595656 125.540735 
L 414.866399 121.560869 
L 417.137142 117.736747 
L 419.407884 114.062609 
L 421.678627 110.531119 
L 423.94937 107.131931 
L 426.220112 103.857768 
L 428.490855 100.701411 
L 430.761598 97.651558 
L 433.03234 94.698495 
L 435.303083 91.832646 
L 437.573826 89.046408 
L 439.844569 86.335102 
L 442.115311 83.694718 
L 444.386054 81.122258 
L 446.656797 78.618271 
L 448.927539 76.18377 
L 451.198282 73.818744 
L 453.469025 71.52008 
L 455.739767 69.286144 
L 458.01051 67.118452 
L 460.281253 65.019046 
L 462.551996 62.991133 
L 464.822738 61.036999 
L 467.093481 59.155419 
L 469.364224 57.345309 
L 471.634966 55.606784 
L 473.905709 53.939764 
L 476.176452 52.343246 
L 478.447194 50.816786 
L 480.717937 49.360851 
L 482.98868 47.974869 
L 485.259423 46.658258 
L 487.530165 45.410912 
L 489.800908 44.232562 
L 492.071651 43.123607 
L 494.342393 42.084651 
L 496.613136 41.114436 
L 498.883879 40.211841 
L 501.154621 39.375772 
L 503.425364 38.605655 
L 505.696107 37.900908 
L 507.966849 37.25928 
L 510.237592 36.677598 
L 512.508335 36.152738 
L 514.779078 35.681853 
L 517.04982 35.26274 
L 519.320563 34.893776 
L 521.591306 34.572886 
L 523.862048 34.297469 
L 526.132791 34.065135 
L 528.403534 33.873096 
L 530.674276 33.718261 
L 532.945019 33.597236 
L 535.215762 33.506546 
L 537.486505 33.442284 
L 539.757247 33.399715 
L 542.02799 33.373824 
L 544.298733 33.359852 
L 546.569475 33.353624 
L 548.840218 33.351723 
L 551.110961 33.351548 
L 553.381703 33.351548 
" clip-path="url(#pedb2dc677c)" style="fill: none; stroke-dasharray: 4.44,1.92; stroke-dashoffset: 0; stroke: #228833; stroke-opacity: 0.5; stroke-width: 1.2"/>
   </g>
   <g id="line2d_42">
    <path d="M 328.578176 228.824724 
L 330.848919 228.718872 
L 333.119662 228.610505 
L 335.390404 228.475564 
L 337.661147 228.291298 
L 339.93189 228.044219 
L 342.202633 227.717101 
L 344.473375 227.30228 
L 346.744118 226.795467 
L 349.014861 226.185102 
L 351.285603 225.461158 
L 353.556346 224.612971 
L 355.827089 223.640603 
L 358.097831 222.540375 
L 360.368574 221.294953 
L 362.639317 219.903136 
L 364.91006 218.360887 
L 367.180802 216.656032 
L 369.451545 214.787127 
L 371.722288 212.74202 
L 373.99303 210.527427 
L 376.263773 208.140046 
L 378.534516 205.572795 
L 380.805258 202.81979 
L 383.076001 199.90247 
L 385.346744 196.827986 
L 387.617486 193.616577 
L 389.888229 190.285934 
L 392.158972 186.847959 
L 394.429715 183.326335 
L 396.700457 179.736676 
L 398.9712 176.095912 
L 401.241943 172.423313 
L 403.512685 168.733331 
L 405.783428 165.040964 
L 408.054171 161.358254 
L 410.324913 157.697785 
L 412.595656 154.064064 
L 414.866399 150.45515 
L 417.137142 146.875965 
L 419.407884 143.327499 
L 421.678627 139.807671 
L 423.94937 136.312609 
L 426.220112 132.852647 
L 428.490855 129.424255 
L 430.761598 126.008926 
L 433.03234 122.603498 
L 435.303083 119.22612 
L 437.573826 115.864381 
L 439.844569 112.510258 
L 442.115311 109.164066 
L 444.386054 105.823402 
L 446.656797 102.497456 
L 448.927539 99.17922 
L 451.198282 95.869369 
L 453.469025 92.568614 
L 455.739767 89.291244 
L 458.01051 86.031893 
L 460.281253 82.781499 
L 462.551996 79.540785 
L 464.822738 76.312422 
L 467.093481 73.102626 
L 469.364224 69.912097 
L 471.634966 66.749803 
L 473.905709 63.614591 
L 476.176452 60.50766 
L 478.447194 57.448209 
L 480.717937 54.492265 
L 482.98868 51.683972 
L 485.259423 49.048837 
L 487.530165 46.629871 
L 489.800908 44.460465 
L 492.071651 42.515544 
L 494.342393 40.820312 
L 496.613136 39.377183 
L 498.883879 38.173805 
L 501.154621 37.199986 
L 503.425364 36.431385 
L 505.696107 35.834986 
L 507.966849 35.384511 
L 510.237592 35.044972 
L 512.508335 34.792625 
L 514.779078 34.601122 
L 517.04982 34.449039 
L 519.320563 34.321658 
L 521.591306 34.211095 
L 523.862048 34.111541 
L 526.132791 34.02021 
L 528.403534 33.935118 
L 530.674276 33.855427 
L 532.945019 33.780598 
L 535.215762 33.710342 
L 537.486505 33.644855 
L 539.757247 33.584477 
L 542.02799 33.529825 
L 544.298733 33.482987 
L 546.569475 33.44541 
L 548.840218 33.414748 
L 551.110961 33.384134 
L 553.381703 33.351478 
" clip-path="url(#pedb2dc677c)" style="fill: none; stroke: #228833; stroke-width: 1.2; stroke-linecap: round"/>
   </g>
   <g id="line2d_43">
    <path d="M 328.578176 229.020545 
L 330.848919 229.020545 
L 333.119662 229.020545 
L 335.390404 229.020545 
L 337.661147 229.020545 
L 339.93189 229.020545 
L 342.202633 229.020545 
L 344.473375 229.020545 
L 346.744118 229.020545 
L 349.014861 229.020545 
L 351.285603 229.020545 
L 353.556346 229.020545 
L 355.827089 229.020545 
L 358.097831 229.020545 
L 360.368574 229.020545 
L 362.639317 229.020545 
L 364.91006 229.020545 
L 367.180802 229.020545 
L 369.451545 229.020545 
L 371.722288 229.020545 
L 373.99303 229.020545 
L 376.263773 229.020545 
L 378.534516 229.020545 
L 380.805258 229.020545 
L 383.076001 229.020545 
L 385.346744 229.020545 
L 387.617486 229.020545 
L 389.888229 229.020545 
L 392.158972 229.020545 
L 394.429715 229.020545 
L 396.700457 229.020545 
L 398.9712 229.020545 
L 401.241943 229.020545 
L 403.512685 229.020545 
L 405.783428 229.020545 
L 408.054171 229.020545 
L 410.324913 229.020545 
L 412.595656 229.020545 
L 414.866399 229.020545 
L 417.137142 229.020545 
L 419.407884 229.020545 
L 421.678627 229.020545 
L 423.94937 229.020545 
L 426.220112 229.020545 
L 428.490855 229.020545 
L 430.761598 229.020545 
L 433.03234 229.020545 
L 435.303083 229.020545 
L 437.573826 229.020545 
L 439.844569 229.020545 
L 442.115311 229.020545 
L 444.386054 229.020545 
L 446.656797 229.020545 
L 448.927539 229.020545 
L 451.198282 229.020545 
L 453.469025 229.020545 
L 455.739767 229.020545 
L 458.01051 229.020545 
L 460.281253 229.020545 
L 462.551996 229.020545 
L 464.822738 229.020545 
L 467.093481 229.020545 
L 469.364224 229.020545 
L 471.634966 229.020545 
L 473.905709 229.020545 
L 476.176452 229.020545 
L 478.447194 229.020545 
L 480.717937 229.020545 
L 482.98868 229.020545 
L 485.259423 229.020545 
L 487.530165 229.020545 
L 489.800908 229.020545 
L 492.071651 229.020545 
L 494.342393 229.020545 
L 496.613136 229.020545 
L 498.883879 229.020545 
L 501.154621 229.020545 
L 503.425364 229.020545 
L 505.696107 229.020545 
L 507.966849 229.020545 
L 510.237592 229.020545 
L 512.508335 229.020545 
L 514.779078 229.020545 
L 517.04982 229.020545 
L 519.320563 229.020545 
L 521.591306 229.020545 
L 523.862048 229.020545 
L 526.132791 229.020545 
L 528.403534 229.020545 
L 530.674276 229.020545 
L 532.945019 229.020545 
L 535.215762 229.020545 
L 537.486505 229.020545 
L 539.757247 229.020545 
L 542.02799 229.020545 
L 544.298733 229.020545 
L 546.569475 229.020545 
L 548.840218 229.020545 
L 551.110961 229.020545 
L 553.381703 229.020545 
" clip-path="url(#pedb2dc677c)" style="fill: none; stroke-dasharray: 4.44,1.92; stroke-dashoffset: 0; stroke: #ccbb44; stroke-opacity: 0.5; stroke-width: 1.2"/>
   </g>
   <g id="line2d_44">
    <path d="M 328.578176 228.051204 
L 330.848919 227.627195 
L 333.119662 227.358 
L 335.390404 227.142576 
L 337.661147 226.941375 
L 339.93189 226.735197 
L 342.202633 226.517974 
L 344.473375 226.287117 
L 346.744118 226.041607 
L 349.014861 225.780987 
L 351.285603 225.504466 
L 353.556346 225.210708 
L 355.827089 224.89836 
L 358.097831 224.566106 
L 360.368574 224.212204 
L 362.639317 223.835053 
L 364.91006 223.431261 
L 367.180802 222.997917 
L 369.451545 222.532799 
L 371.722288 222.034115 
L 373.99303 221.50006 
L 376.263773 220.926135 
L 378.534516 220.309892 
L 380.805258 219.651458 
L 383.076001 218.950044 
L 385.346744 218.202016 
L 387.617486 217.404753 
L 389.888229 216.557941 
L 392.158972 215.65979 
L 394.429715 214.70874 
L 396.700457 213.703837 
L 398.9712 212.644605 
L 401.241943 211.528287 
L 403.512685 210.35325 
L 405.783428 209.118724 
L 408.054171 207.825261 
L 410.324913 206.470459 
L 412.595656 205.052972 
L 414.866399 203.574657 
L 417.137142 202.031042 
L 419.407884 200.417936 
L 421.678627 198.734591 
L 423.94937 196.978147 
L 426.220112 195.143991 
L 428.490855 193.22958 
L 430.761598 191.22827 
L 433.03234 189.140034 
L 435.303083 186.961992 
L 437.573826 184.691155 
L 439.844569 182.323278 
L 442.115311 179.855614 
L 444.386054 177.288711 
L 446.656797 174.616091 
L 448.927539 171.837806 
L 451.198282 168.952877 
L 453.469025 165.961216 
L 455.739767 162.858455 
L 458.01051 159.640763 
L 460.281253 156.308514 
L 462.551996 152.85654 
L 464.822738 149.273961 
L 467.093481 145.565803 
L 469.364224 141.724718 
L 471.634966 137.744665 
L 473.905709 133.628472 
L 476.176452 129.376484 
L 478.447194 124.978904 
L 480.717937 120.418091 
L 482.98868 115.711155 
L 485.259423 110.865561 
L 487.530165 105.864816 
L 489.800908 100.744365 
L 492.071651 95.544933 
L 494.342393 90.24891 
L 496.613136 84.9447 
L 498.883879 79.708437 
L 501.154621 74.636188 
L 503.425364 69.809662 
L 505.696107 65.295431 
L 507.966849 61.158945 
L 510.237592 57.430948 
L 512.508335 54.117015 
L 514.779078 51.187616 
L 517.04982 48.620229 
L 519.320563 46.369604 
L 521.591306 44.397602 
L 523.862048 42.661271 
L 526.132791 41.131743 
L 528.403534 39.778231 
L 530.674276 38.579682 
L 532.945019 37.524538 
L 535.215762 36.606292 
L 537.486505 35.820792 
L 539.757247 35.159804 
L 542.02799 34.615572 
L 544.298733 34.190405 
L 546.569475 33.87993 
L 548.840218 33.663632 
L 551.110961 33.495175 
L 553.381703 33.351501 
" clip-path="url(#pedb2dc677c)" style="fill: none; stroke: #ccbb44; stroke-width: 1.2; stroke-linecap: round"/>
   </g>
   <g id="line2d_45">
    <path d="M 328.578176 229.020545 
L 330.848919 229.020545 
L 333.119662 229.020545 
L 335.390404 229.020545 
L 337.661147 229.020545 
L 339.93189 229.020545 
L 342.202633 229.020545 
L 344.473375 229.020545 
L 346.744118 229.020545 
L 349.014861 229.020545 
L 351.285603 229.020545 
L 353.556346 229.020545 
L 355.827089 229.020545 
L 358.097831 229.020545 
L 360.368574 229.020545 
L 362.639317 229.020545 
L 364.91006 229.020545 
L 367.180802 229.020545 
L 369.451545 229.020545 
L 371.722288 229.020545 
L 373.99303 229.020545 
L 376.263773 229.020544 
L 378.534516 229.020543 
L 380.805258 229.020543 
L 383.076001 229.020541 
L 385.346744 229.020539 
L 387.617486 229.020537 
L 389.888229 229.020533 
L 392.158972 229.020528 
L 394.429715 229.02052 
L 396.700457 229.02051 
L 398.9712 229.020496 
L 401.241943 229.020476 
L 403.512685 229.020449 
L 405.783428 229.020413 
L 408.054171 229.020363 
L 410.324913 229.020297 
L 412.595656 229.020209 
L 414.866399 229.020093 
L 417.137142 229.01994 
L 419.407884 229.019741 
L 421.678627 229.019484 
L 423.94937 229.019153 
L 426.220112 229.018728 
L 428.490855 229.018183 
L 430.761598 229.017487 
L 433.03234 229.016598 
L 435.303083 229.015464 
L 437.573826 229.014017 
L 439.844569 229.012177 
L 442.115311 229.009838 
L 444.386054 229.006873 
L 446.656797 229.00313 
L 448.927539 228.998423 
L 451.198282 228.992531 
L 453.469025 228.985173 
L 455.739767 228.975996 
L 458.01051 228.964547 
L 460.281253 228.95026 
L 462.551996 228.932411 
L 464.822738 228.910059 
L 467.093481 228.88198 
L 469.364224 228.846617 
L 471.634966 228.801984 
L 473.905709 228.74556 
L 476.176452 228.674235 
L 478.447194 228.584303 
L 480.717937 228.471343 
L 482.98868 228.330472 
L 485.259423 228.155884 
L 487.530165 227.940249 
L 489.800908 227.674194 
L 492.071651 227.345782 
L 494.342393 226.9398 
L 496.613136 226.437641 
L 498.883879 225.817456 
L 501.154621 225.05341 
L 503.425364 224.114675 
L 505.696107 222.964733 
L 507.966849 221.561695 
L 510.237592 219.857352 
L 512.508335 217.796569 
L 514.779078 215.315524 
L 517.04982 212.335925 
L 519.320563 208.764513 
L 521.591306 204.490647 
L 523.862048 199.378202 
L 526.132791 193.270612 
L 528.403534 185.995917 
L 530.674276 177.353789 
L 532.945019 167.110571 
L 535.215762 155.006539 
L 537.486505 140.786633 
L 539.757247 124.268745 
L 542.02799 105.531692 
L 544.298733 85.216163 
L 546.569475 64.835777 
L 548.840218 46.923073 
L 551.110961 34.993248 
L 553.381703 33.351455 
" clip-path="url(#pedb2dc677c)" style="fill: none; stroke-dasharray: 4.44,1.92; stroke-dashoffset: 0; stroke: #ee6677; stroke-opacity: 0.5; stroke-width: 1.2"/>
   </g>
   <g id="line2d_46">
    <path d="M 328.578176 228.866465 
L 330.848919 228.813612 
L 333.119662 228.777614 
L 335.390404 228.736469 
L 337.661147 228.687232 
L 339.93189 228.631976 
L 342.202633 228.572842 
L 344.473375 228.511846 
L 346.744118 228.449933 
L 349.014861 228.388193 
L 351.285603 228.327442 
L 353.556346 228.268091 
L 355.827089 228.210527 
L 358.097831 228.154964 
L 360.368574 228.101704 
L 362.639317 228.05089 
L 364.91006 228.002531 
L 367.180802 227.956459 
L 369.451545 227.912532 
L 371.722288 227.870693 
L 373.99303 227.830839 
L 376.263773 227.792578 
L 378.534516 227.755417 
L 380.805258 227.719323 
L 383.076001 227.684272 
L 385.346744 227.649705 
L 387.617486 227.615052 
L 389.888229 227.580154 
L 392.158972 227.544491 
L 394.429715 227.508269 
L 396.700457 227.470349 
L 398.9712 227.43174 
L 401.241943 227.391014 
L 403.512685 227.347371 
L 405.783428 227.300206 
L 408.054171 227.253363 
L 410.324913 227.20655 
L 412.595656 227.158368 
L 414.866399 227.107089 
L 417.137142 227.051127 
L 419.407884 226.989449 
L 421.678627 226.923392 
L 423.94937 226.853381 
L 426.220112 226.777085 
L 428.490855 226.693331 
L 430.761598 226.601559 
L 433.03234 226.503452 
L 435.303083 226.398827 
L 437.573826 226.287042 
L 439.844569 226.168177 
L 442.115311 226.0422 
L 444.386054 225.908285 
L 446.656797 225.761775 
L 448.927539 225.603878 
L 451.198282 225.432492 
L 453.469025 225.245271 
L 455.739767 225.049552 
L 458.01051 224.842886 
L 460.281253 224.625923 
L 462.551996 224.396063 
L 464.822738 224.150776 
L 467.093481 223.888474 
L 469.364224 223.613981 
L 471.634966 223.32091 
L 473.905709 223.016696 
L 476.176452 222.700395 
L 478.447194 222.367327 
L 480.717937 222.014135 
L 482.98868 221.636242 
L 485.259423 221.226551 
L 487.530165 220.772113 
L 489.800908 220.244023 
L 492.071651 219.602927 
L 494.342393 218.781597 
L 496.613136 217.677564 
L 498.883879 216.158301 
L 501.154621 214.069597 
L 503.425364 211.196228 
L 505.696107 207.309901 
L 507.966849 202.22695 
L 510.237592 195.720004 
L 512.508335 187.690303 
L 514.779078 178.121119 
L 517.04982 167.126934 
L 519.320563 154.93395 
L 521.591306 141.837124 
L 523.862048 128.191557 
L 526.132791 114.366052 
L 528.403534 100.733577 
L 530.674276 87.624294 
L 532.945019 75.397372 
L 535.215762 64.363026 
L 537.486505 54.8141 
L 539.757247 46.960697 
L 542.02799 40.92221 
L 544.298733 36.784861 
L 546.569475 34.490663 
L 548.840218 33.615978 
L 551.110961 33.410037 
L 553.381703 33.351478 
" clip-path="url(#pedb2dc677c)" style="fill: none; stroke: #ee6677; stroke-width: 1.2; stroke-linecap: round"/>
   </g>
   <g id="patch_10">
    <path d="M 317.338 238.804 
L 317.338 23.568 
" style="fill: none; stroke: #262626; stroke-linejoin: miter; stroke-linecap: square"/>
   </g>
   <g id="patch_11">
    <path d="M 564.62188 238.804 
L 564.62188 23.568 
" style="fill: none; stroke: #262626; stroke-linejoin: miter; stroke-linecap: square"/>
   </g>
   <g id="patch_12">
    <path d="M 317.338 238.804 
L 564.62188 238.804 
" style="fill: none; stroke: #262626; stroke-linejoin: miter; stroke-linecap: square"/>
   </g>
   <g id="patch_13">
    <path d="M 317.338 23.568 
L 564.62188 23.568 
" style="fill: none; stroke: #262626; stroke-linejoin: miter; stroke-linecap: square"/>
   </g>
   <g id="text_28">
    <!-- Speed -->
    <g style="fill: #262626" transform="translate(425.93119 17.568) scale(0.096 -0.096)">
     <use xlink:href="#DejaVuSans-53"/>
     <use xlink:href="#DejaVuSans-70" x="63.476562"/>
     <use xlink:href="#DejaVuSans-65" x="126.953125"/>
     <use xlink:href="#DejaVuSans-65" x="188.476562"/>
     <use xlink:href="#DejaVuSans-64" x="250"/>
    </g>
   </g>
   <g id="legend_3"/>
  </g>
  <g id="text_29">
   <!-- Cumulative probability -->
   <g style="fill: #262626" transform="translate(20.2734 209.4363) rotate(-90) scale(0.1152 -0.1152)">
    <defs>
     <path id="DejaVuSans-43" d="M 4122 4306 
L 4122 3641 
Q 3803 3938 3442 4084 
Q 3081 4231 2675 4231 
Q 1875 4231 1450 3742 
Q 1025 3253 1025 2328 
Q 1025 1406 1450 917 
Q 1875 428 2675 428 
Q 3081 428 3442 575 
Q 3803 722 4122 1019 
L 4122 359 
Q 3791 134 3420 21 
Q 3050 -91 2638 -91 
Q 1578 -91 968 557 
Q 359 1206 359 2328 
Q 359 3453 968 4101 
Q 1578 4750 2638 4750 
Q 3056 4750 3426 4639 
Q 3797 4528 4122 4306 
z
" transform="scale(0.015625)"/>
     <path id="DejaVuSans-6c" d="M 603 4863 
L 1178 4863 
L 1178 0 
L 603 0 
L 603 4863 
z
" transform="scale(0.015625)"/>
     <path id="DejaVuSans-76" d="M 191 3500 
L 800 3500 
L 1894 563 
L 2988 3500 
L 3597 3500 
L 2284 0 
L 1503 0 
L 191 3500 
z
" transform="scale(0.015625)"/>
     <path id="DejaVuSans-20" transform="scale(0.015625)"/>
     <path id="DejaVuSans-62" d="M 3116 1747 
Q 3116 2381 2855 2742 
Q 2594 3103 2138 3103 
Q 1681 3103 1420 2742 
Q 1159 2381 1159 1747 
Q 1159 1113 1420 752 
Q 1681 391 2138 391 
Q 2594 391 2855 752 
Q 3116 1113 3116 1747 
z
M 1159 2969 
Q 1341 3281 1617 3432 
Q 1894 3584 2278 3584 
Q 2916 3584 3314 3078 
Q 3713 2572 3713 1747 
Q 3713 922 3314 415 
Q 2916 -91 2278 -91 
Q 1894 -91 1617 61 
Q 1341 213 1159 525 
L 1159 0 
L 581 0 
L 581 4863 
L 1159 4863 
L 1159 2969 
z
" transform="scale(0.015625)"/>
    </defs>
    <use xlink:href="#DejaVuSans-43"/>
    <use xlink:href="#DejaVuSans-75" x="69.824219"/>
    <use xlink:href="#DejaVuSans-6d" x="133.203125"/>
    <use xlink:href="#DejaVuSans-75" x="230.615234"/>
    <use xlink:href="#DejaVuSans-6c" x="293.994141"/>
    <use xlink:href="#DejaVuSans-61" x="321.777344"/>
    <use xlink:href="#DejaVuSans-74" x="383.056641"/>
    <use xlink:href="#DejaVuSans-69" x="422.265625"/>
    <use xlink:href="#DejaVuSans-76" x="450.048828"/>
    <use xlink:href="#DejaVuSans-65" x="509.228516"/>
    <use xlink:href="#DejaVuSans-20" x="570.751953"/>
    <use xlink:href="#DejaVuSans-70" x="602.539062"/>
    <use xlink:href="#DejaVuSans-72" x="666.015625"/>
    <use xlink:href="#DejaVuSans-6f" x="704.878906"/>
    <use xlink:href="#DejaVuSans-62" x="766.060547"/>
    <use xlink:href="#DejaVuSans-61" x="829.537109"/>
    <use xlink:href="#DejaVuSans-62" x="890.816406"/>
    <use xlink:href="#DejaVuSans-69" x="954.292969"/>
    <use xlink:href="#DejaVuSans-6c" x="982.076172"/>
    <use xlink:href="#DejaVuSans-69" x="1009.859375"/>
    <use xlink:href="#DejaVuSans-74" x="1037.642578"/>
    <use xlink:href="#DejaVuSans-79" x="1076.851562"/>
   </g>
  </g>
  <g id="text_30">
   <!-- Normalized time -->
   <g style="fill: #262626" transform="translate(240.4908 282.7242) scale(0.1152 -0.1152)">
    <defs>
     <path id="DejaVuSans-4e" d="M 628 4666 
L 1478 4666 
L 3547 763 
L 3547 4666 
L 4159 4666 
L 4159 0 
L 3309 0 
L 1241 3903 
L 1241 0 
L 628 0 
L 628 4666 
z
" transform="scale(0.015625)"/>
     <path id="DejaVuSans-7a" d="M 353 3500 
L 3084 3500 
L 3084 2975 
L 922 459 
L 3084 459 
L 3084 0 
L 275 0 
L 275 525 
L 2438 3041 
L 353 3041 
L 353 3500 
z
" transform="scale(0.015625)"/>
    </defs>
    <use xlink:href="#DejaVuSans-4e"/>
    <use xlink:href="#DejaVuSans-6f" x="74.804688"/>
    <use xlink:href="#DejaVuSans-72" x="135.986328"/>
    <use xlink:href="#DejaVuSans-6d" x="175.349609"/>
    <use xlink:href="#DejaVuSans-61" x="272.761719"/>
    <use xlink:href="#DejaVuSans-6c" x="334.041016"/>
    <use xlink:href="#DejaVuSans-69" x="361.824219"/>
    <use xlink:href="#DejaVuSans-7a" x="389.607422"/>
    <use xlink:href="#DejaVuSans-65" x="442.097656"/>
    <use xlink:href="#DejaVuSans-64" x="503.621094"/>
    <use xlink:href="#DejaVuSans-20" x="567.097656"/>
    <use xlink:href="#DejaVuSans-74" x="598.884766"/>
    <use xlink:href="#DejaVuSans-69" x="638.09375"/>
    <use xlink:href="#DejaVuSans-6d" x="665.876953"/>
    <use xlink:href="#DejaVuSans-65" x="763.289062"/>
   </g>
  </g>
 </g>
 <defs>
  <clipPath id="pf4076d1b52">
   <rect x="53.876" y="23.568" width="247.28388" height="215.236"/>
  </clipPath>
  <clipPath id="pedb2dc677c">
   <rect x="317.338" y="23.568" width="247.28388" height="215.236"/>
  </clipPath>
 </defs>
</svg>
