<?xml version="1.0" encoding="utf-8" standalone="no"?>
<!DOCTYPE svg PUBLIC "-//W3C//DTD SVG 1.1//EN"
  "http://www.w3.org/Graphics/SVG/1.1/DTD/svg11.dtd">
<svg xmlns:xlink="http://www.w3.org/1999/xlink" width="576pt" height="288pt" viewBox="0 0 576 288" xmlns="http://www.w3.org/2000/svg" version="1.1">
 <metadata>
  <rdf:RDF xmlns:dc="http://purl.org/dc/elements/1.1/" xmlns:cc="http://creativecommons.org/ns#" xmlns:rdf="http://www.w3.org/1999/02/22-rdf-syntax-ns#">
   <cc:Work>
    <dc:type rdf:resource="http://purl.org/dc/dcmitype/StillImage"/>
    <dc:date>2024-11-01T12:47:19.759473</dc:date>
    <dc:format>image/svg+xml</dc:format>
    <dc:creator>
     <cc:Agent>
      <dc:title>Matplotlib v3.9.2, https://matplotlib.org/</dc:title>
     </cc:Agent>
    </dc:creator>
   </cc:Work>
  </rdf:RDF>
 </metadata>
 <defs>
  <style type="text/css">*{stroke-linejoin: round; stroke-linecap: butt}</style>
 </defs>
 <g id="figure_1">
  <g id="patch_1">
   <path d="M 0 288 
L 576 288 
L 576 0 
L 0 0 
L 0 288 
z
" style="fill: none"/>
  </g>
  <g id="axes_1">
   <g id="patch_2">
    <path d="M 46.068 238.804 
L 298.266 238.804 
L 298.266 23.568 
L 46.068 23.568 
L 46.068 238.804 
z
" style="fill: none"/>
   </g>
   <g id="matplotlib.axis_1">
    <g id="xtick_1">
     <g id="line2d_1">
      <defs>
       <path id="m18c7ca3183" d="M 0 0 
L 0 4.8 
" style="stroke: #262626"/>
      </defs>
      <g>
       <use xlink:href="#m18c7ca3183" x="90.284532" y="238.804" style="fill: #262626; stroke: #262626"/>
      </g>
     </g>
     <g id="text_1">
      <!-- Low -->
      <g style="fill: #262626" transform="translate(81.619282 253.790625) scale(0.088 -0.088)">
       <defs>
        <path id="DejaVuSans-4c" d="M 628 4666 
L 1259 4666 
L 1259 531 
L 3531 531 
L 3531 0 
L 628 0 
L 628 4666 
z
" transform="scale(0.015625)"/>
        <path id="DejaVuSans-6f" d="M 1959 3097 
Q 1497 3097 1228 2736 
Q 959 2375 959 1747 
Q 959 1119 1226 758 
Q 1494 397 1959 397 
Q 2419 397 2687 759 
Q 2956 1122 2956 1747 
Q 2956 2369 2687 2733 
Q 2419 3097 1959 3097 
z
M 1959 3584 
Q 2709 3584 3137 3096 
Q 3566 2609 3566 1747 
Q 3566 888 3137 398 
Q 2709 -91 1959 -91 
Q 1206 -91 779 398 
Q 353 888 353 1747 
Q 353 2609 779 3096 
Q 1206 3584 1959 3584 
z
" transform="scale(0.015625)"/>
        <path id="DejaVuSans-77" d="M 269 3500 
L 844 3500 
L 1563 769 
L 2278 3500 
L 2956 3500 
L 3675 769 
L 4391 3500 
L 4966 3500 
L 4050 0 
L 3372 0 
L 2619 2869 
L 1863 0 
L 1184 0 
L 269 3500 
z
" transform="scale(0.015625)"/>
       </defs>
       <use xlink:href="#DejaVuSans-4c"/>
       <use xlink:href="#DejaVuSans-6f" x="53.962891"/>
       <use xlink:href="#DejaVuSans-77" x="115.144531"/>
      </g>
     </g>
    </g>
    <g id="xtick_2">
     <g id="line2d_2">
      <g>
       <use xlink:href="#m18c7ca3183" x="172.167" y="238.804" style="fill: #262626; stroke: #262626"/>
      </g>
     </g>
     <g id="text_2">
      <!-- Medium -->
      <g style="fill: #262626" transform="translate(154.573187 253.790625) scale(0.088 -0.088)">
       <defs>
        <path id="DejaVuSans-4d" d="M 628 4666 
L 1569 4666 
L 2759 1491 
L 3956 4666 
L 4897 4666 
L 4897 0 
L 4281 0 
L 4281 4097 
L 3078 897 
L 2444 897 
L 1241 4097 
L 1241 0 
L 628 0 
L 628 4666 
z
" transform="scale(0.015625)"/>
        <path id="DejaVuSans-65" d="M 3597 1894 
L 3597 1613 
L 953 1613 
Q 991 1019 1311 708 
Q 1631 397 2203 397 
Q 2534 397 2845 478 
Q 3156 559 3463 722 
L 3463 178 
Q 3153 47 2828 -22 
Q 2503 -91 2169 -91 
Q 1331 -91 842 396 
Q 353 884 353 1716 
Q 353 2575 817 3079 
Q 1281 3584 2069 3584 
Q 2775 3584 3186 3129 
Q 3597 2675 3597 1894 
z
M 3022 2063 
Q 3016 2534 2758 2815 
Q 2500 3097 2075 3097 
Q 1594 3097 1305 2825 
Q 1016 2553 972 2059 
L 3022 2063 
z
" transform="scale(0.015625)"/>
        <path id="DejaVuSans-64" d="M 2906 2969 
L 2906 4863 
L 3481 4863 
L 3481 0 
L 2906 0 
L 2906 525 
Q 2725 213 2448 61 
Q 2172 -91 1784 -91 
Q 1150 -91 751 415 
Q 353 922 353 1747 
Q 353 2572 751 3078 
Q 1150 3584 1784 3584 
Q 2172 3584 2448 3432 
Q 2725 3281 2906 2969 
z
M 947 1747 
Q 947 1113 1208 752 
Q 1469 391 1925 391 
Q 2381 391 2643 752 
Q 2906 1113 2906 1747 
Q 2906 2381 2643 2742 
Q 2381 3103 1925 3103 
Q 1469 3103 1208 2742 
Q 947 2381 947 1747 
z
" transform="scale(0.015625)"/>
        <path id="DejaVuSans-69" d="M 603 3500 
L 1178 3500 
L 1178 0 
L 603 0 
L 603 3500 
z
M 603 4863 
L 1178 4863 
L 1178 4134 
L 603 4134 
L 603 4863 
z
" transform="scale(0.015625)"/>
        <path id="DejaVuSans-75" d="M 544 1381 
L 544 3500 
L 1119 3500 
L 1119 1403 
Q 1119 906 1312 657 
Q 1506 409 1894 409 
Q 2359 409 2629 706 
Q 2900 1003 2900 1516 
L 2900 3500 
L 3475 3500 
L 3475 0 
L 2900 0 
L 2900 538 
Q 2691 219 2414 64 
Q 2138 -91 1772 -91 
Q 1169 -91 856 284 
Q 544 659 544 1381 
z
M 1991 3584 
L 1991 3584 
z
" transform="scale(0.015625)"/>
        <path id="DejaVuSans-6d" d="M 3328 2828 
Q 3544 3216 3844 3400 
Q 4144 3584 4550 3584 
Q 5097 3584 5394 3201 
Q 5691 2819 5691 2113 
L 5691 0 
L 5113 0 
L 5113 2094 
Q 5113 2597 4934 2840 
Q 4756 3084 4391 3084 
Q 3944 3084 3684 2787 
Q 3425 2491 3425 1978 
L 3425 0 
L 2847 0 
L 2847 2094 
Q 2847 2600 2669 2842 
Q 2491 3084 2119 3084 
Q 1678 3084 1418 2786 
Q 1159 2488 1159 1978 
L 1159 0 
L 581 0 
L 581 3500 
L 1159 3500 
L 1159 2956 
Q 1356 3278 1631 3431 
Q 1906 3584 2284 3584 
Q 2666 3584 2933 3390 
Q 3200 3197 3328 2828 
z
" transform="scale(0.015625)"/>
       </defs>
       <use xlink:href="#DejaVuSans-4d"/>
       <use xlink:href="#DejaVuSans-65" x="86.279297"/>
       <use xlink:href="#DejaVuSans-64" x="147.802734"/>
       <use xlink:href="#DejaVuSans-69" x="211.279297"/>
       <use xlink:href="#DejaVuSans-75" x="239.0625"/>
       <use xlink:href="#DejaVuSans-6d" x="302.441406"/>
      </g>
     </g>
    </g>
    <g id="xtick_3">
     <g id="line2d_3">
      <g>
       <use xlink:href="#m18c7ca3183" x="254.049468" y="238.804" style="fill: #262626; stroke: #262626"/>
      </g>
     </g>
     <g id="text_3">
      <!-- High -->
      <g style="fill: #262626" transform="translate(243.936343 253.790625) scale(0.088 -0.088)">
       <defs>
        <path id="DejaVuSans-48" d="M 628 4666 
L 1259 4666 
L 1259 2753 
L 3553 2753 
L 3553 4666 
L 4184 4666 
L 4184 0 
L 3553 0 
L 3553 2222 
L 1259 2222 
L 1259 0 
L 628 0 
L 628 4666 
z
" transform="scale(0.015625)"/>
        <path id="DejaVuSans-67" d="M 2906 1791 
Q 2906 2416 2648 2759 
Q 2391 3103 1925 3103 
Q 1463 3103 1205 2759 
Q 947 2416 947 1791 
Q 947 1169 1205 825 
Q 1463 481 1925 481 
Q 2391 481 2648 825 
Q 2906 1169 2906 1791 
z
M 3481 434 
Q 3481 -459 3084 -895 
Q 2688 -1331 1869 -1331 
Q 1566 -1331 1297 -1286 
Q 1028 -1241 775 -1147 
L 775 -588 
Q 1028 -725 1275 -790 
Q 1522 -856 1778 -856 
Q 2344 -856 2625 -561 
Q 2906 -266 2906 331 
L 2906 616 
Q 2728 306 2450 153 
Q 2172 0 1784 0 
Q 1141 0 747 490 
Q 353 981 353 1791 
Q 353 2603 747 3093 
Q 1141 3584 1784 3584 
Q 2172 3584 2450 3431 
Q 2728 3278 2906 2969 
L 2906 3500 
L 3481 3500 
L 3481 434 
z
" transform="scale(0.015625)"/>
        <path id="DejaVuSans-68" d="M 3513 2113 
L 3513 0 
L 2938 0 
L 2938 2094 
Q 2938 2591 2744 2837 
Q 2550 3084 2163 3084 
Q 1697 3084 1428 2787 
Q 1159 2491 1159 1978 
L 1159 0 
L 581 0 
L 581 4863 
L 1159 4863 
L 1159 2956 
Q 1366 3272 1645 3428 
Q 1925 3584 2291 3584 
Q 2894 3584 3203 3211 
Q 3513 2838 3513 2113 
z
" transform="scale(0.015625)"/>
       </defs>
       <use xlink:href="#DejaVuSans-48"/>
       <use xlink:href="#DejaVuSans-69" x="75.195312"/>
       <use xlink:href="#DejaVuSans-67" x="102.978516"/>
       <use xlink:href="#DejaVuSans-68" x="166.455078"/>
      </g>
     </g>
    </g>
   </g>
   <g id="matplotlib.axis_2">
    <g id="ytick_1">
     <g id="line2d_4">
      <defs>
       <path id="m5eb6957c9f" d="M 0 0 
L -4.8 0 
" style="stroke: #262626"/>
      </defs>
      <g>
       <use xlink:href="#m5eb6957c9f" x="46.068" y="238.804" style="fill: #262626; stroke: #262626"/>
      </g>
     </g>
     <g id="text_4">
      <!-- 0.5 -->
      <g style="fill: #262626" transform="translate(23.77325 242.147312) scale(0.088 -0.088)">
       <defs>
        <path id="DejaVuSans-30" d="M 2034 4250 
Q 1547 4250 1301 3770 
Q 1056 3291 1056 2328 
Q 1056 1369 1301 889 
Q 1547 409 2034 409 
Q 2525 409 2770 889 
Q 3016 1369 3016 2328 
Q 3016 3291 2770 3770 
Q 2525 4250 2034 4250 
z
M 2034 4750 
Q 2819 4750 3233 4129 
Q 3647 3509 3647 2328 
Q 3647 1150 3233 529 
Q 2819 -91 2034 -91 
Q 1250 -91 836 529 
Q 422 1150 422 2328 
Q 422 3509 836 4129 
Q 1250 4750 2034 4750 
z
" transform="scale(0.015625)"/>
        <path id="DejaVuSans-2e" d="M 684 794 
L 1344 794 
L 1344 0 
L 684 0 
L 684 794 
z
" transform="scale(0.015625)"/>
        <path id="DejaVuSans-35" d="M 691 4666 
L 3169 4666 
L 3169 4134 
L 1269 4134 
L 1269 2991 
Q 1406 3038 1543 3061 
Q 1681 3084 1819 3084 
Q 2600 3084 3056 2656 
Q 3513 2228 3513 1497 
Q 3513 744 3044 326 
Q 2575 -91 1722 -91 
Q 1428 -91 1123 -41 
Q 819 9 494 109 
L 494 744 
Q 775 591 1075 516 
Q 1375 441 1709 441 
Q 2250 441 2565 725 
Q 2881 1009 2881 1497 
Q 2881 1984 2565 2268 
Q 2250 2553 1709 2553 
Q 1456 2553 1204 2497 
Q 953 2441 691 2322 
L 691 4666 
z
" transform="scale(0.015625)"/>
       </defs>
       <use xlink:href="#DejaVuSans-30"/>
       <use xlink:href="#DejaVuSans-2e" x="63.623047"/>
       <use xlink:href="#DejaVuSans-35" x="95.410156"/>
      </g>
     </g>
    </g>
    <g id="ytick_2">
     <g id="line2d_5">
      <g>
       <use xlink:href="#m5eb6957c9f" x="46.068" y="202.931333" style="fill: #262626; stroke: #262626"/>
      </g>
     </g>
     <g id="text_5">
      <!-- 0.6 -->
      <g style="fill: #262626" transform="translate(23.77325 206.274646) scale(0.088 -0.088)">
       <defs>
        <path id="DejaVuSans-36" d="M 2113 2584 
Q 1688 2584 1439 2293 
Q 1191 2003 1191 1497 
Q 1191 994 1439 701 
Q 1688 409 2113 409 
Q 2538 409 2786 701 
Q 3034 994 3034 1497 
Q 3034 2003 2786 2293 
Q 2538 2584 2113 2584 
z
M 3366 4563 
L 3366 3988 
Q 3128 4100 2886 4159 
Q 2644 4219 2406 4219 
Q 1781 4219 1451 3797 
Q 1122 3375 1075 2522 
Q 1259 2794 1537 2939 
Q 1816 3084 2150 3084 
Q 2853 3084 3261 2657 
Q 3669 2231 3669 1497 
Q 3669 778 3244 343 
Q 2819 -91 2113 -91 
Q 1303 -91 875 529 
Q 447 1150 447 2328 
Q 447 3434 972 4092 
Q 1497 4750 2381 4750 
Q 2619 4750 2861 4703 
Q 3103 4656 3366 4563 
z
" transform="scale(0.015625)"/>
       </defs>
       <use xlink:href="#DejaVuSans-30"/>
       <use xlink:href="#DejaVuSans-2e" x="63.623047"/>
       <use xlink:href="#DejaVuSans-36" x="95.410156"/>
      </g>
     </g>
    </g>
    <g id="ytick_3">
     <g id="line2d_6">
      <g>
       <use xlink:href="#m5eb6957c9f" x="46.068" y="167.058667" style="fill: #262626; stroke: #262626"/>
      </g>
     </g>
     <g id="text_6">
      <!-- 0.7 -->
      <g style="fill: #262626" transform="translate(23.77325 170.401979) scale(0.088 -0.088)">
       <defs>
        <path id="DejaVuSans-37" d="M 525 4666 
L 3525 4666 
L 3525 4397 
L 1831 0 
L 1172 0 
L 2766 4134 
L 525 4134 
L 525 4666 
z
" transform="scale(0.015625)"/>
       </defs>
       <use xlink:href="#DejaVuSans-30"/>
       <use xlink:href="#DejaVuSans-2e" x="63.623047"/>
       <use xlink:href="#DejaVuSans-37" x="95.410156"/>
      </g>
     </g>
    </g>
    <g id="ytick_4">
     <g id="line2d_7">
      <g>
       <use xlink:href="#m5eb6957c9f" x="46.068" y="131.186" style="fill: #262626; stroke: #262626"/>
      </g>
     </g>
     <g id="text_7">
      <!-- 0.8 -->
      <g style="fill: #262626" transform="translate(23.77325 134.529312) scale(0.088 -0.088)">
       <defs>
        <path id="DejaVuSans-38" d="M 2034 2216 
Q 1584 2216 1326 1975 
Q 1069 1734 1069 1313 
Q 1069 891 1326 650 
Q 1584 409 2034 409 
Q 2484 409 2743 651 
Q 3003 894 3003 1313 
Q 3003 1734 2745 1975 
Q 2488 2216 2034 2216 
z
M 1403 2484 
Q 997 2584 770 2862 
Q 544 3141 544 3541 
Q 544 4100 942 4425 
Q 1341 4750 2034 4750 
Q 2731 4750 3128 4425 
Q 3525 4100 3525 3541 
Q 3525 3141 3298 2862 
Q 3072 2584 2669 2484 
Q 3125 2378 3379 2068 
Q 3634 1759 3634 1313 
Q 3634 634 3220 271 
Q 2806 -91 2034 -91 
Q 1263 -91 848 271 
Q 434 634 434 1313 
Q 434 1759 690 2068 
Q 947 2378 1403 2484 
z
M 1172 3481 
Q 1172 3119 1398 2916 
Q 1625 2713 2034 2713 
Q 2441 2713 2670 2916 
Q 2900 3119 2900 3481 
Q 2900 3844 2670 4047 
Q 2441 4250 2034 4250 
Q 1625 4250 1398 4047 
Q 1172 3844 1172 3481 
z
" transform="scale(0.015625)"/>
       </defs>
       <use xlink:href="#DejaVuSans-30"/>
       <use xlink:href="#DejaVuSans-2e" x="63.623047"/>
       <use xlink:href="#DejaVuSans-38" x="95.410156"/>
      </g>
     </g>
    </g>
    <g id="ytick_5">
     <g id="line2d_8">
      <g>
       <use xlink:href="#m5eb6957c9f" x="46.068" y="95.313333" style="fill: #262626; stroke: #262626"/>
      </g>
     </g>
     <g id="text_8">
      <!-- 0.9 -->
      <g style="fill: #262626" transform="translate(23.77325 98.656646) scale(0.088 -0.088)">
       <defs>
        <path id="DejaVuSans-39" d="M 703 97 
L 703 672 
Q 941 559 1184 500 
Q 1428 441 1663 441 
Q 2288 441 2617 861 
Q 2947 1281 2994 2138 
Q 2813 1869 2534 1725 
Q 2256 1581 1919 1581 
Q 1219 1581 811 2004 
Q 403 2428 403 3163 
Q 403 3881 828 4315 
Q 1253 4750 1959 4750 
Q 2769 4750 3195 4129 
Q 3622 3509 3622 2328 
Q 3622 1225 3098 567 
Q 2575 -91 1691 -91 
Q 1453 -91 1209 -44 
Q 966 3 703 97 
z
M 1959 2075 
Q 2384 2075 2632 2365 
Q 2881 2656 2881 3163 
Q 2881 3666 2632 3958 
Q 2384 4250 1959 4250 
Q 1534 4250 1286 3958 
Q 1038 3666 1038 3163 
Q 1038 2656 1286 2365 
Q 1534 2075 1959 2075 
z
" transform="scale(0.015625)"/>
       </defs>
       <use xlink:href="#DejaVuSans-30"/>
       <use xlink:href="#DejaVuSans-2e" x="63.623047"/>
       <use xlink:href="#DejaVuSans-39" x="95.410156"/>
      </g>
     </g>
    </g>
    <g id="ytick_6">
     <g id="line2d_9">
      <g>
       <use xlink:href="#m5eb6957c9f" x="46.068" y="59.440667" style="fill: #262626; stroke: #262626"/>
      </g>
     </g>
     <g id="text_9">
      <!-- 1.0 -->
      <g style="fill: #262626" transform="translate(23.77325 62.783979) scale(0.088 -0.088)">
       <defs>
        <path id="DejaVuSans-31" d="M 794 531 
L 1825 531 
L 1825 4091 
L 703 3866 
L 703 4441 
L 1819 4666 
L 2450 4666 
L 2450 531 
L 3481 531 
L 3481 0 
L 794 0 
L 794 531 
z
" transform="scale(0.015625)"/>
       </defs>
       <use xlink:href="#DejaVuSans-31"/>
       <use xlink:href="#DejaVuSans-2e" x="63.623047"/>
       <use xlink:href="#DejaVuSans-30" x="95.410156"/>
      </g>
     </g>
    </g>
    <g id="ytick_7">
     <g id="line2d_10">
      <g>
       <use xlink:href="#m5eb6957c9f" x="46.068" y="23.568" style="fill: #262626; stroke: #262626"/>
      </g>
     </g>
     <g id="text_10">
      <!-- 1.1 -->
      <g style="fill: #262626" transform="translate(23.77325 26.911313) scale(0.088 -0.088)">
       <use xlink:href="#DejaVuSans-31"/>
       <use xlink:href="#DejaVuSans-2e" x="63.623047"/>
       <use xlink:href="#DejaVuSans-31" x="95.410156"/>
      </g>
     </g>
    </g>
    <g id="text_11">
     <!-- Probability of correct response -->
     <g style="fill: #262626" transform="translate(17.77675 204.36575) rotate(-90) scale(0.096 -0.096)">
      <defs>
       <path id="DejaVuSans-50" d="M 1259 4147 
L 1259 2394 
L 2053 2394 
Q 2494 2394 2734 2622 
Q 2975 2850 2975 3272 
Q 2975 3691 2734 3919 
Q 2494 4147 2053 4147 
L 1259 4147 
z
M 628 4666 
L 2053 4666 
Q 2838 4666 3239 4311 
Q 3641 3956 3641 3272 
Q 3641 2581 3239 2228 
Q 2838 1875 2053 1875 
L 1259 1875 
L 1259 0 
L 628 0 
L 628 4666 
z
" transform="scale(0.015625)"/>
       <path id="DejaVuSans-72" d="M 2631 2963 
Q 2534 3019 2420 3045 
Q 2306 3072 2169 3072 
Q 1681 3072 1420 2755 
Q 1159 2438 1159 1844 
L 1159 0 
L 581 0 
L 581 3500 
L 1159 3500 
L 1159 2956 
Q 1341 3275 1631 3429 
Q 1922 3584 2338 3584 
Q 2397 3584 2469 3576 
Q 2541 3569 2628 3553 
L 2631 2963 
z
" transform="scale(0.015625)"/>
       <path id="DejaVuSans-62" d="M 3116 1747 
Q 3116 2381 2855 2742 
Q 2594 3103 2138 3103 
Q 1681 3103 1420 2742 
Q 1159 2381 1159 1747 
Q 1159 1113 1420 752 
Q 1681 391 2138 391 
Q 2594 391 2855 752 
Q 3116 1113 3116 1747 
z
M 1159 2969 
Q 1341 3281 1617 3432 
Q 1894 3584 2278 3584 
Q 2916 3584 3314 3078 
Q 3713 2572 3713 1747 
Q 3713 922 3314 415 
Q 2916 -91 2278 -91 
Q 1894 -91 1617 61 
Q 1341 213 1159 525 
L 1159 0 
L 581 0 
L 581 4863 
L 1159 4863 
L 1159 2969 
z
" transform="scale(0.015625)"/>
       <path id="DejaVuSans-61" d="M 2194 1759 
Q 1497 1759 1228 1600 
Q 959 1441 959 1056 
Q 959 750 1161 570 
Q 1363 391 1709 391 
Q 2188 391 2477 730 
Q 2766 1069 2766 1631 
L 2766 1759 
L 2194 1759 
z
M 3341 1997 
L 3341 0 
L 2766 0 
L 2766 531 
Q 2569 213 2275 61 
Q 1981 -91 1556 -91 
Q 1019 -91 701 211 
Q 384 513 384 1019 
Q 384 1609 779 1909 
Q 1175 2209 1959 2209 
L 2766 2209 
L 2766 2266 
Q 2766 2663 2505 2880 
Q 2244 3097 1772 3097 
Q 1472 3097 1187 3025 
Q 903 2953 641 2809 
L 641 3341 
Q 956 3463 1253 3523 
Q 1550 3584 1831 3584 
Q 2591 3584 2966 3190 
Q 3341 2797 3341 1997 
z
" transform="scale(0.015625)"/>
       <path id="DejaVuSans-6c" d="M 603 4863 
L 1178 4863 
L 1178 0 
L 603 0 
L 603 4863 
z
" transform="scale(0.015625)"/>
       <path id="DejaVuSans-74" d="M 1172 4494 
L 1172 3500 
L 2356 3500 
L 2356 3053 
L 1172 3053 
L 1172 1153 
Q 1172 725 1289 603 
Q 1406 481 1766 481 
L 2356 481 
L 2356 0 
L 1766 0 
Q 1100 0 847 248 
Q 594 497 594 1153 
L 594 3053 
L 172 3053 
L 172 3500 
L 594 3500 
L 594 4494 
L 1172 4494 
z
" transform="scale(0.015625)"/>
       <path id="DejaVuSans-79" d="M 2059 -325 
Q 1816 -950 1584 -1140 
Q 1353 -1331 966 -1331 
L 506 -1331 
L 506 -850 
L 844 -850 
Q 1081 -850 1212 -737 
Q 1344 -625 1503 -206 
L 1606 56 
L 191 3500 
L 800 3500 
L 1894 763 
L 2988 3500 
L 3597 3500 
L 2059 -325 
z
" transform="scale(0.015625)"/>
       <path id="DejaVuSans-20" transform="scale(0.015625)"/>
       <path id="DejaVuSans-66" d="M 2375 4863 
L 2375 4384 
L 1825 4384 
Q 1516 4384 1395 4259 
Q 1275 4134 1275 3809 
L 1275 3500 
L 2222 3500 
L 2222 3053 
L 1275 3053 
L 1275 0 
L 697 0 
L 697 3053 
L 147 3053 
L 147 3500 
L 697 3500 
L 697 3744 
Q 697 4328 969 4595 
Q 1241 4863 1831 4863 
L 2375 4863 
z
" transform="scale(0.015625)"/>
       <path id="DejaVuSans-63" d="M 3122 3366 
L 3122 2828 
Q 2878 2963 2633 3030 
Q 2388 3097 2138 3097 
Q 1578 3097 1268 2742 
Q 959 2388 959 1747 
Q 959 1106 1268 751 
Q 1578 397 2138 397 
Q 2388 397 2633 464 
Q 2878 531 3122 666 
L 3122 134 
Q 2881 22 2623 -34 
Q 2366 -91 2075 -91 
Q 1284 -91 818 406 
Q 353 903 353 1747 
Q 353 2603 823 3093 
Q 1294 3584 2113 3584 
Q 2378 3584 2631 3529 
Q 2884 3475 3122 3366 
z
" transform="scale(0.015625)"/>
       <path id="DejaVuSans-73" d="M 2834 3397 
L 2834 2853 
Q 2591 2978 2328 3040 
Q 2066 3103 1784 3103 
Q 1356 3103 1142 2972 
Q 928 2841 928 2578 
Q 928 2378 1081 2264 
Q 1234 2150 1697 2047 
L 1894 2003 
Q 2506 1872 2764 1633 
Q 3022 1394 3022 966 
Q 3022 478 2636 193 
Q 2250 -91 1575 -91 
Q 1294 -91 989 -36 
Q 684 19 347 128 
L 347 722 
Q 666 556 975 473 
Q 1284 391 1588 391 
Q 1994 391 2212 530 
Q 2431 669 2431 922 
Q 2431 1156 2273 1281 
Q 2116 1406 1581 1522 
L 1381 1569 
Q 847 1681 609 1914 
Q 372 2147 372 2553 
Q 372 3047 722 3315 
Q 1072 3584 1716 3584 
Q 2034 3584 2315 3537 
Q 2597 3491 2834 3397 
z
" transform="scale(0.015625)"/>
       <path id="DejaVuSans-70" d="M 1159 525 
L 1159 -1331 
L 581 -1331 
L 581 3500 
L 1159 3500 
L 1159 2969 
Q 1341 3281 1617 3432 
Q 1894 3584 2278 3584 
Q 2916 3584 3314 3078 
Q 3713 2572 3713 1747 
Q 3713 922 3314 415 
Q 2916 -91 2278 -91 
Q 1894 -91 1617 61 
Q 1341 213 1159 525 
z
M 3116 1747 
Q 3116 2381 2855 2742 
Q 2594 3103 2138 3103 
Q 1681 3103 1420 2742 
Q 1159 2381 1159 1747 
Q 1159 1113 1420 752 
Q 1681 391 2138 391 
Q 2594 391 2855 752 
Q 3116 1113 3116 1747 
z
" transform="scale(0.015625)"/>
       <path id="DejaVuSans-6e" d="M 3513 2113 
L 3513 0 
L 2938 0 
L 2938 2094 
Q 2938 2591 2744 2837 
Q 2550 3084 2163 3084 
Q 1697 3084 1428 2787 
Q 1159 2491 1159 1978 
L 1159 0 
L 581 0 
L 581 3500 
L 1159 3500 
L 1159 2956 
Q 1366 3272 1645 3428 
Q 1925 3584 2291 3584 
Q 2894 3584 3203 3211 
Q 3513 2838 3513 2113 
z
" transform="scale(0.015625)"/>
      </defs>
      <use xlink:href="#DejaVuSans-50"/>
      <use xlink:href="#DejaVuSans-72" x="58.552734"/>
      <use xlink:href="#DejaVuSans-6f" x="97.416016"/>
      <use xlink:href="#DejaVuSans-62" x="158.597656"/>
      <use xlink:href="#DejaVuSans-61" x="222.074219"/>
      <use xlink:href="#DejaVuSans-62" x="283.353516"/>
      <use xlink:href="#DejaVuSans-69" x="346.830078"/>
      <use xlink:href="#DejaVuSans-6c" x="374.613281"/>
      <use xlink:href="#DejaVuSans-69" x="402.396484"/>
      <use xlink:href="#DejaVuSans-74" x="430.179688"/>
      <use xlink:href="#DejaVuSans-79" x="469.388672"/>
      <use xlink:href="#DejaVuSans-20" x="528.568359"/>
      <use xlink:href="#DejaVuSans-6f" x="560.355469"/>
      <use xlink:href="#DejaVuSans-66" x="621.537109"/>
      <use xlink:href="#DejaVuSans-20" x="656.742188"/>
      <use xlink:href="#DejaVuSans-63" x="688.529297"/>
      <use xlink:href="#DejaVuSans-6f" x="743.509766"/>
      <use xlink:href="#DejaVuSans-72" x="804.691406"/>
      <use xlink:href="#DejaVuSans-72" x="844.054688"/>
      <use xlink:href="#DejaVuSans-65" x="882.917969"/>
      <use xlink:href="#DejaVuSans-63" x="944.441406"/>
      <use xlink:href="#DejaVuSans-74" x="999.421875"/>
      <use xlink:href="#DejaVuSans-20" x="1038.630859"/>
      <use xlink:href="#DejaVuSans-72" x="1070.417969"/>
      <use xlink:href="#DejaVuSans-65" x="1109.28125"/>
      <use xlink:href="#DejaVuSans-73" x="1170.804688"/>
      <use xlink:href="#DejaVuSans-70" x="1222.904297"/>
      <use xlink:href="#DejaVuSans-6f" x="1286.380859"/>
      <use xlink:href="#DejaVuSans-6e" x="1347.5625"/>
      <use xlink:href="#DejaVuSans-73" x="1410.941406"/>
      <use xlink:href="#DejaVuSans-65" x="1463.041016"/>
     </g>
    </g>
   </g>
   <g id="PolyCollection_1">
    <defs>
     <path id="m61e434137b" d="M 118.000314 -149.455504 
L 62.568751 -149.455504 
L 62.025756 -150.103554 
L 61.512244 -150.751603 
L 61.029269 -151.399652 
L 60.577685 -152.047702 
L 60.15814 -152.695751 
L 59.771079 -153.3438 
L 59.416731 -153.99185 
L 59.095119 -154.639899 
L 58.806059 -155.287948 
L 58.549162 -155.935998 
L 58.323844 -156.584047 
L 58.129333 -157.232096 
L 57.96468 -157.880146 
L 57.82877 -158.528195 
L 57.720335 -159.176244 
L 57.63797 -159.824294 
L 57.58015 -160.472343 
L 57.545247 -161.120392 
L 57.531545 -161.768442 
L 57.537264 -162.416491 
L 57.560575 -163.06454 
L 57.599621 -163.71259 
L 57.65254 -164.360639 
L 57.717479 -165.008688 
L 57.792616 -165.656738 
L 57.876181 -166.304787 
L 57.966471 -166.952836 
L 58.061865 -167.600886 
L 58.160846 -168.248935 
L 58.262013 -168.896984 
L 58.364092 -169.545034 
L 58.46595 -170.193083 
L 58.566605 -170.841132 
L 58.665236 -171.489182 
L 58.761185 -172.137231 
L 58.853965 -172.78528 
L 58.943261 -173.43333 
L 59.028932 -174.081379 
L 59.111005 -174.729429 
L 59.189679 -175.377478 
L 59.265309 -176.025527 
L 59.338409 -176.673577 
L 59.409633 -177.321626 
L 59.479771 -177.969675 
L 59.54973 -178.617725 
L 59.620526 -179.265774 
L 59.693262 -179.913823 
L 59.769116 -180.561873 
L 59.849322 -181.209922 
L 59.935149 -181.857971 
L 60.027887 -182.506021 
L 60.128826 -183.15407 
L 60.239237 -183.802119 
L 60.360357 -184.450169 
L 60.493365 -185.098218 
L 60.639374 -185.746267 
L 60.799407 -186.394317 
L 60.974391 -187.042366 
L 61.165137 -187.690415 
L 61.372335 -188.338465 
L 61.596542 -188.986514 
L 61.838175 -189.634563 
L 62.097509 -190.282613 
L 62.374669 -190.930662 
L 62.669635 -191.578711 
L 62.98224 -192.226761 
L 63.312175 -192.87481 
L 63.658992 -193.522859 
L 64.022116 -194.170909 
L 64.400849 -194.818958 
L 64.794384 -195.467007 
L 65.201815 -196.115057 
L 65.62215 -196.763106 
L 66.054327 -197.411155 
L 66.497223 -198.059205 
L 66.949676 -198.707254 
L 67.410493 -199.355303 
L 67.878467 -200.003353 
L 68.352394 -200.651402 
L 68.831082 -201.299451 
L 69.313364 -201.947501 
L 69.798115 -202.59555 
L 70.284255 -203.243599 
L 70.770763 -203.891649 
L 71.256684 -204.539698 
L 71.741133 -205.187747 
L 72.223303 -205.835797 
L 72.702465 -206.483846 
L 73.177971 -207.131895 
L 73.649255 -207.779945 
L 74.11583 -208.427994 
L 74.577286 -209.076044 
L 75.033287 -209.724093 
L 75.483566 -210.372142 
L 75.927919 -211.020192 
L 76.366198 -211.668241 
L 76.798306 -212.31629 
L 77.224188 -212.96434 
L 77.643824 -213.612389 
L 102.925241 -213.612389 
L 102.925241 -213.612389 
L 103.344877 -212.96434 
L 103.770759 -212.31629 
L 104.202867 -211.668241 
L 104.641146 -211.020192 
L 105.085499 -210.372142 
L 105.535778 -209.724093 
L 105.991779 -209.076044 
L 106.453235 -208.427994 
L 106.91981 -207.779945 
L 107.391094 -207.131895 
L 107.8666 -206.483846 
L 108.345762 -205.835797 
L 108.827932 -205.187747 
L 109.312381 -204.539698 
L 109.798302 -203.891649 
L 110.28481 -203.243599 
L 110.77095 -202.59555 
L 111.255701 -201.947501 
L 111.737983 -201.299451 
L 112.216671 -200.651402 
L 112.690598 -200.003353 
L 113.158572 -199.355303 
L 113.619389 -198.707254 
L 114.071842 -198.059205 
L 114.514738 -197.411155 
L 114.946915 -196.763106 
L 115.36725 -196.115057 
L 115.774681 -195.467007 
L 116.168216 -194.818958 
L 116.546949 -194.170909 
L 116.910073 -193.522859 
L 117.25689 -192.87481 
L 117.586825 -192.226761 
L 117.89943 -191.578711 
L 118.194396 -190.930662 
L 118.471556 -190.282613 
L 118.73089 -189.634563 
L 118.972523 -188.986514 
L 119.19673 -188.338465 
L 119.403928 -187.690415 
L 119.594674 -187.042366 
L 119.769658 -186.394317 
L 119.929691 -185.746267 
L 120.0757 -185.098218 
L 120.208708 -184.450169 
L 120.329828 -183.802119 
L 120.440239 -183.15407 
L 120.541178 -182.506021 
L 120.633916 -181.857971 
L 120.719743 -181.209922 
L 120.799948 -180.561873 
L 120.875803 -179.913823 
L 120.948539 -179.265774 
L 121.019335 -178.617725 
L 121.089294 -177.969675 
L 121.159432 -177.321626 
L 121.230656 -176.673577 
L 121.303756 -176.025527 
L 121.379386 -175.377478 
L 121.458059 -174.729429 
L 121.540133 -174.081379 
L 121.625804 -173.43333 
L 121.7151 -172.78528 
L 121.80788 -172.137231 
L 121.903829 -171.489182 
L 122.002459 -170.841132 
L 122.103115 -170.193083 
L 122.204973 -169.545034 
L 122.307052 -168.896984 
L 122.408219 -168.248935 
L 122.5072 -167.600886 
L 122.602594 -166.952836 
L 122.692883 -166.304787 
L 122.776449 -165.656738 
L 122.851586 -165.008688 
L 122.916525 -164.360639 
L 122.969444 -163.71259 
L 123.00849 -163.06454 
L 123.031801 -162.416491 
L 123.037519 -161.768442 
L 123.023818 -161.120392 
L 122.988914 -160.472343 
L 122.931095 -159.824294 
L 122.84873 -159.176244 
L 122.740295 -158.528195 
L 122.604385 -157.880146 
L 122.439732 -157.232096 
L 122.245221 -156.584047 
L 122.019903 -155.935998 
L 121.763006 -155.287948 
L 121.473946 -154.639899 
L 121.152334 -153.99185 
L 120.797986 -153.3438 
L 120.410924 -152.695751 
L 119.99138 -152.047702 
L 119.539796 -151.399652 
L 119.056821 -150.751603 
L 118.543309 -150.103554 
L 118.000314 -149.455504 
z
" style="stroke: #2f2f2f"/>
    </defs>
    <g clip-path="url(#pc6f1e5dfdd)">
     <use xlink:href="#m61e434137b" x="0" y="288" style="fill: #58b2a3; stroke: #2f2f2f"/>
    </g>
   </g>
   <g id="PolyCollection_2">
    <defs>
     <path id="m0905461fa5" d="M 183.85037 -146.616694 
L 160.48363 -146.616694 
L 160.158494 -147.271849 
L 159.840852 -147.927005 
L 159.530714 -148.582161 
L 159.22793 -149.237317 
L 158.932181 -149.892472 
L 158.642985 -150.547628 
L 158.359698 -151.202784 
L 158.081513 -151.85794 
L 157.807474 -152.513095 
L 157.536481 -153.168251 
L 157.267306 -153.823407 
L 156.998603 -154.478563 
L 156.728927 -155.133718 
L 156.456755 -155.788874 
L 156.180505 -156.44403 
L 155.898559 -157.099185 
L 155.60929 -157.754341 
L 155.311084 -158.409497 
L 155.002367 -159.064653 
L 154.681637 -159.719808 
L 154.347487 -160.374964 
L 153.998632 -161.03012 
L 153.633939 -161.685276 
L 153.252452 -162.340431 
L 152.853416 -162.995587 
L 152.436299 -163.650743 
L 152.000815 -164.305898 
L 151.546942 -164.961054 
L 151.074937 -165.61621 
L 150.585348 -166.271366 
L 150.079027 -166.926521 
L 149.557129 -167.581677 
L 149.021119 -168.236833 
L 148.472767 -168.891989 
L 147.914144 -169.547144 
L 147.347605 -170.2023 
L 146.775782 -170.857456 
L 146.201557 -171.512612 
L 145.628044 -172.167767 
L 145.05856 -172.822923 
L 144.496591 -173.478079 
L 143.945764 -174.133234 
L 143.409802 -174.78839 
L 142.892492 -175.443546 
L 142.397638 -176.098702 
L 141.92902 -176.753857 
L 141.490351 -177.409013 
L 141.085231 -178.064169 
L 140.717104 -178.719325 
L 140.389217 -179.37448 
L 140.104576 -180.029636 
L 139.865912 -180.684792 
L 139.67564 -181.339947 
L 139.535832 -181.995103 
L 139.448188 -182.650259 
L 139.414013 -183.305415 
L 139.434197 -183.96057 
L 139.509204 -184.615726 
L 139.639067 -185.270882 
L 139.823382 -185.926038 
L 140.061317 -186.581193 
L 140.35162 -187.236349 
L 140.692636 -187.891505 
L 141.082326 -188.546661 
L 141.518297 -189.201816 
L 141.997829 -189.856972 
L 142.517915 -190.512128 
L 143.075295 -191.167283 
L 143.666499 -191.822439 
L 144.287892 -192.477595 
L 144.935718 -193.132751 
L 145.606146 -193.787906 
L 146.295316 -194.443062 
L 146.999385 -195.098218 
L 147.714568 -195.753374 
L 148.437183 -196.408529 
L 149.163686 -197.063685 
L 149.890708 -197.718841 
L 150.615089 -198.373996 
L 151.3339 -199.029152 
L 152.044468 -199.684308 
L 152.744395 -200.339464 
L 153.431568 -200.994619 
L 154.10417 -201.649775 
L 154.760678 -202.304931 
L 155.399866 -202.960087 
L 156.020797 -203.615242 
L 156.62281 -204.270398 
L 157.205507 -204.925554 
L 157.768737 -205.58071 
L 158.312572 -206.235865 
L 158.837286 -206.891021 
L 159.343329 -207.546177 
L 159.831302 -208.201332 
L 160.301928 -208.856488 
L 160.756027 -209.511644 
L 161.19449 -210.1668 
L 161.618252 -210.821955 
L 162.028266 -211.477111 
L 182.305734 -211.477111 
L 182.305734 -211.477111 
L 182.715748 -210.821955 
L 183.13951 -210.1668 
L 183.577973 -209.511644 
L 184.032072 -208.856488 
L 184.502698 -208.201332 
L 184.990671 -207.546177 
L 185.496714 -206.891021 
L 186.021428 -206.235865 
L 186.565263 -205.58071 
L 187.128493 -204.925554 
L 187.71119 -204.270398 
L 188.313203 -203.615242 
L 188.934134 -202.960087 
L 189.573322 -202.304931 
L 190.22983 -201.649775 
L 190.902432 -200.994619 
L 191.589605 -200.339464 
L 192.289532 -199.684308 
L 193.0001 -199.029152 
L 193.718911 -198.373996 
L 194.443292 -197.718841 
L 195.170314 -197.063685 
L 195.896817 -196.408529 
L 196.619432 -195.753374 
L 197.334615 -195.098218 
L 198.038684 -194.443062 
L 198.727854 -193.787906 
L 199.398282 -193.132751 
L 200.046108 -192.477595 
L 200.667501 -191.822439 
L 201.258705 -191.167283 
L 201.816085 -190.512128 
L 202.336171 -189.856972 
L 202.815703 -189.201816 
L 203.251674 -188.546661 
L 203.641364 -187.891505 
L 203.98238 -187.236349 
L 204.272683 -186.581193 
L 204.510618 -185.926038 
L 204.694933 -185.270882 
L 204.824796 -184.615726 
L 204.899803 -183.96057 
L 204.919987 -183.305415 
L 204.885812 -182.650259 
L 204.798168 -181.995103 
L 204.65836 -181.339947 
L 204.468088 -180.684792 
L 204.229424 -180.029636 
L 203.944783 -179.37448 
L 203.616896 -178.719325 
L 203.248769 -178.064169 
L 202.843649 -177.409013 
L 202.40498 -176.753857 
L 201.936362 -176.098702 
L 201.441508 -175.443546 
L 200.924198 -174.78839 
L 200.388236 -174.133234 
L 199.837409 -173.478079 
L 199.27544 -172.822923 
L 198.705956 -172.167767 
L 198.132443 -171.512612 
L 197.558218 -170.857456 
L 196.986395 -170.2023 
L 196.419856 -169.547144 
L 195.861233 -168.891989 
L 195.312881 -168.236833 
L 194.776871 -167.581677 
L 194.254973 -166.926521 
L 193.748652 -166.271366 
L 193.259063 -165.61621 
L 192.787058 -164.961054 
L 192.333185 -164.305898 
L 191.897701 -163.650743 
L 191.480584 -162.995587 
L 191.081548 -162.340431 
L 190.700061 -161.685276 
L 190.335368 -161.03012 
L 189.986513 -160.374964 
L 189.652363 -159.719808 
L 189.331633 -159.064653 
L 189.022916 -158.409497 
L 188.72471 -157.754341 
L 188.435441 -157.099185 
L 188.153495 -156.44403 
L 187.877245 -155.788874 
L 187.605073 -155.133718 
L 187.335397 -154.478563 
L 187.066694 -153.823407 
L 186.797519 -153.168251 
L 186.526526 -152.513095 
L 186.252487 -151.85794 
L 185.974302 -151.202784 
L 185.691015 -150.547628 
L 185.401819 -149.892472 
L 185.10607 -149.237317 
L 184.803286 -148.582161 
L 184.493148 -147.927005 
L 184.175506 -147.271849 
L 183.85037 -146.616694 
z
" style="stroke: #2f2f2f"/>
    </defs>
    <g clip-path="url(#pc6f1e5dfdd)">
     <use xlink:href="#m0905461fa5" x="0" y="288" style="fill: #437695; stroke: #2f2f2f"/>
    </g>
   </g>
   <g id="PolyCollection_3">
    <defs>
     <path id="mf982da7676" d="M 265.643146 -152.079536 
L 242.455789 -152.079536 
L 242.081186 -152.679512 
L 241.703464 -153.279487 
L 241.322393 -153.879463 
L 240.937696 -154.479438 
L 240.549052 -155.079414 
L 240.156107 -155.679389 
L 239.758478 -156.279365 
L 239.35576 -156.87934 
L 238.947537 -157.479316 
L 238.533391 -158.079291 
L 238.11291 -158.679267 
L 237.685702 -159.279242 
L 237.251404 -159.879218 
L 236.809691 -160.479193 
L 236.360295 -161.079169 
L 235.903007 -161.679144 
L 235.437695 -162.27912 
L 234.964313 -162.879095 
L 234.482911 -163.479071 
L 233.993645 -164.079046 
L 233.496785 -164.679022 
L 232.992728 -165.278997 
L 232.481998 -165.878973 
L 231.965257 -166.478948 
L 231.443306 -167.078924 
L 230.917091 -167.678899 
L 230.387699 -168.278875 
L 229.856365 -168.87885 
L 229.324461 -169.478826 
L 228.793496 -170.078801 
L 228.265113 -170.678777 
L 227.741071 -171.278752 
L 227.223243 -171.878728 
L 226.713601 -172.478703 
L 226.214201 -173.078679 
L 225.727165 -173.678654 
L 225.25467 -174.27863 
L 224.798918 -174.878605 
L 224.362128 -175.478581 
L 223.946501 -176.078556 
L 223.55421 -176.678532 
L 223.187366 -177.278507 
L 222.848002 -177.878483 
L 222.538046 -178.478458 
L 222.259297 -179.078434 
L 222.013405 -179.678409 
L 221.801848 -180.278385 
L 221.625915 -180.87836 
L 221.486681 -181.478336 
L 221.384999 -182.078311 
L 221.321478 -182.678287 
L 221.296481 -183.278263 
L 221.310106 -183.878238 
L 221.362191 -184.478214 
L 221.452304 -185.078189 
L 221.579752 -185.678165 
L 221.743579 -186.27814 
L 221.942577 -186.878116 
L 222.175301 -187.478091 
L 222.440078 -188.078067 
L 222.735031 -188.678042 
L 223.058098 -189.278018 
L 223.407054 -189.877993 
L 223.779538 -190.477969 
L 224.173086 -191.077944 
L 224.585151 -191.67792 
L 225.013144 -192.277895 
L 225.454456 -192.877871 
L 225.906496 -193.477846 
L 226.36672 -194.077822 
L 226.832659 -194.677797 
L 227.30195 -195.277773 
L 227.772364 -195.877748 
L 228.241827 -196.477724 
L 228.708444 -197.077699 
L 229.17052 -197.677675 
L 229.626572 -198.27765 
L 230.075345 -198.877626 
L 230.515817 -199.477601 
L 230.947207 -200.077577 
L 231.368973 -200.677552 
L 231.780811 -201.277528 
L 232.182649 -201.877503 
L 232.574635 -202.477479 
L 232.957125 -203.077454 
L 233.330664 -203.67743 
L 233.695973 -204.277405 
L 234.05392 -204.877381 
L 234.4055 -205.477356 
L 234.751813 -206.077332 
L 235.094034 -206.677307 
L 235.433387 -207.277283 
L 235.771122 -207.877258 
L 236.108486 -208.477234 
L 236.446699 -209.077209 
L 236.786929 -209.677185 
L 237.130272 -210.27716 
L 237.477731 -210.877136 
L 237.830196 -211.477111 
L 270.268739 -211.477111 
L 270.268739 -211.477111 
L 270.621204 -210.877136 
L 270.968663 -210.27716 
L 271.312006 -209.677185 
L 271.652236 -209.077209 
L 271.990449 -208.477234 
L 272.327813 -207.877258 
L 272.665548 -207.277283 
L 273.004901 -206.677307 
L 273.347122 -206.077332 
L 273.693435 -205.477356 
L 274.045015 -204.877381 
L 274.402962 -204.277405 
L 274.768271 -203.67743 
L 275.14181 -203.077454 
L 275.5243 -202.477479 
L 275.916286 -201.877503 
L 276.318124 -201.277528 
L 276.729963 -200.677552 
L 277.151728 -200.077577 
L 277.583118 -199.477601 
L 278.02359 -198.877626 
L 278.472363 -198.27765 
L 278.928415 -197.677675 
L 279.390491 -197.077699 
L 279.857109 -196.477724 
L 280.326571 -195.877748 
L 280.796985 -195.277773 
L 281.266276 -194.677797 
L 281.732215 -194.077822 
L 282.192439 -193.477846 
L 282.644479 -192.877871 
L 283.085791 -192.277895 
L 283.513784 -191.67792 
L 283.925849 -191.077944 
L 284.319397 -190.477969 
L 284.691882 -189.877993 
L 285.040837 -189.278018 
L 285.363904 -188.678042 
L 285.658857 -188.078067 
L 285.923634 -187.478091 
L 286.156358 -186.878116 
L 286.355356 -186.27814 
L 286.519183 -185.678165 
L 286.646631 -185.078189 
L 286.736745 -184.478214 
L 286.788829 -183.878238 
L 286.802455 -183.278263 
L 286.777457 -182.678287 
L 286.713936 -182.078311 
L 286.612254 -181.478336 
L 286.47302 -180.87836 
L 286.297087 -180.278385 
L 286.08553 -179.678409 
L 285.839638 -179.078434 
L 285.560889 -178.478458 
L 285.250933 -177.878483 
L 284.911569 -177.278507 
L 284.544725 -176.678532 
L 284.152434 -176.078556 
L 283.736808 -175.478581 
L 283.300017 -174.878605 
L 282.844265 -174.27863 
L 282.37177 -173.678654 
L 281.884734 -173.078679 
L 281.385334 -172.478703 
L 280.875692 -171.878728 
L 280.357864 -171.278752 
L 279.833822 -170.678777 
L 279.305439 -170.078801 
L 278.774475 -169.478826 
L 278.24257 -168.87885 
L 277.711236 -168.278875 
L 277.181844 -167.678899 
L 276.655629 -167.078924 
L 276.133678 -166.478948 
L 275.616937 -165.878973 
L 275.106207 -165.278997 
L 274.60215 -164.679022 
L 274.105291 -164.079046 
L 273.616024 -163.479071 
L 273.134622 -162.879095 
L 272.66124 -162.27912 
L 272.195928 -161.679144 
L 271.73864 -161.079169 
L 271.289244 -160.479193 
L 270.847531 -159.879218 
L 270.413233 -159.279242 
L 269.986025 -158.679267 
L 269.565544 -158.079291 
L 269.151398 -157.479316 
L 268.743175 -156.87934 
L 268.340457 -156.279365 
L 267.942828 -155.679389 
L 267.549883 -155.079414 
L 267.161239 -154.479438 
L 266.776542 -153.879463 
L 266.395471 -153.279487 
L 266.01775 -152.679512 
L 265.643146 -152.079536 
z
" style="stroke: #2f2f2f"/>
    </defs>
    <g clip-path="url(#pc6f1e5dfdd)">
     <use xlink:href="#mf982da7676" x="0" y="288" style="fill: #423b63; stroke: #2f2f2f"/>
    </g>
   </g>
   <g id="line2d_11">
    <path d="M 90.284532 138.544496 
L 90.284532 74.387611 
" clip-path="url(#pc6f1e5dfdd)" style="fill: none; stroke: #2f2f2f; stroke-width: 1.5; stroke-linecap: round"/>
   </g>
   <g id="line2d_12">
    <path d="M 90.284532 134.255319 
L 90.284532 97.306259 
" clip-path="url(#pc6f1e5dfdd)" style="fill: none; stroke: #2f2f2f; stroke-width: 4.5; stroke-linecap: round"/>
   </g>
   <g id="line2d_13">
    <path d="M 90.284532 116.836933 
" clip-path="url(#pc6f1e5dfdd)" style="fill: none; stroke: #2f2f2f; stroke-width: 1.2; stroke-linecap: round"/>
    <defs>
     <path id="mdd043925b6" d="M 1.875 0 
L -1.875 -0 
" style="stroke: #ffffff; stroke-width: 0.9"/>
    </defs>
    <g clip-path="url(#pc6f1e5dfdd)">
     <use xlink:href="#mdd043925b6" x="90.284532" y="116.836933" style="fill: #ffffff; stroke: #ffffff; stroke-width: 0.9"/>
    </g>
   </g>
   <g id="line2d_14">
    <path d="M 172.167 141.383306 
L 172.167 76.522889 
" clip-path="url(#pc6f1e5dfdd)" style="fill: none; stroke: #2f2f2f; stroke-width: 1.5; stroke-linecap: round"/>
   </g>
   <g id="line2d_15">
    <path d="M 172.167 117.360076 
L 172.167 100.331789 
" clip-path="url(#pc6f1e5dfdd)" style="fill: none; stroke: #2f2f2f; stroke-width: 4.5; stroke-linecap: round"/>
   </g>
   <g id="line2d_16">
    <path d="M 172.167 105.534037 
" clip-path="url(#pc6f1e5dfdd)" style="fill: none; stroke: #2f2f2f; stroke-width: 1.2; stroke-linecap: round"/>
    <g clip-path="url(#pc6f1e5dfdd)">
     <use xlink:href="#mdd043925b6" x="172.167" y="105.534037" style="fill: #ffffff; stroke: #ffffff; stroke-width: 0.9"/>
    </g>
   </g>
   <g id="line2d_17">
    <path d="M 254.049468 122.217833 
L 254.049468 76.522889 
" clip-path="url(#pc6f1e5dfdd)" style="fill: none; stroke: #2f2f2f; stroke-width: 1.5; stroke-linecap: round"/>
   </g>
   <g id="line2d_18">
    <path d="M 254.049468 112.789761 
L 254.049468 97.603078 
" clip-path="url(#pc6f1e5dfdd)" style="fill: none; stroke: #2f2f2f; stroke-width: 4.5; stroke-linecap: round"/>
   </g>
   <g id="line2d_19">
    <path d="M 254.049468 104.2815 
" clip-path="url(#pc6f1e5dfdd)" style="fill: none; stroke: #2f2f2f; stroke-width: 1.2; stroke-linecap: round"/>
    <g clip-path="url(#pc6f1e5dfdd)">
     <use xlink:href="#mdd043925b6" x="254.049468" y="104.2815" style="fill: #ffffff; stroke: #ffffff; stroke-width: 0.9"/>
    </g>
   </g>
   <g id="line2d_20">
    <path d="M 90.284532 70.800344 
L 90.284532 67.213078 
L 172.167 67.213078 
L 172.167 70.800344 
" clip-path="url(#pc6f1e5dfdd)" style="fill: none; stroke: #000000; stroke-linecap: round"/>
   </g>
   <g id="line2d_21">
    <path d="M 172.167 56.451278 
L 172.167 52.864011 
L 254.049468 52.864011 
L 254.049468 56.451278 
" clip-path="url(#pc6f1e5dfdd)" style="fill: none; stroke: #000000; stroke-linecap: round"/>
   </g>
   <g id="line2d_22">
    <path d="M 90.284532 42.102211 
L 90.284532 38.514944 
L 254.049468 38.514944 
L 254.049468 42.102211 
" clip-path="url(#pc6f1e5dfdd)" style="fill: none; stroke: #000000; stroke-linecap: round"/>
   </g>
   <g id="patch_3">
    <path d="M 46.068 238.804 
L 46.068 23.568 
" style="fill: none; stroke: #262626; stroke-linejoin: miter; stroke-linecap: square"/>
   </g>
   <g id="patch_4">
    <path d="M 298.266 238.804 
L 298.266 23.568 
" style="fill: none; stroke: #262626; stroke-linejoin: miter; stroke-linecap: square"/>
   </g>
   <g id="patch_5">
    <path d="M 46.068 238.804 
L 298.266 238.804 
" style="fill: none; stroke: #262626; stroke-linejoin: miter; stroke-linecap: square"/>
   </g>
   <g id="patch_6">
    <path d="M 46.068 23.568 
L 298.266 23.568 
" style="fill: none; stroke: #262626; stroke-linejoin: miter; stroke-linecap: square"/>
   </g>
   <g id="text_12">
    <!-- ns -->
    <g transform="translate(125.683266 61.629311) scale(0.096 -0.096)">
     <use xlink:href="#DejaVuSans-6e"/>
     <use xlink:href="#DejaVuSans-73" x="63.378906"/>
    </g>
   </g>
   <g id="text_13">
    <!-- ns -->
    <g transform="translate(207.565734 47.280244) scale(0.096 -0.096)">
     <use xlink:href="#DejaVuSans-6e"/>
     <use xlink:href="#DejaVuSans-73" x="63.378906"/>
    </g>
   </g>
   <g id="text_14">
    <!-- ns -->
    <g transform="translate(166.6245 32.931178) scale(0.096 -0.096)">
     <use xlink:href="#DejaVuSans-6e"/>
     <use xlink:href="#DejaVuSans-73" x="63.378906"/>
    </g>
   </g>
   <g id="text_15">
    <!-- Accuracy -->
    <g style="fill: #262626" transform="translate(150.252 17.568) scale(0.096 -0.096)">
     <defs>
      <path id="DejaVuSans-41" d="M 2188 4044 
L 1331 1722 
L 3047 1722 
L 2188 4044 
z
M 1831 4666 
L 2547 4666 
L 4325 0 
L 3669 0 
L 3244 1197 
L 1141 1197 
L 716 0 
L 50 0 
L 1831 4666 
z
" transform="scale(0.015625)"/>
     </defs>
     <use xlink:href="#DejaVuSans-41"/>
     <use xlink:href="#DejaVuSans-63" x="66.658203"/>
     <use xlink:href="#DejaVuSans-63" x="121.638672"/>
     <use xlink:href="#DejaVuSans-75" x="176.619141"/>
     <use xlink:href="#DejaVuSans-72" x="239.998047"/>
     <use xlink:href="#DejaVuSans-61" x="281.111328"/>
     <use xlink:href="#DejaVuSans-63" x="342.390625"/>
     <use xlink:href="#DejaVuSans-79" x="397.371094"/>
    </g>
   </g>
  </g>
  <g id="axes_2">
   <g id="patch_7">
    <path d="M 313.434 238.804 
L 565.632 238.804 
L 565.632 23.568 
L 313.434 23.568 
L 313.434 238.804 
z
" style="fill: none"/>
   </g>
   <g id="matplotlib.axis_3">
    <g id="xtick_4">
     <g id="line2d_23">
      <g>
       <use xlink:href="#m18c7ca3183" x="357.650532" y="238.804" style="fill: #262626; stroke: #262626"/>
      </g>
     </g>
     <g id="text_16">
      <!-- Low -->
      <g style="fill: #262626" transform="translate(348.985282 253.790625) scale(0.088 -0.088)">
       <use xlink:href="#DejaVuSans-4c"/>
       <use xlink:href="#DejaVuSans-6f" x="53.962891"/>
       <use xlink:href="#DejaVuSans-77" x="115.144531"/>
      </g>
     </g>
    </g>
    <g id="xtick_5">
     <g id="line2d_24">
      <g>
       <use xlink:href="#m18c7ca3183" x="439.533" y="238.804" style="fill: #262626; stroke: #262626"/>
      </g>
     </g>
     <g id="text_17">
      <!-- Medium -->
      <g style="fill: #262626" transform="translate(421.939188 253.790625) scale(0.088 -0.088)">
       <use xlink:href="#DejaVuSans-4d"/>
       <use xlink:href="#DejaVuSans-65" x="86.279297"/>
       <use xlink:href="#DejaVuSans-64" x="147.802734"/>
       <use xlink:href="#DejaVuSans-69" x="211.279297"/>
       <use xlink:href="#DejaVuSans-75" x="239.0625"/>
       <use xlink:href="#DejaVuSans-6d" x="302.441406"/>
      </g>
     </g>
    </g>
    <g id="xtick_6">
     <g id="line2d_25">
      <g>
       <use xlink:href="#m18c7ca3183" x="521.415468" y="238.804" style="fill: #262626; stroke: #262626"/>
      </g>
     </g>
     <g id="text_18">
      <!-- High -->
      <g style="fill: #262626" transform="translate(511.302343 253.790625) scale(0.088 -0.088)">
       <use xlink:href="#DejaVuSans-48"/>
       <use xlink:href="#DejaVuSans-69" x="75.195312"/>
       <use xlink:href="#DejaVuSans-67" x="102.978516"/>
       <use xlink:href="#DejaVuSans-68" x="166.455078"/>
      </g>
     </g>
    </g>
   </g>
   <g id="matplotlib.axis_4">
    <g id="ytick_8">
     <g id="line2d_26">
      <g>
       <use xlink:href="#m5eb6957c9f" x="313.434" y="238.804" style="fill: #262626; stroke: #262626"/>
      </g>
     </g>
    </g>
    <g id="ytick_9">
     <g id="line2d_27">
      <g>
       <use xlink:href="#m5eb6957c9f" x="313.434" y="202.931333" style="fill: #262626; stroke: #262626"/>
      </g>
     </g>
    </g>
    <g id="ytick_10">
     <g id="line2d_28">
      <g>
       <use xlink:href="#m5eb6957c9f" x="313.434" y="167.058667" style="fill: #262626; stroke: #262626"/>
      </g>
     </g>
    </g>
    <g id="ytick_11">
     <g id="line2d_29">
      <g>
       <use xlink:href="#m5eb6957c9f" x="313.434" y="131.186" style="fill: #262626; stroke: #262626"/>
      </g>
     </g>
    </g>
    <g id="ytick_12">
     <g id="line2d_30">
      <g>
       <use xlink:href="#m5eb6957c9f" x="313.434" y="95.313333" style="fill: #262626; stroke: #262626"/>
      </g>
     </g>
    </g>
    <g id="ytick_13">
     <g id="line2d_31">
      <g>
       <use xlink:href="#m5eb6957c9f" x="313.434" y="59.440667" style="fill: #262626; stroke: #262626"/>
      </g>
     </g>
    </g>
    <g id="ytick_14">
     <g id="line2d_32">
      <g>
       <use xlink:href="#m5eb6957c9f" x="313.434" y="23.568" style="fill: #262626; stroke: #262626"/>
      </g>
     </g>
    </g>
   </g>
   <g id="PolyCollection_4">
    <defs>
     <path id="m6b23f18e56" d="M 384.641489 -77.75704 
L 330.659576 -77.75704 
L 330.055801 -78.625728 
L 329.477148 -79.494415 
L 328.925569 -80.363103 
L 328.402943 -81.23179 
L 327.911058 -82.100478 
L 327.451603 -82.969165 
L 327.026161 -83.837852 
L 326.636197 -84.70654 
L 326.28305 -85.575227 
L 325.967928 -86.443915 
L 325.691899 -87.312602 
L 325.455886 -88.18129 
L 325.26066 -89.049977 
L 325.106838 -89.918664 
L 324.994876 -90.787352 
L 324.925068 -91.656039 
L 324.897545 -92.524727 
L 324.912273 -93.393414 
L 324.969049 -94.262102 
L 325.067508 -95.130789 
L 325.207117 -95.999477 
L 325.387184 -96.868164 
L 325.606857 -97.736851 
L 325.865127 -98.605539 
L 326.160835 -99.474226 
L 326.492676 -100.342914 
L 326.859206 -101.211601 
L 327.258846 -102.080289 
L 327.689892 -102.948976 
L 328.150525 -103.817664 
L 328.638813 -104.686351 
L 329.152726 -105.555038 
L 329.690146 -106.423726 
L 330.248872 -107.292413 
L 330.826638 -108.161101 
L 331.421116 -109.029788 
L 332.029937 -109.898476 
L 332.650692 -110.767163 
L 333.280955 -111.63585 
L 333.918286 -112.504538 
L 334.56025 -113.373225 
L 335.204423 -114.241913 
L 335.848412 -115.1106 
L 336.489859 -115.979288 
L 337.12646 -116.847975 
L 337.755971 -117.716663 
L 338.376224 -118.58535 
L 338.985135 -119.454037 
L 339.580716 -120.322725 
L 340.161085 -121.191412 
L 340.724475 -122.0601 
L 341.269243 -122.928787 
L 341.793877 -123.797475 
L 342.297005 -124.666162 
L 342.777402 -125.534849 
L 343.233991 -126.403537 
L 343.665853 -127.272224 
L 344.072229 -128.140912 
L 344.452521 -129.009599 
L 344.806295 -129.878287 
L 345.133282 -130.746974 
L 345.433378 -131.615662 
L 345.706639 -132.484349 
L 345.953285 -133.353036 
L 346.17369 -134.221724 
L 346.368381 -135.090411 
L 346.538034 -135.959099 
L 346.683462 -136.827786 
L 346.805613 -137.696474 
L 346.905561 -138.565161 
L 346.984495 -139.433848 
L 347.043711 -140.302536 
L 347.084599 -141.171223 
L 347.108638 -142.039911 
L 347.117378 -142.908598 
L 347.112432 -143.777286 
L 347.095461 -144.645973 
L 347.068166 -145.514661 
L 347.032271 -146.383348 
L 346.989513 -147.252035 
L 346.941628 -148.120723 
L 346.890338 -148.98941 
L 346.837343 -149.858098 
L 346.784302 -150.726785 
L 346.73283 -151.595473 
L 346.68448 -152.46416 
L 346.640736 -153.332848 
L 346.603004 -154.201535 
L 346.572603 -155.070222 
L 346.550754 -155.93891 
L 346.538577 -156.807597 
L 346.537083 -157.676285 
L 346.547171 -158.544972 
L 346.569619 -159.41366 
L 346.605086 -160.282347 
L 346.65411 -161.151034 
L 346.717103 -162.019722 
L 346.794356 -162.888409 
L 346.886034 -163.757097 
L 368.415031 -163.757097 
L 368.415031 -163.757097 
L 368.506709 -162.888409 
L 368.583961 -162.019722 
L 368.646955 -161.151034 
L 368.695979 -160.282347 
L 368.731446 -159.41366 
L 368.753894 -158.544972 
L 368.763982 -157.676285 
L 368.762488 -156.807597 
L 368.750311 -155.93891 
L 368.728462 -155.070222 
L 368.698061 -154.201535 
L 368.660329 -153.332848 
L 368.616585 -152.46416 
L 368.568235 -151.595473 
L 368.516763 -150.726785 
L 368.463722 -149.858098 
L 368.410727 -148.98941 
L 368.359437 -148.120723 
L 368.311552 -147.252035 
L 368.268794 -146.383348 
L 368.232899 -145.514661 
L 368.205604 -144.645973 
L 368.188633 -143.777286 
L 368.183687 -142.908598 
L 368.192427 -142.039911 
L 368.216466 -141.171223 
L 368.257354 -140.302536 
L 368.31657 -139.433848 
L 368.395504 -138.565161 
L 368.495452 -137.696474 
L 368.617603 -136.827786 
L 368.763031 -135.959099 
L 368.932684 -135.090411 
L 369.127375 -134.221724 
L 369.34778 -133.353036 
L 369.594426 -132.484349 
L 369.867687 -131.615662 
L 370.167783 -130.746974 
L 370.49477 -129.878287 
L 370.848544 -129.009599 
L 371.228836 -128.140912 
L 371.635212 -127.272224 
L 372.067074 -126.403537 
L 372.523663 -125.534849 
L 373.00406 -124.666162 
L 373.507188 -123.797475 
L 374.031822 -122.928787 
L 374.57659 -122.0601 
L 375.13998 -121.191412 
L 375.720349 -120.322725 
L 376.31593 -119.454037 
L 376.924841 -118.58535 
L 377.545094 -117.716663 
L 378.174605 -116.847975 
L 378.811206 -115.979288 
L 379.452653 -115.1106 
L 380.096642 -114.241913 
L 380.740815 -113.373225 
L 381.382779 -112.504538 
L 382.02011 -111.63585 
L 382.650373 -110.767163 
L 383.271128 -109.898476 
L 383.879949 -109.029788 
L 384.474427 -108.161101 
L 385.052193 -107.292413 
L 385.610919 -106.423726 
L 386.148339 -105.555038 
L 386.662252 -104.686351 
L 387.15054 -103.817664 
L 387.611173 -102.948976 
L 388.042219 -102.080289 
L 388.441859 -101.211601 
L 388.808389 -100.342914 
L 389.14023 -99.474226 
L 389.435938 -98.605539 
L 389.694208 -97.736851 
L 389.91388 -96.868164 
L 390.093948 -95.999477 
L 390.233557 -95.130789 
L 390.332016 -94.262102 
L 390.388792 -93.393414 
L 390.403519 -92.524727 
L 390.375997 -91.656039 
L 390.306189 -90.787352 
L 390.194227 -89.918664 
L 390.040404 -89.049977 
L 389.845179 -88.18129 
L 389.609166 -87.312602 
L 389.333137 -86.443915 
L 389.018015 -85.575227 
L 388.664868 -84.70654 
L 388.274904 -83.837852 
L 387.849462 -82.969165 
L 387.390007 -82.100478 
L 386.898122 -81.23179 
L 386.375496 -80.363103 
L 385.823917 -79.494415 
L 385.245263 -78.625728 
L 384.641489 -77.75704 
z
" style="stroke: #2f2f2f"/>
    </defs>
    <g clip-path="url(#pde2080015b)">
     <use xlink:href="#m6b23f18e56" x="0" y="288" style="fill: #58b2a3; stroke: #2f2f2f"/>
    </g>
   </g>
   <g id="PolyCollection_5">
    <defs>
     <path id="ma0c2461703" d="M 462.577717 -91.901556 
L 416.488283 -91.901556 
L 415.80586 -92.861143 
L 415.138793 -93.820731 
L 414.488864 -94.780319 
L 413.857771 -95.739907 
L 413.247123 -96.699495 
L 412.65843 -97.659083 
L 412.093095 -98.618671 
L 411.552412 -99.578258 
L 411.037556 -100.537846 
L 410.549583 -101.497434 
L 410.089424 -102.457022 
L 409.657887 -103.41661 
L 409.255651 -104.376198 
L 408.883271 -105.335785 
L 408.541174 -106.295373 
L 408.229663 -107.254961 
L 407.948918 -108.214549 
L 407.699 -109.174137 
L 407.479852 -110.133725 
L 407.291305 -111.093313 
L 407.13308 -112.0529 
L 407.004794 -113.012488 
L 406.905965 -113.972076 
L 406.836016 -114.931664 
L 406.794281 -115.891252 
L 406.780013 -116.85084 
L 406.792387 -117.810428 
L 406.83051 -118.770015 
L 406.893423 -119.729603 
L 406.980115 -120.689191 
L 407.089525 -121.648779 
L 407.22055 -122.608367 
L 407.372058 -123.567955 
L 407.542889 -124.527542 
L 407.731869 -125.48713 
L 407.937816 -126.446718 
L 408.159548 -127.406306 
L 408.395892 -128.365894 
L 408.645693 -129.325482 
L 408.907821 -130.28507 
L 409.181179 -131.244657 
L 409.464709 -132.204245 
L 409.757403 -133.163833 
L 410.058301 -134.123421 
L 410.366504 -135.083009 
L 410.681176 -136.042597 
L 411.001544 -137.002184 
L 411.326905 -137.961772 
L 411.656624 -138.92136 
L 411.990138 -139.880948 
L 412.326951 -140.840536 
L 412.666633 -141.800124 
L 413.008822 -142.759712 
L 413.353212 -143.719299 
L 413.699555 -144.678887 
L 414.047652 -145.638475 
L 414.397347 -146.598063 
L 414.748525 -147.557651 
L 415.101096 -148.517239 
L 415.454997 -149.476827 
L 415.81018 -150.436414 
L 416.166604 -151.396002 
L 416.524235 -152.35559 
L 416.883031 -153.315178 
L 417.242945 -154.274766 
L 417.603912 -155.234354 
L 417.965854 -156.193941 
L 418.32867 -157.153529 
L 418.692238 -158.113117 
L 419.056413 -159.072705 
L 419.421026 -160.032293 
L 419.785888 -160.991881 
L 420.15079 -161.951469 
L 420.515505 -162.911056 
L 420.879795 -163.870644 
L 421.243411 -164.830232 
L 421.606101 -165.78982 
L 421.967614 -166.749408 
L 422.327703 -167.708996 
L 422.686132 -168.668584 
L 423.042681 -169.628171 
L 423.39715 -170.587759 
L 423.749361 -171.547347 
L 424.099165 -172.506935 
L 424.446441 -173.466523 
L 424.791101 -174.426111 
L 425.133085 -175.385698 
L 425.472371 -176.345286 
L 425.808964 -177.304874 
L 426.1429 -178.264462 
L 426.47424 -179.22405 
L 426.80307 -180.183638 
L 427.129495 -181.143226 
L 427.453633 -182.102813 
L 427.775614 -183.062401 
L 428.095568 -184.021989 
L 428.413626 -184.981577 
L 428.72991 -185.941165 
L 429.044531 -186.900753 
L 450.021469 -186.900753 
L 450.021469 -186.900753 
L 450.33609 -185.941165 
L 450.652374 -184.981577 
L 450.970432 -184.021989 
L 451.290386 -183.062401 
L 451.612367 -182.102813 
L 451.936505 -181.143226 
L 452.26293 -180.183638 
L 452.59176 -179.22405 
L 452.9231 -178.264462 
L 453.257036 -177.304874 
L 453.593629 -176.345286 
L 453.932915 -175.385698 
L 454.274899 -174.426111 
L 454.619559 -173.466523 
L 454.966835 -172.506935 
L 455.316639 -171.547347 
L 455.66885 -170.587759 
L 456.023319 -169.628171 
L 456.379868 -168.668584 
L 456.738297 -167.708996 
L 457.098386 -166.749408 
L 457.459899 -165.78982 
L 457.822589 -164.830232 
L 458.186205 -163.870644 
L 458.550495 -162.911056 
L 458.91521 -161.951469 
L 459.280112 -160.991881 
L 459.644974 -160.032293 
L 460.009587 -159.072705 
L 460.373762 -158.113117 
L 460.73733 -157.153529 
L 461.100146 -156.193941 
L 461.462088 -155.234354 
L 461.823055 -154.274766 
L 462.182969 -153.315178 
L 462.541765 -152.35559 
L 462.899396 -151.396002 
L 463.25582 -150.436414 
L 463.611003 -149.476827 
L 463.964904 -148.517239 
L 464.317475 -147.557651 
L 464.668653 -146.598063 
L 465.018348 -145.638475 
L 465.366445 -144.678887 
L 465.712788 -143.719299 
L 466.057178 -142.759712 
L 466.399367 -141.800124 
L 466.739049 -140.840536 
L 467.075862 -139.880948 
L 467.409376 -138.92136 
L 467.739095 -137.961772 
L 468.064456 -137.002184 
L 468.384824 -136.042597 
L 468.699496 -135.083009 
L 469.007699 -134.123421 
L 469.308597 -133.163833 
L 469.601291 -132.204245 
L 469.884821 -131.244657 
L 470.158179 -130.28507 
L 470.420307 -129.325482 
L 470.670108 -128.365894 
L 470.906452 -127.406306 
L 471.128184 -126.446718 
L 471.334131 -125.48713 
L 471.523111 -124.527542 
L 471.693942 -123.567955 
L 471.84545 -122.608367 
L 471.976475 -121.648779 
L 472.085885 -120.689191 
L 472.172577 -119.729603 
L 472.23549 -118.770015 
L 472.273613 -117.810428 
L 472.285987 -116.85084 
L 472.271719 -115.891252 
L 472.229984 -114.931664 
L 472.160035 -113.972076 
L 472.061206 -113.012488 
L 471.93292 -112.0529 
L 471.774695 -111.093313 
L 471.586148 -110.133725 
L 471.367 -109.174137 
L 471.117082 -108.214549 
L 470.836337 -107.254961 
L 470.524826 -106.295373 
L 470.182729 -105.335785 
L 469.810349 -104.376198 
L 469.408113 -103.41661 
L 468.976576 -102.457022 
L 468.516417 -101.497434 
L 468.028444 -100.537846 
L 467.513588 -99.578258 
L 466.972905 -98.618671 
L 466.40757 -97.659083 
L 465.818877 -96.699495 
L 465.208229 -95.739907 
L 464.577136 -94.780319 
L 463.927207 -93.820731 
L 463.26014 -92.861143 
L 462.577717 -91.901556 
z
" style="stroke: #2f2f2f"/>
    </defs>
    <g clip-path="url(#pde2080015b)">
     <use xlink:href="#ma0c2461703" x="0" y="288" style="fill: #437695; stroke: #2f2f2f"/>
    </g>
   </g>
   <g id="PolyCollection_6">
    <defs>
     <path id="mbdb14e81be" d="M 542.295177 -116.600055 
L 500.535758 -116.600055 
L 499.97675 -117.372381 
L 499.430414 -118.144707 
L 498.897734 -118.917034 
L 498.379586 -119.68936 
L 497.876735 -120.461686 
L 497.389825 -121.234012 
L 496.91938 -122.006338 
L 496.465802 -122.778664 
L 496.029369 -123.55099 
L 495.61024 -124.323316 
L 495.208453 -125.095642 
L 494.823937 -125.867969 
L 494.456512 -126.640295 
L 494.1059 -127.412621 
L 493.77173 -128.184947 
L 493.453553 -128.957273 
L 493.150851 -129.729599 
L 492.863044 -130.501925 
L 492.589509 -131.274251 
L 492.329586 -132.046577 
L 492.082597 -132.818904 
L 491.847851 -133.59123 
L 491.624661 -134.363556 
L 491.412354 -135.135882 
L 491.210282 -135.908208 
L 491.017831 -136.680534 
L 490.83443 -137.45286 
L 490.65956 -138.225186 
L 490.492758 -138.997512 
L 490.333623 -139.769839 
L 490.18182 -140.542165 
L 490.037081 -141.314491 
L 489.899205 -142.086817 
L 489.768059 -142.859143 
L 489.643573 -143.631469 
L 489.52574 -144.403795 
L 489.414607 -145.176121 
L 489.310274 -145.948447 
L 489.212883 -146.720774 
L 489.122614 -147.4931 
L 489.039677 -148.265426 
L 488.964303 -149.037752 
L 488.896736 -149.810078 
L 488.837227 -150.582404 
L 488.786026 -151.35473 
L 488.743374 -152.127056 
L 488.709499 -152.899382 
L 488.684607 -153.671709 
L 488.668882 -154.444035 
L 488.662481 -155.216361 
L 488.665528 -155.988687 
L 488.678121 -156.761013 
L 488.700323 -157.533339 
L 488.73217 -158.305665 
L 488.773669 -159.077991 
L 488.824804 -159.850317 
L 488.885537 -160.622644 
L 488.955817 -161.39497 
L 489.035579 -162.167296 
L 489.124759 -162.939622 
L 489.22329 -163.711948 
L 489.331116 -164.484274 
L 489.448194 -165.2566 
L 489.574502 -166.028926 
L 489.710042 -166.801252 
L 489.854848 -167.573579 
L 490.008988 -168.345905 
L 490.172567 -169.118231 
L 490.345729 -169.890557 
L 490.528661 -170.662883 
L 490.721589 -171.435209 
L 490.924781 -172.207535 
L 491.138542 -172.979861 
L 491.363208 -173.752187 
L 491.59915 -174.524514 
L 491.846758 -175.29684 
L 492.106443 -176.069166 
L 492.378623 -176.841492 
L 492.663721 -177.613818 
L 492.962153 -178.386144 
L 493.274316 -179.15847 
L 493.600586 -179.930796 
L 493.941304 -180.703122 
L 494.296766 -181.475449 
L 494.667218 -182.247775 
L 495.052842 -183.020101 
L 495.453756 -183.792427 
L 495.869999 -184.564753 
L 496.301527 -185.337079 
L 496.748213 -186.109405 
L 497.209833 -186.881731 
L 497.686071 -187.654057 
L 498.176517 -188.426384 
L 498.680658 -189.19871 
L 499.197889 -189.971036 
L 499.727509 -190.743362 
L 500.268723 -191.515688 
L 500.820652 -192.288014 
L 501.382331 -193.06034 
L 541.448604 -193.06034 
L 541.448604 -193.06034 
L 542.010283 -192.288014 
L 542.562212 -191.515688 
L 543.103426 -190.743362 
L 543.633046 -189.971036 
L 544.150277 -189.19871 
L 544.654418 -188.426384 
L 545.144864 -187.654057 
L 545.621103 -186.881731 
L 546.082723 -186.109405 
L 546.529408 -185.337079 
L 546.960936 -184.564753 
L 547.377179 -183.792427 
L 547.778093 -183.020101 
L 548.163718 -182.247775 
L 548.534169 -181.475449 
L 548.889631 -180.703122 
L 549.230349 -179.930796 
L 549.556619 -179.15847 
L 549.868783 -178.386144 
L 550.167214 -177.613818 
L 550.452312 -176.841492 
L 550.724493 -176.069166 
L 550.984177 -175.29684 
L 551.231785 -174.524514 
L 551.467727 -173.752187 
L 551.692393 -172.979861 
L 551.906154 -172.207535 
L 552.109346 -171.435209 
L 552.302274 -170.662883 
L 552.485206 -169.890557 
L 552.658368 -169.118231 
L 552.821947 -168.345905 
L 552.976087 -167.573579 
L 553.120893 -166.801252 
L 553.256433 -166.028926 
L 553.382741 -165.2566 
L 553.499819 -164.484274 
L 553.607645 -163.711948 
L 553.706176 -162.939622 
L 553.795356 -162.167296 
L 553.875118 -161.39497 
L 553.945398 -160.622644 
L 554.006131 -159.850317 
L 554.057266 -159.077991 
L 554.098765 -158.305665 
L 554.130612 -157.533339 
L 554.152814 -156.761013 
L 554.165407 -155.988687 
L 554.168455 -155.216361 
L 554.162053 -154.444035 
L 554.146328 -153.671709 
L 554.121436 -152.899382 
L 554.087561 -152.127056 
L 554.044909 -151.35473 
L 553.993708 -150.582404 
L 553.934199 -149.810078 
L 553.866632 -149.037752 
L 553.791258 -148.265426 
L 553.708321 -147.4931 
L 553.618052 -146.720774 
L 553.520661 -145.948447 
L 553.416328 -145.176121 
L 553.305195 -144.403795 
L 553.187362 -143.631469 
L 553.062876 -142.859143 
L 552.93173 -142.086817 
L 552.793854 -141.314491 
L 552.649115 -140.542165 
L 552.497312 -139.769839 
L 552.338177 -138.997512 
L 552.171375 -138.225186 
L 551.996505 -137.45286 
L 551.813104 -136.680534 
L 551.620653 -135.908208 
L 551.418581 -135.135882 
L 551.206275 -134.363556 
L 550.983085 -133.59123 
L 550.748338 -132.818904 
L 550.501349 -132.046577 
L 550.241426 -131.274251 
L 549.967891 -130.501925 
L 549.680084 -129.729599 
L 549.377382 -128.957273 
L 549.059205 -128.184947 
L 548.725035 -127.412621 
L 548.374423 -126.640295 
L 548.006998 -125.867969 
L 547.622482 -125.095642 
L 547.220695 -124.323316 
L 546.801566 -123.55099 
L 546.365133 -122.778664 
L 545.911555 -122.006338 
L 545.44111 -121.234012 
L 544.9542 -120.461686 
L 544.451349 -119.68936 
L 543.933201 -118.917034 
L 543.400521 -118.144707 
L 542.854185 -117.372381 
L 542.295177 -116.600055 
z
" style="stroke: #2f2f2f"/>
    </defs>
    <g clip-path="url(#pde2080015b)">
     <use xlink:href="#mbdb14e81be" x="0" y="288" style="fill: #423b63; stroke: #2f2f2f"/>
    </g>
   </g>
   <g id="line2d_33">
    <path d="M 357.650532 210.24296 
L 357.650532 180.976477 
" clip-path="url(#pde2080015b)" style="fill: none; stroke: #2f2f2f; stroke-width: 1.5; stroke-linecap: round"/>
   </g>
   <g id="line2d_34">
    <path d="M 357.650532 202.931333 
L 357.650532 180.976477 
" clip-path="url(#pde2080015b)" style="fill: none; stroke: #2f2f2f; stroke-width: 4.5; stroke-linecap: round"/>
   </g>
   <g id="line2d_35">
    <path d="M 357.650532 186.799247 
" clip-path="url(#pde2080015b)" style="fill: none; stroke: #2f2f2f; stroke-width: 1.2; stroke-linecap: round"/>
    <g clip-path="url(#pde2080015b)">
     <use xlink:href="#mdd043925b6" x="357.650532" y="186.799247" style="fill: #ffffff; stroke: #ffffff; stroke-width: 0.9"/>
    </g>
   </g>
   <g id="line2d_36">
    <path d="M 439.533 196.098444 
L 439.533 101.099247 
" clip-path="url(#pde2080015b)" style="fill: none; stroke: #2f2f2f; stroke-width: 1.5; stroke-linecap: round"/>
   </g>
   <g id="line2d_37">
    <path d="M 439.533 182.684184 
L 439.533 133.788162 
" clip-path="url(#pde2080015b)" style="fill: none; stroke: #2f2f2f; stroke-width: 4.5; stroke-linecap: round"/>
   </g>
   <g id="line2d_38">
    <path d="M 439.533 165.329863 
" clip-path="url(#pde2080015b)" style="fill: none; stroke: #2f2f2f; stroke-width: 1.2; stroke-linecap: round"/>
    <g clip-path="url(#pde2080015b)">
     <use xlink:href="#mdd043925b6" x="439.533" y="165.329863" style="fill: #ffffff; stroke: #ffffff; stroke-width: 0.9"/>
    </g>
   </g>
   <g id="line2d_39">
    <path d="M 521.415468 171.399945 
L 521.415468 94.93966 
" clip-path="url(#pde2080015b)" style="fill: none; stroke: #2f2f2f; stroke-width: 1.5; stroke-linecap: round"/>
   </g>
   <g id="line2d_40">
    <path d="M 521.415468 157.871764 
L 521.415468 111.304763 
" clip-path="url(#pde2080015b)" style="fill: none; stroke: #2f2f2f; stroke-width: 4.5; stroke-linecap: round"/>
   </g>
   <g id="line2d_41">
    <path d="M 521.415468 135.855815 
" clip-path="url(#pde2080015b)" style="fill: none; stroke: #2f2f2f; stroke-width: 1.2; stroke-linecap: round"/>
    <g clip-path="url(#pde2080015b)">
     <use xlink:href="#mdd043925b6" x="521.415468" y="135.855815" style="fill: #ffffff; stroke: #ffffff; stroke-width: 0.9"/>
    </g>
   </g>
   <g id="line2d_42">
    <path d="M 357.650532 91.352393 
L 357.650532 87.765126 
L 439.533 87.765126 
L 439.533 91.352393 
" clip-path="url(#pde2080015b)" style="fill: none; stroke: #000000; stroke-linecap: round"/>
   </g>
   <g id="line2d_43">
    <path d="M 439.533 77.003326 
L 439.533 73.41606 
L 521.415468 73.41606 
L 521.415468 77.003326 
" clip-path="url(#pde2080015b)" style="fill: none; stroke: #000000; stroke-linecap: round"/>
   </g>
   <g id="line2d_44">
    <path d="M 357.650532 62.65426 
L 357.650532 59.066993 
L 521.415468 59.066993 
L 521.415468 62.65426 
" clip-path="url(#pde2080015b)" style="fill: none; stroke: #000000; stroke-linecap: round"/>
   </g>
   <g id="patch_8">
    <path d="M 313.434 238.804 
L 313.434 23.568 
" style="fill: none; stroke: #262626; stroke-linejoin: miter; stroke-linecap: square"/>
   </g>
   <g id="patch_9">
    <path d="M 565.632 238.804 
L 565.632 23.568 
" style="fill: none; stroke: #262626; stroke-linejoin: miter; stroke-linecap: square"/>
   </g>
   <g id="patch_10">
    <path d="M 313.434 238.804 
L 565.632 238.804 
" style="fill: none; stroke: #262626; stroke-linejoin: miter; stroke-linecap: square"/>
   </g>
   <g id="patch_11">
    <path d="M 313.434 23.568 
L 565.632 23.568 
" style="fill: none; stroke: #262626; stroke-linejoin: miter; stroke-linecap: square"/>
   </g>
   <g id="text_19">
    <!-- ns -->
    <g transform="translate(393.049266 82.18136) scale(0.096 -0.096)">
     <use xlink:href="#DejaVuSans-6e"/>
     <use xlink:href="#DejaVuSans-73" x="63.378906"/>
    </g>
   </g>
   <g id="text_20">
    <!-- ns -->
    <g transform="translate(474.931734 67.832293) scale(0.096 -0.096)">
     <use xlink:href="#DejaVuSans-6e"/>
     <use xlink:href="#DejaVuSans-73" x="63.378906"/>
    </g>
   </g>
   <g id="text_21">
    <!-- ** -->
    <g transform="translate(434.733 53.483226) scale(0.096 -0.096)">
     <defs>
      <path id="DejaVuSans-2a" d="M 3009 3897 
L 1888 3291 
L 3009 2681 
L 2828 2375 
L 1778 3009 
L 1778 1831 
L 1422 1831 
L 1422 3009 
L 372 2375 
L 191 2681 
L 1313 3291 
L 191 3897 
L 372 4206 
L 1422 3572 
L 1422 4750 
L 1778 4750 
L 1778 3572 
L 2828 4206 
L 3009 3897 
z
" transform="scale(0.015625)"/>
     </defs>
     <use xlink:href="#DejaVuSans-2a"/>
     <use xlink:href="#DejaVuSans-2a" x="50"/>
    </g>
   </g>
   <g id="text_22">
    <!-- Speed -->
    <g style="fill: #262626" transform="translate(424.48425 17.568) scale(0.096 -0.096)">
     <defs>
      <path id="DejaVuSans-53" d="M 3425 4513 
L 3425 3897 
Q 3066 4069 2747 4153 
Q 2428 4238 2131 4238 
Q 1616 4238 1336 4038 
Q 1056 3838 1056 3469 
Q 1056 3159 1242 3001 
Q 1428 2844 1947 2747 
L 2328 2669 
Q 3034 2534 3370 2195 
Q 3706 1856 3706 1288 
Q 3706 609 3251 259 
Q 2797 -91 1919 -91 
Q 1588 -91 1214 -16 
Q 841 59 441 206 
L 441 856 
Q 825 641 1194 531 
Q 1563 422 1919 422 
Q 2459 422 2753 634 
Q 3047 847 3047 1241 
Q 3047 1584 2836 1778 
Q 2625 1972 2144 2069 
L 1759 2144 
Q 1053 2284 737 2584 
Q 422 2884 422 3419 
Q 422 4038 858 4394 
Q 1294 4750 2059 4750 
Q 2388 4750 2728 4690 
Q 3069 4631 3425 4513 
z
" transform="scale(0.015625)"/>
     </defs>
     <use xlink:href="#DejaVuSans-53"/>
     <use xlink:href="#DejaVuSans-70" x="63.476562"/>
     <use xlink:href="#DejaVuSans-65" x="126.953125"/>
     <use xlink:href="#DejaVuSans-65" x="188.476562"/>
     <use xlink:href="#DejaVuSans-64" x="250"/>
    </g>
   </g>
  </g>
  <g id="text_23">
   <!-- Confirmation ratio tertiles -->
   <g style="fill: #262626" transform="translate(213.6195 282.7242) scale(0.1152 -0.1152)">
    <defs>
     <path id="DejaVuSans-43" d="M 4122 4306 
L 4122 3641 
Q 3803 3938 3442 4084 
Q 3081 4231 2675 4231 
Q 1875 4231 1450 3742 
Q 1025 3253 1025 2328 
Q 1025 1406 1450 917 
Q 1875 428 2675 428 
Q 3081 428 3442 575 
Q 3803 722 4122 1019 
L 4122 359 
Q 3791 134 3420 21 
Q 3050 -91 2638 -91 
Q 1578 -91 968 557 
Q 359 1206 359 2328 
Q 359 3453 968 4101 
Q 1578 4750 2638 4750 
Q 3056 4750 3426 4639 
Q 3797 4528 4122 4306 
z
" transform="scale(0.015625)"/>
    </defs>
    <use xlink:href="#DejaVuSans-43"/>
    <use xlink:href="#DejaVuSans-6f" x="69.824219"/>
    <use xlink:href="#DejaVuSans-6e" x="131.005859"/>
    <use xlink:href="#DejaVuSans-66" x="194.384766"/>
    <use xlink:href="#DejaVuSans-69" x="229.589844"/>
    <use xlink:href="#DejaVuSans-72" x="257.373047"/>
    <use xlink:href="#DejaVuSans-6d" x="296.736328"/>
    <use xlink:href="#DejaVuSans-61" x="394.148438"/>
    <use xlink:href="#DejaVuSans-74" x="455.427734"/>
    <use xlink:href="#DejaVuSans-69" x="494.636719"/>
    <use xlink:href="#DejaVuSans-6f" x="522.419922"/>
    <use xlink:href="#DejaVuSans-6e" x="583.601562"/>
    <use xlink:href="#DejaVuSans-20" x="646.980469"/>
    <use xlink:href="#DejaVuSans-72" x="678.767578"/>
    <use xlink:href="#DejaVuSans-61" x="719.880859"/>
    <use xlink:href="#DejaVuSans-74" x="781.160156"/>
    <use xlink:href="#DejaVuSans-69" x="820.369141"/>
    <use xlink:href="#DejaVuSans-6f" x="848.152344"/>
    <use xlink:href="#DejaVuSans-20" x="909.333984"/>
    <use xlink:href="#DejaVuSans-74" x="941.121094"/>
    <use xlink:href="#DejaVuSans-65" x="980.330078"/>
    <use xlink:href="#DejaVuSans-72" x="1041.853516"/>
    <use xlink:href="#DejaVuSans-74" x="1082.966797"/>
    <use xlink:href="#DejaVuSans-69" x="1122.175781"/>
    <use xlink:href="#DejaVuSans-6c" x="1149.958984"/>
    <use xlink:href="#DejaVuSans-65" x="1177.742188"/>
    <use xlink:href="#DejaVuSans-73" x="1239.265625"/>
   </g>
  </g>
 </g>
 <defs>
  <clipPath id="pc6f1e5dfdd">
   <rect x="46.068" y="23.568" width="252.198" height="215.236"/>
  </clipPath>
  <clipPath id="pde2080015b">
   <rect x="313.434" y="23.568" width="252.198" height="215.236"/>
  </clipPath>
 </defs>
</svg>
