<?xml version="1.0" encoding="utf-8" standalone="no"?>
<!DOCTYPE svg PUBLIC "-//W3C//DTD SVG 1.1//EN"
  "http://www.w3.org/Graphics/SVG/1.1/DTD/svg11.dtd">
<svg xmlns:xlink="http://www.w3.org/1999/xlink" width="720pt" height="216pt" viewBox="0 0 720 216" xmlns="http://www.w3.org/2000/svg" version="1.1">
 <metadata>
  <rdf:RDF xmlns:dc="http://purl.org/dc/elements/1.1/" xmlns:cc="http://creativecommons.org/ns#" xmlns:rdf="http://www.w3.org/1999/02/22-rdf-syntax-ns#">
   <cc:Work>
    <dc:type rdf:resource="http://purl.org/dc/dcmitype/StillImage"/>
    <dc:date>2024-12-13T10:15:32.291260</dc:date>
    <dc:format>image/svg+xml</dc:format>
    <dc:creator>
     <cc:Agent>
      <dc:title>Matplotlib v3.9.2, https://matplotlib.org/</dc:title>
     </cc:Agent>
    </dc:creator>
   </cc:Work>
  </rdf:RDF>
 </metadata>
 <defs>
  <style type="text/css">*{stroke-linejoin: round; stroke-linecap: butt}</style>
 </defs>
 <g id="figure_1">
  <g id="patch_1">
   <path d="M 0 216 
L 720 216 
L 720 0 
L 0 0 
L 0 216 
z
" style="fill: none"/>
  </g>
  <g id="axes_1">
   <g id="patch_2">
    <path d="M 54.348 174.612 
L 258.096244 174.612 
L 258.096244 13.968 
L 54.348 13.968 
L 54.348 174.612 
z
" style="fill: none"/>
   </g>
   <g id="matplotlib.axis_1">
    <g id="xtick_1">
     <g id="line2d_1">
      <defs>
       <path id="mb49367c670" d="M 0 0 
L 0 4.8 
" style="stroke: #262626"/>
      </defs>
      <g>
       <use xlink:href="#mb49367c670" x="57.069626" y="174.612" style="fill: #262626; stroke: #262626"/>
      </g>
     </g>
     <g id="text_1">
      <!-- 0 -->
      <g style="fill: #262626" transform="translate(54.270126 189.598625) scale(0.088 -0.088)">
       <defs>
        <path id="DejaVuSans-30" d="M 2034 4250 
Q 1547 4250 1301 3770 
Q 1056 3291 1056 2328 
Q 1056 1369 1301 889 
Q 1547 409 2034 409 
Q 2525 409 2770 889 
Q 3016 1369 3016 2328 
Q 3016 3291 2770 3770 
Q 2525 4250 2034 4250 
z
M 2034 4750 
Q 2819 4750 3233 4129 
Q 3647 3509 3647 2328 
Q 3647 1150 3233 529 
Q 2819 -91 2034 -91 
Q 1250 -91 836 529 
Q 422 1150 422 2328 
Q 422 3509 836 4129 
Q 1250 4750 2034 4750 
z
" transform="scale(0.015625)"/>
       </defs>
       <use xlink:href="#DejaVuSans-30"/>
      </g>
     </g>
    </g>
    <g id="xtick_2">
     <g id="line2d_2">
      <g>
       <use xlink:href="#mb49367c670" x="99.374691" y="174.612" style="fill: #262626; stroke: #262626"/>
      </g>
     </g>
     <g id="text_2">
      <!-- 200 -->
      <g style="fill: #262626" transform="translate(90.976191 189.598625) scale(0.088 -0.088)">
       <defs>
        <path id="DejaVuSans-32" d="M 1228 531 
L 3431 531 
L 3431 0 
L 469 0 
L 469 531 
Q 828 903 1448 1529 
Q 2069 2156 2228 2338 
Q 2531 2678 2651 2914 
Q 2772 3150 2772 3378 
Q 2772 3750 2511 3984 
Q 2250 4219 1831 4219 
Q 1534 4219 1204 4116 
Q 875 4013 500 3803 
L 500 4441 
Q 881 4594 1212 4672 
Q 1544 4750 1819 4750 
Q 2544 4750 2975 4387 
Q 3406 4025 3406 3419 
Q 3406 3131 3298 2873 
Q 3191 2616 2906 2266 
Q 2828 2175 2409 1742 
Q 1991 1309 1228 531 
z
" transform="scale(0.015625)"/>
       </defs>
       <use xlink:href="#DejaVuSans-32"/>
       <use xlink:href="#DejaVuSans-30" x="63.623047"/>
       <use xlink:href="#DejaVuSans-30" x="127.246094"/>
      </g>
     </g>
    </g>
    <g id="xtick_3">
     <g id="line2d_3">
      <g>
       <use xlink:href="#mb49367c670" x="141.679756" y="174.612" style="fill: #262626; stroke: #262626"/>
      </g>
     </g>
     <g id="text_3">
      <!-- 400 -->
      <g style="fill: #262626" transform="translate(133.281256 189.598625) scale(0.088 -0.088)">
       <defs>
        <path id="DejaVuSans-34" d="M 2419 4116 
L 825 1625 
L 2419 1625 
L 2419 4116 
z
M 2253 4666 
L 3047 4666 
L 3047 1625 
L 3713 1625 
L 3713 1100 
L 3047 1100 
L 3047 0 
L 2419 0 
L 2419 1100 
L 313 1100 
L 313 1709 
L 2253 4666 
z
" transform="scale(0.015625)"/>
       </defs>
       <use xlink:href="#DejaVuSans-34"/>
       <use xlink:href="#DejaVuSans-30" x="63.623047"/>
       <use xlink:href="#DejaVuSans-30" x="127.246094"/>
      </g>
     </g>
    </g>
    <g id="xtick_4">
     <g id="line2d_4">
      <g>
       <use xlink:href="#mb49367c670" x="183.984821" y="174.612" style="fill: #262626; stroke: #262626"/>
      </g>
     </g>
     <g id="text_4">
      <!-- 600 -->
      <g style="fill: #262626" transform="translate(175.586321 189.598625) scale(0.088 -0.088)">
       <defs>
        <path id="DejaVuSans-36" d="M 2113 2584 
Q 1688 2584 1439 2293 
Q 1191 2003 1191 1497 
Q 1191 994 1439 701 
Q 1688 409 2113 409 
Q 2538 409 2786 701 
Q 3034 994 3034 1497 
Q 3034 2003 2786 2293 
Q 2538 2584 2113 2584 
z
M 3366 4563 
L 3366 3988 
Q 3128 4100 2886 4159 
Q 2644 4219 2406 4219 
Q 1781 4219 1451 3797 
Q 1122 3375 1075 2522 
Q 1259 2794 1537 2939 
Q 1816 3084 2150 3084 
Q 2853 3084 3261 2657 
Q 3669 2231 3669 1497 
Q 3669 778 3244 343 
Q 2819 -91 2113 -91 
Q 1303 -91 875 529 
Q 447 1150 447 2328 
Q 447 3434 972 4092 
Q 1497 4750 2381 4750 
Q 2619 4750 2861 4703 
Q 3103 4656 3366 4563 
z
" transform="scale(0.015625)"/>
       </defs>
       <use xlink:href="#DejaVuSans-36"/>
       <use xlink:href="#DejaVuSans-30" x="63.623047"/>
       <use xlink:href="#DejaVuSans-30" x="127.246094"/>
      </g>
     </g>
    </g>
    <g id="xtick_5">
     <g id="line2d_5">
      <g>
       <use xlink:href="#mb49367c670" x="226.289886" y="174.612" style="fill: #262626; stroke: #262626"/>
      </g>
     </g>
     <g id="text_5">
      <!-- 800 -->
      <g style="fill: #262626" transform="translate(217.891386 189.598625) scale(0.088 -0.088)">
       <defs>
        <path id="DejaVuSans-38" d="M 2034 2216 
Q 1584 2216 1326 1975 
Q 1069 1734 1069 1313 
Q 1069 891 1326 650 
Q 1584 409 2034 409 
Q 2484 409 2743 651 
Q 3003 894 3003 1313 
Q 3003 1734 2745 1975 
Q 2488 2216 2034 2216 
z
M 1403 2484 
Q 997 2584 770 2862 
Q 544 3141 544 3541 
Q 544 4100 942 4425 
Q 1341 4750 2034 4750 
Q 2731 4750 3128 4425 
Q 3525 4100 3525 3541 
Q 3525 3141 3298 2862 
Q 3072 2584 2669 2484 
Q 3125 2378 3379 2068 
Q 3634 1759 3634 1313 
Q 3634 634 3220 271 
Q 2806 -91 2034 -91 
Q 1263 -91 848 271 
Q 434 634 434 1313 
Q 434 1759 690 2068 
Q 947 2378 1403 2484 
z
M 1172 3481 
Q 1172 3119 1398 2916 
Q 1625 2713 2034 2713 
Q 2441 2713 2670 2916 
Q 2900 3119 2900 3481 
Q 2900 3844 2670 4047 
Q 2441 4250 2034 4250 
Q 1625 4250 1398 4047 
Q 1172 3844 1172 3481 
z
" transform="scale(0.015625)"/>
       </defs>
       <use xlink:href="#DejaVuSans-38"/>
       <use xlink:href="#DejaVuSans-30" x="63.623047"/>
       <use xlink:href="#DejaVuSans-30" x="127.246094"/>
      </g>
     </g>
    </g>
    <g id="text_6">
     <!-- RT (in samples) -->
     <g style="fill: #262626" transform="translate(119.178872 202.72325) scale(0.096 -0.096)">
      <defs>
       <path id="DejaVuSans-52" d="M 2841 2188 
Q 3044 2119 3236 1894 
Q 3428 1669 3622 1275 
L 4263 0 
L 3584 0 
L 2988 1197 
Q 2756 1666 2539 1819 
Q 2322 1972 1947 1972 
L 1259 1972 
L 1259 0 
L 628 0 
L 628 4666 
L 2053 4666 
Q 2853 4666 3247 4331 
Q 3641 3997 3641 3322 
Q 3641 2881 3436 2590 
Q 3231 2300 2841 2188 
z
M 1259 4147 
L 1259 2491 
L 2053 2491 
Q 2509 2491 2742 2702 
Q 2975 2913 2975 3322 
Q 2975 3731 2742 3939 
Q 2509 4147 2053 4147 
L 1259 4147 
z
" transform="scale(0.015625)"/>
       <path id="DejaVuSans-54" d="M -19 4666 
L 3928 4666 
L 3928 4134 
L 2272 4134 
L 2272 0 
L 1638 0 
L 1638 4134 
L -19 4134 
L -19 4666 
z
" transform="scale(0.015625)"/>
       <path id="DejaVuSans-20" transform="scale(0.015625)"/>
       <path id="DejaVuSans-28" d="M 1984 4856 
Q 1566 4138 1362 3434 
Q 1159 2731 1159 2009 
Q 1159 1288 1364 580 
Q 1569 -128 1984 -844 
L 1484 -844 
Q 1016 -109 783 600 
Q 550 1309 550 2009 
Q 550 2706 781 3412 
Q 1013 4119 1484 4856 
L 1984 4856 
z
" transform="scale(0.015625)"/>
       <path id="DejaVuSans-69" d="M 603 3500 
L 1178 3500 
L 1178 0 
L 603 0 
L 603 3500 
z
M 603 4863 
L 1178 4863 
L 1178 4134 
L 603 4134 
L 603 4863 
z
" transform="scale(0.015625)"/>
       <path id="DejaVuSans-6e" d="M 3513 2113 
L 3513 0 
L 2938 0 
L 2938 2094 
Q 2938 2591 2744 2837 
Q 2550 3084 2163 3084 
Q 1697 3084 1428 2787 
Q 1159 2491 1159 1978 
L 1159 0 
L 581 0 
L 581 3500 
L 1159 3500 
L 1159 2956 
Q 1366 3272 1645 3428 
Q 1925 3584 2291 3584 
Q 2894 3584 3203 3211 
Q 3513 2838 3513 2113 
z
" transform="scale(0.015625)"/>
       <path id="DejaVuSans-73" d="M 2834 3397 
L 2834 2853 
Q 2591 2978 2328 3040 
Q 2066 3103 1784 3103 
Q 1356 3103 1142 2972 
Q 928 2841 928 2578 
Q 928 2378 1081 2264 
Q 1234 2150 1697 2047 
L 1894 2003 
Q 2506 1872 2764 1633 
Q 3022 1394 3022 966 
Q 3022 478 2636 193 
Q 2250 -91 1575 -91 
Q 1294 -91 989 -36 
Q 684 19 347 128 
L 347 722 
Q 666 556 975 473 
Q 1284 391 1588 391 
Q 1994 391 2212 530 
Q 2431 669 2431 922 
Q 2431 1156 2273 1281 
Q 2116 1406 1581 1522 
L 1381 1569 
Q 847 1681 609 1914 
Q 372 2147 372 2553 
Q 372 3047 722 3315 
Q 1072 3584 1716 3584 
Q 2034 3584 2315 3537 
Q 2597 3491 2834 3397 
z
" transform="scale(0.015625)"/>
       <path id="DejaVuSans-61" d="M 2194 1759 
Q 1497 1759 1228 1600 
Q 959 1441 959 1056 
Q 959 750 1161 570 
Q 1363 391 1709 391 
Q 2188 391 2477 730 
Q 2766 1069 2766 1631 
L 2766 1759 
L 2194 1759 
z
M 3341 1997 
L 3341 0 
L 2766 0 
L 2766 531 
Q 2569 213 2275 61 
Q 1981 -91 1556 -91 
Q 1019 -91 701 211 
Q 384 513 384 1019 
Q 384 1609 779 1909 
Q 1175 2209 1959 2209 
L 2766 2209 
L 2766 2266 
Q 2766 2663 2505 2880 
Q 2244 3097 1772 3097 
Q 1472 3097 1187 3025 
Q 903 2953 641 2809 
L 641 3341 
Q 956 3463 1253 3523 
Q 1550 3584 1831 3584 
Q 2591 3584 2966 3190 
Q 3341 2797 3341 1997 
z
" transform="scale(0.015625)"/>
       <path id="DejaVuSans-6d" d="M 3328 2828 
Q 3544 3216 3844 3400 
Q 4144 3584 4550 3584 
Q 5097 3584 5394 3201 
Q 5691 2819 5691 2113 
L 5691 0 
L 5113 0 
L 5113 2094 
Q 5113 2597 4934 2840 
Q 4756 3084 4391 3084 
Q 3944 3084 3684 2787 
Q 3425 2491 3425 1978 
L 3425 0 
L 2847 0 
L 2847 2094 
Q 2847 2600 2669 2842 
Q 2491 3084 2119 3084 
Q 1678 3084 1418 2786 
Q 1159 2488 1159 1978 
L 1159 0 
L 581 0 
L 581 3500 
L 1159 3500 
L 1159 2956 
Q 1356 3278 1631 3431 
Q 1906 3584 2284 3584 
Q 2666 3584 2933 3390 
Q 3200 3197 3328 2828 
z
" transform="scale(0.015625)"/>
       <path id="DejaVuSans-70" d="M 1159 525 
L 1159 -1331 
L 581 -1331 
L 581 3500 
L 1159 3500 
L 1159 2969 
Q 1341 3281 1617 3432 
Q 1894 3584 2278 3584 
Q 2916 3584 3314 3078 
Q 3713 2572 3713 1747 
Q 3713 922 3314 415 
Q 2916 -91 2278 -91 
Q 1894 -91 1617 61 
Q 1341 213 1159 525 
z
M 3116 1747 
Q 3116 2381 2855 2742 
Q 2594 3103 2138 3103 
Q 1681 3103 1420 2742 
Q 1159 2381 1159 1747 
Q 1159 1113 1420 752 
Q 1681 391 2138 391 
Q 2594 391 2855 752 
Q 3116 1113 3116 1747 
z
" transform="scale(0.015625)"/>
       <path id="DejaVuSans-6c" d="M 603 4863 
L 1178 4863 
L 1178 0 
L 603 0 
L 603 4863 
z
" transform="scale(0.015625)"/>
       <path id="DejaVuSans-65" d="M 3597 1894 
L 3597 1613 
L 953 1613 
Q 991 1019 1311 708 
Q 1631 397 2203 397 
Q 2534 397 2845 478 
Q 3156 559 3463 722 
L 3463 178 
Q 3153 47 2828 -22 
Q 2503 -91 2169 -91 
Q 1331 -91 842 396 
Q 353 884 353 1716 
Q 353 2575 817 3079 
Q 1281 3584 2069 3584 
Q 2775 3584 3186 3129 
Q 3597 2675 3597 1894 
z
M 3022 2063 
Q 3016 2534 2758 2815 
Q 2500 3097 2075 3097 
Q 1594 3097 1305 2825 
Q 1016 2553 972 2059 
L 3022 2063 
z
" transform="scale(0.015625)"/>
       <path id="DejaVuSans-29" d="M 513 4856 
L 1013 4856 
Q 1481 4119 1714 3412 
Q 1947 2706 1947 2009 
Q 1947 1309 1714 600 
Q 1481 -109 1013 -844 
L 513 -844 
Q 928 -128 1133 580 
Q 1338 1288 1338 2009 
Q 1338 2731 1133 3434 
Q 928 4138 513 4856 
z
" transform="scale(0.015625)"/>
      </defs>
      <use xlink:href="#DejaVuSans-52"/>
      <use xlink:href="#DejaVuSans-54" x="62.232422"/>
      <use xlink:href="#DejaVuSans-20" x="123.316406"/>
      <use xlink:href="#DejaVuSans-28" x="155.103516"/>
      <use xlink:href="#DejaVuSans-69" x="194.117188"/>
      <use xlink:href="#DejaVuSans-6e" x="221.900391"/>
      <use xlink:href="#DejaVuSans-20" x="285.279297"/>
      <use xlink:href="#DejaVuSans-73" x="317.066406"/>
      <use xlink:href="#DejaVuSans-61" x="369.166016"/>
      <use xlink:href="#DejaVuSans-6d" x="430.445312"/>
      <use xlink:href="#DejaVuSans-70" x="527.857422"/>
      <use xlink:href="#DejaVuSans-6c" x="591.333984"/>
      <use xlink:href="#DejaVuSans-65" x="619.117188"/>
      <use xlink:href="#DejaVuSans-73" x="680.640625"/>
      <use xlink:href="#DejaVuSans-29" x="732.740234"/>
     </g>
    </g>
   </g>
   <g id="matplotlib.axis_2">
    <g id="ytick_1">
     <g id="line2d_6">
      <defs>
       <path id="me223669dfb" d="M 0 0 
L -4.8 0 
" style="stroke: #262626"/>
      </defs>
      <g>
       <use xlink:href="#me223669dfb" x="54.348" y="174.612" style="fill: #262626; stroke: #262626"/>
      </g>
     </g>
     <g id="text_7">
      <!-- 0 -->
      <g style="fill: #262626" transform="translate(40.449 177.955312) scale(0.088 -0.088)">
       <use xlink:href="#DejaVuSans-30"/>
      </g>
     </g>
    </g>
    <g id="ytick_2">
     <g id="line2d_7">
      <g>
       <use xlink:href="#me223669dfb" x="54.348" y="142.4832" style="fill: #262626; stroke: #262626"/>
      </g>
     </g>
     <g id="text_8">
      <!-- 200 -->
      <g style="fill: #262626" transform="translate(29.251 145.826512) scale(0.088 -0.088)">
       <use xlink:href="#DejaVuSans-32"/>
       <use xlink:href="#DejaVuSans-30" x="63.623047"/>
       <use xlink:href="#DejaVuSans-30" x="127.246094"/>
      </g>
     </g>
    </g>
    <g id="ytick_3">
     <g id="line2d_8">
      <g>
       <use xlink:href="#me223669dfb" x="54.348" y="110.3544" style="fill: #262626; stroke: #262626"/>
      </g>
     </g>
     <g id="text_9">
      <!-- 400 -->
      <g style="fill: #262626" transform="translate(29.251 113.697712) scale(0.088 -0.088)">
       <use xlink:href="#DejaVuSans-34"/>
       <use xlink:href="#DejaVuSans-30" x="63.623047"/>
       <use xlink:href="#DejaVuSans-30" x="127.246094"/>
      </g>
     </g>
    </g>
    <g id="ytick_4">
     <g id="line2d_9">
      <g>
       <use xlink:href="#me223669dfb" x="54.348" y="78.2256" style="fill: #262626; stroke: #262626"/>
      </g>
     </g>
     <g id="text_10">
      <!-- 600 -->
      <g style="fill: #262626" transform="translate(29.251 81.568912) scale(0.088 -0.088)">
       <use xlink:href="#DejaVuSans-36"/>
       <use xlink:href="#DejaVuSans-30" x="63.623047"/>
       <use xlink:href="#DejaVuSans-30" x="127.246094"/>
      </g>
     </g>
    </g>
    <g id="ytick_5">
     <g id="line2d_10">
      <g>
       <use xlink:href="#me223669dfb" x="54.348" y="46.0968" style="fill: #262626; stroke: #262626"/>
      </g>
     </g>
     <g id="text_11">
      <!-- 800 -->
      <g style="fill: #262626" transform="translate(29.251 49.440112) scale(0.088 -0.088)">
       <use xlink:href="#DejaVuSans-38"/>
       <use xlink:href="#DejaVuSans-30" x="63.623047"/>
       <use xlink:href="#DejaVuSans-30" x="127.246094"/>
      </g>
     </g>
    </g>
    <g id="ytick_6">
     <g id="line2d_11">
      <g>
       <use xlink:href="#me223669dfb" x="54.348" y="13.968" style="fill: #262626; stroke: #262626"/>
      </g>
     </g>
     <g id="text_12">
      <!-- 1000 -->
      <g style="fill: #262626" transform="translate(23.652 17.311313) scale(0.088 -0.088)">
       <defs>
        <path id="DejaVuSans-31" d="M 794 531 
L 1825 531 
L 1825 4091 
L 703 3866 
L 703 4441 
L 1819 4666 
L 2450 4666 
L 2450 531 
L 3481 531 
L 3481 0 
L 794 0 
L 794 531 
z
" transform="scale(0.015625)"/>
       </defs>
       <use xlink:href="#DejaVuSans-31"/>
       <use xlink:href="#DejaVuSans-30" x="63.623047"/>
       <use xlink:href="#DejaVuSans-30" x="127.246094"/>
       <use xlink:href="#DejaVuSans-30" x="190.869141"/>
      </g>
     </g>
    </g>
    <g id="text_13">
     <!-- Count (trials) -->
     <g style="fill: #262626" transform="translate(17.6555 125.7795) rotate(-90) scale(0.096 -0.096)">
      <defs>
       <path id="DejaVuSans-43" d="M 4122 4306 
L 4122 3641 
Q 3803 3938 3442 4084 
Q 3081 4231 2675 4231 
Q 1875 4231 1450 3742 
Q 1025 3253 1025 2328 
Q 1025 1406 1450 917 
Q 1875 428 2675 428 
Q 3081 428 3442 575 
Q 3803 722 4122 1019 
L 4122 359 
Q 3791 134 3420 21 
Q 3050 -91 2638 -91 
Q 1578 -91 968 557 
Q 359 1206 359 2328 
Q 359 3453 968 4101 
Q 1578 4750 2638 4750 
Q 3056 4750 3426 4639 
Q 3797 4528 4122 4306 
z
" transform="scale(0.015625)"/>
       <path id="DejaVuSans-6f" d="M 1959 3097 
Q 1497 3097 1228 2736 
Q 959 2375 959 1747 
Q 959 1119 1226 758 
Q 1494 397 1959 397 
Q 2419 397 2687 759 
Q 2956 1122 2956 1747 
Q 2956 2369 2687 2733 
Q 2419 3097 1959 3097 
z
M 1959 3584 
Q 2709 3584 3137 3096 
Q 3566 2609 3566 1747 
Q 3566 888 3137 398 
Q 2709 -91 1959 -91 
Q 1206 -91 779 398 
Q 353 888 353 1747 
Q 353 2609 779 3096 
Q 1206 3584 1959 3584 
z
" transform="scale(0.015625)"/>
       <path id="DejaVuSans-75" d="M 544 1381 
L 544 3500 
L 1119 3500 
L 1119 1403 
Q 1119 906 1312 657 
Q 1506 409 1894 409 
Q 2359 409 2629 706 
Q 2900 1003 2900 1516 
L 2900 3500 
L 3475 3500 
L 3475 0 
L 2900 0 
L 2900 538 
Q 2691 219 2414 64 
Q 2138 -91 1772 -91 
Q 1169 -91 856 284 
Q 544 659 544 1381 
z
M 1991 3584 
L 1991 3584 
z
" transform="scale(0.015625)"/>
       <path id="DejaVuSans-74" d="M 1172 4494 
L 1172 3500 
L 2356 3500 
L 2356 3053 
L 1172 3053 
L 1172 1153 
Q 1172 725 1289 603 
Q 1406 481 1766 481 
L 2356 481 
L 2356 0 
L 1766 0 
Q 1100 0 847 248 
Q 594 497 594 1153 
L 594 3053 
L 172 3053 
L 172 3500 
L 594 3500 
L 594 4494 
L 1172 4494 
z
" transform="scale(0.015625)"/>
       <path id="DejaVuSans-72" d="M 2631 2963 
Q 2534 3019 2420 3045 
Q 2306 3072 2169 3072 
Q 1681 3072 1420 2755 
Q 1159 2438 1159 1844 
L 1159 0 
L 581 0 
L 581 3500 
L 1159 3500 
L 1159 2956 
Q 1341 3275 1631 3429 
Q 1922 3584 2338 3584 
Q 2397 3584 2469 3576 
Q 2541 3569 2628 3553 
L 2631 2963 
z
" transform="scale(0.015625)"/>
      </defs>
      <use xlink:href="#DejaVuSans-43"/>
      <use xlink:href="#DejaVuSans-6f" x="69.824219"/>
      <use xlink:href="#DejaVuSans-75" x="131.005859"/>
      <use xlink:href="#DejaVuSans-6e" x="194.384766"/>
      <use xlink:href="#DejaVuSans-74" x="257.763672"/>
      <use xlink:href="#DejaVuSans-20" x="296.972656"/>
      <use xlink:href="#DejaVuSans-28" x="328.759766"/>
      <use xlink:href="#DejaVuSans-74" x="367.773438"/>
      <use xlink:href="#DejaVuSans-72" x="406.982422"/>
      <use xlink:href="#DejaVuSans-69" x="448.095703"/>
      <use xlink:href="#DejaVuSans-61" x="475.878906"/>
      <use xlink:href="#DejaVuSans-6c" x="537.158203"/>
      <use xlink:href="#DejaVuSans-73" x="564.941406"/>
      <use xlink:href="#DejaVuSans-29" x="617.041016"/>
     </g>
    </g>
   </g>
   <g id="PolyCollection_1">
    <defs>
     <path id="m0566705f38" d="M 63.609284 -41.388 
L 63.609284 -41.388 
L 66.112333 -41.388 
L 68.615383 -41.388 
L 71.118433 -41.388 
L 73.621483 -41.388 
L 76.124532 -41.388 
L 78.627582 -41.388 
L 81.130632 -41.388 
L 83.633681 -41.388 
L 86.136731 -41.388 
L 88.639781 -41.388 
L 91.14283 -41.388 
L 93.64588 -41.388 
L 96.14893 -41.388 
L 98.651979 -41.388 
L 101.155029 -41.388 
L 103.658079 -41.388 
L 106.161128 -41.388 
L 108.664178 -41.388 
L 111.167228 -41.388 
L 113.670277 -41.388 
L 116.173327 -41.388 
L 118.676377 -41.388 
L 121.179426 -41.388 
L 123.682476 -41.388 
L 126.185526 -41.388 
L 128.688575 -41.388 
L 131.191625 -41.388 
L 133.694675 -41.388 
L 136.197724 -41.388 
L 138.700774 -41.388 
L 141.203824 -41.388 
L 143.706874 -41.388 
L 146.209923 -41.388 
L 148.712973 -41.388 
L 151.216023 -41.388 
L 153.719072 -41.388 
L 156.222122 -41.388 
L 158.725172 -41.388 
L 161.228221 -41.388 
L 163.731271 -41.388 
L 166.234321 -41.388 
L 168.73737 -41.388 
L 171.24042 -41.388 
L 173.74347 -41.388 
L 176.246519 -41.388 
L 178.749569 -41.388 
L 181.252619 -41.388 
L 183.755668 -41.388 
L 186.258718 -41.388 
L 188.761768 -41.388 
L 191.264817 -41.388 
L 193.767867 -41.388 
L 196.270917 -41.388 
L 198.773966 -41.388 
L 201.277016 -41.388 
L 203.780066 -41.388 
L 206.283115 -41.388 
L 208.786165 -41.388 
L 211.289215 -41.388 
L 213.792265 -41.388 
L 216.295314 -41.388 
L 218.798364 -41.388 
L 221.301414 -41.388 
L 223.804463 -41.388 
L 226.307513 -41.388 
L 228.810563 -41.388 
L 231.313612 -41.388 
L 233.816662 -41.388 
L 236.319712 -41.388 
L 238.822761 -41.388 
L 241.325811 -41.388 
L 243.828861 -41.388 
L 246.33191 -41.388 
L 248.83496 -41.388 
L 248.83496 -41.548644 
L 248.83496 -41.548644 
L 246.33191 -41.388 
L 243.828861 -41.709288 
L 241.325811 -41.388 
L 238.822761 -41.388 
L 236.319712 -41.548644 
L 233.816662 -41.388 
L 231.313612 -41.388 
L 228.810563 -41.548644 
L 226.307513 -41.388 
L 223.804463 -41.388 
L 221.301414 -41.548644 
L 218.798364 -41.388 
L 216.295314 -41.709288 
L 213.792265 -41.388 
L 211.289215 -41.388 
L 208.786165 -41.548644 
L 206.283115 -41.709288 
L 203.780066 -41.388 
L 201.277016 -41.388 
L 198.773966 -41.709288 
L 196.270917 -41.548644 
L 193.767867 -41.548644 
L 191.264817 -41.388 
L 188.761768 -41.709288 
L 186.258718 -41.709288 
L 183.755668 -42.030576 
L 181.252619 -41.548644 
L 178.749569 -41.388 
L 176.246519 -41.869932 
L 173.74347 -42.030576 
L 171.24042 -42.19122 
L 168.73737 -41.548644 
L 166.234321 -42.351864 
L 163.731271 -41.548644 
L 161.228221 -42.99444 
L 158.725172 -43.155084 
L 156.222122 -43.637016 
L 153.719072 -43.315728 
L 151.216023 -42.673152 
L 148.712973 -44.279592 
L 146.209923 -44.440236 
L 143.706874 -44.922168 
L 141.203824 -44.279592 
L 138.700774 -46.046676 
L 136.197724 -47.81376 
L 133.694675 -46.689252 
L 131.191625 -48.135048 
L 128.688575 -49.741488 
L 126.185526 -49.098912 
L 123.682476 -52.151148 
L 121.179426 -53.4363 
L 118.676377 -56.64918 
L 116.173327 -63.07494 
L 113.670277 -62.593008 
L 111.167228 -70.143276 
L 108.664178 -72.071004 
L 106.161128 -77.5329 
L 103.658079 -87.17154 
L 101.155029 -95.20374 
L 98.651979 -113.195868 
L 96.14893 -125.244168 
L 93.64588 -150.143988 
L 91.14283 -169.9032 
L 88.639781 -211.509996 
L 86.136731 -252.956148 
L 83.633681 -239.462052 
L 81.130632 -216.811248 
L 78.627582 -169.09998 
L 76.124532 -98.737908 
L 73.621483 -55.524672 
L 71.118433 -45.725388 
L 68.615383 -41.869932 
L 66.112333 -41.388 
L 63.609284 -41.388 
z
" style="stroke: #228833; stroke-width: 0.8"/>
    </defs>
    <g clip-path="url(#p2142d908a4)">
     <use xlink:href="#m0566705f38" x="0" y="216" style="fill: #228833; fill-opacity: 0.25; stroke: #228833; stroke-width: 0.8"/>
    </g>
   </g>
   <g id="PolyCollection_2">
    <path d="M 63.609284 166.258512 
L 63.609284 174.612 
L 66.112333 174.612 
L 68.615383 174.612 
L 71.118433 174.612 
L 73.621483 174.612 
L 76.124532 174.612 
L 78.627582 174.612 
L 81.130632 174.612 
L 83.633681 174.612 
L 86.136731 174.612 
L 88.639781 174.612 
L 91.14283 174.612 
L 93.64588 174.612 
L 96.14893 174.612 
L 98.651979 174.612 
L 101.155029 174.612 
L 103.658079 174.612 
L 106.161128 174.612 
L 108.664178 174.612 
L 111.167228 174.612 
L 113.670277 174.612 
L 116.173327 174.612 
L 118.676377 174.612 
L 121.179426 174.612 
L 123.682476 174.612 
L 126.185526 174.612 
L 128.688575 174.612 
L 131.191625 174.612 
L 133.694675 174.612 
L 136.197724 174.612 
L 138.700774 174.612 
L 141.203824 174.612 
L 143.706874 174.612 
L 146.209923 174.612 
L 148.712973 174.612 
L 151.216023 174.612 
L 153.719072 174.612 
L 156.222122 174.612 
L 158.725172 174.612 
L 161.228221 174.612 
L 163.731271 174.612 
L 166.234321 174.612 
L 168.73737 174.612 
L 171.24042 174.612 
L 173.74347 174.612 
L 176.246519 174.612 
L 178.749569 174.612 
L 181.252619 174.612 
L 183.755668 174.612 
L 186.258718 174.612 
L 188.761768 174.612 
L 191.264817 174.612 
L 193.767867 174.612 
L 196.270917 174.612 
L 198.773966 174.612 
L 201.277016 174.612 
L 203.780066 174.612 
L 206.283115 174.612 
L 208.786165 174.612 
L 211.289215 174.612 
L 213.792265 174.612 
L 216.295314 174.612 
L 218.798364 174.612 
L 221.301414 174.612 
L 223.804463 174.612 
L 226.307513 174.612 
L 228.810563 174.612 
L 231.313612 174.612 
L 233.816662 174.612 
L 236.319712 174.612 
L 238.822761 174.612 
L 241.325811 174.612 
L 243.828861 174.612 
L 246.33191 174.612 
L 248.83496 174.612 
L 248.83496 174.612 
L 248.83496 174.612 
L 246.33191 174.612 
L 243.828861 174.612 
L 241.325811 174.612 
L 238.822761 174.612 
L 236.319712 174.612 
L 233.816662 174.612 
L 231.313612 174.612 
L 228.810563 174.612 
L 226.307513 174.612 
L 223.804463 174.612 
L 221.301414 174.612 
L 218.798364 174.612 
L 216.295314 174.612 
L 213.792265 174.612 
L 211.289215 174.612 
L 208.786165 174.612 
L 206.283115 174.612 
L 203.780066 174.612 
L 201.277016 174.612 
L 198.773966 174.612 
L 196.270917 174.451356 
L 193.767867 174.290712 
L 191.264817 174.612 
L 188.761768 174.451356 
L 186.258718 174.612 
L 183.755668 174.451356 
L 181.252619 174.451356 
L 178.749569 174.451356 
L 176.246519 174.612 
L 173.74347 174.612 
L 171.24042 174.612 
L 168.73737 174.612 
L 166.234321 174.612 
L 163.731271 174.451356 
L 161.228221 174.612 
L 158.725172 174.612 
L 156.222122 174.612 
L 153.719072 174.451356 
L 151.216023 174.451356 
L 148.712973 174.451356 
L 146.209923 174.130068 
L 143.706874 174.612 
L 141.203824 173.80878 
L 138.700774 173.969424 
L 136.197724 174.451356 
L 133.694675 173.326848 
L 131.191625 173.166204 
L 128.688575 173.166204 
L 126.185526 173.487492 
L 123.682476 173.166204 
L 121.179426 172.684272 
L 118.676377 171.077832 
L 116.173327 170.917188 
L 113.670277 170.917188 
L 111.167228 168.507528 
L 108.664178 167.864952 
L 106.161128 166.258512 
L 103.658079 164.97336 
L 101.155029 162.724344 
L 98.651979 159.029532 
L 96.14893 151.800552 
L 93.64588 144.571572 
L 91.14283 139.591608 
L 88.639781 120.79626 
L 86.136731 82.562988 
L 83.633681 42.0807 
L 81.130632 -30.851676 
L 78.627582 -94.948632 
L 76.124532 -109.406592 
L 73.621483 -50.771532 
L 71.118433 42.88392 
L 68.615383 99.91254 
L 66.112333 145.69608 
L 63.609284 166.258512 
z
" clip-path="url(#p2142d908a4)" style="fill: #66ccee; fill-opacity: 0.25; stroke: #66ccee; stroke-width: 0.8"/>
   </g>
   <g id="patch_3">
    <path d="M 54.348 174.612 
L 54.348 13.968 
" style="fill: none; stroke: #262626; stroke-linejoin: miter; stroke-linecap: square"/>
   </g>
   <g id="patch_4">
    <path d="M 258.096244 174.612 
L 258.096244 13.968 
" style="fill: none; stroke: #262626; stroke-linejoin: miter; stroke-linecap: square"/>
   </g>
   <g id="patch_5">
    <path d="M 54.348 174.612 
L 258.096244 174.612 
" style="fill: none; stroke: #262626; stroke-linejoin: miter; stroke-linecap: square"/>
   </g>
   <g id="patch_6">
    <path d="M 54.348 13.968 
L 258.096244 13.968 
" style="fill: none; stroke: #262626; stroke-linejoin: miter; stroke-linecap: square"/>
   </g>
  </g>
  <g id="axes_2">
   <g id="patch_7">
    <path d="M 280.115878 174.612 
L 483.864122 174.612 
L 483.864122 13.968 
L 280.115878 13.968 
L 280.115878 174.612 
z
" style="fill: none"/>
   </g>
   <g id="matplotlib.axis_3">
    <g id="xtick_6">
     <g id="line2d_12">
      <g>
       <use xlink:href="#mb49367c670" x="287.362634" y="174.612" style="fill: #262626; stroke: #262626"/>
      </g>
     </g>
     <g id="text_14">
      <!-- 0.0 -->
      <g style="fill: #262626" transform="translate(280.365259 189.598625) scale(0.088 -0.088)">
       <defs>
        <path id="DejaVuSans-2e" d="M 684 794 
L 1344 794 
L 1344 0 
L 684 0 
L 684 794 
z
" transform="scale(0.015625)"/>
       </defs>
       <use xlink:href="#DejaVuSans-30"/>
       <use xlink:href="#DejaVuSans-2e" x="63.623047"/>
       <use xlink:href="#DejaVuSans-30" x="95.410156"/>
      </g>
     </g>
    </g>
    <g id="xtick_7">
     <g id="line2d_13">
      <g>
       <use xlink:href="#mb49367c670" x="339.264532" y="174.612" style="fill: #262626; stroke: #262626"/>
      </g>
     </g>
     <g id="text_15">
      <!-- 0.5 -->
      <g style="fill: #262626" transform="translate(332.267157 189.598625) scale(0.088 -0.088)">
       <defs>
        <path id="DejaVuSans-35" d="M 691 4666 
L 3169 4666 
L 3169 4134 
L 1269 4134 
L 1269 2991 
Q 1406 3038 1543 3061 
Q 1681 3084 1819 3084 
Q 2600 3084 3056 2656 
Q 3513 2228 3513 1497 
Q 3513 744 3044 326 
Q 2575 -91 1722 -91 
Q 1428 -91 1123 -41 
Q 819 9 494 109 
L 494 744 
Q 775 591 1075 516 
Q 1375 441 1709 441 
Q 2250 441 2565 725 
Q 2881 1009 2881 1497 
Q 2881 1984 2565 2268 
Q 2250 2553 1709 2553 
Q 1456 2553 1204 2497 
Q 953 2441 691 2322 
L 691 4666 
z
" transform="scale(0.015625)"/>
       </defs>
       <use xlink:href="#DejaVuSans-30"/>
       <use xlink:href="#DejaVuSans-2e" x="63.623047"/>
       <use xlink:href="#DejaVuSans-35" x="95.410156"/>
      </g>
     </g>
    </g>
    <g id="xtick_8">
     <g id="line2d_14">
      <g>
       <use xlink:href="#mb49367c670" x="391.16643" y="174.612" style="fill: #262626; stroke: #262626"/>
      </g>
     </g>
     <g id="text_16">
      <!-- 1.0 -->
      <g style="fill: #262626" transform="translate(384.169055 189.598625) scale(0.088 -0.088)">
       <use xlink:href="#DejaVuSans-31"/>
       <use xlink:href="#DejaVuSans-2e" x="63.623047"/>
       <use xlink:href="#DejaVuSans-30" x="95.410156"/>
      </g>
     </g>
    </g>
    <g id="xtick_9">
     <g id="line2d_15">
      <g>
       <use xlink:href="#mb49367c670" x="443.068328" y="174.612" style="fill: #262626; stroke: #262626"/>
      </g>
     </g>
     <g id="text_17">
      <!-- 1.5 -->
      <g style="fill: #262626" transform="translate(436.070953 189.598625) scale(0.088 -0.088)">
       <use xlink:href="#DejaVuSans-31"/>
       <use xlink:href="#DejaVuSans-2e" x="63.623047"/>
       <use xlink:href="#DejaVuSans-35" x="95.410156"/>
      </g>
     </g>
    </g>
    <g id="text_18">
     <!-- Confirmation AUC -->
     <g style="fill: #262626" transform="translate(339.26175 202.72325) scale(0.096 -0.096)">
      <defs>
       <path id="DejaVuSans-66" d="M 2375 4863 
L 2375 4384 
L 1825 4384 
Q 1516 4384 1395 4259 
Q 1275 4134 1275 3809 
L 1275 3500 
L 2222 3500 
L 2222 3053 
L 1275 3053 
L 1275 0 
L 697 0 
L 697 3053 
L 147 3053 
L 147 3500 
L 697 3500 
L 697 3744 
Q 697 4328 969 4595 
Q 1241 4863 1831 4863 
L 2375 4863 
z
" transform="scale(0.015625)"/>
       <path id="DejaVuSans-41" d="M 2188 4044 
L 1331 1722 
L 3047 1722 
L 2188 4044 
z
M 1831 4666 
L 2547 4666 
L 4325 0 
L 3669 0 
L 3244 1197 
L 1141 1197 
L 716 0 
L 50 0 
L 1831 4666 
z
" transform="scale(0.015625)"/>
       <path id="DejaVuSans-55" d="M 556 4666 
L 1191 4666 
L 1191 1831 
Q 1191 1081 1462 751 
Q 1734 422 2344 422 
Q 2950 422 3222 751 
Q 3494 1081 3494 1831 
L 3494 4666 
L 4128 4666 
L 4128 1753 
Q 4128 841 3676 375 
Q 3225 -91 2344 -91 
Q 1459 -91 1007 375 
Q 556 841 556 1753 
L 556 4666 
z
" transform="scale(0.015625)"/>
      </defs>
      <use xlink:href="#DejaVuSans-43"/>
      <use xlink:href="#DejaVuSans-6f" x="69.824219"/>
      <use xlink:href="#DejaVuSans-6e" x="131.005859"/>
      <use xlink:href="#DejaVuSans-66" x="194.384766"/>
      <use xlink:href="#DejaVuSans-69" x="229.589844"/>
      <use xlink:href="#DejaVuSans-72" x="257.373047"/>
      <use xlink:href="#DejaVuSans-6d" x="296.736328"/>
      <use xlink:href="#DejaVuSans-61" x="394.148438"/>
      <use xlink:href="#DejaVuSans-74" x="455.427734"/>
      <use xlink:href="#DejaVuSans-69" x="494.636719"/>
      <use xlink:href="#DejaVuSans-6f" x="522.419922"/>
      <use xlink:href="#DejaVuSans-6e" x="583.601562"/>
      <use xlink:href="#DejaVuSans-20" x="646.980469"/>
      <use xlink:href="#DejaVuSans-41" x="678.767578"/>
      <use xlink:href="#DejaVuSans-55" x="747.175781"/>
      <use xlink:href="#DejaVuSans-43" x="820.369141"/>
     </g>
    </g>
   </g>
   <g id="matplotlib.axis_4">
    <g id="ytick_7">
     <g id="line2d_16">
      <g>
       <use xlink:href="#me223669dfb" x="280.115878" y="174.612" style="fill: #262626; stroke: #262626"/>
      </g>
     </g>
    </g>
    <g id="ytick_8">
     <g id="line2d_17">
      <g>
       <use xlink:href="#me223669dfb" x="280.115878" y="142.4832" style="fill: #262626; stroke: #262626"/>
      </g>
     </g>
    </g>
    <g id="ytick_9">
     <g id="line2d_18">
      <g>
       <use xlink:href="#me223669dfb" x="280.115878" y="110.3544" style="fill: #262626; stroke: #262626"/>
      </g>
     </g>
    </g>
    <g id="ytick_10">
     <g id="line2d_19">
      <g>
       <use xlink:href="#me223669dfb" x="280.115878" y="78.2256" style="fill: #262626; stroke: #262626"/>
      </g>
     </g>
    </g>
    <g id="ytick_11">
     <g id="line2d_20">
      <g>
       <use xlink:href="#me223669dfb" x="280.115878" y="46.0968" style="fill: #262626; stroke: #262626"/>
      </g>
     </g>
    </g>
    <g id="ytick_12">
     <g id="line2d_21">
      <g>
       <use xlink:href="#me223669dfb" x="280.115878" y="13.968" style="fill: #262626; stroke: #262626"/>
      </g>
     </g>
    </g>
   </g>
   <g id="PolyCollection_3">
    <defs>
     <path id="mab2772030d" d="M 289.377162 -41.709288 
L 289.377162 -41.388 
L 291.880212 -41.388 
L 294.383261 -41.388 
L 296.886311 -41.388 
L 299.389361 -41.388 
L 301.89241 -41.388 
L 304.39546 -41.388 
L 306.89851 -41.388 
L 309.401559 -41.388 
L 311.904609 -41.388 
L 314.407659 -41.388 
L 316.910708 -41.388 
L 319.413758 -41.388 
L 321.916808 -41.388 
L 324.419857 -41.388 
L 326.922907 -41.388 
L 329.425957 -41.388 
L 331.929006 -41.388 
L 334.432056 -41.388 
L 336.935106 -41.388 
L 339.438155 -41.388 
L 341.941205 -41.388 
L 344.444255 -41.388 
L 346.947305 -41.388 
L 349.450354 -41.388 
L 351.953404 -41.388 
L 354.456454 -41.388 
L 356.959503 -41.388 
L 359.462553 -41.388 
L 361.965603 -41.388 
L 364.468652 -41.388 
L 366.971702 -41.388 
L 369.474752 -41.388 
L 371.977801 -41.388 
L 374.480851 -41.388 
L 376.983901 -41.388 
L 379.48695 -41.388 
L 381.99 -41.388 
L 384.49305 -41.388 
L 386.996099 -41.388 
L 389.499149 -41.388 
L 392.002199 -41.388 
L 394.505248 -41.388 
L 397.008298 -41.388 
L 399.511348 -41.388 
L 402.014397 -41.388 
L 404.517447 -41.388 
L 407.020497 -41.388 
L 409.523546 -41.388 
L 412.026596 -41.388 
L 414.529646 -41.388 
L 417.032695 -41.388 
L 419.535745 -41.388 
L 422.038795 -41.388 
L 424.541845 -41.388 
L 427.044894 -41.388 
L 429.547944 -41.388 
L 432.050994 -41.388 
L 434.554043 -41.388 
L 437.057093 -41.388 
L 439.560143 -41.388 
L 442.063192 -41.388 
L 444.566242 -41.388 
L 447.069292 -41.388 
L 449.572341 -41.388 
L 452.075391 -41.388 
L 454.578441 -41.388 
L 457.08149 -41.388 
L 459.58454 -41.388 
L 462.08759 -41.388 
L 464.590639 -41.388 
L 467.093689 -41.388 
L 469.596739 -41.388 
L 472.099788 -41.388 
L 474.602838 -41.388 
L 474.602838 -41.548644 
L 474.602838 -41.548644 
L 472.099788 -41.388 
L 469.596739 -41.548644 
L 467.093689 -41.388 
L 464.590639 -41.388 
L 462.08759 -41.388 
L 459.58454 -41.548644 
L 457.08149 -41.548644 
L 454.578441 -41.709288 
L 452.075391 -41.709288 
L 449.572341 -41.388 
L 447.069292 -41.548644 
L 444.566242 -41.869932 
L 442.063192 -41.388 
L 439.560143 -42.030576 
L 437.057093 -41.548644 
L 434.554043 -41.709288 
L 432.050994 -41.548644 
L 429.547944 -42.19122 
L 427.044894 -42.030576 
L 424.541845 -42.19122 
L 422.038795 -42.030576 
L 419.535745 -42.512508 
L 417.032695 -42.673152 
L 414.529646 -43.637016 
L 412.026596 -43.315728 
L 409.523546 -44.440236 
L 407.020497 -43.958304 
L 404.517447 -44.922168 
L 402.014397 -45.564744 
L 399.511348 -47.81376 
L 397.008298 -47.81376 
L 394.505248 -51.82986 
L 392.002199 -51.187284 
L 389.499149 -54.400164 
L 386.996099 -56.809824 
L 384.49305 -60.66528 
L 381.99 -66.609108 
L 379.48695 -70.785852 
L 376.983901 -71.267784 
L 374.480851 -80.424492 
L 371.977801 -83.15544 
L 369.474752 -90.545064 
L 366.971702 -96.167604 
L 364.468652 -97.774044 
L 361.965603 -103.878516 
L 359.462553 -104.199804 
L 356.959503 -107.573328 
L 354.456454 -109.340412 
L 351.953404 -109.6617 
L 349.450354 -108.537192 
L 346.947305 -107.573328 
L 344.444255 -109.982988 
L 341.941205 -113.356512 
L 339.438155 -105.484956 
L 336.935106 -109.340412 
L 334.432056 -102.111432 
L 331.929006 -100.02306 
L 329.425957 -101.790144 
L 326.922907 -96.970824 
L 324.419857 -91.508928 
L 321.916808 -87.492828 
L 319.413758 -84.440592 
L 316.910708 -74.480664 
L 314.407659 -69.018768 
L 311.904609 -65.163312 
L 309.401559 -61.950432 
L 306.89851 -57.4524 
L 304.39546 -53.275656 
L 301.89241 -50.062776 
L 299.389361 -46.849896 
L 296.886311 -44.60088 
L 294.383261 -44.922168 
L 291.880212 -42.19122 
L 289.377162 -41.709288 
z
" style="stroke: #228833; stroke-width: 0.8"/>
    </defs>
    <g clip-path="url(#p963c13cc73)">
     <use xlink:href="#mab2772030d" x="0" y="216" style="fill: #228833; fill-opacity: 0.25; stroke: #228833; stroke-width: 0.8"/>
    </g>
   </g>
   <g id="PolyCollection_4">
    <defs>
     <path id="m2a9b297bb7" d="M 289.377162 -124.762236 
L 289.377162 -41.388 
L 291.880212 -41.388 
L 294.383261 -41.388 
L 296.886311 -41.388 
L 299.389361 -41.388 
L 301.89241 -41.388 
L 304.39546 -41.388 
L 306.89851 -41.388 
L 309.401559 -41.388 
L 311.904609 -41.388 
L 314.407659 -41.388 
L 316.910708 -41.388 
L 319.413758 -41.388 
L 321.916808 -41.388 
L 324.419857 -41.388 
L 326.922907 -41.388 
L 329.425957 -41.388 
L 331.929006 -41.388 
L 334.432056 -41.388 
L 336.935106 -41.388 
L 339.438155 -41.388 
L 341.941205 -41.388 
L 344.444255 -41.388 
L 346.947305 -41.388 
L 349.450354 -41.388 
L 351.953404 -41.388 
L 354.456454 -41.388 
L 356.959503 -41.388 
L 359.462553 -41.388 
L 361.965603 -41.388 
L 364.468652 -41.388 
L 366.971702 -41.388 
L 369.474752 -41.388 
L 371.977801 -41.388 
L 374.480851 -41.388 
L 376.983901 -41.388 
L 379.48695 -41.388 
L 381.99 -41.388 
L 384.49305 -41.388 
L 386.996099 -41.388 
L 389.499149 -41.388 
L 392.002199 -41.388 
L 394.505248 -41.388 
L 397.008298 -41.388 
L 399.511348 -41.388 
L 402.014397 -41.388 
L 404.517447 -41.388 
L 407.020497 -41.388 
L 409.523546 -41.388 
L 412.026596 -41.388 
L 414.529646 -41.388 
L 417.032695 -41.388 
L 419.535745 -41.388 
L 422.038795 -41.388 
L 424.541845 -41.388 
L 427.044894 -41.388 
L 429.547944 -41.388 
L 432.050994 -41.388 
L 434.554043 -41.388 
L 437.057093 -41.388 
L 439.560143 -41.388 
L 442.063192 -41.388 
L 444.566242 -41.388 
L 447.069292 -41.388 
L 449.572341 -41.388 
L 452.075391 -41.388 
L 454.578441 -41.388 
L 457.08149 -41.388 
L 459.58454 -41.388 
L 462.08759 -41.388 
L 464.590639 -41.388 
L 467.093689 -41.388 
L 469.596739 -41.388 
L 472.099788 -41.388 
L 474.602838 -41.388 
L 474.602838 -41.388 
L 474.602838 -41.388 
L 472.099788 -41.388 
L 469.596739 -41.388 
L 467.093689 -41.388 
L 464.590639 -41.388 
L 462.08759 -41.388 
L 459.58454 -41.388 
L 457.08149 -41.388 
L 454.578441 -41.388 
L 452.075391 -41.388 
L 449.572341 -41.388 
L 447.069292 -41.388 
L 444.566242 -41.388 
L 442.063192 -41.388 
L 439.560143 -41.388 
L 437.057093 -41.548644 
L 434.554043 -41.548644 
L 432.050994 -41.388 
L 429.547944 -41.388 
L 427.044894 -41.388 
L 424.541845 -41.548644 
L 422.038795 -41.548644 
L 419.535745 -41.388 
L 417.032695 -41.869932 
L 414.529646 -41.709288 
L 412.026596 -42.030576 
L 409.523546 -42.030576 
L 407.020497 -42.19122 
L 404.517447 -42.351864 
L 402.014397 -42.19122 
L 399.511348 -42.512508 
L 397.008298 -42.351864 
L 394.505248 -43.315728 
L 392.002199 -43.958304 
L 389.499149 -46.046676 
L 386.996099 -45.243456 
L 384.49305 -44.922168 
L 381.99 -47.653116 
L 379.48695 -49.259556 
L 376.983901 -49.098912 
L 374.480851 -52.151148 
L 371.977801 -55.524672 
L 369.474752 -53.757588 
L 366.971702 -59.540772 
L 364.468652 -57.291756 
L 361.965603 -61.147212 
L 359.462553 -63.07494 
L 356.959503 -60.66528 
L 354.456454 -70.143276 
L 351.953404 -70.464564 
L 349.450354 -66.609108 
L 346.947305 -73.195512 
L 344.444255 -76.890324 
L 341.941205 -79.781916 
L 339.438155 -78.818052 
L 336.935106 -88.938624 
L 334.432056 -86.689608 
L 331.929006 -92.633436 
L 329.425957 -100.504992 
L 326.922907 -100.665636 
L 324.419857 -102.754008 
L 321.916808 -106.770108 
L 319.413758 -107.573328 
L 316.910708 -108.537192 
L 314.407659 -108.05526 
L 311.904609 -115.28424 
L 309.401559 -118.657764 
L 306.89851 -109.6617 
L 304.39546 -109.501056 
L 301.89241 -105.6456 
L 299.389361 -104.199804 
L 296.886311 -99.541128 
L 294.383261 -101.950788 
L 291.880212 -107.573328 
L 289.377162 -124.762236 
z
" style="stroke: #66ccee; stroke-width: 0.8"/>
    </defs>
    <g clip-path="url(#p963c13cc73)">
     <use xlink:href="#m2a9b297bb7" x="0" y="216" style="fill: #66ccee; fill-opacity: 0.25; stroke: #66ccee; stroke-width: 0.8"/>
    </g>
   </g>
   <g id="patch_8">
    <path d="M 280.115878 174.612 
L 280.115878 13.968 
" style="fill: none; stroke: #262626; stroke-linejoin: miter; stroke-linecap: square"/>
   </g>
   <g id="patch_9">
    <path d="M 483.864122 174.612 
L 483.864122 13.968 
" style="fill: none; stroke: #262626; stroke-linejoin: miter; stroke-linecap: square"/>
   </g>
   <g id="patch_10">
    <path d="M 280.115878 174.612 
L 483.864122 174.612 
" style="fill: none; stroke: #262626; stroke-linejoin: miter; stroke-linecap: square"/>
   </g>
   <g id="patch_11">
    <path d="M 280.115878 13.968 
L 483.864122 13.968 
" style="fill: none; stroke: #262626; stroke-linejoin: miter; stroke-linecap: square"/>
   </g>
  </g>
  <g id="axes_3">
   <g id="patch_12">
    <path d="M 505.883756 174.612 
L 709.632 174.612 
L 709.632 13.968 
L 505.883756 13.968 
L 505.883756 174.612 
z
" style="fill: none"/>
   </g>
   <g id="matplotlib.axis_5">
    <g id="xtick_10">
     <g id="line2d_22">
      <g>
       <use xlink:href="#mb49367c670" x="510.468984" y="174.612" style="fill: #262626; stroke: #262626"/>
      </g>
     </g>
     <g id="text_19">
      <!-- 0.0000 -->
      <g style="fill: #262626" transform="translate(495.073109 189.598625) scale(0.088 -0.088)">
       <use xlink:href="#DejaVuSans-30"/>
       <use xlink:href="#DejaVuSans-2e" x="63.623047"/>
       <use xlink:href="#DejaVuSans-30" x="95.410156"/>
       <use xlink:href="#DejaVuSans-30" x="159.033203"/>
       <use xlink:href="#DejaVuSans-30" x="222.65625"/>
       <use xlink:href="#DejaVuSans-30" x="286.279297"/>
      </g>
     </g>
    </g>
    <g id="xtick_11">
     <g id="line2d_23">
      <g>
       <use xlink:href="#mb49367c670" x="546.187726" y="174.612" style="fill: #262626; stroke: #262626"/>
      </g>
     </g>
     <g id="text_20">
      <!-- 0.0025 -->
      <g style="fill: #262626" transform="translate(530.791851 189.598625) scale(0.088 -0.088)">
       <use xlink:href="#DejaVuSans-30"/>
       <use xlink:href="#DejaVuSans-2e" x="63.623047"/>
       <use xlink:href="#DejaVuSans-30" x="95.410156"/>
       <use xlink:href="#DejaVuSans-30" x="159.033203"/>
       <use xlink:href="#DejaVuSans-32" x="222.65625"/>
       <use xlink:href="#DejaVuSans-35" x="286.279297"/>
      </g>
     </g>
    </g>
    <g id="xtick_12">
     <g id="line2d_24">
      <g>
       <use xlink:href="#mb49367c670" x="581.906469" y="174.612" style="fill: #262626; stroke: #262626"/>
      </g>
     </g>
     <g id="text_21">
      <!-- 0.0050 -->
      <g style="fill: #262626" transform="translate(566.510594 189.598625) scale(0.088 -0.088)">
       <use xlink:href="#DejaVuSans-30"/>
       <use xlink:href="#DejaVuSans-2e" x="63.623047"/>
       <use xlink:href="#DejaVuSans-30" x="95.410156"/>
       <use xlink:href="#DejaVuSans-30" x="159.033203"/>
       <use xlink:href="#DejaVuSans-35" x="222.65625"/>
       <use xlink:href="#DejaVuSans-30" x="286.279297"/>
      </g>
     </g>
    </g>
    <g id="xtick_13">
     <g id="line2d_25">
      <g>
       <use xlink:href="#mb49367c670" x="617.625212" y="174.612" style="fill: #262626; stroke: #262626"/>
      </g>
     </g>
     <g id="text_22">
      <!-- 0.0075 -->
      <g style="fill: #262626" transform="translate(602.229337 189.598625) scale(0.088 -0.088)">
       <defs>
        <path id="DejaVuSans-37" d="M 525 4666 
L 3525 4666 
L 3525 4397 
L 1831 0 
L 1172 0 
L 2766 4134 
L 525 4134 
L 525 4666 
z
" transform="scale(0.015625)"/>
       </defs>
       <use xlink:href="#DejaVuSans-30"/>
       <use xlink:href="#DejaVuSans-2e" x="63.623047"/>
       <use xlink:href="#DejaVuSans-30" x="95.410156"/>
       <use xlink:href="#DejaVuSans-30" x="159.033203"/>
       <use xlink:href="#DejaVuSans-37" x="222.65625"/>
       <use xlink:href="#DejaVuSans-35" x="286.279297"/>
      </g>
     </g>
    </g>
    <g id="xtick_14">
     <g id="line2d_26">
      <g>
       <use xlink:href="#mb49367c670" x="653.343954" y="174.612" style="fill: #262626; stroke: #262626"/>
      </g>
     </g>
     <g id="text_23">
      <!-- 0.0100 -->
      <g style="fill: #262626" transform="translate(637.948079 189.598625) scale(0.088 -0.088)">
       <use xlink:href="#DejaVuSans-30"/>
       <use xlink:href="#DejaVuSans-2e" x="63.623047"/>
       <use xlink:href="#DejaVuSans-30" x="95.410156"/>
       <use xlink:href="#DejaVuSans-31" x="159.033203"/>
       <use xlink:href="#DejaVuSans-30" x="222.65625"/>
       <use xlink:href="#DejaVuSans-30" x="286.279297"/>
      </g>
     </g>
    </g>
    <g id="xtick_15">
     <g id="line2d_27">
      <g>
       <use xlink:href="#mb49367c670" x="689.062697" y="174.612" style="fill: #262626; stroke: #262626"/>
      </g>
     </g>
     <g id="text_24">
      <!-- 0.0125 -->
      <g style="fill: #262626" transform="translate(673.666822 189.598625) scale(0.088 -0.088)">
       <use xlink:href="#DejaVuSans-30"/>
       <use xlink:href="#DejaVuSans-2e" x="63.623047"/>
       <use xlink:href="#DejaVuSans-30" x="95.410156"/>
       <use xlink:href="#DejaVuSans-31" x="159.033203"/>
       <use xlink:href="#DejaVuSans-32" x="222.65625"/>
       <use xlink:href="#DejaVuSans-35" x="286.279297"/>
      </g>
     </g>
    </g>
    <g id="text_25">
     <!-- Average confirmation probability -->
     <g style="fill: #262626" transform="translate(529.044628 202.72325) scale(0.096 -0.096)">
      <defs>
       <path id="DejaVuSans-76" d="M 191 3500 
L 800 3500 
L 1894 563 
L 2988 3500 
L 3597 3500 
L 2284 0 
L 1503 0 
L 191 3500 
z
" transform="scale(0.015625)"/>
       <path id="DejaVuSans-67" d="M 2906 1791 
Q 2906 2416 2648 2759 
Q 2391 3103 1925 3103 
Q 1463 3103 1205 2759 
Q 947 2416 947 1791 
Q 947 1169 1205 825 
Q 1463 481 1925 481 
Q 2391 481 2648 825 
Q 2906 1169 2906 1791 
z
M 3481 434 
Q 3481 -459 3084 -895 
Q 2688 -1331 1869 -1331 
Q 1566 -1331 1297 -1286 
Q 1028 -1241 775 -1147 
L 775 -588 
Q 1028 -725 1275 -790 
Q 1522 -856 1778 -856 
Q 2344 -856 2625 -561 
Q 2906 -266 2906 331 
L 2906 616 
Q 2728 306 2450 153 
Q 2172 0 1784 0 
Q 1141 0 747 490 
Q 353 981 353 1791 
Q 353 2603 747 3093 
Q 1141 3584 1784 3584 
Q 2172 3584 2450 3431 
Q 2728 3278 2906 2969 
L 2906 3500 
L 3481 3500 
L 3481 434 
z
" transform="scale(0.015625)"/>
       <path id="DejaVuSans-63" d="M 3122 3366 
L 3122 2828 
Q 2878 2963 2633 3030 
Q 2388 3097 2138 3097 
Q 1578 3097 1268 2742 
Q 959 2388 959 1747 
Q 959 1106 1268 751 
Q 1578 397 2138 397 
Q 2388 397 2633 464 
Q 2878 531 3122 666 
L 3122 134 
Q 2881 22 2623 -34 
Q 2366 -91 2075 -91 
Q 1284 -91 818 406 
Q 353 903 353 1747 
Q 353 2603 823 3093 
Q 1294 3584 2113 3584 
Q 2378 3584 2631 3529 
Q 2884 3475 3122 3366 
z
" transform="scale(0.015625)"/>
       <path id="DejaVuSans-62" d="M 3116 1747 
Q 3116 2381 2855 2742 
Q 2594 3103 2138 3103 
Q 1681 3103 1420 2742 
Q 1159 2381 1159 1747 
Q 1159 1113 1420 752 
Q 1681 391 2138 391 
Q 2594 391 2855 752 
Q 3116 1113 3116 1747 
z
M 1159 2969 
Q 1341 3281 1617 3432 
Q 1894 3584 2278 3584 
Q 2916 3584 3314 3078 
Q 3713 2572 3713 1747 
Q 3713 922 3314 415 
Q 2916 -91 2278 -91 
Q 1894 -91 1617 61 
Q 1341 213 1159 525 
L 1159 0 
L 581 0 
L 581 4863 
L 1159 4863 
L 1159 2969 
z
" transform="scale(0.015625)"/>
       <path id="DejaVuSans-79" d="M 2059 -325 
Q 1816 -950 1584 -1140 
Q 1353 -1331 966 -1331 
L 506 -1331 
L 506 -850 
L 844 -850 
Q 1081 -850 1212 -737 
Q 1344 -625 1503 -206 
L 1606 56 
L 191 3500 
L 800 3500 
L 1894 763 
L 2988 3500 
L 3597 3500 
L 2059 -325 
z
" transform="scale(0.015625)"/>
      </defs>
      <use xlink:href="#DejaVuSans-41"/>
      <use xlink:href="#DejaVuSans-76" x="62.533203"/>
      <use xlink:href="#DejaVuSans-65" x="121.712891"/>
      <use xlink:href="#DejaVuSans-72" x="183.236328"/>
      <use xlink:href="#DejaVuSans-61" x="224.349609"/>
      <use xlink:href="#DejaVuSans-67" x="285.628906"/>
      <use xlink:href="#DejaVuSans-65" x="349.105469"/>
      <use xlink:href="#DejaVuSans-20" x="410.628906"/>
      <use xlink:href="#DejaVuSans-63" x="442.416016"/>
      <use xlink:href="#DejaVuSans-6f" x="497.396484"/>
      <use xlink:href="#DejaVuSans-6e" x="558.578125"/>
      <use xlink:href="#DejaVuSans-66" x="621.957031"/>
      <use xlink:href="#DejaVuSans-69" x="657.162109"/>
      <use xlink:href="#DejaVuSans-72" x="684.945312"/>
      <use xlink:href="#DejaVuSans-6d" x="724.308594"/>
      <use xlink:href="#DejaVuSans-61" x="821.720703"/>
      <use xlink:href="#DejaVuSans-74" x="883"/>
      <use xlink:href="#DejaVuSans-69" x="922.208984"/>
      <use xlink:href="#DejaVuSans-6f" x="949.992188"/>
      <use xlink:href="#DejaVuSans-6e" x="1011.173828"/>
      <use xlink:href="#DejaVuSans-20" x="1074.552734"/>
      <use xlink:href="#DejaVuSans-70" x="1106.339844"/>
      <use xlink:href="#DejaVuSans-72" x="1169.816406"/>
      <use xlink:href="#DejaVuSans-6f" x="1208.679688"/>
      <use xlink:href="#DejaVuSans-62" x="1269.861328"/>
      <use xlink:href="#DejaVuSans-61" x="1333.337891"/>
      <use xlink:href="#DejaVuSans-62" x="1394.617188"/>
      <use xlink:href="#DejaVuSans-69" x="1458.09375"/>
      <use xlink:href="#DejaVuSans-6c" x="1485.876953"/>
      <use xlink:href="#DejaVuSans-69" x="1513.660156"/>
      <use xlink:href="#DejaVuSans-74" x="1541.443359"/>
      <use xlink:href="#DejaVuSans-79" x="1580.652344"/>
     </g>
    </g>
   </g>
   <g id="matplotlib.axis_6">
    <g id="ytick_13">
     <g id="line2d_28">
      <g>
       <use xlink:href="#me223669dfb" x="505.883756" y="174.612" style="fill: #262626; stroke: #262626"/>
      </g>
     </g>
    </g>
    <g id="ytick_14">
     <g id="line2d_29">
      <g>
       <use xlink:href="#me223669dfb" x="505.883756" y="142.4832" style="fill: #262626; stroke: #262626"/>
      </g>
     </g>
    </g>
    <g id="ytick_15">
     <g id="line2d_30">
      <g>
       <use xlink:href="#me223669dfb" x="505.883756" y="110.3544" style="fill: #262626; stroke: #262626"/>
      </g>
     </g>
    </g>
    <g id="ytick_16">
     <g id="line2d_31">
      <g>
       <use xlink:href="#me223669dfb" x="505.883756" y="78.2256" style="fill: #262626; stroke: #262626"/>
      </g>
     </g>
    </g>
    <g id="ytick_17">
     <g id="line2d_32">
      <g>
       <use xlink:href="#me223669dfb" x="505.883756" y="46.0968" style="fill: #262626; stroke: #262626"/>
      </g>
     </g>
    </g>
    <g id="ytick_18">
     <g id="line2d_33">
      <g>
       <use xlink:href="#me223669dfb" x="505.883756" y="13.968" style="fill: #262626; stroke: #262626"/>
      </g>
     </g>
    </g>
   </g>
   <g id="PolyCollection_5">
    <defs>
     <path id="m79256e12d1" d="M 515.14504 -41.388 
L 515.14504 -41.388 
L 517.64809 -41.388 
L 520.151139 -41.388 
L 522.654189 -41.388 
L 525.157239 -41.388 
L 527.660288 -41.388 
L 530.163338 -41.388 
L 532.666388 -41.388 
L 535.169437 -41.388 
L 537.672487 -41.388 
L 540.175537 -41.388 
L 542.678586 -41.388 
L 545.181636 -41.388 
L 547.684686 -41.388 
L 550.187735 -41.388 
L 552.690785 -41.388 
L 555.193835 -41.388 
L 557.696885 -41.388 
L 560.199934 -41.388 
L 562.702984 -41.388 
L 565.206034 -41.388 
L 567.709083 -41.388 
L 570.212133 -41.388 
L 572.715183 -41.388 
L 575.218232 -41.388 
L 577.721282 -41.388 
L 580.224332 -41.388 
L 582.727381 -41.388 
L 585.230431 -41.388 
L 587.733481 -41.388 
L 590.23653 -41.388 
L 592.73958 -41.388 
L 595.24263 -41.388 
L 597.745679 -41.388 
L 600.248729 -41.388 
L 602.751779 -41.388 
L 605.254828 -41.388 
L 607.757878 -41.388 
L 610.260928 -41.388 
L 612.763977 -41.388 
L 615.267027 -41.388 
L 617.770077 -41.388 
L 620.273126 -41.388 
L 622.776176 -41.388 
L 625.279226 -41.388 
L 627.782276 -41.388 
L 630.285325 -41.388 
L 632.788375 -41.388 
L 635.291425 -41.388 
L 637.794474 -41.388 
L 640.297524 -41.388 
L 642.800574 -41.388 
L 645.303623 -41.388 
L 647.806673 -41.388 
L 650.309723 -41.388 
L 652.812772 -41.388 
L 655.315822 -41.388 
L 657.818872 -41.388 
L 660.321921 -41.388 
L 662.824971 -41.388 
L 665.328021 -41.388 
L 667.83107 -41.388 
L 670.33412 -41.388 
L 672.83717 -41.388 
L 675.340219 -41.388 
L 677.843269 -41.388 
L 680.346319 -41.388 
L 682.849368 -41.388 
L 685.352418 -41.388 
L 687.855468 -41.388 
L 690.358517 -41.388 
L 692.861567 -41.388 
L 695.364617 -41.388 
L 697.867667 -41.388 
L 700.370716 -41.388 
L 700.370716 -41.548644 
L 700.370716 -41.548644 
L 697.867667 -41.388 
L 695.364617 -41.388 
L 692.861567 -41.388 
L 690.358517 -41.388 
L 687.855468 -41.388 
L 685.352418 -41.388 
L 682.849368 -41.388 
L 680.346319 -41.388 
L 677.843269 -41.388 
L 675.340219 -41.388 
L 672.83717 -41.388 
L 670.33412 -41.388 
L 667.83107 -41.388 
L 665.328021 -41.388 
L 662.824971 -41.388 
L 660.321921 -41.388 
L 657.818872 -41.388 
L 655.315822 -41.388 
L 652.812772 -41.548644 
L 650.309723 -41.869932 
L 647.806673 -41.388 
L 645.303623 -41.388 
L 642.800574 -41.388 
L 640.297524 -41.388 
L 637.794474 -41.548644 
L 635.291425 -42.030576 
L 632.788375 -41.709288 
L 630.285325 -41.709288 
L 627.782276 -41.548644 
L 625.279226 -42.030576 
L 622.776176 -42.19122 
L 620.273126 -42.030576 
L 617.770077 -42.512508 
L 615.267027 -41.869932 
L 612.763977 -42.673152 
L 610.260928 -42.99444 
L 607.757878 -44.922168 
L 605.254828 -45.4041 
L 602.751779 -47.01054 
L 600.248729 -47.653116 
L 597.745679 -49.4202 
L 595.24263 -50.705352 
L 592.73958 -54.400164 
L 590.23653 -58.737552 
L 587.733481 -60.183348 
L 585.230431 -66.769752 
L 582.727381 -70.946496 
L 580.224332 -80.263848 
L 577.721282 -96.328248 
L 575.218232 -98.255976 
L 572.715183 -114.48102 
L 570.212133 -128.617692 
L 567.709083 -143.075652 
L 565.206034 -155.44524 
L 562.702984 -171.027708 
L 560.199934 -176.650248 
L 557.696885 -175.847028 
L 555.193835 -161.06778 
L 552.690785 -151.750428 
L 550.187735 -140.98728 
L 547.684686 -119.782272 
L 545.181636 -102.111432 
L 542.678586 -88.938624 
L 540.175537 -74.962596 
L 537.672487 -65.4846 
L 535.169437 -57.613044 
L 532.666388 -51.669216 
L 530.163338 -49.259556 
L 527.660288 -47.331828 
L 525.157239 -43.315728 
L 522.654189 -43.637016 
L 520.151139 -42.19122 
L 517.64809 -41.869932 
L 515.14504 -41.388 
z
" style="stroke: #228833; stroke-width: 0.8"/>
    </defs>
    <g clip-path="url(#pfce3a0dbb9)">
     <use xlink:href="#m79256e12d1" x="0" y="216" style="fill: #228833; fill-opacity: 0.25; stroke: #228833; stroke-width: 0.8"/>
    </g>
   </g>
   <g id="PolyCollection_6">
    <defs>
     <path id="m2b9016debf" d="M 515.14504 -90.705708 
L 515.14504 -41.388 
L 517.64809 -41.388 
L 520.151139 -41.388 
L 522.654189 -41.388 
L 525.157239 -41.388 
L 527.660288 -41.388 
L 530.163338 -41.388 
L 532.666388 -41.388 
L 535.169437 -41.388 
L 537.672487 -41.388 
L 540.175537 -41.388 
L 542.678586 -41.388 
L 545.181636 -41.388 
L 547.684686 -41.388 
L 550.187735 -41.388 
L 552.690785 -41.388 
L 555.193835 -41.388 
L 557.696885 -41.388 
L 560.199934 -41.388 
L 562.702984 -41.388 
L 565.206034 -41.388 
L 567.709083 -41.388 
L 570.212133 -41.388 
L 572.715183 -41.388 
L 575.218232 -41.388 
L 577.721282 -41.388 
L 580.224332 -41.388 
L 582.727381 -41.388 
L 585.230431 -41.388 
L 587.733481 -41.388 
L 590.23653 -41.388 
L 592.73958 -41.388 
L 595.24263 -41.388 
L 597.745679 -41.388 
L 600.248729 -41.388 
L 602.751779 -41.388 
L 605.254828 -41.388 
L 607.757878 -41.388 
L 610.260928 -41.388 
L 612.763977 -41.388 
L 615.267027 -41.388 
L 617.770077 -41.388 
L 620.273126 -41.388 
L 622.776176 -41.388 
L 625.279226 -41.388 
L 627.782276 -41.388 
L 630.285325 -41.388 
L 632.788375 -41.388 
L 635.291425 -41.388 
L 637.794474 -41.388 
L 640.297524 -41.388 
L 642.800574 -41.388 
L 645.303623 -41.388 
L 647.806673 -41.388 
L 650.309723 -41.388 
L 652.812772 -41.388 
L 655.315822 -41.388 
L 657.818872 -41.388 
L 660.321921 -41.388 
L 662.824971 -41.388 
L 665.328021 -41.388 
L 667.83107 -41.388 
L 670.33412 -41.388 
L 672.83717 -41.388 
L 675.340219 -41.388 
L 677.843269 -41.388 
L 680.346319 -41.388 
L 682.849368 -41.388 
L 685.352418 -41.388 
L 687.855468 -41.388 
L 690.358517 -41.388 
L 692.861567 -41.388 
L 695.364617 -41.388 
L 697.867667 -41.388 
L 700.370716 -41.388 
L 700.370716 -41.388 
L 700.370716 -41.388 
L 697.867667 -41.388 
L 695.364617 -41.388 
L 692.861567 -41.388 
L 690.358517 -41.388 
L 687.855468 -41.388 
L 685.352418 -41.388 
L 682.849368 -41.388 
L 680.346319 -41.388 
L 677.843269 -41.388 
L 675.340219 -41.548644 
L 672.83717 -41.548644 
L 670.33412 -41.388 
L 667.83107 -41.388 
L 665.328021 -41.388 
L 662.824971 -41.388 
L 660.321921 -41.388 
L 657.818872 -41.388 
L 655.315822 -41.388 
L 652.812772 -41.388 
L 650.309723 -41.388 
L 647.806673 -41.548644 
L 645.303623 -41.388 
L 642.800574 -41.548644 
L 640.297524 -41.388 
L 637.794474 -41.388 
L 635.291425 -41.388 
L 632.788375 -41.709288 
L 630.285325 -41.548644 
L 627.782276 -41.709288 
L 625.279226 -41.548644 
L 622.776176 -41.869932 
L 620.273126 -42.030576 
L 617.770077 -42.030576 
L 615.267027 -42.833796 
L 612.763977 -42.99444 
L 610.260928 -44.118948 
L 607.757878 -43.315728 
L 605.254828 -44.60088 
L 602.751779 -45.243456 
L 600.248729 -46.689252 
L 597.745679 -46.528608 
L 595.24263 -48.777624 
L 592.73958 -49.259556 
L 590.23653 -53.757588 
L 587.733481 -57.291756 
L 585.230431 -57.773688 
L 582.727381 -67.733616 
L 580.224332 -67.09104 
L 577.721282 -74.962596 
L 575.218232 -82.994796 
L 572.715183 -88.456692 
L 570.212133 -95.525028 
L 567.709083 -108.05526 
L 565.206034 -107.733972 
L 562.702984 -113.838444 
L 560.199934 -129.099624 
L 557.696885 -122.031288 
L 555.193835 -126.047388 
L 552.690785 -127.171896 
L 550.187735 -121.71 
L 547.684686 -112.553292 
L 545.181636 -116.08746 
L 542.678586 -109.6617 
L 540.175537 -100.82628 
L 537.672487 -100.665636 
L 535.169437 -99.701772 
L 532.666388 -90.223776 
L 530.163338 -88.938624 
L 527.660288 -77.050968 
L 525.157239 -81.709644 
L 522.654189 -80.263848 
L 520.151139 -78.657408 
L 517.64809 -87.010896 
L 515.14504 -90.705708 
z
" style="stroke: #66ccee; stroke-width: 0.8"/>
    </defs>
    <g clip-path="url(#pfce3a0dbb9)">
     <use xlink:href="#m2b9016debf" x="0" y="216" style="fill: #66ccee; fill-opacity: 0.25; stroke: #66ccee; stroke-width: 0.8"/>
    </g>
   </g>
   <g id="patch_13">
    <path d="M 505.883756 174.612 
L 505.883756 13.968 
" style="fill: none; stroke: #262626; stroke-linejoin: miter; stroke-linecap: square"/>
   </g>
   <g id="patch_14">
    <path d="M 709.632 174.612 
L 709.632 13.968 
" style="fill: none; stroke: #262626; stroke-linejoin: miter; stroke-linecap: square"/>
   </g>
   <g id="patch_15">
    <path d="M 505.883756 174.612 
L 709.632 174.612 
" style="fill: none; stroke: #262626; stroke-linejoin: miter; stroke-linecap: square"/>
   </g>
   <g id="patch_16">
    <path d="M 505.883756 13.968 
L 709.632 13.968 
" style="fill: none; stroke: #262626; stroke-linejoin: miter; stroke-linecap: square"/>
   </g>
   <g id="legend_1">
    <g id="patch_17">
     <path d="M 635.6075 60.5325 
L 703.472 60.5325 
Q 705.232 60.5325 705.232 58.7725 
L 705.232 20.128 
Q 705.232 18.368 703.472 18.368 
L 635.6075 18.368 
Q 633.8475 18.368 633.8475 20.128 
L 633.8475 58.7725 
Q 633.8475 60.5325 635.6075 60.5325 
z
" style="fill: #ffffff; opacity: 0.8; stroke: #cccccc; stroke-width: 0.8; stroke-linejoin: miter"/>
    </g>
    <g id="text_26">
     <!-- SAT -->
     <g style="fill: #262626" transform="translate(660.55925 29.1825) scale(0.096 -0.096)">
      <defs>
       <path id="DejaVuSans-53" d="M 3425 4513 
L 3425 3897 
Q 3066 4069 2747 4153 
Q 2428 4238 2131 4238 
Q 1616 4238 1336 4038 
Q 1056 3838 1056 3469 
Q 1056 3159 1242 3001 
Q 1428 2844 1947 2747 
L 2328 2669 
Q 3034 2534 3370 2195 
Q 3706 1856 3706 1288 
Q 3706 609 3251 259 
Q 2797 -91 1919 -91 
Q 1588 -91 1214 -16 
Q 841 59 441 206 
L 441 856 
Q 825 641 1194 531 
Q 1563 422 1919 422 
Q 2459 422 2753 634 
Q 3047 847 3047 1241 
Q 3047 1584 2836 1778 
Q 2625 1972 2144 2069 
L 1759 2144 
Q 1053 2284 737 2584 
Q 422 2884 422 3419 
Q 422 4038 858 4394 
Q 1294 4750 2059 4750 
Q 2388 4750 2728 4690 
Q 3069 4631 3425 4513 
z
" transform="scale(0.015625)"/>
      </defs>
      <use xlink:href="#DejaVuSans-53"/>
      <use xlink:href="#DejaVuSans-41" x="65.351562"/>
      <use xlink:href="#DejaVuSans-54" x="126.009766"/>
     </g>
    </g>
    <g id="patch_18">
     <path d="M 637.3675 42.265625 
L 654.9675 42.265625 
L 654.9675 36.105625 
L 637.3675 36.105625 
z
" style="fill: #66ccee; fill-opacity: 0.25; stroke: #66ccee; stroke-width: 0.8; stroke-linejoin: miter"/>
    </g>
    <g id="text_27">
     <!-- speed -->
     <g style="fill: #262626" transform="translate(662.0075 42.265625) scale(0.088 -0.088)">
      <defs>
       <path id="DejaVuSans-64" d="M 2906 2969 
L 2906 4863 
L 3481 4863 
L 3481 0 
L 2906 0 
L 2906 525 
Q 2725 213 2448 61 
Q 2172 -91 1784 -91 
Q 1150 -91 751 415 
Q 353 922 353 1747 
Q 353 2572 751 3078 
Q 1150 3584 1784 3584 
Q 2172 3584 2448 3432 
Q 2725 3281 2906 2969 
z
M 947 1747 
Q 947 1113 1208 752 
Q 1469 391 1925 391 
Q 2381 391 2643 752 
Q 2906 1113 2906 1747 
Q 2906 2381 2643 2742 
Q 2381 3103 1925 3103 
Q 1469 3103 1208 2742 
Q 947 2381 947 1747 
z
" transform="scale(0.015625)"/>
      </defs>
      <use xlink:href="#DejaVuSans-73"/>
      <use xlink:href="#DejaVuSans-70" x="52.099609"/>
      <use xlink:href="#DejaVuSans-65" x="115.576172"/>
      <use xlink:href="#DejaVuSans-65" x="177.099609"/>
      <use xlink:href="#DejaVuSans-64" x="238.623047"/>
     </g>
    </g>
    <g id="patch_19">
     <path d="M 637.3675 55.182375 
L 654.9675 55.182375 
L 654.9675 49.022375 
L 637.3675 49.022375 
z
" style="fill: #228833; fill-opacity: 0.25; stroke: #228833; stroke-width: 0.8; stroke-linejoin: miter"/>
    </g>
    <g id="text_28">
     <!-- accuracy -->
     <g style="fill: #262626" transform="translate(662.0075 55.182375) scale(0.088 -0.088)">
      <use xlink:href="#DejaVuSans-61"/>
      <use xlink:href="#DejaVuSans-63" x="61.279297"/>
      <use xlink:href="#DejaVuSans-63" x="116.259766"/>
      <use xlink:href="#DejaVuSans-75" x="171.240234"/>
      <use xlink:href="#DejaVuSans-72" x="234.619141"/>
      <use xlink:href="#DejaVuSans-61" x="275.732422"/>
      <use xlink:href="#DejaVuSans-63" x="337.011719"/>
      <use xlink:href="#DejaVuSans-79" x="391.992188"/>
     </g>
    </g>
   </g>
  </g>
 </g>
 <defs>
  <clipPath id="p2142d908a4">
   <rect x="54.348" y="13.968" width="203.748244" height="160.644"/>
  </clipPath>
  <clipPath id="p963c13cc73">
   <rect x="280.115878" y="13.968" width="203.748244" height="160.644"/>
  </clipPath>
  <clipPath id="pfce3a0dbb9">
   <rect x="505.883756" y="13.968" width="203.748244" height="160.644"/>
  </clipPath>
 </defs>
</svg>
