<?xml version="1.0" encoding="utf-8" standalone="no"?>
<!DOCTYPE svg PUBLIC "-//W3C//DTD SVG 1.1//EN"
  "http://www.w3.org/Graphics/SVG/1.1/DTD/svg11.dtd">
<svg xmlns:xlink="http://www.w3.org/1999/xlink" width="720pt" height="216pt" viewBox="0 0 720 216" xmlns="http://www.w3.org/2000/svg" version="1.1">
 <metadata>
  <rdf:RDF xmlns:dc="http://purl.org/dc/elements/1.1/" xmlns:cc="http://creativecommons.org/ns#" xmlns:rdf="http://www.w3.org/1999/02/22-rdf-syntax-ns#">
   <cc:Work>
    <dc:type rdf:resource="http://purl.org/dc/dcmitype/StillImage"/>
    <dc:date>2025-01-23T19:46:21.117265</dc:date>
    <dc:format>image/svg+xml</dc:format>
    <dc:creator>
     <cc:Agent>
      <dc:title>Matplotlib v3.10.0, https://matplotlib.org/</dc:title>
     </cc:Agent>
    </dc:creator>
   </cc:Work>
  </rdf:RDF>
 </metadata>
 <defs>
  <style type="text/css">*{stroke-linejoin: round; stroke-linecap: butt}</style>
 </defs>
 <g id="figure_1">
  <g id="patch_1">
   <path d="M 0 216 
L 720 216 
L 720 0 
L 0 0 
L 0 216 
z
" style="fill: none"/>
  </g>
  <g id="axes_1">
   <g id="patch_2">
    <path d="M 54.438 174.612 
L 258.841911 174.612 
L 258.841911 13.968 
L 54.438 13.968 
L 54.438 174.612 
z
" style="fill: none"/>
   </g>
   <g id="matplotlib.axis_1">
    <g id="xtick_1">
     <g id="line2d_1">
      <defs>
       <path id="m43ca936681" d="M 0 0 
L 0 4.8 
" style="stroke: #262626"/>
      </defs>
      <g>
       <use xlink:href="#m43ca936681" x="56.97316" y="174.612" style="fill: #262626; stroke: #262626"/>
      </g>
     </g>
     <g id="text_1">
      <!-- 0 -->
      <g style="fill: #262626" transform="translate(54.17366 189.598625) scale(0.088 -0.088)">
       <defs>
        <path id="DejaVuSans-30" d="M 2034 4250 
Q 1547 4250 1301 3770 
Q 1056 3291 1056 2328 
Q 1056 1369 1301 889 
Q 1547 409 2034 409 
Q 2525 409 2770 889 
Q 3016 1369 3016 2328 
Q 3016 3291 2770 3770 
Q 2525 4250 2034 4250 
z
M 2034 4750 
Q 2819 4750 3233 4129 
Q 3647 3509 3647 2328 
Q 3647 1150 3233 529 
Q 2819 -91 2034 -91 
Q 1250 -91 836 529 
Q 422 1150 422 2328 
Q 422 3509 836 4129 
Q 1250 4750 2034 4750 
z
" transform="scale(0.015625)"/>
       </defs>
       <use xlink:href="#DejaVuSans-30"/>
      </g>
     </g>
    </g>
    <g id="xtick_2">
     <g id="line2d_2">
      <g>
       <use xlink:href="#m43ca936681" x="100.97616" y="174.612" style="fill: #262626; stroke: #262626"/>
      </g>
     </g>
     <g id="text_2">
      <!-- 200 -->
      <g style="fill: #262626" transform="translate(92.57766 189.598625) scale(0.088 -0.088)">
       <defs>
        <path id="DejaVuSans-32" d="M 1228 531 
L 3431 531 
L 3431 0 
L 469 0 
L 469 531 
Q 828 903 1448 1529 
Q 2069 2156 2228 2338 
Q 2531 2678 2651 2914 
Q 2772 3150 2772 3378 
Q 2772 3750 2511 3984 
Q 2250 4219 1831 4219 
Q 1534 4219 1204 4116 
Q 875 4013 500 3803 
L 500 4441 
Q 881 4594 1212 4672 
Q 1544 4750 1819 4750 
Q 2544 4750 2975 4387 
Q 3406 4025 3406 3419 
Q 3406 3131 3298 2873 
Q 3191 2616 2906 2266 
Q 2828 2175 2409 1742 
Q 1991 1309 1228 531 
z
" transform="scale(0.015625)"/>
       </defs>
       <use xlink:href="#DejaVuSans-32"/>
       <use xlink:href="#DejaVuSans-30" transform="translate(63.623047 0)"/>
       <use xlink:href="#DejaVuSans-30" transform="translate(127.246094 0)"/>
      </g>
     </g>
    </g>
    <g id="xtick_3">
     <g id="line2d_3">
      <g>
       <use xlink:href="#m43ca936681" x="144.97916" y="174.612" style="fill: #262626; stroke: #262626"/>
      </g>
     </g>
     <g id="text_3">
      <!-- 400 -->
      <g style="fill: #262626" transform="translate(136.58066 189.598625) scale(0.088 -0.088)">
       <defs>
        <path id="DejaVuSans-34" d="M 2419 4116 
L 825 1625 
L 2419 1625 
L 2419 4116 
z
M 2253 4666 
L 3047 4666 
L 3047 1625 
L 3713 1625 
L 3713 1100 
L 3047 1100 
L 3047 0 
L 2419 0 
L 2419 1100 
L 313 1100 
L 313 1709 
L 2253 4666 
z
" transform="scale(0.015625)"/>
       </defs>
       <use xlink:href="#DejaVuSans-34"/>
       <use xlink:href="#DejaVuSans-30" transform="translate(63.623047 0)"/>
       <use xlink:href="#DejaVuSans-30" transform="translate(127.246094 0)"/>
      </g>
     </g>
    </g>
    <g id="xtick_4">
     <g id="line2d_4">
      <g>
       <use xlink:href="#m43ca936681" x="188.982161" y="174.612" style="fill: #262626; stroke: #262626"/>
      </g>
     </g>
     <g id="text_4">
      <!-- 600 -->
      <g style="fill: #262626" transform="translate(180.583661 189.598625) scale(0.088 -0.088)">
       <defs>
        <path id="DejaVuSans-36" d="M 2113 2584 
Q 1688 2584 1439 2293 
Q 1191 2003 1191 1497 
Q 1191 994 1439 701 
Q 1688 409 2113 409 
Q 2538 409 2786 701 
Q 3034 994 3034 1497 
Q 3034 2003 2786 2293 
Q 2538 2584 2113 2584 
z
M 3366 4563 
L 3366 3988 
Q 3128 4100 2886 4159 
Q 2644 4219 2406 4219 
Q 1781 4219 1451 3797 
Q 1122 3375 1075 2522 
Q 1259 2794 1537 2939 
Q 1816 3084 2150 3084 
Q 2853 3084 3261 2657 
Q 3669 2231 3669 1497 
Q 3669 778 3244 343 
Q 2819 -91 2113 -91 
Q 1303 -91 875 529 
Q 447 1150 447 2328 
Q 447 3434 972 4092 
Q 1497 4750 2381 4750 
Q 2619 4750 2861 4703 
Q 3103 4656 3366 4563 
z
" transform="scale(0.015625)"/>
       </defs>
       <use xlink:href="#DejaVuSans-36"/>
       <use xlink:href="#DejaVuSans-30" transform="translate(63.623047 0)"/>
       <use xlink:href="#DejaVuSans-30" transform="translate(127.246094 0)"/>
      </g>
     </g>
    </g>
    <g id="xtick_5">
     <g id="line2d_5">
      <g>
       <use xlink:href="#m43ca936681" x="232.985161" y="174.612" style="fill: #262626; stroke: #262626"/>
      </g>
     </g>
     <g id="text_5">
      <!-- 800 -->
      <g style="fill: #262626" transform="translate(224.586661 189.598625) scale(0.088 -0.088)">
       <defs>
        <path id="DejaVuSans-38" d="M 2034 2216 
Q 1584 2216 1326 1975 
Q 1069 1734 1069 1313 
Q 1069 891 1326 650 
Q 1584 409 2034 409 
Q 2484 409 2743 651 
Q 3003 894 3003 1313 
Q 3003 1734 2745 1975 
Q 2488 2216 2034 2216 
z
M 1403 2484 
Q 997 2584 770 2862 
Q 544 3141 544 3541 
Q 544 4100 942 4425 
Q 1341 4750 2034 4750 
Q 2731 4750 3128 4425 
Q 3525 4100 3525 3541 
Q 3525 3141 3298 2862 
Q 3072 2584 2669 2484 
Q 3125 2378 3379 2068 
Q 3634 1759 3634 1313 
Q 3634 634 3220 271 
Q 2806 -91 2034 -91 
Q 1263 -91 848 271 
Q 434 634 434 1313 
Q 434 1759 690 2068 
Q 947 2378 1403 2484 
z
M 1172 3481 
Q 1172 3119 1398 2916 
Q 1625 2713 2034 2713 
Q 2441 2713 2670 2916 
Q 2900 3119 2900 3481 
Q 2900 3844 2670 4047 
Q 2441 4250 2034 4250 
Q 1625 4250 1398 4047 
Q 1172 3844 1172 3481 
z
" transform="scale(0.015625)"/>
       </defs>
       <use xlink:href="#DejaVuSans-38"/>
       <use xlink:href="#DejaVuSans-30" transform="translate(63.623047 0)"/>
       <use xlink:href="#DejaVuSans-30" transform="translate(127.246094 0)"/>
      </g>
     </g>
    </g>
    <g id="text_6">
     <!-- RT (in samples) -->
     <g style="fill: #262626" transform="translate(119.596706 202.72325) scale(0.096 -0.096)">
      <defs>
       <path id="DejaVuSans-52" d="M 2841 2188 
Q 3044 2119 3236 1894 
Q 3428 1669 3622 1275 
L 4263 0 
L 3584 0 
L 2988 1197 
Q 2756 1666 2539 1819 
Q 2322 1972 1947 1972 
L 1259 1972 
L 1259 0 
L 628 0 
L 628 4666 
L 2053 4666 
Q 2853 4666 3247 4331 
Q 3641 3997 3641 3322 
Q 3641 2881 3436 2590 
Q 3231 2300 2841 2188 
z
M 1259 4147 
L 1259 2491 
L 2053 2491 
Q 2509 2491 2742 2702 
Q 2975 2913 2975 3322 
Q 2975 3731 2742 3939 
Q 2509 4147 2053 4147 
L 1259 4147 
z
" transform="scale(0.015625)"/>
       <path id="DejaVuSans-54" d="M -19 4666 
L 3928 4666 
L 3928 4134 
L 2272 4134 
L 2272 0 
L 1638 0 
L 1638 4134 
L -19 4134 
L -19 4666 
z
" transform="scale(0.015625)"/>
       <path id="DejaVuSans-20" transform="scale(0.015625)"/>
       <path id="DejaVuSans-28" d="M 1984 4856 
Q 1566 4138 1362 3434 
Q 1159 2731 1159 2009 
Q 1159 1288 1364 580 
Q 1569 -128 1984 -844 
L 1484 -844 
Q 1016 -109 783 600 
Q 550 1309 550 2009 
Q 550 2706 781 3412 
Q 1013 4119 1484 4856 
L 1984 4856 
z
" transform="scale(0.015625)"/>
       <path id="DejaVuSans-69" d="M 603 3500 
L 1178 3500 
L 1178 0 
L 603 0 
L 603 3500 
z
M 603 4863 
L 1178 4863 
L 1178 4134 
L 603 4134 
L 603 4863 
z
" transform="scale(0.015625)"/>
       <path id="DejaVuSans-6e" d="M 3513 2113 
L 3513 0 
L 2938 0 
L 2938 2094 
Q 2938 2591 2744 2837 
Q 2550 3084 2163 3084 
Q 1697 3084 1428 2787 
Q 1159 2491 1159 1978 
L 1159 0 
L 581 0 
L 581 3500 
L 1159 3500 
L 1159 2956 
Q 1366 3272 1645 3428 
Q 1925 3584 2291 3584 
Q 2894 3584 3203 3211 
Q 3513 2838 3513 2113 
z
" transform="scale(0.015625)"/>
       <path id="DejaVuSans-73" d="M 2834 3397 
L 2834 2853 
Q 2591 2978 2328 3040 
Q 2066 3103 1784 3103 
Q 1356 3103 1142 2972 
Q 928 2841 928 2578 
Q 928 2378 1081 2264 
Q 1234 2150 1697 2047 
L 1894 2003 
Q 2506 1872 2764 1633 
Q 3022 1394 3022 966 
Q 3022 478 2636 193 
Q 2250 -91 1575 -91 
Q 1294 -91 989 -36 
Q 684 19 347 128 
L 347 722 
Q 666 556 975 473 
Q 1284 391 1588 391 
Q 1994 391 2212 530 
Q 2431 669 2431 922 
Q 2431 1156 2273 1281 
Q 2116 1406 1581 1522 
L 1381 1569 
Q 847 1681 609 1914 
Q 372 2147 372 2553 
Q 372 3047 722 3315 
Q 1072 3584 1716 3584 
Q 2034 3584 2315 3537 
Q 2597 3491 2834 3397 
z
" transform="scale(0.015625)"/>
       <path id="DejaVuSans-61" d="M 2194 1759 
Q 1497 1759 1228 1600 
Q 959 1441 959 1056 
Q 959 750 1161 570 
Q 1363 391 1709 391 
Q 2188 391 2477 730 
Q 2766 1069 2766 1631 
L 2766 1759 
L 2194 1759 
z
M 3341 1997 
L 3341 0 
L 2766 0 
L 2766 531 
Q 2569 213 2275 61 
Q 1981 -91 1556 -91 
Q 1019 -91 701 211 
Q 384 513 384 1019 
Q 384 1609 779 1909 
Q 1175 2209 1959 2209 
L 2766 2209 
L 2766 2266 
Q 2766 2663 2505 2880 
Q 2244 3097 1772 3097 
Q 1472 3097 1187 3025 
Q 903 2953 641 2809 
L 641 3341 
Q 956 3463 1253 3523 
Q 1550 3584 1831 3584 
Q 2591 3584 2966 3190 
Q 3341 2797 3341 1997 
z
" transform="scale(0.015625)"/>
       <path id="DejaVuSans-6d" d="M 3328 2828 
Q 3544 3216 3844 3400 
Q 4144 3584 4550 3584 
Q 5097 3584 5394 3201 
Q 5691 2819 5691 2113 
L 5691 0 
L 5113 0 
L 5113 2094 
Q 5113 2597 4934 2840 
Q 4756 3084 4391 3084 
Q 3944 3084 3684 2787 
Q 3425 2491 3425 1978 
L 3425 0 
L 2847 0 
L 2847 2094 
Q 2847 2600 2669 2842 
Q 2491 3084 2119 3084 
Q 1678 3084 1418 2786 
Q 1159 2488 1159 1978 
L 1159 0 
L 581 0 
L 581 3500 
L 1159 3500 
L 1159 2956 
Q 1356 3278 1631 3431 
Q 1906 3584 2284 3584 
Q 2666 3584 2933 3390 
Q 3200 3197 3328 2828 
z
" transform="scale(0.015625)"/>
       <path id="DejaVuSans-70" d="M 1159 525 
L 1159 -1331 
L 581 -1331 
L 581 3500 
L 1159 3500 
L 1159 2969 
Q 1341 3281 1617 3432 
Q 1894 3584 2278 3584 
Q 2916 3584 3314 3078 
Q 3713 2572 3713 1747 
Q 3713 922 3314 415 
Q 2916 -91 2278 -91 
Q 1894 -91 1617 61 
Q 1341 213 1159 525 
z
M 3116 1747 
Q 3116 2381 2855 2742 
Q 2594 3103 2138 3103 
Q 1681 3103 1420 2742 
Q 1159 2381 1159 1747 
Q 1159 1113 1420 752 
Q 1681 391 2138 391 
Q 2594 391 2855 752 
Q 3116 1113 3116 1747 
z
" transform="scale(0.015625)"/>
       <path id="DejaVuSans-6c" d="M 603 4863 
L 1178 4863 
L 1178 0 
L 603 0 
L 603 4863 
z
" transform="scale(0.015625)"/>
       <path id="DejaVuSans-65" d="M 3597 1894 
L 3597 1613 
L 953 1613 
Q 991 1019 1311 708 
Q 1631 397 2203 397 
Q 2534 397 2845 478 
Q 3156 559 3463 722 
L 3463 178 
Q 3153 47 2828 -22 
Q 2503 -91 2169 -91 
Q 1331 -91 842 396 
Q 353 884 353 1716 
Q 353 2575 817 3079 
Q 1281 3584 2069 3584 
Q 2775 3584 3186 3129 
Q 3597 2675 3597 1894 
z
M 3022 2063 
Q 3016 2534 2758 2815 
Q 2500 3097 2075 3097 
Q 1594 3097 1305 2825 
Q 1016 2553 972 2059 
L 3022 2063 
z
" transform="scale(0.015625)"/>
       <path id="DejaVuSans-29" d="M 513 4856 
L 1013 4856 
Q 1481 4119 1714 3412 
Q 1947 2706 1947 2009 
Q 1947 1309 1714 600 
Q 1481 -109 1013 -844 
L 513 -844 
Q 928 -128 1133 580 
Q 1338 1288 1338 2009 
Q 1338 2731 1133 3434 
Q 928 4138 513 4856 
z
" transform="scale(0.015625)"/>
      </defs>
      <use xlink:href="#DejaVuSans-52"/>
      <use xlink:href="#DejaVuSans-54" transform="translate(62.232422 0)"/>
      <use xlink:href="#DejaVuSans-20" transform="translate(123.316406 0)"/>
      <use xlink:href="#DejaVuSans-28" transform="translate(155.103516 0)"/>
      <use xlink:href="#DejaVuSans-69" transform="translate(194.117188 0)"/>
      <use xlink:href="#DejaVuSans-6e" transform="translate(221.900391 0)"/>
      <use xlink:href="#DejaVuSans-20" transform="translate(285.279297 0)"/>
      <use xlink:href="#DejaVuSans-73" transform="translate(317.066406 0)"/>
      <use xlink:href="#DejaVuSans-61" transform="translate(369.166016 0)"/>
      <use xlink:href="#DejaVuSans-6d" transform="translate(430.445312 0)"/>
      <use xlink:href="#DejaVuSans-70" transform="translate(527.857422 0)"/>
      <use xlink:href="#DejaVuSans-6c" transform="translate(591.333984 0)"/>
      <use xlink:href="#DejaVuSans-65" transform="translate(619.117188 0)"/>
      <use xlink:href="#DejaVuSans-73" transform="translate(680.640625 0)"/>
      <use xlink:href="#DejaVuSans-29" transform="translate(732.740234 0)"/>
     </g>
    </g>
   </g>
   <g id="matplotlib.axis_2">
    <g id="ytick_1">
     <g id="line2d_6">
      <defs>
       <path id="mc8b32f570a" d="M 0 0 
L -4.8 0 
" style="stroke: #262626"/>
      </defs>
      <g>
       <use xlink:href="#mc8b32f570a" x="54.438" y="174.612" style="fill: #262626; stroke: #262626"/>
      </g>
     </g>
     <g id="text_7">
      <!-- 0 -->
      <g style="fill: #262626" transform="translate(40.539 177.955312) scale(0.088 -0.088)">
       <use xlink:href="#DejaVuSans-30"/>
      </g>
     </g>
    </g>
    <g id="ytick_2">
     <g id="line2d_7">
      <g>
       <use xlink:href="#mc8b32f570a" x="54.438" y="147.838" style="fill: #262626; stroke: #262626"/>
      </g>
     </g>
     <g id="text_8">
      <!-- 500 -->
      <g style="fill: #262626" transform="translate(29.341 151.181312) scale(0.088 -0.088)">
       <defs>
        <path id="DejaVuSans-35" d="M 691 4666 
L 3169 4666 
L 3169 4134 
L 1269 4134 
L 1269 2991 
Q 1406 3038 1543 3061 
Q 1681 3084 1819 3084 
Q 2600 3084 3056 2656 
Q 3513 2228 3513 1497 
Q 3513 744 3044 326 
Q 2575 -91 1722 -91 
Q 1428 -91 1123 -41 
Q 819 9 494 109 
L 494 744 
Q 775 591 1075 516 
Q 1375 441 1709 441 
Q 2250 441 2565 725 
Q 2881 1009 2881 1497 
Q 2881 1984 2565 2268 
Q 2250 2553 1709 2553 
Q 1456 2553 1204 2497 
Q 953 2441 691 2322 
L 691 4666 
z
" transform="scale(0.015625)"/>
       </defs>
       <use xlink:href="#DejaVuSans-35"/>
       <use xlink:href="#DejaVuSans-30" transform="translate(63.623047 0)"/>
       <use xlink:href="#DejaVuSans-30" transform="translate(127.246094 0)"/>
      </g>
     </g>
    </g>
    <g id="ytick_3">
     <g id="line2d_8">
      <g>
       <use xlink:href="#mc8b32f570a" x="54.438" y="121.064" style="fill: #262626; stroke: #262626"/>
      </g>
     </g>
     <g id="text_9">
      <!-- 1000 -->
      <g style="fill: #262626" transform="translate(23.742 124.407312) scale(0.088 -0.088)">
       <defs>
        <path id="DejaVuSans-31" d="M 794 531 
L 1825 531 
L 1825 4091 
L 703 3866 
L 703 4441 
L 1819 4666 
L 2450 4666 
L 2450 531 
L 3481 531 
L 3481 0 
L 794 0 
L 794 531 
z
" transform="scale(0.015625)"/>
       </defs>
       <use xlink:href="#DejaVuSans-31"/>
       <use xlink:href="#DejaVuSans-30" transform="translate(63.623047 0)"/>
       <use xlink:href="#DejaVuSans-30" transform="translate(127.246094 0)"/>
       <use xlink:href="#DejaVuSans-30" transform="translate(190.869141 0)"/>
      </g>
     </g>
    </g>
    <g id="ytick_4">
     <g id="line2d_9">
      <g>
       <use xlink:href="#mc8b32f570a" x="54.438" y="94.29" style="fill: #262626; stroke: #262626"/>
      </g>
     </g>
     <g id="text_10">
      <!-- 1500 -->
      <g style="fill: #262626" transform="translate(23.742 97.633312) scale(0.088 -0.088)">
       <use xlink:href="#DejaVuSans-31"/>
       <use xlink:href="#DejaVuSans-35" transform="translate(63.623047 0)"/>
       <use xlink:href="#DejaVuSans-30" transform="translate(127.246094 0)"/>
       <use xlink:href="#DejaVuSans-30" transform="translate(190.869141 0)"/>
      </g>
     </g>
    </g>
    <g id="ytick_5">
     <g id="line2d_10">
      <g>
       <use xlink:href="#mc8b32f570a" x="54.438" y="67.516" style="fill: #262626; stroke: #262626"/>
      </g>
     </g>
     <g id="text_11">
      <!-- 2000 -->
      <g style="fill: #262626" transform="translate(23.742 70.859312) scale(0.088 -0.088)">
       <use xlink:href="#DejaVuSans-32"/>
       <use xlink:href="#DejaVuSans-30" transform="translate(63.623047 0)"/>
       <use xlink:href="#DejaVuSans-30" transform="translate(127.246094 0)"/>
       <use xlink:href="#DejaVuSans-30" transform="translate(190.869141 0)"/>
      </g>
     </g>
    </g>
    <g id="ytick_6">
     <g id="line2d_11">
      <g>
       <use xlink:href="#mc8b32f570a" x="54.438" y="40.742" style="fill: #262626; stroke: #262626"/>
      </g>
     </g>
     <g id="text_12">
      <!-- 2500 -->
      <g style="fill: #262626" transform="translate(23.742 44.085313) scale(0.088 -0.088)">
       <use xlink:href="#DejaVuSans-32"/>
       <use xlink:href="#DejaVuSans-35" transform="translate(63.623047 0)"/>
       <use xlink:href="#DejaVuSans-30" transform="translate(127.246094 0)"/>
       <use xlink:href="#DejaVuSans-30" transform="translate(190.869141 0)"/>
      </g>
     </g>
    </g>
    <g id="ytick_7">
     <g id="line2d_12">
      <g>
       <use xlink:href="#mc8b32f570a" x="54.438" y="13.968" style="fill: #262626; stroke: #262626"/>
      </g>
     </g>
     <g id="text_13">
      <!-- 3000 -->
      <g style="fill: #262626" transform="translate(23.742 17.311313) scale(0.088 -0.088)">
       <defs>
        <path id="DejaVuSans-33" d="M 2597 2516 
Q 3050 2419 3304 2112 
Q 3559 1806 3559 1356 
Q 3559 666 3084 287 
Q 2609 -91 1734 -91 
Q 1441 -91 1130 -33 
Q 819 25 488 141 
L 488 750 
Q 750 597 1062 519 
Q 1375 441 1716 441 
Q 2309 441 2620 675 
Q 2931 909 2931 1356 
Q 2931 1769 2642 2001 
Q 2353 2234 1838 2234 
L 1294 2234 
L 1294 2753 
L 1863 2753 
Q 2328 2753 2575 2939 
Q 2822 3125 2822 3475 
Q 2822 3834 2567 4026 
Q 2313 4219 1838 4219 
Q 1578 4219 1281 4162 
Q 984 4106 628 3988 
L 628 4550 
Q 988 4650 1302 4700 
Q 1616 4750 1894 4750 
Q 2613 4750 3031 4423 
Q 3450 4097 3450 3541 
Q 3450 3153 3228 2886 
Q 3006 2619 2597 2516 
z
" transform="scale(0.015625)"/>
       </defs>
       <use xlink:href="#DejaVuSans-33"/>
       <use xlink:href="#DejaVuSans-30" transform="translate(63.623047 0)"/>
       <use xlink:href="#DejaVuSans-30" transform="translate(127.246094 0)"/>
       <use xlink:href="#DejaVuSans-30" transform="translate(190.869141 0)"/>
      </g>
     </g>
    </g>
    <g id="text_14">
     <!-- Count (trials) -->
     <g style="fill: #262626" transform="translate(17.7455 125.7795) rotate(-90) scale(0.096 -0.096)">
      <defs>
       <path id="DejaVuSans-43" d="M 4122 4306 
L 4122 3641 
Q 3803 3938 3442 4084 
Q 3081 4231 2675 4231 
Q 1875 4231 1450 3742 
Q 1025 3253 1025 2328 
Q 1025 1406 1450 917 
Q 1875 428 2675 428 
Q 3081 428 3442 575 
Q 3803 722 4122 1019 
L 4122 359 
Q 3791 134 3420 21 
Q 3050 -91 2638 -91 
Q 1578 -91 968 557 
Q 359 1206 359 2328 
Q 359 3453 968 4101 
Q 1578 4750 2638 4750 
Q 3056 4750 3426 4639 
Q 3797 4528 4122 4306 
z
" transform="scale(0.015625)"/>
       <path id="DejaVuSans-6f" d="M 1959 3097 
Q 1497 3097 1228 2736 
Q 959 2375 959 1747 
Q 959 1119 1226 758 
Q 1494 397 1959 397 
Q 2419 397 2687 759 
Q 2956 1122 2956 1747 
Q 2956 2369 2687 2733 
Q 2419 3097 1959 3097 
z
M 1959 3584 
Q 2709 3584 3137 3096 
Q 3566 2609 3566 1747 
Q 3566 888 3137 398 
Q 2709 -91 1959 -91 
Q 1206 -91 779 398 
Q 353 888 353 1747 
Q 353 2609 779 3096 
Q 1206 3584 1959 3584 
z
" transform="scale(0.015625)"/>
       <path id="DejaVuSans-75" d="M 544 1381 
L 544 3500 
L 1119 3500 
L 1119 1403 
Q 1119 906 1312 657 
Q 1506 409 1894 409 
Q 2359 409 2629 706 
Q 2900 1003 2900 1516 
L 2900 3500 
L 3475 3500 
L 3475 0 
L 2900 0 
L 2900 538 
Q 2691 219 2414 64 
Q 2138 -91 1772 -91 
Q 1169 -91 856 284 
Q 544 659 544 1381 
z
M 1991 3584 
L 1991 3584 
z
" transform="scale(0.015625)"/>
       <path id="DejaVuSans-74" d="M 1172 4494 
L 1172 3500 
L 2356 3500 
L 2356 3053 
L 1172 3053 
L 1172 1153 
Q 1172 725 1289 603 
Q 1406 481 1766 481 
L 2356 481 
L 2356 0 
L 1766 0 
Q 1100 0 847 248 
Q 594 497 594 1153 
L 594 3053 
L 172 3053 
L 172 3500 
L 594 3500 
L 594 4494 
L 1172 4494 
z
" transform="scale(0.015625)"/>
       <path id="DejaVuSans-72" d="M 2631 2963 
Q 2534 3019 2420 3045 
Q 2306 3072 2169 3072 
Q 1681 3072 1420 2755 
Q 1159 2438 1159 1844 
L 1159 0 
L 581 0 
L 581 3500 
L 1159 3500 
L 1159 2956 
Q 1341 3275 1631 3429 
Q 1922 3584 2338 3584 
Q 2397 3584 2469 3576 
Q 2541 3569 2628 3553 
L 2631 2963 
z
" transform="scale(0.015625)"/>
      </defs>
      <use xlink:href="#DejaVuSans-43"/>
      <use xlink:href="#DejaVuSans-6f" transform="translate(69.824219 0)"/>
      <use xlink:href="#DejaVuSans-75" transform="translate(131.005859 0)"/>
      <use xlink:href="#DejaVuSans-6e" transform="translate(194.384766 0)"/>
      <use xlink:href="#DejaVuSans-74" transform="translate(257.763672 0)"/>
      <use xlink:href="#DejaVuSans-20" transform="translate(296.972656 0)"/>
      <use xlink:href="#DejaVuSans-28" transform="translate(328.759766 0)"/>
      <use xlink:href="#DejaVuSans-74" transform="translate(367.773438 0)"/>
      <use xlink:href="#DejaVuSans-72" transform="translate(406.982422 0)"/>
      <use xlink:href="#DejaVuSans-69" transform="translate(448.095703 0)"/>
      <use xlink:href="#DejaVuSans-61" transform="translate(475.878906 0)"/>
      <use xlink:href="#DejaVuSans-6c" transform="translate(537.158203 0)"/>
      <use xlink:href="#DejaVuSans-73" transform="translate(564.941406 0)"/>
      <use xlink:href="#DejaVuSans-29" transform="translate(617.041016 0)"/>
     </g>
    </g>
   </g>
   <g id="FillBetweenPolyCollection_1">
    <defs>
     <path id="m36bf89b050" d="M 63.729087 -41.388 
L 63.729087 -41.388 
L 66.240191 -41.388 
L 68.751296 -41.388 
L 71.262401 -41.388 
L 73.773505 -41.388 
L 76.28461 -41.388 
L 78.795714 -41.388 
L 81.306819 -41.388 
L 83.817923 -41.388 
L 86.329028 -41.388 
L 88.840132 -41.388 
L 91.351237 -41.388 
L 93.862342 -41.388 
L 96.373446 -41.388 
L 98.884551 -41.388 
L 101.395655 -41.388 
L 103.90676 -41.388 
L 106.417864 -41.388 
L 108.928969 -41.388 
L 111.440073 -41.388 
L 113.951178 -41.388 
L 116.462283 -41.388 
L 118.973387 -41.388 
L 121.484492 -41.388 
L 123.995596 -41.388 
L 126.506701 -41.388 
L 129.017805 -41.388 
L 131.52891 -41.388 
L 134.040014 -41.388 
L 136.551119 -41.388 
L 139.062224 -41.388 
L 141.573328 -41.388 
L 144.084433 -41.388 
L 146.595537 -41.388 
L 149.106642 -41.388 
L 151.617746 -41.388 
L 154.128851 -41.388 
L 156.639956 -41.388 
L 159.15106 -41.388 
L 161.662165 -41.388 
L 164.173269 -41.388 
L 166.684374 -41.388 
L 169.195478 -41.388 
L 171.706583 -41.388 
L 174.217687 -41.388 
L 176.728792 -41.388 
L 179.239897 -41.388 
L 181.751001 -41.388 
L 184.262106 -41.388 
L 186.77321 -41.388 
L 189.284315 -41.388 
L 191.795419 -41.388 
L 194.306524 -41.388 
L 196.817628 -41.388 
L 199.328733 -41.388 
L 201.839838 -41.388 
L 204.350942 -41.388 
L 206.862047 -41.388 
L 209.373151 -41.388 
L 211.884256 -41.388 
L 214.39536 -41.388 
L 216.906465 -41.388 
L 219.417569 -41.388 
L 221.928674 -41.388 
L 224.439779 -41.388 
L 226.950883 -41.388 
L 229.461988 -41.388 
L 231.973092 -41.388 
L 234.484197 -41.388 
L 236.995301 -41.388 
L 239.506406 -41.388 
L 242.01751 -41.388 
L 244.528615 -41.388 
L 247.03972 -41.388 
L 249.550824 -41.388 
L 249.550824 -41.441548 
L 249.550824 -41.441548 
L 247.03972 -41.388 
L 244.528615 -41.441548 
L 242.01751 -41.388 
L 239.506406 -41.388 
L 236.995301 -41.388 
L 234.484197 -41.441548 
L 231.973092 -41.388 
L 229.461988 -41.441548 
L 226.950883 -41.388 
L 224.439779 -41.388 
L 221.928674 -41.495096 
L 219.417569 -41.388 
L 216.906465 -41.388 
L 214.39536 -41.441548 
L 211.884256 -41.495096 
L 209.373151 -41.388 
L 206.862047 -41.388 
L 204.350942 -41.441548 
L 201.839838 -41.495096 
L 199.328733 -41.441548 
L 196.817628 -41.388 
L 194.306524 -41.441548 
L 191.795419 -41.441548 
L 189.284315 -41.441548 
L 186.77321 -41.548644 
L 184.262106 -41.388 
L 181.751001 -41.548644 
L 179.239897 -41.602192 
L 176.728792 -41.602192 
L 174.217687 -41.441548 
L 171.706583 -41.495096 
L 169.195478 -41.65574 
L 166.684374 -41.548644 
L 164.173269 -41.977028 
L 161.662165 -42.137672 
L 159.15106 -41.816384 
L 156.639956 -42.084124 
L 154.128851 -41.869932 
L 151.617746 -42.19122 
L 149.106642 -42.351864 
L 146.595537 -42.45896 
L 144.084433 -42.351864 
L 141.573328 -42.619604 
L 139.062224 -43.422824 
L 136.551119 -42.780248 
L 134.040014 -43.26218 
L 131.52891 -43.744112 
L 129.017805 -43.79766 
L 126.506701 -44.172496 
L 123.995596 -45.297004 
L 121.484492 -45.511196 
L 118.973387 -47.171184 
L 116.462283 -48.456336 
L 113.951178 -49.259556 
L 111.440073 -50.22342 
L 108.928969 -52.044052 
L 106.417864 -54.775 
L 103.90676 -56.756276 
L 101.395655 -60.825924 
L 98.884551 -68.108452 
L 96.373446 -70.732304 
L 93.862342 -79.621272 
L 91.351237 -86.047032 
L 88.840132 -101.415308 
L 86.329028 -110.090084 
L 83.817923 -105.003024 
L 81.306819 -94.186328 
L 78.795714 -76.783228 
L 76.28461 -56.595632 
L 73.773505 -44.279592 
L 71.262401 -42.566056 
L 68.751296 -41.548644 
L 66.240191 -41.388 
L 63.729087 -41.388 
z
" style="stroke: #228833; stroke-width: 0.8"/>
    </defs>
    <g clip-path="url(#pe7fc468118)">
     <use xlink:href="#m36bf89b050" x="0" y="216" style="fill: #228833; fill-opacity: 0.25; stroke: #228833; stroke-width: 0.8"/>
    </g>
   </g>
   <g id="FillBetweenPolyCollection_2">
    <defs>
     <path id="m0c77e24473" d="M 63.729087 -44.118948 
L 63.729087 -41.388 
L 66.240191 -41.388 
L 68.751296 -41.388 
L 71.262401 -41.388 
L 73.773505 -41.388 
L 76.28461 -41.388 
L 78.795714 -41.388 
L 81.306819 -41.388 
L 83.817923 -41.388 
L 86.329028 -41.388 
L 88.840132 -41.388 
L 91.351237 -41.388 
L 93.862342 -41.388 
L 96.373446 -41.388 
L 98.884551 -41.388 
L 101.395655 -41.388 
L 103.90676 -41.388 
L 106.417864 -41.388 
L 108.928969 -41.388 
L 111.440073 -41.388 
L 113.951178 -41.388 
L 116.462283 -41.388 
L 118.973387 -41.388 
L 121.484492 -41.388 
L 123.995596 -41.388 
L 126.506701 -41.388 
L 129.017805 -41.388 
L 131.52891 -41.388 
L 134.040014 -41.388 
L 136.551119 -41.388 
L 139.062224 -41.388 
L 141.573328 -41.388 
L 144.084433 -41.388 
L 146.595537 -41.388 
L 149.106642 -41.388 
L 151.617746 -41.388 
L 154.128851 -41.388 
L 156.639956 -41.388 
L 159.15106 -41.388 
L 161.662165 -41.388 
L 164.173269 -41.388 
L 166.684374 -41.388 
L 169.195478 -41.388 
L 171.706583 -41.388 
L 174.217687 -41.388 
L 176.728792 -41.388 
L 179.239897 -41.388 
L 181.751001 -41.388 
L 184.262106 -41.388 
L 186.77321 -41.388 
L 189.284315 -41.388 
L 191.795419 -41.388 
L 194.306524 -41.388 
L 196.817628 -41.388 
L 199.328733 -41.388 
L 201.839838 -41.388 
L 204.350942 -41.388 
L 206.862047 -41.388 
L 209.373151 -41.388 
L 211.884256 -41.388 
L 214.39536 -41.388 
L 216.906465 -41.388 
L 219.417569 -41.388 
L 221.928674 -41.388 
L 224.439779 -41.388 
L 226.950883 -41.388 
L 229.461988 -41.388 
L 231.973092 -41.388 
L 234.484197 -41.388 
L 236.995301 -41.388 
L 239.506406 -41.388 
L 242.01751 -41.388 
L 244.528615 -41.388 
L 247.03972 -41.388 
L 249.550824 -41.388 
L 249.550824 -41.388 
L 249.550824 -41.388 
L 247.03972 -41.388 
L 244.528615 -41.388 
L 242.01751 -41.388 
L 239.506406 -41.388 
L 236.995301 -41.388 
L 234.484197 -41.388 
L 231.973092 -41.388 
L 229.461988 -41.388 
L 226.950883 -41.388 
L 224.439779 -41.388 
L 221.928674 -41.388 
L 219.417569 -41.388 
L 216.906465 -41.388 
L 214.39536 -41.388 
L 211.884256 -41.388 
L 209.373151 -41.388 
L 206.862047 -41.388 
L 204.350942 -41.388 
L 201.839838 -41.441548 
L 199.328733 -41.441548 
L 196.817628 -41.388 
L 194.306524 -41.388 
L 191.795419 -41.388 
L 189.284315 -41.441548 
L 186.77321 -41.441548 
L 184.262106 -41.388 
L 181.751001 -41.388 
L 179.239897 -41.388 
L 176.728792 -41.388 
L 174.217687 -41.388 
L 171.706583 -41.388 
L 169.195478 -41.441548 
L 166.684374 -41.388 
L 164.173269 -41.388 
L 161.662165 -41.388 
L 159.15106 -41.441548 
L 156.639956 -41.388 
L 154.128851 -41.441548 
L 151.617746 -41.495096 
L 149.106642 -41.495096 
L 146.595537 -41.388 
L 144.084433 -41.548644 
L 141.573328 -41.495096 
L 139.062224 -41.388 
L 136.551119 -41.709288 
L 134.040014 -41.709288 
L 131.52891 -41.65574 
L 129.017805 -41.709288 
L 126.506701 -41.762836 
L 123.995596 -41.816384 
L 121.484492 -42.137672 
L 118.973387 -42.030576 
L 116.462283 -42.512508 
L 113.951178 -42.780248 
L 111.440073 -43.047988 
L 108.928969 -43.583468 
L 106.417864 -44.011852 
L 103.90676 -44.118948 
L 101.395655 -45.029264 
L 98.884551 -47.653116 
L 96.373446 -49.098912 
L 93.862342 -50.865996 
L 91.351237 -54.989192 
L 88.840132 -61.682692 
L 86.329028 -75.444528 
L 83.817923 -90.223776 
L 81.306819 -112.178456 
L 78.795714 -132.15186 
L 76.28461 -129.47446 
L 73.773505 -109.12622 
L 71.262401 -80.906424 
L 68.751296 -65.21686 
L 66.240191 -49.259556 
L 63.729087 -44.118948 
z
" style="stroke: #66ccee; stroke-width: 0.8"/>
    </defs>
    <g clip-path="url(#pe7fc468118)">
     <use xlink:href="#m0c77e24473" x="0" y="216" style="fill: #66ccee; fill-opacity: 0.25; stroke: #66ccee; stroke-width: 0.8"/>
    </g>
   </g>
   <g id="patch_3">
    <path d="M 54.438 174.612 
L 54.438 13.968 
" style="fill: none; stroke: #262626; stroke-linejoin: miter; stroke-linecap: square"/>
   </g>
   <g id="patch_4">
    <path d="M 258.841911 174.612 
L 258.841911 13.968 
" style="fill: none; stroke: #262626; stroke-linejoin: miter; stroke-linecap: square"/>
   </g>
   <g id="patch_5">
    <path d="M 54.438 174.612 
L 258.841911 174.612 
" style="fill: none; stroke: #262626; stroke-linejoin: miter; stroke-linecap: square"/>
   </g>
   <g id="patch_6">
    <path d="M 54.438 13.968 
L 258.841911 13.968 
" style="fill: none; stroke: #262626; stroke-linejoin: miter; stroke-linecap: square"/>
   </g>
  </g>
  <g id="axes_2">
   <g id="patch_7">
    <path d="M 275.366332 174.612 
L 479.770243 174.612 
L 479.770243 13.968 
L 275.366332 13.968 
L 275.366332 174.612 
z
" style="fill: none"/>
   </g>
   <g id="matplotlib.axis_3">
    <g id="xtick_6">
     <g id="line2d_13">
      <g>
       <use xlink:href="#m43ca936681" x="283.374576" y="174.612" style="fill: #262626; stroke: #262626"/>
      </g>
     </g>
     <g id="text_15">
      <!-- 0.0 -->
      <g style="fill: #262626" transform="translate(276.377201 189.598625) scale(0.088 -0.088)">
       <defs>
        <path id="DejaVuSans-2e" d="M 684 794 
L 1344 794 
L 1344 0 
L 684 0 
L 684 794 
z
" transform="scale(0.015625)"/>
       </defs>
       <use xlink:href="#DejaVuSans-30"/>
       <use xlink:href="#DejaVuSans-2e" transform="translate(63.623047 0)"/>
       <use xlink:href="#DejaVuSans-30" transform="translate(95.410156 0)"/>
      </g>
     </g>
    </g>
    <g id="xtick_7">
     <g id="line2d_14">
      <g>
       <use xlink:href="#m43ca936681" x="324.861466" y="174.612" style="fill: #262626; stroke: #262626"/>
      </g>
     </g>
     <g id="text_16">
      <!-- 0.5 -->
      <g style="fill: #262626" transform="translate(317.864091 189.598625) scale(0.088 -0.088)">
       <use xlink:href="#DejaVuSans-30"/>
       <use xlink:href="#DejaVuSans-2e" transform="translate(63.623047 0)"/>
       <use xlink:href="#DejaVuSans-35" transform="translate(95.410156 0)"/>
      </g>
     </g>
    </g>
    <g id="xtick_8">
     <g id="line2d_15">
      <g>
       <use xlink:href="#m43ca936681" x="366.348356" y="174.612" style="fill: #262626; stroke: #262626"/>
      </g>
     </g>
     <g id="text_17">
      <!-- 1.0 -->
      <g style="fill: #262626" transform="translate(359.350981 189.598625) scale(0.088 -0.088)">
       <use xlink:href="#DejaVuSans-31"/>
       <use xlink:href="#DejaVuSans-2e" transform="translate(63.623047 0)"/>
       <use xlink:href="#DejaVuSans-30" transform="translate(95.410156 0)"/>
      </g>
     </g>
    </g>
    <g id="xtick_9">
     <g id="line2d_16">
      <g>
       <use xlink:href="#m43ca936681" x="407.835246" y="174.612" style="fill: #262626; stroke: #262626"/>
      </g>
     </g>
     <g id="text_18">
      <!-- 1.5 -->
      <g style="fill: #262626" transform="translate(400.837871 189.598625) scale(0.088 -0.088)">
       <use xlink:href="#DejaVuSans-31"/>
       <use xlink:href="#DejaVuSans-2e" transform="translate(63.623047 0)"/>
       <use xlink:href="#DejaVuSans-35" transform="translate(95.410156 0)"/>
      </g>
     </g>
    </g>
    <g id="xtick_10">
     <g id="line2d_17">
      <g>
       <use xlink:href="#m43ca936681" x="449.322136" y="174.612" style="fill: #262626; stroke: #262626"/>
      </g>
     </g>
     <g id="text_19">
      <!-- 2.0 -->
      <g style="fill: #262626" transform="translate(442.324761 189.598625) scale(0.088 -0.088)">
       <use xlink:href="#DejaVuSans-32"/>
       <use xlink:href="#DejaVuSans-2e" transform="translate(63.623047 0)"/>
       <use xlink:href="#DejaVuSans-30" transform="translate(95.410156 0)"/>
      </g>
     </g>
    </g>
    <g id="text_20">
     <!-- Confirmation AUC -->
     <g style="fill: #262626" transform="translate(334.840038 202.72325) scale(0.096 -0.096)">
      <defs>
       <path id="DejaVuSans-66" d="M 2375 4863 
L 2375 4384 
L 1825 4384 
Q 1516 4384 1395 4259 
Q 1275 4134 1275 3809 
L 1275 3500 
L 2222 3500 
L 2222 3053 
L 1275 3053 
L 1275 0 
L 697 0 
L 697 3053 
L 147 3053 
L 147 3500 
L 697 3500 
L 697 3744 
Q 697 4328 969 4595 
Q 1241 4863 1831 4863 
L 2375 4863 
z
" transform="scale(0.015625)"/>
       <path id="DejaVuSans-41" d="M 2188 4044 
L 1331 1722 
L 3047 1722 
L 2188 4044 
z
M 1831 4666 
L 2547 4666 
L 4325 0 
L 3669 0 
L 3244 1197 
L 1141 1197 
L 716 0 
L 50 0 
L 1831 4666 
z
" transform="scale(0.015625)"/>
       <path id="DejaVuSans-55" d="M 556 4666 
L 1191 4666 
L 1191 1831 
Q 1191 1081 1462 751 
Q 1734 422 2344 422 
Q 2950 422 3222 751 
Q 3494 1081 3494 1831 
L 3494 4666 
L 4128 4666 
L 4128 1753 
Q 4128 841 3676 375 
Q 3225 -91 2344 -91 
Q 1459 -91 1007 375 
Q 556 841 556 1753 
L 556 4666 
z
" transform="scale(0.015625)"/>
      </defs>
      <use xlink:href="#DejaVuSans-43"/>
      <use xlink:href="#DejaVuSans-6f" transform="translate(69.824219 0)"/>
      <use xlink:href="#DejaVuSans-6e" transform="translate(131.005859 0)"/>
      <use xlink:href="#DejaVuSans-66" transform="translate(194.384766 0)"/>
      <use xlink:href="#DejaVuSans-69" transform="translate(229.589844 0)"/>
      <use xlink:href="#DejaVuSans-72" transform="translate(257.373047 0)"/>
      <use xlink:href="#DejaVuSans-6d" transform="translate(296.736328 0)"/>
      <use xlink:href="#DejaVuSans-61" transform="translate(394.148438 0)"/>
      <use xlink:href="#DejaVuSans-74" transform="translate(455.427734 0)"/>
      <use xlink:href="#DejaVuSans-69" transform="translate(494.636719 0)"/>
      <use xlink:href="#DejaVuSans-6f" transform="translate(522.419922 0)"/>
      <use xlink:href="#DejaVuSans-6e" transform="translate(583.601562 0)"/>
      <use xlink:href="#DejaVuSans-20" transform="translate(646.980469 0)"/>
      <use xlink:href="#DejaVuSans-41" transform="translate(678.767578 0)"/>
      <use xlink:href="#DejaVuSans-55" transform="translate(747.175781 0)"/>
      <use xlink:href="#DejaVuSans-43" transform="translate(820.369141 0)"/>
     </g>
    </g>
   </g>
   <g id="matplotlib.axis_4">
    <g id="ytick_8">
     <g id="line2d_18">
      <g>
       <use xlink:href="#mc8b32f570a" x="275.366332" y="174.612" style="fill: #262626; stroke: #262626"/>
      </g>
     </g>
    </g>
    <g id="ytick_9">
     <g id="line2d_19">
      <g>
       <use xlink:href="#mc8b32f570a" x="275.366332" y="147.838" style="fill: #262626; stroke: #262626"/>
      </g>
     </g>
    </g>
    <g id="ytick_10">
     <g id="line2d_20">
      <g>
       <use xlink:href="#mc8b32f570a" x="275.366332" y="121.064" style="fill: #262626; stroke: #262626"/>
      </g>
     </g>
    </g>
    <g id="ytick_11">
     <g id="line2d_21">
      <g>
       <use xlink:href="#mc8b32f570a" x="275.366332" y="94.29" style="fill: #262626; stroke: #262626"/>
      </g>
     </g>
    </g>
    <g id="ytick_12">
     <g id="line2d_22">
      <g>
       <use xlink:href="#mc8b32f570a" x="275.366332" y="67.516" style="fill: #262626; stroke: #262626"/>
      </g>
     </g>
    </g>
    <g id="ytick_13">
     <g id="line2d_23">
      <g>
       <use xlink:href="#mc8b32f570a" x="275.366332" y="40.742" style="fill: #262626; stroke: #262626"/>
      </g>
     </g>
    </g>
    <g id="ytick_14">
     <g id="line2d_24">
      <g>
       <use xlink:href="#mc8b32f570a" x="275.366332" y="13.968" style="fill: #262626; stroke: #262626"/>
      </g>
     </g>
    </g>
   </g>
   <g id="FillBetweenPolyCollection_3">
    <defs>
     <path id="m267ba909a1" d="M 284.657419 -97.131468 
L 284.657419 -41.388 
L 287.168524 -41.388 
L 289.679628 -41.388 
L 292.190733 -41.388 
L 294.701837 -41.388 
L 297.212942 -41.388 
L 299.724047 -41.388 
L 302.235151 -41.388 
L 304.746256 -41.388 
L 307.25736 -41.388 
L 309.768465 -41.388 
L 312.279569 -41.388 
L 314.790674 -41.388 
L 317.301779 -41.388 
L 319.812883 -41.388 
L 322.323988 -41.388 
L 324.835092 -41.388 
L 327.346197 -41.388 
L 329.857301 -41.388 
L 332.368406 -41.388 
L 334.87951 -41.388 
L 337.390615 -41.388 
L 339.90172 -41.388 
L 342.412824 -41.388 
L 344.923929 -41.388 
L 347.435033 -41.388 
L 349.946138 -41.388 
L 352.457242 -41.388 
L 354.968347 -41.388 
L 357.479451 -41.388 
L 359.990556 -41.388 
L 362.501661 -41.388 
L 365.012765 -41.388 
L 367.52387 -41.388 
L 370.034974 -41.388 
L 372.546079 -41.388 
L 375.057183 -41.388 
L 377.568288 -41.388 
L 380.079392 -41.388 
L 382.590497 -41.388 
L 385.101602 -41.388 
L 387.612706 -41.388 
L 390.123811 -41.388 
L 392.634915 -41.388 
L 395.14602 -41.388 
L 397.657124 -41.388 
L 400.168229 -41.388 
L 402.679333 -41.388 
L 405.190438 -41.388 
L 407.701543 -41.388 
L 410.212647 -41.388 
L 412.723752 -41.388 
L 415.234856 -41.388 
L 417.745961 -41.388 
L 420.257065 -41.388 
L 422.76817 -41.388 
L 425.279275 -41.388 
L 427.790379 -41.388 
L 430.301484 -41.388 
L 432.812588 -41.388 
L 435.323693 -41.388 
L 437.834797 -41.388 
L 440.345902 -41.388 
L 442.857006 -41.388 
L 445.368111 -41.388 
L 447.879216 -41.388 
L 450.39032 -41.388 
L 452.901425 -41.388 
L 455.412529 -41.388 
L 457.923634 -41.388 
L 460.434738 -41.388 
L 462.945843 -41.388 
L 465.456947 -41.388 
L 467.968052 -41.388 
L 470.479157 -41.388 
L 470.479157 -41.441548 
L 470.479157 -41.441548 
L 467.968052 -41.388 
L 465.456947 -41.388 
L 462.945843 -41.388 
L 460.434738 -41.495096 
L 457.923634 -41.388 
L 455.412529 -41.441548 
L 452.901425 -41.441548 
L 450.39032 -41.441548 
L 447.879216 -41.441548 
L 445.368111 -41.441548 
L 442.857006 -41.388 
L 440.345902 -41.548644 
L 437.834797 -41.441548 
L 435.323693 -41.548644 
L 432.812588 -41.441548 
L 430.301484 -41.495096 
L 427.790379 -41.548644 
L 425.279275 -41.495096 
L 422.76817 -41.441548 
L 420.257065 -41.548644 
L 417.745961 -41.495096 
L 415.234856 -42.030576 
L 412.723752 -41.977028 
L 410.212647 -41.977028 
L 407.701543 -41.977028 
L 405.190438 -42.512508 
L 402.679333 -42.405412 
L 400.168229 -42.619604 
L 397.657124 -42.7267 
L 395.14602 -42.99444 
L 392.634915 -43.26218 
L 390.123811 -44.172496 
L 387.612706 -44.279592 
L 385.101602 -45.4041 
L 382.590497 -45.993128 
L 380.079392 -46.046676 
L 377.568288 -46.582156 
L 375.057183 -48.402788 
L 372.546079 -48.88472 
L 370.034974 -50.437612 
L 367.52387 -52.36534 
L 365.012765 -53.329204 
L 362.501661 -54.560808 
L 359.990556 -56.970468 
L 357.479451 -57.613044 
L 354.968347 -57.18466 
L 352.457242 -59.219484 
L 349.946138 -58.25562 
L 347.435033 -58.25562 
L 344.923929 -59.273032 
L 342.412824 -60.343992 
L 339.90172 -60.290444 
L 337.390615 -56.488536 
L 334.87951 -55.953056 
L 332.368406 -56.006604 
L 329.857301 -55.203384 
L 327.346197 -55.792412 
L 324.835092 -53.650492 
L 322.323988 -53.275656 
L 319.812883 -51.56212 
L 317.301779 -52.525984 
L 314.790674 -52.36534 
L 312.279569 -53.757588 
L 309.768465 -53.115012 
L 307.25736 -51.240832 
L 304.746256 -50.812448 
L 302.235151 -51.776312 
L 299.724047 -52.258244 
L 297.212942 -52.258244 
L 294.701837 -52.258244 
L 292.190733 -51.990504 
L 289.679628 -53.275656 
L 287.168524 -55.364028 
L 284.657419 -97.131468 
z
" style="stroke: #228833; stroke-width: 0.8"/>
    </defs>
    <g clip-path="url(#paa27cad51f)">
     <use xlink:href="#m267ba909a1" x="0" y="216" style="fill: #228833; fill-opacity: 0.25; stroke: #228833; stroke-width: 0.8"/>
    </g>
   </g>
   <g id="FillBetweenPolyCollection_4">
    <defs>
     <path id="m4f4f8069d2" d="M 284.657419 -219.328004 
L 284.657419 -41.388 
L 287.168524 -41.388 
L 289.679628 -41.388 
L 292.190733 -41.388 
L 294.701837 -41.388 
L 297.212942 -41.388 
L 299.724047 -41.388 
L 302.235151 -41.388 
L 304.746256 -41.388 
L 307.25736 -41.388 
L 309.768465 -41.388 
L 312.279569 -41.388 
L 314.790674 -41.388 
L 317.301779 -41.388 
L 319.812883 -41.388 
L 322.323988 -41.388 
L 324.835092 -41.388 
L 327.346197 -41.388 
L 329.857301 -41.388 
L 332.368406 -41.388 
L 334.87951 -41.388 
L 337.390615 -41.388 
L 339.90172 -41.388 
L 342.412824 -41.388 
L 344.923929 -41.388 
L 347.435033 -41.388 
L 349.946138 -41.388 
L 352.457242 -41.388 
L 354.968347 -41.388 
L 357.479451 -41.388 
L 359.990556 -41.388 
L 362.501661 -41.388 
L 365.012765 -41.388 
L 367.52387 -41.388 
L 370.034974 -41.388 
L 372.546079 -41.388 
L 375.057183 -41.388 
L 377.568288 -41.388 
L 380.079392 -41.388 
L 382.590497 -41.388 
L 385.101602 -41.388 
L 387.612706 -41.388 
L 390.123811 -41.388 
L 392.634915 -41.388 
L 395.14602 -41.388 
L 397.657124 -41.388 
L 400.168229 -41.388 
L 402.679333 -41.388 
L 405.190438 -41.388 
L 407.701543 -41.388 
L 410.212647 -41.388 
L 412.723752 -41.388 
L 415.234856 -41.388 
L 417.745961 -41.388 
L 420.257065 -41.388 
L 422.76817 -41.388 
L 425.279275 -41.388 
L 427.790379 -41.388 
L 430.301484 -41.388 
L 432.812588 -41.388 
L 435.323693 -41.388 
L 437.834797 -41.388 
L 440.345902 -41.388 
L 442.857006 -41.388 
L 445.368111 -41.388 
L 447.879216 -41.388 
L 450.39032 -41.388 
L 452.901425 -41.388 
L 455.412529 -41.388 
L 457.923634 -41.388 
L 460.434738 -41.388 
L 462.945843 -41.388 
L 465.456947 -41.388 
L 467.968052 -41.388 
L 470.479157 -41.388 
L 470.479157 -41.388 
L 470.479157 -41.388 
L 467.968052 -41.388 
L 465.456947 -41.388 
L 462.945843 -41.388 
L 460.434738 -41.388 
L 457.923634 -41.388 
L 455.412529 -41.388 
L 452.901425 -41.388 
L 450.39032 -41.388 
L 447.879216 -41.388 
L 445.368111 -41.388 
L 442.857006 -41.388 
L 440.345902 -41.388 
L 437.834797 -41.495096 
L 435.323693 -41.441548 
L 432.812588 -41.388 
L 430.301484 -41.441548 
L 427.790379 -41.388 
L 425.279275 -41.388 
L 422.76817 -41.441548 
L 420.257065 -41.388 
L 417.745961 -41.495096 
L 415.234856 -41.388 
L 412.723752 -41.548644 
L 410.212647 -41.816384 
L 407.701543 -41.441548 
L 405.190438 -41.602192 
L 402.679333 -41.602192 
L 400.168229 -41.495096 
L 397.657124 -41.816384 
L 395.14602 -41.602192 
L 392.634915 -41.92348 
L 390.123811 -41.762836 
L 387.612706 -42.19122 
L 385.101602 -42.19122 
L 382.590497 -41.977028 
L 380.079392 -42.7267 
L 377.568288 -42.99444 
L 375.057183 -43.047988 
L 372.546079 -42.833796 
L 370.034974 -43.422824 
L 367.52387 -43.637016 
L 365.012765 -43.744112 
L 362.501661 -44.172496 
L 359.990556 -44.493784 
L 357.479451 -45.67184 
L 354.968347 -45.725388 
L 352.457242 -45.832484 
L 349.946138 -45.511196 
L 347.435033 -46.421512 
L 344.923929 -47.492472 
L 342.412824 -46.421512 
L 339.90172 -47.920856 
L 337.390615 -46.7428 
L 334.87951 -47.27828 
L 332.368406 -48.295692 
L 329.857301 -48.61698 
L 327.346197 -48.938268 
L 324.835092 -49.4202 
L 322.323988 -48.777624 
L 319.812883 -49.473748 
L 317.301779 -51.02664 
L 314.790674 -51.776312 
L 312.279569 -51.455024 
L 309.768465 -53.007916 
L 307.25736 -53.061464 
L 304.746256 -54.935644 
L 302.235151 -55.899508 
L 299.724047 -58.951744 
L 297.212942 -60.772376 
L 294.701837 -63.771064 
L 292.190733 -66.662656 
L 289.679628 -76.836776 
L 287.168524 -92.954724 
L 284.657419 -219.328004 
z
" style="stroke: #66ccee; stroke-width: 0.8"/>
    </defs>
    <g clip-path="url(#paa27cad51f)">
     <use xlink:href="#m4f4f8069d2" x="0" y="216" style="fill: #66ccee; fill-opacity: 0.25; stroke: #66ccee; stroke-width: 0.8"/>
    </g>
   </g>
   <g id="patch_8">
    <path d="M 275.366332 174.612 
L 275.366332 13.968 
" style="fill: none; stroke: #262626; stroke-linejoin: miter; stroke-linecap: square"/>
   </g>
   <g id="patch_9">
    <path d="M 479.770243 174.612 
L 479.770243 13.968 
" style="fill: none; stroke: #262626; stroke-linejoin: miter; stroke-linecap: square"/>
   </g>
   <g id="patch_10">
    <path d="M 275.366332 174.612 
L 479.770243 174.612 
" style="fill: none; stroke: #262626; stroke-linejoin: miter; stroke-linecap: square"/>
   </g>
   <g id="patch_11">
    <path d="M 275.366332 13.968 
L 479.770243 13.968 
" style="fill: none; stroke: #262626; stroke-linejoin: miter; stroke-linecap: square"/>
   </g>
  </g>
  <g id="axes_3">
   <g id="patch_12">
    <path d="M 496.294665 174.612 
L 700.698576 174.612 
L 700.698576 13.968 
L 496.294665 13.968 
L 496.294665 174.612 
z
" style="fill: none"/>
   </g>
   <g id="matplotlib.axis_5">
    <g id="xtick_11">
     <g id="line2d_25">
      <g>
       <use xlink:href="#m43ca936681" x="504.263914" y="174.612" style="fill: #262626; stroke: #262626"/>
      </g>
     </g>
     <g id="text_21">
      <!-- 0.0000 -->
      <g style="fill: #262626" transform="translate(488.868039 189.598625) scale(0.088 -0.088)">
       <use xlink:href="#DejaVuSans-30"/>
       <use xlink:href="#DejaVuSans-2e" transform="translate(63.623047 0)"/>
       <use xlink:href="#DejaVuSans-30" transform="translate(95.410156 0)"/>
       <use xlink:href="#DejaVuSans-30" transform="translate(159.033203 0)"/>
       <use xlink:href="#DejaVuSans-30" transform="translate(222.65625 0)"/>
       <use xlink:href="#DejaVuSans-30" transform="translate(286.279297 0)"/>
      </g>
     </g>
    </g>
    <g id="xtick_12">
     <g id="line2d_26">
      <g>
       <use xlink:href="#m43ca936681" x="536.241922" y="174.612" style="fill: #262626; stroke: #262626"/>
      </g>
     </g>
     <g id="text_22">
      <!-- 0.0025 -->
      <g style="fill: #262626" transform="translate(520.846047 189.598625) scale(0.088 -0.088)">
       <use xlink:href="#DejaVuSans-30"/>
       <use xlink:href="#DejaVuSans-2e" transform="translate(63.623047 0)"/>
       <use xlink:href="#DejaVuSans-30" transform="translate(95.410156 0)"/>
       <use xlink:href="#DejaVuSans-30" transform="translate(159.033203 0)"/>
       <use xlink:href="#DejaVuSans-32" transform="translate(222.65625 0)"/>
       <use xlink:href="#DejaVuSans-35" transform="translate(286.279297 0)"/>
      </g>
     </g>
    </g>
    <g id="xtick_13">
     <g id="line2d_27">
      <g>
       <use xlink:href="#m43ca936681" x="568.219929" y="174.612" style="fill: #262626; stroke: #262626"/>
      </g>
     </g>
     <g id="text_23">
      <!-- 0.0050 -->
      <g style="fill: #262626" transform="translate(552.824054 189.598625) scale(0.088 -0.088)">
       <use xlink:href="#DejaVuSans-30"/>
       <use xlink:href="#DejaVuSans-2e" transform="translate(63.623047 0)"/>
       <use xlink:href="#DejaVuSans-30" transform="translate(95.410156 0)"/>
       <use xlink:href="#DejaVuSans-30" transform="translate(159.033203 0)"/>
       <use xlink:href="#DejaVuSans-35" transform="translate(222.65625 0)"/>
       <use xlink:href="#DejaVuSans-30" transform="translate(286.279297 0)"/>
      </g>
     </g>
    </g>
    <g id="xtick_14">
     <g id="line2d_28">
      <g>
       <use xlink:href="#m43ca936681" x="600.197937" y="174.612" style="fill: #262626; stroke: #262626"/>
      </g>
     </g>
     <g id="text_24">
      <!-- 0.0075 -->
      <g style="fill: #262626" transform="translate(584.802062 189.598625) scale(0.088 -0.088)">
       <defs>
        <path id="DejaVuSans-37" d="M 525 4666 
L 3525 4666 
L 3525 4397 
L 1831 0 
L 1172 0 
L 2766 4134 
L 525 4134 
L 525 4666 
z
" transform="scale(0.015625)"/>
       </defs>
       <use xlink:href="#DejaVuSans-30"/>
       <use xlink:href="#DejaVuSans-2e" transform="translate(63.623047 0)"/>
       <use xlink:href="#DejaVuSans-30" transform="translate(95.410156 0)"/>
       <use xlink:href="#DejaVuSans-30" transform="translate(159.033203 0)"/>
       <use xlink:href="#DejaVuSans-37" transform="translate(222.65625 0)"/>
       <use xlink:href="#DejaVuSans-35" transform="translate(286.279297 0)"/>
      </g>
     </g>
    </g>
    <g id="xtick_15">
     <g id="line2d_29">
      <g>
       <use xlink:href="#m43ca936681" x="632.175944" y="174.612" style="fill: #262626; stroke: #262626"/>
      </g>
     </g>
     <g id="text_25">
      <!-- 0.0100 -->
      <g style="fill: #262626" transform="translate(616.780069 189.598625) scale(0.088 -0.088)">
       <use xlink:href="#DejaVuSans-30"/>
       <use xlink:href="#DejaVuSans-2e" transform="translate(63.623047 0)"/>
       <use xlink:href="#DejaVuSans-30" transform="translate(95.410156 0)"/>
       <use xlink:href="#DejaVuSans-31" transform="translate(159.033203 0)"/>
       <use xlink:href="#DejaVuSans-30" transform="translate(222.65625 0)"/>
       <use xlink:href="#DejaVuSans-30" transform="translate(286.279297 0)"/>
      </g>
     </g>
    </g>
    <g id="xtick_16">
     <g id="line2d_30">
      <g>
       <use xlink:href="#m43ca936681" x="664.153951" y="174.612" style="fill: #262626; stroke: #262626"/>
      </g>
     </g>
     <g id="text_26">
      <!-- 0.0125 -->
      <g style="fill: #262626" transform="translate(648.758076 189.598625) scale(0.088 -0.088)">
       <use xlink:href="#DejaVuSans-30"/>
       <use xlink:href="#DejaVuSans-2e" transform="translate(63.623047 0)"/>
       <use xlink:href="#DejaVuSans-30" transform="translate(95.410156 0)"/>
       <use xlink:href="#DejaVuSans-31" transform="translate(159.033203 0)"/>
       <use xlink:href="#DejaVuSans-32" transform="translate(222.65625 0)"/>
       <use xlink:href="#DejaVuSans-35" transform="translate(286.279297 0)"/>
      </g>
     </g>
    </g>
    <g id="xtick_17">
     <g id="line2d_31">
      <g>
       <use xlink:href="#m43ca936681" x="696.131959" y="174.612" style="fill: #262626; stroke: #262626"/>
      </g>
     </g>
     <g id="text_27">
      <!-- 0.0150 -->
      <g style="fill: #262626" transform="translate(680.736084 189.598625) scale(0.088 -0.088)">
       <use xlink:href="#DejaVuSans-30"/>
       <use xlink:href="#DejaVuSans-2e" transform="translate(63.623047 0)"/>
       <use xlink:href="#DejaVuSans-30" transform="translate(95.410156 0)"/>
       <use xlink:href="#DejaVuSans-31" transform="translate(159.033203 0)"/>
       <use xlink:href="#DejaVuSans-35" transform="translate(222.65625 0)"/>
       <use xlink:href="#DejaVuSans-30" transform="translate(286.279297 0)"/>
      </g>
     </g>
    </g>
    <g id="text_28">
     <!-- Average confirmation probability -->
     <g style="fill: #262626" transform="translate(519.78337 202.72325) scale(0.096 -0.096)">
      <defs>
       <path id="DejaVuSans-76" d="M 191 3500 
L 800 3500 
L 1894 563 
L 2988 3500 
L 3597 3500 
L 2284 0 
L 1503 0 
L 191 3500 
z
" transform="scale(0.015625)"/>
       <path id="DejaVuSans-67" d="M 2906 1791 
Q 2906 2416 2648 2759 
Q 2391 3103 1925 3103 
Q 1463 3103 1205 2759 
Q 947 2416 947 1791 
Q 947 1169 1205 825 
Q 1463 481 1925 481 
Q 2391 481 2648 825 
Q 2906 1169 2906 1791 
z
M 3481 434 
Q 3481 -459 3084 -895 
Q 2688 -1331 1869 -1331 
Q 1566 -1331 1297 -1286 
Q 1028 -1241 775 -1147 
L 775 -588 
Q 1028 -725 1275 -790 
Q 1522 -856 1778 -856 
Q 2344 -856 2625 -561 
Q 2906 -266 2906 331 
L 2906 616 
Q 2728 306 2450 153 
Q 2172 0 1784 0 
Q 1141 0 747 490 
Q 353 981 353 1791 
Q 353 2603 747 3093 
Q 1141 3584 1784 3584 
Q 2172 3584 2450 3431 
Q 2728 3278 2906 2969 
L 2906 3500 
L 3481 3500 
L 3481 434 
z
" transform="scale(0.015625)"/>
       <path id="DejaVuSans-63" d="M 3122 3366 
L 3122 2828 
Q 2878 2963 2633 3030 
Q 2388 3097 2138 3097 
Q 1578 3097 1268 2742 
Q 959 2388 959 1747 
Q 959 1106 1268 751 
Q 1578 397 2138 397 
Q 2388 397 2633 464 
Q 2878 531 3122 666 
L 3122 134 
Q 2881 22 2623 -34 
Q 2366 -91 2075 -91 
Q 1284 -91 818 406 
Q 353 903 353 1747 
Q 353 2603 823 3093 
Q 1294 3584 2113 3584 
Q 2378 3584 2631 3529 
Q 2884 3475 3122 3366 
z
" transform="scale(0.015625)"/>
       <path id="DejaVuSans-62" d="M 3116 1747 
Q 3116 2381 2855 2742 
Q 2594 3103 2138 3103 
Q 1681 3103 1420 2742 
Q 1159 2381 1159 1747 
Q 1159 1113 1420 752 
Q 1681 391 2138 391 
Q 2594 391 2855 752 
Q 3116 1113 3116 1747 
z
M 1159 2969 
Q 1341 3281 1617 3432 
Q 1894 3584 2278 3584 
Q 2916 3584 3314 3078 
Q 3713 2572 3713 1747 
Q 3713 922 3314 415 
Q 2916 -91 2278 -91 
Q 1894 -91 1617 61 
Q 1341 213 1159 525 
L 1159 0 
L 581 0 
L 581 4863 
L 1159 4863 
L 1159 2969 
z
" transform="scale(0.015625)"/>
       <path id="DejaVuSans-79" d="M 2059 -325 
Q 1816 -950 1584 -1140 
Q 1353 -1331 966 -1331 
L 506 -1331 
L 506 -850 
L 844 -850 
Q 1081 -850 1212 -737 
Q 1344 -625 1503 -206 
L 1606 56 
L 191 3500 
L 800 3500 
L 1894 763 
L 2988 3500 
L 3597 3500 
L 2059 -325 
z
" transform="scale(0.015625)"/>
      </defs>
      <use xlink:href="#DejaVuSans-41"/>
      <use xlink:href="#DejaVuSans-76" transform="translate(62.533203 0)"/>
      <use xlink:href="#DejaVuSans-65" transform="translate(121.712891 0)"/>
      <use xlink:href="#DejaVuSans-72" transform="translate(183.236328 0)"/>
      <use xlink:href="#DejaVuSans-61" transform="translate(224.349609 0)"/>
      <use xlink:href="#DejaVuSans-67" transform="translate(285.628906 0)"/>
      <use xlink:href="#DejaVuSans-65" transform="translate(349.105469 0)"/>
      <use xlink:href="#DejaVuSans-20" transform="translate(410.628906 0)"/>
      <use xlink:href="#DejaVuSans-63" transform="translate(442.416016 0)"/>
      <use xlink:href="#DejaVuSans-6f" transform="translate(497.396484 0)"/>
      <use xlink:href="#DejaVuSans-6e" transform="translate(558.578125 0)"/>
      <use xlink:href="#DejaVuSans-66" transform="translate(621.957031 0)"/>
      <use xlink:href="#DejaVuSans-69" transform="translate(657.162109 0)"/>
      <use xlink:href="#DejaVuSans-72" transform="translate(684.945312 0)"/>
      <use xlink:href="#DejaVuSans-6d" transform="translate(724.308594 0)"/>
      <use xlink:href="#DejaVuSans-61" transform="translate(821.720703 0)"/>
      <use xlink:href="#DejaVuSans-74" transform="translate(883 0)"/>
      <use xlink:href="#DejaVuSans-69" transform="translate(922.208984 0)"/>
      <use xlink:href="#DejaVuSans-6f" transform="translate(949.992188 0)"/>
      <use xlink:href="#DejaVuSans-6e" transform="translate(1011.173828 0)"/>
      <use xlink:href="#DejaVuSans-20" transform="translate(1074.552734 0)"/>
      <use xlink:href="#DejaVuSans-70" transform="translate(1106.339844 0)"/>
      <use xlink:href="#DejaVuSans-72" transform="translate(1169.816406 0)"/>
      <use xlink:href="#DejaVuSans-6f" transform="translate(1208.679688 0)"/>
      <use xlink:href="#DejaVuSans-62" transform="translate(1269.861328 0)"/>
      <use xlink:href="#DejaVuSans-61" transform="translate(1333.337891 0)"/>
      <use xlink:href="#DejaVuSans-62" transform="translate(1394.617188 0)"/>
      <use xlink:href="#DejaVuSans-69" transform="translate(1458.09375 0)"/>
      <use xlink:href="#DejaVuSans-6c" transform="translate(1485.876953 0)"/>
      <use xlink:href="#DejaVuSans-69" transform="translate(1513.660156 0)"/>
      <use xlink:href="#DejaVuSans-74" transform="translate(1541.443359 0)"/>
      <use xlink:href="#DejaVuSans-79" transform="translate(1580.652344 0)"/>
     </g>
    </g>
   </g>
   <g id="matplotlib.axis_6">
    <g id="ytick_15">
     <g id="line2d_32">
      <g>
       <use xlink:href="#mc8b32f570a" x="496.294665" y="174.612" style="fill: #262626; stroke: #262626"/>
      </g>
     </g>
    </g>
    <g id="ytick_16">
     <g id="line2d_33">
      <g>
       <use xlink:href="#mc8b32f570a" x="496.294665" y="147.838" style="fill: #262626; stroke: #262626"/>
      </g>
     </g>
    </g>
    <g id="ytick_17">
     <g id="line2d_34">
      <g>
       <use xlink:href="#mc8b32f570a" x="496.294665" y="121.064" style="fill: #262626; stroke: #262626"/>
      </g>
     </g>
    </g>
    <g id="ytick_18">
     <g id="line2d_35">
      <g>
       <use xlink:href="#mc8b32f570a" x="496.294665" y="94.29" style="fill: #262626; stroke: #262626"/>
      </g>
     </g>
    </g>
    <g id="ytick_19">
     <g id="line2d_36">
      <g>
       <use xlink:href="#mc8b32f570a" x="496.294665" y="67.516" style="fill: #262626; stroke: #262626"/>
      </g>
     </g>
    </g>
    <g id="ytick_20">
     <g id="line2d_37">
      <g>
       <use xlink:href="#mc8b32f570a" x="496.294665" y="40.742" style="fill: #262626; stroke: #262626"/>
      </g>
     </g>
    </g>
    <g id="ytick_21">
     <g id="line2d_38">
      <g>
       <use xlink:href="#mc8b32f570a" x="496.294665" y="13.968" style="fill: #262626; stroke: #262626"/>
      </g>
     </g>
    </g>
   </g>
   <g id="FillBetweenPolyCollection_5">
    <defs>
     <path id="mb8013cce12" d="M 505.585752 -93.704396 
L 505.585752 -41.388 
L 508.096856 -41.388 
L 510.607961 -41.388 
L 513.119065 -41.388 
L 515.63017 -41.388 
L 518.141274 -41.388 
L 520.652379 -41.388 
L 523.163484 -41.388 
L 525.674588 -41.388 
L 528.185693 -41.388 
L 530.696797 -41.388 
L 533.207902 -41.388 
L 535.719006 -41.388 
L 538.230111 -41.388 
L 540.741215 -41.388 
L 543.25232 -41.388 
L 545.763425 -41.388 
L 548.274529 -41.388 
L 550.785634 -41.388 
L 553.296738 -41.388 
L 555.807843 -41.388 
L 558.318947 -41.388 
L 560.830052 -41.388 
L 563.341157 -41.388 
L 565.852261 -41.388 
L 568.363366 -41.388 
L 570.87447 -41.388 
L 573.385575 -41.388 
L 575.896679 -41.388 
L 578.407784 -41.388 
L 580.918888 -41.388 
L 583.429993 -41.388 
L 585.941098 -41.388 
L 588.452202 -41.388 
L 590.963307 -41.388 
L 593.474411 -41.388 
L 595.985516 -41.388 
L 598.49662 -41.388 
L 601.007725 -41.388 
L 603.518829 -41.388 
L 606.029934 -41.388 
L 608.541039 -41.388 
L 611.052143 -41.388 
L 613.563248 -41.388 
L 616.074352 -41.388 
L 618.585457 -41.388 
L 621.096561 -41.388 
L 623.607666 -41.388 
L 626.11877 -41.388 
L 628.629875 -41.388 
L 631.14098 -41.388 
L 633.652084 -41.388 
L 636.163189 -41.388 
L 638.674293 -41.388 
L 641.185398 -41.388 
L 643.696502 -41.388 
L 646.207607 -41.388 
L 648.718711 -41.388 
L 651.229816 -41.388 
L 653.740921 -41.388 
L 656.252025 -41.388 
L 658.76313 -41.388 
L 661.274234 -41.388 
L 663.785339 -41.388 
L 666.296443 -41.388 
L 668.807548 -41.388 
L 671.318652 -41.388 
L 673.829757 -41.388 
L 676.340862 -41.388 
L 678.851966 -41.388 
L 681.363071 -41.388 
L 683.874175 -41.388 
L 686.38528 -41.388 
L 688.896384 -41.388 
L 691.407489 -41.388 
L 691.407489 -41.441548 
L 691.407489 -41.441548 
L 688.896384 -41.388 
L 686.38528 -41.388 
L 683.874175 -41.388 
L 681.363071 -41.388 
L 678.851966 -41.388 
L 676.340862 -41.388 
L 673.829757 -41.388 
L 671.318652 -41.441548 
L 668.807548 -41.388 
L 666.296443 -41.441548 
L 663.785339 -41.495096 
L 661.274234 -41.388 
L 658.76313 -41.441548 
L 656.252025 -41.388 
L 653.740921 -41.388 
L 651.229816 -41.441548 
L 648.718711 -41.441548 
L 646.207607 -41.495096 
L 643.696502 -41.388 
L 641.185398 -41.441548 
L 638.674293 -41.602192 
L 636.163189 -41.495096 
L 633.652084 -41.548644 
L 631.14098 -41.548644 
L 628.629875 -41.495096 
L 626.11877 -41.65574 
L 623.607666 -41.602192 
L 621.096561 -41.762836 
L 618.585457 -41.816384 
L 616.074352 -42.030576 
L 613.563248 -42.137672 
L 611.052143 -42.351864 
L 608.541039 -42.7267 
L 606.029934 -42.7267 
L 603.518829 -43.52992 
L 601.007725 -43.744112 
L 598.49662 -44.0654 
L 595.985516 -44.440236 
L 593.474411 -44.815072 
L 590.963307 -45.993128 
L 588.452202 -46.796348 
L 585.941098 -47.599568 
L 583.429993 -49.259556 
L 580.918888 -50.384064 
L 578.407784 -52.044052 
L 575.896679 -52.36534 
L 573.385575 -55.256932 
L 570.87447 -57.291756 
L 568.363366 -57.291756 
L 565.852261 -60.93302 
L 563.341157 -60.236896 
L 560.830052 -62.057528 
L 558.318947 -63.128488 
L 555.807843 -63.503324 
L 553.296738 -66.876848 
L 550.785634 -66.394916 
L 548.274529 -66.28782 
L 545.763425 -64.895572 
L 543.25232 -61.414952 
L 540.741215 -58.684004 
L 538.230111 -60.290444 
L 535.719006 -57.18466 
L 533.207902 -55.149836 
L 530.696797 -53.543396 
L 528.185693 -52.579532 
L 525.674588 -52.472436 
L 523.163484 -50.919544 
L 520.652379 -50.116324 
L 518.141274 -48.777624 
L 515.63017 -49.4202 
L 513.119065 -50.49116 
L 510.607961 -50.7589 
L 508.096856 -51.56212 
L 505.585752 -93.704396 
z
" style="stroke: #228833; stroke-width: 0.8"/>
    </defs>
    <g clip-path="url(#p82f1ee8ca2)">
     <use xlink:href="#mb8013cce12" x="0" y="216" style="fill: #228833; fill-opacity: 0.25; stroke: #228833; stroke-width: 0.8"/>
    </g>
   </g>
   <g id="FillBetweenPolyCollection_6">
    <defs>
     <path id="mac4ef77820" d="M 505.585752 -178.47088 
L 505.585752 -41.388 
L 508.096856 -41.388 
L 510.607961 -41.388 
L 513.119065 -41.388 
L 515.63017 -41.388 
L 518.141274 -41.388 
L 520.652379 -41.388 
L 523.163484 -41.388 
L 525.674588 -41.388 
L 528.185693 -41.388 
L 530.696797 -41.388 
L 533.207902 -41.388 
L 535.719006 -41.388 
L 538.230111 -41.388 
L 540.741215 -41.388 
L 543.25232 -41.388 
L 545.763425 -41.388 
L 548.274529 -41.388 
L 550.785634 -41.388 
L 553.296738 -41.388 
L 555.807843 -41.388 
L 558.318947 -41.388 
L 560.830052 -41.388 
L 563.341157 -41.388 
L 565.852261 -41.388 
L 568.363366 -41.388 
L 570.87447 -41.388 
L 573.385575 -41.388 
L 575.896679 -41.388 
L 578.407784 -41.388 
L 580.918888 -41.388 
L 583.429993 -41.388 
L 585.941098 -41.388 
L 588.452202 -41.388 
L 590.963307 -41.388 
L 593.474411 -41.388 
L 595.985516 -41.388 
L 598.49662 -41.388 
L 601.007725 -41.388 
L 603.518829 -41.388 
L 606.029934 -41.388 
L 608.541039 -41.388 
L 611.052143 -41.388 
L 613.563248 -41.388 
L 616.074352 -41.388 
L 618.585457 -41.388 
L 621.096561 -41.388 
L 623.607666 -41.388 
L 626.11877 -41.388 
L 628.629875 -41.388 
L 631.14098 -41.388 
L 633.652084 -41.388 
L 636.163189 -41.388 
L 638.674293 -41.388 
L 641.185398 -41.388 
L 643.696502 -41.388 
L 646.207607 -41.388 
L 648.718711 -41.388 
L 651.229816 -41.388 
L 653.740921 -41.388 
L 656.252025 -41.388 
L 658.76313 -41.388 
L 661.274234 -41.388 
L 663.785339 -41.388 
L 666.296443 -41.388 
L 668.807548 -41.388 
L 671.318652 -41.388 
L 673.829757 -41.388 
L 676.340862 -41.388 
L 678.851966 -41.388 
L 681.363071 -41.388 
L 683.874175 -41.388 
L 686.38528 -41.388 
L 688.896384 -41.388 
L 691.407489 -41.388 
L 691.407489 -41.388 
L 691.407489 -41.388 
L 688.896384 -41.388 
L 686.38528 -41.388 
L 683.874175 -41.388 
L 681.363071 -41.388 
L 678.851966 -41.388 
L 676.340862 -41.388 
L 673.829757 -41.388 
L 671.318652 -41.388 
L 668.807548 -41.388 
L 666.296443 -41.388 
L 663.785339 -41.441548 
L 661.274234 -41.388 
L 658.76313 -41.388 
L 656.252025 -41.388 
L 653.740921 -41.388 
L 651.229816 -41.388 
L 648.718711 -41.388 
L 646.207607 -41.495096 
L 643.696502 -41.441548 
L 641.185398 -41.441548 
L 638.674293 -41.441548 
L 636.163189 -41.548644 
L 633.652084 -41.548644 
L 631.14098 -41.602192 
L 628.629875 -41.548644 
L 626.11877 -41.548644 
L 623.607666 -41.548644 
L 621.096561 -41.602192 
L 618.585457 -41.816384 
L 616.074352 -41.548644 
L 613.563248 -41.65574 
L 611.052143 -41.762836 
L 608.541039 -42.030576 
L 606.029934 -42.19122 
L 603.518829 -41.977028 
L 601.007725 -42.45896 
L 598.49662 -42.833796 
L 595.985516 -42.512508 
L 593.474411 -42.673152 
L 590.963307 -43.369276 
L 588.452202 -43.690564 
L 585.941098 -43.79766 
L 583.429993 -44.118948 
L 580.918888 -44.279592 
L 578.407784 -44.386688 
L 575.896679 -45.93958 
L 573.385575 -47.385376 
L 570.87447 -47.974404 
L 568.363366 -47.54602 
L 565.852261 -48.670528 
L 563.341157 -49.580844 
L 560.830052 -49.68794 
L 558.318947 -50.544708 
L 555.807843 -50.116324 
L 553.296738 -51.82986 
L 550.785634 -51.82986 
L 548.274529 -52.258244 
L 545.763425 -52.525984 
L 543.25232 -51.936956 
L 540.741215 -53.16856 
L 538.230111 -52.63308 
L 535.719006 -53.222108 
L 533.207902 -52.418888 
L 530.696797 -54.828548 
L 528.185693 -54.721452 
L 525.674588 -56.220796 
L 523.163484 -57.613044 
L 520.652379 -59.219484 
L 518.141274 -61.20076 
L 515.63017 -62.325268 
L 513.119065 -69.554248 
L 510.607961 -73.730992 
L 508.096856 -89.259912 
L 505.585752 -178.47088 
z
" style="stroke: #66ccee; stroke-width: 0.8"/>
    </defs>
    <g clip-path="url(#p82f1ee8ca2)">
     <use xlink:href="#mac4ef77820" x="0" y="216" style="fill: #66ccee; fill-opacity: 0.25; stroke: #66ccee; stroke-width: 0.8"/>
    </g>
   </g>
   <g id="patch_13">
    <path d="M 496.294665 174.612 
L 496.294665 13.968 
" style="fill: none; stroke: #262626; stroke-linejoin: miter; stroke-linecap: square"/>
   </g>
   <g id="patch_14">
    <path d="M 700.698576 174.612 
L 700.698576 13.968 
" style="fill: none; stroke: #262626; stroke-linejoin: miter; stroke-linecap: square"/>
   </g>
   <g id="patch_15">
    <path d="M 496.294665 174.612 
L 700.698576 174.612 
" style="fill: none; stroke: #262626; stroke-linejoin: miter; stroke-linecap: square"/>
   </g>
   <g id="patch_16">
    <path d="M 496.294665 13.968 
L 700.698576 13.968 
" style="fill: none; stroke: #262626; stroke-linejoin: miter; stroke-linecap: square"/>
   </g>
   <g id="legend_1">
    <g id="patch_17">
     <path d="M 626.674076 60.5325 
L 694.538576 60.5325 
Q 696.298576 60.5325 696.298576 58.7725 
L 696.298576 20.128 
Q 696.298576 18.368 694.538576 18.368 
L 626.674076 18.368 
Q 624.914076 18.368 624.914076 20.128 
L 624.914076 58.7725 
Q 624.914076 60.5325 626.674076 60.5325 
z
" style="fill: #ffffff; opacity: 0.8; stroke: #cccccc; stroke-width: 0.8; stroke-linejoin: miter"/>
    </g>
    <g id="text_29">
     <!-- SAT -->
     <g style="fill: #262626" transform="translate(651.625826 29.1825) scale(0.096 -0.096)">
      <defs>
       <path id="DejaVuSans-53" d="M 3425 4513 
L 3425 3897 
Q 3066 4069 2747 4153 
Q 2428 4238 2131 4238 
Q 1616 4238 1336 4038 
Q 1056 3838 1056 3469 
Q 1056 3159 1242 3001 
Q 1428 2844 1947 2747 
L 2328 2669 
Q 3034 2534 3370 2195 
Q 3706 1856 3706 1288 
Q 3706 609 3251 259 
Q 2797 -91 1919 -91 
Q 1588 -91 1214 -16 
Q 841 59 441 206 
L 441 856 
Q 825 641 1194 531 
Q 1563 422 1919 422 
Q 2459 422 2753 634 
Q 3047 847 3047 1241 
Q 3047 1584 2836 1778 
Q 2625 1972 2144 2069 
L 1759 2144 
Q 1053 2284 737 2584 
Q 422 2884 422 3419 
Q 422 4038 858 4394 
Q 1294 4750 2059 4750 
Q 2388 4750 2728 4690 
Q 3069 4631 3425 4513 
z
" transform="scale(0.015625)"/>
      </defs>
      <use xlink:href="#DejaVuSans-53"/>
      <use xlink:href="#DejaVuSans-41" transform="translate(65.351562 0)"/>
      <use xlink:href="#DejaVuSans-54" transform="translate(126.009766 0)"/>
     </g>
    </g>
    <g id="patch_18">
     <path d="M 628.434076 42.265625 
L 646.034076 42.265625 
L 646.034076 36.105625 
L 628.434076 36.105625 
z
" style="fill: #66ccee; fill-opacity: 0.25; stroke: #66ccee; stroke-width: 0.8; stroke-linejoin: miter"/>
    </g>
    <g id="text_30">
     <!-- speed -->
     <g style="fill: #262626" transform="translate(653.074076 42.265625) scale(0.088 -0.088)">
      <defs>
       <path id="DejaVuSans-64" d="M 2906 2969 
L 2906 4863 
L 3481 4863 
L 3481 0 
L 2906 0 
L 2906 525 
Q 2725 213 2448 61 
Q 2172 -91 1784 -91 
Q 1150 -91 751 415 
Q 353 922 353 1747 
Q 353 2572 751 3078 
Q 1150 3584 1784 3584 
Q 2172 3584 2448 3432 
Q 2725 3281 2906 2969 
z
M 947 1747 
Q 947 1113 1208 752 
Q 1469 391 1925 391 
Q 2381 391 2643 752 
Q 2906 1113 2906 1747 
Q 2906 2381 2643 2742 
Q 2381 3103 1925 3103 
Q 1469 3103 1208 2742 
Q 947 2381 947 1747 
z
" transform="scale(0.015625)"/>
      </defs>
      <use xlink:href="#DejaVuSans-73"/>
      <use xlink:href="#DejaVuSans-70" transform="translate(52.099609 0)"/>
      <use xlink:href="#DejaVuSans-65" transform="translate(115.576172 0)"/>
      <use xlink:href="#DejaVuSans-65" transform="translate(177.099609 0)"/>
      <use xlink:href="#DejaVuSans-64" transform="translate(238.623047 0)"/>
     </g>
    </g>
    <g id="patch_19">
     <path d="M 628.434076 55.182375 
L 646.034076 55.182375 
L 646.034076 49.022375 
L 628.434076 49.022375 
z
" style="fill: #228833; fill-opacity: 0.25; stroke: #228833; stroke-width: 0.8; stroke-linejoin: miter"/>
    </g>
    <g id="text_31">
     <!-- accuracy -->
     <g style="fill: #262626" transform="translate(653.074076 55.182375) scale(0.088 -0.088)">
      <use xlink:href="#DejaVuSans-61"/>
      <use xlink:href="#DejaVuSans-63" transform="translate(61.279297 0)"/>
      <use xlink:href="#DejaVuSans-63" transform="translate(116.259766 0)"/>
      <use xlink:href="#DejaVuSans-75" transform="translate(171.240234 0)"/>
      <use xlink:href="#DejaVuSans-72" transform="translate(234.619141 0)"/>
      <use xlink:href="#DejaVuSans-61" transform="translate(275.732422 0)"/>
      <use xlink:href="#DejaVuSans-63" transform="translate(337.011719 0)"/>
      <use xlink:href="#DejaVuSans-79" transform="translate(391.992188 0)"/>
     </g>
    </g>
   </g>
  </g>
 </g>
 <defs>
  <clipPath id="pe7fc468118">
   <rect x="54.438" y="13.968" width="204.403911" height="160.644"/>
  </clipPath>
  <clipPath id="paa27cad51f">
   <rect x="275.366332" y="13.968" width="204.403911" height="160.644"/>
  </clipPath>
  <clipPath id="p82f1ee8ca2">
   <rect x="496.294665" y="13.968" width="204.403911" height="160.644"/>
  </clipPath>
 </defs>
</svg>
