<?xml version="1.0" encoding="utf-8" standalone="no"?>
<!DOCTYPE svg PUBLIC "-//W3C//DTD SVG 1.1//EN"
  "http://www.w3.org/Graphics/SVG/1.1/DTD/svg11.dtd">
<svg xmlns:xlink="http://www.w3.org/1999/xlink" width="460.8pt" height="345.6pt" viewBox="0 0 460.8 345.6" xmlns="http://www.w3.org/2000/svg" version="1.1">
 <metadata>
  <rdf:RDF xmlns:dc="http://purl.org/dc/elements/1.1/" xmlns:cc="http://creativecommons.org/ns#" xmlns:rdf="http://www.w3.org/1999/02/22-rdf-syntax-ns#">
   <cc:Work>
    <dc:type rdf:resource="http://purl.org/dc/dcmitype/StillImage"/>
    <dc:date>2024-12-13T10:13:34.444809</dc:date>
    <dc:format>image/svg+xml</dc:format>
    <dc:creator>
     <cc:Agent>
      <dc:title>Matplotlib v3.9.2, https://matplotlib.org/</dc:title>
     </cc:Agent>
    </dc:creator>
   </cc:Work>
  </rdf:RDF>
 </metadata>
 <defs>
  <style type="text/css">*{stroke-linejoin: round; stroke-linecap: butt}</style>
 </defs>
 <g id="figure_1">
  <g id="patch_1">
   <path d="M 0 345.6 
L 460.8 345.6 
L 460.8 0 
L 0 0 
L 0 345.6 
z
" style="fill: none"/>
  </g>
  <g id="axes_1">
   <g id="patch_2">
    <path d="M 78.396 76.52385 
L 450.432 76.52385 
L 450.432 10.368 
L 78.396 10.368 
L 78.396 76.52385 
z
" style="fill: none"/>
   </g>
   <g id="matplotlib.axis_1">
    <g id="xtick_1">
     <g id="line2d_1">
      <defs>
       <path id="m1708e55b96" d="M 0 0 
L 0 4.8 
" style="stroke: #262626"/>
      </defs>
      <g>
       <use xlink:href="#m1708e55b96" x="95.306727" y="76.52385" style="fill: #262626; stroke: #262626"/>
      </g>
     </g>
     <g id="text_1">
      <!-- 0 -->
      <g style="fill: #262626" transform="translate(92.507227 91.510475) scale(0.088 -0.088)">
       <defs>
        <path id="DejaVuSans-30" d="M 2034 4250 
Q 1547 4250 1301 3770 
Q 1056 3291 1056 2328 
Q 1056 1369 1301 889 
Q 1547 409 2034 409 
Q 2525 409 2770 889 
Q 3016 1369 3016 2328 
Q 3016 3291 2770 3770 
Q 2525 4250 2034 4250 
z
M 2034 4750 
Q 2819 4750 3233 4129 
Q 3647 3509 3647 2328 
Q 3647 1150 3233 529 
Q 2819 -91 2034 -91 
Q 1250 -91 836 529 
Q 422 1150 422 2328 
Q 422 3509 836 4129 
Q 1250 4750 2034 4750 
z
" transform="scale(0.015625)"/>
       </defs>
       <use xlink:href="#DejaVuSans-30"/>
      </g>
     </g>
    </g>
    <g id="xtick_2">
     <g id="line2d_2">
      <g>
       <use xlink:href="#m1708e55b96" x="145.04416" y="76.52385" style="fill: #262626; stroke: #262626"/>
      </g>
     </g>
     <g id="text_2">
      <!-- 5 -->
      <g style="fill: #262626" transform="translate(142.24466 91.510475) scale(0.088 -0.088)">
       <defs>
        <path id="DejaVuSans-35" d="M 691 4666 
L 3169 4666 
L 3169 4134 
L 1269 4134 
L 1269 2991 
Q 1406 3038 1543 3061 
Q 1681 3084 1819 3084 
Q 2600 3084 3056 2656 
Q 3513 2228 3513 1497 
Q 3513 744 3044 326 
Q 2575 -91 1722 -91 
Q 1428 -91 1123 -41 
Q 819 9 494 109 
L 494 744 
Q 775 591 1075 516 
Q 1375 441 1709 441 
Q 2250 441 2565 725 
Q 2881 1009 2881 1497 
Q 2881 1984 2565 2268 
Q 2250 2553 1709 2553 
Q 1456 2553 1204 2497 
Q 953 2441 691 2322 
L 691 4666 
z
" transform="scale(0.015625)"/>
       </defs>
       <use xlink:href="#DejaVuSans-35"/>
      </g>
     </g>
    </g>
    <g id="xtick_3">
     <g id="line2d_3">
      <g>
       <use xlink:href="#m1708e55b96" x="194.781594" y="76.52385" style="fill: #262626; stroke: #262626"/>
      </g>
     </g>
     <g id="text_3">
      <!-- 10 -->
      <g style="fill: #262626" transform="translate(189.182594 91.510475) scale(0.088 -0.088)">
       <defs>
        <path id="DejaVuSans-31" d="M 794 531 
L 1825 531 
L 1825 4091 
L 703 3866 
L 703 4441 
L 1819 4666 
L 2450 4666 
L 2450 531 
L 3481 531 
L 3481 0 
L 794 0 
L 794 531 
z
" transform="scale(0.015625)"/>
       </defs>
       <use xlink:href="#DejaVuSans-31"/>
       <use xlink:href="#DejaVuSans-30" x="63.623047"/>
      </g>
     </g>
    </g>
    <g id="xtick_4">
     <g id="line2d_4">
      <g>
       <use xlink:href="#m1708e55b96" x="244.519027" y="76.52385" style="fill: #262626; stroke: #262626"/>
      </g>
     </g>
     <g id="text_4">
      <!-- 15 -->
      <g style="fill: #262626" transform="translate(238.920027 91.510475) scale(0.088 -0.088)">
       <use xlink:href="#DejaVuSans-31"/>
       <use xlink:href="#DejaVuSans-35" x="63.623047"/>
      </g>
     </g>
    </g>
    <g id="xtick_5">
     <g id="line2d_5">
      <g>
       <use xlink:href="#m1708e55b96" x="294.25646" y="76.52385" style="fill: #262626; stroke: #262626"/>
      </g>
     </g>
     <g id="text_5">
      <!-- 20 -->
      <g style="fill: #262626" transform="translate(288.65746 91.510475) scale(0.088 -0.088)">
       <defs>
        <path id="DejaVuSans-32" d="M 1228 531 
L 3431 531 
L 3431 0 
L 469 0 
L 469 531 
Q 828 903 1448 1529 
Q 2069 2156 2228 2338 
Q 2531 2678 2651 2914 
Q 2772 3150 2772 3378 
Q 2772 3750 2511 3984 
Q 2250 4219 1831 4219 
Q 1534 4219 1204 4116 
Q 875 4013 500 3803 
L 500 4441 
Q 881 4594 1212 4672 
Q 1544 4750 1819 4750 
Q 2544 4750 2975 4387 
Q 3406 4025 3406 3419 
Q 3406 3131 3298 2873 
Q 3191 2616 2906 2266 
Q 2828 2175 2409 1742 
Q 1991 1309 1228 531 
z
" transform="scale(0.015625)"/>
       </defs>
       <use xlink:href="#DejaVuSans-32"/>
       <use xlink:href="#DejaVuSans-30" x="63.623047"/>
      </g>
     </g>
    </g>
    <g id="xtick_6">
     <g id="line2d_6">
      <g>
       <use xlink:href="#m1708e55b96" x="343.993893" y="76.52385" style="fill: #262626; stroke: #262626"/>
      </g>
     </g>
     <g id="text_6">
      <!-- 25 -->
      <g style="fill: #262626" transform="translate(338.394893 91.510475) scale(0.088 -0.088)">
       <use xlink:href="#DejaVuSans-32"/>
       <use xlink:href="#DejaVuSans-35" x="63.623047"/>
      </g>
     </g>
    </g>
    <g id="xtick_7">
     <g id="line2d_7">
      <g>
       <use xlink:href="#m1708e55b96" x="393.731326" y="76.52385" style="fill: #262626; stroke: #262626"/>
      </g>
     </g>
     <g id="text_7">
      <!-- 30 -->
      <g style="fill: #262626" transform="translate(388.132326 91.510475) scale(0.088 -0.088)">
       <defs>
        <path id="DejaVuSans-33" d="M 2597 2516 
Q 3050 2419 3304 2112 
Q 3559 1806 3559 1356 
Q 3559 666 3084 287 
Q 2609 -91 1734 -91 
Q 1441 -91 1130 -33 
Q 819 25 488 141 
L 488 750 
Q 750 597 1062 519 
Q 1375 441 1716 441 
Q 2309 441 2620 675 
Q 2931 909 2931 1356 
Q 2931 1769 2642 2001 
Q 2353 2234 1838 2234 
L 1294 2234 
L 1294 2753 
L 1863 2753 
Q 2328 2753 2575 2939 
Q 2822 3125 2822 3475 
Q 2822 3834 2567 4026 
Q 2313 4219 1838 4219 
Q 1578 4219 1281 4162 
Q 984 4106 628 3988 
L 628 4550 
Q 988 4650 1302 4700 
Q 1616 4750 1894 4750 
Q 2613 4750 3031 4423 
Q 3450 4097 3450 3541 
Q 3450 3153 3228 2886 
Q 3006 2619 2597 2516 
z
" transform="scale(0.015625)"/>
       </defs>
       <use xlink:href="#DejaVuSans-33"/>
       <use xlink:href="#DejaVuSans-30" x="63.623047"/>
      </g>
     </g>
    </g>
    <g id="xtick_8">
     <g id="line2d_8">
      <g>
       <use xlink:href="#m1708e55b96" x="443.468759" y="76.52385" style="fill: #262626; stroke: #262626"/>
      </g>
     </g>
     <g id="text_8">
      <!-- 35 -->
      <g style="fill: #262626" transform="translate(437.869759 91.510475) scale(0.088 -0.088)">
       <use xlink:href="#DejaVuSans-33"/>
       <use xlink:href="#DejaVuSans-35" x="63.623047"/>
      </g>
     </g>
    </g>
    <g id="text_9">
     <!-- Samples -->
     <g style="fill: #262626" transform="translate(243.915 104.6351) scale(0.096 -0.096)">
      <defs>
       <path id="DejaVuSans-53" d="M 3425 4513 
L 3425 3897 
Q 3066 4069 2747 4153 
Q 2428 4238 2131 4238 
Q 1616 4238 1336 4038 
Q 1056 3838 1056 3469 
Q 1056 3159 1242 3001 
Q 1428 2844 1947 2747 
L 2328 2669 
Q 3034 2534 3370 2195 
Q 3706 1856 3706 1288 
Q 3706 609 3251 259 
Q 2797 -91 1919 -91 
Q 1588 -91 1214 -16 
Q 841 59 441 206 
L 441 856 
Q 825 641 1194 531 
Q 1563 422 1919 422 
Q 2459 422 2753 634 
Q 3047 847 3047 1241 
Q 3047 1584 2836 1778 
Q 2625 1972 2144 2069 
L 1759 2144 
Q 1053 2284 737 2584 
Q 422 2884 422 3419 
Q 422 4038 858 4394 
Q 1294 4750 2059 4750 
Q 2388 4750 2728 4690 
Q 3069 4631 3425 4513 
z
" transform="scale(0.015625)"/>
       <path id="DejaVuSans-61" d="M 2194 1759 
Q 1497 1759 1228 1600 
Q 959 1441 959 1056 
Q 959 750 1161 570 
Q 1363 391 1709 391 
Q 2188 391 2477 730 
Q 2766 1069 2766 1631 
L 2766 1759 
L 2194 1759 
z
M 3341 1997 
L 3341 0 
L 2766 0 
L 2766 531 
Q 2569 213 2275 61 
Q 1981 -91 1556 -91 
Q 1019 -91 701 211 
Q 384 513 384 1019 
Q 384 1609 779 1909 
Q 1175 2209 1959 2209 
L 2766 2209 
L 2766 2266 
Q 2766 2663 2505 2880 
Q 2244 3097 1772 3097 
Q 1472 3097 1187 3025 
Q 903 2953 641 2809 
L 641 3341 
Q 956 3463 1253 3523 
Q 1550 3584 1831 3584 
Q 2591 3584 2966 3190 
Q 3341 2797 3341 1997 
z
" transform="scale(0.015625)"/>
       <path id="DejaVuSans-6d" d="M 3328 2828 
Q 3544 3216 3844 3400 
Q 4144 3584 4550 3584 
Q 5097 3584 5394 3201 
Q 5691 2819 5691 2113 
L 5691 0 
L 5113 0 
L 5113 2094 
Q 5113 2597 4934 2840 
Q 4756 3084 4391 3084 
Q 3944 3084 3684 2787 
Q 3425 2491 3425 1978 
L 3425 0 
L 2847 0 
L 2847 2094 
Q 2847 2600 2669 2842 
Q 2491 3084 2119 3084 
Q 1678 3084 1418 2786 
Q 1159 2488 1159 1978 
L 1159 0 
L 581 0 
L 581 3500 
L 1159 3500 
L 1159 2956 
Q 1356 3278 1631 3431 
Q 1906 3584 2284 3584 
Q 2666 3584 2933 3390 
Q 3200 3197 3328 2828 
z
" transform="scale(0.015625)"/>
       <path id="DejaVuSans-70" d="M 1159 525 
L 1159 -1331 
L 581 -1331 
L 581 3500 
L 1159 3500 
L 1159 2969 
Q 1341 3281 1617 3432 
Q 1894 3584 2278 3584 
Q 2916 3584 3314 3078 
Q 3713 2572 3713 1747 
Q 3713 922 3314 415 
Q 2916 -91 2278 -91 
Q 1894 -91 1617 61 
Q 1341 213 1159 525 
z
M 3116 1747 
Q 3116 2381 2855 2742 
Q 2594 3103 2138 3103 
Q 1681 3103 1420 2742 
Q 1159 2381 1159 1747 
Q 1159 1113 1420 752 
Q 1681 391 2138 391 
Q 2594 391 2855 752 
Q 3116 1113 3116 1747 
z
" transform="scale(0.015625)"/>
       <path id="DejaVuSans-6c" d="M 603 4863 
L 1178 4863 
L 1178 0 
L 603 0 
L 603 4863 
z
" transform="scale(0.015625)"/>
       <path id="DejaVuSans-65" d="M 3597 1894 
L 3597 1613 
L 953 1613 
Q 991 1019 1311 708 
Q 1631 397 2203 397 
Q 2534 397 2845 478 
Q 3156 559 3463 722 
L 3463 178 
Q 3153 47 2828 -22 
Q 2503 -91 2169 -91 
Q 1331 -91 842 396 
Q 353 884 353 1716 
Q 353 2575 817 3079 
Q 1281 3584 2069 3584 
Q 2775 3584 3186 3129 
Q 3597 2675 3597 1894 
z
M 3022 2063 
Q 3016 2534 2758 2815 
Q 2500 3097 2075 3097 
Q 1594 3097 1305 2825 
Q 1016 2553 972 2059 
L 3022 2063 
z
" transform="scale(0.015625)"/>
       <path id="DejaVuSans-73" d="M 2834 3397 
L 2834 2853 
Q 2591 2978 2328 3040 
Q 2066 3103 1784 3103 
Q 1356 3103 1142 2972 
Q 928 2841 928 2578 
Q 928 2378 1081 2264 
Q 1234 2150 1697 2047 
L 1894 2003 
Q 2506 1872 2764 1633 
Q 3022 1394 3022 966 
Q 3022 478 2636 193 
Q 2250 -91 1575 -91 
Q 1294 -91 989 -36 
Q 684 19 347 128 
L 347 722 
Q 666 556 975 473 
Q 1284 391 1588 391 
Q 1994 391 2212 530 
Q 2431 669 2431 922 
Q 2431 1156 2273 1281 
Q 2116 1406 1581 1522 
L 1381 1569 
Q 847 1681 609 1914 
Q 372 2147 372 2553 
Q 372 3047 722 3315 
Q 1072 3584 1716 3584 
Q 2034 3584 2315 3537 
Q 2597 3491 2834 3397 
z
" transform="scale(0.015625)"/>
      </defs>
      <use xlink:href="#DejaVuSans-53"/>
      <use xlink:href="#DejaVuSans-61" x="63.476562"/>
      <use xlink:href="#DejaVuSans-6d" x="124.755859"/>
      <use xlink:href="#DejaVuSans-70" x="222.167969"/>
      <use xlink:href="#DejaVuSans-6c" x="285.644531"/>
      <use xlink:href="#DejaVuSans-65" x="313.427734"/>
      <use xlink:href="#DejaVuSans-73" x="374.951172"/>
     </g>
    </g>
   </g>
   <g id="matplotlib.axis_2">
    <g id="ytick_1">
     <g id="line2d_9">
      <defs>
       <path id="me8cce7f363" d="M 0 0 
L -4.8 0 
" style="stroke: #262626"/>
      </defs>
      <g>
       <use xlink:href="#me8cce7f363" x="78.396" y="73.516766" style="fill: #262626; stroke: #262626"/>
      </g>
     </g>
     <g id="text_10">
      <!-- 0.0 -->
      <g style="fill: #262626" transform="translate(56.10125 76.860079) scale(0.088 -0.088)">
       <defs>
        <path id="DejaVuSans-2e" d="M 684 794 
L 1344 794 
L 1344 0 
L 684 0 
L 684 794 
z
" transform="scale(0.015625)"/>
       </defs>
       <use xlink:href="#DejaVuSans-30"/>
       <use xlink:href="#DejaVuSans-2e" x="63.623047"/>
       <use xlink:href="#DejaVuSans-30" x="95.410156"/>
      </g>
     </g>
    </g>
    <g id="ytick_2">
     <g id="line2d_10">
      <g>
       <use xlink:href="#me8cce7f363" x="78.396" y="38.081357" style="fill: #262626; stroke: #262626"/>
      </g>
     </g>
     <g id="text_11">
      <!-- 0.1 -->
      <g style="fill: #262626" transform="translate(56.10125 41.424669) scale(0.088 -0.088)">
       <use xlink:href="#DejaVuSans-30"/>
       <use xlink:href="#DejaVuSans-2e" x="63.623047"/>
       <use xlink:href="#DejaVuSans-31" x="95.410156"/>
      </g>
     </g>
    </g>
    <g id="text_12">
     <!-- HMP -->
     <g style="fill: #262626" transform="translate(50.10475 54.091425) rotate(-90) scale(0.096 -0.096)">
      <defs>
       <path id="DejaVuSans-48" d="M 628 4666 
L 1259 4666 
L 1259 2753 
L 3553 2753 
L 3553 4666 
L 4184 4666 
L 4184 0 
L 3553 0 
L 3553 2222 
L 1259 2222 
L 1259 0 
L 628 0 
L 628 4666 
z
" transform="scale(0.015625)"/>
       <path id="DejaVuSans-4d" d="M 628 4666 
L 1569 4666 
L 2759 1491 
L 3956 4666 
L 4897 4666 
L 4897 0 
L 4281 0 
L 4281 4097 
L 3078 897 
L 2444 897 
L 1241 4097 
L 1241 0 
L 628 0 
L 628 4666 
z
" transform="scale(0.015625)"/>
       <path id="DejaVuSans-50" d="M 1259 4147 
L 1259 2394 
L 2053 2394 
Q 2494 2394 2734 2622 
Q 2975 2850 2975 3272 
Q 2975 3691 2734 3919 
Q 2494 4147 2053 4147 
L 1259 4147 
z
M 628 4666 
L 2053 4666 
Q 2838 4666 3239 4311 
Q 3641 3956 3641 3272 
Q 3641 2581 3239 2228 
Q 2838 1875 2053 1875 
L 1259 1875 
L 1259 0 
L 628 0 
L 628 4666 
z
" transform="scale(0.015625)"/>
      </defs>
      <use xlink:href="#DejaVuSans-48"/>
      <use xlink:href="#DejaVuSans-4d" x="75.195312"/>
      <use xlink:href="#DejaVuSans-50" x="161.474609"/>
     </g>
    </g>
   </g>
   <g id="PolyCollection_1"/>
   <g id="PolyCollection_2"/>
   <g id="PolyCollection_3"/>
   <g id="PolyCollection_4"/>
   <g id="PolyCollection_5"/>
   <g id="line2d_11">
    <path d="M 95.306727 73.516766 
L 105.254214 49.22982 
L 115.201701 47.877821 
L 125.149187 46.991591 
L 135.096674 42.904896 
L 145.04416 36.852736 
L 154.991647 30.059787 
L 164.939134 27.271745 
L 174.88662 31.799116 
L 184.834107 41.605872 
L 194.781594 52.335519 
L 204.72908 61.082531 
L 214.676567 66.947294 
L 224.624053 70.32967 
L 234.57154 72.077611 
L 244.519027 72.903277 
L 254.466513 73.256139 
L 264.414 73.391575 
L 274.361487 73.436619 
L 284.308973 73.441015 
L 294.25646 73.418836 
L 304.203947 73.380374 
L 314.151433 73.350037 
L 324.09892 73.344425 
L 334.046406 73.351429 
L 343.993893 73.354776 
L 353.94138 73.356103 
L 363.888866 73.376094 
L 373.836353 73.428326 
L 383.78384 73.483887 
L 393.731326 73.510478 
L 403.678813 73.516256 
L 413.626299 73.516766 
L 423.573786 73.516766 
L 433.521273 73.516766 
" clip-path="url(#p6e4e82d58f)" style="fill: none; stroke: #66ccee; stroke-width: 1.2; stroke-linecap: round"/>
   </g>
   <g id="line2d_12">
    <path d="M 95.306727 73.516766 
L 105.254214 73.516766 
L 115.201701 73.200914 
L 125.149187 72.227452 
L 135.096674 70.100596 
L 145.04416 66.803474 
L 154.991647 61.772805 
L 164.939134 53.060201 
L 174.88662 39.300802 
L 184.834107 25.022638 
L 194.781594 20.016788 
L 204.72908 27.241489 
L 214.676567 40.401824 
L 224.624053 52.654903 
L 234.57154 60.728489 
L 244.519027 64.570458 
L 254.466513 65.377579 
L 264.414 64.332757 
L 274.361487 63.53255 
L 284.308973 65.518534 
L 294.25646 68.939795 
L 304.203947 71.106928 
L 314.151433 71.928085 
L 324.09892 72.084001 
L 334.046406 72.025082 
L 343.993893 72.074492 
L 353.94138 72.297758 
L 363.888866 72.541084 
L 373.836353 72.742638 
L 383.78384 72.961471 
L 393.731326 73.209309 
L 403.678813 73.399596 
L 413.626299 73.49116 
L 423.573786 73.516766 
L 433.521273 73.516766 
" clip-path="url(#p6e4e82d58f)" style="fill: none; stroke: #228833; stroke-width: 1.2; stroke-linecap: round"/>
   </g>
   <g id="line2d_13">
    <path d="M 95.306727 73.516766 
L 105.254214 73.516766 
L 115.201701 73.516766 
L 125.149187 73.512894 
L 135.096674 73.496595 
L 145.04416 73.449327 
L 154.991647 73.336817 
L 164.939134 73.105769 
L 174.88662 72.690414 
L 184.834107 72.014706 
L 194.781594 70.96773 
L 204.72908 69.31867 
L 214.676567 66.562756 
L 224.624053 61.828719 
L 234.57154 54.204113 
L 244.519027 44.163672 
L 254.466513 35.448288 
L 264.414 33.005973 
L 274.361487 37.023736 
L 284.308973 43.168185 
L 294.25646 48.288823 
L 304.203947 51.986694 
L 314.151433 54.960177 
L 324.09892 57.778596 
L 334.046406 60.575773 
L 343.993893 63.270923 
L 353.94138 65.75544 
L 363.888866 67.861601 
L 373.836353 69.412988 
L 383.78384 70.394558 
L 393.731326 70.974151 
L 403.678813 71.409082 
L 413.626299 71.956956 
L 423.573786 72.741529 
L 433.521273 73.516766 
" clip-path="url(#p6e4e82d58f)" style="fill: none; stroke: #ccbb44; stroke-width: 1.2; stroke-linecap: round"/>
   </g>
   <g id="line2d_14">
    <path d="M 95.306727 73.516766 
L 105.254214 73.516766 
L 115.201701 73.516766 
L 125.149187 73.516766 
L 135.096674 73.516766 
L 145.04416 73.516766 
L 154.991647 73.516766 
L 164.939134 73.516766 
L 174.88662 73.516766 
L 184.834107 73.516766 
L 194.781594 73.516766 
L 204.72908 73.516766 
L 214.676567 73.516766 
L 224.624053 73.516766 
L 234.57154 73.516766 
L 244.519027 73.516766 
L 254.466513 73.516766 
L 264.414 73.516766 
L 274.361487 73.516766 
L 284.308973 73.516766 
L 294.25646 73.516766 
L 304.203947 73.516766 
L 314.151433 73.516766 
L 324.09892 73.516766 
L 334.046406 73.516766 
L 343.993893 73.516766 
L 353.94138 73.516766 
L 363.888866 73.516766 
L 373.836353 73.516766 
L 383.78384 73.516766 
L 393.731326 73.516766 
L 403.678813 73.516766 
L 413.626299 73.516766 
L 423.573786 73.516766 
L 433.521273 73.516766 
" clip-path="url(#p6e4e82d58f)" style="fill: none; stroke: #ee6677; stroke-width: 1.2; stroke-linecap: round"/>
   </g>
   <g id="line2d_15">
    <path d="M 95.306727 73.516766 
L 105.254214 73.516766 
L 115.201701 73.516766 
L 125.149187 73.516766 
L 135.096674 73.516765 
L 145.04416 73.51676 
L 154.991647 73.516741 
L 164.939134 73.516694 
L 174.88662 73.516572 
L 184.834107 73.516202 
L 194.781594 73.514917 
L 204.72908 73.510234 
L 214.676567 73.493568 
L 224.624053 73.437112 
L 234.57154 73.257343 
L 244.519027 72.750303 
L 254.466513 71.616569 
L 264.414 69.773616 
L 274.361487 67.475882 
L 284.308973 64.712587 
L 294.25646 61.091916 
L 304.203947 56.952372 
L 314.151433 54.304401 
L 324.09892 54.947918 
L 334.046406 57.8735 
L 343.993893 60.936758 
L 353.94138 63.167754 
L 363.888866 64.468849 
L 373.836353 64.69192 
L 383.78384 63.228586 
L 393.731326 58.727441 
L 403.678813 48.981939 
L 413.626299 32.745655 
L 423.573786 14.529698 
L 433.521273 13.375084 
" clip-path="url(#p6e4e82d58f)" style="fill: none; stroke: #aa3377; stroke-width: 1.2; stroke-linecap: round"/>
   </g>
   <g id="patch_3">
    <path d="M 78.396 76.52385 
L 78.396 10.368 
" style="fill: none; stroke: #262626; stroke-linejoin: miter; stroke-linecap: square"/>
   </g>
   <g id="patch_4">
    <path d="M 450.432 76.52385 
L 450.432 10.368 
" style="fill: none; stroke: #262626; stroke-linejoin: miter; stroke-linecap: square"/>
   </g>
   <g id="patch_5">
    <path d="M 78.396 76.52385 
L 450.432 76.52385 
" style="fill: none; stroke: #262626; stroke-linejoin: miter; stroke-linecap: square"/>
   </g>
   <g id="patch_6">
    <path d="M 78.396 10.368 
L 450.432 10.368 
" style="fill: none; stroke: #262626; stroke-linejoin: miter; stroke-linecap: square"/>
   </g>
  </g>
  <g id="axes_2">
   <g id="patch_7">
    <path d="M 78.396 186.463925 
L 450.432 186.463925 
L 450.432 120.308075 
L 78.396 120.308075 
L 78.396 186.463925 
z
" style="fill: none"/>
   </g>
   <g id="matplotlib.axis_3">
    <g id="xtick_9">
     <g id="line2d_16">
      <g>
       <use xlink:href="#m1708e55b96" x="95.306727" y="186.463925" style="fill: #262626; stroke: #262626"/>
      </g>
     </g>
     <g id="text_13">
      <!-- 0 -->
      <g style="fill: #262626" transform="translate(92.507227 201.45055) scale(0.088 -0.088)">
       <use xlink:href="#DejaVuSans-30"/>
      </g>
     </g>
    </g>
    <g id="xtick_10">
     <g id="line2d_17">
      <g>
       <use xlink:href="#m1708e55b96" x="145.04416" y="186.463925" style="fill: #262626; stroke: #262626"/>
      </g>
     </g>
     <g id="text_14">
      <!-- 5 -->
      <g style="fill: #262626" transform="translate(142.24466 201.45055) scale(0.088 -0.088)">
       <use xlink:href="#DejaVuSans-35"/>
      </g>
     </g>
    </g>
    <g id="xtick_11">
     <g id="line2d_18">
      <g>
       <use xlink:href="#m1708e55b96" x="194.781594" y="186.463925" style="fill: #262626; stroke: #262626"/>
      </g>
     </g>
     <g id="text_15">
      <!-- 10 -->
      <g style="fill: #262626" transform="translate(189.182594 201.45055) scale(0.088 -0.088)">
       <use xlink:href="#DejaVuSans-31"/>
       <use xlink:href="#DejaVuSans-30" x="63.623047"/>
      </g>
     </g>
    </g>
    <g id="xtick_12">
     <g id="line2d_19">
      <g>
       <use xlink:href="#m1708e55b96" x="244.519027" y="186.463925" style="fill: #262626; stroke: #262626"/>
      </g>
     </g>
     <g id="text_16">
      <!-- 15 -->
      <g style="fill: #262626" transform="translate(238.920027 201.45055) scale(0.088 -0.088)">
       <use xlink:href="#DejaVuSans-31"/>
       <use xlink:href="#DejaVuSans-35" x="63.623047"/>
      </g>
     </g>
    </g>
    <g id="xtick_13">
     <g id="line2d_20">
      <g>
       <use xlink:href="#m1708e55b96" x="294.25646" y="186.463925" style="fill: #262626; stroke: #262626"/>
      </g>
     </g>
     <g id="text_17">
      <!-- 20 -->
      <g style="fill: #262626" transform="translate(288.65746 201.45055) scale(0.088 -0.088)">
       <use xlink:href="#DejaVuSans-32"/>
       <use xlink:href="#DejaVuSans-30" x="63.623047"/>
      </g>
     </g>
    </g>
    <g id="xtick_14">
     <g id="line2d_21">
      <g>
       <use xlink:href="#m1708e55b96" x="343.993893" y="186.463925" style="fill: #262626; stroke: #262626"/>
      </g>
     </g>
     <g id="text_18">
      <!-- 25 -->
      <g style="fill: #262626" transform="translate(338.394893 201.45055) scale(0.088 -0.088)">
       <use xlink:href="#DejaVuSans-32"/>
       <use xlink:href="#DejaVuSans-35" x="63.623047"/>
      </g>
     </g>
    </g>
    <g id="xtick_15">
     <g id="line2d_22">
      <g>
       <use xlink:href="#m1708e55b96" x="393.731326" y="186.463925" style="fill: #262626; stroke: #262626"/>
      </g>
     </g>
     <g id="text_19">
      <!-- 30 -->
      <g style="fill: #262626" transform="translate(388.132326 201.45055) scale(0.088 -0.088)">
       <use xlink:href="#DejaVuSans-33"/>
       <use xlink:href="#DejaVuSans-30" x="63.623047"/>
      </g>
     </g>
    </g>
    <g id="xtick_16">
     <g id="line2d_23">
      <g>
       <use xlink:href="#m1708e55b96" x="443.468759" y="186.463925" style="fill: #262626; stroke: #262626"/>
      </g>
     </g>
     <g id="text_20">
      <!-- 35 -->
      <g style="fill: #262626" transform="translate(437.869759 201.45055) scale(0.088 -0.088)">
       <use xlink:href="#DejaVuSans-33"/>
       <use xlink:href="#DejaVuSans-35" x="63.623047"/>
      </g>
     </g>
    </g>
   </g>
   <g id="matplotlib.axis_4">
    <g id="ytick_3">
     <g id="line2d_24">
      <g>
       <use xlink:href="#me8cce7f363" x="78.396" y="183.46478" style="fill: #262626; stroke: #262626"/>
      </g>
     </g>
     <g id="text_21">
      <!-- 0.0 -->
      <g style="fill: #262626" transform="translate(56.10125 186.808093) scale(0.088 -0.088)">
       <use xlink:href="#DejaVuSans-30"/>
       <use xlink:href="#DejaVuSans-2e" x="63.623047"/>
       <use xlink:href="#DejaVuSans-30" x="95.410156"/>
      </g>
     </g>
    </g>
    <g id="ytick_4">
     <g id="line2d_25">
      <g>
       <use xlink:href="#me8cce7f363" x="78.396" y="152.39517" style="fill: #262626; stroke: #262626"/>
      </g>
     </g>
     <g id="text_22">
      <!-- 0.1 -->
      <g style="fill: #262626" transform="translate(56.10125 155.738483) scale(0.088 -0.088)">
       <use xlink:href="#DejaVuSans-30"/>
       <use xlink:href="#DejaVuSans-2e" x="63.623047"/>
       <use xlink:href="#DejaVuSans-31" x="95.410156"/>
      </g>
     </g>
    </g>
    <g id="ytick_5">
     <g id="line2d_26">
      <g>
       <use xlink:href="#me8cce7f363" x="78.396" y="121.32556" style="fill: #262626; stroke: #262626"/>
      </g>
     </g>
     <g id="text_23">
      <!-- 0.2 -->
      <g style="fill: #262626" transform="translate(56.10125 124.668873) scale(0.088 -0.088)">
       <use xlink:href="#DejaVuSans-30"/>
       <use xlink:href="#DejaVuSans-2e" x="63.623047"/>
       <use xlink:href="#DejaVuSans-32" x="95.410156"/>
      </g>
     </g>
    </g>
    <g id="text_24">
     <!-- S4 -->
     <g style="fill: #262626" transform="translate(50.10475 159.48725) rotate(-90) scale(0.096 -0.096)">
      <defs>
       <path id="DejaVuSans-34" d="M 2419 4116 
L 825 1625 
L 2419 1625 
L 2419 4116 
z
M 2253 4666 
L 3047 4666 
L 3047 1625 
L 3713 1625 
L 3713 1100 
L 3047 1100 
L 3047 0 
L 2419 0 
L 2419 1100 
L 313 1100 
L 313 1709 
L 2253 4666 
z
" transform="scale(0.015625)"/>
      </defs>
      <use xlink:href="#DejaVuSans-53"/>
      <use xlink:href="#DejaVuSans-34" x="63.476562"/>
     </g>
    </g>
   </g>
   <g id="PolyCollection_6"/>
   <g id="PolyCollection_7"/>
   <g id="PolyCollection_8"/>
   <g id="PolyCollection_9"/>
   <g id="PolyCollection_10"/>
   <g id="line2d_27">
    <path d="M 95.306727 183.413775 
L 105.254214 182.208853 
L 115.201701 180.404735 
L 125.149187 179.254977 
L 135.096674 176.303106 
L 145.04416 173.746826 
L 154.991647 170.923528 
L 164.939134 167.457827 
L 174.88662 163.119684 
L 184.834107 158.048226 
L 194.781594 153.789981 
L 204.72908 153.030026 
L 214.676567 159.903545 
L 224.624053 169.376547 
L 234.57154 175.019849 
L 244.519027 178.181513 
L 254.466513 180.453386 
L 264.414 181.587726 
L 274.361487 181.720327 
L 284.308973 181.082991 
L 294.25646 179.557494 
L 304.203947 175.732858 
L 314.151433 169.390107 
L 324.09892 164.612845 
L 334.046406 162.109842 
L 343.993893 158.391727 
L 353.94138 151.322389 
L 363.888866 139.536696 
L 373.836353 126.056572 
L 383.78384 123.315159 
L 393.731326 139.399642 
L 403.678813 161.934329 
L 413.626299 175.538531 
L 423.573786 180.857348 
L 433.521273 182.799758 
" clip-path="url(#pb8fc7334d7)" style="fill: none; stroke: #66ccee; stroke-width: 1.2; stroke-linecap: round"/>
   </g>
   <g id="line2d_28">
    <path d="M 95.306727 183.449745 
L 105.254214 183.442554 
L 115.201701 183.433879 
L 125.149187 183.398525 
L 135.096674 183.330205 
L 145.04416 183.260953 
L 154.991647 183.176088 
L 164.939134 183.00855 
L 174.88662 182.66604 
L 184.834107 182.09882 
L 194.781594 181.701887 
L 204.72908 181.708741 
L 214.676567 182.228028 
L 224.624053 182.627937 
L 234.57154 182.813188 
L 244.519027 182.904733 
L 254.466513 182.782402 
L 264.414 182.344839 
L 274.361487 181.717765 
L 284.308973 181.461925 
L 294.25646 181.887679 
L 304.203947 182.090222 
L 314.151433 181.699454 
L 324.09892 180.784909 
L 334.046406 179.328148 
L 343.993893 177.971946 
L 353.94138 177.789144 
L 363.888866 178.287373 
L 373.836353 178.283697 
L 383.78384 177.499621 
L 393.731326 176.425263 
L 403.678813 176.320443 
L 413.626299 177.220148 
L 423.573786 177.506485 
L 433.521273 177.711051 
" clip-path="url(#pb8fc7334d7)" style="fill: none; stroke: #228833; stroke-width: 1.2; stroke-linecap: round"/>
   </g>
   <g id="line2d_29">
    <path d="M 95.306727 183.4487 
L 105.254214 183.446448 
L 115.201701 183.446747 
L 125.149187 183.447127 
L 135.096674 183.444022 
L 145.04416 183.441313 
L 154.991647 183.438141 
L 164.939134 183.432565 
L 174.88662 183.423571 
L 184.834107 183.411807 
L 194.781594 183.395728 
L 204.72908 183.370611 
L 214.676567 183.35085 
L 224.624053 183.333145 
L 234.57154 183.293624 
L 244.519027 183.256096 
L 254.466513 183.24944 
L 264.414 183.255512 
L 274.361487 183.248174 
L 284.308973 183.227441 
L 294.25646 183.239384 
L 304.203947 183.24754 
L 314.151433 183.238442 
L 324.09892 183.221693 
L 334.046406 183.213423 
L 343.993893 183.205117 
L 353.94138 183.209778 
L 363.888866 183.232465 
L 373.836353 183.242193 
L 383.78384 183.224235 
L 393.731326 183.184206 
L 403.678813 183.15663 
L 413.626299 183.167528 
L 423.573786 183.161188 
L 433.521273 182.981298 
" clip-path="url(#pb8fc7334d7)" style="fill: none; stroke: #ccbb44; stroke-width: 1.2; stroke-linecap: round"/>
   </g>
   <g id="line2d_30">
    <path d="M 95.306727 183.442889 
L 105.254214 183.439159 
L 115.201701 183.435211 
L 125.149187 183.440155 
L 135.096674 183.437948 
L 145.04416 183.435239 
L 154.991647 183.432276 
L 164.939134 183.429702 
L 174.88662 183.429144 
L 184.834107 183.429166 
L 194.781594 183.43186 
L 204.72908 183.438105 
L 214.676567 183.443487 
L 224.624053 183.446348 
L 234.57154 183.447116 
L 244.519027 183.446797 
L 254.466513 183.447143 
L 264.414 183.446204 
L 274.361487 183.444593 
L 284.308973 183.443122 
L 294.25646 183.441208 
L 304.203947 183.434141 
L 314.151433 183.429595 
L 324.09892 183.432405 
L 334.046406 183.435875 
L 343.993893 183.435884 
L 353.94138 183.433474 
L 363.888866 183.428486 
L 373.836353 183.422749 
L 383.78384 183.420291 
L 393.731326 183.421901 
L 403.678813 183.424921 
L 413.626299 183.425054 
L 423.573786 183.420312 
L 433.521273 183.417488 
" clip-path="url(#pb8fc7334d7)" style="fill: none; stroke: #ee6677; stroke-width: 1.2; stroke-linecap: round"/>
   </g>
   <g id="line2d_31">
    <path d="M 95.306727 183.443769 
L 105.254214 183.440109 
L 115.201701 183.440986 
L 125.149187 183.443911 
L 135.096674 183.442951 
L 145.04416 183.441597 
L 154.991647 183.439655 
L 164.939134 183.43838 
L 174.88662 183.437368 
L 184.834107 183.434551 
L 194.781594 183.432922 
L 204.72908 183.43524 
L 214.676567 183.440612 
L 224.624053 183.447226 
L 234.57154 183.451462 
L 244.519027 183.453542 
L 254.466513 183.45522 
L 264.414 183.456522 
L 274.361487 183.456841 
L 284.308973 183.4561 
L 294.25646 183.455139 
L 304.203947 183.451714 
L 314.151433 183.447757 
L 324.09892 183.445957 
L 334.046406 183.443451 
L 343.993893 183.438274 
L 353.94138 183.432797 
L 363.888866 183.427164 
L 373.836353 183.421593 
L 383.78384 183.420986 
L 393.731326 183.427522 
L 403.678813 183.436709 
L 413.626299 183.443542 
L 423.573786 183.44772 
L 433.521273 183.448264 
" clip-path="url(#pb8fc7334d7)" style="fill: none; stroke: #aa3377; stroke-width: 1.2; stroke-linecap: round"/>
   </g>
   <g id="patch_8">
    <path d="M 78.396 186.463925 
L 78.396 120.308075 
" style="fill: none; stroke: #262626; stroke-linejoin: miter; stroke-linecap: square"/>
   </g>
   <g id="patch_9">
    <path d="M 450.432 186.463925 
L 450.432 120.308075 
" style="fill: none; stroke: #262626; stroke-linejoin: miter; stroke-linecap: square"/>
   </g>
   <g id="patch_10">
    <path d="M 78.396 186.463925 
L 450.432 186.463925 
" style="fill: none; stroke: #262626; stroke-linejoin: miter; stroke-linecap: square"/>
   </g>
   <g id="patch_11">
    <path d="M 78.396 120.308075 
L 450.432 120.308075 
" style="fill: none; stroke: #262626; stroke-linejoin: miter; stroke-linecap: square"/>
   </g>
  </g>
  <g id="axes_3">
   <g id="patch_12">
    <path d="M 78.396 296.404 
L 450.432 296.404 
L 450.432 230.24815 
L 78.396 230.24815 
L 78.396 296.404 
z
" style="fill: none"/>
   </g>
   <g id="matplotlib.axis_5">
    <g id="xtick_17">
     <g id="line2d_32">
      <g>
       <use xlink:href="#m1708e55b96" x="95.306727" y="296.404" style="fill: #262626; stroke: #262626"/>
      </g>
     </g>
     <g id="text_25">
      <!-- 0 -->
      <g style="fill: #262626" transform="translate(92.507227 311.390625) scale(0.088 -0.088)">
       <use xlink:href="#DejaVuSans-30"/>
      </g>
     </g>
    </g>
    <g id="xtick_18">
     <g id="line2d_33">
      <g>
       <use xlink:href="#m1708e55b96" x="145.04416" y="296.404" style="fill: #262626; stroke: #262626"/>
      </g>
     </g>
     <g id="text_26">
      <!-- 5 -->
      <g style="fill: #262626" transform="translate(142.24466 311.390625) scale(0.088 -0.088)">
       <use xlink:href="#DejaVuSans-35"/>
      </g>
     </g>
    </g>
    <g id="xtick_19">
     <g id="line2d_34">
      <g>
       <use xlink:href="#m1708e55b96" x="194.781594" y="296.404" style="fill: #262626; stroke: #262626"/>
      </g>
     </g>
     <g id="text_27">
      <!-- 10 -->
      <g style="fill: #262626" transform="translate(189.182594 311.390625) scale(0.088 -0.088)">
       <use xlink:href="#DejaVuSans-31"/>
       <use xlink:href="#DejaVuSans-30" x="63.623047"/>
      </g>
     </g>
    </g>
    <g id="xtick_20">
     <g id="line2d_35">
      <g>
       <use xlink:href="#m1708e55b96" x="244.519027" y="296.404" style="fill: #262626; stroke: #262626"/>
      </g>
     </g>
     <g id="text_28">
      <!-- 15 -->
      <g style="fill: #262626" transform="translate(238.920027 311.390625) scale(0.088 -0.088)">
       <use xlink:href="#DejaVuSans-31"/>
       <use xlink:href="#DejaVuSans-35" x="63.623047"/>
      </g>
     </g>
    </g>
    <g id="xtick_21">
     <g id="line2d_36">
      <g>
       <use xlink:href="#m1708e55b96" x="294.25646" y="296.404" style="fill: #262626; stroke: #262626"/>
      </g>
     </g>
     <g id="text_29">
      <!-- 20 -->
      <g style="fill: #262626" transform="translate(288.65746 311.390625) scale(0.088 -0.088)">
       <use xlink:href="#DejaVuSans-32"/>
       <use xlink:href="#DejaVuSans-30" x="63.623047"/>
      </g>
     </g>
    </g>
    <g id="xtick_22">
     <g id="line2d_37">
      <g>
       <use xlink:href="#m1708e55b96" x="343.993893" y="296.404" style="fill: #262626; stroke: #262626"/>
      </g>
     </g>
     <g id="text_30">
      <!-- 25 -->
      <g style="fill: #262626" transform="translate(338.394893 311.390625) scale(0.088 -0.088)">
       <use xlink:href="#DejaVuSans-32"/>
       <use xlink:href="#DejaVuSans-35" x="63.623047"/>
      </g>
     </g>
    </g>
    <g id="xtick_23">
     <g id="line2d_38">
      <g>
       <use xlink:href="#m1708e55b96" x="393.731326" y="296.404" style="fill: #262626; stroke: #262626"/>
      </g>
     </g>
     <g id="text_31">
      <!-- 30 -->
      <g style="fill: #262626" transform="translate(388.132326 311.390625) scale(0.088 -0.088)">
       <use xlink:href="#DejaVuSans-33"/>
       <use xlink:href="#DejaVuSans-30" x="63.623047"/>
      </g>
     </g>
    </g>
    <g id="xtick_24">
     <g id="line2d_39">
      <g>
       <use xlink:href="#m1708e55b96" x="443.468759" y="296.404" style="fill: #262626; stroke: #262626"/>
      </g>
     </g>
     <g id="text_32">
      <!-- 35 -->
      <g style="fill: #262626" transform="translate(437.869759 311.390625) scale(0.088 -0.088)">
       <use xlink:href="#DejaVuSans-33"/>
       <use xlink:href="#DejaVuSans-35" x="63.623047"/>
      </g>
     </g>
    </g>
   </g>
   <g id="matplotlib.axis_6">
    <g id="ytick_6">
     <g id="line2d_40">
      <g>
       <use xlink:href="#me8cce7f363" x="78.396" y="293.433735" style="fill: #262626; stroke: #262626"/>
      </g>
     </g>
     <g id="text_33">
      <!-- 0.00 -->
      <g style="fill: #262626" transform="translate(50.50225 296.777047) scale(0.088 -0.088)">
       <use xlink:href="#DejaVuSans-30"/>
       <use xlink:href="#DejaVuSans-2e" x="63.623047"/>
       <use xlink:href="#DejaVuSans-30" x="95.410156"/>
       <use xlink:href="#DejaVuSans-30" x="159.033203"/>
      </g>
     </g>
    </g>
    <g id="ytick_7">
     <g id="line2d_41">
      <g>
       <use xlink:href="#me8cce7f363" x="78.396" y="253.425976" style="fill: #262626; stroke: #262626"/>
      </g>
     </g>
     <g id="text_34">
      <!-- 0.05 -->
      <g style="fill: #262626" transform="translate(50.50225 256.769288) scale(0.088 -0.088)">
       <use xlink:href="#DejaVuSans-30"/>
       <use xlink:href="#DejaVuSans-2e" x="63.623047"/>
       <use xlink:href="#DejaVuSans-30" x="95.410156"/>
       <use xlink:href="#DejaVuSans-35" x="159.033203"/>
      </g>
     </g>
    </g>
    <g id="text_35">
     <!-- Shuffled -->
     <g style="fill: #262626" transform="translate(44.50575 283.171075) rotate(-90) scale(0.096 -0.096)">
      <defs>
       <path id="DejaVuSans-68" d="M 3513 2113 
L 3513 0 
L 2938 0 
L 2938 2094 
Q 2938 2591 2744 2837 
Q 2550 3084 2163 3084 
Q 1697 3084 1428 2787 
Q 1159 2491 1159 1978 
L 1159 0 
L 581 0 
L 581 4863 
L 1159 4863 
L 1159 2956 
Q 1366 3272 1645 3428 
Q 1925 3584 2291 3584 
Q 2894 3584 3203 3211 
Q 3513 2838 3513 2113 
z
" transform="scale(0.015625)"/>
       <path id="DejaVuSans-75" d="M 544 1381 
L 544 3500 
L 1119 3500 
L 1119 1403 
Q 1119 906 1312 657 
Q 1506 409 1894 409 
Q 2359 409 2629 706 
Q 2900 1003 2900 1516 
L 2900 3500 
L 3475 3500 
L 3475 0 
L 2900 0 
L 2900 538 
Q 2691 219 2414 64 
Q 2138 -91 1772 -91 
Q 1169 -91 856 284 
Q 544 659 544 1381 
z
M 1991 3584 
L 1991 3584 
z
" transform="scale(0.015625)"/>
       <path id="DejaVuSans-66" d="M 2375 4863 
L 2375 4384 
L 1825 4384 
Q 1516 4384 1395 4259 
Q 1275 4134 1275 3809 
L 1275 3500 
L 2222 3500 
L 2222 3053 
L 1275 3053 
L 1275 0 
L 697 0 
L 697 3053 
L 147 3053 
L 147 3500 
L 697 3500 
L 697 3744 
Q 697 4328 969 4595 
Q 1241 4863 1831 4863 
L 2375 4863 
z
" transform="scale(0.015625)"/>
       <path id="DejaVuSans-64" d="M 2906 2969 
L 2906 4863 
L 3481 4863 
L 3481 0 
L 2906 0 
L 2906 525 
Q 2725 213 2448 61 
Q 2172 -91 1784 -91 
Q 1150 -91 751 415 
Q 353 922 353 1747 
Q 353 2572 751 3078 
Q 1150 3584 1784 3584 
Q 2172 3584 2448 3432 
Q 2725 3281 2906 2969 
z
M 947 1747 
Q 947 1113 1208 752 
Q 1469 391 1925 391 
Q 2381 391 2643 752 
Q 2906 1113 2906 1747 
Q 2906 2381 2643 2742 
Q 2381 3103 1925 3103 
Q 1469 3103 1208 2742 
Q 947 2381 947 1747 
z
" transform="scale(0.015625)"/>
      </defs>
      <use xlink:href="#DejaVuSans-53"/>
      <use xlink:href="#DejaVuSans-68" x="63.476562"/>
      <use xlink:href="#DejaVuSans-75" x="126.855469"/>
      <use xlink:href="#DejaVuSans-66" x="190.234375"/>
      <use xlink:href="#DejaVuSans-66" x="225.439453"/>
      <use xlink:href="#DejaVuSans-6c" x="260.644531"/>
      <use xlink:href="#DejaVuSans-65" x="288.427734"/>
      <use xlink:href="#DejaVuSans-64" x="349.951172"/>
     </g>
    </g>
   </g>
   <g id="PolyCollection_11"/>
   <g id="PolyCollection_12"/>
   <g id="PolyCollection_13"/>
   <g id="PolyCollection_14"/>
   <g id="PolyCollection_15"/>
   <g id="line2d_42">
    <path d="M 95.306727 293.042442 
L 105.254214 268.688201 
L 115.201701 244.08605 
L 125.149187 242.291581 
L 135.096674 244.612836 
L 145.04416 233.255234 
L 154.991647 238.193688 
L 164.939134 242.979712 
L 174.88662 245.175667 
L 184.834107 245.953077 
L 194.781594 255.304451 
L 204.72908 258.190299 
L 214.676567 263.115549 
L 224.624053 263.659716 
L 234.57154 264.387083 
L 244.519027 265.237211 
L 254.466513 272.557132 
L 264.414 272.809027 
L 274.361487 274.700343 
L 284.308973 277.853696 
L 294.25646 275.402165 
L 304.203947 279.812389 
L 314.151433 278.062308 
L 324.09892 279.528446 
L 334.046406 282.96165 
L 343.993893 285.799254 
L 353.94138 280.693906 
L 363.888866 285.230104 
L 373.836353 286.946166 
L 383.78384 287.583705 
L 393.731326 288.611456 
L 403.678813 289.011199 
L 413.626299 290.06087 
L 423.573786 290.458795 
L 433.521273 290.607779 
" clip-path="url(#p7288e25dde)" style="fill: none; stroke: #66ccee; stroke-width: 1.2; stroke-linecap: round"/>
   </g>
   <g id="line2d_43">
    <path d="M 95.306727 293.376414 
L 105.254214 293.253263 
L 115.201701 293.095428 
L 125.149187 292.825657 
L 135.096674 292.46358 
L 145.04416 292.031848 
L 154.991647 291.246258 
L 164.939134 290.721942 
L 174.88662 290.021217 
L 184.834107 289.084696 
L 194.781594 288.468744 
L 204.72908 287.662528 
L 214.676567 286.680196 
L 224.624053 285.741974 
L 234.57154 285.09393 
L 244.519027 284.001582 
L 254.466513 283.560722 
L 264.414 283.247984 
L 274.361487 283.06972 
L 284.308973 282.86847 
L 294.25646 281.84693 
L 304.203947 281.203594 
L 314.151433 280.713668 
L 324.09892 279.957401 
L 334.046406 279.159633 
L 343.993893 278.881034 
L 353.94138 277.914053 
L 363.888866 277.514504 
L 373.836353 277.098784 
L 383.78384 278.398273 
L 393.731326 277.725709 
L 403.678813 277.750553 
L 413.626299 277.77085 
L 423.573786 277.633295 
L 433.521273 277.756718 
" clip-path="url(#p7288e25dde)" style="fill: none; stroke: #228833; stroke-width: 1.2; stroke-linecap: round"/>
   </g>
   <g id="line2d_44">
    <path d="M 95.306727 293.390724 
L 105.254214 293.341289 
L 115.201701 293.336399 
L 125.149187 293.350469 
L 135.096674 293.35005 
L 145.04416 293.338115 
L 154.991647 293.330461 
L 164.939134 293.317092 
L 174.88662 293.298497 
L 184.834107 293.273425 
L 194.781594 293.252197 
L 204.72908 293.223686 
L 214.676567 293.19062 
L 224.624053 293.139204 
L 234.57154 293.105554 
L 244.519027 293.043029 
L 254.466513 292.992478 
L 264.414 292.893729 
L 274.361487 292.826332 
L 284.308973 292.748673 
L 294.25646 292.604199 
L 304.203947 292.500235 
L 314.151433 292.357248 
L 324.09892 292.15497 
L 334.046406 292.066391 
L 343.993893 291.820693 
L 353.94138 291.613538 
L 363.888866 291.522141 
L 373.836353 291.198109 
L 383.78384 290.8872 
L 393.731326 290.677018 
L 403.678813 290.392591 
L 413.626299 290.219826 
L 423.573786 289.766126 
L 433.521273 288.418313 
" clip-path="url(#p7288e25dde)" style="fill: none; stroke: #ccbb44; stroke-width: 1.2; stroke-linecap: round"/>
   </g>
   <g id="line2d_45">
    <path d="M 95.306727 293.389189 
L 105.254214 293.348837 
L 115.201701 293.294726 
L 125.149187 293.321802 
L 135.096674 293.329039 
L 145.04416 293.328751 
L 154.991647 293.340735 
L 164.939134 293.351001 
L 174.88662 293.358435 
L 184.834107 293.36508 
L 194.781594 293.371856 
L 204.72908 293.37607 
L 214.676567 293.377429 
L 224.624053 293.378045 
L 234.57154 293.37632 
L 244.519027 293.377114 
L 254.466513 293.378006 
L 264.414 293.377619 
L 274.361487 293.375651 
L 284.308973 293.374564 
L 294.25646 293.371313 
L 304.203947 293.368499 
L 314.151433 293.364432 
L 324.09892 293.359115 
L 334.046406 293.354644 
L 343.993893 293.349492 
L 353.94138 293.339774 
L 363.888866 293.332744 
L 373.836353 293.326903 
L 383.78384 293.316828 
L 393.731326 293.305172 
L 403.678813 293.296257 
L 413.626299 293.284349 
L 423.573786 293.269464 
L 433.521273 293.255717 
" clip-path="url(#p7288e25dde)" style="fill: none; stroke: #ee6677; stroke-width: 1.2; stroke-linecap: round"/>
   </g>
   <g id="line2d_46">
    <path d="M 95.306727 293.394141 
L 105.254214 293.345609 
L 115.201701 293.333357 
L 125.149187 293.343845 
L 135.096674 293.349894 
L 145.04416 293.342098 
L 154.991647 293.35148 
L 164.939134 293.361227 
L 174.88662 293.366522 
L 184.834107 293.370734 
L 194.781594 293.381036 
L 204.72908 293.384476 
L 214.676567 293.388719 
L 224.624053 293.388764 
L 234.57154 293.388913 
L 244.519027 293.389412 
L 254.466513 293.394805 
L 264.414 293.394367 
L 274.361487 293.394866 
L 284.308973 293.396916 
L 294.25646 293.393373 
L 304.203947 293.395547 
L 314.151433 293.392697 
L 324.09892 293.389981 
L 334.046406 293.392035 
L 343.993893 293.391243 
L 353.94138 293.384521 
L 363.888866 293.384406 
L 373.836353 293.383699 
L 383.78384 293.37852 
L 393.731326 293.37767 
L 403.678813 293.376333 
L 413.626299 293.373331 
L 423.573786 293.363931 
L 433.521273 293.356648 
" clip-path="url(#p7288e25dde)" style="fill: none; stroke: #aa3377; stroke-width: 1.2; stroke-linecap: round"/>
   </g>
   <g id="patch_13">
    <path d="M 78.396 296.404 
L 78.396 230.24815 
" style="fill: none; stroke: #262626; stroke-linejoin: miter; stroke-linecap: square"/>
   </g>
   <g id="patch_14">
    <path d="M 450.432 296.404 
L 450.432 230.24815 
" style="fill: none; stroke: #262626; stroke-linejoin: miter; stroke-linecap: square"/>
   </g>
   <g id="patch_15">
    <path d="M 78.396 296.404 
L 450.432 296.404 
" style="fill: none; stroke: #262626; stroke-linejoin: miter; stroke-linecap: square"/>
   </g>
   <g id="patch_16">
    <path d="M 78.396 230.24815 
L 450.432 230.24815 
" style="fill: none; stroke: #262626; stroke-linejoin: miter; stroke-linecap: square"/>
   </g>
  </g>
  <g id="text_36">
   <!-- Probability -->
   <g style="fill: #262626" transform="translate(17.9694 203.2461) rotate(-90) scale(0.1152 -0.1152)">
    <defs>
     <path id="DejaVuSans-72" d="M 2631 2963 
Q 2534 3019 2420 3045 
Q 2306 3072 2169 3072 
Q 1681 3072 1420 2755 
Q 1159 2438 1159 1844 
L 1159 0 
L 581 0 
L 581 3500 
L 1159 3500 
L 1159 2956 
Q 1341 3275 1631 3429 
Q 1922 3584 2338 3584 
Q 2397 3584 2469 3576 
Q 2541 3569 2628 3553 
L 2631 2963 
z
" transform="scale(0.015625)"/>
     <path id="DejaVuSans-6f" d="M 1959 3097 
Q 1497 3097 1228 2736 
Q 959 2375 959 1747 
Q 959 1119 1226 758 
Q 1494 397 1959 397 
Q 2419 397 2687 759 
Q 2956 1122 2956 1747 
Q 2956 2369 2687 2733 
Q 2419 3097 1959 3097 
z
M 1959 3584 
Q 2709 3584 3137 3096 
Q 3566 2609 3566 1747 
Q 3566 888 3137 398 
Q 2709 -91 1959 -91 
Q 1206 -91 779 398 
Q 353 888 353 1747 
Q 353 2609 779 3096 
Q 1206 3584 1959 3584 
z
" transform="scale(0.015625)"/>
     <path id="DejaVuSans-62" d="M 3116 1747 
Q 3116 2381 2855 2742 
Q 2594 3103 2138 3103 
Q 1681 3103 1420 2742 
Q 1159 2381 1159 1747 
Q 1159 1113 1420 752 
Q 1681 391 2138 391 
Q 2594 391 2855 752 
Q 3116 1113 3116 1747 
z
M 1159 2969 
Q 1341 3281 1617 3432 
Q 1894 3584 2278 3584 
Q 2916 3584 3314 3078 
Q 3713 2572 3713 1747 
Q 3713 922 3314 415 
Q 2916 -91 2278 -91 
Q 1894 -91 1617 61 
Q 1341 213 1159 525 
L 1159 0 
L 581 0 
L 581 4863 
L 1159 4863 
L 1159 2969 
z
" transform="scale(0.015625)"/>
     <path id="DejaVuSans-69" d="M 603 3500 
L 1178 3500 
L 1178 0 
L 603 0 
L 603 3500 
z
M 603 4863 
L 1178 4863 
L 1178 4134 
L 603 4134 
L 603 4863 
z
" transform="scale(0.015625)"/>
     <path id="DejaVuSans-74" d="M 1172 4494 
L 1172 3500 
L 2356 3500 
L 2356 3053 
L 1172 3053 
L 1172 1153 
Q 1172 725 1289 603 
Q 1406 481 1766 481 
L 2356 481 
L 2356 0 
L 1766 0 
Q 1100 0 847 248 
Q 594 497 594 1153 
L 594 3053 
L 172 3053 
L 172 3500 
L 594 3500 
L 594 4494 
L 1172 4494 
z
" transform="scale(0.015625)"/>
     <path id="DejaVuSans-79" d="M 2059 -325 
Q 1816 -950 1584 -1140 
Q 1353 -1331 966 -1331 
L 506 -1331 
L 506 -850 
L 844 -850 
Q 1081 -850 1212 -737 
Q 1344 -625 1503 -206 
L 1606 56 
L 191 3500 
L 800 3500 
L 1894 763 
L 2988 3500 
L 3597 3500 
L 2059 -325 
z
" transform="scale(0.015625)"/>
    </defs>
    <use xlink:href="#DejaVuSans-50"/>
    <use xlink:href="#DejaVuSans-72" x="58.552734"/>
    <use xlink:href="#DejaVuSans-6f" x="97.416016"/>
    <use xlink:href="#DejaVuSans-62" x="158.597656"/>
    <use xlink:href="#DejaVuSans-61" x="222.074219"/>
    <use xlink:href="#DejaVuSans-62" x="283.353516"/>
    <use xlink:href="#DejaVuSans-69" x="346.830078"/>
    <use xlink:href="#DejaVuSans-6c" x="374.613281"/>
    <use xlink:href="#DejaVuSans-69" x="402.396484"/>
    <use xlink:href="#DejaVuSans-74" x="430.179688"/>
    <use xlink:href="#DejaVuSans-79" x="469.388672"/>
   </g>
  </g>
  <g id="text_37">
   <!-- Samples -->
   <g style="fill: #262626" transform="translate(205.8012 339.7482) scale(0.1152 -0.1152)">
    <use xlink:href="#DejaVuSans-53"/>
    <use xlink:href="#DejaVuSans-61" x="63.476562"/>
    <use xlink:href="#DejaVuSans-6d" x="124.755859"/>
    <use xlink:href="#DejaVuSans-70" x="222.167969"/>
    <use xlink:href="#DejaVuSans-6c" x="285.644531"/>
    <use xlink:href="#DejaVuSans-65" x="313.427734"/>
    <use xlink:href="#DejaVuSans-73" x="374.951172"/>
   </g>
  </g>
  <g id="legend_1">
   <g id="patch_17">
    <path d="M 370.853 71.62375 
L 454.64 71.62375 
Q 456.4 71.62375 456.4 69.86375 
L 456.4 6.16 
Q 456.4 4.4 454.64 4.4 
L 370.853 4.4 
Q 369.093 4.4 369.093 6.16 
L 369.093 69.86375 
Q 369.093 71.62375 370.853 71.62375 
z
" style="fill: #ffffff; opacity: 0.8; stroke: #cccccc; stroke-width: 0.8; stroke-linejoin: miter"/>
   </g>
   <g id="line2d_47">
    <path d="M 372.613 11.526625 
L 381.413 11.526625 
L 390.213 11.526625 
" style="fill: none; stroke: #66ccee; stroke-width: 1.2; stroke-linecap: round"/>
   </g>
   <g id="text_38">
    <!-- encoding -->
    <g style="fill: #262626" transform="translate(397.253 14.606625) scale(0.088 -0.088)">
     <defs>
      <path id="DejaVuSans-6e" d="M 3513 2113 
L 3513 0 
L 2938 0 
L 2938 2094 
Q 2938 2591 2744 2837 
Q 2550 3084 2163 3084 
Q 1697 3084 1428 2787 
Q 1159 2491 1159 1978 
L 1159 0 
L 581 0 
L 581 3500 
L 1159 3500 
L 1159 2956 
Q 1366 3272 1645 3428 
Q 1925 3584 2291 3584 
Q 2894 3584 3203 3211 
Q 3513 2838 3513 2113 
z
" transform="scale(0.015625)"/>
      <path id="DejaVuSans-63" d="M 3122 3366 
L 3122 2828 
Q 2878 2963 2633 3030 
Q 2388 3097 2138 3097 
Q 1578 3097 1268 2742 
Q 959 2388 959 1747 
Q 959 1106 1268 751 
Q 1578 397 2138 397 
Q 2388 397 2633 464 
Q 2878 531 3122 666 
L 3122 134 
Q 2881 22 2623 -34 
Q 2366 -91 2075 -91 
Q 1284 -91 818 406 
Q 353 903 353 1747 
Q 353 2603 823 3093 
Q 1294 3584 2113 3584 
Q 2378 3584 2631 3529 
Q 2884 3475 3122 3366 
z
" transform="scale(0.015625)"/>
      <path id="DejaVuSans-67" d="M 2906 1791 
Q 2906 2416 2648 2759 
Q 2391 3103 1925 3103 
Q 1463 3103 1205 2759 
Q 947 2416 947 1791 
Q 947 1169 1205 825 
Q 1463 481 1925 481 
Q 2391 481 2648 825 
Q 2906 1169 2906 1791 
z
M 3481 434 
Q 3481 -459 3084 -895 
Q 2688 -1331 1869 -1331 
Q 1566 -1331 1297 -1286 
Q 1028 -1241 775 -1147 
L 775 -588 
Q 1028 -725 1275 -790 
Q 1522 -856 1778 -856 
Q 2344 -856 2625 -561 
Q 2906 -266 2906 331 
L 2906 616 
Q 2728 306 2450 153 
Q 2172 0 1784 0 
Q 1141 0 747 490 
Q 353 981 353 1791 
Q 353 2603 747 3093 
Q 1141 3584 1784 3584 
Q 2172 3584 2450 3431 
Q 2728 3278 2906 2969 
L 2906 3500 
L 3481 3500 
L 3481 434 
z
" transform="scale(0.015625)"/>
     </defs>
     <use xlink:href="#DejaVuSans-65"/>
     <use xlink:href="#DejaVuSans-6e" x="61.523438"/>
     <use xlink:href="#DejaVuSans-63" x="124.902344"/>
     <use xlink:href="#DejaVuSans-6f" x="179.882812"/>
     <use xlink:href="#DejaVuSans-64" x="241.064453"/>
     <use xlink:href="#DejaVuSans-69" x="304.541016"/>
     <use xlink:href="#DejaVuSans-6e" x="332.324219"/>
     <use xlink:href="#DejaVuSans-67" x="395.703125"/>
    </g>
   </g>
   <g id="line2d_48">
    <path d="M 372.613 24.443375 
L 381.413 24.443375 
L 390.213 24.443375 
" style="fill: none; stroke: #228833; stroke-width: 1.2; stroke-linecap: round"/>
   </g>
   <g id="text_39">
    <!-- n200 -->
    <g style="fill: #262626" transform="translate(397.253 27.523375) scale(0.088 -0.088)">
     <use xlink:href="#DejaVuSans-6e"/>
     <use xlink:href="#DejaVuSans-32" x="63.378906"/>
     <use xlink:href="#DejaVuSans-30" x="127.001953"/>
     <use xlink:href="#DejaVuSans-30" x="190.625"/>
    </g>
   </g>
   <g id="line2d_49">
    <path d="M 372.613 37.360125 
L 381.413 37.360125 
L 390.213 37.360125 
" style="fill: none; stroke: #ccbb44; stroke-width: 1.2; stroke-linecap: round"/>
   </g>
   <g id="text_40">
    <!-- decision -->
    <g style="fill: #262626" transform="translate(397.253 40.440125) scale(0.088 -0.088)">
     <use xlink:href="#DejaVuSans-64"/>
     <use xlink:href="#DejaVuSans-65" x="63.476562"/>
     <use xlink:href="#DejaVuSans-63" x="125"/>
     <use xlink:href="#DejaVuSans-69" x="179.980469"/>
     <use xlink:href="#DejaVuSans-73" x="207.763672"/>
     <use xlink:href="#DejaVuSans-69" x="259.863281"/>
     <use xlink:href="#DejaVuSans-6f" x="287.646484"/>
     <use xlink:href="#DejaVuSans-6e" x="348.828125"/>
    </g>
   </g>
   <g id="line2d_50">
    <path d="M 372.613 50.276875 
L 381.413 50.276875 
L 390.213 50.276875 
" style="fill: none; stroke: #ee6677; stroke-width: 1.2; stroke-linecap: round"/>
   </g>
   <g id="text_41">
    <!-- confirmation -->
    <g style="fill: #262626" transform="translate(397.253 53.356875) scale(0.088 -0.088)">
     <use xlink:href="#DejaVuSans-63"/>
     <use xlink:href="#DejaVuSans-6f" x="54.980469"/>
     <use xlink:href="#DejaVuSans-6e" x="116.162109"/>
     <use xlink:href="#DejaVuSans-66" x="179.541016"/>
     <use xlink:href="#DejaVuSans-69" x="214.746094"/>
     <use xlink:href="#DejaVuSans-72" x="242.529297"/>
     <use xlink:href="#DejaVuSans-6d" x="281.892578"/>
     <use xlink:href="#DejaVuSans-61" x="379.304688"/>
     <use xlink:href="#DejaVuSans-74" x="440.583984"/>
     <use xlink:href="#DejaVuSans-69" x="479.792969"/>
     <use xlink:href="#DejaVuSans-6f" x="507.576172"/>
     <use xlink:href="#DejaVuSans-6e" x="568.757812"/>
    </g>
   </g>
   <g id="line2d_51">
    <path d="M 372.613 63.193625 
L 381.413 63.193625 
L 390.213 63.193625 
" style="fill: none; stroke: #aa3377; stroke-width: 1.2; stroke-linecap: round"/>
   </g>
   <g id="text_42">
    <!-- response -->
    <g style="fill: #262626" transform="translate(397.253 66.273625) scale(0.088 -0.088)">
     <use xlink:href="#DejaVuSans-72"/>
     <use xlink:href="#DejaVuSans-65" x="38.863281"/>
     <use xlink:href="#DejaVuSans-73" x="100.386719"/>
     <use xlink:href="#DejaVuSans-70" x="152.486328"/>
     <use xlink:href="#DejaVuSans-6f" x="215.962891"/>
     <use xlink:href="#DejaVuSans-6e" x="277.144531"/>
     <use xlink:href="#DejaVuSans-73" x="340.523438"/>
     <use xlink:href="#DejaVuSans-65" x="392.623047"/>
    </g>
   </g>
  </g>
 </g>
 <defs>
  <clipPath id="p6e4e82d58f">
   <rect x="78.396" y="10.368" width="372.036" height="66.15585"/>
  </clipPath>
  <clipPath id="pb8fc7334d7">
   <rect x="78.396" y="120.308075" width="372.036" height="66.15585"/>
  </clipPath>
  <clipPath id="p7288e25dde">
   <rect x="78.396" y="230.24815" width="372.036" height="66.15585"/>
  </clipPath>
 </defs>
</svg>
