<?xml version="1.0" encoding="utf-8" standalone="no"?>
<!DOCTYPE svg PUBLIC "-//W3C//DTD SVG 1.1//EN"
  "http://www.w3.org/Graphics/SVG/1.1/DTD/svg11.dtd">
<svg xmlns:xlink="http://www.w3.org/1999/xlink" width="648pt" height="1080pt" viewBox="0 0 648 1080" xmlns="http://www.w3.org/2000/svg" version="1.1">
 <metadata>
  <rdf:RDF xmlns:dc="http://purl.org/dc/elements/1.1/" xmlns:cc="http://creativecommons.org/ns#" xmlns:rdf="http://www.w3.org/1999/02/22-rdf-syntax-ns#">
   <cc:Work>
    <dc:type rdf:resource="http://purl.org/dc/dcmitype/StillImage"/>
    <dc:date>2025-01-23T13:43:23.387838</dc:date>
    <dc:format>image/svg+xml</dc:format>
    <dc:creator>
     <cc:Agent>
      <dc:title>Matplotlib v3.10.0, https://matplotlib.org/</dc:title>
     </cc:Agent>
    </dc:creator>
   </cc:Work>
  </rdf:RDF>
 </metadata>
 <defs>
  <style type="text/css">*{stroke-linejoin: round; stroke-linecap: butt}</style>
 </defs>
 <g id="figure_1">
  <g id="patch_1">
   <path d="M 0 1080 
L 648 1080 
L 648 0 
L 0 0 
L 0 1080 
z
" style="fill: none"/>
  </g>
  <g id="axes_1">
   <g id="patch_2">
    <path d="M 79.836 324.841333 
L 637.632 324.841333 
L 637.632 10.368 
L 79.836 10.368 
L 79.836 324.841333 
z
" style="fill: none"/>
   </g>
   <g id="matplotlib.axis_1">
    <g id="xtick_1">
     <g id="line2d_1">
      <defs>
       <path id="m42ae67933c" d="M 0 0 
L 0 4.8 
" style="stroke: #262626"/>
      </defs>
      <g>
       <use xlink:href="#m42ae67933c" x="105.190364" y="324.841333" style="fill: #262626; stroke: #262626"/>
      </g>
     </g>
     <g id="text_1">
      <!-- 0 -->
      <g style="fill: #262626" transform="translate(102.390864 339.827958) scale(0.088 -0.088)">
       <defs>
        <path id="DejaVuSans-30" d="M 2034 4250 
Q 1547 4250 1301 3770 
Q 1056 3291 1056 2328 
Q 1056 1369 1301 889 
Q 1547 409 2034 409 
Q 2525 409 2770 889 
Q 3016 1369 3016 2328 
Q 3016 3291 2770 3770 
Q 2525 4250 2034 4250 
z
M 2034 4750 
Q 2819 4750 3233 4129 
Q 3647 3509 3647 2328 
Q 3647 1150 3233 529 
Q 2819 -91 2034 -91 
Q 1250 -91 836 529 
Q 422 1150 422 2328 
Q 422 3509 836 4129 
Q 1250 4750 2034 4750 
z
" transform="scale(0.015625)"/>
       </defs>
       <use xlink:href="#DejaVuSans-30"/>
      </g>
     </g>
    </g>
    <g id="xtick_2">
     <g id="line2d_2">
      <g>
       <use xlink:href="#m42ae67933c" x="177.219806" y="324.841333" style="fill: #262626; stroke: #262626"/>
      </g>
     </g>
     <g id="text_2">
      <!-- 25 -->
      <g style="fill: #262626" transform="translate(171.620806 339.827958) scale(0.088 -0.088)">
       <defs>
        <path id="DejaVuSans-32" d="M 1228 531 
L 3431 531 
L 3431 0 
L 469 0 
L 469 531 
Q 828 903 1448 1529 
Q 2069 2156 2228 2338 
Q 2531 2678 2651 2914 
Q 2772 3150 2772 3378 
Q 2772 3750 2511 3984 
Q 2250 4219 1831 4219 
Q 1534 4219 1204 4116 
Q 875 4013 500 3803 
L 500 4441 
Q 881 4594 1212 4672 
Q 1544 4750 1819 4750 
Q 2544 4750 2975 4387 
Q 3406 4025 3406 3419 
Q 3406 3131 3298 2873 
Q 3191 2616 2906 2266 
Q 2828 2175 2409 1742 
Q 1991 1309 1228 531 
z
" transform="scale(0.015625)"/>
        <path id="DejaVuSans-35" d="M 691 4666 
L 3169 4666 
L 3169 4134 
L 1269 4134 
L 1269 2991 
Q 1406 3038 1543 3061 
Q 1681 3084 1819 3084 
Q 2600 3084 3056 2656 
Q 3513 2228 3513 1497 
Q 3513 744 3044 326 
Q 2575 -91 1722 -91 
Q 1428 -91 1123 -41 
Q 819 9 494 109 
L 494 744 
Q 775 591 1075 516 
Q 1375 441 1709 441 
Q 2250 441 2565 725 
Q 2881 1009 2881 1497 
Q 2881 1984 2565 2268 
Q 2250 2553 1709 2553 
Q 1456 2553 1204 2497 
Q 953 2441 691 2322 
L 691 4666 
z
" transform="scale(0.015625)"/>
       </defs>
       <use xlink:href="#DejaVuSans-32"/>
       <use xlink:href="#DejaVuSans-35" transform="translate(63.623047 0)"/>
      </g>
     </g>
    </g>
    <g id="xtick_3">
     <g id="line2d_3">
      <g>
       <use xlink:href="#m42ae67933c" x="249.249248" y="324.841333" style="fill: #262626; stroke: #262626"/>
      </g>
     </g>
     <g id="text_3">
      <!-- 50 -->
      <g style="fill: #262626" transform="translate(243.650248 339.827958) scale(0.088 -0.088)">
       <use xlink:href="#DejaVuSans-35"/>
       <use xlink:href="#DejaVuSans-30" transform="translate(63.623047 0)"/>
      </g>
     </g>
    </g>
    <g id="xtick_4">
     <g id="line2d_4">
      <g>
       <use xlink:href="#m42ae67933c" x="321.27869" y="324.841333" style="fill: #262626; stroke: #262626"/>
      </g>
     </g>
     <g id="text_4">
      <!-- 75 -->
      <g style="fill: #262626" transform="translate(315.67969 339.827958) scale(0.088 -0.088)">
       <defs>
        <path id="DejaVuSans-37" d="M 525 4666 
L 3525 4666 
L 3525 4397 
L 1831 0 
L 1172 0 
L 2766 4134 
L 525 4134 
L 525 4666 
z
" transform="scale(0.015625)"/>
       </defs>
       <use xlink:href="#DejaVuSans-37"/>
       <use xlink:href="#DejaVuSans-35" transform="translate(63.623047 0)"/>
      </g>
     </g>
    </g>
    <g id="xtick_5">
     <g id="line2d_5">
      <g>
       <use xlink:href="#m42ae67933c" x="393.308132" y="324.841333" style="fill: #262626; stroke: #262626"/>
      </g>
     </g>
     <g id="text_5">
      <!-- 100 -->
      <g style="fill: #262626" transform="translate(384.909632 339.827958) scale(0.088 -0.088)">
       <defs>
        <path id="DejaVuSans-31" d="M 794 531 
L 1825 531 
L 1825 4091 
L 703 3866 
L 703 4441 
L 1819 4666 
L 2450 4666 
L 2450 531 
L 3481 531 
L 3481 0 
L 794 0 
L 794 531 
z
" transform="scale(0.015625)"/>
       </defs>
       <use xlink:href="#DejaVuSans-31"/>
       <use xlink:href="#DejaVuSans-30" transform="translate(63.623047 0)"/>
       <use xlink:href="#DejaVuSans-30" transform="translate(127.246094 0)"/>
      </g>
     </g>
    </g>
    <g id="xtick_6">
     <g id="line2d_6">
      <g>
       <use xlink:href="#m42ae67933c" x="465.337574" y="324.841333" style="fill: #262626; stroke: #262626"/>
      </g>
     </g>
     <g id="text_6">
      <!-- 125 -->
      <g style="fill: #262626" transform="translate(456.939074 339.827958) scale(0.088 -0.088)">
       <use xlink:href="#DejaVuSans-31"/>
       <use xlink:href="#DejaVuSans-32" transform="translate(63.623047 0)"/>
       <use xlink:href="#DejaVuSans-35" transform="translate(127.246094 0)"/>
      </g>
     </g>
    </g>
    <g id="xtick_7">
     <g id="line2d_7">
      <g>
       <use xlink:href="#m42ae67933c" x="537.367017" y="324.841333" style="fill: #262626; stroke: #262626"/>
      </g>
     </g>
     <g id="text_7">
      <!-- 150 -->
      <g style="fill: #262626" transform="translate(528.968517 339.827958) scale(0.088 -0.088)">
       <use xlink:href="#DejaVuSans-31"/>
       <use xlink:href="#DejaVuSans-35" transform="translate(63.623047 0)"/>
       <use xlink:href="#DejaVuSans-30" transform="translate(127.246094 0)"/>
      </g>
     </g>
    </g>
    <g id="xtick_8">
     <g id="line2d_8">
      <g>
       <use xlink:href="#m42ae67933c" x="609.396459" y="324.841333" style="fill: #262626; stroke: #262626"/>
      </g>
     </g>
     <g id="text_8">
      <!-- 175 -->
      <g style="fill: #262626" transform="translate(600.997959 339.827958) scale(0.088 -0.088)">
       <use xlink:href="#DejaVuSans-31"/>
       <use xlink:href="#DejaVuSans-37" transform="translate(63.623047 0)"/>
       <use xlink:href="#DejaVuSans-35" transform="translate(127.246094 0)"/>
      </g>
     </g>
    </g>
    <g id="text_9">
     <!-- Samples -->
     <g style="fill: #262626" transform="translate(338.235 352.952583) scale(0.096 -0.096)">
      <defs>
       <path id="DejaVuSans-53" d="M 3425 4513 
L 3425 3897 
Q 3066 4069 2747 4153 
Q 2428 4238 2131 4238 
Q 1616 4238 1336 4038 
Q 1056 3838 1056 3469 
Q 1056 3159 1242 3001 
Q 1428 2844 1947 2747 
L 2328 2669 
Q 3034 2534 3370 2195 
Q 3706 1856 3706 1288 
Q 3706 609 3251 259 
Q 2797 -91 1919 -91 
Q 1588 -91 1214 -16 
Q 841 59 441 206 
L 441 856 
Q 825 641 1194 531 
Q 1563 422 1919 422 
Q 2459 422 2753 634 
Q 3047 847 3047 1241 
Q 3047 1584 2836 1778 
Q 2625 1972 2144 2069 
L 1759 2144 
Q 1053 2284 737 2584 
Q 422 2884 422 3419 
Q 422 4038 858 4394 
Q 1294 4750 2059 4750 
Q 2388 4750 2728 4690 
Q 3069 4631 3425 4513 
z
" transform="scale(0.015625)"/>
       <path id="DejaVuSans-61" d="M 2194 1759 
Q 1497 1759 1228 1600 
Q 959 1441 959 1056 
Q 959 750 1161 570 
Q 1363 391 1709 391 
Q 2188 391 2477 730 
Q 2766 1069 2766 1631 
L 2766 1759 
L 2194 1759 
z
M 3341 1997 
L 3341 0 
L 2766 0 
L 2766 531 
Q 2569 213 2275 61 
Q 1981 -91 1556 -91 
Q 1019 -91 701 211 
Q 384 513 384 1019 
Q 384 1609 779 1909 
Q 1175 2209 1959 2209 
L 2766 2209 
L 2766 2266 
Q 2766 2663 2505 2880 
Q 2244 3097 1772 3097 
Q 1472 3097 1187 3025 
Q 903 2953 641 2809 
L 641 3341 
Q 956 3463 1253 3523 
Q 1550 3584 1831 3584 
Q 2591 3584 2966 3190 
Q 3341 2797 3341 1997 
z
" transform="scale(0.015625)"/>
       <path id="DejaVuSans-6d" d="M 3328 2828 
Q 3544 3216 3844 3400 
Q 4144 3584 4550 3584 
Q 5097 3584 5394 3201 
Q 5691 2819 5691 2113 
L 5691 0 
L 5113 0 
L 5113 2094 
Q 5113 2597 4934 2840 
Q 4756 3084 4391 3084 
Q 3944 3084 3684 2787 
Q 3425 2491 3425 1978 
L 3425 0 
L 2847 0 
L 2847 2094 
Q 2847 2600 2669 2842 
Q 2491 3084 2119 3084 
Q 1678 3084 1418 2786 
Q 1159 2488 1159 1978 
L 1159 0 
L 581 0 
L 581 3500 
L 1159 3500 
L 1159 2956 
Q 1356 3278 1631 3431 
Q 1906 3584 2284 3584 
Q 2666 3584 2933 3390 
Q 3200 3197 3328 2828 
z
" transform="scale(0.015625)"/>
       <path id="DejaVuSans-70" d="M 1159 525 
L 1159 -1331 
L 581 -1331 
L 581 3500 
L 1159 3500 
L 1159 2969 
Q 1341 3281 1617 3432 
Q 1894 3584 2278 3584 
Q 2916 3584 3314 3078 
Q 3713 2572 3713 1747 
Q 3713 922 3314 415 
Q 2916 -91 2278 -91 
Q 1894 -91 1617 61 
Q 1341 213 1159 525 
z
M 3116 1747 
Q 3116 2381 2855 2742 
Q 2594 3103 2138 3103 
Q 1681 3103 1420 2742 
Q 1159 2381 1159 1747 
Q 1159 1113 1420 752 
Q 1681 391 2138 391 
Q 2594 391 2855 752 
Q 3116 1113 3116 1747 
z
" transform="scale(0.015625)"/>
       <path id="DejaVuSans-6c" d="M 603 4863 
L 1178 4863 
L 1178 0 
L 603 0 
L 603 4863 
z
" transform="scale(0.015625)"/>
       <path id="DejaVuSans-65" d="M 3597 1894 
L 3597 1613 
L 953 1613 
Q 991 1019 1311 708 
Q 1631 397 2203 397 
Q 2534 397 2845 478 
Q 3156 559 3463 722 
L 3463 178 
Q 3153 47 2828 -22 
Q 2503 -91 2169 -91 
Q 1331 -91 842 396 
Q 353 884 353 1716 
Q 353 2575 817 3079 
Q 1281 3584 2069 3584 
Q 2775 3584 3186 3129 
Q 3597 2675 3597 1894 
z
M 3022 2063 
Q 3016 2534 2758 2815 
Q 2500 3097 2075 3097 
Q 1594 3097 1305 2825 
Q 1016 2553 972 2059 
L 3022 2063 
z
" transform="scale(0.015625)"/>
       <path id="DejaVuSans-73" d="M 2834 3397 
L 2834 2853 
Q 2591 2978 2328 3040 
Q 2066 3103 1784 3103 
Q 1356 3103 1142 2972 
Q 928 2841 928 2578 
Q 928 2378 1081 2264 
Q 1234 2150 1697 2047 
L 1894 2003 
Q 2506 1872 2764 1633 
Q 3022 1394 3022 966 
Q 3022 478 2636 193 
Q 2250 -91 1575 -91 
Q 1294 -91 989 -36 
Q 684 19 347 128 
L 347 722 
Q 666 556 975 473 
Q 1284 391 1588 391 
Q 1994 391 2212 530 
Q 2431 669 2431 922 
Q 2431 1156 2273 1281 
Q 2116 1406 1581 1522 
L 1381 1569 
Q 847 1681 609 1914 
Q 372 2147 372 2553 
Q 372 3047 722 3315 
Q 1072 3584 1716 3584 
Q 2034 3584 2315 3537 
Q 2597 3491 2834 3397 
z
" transform="scale(0.015625)"/>
      </defs>
      <use xlink:href="#DejaVuSans-53"/>
      <use xlink:href="#DejaVuSans-61" transform="translate(63.476562 0)"/>
      <use xlink:href="#DejaVuSans-6d" transform="translate(124.755859 0)"/>
      <use xlink:href="#DejaVuSans-70" transform="translate(222.167969 0)"/>
      <use xlink:href="#DejaVuSans-6c" transform="translate(285.644531 0)"/>
      <use xlink:href="#DejaVuSans-65" transform="translate(313.427734 0)"/>
      <use xlink:href="#DejaVuSans-73" transform="translate(374.951172 0)"/>
     </g>
    </g>
   </g>
   <g id="matplotlib.axis_2">
    <g id="ytick_1">
     <g id="line2d_9">
      <defs>
       <path id="m1a9c020e2d" d="M 0 0 
L -4.8 0 
" style="stroke: #262626"/>
      </defs>
      <g>
       <use xlink:href="#m1a9c020e2d" x="79.836" y="310.547091" style="fill: #262626; stroke: #262626"/>
      </g>
     </g>
     <g id="text_10">
      <!-- 0.000 -->
      <g style="fill: #262626" transform="translate(46.34325 313.890403) scale(0.088 -0.088)">
       <defs>
        <path id="DejaVuSans-2e" d="M 684 794 
L 1344 794 
L 1344 0 
L 684 0 
L 684 794 
z
" transform="scale(0.015625)"/>
       </defs>
       <use xlink:href="#DejaVuSans-30"/>
       <use xlink:href="#DejaVuSans-2e" transform="translate(63.623047 0)"/>
       <use xlink:href="#DejaVuSans-30" transform="translate(95.410156 0)"/>
       <use xlink:href="#DejaVuSans-30" transform="translate(159.033203 0)"/>
       <use xlink:href="#DejaVuSans-30" transform="translate(222.65625 0)"/>
      </g>
     </g>
    </g>
    <g id="ytick_2">
     <g id="line2d_10">
      <g>
       <use xlink:href="#m1a9c020e2d" x="79.836" y="272.150489" style="fill: #262626; stroke: #262626"/>
      </g>
     </g>
     <g id="text_11">
      <!-- 0.025 -->
      <g style="fill: #262626" transform="translate(46.34325 275.493801) scale(0.088 -0.088)">
       <use xlink:href="#DejaVuSans-30"/>
       <use xlink:href="#DejaVuSans-2e" transform="translate(63.623047 0)"/>
       <use xlink:href="#DejaVuSans-30" transform="translate(95.410156 0)"/>
       <use xlink:href="#DejaVuSans-32" transform="translate(159.033203 0)"/>
       <use xlink:href="#DejaVuSans-35" transform="translate(222.65625 0)"/>
      </g>
     </g>
    </g>
    <g id="ytick_3">
     <g id="line2d_11">
      <g>
       <use xlink:href="#m1a9c020e2d" x="79.836" y="233.753887" style="fill: #262626; stroke: #262626"/>
      </g>
     </g>
     <g id="text_12">
      <!-- 0.050 -->
      <g style="fill: #262626" transform="translate(46.34325 237.097199) scale(0.088 -0.088)">
       <use xlink:href="#DejaVuSans-30"/>
       <use xlink:href="#DejaVuSans-2e" transform="translate(63.623047 0)"/>
       <use xlink:href="#DejaVuSans-30" transform="translate(95.410156 0)"/>
       <use xlink:href="#DejaVuSans-35" transform="translate(159.033203 0)"/>
       <use xlink:href="#DejaVuSans-30" transform="translate(222.65625 0)"/>
      </g>
     </g>
    </g>
    <g id="ytick_4">
     <g id="line2d_12">
      <g>
       <use xlink:href="#m1a9c020e2d" x="79.836" y="195.357285" style="fill: #262626; stroke: #262626"/>
      </g>
     </g>
     <g id="text_13">
      <!-- 0.075 -->
      <g style="fill: #262626" transform="translate(46.34325 198.700597) scale(0.088 -0.088)">
       <use xlink:href="#DejaVuSans-30"/>
       <use xlink:href="#DejaVuSans-2e" transform="translate(63.623047 0)"/>
       <use xlink:href="#DejaVuSans-30" transform="translate(95.410156 0)"/>
       <use xlink:href="#DejaVuSans-37" transform="translate(159.033203 0)"/>
       <use xlink:href="#DejaVuSans-35" transform="translate(222.65625 0)"/>
      </g>
     </g>
    </g>
    <g id="ytick_5">
     <g id="line2d_13">
      <g>
       <use xlink:href="#m1a9c020e2d" x="79.836" y="156.960683" style="fill: #262626; stroke: #262626"/>
      </g>
     </g>
     <g id="text_14">
      <!-- 0.100 -->
      <g style="fill: #262626" transform="translate(46.34325 160.303995) scale(0.088 -0.088)">
       <use xlink:href="#DejaVuSans-30"/>
       <use xlink:href="#DejaVuSans-2e" transform="translate(63.623047 0)"/>
       <use xlink:href="#DejaVuSans-31" transform="translate(95.410156 0)"/>
       <use xlink:href="#DejaVuSans-30" transform="translate(159.033203 0)"/>
       <use xlink:href="#DejaVuSans-30" transform="translate(222.65625 0)"/>
      </g>
     </g>
    </g>
    <g id="ytick_6">
     <g id="line2d_14">
      <g>
       <use xlink:href="#m1a9c020e2d" x="79.836" y="118.564081" style="fill: #262626; stroke: #262626"/>
      </g>
     </g>
     <g id="text_15">
      <!-- 0.125 -->
      <g style="fill: #262626" transform="translate(46.34325 121.907393) scale(0.088 -0.088)">
       <use xlink:href="#DejaVuSans-30"/>
       <use xlink:href="#DejaVuSans-2e" transform="translate(63.623047 0)"/>
       <use xlink:href="#DejaVuSans-31" transform="translate(95.410156 0)"/>
       <use xlink:href="#DejaVuSans-32" transform="translate(159.033203 0)"/>
       <use xlink:href="#DejaVuSans-35" transform="translate(222.65625 0)"/>
      </g>
     </g>
    </g>
    <g id="ytick_7">
     <g id="line2d_15">
      <g>
       <use xlink:href="#m1a9c020e2d" x="79.836" y="80.167479" style="fill: #262626; stroke: #262626"/>
      </g>
     </g>
     <g id="text_16">
      <!-- 0.150 -->
      <g style="fill: #262626" transform="translate(46.34325 83.510791) scale(0.088 -0.088)">
       <use xlink:href="#DejaVuSans-30"/>
       <use xlink:href="#DejaVuSans-2e" transform="translate(63.623047 0)"/>
       <use xlink:href="#DejaVuSans-31" transform="translate(95.410156 0)"/>
       <use xlink:href="#DejaVuSans-35" transform="translate(159.033203 0)"/>
       <use xlink:href="#DejaVuSans-30" transform="translate(222.65625 0)"/>
      </g>
     </g>
    </g>
    <g id="ytick_8">
     <g id="line2d_16">
      <g>
       <use xlink:href="#m1a9c020e2d" x="79.836" y="41.770877" style="fill: #262626; stroke: #262626"/>
      </g>
     </g>
     <g id="text_17">
      <!-- 0.175 -->
      <g style="fill: #262626" transform="translate(46.34325 45.114189) scale(0.088 -0.088)">
       <use xlink:href="#DejaVuSans-30"/>
       <use xlink:href="#DejaVuSans-2e" transform="translate(63.623047 0)"/>
       <use xlink:href="#DejaVuSans-31" transform="translate(95.410156 0)"/>
       <use xlink:href="#DejaVuSans-37" transform="translate(159.033203 0)"/>
       <use xlink:href="#DejaVuSans-35" transform="translate(222.65625 0)"/>
      </g>
     </g>
    </g>
    <g id="text_18">
     <!-- HMP -->
     <g style="fill: #262626" transform="translate(40.34675 178.250167) rotate(-90) scale(0.096 -0.096)">
      <defs>
       <path id="DejaVuSans-48" d="M 628 4666 
L 1259 4666 
L 1259 2753 
L 3553 2753 
L 3553 4666 
L 4184 4666 
L 4184 0 
L 3553 0 
L 3553 2222 
L 1259 2222 
L 1259 0 
L 628 0 
L 628 4666 
z
" transform="scale(0.015625)"/>
       <path id="DejaVuSans-4d" d="M 628 4666 
L 1569 4666 
L 2759 1491 
L 3956 4666 
L 4897 4666 
L 4897 0 
L 4281 0 
L 4281 4097 
L 3078 897 
L 2444 897 
L 1241 4097 
L 1241 0 
L 628 0 
L 628 4666 
z
" transform="scale(0.015625)"/>
       <path id="DejaVuSans-50" d="M 1259 4147 
L 1259 2394 
L 2053 2394 
Q 2494 2394 2734 2622 
Q 2975 2850 2975 3272 
Q 2975 3691 2734 3919 
Q 2494 4147 2053 4147 
L 1259 4147 
z
M 628 4666 
L 2053 4666 
Q 2838 4666 3239 4311 
Q 3641 3956 3641 3272 
Q 3641 2581 3239 2228 
Q 2838 1875 2053 1875 
L 1259 1875 
L 1259 0 
L 628 0 
L 628 4666 
z
" transform="scale(0.015625)"/>
      </defs>
      <use xlink:href="#DejaVuSans-48"/>
      <use xlink:href="#DejaVuSans-4d" transform="translate(75.195312 0)"/>
      <use xlink:href="#DejaVuSans-50" transform="translate(161.474609 0)"/>
     </g>
    </g>
   </g>
   <g id="FillBetweenPolyCollection_1"/>
   <g id="FillBetweenPolyCollection_2"/>
   <g id="FillBetweenPolyCollection_3"/>
   <g id="FillBetweenPolyCollection_4"/>
   <g id="FillBetweenPolyCollection_5"/>
   <g id="line2d_17">
    <path d="M 105.190364 310.547091 
L 108.071541 307.20541 
L 110.952719 305.875309 
L 113.833897 304.117856 
L 116.715074 300.638165 
L 119.596252 293.749393 
L 122.47743 278.511982 
L 125.358607 242.571596 
L 128.239785 166.590673 
L 131.120963 63.152733 
L 134.00214 24.662242 
L 136.883318 92.160595 
L 139.764496 176.406763 
L 142.645674 222.710662 
L 145.526851 239.133535 
L 148.408029 246.277935 
L 151.289207 262.961435 
L 154.170384 287.111393 
L 157.051562 302.006052 
L 159.93274 307.109635 
L 162.813917 308.301096 
L 165.695095 308.040413 
L 171.45745 305.922664 
L 174.338628 305.64142 
L 177.219806 305.929866 
L 180.100983 306.509832 
L 185.863339 308.532047 
L 188.744517 309.178573 
L 191.625694 309.330595 
L 197.38805 308.963983 
L 200.269227 309.291692 
L 203.150405 309.866697 
L 206.031583 310.226163 
L 211.793938 310.432212 
L 220.437471 310.424469 
L 237.724537 310.124963 
L 243.486893 309.885732 
L 246.36807 309.82046 
L 249.249248 309.597193 
L 252.130426 308.995343 
L 255.011603 308.019761 
L 257.892781 307.542302 
L 260.773959 308.258622 
L 263.655136 309.280016 
L 266.536314 309.903204 
L 269.417492 310.201263 
L 275.179847 310.449716 
L 283.82338 310.535969 
L 309.753979 310.451413 
L 315.516335 310.195256 
L 324.159868 310.41012 
L 338.565756 310.537126 
L 612.277636 310.547091 
L 612.277636 310.547091 
" clip-path="url(#pd161a3fc2a)" style="fill: none; stroke: #66ccee; stroke-width: 1.2; stroke-linecap: round"/>
   </g>
   <g id="line2d_18">
    <path d="M 105.190364 310.547091 
L 110.952719 310.467399 
L 116.715074 310.431135 
L 125.358607 310.455884 
L 128.239785 310.399635 
L 131.120963 310.217028 
L 134.00214 309.443225 
L 136.883318 305.669541 
L 139.764496 291.413044 
L 142.645674 269.62442 
L 145.526851 272.122047 
L 148.408029 289.496358 
L 151.289207 298.111235 
L 154.170384 297.977994 
L 157.051562 290.233035 
L 159.93274 278.481606 
L 162.813917 277.649506 
L 165.695095 286.676668 
L 168.576273 291.579644 
L 171.45745 288.882243 
L 174.338628 280.539003 
L 177.219806 274.160351 
L 180.100983 272.99217 
L 182.982161 266.684639 
L 185.863339 242.74437 
L 188.744517 204.933272 
L 191.625694 204.328288 
L 194.506872 248.989699 
L 197.38805 281.439044 
L 200.269227 293.084114 
L 203.150405 295.155841 
L 206.031583 293.283274 
L 211.793938 286.579755 
L 214.675116 286.32495 
L 217.556293 292.397134 
L 220.437471 300.959807 
L 223.318649 306.208257 
L 226.199826 308.272075 
L 229.081004 308.976778 
L 234.84336 309.474157 
L 237.724537 309.514611 
L 240.605715 309.151477 
L 243.486893 307.876247 
L 246.36807 305.338975 
L 249.249248 303.807783 
L 252.130426 305.522777 
L 255.011603 307.641205 
L 257.892781 308.38229 
L 260.773959 307.702449 
L 263.655136 304.659187 
L 269.417492 291.610181 
L 272.298669 290.688694 
L 275.179847 291.229214 
L 278.061025 288.541004 
L 280.942202 285.176434 
L 283.82338 291.321492 
L 286.704558 303.086138 
L 289.585736 308.540872 
L 292.466913 309.790647 
L 295.348091 309.86292 
L 298.229269 309.194519 
L 301.110446 307.514257 
L 303.991624 306.722832 
L 306.872802 308.378823 
L 309.753979 309.726681 
L 312.635157 310.128216 
L 315.516335 310.072155 
L 318.397512 309.410373 
L 321.27869 307.081399 
L 324.159868 302.406884 
L 327.041045 297.169845 
L 329.922223 290.385136 
L 332.803401 276.066007 
L 335.684579 253.97784 
L 338.565756 250.231628 
L 341.446934 274.578447 
L 344.328112 294.166029 
L 347.209289 301.244591 
L 350.090467 302.577526 
L 352.971645 302.690667 
L 355.852822 304.715588 
L 358.734 307.693012 
L 361.615178 309.303599 
L 364.496355 309.785962 
L 367.377533 309.747718 
L 373.139888 309.0049 
L 376.021066 309.087803 
L 381.783421 309.885896 
L 384.664599 310.102211 
L 387.545777 310.185665 
L 390.426955 310.093423 
L 393.308132 309.445025 
L 396.18931 306.126605 
L 399.070488 295.605378 
L 401.951665 290.335609 
L 404.832843 301.128797 
L 407.714021 307.780302 
L 410.595198 309.43036 
L 413.476376 309.756142 
L 416.357554 309.876021 
L 422.119909 310.354755 
L 427.882264 310.501555 
L 439.406975 310.462631 
L 442.288153 310.290939 
L 448.050508 309.512038 
L 453.812864 309.844267 
L 456.694041 309.738405 
L 459.575219 309.188088 
L 462.456397 308.426695 
L 465.337574 308.516663 
L 468.218752 309.302825 
L 471.09993 309.834368 
L 476.862285 310.246283 
L 482.62464 310.517617 
L 497.030529 310.546797 
L 612.277636 310.547091 
L 612.277636 310.547091 
" clip-path="url(#pd161a3fc2a)" style="fill: none; stroke: #228833; stroke-width: 1.2; stroke-linecap: round"/>
   </g>
   <g id="line2d_19">
    <path d="M 105.190364 310.547091 
L 131.120963 310.458088 
L 136.883318 310.336236 
L 139.764496 310.088191 
L 145.526851 308.930778 
L 148.408029 308.822451 
L 151.289207 308.829772 
L 154.170384 308.606157 
L 157.051562 308.127382 
L 159.93274 307.770722 
L 162.813917 308.065129 
L 165.695095 308.845498 
L 168.576273 309.495183 
L 171.45745 309.817294 
L 177.219806 309.906623 
L 185.863339 309.780313 
L 188.744517 309.475473 
L 191.625694 308.651102 
L 194.506872 306.964792 
L 197.38805 304.784468 
L 200.269227 303.397871 
L 206.031583 302.91293 
L 208.91276 301.674391 
L 211.793938 298.598576 
L 214.675116 292.847076 
L 217.556293 283.67685 
L 220.437471 270.9679 
L 226.199826 240.955513 
L 229.081004 230.187175 
L 231.962182 227.522448 
L 234.84336 234.450609 
L 240.605715 260.790277 
L 243.486893 270.657976 
L 246.36807 277.686704 
L 249.249248 284.231416 
L 252.130426 291.318075 
L 255.011603 297.542585 
L 257.892781 301.52823 
L 260.773959 303.468708 
L 263.655136 304.279781 
L 266.536314 304.868354 
L 269.417492 305.74401 
L 272.298669 306.802512 
L 275.179847 307.741354 
L 278.061025 308.471232 
L 280.942202 309.048008 
L 283.82338 309.508704 
L 289.585736 310.0897 
L 295.348091 310.328666 
L 303.991624 310.368615 
L 309.753979 310.187082 
L 312.635157 309.915512 
L 315.516335 309.381059 
L 318.397512 308.586728 
L 321.27869 307.965285 
L 324.159868 308.04068 
L 329.922223 309.054143 
L 332.803401 309.154767 
L 335.684579 308.761808 
L 338.565756 307.549509 
L 341.446934 305.112762 
L 344.328112 301.89135 
L 347.209289 299.218674 
L 350.090467 297.046739 
L 352.971645 293.495385 
L 355.852822 286.641881 
L 358.734 277.028055 
L 361.615178 270.62577 
L 364.496355 274.026467 
L 370.258711 294.765242 
L 373.139888 301.180432 
L 376.021066 304.37003 
L 378.902244 305.615536 
L 381.783421 305.787892 
L 384.664599 305.54477 
L 387.545777 305.693038 
L 390.426955 306.747422 
L 393.308132 308.169885 
L 396.18931 309.167541 
L 399.070488 309.613041 
L 401.951665 309.687248 
L 404.832843 309.511903 
L 410.595198 308.84315 
L 413.476376 308.411172 
L 416.357554 307.396549 
L 419.238731 304.625021 
L 422.119909 297.963786 
L 425.001087 286.701745 
L 427.882264 276.794436 
L 430.763442 275.923704 
L 433.64462 283.144764 
L 436.525798 292.730753 
L 439.406975 300.712076 
L 442.288153 305.792876 
L 445.169331 308.423808 
L 448.050508 309.603977 
L 450.931686 310.096749 
L 453.812864 310.30166 
L 462.456397 310.463974 
L 471.09993 310.450375 
L 473.981107 310.369094 
L 476.862285 310.140724 
L 479.743463 309.513076 
L 482.62464 307.835062 
L 485.505818 303.732305 
L 488.386996 295.912189 
L 491.268174 287.128236 
L 494.149351 284.553141 
L 497.030529 289.12472 
L 499.911707 294.692485 
L 502.792884 297.59178 
L 505.674062 297.632289 
L 508.55524 295.859907 
L 511.436417 294.723384 
L 514.317595 296.901002 
L 517.198773 301.319867 
L 520.07995 304.921169 
L 522.961128 306.870584 
L 525.842306 307.82037 
L 531.604661 308.891862 
L 534.485839 309.174942 
L 537.367017 309.095827 
L 540.248194 308.409294 
L 543.129372 306.739433 
L 546.01055 304.49629 
L 548.891727 303.874081 
L 551.772905 305.632235 
L 554.654083 307.753918 
L 557.53526 309.104644 
L 560.416438 309.834744 
L 563.297616 310.227484 
L 566.178793 310.421601 
L 571.941149 310.52856 
L 609.396459 310.547091 
L 612.277636 310.547091 
L 612.277636 310.547091 
" clip-path="url(#pd161a3fc2a)" style="fill: none; stroke: #ccbb44; stroke-width: 1.2; stroke-linecap: round"/>
   </g>
   <g id="line2d_20">
    <path d="M 105.190364 310.547091 
L 174.338628 310.44762 
L 191.625694 310.445235 
L 200.269227 310.38346 
L 211.793938 310.218352 
L 220.437471 310.301866 
L 226.199826 310.129987 
L 231.962182 309.687215 
L 237.724537 309.120442 
L 240.605715 309.11133 
L 246.36807 309.493743 
L 249.249248 309.498148 
L 252.130426 309.239431 
L 257.892781 308.106311 
L 260.773959 307.93489 
L 266.536314 308.384857 
L 269.417492 308.177684 
L 272.298669 307.438929 
L 275.179847 306.247625 
L 278.061025 304.766018 
L 280.942202 302.387319 
L 283.82338 296.554916 
L 286.704558 281.001124 
L 289.585736 247.989534 
L 292.466913 210.825966 
L 295.348091 206.202047 
L 298.229269 230.472508 
L 301.110446 253.056512 
L 303.991624 264.871543 
L 306.872802 271.4 
L 309.753979 279.927545 
L 312.635157 291.717448 
L 315.516335 301.376439 
L 318.397512 306.328022 
L 321.27869 308.258527 
L 324.159868 308.922717 
L 335.684579 309.824817 
L 338.565756 309.954816 
L 344.328112 309.873126 
L 350.090467 309.694576 
L 361.615178 309.856322 
L 367.377533 309.552666 
L 373.139888 309.065278 
L 376.021066 308.609421 
L 384.664599 306.71745 
L 387.545777 306.332647 
L 390.426955 306.190766 
L 393.308132 306.446864 
L 396.18931 306.970927 
L 399.070488 307.268977 
L 401.951665 306.868594 
L 404.832843 305.399094 
L 407.714021 302.890474 
L 410.595198 300.573068 
L 413.476376 299.752473 
L 419.238731 300.100178 
L 422.119909 300.523753 
L 425.001087 301.641786 
L 427.882264 302.954586 
L 430.763442 303.552508 
L 433.64462 303.203051 
L 436.525798 302.657913 
L 439.406975 303.201218 
L 442.288153 304.739466 
L 445.169331 305.84755 
L 448.050508 305.691672 
L 450.931686 303.98199 
L 453.812864 301.069441 
L 456.694041 298.86175 
L 462.456397 298.159617 
L 465.337574 295.646119 
L 468.218752 290.278081 
L 471.09993 284.452136 
L 473.981107 282.437376 
L 479.743463 285.53343 
L 482.62464 285.611171 
L 485.505818 285.962076 
L 488.386996 288.565743 
L 491.268174 292.615966 
L 494.149351 296.00815 
L 497.030529 298.226471 
L 499.911707 300.293219 
L 502.792884 303.14511 
L 505.674062 306.181739 
L 508.55524 308.267589 
L 511.436417 309.299498 
L 514.317595 309.738863 
L 520.07995 310.055189 
L 525.842306 310.130635 
L 528.723483 309.949207 
L 531.604661 309.33712 
L 537.367017 306.455388 
L 540.248194 306.396038 
L 543.129372 307.148058 
L 546.01055 307.268201 
L 548.891727 306.018439 
L 551.772905 302.671425 
L 554.654083 297.702056 
L 557.53526 294.435996 
L 560.416438 294.65281 
L 563.297616 295.842553 
L 566.178793 295.253101 
L 569.059971 291.324935 
L 571.941149 283.520978 
L 574.822326 275.14033 
L 577.703504 274.045434 
L 580.584682 281.788585 
L 583.46586 290.648928 
L 586.347037 295.675581 
L 589.228215 296.823875 
L 592.109393 295.147566 
L 594.99057 292.470642 
L 597.871748 292.715681 
L 600.752926 298.276268 
L 603.634103 304.964258 
L 606.515281 308.747396 
L 609.396459 310.162515 
L 612.277636 310.547091 
L 612.277636 310.547091 
" clip-path="url(#pd161a3fc2a)" style="fill: none; stroke: #ee6677; stroke-width: 1.2; stroke-linecap: round"/>
   </g>
   <g id="line2d_21">
    <path d="M 105.190364 310.547091 
L 531.604661 310.490087 
L 540.248194 310.193511 
L 546.01055 309.87529 
L 560.416438 308.369169 
L 563.297616 307.685608 
L 566.178793 306.357948 
L 569.059971 304.203767 
L 571.941149 301.594372 
L 574.822326 299.634673 
L 577.703504 299.10625 
L 580.584682 299.350705 
L 583.46586 298.800976 
L 586.347037 295.493228 
L 589.228215 285.655819 
L 592.109393 260.45805 
L 594.99057 205.660675 
L 597.871748 121.22161 
L 600.752926 50.67838 
L 603.634103 38.689512 
L 606.515281 70.172535 
L 609.396459 116.027837 
L 612.277636 203.405038 
L 612.277636 203.405038 
" clip-path="url(#pd161a3fc2a)" style="fill: none; stroke: #aa3377; stroke-width: 1.2; stroke-linecap: round"/>
   </g>
   <g id="patch_3">
    <path d="M 79.836 324.841333 
L 79.836 10.368 
" style="fill: none; stroke: #262626; stroke-linejoin: miter; stroke-linecap: square"/>
   </g>
   <g id="patch_4">
    <path d="M 637.632 324.841333 
L 637.632 10.368 
" style="fill: none; stroke: #262626; stroke-linejoin: miter; stroke-linecap: square"/>
   </g>
   <g id="patch_5">
    <path d="M 79.836 324.841333 
L 637.632 324.841333 
" style="fill: none; stroke: #262626; stroke-linejoin: miter; stroke-linecap: square"/>
   </g>
   <g id="patch_6">
    <path d="M 79.836 10.368 
L 637.632 10.368 
" style="fill: none; stroke: #262626; stroke-linejoin: miter; stroke-linecap: square"/>
   </g>
  </g>
  <g id="axes_2">
   <g id="patch_7">
    <path d="M 79.836 677.822667 
L 637.632 677.822667 
L 637.632 363.349333 
L 79.836 363.349333 
L 79.836 677.822667 
z
" style="fill: none"/>
   </g>
   <g id="matplotlib.axis_3">
    <g id="xtick_9">
     <g id="line2d_22">
      <g>
       <use xlink:href="#m42ae67933c" x="105.190364" y="677.822667" style="fill: #262626; stroke: #262626"/>
      </g>
     </g>
     <g id="text_19">
      <!-- 0 -->
      <g style="fill: #262626" transform="translate(102.390864 692.809292) scale(0.088 -0.088)">
       <use xlink:href="#DejaVuSans-30"/>
      </g>
     </g>
    </g>
    <g id="xtick_10">
     <g id="line2d_23">
      <g>
       <use xlink:href="#m42ae67933c" x="177.219806" y="677.822667" style="fill: #262626; stroke: #262626"/>
      </g>
     </g>
     <g id="text_20">
      <!-- 25 -->
      <g style="fill: #262626" transform="translate(171.620806 692.809292) scale(0.088 -0.088)">
       <use xlink:href="#DejaVuSans-32"/>
       <use xlink:href="#DejaVuSans-35" transform="translate(63.623047 0)"/>
      </g>
     </g>
    </g>
    <g id="xtick_11">
     <g id="line2d_24">
      <g>
       <use xlink:href="#m42ae67933c" x="249.249248" y="677.822667" style="fill: #262626; stroke: #262626"/>
      </g>
     </g>
     <g id="text_21">
      <!-- 50 -->
      <g style="fill: #262626" transform="translate(243.650248 692.809292) scale(0.088 -0.088)">
       <use xlink:href="#DejaVuSans-35"/>
       <use xlink:href="#DejaVuSans-30" transform="translate(63.623047 0)"/>
      </g>
     </g>
    </g>
    <g id="xtick_12">
     <g id="line2d_25">
      <g>
       <use xlink:href="#m42ae67933c" x="321.27869" y="677.822667" style="fill: #262626; stroke: #262626"/>
      </g>
     </g>
     <g id="text_22">
      <!-- 75 -->
      <g style="fill: #262626" transform="translate(315.67969 692.809292) scale(0.088 -0.088)">
       <use xlink:href="#DejaVuSans-37"/>
       <use xlink:href="#DejaVuSans-35" transform="translate(63.623047 0)"/>
      </g>
     </g>
    </g>
    <g id="xtick_13">
     <g id="line2d_26">
      <g>
       <use xlink:href="#m42ae67933c" x="393.308132" y="677.822667" style="fill: #262626; stroke: #262626"/>
      </g>
     </g>
     <g id="text_23">
      <!-- 100 -->
      <g style="fill: #262626" transform="translate(384.909632 692.809292) scale(0.088 -0.088)">
       <use xlink:href="#DejaVuSans-31"/>
       <use xlink:href="#DejaVuSans-30" transform="translate(63.623047 0)"/>
       <use xlink:href="#DejaVuSans-30" transform="translate(127.246094 0)"/>
      </g>
     </g>
    </g>
    <g id="xtick_14">
     <g id="line2d_27">
      <g>
       <use xlink:href="#m42ae67933c" x="465.337574" y="677.822667" style="fill: #262626; stroke: #262626"/>
      </g>
     </g>
     <g id="text_24">
      <!-- 125 -->
      <g style="fill: #262626" transform="translate(456.939074 692.809292) scale(0.088 -0.088)">
       <use xlink:href="#DejaVuSans-31"/>
       <use xlink:href="#DejaVuSans-32" transform="translate(63.623047 0)"/>
       <use xlink:href="#DejaVuSans-35" transform="translate(127.246094 0)"/>
      </g>
     </g>
    </g>
    <g id="xtick_15">
     <g id="line2d_28">
      <g>
       <use xlink:href="#m42ae67933c" x="537.367017" y="677.822667" style="fill: #262626; stroke: #262626"/>
      </g>
     </g>
     <g id="text_25">
      <!-- 150 -->
      <g style="fill: #262626" transform="translate(528.968517 692.809292) scale(0.088 -0.088)">
       <use xlink:href="#DejaVuSans-31"/>
       <use xlink:href="#DejaVuSans-35" transform="translate(63.623047 0)"/>
       <use xlink:href="#DejaVuSans-30" transform="translate(127.246094 0)"/>
      </g>
     </g>
    </g>
    <g id="xtick_16">
     <g id="line2d_29">
      <g>
       <use xlink:href="#m42ae67933c" x="609.396459" y="677.822667" style="fill: #262626; stroke: #262626"/>
      </g>
     </g>
     <g id="text_26">
      <!-- 175 -->
      <g style="fill: #262626" transform="translate(600.997959 692.809292) scale(0.088 -0.088)">
       <use xlink:href="#DejaVuSans-31"/>
       <use xlink:href="#DejaVuSans-37" transform="translate(63.623047 0)"/>
       <use xlink:href="#DejaVuSans-35" transform="translate(127.246094 0)"/>
      </g>
     </g>
    </g>
   </g>
   <g id="matplotlib.axis_4">
    <g id="ytick_9">
     <g id="line2d_30">
      <g>
       <use xlink:href="#m1a9c020e2d" x="79.836" y="663.528989" style="fill: #262626; stroke: #262626"/>
      </g>
     </g>
     <g id="text_27">
      <!-- 0.000 -->
      <g style="fill: #262626" transform="translate(46.34325 666.872302) scale(0.088 -0.088)">
       <use xlink:href="#DejaVuSans-30"/>
       <use xlink:href="#DejaVuSans-2e" transform="translate(63.623047 0)"/>
       <use xlink:href="#DejaVuSans-30" transform="translate(95.410156 0)"/>
       <use xlink:href="#DejaVuSans-30" transform="translate(159.033203 0)"/>
       <use xlink:href="#DejaVuSans-30" transform="translate(222.65625 0)"/>
      </g>
     </g>
    </g>
    <g id="ytick_10">
     <g id="line2d_31">
      <g>
       <use xlink:href="#m1a9c020e2d" x="79.836" y="625.528084" style="fill: #262626; stroke: #262626"/>
      </g>
     </g>
     <g id="text_28">
      <!-- 0.025 -->
      <g style="fill: #262626" transform="translate(46.34325 628.871397) scale(0.088 -0.088)">
       <use xlink:href="#DejaVuSans-30"/>
       <use xlink:href="#DejaVuSans-2e" transform="translate(63.623047 0)"/>
       <use xlink:href="#DejaVuSans-30" transform="translate(95.410156 0)"/>
       <use xlink:href="#DejaVuSans-32" transform="translate(159.033203 0)"/>
       <use xlink:href="#DejaVuSans-35" transform="translate(222.65625 0)"/>
      </g>
     </g>
    </g>
    <g id="ytick_11">
     <g id="line2d_32">
      <g>
       <use xlink:href="#m1a9c020e2d" x="79.836" y="587.52718" style="fill: #262626; stroke: #262626"/>
      </g>
     </g>
     <g id="text_29">
      <!-- 0.050 -->
      <g style="fill: #262626" transform="translate(46.34325 590.870492) scale(0.088 -0.088)">
       <use xlink:href="#DejaVuSans-30"/>
       <use xlink:href="#DejaVuSans-2e" transform="translate(63.623047 0)"/>
       <use xlink:href="#DejaVuSans-30" transform="translate(95.410156 0)"/>
       <use xlink:href="#DejaVuSans-35" transform="translate(159.033203 0)"/>
       <use xlink:href="#DejaVuSans-30" transform="translate(222.65625 0)"/>
      </g>
     </g>
    </g>
    <g id="ytick_12">
     <g id="line2d_33">
      <g>
       <use xlink:href="#m1a9c020e2d" x="79.836" y="549.526275" style="fill: #262626; stroke: #262626"/>
      </g>
     </g>
     <g id="text_30">
      <!-- 0.075 -->
      <g style="fill: #262626" transform="translate(46.34325 552.869587) scale(0.088 -0.088)">
       <use xlink:href="#DejaVuSans-30"/>
       <use xlink:href="#DejaVuSans-2e" transform="translate(63.623047 0)"/>
       <use xlink:href="#DejaVuSans-30" transform="translate(95.410156 0)"/>
       <use xlink:href="#DejaVuSans-37" transform="translate(159.033203 0)"/>
       <use xlink:href="#DejaVuSans-35" transform="translate(222.65625 0)"/>
      </g>
     </g>
    </g>
    <g id="ytick_13">
     <g id="line2d_34">
      <g>
       <use xlink:href="#m1a9c020e2d" x="79.836" y="511.52537" style="fill: #262626; stroke: #262626"/>
      </g>
     </g>
     <g id="text_31">
      <!-- 0.100 -->
      <g style="fill: #262626" transform="translate(46.34325 514.868683) scale(0.088 -0.088)">
       <use xlink:href="#DejaVuSans-30"/>
       <use xlink:href="#DejaVuSans-2e" transform="translate(63.623047 0)"/>
       <use xlink:href="#DejaVuSans-31" transform="translate(95.410156 0)"/>
       <use xlink:href="#DejaVuSans-30" transform="translate(159.033203 0)"/>
       <use xlink:href="#DejaVuSans-30" transform="translate(222.65625 0)"/>
      </g>
     </g>
    </g>
    <g id="ytick_14">
     <g id="line2d_35">
      <g>
       <use xlink:href="#m1a9c020e2d" x="79.836" y="473.524466" style="fill: #262626; stroke: #262626"/>
      </g>
     </g>
     <g id="text_32">
      <!-- 0.125 -->
      <g style="fill: #262626" transform="translate(46.34325 476.867778) scale(0.088 -0.088)">
       <use xlink:href="#DejaVuSans-30"/>
       <use xlink:href="#DejaVuSans-2e" transform="translate(63.623047 0)"/>
       <use xlink:href="#DejaVuSans-31" transform="translate(95.410156 0)"/>
       <use xlink:href="#DejaVuSans-32" transform="translate(159.033203 0)"/>
       <use xlink:href="#DejaVuSans-35" transform="translate(222.65625 0)"/>
      </g>
     </g>
    </g>
    <g id="ytick_15">
     <g id="line2d_36">
      <g>
       <use xlink:href="#m1a9c020e2d" x="79.836" y="435.523561" style="fill: #262626; stroke: #262626"/>
      </g>
     </g>
     <g id="text_33">
      <!-- 0.150 -->
      <g style="fill: #262626" transform="translate(46.34325 438.866873) scale(0.088 -0.088)">
       <use xlink:href="#DejaVuSans-30"/>
       <use xlink:href="#DejaVuSans-2e" transform="translate(63.623047 0)"/>
       <use xlink:href="#DejaVuSans-31" transform="translate(95.410156 0)"/>
       <use xlink:href="#DejaVuSans-35" transform="translate(159.033203 0)"/>
       <use xlink:href="#DejaVuSans-30" transform="translate(222.65625 0)"/>
      </g>
     </g>
    </g>
    <g id="ytick_16">
     <g id="line2d_37">
      <g>
       <use xlink:href="#m1a9c020e2d" x="79.836" y="397.522656" style="fill: #262626; stroke: #262626"/>
      </g>
     </g>
     <g id="text_34">
      <!-- 0.175 -->
      <g style="fill: #262626" transform="translate(46.34325 400.865969) scale(0.088 -0.088)">
       <use xlink:href="#DejaVuSans-30"/>
       <use xlink:href="#DejaVuSans-2e" transform="translate(63.623047 0)"/>
       <use xlink:href="#DejaVuSans-31" transform="translate(95.410156 0)"/>
       <use xlink:href="#DejaVuSans-37" transform="translate(159.033203 0)"/>
       <use xlink:href="#DejaVuSans-35" transform="translate(222.65625 0)"/>
      </g>
     </g>
    </g>
    <g id="text_35">
     <!-- S4 -->
     <g style="fill: #262626" transform="translate(40.34675 526.68725) rotate(-90) scale(0.096 -0.096)">
      <defs>
       <path id="DejaVuSans-34" d="M 2419 4116 
L 825 1625 
L 2419 1625 
L 2419 4116 
z
M 2253 4666 
L 3047 4666 
L 3047 1625 
L 3713 1625 
L 3713 1100 
L 3047 1100 
L 3047 0 
L 2419 0 
L 2419 1100 
L 313 1100 
L 313 1709 
L 2253 4666 
z
" transform="scale(0.015625)"/>
      </defs>
      <use xlink:href="#DejaVuSans-53"/>
      <use xlink:href="#DejaVuSans-34" transform="translate(63.476562 0)"/>
     </g>
    </g>
   </g>
   <g id="FillBetweenPolyCollection_6"/>
   <g id="FillBetweenPolyCollection_7"/>
   <g id="FillBetweenPolyCollection_8"/>
   <g id="FillBetweenPolyCollection_9"/>
   <g id="FillBetweenPolyCollection_10"/>
   <g id="line2d_38">
    <path d="M 105.190364 663.425903 
L 108.071541 649.372195 
L 110.952719 643.432245 
L 113.833897 626.670945 
L 119.596252 618.249312 
L 122.47743 612.786741 
L 125.358607 612.748128 
L 128.239785 558.701467 
L 131.120963 463.568592 
L 134.00214 434.688639 
L 136.883318 453.508528 
L 139.764496 536.049713 
L 142.645674 587.302284 
L 145.526851 605.415755 
L 148.408029 607.758878 
L 151.289207 615.315925 
L 154.170384 638.485726 
L 157.051562 654.452187 
L 159.93274 659.990032 
L 162.813917 661.144758 
L 165.695095 660.870493 
L 168.576273 659.296118 
L 171.45745 658.490107 
L 174.338628 658.555414 
L 177.219806 657.85645 
L 180.100983 658.277533 
L 185.863339 661.062149 
L 188.744517 662.139873 
L 191.625694 662.300738 
L 194.506872 662.273609 
L 200.269227 662.67418 
L 203.150405 663.102871 
L 208.91276 663.343697 
L 220.437471 663.438832 
L 246.36807 663.34451 
L 252.130426 663.173743 
L 257.892781 662.488547 
L 260.773959 662.622343 
L 269.417492 663.349467 
L 283.82338 663.502158 
L 309.753979 663.455026 
L 318.397512 663.230013 
L 327.041045 663.40567 
L 332.803401 663.435784 
L 341.446934 663.503312 
L 433.64462 663.524515 
L 612.277636 663.521741 
L 612.277636 663.521741 
" clip-path="url(#pd5c55d4810)" style="fill: none; stroke: #66ccee; stroke-width: 1.2; stroke-linecap: round"/>
   </g>
   <g id="line2d_39">
    <path d="M 105.190364 663.524765 
L 110.952719 663.40476 
L 113.833897 663.170593 
L 119.596252 663.257808 
L 128.239785 663.256282 
L 131.120963 663.050645 
L 134.00214 662.451445 
L 136.883318 659.349825 
L 139.764496 648.785984 
L 142.645674 628.893987 
L 145.526851 621.043485 
L 148.408029 636.388398 
L 151.289207 646.493988 
L 154.170384 646.786036 
L 157.051562 631.746507 
L 159.93274 614.26815 
L 162.813917 601.053272 
L 165.695095 624.401393 
L 168.576273 636.186561 
L 171.45745 637.709938 
L 174.338628 613.203716 
L 177.219806 614.827052 
L 180.100983 619.748768 
L 182.982161 626.107416 
L 185.863339 605.052127 
L 188.744517 532.097371 
L 191.625694 542.762142 
L 194.506872 587.82742 
L 197.38805 627.801707 
L 200.269227 638.734148 
L 203.150405 643.573661 
L 206.031583 642.784742 
L 208.91276 637.165326 
L 211.793938 628.481253 
L 214.675116 623.386265 
L 217.556293 632.439159 
L 220.437471 645.495961 
L 223.318649 654.776364 
L 226.199826 658.102148 
L 231.962182 660.088309 
L 234.84336 660.810786 
L 237.724537 660.740844 
L 240.605715 658.713842 
L 243.486893 654.022271 
L 246.36807 647.242337 
L 249.249248 643.588201 
L 252.130426 648.991722 
L 255.011603 654.635404 
L 257.892781 656.734007 
L 260.773959 653.460271 
L 263.655136 646.791105 
L 266.536314 631.894159 
L 269.417492 624.152715 
L 272.298669 627.108234 
L 275.179847 630.978894 
L 278.061025 627.237182 
L 280.942202 615.534059 
L 283.82338 625.156016 
L 286.704558 645.848838 
L 289.585736 659.548124 
L 292.466913 662.166971 
L 295.348091 662.094206 
L 298.229269 660.337188 
L 301.110446 657.008275 
L 303.991624 655.822545 
L 306.872802 660.152625 
L 309.753979 662.600864 
L 312.635157 663.01765 
L 315.516335 662.915089 
L 318.397512 661.689067 
L 321.27869 658.474358 
L 324.159868 654.760031 
L 327.041045 650.737574 
L 329.922223 644.853202 
L 332.803401 629.84116 
L 335.684579 600.219486 
L 338.565756 594.131452 
L 341.446934 625.34168 
L 344.328112 648.518768 
L 347.209289 653.113394 
L 350.090467 652.768108 
L 352.971645 654.016929 
L 355.852822 656.921661 
L 358.734 660.477451 
L 361.615178 662.419314 
L 364.496355 662.909897 
L 367.377533 662.734674 
L 370.258711 662.259998 
L 373.139888 662.048863 
L 376.021066 662.090098 
L 381.783421 662.888277 
L 387.545777 663.204829 
L 390.426955 663.145064 
L 393.308132 662.442346 
L 396.18931 659.22971 
L 401.951665 631.493543 
L 404.832843 651.173611 
L 407.714021 661.067897 
L 410.595198 662.252485 
L 425.001087 663.424217 
L 439.406975 663.44065 
L 442.288153 663.279166 
L 448.050508 662.730647 
L 453.812864 663.108736 
L 456.694041 663.011922 
L 459.575219 662.620046 
L 462.456397 662.059845 
L 465.337574 662.218423 
L 468.218752 662.817907 
L 471.09993 663.08631 
L 485.505818 663.498262 
L 520.07995 663.519254 
L 548.891727 663.52312 
L 612.277636 663.509234 
L 612.277636 663.509234 
" clip-path="url(#pd5c55d4810)" style="fill: none; stroke: #228833; stroke-width: 1.2; stroke-linecap: round"/>
   </g>
   <g id="line2d_40">
    <path d="M 105.190364 663.526329 
L 134.00214 663.375336 
L 159.93274 662.924274 
L 162.813917 662.642797 
L 168.576273 663.173931 
L 174.338628 663.25485 
L 188.744517 663.034504 
L 191.625694 662.824567 
L 194.506872 661.947404 
L 197.38805 660.188373 
L 200.269227 658.896076 
L 203.150405 658.482912 
L 206.031583 658.797968 
L 208.91276 658.02818 
L 211.793938 656.330608 
L 214.675116 653.192167 
L 217.556293 647.80022 
L 220.437471 640.775143 
L 223.318649 631.745938 
L 226.199826 622.187532 
L 229.081004 615.280993 
L 231.962182 607.495721 
L 234.84336 604.286054 
L 237.724537 611.49927 
L 240.605715 627.218603 
L 243.486893 637.84851 
L 246.36807 640.132897 
L 249.249248 642.640518 
L 252.130426 646.949036 
L 255.011603 653.211184 
L 257.892781 655.839786 
L 260.773959 657.332424 
L 266.536314 658.457416 
L 269.417492 659.248374 
L 275.179847 660.535703 
L 278.061025 661.377488 
L 283.82338 661.563088 
L 289.585736 662.385829 
L 295.348091 662.655299 
L 298.229269 662.847221 
L 306.872802 662.766024 
L 309.753979 662.534149 
L 312.635157 661.708694 
L 315.516335 660.615564 
L 318.397512 659.861812 
L 321.27869 658.686735 
L 324.159868 658.301903 
L 327.041045 659.434267 
L 329.922223 661.195273 
L 332.803401 662.036177 
L 335.684579 661.245249 
L 338.565756 659.424017 
L 341.446934 656.027832 
L 344.328112 650.685298 
L 350.090467 647.690145 
L 352.971645 642.8992 
L 355.852822 634.787288 
L 358.734 620.709772 
L 361.615178 610.32792 
L 364.496355 610.649719 
L 367.377533 621.84342 
L 370.258711 635.530099 
L 373.139888 645.965189 
L 376.021066 652.220576 
L 378.902244 654.537349 
L 381.783421 654.658213 
L 387.545777 652.947751 
L 390.426955 654.948654 
L 393.308132 659.790142 
L 396.18931 662.29731 
L 399.070488 662.094037 
L 401.951665 662.177703 
L 404.832843 662.141789 
L 407.714021 661.093448 
L 410.595198 659.807591 
L 413.476376 659.405963 
L 416.357554 658.174862 
L 419.238731 653.625941 
L 422.119909 643.010163 
L 425.001087 628.762332 
L 427.882264 616.714233 
L 430.763442 612.533239 
L 433.64462 617.522872 
L 436.525798 629.372713 
L 439.406975 639.750584 
L 442.288153 653.694032 
L 445.169331 659.275385 
L 448.050508 661.251649 
L 450.931686 662.419067 
L 453.812864 662.816902 
L 459.575219 663.108163 
L 468.218752 663.239739 
L 471.09993 663.07628 
L 473.981107 662.760139 
L 476.862285 662.067856 
L 479.743463 660.718504 
L 482.62464 657.430314 
L 485.505818 649.723443 
L 488.386996 635.255634 
L 491.268174 615.311656 
L 494.149351 609.990748 
L 497.030529 620.166134 
L 499.911707 632.420297 
L 502.792884 639.910684 
L 505.674062 640.390653 
L 508.55524 639.631166 
L 511.436417 639.15453 
L 514.317595 641.522742 
L 520.07995 656.748453 
L 522.961128 660.145723 
L 525.842306 661.128825 
L 528.723483 661.186832 
L 531.604661 661.492907 
L 534.485839 661.496135 
L 537.367017 660.620503 
L 540.248194 659.551586 
L 543.129372 657.435064 
L 546.01055 653.244209 
L 548.891727 649.406012 
L 551.772905 652.057321 
L 554.654083 655.924944 
L 557.53526 658.749548 
L 560.416438 661.008577 
L 563.297616 662.224733 
L 566.178793 663.084504 
L 571.941149 663.404116 
L 589.228215 663.511156 
L 612.277636 663.4966 
L 612.277636 663.4966 
" clip-path="url(#pd5c55d4810)" style="fill: none; stroke: #ccbb44; stroke-width: 1.2; stroke-linecap: round"/>
   </g>
   <g id="line2d_41">
    <path d="M 105.190364 663.526442 
L 200.269227 663.299183 
L 203.150405 663.033083 
L 211.793938 662.730019 
L 223.318649 662.930383 
L 229.081004 662.738887 
L 231.962182 662.43137 
L 234.84336 661.980271 
L 237.724537 661.725243 
L 240.605715 661.910039 
L 243.486893 662.29642 
L 249.249248 662.642684 
L 252.130426 662.249485 
L 255.011603 661.294944 
L 260.773959 661.36654 
L 266.536314 661.832895 
L 269.417492 661.376025 
L 272.298669 660.791985 
L 278.061025 659.143911 
L 280.942202 657.377438 
L 283.82338 653.097309 
L 286.704558 641.798296 
L 292.466913 597.941075 
L 295.348091 593.595093 
L 298.229269 609.517838 
L 301.110446 624.275783 
L 303.991624 633.348939 
L 306.872802 638.572847 
L 309.753979 643.288482 
L 312.635157 649.164054 
L 315.516335 656.457969 
L 318.397512 660.938642 
L 321.27869 661.960671 
L 324.159868 662.417413 
L 327.041045 662.479804 
L 332.803401 663.006024 
L 335.684579 662.91601 
L 341.446934 662.997362 
L 347.209289 662.938022 
L 355.852822 663.051923 
L 361.615178 663.054865 
L 370.258711 662.728737 
L 378.902244 661.890621 
L 381.783421 661.290212 
L 384.664599 660.930705 
L 387.545777 660.379057 
L 390.426955 659.67468 
L 393.308132 660.4055 
L 396.18931 661.579771 
L 399.070488 660.468541 
L 401.951665 659.940541 
L 404.832843 658.8218 
L 407.714021 656.052155 
L 410.595198 655.980624 
L 413.476376 656.31532 
L 416.357554 655.450915 
L 419.238731 655.70307 
L 422.119909 655.318167 
L 425.001087 655.242029 
L 427.882264 655.933483 
L 430.763442 656.253355 
L 433.64462 655.867653 
L 436.525798 655.361471 
L 439.406975 656.069673 
L 442.288153 658.336879 
L 445.169331 659.373361 
L 448.050508 659.772842 
L 450.931686 658.457908 
L 453.812864 657.350971 
L 456.694041 656.938556 
L 459.575219 657.147682 
L 462.456397 656.340809 
L 465.337574 653.516805 
L 471.09993 643.975088 
L 473.981107 642.620682 
L 476.862285 645.079015 
L 479.743463 644.83169 
L 482.62464 644.252364 
L 488.386996 647.703993 
L 491.268174 650.247662 
L 494.149351 652.372481 
L 497.030529 654.307217 
L 499.911707 655.5691 
L 502.792884 657.48133 
L 505.674062 659.882061 
L 508.55524 661.449735 
L 511.436417 662.301746 
L 514.317595 662.707534 
L 522.961128 663.131732 
L 528.723483 663.060888 
L 531.604661 662.843465 
L 534.485839 661.958689 
L 537.367017 660.593304 
L 540.248194 660.565058 
L 543.129372 661.159819 
L 546.01055 660.843453 
L 548.891727 660.108767 
L 554.654083 656.319782 
L 557.53526 654.925206 
L 560.416438 654.679369 
L 563.297616 653.938105 
L 566.178793 654.08598 
L 569.059971 652.707426 
L 571.941149 650.617747 
L 574.822326 647.629846 
L 577.703504 648.46303 
L 580.584682 652.943089 
L 583.46586 657.723329 
L 586.347037 659.253055 
L 589.228215 659.092073 
L 594.99057 657.158142 
L 597.871748 656.79331 
L 600.752926 658.227315 
L 603.634103 660.506746 
L 606.515281 662.000099 
L 609.396459 662.582664 
L 612.277636 663.300043 
L 612.277636 663.300043 
" clip-path="url(#pd5c55d4810)" style="fill: none; stroke: #ee6677; stroke-width: 1.2; stroke-linecap: round"/>
   </g>
   <g id="line2d_42">
    <path d="M 105.190364 663.527201 
L 154.170384 663.525771 
L 479.743463 663.396678 
L 499.911707 663.211438 
L 517.198773 663.467664 
L 525.842306 663.480311 
L 531.604661 663.328168 
L 534.485839 662.813242 
L 537.367017 661.963129 
L 540.248194 661.263735 
L 546.01055 659.645819 
L 548.891727 657.173461 
L 551.772905 652.462679 
L 554.654083 648.957778 
L 557.53526 647.23641 
L 560.416438 647.707719 
L 563.297616 647.79207 
L 566.178793 638.968568 
L 569.059971 626.393745 
L 571.941149 613.266945 
L 574.822326 597.5191 
L 577.703504 584.785065 
L 580.584682 583.890457 
L 583.46586 598.13469 
L 586.347037 598.114571 
L 589.228215 590.924809 
L 592.109393 563.170281 
L 594.99057 501.881095 
L 597.871748 433.70967 
L 600.752926 377.643576 
L 603.634103 389.185605 
L 606.515281 432.351966 
L 609.396459 450.895543 
L 612.277636 523.488398 
L 612.277636 523.488398 
" clip-path="url(#pd5c55d4810)" style="fill: none; stroke: #aa3377; stroke-width: 1.2; stroke-linecap: round"/>
   </g>
   <g id="patch_8">
    <path d="M 79.836 677.822667 
L 79.836 363.349333 
" style="fill: none; stroke: #262626; stroke-linejoin: miter; stroke-linecap: square"/>
   </g>
   <g id="patch_9">
    <path d="M 637.632 677.822667 
L 637.632 363.349333 
" style="fill: none; stroke: #262626; stroke-linejoin: miter; stroke-linecap: square"/>
   </g>
   <g id="patch_10">
    <path d="M 79.836 677.822667 
L 637.632 677.822667 
" style="fill: none; stroke: #262626; stroke-linejoin: miter; stroke-linecap: square"/>
   </g>
   <g id="patch_11">
    <path d="M 79.836 363.349333 
L 637.632 363.349333 
" style="fill: none; stroke: #262626; stroke-linejoin: miter; stroke-linecap: square"/>
   </g>
  </g>
  <g id="axes_3">
   <g id="patch_12">
    <path d="M 79.836 1030.804 
L 637.632 1030.804 
L 637.632 716.330667 
L 79.836 716.330667 
L 79.836 1030.804 
z
" style="fill: none"/>
   </g>
   <g id="matplotlib.axis_5">
    <g id="xtick_17">
     <g id="line2d_43">
      <g>
       <use xlink:href="#m42ae67933c" x="105.190364" y="1030.804" style="fill: #262626; stroke: #262626"/>
      </g>
     </g>
     <g id="text_36">
      <!-- 0 -->
      <g style="fill: #262626" transform="translate(102.390864 1045.790625) scale(0.088 -0.088)">
       <use xlink:href="#DejaVuSans-30"/>
      </g>
     </g>
    </g>
    <g id="xtick_18">
     <g id="line2d_44">
      <g>
       <use xlink:href="#m42ae67933c" x="177.219806" y="1030.804" style="fill: #262626; stroke: #262626"/>
      </g>
     </g>
     <g id="text_37">
      <!-- 25 -->
      <g style="fill: #262626" transform="translate(171.620806 1045.790625) scale(0.088 -0.088)">
       <use xlink:href="#DejaVuSans-32"/>
       <use xlink:href="#DejaVuSans-35" transform="translate(63.623047 0)"/>
      </g>
     </g>
    </g>
    <g id="xtick_19">
     <g id="line2d_45">
      <g>
       <use xlink:href="#m42ae67933c" x="249.249248" y="1030.804" style="fill: #262626; stroke: #262626"/>
      </g>
     </g>
     <g id="text_38">
      <!-- 50 -->
      <g style="fill: #262626" transform="translate(243.650248 1045.790625) scale(0.088 -0.088)">
       <use xlink:href="#DejaVuSans-35"/>
       <use xlink:href="#DejaVuSans-30" transform="translate(63.623047 0)"/>
      </g>
     </g>
    </g>
    <g id="xtick_20">
     <g id="line2d_46">
      <g>
       <use xlink:href="#m42ae67933c" x="321.27869" y="1030.804" style="fill: #262626; stroke: #262626"/>
      </g>
     </g>
     <g id="text_39">
      <!-- 75 -->
      <g style="fill: #262626" transform="translate(315.67969 1045.790625) scale(0.088 -0.088)">
       <use xlink:href="#DejaVuSans-37"/>
       <use xlink:href="#DejaVuSans-35" transform="translate(63.623047 0)"/>
      </g>
     </g>
    </g>
    <g id="xtick_21">
     <g id="line2d_47">
      <g>
       <use xlink:href="#m42ae67933c" x="393.308132" y="1030.804" style="fill: #262626; stroke: #262626"/>
      </g>
     </g>
     <g id="text_40">
      <!-- 100 -->
      <g style="fill: #262626" transform="translate(384.909632 1045.790625) scale(0.088 -0.088)">
       <use xlink:href="#DejaVuSans-31"/>
       <use xlink:href="#DejaVuSans-30" transform="translate(63.623047 0)"/>
       <use xlink:href="#DejaVuSans-30" transform="translate(127.246094 0)"/>
      </g>
     </g>
    </g>
    <g id="xtick_22">
     <g id="line2d_48">
      <g>
       <use xlink:href="#m42ae67933c" x="465.337574" y="1030.804" style="fill: #262626; stroke: #262626"/>
      </g>
     </g>
     <g id="text_41">
      <!-- 125 -->
      <g style="fill: #262626" transform="translate(456.939074 1045.790625) scale(0.088 -0.088)">
       <use xlink:href="#DejaVuSans-31"/>
       <use xlink:href="#DejaVuSans-32" transform="translate(63.623047 0)"/>
       <use xlink:href="#DejaVuSans-35" transform="translate(127.246094 0)"/>
      </g>
     </g>
    </g>
    <g id="xtick_23">
     <g id="line2d_49">
      <g>
       <use xlink:href="#m42ae67933c" x="537.367017" y="1030.804" style="fill: #262626; stroke: #262626"/>
      </g>
     </g>
     <g id="text_42">
      <!-- 150 -->
      <g style="fill: #262626" transform="translate(528.968517 1045.790625) scale(0.088 -0.088)">
       <use xlink:href="#DejaVuSans-31"/>
       <use xlink:href="#DejaVuSans-35" transform="translate(63.623047 0)"/>
       <use xlink:href="#DejaVuSans-30" transform="translate(127.246094 0)"/>
      </g>
     </g>
    </g>
    <g id="xtick_24">
     <g id="line2d_50">
      <g>
       <use xlink:href="#m42ae67933c" x="609.396459" y="1030.804" style="fill: #262626; stroke: #262626"/>
      </g>
     </g>
     <g id="text_43">
      <!-- 175 -->
      <g style="fill: #262626" transform="translate(600.997959 1045.790625) scale(0.088 -0.088)">
       <use xlink:href="#DejaVuSans-31"/>
       <use xlink:href="#DejaVuSans-37" transform="translate(63.623047 0)"/>
       <use xlink:href="#DejaVuSans-35" transform="translate(127.246094 0)"/>
      </g>
     </g>
    </g>
   </g>
   <g id="matplotlib.axis_6">
    <g id="ytick_17">
     <g id="line2d_51">
      <g>
       <use xlink:href="#m1a9c020e2d" x="79.836" y="1016.533026" style="fill: #262626; stroke: #262626"/>
      </g>
     </g>
     <g id="text_44">
      <!-- 0.00 -->
      <g style="fill: #262626" transform="translate(51.94225 1019.876338) scale(0.088 -0.088)">
       <use xlink:href="#DejaVuSans-30"/>
       <use xlink:href="#DejaVuSans-2e" transform="translate(63.623047 0)"/>
       <use xlink:href="#DejaVuSans-30" transform="translate(95.410156 0)"/>
       <use xlink:href="#DejaVuSans-30" transform="translate(159.033203 0)"/>
      </g>
     </g>
    </g>
    <g id="ytick_18">
     <g id="line2d_52">
      <g>
       <use xlink:href="#m1a9c020e2d" x="79.836" y="962.149122" style="fill: #262626; stroke: #262626"/>
      </g>
     </g>
     <g id="text_45">
      <!-- 0.01 -->
      <g style="fill: #262626" transform="translate(51.94225 965.492435) scale(0.088 -0.088)">
       <use xlink:href="#DejaVuSans-30"/>
       <use xlink:href="#DejaVuSans-2e" transform="translate(63.623047 0)"/>
       <use xlink:href="#DejaVuSans-30" transform="translate(95.410156 0)"/>
       <use xlink:href="#DejaVuSans-31" transform="translate(159.033203 0)"/>
      </g>
     </g>
    </g>
    <g id="ytick_19">
     <g id="line2d_53">
      <g>
       <use xlink:href="#m1a9c020e2d" x="79.836" y="907.765218" style="fill: #262626; stroke: #262626"/>
      </g>
     </g>
     <g id="text_46">
      <!-- 0.02 -->
      <g style="fill: #262626" transform="translate(51.94225 911.108531) scale(0.088 -0.088)">
       <use xlink:href="#DejaVuSans-30"/>
       <use xlink:href="#DejaVuSans-2e" transform="translate(63.623047 0)"/>
       <use xlink:href="#DejaVuSans-30" transform="translate(95.410156 0)"/>
       <use xlink:href="#DejaVuSans-32" transform="translate(159.033203 0)"/>
      </g>
     </g>
    </g>
    <g id="ytick_20">
     <g id="line2d_54">
      <g>
       <use xlink:href="#m1a9c020e2d" x="79.836" y="853.381314" style="fill: #262626; stroke: #262626"/>
      </g>
     </g>
     <g id="text_47">
      <!-- 0.03 -->
      <g style="fill: #262626" transform="translate(51.94225 856.724627) scale(0.088 -0.088)">
       <defs>
        <path id="DejaVuSans-33" d="M 2597 2516 
Q 3050 2419 3304 2112 
Q 3559 1806 3559 1356 
Q 3559 666 3084 287 
Q 2609 -91 1734 -91 
Q 1441 -91 1130 -33 
Q 819 25 488 141 
L 488 750 
Q 750 597 1062 519 
Q 1375 441 1716 441 
Q 2309 441 2620 675 
Q 2931 909 2931 1356 
Q 2931 1769 2642 2001 
Q 2353 2234 1838 2234 
L 1294 2234 
L 1294 2753 
L 1863 2753 
Q 2328 2753 2575 2939 
Q 2822 3125 2822 3475 
Q 2822 3834 2567 4026 
Q 2313 4219 1838 4219 
Q 1578 4219 1281 4162 
Q 984 4106 628 3988 
L 628 4550 
Q 988 4650 1302 4700 
Q 1616 4750 1894 4750 
Q 2613 4750 3031 4423 
Q 3450 4097 3450 3541 
Q 3450 3153 3228 2886 
Q 3006 2619 2597 2516 
z
" transform="scale(0.015625)"/>
       </defs>
       <use xlink:href="#DejaVuSans-30"/>
       <use xlink:href="#DejaVuSans-2e" transform="translate(63.623047 0)"/>
       <use xlink:href="#DejaVuSans-30" transform="translate(95.410156 0)"/>
       <use xlink:href="#DejaVuSans-33" transform="translate(159.033203 0)"/>
      </g>
     </g>
    </g>
    <g id="ytick_21">
     <g id="line2d_55">
      <g>
       <use xlink:href="#m1a9c020e2d" x="79.836" y="798.997411" style="fill: #262626; stroke: #262626"/>
      </g>
     </g>
     <g id="text_48">
      <!-- 0.04 -->
      <g style="fill: #262626" transform="translate(51.94225 802.340723) scale(0.088 -0.088)">
       <use xlink:href="#DejaVuSans-30"/>
       <use xlink:href="#DejaVuSans-2e" transform="translate(63.623047 0)"/>
       <use xlink:href="#DejaVuSans-30" transform="translate(95.410156 0)"/>
       <use xlink:href="#DejaVuSans-34" transform="translate(159.033203 0)"/>
      </g>
     </g>
    </g>
    <g id="ytick_22">
     <g id="line2d_56">
      <g>
       <use xlink:href="#m1a9c020e2d" x="79.836" y="744.613507" style="fill: #262626; stroke: #262626"/>
      </g>
     </g>
     <g id="text_49">
      <!-- 0.05 -->
      <g style="fill: #262626" transform="translate(51.94225 747.956819) scale(0.088 -0.088)">
       <use xlink:href="#DejaVuSans-30"/>
       <use xlink:href="#DejaVuSans-2e" transform="translate(63.623047 0)"/>
       <use xlink:href="#DejaVuSans-30" transform="translate(95.410156 0)"/>
       <use xlink:href="#DejaVuSans-35" transform="translate(159.033203 0)"/>
      </g>
     </g>
    </g>
    <g id="text_50">
     <!-- Shuffled -->
     <g style="fill: #262626" transform="translate(45.94575 893.412333) rotate(-90) scale(0.096 -0.096)">
      <defs>
       <path id="DejaVuSans-68" d="M 3513 2113 
L 3513 0 
L 2938 0 
L 2938 2094 
Q 2938 2591 2744 2837 
Q 2550 3084 2163 3084 
Q 1697 3084 1428 2787 
Q 1159 2491 1159 1978 
L 1159 0 
L 581 0 
L 581 4863 
L 1159 4863 
L 1159 2956 
Q 1366 3272 1645 3428 
Q 1925 3584 2291 3584 
Q 2894 3584 3203 3211 
Q 3513 2838 3513 2113 
z
" transform="scale(0.015625)"/>
       <path id="DejaVuSans-75" d="M 544 1381 
L 544 3500 
L 1119 3500 
L 1119 1403 
Q 1119 906 1312 657 
Q 1506 409 1894 409 
Q 2359 409 2629 706 
Q 2900 1003 2900 1516 
L 2900 3500 
L 3475 3500 
L 3475 0 
L 2900 0 
L 2900 538 
Q 2691 219 2414 64 
Q 2138 -91 1772 -91 
Q 1169 -91 856 284 
Q 544 659 544 1381 
z
M 1991 3584 
L 1991 3584 
z
" transform="scale(0.015625)"/>
       <path id="DejaVuSans-66" d="M 2375 4863 
L 2375 4384 
L 1825 4384 
Q 1516 4384 1395 4259 
Q 1275 4134 1275 3809 
L 1275 3500 
L 2222 3500 
L 2222 3053 
L 1275 3053 
L 1275 0 
L 697 0 
L 697 3053 
L 147 3053 
L 147 3500 
L 697 3500 
L 697 3744 
Q 697 4328 969 4595 
Q 1241 4863 1831 4863 
L 2375 4863 
z
" transform="scale(0.015625)"/>
       <path id="DejaVuSans-64" d="M 2906 2969 
L 2906 4863 
L 3481 4863 
L 3481 0 
L 2906 0 
L 2906 525 
Q 2725 213 2448 61 
Q 2172 -91 1784 -91 
Q 1150 -91 751 415 
Q 353 922 353 1747 
Q 353 2572 751 3078 
Q 1150 3584 1784 3584 
Q 2172 3584 2448 3432 
Q 2725 3281 2906 2969 
z
M 947 1747 
Q 947 1113 1208 752 
Q 1469 391 1925 391 
Q 2381 391 2643 752 
Q 2906 1113 2906 1747 
Q 2906 2381 2643 2742 
Q 2381 3103 1925 3103 
Q 1469 3103 1208 2742 
Q 947 2381 947 1747 
z
" transform="scale(0.015625)"/>
      </defs>
      <use xlink:href="#DejaVuSans-53"/>
      <use xlink:href="#DejaVuSans-68" transform="translate(63.476562 0)"/>
      <use xlink:href="#DejaVuSans-75" transform="translate(126.855469 0)"/>
      <use xlink:href="#DejaVuSans-66" transform="translate(190.234375 0)"/>
      <use xlink:href="#DejaVuSans-66" transform="translate(225.439453 0)"/>
      <use xlink:href="#DejaVuSans-6c" transform="translate(260.644531 0)"/>
      <use xlink:href="#DejaVuSans-65" transform="translate(288.427734 0)"/>
      <use xlink:href="#DejaVuSans-64" transform="translate(349.951172 0)"/>
     </g>
    </g>
   </g>
   <g id="FillBetweenPolyCollection_11"/>
   <g id="FillBetweenPolyCollection_12"/>
   <g id="FillBetweenPolyCollection_13"/>
   <g id="FillBetweenPolyCollection_14"/>
   <g id="FillBetweenPolyCollection_15"/>
   <g id="line2d_57">
    <path d="M 105.190364 1016.076595 
L 108.071541 927.409121 
L 110.952719 917.167029 
L 113.833897 886.373856 
L 116.715074 939.235484 
L 119.596252 851.507761 
L 122.47743 948.155715 
L 125.358607 935.548655 
L 128.239785 947.203739 
L 131.120963 952.976844 
L 134.00214 932.154154 
L 136.883318 986.389249 
L 139.764496 966.501023 
L 142.645674 990.812264 
L 145.526851 994.775612 
L 148.408029 999.679306 
L 151.289207 953.180963 
L 154.170384 998.969063 
L 157.051562 998.679143 
L 159.93274 1005.618701 
L 162.813917 1000.798602 
L 165.695095 1007.663425 
L 168.576273 1008.05879 
L 171.45745 1009.829209 
L 174.338628 1010.028145 
L 177.219806 1010.570474 
L 180.100983 1007.336497 
L 182.982161 1012.876383 
L 185.863339 1012.2197 
L 188.744517 1011.933135 
L 191.625694 1010.958769 
L 194.506872 1012.007921 
L 197.38805 1011.66796 
L 200.269227 1013.884899 
L 203.150405 1013.855966 
L 206.031583 1014.753882 
L 208.91276 1013.244907 
L 211.793938 1013.298085 
L 214.675116 1014.552715 
L 217.556293 1014.797287 
L 223.318649 1015.805709 
L 229.081004 1014.959735 
L 231.962182 1015.493137 
L 234.84336 1015.825577 
L 237.724537 1015.204741 
L 240.605715 1016.079881 
L 243.486893 1015.510977 
L 246.36807 1016.0519 
L 249.249248 1016.237601 
L 252.130426 1016.05851 
L 263.655136 1016.317 
L 266.536314 1016.142335 
L 272.298669 1016.3381 
L 275.179847 1015.629842 
L 278.061025 1016.384965 
L 280.942202 1016.190759 
L 283.82338 1016.413935 
L 292.466913 1016.40868 
L 295.348091 1016.061332 
L 298.229269 1016.401072 
L 303.991624 1016.391211 
L 306.872802 1016.171326 
L 309.753979 1016.43875 
L 332.803401 1016.280906 
L 335.684579 1016.474224 
L 367.377533 1016.47963 
L 370.258711 1016.403568 
L 378.902244 1016.501044 
L 399.070488 1016.493013 
L 479.743463 1016.49827 
L 482.62464 1016.05248 
L 485.505818 1016.458667 
L 497.030529 1016.497974 
L 502.792884 1016.506881 
L 505.674062 1016.368152 
L 508.55524 1016.499276 
L 511.436417 1016.373819 
L 514.317595 1016.501126 
L 612.277636 1016.508743 
L 612.277636 1016.508743 
" clip-path="url(#p9c74b08d3e)" style="fill: none; stroke: #66ccee; stroke-width: 1.2; stroke-linecap: round"/>
   </g>
   <g id="line2d_58">
    <path d="M 105.190364 1016.339164 
L 108.071541 1015.495447 
L 110.952719 1010.870828 
L 113.833897 978.122613 
L 116.715074 953.997981 
L 119.596252 968.167631 
L 122.47743 960.185852 
L 125.358607 970.985405 
L 128.239785 951.195503 
L 131.120963 907.034977 
L 134.00214 885.76404 
L 136.883318 923.593798 
L 139.764496 947.960336 
L 142.645674 882.248407 
L 145.526851 940.87344 
L 148.408029 942.837827 
L 151.289207 950.637859 
L 154.170384 937.548793 
L 157.051562 881.42744 
L 159.93274 951.570972 
L 162.813917 971.123312 
L 165.695095 927.567249 
L 168.576273 940.112781 
L 171.45745 967.857259 
L 174.338628 958.968156 
L 177.219806 935.490314 
L 180.100983 940.481406 
L 182.982161 947.563117 
L 185.863339 965.035623 
L 188.744517 975.901752 
L 191.625694 958.206546 
L 194.506872 928.684486 
L 197.38805 951.43367 
L 200.269227 951.31767 
L 203.150405 979.590192 
L 206.031583 987.243171 
L 208.91276 973.877425 
L 211.793938 981.250983 
L 214.675116 971.576621 
L 217.556293 991.196153 
L 220.437471 972.467873 
L 223.318649 982.404926 
L 226.199826 995.950709 
L 229.081004 972.71541 
L 231.962182 985.363626 
L 234.84336 979.603991 
L 237.724537 974.300461 
L 240.605715 993.500332 
L 243.486893 1004.415953 
L 246.36807 987.651245 
L 249.249248 992.639358 
L 252.130426 1003.567199 
L 255.011603 992.843782 
L 257.892781 1004.497631 
L 260.773959 1004.2548 
L 266.536314 996.831628 
L 269.417492 995.113905 
L 272.298669 1000.546684 
L 275.179847 986.925966 
L 278.061025 1008.997265 
L 280.942202 1001.947216 
L 283.82338 1005.898089 
L 286.704558 1006.650622 
L 289.585736 1007.863481 
L 292.466913 1007.718638 
L 295.348091 996.721297 
L 298.229269 1010.63368 
L 301.110446 1001.569172 
L 303.991624 1009.303468 
L 306.872802 998.970005 
L 309.753979 1007.422528 
L 312.635157 1005.878867 
L 315.516335 1005.882859 
L 318.397512 1010.816554 
L 321.27869 1009.935129 
L 324.159868 1005.177719 
L 327.041045 1005.467486 
L 329.922223 1009.35147 
L 332.803401 1005.663436 
L 335.684579 1011.18797 
L 338.565756 1012.43249 
L 341.446934 1011.577631 
L 344.328112 1011.633891 
L 347.209289 1010.977934 
L 350.090467 1012.689552 
L 352.971645 1010.042755 
L 355.852822 1010.828597 
L 358.734 1010.757661 
L 361.615178 1009.469128 
L 364.496355 1010.696214 
L 367.377533 1013.23705 
L 370.258711 1006.328519 
L 373.139888 1011.535272 
L 376.021066 1011.862466 
L 378.902244 1012.838437 
L 381.783421 1012.321731 
L 384.664599 1008.382862 
L 387.545777 1012.64751 
L 390.426955 1013.730343 
L 393.308132 1013.224619 
L 396.18931 1013.433122 
L 399.070488 1014.567472 
L 404.832843 1012.567965 
L 407.714021 1008.057578 
L 410.595198 1013.184197 
L 413.476376 1007.694574 
L 416.357554 1011.541111 
L 419.238731 1014.629932 
L 422.119909 1013.483848 
L 425.001087 1013.900246 
L 427.882264 1012.566088 
L 430.763442 1014.141206 
L 433.64462 1012.204771 
L 436.525798 1014.214535 
L 439.406975 1014.650073 
L 445.169331 1014.243922 
L 448.050508 1013.10492 
L 450.931686 1014.054711 
L 453.812864 1014.670685 
L 456.694041 1014.687184 
L 459.575219 1011.664131 
L 462.456397 1013.81766 
L 465.337574 1014.885527 
L 468.218752 1014.780044 
L 471.09993 1015.104354 
L 473.981107 1014.658481 
L 476.862285 1014.458344 
L 479.743463 1014.926767 
L 482.62464 1005.200816 
L 485.505818 1013.670521 
L 488.386996 1014.529589 
L 491.268174 1014.702175 
L 494.149351 1015.419801 
L 497.030529 1015.216413 
L 499.911707 1015.711332 
L 502.792884 1015.110171 
L 505.674062 1010.788471 
L 508.55524 1014.422234 
L 511.436417 1011.383413 
L 514.317595 1015.300255 
L 517.198773 1014.993013 
L 520.07995 1013.434871 
L 522.961128 1013.656184 
L 525.842306 1015.429402 
L 528.723483 1014.313292 
L 531.604661 1015.398303 
L 534.485839 1015.079304 
L 537.367017 1015.462591 
L 540.248194 1015.346898 
L 543.129372 1014.888106 
L 546.01055 1014.889349 
L 548.891727 1014.654501 
L 551.772905 1015.814357 
L 557.53526 1015.653206 
L 560.416438 1014.047711 
L 563.297616 1015.478655 
L 566.178793 1015.606515 
L 569.059971 1015.474227 
L 571.941149 1015.654663 
L 574.822326 1013.329921 
L 577.703504 1015.544603 
L 580.584682 1015.841367 
L 583.46586 1015.304877 
L 586.347037 1015.686944 
L 589.228215 1015.181141 
L 592.109393 1015.12839 
L 594.99057 1015.872484 
L 603.634103 1015.740399 
L 606.515281 1011.939851 
L 609.396459 1015.549007 
L 612.277636 1016.015187 
L 612.277636 1016.015187 
" clip-path="url(#p9c74b08d3e)" style="fill: none; stroke: #228833; stroke-width: 1.2; stroke-linecap: round"/>
   </g>
   <g id="line2d_59">
    <path d="M 105.190364 1016.247352 
L 108.071541 1015.557933 
L 110.952719 1014.122299 
L 113.833897 1003.780797 
L 116.715074 980.89129 
L 119.596252 976.718383 
L 122.47743 963.149245 
L 125.358607 933.358154 
L 128.239785 906.9742 
L 131.120963 901.654212 
L 134.00214 898.889207 
L 136.883318 907.796061 
L 139.764496 866.612557 
L 142.645674 920.142701 
L 145.526851 899.886368 
L 148.408029 893.992317 
L 151.289207 901.86804 
L 154.170384 832.664698 
L 157.051562 863.687618 
L 162.813917 876.768521 
L 165.695095 890.67617 
L 168.576273 917.674187 
L 171.45745 930.670748 
L 174.338628 912.655991 
L 177.219806 926.918896 
L 180.100983 900.756664 
L 182.982161 893.033994 
L 185.863339 912.096351 
L 188.744517 912.030415 
L 191.625694 922.328612 
L 194.506872 940.017071 
L 197.38805 921.11072 
L 200.269227 920.036937 
L 203.150405 939.243161 
L 206.031583 936.02576 
L 208.91276 926.682268 
L 211.793938 925.852955 
L 214.675116 920.005442 
L 217.556293 909.053215 
L 220.437471 940.280346 
L 223.318649 922.079162 
L 226.199826 936.188788 
L 229.081004 957.556763 
L 231.962182 947.612855 
L 234.84336 948.426998 
L 237.724537 970.115011 
L 240.605715 943.767748 
L 243.486893 959.539502 
L 246.36807 967.601565 
L 249.249248 963.798171 
L 252.130426 950.191093 
L 255.011603 961.149495 
L 257.892781 971.285378 
L 260.773959 982.220635 
L 263.655136 977.999656 
L 266.536314 988.813872 
L 269.417492 986.067971 
L 272.298669 987.604716 
L 275.179847 990.61263 
L 278.061025 985.8611 
L 280.942202 982.677721 
L 283.82338 984.09833 
L 286.704558 983.032612 
L 289.585736 993.497575 
L 292.466913 990.730932 
L 295.348091 995.050035 
L 298.229269 988.403696 
L 301.110446 995.894828 
L 303.991624 990.6047 
L 306.872802 990.366474 
L 309.753979 991.293379 
L 312.635157 995.621967 
L 315.516335 996.604618 
L 318.397512 998.405115 
L 321.27869 997.850818 
L 324.159868 999.644959 
L 327.041045 999.410172 
L 329.922223 1001.318803 
L 332.803401 1000.908417 
L 335.684579 994.87054 
L 338.565756 998.913848 
L 341.446934 999.271928 
L 344.328112 998.734954 
L 347.209289 1000.698973 
L 350.090467 1002.170542 
L 352.971645 999.921775 
L 355.852822 1004.430175 
L 358.734 1000.157241 
L 361.615178 1004.028922 
L 364.496355 1002.344559 
L 367.377533 1002.583872 
L 370.258711 1004.767622 
L 373.139888 1004.756806 
L 376.021066 1006.729908 
L 378.902244 1007.859921 
L 381.783421 1005.267392 
L 384.664599 1006.252038 
L 387.545777 1007.47962 
L 390.426955 1005.499133 
L 393.308132 1009.092195 
L 396.18931 1007.04675 
L 399.070488 1008.027864 
L 401.951665 1009.969008 
L 404.832843 1009.663062 
L 407.714021 1009.108973 
L 410.595198 1009.679467 
L 413.476376 1009.071797 
L 419.238731 1008.334155 
L 422.119909 1009.042368 
L 425.001087 1008.526447 
L 427.882264 1009.190549 
L 430.763442 1006.783527 
L 433.64462 1009.73991 
L 436.525798 1009.378486 
L 439.406975 1009.603746 
L 442.288153 1011.031313 
L 445.169331 1009.479423 
L 448.050508 1010.05565 
L 450.931686 1009.169201 
L 453.812864 1009.578071 
L 456.694041 1010.348295 
L 459.575219 1010.324432 
L 462.456397 1011.072876 
L 465.337574 1011.051891 
L 468.218752 1011.684388 
L 471.09993 1012.65511 
L 473.981107 1012.255945 
L 476.862285 1011.570282 
L 479.743463 1012.789664 
L 482.62464 1012.26198 
L 485.505818 1011.176961 
L 488.386996 1012.44112 
L 491.268174 1012.137955 
L 494.149351 1011.286252 
L 497.030529 1011.622619 
L 499.911707 1011.729133 
L 502.792884 1012.596081 
L 505.674062 1012.793459 
L 508.55524 1012.539545 
L 511.436417 1012.505507 
L 514.317595 1011.521748 
L 517.198773 1013.34134 
L 522.961128 1013.449232 
L 525.842306 1013.165129 
L 528.723483 1013.001036 
L 531.604661 1012.411198 
L 534.485839 1013.432626 
L 537.367017 1013.60916 
L 543.129372 1013.615801 
L 546.01055 1013.431705 
L 548.891727 1012.295549 
L 551.772905 1012.486489 
L 554.654083 1013.653251 
L 557.53526 1012.925201 
L 560.416438 1013.943196 
L 563.297616 1013.666701 
L 566.178793 1013.670838 
L 569.059971 1014.011187 
L 571.941149 1013.586076 
L 574.822326 1013.994978 
L 577.703504 1013.79138 
L 583.46586 1014.35218 
L 586.347037 1014.331647 
L 589.228215 1014.081876 
L 600.752926 1014.778432 
L 603.634103 1014.490957 
L 606.515281 1014.624895 
L 609.396459 1014.467807 
L 612.277636 1014.671236 
L 612.277636 1014.671236 
" clip-path="url(#p9c74b08d3e)" style="fill: none; stroke: #ccbb44; stroke-width: 1.2; stroke-linecap: round"/>
   </g>
   <g id="line2d_60">
    <path d="M 105.190364 1015.04922 
L 108.071541 1015.848558 
L 110.952719 1015.319636 
L 113.833897 1015.529167 
L 116.715074 1014.049273 
L 119.596252 1015.04054 
L 122.47743 1010.613961 
L 125.358607 999.140277 
L 128.239785 1014.823022 
L 131.120963 1014.384082 
L 134.00214 1001.852342 
L 136.883318 1012.48195 
L 139.764496 1013.15789 
L 142.645674 1010.668467 
L 145.526851 994.81726 
L 148.408029 1014.53504 
L 151.289207 1014.022993 
L 154.170384 1014.022982 
L 157.051562 1012.137955 
L 159.93274 1009.505845 
L 162.813917 1009.983247 
L 165.695095 1012.938439 
L 168.576273 1012.846449 
L 171.45745 1014.466909 
L 174.338628 1014.174748 
L 177.219806 1013.050701 
L 182.982161 1012.575879 
L 185.863339 1013.604773 
L 188.744517 1012.7543 
L 191.625694 1013.260628 
L 194.506872 1008.406784 
L 197.38805 1012.342149 
L 200.269227 1011.691514 
L 206.031583 1013.822511 
L 208.91276 1013.898818 
L 211.793938 1013.725902 
L 214.675116 1012.56749 
L 217.556293 1014.888052 
L 220.437471 1013.262315 
L 223.318649 1013.031545 
L 226.199826 1013.505209 
L 229.081004 1011.775029 
L 231.962182 1011.792092 
L 234.84336 1013.196714 
L 237.724537 1012.653325 
L 240.605715 1013.497606 
L 243.486893 1013.525022 
L 246.36807 1013.406042 
L 249.249248 1012.636937 
L 252.130426 1013.234166 
L 255.011603 1011.231801 
L 257.892781 1008.830975 
L 260.773959 1008.932983 
L 263.655136 1011.211908 
L 266.536314 1009.470243 
L 269.417492 1010.155085 
L 272.298669 1009.450287 
L 275.179847 1009.177513 
L 278.061025 1008.120048 
L 280.942202 1006.218562 
L 283.82338 1008.273467 
L 286.704558 1007.301305 
L 289.585736 1009.589389 
L 292.466913 1006.703244 
L 295.348091 1007.021846 
L 298.229269 1007.786748 
L 301.110446 1006.612645 
L 303.991624 1006.48798 
L 306.872802 1001.958043 
L 309.753979 1004.861472 
L 312.635157 1001.349533 
L 315.516335 1004.082446 
L 318.397512 1006.13099 
L 321.27869 1004.757979 
L 327.041045 1004.536401 
L 332.803401 1002.691797 
L 335.684579 1002.364292 
L 338.565756 1003.322877 
L 341.446934 1001.451329 
L 344.328112 1000.912907 
L 347.209289 998.438899 
L 350.090467 997.799696 
L 352.971645 997.685749 
L 355.852822 999.765537 
L 358.734 1002.503641 
L 361.615178 999.7403 
L 364.496355 998.414387 
L 367.377533 997.604686 
L 370.258711 1001.128792 
L 373.139888 999.991352 
L 376.021066 999.193051 
L 378.902244 997.287197 
L 381.783421 998.163005 
L 384.664599 998.821157 
L 387.545777 999.215406 
L 390.426955 996.498859 
L 393.308132 998.999445 
L 396.18931 998.974543 
L 399.070488 997.06035 
L 401.951665 998.535915 
L 404.832843 999.576475 
L 407.714021 993.838018 
L 410.595198 995.997054 
L 413.476376 996.463462 
L 416.357554 999.1741 
L 419.238731 999.895494 
L 422.119909 998.60712 
L 425.001087 999.125113 
L 427.882264 999.320451 
L 430.763442 998.99405 
L 433.64462 1000.728218 
L 436.525798 996.742245 
L 439.406975 1001.115273 
L 442.288153 1000.613722 
L 445.169331 1002.204238 
L 448.050508 1000.204396 
L 450.931686 1001.234692 
L 453.812864 1002.994684 
L 456.694041 1002.929069 
L 459.575219 1001.754372 
L 462.456397 1001.250906 
L 465.337574 1001.57296 
L 468.218752 1000.657985 
L 471.09993 997.958642 
L 473.981107 999.065191 
L 476.862285 1000.708768 
L 479.743463 1000.737551 
L 482.62464 999.531352 
L 485.505818 1002.180379 
L 488.386996 1003.047796 
L 491.268174 1001.062062 
L 494.149351 1002.316252 
L 497.030529 1001.299575 
L 499.911707 1001.874779 
L 502.792884 1001.172364 
L 505.674062 1000.80087 
L 508.55524 1002.077786 
L 511.436417 1000.17242 
L 514.317595 1001.395746 
L 517.198773 999.505231 
L 520.07995 1000.850456 
L 522.961128 1001.43891 
L 525.842306 1001.226802 
L 528.723483 1000.365948 
L 531.604661 999.363693 
L 534.485839 1000.217014 
L 537.367017 1000.83597 
L 540.248194 999.870604 
L 543.129372 1000.84026 
L 546.01055 1001.967941 
L 548.891727 1001.892599 
L 551.772905 1001.343397 
L 554.654083 1002.557114 
L 557.53526 1001.305589 
L 560.416438 1002.659601 
L 563.297616 1002.300494 
L 566.178793 1003.127579 
L 569.059971 1003.020686 
L 571.941149 1003.341762 
L 574.822326 1001.240433 
L 577.703504 1004.507017 
L 580.584682 1002.873253 
L 583.46586 1003.675421 
L 586.347037 1002.329551 
L 589.228215 1003.27445 
L 592.109393 1003.279323 
L 594.99057 1004.686915 
L 597.871748 1004.685194 
L 603.634103 1005.026706 
L 606.515281 1003.148296 
L 609.396459 1003.253555 
L 612.277636 1002.959568 
L 612.277636 1002.959568 
" clip-path="url(#p9c74b08d3e)" style="fill: none; stroke: #ee6677; stroke-width: 1.2; stroke-linecap: round"/>
   </g>
   <g id="line2d_61">
    <path d="M 105.190364 989.143468 
L 108.071541 1002.673477 
L 110.952719 1010.686511 
L 113.833897 1010.407661 
L 116.715074 926.688185 
L 119.596252 942.335192 
L 122.47743 960.865723 
L 125.358607 895.261351 
L 128.239785 942.295404 
L 131.120963 909.314348 
L 134.00214 730.624909 
L 136.883318 882.045781 
L 139.764496 869.132777 
L 142.645674 877.595101 
L 145.526851 847.093076 
L 148.408029 897.748497 
L 151.289207 924.178711 
L 154.170384 758.090171 
L 157.051562 851.647583 
L 159.93274 902.044473 
L 162.813917 811.736608 
L 165.695095 919.001693 
L 168.576273 885.852739 
L 171.45745 912.031124 
L 174.338628 891.06872 
L 177.219806 905.358428 
L 180.100983 862.908399 
L 182.982161 889.16431 
L 185.863339 908.850366 
L 188.744517 936.04587 
L 191.625694 906.364602 
L 194.506872 904.171277 
L 197.38805 931.786575 
L 200.269227 923.616038 
L 203.150405 990.330064 
L 206.031583 970.3955 
L 208.91276 974.087415 
L 211.793938 989.436209 
L 214.675116 940.209402 
L 217.556293 993.043208 
L 220.437471 970.126356 
L 223.318649 969.105666 
L 226.199826 981.219428 
L 229.081004 949.266976 
L 231.962182 966.638996 
L 234.84336 1001.832172 
L 237.724537 984.656031 
L 240.605715 1000.734849 
L 243.486893 985.715082 
L 246.36807 1000.706713 
L 249.249248 997.577715 
L 252.130426 992.519169 
L 255.011603 984.544443 
L 257.892781 994.521711 
L 260.773959 995.544321 
L 263.655136 1007.000193 
L 266.536314 1007.343926 
L 269.417492 1002.420559 
L 272.298669 997.762563 
L 275.179847 1007.675307 
L 278.061025 1004.0966 
L 280.942202 999.098155 
L 283.82338 1004.081666 
L 286.704558 1003.385193 
L 289.585736 1011.359105 
L 292.466913 999.649097 
L 295.348091 1004.724163 
L 298.229269 1013.019703 
L 301.110446 1005.221747 
L 303.991624 1013.118501 
L 306.872802 1008.744616 
L 309.753979 1013.554247 
L 312.635157 998.644707 
L 315.516335 1014.690978 
L 318.397512 1012.702528 
L 321.27869 1014.919063 
L 324.159868 1014.65157 
L 327.041045 1014.231443 
L 329.922223 1015.57434 
L 332.803401 1012.876871 
L 335.684579 1015.506344 
L 338.565756 1015.192863 
L 341.446934 1014.52834 
L 344.328112 1014.070524 
L 347.209289 1014.335791 
L 350.090467 1015.258469 
L 352.971645 1012.408872 
L 355.852822 1013.208815 
L 358.734 1014.711602 
L 361.615178 1014.688969 
L 364.496355 1013.760211 
L 367.377533 1014.788052 
L 370.258711 1014.25132 
L 373.139888 1014.637254 
L 378.902244 1015.720258 
L 381.783421 1014.57327 
L 384.664599 1015.501773 
L 387.545777 1015.927071 
L 390.426955 1015.762913 
L 393.308132 1016.03584 
L 396.18931 1015.529352 
L 399.070488 1015.248561 
L 401.951665 1015.995804 
L 404.832843 1016.285904 
L 407.714021 1015.182898 
L 410.595198 1015.756287 
L 413.476376 1014.49674 
L 416.357554 1015.849417 
L 419.238731 1016.310323 
L 422.119909 1015.263561 
L 425.001087 1015.881855 
L 430.763442 1016.168574 
L 433.64462 1016.179787 
L 436.525798 1015.891655 
L 439.406975 1016.426056 
L 442.288153 1016.194411 
L 445.169331 1016.427921 
L 448.050508 1016.265018 
L 450.931686 1015.888091 
L 456.694041 1016.35444 
L 459.575219 1014.893094 
L 462.456397 1016.399503 
L 465.337574 1016.219791 
L 468.218752 1016.153557 
L 471.09993 1016.349243 
L 473.981107 1015.943435 
L 476.862285 1016.406317 
L 479.743463 1016.240562 
L 482.62464 1006.589833 
L 485.505818 1016.093662 
L 488.386996 1016.436721 
L 494.149351 1016.343298 
L 499.911707 1016.479649 
L 502.792884 1016.392597 
L 505.674062 1015.162236 
L 508.55524 1016.380317 
L 511.436417 1015.499638 
L 514.317595 1016.464567 
L 517.198773 1016.414708 
L 520.07995 1016.039503 
L 522.961128 1016.322021 
L 525.842306 1016.408757 
L 528.723483 1016.074397 
L 531.604661 1016.435729 
L 534.485839 1016.37677 
L 537.367017 1016.474439 
L 543.129372 1016.295943 
L 546.01055 1016.456649 
L 548.891727 1016.299763 
L 551.772905 1016.465657 
L 557.53526 1016.470196 
L 563.297616 1016.207056 
L 566.178793 1016.492061 
L 571.941149 1016.461997 
L 574.822326 1015.607893 
L 577.703504 1016.451168 
L 580.584682 1016.505265 
L 583.46586 1016.405655 
L 586.347037 1016.474553 
L 589.228215 1016.057931 
L 592.109393 1016.439819 
L 600.752926 1016.485402 
L 603.634103 1016.467714 
L 606.515281 1015.815028 
L 609.396459 1016.463752 
L 612.277636 1016.465085 
L 612.277636 1016.465085 
" clip-path="url(#p9c74b08d3e)" style="fill: none; stroke: #aa3377; stroke-width: 1.2; stroke-linecap: round"/>
   </g>
   <g id="patch_13">
    <path d="M 79.836 1030.804 
L 79.836 716.330667 
" style="fill: none; stroke: #262626; stroke-linejoin: miter; stroke-linecap: square"/>
   </g>
   <g id="patch_14">
    <path d="M 637.632 1030.804 
L 637.632 716.330667 
" style="fill: none; stroke: #262626; stroke-linejoin: miter; stroke-linecap: square"/>
   </g>
   <g id="patch_15">
    <path d="M 79.836 1030.804 
L 637.632 1030.804 
" style="fill: none; stroke: #262626; stroke-linejoin: miter; stroke-linecap: square"/>
   </g>
   <g id="patch_16">
    <path d="M 79.836 716.330667 
L 637.632 716.330667 
" style="fill: none; stroke: #262626; stroke-linejoin: miter; stroke-linecap: square"/>
   </g>
  </g>
  <g id="text_51">
   <!-- Probability -->
   <g style="fill: #262626" transform="translate(21.7134 570.4461) rotate(-90) scale(0.1152 -0.1152)">
    <defs>
     <path id="DejaVuSans-72" d="M 2631 2963 
Q 2534 3019 2420 3045 
Q 2306 3072 2169 3072 
Q 1681 3072 1420 2755 
Q 1159 2438 1159 1844 
L 1159 0 
L 581 0 
L 581 3500 
L 1159 3500 
L 1159 2956 
Q 1341 3275 1631 3429 
Q 1922 3584 2338 3584 
Q 2397 3584 2469 3576 
Q 2541 3569 2628 3553 
L 2631 2963 
z
" transform="scale(0.015625)"/>
     <path id="DejaVuSans-6f" d="M 1959 3097 
Q 1497 3097 1228 2736 
Q 959 2375 959 1747 
Q 959 1119 1226 758 
Q 1494 397 1959 397 
Q 2419 397 2687 759 
Q 2956 1122 2956 1747 
Q 2956 2369 2687 2733 
Q 2419 3097 1959 3097 
z
M 1959 3584 
Q 2709 3584 3137 3096 
Q 3566 2609 3566 1747 
Q 3566 888 3137 398 
Q 2709 -91 1959 -91 
Q 1206 -91 779 398 
Q 353 888 353 1747 
Q 353 2609 779 3096 
Q 1206 3584 1959 3584 
z
" transform="scale(0.015625)"/>
     <path id="DejaVuSans-62" d="M 3116 1747 
Q 3116 2381 2855 2742 
Q 2594 3103 2138 3103 
Q 1681 3103 1420 2742 
Q 1159 2381 1159 1747 
Q 1159 1113 1420 752 
Q 1681 391 2138 391 
Q 2594 391 2855 752 
Q 3116 1113 3116 1747 
z
M 1159 2969 
Q 1341 3281 1617 3432 
Q 1894 3584 2278 3584 
Q 2916 3584 3314 3078 
Q 3713 2572 3713 1747 
Q 3713 922 3314 415 
Q 2916 -91 2278 -91 
Q 1894 -91 1617 61 
Q 1341 213 1159 525 
L 1159 0 
L 581 0 
L 581 4863 
L 1159 4863 
L 1159 2969 
z
" transform="scale(0.015625)"/>
     <path id="DejaVuSans-69" d="M 603 3500 
L 1178 3500 
L 1178 0 
L 603 0 
L 603 3500 
z
M 603 4863 
L 1178 4863 
L 1178 4134 
L 603 4134 
L 603 4863 
z
" transform="scale(0.015625)"/>
     <path id="DejaVuSans-74" d="M 1172 4494 
L 1172 3500 
L 2356 3500 
L 2356 3053 
L 1172 3053 
L 1172 1153 
Q 1172 725 1289 603 
Q 1406 481 1766 481 
L 2356 481 
L 2356 0 
L 1766 0 
Q 1100 0 847 248 
Q 594 497 594 1153 
L 594 3053 
L 172 3053 
L 172 3500 
L 594 3500 
L 594 4494 
L 1172 4494 
z
" transform="scale(0.015625)"/>
     <path id="DejaVuSans-79" d="M 2059 -325 
Q 1816 -950 1584 -1140 
Q 1353 -1331 966 -1331 
L 506 -1331 
L 506 -850 
L 844 -850 
Q 1081 -850 1212 -737 
Q 1344 -625 1503 -206 
L 1606 56 
L 191 3500 
L 800 3500 
L 1894 763 
L 2988 3500 
L 3597 3500 
L 2059 -325 
z
" transform="scale(0.015625)"/>
    </defs>
    <use xlink:href="#DejaVuSans-50"/>
    <use xlink:href="#DejaVuSans-72" transform="translate(58.552734 0)"/>
    <use xlink:href="#DejaVuSans-6f" transform="translate(97.416016 0)"/>
    <use xlink:href="#DejaVuSans-62" transform="translate(158.597656 0)"/>
    <use xlink:href="#DejaVuSans-61" transform="translate(222.074219 0)"/>
    <use xlink:href="#DejaVuSans-62" transform="translate(283.353516 0)"/>
    <use xlink:href="#DejaVuSans-69" transform="translate(346.830078 0)"/>
    <use xlink:href="#DejaVuSans-6c" transform="translate(374.613281 0)"/>
    <use xlink:href="#DejaVuSans-69" transform="translate(402.396484 0)"/>
    <use xlink:href="#DejaVuSans-74" transform="translate(430.179688 0)"/>
    <use xlink:href="#DejaVuSans-79" transform="translate(469.388672 0)"/>
   </g>
  </g>
  <g id="text_52">
   <!-- Samples -->
   <g style="fill: #262626" transform="translate(299.4012 1066.8042) scale(0.1152 -0.1152)">
    <use xlink:href="#DejaVuSans-53"/>
    <use xlink:href="#DejaVuSans-61" transform="translate(63.476562 0)"/>
    <use xlink:href="#DejaVuSans-6d" transform="translate(124.755859 0)"/>
    <use xlink:href="#DejaVuSans-70" transform="translate(222.167969 0)"/>
    <use xlink:href="#DejaVuSans-6c" transform="translate(285.644531 0)"/>
    <use xlink:href="#DejaVuSans-65" transform="translate(313.427734 0)"/>
    <use xlink:href="#DejaVuSans-73" transform="translate(374.951172 0)"/>
   </g>
  </g>
  <g id="legend_1">
   <g id="patch_17">
    <path d="M 558.053 71.62375 
L 641.84 71.62375 
Q 643.6 71.62375 643.6 69.86375 
L 643.6 6.16 
Q 643.6 4.4 641.84 4.4 
L 558.053 4.4 
Q 556.293 4.4 556.293 6.16 
L 556.293 69.86375 
Q 556.293 71.62375 558.053 71.62375 
z
" style="fill: #ffffff; opacity: 0.8; stroke: #cccccc; stroke-width: 0.8; stroke-linejoin: miter"/>
   </g>
   <g id="line2d_62">
    <path d="M 559.813 11.526625 
L 568.613 11.526625 
L 577.413 11.526625 
" style="fill: none; stroke: #66ccee; stroke-width: 1.2; stroke-linecap: round"/>
   </g>
   <g id="text_53">
    <!-- encoding -->
    <g style="fill: #262626" transform="translate(584.453 14.606625) scale(0.088 -0.088)">
     <defs>
      <path id="DejaVuSans-6e" d="M 3513 2113 
L 3513 0 
L 2938 0 
L 2938 2094 
Q 2938 2591 2744 2837 
Q 2550 3084 2163 3084 
Q 1697 3084 1428 2787 
Q 1159 2491 1159 1978 
L 1159 0 
L 581 0 
L 581 3500 
L 1159 3500 
L 1159 2956 
Q 1366 3272 1645 3428 
Q 1925 3584 2291 3584 
Q 2894 3584 3203 3211 
Q 3513 2838 3513 2113 
z
" transform="scale(0.015625)"/>
      <path id="DejaVuSans-63" d="M 3122 3366 
L 3122 2828 
Q 2878 2963 2633 3030 
Q 2388 3097 2138 3097 
Q 1578 3097 1268 2742 
Q 959 2388 959 1747 
Q 959 1106 1268 751 
Q 1578 397 2138 397 
Q 2388 397 2633 464 
Q 2878 531 3122 666 
L 3122 134 
Q 2881 22 2623 -34 
Q 2366 -91 2075 -91 
Q 1284 -91 818 406 
Q 353 903 353 1747 
Q 353 2603 823 3093 
Q 1294 3584 2113 3584 
Q 2378 3584 2631 3529 
Q 2884 3475 3122 3366 
z
" transform="scale(0.015625)"/>
      <path id="DejaVuSans-67" d="M 2906 1791 
Q 2906 2416 2648 2759 
Q 2391 3103 1925 3103 
Q 1463 3103 1205 2759 
Q 947 2416 947 1791 
Q 947 1169 1205 825 
Q 1463 481 1925 481 
Q 2391 481 2648 825 
Q 2906 1169 2906 1791 
z
M 3481 434 
Q 3481 -459 3084 -895 
Q 2688 -1331 1869 -1331 
Q 1566 -1331 1297 -1286 
Q 1028 -1241 775 -1147 
L 775 -588 
Q 1028 -725 1275 -790 
Q 1522 -856 1778 -856 
Q 2344 -856 2625 -561 
Q 2906 -266 2906 331 
L 2906 616 
Q 2728 306 2450 153 
Q 2172 0 1784 0 
Q 1141 0 747 490 
Q 353 981 353 1791 
Q 353 2603 747 3093 
Q 1141 3584 1784 3584 
Q 2172 3584 2450 3431 
Q 2728 3278 2906 2969 
L 2906 3500 
L 3481 3500 
L 3481 434 
z
" transform="scale(0.015625)"/>
     </defs>
     <use xlink:href="#DejaVuSans-65"/>
     <use xlink:href="#DejaVuSans-6e" transform="translate(61.523438 0)"/>
     <use xlink:href="#DejaVuSans-63" transform="translate(124.902344 0)"/>
     <use xlink:href="#DejaVuSans-6f" transform="translate(179.882812 0)"/>
     <use xlink:href="#DejaVuSans-64" transform="translate(241.064453 0)"/>
     <use xlink:href="#DejaVuSans-69" transform="translate(304.541016 0)"/>
     <use xlink:href="#DejaVuSans-6e" transform="translate(332.324219 0)"/>
     <use xlink:href="#DejaVuSans-67" transform="translate(395.703125 0)"/>
    </g>
   </g>
   <g id="line2d_63">
    <path d="M 559.813 24.443375 
L 568.613 24.443375 
L 577.413 24.443375 
" style="fill: none; stroke: #228833; stroke-width: 1.2; stroke-linecap: round"/>
   </g>
   <g id="text_54">
    <!-- n200 -->
    <g style="fill: #262626" transform="translate(584.453 27.523375) scale(0.088 -0.088)">
     <use xlink:href="#DejaVuSans-6e"/>
     <use xlink:href="#DejaVuSans-32" transform="translate(63.378906 0)"/>
     <use xlink:href="#DejaVuSans-30" transform="translate(127.001953 0)"/>
     <use xlink:href="#DejaVuSans-30" transform="translate(190.625 0)"/>
    </g>
   </g>
   <g id="line2d_64">
    <path d="M 559.813 37.360125 
L 568.613 37.360125 
L 577.413 37.360125 
" style="fill: none; stroke: #ccbb44; stroke-width: 1.2; stroke-linecap: round"/>
   </g>
   <g id="text_55">
    <!-- decision -->
    <g style="fill: #262626" transform="translate(584.453 40.440125) scale(0.088 -0.088)">
     <use xlink:href="#DejaVuSans-64"/>
     <use xlink:href="#DejaVuSans-65" transform="translate(63.476562 0)"/>
     <use xlink:href="#DejaVuSans-63" transform="translate(125 0)"/>
     <use xlink:href="#DejaVuSans-69" transform="translate(179.980469 0)"/>
     <use xlink:href="#DejaVuSans-73" transform="translate(207.763672 0)"/>
     <use xlink:href="#DejaVuSans-69" transform="translate(259.863281 0)"/>
     <use xlink:href="#DejaVuSans-6f" transform="translate(287.646484 0)"/>
     <use xlink:href="#DejaVuSans-6e" transform="translate(348.828125 0)"/>
    </g>
   </g>
   <g id="line2d_65">
    <path d="M 559.813 50.276875 
L 568.613 50.276875 
L 577.413 50.276875 
" style="fill: none; stroke: #ee6677; stroke-width: 1.2; stroke-linecap: round"/>
   </g>
   <g id="text_56">
    <!-- confirmation -->
    <g style="fill: #262626" transform="translate(584.453 53.356875) scale(0.088 -0.088)">
     <use xlink:href="#DejaVuSans-63"/>
     <use xlink:href="#DejaVuSans-6f" transform="translate(54.980469 0)"/>
     <use xlink:href="#DejaVuSans-6e" transform="translate(116.162109 0)"/>
     <use xlink:href="#DejaVuSans-66" transform="translate(179.541016 0)"/>
     <use xlink:href="#DejaVuSans-69" transform="translate(214.746094 0)"/>
     <use xlink:href="#DejaVuSans-72" transform="translate(242.529297 0)"/>
     <use xlink:href="#DejaVuSans-6d" transform="translate(281.892578 0)"/>
     <use xlink:href="#DejaVuSans-61" transform="translate(379.304688 0)"/>
     <use xlink:href="#DejaVuSans-74" transform="translate(440.583984 0)"/>
     <use xlink:href="#DejaVuSans-69" transform="translate(479.792969 0)"/>
     <use xlink:href="#DejaVuSans-6f" transform="translate(507.576172 0)"/>
     <use xlink:href="#DejaVuSans-6e" transform="translate(568.757812 0)"/>
    </g>
   </g>
   <g id="line2d_66">
    <path d="M 559.813 63.193625 
L 568.613 63.193625 
L 577.413 63.193625 
" style="fill: none; stroke: #aa3377; stroke-width: 1.2; stroke-linecap: round"/>
   </g>
   <g id="text_57">
    <!-- response -->
    <g style="fill: #262626" transform="translate(584.453 66.273625) scale(0.088 -0.088)">
     <use xlink:href="#DejaVuSans-72"/>
     <use xlink:href="#DejaVuSans-65" transform="translate(38.863281 0)"/>
     <use xlink:href="#DejaVuSans-73" transform="translate(100.386719 0)"/>
     <use xlink:href="#DejaVuSans-70" transform="translate(152.486328 0)"/>
     <use xlink:href="#DejaVuSans-6f" transform="translate(215.962891 0)"/>
     <use xlink:href="#DejaVuSans-6e" transform="translate(277.144531 0)"/>
     <use xlink:href="#DejaVuSans-73" transform="translate(340.523438 0)"/>
     <use xlink:href="#DejaVuSans-65" transform="translate(392.623047 0)"/>
    </g>
   </g>
  </g>
 </g>
 <defs>
  <clipPath id="pd161a3fc2a">
   <rect x="79.836" y="10.368" width="557.796" height="314.473333"/>
  </clipPath>
  <clipPath id="pd5c55d4810">
   <rect x="79.836" y="363.349333" width="557.796" height="314.473333"/>
  </clipPath>
  <clipPath id="p9c74b08d3e">
   <rect x="79.836" y="716.330667" width="557.796" height="314.473333"/>
  </clipPath>
 </defs>
</svg>
