<?xml version="1.0" encoding="utf-8" standalone="no"?>
<!DOCTYPE svg PUBLIC "-//W3C//DTD SVG 1.1//EN"
  "http://www.w3.org/Graphics/SVG/1.1/DTD/svg11.dtd">
<svg xmlns:xlink="http://www.w3.org/1999/xlink" width="460.8pt" height="345.6pt" viewBox="0 0 460.8 345.6" xmlns="http://www.w3.org/2000/svg" version="1.1">
 <metadata>
  <rdf:RDF xmlns:dc="http://purl.org/dc/elements/1.1/" xmlns:cc="http://creativecommons.org/ns#" xmlns:rdf="http://www.w3.org/1999/02/22-rdf-syntax-ns#">
   <cc:Work>
    <dc:type rdf:resource="http://purl.org/dc/dcmitype/StillImage"/>
    <dc:date>2025-01-09T11:32:30.443024</dc:date>
    <dc:format>image/svg+xml</dc:format>
    <dc:creator>
     <cc:Agent>
      <dc:title>Matplotlib v3.9.2, https://matplotlib.org/</dc:title>
     </cc:Agent>
    </dc:creator>
   </cc:Work>
  </rdf:RDF>
 </metadata>
 <defs>
  <style type="text/css">*{stroke-linejoin: round; stroke-linecap: butt}</style>
 </defs>
 <g id="figure_1">
  <g id="patch_1">
   <path d="M 0 345.6 
L 460.8 345.6 
L 460.8 0 
L 0 0 
L 0 345.6 
z
" style="fill: none"/>
  </g>
  <g id="axes_1">
   <g id="patch_2">
    <path d="M 78.396 78.121333 
L 450.432 78.121333 
L 450.432 10.368 
L 78.396 10.368 
L 78.396 78.121333 
z
" style="fill: none"/>
   </g>
   <g id="matplotlib.axis_1">
    <g id="xtick_1">
     <g id="line2d_1">
      <defs>
       <path id="me2101799ee" d="M 0 0 
L 0 4.8 
" style="stroke: #262626"/>
      </defs>
      <g>
       <use xlink:href="#me2101799ee" x="95.306727" y="78.121333" style="fill: #262626; stroke: #262626"/>
      </g>
     </g>
     <g id="text_1">
      <!-- 0 -->
      <g style="fill: #262626" transform="translate(92.507227 93.107958) scale(0.088 -0.088)">
       <defs>
        <path id="DejaVuSans-30" d="M 2034 4250 
Q 1547 4250 1301 3770 
Q 1056 3291 1056 2328 
Q 1056 1369 1301 889 
Q 1547 409 2034 409 
Q 2525 409 2770 889 
Q 3016 1369 3016 2328 
Q 3016 3291 2770 3770 
Q 2525 4250 2034 4250 
z
M 2034 4750 
Q 2819 4750 3233 4129 
Q 3647 3509 3647 2328 
Q 3647 1150 3233 529 
Q 2819 -91 2034 -91 
Q 1250 -91 836 529 
Q 422 1150 422 2328 
Q 422 3509 836 4129 
Q 1250 4750 2034 4750 
z
" transform="scale(0.015625)"/>
       </defs>
       <use xlink:href="#DejaVuSans-30"/>
      </g>
     </g>
    </g>
    <g id="xtick_2">
     <g id="line2d_2">
      <g>
       <use xlink:href="#me2101799ee" x="140.402" y="78.121333" style="fill: #262626; stroke: #262626"/>
      </g>
     </g>
     <g id="text_2">
      <!-- 20 -->
      <g style="fill: #262626" transform="translate(134.803 93.107958) scale(0.088 -0.088)">
       <defs>
        <path id="DejaVuSans-32" d="M 1228 531 
L 3431 531 
L 3431 0 
L 469 0 
L 469 531 
Q 828 903 1448 1529 
Q 2069 2156 2228 2338 
Q 2531 2678 2651 2914 
Q 2772 3150 2772 3378 
Q 2772 3750 2511 3984 
Q 2250 4219 1831 4219 
Q 1534 4219 1204 4116 
Q 875 4013 500 3803 
L 500 4441 
Q 881 4594 1212 4672 
Q 1544 4750 1819 4750 
Q 2544 4750 2975 4387 
Q 3406 4025 3406 3419 
Q 3406 3131 3298 2873 
Q 3191 2616 2906 2266 
Q 2828 2175 2409 1742 
Q 1991 1309 1228 531 
z
" transform="scale(0.015625)"/>
       </defs>
       <use xlink:href="#DejaVuSans-32"/>
       <use xlink:href="#DejaVuSans-30" x="63.623047"/>
      </g>
     </g>
    </g>
    <g id="xtick_3">
     <g id="line2d_3">
      <g>
       <use xlink:href="#me2101799ee" x="185.497273" y="78.121333" style="fill: #262626; stroke: #262626"/>
      </g>
     </g>
     <g id="text_3">
      <!-- 40 -->
      <g style="fill: #262626" transform="translate(179.898273 93.107958) scale(0.088 -0.088)">
       <defs>
        <path id="DejaVuSans-34" d="M 2419 4116 
L 825 1625 
L 2419 1625 
L 2419 4116 
z
M 2253 4666 
L 3047 4666 
L 3047 1625 
L 3713 1625 
L 3713 1100 
L 3047 1100 
L 3047 0 
L 2419 0 
L 2419 1100 
L 313 1100 
L 313 1709 
L 2253 4666 
z
" transform="scale(0.015625)"/>
       </defs>
       <use xlink:href="#DejaVuSans-34"/>
       <use xlink:href="#DejaVuSans-30" x="63.623047"/>
      </g>
     </g>
    </g>
    <g id="xtick_4">
     <g id="line2d_4">
      <g>
       <use xlink:href="#me2101799ee" x="230.592545" y="78.121333" style="fill: #262626; stroke: #262626"/>
      </g>
     </g>
     <g id="text_4">
      <!-- 60 -->
      <g style="fill: #262626" transform="translate(224.993545 93.107958) scale(0.088 -0.088)">
       <defs>
        <path id="DejaVuSans-36" d="M 2113 2584 
Q 1688 2584 1439 2293 
Q 1191 2003 1191 1497 
Q 1191 994 1439 701 
Q 1688 409 2113 409 
Q 2538 409 2786 701 
Q 3034 994 3034 1497 
Q 3034 2003 2786 2293 
Q 2538 2584 2113 2584 
z
M 3366 4563 
L 3366 3988 
Q 3128 4100 2886 4159 
Q 2644 4219 2406 4219 
Q 1781 4219 1451 3797 
Q 1122 3375 1075 2522 
Q 1259 2794 1537 2939 
Q 1816 3084 2150 3084 
Q 2853 3084 3261 2657 
Q 3669 2231 3669 1497 
Q 3669 778 3244 343 
Q 2819 -91 2113 -91 
Q 1303 -91 875 529 
Q 447 1150 447 2328 
Q 447 3434 972 4092 
Q 1497 4750 2381 4750 
Q 2619 4750 2861 4703 
Q 3103 4656 3366 4563 
z
" transform="scale(0.015625)"/>
       </defs>
       <use xlink:href="#DejaVuSans-36"/>
       <use xlink:href="#DejaVuSans-30" x="63.623047"/>
      </g>
     </g>
    </g>
    <g id="xtick_5">
     <g id="line2d_5">
      <g>
       <use xlink:href="#me2101799ee" x="275.687818" y="78.121333" style="fill: #262626; stroke: #262626"/>
      </g>
     </g>
     <g id="text_5">
      <!-- 80 -->
      <g style="fill: #262626" transform="translate(270.088818 93.107958) scale(0.088 -0.088)">
       <defs>
        <path id="DejaVuSans-38" d="M 2034 2216 
Q 1584 2216 1326 1975 
Q 1069 1734 1069 1313 
Q 1069 891 1326 650 
Q 1584 409 2034 409 
Q 2484 409 2743 651 
Q 3003 894 3003 1313 
Q 3003 1734 2745 1975 
Q 2488 2216 2034 2216 
z
M 1403 2484 
Q 997 2584 770 2862 
Q 544 3141 544 3541 
Q 544 4100 942 4425 
Q 1341 4750 2034 4750 
Q 2731 4750 3128 4425 
Q 3525 4100 3525 3541 
Q 3525 3141 3298 2862 
Q 3072 2584 2669 2484 
Q 3125 2378 3379 2068 
Q 3634 1759 3634 1313 
Q 3634 634 3220 271 
Q 2806 -91 2034 -91 
Q 1263 -91 848 271 
Q 434 634 434 1313 
Q 434 1759 690 2068 
Q 947 2378 1403 2484 
z
M 1172 3481 
Q 1172 3119 1398 2916 
Q 1625 2713 2034 2713 
Q 2441 2713 2670 2916 
Q 2900 3119 2900 3481 
Q 2900 3844 2670 4047 
Q 2441 4250 2034 4250 
Q 1625 4250 1398 4047 
Q 1172 3844 1172 3481 
z
" transform="scale(0.015625)"/>
       </defs>
       <use xlink:href="#DejaVuSans-38"/>
       <use xlink:href="#DejaVuSans-30" x="63.623047"/>
      </g>
     </g>
    </g>
    <g id="xtick_6">
     <g id="line2d_6">
      <g>
       <use xlink:href="#me2101799ee" x="320.783091" y="78.121333" style="fill: #262626; stroke: #262626"/>
      </g>
     </g>
     <g id="text_6">
      <!-- 100 -->
      <g style="fill: #262626" transform="translate(312.384591 93.107958) scale(0.088 -0.088)">
       <defs>
        <path id="DejaVuSans-31" d="M 794 531 
L 1825 531 
L 1825 4091 
L 703 3866 
L 703 4441 
L 1819 4666 
L 2450 4666 
L 2450 531 
L 3481 531 
L 3481 0 
L 794 0 
L 794 531 
z
" transform="scale(0.015625)"/>
       </defs>
       <use xlink:href="#DejaVuSans-31"/>
       <use xlink:href="#DejaVuSans-30" x="63.623047"/>
       <use xlink:href="#DejaVuSans-30" x="127.246094"/>
      </g>
     </g>
    </g>
    <g id="xtick_7">
     <g id="line2d_7">
      <g>
       <use xlink:href="#me2101799ee" x="365.878364" y="78.121333" style="fill: #262626; stroke: #262626"/>
      </g>
     </g>
     <g id="text_7">
      <!-- 120 -->
      <g style="fill: #262626" transform="translate(357.479864 93.107958) scale(0.088 -0.088)">
       <use xlink:href="#DejaVuSans-31"/>
       <use xlink:href="#DejaVuSans-32" x="63.623047"/>
       <use xlink:href="#DejaVuSans-30" x="127.246094"/>
      </g>
     </g>
    </g>
    <g id="xtick_8">
     <g id="line2d_8">
      <g>
       <use xlink:href="#me2101799ee" x="410.973636" y="78.121333" style="fill: #262626; stroke: #262626"/>
      </g>
     </g>
     <g id="text_8">
      <!-- 140 -->
      <g style="fill: #262626" transform="translate(402.575136 93.107958) scale(0.088 -0.088)">
       <use xlink:href="#DejaVuSans-31"/>
       <use xlink:href="#DejaVuSans-34" x="63.623047"/>
       <use xlink:href="#DejaVuSans-30" x="127.246094"/>
      </g>
     </g>
    </g>
    <g id="text_9">
     <!-- Samples -->
     <g style="fill: #262626" transform="translate(243.915 106.232583) scale(0.096 -0.096)">
      <defs>
       <path id="DejaVuSans-53" d="M 3425 4513 
L 3425 3897 
Q 3066 4069 2747 4153 
Q 2428 4238 2131 4238 
Q 1616 4238 1336 4038 
Q 1056 3838 1056 3469 
Q 1056 3159 1242 3001 
Q 1428 2844 1947 2747 
L 2328 2669 
Q 3034 2534 3370 2195 
Q 3706 1856 3706 1288 
Q 3706 609 3251 259 
Q 2797 -91 1919 -91 
Q 1588 -91 1214 -16 
Q 841 59 441 206 
L 441 856 
Q 825 641 1194 531 
Q 1563 422 1919 422 
Q 2459 422 2753 634 
Q 3047 847 3047 1241 
Q 3047 1584 2836 1778 
Q 2625 1972 2144 2069 
L 1759 2144 
Q 1053 2284 737 2584 
Q 422 2884 422 3419 
Q 422 4038 858 4394 
Q 1294 4750 2059 4750 
Q 2388 4750 2728 4690 
Q 3069 4631 3425 4513 
z
" transform="scale(0.015625)"/>
       <path id="DejaVuSans-61" d="M 2194 1759 
Q 1497 1759 1228 1600 
Q 959 1441 959 1056 
Q 959 750 1161 570 
Q 1363 391 1709 391 
Q 2188 391 2477 730 
Q 2766 1069 2766 1631 
L 2766 1759 
L 2194 1759 
z
M 3341 1997 
L 3341 0 
L 2766 0 
L 2766 531 
Q 2569 213 2275 61 
Q 1981 -91 1556 -91 
Q 1019 -91 701 211 
Q 384 513 384 1019 
Q 384 1609 779 1909 
Q 1175 2209 1959 2209 
L 2766 2209 
L 2766 2266 
Q 2766 2663 2505 2880 
Q 2244 3097 1772 3097 
Q 1472 3097 1187 3025 
Q 903 2953 641 2809 
L 641 3341 
Q 956 3463 1253 3523 
Q 1550 3584 1831 3584 
Q 2591 3584 2966 3190 
Q 3341 2797 3341 1997 
z
" transform="scale(0.015625)"/>
       <path id="DejaVuSans-6d" d="M 3328 2828 
Q 3544 3216 3844 3400 
Q 4144 3584 4550 3584 
Q 5097 3584 5394 3201 
Q 5691 2819 5691 2113 
L 5691 0 
L 5113 0 
L 5113 2094 
Q 5113 2597 4934 2840 
Q 4756 3084 4391 3084 
Q 3944 3084 3684 2787 
Q 3425 2491 3425 1978 
L 3425 0 
L 2847 0 
L 2847 2094 
Q 2847 2600 2669 2842 
Q 2491 3084 2119 3084 
Q 1678 3084 1418 2786 
Q 1159 2488 1159 1978 
L 1159 0 
L 581 0 
L 581 3500 
L 1159 3500 
L 1159 2956 
Q 1356 3278 1631 3431 
Q 1906 3584 2284 3584 
Q 2666 3584 2933 3390 
Q 3200 3197 3328 2828 
z
" transform="scale(0.015625)"/>
       <path id="DejaVuSans-70" d="M 1159 525 
L 1159 -1331 
L 581 -1331 
L 581 3500 
L 1159 3500 
L 1159 2969 
Q 1341 3281 1617 3432 
Q 1894 3584 2278 3584 
Q 2916 3584 3314 3078 
Q 3713 2572 3713 1747 
Q 3713 922 3314 415 
Q 2916 -91 2278 -91 
Q 1894 -91 1617 61 
Q 1341 213 1159 525 
z
M 3116 1747 
Q 3116 2381 2855 2742 
Q 2594 3103 2138 3103 
Q 1681 3103 1420 2742 
Q 1159 2381 1159 1747 
Q 1159 1113 1420 752 
Q 1681 391 2138 391 
Q 2594 391 2855 752 
Q 3116 1113 3116 1747 
z
" transform="scale(0.015625)"/>
       <path id="DejaVuSans-6c" d="M 603 4863 
L 1178 4863 
L 1178 0 
L 603 0 
L 603 4863 
z
" transform="scale(0.015625)"/>
       <path id="DejaVuSans-65" d="M 3597 1894 
L 3597 1613 
L 953 1613 
Q 991 1019 1311 708 
Q 1631 397 2203 397 
Q 2534 397 2845 478 
Q 3156 559 3463 722 
L 3463 178 
Q 3153 47 2828 -22 
Q 2503 -91 2169 -91 
Q 1331 -91 842 396 
Q 353 884 353 1716 
Q 353 2575 817 3079 
Q 1281 3584 2069 3584 
Q 2775 3584 3186 3129 
Q 3597 2675 3597 1894 
z
M 3022 2063 
Q 3016 2534 2758 2815 
Q 2500 3097 2075 3097 
Q 1594 3097 1305 2825 
Q 1016 2553 972 2059 
L 3022 2063 
z
" transform="scale(0.015625)"/>
       <path id="DejaVuSans-73" d="M 2834 3397 
L 2834 2853 
Q 2591 2978 2328 3040 
Q 2066 3103 1784 3103 
Q 1356 3103 1142 2972 
Q 928 2841 928 2578 
Q 928 2378 1081 2264 
Q 1234 2150 1697 2047 
L 1894 2003 
Q 2506 1872 2764 1633 
Q 3022 1394 3022 966 
Q 3022 478 2636 193 
Q 2250 -91 1575 -91 
Q 1294 -91 989 -36 
Q 684 19 347 128 
L 347 722 
Q 666 556 975 473 
Q 1284 391 1588 391 
Q 1994 391 2212 530 
Q 2431 669 2431 922 
Q 2431 1156 2273 1281 
Q 2116 1406 1581 1522 
L 1381 1569 
Q 847 1681 609 1914 
Q 372 2147 372 2553 
Q 372 3047 722 3315 
Q 1072 3584 1716 3584 
Q 2034 3584 2315 3537 
Q 2597 3491 2834 3397 
z
" transform="scale(0.015625)"/>
      </defs>
      <use xlink:href="#DejaVuSans-53"/>
      <use xlink:href="#DejaVuSans-61" x="63.476562"/>
      <use xlink:href="#DejaVuSans-6d" x="124.755859"/>
      <use xlink:href="#DejaVuSans-70" x="222.167969"/>
      <use xlink:href="#DejaVuSans-6c" x="285.644531"/>
      <use xlink:href="#DejaVuSans-65" x="313.427734"/>
      <use xlink:href="#DejaVuSans-73" x="374.951172"/>
     </g>
    </g>
   </g>
   <g id="matplotlib.axis_2">
    <g id="ytick_1">
     <g id="line2d_9">
      <defs>
       <path id="m536bc8c265" d="M 0 0 
L -4.8 0 
" style="stroke: #262626"/>
      </defs>
      <g>
       <use xlink:href="#m536bc8c265" x="78.396" y="75.041636" style="fill: #262626; stroke: #262626"/>
      </g>
     </g>
     <g id="text_10">
      <!-- 0.0 -->
      <g style="fill: #262626" transform="translate(56.10125 78.384949) scale(0.088 -0.088)">
       <defs>
        <path id="DejaVuSans-2e" d="M 684 794 
L 1344 794 
L 1344 0 
L 684 0 
L 684 794 
z
" transform="scale(0.015625)"/>
       </defs>
       <use xlink:href="#DejaVuSans-30"/>
       <use xlink:href="#DejaVuSans-2e" x="63.623047"/>
       <use xlink:href="#DejaVuSans-30" x="95.410156"/>
      </g>
     </g>
    </g>
    <g id="ytick_2">
     <g id="line2d_10">
      <g>
       <use xlink:href="#m536bc8c265" x="78.396" y="45.692247" style="fill: #262626; stroke: #262626"/>
      </g>
     </g>
     <g id="text_11">
      <!-- 0.1 -->
      <g style="fill: #262626" transform="translate(56.10125 49.03556) scale(0.088 -0.088)">
       <use xlink:href="#DejaVuSans-30"/>
       <use xlink:href="#DejaVuSans-2e" x="63.623047"/>
       <use xlink:href="#DejaVuSans-31" x="95.410156"/>
      </g>
     </g>
    </g>
    <g id="ytick_3">
     <g id="line2d_11">
      <g>
       <use xlink:href="#m536bc8c265" x="78.396" y="16.342858" style="fill: #262626; stroke: #262626"/>
      </g>
     </g>
     <g id="text_12">
      <!-- 0.2 -->
      <g style="fill: #262626" transform="translate(56.10125 19.68617) scale(0.088 -0.088)">
       <use xlink:href="#DejaVuSans-30"/>
       <use xlink:href="#DejaVuSans-2e" x="63.623047"/>
       <use xlink:href="#DejaVuSans-32" x="95.410156"/>
      </g>
     </g>
    </g>
    <g id="text_13">
     <!-- HMP -->
     <g style="fill: #262626" transform="translate(50.10475 54.890167) rotate(-90) scale(0.096 -0.096)">
      <defs>
       <path id="DejaVuSans-48" d="M 628 4666 
L 1259 4666 
L 1259 2753 
L 3553 2753 
L 3553 4666 
L 4184 4666 
L 4184 0 
L 3553 0 
L 3553 2222 
L 1259 2222 
L 1259 0 
L 628 0 
L 628 4666 
z
" transform="scale(0.015625)"/>
       <path id="DejaVuSans-4d" d="M 628 4666 
L 1569 4666 
L 2759 1491 
L 3956 4666 
L 4897 4666 
L 4897 0 
L 4281 0 
L 4281 4097 
L 3078 897 
L 2444 897 
L 1241 4097 
L 1241 0 
L 628 0 
L 628 4666 
z
" transform="scale(0.015625)"/>
       <path id="DejaVuSans-50" d="M 1259 4147 
L 1259 2394 
L 2053 2394 
Q 2494 2394 2734 2622 
Q 2975 2850 2975 3272 
Q 2975 3691 2734 3919 
Q 2494 4147 2053 4147 
L 1259 4147 
z
M 628 4666 
L 2053 4666 
Q 2838 4666 3239 4311 
Q 3641 3956 3641 3272 
Q 3641 2581 3239 2228 
Q 2838 1875 2053 1875 
L 1259 1875 
L 1259 0 
L 628 0 
L 628 4666 
z
" transform="scale(0.015625)"/>
      </defs>
      <use xlink:href="#DejaVuSans-48"/>
      <use xlink:href="#DejaVuSans-4d" x="75.195312"/>
      <use xlink:href="#DejaVuSans-50" x="161.474609"/>
     </g>
    </g>
   </g>
   <g id="PolyCollection_1"/>
   <g id="PolyCollection_2"/>
   <g id="PolyCollection_3"/>
   <g id="PolyCollection_4"/>
   <g id="PolyCollection_5"/>
   <g id="line2d_12">
    <path d="M 95.306727 75.041636 
L 99.816255 65.901646 
L 102.071018 66.713993 
L 104.325782 69.803809 
L 106.580545 71.682652 
L 108.835309 72.460294 
L 111.090073 72.538157 
L 117.854364 71.643226 
L 120.109127 70.86327 
L 122.363891 68.115208 
L 124.618655 59.508289 
L 126.873418 38.4475 
L 129.128182 13.447697 
L 131.382945 19.418975 
L 133.637709 48.25233 
L 135.892473 65.739902 
L 138.147236 71.346784 
L 140.402 72.605941 
L 142.656764 72.20045 
L 147.166291 68.948699 
L 149.421055 69.464284 
L 151.675818 71.638274 
L 153.930582 73.401176 
L 156.185345 74.316889 
L 158.440109 74.73 
L 162.949636 74.970663 
L 178.732982 75.01411 
L 196.771091 75.032218 
L 433.521273 75.041636 
L 433.521273 75.041636 
" clip-path="url(#p166a402beb)" style="fill: none; stroke: #ff7f0e; stroke-width: 1.2; stroke-linecap: round"/>
   </g>
   <g id="line2d_13">
    <path d="M 95.306727 75.041636 
L 120.109127 74.949676 
L 124.618655 74.750036 
L 126.873418 74.318025 
L 129.128182 72.896021 
L 131.382945 68.757952 
L 133.637709 61.71794 
L 135.892473 57.901797 
L 138.147236 60.939294 
L 140.402 66.328467 
L 142.656764 70.360282 
L 144.911527 72.597831 
L 147.166291 73.647196 
L 149.421055 74.060112 
L 151.675818 74.145101 
L 153.930582 74.038093 
L 156.185345 73.791943 
L 158.440109 73.387745 
L 160.694873 72.719112 
L 162.949636 71.701003 
L 167.459164 69.226703 
L 169.713927 67.343743 
L 171.968691 63.181321 
L 174.223455 55.042444 
L 176.478218 46.347439 
L 178.732982 47.021587 
L 180.987745 55.878483 
L 183.242509 63.153758 
L 185.497273 66.38045 
L 187.752036 66.988436 
L 190.0068 66.096666 
L 192.261564 64.420733 
L 194.516327 63.34074 
L 196.771091 65.320265 
L 199.025855 70.048857 
L 201.280618 73.466898 
L 203.535382 74.639508 
L 205.790145 74.914808 
L 210.299673 74.9726 
L 214.8092 74.772209 
L 217.063964 74.408882 
L 219.318727 73.846909 
L 221.573491 73.4383 
L 223.828255 73.526797 
L 228.337782 74.609247 
L 230.592545 74.914331 
L 235.102073 75.026032 
L 433.521273 75.041636 
L 433.521273 75.041636 
" clip-path="url(#p166a402beb)" style="fill: none; stroke: #2ca02c; stroke-width: 1.2; stroke-linecap: round"/>
   </g>
   <g id="line2d_14">
    <path d="M 95.306727 75.041636 
L 135.892473 74.93689 
L 140.402 74.884194 
L 149.421055 74.986712 
L 153.930582 74.934787 
L 158.440109 74.658818 
L 169.713927 73.651651 
L 171.968691 73.675941 
L 178.732982 74.645404 
L 183.242509 74.930894 
L 190.0068 75.000138 
L 194.516327 74.910277 
L 199.025855 74.58173 
L 201.280618 74.266182 
L 203.535382 73.616065 
L 205.790145 72.245192 
L 208.044909 70.29366 
L 210.299673 69.347344 
L 212.554436 70.105375 
L 214.8092 71.111167 
L 217.063964 71.477488 
L 219.318727 71.402346 
L 221.573491 71.513951 
L 226.083018 72.503354 
L 228.337782 72.36104 
L 230.592545 71.338263 
L 232.847309 69.510027 
L 235.102073 68.215164 
L 237.356836 68.939673 
L 239.6116 70.781768 
L 241.866364 72.213462 
L 244.121127 72.849339 
L 246.375891 72.742864 
L 248.630655 71.653928 
L 250.885418 68.853958 
L 253.140182 64.357622 
L 255.394945 61.549508 
L 257.649709 63.036484 
L 259.904473 65.616729 
L 262.159236 66.355167 
L 264.414 64.873321 
L 266.668764 62.562585 
L 268.923527 62.721077 
L 271.178291 66.175418 
L 273.433055 69.882645 
L 275.687818 72.235261 
L 277.942582 73.541021 
L 280.197345 74.254659 
L 282.452109 74.605801 
L 284.706873 74.741053 
L 289.2164 74.677413 
L 295.980691 74.198 
L 298.235455 73.814666 
L 300.490218 73.043619 
L 302.744982 71.915781 
L 304.999745 71.038859 
L 307.254509 70.855229 
L 309.509273 70.909009 
L 311.764036 70.6923 
L 314.0188 70.296931 
L 316.273564 70.300647 
L 318.528327 70.973892 
L 320.783091 71.847236 
L 323.037855 72.474961 
L 334.311673 74.212627 
L 336.566436 74.398497 
L 338.8212 74.424044 
L 341.075964 74.242798 
L 343.330727 73.71727 
L 345.585491 72.716577 
L 347.840255 71.573831 
L 350.095018 71.085499 
L 352.349782 71.418566 
L 359.114073 73.340265 
L 361.368836 73.79232 
L 363.6236 74.053043 
L 365.878364 74.129448 
L 368.133127 74.050844 
L 372.642655 73.634218 
L 374.897418 73.61982 
L 377.152182 73.995556 
L 379.406945 74.518645 
L 381.661709 74.838485 
L 386.171236 74.994444 
L 417.737927 75.036583 
L 433.521273 75.041636 
L 433.521273 75.041636 
" clip-path="url(#p166a402beb)" style="fill: none; stroke: #d62728; stroke-width: 1.2; stroke-linecap: round"/>
   </g>
   <g id="line2d_15">
    <path d="M 95.306727 75.041636 
L 433.521273 75.041636 
L 433.521273 75.041636 
" clip-path="url(#p166a402beb)" style="fill: none; stroke: #9467bd; stroke-width: 1.2; stroke-linecap: round"/>
   </g>
   <g id="line2d_16">
    <path d="M 95.306727 75.041636 
L 374.897418 74.975869 
L 381.661709 74.746681 
L 388.426 74.243237 
L 392.935527 73.935288 
L 395.190291 74.002005 
L 401.954582 74.616379 
L 404.209345 74.639523 
L 406.464109 74.512196 
L 408.718873 74.083373 
L 410.973636 72.850581 
L 413.2284 69.376512 
L 415.483164 60.483578 
L 417.737927 43.209231 
L 419.992691 23.969161 
L 422.247455 18.539209 
L 424.502218 28.735511 
L 426.756982 42.298582 
L 429.011745 52.705487 
L 433.521273 68.607671 
L 433.521273 68.607671 
" clip-path="url(#p166a402beb)" style="fill: none; stroke: #8c564b; stroke-width: 1.2; stroke-linecap: round"/>
   </g>
   <g id="patch_3">
    <path d="M 78.396 78.121333 
L 78.396 10.368 
" style="fill: none; stroke: #262626; stroke-linejoin: miter; stroke-linecap: square"/>
   </g>
   <g id="patch_4">
    <path d="M 450.432 78.121333 
L 450.432 10.368 
" style="fill: none; stroke: #262626; stroke-linejoin: miter; stroke-linecap: square"/>
   </g>
   <g id="patch_5">
    <path d="M 78.396 78.121333 
L 450.432 78.121333 
" style="fill: none; stroke: #262626; stroke-linejoin: miter; stroke-linecap: square"/>
   </g>
   <g id="patch_6">
    <path d="M 78.396 10.368 
L 450.432 10.368 
" style="fill: none; stroke: #262626; stroke-linejoin: miter; stroke-linecap: square"/>
   </g>
  </g>
  <g id="axes_2">
   <g id="patch_7">
    <path d="M 78.396 187.262667 
L 450.432 187.262667 
L 450.432 119.509333 
L 78.396 119.509333 
L 78.396 187.262667 
z
" style="fill: none"/>
   </g>
   <g id="matplotlib.axis_3">
    <g id="xtick_9">
     <g id="line2d_17">
      <g>
       <use xlink:href="#me2101799ee" x="95.306727" y="187.262667" style="fill: #262626; stroke: #262626"/>
      </g>
     </g>
     <g id="text_14">
      <!-- 0 -->
      <g style="fill: #262626" transform="translate(92.507227 202.249292) scale(0.088 -0.088)">
       <use xlink:href="#DejaVuSans-30"/>
      </g>
     </g>
    </g>
    <g id="xtick_10">
     <g id="line2d_18">
      <g>
       <use xlink:href="#me2101799ee" x="140.402" y="187.262667" style="fill: #262626; stroke: #262626"/>
      </g>
     </g>
     <g id="text_15">
      <!-- 20 -->
      <g style="fill: #262626" transform="translate(134.803 202.249292) scale(0.088 -0.088)">
       <use xlink:href="#DejaVuSans-32"/>
       <use xlink:href="#DejaVuSans-30" x="63.623047"/>
      </g>
     </g>
    </g>
    <g id="xtick_11">
     <g id="line2d_19">
      <g>
       <use xlink:href="#me2101799ee" x="185.497273" y="187.262667" style="fill: #262626; stroke: #262626"/>
      </g>
     </g>
     <g id="text_16">
      <!-- 40 -->
      <g style="fill: #262626" transform="translate(179.898273 202.249292) scale(0.088 -0.088)">
       <use xlink:href="#DejaVuSans-34"/>
       <use xlink:href="#DejaVuSans-30" x="63.623047"/>
      </g>
     </g>
    </g>
    <g id="xtick_12">
     <g id="line2d_20">
      <g>
       <use xlink:href="#me2101799ee" x="230.592545" y="187.262667" style="fill: #262626; stroke: #262626"/>
      </g>
     </g>
     <g id="text_17">
      <!-- 60 -->
      <g style="fill: #262626" transform="translate(224.993545 202.249292) scale(0.088 -0.088)">
       <use xlink:href="#DejaVuSans-36"/>
       <use xlink:href="#DejaVuSans-30" x="63.623047"/>
      </g>
     </g>
    </g>
    <g id="xtick_13">
     <g id="line2d_21">
      <g>
       <use xlink:href="#me2101799ee" x="275.687818" y="187.262667" style="fill: #262626; stroke: #262626"/>
      </g>
     </g>
     <g id="text_18">
      <!-- 80 -->
      <g style="fill: #262626" transform="translate(270.088818 202.249292) scale(0.088 -0.088)">
       <use xlink:href="#DejaVuSans-38"/>
       <use xlink:href="#DejaVuSans-30" x="63.623047"/>
      </g>
     </g>
    </g>
    <g id="xtick_14">
     <g id="line2d_22">
      <g>
       <use xlink:href="#me2101799ee" x="320.783091" y="187.262667" style="fill: #262626; stroke: #262626"/>
      </g>
     </g>
     <g id="text_19">
      <!-- 100 -->
      <g style="fill: #262626" transform="translate(312.384591 202.249292) scale(0.088 -0.088)">
       <use xlink:href="#DejaVuSans-31"/>
       <use xlink:href="#DejaVuSans-30" x="63.623047"/>
       <use xlink:href="#DejaVuSans-30" x="127.246094"/>
      </g>
     </g>
    </g>
    <g id="xtick_15">
     <g id="line2d_23">
      <g>
       <use xlink:href="#me2101799ee" x="365.878364" y="187.262667" style="fill: #262626; stroke: #262626"/>
      </g>
     </g>
     <g id="text_20">
      <!-- 120 -->
      <g style="fill: #262626" transform="translate(357.479864 202.249292) scale(0.088 -0.088)">
       <use xlink:href="#DejaVuSans-31"/>
       <use xlink:href="#DejaVuSans-32" x="63.623047"/>
       <use xlink:href="#DejaVuSans-30" x="127.246094"/>
      </g>
     </g>
    </g>
    <g id="xtick_16">
     <g id="line2d_24">
      <g>
       <use xlink:href="#me2101799ee" x="410.973636" y="187.262667" style="fill: #262626; stroke: #262626"/>
      </g>
     </g>
     <g id="text_21">
      <!-- 140 -->
      <g style="fill: #262626" transform="translate(402.575136 202.249292) scale(0.088 -0.088)">
       <use xlink:href="#DejaVuSans-31"/>
       <use xlink:href="#DejaVuSans-34" x="63.623047"/>
       <use xlink:href="#DejaVuSans-30" x="127.246094"/>
      </g>
     </g>
    </g>
   </g>
   <g id="matplotlib.axis_4">
    <g id="ytick_4">
     <g id="line2d_25">
      <g>
       <use xlink:href="#m536bc8c265" x="78.396" y="184.183152" style="fill: #262626; stroke: #262626"/>
      </g>
     </g>
     <g id="text_22">
      <!-- 0.00 -->
      <g style="fill: #262626" transform="translate(50.50225 187.526464) scale(0.088 -0.088)">
       <use xlink:href="#DejaVuSans-30"/>
       <use xlink:href="#DejaVuSans-2e" x="63.623047"/>
       <use xlink:href="#DejaVuSans-30" x="95.410156"/>
       <use xlink:href="#DejaVuSans-30" x="159.033203"/>
      </g>
     </g>
    </g>
    <g id="ytick_5">
     <g id="line2d_26">
      <g>
       <use xlink:href="#m536bc8c265" x="78.396" y="145.131832" style="fill: #262626; stroke: #262626"/>
      </g>
     </g>
     <g id="text_23">
      <!-- 0.05 -->
      <g style="fill: #262626" transform="translate(50.50225 148.475144) scale(0.088 -0.088)">
       <defs>
        <path id="DejaVuSans-35" d="M 691 4666 
L 3169 4666 
L 3169 4134 
L 1269 4134 
L 1269 2991 
Q 1406 3038 1543 3061 
Q 1681 3084 1819 3084 
Q 2600 3084 3056 2656 
Q 3513 2228 3513 1497 
Q 3513 744 3044 326 
Q 2575 -91 1722 -91 
Q 1428 -91 1123 -41 
Q 819 9 494 109 
L 494 744 
Q 775 591 1075 516 
Q 1375 441 1709 441 
Q 2250 441 2565 725 
Q 2881 1009 2881 1497 
Q 2881 1984 2565 2268 
Q 2250 2553 1709 2553 
Q 1456 2553 1204 2497 
Q 953 2441 691 2322 
L 691 4666 
z
" transform="scale(0.015625)"/>
       </defs>
       <use xlink:href="#DejaVuSans-30"/>
       <use xlink:href="#DejaVuSans-2e" x="63.623047"/>
       <use xlink:href="#DejaVuSans-30" x="95.410156"/>
       <use xlink:href="#DejaVuSans-35" x="159.033203"/>
      </g>
     </g>
    </g>
    <g id="text_24">
     <!-- S4 -->
     <g style="fill: #262626" transform="translate(44.50575 159.48725) rotate(-90) scale(0.096 -0.096)">
      <use xlink:href="#DejaVuSans-53"/>
      <use xlink:href="#DejaVuSans-34" x="63.476562"/>
     </g>
    </g>
   </g>
   <g id="PolyCollection_6"/>
   <g id="PolyCollection_7"/>
   <g id="PolyCollection_8"/>
   <g id="PolyCollection_9"/>
   <g id="PolyCollection_10"/>
   <g id="line2d_27">
    <path d="M 95.306727 184.165274 
L 97.561491 184.173664 
L 99.816255 183.730714 
L 102.071018 182.853598 
L 104.325782 182.396646 
L 108.835309 182.316311 
L 111.090073 182.251149 
L 115.5996 182.773215 
L 117.854364 182.744116 
L 120.109127 182.177863 
L 122.363891 181.425536 
L 124.618655 179.326002 
L 126.873418 172.512375 
L 129.128182 156.711308 
L 131.382945 145.334831 
L 133.637709 152.063023 
L 135.892473 164.78097 
L 138.147236 172.450344 
L 140.402 175.760378 
L 142.656764 174.244741 
L 147.166291 163.963565 
L 149.421055 160.559384 
L 151.675818 161.041599 
L 153.930582 166.283744 
L 156.185345 169.573847 
L 158.440109 174.254557 
L 160.694873 177.361248 
L 162.949636 178.52385 
L 165.2044 177.203479 
L 167.459164 173.920598 
L 169.713927 173.264224 
L 171.968691 172.163299 
L 174.223455 174.180272 
L 178.732982 179.901437 
L 180.987745 181.759125 
L 183.242509 183.109287 
L 185.497273 183.197614 
L 187.752036 182.801697 
L 190.0068 181.440719 
L 192.261564 177.168707 
L 194.516327 172.2671 
L 196.771091 169.750308 
L 199.025855 163.006144 
L 201.280618 168.886803 
L 203.535382 179.457386 
L 205.790145 182.575502 
L 208.044909 183.433107 
L 210.299673 183.752466 
L 212.554436 183.798353 
L 214.8092 183.438446 
L 217.063964 182.776397 
L 219.318727 182.744348 
L 221.573491 183.107012 
L 223.828255 182.827241 
L 226.083018 181.085819 
L 228.337782 176.548884 
L 230.592545 168.090264 
L 232.847309 155.059303 
L 235.102073 156.730572 
L 237.356836 158.705528 
L 239.6116 169.53014 
L 241.866364 177.760492 
L 244.121127 181.987347 
L 246.375891 182.762684 
L 248.630655 181.382726 
L 250.885418 178.468375 
L 253.140182 177.72169 
L 255.394945 179.461874 
L 257.649709 180.350105 
L 259.904473 181.091496 
L 262.159236 182.901266 
L 264.414 183.644726 
L 268.923527 183.886466 
L 271.178291 183.423757 
L 273.433055 182.846504 
L 275.687818 183.368294 
L 277.942582 183.774713 
L 280.197345 183.95885 
L 282.452109 183.915103 
L 284.706873 183.666601 
L 286.961636 183.188494 
L 291.471164 181.89355 
L 293.725927 181.797791 
L 295.980691 182.363786 
L 298.235455 183.83999 
L 300.490218 184.072476 
L 304.999745 184.034841 
L 309.509273 183.722367 
L 311.764036 183.275854 
L 314.0188 181.862713 
L 316.273564 180.90111 
L 318.528327 180.713397 
L 320.783091 182.00314 
L 323.037855 183.42291 
L 325.292618 183.569298 
L 327.547382 183.137563 
L 329.802145 182.924123 
L 332.056909 182.011264 
L 336.566436 183.193662 
L 343.330727 184.034299 
L 347.840255 184.147241 
L 370.387891 184.145197 
L 386.171236 184.178146 
L 433.521273 184.182003 
L 433.521273 184.182003 
" clip-path="url(#pc3f98a2ac1)" style="fill: none; stroke: #ff7f0e; stroke-width: 1.2; stroke-linecap: round"/>
   </g>
   <g id="line2d_28">
    <path d="M 95.306727 184.181323 
L 122.363891 184.059619 
L 124.618655 183.94401 
L 126.873418 183.682813 
L 129.128182 182.533698 
L 131.382945 180.627251 
L 133.637709 178.053801 
L 135.892473 174.778014 
L 138.147236 174.55834 
L 140.402 177.584859 
L 142.656764 179.879791 
L 144.911527 180.531751 
L 147.166291 181.857444 
L 149.421055 182.575744 
L 151.675818 182.274611 
L 156.185345 181.421579 
L 158.440109 180.287245 
L 160.694873 178.604123 
L 162.949636 175.301831 
L 165.2044 172.588963 
L 167.459164 173.227614 
L 169.713927 173.032376 
L 171.968691 168.733563 
L 174.223455 161.581111 
L 176.478218 151.598536 
L 178.732982 147.276964 
L 180.987745 153.191174 
L 183.242509 157.813422 
L 185.497273 161.167351 
L 187.752036 164.182957 
L 190.0068 160.690848 
L 194.516327 157.343451 
L 196.771091 163.954796 
L 199.025855 170.046016 
L 201.280618 174.838737 
L 203.535382 179.937443 
L 205.790145 182.69063 
L 208.044909 183.5225 
L 210.299673 183.655683 
L 212.554436 183.029854 
L 214.8092 181.923052 
L 217.063964 180.438738 
L 219.318727 175.68071 
L 223.828255 152.404941 
L 226.083018 154.946139 
L 228.337782 172.656741 
L 230.592545 180.494755 
L 232.847309 182.842352 
L 235.102073 183.281695 
L 237.356836 183.147968 
L 239.6116 182.270222 
L 241.866364 180.215061 
L 244.121127 179.227165 
L 248.630655 182.059516 
L 250.885418 181.953413 
L 253.140182 182.278431 
L 255.394945 182.361366 
L 257.649709 182.098457 
L 259.904473 181.647185 
L 262.159236 181.710391 
L 264.414 182.663263 
L 266.668764 183.279899 
L 268.923527 183.693288 
L 271.178291 183.780226 
L 275.687818 183.491701 
L 277.942582 182.701275 
L 280.197345 180.560605 
L 282.452109 178.024831 
L 284.706873 180.733578 
L 286.961636 181.931445 
L 291.471164 182.383263 
L 293.725927 182.23615 
L 295.980691 182.260872 
L 298.235455 182.695306 
L 300.490218 181.884969 
L 302.744982 180.760805 
L 304.999745 181.013797 
L 307.254509 180.757409 
L 309.509273 182.32476 
L 311.764036 183.002485 
L 314.0188 182.730413 
L 323.037855 182.729371 
L 325.292618 183.401696 
L 327.547382 183.700965 
L 329.802145 183.630502 
L 332.056909 182.429748 
L 334.311673 180.704422 
L 336.566436 176.669274 
L 338.8212 176.707427 
L 341.075964 178.813711 
L 343.330727 181.328522 
L 345.585491 182.696088 
L 347.840255 183.011853 
L 352.349782 181.795677 
L 354.604545 180.65778 
L 356.859309 178.645483 
L 359.114073 177.930395 
L 361.368836 177.782624 
L 363.6236 180.445938 
L 365.878364 182.867671 
L 368.133127 183.747612 
L 370.387891 184.031276 
L 377.152182 184.090075 
L 381.661709 183.820968 
L 383.916473 183.640161 
L 395.190291 184.059844 
L 399.699818 183.959676 
L 404.209345 183.58508 
L 406.464109 182.745374 
L 410.973636 182.785432 
L 413.2284 183.489969 
L 415.483164 183.839838 
L 419.992691 184.065701 
L 424.502218 184.026414 
L 431.266509 183.826652 
L 433.521273 183.934295 
L 433.521273 183.934295 
" clip-path="url(#pc3f98a2ac1)" style="fill: none; stroke: #2ca02c; stroke-width: 1.2; stroke-linecap: round"/>
   </g>
   <g id="line2d_29">
    <path d="M 95.306727 184.182753 
L 131.382945 184.085283 
L 138.147236 183.99854 
L 151.675818 184.057993 
L 156.185345 183.783643 
L 162.949636 182.984855 
L 165.2044 182.635855 
L 167.459164 182.027338 
L 169.713927 181.568578 
L 171.968691 181.264462 
L 174.223455 181.539812 
L 176.478218 182.983594 
L 178.732982 183.766694 
L 180.987745 183.965926 
L 187.752036 184.063482 
L 192.261564 184.039151 
L 196.771091 183.622029 
L 199.025855 183.303167 
L 201.280618 182.693449 
L 203.535382 181.027677 
L 205.790145 177.950722 
L 208.044909 175.736502 
L 210.299673 175.028265 
L 212.554436 168.478684 
L 214.8092 163.732803 
L 217.063964 163.754881 
L 219.318727 169.832099 
L 221.573491 177.301929 
L 223.828255 179.649538 
L 228.337782 179.289339 
L 230.592545 179.456233 
L 232.847309 176.996545 
L 235.102073 175.02287 
L 237.356836 177.375345 
L 239.6116 179.529589 
L 241.866364 180.907816 
L 244.121127 181.824323 
L 246.375891 180.809943 
L 248.630655 177.849739 
L 250.885418 169.443399 
L 255.394945 122.58903 
L 257.649709 126.530906 
L 259.904473 144.858878 
L 262.159236 158.018889 
L 264.414 163.089635 
L 266.668764 164.058465 
L 268.923527 163.583518 
L 271.178291 168.451692 
L 273.433055 177.637206 
L 275.687818 181.319077 
L 277.942582 182.995261 
L 280.197345 183.595651 
L 282.452109 183.858185 
L 286.961636 183.670387 
L 291.471164 183.41345 
L 295.980691 182.410694 
L 298.235455 181.378557 
L 300.490218 180.930158 
L 302.744982 180.092488 
L 304.999745 177.293076 
L 307.254509 176.242934 
L 309.509273 174.240113 
L 311.764036 169.227772 
L 314.0188 169.405317 
L 316.273564 172.486731 
L 325.292618 181.717371 
L 329.802145 182.309209 
L 332.056909 183.044704 
L 334.311673 183.085813 
L 336.566436 183.31241 
L 338.8212 183.399316 
L 341.075964 183.082643 
L 343.330727 182.497193 
L 345.585491 180.859998 
L 347.840255 177.251814 
L 350.095018 176.25061 
L 352.349782 173.486543 
L 354.604545 172.787946 
L 356.859309 175.826658 
L 359.114073 177.037518 
L 361.368836 178.466584 
L 363.6236 178.715604 
L 365.878364 177.085837 
L 368.133127 176.520952 
L 370.387891 173.186176 
L 372.642655 171.175505 
L 374.897418 173.331115 
L 377.152182 176.812089 
L 379.406945 181.459636 
L 381.661709 183.282159 
L 383.916473 183.762412 
L 388.426 183.965138 
L 413.2284 184.109937 
L 417.737927 184.012819 
L 422.247455 183.788055 
L 426.756982 183.741267 
L 431.266509 183.817414 
L 433.521273 183.622263 
L 433.521273 183.622263 
" clip-path="url(#pc3f98a2ac1)" style="fill: none; stroke: #d62728; stroke-width: 1.2; stroke-linecap: round"/>
   </g>
   <g id="line2d_30">
    <path d="M 95.306727 184.18281 
L 178.732982 184.109478 
L 180.987745 184.030315 
L 183.242509 183.794843 
L 185.497273 183.206792 
L 187.752036 182.905138 
L 190.0068 183.664069 
L 192.261564 184.008441 
L 199.025855 184.145784 
L 205.790145 184.072124 
L 212.554436 183.991386 
L 219.318727 184.056313 
L 226.083018 184.052375 
L 237.356836 183.729509 
L 239.6116 183.439374 
L 241.866364 182.725348 
L 246.375891 181.907729 
L 248.630655 182.550338 
L 250.885418 183.375715 
L 253.140182 183.733331 
L 257.649709 183.993964 
L 262.159236 183.818991 
L 266.668764 183.700395 
L 268.923527 183.43995 
L 271.178291 182.69979 
L 273.433055 179.674956 
L 275.687818 171.832766 
L 277.942582 164.433798 
L 280.197345 156.164068 
L 282.452109 148.488989 
L 284.706873 141.883249 
L 286.961636 139.219963 
L 289.2164 159.572449 
L 291.471164 174.534397 
L 293.725927 178.200352 
L 295.980691 179.241125 
L 298.235455 178.915358 
L 300.490218 177.206441 
L 302.744982 176.818514 
L 304.999745 178.601325 
L 307.254509 180.705304 
L 309.509273 182.198906 
L 311.764036 182.931658 
L 314.0188 183.33204 
L 318.528327 183.641687 
L 320.783091 183.597909 
L 323.037855 183.282601 
L 325.292618 182.436013 
L 327.547382 180.973846 
L 329.802145 180.590251 
L 332.056909 181.097229 
L 334.311673 180.74682 
L 336.566436 180.839583 
L 338.8212 180.367328 
L 341.075964 180.395108 
L 347.840255 182.940162 
L 350.095018 183.017804 
L 352.349782 183.303846 
L 354.604545 183.75393 
L 356.859309 183.704141 
L 359.114073 183.538705 
L 363.6236 183.902834 
L 368.133127 183.904858 
L 370.387891 183.75394 
L 372.642655 183.403456 
L 374.897418 182.853517 
L 377.152182 181.529632 
L 379.406945 179.482772 
L 381.661709 176.942161 
L 383.916473 174.060943 
L 386.171236 171.871052 
L 388.426 170.75824 
L 390.680764 170.017971 
L 392.935527 171.483454 
L 395.190291 176.689147 
L 397.445055 180.388269 
L 399.699818 182.130502 
L 401.954582 182.560455 
L 406.464109 182.057825 
L 408.718873 181.12889 
L 410.973636 179.216986 
L 413.2284 176.13862 
L 415.483164 171.54752 
L 417.737927 169.12749 
L 419.992691 168.200554 
L 422.247455 170.294323 
L 424.502218 173.750003 
L 426.756982 176.789688 
L 431.266509 180.552814 
L 433.521273 181.754991 
L 433.521273 181.754991 
" clip-path="url(#pc3f98a2ac1)" style="fill: none; stroke: #9467bd; stroke-width: 1.2; stroke-linecap: round"/>
   </g>
   <g id="line2d_31">
    <path d="M 95.306727 184.18297 
L 178.732982 184.136661 
L 187.752036 183.933819 
L 192.261564 184.129109 
L 201.280618 184.165925 
L 219.318727 184.045845 
L 223.828255 184.140898 
L 230.592545 184.104784 
L 241.866364 183.74227 
L 244.121127 183.797544 
L 248.630655 183.234261 
L 253.140182 183.664145 
L 257.649709 183.806147 
L 262.159236 183.804939 
L 264.414 183.648609 
L 271.178291 182.357389 
L 275.687818 182.72813 
L 277.942582 182.085078 
L 280.197345 182.098144 
L 282.452109 182.791748 
L 284.706873 182.689651 
L 286.961636 183.114538 
L 289.2164 183.697031 
L 291.471164 183.774829 
L 293.725927 183.560594 
L 295.980691 183.227961 
L 298.235455 183.045045 
L 302.744982 183.155965 
L 304.999745 182.992446 
L 307.254509 183.443424 
L 309.509273 183.641013 
L 314.0188 183.765264 
L 318.528327 183.847715 
L 323.037855 183.774079 
L 325.292618 183.489519 
L 327.547382 183.360365 
L 329.802145 183.54958 
L 332.056909 183.91836 
L 336.566436 183.971857 
L 338.8212 183.894131 
L 345.585491 183.10376 
L 347.840255 183.172172 
L 350.095018 183.370023 
L 352.349782 183.341779 
L 356.859309 183.11698 
L 359.114073 182.660191 
L 361.368836 182.717354 
L 363.6236 182.987736 
L 368.133127 183.016716 
L 370.387891 182.772129 
L 372.642655 182.140769 
L 374.897418 180.706023 
L 377.152182 178.812666 
L 379.406945 177.384734 
L 381.661709 175.692919 
L 383.916473 173.622473 
L 386.171236 172.276592 
L 392.935527 152.790483 
L 395.190291 155.811413 
L 399.699818 170.96015 
L 401.954582 175.864042 
L 404.209345 178.458507 
L 406.464109 180.747004 
L 410.973636 177.684893 
L 413.2284 175.417231 
L 415.483164 172.227036 
L 417.737927 170.140123 
L 419.992691 167.719156 
L 422.247455 167.690326 
L 424.502218 169.043522 
L 426.756982 170.559816 
L 429.011745 171.558185 
L 431.266509 174.165729 
L 433.521273 178.399811 
L 433.521273 178.399811 
" clip-path="url(#pc3f98a2ac1)" style="fill: none; stroke: #8c564b; stroke-width: 1.2; stroke-linecap: round"/>
   </g>
   <g id="patch_8">
    <path d="M 78.396 187.262667 
L 78.396 119.509333 
" style="fill: none; stroke: #262626; stroke-linejoin: miter; stroke-linecap: square"/>
   </g>
   <g id="patch_9">
    <path d="M 450.432 187.262667 
L 450.432 119.509333 
" style="fill: none; stroke: #262626; stroke-linejoin: miter; stroke-linecap: square"/>
   </g>
   <g id="patch_10">
    <path d="M 78.396 187.262667 
L 450.432 187.262667 
" style="fill: none; stroke: #262626; stroke-linejoin: miter; stroke-linecap: square"/>
   </g>
   <g id="patch_11">
    <path d="M 78.396 119.509333 
L 450.432 119.509333 
" style="fill: none; stroke: #262626; stroke-linejoin: miter; stroke-linecap: square"/>
   </g>
  </g>
  <g id="axes_3">
   <g id="patch_12">
    <path d="M 78.396 296.404 
L 450.432 296.404 
L 450.432 228.650667 
L 78.396 228.650667 
L 78.396 296.404 
z
" style="fill: none"/>
   </g>
   <g id="matplotlib.axis_5">
    <g id="xtick_17">
     <g id="line2d_32">
      <g>
       <use xlink:href="#me2101799ee" x="95.306727" y="296.404" style="fill: #262626; stroke: #262626"/>
      </g>
     </g>
     <g id="text_25">
      <!-- 0 -->
      <g style="fill: #262626" transform="translate(92.507227 311.390625) scale(0.088 -0.088)">
       <use xlink:href="#DejaVuSans-30"/>
      </g>
     </g>
    </g>
    <g id="xtick_18">
     <g id="line2d_33">
      <g>
       <use xlink:href="#me2101799ee" x="140.402" y="296.404" style="fill: #262626; stroke: #262626"/>
      </g>
     </g>
     <g id="text_26">
      <!-- 20 -->
      <g style="fill: #262626" transform="translate(134.803 311.390625) scale(0.088 -0.088)">
       <use xlink:href="#DejaVuSans-32"/>
       <use xlink:href="#DejaVuSans-30" x="63.623047"/>
      </g>
     </g>
    </g>
    <g id="xtick_19">
     <g id="line2d_34">
      <g>
       <use xlink:href="#me2101799ee" x="185.497273" y="296.404" style="fill: #262626; stroke: #262626"/>
      </g>
     </g>
     <g id="text_27">
      <!-- 40 -->
      <g style="fill: #262626" transform="translate(179.898273 311.390625) scale(0.088 -0.088)">
       <use xlink:href="#DejaVuSans-34"/>
       <use xlink:href="#DejaVuSans-30" x="63.623047"/>
      </g>
     </g>
    </g>
    <g id="xtick_20">
     <g id="line2d_35">
      <g>
       <use xlink:href="#me2101799ee" x="230.592545" y="296.404" style="fill: #262626; stroke: #262626"/>
      </g>
     </g>
     <g id="text_28">
      <!-- 60 -->
      <g style="fill: #262626" transform="translate(224.993545 311.390625) scale(0.088 -0.088)">
       <use xlink:href="#DejaVuSans-36"/>
       <use xlink:href="#DejaVuSans-30" x="63.623047"/>
      </g>
     </g>
    </g>
    <g id="xtick_21">
     <g id="line2d_36">
      <g>
       <use xlink:href="#me2101799ee" x="275.687818" y="296.404" style="fill: #262626; stroke: #262626"/>
      </g>
     </g>
     <g id="text_29">
      <!-- 80 -->
      <g style="fill: #262626" transform="translate(270.088818 311.390625) scale(0.088 -0.088)">
       <use xlink:href="#DejaVuSans-38"/>
       <use xlink:href="#DejaVuSans-30" x="63.623047"/>
      </g>
     </g>
    </g>
    <g id="xtick_22">
     <g id="line2d_37">
      <g>
       <use xlink:href="#me2101799ee" x="320.783091" y="296.404" style="fill: #262626; stroke: #262626"/>
      </g>
     </g>
     <g id="text_30">
      <!-- 100 -->
      <g style="fill: #262626" transform="translate(312.384591 311.390625) scale(0.088 -0.088)">
       <use xlink:href="#DejaVuSans-31"/>
       <use xlink:href="#DejaVuSans-30" x="63.623047"/>
       <use xlink:href="#DejaVuSans-30" x="127.246094"/>
      </g>
     </g>
    </g>
    <g id="xtick_23">
     <g id="line2d_38">
      <g>
       <use xlink:href="#me2101799ee" x="365.878364" y="296.404" style="fill: #262626; stroke: #262626"/>
      </g>
     </g>
     <g id="text_31">
      <!-- 120 -->
      <g style="fill: #262626" transform="translate(357.479864 311.390625) scale(0.088 -0.088)">
       <use xlink:href="#DejaVuSans-31"/>
       <use xlink:href="#DejaVuSans-32" x="63.623047"/>
       <use xlink:href="#DejaVuSans-30" x="127.246094"/>
      </g>
     </g>
    </g>
    <g id="xtick_24">
     <g id="line2d_39">
      <g>
       <use xlink:href="#me2101799ee" x="410.973636" y="296.404" style="fill: #262626; stroke: #262626"/>
      </g>
     </g>
     <g id="text_32">
      <!-- 140 -->
      <g style="fill: #262626" transform="translate(402.575136 311.390625) scale(0.088 -0.088)">
       <use xlink:href="#DejaVuSans-31"/>
       <use xlink:href="#DejaVuSans-34" x="63.623047"/>
       <use xlink:href="#DejaVuSans-30" x="127.246094"/>
      </g>
     </g>
    </g>
   </g>
   <g id="matplotlib.axis_6">
    <g id="ytick_6">
     <g id="line2d_40">
      <g>
       <use xlink:href="#m536bc8c265" x="78.396" y="293.325273" style="fill: #262626; stroke: #262626"/>
      </g>
     </g>
     <g id="text_33">
      <!-- 0.00 -->
      <g style="fill: #262626" transform="translate(50.50225 296.668586) scale(0.088 -0.088)">
       <use xlink:href="#DejaVuSans-30"/>
       <use xlink:href="#DejaVuSans-2e" x="63.623047"/>
       <use xlink:href="#DejaVuSans-30" x="95.410156"/>
       <use xlink:href="#DejaVuSans-30" x="159.033203"/>
      </g>
     </g>
    </g>
    <g id="ytick_7">
     <g id="line2d_41">
      <g>
       <use xlink:href="#m536bc8c265" x="78.396" y="266.772144" style="fill: #262626; stroke: #262626"/>
      </g>
     </g>
     <g id="text_34">
      <!-- 0.01 -->
      <g style="fill: #262626" transform="translate(50.50225 270.115457) scale(0.088 -0.088)">
       <use xlink:href="#DejaVuSans-30"/>
       <use xlink:href="#DejaVuSans-2e" x="63.623047"/>
       <use xlink:href="#DejaVuSans-30" x="95.410156"/>
       <use xlink:href="#DejaVuSans-31" x="159.033203"/>
      </g>
     </g>
    </g>
    <g id="ytick_8">
     <g id="line2d_42">
      <g>
       <use xlink:href="#m536bc8c265" x="78.396" y="240.219015" style="fill: #262626; stroke: #262626"/>
      </g>
     </g>
     <g id="text_35">
      <!-- 0.02 -->
      <g style="fill: #262626" transform="translate(50.50225 243.562328) scale(0.088 -0.088)">
       <use xlink:href="#DejaVuSans-30"/>
       <use xlink:href="#DejaVuSans-2e" x="63.623047"/>
       <use xlink:href="#DejaVuSans-30" x="95.410156"/>
       <use xlink:href="#DejaVuSans-32" x="159.033203"/>
      </g>
     </g>
    </g>
    <g id="text_36">
     <!-- Shuffled -->
     <g style="fill: #262626" transform="translate(44.50575 282.372333) rotate(-90) scale(0.096 -0.096)">
      <defs>
       <path id="DejaVuSans-68" d="M 3513 2113 
L 3513 0 
L 2938 0 
L 2938 2094 
Q 2938 2591 2744 2837 
Q 2550 3084 2163 3084 
Q 1697 3084 1428 2787 
Q 1159 2491 1159 1978 
L 1159 0 
L 581 0 
L 581 4863 
L 1159 4863 
L 1159 2956 
Q 1366 3272 1645 3428 
Q 1925 3584 2291 3584 
Q 2894 3584 3203 3211 
Q 3513 2838 3513 2113 
z
" transform="scale(0.015625)"/>
       <path id="DejaVuSans-75" d="M 544 1381 
L 544 3500 
L 1119 3500 
L 1119 1403 
Q 1119 906 1312 657 
Q 1506 409 1894 409 
Q 2359 409 2629 706 
Q 2900 1003 2900 1516 
L 2900 3500 
L 3475 3500 
L 3475 0 
L 2900 0 
L 2900 538 
Q 2691 219 2414 64 
Q 2138 -91 1772 -91 
Q 1169 -91 856 284 
Q 544 659 544 1381 
z
M 1991 3584 
L 1991 3584 
z
" transform="scale(0.015625)"/>
       <path id="DejaVuSans-66" d="M 2375 4863 
L 2375 4384 
L 1825 4384 
Q 1516 4384 1395 4259 
Q 1275 4134 1275 3809 
L 1275 3500 
L 2222 3500 
L 2222 3053 
L 1275 3053 
L 1275 0 
L 697 0 
L 697 3053 
L 147 3053 
L 147 3500 
L 697 3500 
L 697 3744 
Q 697 4328 969 4595 
Q 1241 4863 1831 4863 
L 2375 4863 
z
" transform="scale(0.015625)"/>
       <path id="DejaVuSans-64" d="M 2906 2969 
L 2906 4863 
L 3481 4863 
L 3481 0 
L 2906 0 
L 2906 525 
Q 2725 213 2448 61 
Q 2172 -91 1784 -91 
Q 1150 -91 751 415 
Q 353 922 353 1747 
Q 353 2572 751 3078 
Q 1150 3584 1784 3584 
Q 2172 3584 2448 3432 
Q 2725 3281 2906 2969 
z
M 947 1747 
Q 947 1113 1208 752 
Q 1469 391 1925 391 
Q 2381 391 2643 752 
Q 2906 1113 2906 1747 
Q 2906 2381 2643 2742 
Q 2381 3103 1925 3103 
Q 1469 3103 1208 2742 
Q 947 2381 947 1747 
z
" transform="scale(0.015625)"/>
      </defs>
      <use xlink:href="#DejaVuSans-53"/>
      <use xlink:href="#DejaVuSans-68" x="63.476562"/>
      <use xlink:href="#DejaVuSans-75" x="126.855469"/>
      <use xlink:href="#DejaVuSans-66" x="190.234375"/>
      <use xlink:href="#DejaVuSans-66" x="225.439453"/>
      <use xlink:href="#DejaVuSans-6c" x="260.644531"/>
      <use xlink:href="#DejaVuSans-65" x="288.427734"/>
      <use xlink:href="#DejaVuSans-64" x="349.951172"/>
     </g>
    </g>
   </g>
   <g id="PolyCollection_11"/>
   <g id="PolyCollection_12"/>
   <g id="PolyCollection_13"/>
   <g id="PolyCollection_14"/>
   <g id="PolyCollection_15"/>
   <g id="line2d_43">
    <path d="M 95.306727 293.187787 
L 97.561491 293.203285 
L 99.816255 292.475911 
L 102.071018 290.582152 
L 104.325782 287.77054 
L 106.580545 285.888842 
L 108.835309 284.753213 
L 111.090073 282.951925 
L 113.344836 282.998661 
L 117.854364 278.950468 
L 120.109127 276.140862 
L 122.363891 272.078498 
L 124.618655 271.951388 
L 126.873418 271.027662 
L 129.128182 269.90081 
L 131.382945 266.732472 
L 133.637709 267.881781 
L 135.892473 262.98465 
L 138.147236 267.531445 
L 140.402 265.004268 
L 142.656764 264.782122 
L 144.911527 262.446014 
L 147.166291 261.751987 
L 149.421055 258.705196 
L 151.675818 260.589375 
L 156.185345 259.244247 
L 158.440109 255.902581 
L 160.694873 256.521824 
L 162.949636 260.168426 
L 165.2044 256.879167 
L 167.459164 256.015908 
L 169.713927 249.799995 
L 171.968691 248.304107 
L 174.223455 247.086408 
L 176.478218 242.879429 
L 178.732982 250.710006 
L 180.987745 252.883514 
L 183.242509 252.029748 
L 185.497273 257.421059 
L 187.752036 251.05495 
L 190.0068 256.483759 
L 192.261564 252.85701 
L 194.516327 253.393024 
L 196.771091 250.882112 
L 199.025855 247.97175 
L 201.280618 249.683951 
L 203.535382 243.898113 
L 205.790145 243.804405 
L 208.044909 248.350736 
L 210.299673 244.233553 
L 212.554436 242.89988 
L 214.8092 240.698901 
L 217.063964 231.730364 
L 219.318727 236.423218 
L 221.573491 232.746845 
L 223.828255 235.878934 
L 226.083018 236.844598 
L 230.592545 244.677727 
L 232.847309 245.951023 
L 235.102073 248.925168 
L 237.356836 248.77574 
L 239.6116 249.034912 
L 241.866364 253.160245 
L 244.121127 249.768633 
L 246.375891 247.487155 
L 248.630655 241.134894 
L 250.885418 241.911117 
L 253.140182 244.630635 
L 255.394945 248.57936 
L 257.649709 254.581953 
L 259.904473 252.61142 
L 262.159236 264.021944 
L 264.414 260.360956 
L 266.668764 263.330055 
L 268.923527 265.618079 
L 271.178291 268.965731 
L 273.433055 269.902177 
L 275.687818 268.128085 
L 277.942582 269.243087 
L 280.197345 273.028791 
L 282.452109 270.478423 
L 284.706873 276.350435 
L 286.961636 278.108354 
L 289.2164 281.223787 
L 291.471164 281.083942 
L 293.725927 282.339832 
L 295.980691 283.119608 
L 298.235455 282.956754 
L 300.490218 283.256486 
L 302.744982 285.466608 
L 304.999745 286.232421 
L 307.254509 287.857661 
L 309.509273 287.516123 
L 311.764036 288.912478 
L 314.0188 288.489124 
L 316.273564 289.561441 
L 318.528327 289.727379 
L 320.783091 290.020122 
L 323.037855 289.927401 
L 325.292618 290.141435 
L 327.547382 290.629136 
L 329.802145 290.179323 
L 332.056909 291.141984 
L 334.311673 291.715901 
L 336.566436 292.118362 
L 338.8212 292.267471 
L 341.075964 292.579598 
L 345.585491 292.577128 
L 347.840255 292.721809 
L 350.095018 292.682914 
L 352.349782 292.859841 
L 354.604545 292.814412 
L 356.859309 292.974217 
L 359.114073 293.007678 
L 361.368836 292.899789 
L 372.642655 293.134553 
L 388.426 293.226347 
L 433.521273 293.307577 
L 433.521273 293.307577 
" clip-path="url(#p62d909b022)" style="fill: none; stroke: #ff7f0e; stroke-width: 1.2; stroke-linecap: round"/>
   </g>
   <g id="line2d_44">
    <path d="M 95.306727 293.317304 
L 104.325782 293.237346 
L 111.090073 293.041506 
L 115.5996 292.783625 
L 120.109127 292.213364 
L 122.363891 291.686091 
L 124.618655 291.41687 
L 126.873418 290.735492 
L 129.128182 290.333464 
L 135.892473 287.088026 
L 138.147236 285.607489 
L 140.402 284.327665 
L 142.656764 283.324709 
L 144.911527 281.478389 
L 147.166291 283.447678 
L 149.421055 280.884888 
L 151.675818 281.202801 
L 156.185345 278.728021 
L 158.440109 275.256882 
L 160.694873 276.920783 
L 162.949636 271.918712 
L 165.2044 272.518489 
L 167.459164 267.986165 
L 169.713927 273.355077 
L 171.968691 270.535852 
L 174.223455 272.348899 
L 176.478218 270.391627 
L 178.732982 268.914321 
L 180.987745 269.552902 
L 183.242509 266.327557 
L 185.497273 258.487738 
L 187.752036 260.531991 
L 190.0068 258.38743 
L 192.261564 265.532687 
L 194.516327 268.284521 
L 196.771091 266.827243 
L 199.025855 266.38935 
L 201.280618 262.498924 
L 203.535382 259.427194 
L 208.044909 252.543269 
L 210.299673 250.882795 
L 212.554436 255.037755 
L 214.8092 255.074235 
L 217.063964 262.86322 
L 219.318727 256.591884 
L 221.573491 259.09255 
L 223.828255 258.874192 
L 226.083018 255.450615 
L 228.337782 253.287248 
L 230.592545 245.582084 
L 232.847309 247.69741 
L 235.102073 247.067498 
L 237.356836 243.384777 
L 239.6116 244.750285 
L 241.866364 246.376705 
L 244.121127 246.862837 
L 246.375891 245.357746 
L 248.630655 249.615864 
L 250.885418 250.923307 
L 253.140182 249.748681 
L 255.394945 254.90178 
L 257.649709 247.783853 
L 259.904473 255.942313 
L 262.159236 253.314374 
L 264.414 249.639951 
L 266.668764 254.559788 
L 268.923527 251.782337 
L 271.178291 255.030654 
L 273.433055 250.281308 
L 275.687818 248.256881 
L 277.942582 248.365457 
L 280.197345 250.597406 
L 282.452109 245.714124 
L 284.706873 244.4369 
L 286.961636 234.756097 
L 289.2164 243.102502 
L 291.471164 244.948797 
L 293.725927 249.485908 
L 295.980691 257.240363 
L 298.235455 254.374278 
L 300.490218 258.734837 
L 302.744982 259.568644 
L 304.999745 261.886962 
L 307.254509 263.911563 
L 309.509273 262.332841 
L 311.764036 263.174992 
L 314.0188 262.390931 
L 316.273564 266.116157 
L 318.528327 257.923826 
L 320.783091 265.559361 
L 323.037855 263.060667 
L 325.292618 264.815711 
L 327.547382 266.734503 
L 329.802145 270.259443 
L 332.056909 265.650261 
L 334.311673 268.063693 
L 336.566436 267.734702 
L 338.8212 268.511614 
L 341.075964 268.599113 
L 343.330727 272.797092 
L 345.585491 272.11948 
L 347.840255 273.947891 
L 350.095018 276.445443 
L 352.349782 276.828935 
L 354.604545 277.490058 
L 356.859309 277.89456 
L 359.114073 275.604342 
L 361.368836 276.520093 
L 363.6236 275.632208 
L 365.878364 279.513374 
L 368.133127 281.443439 
L 370.387891 282.085736 
L 372.642655 283.246172 
L 374.897418 282.285953 
L 377.152182 282.739842 
L 379.406945 281.782077 
L 381.661709 283.449744 
L 383.916473 283.123071 
L 386.171236 284.235701 
L 388.426 283.780533 
L 390.680764 284.597788 
L 392.935527 286.152727 
L 395.190291 284.350303 
L 397.445055 284.836028 
L 399.699818 286.227042 
L 401.954582 285.480252 
L 404.209345 285.753661 
L 406.464109 286.297236 
L 408.718873 285.282718 
L 413.2284 284.749969 
L 415.483164 284.750759 
L 417.737927 285.303443 
L 419.992691 284.193643 
L 422.247455 285.170713 
L 424.502218 284.579936 
L 426.756982 282.794391 
L 429.011745 283.01958 
L 431.266509 284.817425 
L 433.521273 288.457918 
L 433.521273 288.457918 
" clip-path="url(#p62d909b022)" style="fill: none; stroke: #2ca02c; stroke-width: 1.2; stroke-linecap: round"/>
   </g>
   <g id="line2d_45">
    <path d="M 95.306727 293.323712 
L 124.618655 293.233352 
L 138.147236 292.940716 
L 147.166291 292.470366 
L 151.675818 291.996503 
L 153.930582 292.070883 
L 158.440109 291.598695 
L 160.694873 291.560677 
L 165.2044 290.973765 
L 167.459164 290.877475 
L 169.713927 290.368699 
L 171.968691 290.401823 
L 176.478218 289.501304 
L 178.732982 289.544253 
L 183.242509 288.869925 
L 190.0068 288.320564 
L 192.261564 287.192971 
L 194.516327 286.811955 
L 196.771091 286.296602 
L 199.025855 286.318809 
L 203.535382 285.734717 
L 205.790145 286.272 
L 208.044909 286.590381 
L 210.299673 286.254357 
L 212.554436 285.312699 
L 214.8092 285.624894 
L 217.063964 284.752839 
L 219.318727 284.087863 
L 221.573491 284.273903 
L 223.828255 284.578794 
L 226.083018 282.726514 
L 228.337782 282.575516 
L 230.592545 281.977338 
L 232.847309 282.128269 
L 235.102073 281.623254 
L 237.356836 282.046121 
L 239.6116 280.763243 
L 241.866364 280.777127 
L 244.121127 281.390543 
L 246.375891 279.951066 
L 248.630655 277.902351 
L 250.885418 277.165961 
L 253.140182 277.24166 
L 255.394945 275.766309 
L 257.649709 275.990334 
L 259.904473 275.082572 
L 262.159236 276.142261 
L 264.414 276.025667 
L 266.668764 276.619384 
L 268.923527 277.354392 
L 273.433055 276.859805 
L 275.687818 275.581324 
L 277.942582 275.559121 
L 280.197345 274.092976 
L 282.452109 275.400384 
L 284.706873 274.045976 
L 286.961636 276.489878 
L 289.2164 276.894827 
L 291.471164 276.506027 
L 293.725927 275.15144 
L 295.980691 275.582097 
L 298.235455 274.833518 
L 300.490218 272.979291 
L 302.744982 272.566628 
L 304.999745 271.077332 
L 307.254509 272.813493 
L 309.509273 271.131629 
L 311.764036 272.165588 
L 314.0188 270.109302 
L 316.273564 269.719451 
L 318.528327 268.41838 
L 320.783091 270.517219 
L 323.037855 271.323893 
L 325.292618 273.803161 
L 327.547382 273.828972 
L 329.802145 271.967222 
L 332.056909 274.196039 
L 334.311673 275.33709 
L 336.566436 273.407785 
L 338.8212 274.600263 
L 341.075964 273.175525 
L 345.585491 274.315671 
L 347.840255 272.512471 
L 350.095018 273.775508 
L 352.349782 272.641022 
L 354.604545 273.772505 
L 356.859309 273.501803 
L 359.114073 273.493627 
L 361.368836 271.525241 
L 363.6236 271.625383 
L 365.878364 273.074379 
L 368.133127 272.753006 
L 370.387891 274.042124 
L 372.642655 272.691874 
L 374.897418 273.819388 
L 377.152182 275.35653 
L 379.406945 276.075832 
L 381.661709 277.086356 
L 383.916473 276.9277 
L 386.171236 276.30082 
L 388.426 277.132766 
L 390.680764 275.712313 
L 392.935527 275.011585 
L 395.190291 275.360809 
L 397.445055 276.027539 
L 399.699818 275.204382 
L 401.954582 276.567105 
L 404.209345 279.054495 
L 406.464109 278.378713 
L 408.718873 278.926096 
L 410.973636 278.77927 
L 413.2284 278.332511 
L 417.737927 278.045283 
L 419.992691 277.202636 
L 422.247455 278.479252 
L 424.502218 278.728166 
L 426.756982 278.32026 
L 429.011745 278.619637 
L 431.266509 276.886392 
L 433.521273 274.454916 
L 433.521273 274.454916 
" clip-path="url(#p62d909b022)" style="fill: none; stroke: #d62728; stroke-width: 1.2; stroke-linecap: round"/>
   </g>
   <g id="line2d_46">
    <path d="M 95.306727 293.323806 
L 183.242509 293.189291 
L 203.535382 293.074216 
L 210.299673 292.983981 
L 219.318727 292.908409 
L 226.083018 292.725709 
L 235.102073 292.395673 
L 241.866364 291.889988 
L 244.121127 292.064003 
L 246.375891 291.948957 
L 255.394945 291.844791 
L 257.649709 291.585415 
L 259.904473 291.208895 
L 262.159236 291.101858 
L 266.668764 290.557697 
L 271.178291 289.409825 
L 275.687818 289.512534 
L 277.942582 289.690766 
L 280.197345 288.859815 
L 282.452109 289.159903 
L 284.706873 288.860145 
L 286.961636 288.83967 
L 289.2164 288.046024 
L 291.471164 288.52835 
L 293.725927 288.031891 
L 295.980691 287.86302 
L 298.235455 286.926068 
L 300.490218 286.698974 
L 302.744982 285.659625 
L 304.999745 286.410065 
L 307.254509 285.567389 
L 309.509273 286.883062 
L 311.764036 286.133379 
L 314.0188 285.855692 
L 318.528327 286.830989 
L 320.783091 287.070024 
L 325.292618 284.622902 
L 327.547382 284.391209 
L 329.802145 283.090739 
L 332.056909 283.921234 
L 334.311673 283.728906 
L 338.8212 283.126522 
L 341.075964 283.715687 
L 343.330727 283.152473 
L 345.585491 283.018544 
L 347.840255 282.23786 
L 350.095018 283.536113 
L 352.349782 283.370265 
L 354.604545 283.741055 
L 356.859309 282.674836 
L 359.114073 283.383662 
L 361.368836 283.526874 
L 363.6236 282.755726 
L 365.878364 282.413557 
L 368.133127 280.428731 
L 370.387891 279.180874 
L 372.642655 279.849127 
L 374.897418 281.321719 
L 377.152182 280.69229 
L 381.661709 281.042107 
L 383.916473 279.531286 
L 386.171236 279.505867 
L 388.426 278.696487 
L 390.680764 279.648635 
L 392.935527 280.095017 
L 395.190291 280.086262 
L 397.445055 282.214256 
L 399.699818 281.035555 
L 401.954582 281.082784 
L 404.209345 279.132194 
L 406.464109 277.598316 
L 410.973636 279.246591 
L 413.2284 280.719637 
L 415.483164 280.995734 
L 417.737927 281.042179 
L 419.992691 281.227148 
L 422.247455 279.504909 
L 424.502218 279.827031 
L 426.756982 280.619338 
L 429.011745 280.960145 
L 431.266509 281.659455 
L 433.521273 279.840286 
L 433.521273 279.840286 
" clip-path="url(#p62d909b022)" style="fill: none; stroke: #9467bd; stroke-width: 1.2; stroke-linecap: round"/>
   </g>
   <g id="line2d_47">
    <path d="M 95.306727 293.324303 
L 174.223455 293.233693 
L 185.497273 293.163592 
L 201.280618 293.110531 
L 208.044909 292.877607 
L 210.299673 293.046217 
L 214.8092 293.008792 
L 228.337782 292.775367 
L 230.592545 292.550898 
L 237.356836 292.465429 
L 241.866364 292.076588 
L 244.121127 292.27089 
L 248.630655 292.236638 
L 255.394945 292.035597 
L 259.904473 291.400339 
L 262.159236 291.16811 
L 264.414 291.11247 
L 268.923527 290.242977 
L 273.433055 290.813811 
L 275.687818 290.250618 
L 277.942582 290.39772 
L 282.452109 289.960807 
L 284.706873 289.883183 
L 286.961636 290.399931 
L 291.471164 289.576548 
L 293.725927 289.553001 
L 295.980691 289.261593 
L 298.235455 289.212191 
L 300.490218 289.439298 
L 302.744982 288.910054 
L 307.254509 288.716143 
L 311.764036 288.029929 
L 314.0188 287.553747 
L 316.273564 288.776065 
L 318.528327 288.542543 
L 320.783091 288.514497 
L 323.037855 288.310748 
L 325.292618 287.939434 
L 329.802145 287.584094 
L 332.056909 287.579384 
L 334.311673 287.447364 
L 336.566436 287.161375 
L 338.8212 286.370788 
L 341.075964 286.084862 
L 343.330727 286.498638 
L 345.585491 285.838519 
L 347.840255 285.392557 
L 350.095018 285.640745 
L 352.349782 285.65154 
L 354.604545 284.540301 
L 356.859309 285.243889 
L 359.114073 285.442425 
L 361.368836 285.866436 
L 363.6236 285.283938 
L 365.878364 284.101351 
L 368.133127 283.22397 
L 370.387891 284.288422 
L 372.642655 283.37341 
L 374.897418 283.303979 
L 377.152182 283.852732 
L 379.406945 283.973783 
L 386.171236 283.727805 
L 388.426 283.0118 
L 392.935527 282.767532 
L 395.190291 283.224322 
L 397.445055 284.269186 
L 399.699818 283.78717 
L 401.954582 283.075608 
L 404.209345 283.865986 
L 406.464109 282.662153 
L 408.718873 281.962396 
L 410.973636 283.094328 
L 413.2284 282.825476 
L 415.483164 283.347273 
L 417.737927 282.014853 
L 419.992691 283.06202 
L 422.247455 281.541529 
L 424.502218 281.531878 
L 426.756982 282.163215 
L 429.011745 282.546763 
L 431.266509 283.688028 
L 433.521273 283.644404 
L 433.521273 283.644404 
" clip-path="url(#p62d909b022)" style="fill: none; stroke: #8c564b; stroke-width: 1.2; stroke-linecap: round"/>
   </g>
   <g id="patch_13">
    <path d="M 78.396 296.404 
L 78.396 228.650667 
" style="fill: none; stroke: #262626; stroke-linejoin: miter; stroke-linecap: square"/>
   </g>
   <g id="patch_14">
    <path d="M 450.432 296.404 
L 450.432 228.650667 
" style="fill: none; stroke: #262626; stroke-linejoin: miter; stroke-linecap: square"/>
   </g>
   <g id="patch_15">
    <path d="M 78.396 296.404 
L 450.432 296.404 
" style="fill: none; stroke: #262626; stroke-linejoin: miter; stroke-linecap: square"/>
   </g>
   <g id="patch_16">
    <path d="M 78.396 228.650667 
L 450.432 228.650667 
" style="fill: none; stroke: #262626; stroke-linejoin: miter; stroke-linecap: square"/>
   </g>
  </g>
  <g id="text_37">
   <!-- Probability -->
   <g style="fill: #262626" transform="translate(17.9694 203.2461) rotate(-90) scale(0.1152 -0.1152)">
    <defs>
     <path id="DejaVuSans-72" d="M 2631 2963 
Q 2534 3019 2420 3045 
Q 2306 3072 2169 3072 
Q 1681 3072 1420 2755 
Q 1159 2438 1159 1844 
L 1159 0 
L 581 0 
L 581 3500 
L 1159 3500 
L 1159 2956 
Q 1341 3275 1631 3429 
Q 1922 3584 2338 3584 
Q 2397 3584 2469 3576 
Q 2541 3569 2628 3553 
L 2631 2963 
z
" transform="scale(0.015625)"/>
     <path id="DejaVuSans-6f" d="M 1959 3097 
Q 1497 3097 1228 2736 
Q 959 2375 959 1747 
Q 959 1119 1226 758 
Q 1494 397 1959 397 
Q 2419 397 2687 759 
Q 2956 1122 2956 1747 
Q 2956 2369 2687 2733 
Q 2419 3097 1959 3097 
z
M 1959 3584 
Q 2709 3584 3137 3096 
Q 3566 2609 3566 1747 
Q 3566 888 3137 398 
Q 2709 -91 1959 -91 
Q 1206 -91 779 398 
Q 353 888 353 1747 
Q 353 2609 779 3096 
Q 1206 3584 1959 3584 
z
" transform="scale(0.015625)"/>
     <path id="DejaVuSans-62" d="M 3116 1747 
Q 3116 2381 2855 2742 
Q 2594 3103 2138 3103 
Q 1681 3103 1420 2742 
Q 1159 2381 1159 1747 
Q 1159 1113 1420 752 
Q 1681 391 2138 391 
Q 2594 391 2855 752 
Q 3116 1113 3116 1747 
z
M 1159 2969 
Q 1341 3281 1617 3432 
Q 1894 3584 2278 3584 
Q 2916 3584 3314 3078 
Q 3713 2572 3713 1747 
Q 3713 922 3314 415 
Q 2916 -91 2278 -91 
Q 1894 -91 1617 61 
Q 1341 213 1159 525 
L 1159 0 
L 581 0 
L 581 4863 
L 1159 4863 
L 1159 2969 
z
" transform="scale(0.015625)"/>
     <path id="DejaVuSans-69" d="M 603 3500 
L 1178 3500 
L 1178 0 
L 603 0 
L 603 3500 
z
M 603 4863 
L 1178 4863 
L 1178 4134 
L 603 4134 
L 603 4863 
z
" transform="scale(0.015625)"/>
     <path id="DejaVuSans-74" d="M 1172 4494 
L 1172 3500 
L 2356 3500 
L 2356 3053 
L 1172 3053 
L 1172 1153 
Q 1172 725 1289 603 
Q 1406 481 1766 481 
L 2356 481 
L 2356 0 
L 1766 0 
Q 1100 0 847 248 
Q 594 497 594 1153 
L 594 3053 
L 172 3053 
L 172 3500 
L 594 3500 
L 594 4494 
L 1172 4494 
z
" transform="scale(0.015625)"/>
     <path id="DejaVuSans-79" d="M 2059 -325 
Q 1816 -950 1584 -1140 
Q 1353 -1331 966 -1331 
L 506 -1331 
L 506 -850 
L 844 -850 
Q 1081 -850 1212 -737 
Q 1344 -625 1503 -206 
L 1606 56 
L 191 3500 
L 800 3500 
L 1894 763 
L 2988 3500 
L 3597 3500 
L 2059 -325 
z
" transform="scale(0.015625)"/>
    </defs>
    <use xlink:href="#DejaVuSans-50"/>
    <use xlink:href="#DejaVuSans-72" x="58.552734"/>
    <use xlink:href="#DejaVuSans-6f" x="97.416016"/>
    <use xlink:href="#DejaVuSans-62" x="158.597656"/>
    <use xlink:href="#DejaVuSans-61" x="222.074219"/>
    <use xlink:href="#DejaVuSans-62" x="283.353516"/>
    <use xlink:href="#DejaVuSans-69" x="346.830078"/>
    <use xlink:href="#DejaVuSans-6c" x="374.613281"/>
    <use xlink:href="#DejaVuSans-69" x="402.396484"/>
    <use xlink:href="#DejaVuSans-74" x="430.179688"/>
    <use xlink:href="#DejaVuSans-79" x="469.388672"/>
   </g>
  </g>
  <g id="text_38">
   <!-- Samples -->
   <g style="fill: #262626" transform="translate(205.8012 339.7482) scale(0.1152 -0.1152)">
    <use xlink:href="#DejaVuSans-53"/>
    <use xlink:href="#DejaVuSans-61" x="63.476562"/>
    <use xlink:href="#DejaVuSans-6d" x="124.755859"/>
    <use xlink:href="#DejaVuSans-70" x="222.167969"/>
    <use xlink:href="#DejaVuSans-6c" x="285.644531"/>
    <use xlink:href="#DejaVuSans-65" x="313.427734"/>
    <use xlink:href="#DejaVuSans-73" x="374.951172"/>
   </g>
  </g>
  <g id="legend_1">
   <g id="patch_17">
    <path d="M 370.853 71.62375 
L 454.64 71.62375 
Q 456.4 71.62375 456.4 69.86375 
L 456.4 6.16 
Q 456.4 4.4 454.64 4.4 
L 370.853 4.4 
Q 369.093 4.4 369.093 6.16 
L 369.093 69.86375 
Q 369.093 71.62375 370.853 71.62375 
z
" style="fill: #ffffff; opacity: 0.8; stroke: #cccccc; stroke-width: 0.8; stroke-linejoin: miter"/>
   </g>
   <g id="line2d_48">
    <path d="M 372.613 11.526625 
L 381.413 11.526625 
L 390.213 11.526625 
" style="fill: none; stroke: #ff7f0e; stroke-width: 1.2; stroke-linecap: round"/>
   </g>
   <g id="text_39">
    <!-- encoding -->
    <g style="fill: #262626" transform="translate(397.253 14.606625) scale(0.088 -0.088)">
     <defs>
      <path id="DejaVuSans-6e" d="M 3513 2113 
L 3513 0 
L 2938 0 
L 2938 2094 
Q 2938 2591 2744 2837 
Q 2550 3084 2163 3084 
Q 1697 3084 1428 2787 
Q 1159 2491 1159 1978 
L 1159 0 
L 581 0 
L 581 3500 
L 1159 3500 
L 1159 2956 
Q 1366 3272 1645 3428 
Q 1925 3584 2291 3584 
Q 2894 3584 3203 3211 
Q 3513 2838 3513 2113 
z
" transform="scale(0.015625)"/>
      <path id="DejaVuSans-63" d="M 3122 3366 
L 3122 2828 
Q 2878 2963 2633 3030 
Q 2388 3097 2138 3097 
Q 1578 3097 1268 2742 
Q 959 2388 959 1747 
Q 959 1106 1268 751 
Q 1578 397 2138 397 
Q 2388 397 2633 464 
Q 2878 531 3122 666 
L 3122 134 
Q 2881 22 2623 -34 
Q 2366 -91 2075 -91 
Q 1284 -91 818 406 
Q 353 903 353 1747 
Q 353 2603 823 3093 
Q 1294 3584 2113 3584 
Q 2378 3584 2631 3529 
Q 2884 3475 3122 3366 
z
" transform="scale(0.015625)"/>
      <path id="DejaVuSans-67" d="M 2906 1791 
Q 2906 2416 2648 2759 
Q 2391 3103 1925 3103 
Q 1463 3103 1205 2759 
Q 947 2416 947 1791 
Q 947 1169 1205 825 
Q 1463 481 1925 481 
Q 2391 481 2648 825 
Q 2906 1169 2906 1791 
z
M 3481 434 
Q 3481 -459 3084 -895 
Q 2688 -1331 1869 -1331 
Q 1566 -1331 1297 -1286 
Q 1028 -1241 775 -1147 
L 775 -588 
Q 1028 -725 1275 -790 
Q 1522 -856 1778 -856 
Q 2344 -856 2625 -561 
Q 2906 -266 2906 331 
L 2906 616 
Q 2728 306 2450 153 
Q 2172 0 1784 0 
Q 1141 0 747 490 
Q 353 981 353 1791 
Q 353 2603 747 3093 
Q 1141 3584 1784 3584 
Q 2172 3584 2450 3431 
Q 2728 3278 2906 2969 
L 2906 3500 
L 3481 3500 
L 3481 434 
z
" transform="scale(0.015625)"/>
     </defs>
     <use xlink:href="#DejaVuSans-65"/>
     <use xlink:href="#DejaVuSans-6e" x="61.523438"/>
     <use xlink:href="#DejaVuSans-63" x="124.902344"/>
     <use xlink:href="#DejaVuSans-6f" x="179.882812"/>
     <use xlink:href="#DejaVuSans-64" x="241.064453"/>
     <use xlink:href="#DejaVuSans-69" x="304.541016"/>
     <use xlink:href="#DejaVuSans-6e" x="332.324219"/>
     <use xlink:href="#DejaVuSans-67" x="395.703125"/>
    </g>
   </g>
   <g id="line2d_49">
    <path d="M 372.613 24.443375 
L 381.413 24.443375 
L 390.213 24.443375 
" style="fill: none; stroke: #2ca02c; stroke-width: 1.2; stroke-linecap: round"/>
   </g>
   <g id="text_40">
    <!-- n200 -->
    <g style="fill: #262626" transform="translate(397.253 27.523375) scale(0.088 -0.088)">
     <use xlink:href="#DejaVuSans-6e"/>
     <use xlink:href="#DejaVuSans-32" x="63.378906"/>
     <use xlink:href="#DejaVuSans-30" x="127.001953"/>
     <use xlink:href="#DejaVuSans-30" x="190.625"/>
    </g>
   </g>
   <g id="line2d_50">
    <path d="M 372.613 37.360125 
L 381.413 37.360125 
L 390.213 37.360125 
" style="fill: none; stroke: #d62728; stroke-width: 1.2; stroke-linecap: round"/>
   </g>
   <g id="text_41">
    <!-- decision -->
    <g style="fill: #262626" transform="translate(397.253 40.440125) scale(0.088 -0.088)">
     <use xlink:href="#DejaVuSans-64"/>
     <use xlink:href="#DejaVuSans-65" x="63.476562"/>
     <use xlink:href="#DejaVuSans-63" x="125"/>
     <use xlink:href="#DejaVuSans-69" x="179.980469"/>
     <use xlink:href="#DejaVuSans-73" x="207.763672"/>
     <use xlink:href="#DejaVuSans-69" x="259.863281"/>
     <use xlink:href="#DejaVuSans-6f" x="287.646484"/>
     <use xlink:href="#DejaVuSans-6e" x="348.828125"/>
    </g>
   </g>
   <g id="line2d_51">
    <path d="M 372.613 50.276875 
L 381.413 50.276875 
L 390.213 50.276875 
" style="fill: none; stroke: #9467bd; stroke-width: 1.2; stroke-linecap: round"/>
   </g>
   <g id="text_42">
    <!-- confirmation -->
    <g style="fill: #262626" transform="translate(397.253 53.356875) scale(0.088 -0.088)">
     <use xlink:href="#DejaVuSans-63"/>
     <use xlink:href="#DejaVuSans-6f" x="54.980469"/>
     <use xlink:href="#DejaVuSans-6e" x="116.162109"/>
     <use xlink:href="#DejaVuSans-66" x="179.541016"/>
     <use xlink:href="#DejaVuSans-69" x="214.746094"/>
     <use xlink:href="#DejaVuSans-72" x="242.529297"/>
     <use xlink:href="#DejaVuSans-6d" x="281.892578"/>
     <use xlink:href="#DejaVuSans-61" x="379.304688"/>
     <use xlink:href="#DejaVuSans-74" x="440.583984"/>
     <use xlink:href="#DejaVuSans-69" x="479.792969"/>
     <use xlink:href="#DejaVuSans-6f" x="507.576172"/>
     <use xlink:href="#DejaVuSans-6e" x="568.757812"/>
    </g>
   </g>
   <g id="line2d_52">
    <path d="M 372.613 63.193625 
L 381.413 63.193625 
L 390.213 63.193625 
" style="fill: none; stroke: #8c564b; stroke-width: 1.2; stroke-linecap: round"/>
   </g>
   <g id="text_43">
    <!-- response -->
    <g style="fill: #262626" transform="translate(397.253 66.273625) scale(0.088 -0.088)">
     <use xlink:href="#DejaVuSans-72"/>
     <use xlink:href="#DejaVuSans-65" x="38.863281"/>
     <use xlink:href="#DejaVuSans-73" x="100.386719"/>
     <use xlink:href="#DejaVuSans-70" x="152.486328"/>
     <use xlink:href="#DejaVuSans-6f" x="215.962891"/>
     <use xlink:href="#DejaVuSans-6e" x="277.144531"/>
     <use xlink:href="#DejaVuSans-73" x="340.523438"/>
     <use xlink:href="#DejaVuSans-65" x="392.623047"/>
    </g>
   </g>
  </g>
 </g>
 <defs>
  <clipPath id="p166a402beb">
   <rect x="78.396" y="10.368" width="372.036" height="67.753333"/>
  </clipPath>
  <clipPath id="pc3f98a2ac1">
   <rect x="78.396" y="119.509333" width="372.036" height="67.753333"/>
  </clipPath>
  <clipPath id="p62d909b022">
   <rect x="78.396" y="228.650667" width="372.036" height="67.753333"/>
  </clipPath>
 </defs>
</svg>
