<?xml version="1.0" encoding="utf-8" standalone="no"?>
<!DOCTYPE svg PUBLIC "-//W3C//DTD SVG 1.1//EN"
  "http://www.w3.org/Graphics/SVG/1.1/DTD/svg11.dtd">
<svg xmlns:xlink="http://www.w3.org/1999/xlink" width="432pt" height="144pt" viewBox="0 0 432 144" xmlns="http://www.w3.org/2000/svg" version="1.1">
 <metadata>
  <rdf:RDF xmlns:dc="http://purl.org/dc/elements/1.1/" xmlns:cc="http://creativecommons.org/ns#" xmlns:rdf="http://www.w3.org/1999/02/22-rdf-syntax-ns#">
   <cc:Work>
    <dc:type rdf:resource="http://purl.org/dc/dcmitype/StillImage"/>
    <dc:date>2024-11-14T14:05:19.694467</dc:date>
    <dc:format>image/svg+xml</dc:format>
    <dc:creator>
     <cc:Agent>
      <dc:title>Matplotlib v3.9.2, https://matplotlib.org/</dc:title>
     </cc:Agent>
    </dc:creator>
   </cc:Work>
  </rdf:RDF>
 </metadata>
 <defs>
  <style type="text/css">*{stroke-linejoin: round; stroke-linecap: butt}</style>
 </defs>
 <g id="figure_1">
  <g id="patch_1">
   <path d="M 0 144 
L 432 144 
L 432 0 
L 0 0 
L 0 144 
z
" style="fill: none"/>
  </g>
  <g id="axes_1">
   <g id="patch_2">
    <path d="M 45.078 102.612 
L 414.555048 102.612 
L 414.555048 10.368 
L 45.078 10.368 
L 45.078 102.612 
z
" style="fill: none"/>
   </g>
   <g id="matplotlib.axis_1">
    <g id="xtick_1">
     <g id="line2d_1">
      <defs>
       <path id="m4bab8ca81d" d="M 0 0 
L 0 4.8 
" style="stroke: #262626"/>
      </defs>
      <g>
       <use xlink:href="#m4bab8ca81d" x="61.872411" y="102.612" style="fill: #262626; stroke: #262626"/>
      </g>
     </g>
     <g id="text_1">
      <!-- 0 -->
      <g style="fill: #262626" transform="translate(59.072911 117.598625) scale(0.088 -0.088)">
       <defs>
        <path id="DejaVuSans-30" d="M 2034 4250 
Q 1547 4250 1301 3770 
Q 1056 3291 1056 2328 
Q 1056 1369 1301 889 
Q 1547 409 2034 409 
Q 2525 409 2770 889 
Q 3016 1369 3016 2328 
Q 3016 3291 2770 3770 
Q 2525 4250 2034 4250 
z
M 2034 4750 
Q 2819 4750 3233 4129 
Q 3647 3509 3647 2328 
Q 3647 1150 3233 529 
Q 2819 -91 2034 -91 
Q 1250 -91 836 529 
Q 422 1150 422 2328 
Q 422 3509 836 4129 
Q 1250 4750 2034 4750 
z
" transform="scale(0.015625)"/>
       </defs>
       <use xlink:href="#DejaVuSans-30"/>
      </g>
     </g>
    </g>
    <g id="xtick_2">
     <g id="line2d_2">
      <g>
       <use xlink:href="#m4bab8ca81d" x="105.779369" y="102.612" style="fill: #262626; stroke: #262626"/>
      </g>
     </g>
     <g id="text_2">
      <!-- 20 -->
      <g style="fill: #262626" transform="translate(100.180369 117.598625) scale(0.088 -0.088)">
       <defs>
        <path id="DejaVuSans-32" d="M 1228 531 
L 3431 531 
L 3431 0 
L 469 0 
L 469 531 
Q 828 903 1448 1529 
Q 2069 2156 2228 2338 
Q 2531 2678 2651 2914 
Q 2772 3150 2772 3378 
Q 2772 3750 2511 3984 
Q 2250 4219 1831 4219 
Q 1534 4219 1204 4116 
Q 875 4013 500 3803 
L 500 4441 
Q 881 4594 1212 4672 
Q 1544 4750 1819 4750 
Q 2544 4750 2975 4387 
Q 3406 4025 3406 3419 
Q 3406 3131 3298 2873 
Q 3191 2616 2906 2266 
Q 2828 2175 2409 1742 
Q 1991 1309 1228 531 
z
" transform="scale(0.015625)"/>
       </defs>
       <use xlink:href="#DejaVuSans-32"/>
       <use xlink:href="#DejaVuSans-30" x="63.623047"/>
      </g>
     </g>
    </g>
    <g id="xtick_3">
     <g id="line2d_3">
      <g>
       <use xlink:href="#m4bab8ca81d" x="149.686326" y="102.612" style="fill: #262626; stroke: #262626"/>
      </g>
     </g>
     <g id="text_3">
      <!-- 40 -->
      <g style="fill: #262626" transform="translate(144.087326 117.598625) scale(0.088 -0.088)">
       <defs>
        <path id="DejaVuSans-34" d="M 2419 4116 
L 825 1625 
L 2419 1625 
L 2419 4116 
z
M 2253 4666 
L 3047 4666 
L 3047 1625 
L 3713 1625 
L 3713 1100 
L 3047 1100 
L 3047 0 
L 2419 0 
L 2419 1100 
L 313 1100 
L 313 1709 
L 2253 4666 
z
" transform="scale(0.015625)"/>
       </defs>
       <use xlink:href="#DejaVuSans-34"/>
       <use xlink:href="#DejaVuSans-30" x="63.623047"/>
      </g>
     </g>
    </g>
    <g id="xtick_4">
     <g id="line2d_4">
      <g>
       <use xlink:href="#m4bab8ca81d" x="193.593284" y="102.612" style="fill: #262626; stroke: #262626"/>
      </g>
     </g>
     <g id="text_4">
      <!-- 60 -->
      <g style="fill: #262626" transform="translate(187.994284 117.598625) scale(0.088 -0.088)">
       <defs>
        <path id="DejaVuSans-36" d="M 2113 2584 
Q 1688 2584 1439 2293 
Q 1191 2003 1191 1497 
Q 1191 994 1439 701 
Q 1688 409 2113 409 
Q 2538 409 2786 701 
Q 3034 994 3034 1497 
Q 3034 2003 2786 2293 
Q 2538 2584 2113 2584 
z
M 3366 4563 
L 3366 3988 
Q 3128 4100 2886 4159 
Q 2644 4219 2406 4219 
Q 1781 4219 1451 3797 
Q 1122 3375 1075 2522 
Q 1259 2794 1537 2939 
Q 1816 3084 2150 3084 
Q 2853 3084 3261 2657 
Q 3669 2231 3669 1497 
Q 3669 778 3244 343 
Q 2819 -91 2113 -91 
Q 1303 -91 875 529 
Q 447 1150 447 2328 
Q 447 3434 972 4092 
Q 1497 4750 2381 4750 
Q 2619 4750 2861 4703 
Q 3103 4656 3366 4563 
z
" transform="scale(0.015625)"/>
       </defs>
       <use xlink:href="#DejaVuSans-36"/>
       <use xlink:href="#DejaVuSans-30" x="63.623047"/>
      </g>
     </g>
    </g>
    <g id="xtick_5">
     <g id="line2d_5">
      <g>
       <use xlink:href="#m4bab8ca81d" x="237.500242" y="102.612" style="fill: #262626; stroke: #262626"/>
      </g>
     </g>
     <g id="text_5">
      <!-- 80 -->
      <g style="fill: #262626" transform="translate(231.901242 117.598625) scale(0.088 -0.088)">
       <defs>
        <path id="DejaVuSans-38" d="M 2034 2216 
Q 1584 2216 1326 1975 
Q 1069 1734 1069 1313 
Q 1069 891 1326 650 
Q 1584 409 2034 409 
Q 2484 409 2743 651 
Q 3003 894 3003 1313 
Q 3003 1734 2745 1975 
Q 2488 2216 2034 2216 
z
M 1403 2484 
Q 997 2584 770 2862 
Q 544 3141 544 3541 
Q 544 4100 942 4425 
Q 1341 4750 2034 4750 
Q 2731 4750 3128 4425 
Q 3525 4100 3525 3541 
Q 3525 3141 3298 2862 
Q 3072 2584 2669 2484 
Q 3125 2378 3379 2068 
Q 3634 1759 3634 1313 
Q 3634 634 3220 271 
Q 2806 -91 2034 -91 
Q 1263 -91 848 271 
Q 434 634 434 1313 
Q 434 1759 690 2068 
Q 947 2378 1403 2484 
z
M 1172 3481 
Q 1172 3119 1398 2916 
Q 1625 2713 2034 2713 
Q 2441 2713 2670 2916 
Q 2900 3119 2900 3481 
Q 2900 3844 2670 4047 
Q 2441 4250 2034 4250 
Q 1625 4250 1398 4047 
Q 1172 3844 1172 3481 
z
" transform="scale(0.015625)"/>
       </defs>
       <use xlink:href="#DejaVuSans-38"/>
       <use xlink:href="#DejaVuSans-30" x="63.623047"/>
      </g>
     </g>
    </g>
    <g id="xtick_6">
     <g id="line2d_6">
      <g>
       <use xlink:href="#m4bab8ca81d" x="281.407199" y="102.612" style="fill: #262626; stroke: #262626"/>
      </g>
     </g>
     <g id="text_6">
      <!-- 100 -->
      <g style="fill: #262626" transform="translate(273.008699 117.598625) scale(0.088 -0.088)">
       <defs>
        <path id="DejaVuSans-31" d="M 794 531 
L 1825 531 
L 1825 4091 
L 703 3866 
L 703 4441 
L 1819 4666 
L 2450 4666 
L 2450 531 
L 3481 531 
L 3481 0 
L 794 0 
L 794 531 
z
" transform="scale(0.015625)"/>
       </defs>
       <use xlink:href="#DejaVuSans-31"/>
       <use xlink:href="#DejaVuSans-30" x="63.623047"/>
       <use xlink:href="#DejaVuSans-30" x="127.246094"/>
      </g>
     </g>
    </g>
    <g id="xtick_7">
     <g id="line2d_7">
      <g>
       <use xlink:href="#m4bab8ca81d" x="325.314157" y="102.612" style="fill: #262626; stroke: #262626"/>
      </g>
     </g>
     <g id="text_7">
      <!-- 120 -->
      <g style="fill: #262626" transform="translate(316.915657 117.598625) scale(0.088 -0.088)">
       <use xlink:href="#DejaVuSans-31"/>
       <use xlink:href="#DejaVuSans-32" x="63.623047"/>
       <use xlink:href="#DejaVuSans-30" x="127.246094"/>
      </g>
     </g>
    </g>
    <g id="xtick_8">
     <g id="line2d_8">
      <g>
       <use xlink:href="#m4bab8ca81d" x="369.221114" y="102.612" style="fill: #262626; stroke: #262626"/>
      </g>
     </g>
     <g id="text_8">
      <!-- 140 -->
      <g style="fill: #262626" transform="translate(360.822614 117.598625) scale(0.088 -0.088)">
       <use xlink:href="#DejaVuSans-31"/>
       <use xlink:href="#DejaVuSans-34" x="63.623047"/>
       <use xlink:href="#DejaVuSans-30" x="127.246094"/>
      </g>
     </g>
    </g>
    <g id="xtick_9">
     <g id="line2d_9">
      <g>
       <use xlink:href="#m4bab8ca81d" x="413.128072" y="102.612" style="fill: #262626; stroke: #262626"/>
      </g>
     </g>
     <g id="text_9">
      <!-- 160 -->
      <g style="fill: #262626" transform="translate(404.729572 117.598625) scale(0.088 -0.088)">
       <use xlink:href="#DejaVuSans-31"/>
       <use xlink:href="#DejaVuSans-36" x="63.623047"/>
       <use xlink:href="#DejaVuSans-30" x="127.246094"/>
      </g>
     </g>
    </g>
    <g id="text_10">
     <!-- Samples -->
     <g style="fill: #262626" transform="translate(209.317524 130.72325) scale(0.096 -0.096)">
      <defs>
       <path id="DejaVuSans-53" d="M 3425 4513 
L 3425 3897 
Q 3066 4069 2747 4153 
Q 2428 4238 2131 4238 
Q 1616 4238 1336 4038 
Q 1056 3838 1056 3469 
Q 1056 3159 1242 3001 
Q 1428 2844 1947 2747 
L 2328 2669 
Q 3034 2534 3370 2195 
Q 3706 1856 3706 1288 
Q 3706 609 3251 259 
Q 2797 -91 1919 -91 
Q 1588 -91 1214 -16 
Q 841 59 441 206 
L 441 856 
Q 825 641 1194 531 
Q 1563 422 1919 422 
Q 2459 422 2753 634 
Q 3047 847 3047 1241 
Q 3047 1584 2836 1778 
Q 2625 1972 2144 2069 
L 1759 2144 
Q 1053 2284 737 2584 
Q 422 2884 422 3419 
Q 422 4038 858 4394 
Q 1294 4750 2059 4750 
Q 2388 4750 2728 4690 
Q 3069 4631 3425 4513 
z
" transform="scale(0.015625)"/>
       <path id="DejaVuSans-61" d="M 2194 1759 
Q 1497 1759 1228 1600 
Q 959 1441 959 1056 
Q 959 750 1161 570 
Q 1363 391 1709 391 
Q 2188 391 2477 730 
Q 2766 1069 2766 1631 
L 2766 1759 
L 2194 1759 
z
M 3341 1997 
L 3341 0 
L 2766 0 
L 2766 531 
Q 2569 213 2275 61 
Q 1981 -91 1556 -91 
Q 1019 -91 701 211 
Q 384 513 384 1019 
Q 384 1609 779 1909 
Q 1175 2209 1959 2209 
L 2766 2209 
L 2766 2266 
Q 2766 2663 2505 2880 
Q 2244 3097 1772 3097 
Q 1472 3097 1187 3025 
Q 903 2953 641 2809 
L 641 3341 
Q 956 3463 1253 3523 
Q 1550 3584 1831 3584 
Q 2591 3584 2966 3190 
Q 3341 2797 3341 1997 
z
" transform="scale(0.015625)"/>
       <path id="DejaVuSans-6d" d="M 3328 2828 
Q 3544 3216 3844 3400 
Q 4144 3584 4550 3584 
Q 5097 3584 5394 3201 
Q 5691 2819 5691 2113 
L 5691 0 
L 5113 0 
L 5113 2094 
Q 5113 2597 4934 2840 
Q 4756 3084 4391 3084 
Q 3944 3084 3684 2787 
Q 3425 2491 3425 1978 
L 3425 0 
L 2847 0 
L 2847 2094 
Q 2847 2600 2669 2842 
Q 2491 3084 2119 3084 
Q 1678 3084 1418 2786 
Q 1159 2488 1159 1978 
L 1159 0 
L 581 0 
L 581 3500 
L 1159 3500 
L 1159 2956 
Q 1356 3278 1631 3431 
Q 1906 3584 2284 3584 
Q 2666 3584 2933 3390 
Q 3200 3197 3328 2828 
z
" transform="scale(0.015625)"/>
       <path id="DejaVuSans-70" d="M 1159 525 
L 1159 -1331 
L 581 -1331 
L 581 3500 
L 1159 3500 
L 1159 2969 
Q 1341 3281 1617 3432 
Q 1894 3584 2278 3584 
Q 2916 3584 3314 3078 
Q 3713 2572 3713 1747 
Q 3713 922 3314 415 
Q 2916 -91 2278 -91 
Q 1894 -91 1617 61 
Q 1341 213 1159 525 
z
M 3116 1747 
Q 3116 2381 2855 2742 
Q 2594 3103 2138 3103 
Q 1681 3103 1420 2742 
Q 1159 2381 1159 1747 
Q 1159 1113 1420 752 
Q 1681 391 2138 391 
Q 2594 391 2855 752 
Q 3116 1113 3116 1747 
z
" transform="scale(0.015625)"/>
       <path id="DejaVuSans-6c" d="M 603 4863 
L 1178 4863 
L 1178 0 
L 603 0 
L 603 4863 
z
" transform="scale(0.015625)"/>
       <path id="DejaVuSans-65" d="M 3597 1894 
L 3597 1613 
L 953 1613 
Q 991 1019 1311 708 
Q 1631 397 2203 397 
Q 2534 397 2845 478 
Q 3156 559 3463 722 
L 3463 178 
Q 3153 47 2828 -22 
Q 2503 -91 2169 -91 
Q 1331 -91 842 396 
Q 353 884 353 1716 
Q 353 2575 817 3079 
Q 1281 3584 2069 3584 
Q 2775 3584 3186 3129 
Q 3597 2675 3597 1894 
z
M 3022 2063 
Q 3016 2534 2758 2815 
Q 2500 3097 2075 3097 
Q 1594 3097 1305 2825 
Q 1016 2553 972 2059 
L 3022 2063 
z
" transform="scale(0.015625)"/>
       <path id="DejaVuSans-73" d="M 2834 3397 
L 2834 2853 
Q 2591 2978 2328 3040 
Q 2066 3103 1784 3103 
Q 1356 3103 1142 2972 
Q 928 2841 928 2578 
Q 928 2378 1081 2264 
Q 1234 2150 1697 2047 
L 1894 2003 
Q 2506 1872 2764 1633 
Q 3022 1394 3022 966 
Q 3022 478 2636 193 
Q 2250 -91 1575 -91 
Q 1294 -91 989 -36 
Q 684 19 347 128 
L 347 722 
Q 666 556 975 473 
Q 1284 391 1588 391 
Q 1994 391 2212 530 
Q 2431 669 2431 922 
Q 2431 1156 2273 1281 
Q 2116 1406 1581 1522 
L 1381 1569 
Q 847 1681 609 1914 
Q 372 2147 372 2553 
Q 372 3047 722 3315 
Q 1072 3584 1716 3584 
Q 2034 3584 2315 3537 
Q 2597 3491 2834 3397 
z
" transform="scale(0.015625)"/>
      </defs>
      <use xlink:href="#DejaVuSans-53"/>
      <use xlink:href="#DejaVuSans-61" x="63.476562"/>
      <use xlink:href="#DejaVuSans-6d" x="124.755859"/>
      <use xlink:href="#DejaVuSans-70" x="222.167969"/>
      <use xlink:href="#DejaVuSans-6c" x="285.644531"/>
      <use xlink:href="#DejaVuSans-65" x="313.427734"/>
      <use xlink:href="#DejaVuSans-73" x="374.951172"/>
     </g>
    </g>
   </g>
   <g id="matplotlib.axis_2">
    <g id="ytick_1">
     <g id="line2d_10">
      <defs>
       <path id="m2f68022c7e" d="M 0 0 
L -4.8 0 
" style="stroke: #262626"/>
      </defs>
      <g>
       <use xlink:href="#m2f68022c7e" x="45.078" y="87.384035" style="fill: #262626; stroke: #262626"/>
      </g>
     </g>
     <g id="text_11">
      <!-- −5 -->
      <g style="fill: #262626" transform="translate(23.804875 90.727348) scale(0.088 -0.088)">
       <defs>
        <path id="DejaVuSans-2212" d="M 678 2272 
L 4684 2272 
L 4684 1741 
L 678 1741 
L 678 2272 
z
" transform="scale(0.015625)"/>
        <path id="DejaVuSans-35" d="M 691 4666 
L 3169 4666 
L 3169 4134 
L 1269 4134 
L 1269 2991 
Q 1406 3038 1543 3061 
Q 1681 3084 1819 3084 
Q 2600 3084 3056 2656 
Q 3513 2228 3513 1497 
Q 3513 744 3044 326 
Q 2575 -91 1722 -91 
Q 1428 -91 1123 -41 
Q 819 9 494 109 
L 494 744 
Q 775 591 1075 516 
Q 1375 441 1709 441 
Q 2250 441 2565 725 
Q 2881 1009 2881 1497 
Q 2881 1984 2565 2268 
Q 2250 2553 1709 2553 
Q 1456 2553 1204 2497 
Q 953 2441 691 2322 
L 691 4666 
z
" transform="scale(0.015625)"/>
       </defs>
       <use xlink:href="#DejaVuSans-2212"/>
       <use xlink:href="#DejaVuSans-35" x="83.789062"/>
      </g>
     </g>
    </g>
    <g id="ytick_2">
     <g id="line2d_11">
      <g>
       <use xlink:href="#m2f68022c7e" x="45.078" y="57.017088" style="fill: #262626; stroke: #262626"/>
      </g>
     </g>
     <g id="text_12">
      <!-- 0 -->
      <g style="fill: #262626" transform="translate(31.179 60.360401) scale(0.088 -0.088)">
       <use xlink:href="#DejaVuSans-30"/>
      </g>
     </g>
    </g>
    <g id="ytick_3">
     <g id="line2d_12">
      <g>
       <use xlink:href="#m2f68022c7e" x="45.078" y="26.650141" style="fill: #262626; stroke: #262626"/>
      </g>
     </g>
     <g id="text_13">
      <!-- 5 -->
      <g style="fill: #262626" transform="translate(31.179 29.993454) scale(0.088 -0.088)">
       <use xlink:href="#DejaVuSans-35"/>
      </g>
     </g>
    </g>
    <g id="text_14">
     <!-- Normalized EEG -->
     <g style="fill: #262626" transform="translate(17.808375 95.022) rotate(-90) scale(0.096 -0.096)">
      <defs>
       <path id="DejaVuSans-4e" d="M 628 4666 
L 1478 4666 
L 3547 763 
L 3547 4666 
L 4159 4666 
L 4159 0 
L 3309 0 
L 1241 3903 
L 1241 0 
L 628 0 
L 628 4666 
z
" transform="scale(0.015625)"/>
       <path id="DejaVuSans-6f" d="M 1959 3097 
Q 1497 3097 1228 2736 
Q 959 2375 959 1747 
Q 959 1119 1226 758 
Q 1494 397 1959 397 
Q 2419 397 2687 759 
Q 2956 1122 2956 1747 
Q 2956 2369 2687 2733 
Q 2419 3097 1959 3097 
z
M 1959 3584 
Q 2709 3584 3137 3096 
Q 3566 2609 3566 1747 
Q 3566 888 3137 398 
Q 2709 -91 1959 -91 
Q 1206 -91 779 398 
Q 353 888 353 1747 
Q 353 2609 779 3096 
Q 1206 3584 1959 3584 
z
" transform="scale(0.015625)"/>
       <path id="DejaVuSans-72" d="M 2631 2963 
Q 2534 3019 2420 3045 
Q 2306 3072 2169 3072 
Q 1681 3072 1420 2755 
Q 1159 2438 1159 1844 
L 1159 0 
L 581 0 
L 581 3500 
L 1159 3500 
L 1159 2956 
Q 1341 3275 1631 3429 
Q 1922 3584 2338 3584 
Q 2397 3584 2469 3576 
Q 2541 3569 2628 3553 
L 2631 2963 
z
" transform="scale(0.015625)"/>
       <path id="DejaVuSans-69" d="M 603 3500 
L 1178 3500 
L 1178 0 
L 603 0 
L 603 3500 
z
M 603 4863 
L 1178 4863 
L 1178 4134 
L 603 4134 
L 603 4863 
z
" transform="scale(0.015625)"/>
       <path id="DejaVuSans-7a" d="M 353 3500 
L 3084 3500 
L 3084 2975 
L 922 459 
L 3084 459 
L 3084 0 
L 275 0 
L 275 525 
L 2438 3041 
L 353 3041 
L 353 3500 
z
" transform="scale(0.015625)"/>
       <path id="DejaVuSans-64" d="M 2906 2969 
L 2906 4863 
L 3481 4863 
L 3481 0 
L 2906 0 
L 2906 525 
Q 2725 213 2448 61 
Q 2172 -91 1784 -91 
Q 1150 -91 751 415 
Q 353 922 353 1747 
Q 353 2572 751 3078 
Q 1150 3584 1784 3584 
Q 2172 3584 2448 3432 
Q 2725 3281 2906 2969 
z
M 947 1747 
Q 947 1113 1208 752 
Q 1469 391 1925 391 
Q 2381 391 2643 752 
Q 2906 1113 2906 1747 
Q 2906 2381 2643 2742 
Q 2381 3103 1925 3103 
Q 1469 3103 1208 2742 
Q 947 2381 947 1747 
z
" transform="scale(0.015625)"/>
       <path id="DejaVuSans-20" transform="scale(0.015625)"/>
       <path id="DejaVuSans-45" d="M 628 4666 
L 3578 4666 
L 3578 4134 
L 1259 4134 
L 1259 2753 
L 3481 2753 
L 3481 2222 
L 1259 2222 
L 1259 531 
L 3634 531 
L 3634 0 
L 628 0 
L 628 4666 
z
" transform="scale(0.015625)"/>
       <path id="DejaVuSans-47" d="M 3809 666 
L 3809 1919 
L 2778 1919 
L 2778 2438 
L 4434 2438 
L 4434 434 
Q 4069 175 3628 42 
Q 3188 -91 2688 -91 
Q 1594 -91 976 548 
Q 359 1188 359 2328 
Q 359 3472 976 4111 
Q 1594 4750 2688 4750 
Q 3144 4750 3555 4637 
Q 3966 4525 4313 4306 
L 4313 3634 
Q 3963 3931 3569 4081 
Q 3175 4231 2741 4231 
Q 1884 4231 1454 3753 
Q 1025 3275 1025 2328 
Q 1025 1384 1454 906 
Q 1884 428 2741 428 
Q 3075 428 3337 486 
Q 3600 544 3809 666 
z
" transform="scale(0.015625)"/>
      </defs>
      <use xlink:href="#DejaVuSans-4e"/>
      <use xlink:href="#DejaVuSans-6f" x="74.804688"/>
      <use xlink:href="#DejaVuSans-72" x="135.986328"/>
      <use xlink:href="#DejaVuSans-6d" x="175.349609"/>
      <use xlink:href="#DejaVuSans-61" x="272.761719"/>
      <use xlink:href="#DejaVuSans-6c" x="334.041016"/>
      <use xlink:href="#DejaVuSans-69" x="361.824219"/>
      <use xlink:href="#DejaVuSans-7a" x="389.607422"/>
      <use xlink:href="#DejaVuSans-65" x="442.097656"/>
      <use xlink:href="#DejaVuSans-64" x="503.621094"/>
      <use xlink:href="#DejaVuSans-20" x="567.097656"/>
      <use xlink:href="#DejaVuSans-45" x="598.884766"/>
      <use xlink:href="#DejaVuSans-45" x="662.068359"/>
      <use xlink:href="#DejaVuSans-47" x="725.251953"/>
     </g>
    </g>
   </g>
   <g id="PolyCollection_1"/>
   <g id="PolyCollection_2"/>
   <g id="PolyCollection_3"/>
   <g id="PolyCollection_4"/>
   <g id="PolyCollection_5"/>
   <g id="PolyCollection_6"/>
   <g id="PolyCollection_7"/>
   <g id="PolyCollection_8"/>
   <g id="PolyCollection_9"/>
   <g id="PolyCollection_10"/>
   <g id="PolyCollection_11"/>
   <g id="PolyCollection_12"/>
   <g id="PolyCollection_13"/>
   <g id="PolyCollection_14"/>
   <g id="PolyCollection_15"/>
   <g id="PolyCollection_16"/>
   <g id="PolyCollection_17"/>
   <g id="PolyCollection_18"/>
   <g id="PolyCollection_19"/>
   <g id="line2d_13">
    <path d="M 61.872411 43.811344 
L 64.067759 42.032484 
L 66.263107 42.569449 
L 68.458455 47.410882 
L 70.653803 47.381045 
L 72.849151 42.740139 
L 75.044499 41.942861 
L 77.239846 41.589509 
L 79.435194 42.062318 
L 81.630542 44.825482 
L 83.82589 43.365475 
L 86.021238 39.536848 
L 88.216586 39.318254 
L 92.607282 46.344098 
L 94.802629 46.731576 
L 96.997977 46.71298 
L 99.193325 46.937388 
L 101.388673 46.046139 
L 103.584021 44.652373 
L 105.779369 44.969589 
L 107.974717 50.298224 
L 110.170065 51.811866 
L 112.365413 46.317705 
L 114.56076 49.128038 
L 116.756108 54.300106 
L 118.951456 50.067554 
L 121.146804 47.713989 
L 123.342152 46.868495 
L 125.5375 43.000132 
L 127.732848 42.792217 
L 129.928196 42.252642 
L 132.123543 39.798845 
L 134.318891 40.664766 
L 136.514239 44.396908 
L 138.709587 48.427714 
L 140.904935 45.142045 
L 143.100283 37.359829 
L 145.295631 38.567844 
L 147.490979 43.488369 
L 149.686326 41.468695 
L 151.881674 36.805644 
L 156.27237 34.054341 
L 158.467718 29.472006 
L 160.663066 30.986696 
L 162.858414 39.082469 
L 165.053762 41.436395 
L 167.249109 41.942292 
L 169.444457 44.102543 
L 171.639805 42.991298 
L 173.835153 44.555181 
L 176.030501 47.104825 
L 180.421197 40.292386 
L 182.616545 41.29676 
L 184.811893 46.235556 
L 187.00724 50.081433 
L 189.202588 50.544162 
L 191.397936 51.975126 
L 193.593284 50.813078 
L 195.788632 50.793696 
L 197.98398 58.41176 
L 200.179328 58.788244 
L 202.374676 52.166701 
L 204.570023 53.768879 
L 206.765371 55.046031 
L 208.960719 52.18111 
L 211.156067 54.701009 
L 213.351415 59.460058 
L 215.546763 63.202459 
L 217.742111 65.964628 
L 219.937459 67.595049 
L 222.132806 73.335407 
L 224.328154 80.701805 
L 226.523502 81.659497 
L 228.71885 77.583131 
L 230.914198 76.755898 
L 233.109546 81.786757 
L 235.304894 83.153724 
L 237.500242 80.964863 
L 239.69559 84.707941 
L 241.890937 85.808448 
L 244.086285 83.116272 
L 248.476981 96.554522 
L 250.672329 97.073743 
L 252.867677 98.419091 
L 255.063025 94.711734 
L 257.258373 88.772198 
L 259.45372 90.617361 
L 261.649068 91.066913 
L 263.844416 86.016084 
L 266.039764 82.191762 
L 268.235112 80.108959 
L 270.43046 80.087089 
L 272.625808 77.146671 
L 274.821156 68.025257 
L 277.016503 66.607213 
L 279.211851 74.311841 
L 281.407199 74.258363 
L 283.602547 69.595607 
L 285.797895 69.415304 
L 287.993243 67.044946 
L 290.188591 67.467032 
L 292.383939 74.911602 
L 294.579287 74.25792 
L 296.774634 68.351231 
L 298.969982 68.016096 
L 301.16533 65.349075 
L 303.360678 63.967862 
L 305.556026 67.964764 
L 307.751374 65.73062 
L 309.946722 62.811658 
L 312.14207 65.079833 
L 314.337417 64.406168 
L 316.532765 65.231785 
L 318.728113 69.047831 
L 323.118809 69.226379 
L 325.314157 72.069511 
L 327.509505 75.404167 
L 329.704853 75.643404 
L 331.9002 73.560329 
L 334.095548 75.826867 
L 336.290896 76.656518 
L 338.486244 72.091753 
L 340.681592 73.361119 
L 342.87694 78.100632 
L 345.072288 77.937421 
L 351.658331 73.692705 
L 353.853679 72.174754 
L 356.049027 68.778307 
L 358.244375 70.140598 
L 360.439723 74.294837 
L 362.635071 71.013455 
L 364.830419 67.406931 
L 367.025767 68.321378 
L 369.221114 65.7744 
L 371.416462 64.778558 
L 373.61181 68.879101 
L 375.807158 69.466985 
L 378.002506 71.607342 
L 380.197854 79.51688 
L 382.393202 80.973144 
L 384.58855 77.747045 
L 386.783897 81.342656 
L 388.979245 83.730634 
L 391.174593 77.089067 
L 393.369941 72.779723 
L 395.565289 73.701865 
L 397.760637 69.180325 
L 397.760637 69.180325 
" clip-path="url(#pcacbeaccb6)" style="fill: none; stroke: #4477aa; stroke-width: 1.2; stroke-linecap: round"/>
   </g>
   <g id="line2d_14">
    <path d="M 61.872411 45.843752 
L 64.067759 42.428454 
L 66.263107 41.782344 
L 68.458455 48.780964 
L 70.653803 48.294194 
L 72.849151 40.074755 
L 75.044499 38.430074 
L 77.239846 40.263009 
L 79.435194 39.463304 
L 81.630542 39.907544 
L 83.82589 41.759509 
L 86.021238 40.35689 
L 88.216586 38.301368 
L 90.411934 40.952087 
L 92.607282 42.435636 
L 94.802629 40.204319 
L 96.997977 39.859045 
L 101.388673 38.67699 
L 103.584021 39.553609 
L 105.779369 40.77152 
L 107.974717 46.787857 
L 110.170065 49.563745 
L 112.365413 45.329153 
L 114.56076 47.948596 
L 116.756108 51.054257 
L 118.951456 47.895847 
L 121.146804 46.807814 
L 123.342152 42.520495 
L 125.5375 38.820187 
L 127.732848 42.469583 
L 129.928196 41.432573 
L 132.123543 38.701815 
L 134.318891 42.6125 
L 136.514239 48.445682 
L 138.709587 52.681009 
L 140.904935 46.879181 
L 143.100283 36.477662 
L 145.295631 39.06731 
L 147.490979 44.187746 
L 149.686326 38.994155 
L 151.881674 34.247962 
L 154.077022 34.936524 
L 156.27237 33.263376 
L 158.467718 28.26755 
L 160.663066 29.432684 
L 162.858414 34.837154 
L 165.053762 35.160596 
L 167.249109 36.809657 
L 169.444457 39.776401 
L 171.639805 38.561574 
L 173.835153 42.683176 
L 176.030501 47.074555 
L 178.225849 40.145803 
L 180.421197 31.57058 
L 182.616545 30.10514 
L 184.811893 35.766411 
L 187.00724 42.596996 
L 189.202588 45.318155 
L 191.397936 48.939047 
L 193.593284 49.902837 
L 195.788632 48.581427 
L 197.98398 55.640032 
L 200.179328 58.763601 
L 202.374676 52.28268 
L 204.570023 52.321629 
L 206.765371 52.977903 
L 208.960719 47.484131 
L 211.156067 48.421234 
L 213.351415 55.262792 
L 215.546763 60.361906 
L 217.742111 64.075455 
L 219.937459 67.194493 
L 222.132806 71.531842 
L 224.328154 76.125724 
L 226.523502 75.589124 
L 228.71885 70.932028 
L 230.914198 70.962976 
L 233.109546 75.897197 
L 235.304894 75.114024 
L 237.500242 73.394544 
L 239.69559 80.119114 
L 241.890937 82.014862 
L 244.086285 78.47873 
L 248.476981 93.023216 
L 250.672329 92.561322 
L 252.867677 95.689473 
L 255.063025 94.537495 
L 257.258373 85.927695 
L 259.45372 85.680751 
L 261.649068 87.396199 
L 263.844416 81.373626 
L 266.039764 78.295495 
L 268.235112 80.969945 
L 270.43046 83.414024 
L 272.625808 79.249113 
L 274.821156 67.501359 
L 277.016503 65.299796 
L 279.211851 73.555869 
L 281.407199 71.962761 
L 283.602547 67.467651 
L 285.797895 68.510867 
L 287.993243 64.255308 
L 290.188591 65.310567 
L 292.383939 74.545734 
L 294.579287 72.223196 
L 296.774634 67.708215 
L 298.969982 69.884308 
L 301.16533 64.279312 
L 303.360678 59.772075 
L 305.556026 63.546102 
L 307.751374 61.870983 
L 309.946722 59.623572 
L 312.14207 60.970845 
L 314.337417 59.220931 
L 316.532765 61.903971 
L 318.728113 68.538258 
L 320.923461 68.682459 
L 323.118809 66.030649 
L 325.314157 67.565436 
L 327.509505 72.116202 
L 329.704853 73.462053 
L 331.9002 72.195429 
L 334.095548 73.683814 
L 336.290896 71.720139 
L 338.486244 66.031194 
L 340.681592 67.392412 
L 342.87694 72.024115 
L 345.072288 72.193229 
L 347.267636 70.662766 
L 349.462983 69.971439 
L 351.658331 68.361226 
L 353.853679 63.203357 
L 356.049027 60.243646 
L 358.244375 66.107608 
L 360.439723 70.994111 
L 362.635071 67.994626 
L 364.830419 65.406915 
L 367.025767 64.549431 
L 369.221114 63.03632 
L 373.61181 67.176017 
L 375.807158 66.094691 
L 378.002506 70.800859 
L 380.197854 78.619491 
L 382.393202 78.893053 
L 384.58855 76.679724 
L 386.783897 79.61991 
L 388.979245 81.660427 
L 391.174593 75.285742 
L 393.369941 68.207333 
L 395.565289 68.982948 
L 397.760637 66.282877 
L 397.760637 66.282877 
" clip-path="url(#pcacbeaccb6)" style="fill: none; stroke: #66ccee; stroke-width: 1.2; stroke-linecap: round"/>
   </g>
   <g id="line2d_15">
    <path d="M 61.872411 45.691351 
L 64.067759 49.110091 
L 66.263107 52.268176 
L 68.458455 49.540357 
L 70.653803 45.142791 
L 72.849151 42.608363 
L 75.044499 43.490056 
L 77.239846 44.688151 
L 79.435194 46.025411 
L 81.630542 47.77382 
L 83.82589 45.226892 
L 86.021238 40.845418 
L 88.216586 40.56915 
L 90.411934 44.682899 
L 92.607282 50.744452 
L 94.802629 54.86816 
L 96.997977 57.845406 
L 99.193325 61.605275 
L 101.388673 62.582054 
L 103.584021 62.637732 
L 105.779369 62.96885 
L 107.974717 57.080697 
L 110.170065 51.72466 
L 112.365413 56.582987 
L 114.56076 59.941523 
L 116.756108 56.061768 
L 118.951456 56.300904 
L 121.146804 58.580365 
L 123.342152 57.28608 
L 127.732848 60.930367 
L 129.928196 56.786736 
L 132.123543 55.416259 
L 134.318891 58.503603 
L 136.514239 60.643428 
L 138.709587 63.05893 
L 140.904935 61.886618 
L 143.100283 57.157188 
L 145.295631 58.498293 
L 147.490979 61.722142 
L 149.686326 60.833354 
L 151.881674 61.87823 
L 154.077022 62.44508 
L 156.27237 58.590431 
L 158.467718 56.345262 
L 160.663066 58.852055 
L 162.858414 63.576468 
L 165.053762 64.491925 
L 167.249109 61.375998 
L 169.444457 61.367186 
L 171.639805 60.479634 
L 173.835153 54.396817 
L 176.030501 52.689476 
L 178.225849 58.028273 
L 180.421197 62.329886 
L 182.616545 63.726592 
L 184.811893 66.559473 
L 187.00724 69.972926 
L 189.202588 69.682944 
L 191.397936 68.334 
L 193.593284 68.531293 
L 197.98398 67.195702 
L 200.179328 68.297624 
L 202.374676 71.300116 
L 204.570023 72.887544 
L 206.765371 71.328452 
L 208.960719 72.424501 
L 211.156067 75.460046 
L 213.351415 76.982004 
L 215.546763 80.378091 
L 217.742111 81.46225 
L 219.937459 80.235386 
L 222.132806 84.13605 
L 224.328154 86.361223 
L 226.523502 83.126188 
L 228.71885 80.600489 
L 230.914198 80.013864 
L 233.109546 83.646768 
L 235.304894 87.837424 
L 237.500242 86.511787 
L 241.890937 82.930087 
L 244.086285 80.686535 
L 248.476981 84.843342 
L 250.672329 84.165572 
L 252.867677 85.224052 
L 255.063025 85.62465 
L 259.45372 78.318404 
L 263.844416 76.711004 
L 266.039764 75.225904 
L 268.235112 75.647373 
L 270.43046 72.832115 
L 272.625808 64.999037 
L 274.821156 60.670748 
L 277.016503 62.732626 
L 279.211851 68.039559 
L 281.407199 70.473491 
L 283.602547 66.358695 
L 285.797895 64.053757 
L 287.993243 65.426348 
L 290.188591 63.614981 
L 292.383939 63.662301 
L 294.579287 67.434121 
L 296.774634 64.242936 
L 298.969982 55.501688 
L 301.16533 56.937637 
L 303.360678 67.443202 
L 305.556026 67.907271 
L 307.751374 61.896307 
L 309.946722 63.677417 
L 312.14207 64.344535 
L 314.337417 64.339214 
L 316.532765 69.91885 
L 318.728113 67.62604 
L 320.923461 64.130892 
L 323.118809 71.539969 
L 325.314157 75.506079 
L 327.509505 74.512099 
L 329.704853 73.17527 
L 331.9002 67.819788 
L 334.095548 67.248546 
L 336.290896 71.411662 
L 338.486244 74.444001 
L 340.681592 80.13773 
L 342.87694 82.234701 
L 345.072288 81.520685 
L 347.267636 86.80522 
L 349.462983 89.681802 
L 351.658331 86.979467 
L 353.853679 84.717883 
L 356.049027 81.799896 
L 358.244375 79.497957 
L 360.439723 77.435831 
L 362.635071 73.010464 
L 364.830419 69.911312 
L 367.025767 68.953566 
L 369.221114 67.104469 
L 371.416462 64.13661 
L 373.61181 63.177529 
L 378.002506 69.804006 
L 380.197854 71.303267 
L 382.393202 74.747188 
L 384.58855 76.474778 
L 386.783897 75.013846 
L 388.979245 76.530925 
L 391.174593 79.017937 
L 393.369941 78.383764 
L 395.565289 76.738203 
L 397.760637 74.156419 
L 397.760637 74.156419 
" clip-path="url(#pcacbeaccb6)" style="fill: none; stroke: #228833; stroke-width: 1.2; stroke-linecap: round"/>
   </g>
   <g id="line2d_16">
    <path d="M 61.872411 47.098743 
L 64.067759 41.901286 
L 66.263107 42.103849 
L 68.458455 49.719979 
L 70.653803 48.976798 
L 72.849151 42.954515 
L 75.044499 43.872281 
L 77.239846 47.636242 
L 79.435194 44.852438 
L 81.630542 39.201917 
L 83.82589 41.779381 
L 86.021238 43.655885 
L 88.216586 39.031321 
L 90.411934 44.565075 
L 92.607282 50.811784 
L 94.802629 41.627709 
L 96.997977 34.643934 
L 99.193325 36.919775 
L 101.388673 37.357711 
L 103.584021 34.511098 
L 105.779369 35.824023 
L 107.974717 45.75496 
L 110.170065 50.503915 
L 112.365413 48.099778 
L 114.56076 52.235964 
L 116.756108 51.951795 
L 118.951456 47.804059 
L 121.146804 51.458643 
L 123.342152 46.795007 
L 125.5375 40.507312 
L 127.732848 47.988974 
L 129.928196 50.674796 
L 132.123543 48.366476 
L 134.318891 50.904749 
L 136.514239 51.820588 
L 138.709587 55.19183 
L 140.904935 55.986246 
L 143.100283 46.434966 
L 145.295631 42.421182 
L 147.490979 47.60551 
L 149.686326 48.3953 
L 151.881674 43.845393 
L 154.077022 43.173835 
L 156.27237 45.051955 
L 158.467718 39.072647 
L 160.663066 35.45505 
L 162.858414 42.477036 
L 165.053762 41.863771 
L 167.249109 38.113807 
L 169.444457 44.422126 
L 171.639805 45.501108 
L 173.835153 42.773888 
L 176.030501 46.207541 
L 178.225849 42.901709 
L 180.421197 35.058894 
L 182.616545 38.192137 
L 184.811893 45.433136 
L 187.00724 46.256695 
L 189.202588 50.983856 
L 191.397936 61.9627 
L 193.593284 61.724286 
L 195.788632 56.040574 
L 197.98398 59.507388 
L 200.179328 59.213562 
L 202.374676 54.962743 
L 204.570023 57.531562 
L 206.765371 55.728481 
L 208.960719 50.098778 
L 211.156067 50.713611 
L 213.351415 50.373251 
L 215.546763 49.556121 
L 217.742111 54.316714 
L 219.937459 57.727079 
L 222.132806 56.976164 
L 224.328154 55.658716 
L 226.523502 53.651612 
L 228.71885 53.335752 
L 230.914198 58.076226 
L 233.109546 63.538429 
L 235.304894 63.349325 
L 237.500242 62.226279 
L 239.69559 68.220835 
L 241.890937 73.361108 
L 244.086285 71.331261 
L 246.281633 73.387115 
L 248.476981 78.950106 
L 250.672329 80.706613 
L 252.867677 84.778966 
L 255.063025 83.167118 
L 257.258373 71.224466 
L 259.45372 69.62342 
L 261.649068 73.841283 
L 263.844416 67.616902 
L 266.039764 64.606707 
L 268.235112 69.271716 
L 270.43046 72.110135 
L 272.625808 71.884456 
L 274.821156 64.636884 
L 277.016503 58.565146 
L 279.211851 63.411111 
L 281.407199 65.669995 
L 283.602547 61.344086 
L 285.797895 57.9899 
L 287.993243 55.335953 
L 290.188591 59.577092 
L 292.383939 67.20344 
L 294.579287 65.073498 
L 296.774634 62.082031 
L 298.969982 63.091144 
L 301.16533 57.513546 
L 303.360678 52.292484 
L 305.556026 54.449326 
L 307.751374 55.577675 
L 309.946722 53.982981 
L 312.14207 51.674719 
L 314.337417 51.696716 
L 318.728113 66.566451 
L 320.923461 67.068953 
L 323.118809 64.248973 
L 325.314157 63.218923 
L 327.509505 65.020581 
L 329.704853 66.160188 
L 331.9002 68.325427 
L 334.095548 72.99698 
L 336.290896 70.194758 
L 338.486244 64.690415 
L 340.681592 70.861614 
L 342.87694 77.59007 
L 345.072288 75.433272 
L 347.267636 76.17202 
L 349.462983 77.736957 
L 351.658331 70.342068 
L 353.853679 63.963766 
L 356.049027 65.854266 
L 358.244375 69.161932 
L 360.439723 72.921631 
L 362.635071 75.038223 
L 364.830419 70.754764 
L 367.025767 68.099843 
L 369.221114 71.768302 
L 371.416462 74.680561 
L 373.61181 73.768938 
L 375.807158 71.245254 
L 378.002506 72.922888 
L 380.197854 80.558261 
L 382.393202 83.035595 
L 384.58855 77.45822 
L 386.783897 78.447097 
L 388.979245 84.213238 
L 391.174593 75.990881 
L 393.369941 63.289362 
L 395.565289 63.20934 
L 397.760637 60.51291 
L 397.760637 60.51291 
" clip-path="url(#pcacbeaccb6)" style="fill: none; stroke: #ccbb44; stroke-width: 1.2; stroke-linecap: round"/>
   </g>
   <g id="line2d_17">
    <path d="M 61.872411 43.287507 
L 64.067759 45.575713 
L 66.263107 47.080631 
L 68.458455 42.7994 
L 70.653803 40.746803 
L 72.849151 43.927479 
L 75.044499 45.400668 
L 77.239846 44.568504 
L 79.435194 46.812021 
L 81.630542 49.449897 
L 83.82589 49.904219 
L 86.021238 48.858466 
L 88.216586 45.944579 
L 90.411934 49.20381 
L 92.607282 59.310432 
L 94.802629 61.922796 
L 96.997977 59.255431 
L 99.193325 62.525569 
L 101.388673 65.212199 
L 103.584021 60.977811 
L 105.779369 55.989983 
L 107.974717 54.29345 
L 110.170065 53.442252 
L 112.365413 52.773971 
L 114.56076 55.380457 
L 116.756108 59.932698 
L 118.951456 60.929424 
L 121.146804 57.045096 
L 123.342152 52.243574 
L 125.5375 52.038782 
L 127.732848 54.643199 
L 129.928196 53.033833 
L 132.123543 49.655573 
L 134.318891 48.88495 
L 136.514239 49.441981 
L 138.709587 53.155011 
L 140.904935 55.004105 
L 143.100283 48.554146 
L 145.295631 47.368463 
L 147.490979 56.258481 
L 149.686326 56.423046 
L 151.881674 49.015449 
L 154.077022 49.706801 
L 156.27237 50.144381 
L 158.467718 44.342871 
L 160.663066 46.390628 
L 162.858414 55.399789 
L 165.053762 59.497124 
L 167.249109 60.32198 
L 169.444457 60.575763 
L 171.639805 59.635798 
L 173.835153 57.619148 
L 176.030501 51.733459 
L 178.225849 47.123443 
L 180.421197 50.065549 
L 182.616545 53.64316 
L 184.811893 55.741049 
L 187.00724 59.517136 
L 189.202588 60.41287 
L 191.397936 60.063407 
L 193.593284 62.797461 
L 195.788632 63.559551 
L 197.98398 61.792733 
L 200.179328 62.318569 
L 202.374676 64.224101 
L 204.570023 64.569072 
L 206.765371 64.539723 
L 208.960719 68.156564 
L 211.156067 73.513531 
L 213.351415 75.326108 
L 215.546763 76.411377 
L 217.742111 78.555612 
L 219.937459 78.868583 
L 222.132806 80.845305 
L 224.328154 84.470416 
L 226.523502 83.060634 
L 228.71885 80.470156 
L 230.914198 84.305099 
L 233.109546 88.866886 
L 235.304894 86.542273 
L 237.500242 83.687526 
L 239.69559 86.886879 
L 241.890937 88.211943 
L 244.086285 82.413898 
L 246.281633 78.395199 
L 248.476981 80.930942 
L 250.672329 82.841614 
L 252.867677 81.011997 
L 255.063025 81.04982 
L 257.258373 83.418594 
L 259.45372 83.557498 
L 261.649068 81.704716 
L 266.039764 77.180513 
L 268.235112 73.786827 
L 270.43046 69.408384 
L 272.625808 67.785443 
L 274.821156 65.45908 
L 277.016503 62.258904 
L 279.211851 68.872313 
L 281.407199 75.841502 
L 283.602547 70.292499 
L 285.797895 65.34722 
L 287.993243 64.076776 
L 290.188591 60.10329 
L 292.383939 60.563869 
L 294.579287 61.447821 
L 296.774634 56.658576 
L 298.969982 55.118194 
L 301.16533 58.838396 
L 303.360678 62.887713 
L 305.556026 61.757041 
L 307.751374 55.600868 
L 309.946722 56.100602 
L 312.14207 60.187057 
L 314.337417 57.12091 
L 316.532765 53.128742 
L 318.728113 50.084289 
L 320.923461 47.835989 
L 323.118809 52.508112 
L 325.314157 58.014625 
L 327.509505 60.103331 
L 329.704853 61.134732 
L 331.9002 60.187458 
L 334.095548 61.166967 
L 336.290896 60.872438 
L 338.486244 57.700621 
L 340.681592 61.190304 
L 342.87694 62.897153 
L 345.072288 57.511453 
L 347.267636 57.837406 
L 349.462983 61.213351 
L 351.658331 65.058774 
L 353.853679 71.017863 
L 356.049027 69.973239 
L 358.244375 68.289382 
L 360.439723 70.690988 
L 362.635071 65.109635 
L 364.830419 58.25003 
L 367.025767 58.675574 
L 369.221114 58.826157 
L 371.416462 59.852299 
L 373.61181 62.194811 
L 375.807158 60.940679 
L 378.002506 63.112598 
L 380.197854 71.058826 
L 382.393202 73.289098 
L 384.58855 70.266714 
L 386.783897 73.147991 
L 388.979245 76.335222 
L 391.174593 70.780555 
L 393.369941 66.523166 
L 395.565289 68.344123 
L 397.760637 67.259028 
L 397.760637 67.259028 
" clip-path="url(#pcacbeaccb6)" style="fill: none; stroke: #ee6677; stroke-width: 1.2; stroke-linecap: round"/>
   </g>
   <g id="line2d_18">
    <path d="M 61.872411 48.119333 
L 64.067759 45.288691 
L 66.263107 43.225693 
L 68.458455 46.762947 
L 70.653803 49.637151 
L 72.849151 46.1022 
L 75.044499 42.854559 
L 77.239846 45.112314 
L 79.435194 45.265469 
L 81.630542 43.728172 
L 83.82589 48.614724 
L 86.021238 52.415681 
L 88.216586 49.524287 
L 90.411934 49.760956 
L 92.607282 53.93885 
L 94.802629 54.056047 
L 96.997977 50.320474 
L 99.193325 47.012185 
L 103.584021 41.986865 
L 105.779369 44.115694 
L 107.974717 50.590422 
L 110.170065 52.459725 
L 112.365413 52.733778 
L 114.56076 55.772795 
L 116.756108 53.031036 
L 118.951456 48.293239 
L 121.146804 48.086501 
L 125.5375 39.89284 
L 127.732848 42.526769 
L 129.928196 43.396079 
L 132.123543 43.126539 
L 134.318891 47.731547 
L 136.514239 53.384362 
L 138.709587 55.083647 
L 143.100283 43.129342 
L 145.295631 47.050039 
L 147.490979 50.088857 
L 149.686326 45.84675 
L 151.881674 42.397264 
L 154.077022 40.524865 
L 158.467718 37.147531 
L 160.663066 35.747111 
L 162.858414 36.345775 
L 165.053762 35.922595 
L 167.249109 36.136068 
L 169.444457 40.383049 
L 171.639805 43.720603 
L 173.835153 45.888218 
L 176.030501 45.481229 
L 178.225849 37.929844 
L 180.421197 30.988049 
L 182.616545 30.574894 
L 184.811893 34.220679 
L 187.00724 40.782572 
L 189.202588 45.025435 
L 191.397936 44.742069 
L 193.593284 45.920964 
L 195.788632 48.936419 
L 197.98398 49.973701 
L 200.179328 50.207141 
L 202.374676 51.831056 
L 204.570023 53.102738 
L 206.765371 51.103764 
L 208.960719 47.952178 
L 211.156067 49.830024 
L 213.351415 55.39763 
L 215.546763 57.534053 
L 217.742111 58.749698 
L 219.937459 62.027463 
L 222.132806 61.954991 
L 224.328154 61.471175 
L 226.523502 64.001284 
L 228.71885 63.048851 
L 230.914198 61.22507 
L 233.109546 63.467712 
L 235.304894 65.217433 
L 237.500242 66.23205 
L 239.69559 67.072105 
L 241.890937 66.145078 
L 244.086285 67.133652 
L 248.476981 73.298338 
L 250.672329 77.365379 
L 252.867677 79.050381 
L 255.063025 76.284787 
L 257.258373 75.198302 
L 259.45372 77.391613 
L 261.649068 76.934906 
L 263.844416 73.782849 
L 266.039764 72.817337 
L 268.235112 72.847662 
L 270.43046 71.73026 
L 272.625808 69.627884 
L 274.821156 65.462195 
L 277.016503 64.724608 
L 279.211851 69.880152 
L 281.407199 70.49763 
L 283.602547 66.108194 
L 285.797895 63.824916 
L 287.993243 63.844729 
L 292.383939 77.192768 
L 294.579287 70.700976 
L 296.774634 67.476361 
L 298.969982 74.006514 
L 301.16533 69.602954 
L 303.360678 61.792045 
L 305.556026 63.740117 
L 307.751374 62.865826 
L 309.946722 61.514744 
L 312.14207 64.281209 
L 314.337417 60.806049 
L 316.532765 60.270493 
L 318.728113 68.474512 
L 320.923461 69.380111 
L 323.118809 65.052796 
L 327.509505 64.780525 
L 329.704853 66.645767 
L 331.9002 69.098194 
L 334.095548 63.252548 
L 336.290896 57.017838 
L 338.486244 58.22158 
L 340.681592 59.807027 
L 342.87694 58.865234 
L 345.072288 57.28608 
L 347.267636 56.893341 
L 349.462983 58.825152 
L 351.658331 57.738424 
L 353.853679 52.826144 
L 356.049027 51.718412 
L 360.439723 59.707083 
L 362.635071 60.524322 
L 364.830419 58.079582 
L 367.025767 56.097259 
L 369.221114 59.725714 
L 371.416462 67.460605 
L 373.61181 68.064749 
L 375.807158 62.04664 
L 378.002506 64.40974 
L 380.197854 70.605621 
L 382.393202 67.776192 
L 384.58855 65.7723 
L 386.783897 71.730043 
L 388.979245 74.822259 
L 391.174593 71.258476 
L 393.369941 68.757685 
L 395.565289 68.85562 
L 397.760637 63.334461 
L 397.760637 63.334461 
" clip-path="url(#pcacbeaccb6)" style="fill: none; stroke: #aa3377; stroke-width: 1.2; stroke-linecap: round"/>
   </g>
   <g id="line2d_19">
    <path d="M 61.872411 43.45533 
L 64.067759 42.811142 
L 66.263107 42.35163 
L 68.458455 44.394987 
L 70.653803 46.204622 
L 72.849151 44.903998 
L 75.044499 43.197911 
L 77.239846 43.037465 
L 79.435194 44.647698 
L 81.630542 47.367878 
L 83.82589 49.762903 
L 86.021238 51.203353 
L 88.216586 50.648851 
L 90.411934 50.903153 
L 92.607282 55.207572 
L 94.802629 56.677327 
L 96.997977 52.252878 
L 99.193325 50.325538 
L 101.388673 50.63897 
L 103.584021 48.221916 
L 105.779369 47.149549 
L 107.974717 47.851419 
L 110.170065 47.553484 
L 114.56076 50.926551 
L 116.756108 48.620973 
L 118.951456 47.112897 
L 121.146804 47.209146 
L 125.5375 40.866812 
L 127.732848 40.636221 
L 129.928196 39.865265 
L 132.123543 39.428288 
L 134.318891 41.878063 
L 136.514239 45.844793 
L 138.709587 47.900128 
L 140.904935 42.225528 
L 143.100283 34.459654 
L 145.295631 37.572461 
L 147.490979 43.178547 
L 149.686326 38.431196 
L 151.881674 31.841253 
L 154.077022 30.987921 
L 156.27237 31.49864 
L 158.467718 31.730556 
L 160.663066 33.567364 
L 162.858414 35.787897 
L 165.053762 36.181069 
L 167.249109 36.783701 
L 169.444457 39.846377 
L 171.639805 44.130467 
L 173.835153 46.587807 
L 176.030501 43.129338 
L 178.225849 37.048449 
L 180.421197 34.867286 
L 182.616545 33.858426 
L 184.811893 34.243394 
L 187.00724 37.850823 
L 189.202588 37.236317 
L 191.397936 34.748506 
L 193.593284 37.859379 
L 195.788632 39.471055 
L 197.98398 37.894111 
L 200.179328 41.311929 
L 202.374676 46.58592 
L 204.570023 47.118959 
L 206.765371 45.194306 
L 208.960719 45.910855 
L 211.156067 50.756191 
L 213.351415 54.841703 
L 215.546763 55.648163 
L 217.742111 57.671699 
L 219.937459 60.437047 
L 222.132806 62.304629 
L 224.328154 66.603545 
L 226.523502 69.43237 
L 228.71885 66.859592 
L 230.914198 66.05769 
L 233.109546 69.231774 
L 235.304894 70.534468 
L 237.500242 70.678311 
L 239.69559 72.021288 
L 241.890937 71.233613 
L 244.086285 70.131922 
L 246.281633 74.246131 
L 248.476981 79.641082 
L 250.672329 82.090367 
L 252.867677 83.537217 
L 255.063025 82.252477 
L 257.258373 79.952697 
L 259.45372 81.833942 
L 261.649068 83.445967 
L 263.844416 81.871683 
L 266.039764 80.088658 
L 268.235112 76.953886 
L 270.43046 74.729774 
L 272.625808 75.744477 
L 274.821156 74.941573 
L 277.016503 74.263114 
L 279.211851 77.631755 
L 281.407199 78.013647 
L 283.602547 73.512895 
L 285.797895 70.140067 
L 287.993243 69.668103 
L 290.188591 73.981186 
L 292.383939 78.875425 
L 294.579287 75.507458 
L 296.774634 71.929319 
L 298.969982 74.861765 
L 301.16533 74.156406 
L 303.360678 70.98457 
L 305.556026 69.961086 
L 307.751374 65.714579 
L 309.946722 64.65562 
L 312.14207 67.68813 
L 314.337417 63.28285 
L 316.532765 59.471364 
L 318.728113 62.504008 
L 320.923461 61.948851 
L 323.118809 60.421239 
L 325.314157 61.548102 
L 327.509505 60.478206 
L 329.704853 61.773951 
L 331.9002 64.942046 
L 334.095548 61.73776 
L 336.290896 55.340267 
L 338.486244 51.390819 
L 342.87694 45.60229 
L 345.072288 44.603265 
L 349.462983 46.512125 
L 351.658331 48.063762 
L 353.853679 48.562156 
L 356.049027 46.458936 
L 358.244375 48.536584 
L 360.439723 53.335505 
L 362.635071 52.90781 
L 364.830419 51.978211 
L 367.025767 52.177067 
L 369.221114 52.192452 
L 371.416462 58.701288 
L 373.61181 64.361517 
L 375.807158 61.519354 
L 378.002506 61.827129 
L 380.197854 64.280259 
L 382.393202 59.864938 
L 384.58855 57.810252 
L 386.783897 62.559831 
L 388.979245 65.371552 
L 391.174593 64.140282 
L 393.369941 62.477521 
L 395.565289 61.648064 
L 397.760637 58.70842 
L 397.760637 58.70842 
" clip-path="url(#pcacbeaccb6)" style="fill: none; stroke: #4477aa; stroke-width: 1.2; stroke-linecap: round"/>
   </g>
   <g id="line2d_20">
    <path d="M 61.872411 50.231596 
L 64.067759 57.206457 
L 66.263107 60.092511 
L 68.458455 57.266927 
L 70.653803 52.593656 
L 72.849151 46.507299 
L 75.044499 47.901928 
L 77.239846 55.201928 
L 79.435194 54.057891 
L 81.630542 52.284883 
L 83.82589 58.328169 
L 86.021238 58.632003 
L 88.216586 53.585782 
L 90.411934 54.101826 
L 94.802629 57.71131 
L 96.997977 63.578772 
L 99.193325 66.8906 
L 101.388673 65.04759 
L 103.584021 67.978497 
L 105.779369 69.92353 
L 107.974717 58.515447 
L 110.170065 52.024102 
L 112.365413 59.108337 
L 114.56076 55.609185 
L 116.756108 49.347643 
L 118.951456 58.940665 
L 121.146804 62.396886 
L 123.342152 57.63085 
L 125.5375 64.764545 
L 127.732848 69.869767 
L 129.928196 63.953114 
L 132.123543 63.470256 
L 134.318891 68.427177 
L 136.514239 68.117624 
L 138.709587 65.032251 
L 140.904935 65.446208 
L 143.100283 66.978326 
L 145.295631 64.342717 
L 147.490979 59.719437 
L 149.686326 60.147652 
L 151.881674 63.64678 
L 154.077022 61.543606 
L 156.27237 59.764107 
L 158.467718 65.238595 
L 160.663066 68.619747 
L 162.858414 70.983108 
L 165.053762 75.521944 
L 167.249109 73.59454 
L 169.444457 71.249482 
L 171.639805 69.639558 
L 173.835153 60.917179 
L 176.030501 60.470701 
L 178.225849 72.292461 
L 180.421197 78.288747 
L 182.616545 77.322265 
L 184.811893 74.186968 
L 187.00724 70.300353 
L 189.202588 72.085261 
L 191.397936 74.687985 
L 193.593284 68.30927 
L 195.788632 60.74859 
L 197.98398 61.994291 
L 200.179328 67.550298 
L 202.374676 71.704111 
L 204.570023 71.912482 
L 206.765371 68.830632 
L 208.960719 68.145367 
L 211.156067 69.473537 
L 213.351415 73.247724 
L 215.546763 79.93725 
L 217.742111 80.302121 
L 219.937459 78.948416 
L 222.132806 81.81711 
L 224.328154 79.476316 
L 226.523502 78.554994 
L 228.71885 82.374362 
L 230.914198 80.469509 
L 233.109546 79.838913 
L 235.304894 78.281323 
L 237.500242 68.377149 
L 239.69559 65.741028 
L 241.890937 70.250521 
L 244.086285 69.824479 
L 246.281633 70.461077 
L 248.476981 71.836868 
L 250.672329 67.871009 
L 252.867677 65.086471 
L 255.063025 66.701206 
L 257.258373 65.539895 
L 259.45372 61.927257 
L 261.649068 62.697448 
L 263.844416 62.989792 
L 266.039764 60.476484 
L 268.235112 62.172532 
L 270.43046 62.040107 
L 272.625808 57.379819 
L 277.016503 55.184304 
L 279.211851 54.460993 
L 281.407199 57.805239 
L 283.602547 56.39131 
L 285.797895 54.222694 
L 287.993243 57.373193 
L 290.188591 54.687696 
L 292.383939 49.929539 
L 294.579287 53.873483 
L 296.774634 53.843982 
L 298.969982 46.489743 
L 301.16533 51.139139 
L 303.360678 62.177534 
L 305.556026 60.638686 
L 307.751374 59.66534 
L 309.946722 65.173791 
L 312.14207 62.83026 
L 314.337417 64.275717 
L 316.532765 71.880065 
L 318.728113 67.672931 
L 320.923461 64.401926 
L 323.118809 68.571889 
L 325.314157 67.858109 
L 327.509505 71.115795 
L 329.704853 74.685139 
L 331.9002 69.238899 
L 334.095548 69.74895 
L 336.290896 73.771346 
L 338.486244 72.486584 
L 340.681592 73.396635 
L 342.87694 73.58133 
L 345.072288 75.23678 
L 347.267636 83.428269 
L 349.462983 85.507077 
L 351.658331 82.669518 
L 353.853679 85.59491 
L 356.049027 85.941541 
L 358.244375 78.541133 
L 360.439723 73.607401 
L 362.635071 72.279215 
L 367.025767 55.864029 
L 369.221114 58.567432 
L 371.416462 58.596791 
L 373.61181 53.910542 
L 375.807158 59.576557 
L 378.002506 63.384823 
L 380.197854 57.834248 
L 382.393202 61.25151 
L 384.58855 69.12956 
L 386.783897 66.266992 
L 388.979245 63.790446 
L 391.174593 70.173051 
L 393.369941 73.383476 
L 397.760637 64.506025 
L 397.760637 64.506025 
" clip-path="url(#pcacbeaccb6)" style="fill: none; stroke: #66ccee; stroke-width: 1.2; stroke-linecap: round"/>
   </g>
   <g id="line2d_21">
    <path d="M 61.872411 66.860077 
L 64.067759 66.987365 
L 66.263107 61.614733 
L 68.458455 62.771723 
L 70.653803 62.712416 
L 72.849151 59.466048 
L 75.044499 59.883518 
L 77.239846 62.19707 
L 79.435194 61.052335 
L 81.630542 57.366054 
L 83.82589 56.672821 
L 86.021238 60.000514 
L 88.216586 63.038816 
L 90.411934 62.992083 
L 94.802629 58.534216 
L 99.193325 53.472078 
L 101.388673 53.102581 
L 103.584021 53.430968 
L 105.779369 57.39356 
L 107.974717 64.634823 
L 110.170065 63.401569 
L 112.365413 60.350353 
L 114.56076 66.947878 
L 116.756108 68.239049 
L 118.951456 62.999744 
L 121.146804 64.777855 
L 123.342152 67.378815 
L 125.5375 70.193523 
L 127.732848 75.83606 
L 129.928196 75.498886 
L 134.318891 67.806441 
L 136.514239 63.455471 
L 138.709587 64.460517 
L 140.904935 66.609656 
L 143.100283 66.639213 
L 145.295631 68.052164 
L 147.490979 68.693718 
L 149.686326 69.457441 
L 151.881674 69.088896 
L 154.077022 64.845624 
L 156.27237 61.347122 
L 158.467718 59.148517 
L 160.663066 60.248002 
L 162.858414 64.805122 
L 165.053762 63.412873 
L 167.249109 59.444816 
L 169.444457 58.947681 
L 173.835153 52.318741 
L 176.030501 53.955927 
L 178.225849 55.157176 
L 180.421197 54.444321 
L 182.616545 56.271288 
L 184.811893 60.565137 
L 187.00724 62.445074 
L 189.202588 63.72177 
L 191.397936 68.230834 
L 193.593284 69.296589 
L 195.788632 67.934503 
L 197.98398 71.76015 
L 200.179328 71.603122 
L 202.374676 65.094506 
L 204.570023 64.664604 
L 206.765371 64.659871 
L 208.960719 57.993417 
L 211.156067 55.404299 
L 213.351415 56.706736 
L 215.546763 56.24229 
L 217.742111 59.965522 
L 219.937459 62.830496 
L 222.132806 57.3964 
L 224.328154 54.257346 
L 226.523502 56.322542 
L 228.71885 57.575576 
L 230.914198 62.092271 
L 233.109546 65.964494 
L 235.304894 63.440272 
L 237.500242 66.153989 
L 239.69559 73.034709 
L 241.890937 69.56288 
L 244.086285 64.316633 
L 246.281633 68.225053 
L 248.476981 70.434081 
L 250.672329 67.330278 
L 252.867677 66.639992 
L 255.063025 65.724056 
L 257.258373 62.00549 
L 259.45372 60.164449 
L 261.649068 59.803701 
L 263.844416 58.719585 
L 266.039764 57.492728 
L 268.235112 57.060639 
L 270.43046 59.738456 
L 272.625808 61.844816 
L 274.821156 57.278871 
L 277.016503 53.199191 
L 279.211851 56.746829 
L 281.407199 59.629078 
L 283.602547 56.631701 
L 285.797895 54.904854 
L 287.993243 55.711716 
L 290.188591 53.493698 
L 292.383939 52.047044 
L 294.579287 55.377192 
L 296.774634 57.467399 
L 298.969982 56.239087 
L 301.16533 54.255735 
L 303.360678 53.970917 
L 305.556026 57.723959 
L 307.751374 59.802691 
L 309.946722 59.333045 
L 312.14207 63.413308 
L 314.337417 66.67192 
L 316.532765 64.966287 
L 318.728113 64.324474 
L 320.923461 65.211311 
L 323.118809 65.522194 
L 325.314157 62.964712 
L 327.509505 60.844918 
L 329.704853 66.044664 
L 331.9002 69.092927 
L 334.095548 65.591946 
L 336.290896 67.899846 
L 338.486244 73.396898 
L 340.681592 75.704047 
L 342.87694 78.95615 
L 345.072288 79.462855 
L 347.267636 76.568217 
L 349.462983 75.503689 
L 351.658331 72.054317 
L 353.853679 67.648637 
L 356.049027 68.272983 
L 358.244375 68.006351 
L 360.439723 66.400597 
L 362.635071 68.735243 
L 364.830419 69.148148 
L 367.025767 67.823712 
L 369.221114 71.354848 
L 371.416462 73.65929 
L 373.61181 70.213149 
L 375.807158 66.37166 
L 378.002506 66.165881 
L 380.197854 68.535759 
L 382.393202 67.022838 
L 384.58855 62.654215 
L 386.783897 62.350308 
L 388.979245 60.356167 
L 391.174593 56.047871 
L 393.369941 57.63239 
L 395.565289 56.406809 
L 397.760637 48.712542 
L 397.760637 48.712542 
" clip-path="url(#pcacbeaccb6)" style="fill: none; stroke: #228833; stroke-width: 1.2; stroke-linecap: round"/>
   </g>
   <g id="line2d_22">
    <path d="M 61.872411 48.414913 
L 64.067759 51.17172 
L 66.263107 52.13024 
L 68.458455 47.345398 
L 70.653803 47.516924 
L 72.849151 52.43807 
L 75.044499 54.555072 
L 77.239846 54.759997 
L 79.435194 57.36747 
L 81.630542 61.719431 
L 83.82589 63.799914 
L 86.021238 62.563842 
L 88.216586 62.01203 
L 90.411934 65.18674 
L 92.607282 68.706481 
L 94.802629 69.100605 
L 96.997977 69.130553 
L 99.193325 69.354687 
L 101.388673 68.097466 
L 103.584021 67.968174 
L 105.779369 65.394818 
L 107.974717 58.159146 
L 110.170065 56.586016 
L 112.365413 59.528831 
L 114.56076 59.194107 
L 116.756108 60.474055 
L 118.951456 60.363914 
L 121.146804 55.999345 
L 123.342152 57.860717 
L 125.5375 61.881515 
L 127.732848 60.081289 
L 129.928196 58.755749 
L 132.123543 58.688795 
L 134.318891 58.488266 
L 136.514239 58.770694 
L 138.709587 56.714733 
L 140.904935 56.854075 
L 143.100283 60.600538 
L 145.295631 61.566264 
L 147.490979 61.572485 
L 149.686326 61.830012 
L 151.881674 61.230915 
L 154.077022 64.155184 
L 156.27237 68.414326 
L 158.467718 68.987555 
L 160.663066 68.228087 
L 162.858414 67.108416 
L 165.053762 64.643563 
L 167.249109 64.158431 
L 169.444457 66.319891 
L 171.639805 64.611153 
L 173.835153 58.995302 
L 176.030501 57.781115 
L 182.616545 66.213016 
L 184.811893 66.033184 
L 187.00724 63.285847 
L 189.202588 62.110458 
L 191.397936 59.804995 
L 193.593284 56.832177 
L 197.98398 54.463852 
L 200.179328 55.470405 
L 202.374676 57.831315 
L 204.570023 56.831408 
L 206.765371 57.287438 
L 208.960719 61.892963 
L 211.156067 64.579302 
L 213.351415 63.64594 
L 215.546763 60.360479 
L 217.742111 56.214719 
L 219.937459 54.749122 
L 222.132806 55.144834 
L 224.328154 54.951985 
L 226.523502 55.524987 
L 228.71885 56.650522 
L 230.914198 57.117319 
L 233.109546 57.957607 
L 235.304894 59.057236 
L 237.500242 59.520549 
L 239.69559 59.203949 
L 244.086285 56.266362 
L 246.281633 57.031184 
L 250.672329 61.999142 
L 252.867677 61.400458 
L 255.063025 55.901622 
L 257.258373 51.95751 
L 259.45372 53.198729 
L 261.649068 53.535551 
L 263.844416 51.265016 
L 266.039764 49.731063 
L 268.235112 48.415282 
L 270.43046 48.429913 
L 272.625808 53.545194 
L 274.821156 59.715635 
L 277.016503 58.397703 
L 279.211851 53.684057 
L 281.407199 54.731435 
L 283.602547 56.800475 
L 285.797895 56.287739 
L 287.993243 57.468731 
L 290.188591 57.228532 
L 292.383939 56.518777 
L 294.579287 59.209005 
L 296.774634 57.340232 
L 298.969982 53.452189 
L 301.16533 58.635087 
L 303.360678 64.633872 
L 305.556026 63.597244 
L 307.751374 62.282806 
L 309.946722 59.961573 
L 312.14207 53.741077 
L 314.337417 51.056995 
L 316.532765 52.507533 
L 318.728113 50.488522 
L 320.923461 47.106492 
L 323.118809 47.471248 
L 325.314157 47.718185 
L 327.509505 44.4556 
L 329.704853 40.8284 
L 331.9002 40.58948 
L 334.095548 42.743934 
L 336.290896 42.756396 
L 338.486244 41.057986 
L 340.681592 41.011008 
L 345.072288 41.504482 
L 347.267636 42.258614 
L 349.462983 41.915663 
L 351.658331 44.381333 
L 353.853679 49.645139 
L 356.049027 50.951014 
L 358.244375 50.729266 
L 360.439723 51.497211 
L 362.635071 50.056615 
L 364.830419 51.012353 
L 367.025767 54.883181 
L 369.221114 53.517629 
L 371.416462 50.397821 
L 373.61181 52.434196 
L 375.807158 53.215543 
L 378.002506 47.807805 
L 380.197854 43.088238 
L 384.58855 42.762168 
L 386.783897 42.138578 
L 388.979245 43.426581 
L 391.174593 44.184955 
L 393.369941 43.228626 
L 395.565289 44.376748 
L 397.760637 47.617331 
L 397.760637 47.617331 
" clip-path="url(#pcacbeaccb6)" style="fill: none; stroke: #ccbb44; stroke-width: 1.2; stroke-linecap: round"/>
   </g>
   <g id="line2d_23">
    <path d="M 61.872411 57.34453 
L 64.067759 51.920926 
L 66.263107 48.749154 
L 70.653803 48.286012 
L 72.849151 48.461988 
L 75.044499 49.36054 
L 77.239846 50.957853 
L 79.435194 51.262707 
L 81.630542 51.836728 
L 86.021238 61.602203 
L 88.216586 62.424401 
L 90.411934 60.81872 
L 92.607282 56.538034 
L 94.802629 54.95691 
L 96.997977 58.496946 
L 99.193325 58.783698 
L 101.388673 54.107649 
L 103.584021 50.000022 
L 105.779369 51.273597 
L 107.974717 57.957427 
L 110.170065 59.985381 
L 112.365413 56.517595 
L 114.56076 58.673016 
L 116.756108 62.259685 
L 118.951456 59.627324 
L 121.146804 56.419214 
L 123.342152 54.24397 
L 125.5375 51.623528 
L 127.732848 51.512627 
L 129.928196 53.269769 
L 132.123543 54.272243 
L 134.318891 54.476969 
L 136.514239 55.453799 
L 138.709587 55.919498 
L 140.904935 54.85015 
L 143.100283 57.928892 
L 145.295631 62.225785 
L 147.490979 61.070998 
L 149.686326 62.04872 
L 151.881674 63.457292 
L 154.077022 58.211374 
L 156.27237 56.398062 
L 158.467718 58.504341 
L 162.858414 53.896536 
L 165.053762 53.046947 
L 167.249109 51.276324 
L 169.444457 49.741715 
L 171.639805 49.323714 
L 173.835153 52.509737 
L 176.030501 54.645965 
L 178.225849 48.901279 
L 180.421197 42.544832 
L 182.616545 42.278736 
L 184.811893 44.117225 
L 187.00724 46.252306 
L 189.202588 48.227378 
L 191.397936 47.491234 
L 193.593284 48.237924 
L 195.788632 53.597882 
L 197.98398 54.640878 
L 200.179328 49.291614 
L 202.374676 47.187322 
L 204.570023 48.114694 
L 206.765371 47.528436 
L 208.960719 47.948249 
L 211.156067 49.540044 
L 213.351415 49.151058 
L 215.546763 47.266511 
L 217.742111 48.451381 
L 219.937459 50.193984 
L 222.132806 44.925364 
L 224.328154 41.744781 
L 226.523502 48.245331 
L 228.71885 51.573707 
L 230.914198 49.677461 
L 233.109546 49.513542 
L 235.304894 49.008591 
L 237.500242 50.625754 
L 239.69559 53.008745 
L 241.890937 52.130106 
L 244.086285 52.932775 
L 246.281633 52.564113 
L 248.476981 51.661508 
L 250.672329 56.580471 
L 252.867677 56.607319 
L 255.063025 52.039554 
L 259.45372 60.532409 
L 261.649068 56.770629 
L 263.844416 54.652092 
L 266.039764 56.440664 
L 268.235112 57.180895 
L 270.43046 54.158586 
L 272.625808 50.699253 
L 274.821156 52.633481 
L 277.016503 56.288651 
L 279.211851 56.571859 
L 281.407199 55.836462 
L 283.602547 55.239689 
L 285.797895 53.957221 
L 287.993243 54.257837 
L 290.188591 58.521608 
L 292.383939 61.813256 
L 294.579287 59.103737 
L 296.774634 58.00304 
L 298.969982 61.413691 
L 301.16533 58.808367 
L 303.360678 52.92293 
L 307.751374 55.584999 
L 309.946722 51.160185 
L 312.14207 50.288035 
L 314.337417 52.680852 
L 316.532765 52.659604 
L 320.923461 55.685226 
L 323.118809 53.684834 
L 327.509505 50.094495 
L 329.704853 52.240478 
L 331.9002 57.188716 
L 334.095548 50.95755 
L 336.290896 43.996187 
L 338.486244 50.96856 
L 340.681592 56.128814 
L 342.87694 54.640429 
L 345.072288 54.995221 
L 347.267636 53.276294 
L 349.462983 51.857372 
L 351.658331 53.408947 
L 356.049027 51.304524 
L 358.244375 54.060558 
L 360.439723 57.678088 
L 362.635071 58.085165 
L 364.830419 56.839792 
L 367.025767 59.355971 
L 369.221114 61.685943 
L 371.416462 60.544328 
L 373.61181 58.701152 
L 375.807158 54.688422 
L 378.002506 55.825527 
L 380.197854 62.285759 
L 382.393202 57.493758 
L 384.58855 51.795559 
L 386.783897 57.30716 
L 388.979245 54.675588 
L 391.174593 47.499164 
L 393.369941 52.104159 
L 395.565289 54.472793 
L 397.760637 49.573702 
L 397.760637 49.573702 
" clip-path="url(#pcacbeaccb6)" style="fill: none; stroke: #ee6677; stroke-width: 1.2; stroke-linecap: round"/>
   </g>
   <g id="line2d_24">
    <path d="M 61.872411 49.477974 
L 64.067759 46.53065 
L 66.263107 46.090685 
L 68.458455 47.255782 
L 70.653803 49.252516 
L 72.849151 51.780611 
L 75.044499 51.161196 
L 77.239846 48.463324 
L 79.435194 50.702126 
L 81.630542 55.135968 
L 83.82589 55.970509 
L 86.021238 57.125873 
L 88.216586 59.91546 
L 90.411934 60.147195 
L 92.607282 58.501506 
L 94.802629 57.122673 
L 96.997977 56.478645 
L 99.193325 56.104102 
L 101.388673 53.426737 
L 103.584021 50.950162 
L 105.779369 51.826584 
L 107.974717 50.713352 
L 110.170065 49.040707 
L 112.365413 52.639522 
L 114.56076 54.696695 
L 116.756108 53.635197 
L 118.951456 55.74436 
L 121.146804 54.874359 
L 123.342152 49.21611 
L 125.5375 47.849617 
L 127.732848 48.650961 
L 129.928196 48.67717 
L 132.123543 51.133428 
L 134.318891 50.577075 
L 136.514239 48.013238 
L 138.709587 50.358525 
L 140.904935 48.216664 
L 143.100283 42.024824 
L 145.295631 46.197815 
L 147.490979 50.798295 
L 149.686326 45.481443 
L 151.881674 42.473048 
L 154.077022 43.333132 
L 156.27237 43.799288 
L 158.467718 47.890965 
L 160.663066 49.55194 
L 162.858414 45.788933 
L 165.053762 46.707632 
L 167.249109 49.763378 
L 169.444457 47.704515 
L 171.639805 49.113174 
L 173.835153 55.452748 
L 176.030501 55.205406 
L 178.225849 50.205193 
L 180.421197 47.104131 
L 182.616545 44.419359 
L 184.811893 43.908092 
L 187.00724 42.912693 
L 189.202588 37.152964 
L 191.397936 35.989232 
L 193.593284 40.326243 
L 195.788632 38.663738 
L 197.98398 35.166883 
L 200.179328 38.562393 
L 202.374676 42.931662 
L 204.570023 42.598567 
L 206.765371 41.698589 
L 208.960719 44.566561 
L 211.156067 47.048446 
L 213.351415 43.575642 
L 215.546763 40.428241 
L 217.742111 43.121385 
L 219.937459 43.811871 
L 222.132806 41.740037 
L 224.328154 43.693408 
L 226.523502 45.030228 
L 228.71885 44.05771 
L 230.914198 46.082129 
L 233.109546 47.292785 
L 235.304894 46.4817 
L 237.500242 48.59324 
L 239.69559 50.146944 
L 241.890937 47.392768 
L 244.086285 46.185094 
L 246.281633 50.458108 
L 248.476981 53.167898 
L 250.672329 51.166446 
L 252.867677 52.616098 
L 255.063025 57.080025 
L 257.258373 59.027275 
L 259.45372 61.677749 
L 261.649068 62.68825 
L 263.844416 59.722849 
L 266.039764 60.579218 
L 268.235112 62.990213 
L 270.43046 61.022184 
L 272.625808 62.65447 
L 274.821156 69.621413 
L 277.016503 71.5162 
L 279.211851 68.573949 
L 281.407199 68.419475 
L 283.602547 69.080166 
L 287.993243 63.568261 
L 290.188591 64.40318 
L 292.383939 67.236141 
L 294.579287 67.627472 
L 296.774634 64.894863 
L 298.969982 62.401407 
L 301.16533 61.79806 
L 303.360678 62.383364 
L 305.556026 61.108744 
L 307.751374 55.695788 
L 309.946722 50.804972 
L 312.14207 49.348814 
L 314.337417 46.546576 
L 316.532765 42.11955 
L 318.728113 40.080257 
L 320.923461 38.882897 
L 323.118809 36.84248 
L 325.314157 34.310909 
L 327.509505 31.115213 
L 329.704853 32.066227 
L 331.9002 36.523763 
L 334.095548 33.249647 
L 336.290896 24.437702 
L 338.486244 21.354408 
L 340.681592 21.166992 
L 342.87694 19.036429 
L 345.072288 16.737119 
L 347.267636 15.164992 
L 349.462983 17.039492 
L 351.658331 22.380342 
L 353.853679 25.549611 
L 356.049027 26.521352 
L 358.244375 30.171771 
L 360.439723 34.777827 
L 362.635071 36.149992 
L 364.830419 38.056676 
L 367.025767 42.63082 
L 369.221114 45.432125 
L 371.416462 47.467428 
L 373.61181 48.460275 
L 375.807158 45.260656 
L 378.002506 44.047208 
L 380.197854 43.602598 
L 382.393202 35.787388 
L 384.58855 29.749853 
L 386.783897 31.215985 
L 391.174593 30.936392 
L 393.369941 34.297841 
L 395.565289 35.865093 
L 397.760637 36.550715 
L 397.760637 36.550715 
" clip-path="url(#pcacbeaccb6)" style="fill: none; stroke: #aa3377; stroke-width: 1.2; stroke-linecap: round"/>
   </g>
   <g id="line2d_25">
    <path d="M 61.872411 60.730643 
L 64.067759 63.15219 
L 66.263107 70.136706 
L 68.458455 74.267164 
L 70.653803 71.605009 
L 72.849151 69.772888 
L 75.044499 74.553411 
L 77.239846 74.608088 
L 79.435194 67.522984 
L 81.630542 68.441982 
L 83.82589 70.817641 
L 88.216586 54.469156 
L 92.607282 46.095097 
L 94.802629 46.948737 
L 96.997977 51.34751 
L 99.193325 54.304662 
L 101.388673 57.887869 
L 103.584021 64.642529 
L 105.779369 65.579993 
L 107.974717 55.942002 
L 110.170065 58.176111 
L 112.365413 72.513999 
L 114.56076 70.164687 
L 116.756108 63.704486 
L 118.951456 67.336877 
L 121.146804 63.036993 
L 123.342152 61.220611 
L 125.5375 68.710786 
L 127.732848 65.5965 
L 129.928196 58.489322 
L 132.123543 57.238095 
L 134.318891 57.293508 
L 136.514239 56.955835 
L 138.709587 50.96938 
L 140.904935 50.504532 
L 143.100283 60.479331 
L 145.295631 58.521672 
L 147.490979 51.2068 
L 149.686326 56.195685 
L 151.881674 62.911156 
L 154.077022 68.467354 
L 156.27237 75.083422 
L 158.467718 77.055188 
L 160.663066 75.538945 
L 162.858414 73.682431 
L 165.053762 75.787196 
L 167.249109 81.431146 
L 169.444457 82.388144 
L 171.639805 77.695117 
L 173.835153 72.717773 
L 176.030501 72.310557 
L 178.225849 76.02599 
L 180.421197 81.659269 
L 182.616545 88.455629 
L 184.811893 86.931411 
L 187.00724 78.687905 
L 189.202588 78.629162 
L 191.397936 80.386949 
L 193.593284 75.359489 
L 195.788632 70.995908 
L 197.98398 69.52047 
L 200.179328 70.535734 
L 202.374676 73.640627 
L 204.570023 77.085104 
L 206.765371 80.045674 
L 208.960719 77.355446 
L 211.156067 74.436932 
L 213.351415 80.274019 
L 215.546763 82.361706 
L 217.742111 73.943862 
L 219.937459 67.379181 
L 222.132806 64.731754 
L 224.328154 63.169496 
L 226.523502 67.071027 
L 228.71885 70.12039 
L 230.914198 63.451175 
L 233.109546 58.498977 
L 235.304894 61.965652 
L 237.500242 58.210491 
L 239.69559 47.954729 
L 241.890937 48.024511 
L 244.086285 51.359433 
L 246.281633 47.564633 
L 248.476981 45.468823 
L 250.672329 46.126261 
L 252.867677 43.983284 
L 255.063025 43.969367 
L 257.258373 47.486664 
L 259.45372 48.54771 
L 261.649068 47.826371 
L 263.844416 49.485744 
L 266.039764 52.005878 
L 268.235112 54.00047 
L 270.43046 56.601956 
L 272.625808 58.178188 
L 274.821156 58.311769 
L 277.016503 56.692205 
L 279.211851 52.819719 
L 281.407199 53.075368 
L 283.602547 57.230386 
L 285.797895 59.802992 
L 287.993243 64.339603 
L 290.188591 63.969827 
L 292.383939 55.111979 
L 294.579287 55.160111 
L 296.774634 59.044134 
L 298.969982 54.860152 
L 301.16533 56.039371 
L 303.360678 58.270836 
L 305.556026 55.797011 
L 307.751374 63.398626 
L 309.946722 69.356836 
L 312.14207 65.818862 
L 316.532765 77.8491 
L 318.728113 72.706157 
L 320.923461 70.146928 
L 323.118809 68.875561 
L 325.314157 69.098371 
L 327.509505 79.466699 
L 329.704853 81.050776 
L 331.9002 68.251671 
L 334.095548 69.980773 
L 336.290896 83.688925 
L 338.486244 83.185256 
L 340.681592 75.972108 
L 342.87694 76.079304 
L 345.072288 76.920923 
L 347.267636 77.989145 
L 349.462983 82.293441 
L 351.658331 84.496179 
L 353.853679 85.658657 
L 356.049027 86.135293 
L 358.244375 78.277431 
L 360.439723 69.07356 
L 362.635071 69.129303 
L 364.830419 68.142452 
L 367.025767 63.142486 
L 369.221114 63.208232 
L 371.416462 61.094194 
L 373.61181 57.629393 
L 375.807158 64.113211 
L 378.002506 67.401989 
L 380.197854 61.171262 
L 382.393202 63.177388 
L 384.58855 71.605649 
L 386.783897 70.699082 
L 388.979245 64.942624 
L 391.174593 66.905292 
L 393.369941 72.72357 
L 395.565289 73.788108 
L 397.760637 76.540292 
L 397.760637 76.540292 
" clip-path="url(#pcacbeaccb6)" style="fill: none; stroke: #4477aa; stroke-width: 1.2; stroke-linecap: round"/>
   </g>
   <g id="line2d_26">
    <path d="M 61.872411 67.24452 
L 64.067759 70.693758 
L 66.263107 70.044669 
L 70.653803 64.312486 
L 72.849151 67.293358 
L 75.044499 71.14644 
L 77.239846 68.912268 
L 79.435194 64.007258 
L 81.630542 56.576068 
L 83.82589 50.768023 
L 86.021238 57.516219 
L 88.216586 64.972618 
L 90.411934 59.758662 
L 92.607282 56.248622 
L 94.802629 57.870509 
L 96.997977 53.171954 
L 99.193325 49.12951 
L 101.388673 52.416132 
L 103.584021 57.036644 
L 105.779369 62.140342 
L 107.974717 65.264155 
L 110.170065 60.60738 
L 112.365413 57.132606 
L 114.56076 62.775936 
L 116.756108 63.840573 
L 118.951456 57.923077 
L 121.146804 61.05612 
L 123.342152 66.033047 
L 125.5375 62.015056 
L 127.732848 61.015527 
L 129.928196 63.541147 
L 132.123543 62.511618 
L 134.318891 61.070829 
L 136.514239 56.866418 
L 138.709587 54.369325 
L 140.904935 62.085174 
L 143.100283 69.013349 
L 145.295631 67.367618 
L 147.490979 65.356008 
L 149.686326 68.010102 
L 151.881674 72.070528 
L 154.077022 70.77376 
L 156.27237 66.970457 
L 158.467718 69.419316 
L 160.663066 72.047525 
L 162.858414 68.679405 
L 165.053762 64.447208 
L 167.249109 59.811425 
L 169.444457 56.547941 
L 171.639805 57.293322 
L 173.835153 55.901047 
L 176.030501 53.988703 
L 178.225849 57.053504 
L 180.421197 59.76408 
L 184.811893 60.622275 
L 187.00724 61.051443 
L 189.202588 62.744815 
L 191.397936 63.523161 
L 193.593284 62.80086 
L 195.788632 63.27367 
L 197.98398 60.826175 
L 200.179328 57.248556 
L 202.374676 59.13803 
L 204.570023 60.730705 
L 206.765371 57.700903 
L 208.960719 53.781979 
L 211.156067 51.091179 
L 213.351415 51.370418 
L 215.546763 52.18862 
L 217.742111 50.666913 
L 219.937459 49.342819 
L 222.132806 46.811837 
L 224.328154 41.799106 
L 226.523502 38.77234 
L 228.71885 40.576759 
L 230.914198 45.006517 
L 233.109546 44.73083 
L 235.304894 40.946863 
L 237.500242 42.638593 
L 239.69559 43.554479 
L 241.890937 38.358667 
L 244.086285 34.983114 
L 246.281633 32.532356 
L 248.476981 29.763184 
L 250.672329 27.849756 
L 252.867677 23.475787 
L 255.063025 25.951766 
L 257.258373 34.332948 
L 259.45372 32.439118 
L 261.649068 30.853772 
L 263.844416 37.223089 
L 268.235112 36.267887 
L 270.43046 42.449842 
L 272.625808 43.250182 
L 274.821156 42.551089 
L 277.016503 43.575907 
L 279.211851 39.939716 
L 281.407199 38.983613 
L 283.602547 42.078627 
L 287.993243 43.173008 
L 290.188591 40.365496 
L 292.383939 34.514862 
L 294.579287 37.057617 
L 296.774634 44.322558 
L 298.969982 46.945935 
L 301.16533 46.045628 
L 303.360678 45.558121 
L 305.556026 50.908299 
L 307.751374 56.55258 
L 309.946722 56.480548 
L 314.337417 67.182713 
L 316.532765 60.776154 
L 318.728113 56.561966 
L 320.923461 59.343675 
L 323.118809 60.766314 
L 325.314157 61.279936 
L 327.509505 58.006719 
L 329.704853 56.727101 
L 331.9002 63.35233 
L 334.095548 65.215942 
L 336.290896 64.383172 
L 338.486244 68.985306 
L 340.681592 69.208661 
L 342.87694 66.86684 
L 345.072288 68.730621 
L 347.267636 67.341393 
L 349.462983 61.624423 
L 351.658331 56.965894 
L 353.853679 56.72504 
L 356.049027 61.609134 
L 358.244375 63.372496 
L 360.439723 60.724203 
L 362.635071 63.25435 
L 364.830419 68.130485 
L 367.025767 69.511685 
L 369.221114 71.369335 
L 371.416462 71.815445 
L 375.807158 64.052286 
L 378.002506 59.924704 
L 380.197854 58.111575 
L 382.393202 62.847889 
L 384.58855 64.473252 
L 386.783897 59.445538 
L 388.979245 59.989706 
L 391.174593 64.004364 
L 393.369941 60.970736 
L 395.565289 57.234796 
L 397.760637 60.237319 
L 397.760637 60.237319 
" clip-path="url(#pcacbeaccb6)" style="fill: none; stroke: #66ccee; stroke-width: 1.2; stroke-linecap: round"/>
   </g>
   <g id="line2d_27">
    <path d="M 61.872411 69.756899 
L 64.067759 74.415142 
L 66.263107 74.098838 
L 68.458455 71.497522 
L 70.653803 73.701828 
L 72.849151 75.604864 
L 77.239846 72.999188 
L 79.435194 73.62136 
L 81.630542 76.085502 
L 83.82589 76.705081 
L 86.021238 73.807136 
L 88.216586 71.792178 
L 90.411934 70.900787 
L 92.607282 69.058737 
L 94.802629 68.827907 
L 96.997977 70.419583 
L 99.193325 70.015761 
L 101.388673 69.064742 
L 103.584021 71.778587 
L 105.779369 71.046591 
L 107.974717 63.762321 
L 110.170065 64.322715 
L 112.365413 69.119009 
L 114.56076 63.869017 
L 116.756108 60.31405 
L 118.951456 62.316525 
L 121.146804 61.487015 
L 123.342152 65.653716 
L 125.5375 69.566835 
L 127.732848 65.732172 
L 129.928196 66.802089 
L 132.123543 69.742287 
L 134.318891 68.01188 
L 136.514239 67.183678 
L 138.709587 63.755797 
L 140.904935 62.601077 
L 143.100283 68.092242 
L 145.295631 67.201528 
L 147.490979 63.201741 
L 149.686326 64.958323 
L 151.881674 65.239827 
L 154.077022 65.06154 
L 156.27237 69.737796 
L 158.467718 73.961604 
L 160.663066 72.255065 
L 162.858414 67.109414 
L 165.053762 66.372328 
L 167.249109 70.385499 
L 169.444457 71.983688 
L 171.639805 69.821157 
L 173.835153 67.992618 
L 176.030501 69.907706 
L 178.225849 73.671795 
L 180.421197 75.862835 
L 182.616545 76.879223 
L 184.811893 74.94579 
L 187.00724 70.520625 
L 189.202588 67.624598 
L 191.397936 65.553843 
L 193.593284 64.678941 
L 195.788632 63.99815 
L 197.98398 61.63729 
L 200.179328 63.511527 
L 202.374676 66.892024 
L 204.570023 63.885338 
L 206.765371 61.388293 
L 208.960719 62.560299 
L 211.156067 61.058868 
L 213.351415 58.112143 
L 215.546763 54.771483 
L 217.742111 50.121256 
L 219.937459 48.589468 
L 222.132806 48.45043 
L 224.328154 45.197608 
L 226.523502 44.906615 
L 228.71885 47.676667 
L 230.914198 43.824362 
L 233.109546 39.138662 
L 235.304894 42.050985 
L 237.500242 42.32114 
L 239.69559 37.794734 
L 241.890937 39.034932 
L 244.086285 41.937504 
L 246.281633 38.342445 
L 248.476981 33.462322 
L 250.672329 33.611593 
L 252.867677 35.48059 
L 255.063025 33.886193 
L 257.258373 32.952629 
L 259.45372 36.14764 
L 261.649068 38.511477 
L 263.844416 39.746878 
L 266.039764 40.683078 
L 268.235112 39.085638 
L 270.43046 39.527707 
L 274.821156 50.061321 
L 277.016503 50.740846 
L 279.211851 46.869525 
L 281.407199 45.907484 
L 283.602547 47.703484 
L 285.797895 47.349874 
L 287.993243 50.683693 
L 290.188591 53.623343 
L 292.383939 49.178377 
L 294.579287 48.368009 
L 296.774634 50.770433 
L 298.969982 49.327506 
L 301.16533 51.202194 
L 303.360678 52.191838 
L 305.556026 47.908388 
L 307.751374 49.038586 
L 309.946722 51.609623 
L 312.14207 48.77586 
L 314.337417 48.876311 
L 316.532765 50.479831 
L 318.728113 47.538531 
L 320.923461 46.853658 
L 323.118809 49.968108 
L 325.314157 49.260777 
L 327.509505 46.225332 
L 329.704853 45.130963 
L 331.9002 43.16784 
L 334.095548 43.247698 
L 336.290896 47.791309 
L 338.486244 47.448454 
L 340.681592 42.173448 
L 342.87694 39.93437 
L 345.072288 38.448739 
L 347.267636 38.939059 
L 349.462983 43.716969 
L 353.853679 48.926318 
L 356.049027 51.576839 
L 358.244375 46.369486 
L 360.439723 41.953103 
L 362.635071 45.679965 
L 364.830419 45.673058 
L 367.025767 42.09029 
L 369.221114 42.882827 
L 371.416462 42.272059 
L 373.61181 40.570967 
L 375.807158 42.632571 
L 378.002506 41.306088 
L 380.197854 36.364194 
L 382.393202 36.707995 
L 384.58855 39.675983 
L 386.783897 38.633543 
L 388.979245 36.993836 
L 391.174593 39.588923 
L 393.369941 41.966278 
L 395.565289 41.045374 
L 397.760637 44.110794 
L 397.760637 44.110794 
" clip-path="url(#pcacbeaccb6)" style="fill: none; stroke: #228833; stroke-width: 1.2; stroke-linecap: round"/>
   </g>
   <g id="line2d_28">
    <path d="M 61.872411 72.261148 
L 64.067759 72.298266 
L 66.263107 67.97271 
L 68.458455 63.288407 
L 70.653803 64.171395 
L 72.849151 66.547644 
L 75.044499 63.990233 
L 77.239846 61.063887 
L 79.435194 60.820972 
L 81.630542 60.084473 
L 83.82589 61.314772 
L 86.021238 67.756193 
L 88.216586 71.786704 
L 90.411934 66.994765 
L 92.607282 62.729434 
L 94.802629 64.359691 
L 96.997977 63.585094 
L 99.193325 61.499347 
L 101.388673 62.13973 
L 103.584021 60.33411 
L 105.779369 59.646944 
L 107.974717 62.835235 
L 110.170065 60.166278 
L 112.365413 53.887546 
L 114.56076 54.037792 
L 116.756108 56.563548 
L 118.951456 57.217884 
L 121.146804 59.683715 
L 123.342152 62.506773 
L 127.732848 62.735601 
L 132.123543 66.616827 
L 134.318891 65.324447 
L 136.514239 60.757817 
L 138.709587 58.802187 
L 140.904935 62.752895 
L 143.100283 67.585196 
L 145.295631 67.300045 
L 147.490979 63.794529 
L 149.686326 65.250841 
L 151.881674 71.000076 
L 154.077022 70.725517 
L 156.27237 66.381735 
L 158.467718 66.666054 
L 160.663066 66.396139 
L 162.858414 62.822719 
L 165.053762 61.662476 
L 167.249109 58.507556 
L 169.444457 53.385128 
L 171.639805 55.323428 
L 173.835153 58.47035 
L 176.030501 57.41355 
L 178.225849 58.800178 
L 180.421197 58.577563 
L 182.616545 52.845432 
L 184.811893 50.639401 
L 187.00724 51.656213 
L 189.202588 49.149076 
L 191.397936 47.263917 
L 193.593284 49.837204 
L 195.788632 52.111845 
L 197.98398 50.447127 
L 200.179328 46.678417 
L 202.374676 44.273736 
L 204.570023 44.846136 
L 206.765371 46.875764 
L 208.960719 47.507221 
L 211.156067 45.995417 
L 213.351415 43.520515 
L 215.546763 41.317614 
L 217.742111 41.209471 
L 219.937459 42.654734 
L 222.132806 41.292214 
L 224.328154 37.163746 
L 226.523502 35.488677 
L 228.71885 37.037772 
L 230.914198 37.615927 
L 235.304894 31.133721 
L 237.500242 33.309651 
L 239.69559 36.273262 
L 244.086285 33.409127 
L 246.281633 31.194343 
L 248.476981 26.981559 
L 250.672329 26.430959 
L 252.867677 27.338328 
L 255.063025 27.679974 
L 257.258373 30.701826 
L 259.45372 31.195621 
L 261.649068 30.189101 
L 263.844416 34.870829 
L 266.039764 37.934221 
L 268.235112 35.805545 
L 270.43046 36.300809 
L 274.821156 41.437599 
L 277.016503 44.490741 
L 279.211851 44.357868 
L 281.407199 41.876673 
L 283.602547 43.264982 
L 285.797895 47.023609 
L 287.993243 47.245044 
L 292.383939 41.901393 
L 294.579287 40.919159 
L 296.774634 45.254964 
L 298.969982 51.468484 
L 301.16533 49.516768 
L 303.360678 44.545499 
L 305.556026 45.670085 
L 307.751374 46.441712 
L 309.946722 46.483734 
L 312.14207 50.148708 
L 314.337417 47.934401 
L 316.532765 42.568627 
L 318.728113 46.35549 
L 320.923461 49.75256 
L 323.118809 46.879544 
L 325.314157 45.188992 
L 327.509505 42.873275 
L 329.704853 44.234667 
L 331.9002 50.213467 
L 334.095548 47.841182 
L 336.290896 45.106488 
L 338.486244 49.388259 
L 340.681592 48.131659 
L 342.87694 47.654811 
L 345.072288 51.727654 
L 347.267636 46.895675 
L 349.462983 41.458243 
L 351.658331 42.913976 
L 353.853679 42.656515 
L 356.049027 44.003699 
L 358.244375 45.878521 
L 360.439723 42.802871 
L 362.635071 44.1474 
L 364.830419 49.549694 
L 367.025767 49.67486 
L 369.221114 47.972367 
L 371.416462 46.959764 
L 373.61181 44.784154 
L 375.807158 44.62161 
L 378.002506 46.169457 
L 380.197854 45.112959 
L 382.393202 43.171269 
L 384.58855 42.805549 
L 386.783897 39.542989 
L 388.979245 35.03201 
L 391.174593 37.543778 
L 393.369941 40.574215 
L 395.565289 37.897905 
L 397.760637 40.460044 
L 397.760637 40.460044 
" clip-path="url(#pcacbeaccb6)" style="fill: none; stroke: #ccbb44; stroke-width: 1.2; stroke-linecap: round"/>
   </g>
   <g id="line2d_29">
    <path d="M 61.872411 76.502089 
L 64.067759 77.518794 
L 66.263107 71.599453 
L 68.458455 68.090343 
L 70.653803 70.766701 
L 72.849151 73.013691 
L 75.044499 72.428593 
L 77.239846 70.318007 
L 79.435194 69.06514 
L 81.630542 70.437017 
L 86.021238 75.10282 
L 88.216586 77.047657 
L 90.411934 76.143449 
L 92.607282 73.806592 
L 94.802629 73.985692 
L 96.997977 75.184371 
L 99.193325 73.290362 
L 101.388673 69.675404 
L 103.584021 68.314439 
L 105.779369 68.323388 
L 107.974717 66.483845 
L 112.365413 58.802716 
L 114.56076 57.828711 
L 116.756108 59.410334 
L 121.146804 60.628759 
L 123.342152 63.042081 
L 125.5375 63.22828 
L 127.732848 62.253692 
L 132.123543 69.691328 
L 134.318891 67.21869 
L 136.514239 63.418938 
L 138.709587 62.520288 
L 140.904935 64.989969 
L 143.100283 67.719531 
L 145.295631 65.47667 
L 147.490979 62.530989 
L 149.686326 65.073807 
L 151.881674 68.095847 
L 154.077022 67.35715 
L 156.27237 67.338764 
L 158.467718 69.705696 
L 160.663066 69.20785 
L 162.858414 65.808739 
L 165.053762 63.776915 
L 167.249109 60.67776 
L 169.444457 57.962662 
L 171.639805 61.095477 
L 173.835153 64.613945 
L 176.030501 65.119413 
L 178.225849 66.445716 
L 180.421197 66.802874 
L 182.616545 64.415255 
L 184.811893 60.182357 
L 187.00724 55.69612 
L 189.202588 53.491426 
L 191.397936 52.037882 
L 193.593284 51.812652 
L 195.788632 53.082934 
L 197.98398 51.332257 
L 200.179328 50.742157 
L 202.374676 52.423239 
L 204.570023 47.554373 
L 206.765371 43.788186 
L 208.960719 49.091612 
L 211.156067 49.007647 
L 213.351415 40.29096 
L 215.546763 36.482659 
L 217.742111 37.543338 
L 219.937459 38.182088 
L 222.132806 38.210872 
L 224.328154 34.230052 
L 226.523502 30.544865 
L 228.71885 33.772493 
L 230.914198 33.582736 
L 233.109546 26.559357 
L 235.304894 26.282972 
L 237.500242 30.129825 
L 239.69559 28.685775 
L 241.890937 29.30775 
L 244.086285 31.179455 
L 248.476981 19.992648 
L 250.672329 20.339351 
L 252.867677 21.177047 
L 255.063025 23.328116 
L 257.258373 24.133389 
L 259.45372 20.131894 
L 261.649068 20.379996 
L 263.844416 25.999319 
L 266.039764 28.451916 
L 268.235112 27.892912 
L 270.43046 25.399412 
L 272.625808 24.543673 
L 274.821156 31.69686 
L 277.016503 37.818615 
L 279.211851 35.741465 
L 281.407199 34.906497 
L 283.602547 37.372884 
L 285.797895 39.629388 
L 287.993243 42.692843 
L 290.188591 41.105389 
L 292.383939 35.057137 
L 294.579287 35.543917 
L 296.774634 41.312791 
L 298.969982 44.714053 
L 301.16533 46.102054 
L 303.360678 43.593426 
L 305.556026 39.015551 
L 307.751374 41.192622 
L 309.946722 45.204471 
L 312.14207 42.694731 
L 314.337417 38.702801 
L 316.532765 35.453515 
L 318.728113 32.983497 
L 323.118809 36.888288 
L 325.314157 34.682339 
L 327.509505 32.171833 
L 329.704853 32.046346 
L 331.9002 33.957535 
L 334.095548 35.225888 
L 336.290896 34.689314 
L 338.486244 33.28473 
L 340.681592 30.641583 
L 342.87694 29.461749 
L 345.072288 29.94872 
L 349.462983 26.076727 
L 351.658331 26.744105 
L 353.853679 29.002287 
L 356.049027 31.535636 
L 358.244375 30.052617 
L 360.439723 26.993337 
L 362.635071 30.23094 
L 364.830419 35.657272 
L 367.025767 36.335742 
L 369.221114 34.870412 
L 371.416462 33.930403 
L 373.61181 33.221546 
L 375.807158 32.32174 
L 378.002506 30.0443 
L 380.197854 27.489917 
L 382.393202 26.68238 
L 384.58855 26.315915 
L 386.783897 24.975826 
L 388.979245 24.518162 
L 393.369941 29.270528 
L 395.565289 30.878327 
L 397.760637 36.450235 
L 397.760637 36.450235 
" clip-path="url(#pcacbeaccb6)" style="fill: none; stroke: #ee6677; stroke-width: 1.2; stroke-linecap: round"/>
   </g>
   <g id="line2d_30">
    <path d="M 61.872411 67.673974 
L 64.067759 67.337745 
L 66.263107 74.311028 
L 68.458455 75.090095 
L 70.653803 74.695975 
L 72.849151 77.884172 
L 75.044499 79.261718 
L 77.239846 82.51221 
L 79.435194 81.385207 
L 81.630542 72.668797 
L 86.021238 57.924306 
L 88.216586 56.78217 
L 90.411934 62.87308 
L 92.607282 59.726001 
L 94.802629 54.364471 
L 96.997977 60.269834 
L 99.193325 64.973875 
L 101.388673 65.297525 
L 103.584021 67.428346 
L 105.779369 64.017831 
L 107.974717 60.92837 
L 110.170065 69.079256 
L 112.365413 70.028948 
L 114.56076 57.287509 
L 116.756108 55.473692 
L 118.951456 62.584936 
L 121.146804 63.29657 
L 123.342152 67.747266 
L 125.5375 72.694229 
L 127.732848 66.969943 
L 129.928196 63.579583 
L 132.123543 65.031898 
L 136.514239 58.606097 
L 138.709587 59.404962 
L 140.904935 63.482479 
L 143.100283 66.068126 
L 147.490979 55.458558 
L 149.686326 57.849309 
L 151.881674 64.058929 
L 154.077022 69.11293 
L 156.27237 70.657663 
L 158.467718 72.358079 
L 160.663066 66.901951 
L 162.858414 51.94197 
L 165.053762 58.624192 
L 167.249109 83.432541 
L 169.444457 84.051695 
L 171.639805 73.022611 
L 173.835153 77.491659 
L 176.030501 78.776749 
L 178.225849 72.766694 
L 180.421197 78.265738 
L 182.616545 87.014089 
L 184.811893 83.119965 
L 187.00724 76.5281 
L 191.397936 77.249747 
L 193.593284 75.823901 
L 195.788632 72.877806 
L 197.98398 69.140046 
L 200.179328 69.296254 
L 202.374676 67.062421 
L 204.570023 65.120331 
L 206.765371 71.624382 
L 208.960719 71.553528 
L 211.156067 64.186384 
L 213.351415 64.340851 
L 215.546763 65.372367 
L 217.742111 61.458661 
L 219.937459 55.828723 
L 222.132806 53.321186 
L 224.328154 56.809826 
L 226.523502 55.75679 
L 228.71885 50.9887 
L 230.914198 48.800036 
L 233.109546 44.412718 
L 237.500242 49.608888 
L 239.69559 38.153561 
L 241.890937 39.276073 
L 244.086285 51.509302 
L 246.281633 44.414753 
L 248.476981 36.654472 
L 250.672329 40.753352 
L 252.867677 39.637504 
L 255.063025 39.688013 
L 257.258373 43.15683 
L 259.45372 40.77055 
L 261.649068 38.922093 
L 263.844416 39.751035 
L 266.039764 41.093222 
L 268.235112 45.400701 
L 270.43046 48.532451 
L 272.625808 49.684078 
L 274.821156 52.88897 
L 277.016503 51.835188 
L 279.211851 43.057505 
L 281.407199 41.476618 
L 283.602547 54.317866 
L 285.797895 64.695937 
L 287.993243 62.347312 
L 290.188591 53.705887 
L 292.383939 46.991734 
L 294.579287 49.186623 
L 296.774634 53.546702 
L 298.969982 52.318684 
L 301.16533 53.680241 
L 303.360678 54.332788 
L 305.556026 52.148552 
L 307.751374 57.654433 
L 309.946722 59.544207 
L 312.14207 55.730393 
L 314.337417 60.712196 
L 316.532765 61.227674 
L 318.728113 57.016011 
L 320.923461 60.201043 
L 323.118809 54.260077 
L 325.314157 50.822013 
L 327.509505 67.893152 
L 329.704853 68.20543 
L 331.9002 47.974135 
L 334.095548 51.45061 
L 336.290896 68.185618 
L 338.486244 67.448831 
L 340.681592 62.600647 
L 342.87694 62.776204 
L 345.072288 59.200029 
L 347.267636 56.656396 
L 349.462983 60.502731 
L 351.658331 66.251721 
L 353.853679 68.539078 
L 356.049027 65.902451 
L 358.244375 62.339855 
L 360.439723 58.428373 
L 362.635071 56.721984 
L 364.830419 62.366176 
L 367.025767 63.976564 
L 369.221114 55.566998 
L 371.416462 50.142681 
L 373.61181 50.584313 
L 375.807158 52.404639 
L 378.002506 51.27634 
L 380.197854 46.565029 
L 382.393202 50.83052 
L 384.58855 60.400698 
L 386.783897 60.54519 
L 388.979245 57.964827 
L 391.174593 56.849803 
L 393.369941 57.239371 
L 395.565289 66.759115 
L 397.760637 77.876916 
L 397.760637 77.876916 
" clip-path="url(#pcacbeaccb6)" style="fill: none; stroke: #aa3377; stroke-width: 1.2; stroke-linecap: round"/>
   </g>
   <g id="line2d_31">
    <path d="M 61.872411 71.138905 
L 64.067759 68.493414 
L 66.263107 70.044426 
L 68.458455 69.652732 
L 70.653803 69.421035 
L 72.849151 76.974382 
L 75.044499 78.233249 
L 77.239846 74.060072 
L 79.435194 76.005474 
L 81.630542 70.559461 
L 83.82589 58.671128 
L 86.021238 62.150931 
L 88.216586 70.359983 
L 90.411934 64.251834 
L 92.607282 55.353615 
L 94.802629 50.754233 
L 96.997977 47.241451 
L 99.193325 50.972222 
L 101.388673 57.706469 
L 103.584021 58.974702 
L 105.779369 58.590901 
L 107.974717 58.35153 
L 110.170065 56.989455 
L 112.365413 53.098781 
L 114.56076 49.900287 
L 116.756108 53.643351 
L 118.951456 56.712279 
L 121.146804 57.707644 
L 123.342152 64.029101 
L 125.5375 65.47197 
L 127.732848 61.067854 
L 129.928196 62.181023 
L 132.123543 64.318968 
L 134.318891 61.491929 
L 136.514239 53.374216 
L 138.709587 50.868977 
L 140.904935 64.912312 
L 143.100283 74.246477 
L 145.295631 67.548589 
L 147.490979 64.738347 
L 149.686326 67.810266 
L 151.881674 70.005057 
L 154.077022 71.113094 
L 156.27237 67.199815 
L 158.467718 64.467712 
L 160.663066 65.614252 
L 162.858414 64.328251 
L 165.053762 61.696725 
L 167.249109 57.122412 
L 169.444457 55.697829 
L 171.639805 60.14107 
L 173.835153 56.520019 
L 176.030501 52.073705 
L 178.225849 62.173323 
L 180.421197 69.565649 
L 182.616545 63.023556 
L 184.811893 58.317757 
L 187.00724 62.715324 
L 189.202588 65.460867 
L 191.397936 62.347504 
L 193.593284 62.434851 
L 195.788632 61.853578 
L 197.98398 54.794357 
L 200.179328 54.27416 
L 202.374676 57.87603 
L 204.570023 56.026776 
L 206.765371 58.53225 
L 208.960719 60.677282 
L 211.156067 53.068158 
L 213.351415 47.264021 
L 215.546763 46.579697 
L 217.742111 45.498192 
L 219.937459 43.649762 
L 222.132806 40.820612 
L 224.328154 38.889087 
L 226.523502 37.113127 
L 228.71885 36.985365 
L 230.914198 39.792973 
L 233.109546 36.417301 
L 235.304894 31.64446 
L 237.500242 34.402074 
L 239.69559 34.57639 
L 241.890937 34.315787 
L 244.086285 38.301452 
L 246.281633 33.891804 
L 248.476981 23.910523 
L 250.672329 16.890162 
L 252.867677 14.560909 
L 255.063025 23.870494 
L 257.258373 30.741864 
L 259.45372 22.929561 
L 261.649068 24.31649 
L 263.844416 37.823871 
L 266.039764 39.698227 
L 268.235112 35.008041 
L 272.625808 35.803993 
L 274.821156 38.164399 
L 277.016503 41.431915 
L 281.407199 33.306482 
L 283.602547 38.014497 
L 285.797895 45.582612 
L 287.993243 48.105192 
L 290.188591 42.192649 
L 292.383939 34.80551 
L 294.579287 36.421936 
L 296.774634 40.779454 
L 298.969982 42.747078 
L 301.16533 46.196077 
L 303.360678 46.631222 
L 305.556026 47.962839 
L 307.751374 54.29331 
L 309.946722 55.525089 
L 314.337417 55.615833 
L 316.532765 49.208736 
L 318.728113 49.73725 
L 320.923461 55.067097 
L 323.118809 53.548289 
L 325.314157 54.418018 
L 327.509505 51.76037 
L 329.704853 45.322273 
L 334.095548 61.040715 
L 336.290896 58.05451 
L 340.681592 59.764924 
L 342.87694 56.55644 
L 345.072288 56.796851 
L 347.267636 56.762325 
L 349.462983 53.79309 
L 351.658331 50.620455 
L 353.853679 49.463666 
L 356.049027 52.521216 
L 358.244375 53.517141 
L 360.439723 49.64493 
L 362.635071 50.498541 
L 364.830419 56.028785 
L 367.025767 57.815801 
L 369.221114 57.522665 
L 371.416462 55.267021 
L 373.61181 49.503459 
L 375.807158 49.670077 
L 378.002506 52.765049 
L 380.197854 49.1915 
L 382.393202 50.637249 
L 384.58855 55.587577 
L 386.783897 51.910003 
L 388.979245 55.340695 
L 391.174593 65.221055 
L 393.369941 61.330079 
L 395.565289 58.751429 
L 397.760637 69.647247 
L 397.760637 69.647247 
" clip-path="url(#pcacbeaccb6)" style="fill: none; stroke: #4477aa; stroke-width: 1.2; stroke-linecap: round"/>
   </g>
   <g id="patch_3">
    <path d="M 45.078 102.612 
L 45.078 10.368 
" style="fill: none; stroke: #262626; stroke-linejoin: miter; stroke-linecap: square"/>
   </g>
   <g id="patch_4">
    <path d="M 414.555048 102.612 
L 414.555048 10.368 
" style="fill: none; stroke: #262626; stroke-linejoin: miter; stroke-linecap: square"/>
   </g>
   <g id="patch_5">
    <path d="M 45.078 102.612 
L 414.555048 102.612 
" style="fill: none; stroke: #262626; stroke-linejoin: miter; stroke-linecap: square"/>
   </g>
   <g id="patch_6">
    <path d="M 45.078 10.368 
L 414.555048 10.368 
" style="fill: none; stroke: #262626; stroke-linejoin: miter; stroke-linecap: square"/>
   </g>
  </g>
 </g>
 <defs>
  <clipPath id="pcacbeaccb6">
   <rect x="45.078" y="10.368" width="369.477048" height="92.244"/>
  </clipPath>
 </defs>
</svg>
