<?xml version="1.0" encoding="utf-8" standalone="no"?>
<!DOCTYPE svg PUBLIC "-//W3C//DTD SVG 1.1//EN"
  "http://www.w3.org/Graphics/SVG/1.1/DTD/svg11.dtd">
<svg xmlns:xlink="http://www.w3.org/1999/xlink" width="576pt" height="288pt" viewBox="0 0 576 288" xmlns="http://www.w3.org/2000/svg" version="1.1">
 <metadata>
  <rdf:RDF xmlns:dc="http://purl.org/dc/elements/1.1/" xmlns:cc="http://creativecommons.org/ns#" xmlns:rdf="http://www.w3.org/1999/02/22-rdf-syntax-ns#">
   <cc:Work>
    <dc:type rdf:resource="http://purl.org/dc/dcmitype/StillImage"/>
    <dc:date>2025-01-13T14:44:13.623573</dc:date>
    <dc:format>image/svg+xml</dc:format>
    <dc:creator>
     <cc:Agent>
      <dc:title>Matplotlib v3.10.0, https://matplotlib.org/</dc:title>
     </cc:Agent>
    </dc:creator>
   </cc:Work>
  </rdf:RDF>
 </metadata>
 <defs>
  <style type="text/css">*{stroke-linejoin: round; stroke-linecap: butt}</style>
 </defs>
 <g id="figure_1">
  <g id="patch_1">
   <path d="M 0 288 
L 576 288 
L 576 0 
L 0 0 
L 0 288 
z
" style="fill: none"/>
  </g>
  <g id="axes_1">
   <g id="patch_2">
    <path d="M 57.228 226.252302 
L 565.632 226.252302 
L 565.632 10.368 
L 57.228 10.368 
L 57.228 226.252302 
z
" style="fill: none"/>
   </g>
   <g id="matplotlib.axis_1">
    <g id="xtick_1">
     <g id="line2d_1">
      <defs>
       <path id="me8c171c9f7" d="M 0 0 
L 0 4.8 
" style="stroke: #262626"/>
      </defs>
      <g>
       <use xlink:href="#me8c171c9f7" x="151.884096" y="226.252302" style="fill: #262626; stroke: #262626"/>
      </g>
     </g>
     <g id="text_1">
      <!-- IR/CR -->
      <g style="fill: #262626" transform="translate(145.13896 256.204796) rotate(-45) scale(0.088 -0.088)">
       <defs>
        <path id="DejaVuSans-49" d="M 628 4666 
L 1259 4666 
L 1259 0 
L 628 0 
L 628 4666 
z
" transform="scale(0.015625)"/>
        <path id="DejaVuSans-52" d="M 2841 2188 
Q 3044 2119 3236 1894 
Q 3428 1669 3622 1275 
L 4263 0 
L 3584 0 
L 2988 1197 
Q 2756 1666 2539 1819 
Q 2322 1972 1947 1972 
L 1259 1972 
L 1259 0 
L 628 0 
L 628 4666 
L 2053 4666 
Q 2853 4666 3247 4331 
Q 3641 3997 3641 3322 
Q 3641 2881 3436 2590 
Q 3231 2300 2841 2188 
z
M 1259 4147 
L 1259 2491 
L 2053 2491 
Q 2509 2491 2742 2702 
Q 2975 2913 2975 3322 
Q 2975 3731 2742 3939 
Q 2509 4147 2053 4147 
L 1259 4147 
z
" transform="scale(0.015625)"/>
        <path id="DejaVuSans-2f" d="M 1625 4666 
L 2156 4666 
L 531 -594 
L 0 -594 
L 1625 4666 
z
" transform="scale(0.015625)"/>
        <path id="DejaVuSans-43" d="M 4122 4306 
L 4122 3641 
Q 3803 3938 3442 4084 
Q 3081 4231 2675 4231 
Q 1875 4231 1450 3742 
Q 1025 3253 1025 2328 
Q 1025 1406 1450 917 
Q 1875 428 2675 428 
Q 3081 428 3442 575 
Q 3803 722 4122 1019 
L 4122 359 
Q 3791 134 3420 21 
Q 3050 -91 2638 -91 
Q 1578 -91 968 557 
Q 359 1206 359 2328 
Q 359 3453 968 4101 
Q 1578 4750 2638 4750 
Q 3056 4750 3426 4639 
Q 3797 4528 4122 4306 
z
" transform="scale(0.015625)"/>
       </defs>
       <use xlink:href="#DejaVuSans-49"/>
       <use xlink:href="#DejaVuSans-52" transform="translate(29.492188 0)"/>
       <use xlink:href="#DejaVuSans-2f" transform="translate(98.974609 0)"/>
       <use xlink:href="#DejaVuSans-43" transform="translate(132.666016 0)"/>
       <use xlink:href="#DejaVuSans-52" transform="translate(202.490234 0)"/>
      </g>
     </g>
    </g>
    <g id="xtick_2">
     <g id="line2d_2">
      <g>
       <use xlink:href="#me8c171c9f7" x="330.751154" y="226.252302" style="fill: #262626; stroke: #262626"/>
      </g>
     </g>
     <g id="text_2">
      <!-- CCR/IIR -->
      <g style="fill: #262626" transform="translate(320.915652 262.385527) rotate(-45) scale(0.088 -0.088)">
       <use xlink:href="#DejaVuSans-43"/>
       <use xlink:href="#DejaVuSans-43" transform="translate(69.824219 0)"/>
       <use xlink:href="#DejaVuSans-52" transform="translate(139.648438 0)"/>
       <use xlink:href="#DejaVuSans-2f" transform="translate(209.130859 0)"/>
       <use xlink:href="#DejaVuSans-49" transform="translate(242.822266 0)"/>
       <use xlink:href="#DejaVuSans-49" transform="translate(272.314453 0)"/>
       <use xlink:href="#DejaVuSans-52" transform="translate(301.806641 0)"/>
      </g>
     </g>
    </g>
    <g id="xtick_3">
     <g id="line2d_3">
      <g>
       <use xlink:href="#me8c171c9f7" x="509.618213" y="226.252302" style="fill: #262626; stroke: #262626"/>
      </g>
     </g>
     <g id="text_3">
      <!-- ICR/CIR -->
      <g style="fill: #262626" transform="translate(499.782711 262.385527) rotate(-45) scale(0.088 -0.088)">
       <use xlink:href="#DejaVuSans-49"/>
       <use xlink:href="#DejaVuSans-43" transform="translate(29.492188 0)"/>
       <use xlink:href="#DejaVuSans-52" transform="translate(99.316406 0)"/>
       <use xlink:href="#DejaVuSans-2f" transform="translate(168.798828 0)"/>
       <use xlink:href="#DejaVuSans-43" transform="translate(202.490234 0)"/>
       <use xlink:href="#DejaVuSans-49" transform="translate(272.314453 0)"/>
       <use xlink:href="#DejaVuSans-52" transform="translate(301.806641 0)"/>
      </g>
     </g>
    </g>
    <g id="text_4">
     <!-- EMG Sequence Groups -->
     <g style="fill: #262626" transform="translate(256.69575 274.974121) scale(0.096 -0.096)">
      <defs>
       <path id="DejaVuSans-45" d="M 628 4666 
L 3578 4666 
L 3578 4134 
L 1259 4134 
L 1259 2753 
L 3481 2753 
L 3481 2222 
L 1259 2222 
L 1259 531 
L 3634 531 
L 3634 0 
L 628 0 
L 628 4666 
z
" transform="scale(0.015625)"/>
       <path id="DejaVuSans-4d" d="M 628 4666 
L 1569 4666 
L 2759 1491 
L 3956 4666 
L 4897 4666 
L 4897 0 
L 4281 0 
L 4281 4097 
L 3078 897 
L 2444 897 
L 1241 4097 
L 1241 0 
L 628 0 
L 628 4666 
z
" transform="scale(0.015625)"/>
       <path id="DejaVuSans-47" d="M 3809 666 
L 3809 1919 
L 2778 1919 
L 2778 2438 
L 4434 2438 
L 4434 434 
Q 4069 175 3628 42 
Q 3188 -91 2688 -91 
Q 1594 -91 976 548 
Q 359 1188 359 2328 
Q 359 3472 976 4111 
Q 1594 4750 2688 4750 
Q 3144 4750 3555 4637 
Q 3966 4525 4313 4306 
L 4313 3634 
Q 3963 3931 3569 4081 
Q 3175 4231 2741 4231 
Q 1884 4231 1454 3753 
Q 1025 3275 1025 2328 
Q 1025 1384 1454 906 
Q 1884 428 2741 428 
Q 3075 428 3337 486 
Q 3600 544 3809 666 
z
" transform="scale(0.015625)"/>
       <path id="DejaVuSans-20" transform="scale(0.015625)"/>
       <path id="DejaVuSans-53" d="M 3425 4513 
L 3425 3897 
Q 3066 4069 2747 4153 
Q 2428 4238 2131 4238 
Q 1616 4238 1336 4038 
Q 1056 3838 1056 3469 
Q 1056 3159 1242 3001 
Q 1428 2844 1947 2747 
L 2328 2669 
Q 3034 2534 3370 2195 
Q 3706 1856 3706 1288 
Q 3706 609 3251 259 
Q 2797 -91 1919 -91 
Q 1588 -91 1214 -16 
Q 841 59 441 206 
L 441 856 
Q 825 641 1194 531 
Q 1563 422 1919 422 
Q 2459 422 2753 634 
Q 3047 847 3047 1241 
Q 3047 1584 2836 1778 
Q 2625 1972 2144 2069 
L 1759 2144 
Q 1053 2284 737 2584 
Q 422 2884 422 3419 
Q 422 4038 858 4394 
Q 1294 4750 2059 4750 
Q 2388 4750 2728 4690 
Q 3069 4631 3425 4513 
z
" transform="scale(0.015625)"/>
       <path id="DejaVuSans-65" d="M 3597 1894 
L 3597 1613 
L 953 1613 
Q 991 1019 1311 708 
Q 1631 397 2203 397 
Q 2534 397 2845 478 
Q 3156 559 3463 722 
L 3463 178 
Q 3153 47 2828 -22 
Q 2503 -91 2169 -91 
Q 1331 -91 842 396 
Q 353 884 353 1716 
Q 353 2575 817 3079 
Q 1281 3584 2069 3584 
Q 2775 3584 3186 3129 
Q 3597 2675 3597 1894 
z
M 3022 2063 
Q 3016 2534 2758 2815 
Q 2500 3097 2075 3097 
Q 1594 3097 1305 2825 
Q 1016 2553 972 2059 
L 3022 2063 
z
" transform="scale(0.015625)"/>
       <path id="DejaVuSans-71" d="M 947 1747 
Q 947 1113 1208 752 
Q 1469 391 1925 391 
Q 2381 391 2643 752 
Q 2906 1113 2906 1747 
Q 2906 2381 2643 2742 
Q 2381 3103 1925 3103 
Q 1469 3103 1208 2742 
Q 947 2381 947 1747 
z
M 2906 525 
Q 2725 213 2448 61 
Q 2172 -91 1784 -91 
Q 1150 -91 751 415 
Q 353 922 353 1747 
Q 353 2572 751 3078 
Q 1150 3584 1784 3584 
Q 2172 3584 2448 3432 
Q 2725 3281 2906 2969 
L 2906 3500 
L 3481 3500 
L 3481 -1331 
L 2906 -1331 
L 2906 525 
z
" transform="scale(0.015625)"/>
       <path id="DejaVuSans-75" d="M 544 1381 
L 544 3500 
L 1119 3500 
L 1119 1403 
Q 1119 906 1312 657 
Q 1506 409 1894 409 
Q 2359 409 2629 706 
Q 2900 1003 2900 1516 
L 2900 3500 
L 3475 3500 
L 3475 0 
L 2900 0 
L 2900 538 
Q 2691 219 2414 64 
Q 2138 -91 1772 -91 
Q 1169 -91 856 284 
Q 544 659 544 1381 
z
M 1991 3584 
L 1991 3584 
z
" transform="scale(0.015625)"/>
       <path id="DejaVuSans-6e" d="M 3513 2113 
L 3513 0 
L 2938 0 
L 2938 2094 
Q 2938 2591 2744 2837 
Q 2550 3084 2163 3084 
Q 1697 3084 1428 2787 
Q 1159 2491 1159 1978 
L 1159 0 
L 581 0 
L 581 3500 
L 1159 3500 
L 1159 2956 
Q 1366 3272 1645 3428 
Q 1925 3584 2291 3584 
Q 2894 3584 3203 3211 
Q 3513 2838 3513 2113 
z
" transform="scale(0.015625)"/>
       <path id="DejaVuSans-63" d="M 3122 3366 
L 3122 2828 
Q 2878 2963 2633 3030 
Q 2388 3097 2138 3097 
Q 1578 3097 1268 2742 
Q 959 2388 959 1747 
Q 959 1106 1268 751 
Q 1578 397 2138 397 
Q 2388 397 2633 464 
Q 2878 531 3122 666 
L 3122 134 
Q 2881 22 2623 -34 
Q 2366 -91 2075 -91 
Q 1284 -91 818 406 
Q 353 903 353 1747 
Q 353 2603 823 3093 
Q 1294 3584 2113 3584 
Q 2378 3584 2631 3529 
Q 2884 3475 3122 3366 
z
" transform="scale(0.015625)"/>
       <path id="DejaVuSans-72" d="M 2631 2963 
Q 2534 3019 2420 3045 
Q 2306 3072 2169 3072 
Q 1681 3072 1420 2755 
Q 1159 2438 1159 1844 
L 1159 0 
L 581 0 
L 581 3500 
L 1159 3500 
L 1159 2956 
Q 1341 3275 1631 3429 
Q 1922 3584 2338 3584 
Q 2397 3584 2469 3576 
Q 2541 3569 2628 3553 
L 2631 2963 
z
" transform="scale(0.015625)"/>
       <path id="DejaVuSans-6f" d="M 1959 3097 
Q 1497 3097 1228 2736 
Q 959 2375 959 1747 
Q 959 1119 1226 758 
Q 1494 397 1959 397 
Q 2419 397 2687 759 
Q 2956 1122 2956 1747 
Q 2956 2369 2687 2733 
Q 2419 3097 1959 3097 
z
M 1959 3584 
Q 2709 3584 3137 3096 
Q 3566 2609 3566 1747 
Q 3566 888 3137 398 
Q 2709 -91 1959 -91 
Q 1206 -91 779 398 
Q 353 888 353 1747 
Q 353 2609 779 3096 
Q 1206 3584 1959 3584 
z
" transform="scale(0.015625)"/>
       <path id="DejaVuSans-70" d="M 1159 525 
L 1159 -1331 
L 581 -1331 
L 581 3500 
L 1159 3500 
L 1159 2969 
Q 1341 3281 1617 3432 
Q 1894 3584 2278 3584 
Q 2916 3584 3314 3078 
Q 3713 2572 3713 1747 
Q 3713 922 3314 415 
Q 2916 -91 2278 -91 
Q 1894 -91 1617 61 
Q 1341 213 1159 525 
z
M 3116 1747 
Q 3116 2381 2855 2742 
Q 2594 3103 2138 3103 
Q 1681 3103 1420 2742 
Q 1159 2381 1159 1747 
Q 1159 1113 1420 752 
Q 1681 391 2138 391 
Q 2594 391 2855 752 
Q 3116 1113 3116 1747 
z
" transform="scale(0.015625)"/>
       <path id="DejaVuSans-73" d="M 2834 3397 
L 2834 2853 
Q 2591 2978 2328 3040 
Q 2066 3103 1784 3103 
Q 1356 3103 1142 2972 
Q 928 2841 928 2578 
Q 928 2378 1081 2264 
Q 1234 2150 1697 2047 
L 1894 2003 
Q 2506 1872 2764 1633 
Q 3022 1394 3022 966 
Q 3022 478 2636 193 
Q 2250 -91 1575 -91 
Q 1294 -91 989 -36 
Q 684 19 347 128 
L 347 722 
Q 666 556 975 473 
Q 1284 391 1588 391 
Q 1994 391 2212 530 
Q 2431 669 2431 922 
Q 2431 1156 2273 1281 
Q 2116 1406 1581 1522 
L 1381 1569 
Q 847 1681 609 1914 
Q 372 2147 372 2553 
Q 372 3047 722 3315 
Q 1072 3584 1716 3584 
Q 2034 3584 2315 3537 
Q 2597 3491 2834 3397 
z
" transform="scale(0.015625)"/>
      </defs>
      <use xlink:href="#DejaVuSans-45"/>
      <use xlink:href="#DejaVuSans-4d" transform="translate(63.183594 0)"/>
      <use xlink:href="#DejaVuSans-47" transform="translate(149.462891 0)"/>
      <use xlink:href="#DejaVuSans-20" transform="translate(226.953125 0)"/>
      <use xlink:href="#DejaVuSans-53" transform="translate(258.740234 0)"/>
      <use xlink:href="#DejaVuSans-65" transform="translate(322.216797 0)"/>
      <use xlink:href="#DejaVuSans-71" transform="translate(383.740234 0)"/>
      <use xlink:href="#DejaVuSans-75" transform="translate(447.216797 0)"/>
      <use xlink:href="#DejaVuSans-65" transform="translate(510.595703 0)"/>
      <use xlink:href="#DejaVuSans-6e" transform="translate(572.119141 0)"/>
      <use xlink:href="#DejaVuSans-63" transform="translate(635.498047 0)"/>
      <use xlink:href="#DejaVuSans-65" transform="translate(690.478516 0)"/>
      <use xlink:href="#DejaVuSans-20" transform="translate(752.001953 0)"/>
      <use xlink:href="#DejaVuSans-47" transform="translate(783.789062 0)"/>
      <use xlink:href="#DejaVuSans-72" transform="translate(861.279297 0)"/>
      <use xlink:href="#DejaVuSans-6f" transform="translate(900.142578 0)"/>
      <use xlink:href="#DejaVuSans-75" transform="translate(961.324219 0)"/>
      <use xlink:href="#DejaVuSans-70" transform="translate(1024.703125 0)"/>
      <use xlink:href="#DejaVuSans-73" transform="translate(1088.179688 0)"/>
     </g>
    </g>
   </g>
   <g id="matplotlib.axis_2">
    <g id="ytick_1">
     <g id="line2d_4">
      <defs>
       <path id="m6e9de54b25" d="M 0 0 
L -4.8 0 
" style="stroke: #262626"/>
      </defs>
      <g>
       <use xlink:href="#m6e9de54b25" x="57.228" y="216.573041" style="fill: #262626; stroke: #262626"/>
      </g>
     </g>
     <g id="text_5">
      <!-- 0.000 -->
      <g style="fill: #262626" transform="translate(23.73525 219.916353) scale(0.088 -0.088)">
       <defs>
        <path id="DejaVuSans-30" d="M 2034 4250 
Q 1547 4250 1301 3770 
Q 1056 3291 1056 2328 
Q 1056 1369 1301 889 
Q 1547 409 2034 409 
Q 2525 409 2770 889 
Q 3016 1369 3016 2328 
Q 3016 3291 2770 3770 
Q 2525 4250 2034 4250 
z
M 2034 4750 
Q 2819 4750 3233 4129 
Q 3647 3509 3647 2328 
Q 3647 1150 3233 529 
Q 2819 -91 2034 -91 
Q 1250 -91 836 529 
Q 422 1150 422 2328 
Q 422 3509 836 4129 
Q 1250 4750 2034 4750 
z
" transform="scale(0.015625)"/>
        <path id="DejaVuSans-2e" d="M 684 794 
L 1344 794 
L 1344 0 
L 684 0 
L 684 794 
z
" transform="scale(0.015625)"/>
       </defs>
       <use xlink:href="#DejaVuSans-30"/>
       <use xlink:href="#DejaVuSans-2e" transform="translate(63.623047 0)"/>
       <use xlink:href="#DejaVuSans-30" transform="translate(95.410156 0)"/>
       <use xlink:href="#DejaVuSans-30" transform="translate(159.033203 0)"/>
       <use xlink:href="#DejaVuSans-30" transform="translate(222.65625 0)"/>
      </g>
     </g>
    </g>
    <g id="ytick_2">
     <g id="line2d_5">
      <g>
       <use xlink:href="#m6e9de54b25" x="57.228" y="185.886964" style="fill: #262626; stroke: #262626"/>
      </g>
     </g>
     <g id="text_6">
      <!-- 0.002 -->
      <g style="fill: #262626" transform="translate(23.73525 189.230277) scale(0.088 -0.088)">
       <defs>
        <path id="DejaVuSans-32" d="M 1228 531 
L 3431 531 
L 3431 0 
L 469 0 
L 469 531 
Q 828 903 1448 1529 
Q 2069 2156 2228 2338 
Q 2531 2678 2651 2914 
Q 2772 3150 2772 3378 
Q 2772 3750 2511 3984 
Q 2250 4219 1831 4219 
Q 1534 4219 1204 4116 
Q 875 4013 500 3803 
L 500 4441 
Q 881 4594 1212 4672 
Q 1544 4750 1819 4750 
Q 2544 4750 2975 4387 
Q 3406 4025 3406 3419 
Q 3406 3131 3298 2873 
Q 3191 2616 2906 2266 
Q 2828 2175 2409 1742 
Q 1991 1309 1228 531 
z
" transform="scale(0.015625)"/>
       </defs>
       <use xlink:href="#DejaVuSans-30"/>
       <use xlink:href="#DejaVuSans-2e" transform="translate(63.623047 0)"/>
       <use xlink:href="#DejaVuSans-30" transform="translate(95.410156 0)"/>
       <use xlink:href="#DejaVuSans-30" transform="translate(159.033203 0)"/>
       <use xlink:href="#DejaVuSans-32" transform="translate(222.65625 0)"/>
      </g>
     </g>
    </g>
    <g id="ytick_3">
     <g id="line2d_6">
      <g>
       <use xlink:href="#m6e9de54b25" x="57.228" y="155.200888" style="fill: #262626; stroke: #262626"/>
      </g>
     </g>
     <g id="text_7">
      <!-- 0.004 -->
      <g style="fill: #262626" transform="translate(23.73525 158.5442) scale(0.088 -0.088)">
       <defs>
        <path id="DejaVuSans-34" d="M 2419 4116 
L 825 1625 
L 2419 1625 
L 2419 4116 
z
M 2253 4666 
L 3047 4666 
L 3047 1625 
L 3713 1625 
L 3713 1100 
L 3047 1100 
L 3047 0 
L 2419 0 
L 2419 1100 
L 313 1100 
L 313 1709 
L 2253 4666 
z
" transform="scale(0.015625)"/>
       </defs>
       <use xlink:href="#DejaVuSans-30"/>
       <use xlink:href="#DejaVuSans-2e" transform="translate(63.623047 0)"/>
       <use xlink:href="#DejaVuSans-30" transform="translate(95.410156 0)"/>
       <use xlink:href="#DejaVuSans-30" transform="translate(159.033203 0)"/>
       <use xlink:href="#DejaVuSans-34" transform="translate(222.65625 0)"/>
      </g>
     </g>
    </g>
    <g id="ytick_4">
     <g id="line2d_7">
      <g>
       <use xlink:href="#m6e9de54b25" x="57.228" y="124.514811" style="fill: #262626; stroke: #262626"/>
      </g>
     </g>
     <g id="text_8">
      <!-- 0.006 -->
      <g style="fill: #262626" transform="translate(23.73525 127.858124) scale(0.088 -0.088)">
       <defs>
        <path id="DejaVuSans-36" d="M 2113 2584 
Q 1688 2584 1439 2293 
Q 1191 2003 1191 1497 
Q 1191 994 1439 701 
Q 1688 409 2113 409 
Q 2538 409 2786 701 
Q 3034 994 3034 1497 
Q 3034 2003 2786 2293 
Q 2538 2584 2113 2584 
z
M 3366 4563 
L 3366 3988 
Q 3128 4100 2886 4159 
Q 2644 4219 2406 4219 
Q 1781 4219 1451 3797 
Q 1122 3375 1075 2522 
Q 1259 2794 1537 2939 
Q 1816 3084 2150 3084 
Q 2853 3084 3261 2657 
Q 3669 2231 3669 1497 
Q 3669 778 3244 343 
Q 2819 -91 2113 -91 
Q 1303 -91 875 529 
Q 447 1150 447 2328 
Q 447 3434 972 4092 
Q 1497 4750 2381 4750 
Q 2619 4750 2861 4703 
Q 3103 4656 3366 4563 
z
" transform="scale(0.015625)"/>
       </defs>
       <use xlink:href="#DejaVuSans-30"/>
       <use xlink:href="#DejaVuSans-2e" transform="translate(63.623047 0)"/>
       <use xlink:href="#DejaVuSans-30" transform="translate(95.410156 0)"/>
       <use xlink:href="#DejaVuSans-30" transform="translate(159.033203 0)"/>
       <use xlink:href="#DejaVuSans-36" transform="translate(222.65625 0)"/>
      </g>
     </g>
    </g>
    <g id="ytick_5">
     <g id="line2d_8">
      <g>
       <use xlink:href="#m6e9de54b25" x="57.228" y="93.828735" style="fill: #262626; stroke: #262626"/>
      </g>
     </g>
     <g id="text_9">
      <!-- 0.008 -->
      <g style="fill: #262626" transform="translate(23.73525 97.172047) scale(0.088 -0.088)">
       <defs>
        <path id="DejaVuSans-38" d="M 2034 2216 
Q 1584 2216 1326 1975 
Q 1069 1734 1069 1313 
Q 1069 891 1326 650 
Q 1584 409 2034 409 
Q 2484 409 2743 651 
Q 3003 894 3003 1313 
Q 3003 1734 2745 1975 
Q 2488 2216 2034 2216 
z
M 1403 2484 
Q 997 2584 770 2862 
Q 544 3141 544 3541 
Q 544 4100 942 4425 
Q 1341 4750 2034 4750 
Q 2731 4750 3128 4425 
Q 3525 4100 3525 3541 
Q 3525 3141 3298 2862 
Q 3072 2584 2669 2484 
Q 3125 2378 3379 2068 
Q 3634 1759 3634 1313 
Q 3634 634 3220 271 
Q 2806 -91 2034 -91 
Q 1263 -91 848 271 
Q 434 634 434 1313 
Q 434 1759 690 2068 
Q 947 2378 1403 2484 
z
M 1172 3481 
Q 1172 3119 1398 2916 
Q 1625 2713 2034 2713 
Q 2441 2713 2670 2916 
Q 2900 3119 2900 3481 
Q 2900 3844 2670 4047 
Q 2441 4250 2034 4250 
Q 1625 4250 1398 4047 
Q 1172 3844 1172 3481 
z
" transform="scale(0.015625)"/>
       </defs>
       <use xlink:href="#DejaVuSans-30"/>
       <use xlink:href="#DejaVuSans-2e" transform="translate(63.623047 0)"/>
       <use xlink:href="#DejaVuSans-30" transform="translate(95.410156 0)"/>
       <use xlink:href="#DejaVuSans-30" transform="translate(159.033203 0)"/>
       <use xlink:href="#DejaVuSans-38" transform="translate(222.65625 0)"/>
      </g>
     </g>
    </g>
    <g id="ytick_6">
     <g id="line2d_9">
      <g>
       <use xlink:href="#m6e9de54b25" x="57.228" y="63.142658" style="fill: #262626; stroke: #262626"/>
      </g>
     </g>
     <g id="text_10">
      <!-- 0.010 -->
      <g style="fill: #262626" transform="translate(23.73525 66.485971) scale(0.088 -0.088)">
       <defs>
        <path id="DejaVuSans-31" d="M 794 531 
L 1825 531 
L 1825 4091 
L 703 3866 
L 703 4441 
L 1819 4666 
L 2450 4666 
L 2450 531 
L 3481 531 
L 3481 0 
L 794 0 
L 794 531 
z
" transform="scale(0.015625)"/>
       </defs>
       <use xlink:href="#DejaVuSans-30"/>
       <use xlink:href="#DejaVuSans-2e" transform="translate(63.623047 0)"/>
       <use xlink:href="#DejaVuSans-30" transform="translate(95.410156 0)"/>
       <use xlink:href="#DejaVuSans-31" transform="translate(159.033203 0)"/>
       <use xlink:href="#DejaVuSans-30" transform="translate(222.65625 0)"/>
      </g>
     </g>
    </g>
    <g id="ytick_7">
     <g id="line2d_10">
      <g>
       <use xlink:href="#m6e9de54b25" x="57.228" y="32.456582" style="fill: #262626; stroke: #262626"/>
      </g>
     </g>
     <g id="text_11">
      <!-- 0.012 -->
      <g style="fill: #262626" transform="translate(23.73525 35.799894) scale(0.088 -0.088)">
       <use xlink:href="#DejaVuSans-30"/>
       <use xlink:href="#DejaVuSans-2e" transform="translate(63.623047 0)"/>
       <use xlink:href="#DejaVuSans-30" transform="translate(95.410156 0)"/>
       <use xlink:href="#DejaVuSans-31" transform="translate(159.033203 0)"/>
       <use xlink:href="#DejaVuSans-32" transform="translate(222.65625 0)"/>
      </g>
     </g>
    </g>
    <g id="text_12">
     <!-- Average Confirmation Probability -->
     <g style="fill: #262626" transform="translate(17.73875 197.498901) rotate(-90) scale(0.096 -0.096)">
      <defs>
       <path id="DejaVuSans-41" d="M 2188 4044 
L 1331 1722 
L 3047 1722 
L 2188 4044 
z
M 1831 4666 
L 2547 4666 
L 4325 0 
L 3669 0 
L 3244 1197 
L 1141 1197 
L 716 0 
L 50 0 
L 1831 4666 
z
" transform="scale(0.015625)"/>
       <path id="DejaVuSans-76" d="M 191 3500 
L 800 3500 
L 1894 563 
L 2988 3500 
L 3597 3500 
L 2284 0 
L 1503 0 
L 191 3500 
z
" transform="scale(0.015625)"/>
       <path id="DejaVuSans-61" d="M 2194 1759 
Q 1497 1759 1228 1600 
Q 959 1441 959 1056 
Q 959 750 1161 570 
Q 1363 391 1709 391 
Q 2188 391 2477 730 
Q 2766 1069 2766 1631 
L 2766 1759 
L 2194 1759 
z
M 3341 1997 
L 3341 0 
L 2766 0 
L 2766 531 
Q 2569 213 2275 61 
Q 1981 -91 1556 -91 
Q 1019 -91 701 211 
Q 384 513 384 1019 
Q 384 1609 779 1909 
Q 1175 2209 1959 2209 
L 2766 2209 
L 2766 2266 
Q 2766 2663 2505 2880 
Q 2244 3097 1772 3097 
Q 1472 3097 1187 3025 
Q 903 2953 641 2809 
L 641 3341 
Q 956 3463 1253 3523 
Q 1550 3584 1831 3584 
Q 2591 3584 2966 3190 
Q 3341 2797 3341 1997 
z
" transform="scale(0.015625)"/>
       <path id="DejaVuSans-67" d="M 2906 1791 
Q 2906 2416 2648 2759 
Q 2391 3103 1925 3103 
Q 1463 3103 1205 2759 
Q 947 2416 947 1791 
Q 947 1169 1205 825 
Q 1463 481 1925 481 
Q 2391 481 2648 825 
Q 2906 1169 2906 1791 
z
M 3481 434 
Q 3481 -459 3084 -895 
Q 2688 -1331 1869 -1331 
Q 1566 -1331 1297 -1286 
Q 1028 -1241 775 -1147 
L 775 -588 
Q 1028 -725 1275 -790 
Q 1522 -856 1778 -856 
Q 2344 -856 2625 -561 
Q 2906 -266 2906 331 
L 2906 616 
Q 2728 306 2450 153 
Q 2172 0 1784 0 
Q 1141 0 747 490 
Q 353 981 353 1791 
Q 353 2603 747 3093 
Q 1141 3584 1784 3584 
Q 2172 3584 2450 3431 
Q 2728 3278 2906 2969 
L 2906 3500 
L 3481 3500 
L 3481 434 
z
" transform="scale(0.015625)"/>
       <path id="DejaVuSans-66" d="M 2375 4863 
L 2375 4384 
L 1825 4384 
Q 1516 4384 1395 4259 
Q 1275 4134 1275 3809 
L 1275 3500 
L 2222 3500 
L 2222 3053 
L 1275 3053 
L 1275 0 
L 697 0 
L 697 3053 
L 147 3053 
L 147 3500 
L 697 3500 
L 697 3744 
Q 697 4328 969 4595 
Q 1241 4863 1831 4863 
L 2375 4863 
z
" transform="scale(0.015625)"/>
       <path id="DejaVuSans-69" d="M 603 3500 
L 1178 3500 
L 1178 0 
L 603 0 
L 603 3500 
z
M 603 4863 
L 1178 4863 
L 1178 4134 
L 603 4134 
L 603 4863 
z
" transform="scale(0.015625)"/>
       <path id="DejaVuSans-6d" d="M 3328 2828 
Q 3544 3216 3844 3400 
Q 4144 3584 4550 3584 
Q 5097 3584 5394 3201 
Q 5691 2819 5691 2113 
L 5691 0 
L 5113 0 
L 5113 2094 
Q 5113 2597 4934 2840 
Q 4756 3084 4391 3084 
Q 3944 3084 3684 2787 
Q 3425 2491 3425 1978 
L 3425 0 
L 2847 0 
L 2847 2094 
Q 2847 2600 2669 2842 
Q 2491 3084 2119 3084 
Q 1678 3084 1418 2786 
Q 1159 2488 1159 1978 
L 1159 0 
L 581 0 
L 581 3500 
L 1159 3500 
L 1159 2956 
Q 1356 3278 1631 3431 
Q 1906 3584 2284 3584 
Q 2666 3584 2933 3390 
Q 3200 3197 3328 2828 
z
" transform="scale(0.015625)"/>
       <path id="DejaVuSans-74" d="M 1172 4494 
L 1172 3500 
L 2356 3500 
L 2356 3053 
L 1172 3053 
L 1172 1153 
Q 1172 725 1289 603 
Q 1406 481 1766 481 
L 2356 481 
L 2356 0 
L 1766 0 
Q 1100 0 847 248 
Q 594 497 594 1153 
L 594 3053 
L 172 3053 
L 172 3500 
L 594 3500 
L 594 4494 
L 1172 4494 
z
" transform="scale(0.015625)"/>
       <path id="DejaVuSans-50" d="M 1259 4147 
L 1259 2394 
L 2053 2394 
Q 2494 2394 2734 2622 
Q 2975 2850 2975 3272 
Q 2975 3691 2734 3919 
Q 2494 4147 2053 4147 
L 1259 4147 
z
M 628 4666 
L 2053 4666 
Q 2838 4666 3239 4311 
Q 3641 3956 3641 3272 
Q 3641 2581 3239 2228 
Q 2838 1875 2053 1875 
L 1259 1875 
L 1259 0 
L 628 0 
L 628 4666 
z
" transform="scale(0.015625)"/>
       <path id="DejaVuSans-62" d="M 3116 1747 
Q 3116 2381 2855 2742 
Q 2594 3103 2138 3103 
Q 1681 3103 1420 2742 
Q 1159 2381 1159 1747 
Q 1159 1113 1420 752 
Q 1681 391 2138 391 
Q 2594 391 2855 752 
Q 3116 1113 3116 1747 
z
M 1159 2969 
Q 1341 3281 1617 3432 
Q 1894 3584 2278 3584 
Q 2916 3584 3314 3078 
Q 3713 2572 3713 1747 
Q 3713 922 3314 415 
Q 2916 -91 2278 -91 
Q 1894 -91 1617 61 
Q 1341 213 1159 525 
L 1159 0 
L 581 0 
L 581 4863 
L 1159 4863 
L 1159 2969 
z
" transform="scale(0.015625)"/>
       <path id="DejaVuSans-6c" d="M 603 4863 
L 1178 4863 
L 1178 0 
L 603 0 
L 603 4863 
z
" transform="scale(0.015625)"/>
       <path id="DejaVuSans-79" d="M 2059 -325 
Q 1816 -950 1584 -1140 
Q 1353 -1331 966 -1331 
L 506 -1331 
L 506 -850 
L 844 -850 
Q 1081 -850 1212 -737 
Q 1344 -625 1503 -206 
L 1606 56 
L 191 3500 
L 800 3500 
L 1894 763 
L 2988 3500 
L 3597 3500 
L 2059 -325 
z
" transform="scale(0.015625)"/>
      </defs>
      <use xlink:href="#DejaVuSans-41"/>
      <use xlink:href="#DejaVuSans-76" transform="translate(62.533203 0)"/>
      <use xlink:href="#DejaVuSans-65" transform="translate(121.712891 0)"/>
      <use xlink:href="#DejaVuSans-72" transform="translate(183.236328 0)"/>
      <use xlink:href="#DejaVuSans-61" transform="translate(224.349609 0)"/>
      <use xlink:href="#DejaVuSans-67" transform="translate(285.628906 0)"/>
      <use xlink:href="#DejaVuSans-65" transform="translate(349.105469 0)"/>
      <use xlink:href="#DejaVuSans-20" transform="translate(410.628906 0)"/>
      <use xlink:href="#DejaVuSans-43" transform="translate(442.416016 0)"/>
      <use xlink:href="#DejaVuSans-6f" transform="translate(512.240234 0)"/>
      <use xlink:href="#DejaVuSans-6e" transform="translate(573.421875 0)"/>
      <use xlink:href="#DejaVuSans-66" transform="translate(636.800781 0)"/>
      <use xlink:href="#DejaVuSans-69" transform="translate(672.005859 0)"/>
      <use xlink:href="#DejaVuSans-72" transform="translate(699.789062 0)"/>
      <use xlink:href="#DejaVuSans-6d" transform="translate(739.152344 0)"/>
      <use xlink:href="#DejaVuSans-61" transform="translate(836.564453 0)"/>
      <use xlink:href="#DejaVuSans-74" transform="translate(897.84375 0)"/>
      <use xlink:href="#DejaVuSans-69" transform="translate(937.052734 0)"/>
      <use xlink:href="#DejaVuSans-6f" transform="translate(964.835938 0)"/>
      <use xlink:href="#DejaVuSans-6e" transform="translate(1026.017578 0)"/>
      <use xlink:href="#DejaVuSans-20" transform="translate(1089.396484 0)"/>
      <use xlink:href="#DejaVuSans-50" transform="translate(1121.183594 0)"/>
      <use xlink:href="#DejaVuSans-72" transform="translate(1179.736328 0)"/>
      <use xlink:href="#DejaVuSans-6f" transform="translate(1218.599609 0)"/>
      <use xlink:href="#DejaVuSans-62" transform="translate(1279.78125 0)"/>
      <use xlink:href="#DejaVuSans-61" transform="translate(1343.257812 0)"/>
      <use xlink:href="#DejaVuSans-62" transform="translate(1404.537109 0)"/>
      <use xlink:href="#DejaVuSans-69" transform="translate(1468.013672 0)"/>
      <use xlink:href="#DejaVuSans-6c" transform="translate(1495.796875 0)"/>
      <use xlink:href="#DejaVuSans-69" transform="translate(1523.580078 0)"/>
      <use xlink:href="#DejaVuSans-74" transform="translate(1551.363281 0)"/>
      <use xlink:href="#DejaVuSans-79" transform="translate(1590.572266 0)"/>
     </g>
    </g>
   </g>
   <g id="FillBetweenPolyCollection_1">
    <defs>
     <path id="mf532d0dad7" d="M 203.203512 -71.560621 
L 100.56468 -71.560621 
L 88.698235 -72.941681 
L 81.708345 -74.322741 
L 80.337273 -75.703801 
L 83.449771 -77.084862 
L 88.956298 -78.465922 
L 94.949672 -79.846982 
L 100.333797 -81.228042 
L 104.80291 -82.609102 
L 108.474098 -83.990162 
L 111.535063 -85.371223 
L 114.087036 -86.752283 
L 116.162099 -88.133343 
L 117.801074 -89.514403 
L 119.09972 -90.895463 
L 120.19739 -92.276523 
L 121.228763 -93.657584 
L 122.274811 -95.038644 
L 123.344788 -96.419704 
L 124.398696 -97.800764 
L 125.389634 -99.181824 
L 126.293895 -100.562884 
L 127.114287 -101.943945 
L 127.868364 -103.325005 
L 128.581951 -104.706065 
L 129.29403 -106.087125 
L 130.058703 -107.468185 
L 130.926021 -108.849246 
L 131.904823 -110.230306 
L 132.938488 -111.611366 
L 133.925548 -112.992426 
L 134.781391 -114.373486 
L 135.496738 -115.754546 
L 136.144964 -117.135607 
L 136.830071 -118.516667 
L 137.614763 -119.897727 
L 138.481952 -121.278787 
L 139.352888 -122.659847 
L 140.139984 -124.040907 
L 140.792214 -125.421968 
L 141.309121 -126.803028 
L 141.730974 -128.184088 
L 142.123105 -129.565148 
L 142.557555 -130.946208 
L 143.084278 -132.327268 
L 143.699736 -133.708329 
L 144.341948 -135.089389 
L 144.928736 -136.470449 
L 145.412965 -137.851509 
L 145.806769 -139.232569 
L 146.157242 -140.613629 
L 146.503603 -141.99469 
L 146.856185 -143.37575 
L 147.206529 -144.75681 
L 147.547101 -146.13787 
L 147.878865 -147.51893 
L 148.20554 -148.899991 
L 148.527433 -150.281051 
L 148.842799 -151.662111 
L 149.152078 -153.043171 
L 149.45697 -154.424231 
L 149.754667 -155.805291 
L 150.035209 -157.186352 
L 150.286643 -158.567412 
L 150.503016 -159.948472 
L 150.686924 -161.329532 
L 150.845011 -162.710592 
L 150.982214 -164.091652 
L 151.099986 -165.472713 
L 151.198157 -166.853773 
L 151.276989 -168.234833 
L 151.337609 -169.615893 
L 151.381786 -170.996953 
L 151.412546 -172.378013 
L 151.435422 -173.759074 
L 151.458236 -175.140134 
L 151.487835 -176.521194 
L 151.525488 -177.902254 
L 151.565328 -179.283314 
L 151.598531 -180.664375 
L 151.620494 -182.045435 
L 151.634816 -183.426495 
L 151.65043 -184.807555 
L 151.67451 -186.188615 
L 151.707195 -187.569675 
L 151.741971 -188.950736 
L 151.770558 -190.331796 
L 151.788098 -191.712856 
L 151.795123 -193.093916 
L 151.795755 -194.474976 
L 151.794456 -195.856036 
L 151.794094 -197.237097 
L 151.795937 -198.618157 
L 151.800225 -199.999217 
L 151.806308 -201.380277 
L 151.812894 -202.761337 
L 151.818934 -204.142397 
L 151.824501 -205.523458 
L 151.830705 -206.904518 
L 151.838666 -208.285578 
L 151.929526 -208.285578 
L 151.929526 -208.285578 
L 151.937487 -206.904518 
L 151.943691 -205.523458 
L 151.949258 -204.142397 
L 151.955298 -202.761337 
L 151.961884 -201.380277 
L 151.967967 -199.999217 
L 151.972255 -198.618157 
L 151.974098 -197.237097 
L 151.973736 -195.856036 
L 151.972437 -194.474976 
L 151.973069 -193.093916 
L 151.980094 -191.712856 
L 151.997634 -190.331796 
L 152.026221 -188.950736 
L 152.060997 -187.569675 
L 152.093682 -186.188615 
L 152.117762 -184.807555 
L 152.133376 -183.426495 
L 152.147698 -182.045435 
L 152.169661 -180.664375 
L 152.202864 -179.283314 
L 152.242704 -177.902254 
L 152.280357 -176.521194 
L 152.309956 -175.140134 
L 152.33277 -173.759074 
L 152.355646 -172.378013 
L 152.386406 -170.996953 
L 152.430583 -169.615893 
L 152.491203 -168.234833 
L 152.570035 -166.853773 
L 152.668206 -165.472713 
L 152.785978 -164.091652 
L 152.923181 -162.710592 
L 153.081268 -161.329532 
L 153.265176 -159.948472 
L 153.481549 -158.567412 
L 153.732983 -157.186352 
L 154.013525 -155.805291 
L 154.311222 -154.424231 
L 154.616114 -153.043171 
L 154.925393 -151.662111 
L 155.240759 -150.281051 
L 155.562652 -148.899991 
L 155.889327 -147.51893 
L 156.221091 -146.13787 
L 156.561663 -144.75681 
L 156.912007 -143.37575 
L 157.264589 -141.99469 
L 157.610951 -140.613629 
L 157.961423 -139.232569 
L 158.355227 -137.851509 
L 158.839456 -136.470449 
L 159.426244 -135.089389 
L 160.068456 -133.708329 
L 160.683914 -132.327268 
L 161.210637 -130.946208 
L 161.645087 -129.565148 
L 162.037218 -128.184088 
L 162.459071 -126.803028 
L 162.975978 -125.421968 
L 163.628208 -124.040907 
L 164.415304 -122.659847 
L 165.28624 -121.278787 
L 166.153429 -119.897727 
L 166.938121 -118.516667 
L 167.623228 -117.135607 
L 168.271454 -115.754546 
L 168.986801 -114.373486 
L 169.842645 -112.992426 
L 170.829704 -111.611366 
L 171.863369 -110.230306 
L 172.842171 -108.849246 
L 173.709489 -107.468185 
L 174.474162 -106.087125 
L 175.186241 -104.706065 
L 175.899828 -103.325005 
L 176.653905 -101.943945 
L 177.474297 -100.562884 
L 178.378558 -99.181824 
L 179.369496 -97.800764 
L 180.423404 -96.419704 
L 181.493381 -95.038644 
L 182.539429 -93.657584 
L 183.570802 -92.276523 
L 184.668472 -90.895463 
L 185.967118 -89.514403 
L 187.606093 -88.133343 
L 189.681157 -86.752283 
L 192.233129 -85.371223 
L 195.294094 -83.990162 
L 198.965282 -82.609102 
L 203.434395 -81.228042 
L 208.81852 -79.846982 
L 214.811894 -78.465922 
L 220.318421 -77.084862 
L 223.430919 -75.703801 
L 222.059847 -74.322741 
L 215.069957 -72.941681 
L 203.203512 -71.560621 
z
" style="stroke: #474747"/>
    </defs>
    <g clip-path="url(#pcdfa1de032)">
     <use xlink:href="#mf532d0dad7" x="0" y="288" style="fill: #51779d; stroke: #474747"/>
    </g>
   </g>
   <g id="FillBetweenPolyCollection_2">
    <defs>
     <path id="mf483b386fe" d="M 358.310144 -71.74813 
L 303.192164 -71.74813 
L 299.561177 -73.032558 
L 296.406613 -74.316986 
L 293.885047 -75.601414 
L 292.091505 -76.885842 
L 291.052277 -78.17027 
L 290.72897 -79.454699 
L 291.031658 -80.739127 
L 291.837212 -82.023555 
L 293.008501 -83.307983 
L 294.410883 -84.592411 
L 295.923906 -85.876839 
L 297.447738 -87.161267 
L 298.905066 -88.445695 
L 300.239826 -89.730123 
L 301.414183 -91.014551 
L 302.40491 -92.298979 
L 303.199961 -93.583407 
L 303.79572 -94.867835 
L 304.195234 -96.152263 
L 304.407508 -97.436691 
L 304.447751 -98.721119 
L 304.338156 -100.005547 
L 304.108551 -101.289975 
L 303.796201 -102.574404 
L 303.444172 -103.858832 
L 303.098157 -105.14326 
L 302.802168 -106.427688 
L 302.594014 -107.712116 
L 302.501623 -108.996544 
L 302.541083 -110.280972 
L 302.716771 -111.5654 
L 303.023323 -112.849828 
L 303.448705 -114.134256 
L 303.977493 -115.418684 
L 304.593591 -116.703112 
L 305.281969 -117.98754 
L 306.029444 -119.271968 
L 306.824765 -120.556396 
L 307.658397 -121.840824 
L 308.52231 -123.125252 
L 309.409933 -124.409681 
L 310.316287 -125.694109 
L 311.238188 -126.978537 
L 312.174392 -128.262965 
L 313.125519 -129.547393 
L 314.093596 -130.831821 
L 315.08112 -132.116249 
L 316.089628 -133.400677 
L 317.117944 -134.685105 
L 318.160488 -135.969533 
L 319.206172 -137.253961 
L 320.238379 -138.538389 
L 321.236327 -139.822817 
L 322.177696 -141.107245 
L 323.041992 -142.391673 
L 323.813807 -143.676101 
L 324.485136 -144.960529 
L 325.056154 -146.244958 
L 325.534361 -147.529386 
L 325.932487 -148.813814 
L 326.265844 -150.098242 
L 326.549897 -151.38267 
L 326.798558 -152.667098 
L 327.023353 -153.951526 
L 327.233296 -155.235954 
L 327.435109 -156.520382 
L 327.633466 -157.80481 
L 327.831117 -159.089238 
L 328.028925 -160.373666 
L 328.22599 -161.658094 
L 328.420007 -162.942522 
L 328.607892 -164.22695 
L 328.786584 -165.511378 
L 328.953811 -166.795806 
L 329.108622 -168.080235 
L 329.251537 -169.364663 
L 329.384302 -170.649091 
L 329.509351 -171.933519 
L 329.629141 -173.217947 
L 329.745539 -174.502375 
L 329.859386 -175.786803 
L 329.970319 -177.071231 
L 330.076833 -178.355659 
L 330.176548 -179.640087 
L 330.266594 -180.924515 
L 330.344065 -182.208943 
L 330.406466 -183.493371 
L 330.452107 -184.777799 
L 330.48042 -186.062227 
L 330.492146 -187.346655 
L 330.489379 -188.631083 
L 330.475439 -189.915512 
L 330.454567 -191.19994 
L 330.431488 -192.484368 
L 330.410872 -193.768796 
L 330.396786 -195.053224 
L 330.392216 -196.337652 
L 330.398748 -197.62208 
L 330.416459 -198.906508 
L 331.08585 -198.906508 
L 331.08585 -198.906508 
L 331.10356 -197.62208 
L 331.110093 -196.337652 
L 331.105523 -195.053224 
L 331.091437 -193.768796 
L 331.070821 -192.484368 
L 331.047742 -191.19994 
L 331.02687 -189.915512 
L 331.012929 -188.631083 
L 331.010163 -187.346655 
L 331.021889 -186.062227 
L 331.050201 -184.777799 
L 331.095842 -183.493371 
L 331.158243 -182.208943 
L 331.235715 -180.924515 
L 331.325761 -179.640087 
L 331.425475 -178.355659 
L 331.53199 -177.071231 
L 331.642922 -175.786803 
L 331.756769 -174.502375 
L 331.873167 -173.217947 
L 331.992958 -171.933519 
L 332.118006 -170.649091 
L 332.250771 -169.364663 
L 332.393686 -168.080235 
L 332.548498 -166.795806 
L 332.715725 -165.511378 
L 332.894416 -164.22695 
L 333.082301 -162.942522 
L 333.276319 -161.658094 
L 333.473384 -160.373666 
L 333.671191 -159.089238 
L 333.868842 -157.80481 
L 334.0672 -156.520382 
L 334.269013 -155.235954 
L 334.478956 -153.951526 
L 334.703751 -152.667098 
L 334.952411 -151.38267 
L 335.236465 -150.098242 
L 335.569822 -148.813814 
L 335.967947 -147.529386 
L 336.446155 -146.244958 
L 337.017172 -144.960529 
L 337.688501 -143.676101 
L 338.460317 -142.391673 
L 339.324613 -141.107245 
L 340.265982 -139.822817 
L 341.26393 -138.538389 
L 342.296137 -137.253961 
L 343.34182 -135.969533 
L 344.384365 -134.685105 
L 345.41268 -133.400677 
L 346.421188 -132.116249 
L 347.408713 -130.831821 
L 348.37679 -129.547393 
L 349.327916 -128.262965 
L 350.26412 -126.978537 
L 351.186021 -125.694109 
L 352.092375 -124.409681 
L 352.979999 -123.125252 
L 353.843911 -121.840824 
L 354.677543 -120.556396 
L 355.472865 -119.271968 
L 356.22034 -117.98754 
L 356.908718 -116.703112 
L 357.524815 -115.418684 
L 358.053604 -114.134256 
L 358.478986 -112.849828 
L 358.785537 -111.5654 
L 358.961226 -110.280972 
L 359.000686 -108.996544 
L 358.908294 -107.712116 
L 358.70014 -106.427688 
L 358.404151 -105.14326 
L 358.058136 -103.858832 
L 357.706108 -102.574404 
L 357.393758 -101.289975 
L 357.164153 -100.005547 
L 357.054557 -98.721119 
L 357.094801 -97.436691 
L 357.307075 -96.152263 
L 357.706588 -94.867835 
L 358.302348 -93.583407 
L 359.097398 -92.298979 
L 360.088126 -91.014551 
L 361.262483 -89.730123 
L 362.597243 -88.445695 
L 364.054571 -87.161267 
L 365.578403 -85.876839 
L 367.091426 -84.592411 
L 368.493808 -83.307983 
L 369.665097 -82.023555 
L 370.47065 -80.739127 
L 370.773338 -79.454699 
L 370.450032 -78.17027 
L 369.410804 -76.885842 
L 367.617262 -75.601414 
L 365.095696 -74.316986 
L 361.941132 -73.032558 
L 358.310144 -71.74813 
z
" style="stroke: #474747"/>
    </defs>
    <g clip-path="url(#pcdfa1de032)">
     <use xlink:href="#mf483b386fe" x="0" y="288" style="fill: #51779d; stroke: #474747"/>
    </g>
   </g>
   <g id="FillBetweenPolyCollection_3">
    <defs>
     <path id="maf5e408a04" d="M 525.910148 -71.677246 
L 493.326277 -71.677246 
L 490.72194 -72.961439 
L 488.221011 -74.245631 
L 485.918161 -75.529823 
L 483.88609 -76.814016 
L 482.16839 -78.098208 
L 480.777351 -79.3824 
L 479.696737 -80.666593 
L 478.888551 -81.950785 
L 478.302076 -83.234977 
L 477.883219 -84.51917 
L 477.582418 -85.803362 
L 477.359949 -87.087554 
L 477.188198 -88.371747 
L 477.051169 -89.655939 
L 476.941991 -90.940131 
L 476.859374 -92.224324 
L 476.803978 -93.508516 
L 476.775387 -94.792708 
L 476.770187 -96.076901 
L 476.781349 -97.361093 
L 476.798946 -98.645285 
L 476.812066 -99.929478 
L 476.811578 -101.21367 
L 476.793249 -102.497862 
L 476.760552 -103.782055 
L 476.726472 -105.066247 
L 476.713698 -106.350439 
L 476.752893 -107.634632 
L 476.879108 -108.918824 
L 477.12681 -110.203016 
L 477.524344 -111.487209 
L 478.088833 -112.771401 
L 478.822449 -114.055593 
L 479.710797 -115.339786 
L 480.723754 -116.623978 
L 481.818657 -117.90817 
L 482.945373 -119.192363 
L 484.052464 -120.476555 
L 485.093611 -121.760748 
L 486.033459 -123.04494 
L 486.852207 -124.329132 
L 487.548409 -125.613325 
L 488.139576 -126.897517 
L 488.660352 -128.181709 
L 489.158203 -129.465902 
L 489.686935 -130.750094 
L 490.298752 -132.034286 
L 491.036057 -133.318479 
L 491.924455 -134.602671 
L 492.9684 -135.886863 
L 494.150471 -137.171056 
L 495.434505 -138.455248 
L 496.77188 -139.73944 
L 498.109534 -141.023633 
L 499.397924 -142.307825 
L 500.597289 -143.592017 
L 501.681182 -144.87621 
L 502.636982 -146.160402 
L 503.463907 -147.444594 
L 504.169498 -148.728787 
L 504.765736 -150.012979 
L 505.265751 -151.297171 
L 505.681731 -152.581364 
L 506.02417 -153.865556 
L 506.302231 -155.149748 
L 506.524725 -156.433941 
L 506.701163 -157.718133 
L 506.84241 -159.002325 
L 506.960665 -160.286518 
L 507.068736 -161.57071 
L 507.178821 -162.854902 
L 507.301107 -164.139095 
L 507.442573 -165.423287 
L 507.606267 -166.707479 
L 507.791215 -167.991672 
L 507.992942 -169.275864 
L 508.204454 -170.560056 
L 508.417464 -171.844249 
L 508.623616 -173.128441 
L 508.815524 -174.412634 
L 508.987494 -175.696826 
L 509.13588 -176.981018 
L 509.259096 -178.265211 
L 509.35734 -179.549403 
L 509.432149 -180.833595 
L 509.485866 -182.117788 
L 509.521149 -183.40198 
L 509.540584 -184.686172 
L 509.546463 -185.970365 
L 509.54075 -187.254557 
L 509.525202 -188.538749 
L 509.501594 -189.822942 
L 509.471967 -191.107134 
L 509.438806 -192.391326 
L 509.405069 -193.675519 
L 509.374032 -194.959711 
L 509.348955 -196.243903 
L 509.33264 -197.528096 
L 509.326995 -198.812288 
L 509.90943 -198.812288 
L 509.90943 -198.812288 
L 509.903785 -197.528096 
L 509.88747 -196.243903 
L 509.862393 -194.959711 
L 509.831356 -193.675519 
L 509.797619 -192.391326 
L 509.764458 -191.107134 
L 509.734831 -189.822942 
L 509.711223 -188.538749 
L 509.695675 -187.254557 
L 509.689962 -185.970365 
L 509.695841 -184.686172 
L 509.715276 -183.40198 
L 509.750559 -182.117788 
L 509.804276 -180.833595 
L 509.879085 -179.549403 
L 509.977329 -178.265211 
L 510.100545 -176.981018 
L 510.248931 -175.696826 
L 510.420901 -174.412634 
L 510.612809 -173.128441 
L 510.818961 -171.844249 
L 511.031971 -170.560056 
L 511.243483 -169.275864 
L 511.44521 -167.991672 
L 511.630158 -166.707479 
L 511.793852 -165.423287 
L 511.935318 -164.139095 
L 512.057604 -162.854902 
L 512.167689 -161.57071 
L 512.27576 -160.286518 
L 512.394015 -159.002325 
L 512.535262 -157.718133 
L 512.7117 -156.433941 
L 512.934194 -155.149748 
L 513.212255 -153.865556 
L 513.554694 -152.581364 
L 513.970674 -151.297171 
L 514.470689 -150.012979 
L 515.066927 -148.728787 
L 515.772518 -147.444594 
L 516.599443 -146.160402 
L 517.555243 -144.87621 
L 518.639136 -143.592017 
L 519.838501 -142.307825 
L 521.126891 -141.023633 
L 522.464545 -139.73944 
L 523.80192 -138.455248 
L 525.085954 -137.171056 
L 526.268025 -135.886863 
L 527.31197 -134.602671 
L 528.200368 -133.318479 
L 528.937673 -132.034286 
L 529.54949 -130.750094 
L 530.078222 -129.465902 
L 530.576073 -128.181709 
L 531.096849 -126.897517 
L 531.688016 -125.613325 
L 532.384218 -124.329132 
L 533.202966 -123.04494 
L 534.142814 -121.760748 
L 535.183961 -120.476555 
L 536.291052 -119.192363 
L 537.417768 -117.90817 
L 538.512672 -116.623978 
L 539.525628 -115.339786 
L 540.413976 -114.055593 
L 541.147592 -112.771401 
L 541.712081 -111.487209 
L 542.109615 -110.203016 
L 542.357317 -108.918824 
L 542.483532 -107.634632 
L 542.522727 -106.350439 
L 542.509953 -105.066247 
L 542.475873 -103.782055 
L 542.443176 -102.497862 
L 542.424847 -101.21367 
L 542.424359 -99.929478 
L 542.437479 -98.645285 
L 542.455076 -97.361093 
L 542.466238 -96.076901 
L 542.461038 -94.792708 
L 542.432447 -93.508516 
L 542.377051 -92.224324 
L 542.294434 -90.940131 
L 542.185256 -89.655939 
L 542.048227 -88.371747 
L 541.876476 -87.087554 
L 541.654007 -85.803362 
L 541.353206 -84.51917 
L 540.934349 -83.234977 
L 540.347874 -81.950785 
L 539.539688 -80.666593 
L 538.459074 -79.3824 
L 537.068035 -78.098208 
L 535.350335 -76.814016 
L 533.318264 -75.529823 
L 531.015414 -74.245631 
L 528.514485 -72.961439 
L 525.910148 -71.677246 
z
" style="stroke: #474747"/>
    </defs>
    <g clip-path="url(#pcdfa1de032)">
     <use xlink:href="#maf5e408a04" x="0" y="288" style="fill: #51779d; stroke: #474747"/>
    </g>
   </g>
   <g id="line2d_11">
    <path d="M 151.884096 216.439379 
L 151.884096 137.417069 
" clip-path="url(#pcdfa1de032)" style="fill: none; stroke: #474747; stroke-width: 1.5; stroke-linecap: round"/>
   </g>
   <g id="line2d_12">
    <path d="M 151.884096 211.438569 
L 151.884096 181.818186 
" clip-path="url(#pcdfa1de032)" style="fill: none; stroke: #474747; stroke-width: 4.5; stroke-linecap: round"/>
   </g>
   <g id="line2d_13">
    <path d="M 151.884096 200.265705 
" clip-path="url(#pcdfa1de032)" style="fill: none; stroke: #474747; stroke-width: 1.2; stroke-linecap: round"/>
    <defs>
     <path id="ma4ada2f611" d="M 1.875 0 
L -1.875 -0 
" style="stroke: #ffffff; stroke-width: 0.9"/>
    </defs>
    <g clip-path="url(#pcdfa1de032)">
     <use xlink:href="#ma4ada2f611" x="151.884096" y="200.265705" style="fill: #ffffff; stroke: #ffffff; stroke-width: 0.9"/>
    </g>
   </g>
   <g id="line2d_14">
    <path d="M 330.751154 216.25187 
L 330.751154 118.202491 
" clip-path="url(#pcdfa1de032)" style="fill: none; stroke: #474747; stroke-width: 1.5; stroke-linecap: round"/>
   </g>
   <g id="line2d_15">
    <path d="M 330.751154 206.815868 
L 330.751154 169.921198 
" clip-path="url(#pcdfa1de032)" style="fill: none; stroke: #474747; stroke-width: 4.5; stroke-linecap: round"/>
   </g>
   <g id="line2d_16">
    <path d="M 330.751154 189.058762 
" clip-path="url(#pcdfa1de032)" style="fill: none; stroke: #474747; stroke-width: 1.2; stroke-linecap: round"/>
    <g clip-path="url(#pcdfa1de032)">
     <use xlink:href="#ma4ada2f611" x="330.751154" y="189.058762" style="fill: #ffffff; stroke: #ffffff; stroke-width: 0.9"/>
    </g>
   </g>
   <g id="line2d_17">
    <path d="M 509.618213 216.322754 
L 509.618213 120.527232 
" clip-path="url(#pcdfa1de032)" style="fill: none; stroke: #474747; stroke-width: 1.5; stroke-linecap: round"/>
   </g>
   <g id="line2d_18">
    <path d="M 509.618213 200.006853 
L 509.618213 167.999616 
" clip-path="url(#pcdfa1de032)" style="fill: none; stroke: #474747; stroke-width: 4.5; stroke-linecap: round"/>
   </g>
   <g id="line2d_19">
    <path d="M 509.618213 183.806383 
" clip-path="url(#pcdfa1de032)" style="fill: none; stroke: #474747; stroke-width: 1.2; stroke-linecap: round"/>
    <g clip-path="url(#pcdfa1de032)">
     <use xlink:href="#ma4ada2f611" x="509.618213" y="183.806383" style="fill: #ffffff; stroke: #ffffff; stroke-width: 0.9"/>
    </g>
   </g>
   <g id="line2d_20">
    <path d="M 151.884096 66.02856 
L 151.884096 62.264948 
L 330.751154 62.264948 
L 330.751154 66.02856 
" clip-path="url(#pcdfa1de032)" style="fill: none; stroke: #000000; stroke-linecap: round"/>
   </g>
   <g id="line2d_21">
    <path d="M 151.884096 45.499767 
L 151.884096 41.222935 
L 509.618213 41.222935 
L 509.618213 45.499767 
" clip-path="url(#pcdfa1de032)" style="fill: none; stroke: #000000; stroke-linecap: round"/>
   </g>
   <g id="line2d_22">
    <path d="M 330.751154 24.970974 
L 330.751154 20.180923 
L 509.618213 20.180923 
L 509.618213 24.970974 
" clip-path="url(#pcdfa1de032)" style="fill: none; stroke: #000000; stroke-linecap: round"/>
   </g>
   <g id="patch_3">
    <path d="M 57.228 226.252302 
L 57.228 10.368 
" style="fill: none; stroke: #262626; stroke-linejoin: miter; stroke-linecap: square"/>
   </g>
   <g id="patch_4">
    <path d="M 565.632 226.252302 
L 565.632 10.368 
" style="fill: none; stroke: #262626; stroke-linejoin: miter; stroke-linecap: square"/>
   </g>
   <g id="patch_5">
    <path d="M 57.228 226.252302 
L 565.632 226.252302 
" style="fill: none; stroke: #262626; stroke-linejoin: miter; stroke-linecap: square"/>
   </g>
   <g id="patch_6">
    <path d="M 57.228 10.368 
L 565.632 10.368 
" style="fill: none; stroke: #262626; stroke-linejoin: miter; stroke-linecap: square"/>
   </g>
   <g id="text_13">
    <!-- *** -->
    <g transform="translate(234.117625 60.268448) scale(0.096 -0.096)">
     <defs>
      <path id="DejaVuSans-2a" d="M 3009 3897 
L 1888 3291 
L 3009 2681 
L 2828 2375 
L 1778 3009 
L 1778 1831 
L 1422 1831 
L 1422 3009 
L 372 2375 
L 191 2681 
L 1313 3291 
L 191 3897 
L 372 4206 
L 1422 3572 
L 1422 4750 
L 1778 4750 
L 1778 3572 
L 2828 4206 
L 3009 3897 
z
" transform="scale(0.015625)"/>
     </defs>
     <use xlink:href="#DejaVuSans-2a"/>
     <use xlink:href="#DejaVuSans-2a" transform="translate(50 0)"/>
     <use xlink:href="#DejaVuSans-2a" transform="translate(100 0)"/>
    </g>
   </g>
   <g id="text_14">
    <!-- *** -->
    <g transform="translate(323.551154 39.226435) scale(0.096 -0.096)">
     <use xlink:href="#DejaVuSans-2a"/>
     <use xlink:href="#DejaVuSans-2a" transform="translate(50 0)"/>
     <use xlink:href="#DejaVuSans-2a" transform="translate(100 0)"/>
    </g>
   </g>
   <g id="text_15">
    <!-- ** -->
    <g transform="translate(415.384683 18.184423) scale(0.096 -0.096)">
     <use xlink:href="#DejaVuSans-2a"/>
     <use xlink:href="#DejaVuSans-2a" transform="translate(50 0)"/>
    </g>
   </g>
  </g>
 </g>
 <defs>
  <clipPath id="pcdfa1de032">
   <rect x="57.228" y="10.368" width="508.404" height="215.884302"/>
  </clipPath>
 </defs>
</svg>
