<?xml version="1.0" encoding="utf-8" standalone="no"?>
<!DOCTYPE svg PUBLIC "-//W3C//DTD SVG 1.1//EN"
  "http://www.w3.org/Graphics/SVG/1.1/DTD/svg11.dtd">
<svg xmlns:xlink="http://www.w3.org/1999/xlink" width="576pt" height="288pt" viewBox="0 0 576 288" xmlns="http://www.w3.org/2000/svg" version="1.1">
 <metadata>
  <rdf:RDF xmlns:dc="http://purl.org/dc/elements/1.1/" xmlns:cc="http://creativecommons.org/ns#" xmlns:rdf="http://www.w3.org/1999/02/22-rdf-syntax-ns#">
   <cc:Work>
    <dc:type rdf:resource="http://purl.org/dc/dcmitype/StillImage"/>
    <dc:date>2024-12-13T10:25:05.467874</dc:date>
    <dc:format>image/svg+xml</dc:format>
    <dc:creator>
     <cc:Agent>
      <dc:title>Matplotlib v3.9.2, https://matplotlib.org/</dc:title>
     </cc:Agent>
    </dc:creator>
   </cc:Work>
  </rdf:RDF>
 </metadata>
 <defs>
  <style type="text/css">*{stroke-linejoin: round; stroke-linecap: butt}</style>
 </defs>
 <g id="figure_1">
  <g id="patch_1">
   <path d="M 0 288 
L 576 288 
L 576 0 
L 0 0 
L 0 288 
z
" style="fill: none"/>
  </g>
  <g id="axes_1">
   <g id="patch_2">
    <path d="M 62.808 226.252302 
L 565.632 226.252302 
L 565.632 12.231782 
L 62.808 12.231782 
L 62.808 226.252302 
z
" style="fill: none"/>
   </g>
   <g id="matplotlib.axis_1">
    <g id="xtick_1">
     <g id="line2d_1">
      <defs>
       <path id="m05812d0e36" d="M 0 0 
L 0 4.8 
" style="stroke: #262626"/>
      </defs>
      <g>
       <use xlink:href="#m05812d0e36" x="148.95773" y="226.252302" style="fill: #262626; stroke: #262626"/>
      </g>
     </g>
     <g id="text_1">
      <!-- CCR/IIR -->
      <g style="fill: #262626" transform="translate(139.122228 262.385527) rotate(-45) scale(0.088 -0.088)">
       <defs>
        <path id="DejaVuSans-43" d="M 4122 4306 
L 4122 3641 
Q 3803 3938 3442 4084 
Q 3081 4231 2675 4231 
Q 1875 4231 1450 3742 
Q 1025 3253 1025 2328 
Q 1025 1406 1450 917 
Q 1875 428 2675 428 
Q 3081 428 3442 575 
Q 3803 722 4122 1019 
L 4122 359 
Q 3791 134 3420 21 
Q 3050 -91 2638 -91 
Q 1578 -91 968 557 
Q 359 1206 359 2328 
Q 359 3453 968 4101 
Q 1578 4750 2638 4750 
Q 3056 4750 3426 4639 
Q 3797 4528 4122 4306 
z
" transform="scale(0.015625)"/>
        <path id="DejaVuSans-52" d="M 2841 2188 
Q 3044 2119 3236 1894 
Q 3428 1669 3622 1275 
L 4263 0 
L 3584 0 
L 2988 1197 
Q 2756 1666 2539 1819 
Q 2322 1972 1947 1972 
L 1259 1972 
L 1259 0 
L 628 0 
L 628 4666 
L 2053 4666 
Q 2853 4666 3247 4331 
Q 3641 3997 3641 3322 
Q 3641 2881 3436 2590 
Q 3231 2300 2841 2188 
z
M 1259 4147 
L 1259 2491 
L 2053 2491 
Q 2509 2491 2742 2702 
Q 2975 2913 2975 3322 
Q 2975 3731 2742 3939 
Q 2509 4147 2053 4147 
L 1259 4147 
z
" transform="scale(0.015625)"/>
        <path id="DejaVuSans-2f" d="M 1625 4666 
L 2156 4666 
L 531 -594 
L 0 -594 
L 1625 4666 
z
" transform="scale(0.015625)"/>
        <path id="DejaVuSans-49" d="M 628 4666 
L 1259 4666 
L 1259 0 
L 628 0 
L 628 4666 
z
" transform="scale(0.015625)"/>
       </defs>
       <use xlink:href="#DejaVuSans-43"/>
       <use xlink:href="#DejaVuSans-43" x="69.824219"/>
       <use xlink:href="#DejaVuSans-52" x="139.648438"/>
       <use xlink:href="#DejaVuSans-2f" x="209.130859"/>
       <use xlink:href="#DejaVuSans-49" x="242.822266"/>
       <use xlink:href="#DejaVuSans-49" x="272.314453"/>
       <use xlink:href="#DejaVuSans-52" x="301.806641"/>
      </g>
     </g>
    </g>
    <g id="xtick_2">
     <g id="line2d_2">
      <g>
       <use xlink:href="#m05812d0e36" x="316.702876" y="226.252302" style="fill: #262626; stroke: #262626"/>
      </g>
     </g>
     <g id="text_2">
      <!-- IR/CR -->
      <g style="fill: #262626" transform="translate(309.95774 256.204796) rotate(-45) scale(0.088 -0.088)">
       <use xlink:href="#DejaVuSans-49"/>
       <use xlink:href="#DejaVuSans-52" x="29.492188"/>
       <use xlink:href="#DejaVuSans-2f" x="98.974609"/>
       <use xlink:href="#DejaVuSans-43" x="132.666016"/>
       <use xlink:href="#DejaVuSans-52" x="202.490234"/>
      </g>
     </g>
    </g>
    <g id="xtick_3">
     <g id="line2d_3">
      <g>
       <use xlink:href="#m05812d0e36" x="484.448021" y="226.252302" style="fill: #262626; stroke: #262626"/>
      </g>
     </g>
     <g id="text_3">
      <!-- ICR/CIR -->
      <g style="fill: #262626" transform="translate(474.612519 262.385527) rotate(-45) scale(0.088 -0.088)">
       <use xlink:href="#DejaVuSans-49"/>
       <use xlink:href="#DejaVuSans-43" x="29.492188"/>
       <use xlink:href="#DejaVuSans-52" x="99.316406"/>
       <use xlink:href="#DejaVuSans-2f" x="168.798828"/>
       <use xlink:href="#DejaVuSans-43" x="202.490234"/>
       <use xlink:href="#DejaVuSans-49" x="272.314453"/>
       <use xlink:href="#DejaVuSans-52" x="301.806641"/>
      </g>
     </g>
    </g>
    <g id="text_4">
     <!-- EMG Sequence Groups -->
     <g style="fill: #262626" transform="translate(259.48575 274.974121) scale(0.096 -0.096)">
      <defs>
       <path id="DejaVuSans-45" d="M 628 4666 
L 3578 4666 
L 3578 4134 
L 1259 4134 
L 1259 2753 
L 3481 2753 
L 3481 2222 
L 1259 2222 
L 1259 531 
L 3634 531 
L 3634 0 
L 628 0 
L 628 4666 
z
" transform="scale(0.015625)"/>
       <path id="DejaVuSans-4d" d="M 628 4666 
L 1569 4666 
L 2759 1491 
L 3956 4666 
L 4897 4666 
L 4897 0 
L 4281 0 
L 4281 4097 
L 3078 897 
L 2444 897 
L 1241 4097 
L 1241 0 
L 628 0 
L 628 4666 
z
" transform="scale(0.015625)"/>
       <path id="DejaVuSans-47" d="M 3809 666 
L 3809 1919 
L 2778 1919 
L 2778 2438 
L 4434 2438 
L 4434 434 
Q 4069 175 3628 42 
Q 3188 -91 2688 -91 
Q 1594 -91 976 548 
Q 359 1188 359 2328 
Q 359 3472 976 4111 
Q 1594 4750 2688 4750 
Q 3144 4750 3555 4637 
Q 3966 4525 4313 4306 
L 4313 3634 
Q 3963 3931 3569 4081 
Q 3175 4231 2741 4231 
Q 1884 4231 1454 3753 
Q 1025 3275 1025 2328 
Q 1025 1384 1454 906 
Q 1884 428 2741 428 
Q 3075 428 3337 486 
Q 3600 544 3809 666 
z
" transform="scale(0.015625)"/>
       <path id="DejaVuSans-20" transform="scale(0.015625)"/>
       <path id="DejaVuSans-53" d="M 3425 4513 
L 3425 3897 
Q 3066 4069 2747 4153 
Q 2428 4238 2131 4238 
Q 1616 4238 1336 4038 
Q 1056 3838 1056 3469 
Q 1056 3159 1242 3001 
Q 1428 2844 1947 2747 
L 2328 2669 
Q 3034 2534 3370 2195 
Q 3706 1856 3706 1288 
Q 3706 609 3251 259 
Q 2797 -91 1919 -91 
Q 1588 -91 1214 -16 
Q 841 59 441 206 
L 441 856 
Q 825 641 1194 531 
Q 1563 422 1919 422 
Q 2459 422 2753 634 
Q 3047 847 3047 1241 
Q 3047 1584 2836 1778 
Q 2625 1972 2144 2069 
L 1759 2144 
Q 1053 2284 737 2584 
Q 422 2884 422 3419 
Q 422 4038 858 4394 
Q 1294 4750 2059 4750 
Q 2388 4750 2728 4690 
Q 3069 4631 3425 4513 
z
" transform="scale(0.015625)"/>
       <path id="DejaVuSans-65" d="M 3597 1894 
L 3597 1613 
L 953 1613 
Q 991 1019 1311 708 
Q 1631 397 2203 397 
Q 2534 397 2845 478 
Q 3156 559 3463 722 
L 3463 178 
Q 3153 47 2828 -22 
Q 2503 -91 2169 -91 
Q 1331 -91 842 396 
Q 353 884 353 1716 
Q 353 2575 817 3079 
Q 1281 3584 2069 3584 
Q 2775 3584 3186 3129 
Q 3597 2675 3597 1894 
z
M 3022 2063 
Q 3016 2534 2758 2815 
Q 2500 3097 2075 3097 
Q 1594 3097 1305 2825 
Q 1016 2553 972 2059 
L 3022 2063 
z
" transform="scale(0.015625)"/>
       <path id="DejaVuSans-71" d="M 947 1747 
Q 947 1113 1208 752 
Q 1469 391 1925 391 
Q 2381 391 2643 752 
Q 2906 1113 2906 1747 
Q 2906 2381 2643 2742 
Q 2381 3103 1925 3103 
Q 1469 3103 1208 2742 
Q 947 2381 947 1747 
z
M 2906 525 
Q 2725 213 2448 61 
Q 2172 -91 1784 -91 
Q 1150 -91 751 415 
Q 353 922 353 1747 
Q 353 2572 751 3078 
Q 1150 3584 1784 3584 
Q 2172 3584 2448 3432 
Q 2725 3281 2906 2969 
L 2906 3500 
L 3481 3500 
L 3481 -1331 
L 2906 -1331 
L 2906 525 
z
" transform="scale(0.015625)"/>
       <path id="DejaVuSans-75" d="M 544 1381 
L 544 3500 
L 1119 3500 
L 1119 1403 
Q 1119 906 1312 657 
Q 1506 409 1894 409 
Q 2359 409 2629 706 
Q 2900 1003 2900 1516 
L 2900 3500 
L 3475 3500 
L 3475 0 
L 2900 0 
L 2900 538 
Q 2691 219 2414 64 
Q 2138 -91 1772 -91 
Q 1169 -91 856 284 
Q 544 659 544 1381 
z
M 1991 3584 
L 1991 3584 
z
" transform="scale(0.015625)"/>
       <path id="DejaVuSans-6e" d="M 3513 2113 
L 3513 0 
L 2938 0 
L 2938 2094 
Q 2938 2591 2744 2837 
Q 2550 3084 2163 3084 
Q 1697 3084 1428 2787 
Q 1159 2491 1159 1978 
L 1159 0 
L 581 0 
L 581 3500 
L 1159 3500 
L 1159 2956 
Q 1366 3272 1645 3428 
Q 1925 3584 2291 3584 
Q 2894 3584 3203 3211 
Q 3513 2838 3513 2113 
z
" transform="scale(0.015625)"/>
       <path id="DejaVuSans-63" d="M 3122 3366 
L 3122 2828 
Q 2878 2963 2633 3030 
Q 2388 3097 2138 3097 
Q 1578 3097 1268 2742 
Q 959 2388 959 1747 
Q 959 1106 1268 751 
Q 1578 397 2138 397 
Q 2388 397 2633 464 
Q 2878 531 3122 666 
L 3122 134 
Q 2881 22 2623 -34 
Q 2366 -91 2075 -91 
Q 1284 -91 818 406 
Q 353 903 353 1747 
Q 353 2603 823 3093 
Q 1294 3584 2113 3584 
Q 2378 3584 2631 3529 
Q 2884 3475 3122 3366 
z
" transform="scale(0.015625)"/>
       <path id="DejaVuSans-72" d="M 2631 2963 
Q 2534 3019 2420 3045 
Q 2306 3072 2169 3072 
Q 1681 3072 1420 2755 
Q 1159 2438 1159 1844 
L 1159 0 
L 581 0 
L 581 3500 
L 1159 3500 
L 1159 2956 
Q 1341 3275 1631 3429 
Q 1922 3584 2338 3584 
Q 2397 3584 2469 3576 
Q 2541 3569 2628 3553 
L 2631 2963 
z
" transform="scale(0.015625)"/>
       <path id="DejaVuSans-6f" d="M 1959 3097 
Q 1497 3097 1228 2736 
Q 959 2375 959 1747 
Q 959 1119 1226 758 
Q 1494 397 1959 397 
Q 2419 397 2687 759 
Q 2956 1122 2956 1747 
Q 2956 2369 2687 2733 
Q 2419 3097 1959 3097 
z
M 1959 3584 
Q 2709 3584 3137 3096 
Q 3566 2609 3566 1747 
Q 3566 888 3137 398 
Q 2709 -91 1959 -91 
Q 1206 -91 779 398 
Q 353 888 353 1747 
Q 353 2609 779 3096 
Q 1206 3584 1959 3584 
z
" transform="scale(0.015625)"/>
       <path id="DejaVuSans-70" d="M 1159 525 
L 1159 -1331 
L 581 -1331 
L 581 3500 
L 1159 3500 
L 1159 2969 
Q 1341 3281 1617 3432 
Q 1894 3584 2278 3584 
Q 2916 3584 3314 3078 
Q 3713 2572 3713 1747 
Q 3713 922 3314 415 
Q 2916 -91 2278 -91 
Q 1894 -91 1617 61 
Q 1341 213 1159 525 
z
M 3116 1747 
Q 3116 2381 2855 2742 
Q 2594 3103 2138 3103 
Q 1681 3103 1420 2742 
Q 1159 2381 1159 1747 
Q 1159 1113 1420 752 
Q 1681 391 2138 391 
Q 2594 391 2855 752 
Q 3116 1113 3116 1747 
z
" transform="scale(0.015625)"/>
       <path id="DejaVuSans-73" d="M 2834 3397 
L 2834 2853 
Q 2591 2978 2328 3040 
Q 2066 3103 1784 3103 
Q 1356 3103 1142 2972 
Q 928 2841 928 2578 
Q 928 2378 1081 2264 
Q 1234 2150 1697 2047 
L 1894 2003 
Q 2506 1872 2764 1633 
Q 3022 1394 3022 966 
Q 3022 478 2636 193 
Q 2250 -91 1575 -91 
Q 1294 -91 989 -36 
Q 684 19 347 128 
L 347 722 
Q 666 556 975 473 
Q 1284 391 1588 391 
Q 1994 391 2212 530 
Q 2431 669 2431 922 
Q 2431 1156 2273 1281 
Q 2116 1406 1581 1522 
L 1381 1569 
Q 847 1681 609 1914 
Q 372 2147 372 2553 
Q 372 3047 722 3315 
Q 1072 3584 1716 3584 
Q 2034 3584 2315 3537 
Q 2597 3491 2834 3397 
z
" transform="scale(0.015625)"/>
      </defs>
      <use xlink:href="#DejaVuSans-45"/>
      <use xlink:href="#DejaVuSans-4d" x="63.183594"/>
      <use xlink:href="#DejaVuSans-47" x="149.462891"/>
      <use xlink:href="#DejaVuSans-20" x="226.953125"/>
      <use xlink:href="#DejaVuSans-53" x="258.740234"/>
      <use xlink:href="#DejaVuSans-65" x="322.216797"/>
      <use xlink:href="#DejaVuSans-71" x="383.740234"/>
      <use xlink:href="#DejaVuSans-75" x="447.216797"/>
      <use xlink:href="#DejaVuSans-65" x="510.595703"/>
      <use xlink:href="#DejaVuSans-6e" x="572.119141"/>
      <use xlink:href="#DejaVuSans-63" x="635.498047"/>
      <use xlink:href="#DejaVuSans-65" x="690.478516"/>
      <use xlink:href="#DejaVuSans-20" x="752.001953"/>
      <use xlink:href="#DejaVuSans-47" x="783.789062"/>
      <use xlink:href="#DejaVuSans-72" x="861.279297"/>
      <use xlink:href="#DejaVuSans-6f" x="900.142578"/>
      <use xlink:href="#DejaVuSans-75" x="961.324219"/>
      <use xlink:href="#DejaVuSans-70" x="1024.703125"/>
      <use xlink:href="#DejaVuSans-73" x="1088.179688"/>
     </g>
    </g>
   </g>
   <g id="matplotlib.axis_2">
    <g id="ytick_1">
     <g id="line2d_4">
      <defs>
       <path id="me7531035c2" d="M 0 0 
L -4.8 0 
" style="stroke: #262626"/>
      </defs>
      <g>
       <use xlink:href="#me7531035c2" x="62.808" y="220.857509" style="fill: #262626; stroke: #262626"/>
      </g>
     </g>
     <g id="text_5">
      <!-- 0.0000 -->
      <g style="fill: #262626" transform="translate(23.71625 224.200821) scale(0.088 -0.088)">
       <defs>
        <path id="DejaVuSans-30" d="M 2034 4250 
Q 1547 4250 1301 3770 
Q 1056 3291 1056 2328 
Q 1056 1369 1301 889 
Q 1547 409 2034 409 
Q 2525 409 2770 889 
Q 3016 1369 3016 2328 
Q 3016 3291 2770 3770 
Q 2525 4250 2034 4250 
z
M 2034 4750 
Q 2819 4750 3233 4129 
Q 3647 3509 3647 2328 
Q 3647 1150 3233 529 
Q 2819 -91 2034 -91 
Q 1250 -91 836 529 
Q 422 1150 422 2328 
Q 422 3509 836 4129 
Q 1250 4750 2034 4750 
z
" transform="scale(0.015625)"/>
        <path id="DejaVuSans-2e" d="M 684 794 
L 1344 794 
L 1344 0 
L 684 0 
L 684 794 
z
" transform="scale(0.015625)"/>
       </defs>
       <use xlink:href="#DejaVuSans-30"/>
       <use xlink:href="#DejaVuSans-2e" x="63.623047"/>
       <use xlink:href="#DejaVuSans-30" x="95.410156"/>
       <use xlink:href="#DejaVuSans-30" x="159.033203"/>
       <use xlink:href="#DejaVuSans-30" x="222.65625"/>
       <use xlink:href="#DejaVuSans-30" x="286.279297"/>
      </g>
     </g>
    </g>
    <g id="ytick_2">
     <g id="line2d_5">
      <g>
       <use xlink:href="#me7531035c2" x="62.808" y="194.988746" style="fill: #262626; stroke: #262626"/>
      </g>
     </g>
     <g id="text_6">
      <!-- 0.0025 -->
      <g style="fill: #262626" transform="translate(23.71625 198.332058) scale(0.088 -0.088)">
       <defs>
        <path id="DejaVuSans-32" d="M 1228 531 
L 3431 531 
L 3431 0 
L 469 0 
L 469 531 
Q 828 903 1448 1529 
Q 2069 2156 2228 2338 
Q 2531 2678 2651 2914 
Q 2772 3150 2772 3378 
Q 2772 3750 2511 3984 
Q 2250 4219 1831 4219 
Q 1534 4219 1204 4116 
Q 875 4013 500 3803 
L 500 4441 
Q 881 4594 1212 4672 
Q 1544 4750 1819 4750 
Q 2544 4750 2975 4387 
Q 3406 4025 3406 3419 
Q 3406 3131 3298 2873 
Q 3191 2616 2906 2266 
Q 2828 2175 2409 1742 
Q 1991 1309 1228 531 
z
" transform="scale(0.015625)"/>
        <path id="DejaVuSans-35" d="M 691 4666 
L 3169 4666 
L 3169 4134 
L 1269 4134 
L 1269 2991 
Q 1406 3038 1543 3061 
Q 1681 3084 1819 3084 
Q 2600 3084 3056 2656 
Q 3513 2228 3513 1497 
Q 3513 744 3044 326 
Q 2575 -91 1722 -91 
Q 1428 -91 1123 -41 
Q 819 9 494 109 
L 494 744 
Q 775 591 1075 516 
Q 1375 441 1709 441 
Q 2250 441 2565 725 
Q 2881 1009 2881 1497 
Q 2881 1984 2565 2268 
Q 2250 2553 1709 2553 
Q 1456 2553 1204 2497 
Q 953 2441 691 2322 
L 691 4666 
z
" transform="scale(0.015625)"/>
       </defs>
       <use xlink:href="#DejaVuSans-30"/>
       <use xlink:href="#DejaVuSans-2e" x="63.623047"/>
       <use xlink:href="#DejaVuSans-30" x="95.410156"/>
       <use xlink:href="#DejaVuSans-30" x="159.033203"/>
       <use xlink:href="#DejaVuSans-32" x="222.65625"/>
       <use xlink:href="#DejaVuSans-35" x="286.279297"/>
      </g>
     </g>
    </g>
    <g id="ytick_3">
     <g id="line2d_6">
      <g>
       <use xlink:href="#me7531035c2" x="62.808" y="169.119983" style="fill: #262626; stroke: #262626"/>
      </g>
     </g>
     <g id="text_7">
      <!-- 0.0050 -->
      <g style="fill: #262626" transform="translate(23.71625 172.463296) scale(0.088 -0.088)">
       <use xlink:href="#DejaVuSans-30"/>
       <use xlink:href="#DejaVuSans-2e" x="63.623047"/>
       <use xlink:href="#DejaVuSans-30" x="95.410156"/>
       <use xlink:href="#DejaVuSans-30" x="159.033203"/>
       <use xlink:href="#DejaVuSans-35" x="222.65625"/>
       <use xlink:href="#DejaVuSans-30" x="286.279297"/>
      </g>
     </g>
    </g>
    <g id="ytick_4">
     <g id="line2d_7">
      <g>
       <use xlink:href="#me7531035c2" x="62.808" y="143.25122" style="fill: #262626; stroke: #262626"/>
      </g>
     </g>
     <g id="text_8">
      <!-- 0.0075 -->
      <g style="fill: #262626" transform="translate(23.71625 146.594533) scale(0.088 -0.088)">
       <defs>
        <path id="DejaVuSans-37" d="M 525 4666 
L 3525 4666 
L 3525 4397 
L 1831 0 
L 1172 0 
L 2766 4134 
L 525 4134 
L 525 4666 
z
" transform="scale(0.015625)"/>
       </defs>
       <use xlink:href="#DejaVuSans-30"/>
       <use xlink:href="#DejaVuSans-2e" x="63.623047"/>
       <use xlink:href="#DejaVuSans-30" x="95.410156"/>
       <use xlink:href="#DejaVuSans-30" x="159.033203"/>
       <use xlink:href="#DejaVuSans-37" x="222.65625"/>
       <use xlink:href="#DejaVuSans-35" x="286.279297"/>
      </g>
     </g>
    </g>
    <g id="ytick_5">
     <g id="line2d_8">
      <g>
       <use xlink:href="#me7531035c2" x="62.808" y="117.382457" style="fill: #262626; stroke: #262626"/>
      </g>
     </g>
     <g id="text_9">
      <!-- 0.0100 -->
      <g style="fill: #262626" transform="translate(23.71625 120.72577) scale(0.088 -0.088)">
       <defs>
        <path id="DejaVuSans-31" d="M 794 531 
L 1825 531 
L 1825 4091 
L 703 3866 
L 703 4441 
L 1819 4666 
L 2450 4666 
L 2450 531 
L 3481 531 
L 3481 0 
L 794 0 
L 794 531 
z
" transform="scale(0.015625)"/>
       </defs>
       <use xlink:href="#DejaVuSans-30"/>
       <use xlink:href="#DejaVuSans-2e" x="63.623047"/>
       <use xlink:href="#DejaVuSans-30" x="95.410156"/>
       <use xlink:href="#DejaVuSans-31" x="159.033203"/>
       <use xlink:href="#DejaVuSans-30" x="222.65625"/>
       <use xlink:href="#DejaVuSans-30" x="286.279297"/>
      </g>
     </g>
    </g>
    <g id="ytick_6">
     <g id="line2d_9">
      <g>
       <use xlink:href="#me7531035c2" x="62.808" y="91.513694" style="fill: #262626; stroke: #262626"/>
      </g>
     </g>
     <g id="text_10">
      <!-- 0.0125 -->
      <g style="fill: #262626" transform="translate(23.71625 94.857007) scale(0.088 -0.088)">
       <use xlink:href="#DejaVuSans-30"/>
       <use xlink:href="#DejaVuSans-2e" x="63.623047"/>
       <use xlink:href="#DejaVuSans-30" x="95.410156"/>
       <use xlink:href="#DejaVuSans-31" x="159.033203"/>
       <use xlink:href="#DejaVuSans-32" x="222.65625"/>
       <use xlink:href="#DejaVuSans-35" x="286.279297"/>
      </g>
     </g>
    </g>
    <g id="ytick_7">
     <g id="line2d_10">
      <g>
       <use xlink:href="#me7531035c2" x="62.808" y="65.644931" style="fill: #262626; stroke: #262626"/>
      </g>
     </g>
     <g id="text_11">
      <!-- 0.0150 -->
      <g style="fill: #262626" transform="translate(23.71625 68.988244) scale(0.088 -0.088)">
       <use xlink:href="#DejaVuSans-30"/>
       <use xlink:href="#DejaVuSans-2e" x="63.623047"/>
       <use xlink:href="#DejaVuSans-30" x="95.410156"/>
       <use xlink:href="#DejaVuSans-31" x="159.033203"/>
       <use xlink:href="#DejaVuSans-35" x="222.65625"/>
       <use xlink:href="#DejaVuSans-30" x="286.279297"/>
      </g>
     </g>
    </g>
    <g id="ytick_8">
     <g id="line2d_11">
      <g>
       <use xlink:href="#me7531035c2" x="62.808" y="39.776168" style="fill: #262626; stroke: #262626"/>
      </g>
     </g>
     <g id="text_12">
      <!-- 0.0175 -->
      <g style="fill: #262626" transform="translate(23.71625 43.119481) scale(0.088 -0.088)">
       <use xlink:href="#DejaVuSans-30"/>
       <use xlink:href="#DejaVuSans-2e" x="63.623047"/>
       <use xlink:href="#DejaVuSans-30" x="95.410156"/>
       <use xlink:href="#DejaVuSans-31" x="159.033203"/>
       <use xlink:href="#DejaVuSans-37" x="222.65625"/>
       <use xlink:href="#DejaVuSans-35" x="286.279297"/>
      </g>
     </g>
    </g>
    <g id="ytick_9">
     <g id="line2d_12">
      <g>
       <use xlink:href="#me7531035c2" x="62.808" y="13.907406" style="fill: #262626; stroke: #262626"/>
      </g>
     </g>
     <g id="text_13">
      <!-- 0.0200 -->
      <g style="fill: #262626" transform="translate(23.71625 17.250718) scale(0.088 -0.088)">
       <use xlink:href="#DejaVuSans-30"/>
       <use xlink:href="#DejaVuSans-2e" x="63.623047"/>
       <use xlink:href="#DejaVuSans-30" x="95.410156"/>
       <use xlink:href="#DejaVuSans-32" x="159.033203"/>
       <use xlink:href="#DejaVuSans-30" x="222.65625"/>
       <use xlink:href="#DejaVuSans-30" x="286.279297"/>
      </g>
     </g>
    </g>
    <g id="text_14">
     <!-- Average Confirmation Probability -->
     <g style="fill: #262626" transform="translate(17.71975 198.430792) rotate(-90) scale(0.096 -0.096)">
      <defs>
       <path id="DejaVuSans-41" d="M 2188 4044 
L 1331 1722 
L 3047 1722 
L 2188 4044 
z
M 1831 4666 
L 2547 4666 
L 4325 0 
L 3669 0 
L 3244 1197 
L 1141 1197 
L 716 0 
L 50 0 
L 1831 4666 
z
" transform="scale(0.015625)"/>
       <path id="DejaVuSans-76" d="M 191 3500 
L 800 3500 
L 1894 563 
L 2988 3500 
L 3597 3500 
L 2284 0 
L 1503 0 
L 191 3500 
z
" transform="scale(0.015625)"/>
       <path id="DejaVuSans-61" d="M 2194 1759 
Q 1497 1759 1228 1600 
Q 959 1441 959 1056 
Q 959 750 1161 570 
Q 1363 391 1709 391 
Q 2188 391 2477 730 
Q 2766 1069 2766 1631 
L 2766 1759 
L 2194 1759 
z
M 3341 1997 
L 3341 0 
L 2766 0 
L 2766 531 
Q 2569 213 2275 61 
Q 1981 -91 1556 -91 
Q 1019 -91 701 211 
Q 384 513 384 1019 
Q 384 1609 779 1909 
Q 1175 2209 1959 2209 
L 2766 2209 
L 2766 2266 
Q 2766 2663 2505 2880 
Q 2244 3097 1772 3097 
Q 1472 3097 1187 3025 
Q 903 2953 641 2809 
L 641 3341 
Q 956 3463 1253 3523 
Q 1550 3584 1831 3584 
Q 2591 3584 2966 3190 
Q 3341 2797 3341 1997 
z
" transform="scale(0.015625)"/>
       <path id="DejaVuSans-67" d="M 2906 1791 
Q 2906 2416 2648 2759 
Q 2391 3103 1925 3103 
Q 1463 3103 1205 2759 
Q 947 2416 947 1791 
Q 947 1169 1205 825 
Q 1463 481 1925 481 
Q 2391 481 2648 825 
Q 2906 1169 2906 1791 
z
M 3481 434 
Q 3481 -459 3084 -895 
Q 2688 -1331 1869 -1331 
Q 1566 -1331 1297 -1286 
Q 1028 -1241 775 -1147 
L 775 -588 
Q 1028 -725 1275 -790 
Q 1522 -856 1778 -856 
Q 2344 -856 2625 -561 
Q 2906 -266 2906 331 
L 2906 616 
Q 2728 306 2450 153 
Q 2172 0 1784 0 
Q 1141 0 747 490 
Q 353 981 353 1791 
Q 353 2603 747 3093 
Q 1141 3584 1784 3584 
Q 2172 3584 2450 3431 
Q 2728 3278 2906 2969 
L 2906 3500 
L 3481 3500 
L 3481 434 
z
" transform="scale(0.015625)"/>
       <path id="DejaVuSans-66" d="M 2375 4863 
L 2375 4384 
L 1825 4384 
Q 1516 4384 1395 4259 
Q 1275 4134 1275 3809 
L 1275 3500 
L 2222 3500 
L 2222 3053 
L 1275 3053 
L 1275 0 
L 697 0 
L 697 3053 
L 147 3053 
L 147 3500 
L 697 3500 
L 697 3744 
Q 697 4328 969 4595 
Q 1241 4863 1831 4863 
L 2375 4863 
z
" transform="scale(0.015625)"/>
       <path id="DejaVuSans-69" d="M 603 3500 
L 1178 3500 
L 1178 0 
L 603 0 
L 603 3500 
z
M 603 4863 
L 1178 4863 
L 1178 4134 
L 603 4134 
L 603 4863 
z
" transform="scale(0.015625)"/>
       <path id="DejaVuSans-6d" d="M 3328 2828 
Q 3544 3216 3844 3400 
Q 4144 3584 4550 3584 
Q 5097 3584 5394 3201 
Q 5691 2819 5691 2113 
L 5691 0 
L 5113 0 
L 5113 2094 
Q 5113 2597 4934 2840 
Q 4756 3084 4391 3084 
Q 3944 3084 3684 2787 
Q 3425 2491 3425 1978 
L 3425 0 
L 2847 0 
L 2847 2094 
Q 2847 2600 2669 2842 
Q 2491 3084 2119 3084 
Q 1678 3084 1418 2786 
Q 1159 2488 1159 1978 
L 1159 0 
L 581 0 
L 581 3500 
L 1159 3500 
L 1159 2956 
Q 1356 3278 1631 3431 
Q 1906 3584 2284 3584 
Q 2666 3584 2933 3390 
Q 3200 3197 3328 2828 
z
" transform="scale(0.015625)"/>
       <path id="DejaVuSans-74" d="M 1172 4494 
L 1172 3500 
L 2356 3500 
L 2356 3053 
L 1172 3053 
L 1172 1153 
Q 1172 725 1289 603 
Q 1406 481 1766 481 
L 2356 481 
L 2356 0 
L 1766 0 
Q 1100 0 847 248 
Q 594 497 594 1153 
L 594 3053 
L 172 3053 
L 172 3500 
L 594 3500 
L 594 4494 
L 1172 4494 
z
" transform="scale(0.015625)"/>
       <path id="DejaVuSans-50" d="M 1259 4147 
L 1259 2394 
L 2053 2394 
Q 2494 2394 2734 2622 
Q 2975 2850 2975 3272 
Q 2975 3691 2734 3919 
Q 2494 4147 2053 4147 
L 1259 4147 
z
M 628 4666 
L 2053 4666 
Q 2838 4666 3239 4311 
Q 3641 3956 3641 3272 
Q 3641 2581 3239 2228 
Q 2838 1875 2053 1875 
L 1259 1875 
L 1259 0 
L 628 0 
L 628 4666 
z
" transform="scale(0.015625)"/>
       <path id="DejaVuSans-62" d="M 3116 1747 
Q 3116 2381 2855 2742 
Q 2594 3103 2138 3103 
Q 1681 3103 1420 2742 
Q 1159 2381 1159 1747 
Q 1159 1113 1420 752 
Q 1681 391 2138 391 
Q 2594 391 2855 752 
Q 3116 1113 3116 1747 
z
M 1159 2969 
Q 1341 3281 1617 3432 
Q 1894 3584 2278 3584 
Q 2916 3584 3314 3078 
Q 3713 2572 3713 1747 
Q 3713 922 3314 415 
Q 2916 -91 2278 -91 
Q 1894 -91 1617 61 
Q 1341 213 1159 525 
L 1159 0 
L 581 0 
L 581 4863 
L 1159 4863 
L 1159 2969 
z
" transform="scale(0.015625)"/>
       <path id="DejaVuSans-6c" d="M 603 4863 
L 1178 4863 
L 1178 0 
L 603 0 
L 603 4863 
z
" transform="scale(0.015625)"/>
       <path id="DejaVuSans-79" d="M 2059 -325 
Q 1816 -950 1584 -1140 
Q 1353 -1331 966 -1331 
L 506 -1331 
L 506 -850 
L 844 -850 
Q 1081 -850 1212 -737 
Q 1344 -625 1503 -206 
L 1606 56 
L 191 3500 
L 800 3500 
L 1894 763 
L 2988 3500 
L 3597 3500 
L 2059 -325 
z
" transform="scale(0.015625)"/>
      </defs>
      <use xlink:href="#DejaVuSans-41"/>
      <use xlink:href="#DejaVuSans-76" x="62.533203"/>
      <use xlink:href="#DejaVuSans-65" x="121.712891"/>
      <use xlink:href="#DejaVuSans-72" x="183.236328"/>
      <use xlink:href="#DejaVuSans-61" x="224.349609"/>
      <use xlink:href="#DejaVuSans-67" x="285.628906"/>
      <use xlink:href="#DejaVuSans-65" x="349.105469"/>
      <use xlink:href="#DejaVuSans-20" x="410.628906"/>
      <use xlink:href="#DejaVuSans-43" x="442.416016"/>
      <use xlink:href="#DejaVuSans-6f" x="512.240234"/>
      <use xlink:href="#DejaVuSans-6e" x="573.421875"/>
      <use xlink:href="#DejaVuSans-66" x="636.800781"/>
      <use xlink:href="#DejaVuSans-69" x="672.005859"/>
      <use xlink:href="#DejaVuSans-72" x="699.789062"/>
      <use xlink:href="#DejaVuSans-6d" x="739.152344"/>
      <use xlink:href="#DejaVuSans-61" x="836.564453"/>
      <use xlink:href="#DejaVuSans-74" x="897.84375"/>
      <use xlink:href="#DejaVuSans-69" x="937.052734"/>
      <use xlink:href="#DejaVuSans-6f" x="964.835938"/>
      <use xlink:href="#DejaVuSans-6e" x="1026.017578"/>
      <use xlink:href="#DejaVuSans-20" x="1089.396484"/>
      <use xlink:href="#DejaVuSans-50" x="1121.183594"/>
      <use xlink:href="#DejaVuSans-72" x="1179.736328"/>
      <use xlink:href="#DejaVuSans-6f" x="1218.599609"/>
      <use xlink:href="#DejaVuSans-62" x="1279.78125"/>
      <use xlink:href="#DejaVuSans-61" x="1343.257812"/>
      <use xlink:href="#DejaVuSans-62" x="1404.537109"/>
      <use xlink:href="#DejaVuSans-69" x="1468.013672"/>
      <use xlink:href="#DejaVuSans-6c" x="1495.796875"/>
      <use xlink:href="#DejaVuSans-69" x="1523.580078"/>
      <use xlink:href="#DejaVuSans-74" x="1551.363281"/>
      <use xlink:href="#DejaVuSans-79" x="1590.572266"/>
     </g>
    </g>
   </g>
   <g id="PolyCollection_1">
    <defs>
     <path id="mcfeef5d30c" d="M 149.471603 -76.244259 
L 148.443857 -76.244259 
L 148.304302 -76.967425 
L 148.129581 -77.690591 
L 147.911473 -78.413757 
L 147.644919 -79.136923 
L 147.327324 -79.86009 
L 146.953882 -80.583256 
L 146.510129 -81.306422 
L 145.965197 -82.029588 
L 145.270063 -82.752754 
L 144.363581 -83.475921 
L 143.185618 -84.199087 
L 141.692563 -84.922253 
L 139.868162 -85.645419 
L 137.723922 -86.368585 
L 135.288181 -87.091752 
L 132.5889 -87.814918 
L 129.638639 -88.538084 
L 126.429201 -89.26125 
L 122.939061 -89.984416 
L 119.152046 -90.707583 
L 115.082318 -91.430749 
L 110.798268 -92.153915 
L 106.435766 -92.877081 
L 102.191242 -93.600247 
L 98.290181 -94.323414 
L 94.936914 -95.04658 
L 92.261974 -95.769746 
L 90.287059 -96.492912 
L 88.922105 -97.216078 
L 87.997296 -97.939245 
L 87.32098 -98.662411 
L 86.745772 -99.385577 
L 86.220817 -100.108743 
L 85.809721 -100.831909 
L 85.663636 -101.555076 
L 85.956752 -102.278242 
L 86.809684 -103.001408 
L 88.233965 -103.724574 
L 90.121823 -104.44774 
L 92.284252 -105.170907 
L 94.518849 -105.894073 
L 96.677874 -106.617239 
L 98.709796 -107.340405 
L 100.660563 -108.063571 
L 102.637691 -108.786738 
L 104.754547 -109.509904 
L 107.078989 -110.23307 
L 109.606757 -110.956236 
L 112.267151 -111.679402 
L 114.952857 -112.402569 
L 117.555865 -113.125735 
L 119.992693 -113.848901 
L 122.212673 -114.572067 
L 124.194783 -115.295233 
L 125.943111 -116.0184 
L 127.486451 -116.741566 
L 128.879139 -117.464732 
L 130.196014 -118.187898 
L 131.517662 -118.911064 
L 132.909408 -119.634231 
L 134.402467 -120.357397 
L 135.984723 -121.080563 
L 137.603505 -121.803729 
L 139.177873 -122.526896 
L 140.616065 -123.250062 
L 141.83434 -123.973228 
L 142.774305 -124.696394 
L 143.415722 -125.41956 
L 143.781498 -126.142727 
L 143.932664 -126.865893 
L 143.953958 -127.589059 
L 143.934199 -128.312225 
L 143.947716 -129.035391 
L 144.042507 -129.758558 
L 144.23768 -130.481724 
L 144.528786 -131.20489 
L 144.896956 -131.928056 
L 145.317524 -132.651222 
L 145.7657 -133.374389 
L 146.219247 -134.097555 
L 146.659535 -134.820721 
L 147.072136 -135.543887 
L 147.447189 -136.267053 
L 147.779108 -136.99022 
L 148.065516 -137.713386 
L 148.305902 -138.436552 
L 148.500785 -139.159718 
L 148.651658 -139.882884 
L 148.761341 -140.606051 
L 148.834036 -141.329217 
L 148.874808 -142.052383 
L 148.888764 -142.775549 
L 148.880565 -143.498715 
L 148.854713 -144.221882 
L 148.816478 -144.945048 
L 148.772756 -145.668214 
L 148.732044 -146.39138 
L 148.703091 -147.114546 
L 148.692623 -147.837713 
L 149.222837 -147.837713 
L 149.222837 -147.837713 
L 149.212369 -147.114546 
L 149.183415 -146.39138 
L 149.142704 -145.668214 
L 149.098982 -144.945048 
L 149.060747 -144.221882 
L 149.034895 -143.498715 
L 149.026696 -142.775549 
L 149.040652 -142.052383 
L 149.081424 -141.329217 
L 149.154119 -140.606051 
L 149.263801 -139.882884 
L 149.414675 -139.159718 
L 149.609558 -138.436552 
L 149.849944 -137.713386 
L 150.136352 -136.99022 
L 150.468271 -136.267053 
L 150.843324 -135.543887 
L 151.255925 -134.820721 
L 151.696212 -134.097555 
L 152.14976 -133.374389 
L 152.597936 -132.651222 
L 153.018504 -131.928056 
L 153.386674 -131.20489 
L 153.67778 -130.481724 
L 153.872953 -129.758558 
L 153.967744 -129.035391 
L 153.98126 -128.312225 
L 153.961501 -127.589059 
L 153.982795 -126.865893 
L 154.133961 -126.142727 
L 154.499738 -125.41956 
L 155.141154 -124.696394 
L 156.08112 -123.973228 
L 157.299395 -123.250062 
L 158.737587 -122.526896 
L 160.311955 -121.803729 
L 161.930737 -121.080563 
L 163.512993 -120.357397 
L 165.006052 -119.634231 
L 166.397798 -118.911064 
L 167.719446 -118.187898 
L 169.036321 -117.464732 
L 170.429009 -116.741566 
L 171.972349 -116.0184 
L 173.720677 -115.295233 
L 175.702787 -114.572067 
L 177.922767 -113.848901 
L 180.359595 -113.125735 
L 182.962603 -112.402569 
L 185.648309 -111.679402 
L 188.308703 -110.956236 
L 190.836471 -110.23307 
L 193.160912 -109.509904 
L 195.277769 -108.786738 
L 197.254897 -108.063571 
L 199.205664 -107.340405 
L 201.237585 -106.617239 
L 203.396611 -105.894073 
L 205.631208 -105.170907 
L 207.793637 -104.44774 
L 209.681495 -103.724574 
L 211.105776 -103.001408 
L 211.958708 -102.278242 
L 212.251823 -101.555076 
L 212.105739 -100.831909 
L 211.694643 -100.108743 
L 211.169688 -99.385577 
L 210.59448 -98.662411 
L 209.918164 -97.939245 
L 208.993354 -97.216078 
L 207.628401 -96.492912 
L 205.653486 -95.769746 
L 202.978546 -95.04658 
L 199.625279 -94.323414 
L 195.724218 -93.600247 
L 191.479694 -92.877081 
L 187.117192 -92.153915 
L 182.833142 -91.430749 
L 178.763413 -90.707583 
L 174.976398 -89.984416 
L 171.486259 -89.26125 
L 168.27682 -88.538084 
L 165.32656 -87.814918 
L 162.627278 -87.091752 
L 160.191538 -86.368585 
L 158.047298 -85.645419 
L 156.222897 -84.922253 
L 154.729842 -84.199087 
L 153.551879 -83.475921 
L 152.645397 -82.752754 
L 151.950263 -82.029588 
L 151.405331 -81.306422 
L 150.961578 -80.583256 
L 150.588136 -79.86009 
L 150.270541 -79.136923 
L 150.003987 -78.413757 
L 149.785879 -77.690591 
L 149.611157 -76.967425 
L 149.471603 -76.244259 
z
" style="stroke: #474747"/>
    </defs>
    <g clip-path="url(#paec3d1fb6c)">
     <use xlink:href="#mcfeef5d30c" x="0" y="288" style="fill: #51779d; stroke: #474747"/>
    </g>
   </g>
   <g id="PolyCollection_2">
    <defs>
     <path id="m85938a3d3c" d="M 316.876111 -71.475903 
L 316.52964 -71.475903 
L 316.395042 -72.832178 
L 316.199231 -74.188452 
L 315.915371 -75.544726 
L 315.52981 -76.901 
L 315.005664 -78.257274 
L 314.321924 -79.613548 
L 313.434231 -80.969822 
L 312.192403 -82.326096 
L 310.410216 -83.68237 
L 308.06716 -85.038644 
L 305.395305 -86.394918 
L 302.487275 -87.751192 
L 298.963931 -89.107466 
L 294.466598 -90.46374 
L 289.254646 -91.820014 
L 283.623108 -93.176288 
L 277.334589 -94.532563 
L 270.632551 -95.888837 
L 264.689528 -97.245111 
L 259.78583 -98.601385 
L 255.306668 -99.957659 
L 251.599544 -101.313933 
L 249.604817 -102.670207 
L 249.860863 -104.026481 
L 252.65981 -105.382755 
L 257.600413 -106.739029 
L 263.359021 -108.095303 
L 269.105532 -109.451577 
L 274.629155 -110.807851 
L 279.419364 -112.164125 
L 283.416536 -113.520399 
L 287.142273 -114.876673 
L 291.311066 -116.232948 
L 296.07234 -117.589222 
L 300.398897 -118.945496 
L 303.469561 -120.30177 
L 305.426836 -121.658044 
L 306.744513 -123.014318 
L 307.785082 -124.370592 
L 308.871794 -125.726866 
L 310.102349 -127.08314 
L 311.263545 -128.439414 
L 312.188742 -129.795688 
L 312.939622 -131.151962 
L 313.588273 -132.508236 
L 314.103009 -133.86451 
L 314.469019 -135.220784 
L 314.778938 -136.577059 
L 315.14465 -137.933333 
L 315.542648 -139.289607 
L 315.885978 -140.645881 
L 316.131617 -142.002155 
L 316.254492 -143.358429 
L 316.281718 -144.714703 
L 316.276636 -146.070977 
L 316.273348 -147.427251 
L 316.305056 -148.783525 
L 316.391216 -150.139799 
L 316.480951 -151.496073 
L 316.524152 -152.852347 
L 316.526723 -154.208621 
L 316.497651 -155.564895 
L 316.471623 -156.921169 
L 316.499816 -158.277444 
L 316.571872 -159.633718 
L 316.640575 -160.989992 
L 316.681856 -162.346266 
L 316.696495 -163.70254 
L 316.688999 -165.058814 
L 316.651316 -166.415088 
L 316.591411 -167.771362 
L 316.562461 -169.127636 
L 316.590541 -170.48391 
L 316.63939 -171.840184 
L 316.677126 -173.196458 
L 316.696069 -174.552732 
L 316.701812 -175.909006 
L 316.702782 -177.26528 
L 316.702871 -178.621554 
L 316.702875 -179.977829 
L 316.702876 -181.334103 
L 316.702876 -182.690377 
L 316.702876 -184.046651 
L 316.702876 -185.402925 
L 316.702876 -186.759199 
L 316.702876 -188.115473 
L 316.702876 -189.471747 
L 316.702876 -190.828021 
L 316.702876 -192.184295 
L 316.702876 -193.540569 
L 316.702876 -194.896843 
L 316.702876 -196.253117 
L 316.702875 -197.609391 
L 316.702855 -198.965665 
L 316.702556 -200.321939 
L 316.7002 -201.678214 
L 316.69068 -203.034488 
L 316.672574 -204.390762 
L 316.661834 -205.747036 
L 316.743917 -205.747036 
L 316.743917 -205.747036 
L 316.733177 -204.390762 
L 316.715071 -203.034488 
L 316.705551 -201.678214 
L 316.703196 -200.321939 
L 316.702896 -198.965665 
L 316.702876 -197.609391 
L 316.702876 -196.253117 
L 316.702876 -194.896843 
L 316.702876 -193.540569 
L 316.702876 -192.184295 
L 316.702876 -190.828021 
L 316.702876 -189.471747 
L 316.702876 -188.115473 
L 316.702876 -186.759199 
L 316.702876 -185.402925 
L 316.702876 -184.046651 
L 316.702876 -182.690377 
L 316.702876 -181.334103 
L 316.702876 -179.977829 
L 316.70288 -178.621554 
L 316.702969 -177.26528 
L 316.703939 -175.909006 
L 316.709683 -174.552732 
L 316.728625 -173.196458 
L 316.766361 -171.840184 
L 316.81521 -170.48391 
L 316.84329 -169.127636 
L 316.81434 -167.771362 
L 316.754435 -166.415088 
L 316.716752 -165.058814 
L 316.709256 -163.70254 
L 316.723895 -162.346266 
L 316.765176 -160.989992 
L 316.833879 -159.633718 
L 316.905935 -158.277444 
L 316.934128 -156.921169 
L 316.9081 -155.564895 
L 316.879028 -154.208621 
L 316.881599 -152.852347 
L 316.9248 -151.496073 
L 317.014535 -150.139799 
L 317.100695 -148.783525 
L 317.132403 -147.427251 
L 317.129115 -146.070977 
L 317.124033 -144.714703 
L 317.151259 -143.358429 
L 317.274134 -142.002155 
L 317.519773 -140.645881 
L 317.863103 -139.289607 
L 318.261101 -137.933333 
L 318.626813 -136.577059 
L 318.936732 -135.220784 
L 319.302742 -133.86451 
L 319.817478 -132.508236 
L 320.466129 -131.151962 
L 321.217009 -129.795688 
L 322.142206 -128.439414 
L 323.303402 -127.08314 
L 324.533957 -125.726866 
L 325.620669 -124.370592 
L 326.661238 -123.014318 
L 327.978915 -121.658044 
L 329.93619 -120.30177 
L 333.006854 -118.945496 
L 337.333411 -117.589222 
L 342.094685 -116.232948 
L 346.263478 -114.876673 
L 349.989215 -113.520399 
L 353.986387 -112.164125 
L 358.776596 -110.807851 
L 364.300219 -109.451577 
L 370.04673 -108.095303 
L 375.805338 -106.739029 
L 380.745941 -105.382755 
L 383.544888 -104.026481 
L 383.800934 -102.670207 
L 381.806207 -101.313933 
L 378.099083 -99.957659 
L 373.619921 -98.601385 
L 368.716223 -97.245111 
L 362.7732 -95.888837 
L 356.071162 -94.532563 
L 349.782643 -93.176288 
L 344.151105 -91.820014 
L 338.939153 -90.46374 
L 334.44182 -89.107466 
L 330.918476 -87.751192 
L 328.010446 -86.394918 
L 325.338591 -85.038644 
L 322.995535 -83.68237 
L 321.213348 -82.326096 
L 319.97152 -80.969822 
L 319.083827 -79.613548 
L 318.400087 -78.257274 
L 317.875941 -76.901 
L 317.49038 -75.544726 
L 317.20652 -74.188452 
L 317.010709 -72.832178 
L 316.876111 -71.475903 
z
" style="stroke: #474747"/>
    </defs>
    <g clip-path="url(#paec3d1fb6c)">
     <use xlink:href="#m85938a3d3c" x="0" y="288" style="fill: #51779d; stroke: #474747"/>
    </g>
   </g>
   <g id="PolyCollection_3">
    <defs>
     <path id="mf31dcf196d" d="M 486.16141 -79.220365 
L 482.734632 -79.220365 
L 482.438067 -79.868499 
L 482.107923 -80.516633 
L 481.737478 -81.164766 
L 481.317359 -81.8129 
L 480.835346 -82.461033 
L 480.27642 -83.109167 
L 479.623115 -83.757301 
L 478.856185 -84.405434 
L 477.955515 -85.053568 
L 476.901173 -85.701701 
L 475.674488 -86.349835 
L 474.259104 -86.997968 
L 472.642067 -87.646102 
L 470.815053 -88.294236 
L 468.775878 -88.942369 
L 466.53028 -89.590503 
L 464.093788 -90.238636 
L 461.493212 -90.88677 
L 458.76716 -91.534904 
L 455.964974 -92.183037 
L 453.143747 -92.831171 
L 450.363501 -93.479304 
L 447.681166 -94.127438 
L 445.144451 -94.775571 
L 442.786901 -95.423705 
L 440.625289 -96.071839 
L 438.660004 -96.719972 
L 436.878336 -97.368106 
L 435.259829 -98.016239 
L 433.782371 -98.664373 
L 432.427541 -99.312506 
L 431.184125 -99.96064 
L 430.049342 -100.608774 
L 429.028083 -101.256907 
L 428.131059 -101.905041 
L 427.372893 -102.553174 
L 426.771002 -103.201308 
L 426.345492 -103.849442 
L 426.119679 -104.497575 
L 426.120365 -105.145709 
L 426.376914 -105.793842 
L 426.918491 -106.441976 
L 427.769443 -107.090109 
L 428.943576 -107.738243 
L 430.43857 -108.386377 
L 432.232063 -109.03451 
L 434.280652 -109.682644 
L 436.522485 -110.330777 
L 438.883253 -110.978911 
L 441.284599 -111.627045 
L 443.653301 -112.275178 
L 445.929423 -112.923312 
L 448.0718 -113.571445 
L 450.059882 -114.219579 
L 451.891828 -114.867712 
L 453.579611 -115.515846 
L 455.142611 -116.16398 
L 456.60143 -116.812113 
L 457.973488 -117.460247 
L 459.271309 -118.10838 
L 460.503558 -118.756514 
L 461.677993 -119.404647 
L 462.804935 -120.052781 
L 463.89974 -120.700915 
L 464.983124 -121.349048 
L 466.078959 -121.997182 
L 467.210021 -122.645315 
L 468.392848 -123.293449 
L 469.633202 -123.941583 
L 470.923446 -124.589716 
L 472.242587 -125.23785 
L 473.559022 -125.885983 
L 474.835306 -126.534117 
L 476.033821 -127.18225 
L 477.122133 -127.830384 
L 478.077026 -128.478518 
L 478.886654 -129.126651 
L 479.550715 -129.774785 
L 480.07895 -130.422918 
L 480.488553 -131.071052 
L 480.801087 -131.719186 
L 481.039476 -132.367319 
L 481.225469 -133.015453 
L 481.377797 -133.663586 
L 481.511104 -134.31172 
L 481.635611 -134.959853 
L 481.757401 -135.607987 
L 481.879154 -136.256121 
L 482.001161 -136.904254 
L 482.122415 -137.552388 
L 482.241608 -138.200521 
L 482.357911 -138.848655 
L 482.471424 -139.496788 
L 482.583293 -140.144922 
L 482.695509 -140.793056 
L 482.810468 -141.441189 
L 482.930408 -142.089323 
L 483.056841 -142.737456 
L 483.190109 -143.38559 
L 485.705933 -143.38559 
L 485.705933 -143.38559 
L 485.839202 -142.737456 
L 485.965634 -142.089323 
L 486.085574 -141.441189 
L 486.200534 -140.793056 
L 486.312749 -140.144922 
L 486.424618 -139.496788 
L 486.538131 -138.848655 
L 486.654434 -138.200521 
L 486.773628 -137.552388 
L 486.894881 -136.904254 
L 487.016888 -136.256121 
L 487.138642 -135.607987 
L 487.260431 -134.959853 
L 487.384939 -134.31172 
L 487.518245 -133.663586 
L 487.670573 -133.015453 
L 487.856566 -132.367319 
L 488.094955 -131.719186 
L 488.407489 -131.071052 
L 488.817092 -130.422918 
L 489.345327 -129.774785 
L 490.009388 -129.126651 
L 490.819017 -128.478518 
L 491.773909 -127.830384 
L 492.862221 -127.18225 
L 494.060736 -126.534117 
L 495.33702 -125.885983 
L 496.653455 -125.23785 
L 497.972596 -124.589716 
L 499.26284 -123.941583 
L 500.503195 -123.293449 
L 501.686021 -122.645315 
L 502.817083 -121.997182 
L 503.912918 -121.349048 
L 504.996302 -120.700915 
L 506.091108 -120.052781 
L 507.21805 -119.404647 
L 508.392484 -118.756514 
L 509.624733 -118.10838 
L 510.922554 -117.460247 
L 512.294612 -116.812113 
L 513.753432 -116.16398 
L 515.316431 -115.515846 
L 517.004214 -114.867712 
L 518.83616 -114.219579 
L 520.824242 -113.571445 
L 522.966619 -112.923312 
L 525.242741 -112.275178 
L 527.611444 -111.627045 
L 530.012789 -110.978911 
L 532.373557 -110.330777 
L 534.61539 -109.682644 
L 536.663979 -109.03451 
L 538.457472 -108.386377 
L 539.952466 -107.738243 
L 541.126599 -107.090109 
L 541.977552 -106.441976 
L 542.519128 -105.793842 
L 542.775678 -105.145709 
L 542.776364 -104.497575 
L 542.55055 -103.849442 
L 542.12504 -103.201308 
L 541.523149 -102.553174 
L 540.764983 -101.905041 
L 539.867959 -101.256907 
L 538.846701 -100.608774 
L 537.711917 -99.96064 
L 536.468502 -99.312506 
L 535.113671 -98.664373 
L 533.636213 -98.016239 
L 532.017707 -97.368106 
L 530.236038 -96.719972 
L 528.270754 -96.071839 
L 526.109142 -95.423705 
L 523.751591 -94.775571 
L 521.214876 -94.127438 
L 518.532541 -93.479304 
L 515.752295 -92.831171 
L 512.931068 -92.183037 
L 510.128883 -91.534904 
L 507.40283 -90.88677 
L 504.802254 -90.238636 
L 502.365762 -89.590503 
L 500.120164 -88.942369 
L 498.080989 -88.294236 
L 496.253975 -87.646102 
L 494.636938 -86.997968 
L 493.221554 -86.349835 
L 491.994869 -85.701701 
L 490.940528 -85.053568 
L 490.039858 -84.405434 
L 489.272927 -83.757301 
L 488.619622 -83.109167 
L 488.060696 -82.461033 
L 487.578684 -81.8129 
L 487.158564 -81.164766 
L 486.788119 -80.516633 
L 486.457976 -79.868499 
L 486.16141 -79.220365 
z
" style="stroke: #474747"/>
    </defs>
    <g clip-path="url(#paec3d1fb6c)">
     <use xlink:href="#mf31dcf196d" x="0" y="288" style="fill: #51779d; stroke: #474747"/>
    </g>
   </g>
   <g id="line2d_13">
    <path d="M 148.95773 208.403596 
L 148.95773 159.292338 
" clip-path="url(#paec3d1fb6c)" style="fill: none; stroke: #474747; stroke-width: 1.5; stroke-linecap: round"/>
   </g>
   <g id="line2d_14">
    <path d="M 148.95773 191.402942 
L 148.95773 178.550915 
" clip-path="url(#paec3d1fb6c)" style="fill: none; stroke: #474747; stroke-width: 4.5; stroke-linecap: round"/>
   </g>
   <g id="line2d_15">
    <path d="M 148.95773 185.540148 
" clip-path="url(#paec3d1fb6c)" style="fill: none; stroke: #474747; stroke-width: 1.2; stroke-linecap: round"/>
    <defs>
     <path id="m7bb54d94c7" d="M 1.875 0 
L -1.875 -0 
" style="stroke: #ffffff; stroke-width: 0.9"/>
    </defs>
    <g clip-path="url(#paec3d1fb6c)">
     <use xlink:href="#m7bb54d94c7" x="148.95773" y="185.540148" style="fill: #ffffff; stroke: #ffffff; stroke-width: 0.9"/>
    </g>
   </g>
   <g id="line2d_16">
    <path d="M 316.702876 209.098574 
L 316.702876 158.858286 
" clip-path="url(#paec3d1fb6c)" style="fill: none; stroke: #474747; stroke-width: 1.5; stroke-linecap: round"/>
   </g>
   <g id="line2d_17">
    <path d="M 316.702876 190.270332 
L 316.702876 177.682953 
" clip-path="url(#paec3d1fb6c)" style="fill: none; stroke: #474747; stroke-width: 4.5; stroke-linecap: round"/>
   </g>
   <g id="line2d_18">
    <path d="M 316.702876 184.261245 
" clip-path="url(#paec3d1fb6c)" style="fill: none; stroke: #474747; stroke-width: 1.2; stroke-linecap: round"/>
    <g clip-path="url(#paec3d1fb6c)">
     <use xlink:href="#m7bb54d94c7" x="316.702876" y="184.261245" style="fill: #ffffff; stroke: #ffffff; stroke-width: 0.9"/>
    </g>
   </g>
   <g id="line2d_19">
    <path d="M 484.448021 208.779635 
L 484.448021 157.025347 
" clip-path="url(#paec3d1fb6c)" style="fill: none; stroke: #474747; stroke-width: 1.5; stroke-linecap: round"/>
   </g>
   <g id="line2d_20">
    <path d="M 484.448021 189.115899 
L 484.448021 175.881465 
" clip-path="url(#paec3d1fb6c)" style="fill: none; stroke: #474747; stroke-width: 4.5; stroke-linecap: round"/>
   </g>
   <g id="line2d_21">
    <path d="M 484.448021 182.416206 
" clip-path="url(#paec3d1fb6c)" style="fill: none; stroke: #474747; stroke-width: 1.2; stroke-linecap: round"/>
    <g clip-path="url(#paec3d1fb6c)">
     <use xlink:href="#m7bb54d94c7" x="484.448021" y="182.416206" style="fill: #ffffff; stroke: #ffffff; stroke-width: 0.9"/>
    </g>
   </g>
   <g id="line2d_22">
    <path d="M 148.95773 68.39251 
L 148.95773 64.580885 
L 316.702876 64.580885 
L 316.702876 68.39251 
" clip-path="url(#paec3d1fb6c)" style="fill: none; stroke: #000000; stroke-linecap: round"/>
   </g>
   <g id="line2d_23">
    <path d="M 148.95773 47.601828 
L 148.95773 43.270436 
L 484.448021 43.270436 
L 484.448021 47.601828 
" clip-path="url(#paec3d1fb6c)" style="fill: none; stroke: #000000; stroke-linecap: round"/>
   </g>
   <g id="line2d_24">
    <path d="M 316.702876 26.811146 
L 316.702876 21.959987 
L 484.448021 21.959987 
L 484.448021 26.811146 
" clip-path="url(#paec3d1fb6c)" style="fill: none; stroke: #000000; stroke-linecap: round"/>
   </g>
   <g id="patch_3">
    <path d="M 62.808 226.252302 
L 62.808 12.231782 
" style="fill: none; stroke: #262626; stroke-linejoin: miter; stroke-linecap: square"/>
   </g>
   <g id="patch_4">
    <path d="M 565.632 226.252302 
L 565.632 12.231782 
" style="fill: none; stroke: #262626; stroke-linejoin: miter; stroke-linecap: square"/>
   </g>
   <g id="patch_5">
    <path d="M 62.808 226.252302 
L 565.632 226.252302 
" style="fill: none; stroke: #262626; stroke-linejoin: miter; stroke-linecap: square"/>
   </g>
   <g id="patch_6">
    <path d="M 62.808 12.231782 
L 565.632 12.231782 
" style="fill: none; stroke: #262626; stroke-linejoin: miter; stroke-linecap: square"/>
   </g>
   <g id="text_15">
    <!-- * -->
    <g transform="translate(230.430303 62.584385) scale(0.096 -0.096)">
     <defs>
      <path id="DejaVuSans-2a" d="M 3009 3897 
L 1888 3291 
L 3009 2681 
L 2828 2375 
L 1778 3009 
L 1778 1831 
L 1422 1831 
L 1422 3009 
L 372 2375 
L 191 2681 
L 1313 3291 
L 191 3897 
L 372 4206 
L 1422 3572 
L 1422 4750 
L 1778 4750 
L 1778 3572 
L 2828 4206 
L 3009 3897 
z
" transform="scale(0.015625)"/>
     </defs>
     <use xlink:href="#DejaVuSans-2a"/>
    </g>
   </g>
   <g id="text_16">
    <!-- ** -->
    <g transform="translate(311.902876 41.273936) scale(0.096 -0.096)">
     <use xlink:href="#DejaVuSans-2a"/>
     <use xlink:href="#DejaVuSans-2a" x="50"/>
    </g>
   </g>
   <g id="text_17">
    <!-- *** -->
    <g transform="translate(393.375448 19.963487) scale(0.096 -0.096)">
     <use xlink:href="#DejaVuSans-2a"/>
     <use xlink:href="#DejaVuSans-2a" x="50"/>
     <use xlink:href="#DejaVuSans-2a" x="100"/>
    </g>
   </g>
  </g>
 </g>
 <defs>
  <clipPath id="paec3d1fb6c">
   <rect x="62.808" y="12.231782" width="502.824" height="214.02052"/>
  </clipPath>
 </defs>
</svg>
