<?xml version="1.0" encoding="utf-8" standalone="no"?>
<!DOCTYPE svg PUBLIC "-//W3C//DTD SVG 1.1//EN"
  "http://www.w3.org/Graphics/SVG/1.1/DTD/svg11.dtd">
<svg xmlns:xlink="http://www.w3.org/1999/xlink" width="576pt" height="288pt" viewBox="0 0 576 288" xmlns="http://www.w3.org/2000/svg" version="1.1">
 <metadata>
  <rdf:RDF xmlns:dc="http://purl.org/dc/elements/1.1/" xmlns:cc="http://creativecommons.org/ns#" xmlns:rdf="http://www.w3.org/1999/02/22-rdf-syntax-ns#">
   <cc:Work>
    <dc:type rdf:resource="http://purl.org/dc/dcmitype/StillImage"/>
    <dc:date>2025-01-07T11:27:57.102267</dc:date>
    <dc:format>image/svg+xml</dc:format>
    <dc:creator>
     <cc:Agent>
      <dc:title>Matplotlib v3.9.2, https://matplotlib.org/</dc:title>
     </cc:Agent>
    </dc:creator>
   </cc:Work>
  </rdf:RDF>
 </metadata>
 <defs>
  <style type="text/css">*{stroke-linejoin: round; stroke-linecap: butt}</style>
 </defs>
 <g id="figure_1">
  <g id="patch_1">
   <path d="M 0 288 
L 576 288 
L 576 0 
L 0 0 
L 0 288 
z
" style="fill: none"/>
  </g>
  <g id="axes_1">
   <g id="patch_2">
    <path d="M 57.228 226.252302 
L 565.632 226.252302 
L 565.632 10.368 
L 57.228 10.368 
L 57.228 226.252302 
z
" style="fill: none"/>
   </g>
   <g id="matplotlib.axis_1">
    <g id="xtick_1">
     <g id="line2d_1">
      <defs>
       <path id="m045344ae52" d="M 0 0 
L 0 4.8 
" style="stroke: #262626"/>
      </defs>
      <g>
       <use xlink:href="#m045344ae52" x="131.708195" y="226.252302" style="fill: #262626; stroke: #262626"/>
      </g>
     </g>
     <g id="text_1">
      <!-- IR/CR -->
      <g style="fill: #262626" transform="translate(124.963059 256.204796) rotate(-45) scale(0.088 -0.088)">
       <defs>
        <path id="DejaVuSans-49" d="M 628 4666 
L 1259 4666 
L 1259 0 
L 628 0 
L 628 4666 
z
" transform="scale(0.015625)"/>
        <path id="DejaVuSans-52" d="M 2841 2188 
Q 3044 2119 3236 1894 
Q 3428 1669 3622 1275 
L 4263 0 
L 3584 0 
L 2988 1197 
Q 2756 1666 2539 1819 
Q 2322 1972 1947 1972 
L 1259 1972 
L 1259 0 
L 628 0 
L 628 4666 
L 2053 4666 
Q 2853 4666 3247 4331 
Q 3641 3997 3641 3322 
Q 3641 2881 3436 2590 
Q 3231 2300 2841 2188 
z
M 1259 4147 
L 1259 2491 
L 2053 2491 
Q 2509 2491 2742 2702 
Q 2975 2913 2975 3322 
Q 2975 3731 2742 3939 
Q 2509 4147 2053 4147 
L 1259 4147 
z
" transform="scale(0.015625)"/>
        <path id="DejaVuSans-2f" d="M 1625 4666 
L 2156 4666 
L 531 -594 
L 0 -594 
L 1625 4666 
z
" transform="scale(0.015625)"/>
        <path id="DejaVuSans-43" d="M 4122 4306 
L 4122 3641 
Q 3803 3938 3442 4084 
Q 3081 4231 2675 4231 
Q 1875 4231 1450 3742 
Q 1025 3253 1025 2328 
Q 1025 1406 1450 917 
Q 1875 428 2675 428 
Q 3081 428 3442 575 
Q 3803 722 4122 1019 
L 4122 359 
Q 3791 134 3420 21 
Q 3050 -91 2638 -91 
Q 1578 -91 968 557 
Q 359 1206 359 2328 
Q 359 3453 968 4101 
Q 1578 4750 2638 4750 
Q 3056 4750 3426 4639 
Q 3797 4528 4122 4306 
z
" transform="scale(0.015625)"/>
       </defs>
       <use xlink:href="#DejaVuSans-49"/>
       <use xlink:href="#DejaVuSans-52" x="29.492188"/>
       <use xlink:href="#DejaVuSans-2f" x="98.974609"/>
       <use xlink:href="#DejaVuSans-43" x="132.666016"/>
       <use xlink:href="#DejaVuSans-52" x="202.490234"/>
      </g>
     </g>
    </g>
    <g id="xtick_2">
     <g id="line2d_2">
      <g>
       <use xlink:href="#m045344ae52" x="303.225094" y="226.252302" style="fill: #262626; stroke: #262626"/>
      </g>
     </g>
     <g id="text_2">
      <!-- CCR/IIR -->
      <g style="fill: #262626" transform="translate(293.389592 262.385527) rotate(-45) scale(0.088 -0.088)">
       <use xlink:href="#DejaVuSans-43"/>
       <use xlink:href="#DejaVuSans-43" x="69.824219"/>
       <use xlink:href="#DejaVuSans-52" x="139.648438"/>
       <use xlink:href="#DejaVuSans-2f" x="209.130859"/>
       <use xlink:href="#DejaVuSans-49" x="242.822266"/>
       <use xlink:href="#DejaVuSans-49" x="272.314453"/>
       <use xlink:href="#DejaVuSans-52" x="301.806641"/>
      </g>
     </g>
    </g>
    <g id="xtick_3">
     <g id="line2d_3">
      <g>
       <use xlink:href="#m045344ae52" x="474.741993" y="226.252302" style="fill: #262626; stroke: #262626"/>
      </g>
     </g>
     <g id="text_3">
      <!-- ICR/CIR -->
      <g style="fill: #262626" transform="translate(464.906492 262.385527) rotate(-45) scale(0.088 -0.088)">
       <use xlink:href="#DejaVuSans-49"/>
       <use xlink:href="#DejaVuSans-43" x="29.492188"/>
       <use xlink:href="#DejaVuSans-52" x="99.316406"/>
       <use xlink:href="#DejaVuSans-2f" x="168.798828"/>
       <use xlink:href="#DejaVuSans-43" x="202.490234"/>
       <use xlink:href="#DejaVuSans-49" x="272.314453"/>
       <use xlink:href="#DejaVuSans-52" x="301.806641"/>
      </g>
     </g>
    </g>
    <g id="text_4">
     <!-- EMG Sequence Groups -->
     <g style="fill: #262626" transform="translate(256.69575 274.974121) scale(0.096 -0.096)">
      <defs>
       <path id="DejaVuSans-45" d="M 628 4666 
L 3578 4666 
L 3578 4134 
L 1259 4134 
L 1259 2753 
L 3481 2753 
L 3481 2222 
L 1259 2222 
L 1259 531 
L 3634 531 
L 3634 0 
L 628 0 
L 628 4666 
z
" transform="scale(0.015625)"/>
       <path id="DejaVuSans-4d" d="M 628 4666 
L 1569 4666 
L 2759 1491 
L 3956 4666 
L 4897 4666 
L 4897 0 
L 4281 0 
L 4281 4097 
L 3078 897 
L 2444 897 
L 1241 4097 
L 1241 0 
L 628 0 
L 628 4666 
z
" transform="scale(0.015625)"/>
       <path id="DejaVuSans-47" d="M 3809 666 
L 3809 1919 
L 2778 1919 
L 2778 2438 
L 4434 2438 
L 4434 434 
Q 4069 175 3628 42 
Q 3188 -91 2688 -91 
Q 1594 -91 976 548 
Q 359 1188 359 2328 
Q 359 3472 976 4111 
Q 1594 4750 2688 4750 
Q 3144 4750 3555 4637 
Q 3966 4525 4313 4306 
L 4313 3634 
Q 3963 3931 3569 4081 
Q 3175 4231 2741 4231 
Q 1884 4231 1454 3753 
Q 1025 3275 1025 2328 
Q 1025 1384 1454 906 
Q 1884 428 2741 428 
Q 3075 428 3337 486 
Q 3600 544 3809 666 
z
" transform="scale(0.015625)"/>
       <path id="DejaVuSans-20" transform="scale(0.015625)"/>
       <path id="DejaVuSans-53" d="M 3425 4513 
L 3425 3897 
Q 3066 4069 2747 4153 
Q 2428 4238 2131 4238 
Q 1616 4238 1336 4038 
Q 1056 3838 1056 3469 
Q 1056 3159 1242 3001 
Q 1428 2844 1947 2747 
L 2328 2669 
Q 3034 2534 3370 2195 
Q 3706 1856 3706 1288 
Q 3706 609 3251 259 
Q 2797 -91 1919 -91 
Q 1588 -91 1214 -16 
Q 841 59 441 206 
L 441 856 
Q 825 641 1194 531 
Q 1563 422 1919 422 
Q 2459 422 2753 634 
Q 3047 847 3047 1241 
Q 3047 1584 2836 1778 
Q 2625 1972 2144 2069 
L 1759 2144 
Q 1053 2284 737 2584 
Q 422 2884 422 3419 
Q 422 4038 858 4394 
Q 1294 4750 2059 4750 
Q 2388 4750 2728 4690 
Q 3069 4631 3425 4513 
z
" transform="scale(0.015625)"/>
       <path id="DejaVuSans-65" d="M 3597 1894 
L 3597 1613 
L 953 1613 
Q 991 1019 1311 708 
Q 1631 397 2203 397 
Q 2534 397 2845 478 
Q 3156 559 3463 722 
L 3463 178 
Q 3153 47 2828 -22 
Q 2503 -91 2169 -91 
Q 1331 -91 842 396 
Q 353 884 353 1716 
Q 353 2575 817 3079 
Q 1281 3584 2069 3584 
Q 2775 3584 3186 3129 
Q 3597 2675 3597 1894 
z
M 3022 2063 
Q 3016 2534 2758 2815 
Q 2500 3097 2075 3097 
Q 1594 3097 1305 2825 
Q 1016 2553 972 2059 
L 3022 2063 
z
" transform="scale(0.015625)"/>
       <path id="DejaVuSans-71" d="M 947 1747 
Q 947 1113 1208 752 
Q 1469 391 1925 391 
Q 2381 391 2643 752 
Q 2906 1113 2906 1747 
Q 2906 2381 2643 2742 
Q 2381 3103 1925 3103 
Q 1469 3103 1208 2742 
Q 947 2381 947 1747 
z
M 2906 525 
Q 2725 213 2448 61 
Q 2172 -91 1784 -91 
Q 1150 -91 751 415 
Q 353 922 353 1747 
Q 353 2572 751 3078 
Q 1150 3584 1784 3584 
Q 2172 3584 2448 3432 
Q 2725 3281 2906 2969 
L 2906 3500 
L 3481 3500 
L 3481 -1331 
L 2906 -1331 
L 2906 525 
z
" transform="scale(0.015625)"/>
       <path id="DejaVuSans-75" d="M 544 1381 
L 544 3500 
L 1119 3500 
L 1119 1403 
Q 1119 906 1312 657 
Q 1506 409 1894 409 
Q 2359 409 2629 706 
Q 2900 1003 2900 1516 
L 2900 3500 
L 3475 3500 
L 3475 0 
L 2900 0 
L 2900 538 
Q 2691 219 2414 64 
Q 2138 -91 1772 -91 
Q 1169 -91 856 284 
Q 544 659 544 1381 
z
M 1991 3584 
L 1991 3584 
z
" transform="scale(0.015625)"/>
       <path id="DejaVuSans-6e" d="M 3513 2113 
L 3513 0 
L 2938 0 
L 2938 2094 
Q 2938 2591 2744 2837 
Q 2550 3084 2163 3084 
Q 1697 3084 1428 2787 
Q 1159 2491 1159 1978 
L 1159 0 
L 581 0 
L 581 3500 
L 1159 3500 
L 1159 2956 
Q 1366 3272 1645 3428 
Q 1925 3584 2291 3584 
Q 2894 3584 3203 3211 
Q 3513 2838 3513 2113 
z
" transform="scale(0.015625)"/>
       <path id="DejaVuSans-63" d="M 3122 3366 
L 3122 2828 
Q 2878 2963 2633 3030 
Q 2388 3097 2138 3097 
Q 1578 3097 1268 2742 
Q 959 2388 959 1747 
Q 959 1106 1268 751 
Q 1578 397 2138 397 
Q 2388 397 2633 464 
Q 2878 531 3122 666 
L 3122 134 
Q 2881 22 2623 -34 
Q 2366 -91 2075 -91 
Q 1284 -91 818 406 
Q 353 903 353 1747 
Q 353 2603 823 3093 
Q 1294 3584 2113 3584 
Q 2378 3584 2631 3529 
Q 2884 3475 3122 3366 
z
" transform="scale(0.015625)"/>
       <path id="DejaVuSans-72" d="M 2631 2963 
Q 2534 3019 2420 3045 
Q 2306 3072 2169 3072 
Q 1681 3072 1420 2755 
Q 1159 2438 1159 1844 
L 1159 0 
L 581 0 
L 581 3500 
L 1159 3500 
L 1159 2956 
Q 1341 3275 1631 3429 
Q 1922 3584 2338 3584 
Q 2397 3584 2469 3576 
Q 2541 3569 2628 3553 
L 2631 2963 
z
" transform="scale(0.015625)"/>
       <path id="DejaVuSans-6f" d="M 1959 3097 
Q 1497 3097 1228 2736 
Q 959 2375 959 1747 
Q 959 1119 1226 758 
Q 1494 397 1959 397 
Q 2419 397 2687 759 
Q 2956 1122 2956 1747 
Q 2956 2369 2687 2733 
Q 2419 3097 1959 3097 
z
M 1959 3584 
Q 2709 3584 3137 3096 
Q 3566 2609 3566 1747 
Q 3566 888 3137 398 
Q 2709 -91 1959 -91 
Q 1206 -91 779 398 
Q 353 888 353 1747 
Q 353 2609 779 3096 
Q 1206 3584 1959 3584 
z
" transform="scale(0.015625)"/>
       <path id="DejaVuSans-70" d="M 1159 525 
L 1159 -1331 
L 581 -1331 
L 581 3500 
L 1159 3500 
L 1159 2969 
Q 1341 3281 1617 3432 
Q 1894 3584 2278 3584 
Q 2916 3584 3314 3078 
Q 3713 2572 3713 1747 
Q 3713 922 3314 415 
Q 2916 -91 2278 -91 
Q 1894 -91 1617 61 
Q 1341 213 1159 525 
z
M 3116 1747 
Q 3116 2381 2855 2742 
Q 2594 3103 2138 3103 
Q 1681 3103 1420 2742 
Q 1159 2381 1159 1747 
Q 1159 1113 1420 752 
Q 1681 391 2138 391 
Q 2594 391 2855 752 
Q 3116 1113 3116 1747 
z
" transform="scale(0.015625)"/>
       <path id="DejaVuSans-73" d="M 2834 3397 
L 2834 2853 
Q 2591 2978 2328 3040 
Q 2066 3103 1784 3103 
Q 1356 3103 1142 2972 
Q 928 2841 928 2578 
Q 928 2378 1081 2264 
Q 1234 2150 1697 2047 
L 1894 2003 
Q 2506 1872 2764 1633 
Q 3022 1394 3022 966 
Q 3022 478 2636 193 
Q 2250 -91 1575 -91 
Q 1294 -91 989 -36 
Q 684 19 347 128 
L 347 722 
Q 666 556 975 473 
Q 1284 391 1588 391 
Q 1994 391 2212 530 
Q 2431 669 2431 922 
Q 2431 1156 2273 1281 
Q 2116 1406 1581 1522 
L 1381 1569 
Q 847 1681 609 1914 
Q 372 2147 372 2553 
Q 372 3047 722 3315 
Q 1072 3584 1716 3584 
Q 2034 3584 2315 3537 
Q 2597 3491 2834 3397 
z
" transform="scale(0.015625)"/>
      </defs>
      <use xlink:href="#DejaVuSans-45"/>
      <use xlink:href="#DejaVuSans-4d" x="63.183594"/>
      <use xlink:href="#DejaVuSans-47" x="149.462891"/>
      <use xlink:href="#DejaVuSans-20" x="226.953125"/>
      <use xlink:href="#DejaVuSans-53" x="258.740234"/>
      <use xlink:href="#DejaVuSans-65" x="322.216797"/>
      <use xlink:href="#DejaVuSans-71" x="383.740234"/>
      <use xlink:href="#DejaVuSans-75" x="447.216797"/>
      <use xlink:href="#DejaVuSans-65" x="510.595703"/>
      <use xlink:href="#DejaVuSans-6e" x="572.119141"/>
      <use xlink:href="#DejaVuSans-63" x="635.498047"/>
      <use xlink:href="#DejaVuSans-65" x="690.478516"/>
      <use xlink:href="#DejaVuSans-20" x="752.001953"/>
      <use xlink:href="#DejaVuSans-47" x="783.789062"/>
      <use xlink:href="#DejaVuSans-72" x="861.279297"/>
      <use xlink:href="#DejaVuSans-6f" x="900.142578"/>
      <use xlink:href="#DejaVuSans-75" x="961.324219"/>
      <use xlink:href="#DejaVuSans-70" x="1024.703125"/>
      <use xlink:href="#DejaVuSans-73" x="1088.179688"/>
     </g>
    </g>
   </g>
   <g id="matplotlib.axis_2">
    <g id="ytick_1">
     <g id="line2d_4">
      <defs>
       <path id="m6c7a0c4d70" d="M 0 0 
L -4.8 0 
" style="stroke: #262626"/>
      </defs>
      <g>
       <use xlink:href="#m6c7a0c4d70" x="57.228" y="218.380813" style="fill: #262626; stroke: #262626"/>
      </g>
     </g>
     <g id="text_5">
      <!-- 0.000 -->
      <g style="fill: #262626" transform="translate(23.73525 221.724125) scale(0.088 -0.088)">
       <defs>
        <path id="DejaVuSans-30" d="M 2034 4250 
Q 1547 4250 1301 3770 
Q 1056 3291 1056 2328 
Q 1056 1369 1301 889 
Q 1547 409 2034 409 
Q 2525 409 2770 889 
Q 3016 1369 3016 2328 
Q 3016 3291 2770 3770 
Q 2525 4250 2034 4250 
z
M 2034 4750 
Q 2819 4750 3233 4129 
Q 3647 3509 3647 2328 
Q 3647 1150 3233 529 
Q 2819 -91 2034 -91 
Q 1250 -91 836 529 
Q 422 1150 422 2328 
Q 422 3509 836 4129 
Q 1250 4750 2034 4750 
z
" transform="scale(0.015625)"/>
        <path id="DejaVuSans-2e" d="M 684 794 
L 1344 794 
L 1344 0 
L 684 0 
L 684 794 
z
" transform="scale(0.015625)"/>
       </defs>
       <use xlink:href="#DejaVuSans-30"/>
       <use xlink:href="#DejaVuSans-2e" x="63.623047"/>
       <use xlink:href="#DejaVuSans-30" x="95.410156"/>
       <use xlink:href="#DejaVuSans-30" x="159.033203"/>
       <use xlink:href="#DejaVuSans-30" x="222.65625"/>
      </g>
     </g>
    </g>
    <g id="ytick_2">
     <g id="line2d_5">
      <g>
       <use xlink:href="#m6c7a0c4d70" x="57.228" y="173.23544" style="fill: #262626; stroke: #262626"/>
      </g>
     </g>
     <g id="text_6">
      <!-- 0.002 -->
      <g style="fill: #262626" transform="translate(23.73525 176.578753) scale(0.088 -0.088)">
       <defs>
        <path id="DejaVuSans-32" d="M 1228 531 
L 3431 531 
L 3431 0 
L 469 0 
L 469 531 
Q 828 903 1448 1529 
Q 2069 2156 2228 2338 
Q 2531 2678 2651 2914 
Q 2772 3150 2772 3378 
Q 2772 3750 2511 3984 
Q 2250 4219 1831 4219 
Q 1534 4219 1204 4116 
Q 875 4013 500 3803 
L 500 4441 
Q 881 4594 1212 4672 
Q 1544 4750 1819 4750 
Q 2544 4750 2975 4387 
Q 3406 4025 3406 3419 
Q 3406 3131 3298 2873 
Q 3191 2616 2906 2266 
Q 2828 2175 2409 1742 
Q 1991 1309 1228 531 
z
" transform="scale(0.015625)"/>
       </defs>
       <use xlink:href="#DejaVuSans-30"/>
       <use xlink:href="#DejaVuSans-2e" x="63.623047"/>
       <use xlink:href="#DejaVuSans-30" x="95.410156"/>
       <use xlink:href="#DejaVuSans-30" x="159.033203"/>
       <use xlink:href="#DejaVuSans-32" x="222.65625"/>
      </g>
     </g>
    </g>
    <g id="ytick_3">
     <g id="line2d_6">
      <g>
       <use xlink:href="#m6c7a0c4d70" x="57.228" y="128.090067" style="fill: #262626; stroke: #262626"/>
      </g>
     </g>
     <g id="text_7">
      <!-- 0.004 -->
      <g style="fill: #262626" transform="translate(23.73525 131.43338) scale(0.088 -0.088)">
       <defs>
        <path id="DejaVuSans-34" d="M 2419 4116 
L 825 1625 
L 2419 1625 
L 2419 4116 
z
M 2253 4666 
L 3047 4666 
L 3047 1625 
L 3713 1625 
L 3713 1100 
L 3047 1100 
L 3047 0 
L 2419 0 
L 2419 1100 
L 313 1100 
L 313 1709 
L 2253 4666 
z
" transform="scale(0.015625)"/>
       </defs>
       <use xlink:href="#DejaVuSans-30"/>
       <use xlink:href="#DejaVuSans-2e" x="63.623047"/>
       <use xlink:href="#DejaVuSans-30" x="95.410156"/>
       <use xlink:href="#DejaVuSans-30" x="159.033203"/>
       <use xlink:href="#DejaVuSans-34" x="222.65625"/>
      </g>
     </g>
    </g>
    <g id="ytick_4">
     <g id="line2d_7">
      <g>
       <use xlink:href="#m6c7a0c4d70" x="57.228" y="82.944695" style="fill: #262626; stroke: #262626"/>
      </g>
     </g>
     <g id="text_8">
      <!-- 0.006 -->
      <g style="fill: #262626" transform="translate(23.73525 86.288007) scale(0.088 -0.088)">
       <defs>
        <path id="DejaVuSans-36" d="M 2113 2584 
Q 1688 2584 1439 2293 
Q 1191 2003 1191 1497 
Q 1191 994 1439 701 
Q 1688 409 2113 409 
Q 2538 409 2786 701 
Q 3034 994 3034 1497 
Q 3034 2003 2786 2293 
Q 2538 2584 2113 2584 
z
M 3366 4563 
L 3366 3988 
Q 3128 4100 2886 4159 
Q 2644 4219 2406 4219 
Q 1781 4219 1451 3797 
Q 1122 3375 1075 2522 
Q 1259 2794 1537 2939 
Q 1816 3084 2150 3084 
Q 2853 3084 3261 2657 
Q 3669 2231 3669 1497 
Q 3669 778 3244 343 
Q 2819 -91 2113 -91 
Q 1303 -91 875 529 
Q 447 1150 447 2328 
Q 447 3434 972 4092 
Q 1497 4750 2381 4750 
Q 2619 4750 2861 4703 
Q 3103 4656 3366 4563 
z
" transform="scale(0.015625)"/>
       </defs>
       <use xlink:href="#DejaVuSans-30"/>
       <use xlink:href="#DejaVuSans-2e" x="63.623047"/>
       <use xlink:href="#DejaVuSans-30" x="95.410156"/>
       <use xlink:href="#DejaVuSans-30" x="159.033203"/>
       <use xlink:href="#DejaVuSans-36" x="222.65625"/>
      </g>
     </g>
    </g>
    <g id="ytick_5">
     <g id="line2d_8">
      <g>
       <use xlink:href="#m6c7a0c4d70" x="57.228" y="37.799322" style="fill: #262626; stroke: #262626"/>
      </g>
     </g>
     <g id="text_9">
      <!-- 0.008 -->
      <g style="fill: #262626" transform="translate(23.73525 41.142634) scale(0.088 -0.088)">
       <defs>
        <path id="DejaVuSans-38" d="M 2034 2216 
Q 1584 2216 1326 1975 
Q 1069 1734 1069 1313 
Q 1069 891 1326 650 
Q 1584 409 2034 409 
Q 2484 409 2743 651 
Q 3003 894 3003 1313 
Q 3003 1734 2745 1975 
Q 2488 2216 2034 2216 
z
M 1403 2484 
Q 997 2584 770 2862 
Q 544 3141 544 3541 
Q 544 4100 942 4425 
Q 1341 4750 2034 4750 
Q 2731 4750 3128 4425 
Q 3525 4100 3525 3541 
Q 3525 3141 3298 2862 
Q 3072 2584 2669 2484 
Q 3125 2378 3379 2068 
Q 3634 1759 3634 1313 
Q 3634 634 3220 271 
Q 2806 -91 2034 -91 
Q 1263 -91 848 271 
Q 434 634 434 1313 
Q 434 1759 690 2068 
Q 947 2378 1403 2484 
z
M 1172 3481 
Q 1172 3119 1398 2916 
Q 1625 2713 2034 2713 
Q 2441 2713 2670 2916 
Q 2900 3119 2900 3481 
Q 2900 3844 2670 4047 
Q 2441 4250 2034 4250 
Q 1625 4250 1398 4047 
Q 1172 3844 1172 3481 
z
" transform="scale(0.015625)"/>
       </defs>
       <use xlink:href="#DejaVuSans-30"/>
       <use xlink:href="#DejaVuSans-2e" x="63.623047"/>
       <use xlink:href="#DejaVuSans-30" x="95.410156"/>
       <use xlink:href="#DejaVuSans-30" x="159.033203"/>
       <use xlink:href="#DejaVuSans-38" x="222.65625"/>
      </g>
     </g>
    </g>
    <g id="text_10">
     <!-- Average Confirmation Probability -->
     <g style="fill: #262626" transform="translate(17.73875 197.498901) rotate(-90) scale(0.096 -0.096)">
      <defs>
       <path id="DejaVuSans-41" d="M 2188 4044 
L 1331 1722 
L 3047 1722 
L 2188 4044 
z
M 1831 4666 
L 2547 4666 
L 4325 0 
L 3669 0 
L 3244 1197 
L 1141 1197 
L 716 0 
L 50 0 
L 1831 4666 
z
" transform="scale(0.015625)"/>
       <path id="DejaVuSans-76" d="M 191 3500 
L 800 3500 
L 1894 563 
L 2988 3500 
L 3597 3500 
L 2284 0 
L 1503 0 
L 191 3500 
z
" transform="scale(0.015625)"/>
       <path id="DejaVuSans-61" d="M 2194 1759 
Q 1497 1759 1228 1600 
Q 959 1441 959 1056 
Q 959 750 1161 570 
Q 1363 391 1709 391 
Q 2188 391 2477 730 
Q 2766 1069 2766 1631 
L 2766 1759 
L 2194 1759 
z
M 3341 1997 
L 3341 0 
L 2766 0 
L 2766 531 
Q 2569 213 2275 61 
Q 1981 -91 1556 -91 
Q 1019 -91 701 211 
Q 384 513 384 1019 
Q 384 1609 779 1909 
Q 1175 2209 1959 2209 
L 2766 2209 
L 2766 2266 
Q 2766 2663 2505 2880 
Q 2244 3097 1772 3097 
Q 1472 3097 1187 3025 
Q 903 2953 641 2809 
L 641 3341 
Q 956 3463 1253 3523 
Q 1550 3584 1831 3584 
Q 2591 3584 2966 3190 
Q 3341 2797 3341 1997 
z
" transform="scale(0.015625)"/>
       <path id="DejaVuSans-67" d="M 2906 1791 
Q 2906 2416 2648 2759 
Q 2391 3103 1925 3103 
Q 1463 3103 1205 2759 
Q 947 2416 947 1791 
Q 947 1169 1205 825 
Q 1463 481 1925 481 
Q 2391 481 2648 825 
Q 2906 1169 2906 1791 
z
M 3481 434 
Q 3481 -459 3084 -895 
Q 2688 -1331 1869 -1331 
Q 1566 -1331 1297 -1286 
Q 1028 -1241 775 -1147 
L 775 -588 
Q 1028 -725 1275 -790 
Q 1522 -856 1778 -856 
Q 2344 -856 2625 -561 
Q 2906 -266 2906 331 
L 2906 616 
Q 2728 306 2450 153 
Q 2172 0 1784 0 
Q 1141 0 747 490 
Q 353 981 353 1791 
Q 353 2603 747 3093 
Q 1141 3584 1784 3584 
Q 2172 3584 2450 3431 
Q 2728 3278 2906 2969 
L 2906 3500 
L 3481 3500 
L 3481 434 
z
" transform="scale(0.015625)"/>
       <path id="DejaVuSans-66" d="M 2375 4863 
L 2375 4384 
L 1825 4384 
Q 1516 4384 1395 4259 
Q 1275 4134 1275 3809 
L 1275 3500 
L 2222 3500 
L 2222 3053 
L 1275 3053 
L 1275 0 
L 697 0 
L 697 3053 
L 147 3053 
L 147 3500 
L 697 3500 
L 697 3744 
Q 697 4328 969 4595 
Q 1241 4863 1831 4863 
L 2375 4863 
z
" transform="scale(0.015625)"/>
       <path id="DejaVuSans-69" d="M 603 3500 
L 1178 3500 
L 1178 0 
L 603 0 
L 603 3500 
z
M 603 4863 
L 1178 4863 
L 1178 4134 
L 603 4134 
L 603 4863 
z
" transform="scale(0.015625)"/>
       <path id="DejaVuSans-6d" d="M 3328 2828 
Q 3544 3216 3844 3400 
Q 4144 3584 4550 3584 
Q 5097 3584 5394 3201 
Q 5691 2819 5691 2113 
L 5691 0 
L 5113 0 
L 5113 2094 
Q 5113 2597 4934 2840 
Q 4756 3084 4391 3084 
Q 3944 3084 3684 2787 
Q 3425 2491 3425 1978 
L 3425 0 
L 2847 0 
L 2847 2094 
Q 2847 2600 2669 2842 
Q 2491 3084 2119 3084 
Q 1678 3084 1418 2786 
Q 1159 2488 1159 1978 
L 1159 0 
L 581 0 
L 581 3500 
L 1159 3500 
L 1159 2956 
Q 1356 3278 1631 3431 
Q 1906 3584 2284 3584 
Q 2666 3584 2933 3390 
Q 3200 3197 3328 2828 
z
" transform="scale(0.015625)"/>
       <path id="DejaVuSans-74" d="M 1172 4494 
L 1172 3500 
L 2356 3500 
L 2356 3053 
L 1172 3053 
L 1172 1153 
Q 1172 725 1289 603 
Q 1406 481 1766 481 
L 2356 481 
L 2356 0 
L 1766 0 
Q 1100 0 847 248 
Q 594 497 594 1153 
L 594 3053 
L 172 3053 
L 172 3500 
L 594 3500 
L 594 4494 
L 1172 4494 
z
" transform="scale(0.015625)"/>
       <path id="DejaVuSans-50" d="M 1259 4147 
L 1259 2394 
L 2053 2394 
Q 2494 2394 2734 2622 
Q 2975 2850 2975 3272 
Q 2975 3691 2734 3919 
Q 2494 4147 2053 4147 
L 1259 4147 
z
M 628 4666 
L 2053 4666 
Q 2838 4666 3239 4311 
Q 3641 3956 3641 3272 
Q 3641 2581 3239 2228 
Q 2838 1875 2053 1875 
L 1259 1875 
L 1259 0 
L 628 0 
L 628 4666 
z
" transform="scale(0.015625)"/>
       <path id="DejaVuSans-62" d="M 3116 1747 
Q 3116 2381 2855 2742 
Q 2594 3103 2138 3103 
Q 1681 3103 1420 2742 
Q 1159 2381 1159 1747 
Q 1159 1113 1420 752 
Q 1681 391 2138 391 
Q 2594 391 2855 752 
Q 3116 1113 3116 1747 
z
M 1159 2969 
Q 1341 3281 1617 3432 
Q 1894 3584 2278 3584 
Q 2916 3584 3314 3078 
Q 3713 2572 3713 1747 
Q 3713 922 3314 415 
Q 2916 -91 2278 -91 
Q 1894 -91 1617 61 
Q 1341 213 1159 525 
L 1159 0 
L 581 0 
L 581 4863 
L 1159 4863 
L 1159 2969 
z
" transform="scale(0.015625)"/>
       <path id="DejaVuSans-6c" d="M 603 4863 
L 1178 4863 
L 1178 0 
L 603 0 
L 603 4863 
z
" transform="scale(0.015625)"/>
       <path id="DejaVuSans-79" d="M 2059 -325 
Q 1816 -950 1584 -1140 
Q 1353 -1331 966 -1331 
L 506 -1331 
L 506 -850 
L 844 -850 
Q 1081 -850 1212 -737 
Q 1344 -625 1503 -206 
L 1606 56 
L 191 3500 
L 800 3500 
L 1894 763 
L 2988 3500 
L 3597 3500 
L 2059 -325 
z
" transform="scale(0.015625)"/>
      </defs>
      <use xlink:href="#DejaVuSans-41"/>
      <use xlink:href="#DejaVuSans-76" x="62.533203"/>
      <use xlink:href="#DejaVuSans-65" x="121.712891"/>
      <use xlink:href="#DejaVuSans-72" x="183.236328"/>
      <use xlink:href="#DejaVuSans-61" x="224.349609"/>
      <use xlink:href="#DejaVuSans-67" x="285.628906"/>
      <use xlink:href="#DejaVuSans-65" x="349.105469"/>
      <use xlink:href="#DejaVuSans-20" x="410.628906"/>
      <use xlink:href="#DejaVuSans-43" x="442.416016"/>
      <use xlink:href="#DejaVuSans-6f" x="512.240234"/>
      <use xlink:href="#DejaVuSans-6e" x="573.421875"/>
      <use xlink:href="#DejaVuSans-66" x="636.800781"/>
      <use xlink:href="#DejaVuSans-69" x="672.005859"/>
      <use xlink:href="#DejaVuSans-72" x="699.789062"/>
      <use xlink:href="#DejaVuSans-6d" x="739.152344"/>
      <use xlink:href="#DejaVuSans-61" x="836.564453"/>
      <use xlink:href="#DejaVuSans-74" x="897.84375"/>
      <use xlink:href="#DejaVuSans-69" x="937.052734"/>
      <use xlink:href="#DejaVuSans-6f" x="964.835938"/>
      <use xlink:href="#DejaVuSans-6e" x="1026.017578"/>
      <use xlink:href="#DejaVuSans-20" x="1089.396484"/>
      <use xlink:href="#DejaVuSans-50" x="1121.183594"/>
      <use xlink:href="#DejaVuSans-72" x="1179.736328"/>
      <use xlink:href="#DejaVuSans-6f" x="1218.599609"/>
      <use xlink:href="#DejaVuSans-62" x="1279.78125"/>
      <use xlink:href="#DejaVuSans-61" x="1343.257812"/>
      <use xlink:href="#DejaVuSans-62" x="1404.537109"/>
      <use xlink:href="#DejaVuSans-69" x="1468.013672"/>
      <use xlink:href="#DejaVuSans-6c" x="1495.796875"/>
      <use xlink:href="#DejaVuSans-69" x="1523.580078"/>
      <use xlink:href="#DejaVuSans-74" x="1551.363281"/>
      <use xlink:href="#DejaVuSans-79" x="1590.572266"/>
     </g>
    </g>
   </g>
   <g id="PolyCollection_1">
    <defs>
     <path id="m7cd5d027ce" d="M 155.260725 -71.560621 
L 108.155665 -71.560621 
L 101.332707 -72.936146 
L 97.979767 -74.31167 
L 98.014209 -75.687195 
L 99.804176 -77.06272 
L 101.74793 -78.438245 
L 103.140277 -79.81377 
L 103.955508 -81.189295 
L 104.34551 -82.564819 
L 104.421195 -83.940344 
L 104.276099 -85.315869 
L 104.024447 -86.691394 
L 103.750855 -88.066919 
L 103.433815 -89.442443 
L 102.968814 -90.817968 
L 102.296716 -92.193493 
L 101.470134 -93.569018 
L 100.560709 -94.944543 
L 99.559577 -96.320067 
L 98.429854 -97.695592 
L 97.209379 -99.071117 
L 95.98036 -100.446642 
L 94.74088 -101.822167 
L 93.360841 -103.197692 
L 91.681124 -104.573216 
L 89.64018 -105.948741 
L 87.320072 -107.324266 
L 84.929638 -108.699791 
L 82.772914 -110.075316 
L 81.176579 -111.45084 
L 80.360575 -112.826365 
L 80.337273 -114.20189 
L 80.923833 -115.577415 
L 81.849356 -116.95294 
L 82.901049 -118.328464 
L 84.047859 -119.703989 
L 85.43247 -121.079514 
L 87.211177 -122.455039 
L 89.424298 -123.830564 
L 92.03059 -125.206089 
L 94.98646 -126.581613 
L 98.2337 -127.957138 
L 101.64392 -129.332663 
L 105.011673 -130.708188 
L 108.110924 -132.083713 
L 110.79031 -133.459237 
L 113.055803 -134.834762 
L 115.065481 -136.210287 
L 117.016061 -137.585812 
L 119.008073 -138.961337 
L 120.999695 -140.336862 
L 122.861953 -141.712386 
L 124.465921 -143.087911 
L 125.748712 -144.463436 
L 126.737815 -145.838961 
L 127.519019 -147.214486 
L 128.168333 -148.59001 
L 128.714109 -149.965535 
L 129.163144 -151.34106 
L 129.540416 -152.716585 
L 129.883154 -154.09211 
L 130.207776 -155.467634 
L 130.50411 -156.843159 
L 130.759625 -158.218684 
L 130.975173 -159.594209 
L 131.157508 -160.969734 
L 131.307479 -162.345259 
L 131.420209 -163.720783 
L 131.493664 -165.096308 
L 131.534275 -166.471833 
L 131.55408 -167.847358 
L 131.562668 -169.222883 
L 131.56262 -170.598407 
L 131.553896 -171.973932 
L 131.541297 -173.349457 
L 131.534689 -174.724982 
L 131.541691 -176.100507 
L 131.56211 -177.476031 
L 131.589573 -178.851556 
L 131.616993 -180.227081 
L 131.639502 -181.602606 
L 131.653288 -182.978131 
L 131.6554 -184.353656 
L 131.647097 -185.72918 
L 131.63516 -187.104705 
L 131.627157 -188.48023 
L 131.626163 -189.855755 
L 131.631175 -191.23128 
L 131.64053 -192.606804 
L 131.652937 -193.982329 
L 131.666378 -195.357854 
L 131.677791 -196.733379 
L 131.6844 -198.108904 
L 131.685828 -199.484428 
L 131.684728 -200.859953 
L 131.684305 -202.235478 
L 131.685143 -203.611003 
L 131.685563 -204.986528 
L 131.685049 -206.362053 
L 131.685637 -207.737577 
L 131.730753 -207.737577 
L 131.730753 -207.737577 
L 131.731341 -206.362053 
L 131.730827 -204.986528 
L 131.731247 -203.611003 
L 131.732085 -202.235478 
L 131.731662 -200.859953 
L 131.730562 -199.484428 
L 131.73199 -198.108904 
L 131.738599 -196.733379 
L 131.750012 -195.357854 
L 131.763453 -193.982329 
L 131.77586 -192.606804 
L 131.785215 -191.23128 
L 131.790227 -189.855755 
L 131.789233 -188.48023 
L 131.78123 -187.104705 
L 131.769293 -185.72918 
L 131.76099 -184.353656 
L 131.763102 -182.978131 
L 131.776888 -181.602606 
L 131.799397 -180.227081 
L 131.826817 -178.851556 
L 131.85428 -177.476031 
L 131.874699 -176.100507 
L 131.881701 -174.724982 
L 131.875093 -173.349457 
L 131.862494 -171.973932 
L 131.85377 -170.598407 
L 131.853722 -169.222883 
L 131.86231 -167.847358 
L 131.882115 -166.471833 
L 131.922726 -165.096308 
L 131.996181 -163.720783 
L 132.108911 -162.345259 
L 132.258882 -160.969734 
L 132.441217 -159.594209 
L 132.656765 -158.218684 
L 132.91228 -156.843159 
L 133.208614 -155.467634 
L 133.533236 -154.09211 
L 133.875974 -152.716585 
L 134.253246 -151.34106 
L 134.702281 -149.965535 
L 135.248057 -148.59001 
L 135.897371 -147.214486 
L 136.678575 -145.838961 
L 137.667678 -144.463436 
L 138.950469 -143.087911 
L 140.554437 -141.712386 
L 142.416695 -140.336862 
L 144.408317 -138.961337 
L 146.400329 -137.585812 
L 148.350909 -136.210287 
L 150.360587 -134.834762 
L 152.62608 -133.459237 
L 155.305466 -132.083713 
L 158.404717 -130.708188 
L 161.77247 -129.332663 
L 165.18269 -127.957138 
L 168.42993 -126.581613 
L 171.3858 -125.206089 
L 173.992092 -123.830564 
L 176.205213 -122.455039 
L 177.98392 -121.079514 
L 179.368531 -119.703989 
L 180.515341 -118.328464 
L 181.567034 -116.95294 
L 182.492557 -115.577415 
L 183.079117 -114.20189 
L 183.055815 -112.826365 
L 182.239811 -111.45084 
L 180.643476 -110.075316 
L 178.486752 -108.699791 
L 176.096318 -107.324266 
L 173.77621 -105.948741 
L 171.735266 -104.573216 
L 170.055549 -103.197692 
L 168.67551 -101.822167 
L 167.43603 -100.446642 
L 166.207011 -99.071117 
L 164.986536 -97.695592 
L 163.856813 -96.320067 
L 162.855681 -94.944543 
L 161.946256 -93.569018 
L 161.119674 -92.193493 
L 160.447576 -90.817968 
L 159.982575 -89.442443 
L 159.665535 -88.066919 
L 159.391943 -86.691394 
L 159.140291 -85.315869 
L 158.995195 -83.940344 
L 159.07088 -82.564819 
L 159.460882 -81.189295 
L 160.276113 -79.81377 
L 161.66846 -78.438245 
L 163.612214 -77.06272 
L 165.402181 -75.687195 
L 165.436623 -74.31167 
L 162.083683 -72.936146 
L 155.260725 -71.560621 
z
" style="stroke: #474747"/>
    </defs>
    <g clip-path="url(#pfaabc1e16c)">
     <use xlink:href="#m7cd5d027ce" x="0" y="288" style="fill: #51779d; stroke: #474747"/>
    </g>
   </g>
   <g id="PolyCollection_2">
    <defs>
     <path id="mf014b862b8" d="M 313.593355 -71.735825 
L 292.856834 -71.735825 
L 291.16184 -72.837682 
L 289.905439 -73.939539 
L 289.138082 -75.041396 
L 288.802968 -76.143253 
L 288.773989 -77.24511 
L 288.907848 -78.346967 
L 289.085054 -79.448824 
L 289.226968 -80.550681 
L 289.29165 -81.652538 
L 289.260109 -82.754395 
L 289.12408 -83.856252 
L 288.880131 -84.958109 
L 288.528077 -86.059966 
L 288.068407 -87.161823 
L 287.495513 -88.26368 
L 286.789328 -89.365537 
L 285.912484 -90.467394 
L 284.818442 -91.569251 
L 283.468236 -92.671108 
L 281.845707 -93.772965 
L 279.960564 -94.874822 
L 277.836619 -95.976679 
L 275.492888 -97.078536 
L 272.929848 -98.180393 
L 270.129126 -99.28225 
L 267.066574 -100.384107 
L 263.732546 -101.485964 
L 260.152026 -102.587821 
L 256.398552 -103.689678 
L 252.596687 -104.791535 
L 248.908692 -105.893392 
L 245.505275 -106.99525 
L 242.528313 -108.097107 
L 240.060238 -109.198964 
L 238.114103 -110.300821 
L 236.649017 -111.402678 
L 235.603277 -112.504535 
L 234.929714 -113.606392 
L 234.618334 -114.708249 
L 234.698819 -115.810106 
L 235.225271 -116.911963 
L 236.252738 -118.01382 
L 237.816286 -119.115677 
L 239.919218 -120.217534 
L 242.53108 -121.319391 
L 245.592266 -122.421248 
L 249.021433 -123.523105 
L 252.723038 -124.624962 
L 256.593695 -125.726819 
L 260.527481 -126.828676 
L 264.421573 -127.930533 
L 268.183642 -129.03239 
L 271.740392 -130.134247 
L 275.044085 -131.236104 
L 278.073348 -132.337961 
L 280.827271 -133.439818 
L 283.315759 -134.541675 
L 285.551195 -135.643532 
L 287.54518 -136.745389 
L 289.310643 -137.847246 
L 290.866536 -138.949103 
L 292.241151 -140.05096 
L 293.47114 -141.152817 
L 294.595663 -142.254674 
L 295.647789 -143.356531 
L 296.646894 -144.458388 
L 297.595588 -145.560245 
L 298.482455 -146.662102 
L 299.289089 -147.763959 
L 299.998168 -148.865816 
L 300.599425 -149.967673 
L 301.091985 -151.06953 
L 301.483356 -152.171387 
L 301.786426 -153.273244 
L 302.016043 -154.375101 
L 302.186366 -155.476958 
L 302.309646 -156.578815 
L 302.396594 -157.680672 
L 302.457773 -158.782529 
L 302.50482 -159.884386 
L 302.5502 -160.986243 
L 302.605008 -162.0881 
L 302.675764 -163.189957 
L 302.762113 -164.291814 
L 302.856994 -165.393671 
L 302.949377 -166.495528 
L 303.028133 -167.597385 
L 303.085223 -168.699242 
L 303.117113 -169.801099 
L 303.124547 -170.902956 
L 303.111478 -172.004813 
L 303.083898 -173.10667 
L 303.048807 -174.208527 
L 303.013269 -175.310384 
L 302.983517 -176.412241 
L 302.964261 -177.514098 
L 302.958333 -178.615955 
L 302.966629 -179.717812 
L 302.988174 -180.819669 
L 303.462014 -180.819669 
L 303.462014 -180.819669 
L 303.483559 -179.717812 
L 303.491855 -178.615955 
L 303.485927 -177.514098 
L 303.466672 -176.412241 
L 303.43692 -175.310384 
L 303.401381 -174.208527 
L 303.36629 -173.10667 
L 303.33871 -172.004813 
L 303.325642 -170.902956 
L 303.333076 -169.801099 
L 303.364966 -168.699242 
L 303.422055 -167.597385 
L 303.500811 -166.495528 
L 303.593194 -165.393671 
L 303.688076 -164.291814 
L 303.774424 -163.189957 
L 303.845181 -162.0881 
L 303.899989 -160.986243 
L 303.945368 -159.884386 
L 303.992415 -158.782529 
L 304.053594 -157.680672 
L 304.140543 -156.578815 
L 304.263822 -155.476958 
L 304.434145 -154.375101 
L 304.663763 -153.273244 
L 304.966832 -152.171387 
L 305.358203 -151.06953 
L 305.850763 -149.967673 
L 306.45202 -148.865816 
L 307.161099 -147.763959 
L 307.967734 -146.662102 
L 308.8546 -145.560245 
L 309.803295 -144.458388 
L 310.8024 -143.356531 
L 311.854525 -142.254674 
L 312.979049 -141.152817 
L 314.209037 -140.05096 
L 315.583653 -138.949103 
L 317.139546 -137.847246 
L 318.905009 -136.745389 
L 320.898993 -135.643532 
L 323.134429 -134.541675 
L 325.622917 -133.439818 
L 328.376841 -132.337961 
L 331.406103 -131.236104 
L 334.709796 -130.134247 
L 338.266546 -129.03239 
L 342.028615 -127.930533 
L 345.922708 -126.828676 
L 349.856493 -125.726819 
L 353.72715 -124.624962 
L 357.428755 -123.523105 
L 360.857922 -122.421248 
L 363.919108 -121.319391 
L 366.530971 -120.217534 
L 368.633903 -119.115677 
L 370.19745 -118.01382 
L 371.224917 -116.911963 
L 371.751369 -115.810106 
L 371.831854 -114.708249 
L 371.520475 -113.606392 
L 370.846911 -112.504535 
L 369.801171 -111.402678 
L 368.336086 -110.300821 
L 366.389951 -109.198964 
L 363.921875 -108.097107 
L 360.944914 -106.99525 
L 357.541497 -105.893392 
L 353.853501 -104.791535 
L 350.051636 -103.689678 
L 346.298162 -102.587821 
L 342.717643 -101.485964 
L 339.383615 -100.384107 
L 336.321063 -99.28225 
L 333.520341 -98.180393 
L 330.9573 -97.078536 
L 328.613569 -95.976679 
L 326.489625 -94.874822 
L 324.604481 -93.772965 
L 322.981952 -92.671108 
L 321.631746 -91.569251 
L 320.537704 -90.467394 
L 319.66086 -89.365537 
L 318.954675 -88.26368 
L 318.381781 -87.161823 
L 317.922111 -86.059966 
L 317.570058 -84.958109 
L 317.326109 -83.856252 
L 317.190079 -82.754395 
L 317.158538 -81.652538 
L 317.22322 -80.550681 
L 317.365134 -79.448824 
L 317.54234 -78.346967 
L 317.676199 -77.24511 
L 317.647221 -76.143253 
L 317.312106 -75.041396 
L 316.544749 -73.939539 
L 315.288348 -72.837682 
L 313.593355 -71.735825 
z
" style="stroke: #474747"/>
    </defs>
    <g clip-path="url(#pfaabc1e16c)">
     <use xlink:href="#mf014b862b8" x="0" y="288" style="fill: #51779d; stroke: #474747"/>
    </g>
   </g>
   <g id="PolyCollection_3">
    <defs>
     <path id="m5388bd470d" d="M 482.276328 -72.137225 
L 467.207658 -72.137225 
L 466.16921 -73.048292 
L 465.22356 -73.95936 
L 464.401658 -74.870428 
L 463.716962 -75.781495 
L 463.163002 -76.692563 
L 462.713895 -77.603631 
L 462.327955 -78.514698 
L 461.954057 -79.425766 
L 461.539964 -80.336834 
L 461.041263 -81.247901 
L 460.429224 -82.158969 
L 459.695857 -83.070037 
L 458.854871 -83.981105 
L 457.93815 -84.892172 
L 456.988431 -85.80324 
L 456.049912 -86.714308 
L 455.158978 -87.625375 
L 454.337102 -88.536443 
L 453.587242 -89.447511 
L 452.89395 -90.358578 
L 452.226492 -91.269646 
L 451.543709 -92.180714 
L 450.799411 -93.091781 
L 449.947467 -94.002849 
L 448.946297 -94.913917 
L 447.762746 -95.824985 
L 446.375285 -96.736052 
L 444.776179 -97.64712 
L 442.972038 -98.558188 
L 440.982199 -99.469255 
L 438.834892 -100.380323 
L 436.561884 -101.291391 
L 434.193017 -102.202458 
L 431.752335 -103.113526 
L 429.257187 -104.024594 
L 426.720742 -104.935661 
L 424.157248 -105.846729 
L 421.588305 -106.757797 
L 419.048066 -107.668865 
L 416.585535 -108.579932 
L 414.263108 -109.491 
L 412.151654 -110.402068 
L 410.323439 -111.313135 
L 408.844686 -112.224203 
L 407.769335 -113.135271 
L 407.134988 -114.046338 
L 406.961259 -114.957406 
L 407.250167 -115.868474 
L 407.987992 -116.779541 
L 409.14797 -117.690609 
L 410.693267 -118.601677 
L 412.57972 -119.512745 
L 414.757829 -120.423812 
L 417.173721 -121.33488 
L 419.769201 -122.245948 
L 422.48157 -123.157015 
L 425.244316 -124.068083 
L 427.98976 -124.979151 
L 430.654201 -125.890218 
L 433.18506 -126.801286 
L 435.548525 -127.712354 
L 437.735552 -128.623421 
L 439.764105 -129.534489 
L 441.676347 -130.445557 
L 443.530745 -131.356625 
L 445.390454 -132.267692 
L 447.310405 -133.17876 
L 449.325913 -134.089828 
L 451.445316 -135.000895 
L 453.648132 -135.911963 
L 455.888898 -136.823031 
L 458.105506 -137.734098 
L 460.229933 -138.645166 
L 462.19893 -139.556234 
L 463.962592 -140.467301 
L 465.489517 -141.378369 
L 466.768265 -142.289437 
L 467.805672 -143.200505 
L 468.623086 -144.111572 
L 469.251655 -145.02264 
L 469.727631 -145.933708 
L 470.088256 -146.844775 
L 470.368491 -147.755843 
L 470.598672 -148.666911 
L 470.803063 -149.577978 
L 470.999283 -150.489046 
L 471.198562 -151.400114 
L 471.406652 -152.311181 
L 471.625173 -153.222249 
L 471.853049 -154.133317 
L 472.087758 -155.044385 
L 472.326185 -155.955452 
L 472.565087 -156.86652 
L 472.801249 -157.777588 
L 473.031526 -158.688655 
L 473.252892 -159.599723 
L 473.462562 -160.510791 
L 473.65814 -161.421858 
L 473.837748 -162.332926 
L 475.646238 -162.332926 
L 475.646238 -162.332926 
L 475.825846 -161.421858 
L 476.021425 -160.510791 
L 476.231094 -159.599723 
L 476.452461 -158.688655 
L 476.682737 -157.777588 
L 476.9189 -156.86652 
L 477.157802 -155.955452 
L 477.396229 -155.044385 
L 477.630937 -154.133317 
L 477.858814 -153.222249 
L 478.077335 -152.311181 
L 478.285425 -151.400114 
L 478.484703 -150.489046 
L 478.680924 -149.577978 
L 478.885314 -148.666911 
L 479.115496 -147.755843 
L 479.395731 -146.844775 
L 479.756355 -145.933708 
L 480.232332 -145.02264 
L 480.860901 -144.111572 
L 481.678314 -143.200505 
L 482.715722 -142.289437 
L 483.994469 -141.378369 
L 485.521394 -140.467301 
L 487.285057 -139.556234 
L 489.254054 -138.645166 
L 491.378481 -137.734098 
L 493.595089 -136.823031 
L 495.835855 -135.911963 
L 498.038671 -135.000895 
L 500.158073 -134.089828 
L 502.173582 -133.17876 
L 504.093533 -132.267692 
L 505.953242 -131.356625 
L 507.807639 -130.445557 
L 509.719881 -129.534489 
L 511.748434 -128.623421 
L 513.935461 -127.712354 
L 516.298927 -126.801286 
L 518.829785 -125.890218 
L 521.494227 -124.979151 
L 524.239671 -124.068083 
L 527.002416 -123.157015 
L 529.714786 -122.245948 
L 532.310266 -121.33488 
L 534.726158 -120.423812 
L 536.904266 -119.512745 
L 538.790719 -118.601677 
L 540.336017 -117.690609 
L 541.495994 -116.779541 
L 542.233819 -115.868474 
L 542.522727 -114.957406 
L 542.348998 -114.046338 
L 541.714652 -113.135271 
L 540.639301 -112.224203 
L 539.160548 -111.313135 
L 537.332333 -110.402068 
L 535.220878 -109.491 
L 532.898452 -108.579932 
L 530.435921 -107.668865 
L 527.895681 -106.757797 
L 525.326738 -105.846729 
L 522.763244 -104.935661 
L 520.2268 -104.024594 
L 517.731651 -103.113526 
L 515.29097 -102.202458 
L 512.922102 -101.291391 
L 510.649095 -100.380323 
L 508.501788 -99.469255 
L 506.511949 -98.558188 
L 504.707807 -97.64712 
L 503.108701 -96.736052 
L 501.72124 -95.824985 
L 500.53769 -94.913917 
L 499.53652 -94.002849 
L 498.684576 -93.091781 
L 497.940278 -92.180714 
L 497.257494 -91.269646 
L 496.590036 -90.358578 
L 495.896745 -89.447511 
L 495.146885 -88.536443 
L 494.325009 -87.625375 
L 493.434074 -86.714308 
L 492.495556 -85.80324 
L 491.545837 -84.892172 
L 490.629115 -83.981105 
L 489.78813 -83.070037 
L 489.054763 -82.158969 
L 488.442724 -81.247901 
L 487.944023 -80.336834 
L 487.52993 -79.425766 
L 487.156032 -78.514698 
L 486.770091 -77.603631 
L 486.320985 -76.692563 
L 485.767025 -75.781495 
L 485.082329 -74.870428 
L 484.260426 -73.95936 
L 483.314776 -73.048292 
L 482.276328 -72.137225 
z
" style="stroke: #474747"/>
    </defs>
    <g clip-path="url(#pfaabc1e16c)">
     <use xlink:href="#m5388bd470d" x="0" y="288" style="fill: #51779d; stroke: #474747"/>
    </g>
   </g>
   <g id="line2d_9">
    <path d="M 131.708195 216.439379 
L 131.708195 123.731674 
" clip-path="url(#pfaabc1e16c)" style="fill: none; stroke: #474747; stroke-width: 1.5; stroke-linecap: round"/>
   </g>
   <g id="line2d_10">
    <path d="M 131.708195 196.957696 
L 131.708195 167.112657 
" clip-path="url(#pfaabc1e16c)" style="fill: none; stroke: #474747; stroke-width: 4.5; stroke-linecap: round"/>
   </g>
   <g id="line2d_11">
    <path d="M 131.708195 179.415514 
" clip-path="url(#pfaabc1e16c)" style="fill: none; stroke: #474747; stroke-width: 1.2; stroke-linecap: round"/>
    <defs>
     <path id="mbcba784f05" d="M 1.875 0 
L -1.875 -0 
" style="stroke: #ffffff; stroke-width: 0.9"/>
    </defs>
    <g clip-path="url(#pfaabc1e16c)">
     <use xlink:href="#mbcba784f05" x="131.708195" y="179.415514" style="fill: #ffffff; stroke: #ffffff; stroke-width: 0.9"/>
    </g>
   </g>
   <g id="line2d_12">
    <path d="M 303.225094 214.02744 
L 303.225094 138.355779 
" clip-path="url(#pfaabc1e16c)" style="fill: none; stroke: #474747; stroke-width: 1.5; stroke-linecap: round"/>
   </g>
   <g id="line2d_13">
    <path d="M 303.225094 185.294302 
L 303.225094 166.088029 
" clip-path="url(#pfaabc1e16c)" style="fill: none; stroke: #474747; stroke-width: 4.5; stroke-linecap: round"/>
   </g>
   <g id="line2d_14">
    <path d="M 303.225094 175.214083 
" clip-path="url(#pfaabc1e16c)" style="fill: none; stroke: #474747; stroke-width: 1.2; stroke-linecap: round"/>
    <g clip-path="url(#pfaabc1e16c)">
     <use xlink:href="#mbcba784f05" x="303.225094" y="175.214083" style="fill: #ffffff; stroke: #ffffff; stroke-width: 0.9"/>
    </g>
   </g>
   <g id="line2d_15">
    <path d="M 474.741993 215.33271 
L 474.741993 135.679044 
" clip-path="url(#pfaabc1e16c)" style="fill: none; stroke: #474747; stroke-width: 1.5; stroke-linecap: round"/>
   </g>
   <g id="line2d_16">
    <path d="M 474.741993 185.51373 
L 474.741993 165.557217 
" clip-path="url(#pfaabc1e16c)" style="fill: none; stroke: #474747; stroke-width: 4.5; stroke-linecap: round"/>
   </g>
   <g id="line2d_17">
    <path d="M 474.741993 174.882953 
" clip-path="url(#pfaabc1e16c)" style="fill: none; stroke: #474747; stroke-width: 1.2; stroke-linecap: round"/>
    <g clip-path="url(#pfaabc1e16c)">
     <use xlink:href="#mbcba784f05" x="474.741993" y="174.882953" style="fill: #ffffff; stroke: #ffffff; stroke-width: 0.9"/>
    </g>
   </g>
   <g id="line2d_18">
    <path d="M 131.708195 66.450584 
L 131.708195 62.652328 
L 303.225094 62.652328 
L 303.225094 66.450584 
" clip-path="url(#pfaabc1e16c)" style="fill: none; stroke: #000000; stroke-linecap: round"/>
   </g>
   <g id="line2d_19">
    <path d="M 131.708195 45.732825 
L 131.708195 41.416625 
L 474.741993 41.416625 
L 474.741993 45.732825 
" clip-path="url(#pfaabc1e16c)" style="fill: none; stroke: #000000; stroke-linecap: round"/>
   </g>
   <g id="line2d_20">
    <path d="M 303.225094 25.015066 
L 303.225094 20.180923 
L 474.741993 20.180923 
L 474.741993 25.015066 
" clip-path="url(#pfaabc1e16c)" style="fill: none; stroke: #000000; stroke-linecap: round"/>
   </g>
   <g id="patch_3">
    <path d="M 57.228 226.252302 
L 57.228 10.368 
" style="fill: none; stroke: #262626; stroke-linejoin: miter; stroke-linecap: square"/>
   </g>
   <g id="patch_4">
    <path d="M 565.632 226.252302 
L 565.632 10.368 
" style="fill: none; stroke: #262626; stroke-linejoin: miter; stroke-linecap: square"/>
   </g>
   <g id="patch_5">
    <path d="M 57.228 226.252302 
L 565.632 226.252302 
" style="fill: none; stroke: #262626; stroke-linejoin: miter; stroke-linecap: square"/>
   </g>
   <g id="patch_6">
    <path d="M 57.228 10.368 
L 565.632 10.368 
" style="fill: none; stroke: #262626; stroke-linejoin: miter; stroke-linecap: square"/>
   </g>
   <g id="text_11">
    <!-- *** -->
    <g transform="translate(210.266645 60.655828) scale(0.096 -0.096)">
     <defs>
      <path id="DejaVuSans-2a" d="M 3009 3897 
L 1888 3291 
L 3009 2681 
L 2828 2375 
L 1778 3009 
L 1778 1831 
L 1422 1831 
L 1422 3009 
L 372 2375 
L 191 2681 
L 1313 3291 
L 191 3897 
L 372 4206 
L 1422 3572 
L 1422 4750 
L 1778 4750 
L 1778 3572 
L 2828 4206 
L 3009 3897 
z
" transform="scale(0.015625)"/>
     </defs>
     <use xlink:href="#DejaVuSans-2a"/>
     <use xlink:href="#DejaVuSans-2a" x="50"/>
     <use xlink:href="#DejaVuSans-2a" x="100"/>
    </g>
   </g>
   <g id="text_12">
    <!-- *** -->
    <g transform="translate(296.025094 39.420125) scale(0.096 -0.096)">
     <use xlink:href="#DejaVuSans-2a"/>
     <use xlink:href="#DejaVuSans-2a" x="50"/>
     <use xlink:href="#DejaVuSans-2a" x="100"/>
    </g>
   </g>
   <g id="text_13">
    <!-- ns -->
    <g transform="translate(383.441044 18.184423) scale(0.096 -0.096)">
     <use xlink:href="#DejaVuSans-6e"/>
     <use xlink:href="#DejaVuSans-73" x="63.378906"/>
    </g>
   </g>
  </g>
 </g>
 <defs>
  <clipPath id="pfaabc1e16c">
   <rect x="57.228" y="10.368" width="508.404" height="215.884302"/>
  </clipPath>
 </defs>
</svg>
