<?xml version="1.0" encoding="utf-8" standalone="no"?>
<!DOCTYPE svg PUBLIC "-//W3C//DTD SVG 1.1//EN"
  "http://www.w3.org/Graphics/SVG/1.1/DTD/svg11.dtd">
<svg xmlns:xlink="http://www.w3.org/1999/xlink" width="576pt" height="288pt" viewBox="0 0 576 288" xmlns="http://www.w3.org/2000/svg" version="1.1">
 <metadata>
  <rdf:RDF xmlns:dc="http://purl.org/dc/elements/1.1/" xmlns:cc="http://creativecommons.org/ns#" xmlns:rdf="http://www.w3.org/1999/02/22-rdf-syntax-ns#">
   <cc:Work>
    <dc:type rdf:resource="http://purl.org/dc/dcmitype/StillImage"/>
    <dc:date>2024-12-13T10:22:02.755841</dc:date>
    <dc:format>image/svg+xml</dc:format>
    <dc:creator>
     <cc:Agent>
      <dc:title>Matplotlib v3.9.2, https://matplotlib.org/</dc:title>
     </cc:Agent>
    </dc:creator>
   </cc:Work>
  </rdf:RDF>
 </metadata>
 <defs>
  <style type="text/css">*{stroke-linejoin: round; stroke-linecap: butt}</style>
 </defs>
 <g id="figure_1">
  <g id="patch_1">
   <path d="M 0 288 
L 576 288 
L 576 0 
L 0 0 
L 0 288 
z
" style="fill: none"/>
  </g>
  <g id="axes_1">
   <g id="patch_2">
    <path d="M 53.876 238.804 
L 301.15988 238.804 
L 301.15988 23.568 
L 53.876 23.568 
L 53.876 238.804 
z
" style="fill: none"/>
   </g>
   <g id="matplotlib.axis_1">
    <g id="xtick_1">
     <g id="line2d_1">
      <defs>
       <path id="ma9c6d7e0fe" d="M 0 0 
L 0 4.8 
" style="stroke: #262626"/>
      </defs>
      <g>
       <use xlink:href="#ma9c6d7e0fe" x="65.116176" y="238.804" style="fill: #262626; stroke: #262626"/>
      </g>
     </g>
     <g id="text_1">
      <!-- 0 -->
      <g style="fill: #262626" transform="translate(62.316676 253.790625) scale(0.088 -0.088)">
       <defs>
        <path id="DejaVuSans-30" d="M 2034 4250 
Q 1547 4250 1301 3770 
Q 1056 3291 1056 2328 
Q 1056 1369 1301 889 
Q 1547 409 2034 409 
Q 2525 409 2770 889 
Q 3016 1369 3016 2328 
Q 3016 3291 2770 3770 
Q 2525 4250 2034 4250 
z
M 2034 4750 
Q 2819 4750 3233 4129 
Q 3647 3509 3647 2328 
Q 3647 1150 3233 529 
Q 2819 -91 2034 -91 
Q 1250 -91 836 529 
Q 422 1150 422 2328 
Q 422 3509 836 4129 
Q 1250 4750 2034 4750 
z
" transform="scale(0.015625)"/>
       </defs>
       <use xlink:href="#DejaVuSans-30"/>
      </g>
     </g>
    </g>
    <g id="xtick_2">
     <g id="line2d_2">
      <g>
       <use xlink:href="#ma9c6d7e0fe" x="110.53103" y="238.804" style="fill: #262626; stroke: #262626"/>
      </g>
     </g>
     <g id="text_2">
      <!-- 20 -->
      <g style="fill: #262626" transform="translate(104.93203 253.790625) scale(0.088 -0.088)">
       <defs>
        <path id="DejaVuSans-32" d="M 1228 531 
L 3431 531 
L 3431 0 
L 469 0 
L 469 531 
Q 828 903 1448 1529 
Q 2069 2156 2228 2338 
Q 2531 2678 2651 2914 
Q 2772 3150 2772 3378 
Q 2772 3750 2511 3984 
Q 2250 4219 1831 4219 
Q 1534 4219 1204 4116 
Q 875 4013 500 3803 
L 500 4441 
Q 881 4594 1212 4672 
Q 1544 4750 1819 4750 
Q 2544 4750 2975 4387 
Q 3406 4025 3406 3419 
Q 3406 3131 3298 2873 
Q 3191 2616 2906 2266 
Q 2828 2175 2409 1742 
Q 1991 1309 1228 531 
z
" transform="scale(0.015625)"/>
       </defs>
       <use xlink:href="#DejaVuSans-32"/>
       <use xlink:href="#DejaVuSans-30" x="63.623047"/>
      </g>
     </g>
    </g>
    <g id="xtick_3">
     <g id="line2d_3">
      <g>
       <use xlink:href="#ma9c6d7e0fe" x="155.945884" y="238.804" style="fill: #262626; stroke: #262626"/>
      </g>
     </g>
     <g id="text_3">
      <!-- 40 -->
      <g style="fill: #262626" transform="translate(150.346884 253.790625) scale(0.088 -0.088)">
       <defs>
        <path id="DejaVuSans-34" d="M 2419 4116 
L 825 1625 
L 2419 1625 
L 2419 4116 
z
M 2253 4666 
L 3047 4666 
L 3047 1625 
L 3713 1625 
L 3713 1100 
L 3047 1100 
L 3047 0 
L 2419 0 
L 2419 1100 
L 313 1100 
L 313 1709 
L 2253 4666 
z
" transform="scale(0.015625)"/>
       </defs>
       <use xlink:href="#DejaVuSans-34"/>
       <use xlink:href="#DejaVuSans-30" x="63.623047"/>
      </g>
     </g>
    </g>
    <g id="xtick_4">
     <g id="line2d_4">
      <g>
       <use xlink:href="#ma9c6d7e0fe" x="201.360738" y="238.804" style="fill: #262626; stroke: #262626"/>
      </g>
     </g>
     <g id="text_4">
      <!-- 60 -->
      <g style="fill: #262626" transform="translate(195.761738 253.790625) scale(0.088 -0.088)">
       <defs>
        <path id="DejaVuSans-36" d="M 2113 2584 
Q 1688 2584 1439 2293 
Q 1191 2003 1191 1497 
Q 1191 994 1439 701 
Q 1688 409 2113 409 
Q 2538 409 2786 701 
Q 3034 994 3034 1497 
Q 3034 2003 2786 2293 
Q 2538 2584 2113 2584 
z
M 3366 4563 
L 3366 3988 
Q 3128 4100 2886 4159 
Q 2644 4219 2406 4219 
Q 1781 4219 1451 3797 
Q 1122 3375 1075 2522 
Q 1259 2794 1537 2939 
Q 1816 3084 2150 3084 
Q 2853 3084 3261 2657 
Q 3669 2231 3669 1497 
Q 3669 778 3244 343 
Q 2819 -91 2113 -91 
Q 1303 -91 875 529 
Q 447 1150 447 2328 
Q 447 3434 972 4092 
Q 1497 4750 2381 4750 
Q 2619 4750 2861 4703 
Q 3103 4656 3366 4563 
z
" transform="scale(0.015625)"/>
       </defs>
       <use xlink:href="#DejaVuSans-36"/>
       <use xlink:href="#DejaVuSans-30" x="63.623047"/>
      </g>
     </g>
    </g>
    <g id="xtick_5">
     <g id="line2d_5">
      <g>
       <use xlink:href="#ma9c6d7e0fe" x="246.775592" y="238.804" style="fill: #262626; stroke: #262626"/>
      </g>
     </g>
     <g id="text_5">
      <!-- 80 -->
      <g style="fill: #262626" transform="translate(241.176592 253.790625) scale(0.088 -0.088)">
       <defs>
        <path id="DejaVuSans-38" d="M 2034 2216 
Q 1584 2216 1326 1975 
Q 1069 1734 1069 1313 
Q 1069 891 1326 650 
Q 1584 409 2034 409 
Q 2484 409 2743 651 
Q 3003 894 3003 1313 
Q 3003 1734 2745 1975 
Q 2488 2216 2034 2216 
z
M 1403 2484 
Q 997 2584 770 2862 
Q 544 3141 544 3541 
Q 544 4100 942 4425 
Q 1341 4750 2034 4750 
Q 2731 4750 3128 4425 
Q 3525 4100 3525 3541 
Q 3525 3141 3298 2862 
Q 3072 2584 2669 2484 
Q 3125 2378 3379 2068 
Q 3634 1759 3634 1313 
Q 3634 634 3220 271 
Q 2806 -91 2034 -91 
Q 1263 -91 848 271 
Q 434 634 434 1313 
Q 434 1759 690 2068 
Q 947 2378 1403 2484 
z
M 1172 3481 
Q 1172 3119 1398 2916 
Q 1625 2713 2034 2713 
Q 2441 2713 2670 2916 
Q 2900 3119 2900 3481 
Q 2900 3844 2670 4047 
Q 2441 4250 2034 4250 
Q 1625 4250 1398 4047 
Q 1172 3844 1172 3481 
z
" transform="scale(0.015625)"/>
       </defs>
       <use xlink:href="#DejaVuSans-38"/>
       <use xlink:href="#DejaVuSans-30" x="63.623047"/>
      </g>
     </g>
    </g>
    <g id="xtick_6">
     <g id="line2d_6">
      <g>
       <use xlink:href="#ma9c6d7e0fe" x="292.190446" y="238.804" style="fill: #262626; stroke: #262626"/>
      </g>
     </g>
     <g id="text_6">
      <!-- 100 -->
      <g style="fill: #262626" transform="translate(283.791946 253.790625) scale(0.088 -0.088)">
       <defs>
        <path id="DejaVuSans-31" d="M 794 531 
L 1825 531 
L 1825 4091 
L 703 3866 
L 703 4441 
L 1819 4666 
L 2450 4666 
L 2450 531 
L 3481 531 
L 3481 0 
L 794 0 
L 794 531 
z
" transform="scale(0.015625)"/>
       </defs>
       <use xlink:href="#DejaVuSans-31"/>
       <use xlink:href="#DejaVuSans-30" x="63.623047"/>
       <use xlink:href="#DejaVuSans-30" x="127.246094"/>
      </g>
     </g>
    </g>
   </g>
   <g id="matplotlib.axis_2">
    <g id="ytick_1">
     <g id="line2d_7">
      <defs>
       <path id="md67b9953b9" d="M 0 0 
L -4.8 0 
" style="stroke: #262626"/>
      </defs>
      <g>
       <use xlink:href="#md67b9953b9" x="53.876" y="229.020545" style="fill: #262626; stroke: #262626"/>
      </g>
     </g>
     <g id="text_7">
      <!-- 0.0 -->
      <g style="fill: #262626" transform="translate(31.58125 232.363858) scale(0.088 -0.088)">
       <defs>
        <path id="DejaVuSans-2e" d="M 684 794 
L 1344 794 
L 1344 0 
L 684 0 
L 684 794 
z
" transform="scale(0.015625)"/>
       </defs>
       <use xlink:href="#DejaVuSans-30"/>
       <use xlink:href="#DejaVuSans-2e" x="63.623047"/>
       <use xlink:href="#DejaVuSans-30" x="95.410156"/>
      </g>
     </g>
    </g>
    <g id="ytick_2">
     <g id="line2d_8">
      <g>
       <use xlink:href="#md67b9953b9" x="53.876" y="189.886741" style="fill: #262626; stroke: #262626"/>
      </g>
     </g>
     <g id="text_8">
      <!-- 0.2 -->
      <g style="fill: #262626" transform="translate(31.58125 193.230054) scale(0.088 -0.088)">
       <use xlink:href="#DejaVuSans-30"/>
       <use xlink:href="#DejaVuSans-2e" x="63.623047"/>
       <use xlink:href="#DejaVuSans-32" x="95.410156"/>
      </g>
     </g>
    </g>
    <g id="ytick_3">
     <g id="line2d_9">
      <g>
       <use xlink:href="#md67b9953b9" x="53.876" y="150.752937" style="fill: #262626; stroke: #262626"/>
      </g>
     </g>
     <g id="text_9">
      <!-- 0.4 -->
      <g style="fill: #262626" transform="translate(31.58125 154.09625) scale(0.088 -0.088)">
       <use xlink:href="#DejaVuSans-30"/>
       <use xlink:href="#DejaVuSans-2e" x="63.623047"/>
       <use xlink:href="#DejaVuSans-34" x="95.410156"/>
      </g>
     </g>
    </g>
    <g id="ytick_4">
     <g id="line2d_10">
      <g>
       <use xlink:href="#md67b9953b9" x="53.876" y="111.619133" style="fill: #262626; stroke: #262626"/>
      </g>
     </g>
     <g id="text_10">
      <!-- 0.6 -->
      <g style="fill: #262626" transform="translate(31.58125 114.962445) scale(0.088 -0.088)">
       <use xlink:href="#DejaVuSans-30"/>
       <use xlink:href="#DejaVuSans-2e" x="63.623047"/>
       <use xlink:href="#DejaVuSans-36" x="95.410156"/>
      </g>
     </g>
    </g>
    <g id="ytick_5">
     <g id="line2d_11">
      <g>
       <use xlink:href="#md67b9953b9" x="53.876" y="72.485329" style="fill: #262626; stroke: #262626"/>
      </g>
     </g>
     <g id="text_11">
      <!-- 0.8 -->
      <g style="fill: #262626" transform="translate(31.58125 75.828641) scale(0.088 -0.088)">
       <use xlink:href="#DejaVuSans-30"/>
       <use xlink:href="#DejaVuSans-2e" x="63.623047"/>
       <use xlink:href="#DejaVuSans-38" x="95.410156"/>
      </g>
     </g>
    </g>
    <g id="ytick_6">
     <g id="line2d_12">
      <g>
       <use xlink:href="#md67b9953b9" x="53.876" y="33.351525" style="fill: #262626; stroke: #262626"/>
      </g>
     </g>
     <g id="text_12">
      <!-- 1.0 -->
      <g style="fill: #262626" transform="translate(31.58125 36.694837) scale(0.088 -0.088)">
       <use xlink:href="#DejaVuSans-31"/>
       <use xlink:href="#DejaVuSans-2e" x="63.623047"/>
       <use xlink:href="#DejaVuSans-30" x="95.410156"/>
      </g>
     </g>
    </g>
   </g>
   <g id="PolyCollection_1"/>
   <g id="PolyCollection_2"/>
   <g id="PolyCollection_3"/>
   <g id="PolyCollection_4"/>
   <g id="PolyCollection_5"/>
   <g id="PolyCollection_6"/>
   <g id="PolyCollection_7"/>
   <g id="PolyCollection_8"/>
   <g id="PolyCollection_9"/>
   <g id="PolyCollection_10"/>
   <g id="line2d_13">
    <path d="M 65.116176 226.275507 
L 67.386919 213.363654 
L 69.657662 196.340484 
L 71.928404 178.44805 
L 74.199147 161.214195 
L 76.46989 144.714373 
L 78.740633 129.393745 
L 81.011375 115.479544 
L 83.282118 103.053258 
L 85.552861 92.114314 
L 87.823603 82.448223 
L 90.094346 73.987983 
L 92.365089 66.771613 
L 94.635831 60.638284 
L 96.906574 55.428519 
L 99.177317 51.118502 
L 101.44806 47.576375 
L 103.718802 44.676623 
L 105.989545 42.348475 
L 108.260288 40.494011 
L 110.53103 39.031311 
L 112.801773 37.889245 
L 115.072516 36.991502 
L 117.343258 36.288435 
L 119.614001 35.742068 
L 121.884744 35.320517 
L 124.155486 34.985947 
L 126.426229 34.712828 
L 128.696972 34.490337 
L 130.967715 34.308351 
L 133.238457 34.156373 
L 135.5092 34.028864 
L 137.779943 33.920085 
L 140.050685 33.826048 
L 142.321428 33.746683 
L 144.592171 33.682922 
L 146.862913 33.628037 
L 149.133656 33.582226 
L 151.404399 33.545407 
L 153.675142 33.513917 
L 155.945884 33.486743 
L 158.216627 33.46421 
L 160.48737 33.446331 
L 162.758112 33.430843 
L 165.028855 33.414748 
L 167.299598 33.401733 
L 169.57034 33.392426 
L 171.841083 33.385452 
L 174.111826 33.380262 
L 176.382569 33.376285 
L 178.653311 33.372937 
L 180.924054 33.369753 
L 183.194797 33.366488 
L 185.465539 33.363234 
L 187.736282 33.360295 
L 190.007025 33.358091 
L 192.277767 33.356854 
L 194.54851 33.356085 
L 196.819253 33.355292 
L 199.089996 33.353962 
L 201.360738 33.352458 
L 203.631481 33.352049 
L 205.902224 33.351886 
L 208.172966 33.351769 
L 210.443709 33.351688 
L 212.714452 33.351641 
L 214.985194 33.351606 
L 217.255937 33.351583 
L 219.52668 33.35156 
L 221.797423 33.351536 
L 224.068165 33.351525 
L 226.338908 33.351525 
L 228.609651 33.351525 
L 230.880393 33.351501 
L 233.151136 33.351501 
L 235.421879 33.351501 
L 237.692621 33.351501 
L 239.963364 33.351501 
L 242.234107 33.351501 
L 244.504849 33.351501 
L 246.775592 33.351501 
L 249.046335 33.351501 
L 251.317078 33.351501 
L 253.58782 33.351501 
L 255.858563 33.351501 
L 258.129306 33.351501 
L 260.400048 33.351501 
L 262.670791 33.351501 
L 264.941534 33.351501 
L 267.212276 33.351501 
L 269.483019 33.351501 
L 271.753762 33.351501 
L 274.024505 33.351501 
L 276.295247 33.351501 
L 278.56599 33.351501 
L 280.836733 33.351501 
L 283.107475 33.351501 
L 285.378218 33.351501 
L 287.648961 33.351501 
L 289.919703 33.351501 
" clip-path="url(#pb8cfebec21)" style="fill: none; stroke-dasharray: 4.44,1.92; stroke-dashoffset: 0; stroke: #66ccee; stroke-opacity: 0.5; stroke-width: 1.2"/>
   </g>
   <g id="line2d_14">
    <path d="M 65.116176 225.463392 
L 67.386919 210.6531 
L 69.657662 192.202392 
L 71.928404 173.510418 
L 74.199147 156.024694 
L 76.46989 139.79711 
L 78.740633 125.123511 
L 81.011375 111.987124 
L 83.282118 100.340401 
L 85.552861 90.195355 
L 87.823603 81.311265 
L 90.094346 73.580287 
L 92.365089 66.990336 
L 94.635831 61.370065 
L 96.906574 56.595415 
L 99.177317 52.611572 
L 101.44806 49.304345 
L 103.718802 46.573201 
L 105.989545 44.34884 
L 108.260288 42.54848 
L 110.53103 41.077546 
L 112.801773 39.888083 
L 115.072516 38.918555 
L 117.343258 38.130676 
L 119.614001 37.493107 
L 121.884744 36.970288 
L 124.155486 36.5388 
L 126.426229 36.180974 
L 128.696972 35.876645 
L 130.967715 35.612052 
L 133.238457 35.381129 
L 135.5092 35.182138 
L 137.779943 35.007686 
L 140.050685 34.853971 
L 142.321428 34.720922 
L 144.592171 34.604737 
L 146.862913 34.501405 
L 149.133656 34.40991 
L 151.404399 34.328399 
L 153.675142 34.255227 
L 155.945884 34.189764 
L 158.216627 34.131496 
L 160.48737 34.080029 
L 162.758112 34.034754 
L 165.028855 33.99447 
L 167.299598 33.958456 
L 169.57034 33.926605 
L 171.841083 33.898089 
L 174.111826 33.872349 
L 176.382569 33.849082 
L 178.653311 33.827868 
L 180.924054 33.808484 
L 183.194797 33.790512 
L 185.465539 33.773776 
L 187.736282 33.758369 
L 190.007025 33.74421 
L 192.277767 33.73116 
L 194.54851 33.719007 
L 196.819253 33.707694 
L 199.089996 33.697069 
L 201.360738 33.68669 
L 203.631481 33.676939 
L 205.902224 33.667679 
L 208.172966 33.658676 
L 210.443709 33.649847 
L 212.714452 33.641275 
L 214.985194 33.632924 
L 217.255937 33.624772 
L 219.52668 33.61676 
L 221.797423 33.60898 
L 224.068165 33.601236 
L 226.338908 33.593737 
L 228.609651 33.586285 
L 230.880393 33.578949 
L 233.151136 33.571625 
L 235.421879 33.564242 
L 237.692621 33.556871 
L 239.963364 33.5495 
L 242.234107 33.542199 
L 244.504849 33.534898 
L 246.775592 33.527528 
L 249.046335 33.520098 
L 251.317078 33.512646 
L 253.58782 33.505147 
L 255.858563 33.497543 
L 258.129306 33.489857 
L 260.400048 33.482113 
L 262.670791 33.474299 
L 264.941534 33.466345 
L 267.212276 33.458262 
L 269.483019 33.449912 
L 271.753762 33.441433 
L 274.024505 33.432732 
L 276.295247 33.423822 
L 278.56599 33.414783 
L 280.836733 33.40564 
L 283.107475 33.396076 
L 285.378218 33.386245 
L 287.648961 33.376075 
L 289.919703 33.351478 
" clip-path="url(#pb8cfebec21)" style="fill: none; stroke: #66ccee; stroke-width: 1.2; stroke-linecap: round"/>
   </g>
   <g id="line2d_15">
    <path d="M 65.116176 229.019397 
L 67.386919 228.922943 
L 69.657662 228.53653 
L 71.928404 227.729576 
L 74.199147 226.294611 
L 76.46989 224.251945 
L 78.740633 221.391231 
L 81.011375 217.658396 
L 83.282118 213.156944 
L 85.552861 208.003571 
L 87.823603 202.254731 
L 90.094346 195.854438 
L 92.365089 188.862381 
L 94.635831 181.404347 
L 96.906574 173.802186 
L 99.177317 165.806451 
L 101.44806 157.522225 
L 103.718802 149.100308 
L 105.989545 140.69543 
L 108.260288 132.362641 
L 110.53103 124.090328 
L 112.801773 115.979761 
L 115.072516 108.199251 
L 117.343258 100.77365 
L 119.614001 93.720583 
L 121.884744 87.140452 
L 124.155486 81.115645 
L 126.426229 75.609249 
L 128.696972 70.595454 
L 130.967715 66.062854 
L 133.238457 62.00115 
L 135.5092 58.43249 
L 137.779943 55.300041 
L 140.050685 52.568396 
L 142.321428 50.18408 
L 144.592171 48.149391 
L 146.862913 46.396953 
L 149.133656 44.863111 
L 151.404399 43.511837 
L 153.675142 42.326794 
L 155.945884 41.293693 
L 158.216627 40.395157 
L 160.48737 39.594612 
L 162.758112 38.884897 
L 165.028855 38.246989 
L 167.299598 37.676353 
L 169.57034 37.177302 
L 171.841083 36.736309 
L 174.111826 36.333255 
L 176.382569 35.960314 
L 178.653311 35.629977 
L 180.924054 35.336239 
L 183.194797 35.075494 
L 185.465539 34.851288 
L 187.736282 34.655925 
L 190.007025 34.478161 
L 192.277767 34.323547 
L 194.54851 34.186661 
L 196.819253 34.065333 
L 199.089996 33.954409 
L 201.360738 33.857059 
L 203.631481 33.772668 
L 205.902224 33.702131 
L 208.172966 33.646558 
L 210.443709 33.600875 
L 212.714452 33.561571 
L 214.985194 33.526361 
L 217.255937 33.493892 
L 219.52668 33.466776 
L 221.797423 33.444045 
L 224.068165 33.412218 
L 226.338908 33.398094 
L 228.609651 33.387749 
L 230.880393 33.379958 
L 233.151136 33.373905 
L 235.421879 33.368844 
L 237.692621 33.364937 
L 239.963364 33.362079 
L 242.234107 33.359572 
L 244.504849 33.357286 
L 246.775592 33.355128 
L 249.046335 33.353496 
L 251.317078 33.352597 
L 253.58782 33.352154 
L 255.858563 33.351898 
L 258.129306 33.351734 
L 260.400048 33.351641 
L 262.670791 33.351594 
L 264.941534 33.351571 
L 267.212276 33.35156 
L 269.483019 33.351548 
L 271.753762 33.351548 
L 274.024505 33.351548 
L 276.295247 33.351548 
L 278.56599 33.351548 
L 280.836733 33.351548 
L 283.107475 33.351548 
L 285.378218 33.351548 
L 287.648961 33.351548 
L 289.919703 33.351548 
" clip-path="url(#pb8cfebec21)" style="fill: none; stroke-dasharray: 4.44,1.92; stroke-dashoffset: 0; stroke: #228833; stroke-opacity: 0.5; stroke-width: 1.2"/>
   </g>
   <g id="line2d_16">
    <path d="M 65.116176 228.978735 
L 67.386919 228.772902 
L 69.657662 228.179506 
L 71.928404 227.031817 
L 74.199147 225.1554 
L 76.46989 222.525623 
L 78.740633 219.049949 
L 81.011375 214.734114 
L 83.282118 209.712179 
L 85.552861 204.028564 
L 87.823603 197.689518 
L 90.094346 190.861586 
L 92.365089 183.645755 
L 94.635831 176.070557 
L 96.906574 168.479187 
L 99.177317 160.693522 
L 101.44806 152.741773 
L 103.718802 144.789219 
L 105.989545 136.995454 
L 108.260288 129.319757 
L 110.53103 121.82243 
L 112.801773 114.590432 
L 115.072516 107.682496 
L 117.343258 101.171794 
L 119.614001 95.048122 
L 121.884744 89.363332 
L 124.155486 84.145823 
L 126.426229 79.368421 
L 128.696972 75.047301 
L 130.967715 71.152189 
L 133.238457 67.64421 
L 135.5092 64.539484 
L 137.779943 61.792094 
L 140.050685 59.351879 
L 142.321428 57.173714 
L 144.592171 55.256796 
L 146.862913 53.559161 
L 149.133656 52.040469 
L 151.404399 50.673742 
L 153.675142 49.435761 
L 155.945884 48.321231 
L 158.216627 47.314803 
L 160.48737 46.385372 
L 162.758112 45.526595 
L 165.028855 44.726831 
L 167.299598 43.993009 
L 169.57034 43.321233 
L 171.841083 42.695862 
L 174.111826 42.105551 
L 176.382569 41.550321 
L 178.653311 41.02609 
L 180.924054 40.534854 
L 183.194797 40.071841 
L 185.465539 39.639409 
L 187.736282 39.232681 
L 190.007025 38.855658 
L 192.277767 38.506568 
L 194.54851 38.179205 
L 196.819253 37.873022 
L 199.089996 37.586386 
L 201.360738 37.316486 
L 203.631481 37.06268 
L 205.902224 36.820398 
L 208.172966 36.589533 
L 210.443709 36.37671 
L 212.714452 36.184099 
L 214.985194 36.007187 
L 217.255937 35.838893 
L 219.52668 35.678786 
L 221.797423 35.525444 
L 224.068165 35.375507 
L 226.338908 35.234026 
L 228.609651 35.100475 
L 230.880393 34.976488 
L 233.151136 34.860549 
L 235.421879 34.751245 
L 237.692621 34.648764 
L 239.963364 34.551322 
L 242.234107 34.458929 
L 244.504849 34.371843 
L 246.775592 34.289434 
L 249.046335 34.210605 
L 251.317078 34.135835 
L 253.58782 34.065159 
L 255.858563 33.998331 
L 258.129306 33.934815 
L 260.400048 33.875475 
L 262.670791 33.819237 
L 264.941534 33.767116 
L 267.212276 33.718576 
L 269.483019 33.672578 
L 271.753762 33.628761 
L 274.024505 33.587719 
L 276.295247 33.548999 
L 278.56599 33.512179 
L 280.836733 33.477063 
L 283.107475 33.443229 
L 285.378218 33.411506 
L 287.648961 33.381999 
L 289.919703 33.351548 
" clip-path="url(#pb8cfebec21)" style="fill: none; stroke: #228833; stroke-width: 1.2; stroke-linecap: round"/>
   </g>
   <g id="line2d_17">
    <path d="M 65.116176 229.020545 
L 67.386919 229.020369 
L 69.657662 229.017577 
L 71.928404 229.006688 
L 74.199147 228.978551 
L 76.46989 228.91351 
L 78.740633 228.782238 
L 81.011375 228.560702 
L 83.282118 228.223131 
L 85.552861 227.718476 
L 87.823603 226.968575 
L 90.094346 226.014349 
L 92.365089 224.890484 
L 94.635831 223.592559 
L 96.906574 222.072747 
L 99.177317 220.280386 
L 101.44806 218.207418 
L 103.718802 215.777608 
L 105.989545 213.079512 
L 108.260288 210.156451 
L 110.53103 207.104899 
L 112.801773 203.808706 
L 115.072516 200.255855 
L 117.343258 196.434224 
L 119.614001 192.302788 
L 121.884744 187.938129 
L 124.155486 183.320233 
L 126.426229 178.521036 
L 128.696972 173.574966 
L 130.967715 168.374875 
L 133.238457 162.972523 
L 135.5092 157.485382 
L 137.779943 151.987033 
L 140.050685 146.503327 
L 142.321428 141.061688 
L 144.592171 135.679711 
L 146.862913 130.352473 
L 149.133656 125.07195 
L 151.404399 119.848329 
L 153.675142 114.694231 
L 155.945884 109.683106 
L 158.216627 104.844696 
L 160.48737 100.190324 
L 162.758112 95.722173 
L 165.028855 91.453104 
L 167.299598 87.390782 
L 169.57034 83.522284 
L 171.841083 79.847003 
L 174.111826 76.349498 
L 176.382569 73.01344 
L 178.653311 69.843764 
L 180.924054 66.878409 
L 183.194797 64.098421 
L 185.465539 61.50624 
L 187.736282 59.086632 
L 190.007025 56.83449 
L 192.277767 54.729626 
L 194.54851 52.755829 
L 196.819253 50.922941 
L 199.089996 49.221609 
L 201.360738 47.636369 
L 203.631481 46.181798 
L 205.902224 44.84557 
L 208.172966 43.611426 
L 210.443709 42.472567 
L 212.714452 41.419079 
L 214.985194 40.447185 
L 217.255937 39.559367 
L 219.52668 38.753702 
L 221.797423 38.030038 
L 224.068165 37.38462 
L 226.338908 36.808455 
L 228.609651 36.281309 
L 230.880393 35.817667 
L 233.151136 35.414647 
L 235.421879 35.062338 
L 237.692621 34.758931 
L 239.963364 34.499259 
L 242.234107 34.275952 
L 244.504849 34.083492 
L 246.775592 33.923164 
L 249.046335 33.793941 
L 251.317078 33.688159 
L 253.58782 33.601481 
L 255.858563 33.531715 
L 258.129306 33.477156 
L 260.400048 33.436721 
L 262.670791 33.407914 
L 264.941534 33.387399 
L 267.212276 33.373556 
L 269.483019 33.364412 
L 271.753762 33.358557 
L 274.024505 33.35507 
L 276.295247 33.353134 
L 278.56599 33.352143 
L 280.836733 33.351699 
L 283.107475 33.351571 
L 285.378218 33.351548 
L 287.648961 33.351548 
L 289.919703 33.351548 
" clip-path="url(#pb8cfebec21)" style="fill: none; stroke-dasharray: 4.44,1.92; stroke-dashoffset: 0; stroke: #ccbb44; stroke-opacity: 0.5; stroke-width: 1.2"/>
   </g>
   <g id="line2d_18">
    <path d="M 65.116176 228.9938 
L 67.386919 228.952527 
L 69.657662 228.90143 
L 71.928404 228.829621 
L 74.199147 228.716569 
L 76.46989 228.547057 
L 78.740633 228.285972 
L 81.011375 227.902466 
L 83.282118 227.367157 
L 85.552861 226.625901 
L 87.823603 225.672835 
L 90.094346 224.511411 
L 92.365089 223.150489 
L 94.635831 221.63835 
L 96.906574 219.896899 
L 99.177317 217.887145 
L 101.44806 215.650243 
L 103.718802 213.135729 
L 105.989545 210.425746 
L 108.260288 207.57041 
L 110.53103 204.547599 
L 112.801773 201.335733 
L 115.072516 197.923806 
L 117.343258 194.320426 
L 119.614001 190.532608 
L 121.884744 186.573703 
L 124.155486 182.474614 
L 126.426229 178.24917 
L 128.696972 173.937282 
L 130.967715 169.516913 
L 133.238457 165.004891 
L 135.5092 160.46008 
L 137.779943 155.919543 
L 140.050685 151.407941 
L 142.321428 146.952624 
L 144.592171 142.553434 
L 146.862913 138.190574 
L 149.133656 133.874213 
L 151.404399 129.622826 
L 153.675142 125.454197 
L 155.945884 121.408716 
L 158.216627 117.483257 
L 160.48737 113.678822 
L 162.758112 110.013233 
L 165.028855 106.481218 
L 167.299598 103.086602 
L 169.57034 99.834551 
L 171.841083 96.724052 
L 174.111826 93.733225 
L 176.382569 90.852833 
L 178.653311 88.089744 
L 180.924054 85.453442 
L 183.194797 82.93897 
L 185.465539 80.542245 
L 187.736282 78.262008 
L 190.007025 76.090083 
L 192.277767 74.009325 
L 194.54851 72.014348 
L 196.819253 70.114504 
L 199.089996 68.298457 
L 201.360738 66.554102 
L 203.631481 64.886522 
L 205.902224 63.294529 
L 208.172966 61.769888 
L 210.443709 60.298885 
L 212.714452 58.876504 
L 214.985194 57.50496 
L 217.255937 56.182424 
L 219.52668 54.915275 
L 221.797423 53.706007 
L 224.068165 52.549059 
L 226.338908 51.443148 
L 228.609651 50.385905 
L 230.880393 49.368957 
L 233.151136 48.389318 
L 235.421879 47.441799 
L 237.692621 46.534201 
L 239.963364 45.669499 
L 242.234107 44.843261 
L 244.504849 44.047591 
L 246.775592 43.279736 
L 249.046335 42.541576 
L 251.317078 41.828828 
L 253.58782 41.139989 
L 255.858563 40.477123 
L 258.129306 39.84212 
L 260.400048 39.237474 
L 262.670791 38.660038 
L 264.941534 38.098604 
L 267.212276 37.555095 
L 269.483019 37.027797 
L 271.753762 36.516302 
L 274.024505 36.02292 
L 276.295247 35.547475 
L 278.56599 35.088941 
L 280.836733 34.645359 
L 283.107475 34.217766 
L 285.378218 33.807539 
L 287.648961 33.432231 
L 289.919703 33.351478 
" clip-path="url(#pb8cfebec21)" style="fill: none; stroke: #ccbb44; stroke-width: 1.2; stroke-linecap: round"/>
   </g>
   <g id="line2d_19">
    <path d="M 65.116176 229.020545 
L 67.386919 229.020545 
L 69.657662 229.020544 
L 71.928404 229.020532 
L 74.199147 229.020451 
L 76.46989 229.020259 
L 78.740633 229.019734 
L 81.011375 229.018321 
L 83.282118 229.015772 
L 85.552861 229.010796 
L 87.823603 229.00241 
L 90.094346 228.984464 
L 92.365089 228.948359 
L 94.635831 228.909231 
L 96.906574 228.853119 
L 99.177317 228.777518 
L 101.44806 228.667776 
L 103.718802 228.52418 
L 105.989545 228.33925 
L 108.260288 228.122309 
L 110.53103 227.87058 
L 112.801773 227.549596 
L 115.072516 227.189284 
L 117.343258 226.74352 
L 119.614001 226.215776 
L 121.884744 225.60096 
L 124.155486 224.917915 
L 126.426229 224.181516 
L 128.696972 223.346697 
L 130.967715 222.446232 
L 133.238457 221.46658 
L 135.5092 220.377964 
L 137.779943 219.179267 
L 140.050685 217.917206 
L 142.321428 216.517748 
L 144.592171 214.961891 
L 146.862913 213.290499 
L 149.133656 211.509286 
L 151.404399 209.611586 
L 153.675142 207.620424 
L 155.945884 205.517718 
L 158.216627 203.254558 
L 160.48737 200.843861 
L 162.758112 198.355708 
L 165.028855 195.773367 
L 167.299598 193.051081 
L 169.57034 190.175272 
L 171.841083 187.207412 
L 174.111826 184.14168 
L 176.382569 180.975526 
L 178.653311 177.686377 
L 180.924054 174.295814 
L 183.194797 170.811196 
L 185.465539 167.23117 
L 187.736282 163.576305 
L 190.007025 159.843457 
L 192.277767 156.032957 
L 194.54851 152.150417 
L 196.819253 148.199574 
L 199.089996 144.210121 
L 201.360738 140.194648 
L 203.631481 136.170143 
L 205.902224 132.082098 
L 208.172966 127.947479 
L 210.443709 123.78446 
L 212.714452 119.599912 
L 214.985194 115.420636 
L 217.255937 111.262737 
L 219.52668 107.134882 
L 221.797423 103.07074 
L 224.068165 99.06875 
L 226.338908 95.140293 
L 228.609651 91.282151 
L 230.880393 87.476002 
L 233.151136 83.697692 
L 235.421879 79.986 
L 237.692621 76.375949 
L 239.963364 72.868659 
L 242.234107 69.478789 
L 244.504849 66.171586 
L 246.775592 62.951666 
L 249.046335 59.84694 
L 251.317078 56.875403 
L 253.58782 54.050398 
L 255.858563 51.376565 
L 258.129306 48.854033 
L 260.400048 46.484132 
L 262.670791 44.283855 
L 264.941534 42.264036 
L 267.212276 40.448514 
L 269.483019 38.836636 
L 271.753762 37.443248 
L 274.024505 36.266252 
L 276.295247 35.30055 
L 278.56599 34.543146 
L 280.836733 33.987531 
L 283.107475 33.625926 
L 285.378218 33.429945 
L 287.648961 33.35619 
L 289.919703 33.351606 
" clip-path="url(#pb8cfebec21)" style="fill: none; stroke-dasharray: 4.44,1.92; stroke-dashoffset: 0; stroke: #ee6677; stroke-opacity: 0.5; stroke-width: 1.2"/>
   </g>
   <g id="line2d_20">
    <path d="M 65.116176 228.979398 
L 67.386919 228.91103 
L 69.657662 228.841171 
L 71.928404 228.778097 
L 74.199147 228.719815 
L 76.46989 228.664281 
L 78.740633 228.60854 
L 81.011375 228.550771 
L 83.282118 228.486994 
L 85.552861 228.412801 
L 87.823603 228.325919 
L 90.094346 228.218516 
L 92.365089 228.073444 
L 94.635831 227.900833 
L 96.906574 227.690376 
L 99.177317 227.436334 
L 101.44806 227.130727 
L 103.718802 226.766008 
L 105.989545 226.340629 
L 108.260288 225.86866 
L 110.53103 225.339884 
L 112.801773 224.745527 
L 115.072516 224.082081 
L 117.343258 223.34111 
L 119.614001 222.521561 
L 121.884744 221.627435 
L 124.155486 220.673184 
L 126.426229 219.648345 
L 128.696972 218.540478 
L 130.967715 217.367643 
L 133.238457 216.119967 
L 135.5092 214.786361 
L 137.779943 213.372404 
L 140.050685 211.89369 
L 142.321428 210.326066 
L 144.592171 208.647568 
L 146.862913 206.891573 
L 149.133656 205.052039 
L 151.404399 203.132405 
L 153.675142 201.151493 
L 155.945884 199.093481 
L 158.216627 196.944567 
L 160.48737 194.734029 
L 162.758112 192.46088 
L 165.028855 190.134237 
L 167.299598 187.732155 
L 169.57034 185.240457 
L 171.841083 182.700052 
L 174.111826 180.114029 
L 176.382569 177.467396 
L 178.653311 174.76201 
L 180.924054 172.022842 
L 183.194797 169.246657 
L 185.465539 166.419476 
L 187.736282 163.552017 
L 190.007025 160.652411 
L 192.277767 157.72416 
L 194.54851 154.762064 
L 196.819253 151.770018 
L 199.089996 148.758279 
L 201.360738 145.725647 
L 203.631481 142.685416 
L 205.902224 139.637021 
L 208.172966 136.571949 
L 210.443709 133.489137 
L 212.714452 130.401048 
L 214.985194 127.310737 
L 217.255937 124.220018 
L 219.52668 121.140262 
L 221.797423 118.083027 
L 224.068165 115.044347 
L 226.338908 112.029192 
L 228.609651 109.055765 
L 230.880393 106.101816 
L 233.151136 103.132436 
L 235.421879 100.159523 
L 237.692621 97.203148 
L 239.963364 94.263287 
L 242.234107 91.344489 
L 244.504849 88.436164 
L 246.775592 85.536248 
L 249.046335 82.650398 
L 251.317078 79.78666 
L 253.58782 76.942749 
L 255.858563 74.112634 
L 258.129306 71.279768 
L 260.400048 68.454016 
L 262.670791 65.645419 
L 264.941534 62.842794 
L 267.212276 60.036601 
L 269.483019 57.214709 
L 271.753762 54.385073 
L 274.024505 51.537604 
L 276.295247 48.663638 
L 278.56599 45.776796 
L 280.836733 42.866501 
L 283.107475 39.918208 
L 285.378218 36.925747 
L 287.648961 33.977 
L 289.919703 33.351455 
" clip-path="url(#pb8cfebec21)" style="fill: none; stroke: #ee6677; stroke-width: 1.2; stroke-linecap: round"/>
   </g>
   <g id="line2d_21"/>
   <g id="line2d_22">
    <path d="M 65.116176 228.997456 
L 67.386919 228.960977 
L 69.657662 228.923218 
L 71.928404 228.886911 
L 74.199147 228.852538 
L 76.46989 228.819916 
L 78.740633 228.788678 
L 81.011375 228.758504 
L 83.282118 228.728715 
L 85.552861 228.698419 
L 87.823603 228.666799 
L 90.094346 228.632201 
L 92.365089 228.592602 
L 94.635831 228.549105 
L 96.906574 228.499698 
L 99.177317 228.441558 
L 101.44806 228.372898 
L 103.718802 228.290784 
L 105.989545 228.194889 
L 108.260288 228.085865 
L 110.53103 227.959986 
L 112.801773 227.814485 
L 115.072516 227.648344 
L 117.343258 227.457093 
L 119.614001 227.241752 
L 121.884744 226.992623 
L 124.155486 226.719575 
L 126.426229 226.416584 
L 128.696972 226.080527 
L 130.967715 225.708866 
L 133.238457 225.299766 
L 135.5092 224.849426 
L 137.779943 224.359069 
L 140.050685 223.830338 
L 142.321428 223.257631 
L 144.592171 222.632748 
L 146.862913 221.959941 
L 149.133656 221.237022 
L 151.404399 220.455627 
L 153.675142 219.628695 
L 155.945884 218.74762 
L 158.216627 217.805073 
L 160.48737 216.809013 
L 162.758112 215.754444 
L 165.028855 214.648152 
L 167.299598 213.481411 
L 169.57034 212.243713 
L 171.841083 210.948427 
L 174.111826 209.599889 
L 176.382569 208.187383 
L 178.653311 206.699231 
L 180.924054 205.150003 
L 183.194797 203.549865 
L 185.465539 201.884003 
L 187.736282 200.149438 
L 190.007025 198.347387 
L 192.277767 196.482275 
L 194.54851 194.5499 
L 196.819253 192.549313 
L 199.089996 190.48666 
L 201.360738 188.355639 
L 203.631481 186.166689 
L 205.902224 183.91909 
L 208.172966 181.605684 
L 210.443709 179.212708 
L 212.714452 176.752847 
L 214.985194 174.229785 
L 217.255937 171.635731 
L 219.52668 168.981958 
L 221.797423 166.270402 
L 224.068165 163.49508 
L 226.338908 160.674016 
L 228.609651 157.800429 
L 230.880393 154.866347 
L 233.151136 151.843289 
L 235.421879 148.74029 
L 237.692621 145.570077 
L 239.963364 142.330168 
L 242.234107 139.025058 
L 244.504849 135.643673 
L 246.775592 132.184387 
L 249.046335 128.656657 
L 251.317078 125.060054 
L 253.58782 121.395957 
L 255.858563 117.649242 
L 258.129306 113.813621 
L 260.400048 109.888745 
L 262.670791 105.893752 
L 264.941534 101.821715 
L 267.212276 97.669542 
L 269.483019 93.404568 
L 271.753762 89.023513 
L 274.024505 84.532701 
L 276.295247 79.926753 
L 278.56599 75.219852 
L 280.836733 70.398901 
L 283.107475 65.459526 
L 285.378218 60.397191 
L 287.648961 54.630901 
L 289.919703 33.351571 
" clip-path="url(#pb8cfebec21)" style="fill: none; stroke: #aa3377; stroke-width: 1.2; stroke-linecap: round"/>
   </g>
   <g id="patch_3">
    <path d="M 53.876 238.804 
L 53.876 23.568 
" style="fill: none; stroke: #262626; stroke-linejoin: miter; stroke-linecap: square"/>
   </g>
   <g id="patch_4">
    <path d="M 301.15988 238.804 
L 301.15988 23.568 
" style="fill: none; stroke: #262626; stroke-linejoin: miter; stroke-linecap: square"/>
   </g>
   <g id="patch_5">
    <path d="M 53.876 238.804 
L 301.15988 238.804 
" style="fill: none; stroke: #262626; stroke-linejoin: miter; stroke-linecap: square"/>
   </g>
   <g id="patch_6">
    <path d="M 53.876 23.568 
L 301.15988 23.568 
" style="fill: none; stroke: #262626; stroke-linejoin: miter; stroke-linecap: square"/>
   </g>
   <g id="text_13">
    <!-- Accuracy -->
    <g style="fill: #262626" transform="translate(155.60294 17.568) scale(0.096 -0.096)">
     <defs>
      <path id="DejaVuSans-41" d="M 2188 4044 
L 1331 1722 
L 3047 1722 
L 2188 4044 
z
M 1831 4666 
L 2547 4666 
L 4325 0 
L 3669 0 
L 3244 1197 
L 1141 1197 
L 716 0 
L 50 0 
L 1831 4666 
z
" transform="scale(0.015625)"/>
      <path id="DejaVuSans-63" d="M 3122 3366 
L 3122 2828 
Q 2878 2963 2633 3030 
Q 2388 3097 2138 3097 
Q 1578 3097 1268 2742 
Q 959 2388 959 1747 
Q 959 1106 1268 751 
Q 1578 397 2138 397 
Q 2388 397 2633 464 
Q 2878 531 3122 666 
L 3122 134 
Q 2881 22 2623 -34 
Q 2366 -91 2075 -91 
Q 1284 -91 818 406 
Q 353 903 353 1747 
Q 353 2603 823 3093 
Q 1294 3584 2113 3584 
Q 2378 3584 2631 3529 
Q 2884 3475 3122 3366 
z
" transform="scale(0.015625)"/>
      <path id="DejaVuSans-75" d="M 544 1381 
L 544 3500 
L 1119 3500 
L 1119 1403 
Q 1119 906 1312 657 
Q 1506 409 1894 409 
Q 2359 409 2629 706 
Q 2900 1003 2900 1516 
L 2900 3500 
L 3475 3500 
L 3475 0 
L 2900 0 
L 2900 538 
Q 2691 219 2414 64 
Q 2138 -91 1772 -91 
Q 1169 -91 856 284 
Q 544 659 544 1381 
z
M 1991 3584 
L 1991 3584 
z
" transform="scale(0.015625)"/>
      <path id="DejaVuSans-72" d="M 2631 2963 
Q 2534 3019 2420 3045 
Q 2306 3072 2169 3072 
Q 1681 3072 1420 2755 
Q 1159 2438 1159 1844 
L 1159 0 
L 581 0 
L 581 3500 
L 1159 3500 
L 1159 2956 
Q 1341 3275 1631 3429 
Q 1922 3584 2338 3584 
Q 2397 3584 2469 3576 
Q 2541 3569 2628 3553 
L 2631 2963 
z
" transform="scale(0.015625)"/>
      <path id="DejaVuSans-61" d="M 2194 1759 
Q 1497 1759 1228 1600 
Q 959 1441 959 1056 
Q 959 750 1161 570 
Q 1363 391 1709 391 
Q 2188 391 2477 730 
Q 2766 1069 2766 1631 
L 2766 1759 
L 2194 1759 
z
M 3341 1997 
L 3341 0 
L 2766 0 
L 2766 531 
Q 2569 213 2275 61 
Q 1981 -91 1556 -91 
Q 1019 -91 701 211 
Q 384 513 384 1019 
Q 384 1609 779 1909 
Q 1175 2209 1959 2209 
L 2766 2209 
L 2766 2266 
Q 2766 2663 2505 2880 
Q 2244 3097 1772 3097 
Q 1472 3097 1187 3025 
Q 903 2953 641 2809 
L 641 3341 
Q 956 3463 1253 3523 
Q 1550 3584 1831 3584 
Q 2591 3584 2966 3190 
Q 3341 2797 3341 1997 
z
" transform="scale(0.015625)"/>
      <path id="DejaVuSans-79" d="M 2059 -325 
Q 1816 -950 1584 -1140 
Q 1353 -1331 966 -1331 
L 506 -1331 
L 506 -850 
L 844 -850 
Q 1081 -850 1212 -737 
Q 1344 -625 1503 -206 
L 1606 56 
L 191 3500 
L 800 3500 
L 1894 763 
L 2988 3500 
L 3597 3500 
L 2059 -325 
z
" transform="scale(0.015625)"/>
     </defs>
     <use xlink:href="#DejaVuSans-41"/>
     <use xlink:href="#DejaVuSans-63" x="66.658203"/>
     <use xlink:href="#DejaVuSans-63" x="121.638672"/>
     <use xlink:href="#DejaVuSans-75" x="176.619141"/>
     <use xlink:href="#DejaVuSans-72" x="239.998047"/>
     <use xlink:href="#DejaVuSans-61" x="281.111328"/>
     <use xlink:href="#DejaVuSans-63" x="342.390625"/>
     <use xlink:href="#DejaVuSans-79" x="397.371094"/>
    </g>
   </g>
   <g id="legend_1">
    <g id="patch_7">
     <path d="M 60.036 108.88275 
L 143.823 108.88275 
Q 145.583 108.88275 145.583 107.12275 
L 145.583 29.728 
Q 145.583 27.968 143.823 27.968 
L 60.036 27.968 
Q 58.276 27.968 58.276 29.728 
L 58.276 107.12275 
Q 58.276 108.88275 60.036 108.88275 
z
" style="fill: #ffffff; opacity: 0.8; stroke: #cccccc; stroke-width: 0.8; stroke-linejoin: miter"/>
    </g>
    <g id="text_14">
     <!-- Operation -->
     <g style="fill: #262626" transform="translate(78.04125 38.7825) scale(0.096 -0.096)">
      <defs>
       <path id="DejaVuSans-4f" d="M 2522 4238 
Q 1834 4238 1429 3725 
Q 1025 3213 1025 2328 
Q 1025 1447 1429 934 
Q 1834 422 2522 422 
Q 3209 422 3611 934 
Q 4013 1447 4013 2328 
Q 4013 3213 3611 3725 
Q 3209 4238 2522 4238 
z
M 2522 4750 
Q 3503 4750 4090 4092 
Q 4678 3434 4678 2328 
Q 4678 1225 4090 567 
Q 3503 -91 2522 -91 
Q 1538 -91 948 565 
Q 359 1222 359 2328 
Q 359 3434 948 4092 
Q 1538 4750 2522 4750 
z
" transform="scale(0.015625)"/>
       <path id="DejaVuSans-70" d="M 1159 525 
L 1159 -1331 
L 581 -1331 
L 581 3500 
L 1159 3500 
L 1159 2969 
Q 1341 3281 1617 3432 
Q 1894 3584 2278 3584 
Q 2916 3584 3314 3078 
Q 3713 2572 3713 1747 
Q 3713 922 3314 415 
Q 2916 -91 2278 -91 
Q 1894 -91 1617 61 
Q 1341 213 1159 525 
z
M 3116 1747 
Q 3116 2381 2855 2742 
Q 2594 3103 2138 3103 
Q 1681 3103 1420 2742 
Q 1159 2381 1159 1747 
Q 1159 1113 1420 752 
Q 1681 391 2138 391 
Q 2594 391 2855 752 
Q 3116 1113 3116 1747 
z
" transform="scale(0.015625)"/>
       <path id="DejaVuSans-65" d="M 3597 1894 
L 3597 1613 
L 953 1613 
Q 991 1019 1311 708 
Q 1631 397 2203 397 
Q 2534 397 2845 478 
Q 3156 559 3463 722 
L 3463 178 
Q 3153 47 2828 -22 
Q 2503 -91 2169 -91 
Q 1331 -91 842 396 
Q 353 884 353 1716 
Q 353 2575 817 3079 
Q 1281 3584 2069 3584 
Q 2775 3584 3186 3129 
Q 3597 2675 3597 1894 
z
M 3022 2063 
Q 3016 2534 2758 2815 
Q 2500 3097 2075 3097 
Q 1594 3097 1305 2825 
Q 1016 2553 972 2059 
L 3022 2063 
z
" transform="scale(0.015625)"/>
       <path id="DejaVuSans-74" d="M 1172 4494 
L 1172 3500 
L 2356 3500 
L 2356 3053 
L 1172 3053 
L 1172 1153 
Q 1172 725 1289 603 
Q 1406 481 1766 481 
L 2356 481 
L 2356 0 
L 1766 0 
Q 1100 0 847 248 
Q 594 497 594 1153 
L 594 3053 
L 172 3053 
L 172 3500 
L 594 3500 
L 594 4494 
L 1172 4494 
z
" transform="scale(0.015625)"/>
       <path id="DejaVuSans-69" d="M 603 3500 
L 1178 3500 
L 1178 0 
L 603 0 
L 603 3500 
z
M 603 4863 
L 1178 4863 
L 1178 4134 
L 603 4134 
L 603 4863 
z
" transform="scale(0.015625)"/>
       <path id="DejaVuSans-6f" d="M 1959 3097 
Q 1497 3097 1228 2736 
Q 959 2375 959 1747 
Q 959 1119 1226 758 
Q 1494 397 1959 397 
Q 2419 397 2687 759 
Q 2956 1122 2956 1747 
Q 2956 2369 2687 2733 
Q 2419 3097 1959 3097 
z
M 1959 3584 
Q 2709 3584 3137 3096 
Q 3566 2609 3566 1747 
Q 3566 888 3137 398 
Q 2709 -91 1959 -91 
Q 1206 -91 779 398 
Q 353 888 353 1747 
Q 353 2609 779 3096 
Q 1206 3584 1959 3584 
z
" transform="scale(0.015625)"/>
       <path id="DejaVuSans-6e" d="M 3513 2113 
L 3513 0 
L 2938 0 
L 2938 2094 
Q 2938 2591 2744 2837 
Q 2550 3084 2163 3084 
Q 1697 3084 1428 2787 
Q 1159 2491 1159 1978 
L 1159 0 
L 581 0 
L 581 3500 
L 1159 3500 
L 1159 2956 
Q 1366 3272 1645 3428 
Q 1925 3584 2291 3584 
Q 2894 3584 3203 3211 
Q 3513 2838 3513 2113 
z
" transform="scale(0.015625)"/>
      </defs>
      <use xlink:href="#DejaVuSans-4f"/>
      <use xlink:href="#DejaVuSans-70" x="78.710938"/>
      <use xlink:href="#DejaVuSans-65" x="142.1875"/>
      <use xlink:href="#DejaVuSans-72" x="203.710938"/>
      <use xlink:href="#DejaVuSans-61" x="244.824219"/>
      <use xlink:href="#DejaVuSans-74" x="306.103516"/>
      <use xlink:href="#DejaVuSans-69" x="345.3125"/>
      <use xlink:href="#DejaVuSans-6f" x="373.095703"/>
      <use xlink:href="#DejaVuSans-6e" x="434.277344"/>
     </g>
    </g>
    <g id="line2d_23">
     <path d="M 61.796 48.785625 
L 70.596 48.785625 
L 79.396 48.785625 
" style="fill: none; stroke: #66ccee; stroke-width: 1.2; stroke-linecap: round"/>
    </g>
    <g id="text_15">
     <!-- encoding -->
     <g style="fill: #262626" transform="translate(86.436 51.865625) scale(0.088 -0.088)">
      <defs>
       <path id="DejaVuSans-64" d="M 2906 2969 
L 2906 4863 
L 3481 4863 
L 3481 0 
L 2906 0 
L 2906 525 
Q 2725 213 2448 61 
Q 2172 -91 1784 -91 
Q 1150 -91 751 415 
Q 353 922 353 1747 
Q 353 2572 751 3078 
Q 1150 3584 1784 3584 
Q 2172 3584 2448 3432 
Q 2725 3281 2906 2969 
z
M 947 1747 
Q 947 1113 1208 752 
Q 1469 391 1925 391 
Q 2381 391 2643 752 
Q 2906 1113 2906 1747 
Q 2906 2381 2643 2742 
Q 2381 3103 1925 3103 
Q 1469 3103 1208 2742 
Q 947 2381 947 1747 
z
" transform="scale(0.015625)"/>
       <path id="DejaVuSans-67" d="M 2906 1791 
Q 2906 2416 2648 2759 
Q 2391 3103 1925 3103 
Q 1463 3103 1205 2759 
Q 947 2416 947 1791 
Q 947 1169 1205 825 
Q 1463 481 1925 481 
Q 2391 481 2648 825 
Q 2906 1169 2906 1791 
z
M 3481 434 
Q 3481 -459 3084 -895 
Q 2688 -1331 1869 -1331 
Q 1566 -1331 1297 -1286 
Q 1028 -1241 775 -1147 
L 775 -588 
Q 1028 -725 1275 -790 
Q 1522 -856 1778 -856 
Q 2344 -856 2625 -561 
Q 2906 -266 2906 331 
L 2906 616 
Q 2728 306 2450 153 
Q 2172 0 1784 0 
Q 1141 0 747 490 
Q 353 981 353 1791 
Q 353 2603 747 3093 
Q 1141 3584 1784 3584 
Q 2172 3584 2450 3431 
Q 2728 3278 2906 2969 
L 2906 3500 
L 3481 3500 
L 3481 434 
z
" transform="scale(0.015625)"/>
      </defs>
      <use xlink:href="#DejaVuSans-65"/>
      <use xlink:href="#DejaVuSans-6e" x="61.523438"/>
      <use xlink:href="#DejaVuSans-63" x="124.902344"/>
      <use xlink:href="#DejaVuSans-6f" x="179.882812"/>
      <use xlink:href="#DejaVuSans-64" x="241.064453"/>
      <use xlink:href="#DejaVuSans-69" x="304.541016"/>
      <use xlink:href="#DejaVuSans-6e" x="332.324219"/>
      <use xlink:href="#DejaVuSans-67" x="395.703125"/>
     </g>
    </g>
    <g id="line2d_24">
     <path d="M 61.796 61.702375 
L 70.596 61.702375 
L 79.396 61.702375 
" style="fill: none; stroke: #228833; stroke-width: 1.2; stroke-linecap: round"/>
    </g>
    <g id="text_16">
     <!-- n200 -->
     <g style="fill: #262626" transform="translate(86.436 64.782375) scale(0.088 -0.088)">
      <use xlink:href="#DejaVuSans-6e"/>
      <use xlink:href="#DejaVuSans-32" x="63.378906"/>
      <use xlink:href="#DejaVuSans-30" x="127.001953"/>
      <use xlink:href="#DejaVuSans-30" x="190.625"/>
     </g>
    </g>
    <g id="line2d_25">
     <path d="M 61.796 74.619125 
L 70.596 74.619125 
L 79.396 74.619125 
" style="fill: none; stroke: #ccbb44; stroke-width: 1.2; stroke-linecap: round"/>
    </g>
    <g id="text_17">
     <!-- decision -->
     <g style="fill: #262626" transform="translate(86.436 77.699125) scale(0.088 -0.088)">
      <defs>
       <path id="DejaVuSans-73" d="M 2834 3397 
L 2834 2853 
Q 2591 2978 2328 3040 
Q 2066 3103 1784 3103 
Q 1356 3103 1142 2972 
Q 928 2841 928 2578 
Q 928 2378 1081 2264 
Q 1234 2150 1697 2047 
L 1894 2003 
Q 2506 1872 2764 1633 
Q 3022 1394 3022 966 
Q 3022 478 2636 193 
Q 2250 -91 1575 -91 
Q 1294 -91 989 -36 
Q 684 19 347 128 
L 347 722 
Q 666 556 975 473 
Q 1284 391 1588 391 
Q 1994 391 2212 530 
Q 2431 669 2431 922 
Q 2431 1156 2273 1281 
Q 2116 1406 1581 1522 
L 1381 1569 
Q 847 1681 609 1914 
Q 372 2147 372 2553 
Q 372 3047 722 3315 
Q 1072 3584 1716 3584 
Q 2034 3584 2315 3537 
Q 2597 3491 2834 3397 
z
" transform="scale(0.015625)"/>
      </defs>
      <use xlink:href="#DejaVuSans-64"/>
      <use xlink:href="#DejaVuSans-65" x="63.476562"/>
      <use xlink:href="#DejaVuSans-63" x="125"/>
      <use xlink:href="#DejaVuSans-69" x="179.980469"/>
      <use xlink:href="#DejaVuSans-73" x="207.763672"/>
      <use xlink:href="#DejaVuSans-69" x="259.863281"/>
      <use xlink:href="#DejaVuSans-6f" x="287.646484"/>
      <use xlink:href="#DejaVuSans-6e" x="348.828125"/>
     </g>
    </g>
    <g id="line2d_26">
     <path d="M 61.796 87.535875 
L 70.596 87.535875 
L 79.396 87.535875 
" style="fill: none; stroke: #ee6677; stroke-width: 1.2; stroke-linecap: round"/>
    </g>
    <g id="text_18">
     <!-- confirmation -->
     <g style="fill: #262626" transform="translate(86.436 90.615875) scale(0.088 -0.088)">
      <defs>
       <path id="DejaVuSans-66" d="M 2375 4863 
L 2375 4384 
L 1825 4384 
Q 1516 4384 1395 4259 
Q 1275 4134 1275 3809 
L 1275 3500 
L 2222 3500 
L 2222 3053 
L 1275 3053 
L 1275 0 
L 697 0 
L 697 3053 
L 147 3053 
L 147 3500 
L 697 3500 
L 697 3744 
Q 697 4328 969 4595 
Q 1241 4863 1831 4863 
L 2375 4863 
z
" transform="scale(0.015625)"/>
       <path id="DejaVuSans-6d" d="M 3328 2828 
Q 3544 3216 3844 3400 
Q 4144 3584 4550 3584 
Q 5097 3584 5394 3201 
Q 5691 2819 5691 2113 
L 5691 0 
L 5113 0 
L 5113 2094 
Q 5113 2597 4934 2840 
Q 4756 3084 4391 3084 
Q 3944 3084 3684 2787 
Q 3425 2491 3425 1978 
L 3425 0 
L 2847 0 
L 2847 2094 
Q 2847 2600 2669 2842 
Q 2491 3084 2119 3084 
Q 1678 3084 1418 2786 
Q 1159 2488 1159 1978 
L 1159 0 
L 581 0 
L 581 3500 
L 1159 3500 
L 1159 2956 
Q 1356 3278 1631 3431 
Q 1906 3584 2284 3584 
Q 2666 3584 2933 3390 
Q 3200 3197 3328 2828 
z
" transform="scale(0.015625)"/>
      </defs>
      <use xlink:href="#DejaVuSans-63"/>
      <use xlink:href="#DejaVuSans-6f" x="54.980469"/>
      <use xlink:href="#DejaVuSans-6e" x="116.162109"/>
      <use xlink:href="#DejaVuSans-66" x="179.541016"/>
      <use xlink:href="#DejaVuSans-69" x="214.746094"/>
      <use xlink:href="#DejaVuSans-72" x="242.529297"/>
      <use xlink:href="#DejaVuSans-6d" x="281.892578"/>
      <use xlink:href="#DejaVuSans-61" x="379.304688"/>
      <use xlink:href="#DejaVuSans-74" x="440.583984"/>
      <use xlink:href="#DejaVuSans-69" x="479.792969"/>
      <use xlink:href="#DejaVuSans-6f" x="507.576172"/>
      <use xlink:href="#DejaVuSans-6e" x="568.757812"/>
     </g>
    </g>
    <g id="line2d_27">
     <path d="M 61.796 100.452625 
L 70.596 100.452625 
L 79.396 100.452625 
" style="fill: none; stroke: #aa3377; stroke-width: 1.2; stroke-linecap: round"/>
    </g>
    <g id="text_19">
     <!-- response -->
     <g style="fill: #262626" transform="translate(86.436 103.532625) scale(0.088 -0.088)">
      <use xlink:href="#DejaVuSans-72"/>
      <use xlink:href="#DejaVuSans-65" x="38.863281"/>
      <use xlink:href="#DejaVuSans-73" x="100.386719"/>
      <use xlink:href="#DejaVuSans-70" x="152.486328"/>
      <use xlink:href="#DejaVuSans-6f" x="215.962891"/>
      <use xlink:href="#DejaVuSans-6e" x="277.144531"/>
      <use xlink:href="#DejaVuSans-73" x="340.523438"/>
      <use xlink:href="#DejaVuSans-65" x="392.623047"/>
     </g>
    </g>
   </g>
   <g id="legend_2">
    <g id="patch_8">
     <path d="M 247.32313 234.404 
L 294.99988 234.404 
Q 296.75988 234.404 296.75988 232.644 
L 296.75988 193.9995 
Q 296.75988 192.2395 294.99988 192.2395 
L 247.32313 192.2395 
Q 245.56313 192.2395 245.56313 193.9995 
L 245.56313 232.644 
Q 245.56313 234.404 247.32313 234.404 
z
" style="fill: #ffffff; opacity: 0.8; stroke: #cccccc; stroke-width: 0.8; stroke-linejoin: miter"/>
    </g>
    <g id="text_20">
     <!-- Source -->
     <g style="fill: #262626" transform="translate(254.677255 203.054) scale(0.096 -0.096)">
      <defs>
       <path id="DejaVuSans-53" d="M 3425 4513 
L 3425 3897 
Q 3066 4069 2747 4153 
Q 2428 4238 2131 4238 
Q 1616 4238 1336 4038 
Q 1056 3838 1056 3469 
Q 1056 3159 1242 3001 
Q 1428 2844 1947 2747 
L 2328 2669 
Q 3034 2534 3370 2195 
Q 3706 1856 3706 1288 
Q 3706 609 3251 259 
Q 2797 -91 1919 -91 
Q 1588 -91 1214 -16 
Q 841 59 441 206 
L 441 856 
Q 825 641 1194 531 
Q 1563 422 1919 422 
Q 2459 422 2753 634 
Q 3047 847 3047 1241 
Q 3047 1584 2836 1778 
Q 2625 1972 2144 2069 
L 1759 2144 
Q 1053 2284 737 2584 
Q 422 2884 422 3419 
Q 422 4038 858 4394 
Q 1294 4750 2059 4750 
Q 2388 4750 2728 4690 
Q 3069 4631 3425 4513 
z
" transform="scale(0.015625)"/>
      </defs>
      <use xlink:href="#DejaVuSans-53"/>
      <use xlink:href="#DejaVuSans-6f" x="63.476562"/>
      <use xlink:href="#DejaVuSans-75" x="124.658203"/>
      <use xlink:href="#DejaVuSans-72" x="188.037109"/>
      <use xlink:href="#DejaVuSans-63" x="226.900391"/>
      <use xlink:href="#DejaVuSans-65" x="281.880859"/>
     </g>
    </g>
    <g id="line2d_28">
     <path d="M 249.08313 213.057125 
L 257.88313 213.057125 
L 266.68313 213.057125 
" style="fill: none; stroke-dasharray: 4.44,1.92; stroke-dashoffset: 0; stroke: #000000; stroke-width: 1.2"/>
    </g>
    <g id="text_21">
     <!-- HMP -->
     <g style="fill: #262626" transform="translate(273.72313 216.137125) scale(0.088 -0.088)">
      <defs>
       <path id="DejaVuSans-48" d="M 628 4666 
L 1259 4666 
L 1259 2753 
L 3553 2753 
L 3553 4666 
L 4184 4666 
L 4184 0 
L 3553 0 
L 3553 2222 
L 1259 2222 
L 1259 0 
L 628 0 
L 628 4666 
z
" transform="scale(0.015625)"/>
       <path id="DejaVuSans-4d" d="M 628 4666 
L 1569 4666 
L 2759 1491 
L 3956 4666 
L 4897 4666 
L 4897 0 
L 4281 0 
L 4281 4097 
L 3078 897 
L 2444 897 
L 1241 4097 
L 1241 0 
L 628 0 
L 628 4666 
z
" transform="scale(0.015625)"/>
       <path id="DejaVuSans-50" d="M 1259 4147 
L 1259 2394 
L 2053 2394 
Q 2494 2394 2734 2622 
Q 2975 2850 2975 3272 
Q 2975 3691 2734 3919 
Q 2494 4147 2053 4147 
L 1259 4147 
z
M 628 4666 
L 2053 4666 
Q 2838 4666 3239 4311 
Q 3641 3956 3641 3272 
Q 3641 2581 3239 2228 
Q 2838 1875 2053 1875 
L 1259 1875 
L 1259 0 
L 628 0 
L 628 4666 
z
" transform="scale(0.015625)"/>
      </defs>
      <use xlink:href="#DejaVuSans-48"/>
      <use xlink:href="#DejaVuSans-4d" x="75.195312"/>
      <use xlink:href="#DejaVuSans-50" x="161.474609"/>
     </g>
    </g>
    <g id="line2d_29">
     <path d="M 249.08313 225.973875 
L 257.88313 225.973875 
L 266.68313 225.973875 
" style="fill: none; stroke: #000000; stroke-width: 1.2; stroke-linecap: round"/>
    </g>
    <g id="text_22">
     <!-- S4 -->
     <g style="fill: #262626" transform="translate(273.72313 229.053875) scale(0.088 -0.088)">
      <use xlink:href="#DejaVuSans-53"/>
      <use xlink:href="#DejaVuSans-34" x="63.476562"/>
     </g>
    </g>
   </g>
  </g>
  <g id="axes_2">
   <g id="patch_9">
    <path d="M 317.338 238.804 
L 564.62188 238.804 
L 564.62188 23.568 
L 317.338 23.568 
L 317.338 238.804 
z
" style="fill: none"/>
   </g>
   <g id="matplotlib.axis_3">
    <g id="xtick_7">
     <g id="line2d_30">
      <g>
       <use xlink:href="#ma9c6d7e0fe" x="328.578176" y="238.804" style="fill: #262626; stroke: #262626"/>
      </g>
     </g>
     <g id="text_23">
      <!-- 0 -->
      <g style="fill: #262626" transform="translate(325.778676 253.790625) scale(0.088 -0.088)">
       <use xlink:href="#DejaVuSans-30"/>
      </g>
     </g>
    </g>
    <g id="xtick_8">
     <g id="line2d_31">
      <g>
       <use xlink:href="#ma9c6d7e0fe" x="373.99303" y="238.804" style="fill: #262626; stroke: #262626"/>
      </g>
     </g>
     <g id="text_24">
      <!-- 20 -->
      <g style="fill: #262626" transform="translate(368.39403 253.790625) scale(0.088 -0.088)">
       <use xlink:href="#DejaVuSans-32"/>
       <use xlink:href="#DejaVuSans-30" x="63.623047"/>
      </g>
     </g>
    </g>
    <g id="xtick_9">
     <g id="line2d_32">
      <g>
       <use xlink:href="#ma9c6d7e0fe" x="419.407884" y="238.804" style="fill: #262626; stroke: #262626"/>
      </g>
     </g>
     <g id="text_25">
      <!-- 40 -->
      <g style="fill: #262626" transform="translate(413.808884 253.790625) scale(0.088 -0.088)">
       <use xlink:href="#DejaVuSans-34"/>
       <use xlink:href="#DejaVuSans-30" x="63.623047"/>
      </g>
     </g>
    </g>
    <g id="xtick_10">
     <g id="line2d_33">
      <g>
       <use xlink:href="#ma9c6d7e0fe" x="464.822738" y="238.804" style="fill: #262626; stroke: #262626"/>
      </g>
     </g>
     <g id="text_26">
      <!-- 60 -->
      <g style="fill: #262626" transform="translate(459.223738 253.790625) scale(0.088 -0.088)">
       <use xlink:href="#DejaVuSans-36"/>
       <use xlink:href="#DejaVuSans-30" x="63.623047"/>
      </g>
     </g>
    </g>
    <g id="xtick_11">
     <g id="line2d_34">
      <g>
       <use xlink:href="#ma9c6d7e0fe" x="510.237592" y="238.804" style="fill: #262626; stroke: #262626"/>
      </g>
     </g>
     <g id="text_27">
      <!-- 80 -->
      <g style="fill: #262626" transform="translate(504.638592 253.790625) scale(0.088 -0.088)">
       <use xlink:href="#DejaVuSans-38"/>
       <use xlink:href="#DejaVuSans-30" x="63.623047"/>
      </g>
     </g>
    </g>
    <g id="xtick_12">
     <g id="line2d_35">
      <g>
       <use xlink:href="#ma9c6d7e0fe" x="555.652446" y="238.804" style="fill: #262626; stroke: #262626"/>
      </g>
     </g>
     <g id="text_28">
      <!-- 100 -->
      <g style="fill: #262626" transform="translate(547.253946 253.790625) scale(0.088 -0.088)">
       <use xlink:href="#DejaVuSans-31"/>
       <use xlink:href="#DejaVuSans-30" x="63.623047"/>
       <use xlink:href="#DejaVuSans-30" x="127.246094"/>
      </g>
     </g>
    </g>
   </g>
   <g id="matplotlib.axis_4">
    <g id="ytick_7">
     <g id="line2d_36">
      <g>
       <use xlink:href="#md67b9953b9" x="317.338" y="229.020545" style="fill: #262626; stroke: #262626"/>
      </g>
     </g>
    </g>
    <g id="ytick_8">
     <g id="line2d_37">
      <g>
       <use xlink:href="#md67b9953b9" x="317.338" y="189.886741" style="fill: #262626; stroke: #262626"/>
      </g>
     </g>
    </g>
    <g id="ytick_9">
     <g id="line2d_38">
      <g>
       <use xlink:href="#md67b9953b9" x="317.338" y="150.752937" style="fill: #262626; stroke: #262626"/>
      </g>
     </g>
    </g>
    <g id="ytick_10">
     <g id="line2d_39">
      <g>
       <use xlink:href="#md67b9953b9" x="317.338" y="111.619133" style="fill: #262626; stroke: #262626"/>
      </g>
     </g>
    </g>
    <g id="ytick_11">
     <g id="line2d_40">
      <g>
       <use xlink:href="#md67b9953b9" x="317.338" y="72.485329" style="fill: #262626; stroke: #262626"/>
      </g>
     </g>
    </g>
    <g id="ytick_12">
     <g id="line2d_41">
      <g>
       <use xlink:href="#md67b9953b9" x="317.338" y="33.351525" style="fill: #262626; stroke: #262626"/>
      </g>
     </g>
    </g>
   </g>
   <g id="PolyCollection_11"/>
   <g id="PolyCollection_12"/>
   <g id="PolyCollection_13"/>
   <g id="PolyCollection_14"/>
   <g id="PolyCollection_15"/>
   <g id="PolyCollection_16"/>
   <g id="PolyCollection_17"/>
   <g id="PolyCollection_18"/>
   <g id="PolyCollection_19"/>
   <g id="PolyCollection_20"/>
   <g id="line2d_42">
    <path d="M 328.578176 228.344699 
L 330.848919 222.661269 
L 333.119662 213.30534 
L 335.390404 202.01923 
L 337.661147 190.014034 
L 339.93189 177.772471 
L 342.202633 165.743186 
L 344.473375 154.222847 
L 346.744118 143.200812 
L 349.014861 132.686417 
L 351.285603 122.742589 
L 353.556346 113.437671 
L 355.827089 104.798663 
L 358.097831 96.828621 
L 360.368574 89.514913 
L 362.639317 82.864421 
L 364.91006 76.870393 
L 367.180802 71.479295 
L 369.451545 66.636674 
L 371.722288 62.30563 
L 373.99303 58.452853 
L 376.263773 55.055741 
L 378.534516 52.085055 
L 380.805258 49.509995 
L 383.076001 47.283815 
L 385.346744 45.366675 
L 387.617486 43.717557 
L 389.888229 42.298103 
L 392.158972 41.074876 
L 394.429715 40.017983 
L 396.700457 39.10649 
L 398.9712 38.319403 
L 401.241943 37.63748 
L 403.512685 37.045268 
L 405.783428 36.529644 
L 408.054171 36.080382 
L 410.324913 35.68835 
L 412.595656 35.347913 
L 414.866399 35.052273 
L 417.137142 34.79673 
L 419.407884 34.575743 
L 421.678627 34.384707 
L 423.94937 34.21948 
L 426.220112 34.077614 
L 428.490855 33.956333 
L 430.761598 33.853712 
L 433.03234 33.767384 
L 435.303083 33.695133 
L 437.573826 33.634744 
L 439.844569 33.584372 
L 442.115311 33.542549 
L 444.386054 33.507876 
L 446.656797 33.479209 
L 448.927539 33.455498 
L 451.198282 33.435893 
L 453.469025 33.419705 
L 455.739767 33.406328 
L 458.01051 33.395435 
L 460.281253 33.386711 
L 462.551996 33.379737 
L 464.822738 33.374185 
L 467.093481 33.369707 
L 469.364224 33.36608 
L 471.634966 33.363129 
L 473.905709 33.360738 
L 476.176452 33.358814 
L 478.447194 33.357251 
L 480.717937 33.356015 
L 482.98868 33.355023 
L 485.259423 33.35423 
L 487.530165 33.3536 
L 489.800908 33.353099 
L 492.071651 33.352726 
L 494.342393 33.352434 
L 496.613136 33.352213 
L 498.883879 33.352038 
L 501.154621 33.351909 
L 503.425364 33.351828 
L 505.696107 33.351758 
L 507.966849 33.351711 
L 510.237592 33.351688 
L 512.508335 33.351664 
L 514.779078 33.351653 
L 517.04982 33.351641 
L 519.320563 33.351629 
L 521.591306 33.351629 
L 523.862048 33.351629 
L 526.132791 33.351629 
L 528.403534 33.351629 
L 530.674276 33.351629 
L 532.945019 33.351629 
L 535.215762 33.351629 
L 537.486505 33.351629 
L 539.757247 33.351629 
L 542.02799 33.351629 
L 544.298733 33.351629 
L 546.569475 33.351629 
L 548.840218 33.351629 
L 551.110961 33.351629 
L 553.381703 33.351629 
" clip-path="url(#pf6ed383e80)" style="fill: none; stroke-dasharray: 4.44,1.92; stroke-dashoffset: 0; stroke: #66ccee; stroke-opacity: 0.5; stroke-width: 1.2"/>
   </g>
   <g id="line2d_43">
    <path d="M 328.578176 228.158458 
L 330.848919 221.784227 
L 333.119662 211.566111 
L 335.390404 199.716696 
L 337.661147 187.480166 
L 339.93189 175.18008 
L 342.202633 163.253701 
L 344.473375 152.017228 
L 346.744118 141.442327 
L 349.014861 131.491664 
L 351.285603 122.149023 
L 353.556346 113.459912 
L 355.827089 105.411857 
L 358.097831 98.005174 
L 360.368574 91.235768 
L 362.639317 85.082613 
L 364.91006 79.512479 
L 367.180802 74.492421 
L 369.451545 69.958351 
L 371.722288 65.876028 
L 373.99303 62.213144 
L 376.263773 58.955694 
L 378.534516 56.084923 
L 380.805258 53.572177 
L 383.076001 51.371048 
L 385.346744 49.443389 
L 387.617486 47.756285 
L 389.888229 46.276535 
L 392.158972 44.971785 
L 394.429715 43.816784 
L 396.700457 42.795498 
L 398.9712 41.891982 
L 401.241943 41.087541 
L 403.512685 40.368146 
L 405.783428 39.721235 
L 408.054171 39.138784 
L 410.324913 38.613387 
L 412.595656 38.142631 
L 414.866399 37.720111 
L 417.137142 37.338622 
L 419.407884 36.993485 
L 421.678627 36.681529 
L 423.94937 36.399289 
L 426.220112 36.143781 
L 428.490855 35.912532 
L 430.761598 35.703849 
L 433.03234 35.515309 
L 435.303083 35.344717 
L 437.573826 35.19043 
L 439.844569 35.050267 
L 442.115311 34.922595 
L 444.386054 34.80592 
L 446.656797 34.699381 
L 448.927539 34.60237 
L 451.198282 34.514432 
L 453.469025 34.434507 
L 455.739767 34.361521 
L 458.01051 34.295184 
L 460.281253 34.234654 
L 462.551996 34.179151 
L 464.822738 34.127974 
L 467.093481 34.080693 
L 469.364224 34.036748 
L 471.634966 33.995742 
L 473.905709 33.957301 
L 476.176452 33.921193 
L 478.447194 33.887301 
L 480.717937 33.855485 
L 482.98868 33.825663 
L 485.259423 33.797521 
L 487.530165 33.770872 
L 489.800908 33.745563 
L 492.071651 33.721585 
L 494.342393 33.698877 
L 496.613136 33.677278 
L 498.883879 33.656798 
L 501.154621 33.637286 
L 503.425364 33.618649 
L 505.696107 33.600851 
L 507.966849 33.583847 
L 510.237592 33.567554 
L 512.508335 33.551891 
L 514.779078 33.536974 
L 517.04982 33.522769 
L 519.320563 33.509229 
L 521.591306 33.496435 
L 523.862048 33.484282 
L 526.132791 33.472747 
L 528.403534 33.461761 
L 530.674276 33.451311 
L 532.945019 33.441293 
L 535.215762 33.431578 
L 537.486505 33.422178 
L 539.757247 33.412987 
L 542.02799 33.404135 
L 544.298733 33.395668 
L 546.569475 33.387702 
L 548.840218 33.380413 
L 551.110961 33.372133 
L 553.381703 33.351478 
" clip-path="url(#pf6ed383e80)" style="fill: none; stroke: #66ccee; stroke-width: 1.2; stroke-linecap: round"/>
   </g>
   <g id="line2d_44">
    <path d="M 328.578176 229.020468 
L 330.848919 229.006681 
L 333.119662 228.933327 
L 335.390404 228.737195 
L 337.661147 228.384917 
L 339.93189 227.774505 
L 342.202633 226.90937 
L 344.473375 225.709737 
L 346.744118 224.171708 
L 349.014861 222.367109 
L 351.285603 220.265844 
L 353.556346 217.810762 
L 355.827089 215.039855 
L 358.097831 211.980611 
L 360.368574 208.633704 
L 362.639317 204.97341 
L 364.91006 200.956651 
L 367.180802 196.661421 
L 369.451545 192.080528 
L 371.722288 187.245899 
L 373.99303 182.191019 
L 376.263773 176.95757 
L 378.534516 171.487625 
L 380.805258 165.791458 
L 383.076001 159.904692 
L 385.346744 153.878427 
L 387.617486 147.75956 
L 389.888229 141.596719 
L 392.158972 135.401484 
L 394.429715 129.243505 
L 396.700457 123.207444 
L 398.9712 117.302577 
L 401.241943 111.556662 
L 403.512685 105.998379 
L 405.783428 100.665478 
L 408.054171 95.601953 
L 410.324913 90.804001 
L 412.595656 86.29097 
L 414.866399 82.073183 
L 417.137142 78.127396 
L 419.407884 74.442283 
L 421.678627 71.042605 
L 423.94937 67.925482 
L 426.220112 65.05926 
L 428.490855 62.42922 
L 430.761598 60.004026 
L 433.03234 57.756025 
L 435.303083 55.665343 
L 437.573826 53.719501 
L 439.844569 51.901612 
L 442.115311 50.198449 
L 444.386054 48.622259 
L 446.656797 47.180389 
L 448.927539 45.849152 
L 451.198282 44.618111 
L 453.469025 43.480838 
L 455.739767 42.437742 
L 458.01051 41.479189 
L 460.281253 40.594416 
L 462.551996 39.779852 
L 464.822738 39.036536 
L 467.093481 38.354392 
L 469.364224 37.735529 
L 471.634966 37.178107 
L 473.905709 36.676957 
L 476.176452 36.230331 
L 478.447194 35.830974 
L 480.717937 35.476565 
L 482.98868 35.16237 
L 485.259423 34.880819 
L 487.530165 34.630955 
L 489.800908 34.415205 
L 492.071651 34.230537 
L 494.342393 34.070873 
L 496.613136 33.932401 
L 498.883879 33.814059 
L 501.154621 33.715567 
L 503.425364 33.634918 
L 505.696107 33.57054 
L 507.966849 33.519737 
L 510.237592 33.479512 
L 512.508335 33.447171 
L 514.779078 33.421163 
L 517.04982 33.400497 
L 519.320563 33.384927 
L 521.591306 33.374034 
L 523.862048 33.36636 
L 526.132791 33.361006 
L 528.403534 33.357286 
L 530.674276 33.354848 
L 532.945019 33.353344 
L 535.215762 33.352458 
L 537.486505 33.351956 
L 539.757247 33.351699 
L 542.02799 33.351583 
L 544.298733 33.351548 
L 546.569475 33.351536 
L 548.840218 33.351536 
L 551.110961 33.351536 
L 553.381703 33.351536 
" clip-path="url(#pf6ed383e80)" style="fill: none; stroke-dasharray: 4.44,1.92; stroke-dashoffset: 0; stroke: #228833; stroke-opacity: 0.5; stroke-width: 1.2"/>
   </g>
   <g id="line2d_45">
    <path d="M 328.578176 228.999913 
L 330.848919 228.932881 
L 333.119662 228.758509 
L 335.390404 228.387751 
L 337.661147 227.783827 
L 339.93189 226.88206 
L 342.202633 225.630496 
L 344.473375 224.014065 
L 346.744118 222.013273 
L 349.014861 219.743365 
L 351.285603 217.170691 
L 353.556346 214.242003 
L 355.827089 211.012633 
L 358.097831 207.510669 
L 360.368574 203.723495 
L 362.639317 199.651892 
L 364.91006 195.325359 
L 367.180802 190.756732 
L 369.451545 185.985945 
L 371.722288 181.054017 
L 373.99303 175.974479 
L 376.263773 170.777385 
L 378.534516 165.445126 
L 380.805258 159.973503 
L 383.076001 154.404197 
L 385.346744 148.794253 
L 387.617486 143.172092 
L 389.888229 137.597621 
L 392.158972 132.103185 
L 394.429715 126.72088 
L 396.700457 121.491055 
L 398.9712 116.428253 
L 401.241943 111.535436 
L 403.512685 106.841621 
L 405.783428 102.377913 
L 408.054171 98.173141 
L 410.324913 94.223062 
L 412.595656 90.511591 
L 414.866399 87.041738 
L 417.137142 83.797351 
L 419.407884 80.759126 
L 421.678627 77.92339 
L 423.94937 75.284534 
L 426.220112 72.840271 
L 428.490855 70.577797 
L 430.761598 68.47221 
L 433.03234 66.499193 
L 435.303083 64.643236 
L 437.573826 62.892081 
L 439.844569 61.231453 
L 442.115311 59.661117 
L 444.386054 58.178311 
L 446.656797 56.782276 
L 448.927539 55.462982 
L 451.198282 54.216231 
L 453.469025 53.029601 
L 455.739767 51.90504 
L 458.01051 50.843611 
L 460.281253 49.83815 
L 462.551996 48.880869 
L 464.822738 47.967603 
L 467.093481 47.099461 
L 469.364224 46.279579 
L 471.634966 45.50952 
L 473.905709 44.785646 
L 476.176452 44.105461 
L 478.447194 43.460976 
L 480.717937 42.849146 
L 482.98868 42.26771 
L 485.259423 41.716399 
L 487.530165 41.194209 
L 489.800908 40.695859 
L 492.071651 40.221696 
L 494.342393 39.771128 
L 496.613136 39.339967 
L 498.883879 38.927524 
L 501.154621 38.536646 
L 503.425364 38.170015 
L 505.696107 37.821449 
L 507.966849 37.490646 
L 510.237592 37.176194 
L 512.508335 36.874513 
L 514.779078 36.584098 
L 517.04982 36.306197 
L 519.320563 36.041907 
L 521.591306 35.790049 
L 523.862048 35.549632 
L 526.132791 35.318674 
L 528.403534 35.094854 
L 530.674276 34.876946 
L 532.945019 34.666935 
L 535.215762 34.466288 
L 537.486505 34.272861 
L 539.757247 34.086035 
L 542.02799 33.905577 
L 544.298733 33.735358 
L 546.569475 33.581363 
L 548.840218 33.453422 
L 551.110961 33.378232 
L 553.381703 33.351525 
" clip-path="url(#pf6ed383e80)" style="fill: none; stroke: #228833; stroke-width: 1.2; stroke-linecap: round"/>
   </g>
   <g id="line2d_46">
    <path d="M 328.578176 229.020545 
L 330.848919 229.020543 
L 333.119662 229.020485 
L 335.390404 229.020003 
L 337.661147 229.01811 
L 339.93189 229.012998 
L 342.202633 229.00685 
L 344.473375 228.996306 
L 346.744118 228.977661 
L 349.014861 228.942112 
L 351.285603 228.873425 
L 353.556346 228.785475 
L 355.827089 228.672632 
L 358.097831 228.536009 
L 360.368574 228.358938 
L 362.639317 228.142325 
L 364.91006 227.877963 
L 367.180802 227.550156 
L 369.451545 227.167319 
L 371.722288 226.723324 
L 373.99303 226.211447 
L 376.263773 225.638724 
L 378.534516 224.986572 
L 380.805258 224.240089 
L 383.076001 223.404626 
L 385.346744 222.493905 
L 387.617486 221.484248 
L 389.888229 220.351763 
L 392.158972 219.096688 
L 394.429715 217.715647 
L 396.700457 216.189435 
L 398.9712 214.531135 
L 401.241943 212.753433 
L 403.512685 210.829477 
L 405.783428 208.750876 
L 408.054171 206.521289 
L 410.324913 204.114813 
L 412.595656 201.539519 
L 414.866399 198.798757 
L 417.137142 195.903774 
L 419.407884 192.876098 
L 421.678627 189.726727 
L 423.94937 186.468577 
L 426.220112 183.1002 
L 428.490855 179.615838 
L 430.761598 176.029183 
L 433.03234 172.365623 
L 435.303083 168.637475 
L 437.573826 164.834002 
L 439.844569 160.966647 
L 442.115311 157.052057 
L 444.386054 153.099908 
L 446.656797 149.114233 
L 448.927539 145.108283 
L 451.198282 141.106753 
L 453.469025 137.106378 
L 455.739767 133.10942 
L 458.01051 129.113232 
L 460.281253 125.122181 
L 462.551996 121.157745 
L 464.822738 117.237907 
L 467.093481 113.371321 
L 469.364224 109.548844 
L 471.634966 105.76461 
L 473.905709 102.015492 
L 476.176452 98.293443 
L 478.447194 94.603583 
L 480.717937 90.958252 
L 482.98868 87.364763 
L 485.259423 83.83908 
L 487.530165 80.387678 
L 489.800908 77.024225 
L 492.071651 73.760395 
L 494.342393 70.599769 
L 496.613136 67.533426 
L 498.883879 64.565236 
L 501.154621 61.701813 
L 503.425364 58.953396 
L 505.696107 56.324547 
L 507.966849 53.823043 
L 510.237592 51.455102 
L 512.508335 49.222997 
L 514.779078 47.129341 
L 517.04982 45.176548 
L 519.320563 43.370356 
L 521.591306 41.714813 
L 523.862048 40.213486 
L 526.132791 38.871438 
L 528.403534 37.686744 
L 530.674276 36.65923 
L 532.945019 35.790492 
L 535.215762 35.07603 
L 537.486505 34.506117 
L 539.757247 34.070162 
L 542.02799 33.75578 
L 544.298733 33.548661 
L 546.569475 33.427869 
L 548.840218 33.369847 
L 551.110961 33.351828 
L 553.381703 33.351525 
" clip-path="url(#pf6ed383e80)" style="fill: none; stroke-dasharray: 4.44,1.92; stroke-dashoffset: 0; stroke: #ccbb44; stroke-opacity: 0.5; stroke-width: 1.2"/>
   </g>
   <g id="line2d_47">
    <path d="M 328.578176 229.002645 
L 330.848919 228.974982 
L 333.119662 228.942315 
L 335.390404 228.904898 
L 337.661147 228.859565 
L 339.93189 228.799614 
L 342.202633 228.725965 
L 344.473375 228.625898 
L 346.744118 228.498837 
L 349.014861 228.318497 
L 351.285603 228.072632 
L 353.556346 227.760048 
L 355.827089 227.396184 
L 358.097831 226.961643 
L 360.368574 226.45848 
L 362.639317 225.890054 
L 364.91006 225.24445 
L 367.180802 224.500986 
L 369.451545 223.6726 
L 371.722288 222.727966 
L 373.99303 221.694109 
L 376.263773 220.575573 
L 378.534516 219.341623 
L 380.805258 218.007714 
L 383.076001 216.580215 
L 385.346744 215.060517 
L 387.617486 213.442401 
L 389.888229 211.702255 
L 392.158972 209.843195 
L 394.429715 207.869636 
L 396.700457 205.773799 
L 398.9712 203.564747 
L 401.241943 201.251629 
L 403.512685 198.82217 
L 405.783428 196.274645 
L 408.054171 193.605725 
L 410.324913 190.805205 
L 412.595656 187.867642 
L 414.866399 184.807019 
L 417.137142 181.653606 
L 419.407884 178.433296 
L 421.678627 175.166213 
L 423.94937 171.855201 
L 426.220112 168.497294 
L 428.490855 165.09133 
L 430.761598 161.651462 
L 433.03234 158.19364 
L 435.303083 154.738674 
L 437.573826 151.293133 
L 439.844569 147.861388 
L 442.115311 144.44554 
L 444.386054 141.050376 
L 446.656797 137.675697 
L 448.927539 134.326834 
L 451.198282 131.031538 
L 453.469025 127.790323 
L 455.739767 124.602418 
L 458.01051 121.461747 
L 460.281253 118.361639 
L 462.551996 115.30746 
L 464.822738 112.30567 
L 467.093481 109.361097 
L 469.364224 106.47015 
L 471.634966 103.629119 
L 473.905709 100.833504 
L 476.176452 98.081344 
L 478.447194 95.374598 
L 480.717937 92.715181 
L 482.98868 90.102403 
L 485.259423 87.538981 
L 487.530165 85.022969 
L 489.800908 82.55404 
L 492.071651 80.134549 
L 494.342393 77.770585 
L 496.613136 75.458403 
L 498.883879 73.198867 
L 501.154621 70.983288 
L 503.425364 68.813847 
L 505.696107 66.694802 
L 507.966849 64.623748 
L 510.237592 62.601258 
L 512.508335 60.619133 
L 514.779078 58.674761 
L 517.04982 56.772036 
L 519.320563 54.910784 
L 521.591306 53.090737 
L 523.862048 51.309282 
L 526.132791 49.563084 
L 528.403534 47.852294 
L 530.674276 46.179396 
L 532.945019 44.54642 
L 535.215762 42.95263 
L 537.486505 41.399031 
L 539.757247 39.880665 
L 542.02799 38.396331 
L 544.298733 36.945912 
L 546.569475 35.534354 
L 548.840218 34.257944 
L 551.110961 33.427391 
L 553.381703 33.35156 
" clip-path="url(#pf6ed383e80)" style="fill: none; stroke: #ccbb44; stroke-width: 1.2; stroke-linecap: round"/>
   </g>
   <g id="line2d_48">
    <path d="M 328.578176 229.020545 
L 330.848919 229.020545 
L 333.119662 229.020545 
L 335.390404 229.020545 
L 337.661147 229.020545 
L 339.93189 229.020545 
L 342.202633 229.020545 
L 344.473375 229.020545 
L 346.744118 229.020545 
L 349.014861 229.020545 
L 351.285603 229.020545 
L 353.556346 229.020545 
L 355.827089 229.020545 
L 358.097831 229.020545 
L 360.368574 229.020545 
L 362.639317 229.020545 
L 364.91006 229.020545 
L 367.180802 229.020545 
L 369.451545 229.020545 
L 371.722288 229.020545 
L 373.99303 229.020545 
L 376.263773 229.020545 
L 378.534516 229.020545 
L 380.805258 229.020545 
L 383.076001 229.020545 
L 385.346744 229.020545 
L 387.617486 229.020545 
L 389.888229 229.020545 
L 392.158972 229.020545 
L 394.429715 229.020545 
L 396.700457 229.020545 
L 398.9712 229.020545 
L 401.241943 229.020545 
L 403.512685 229.020545 
L 405.783428 229.020545 
L 408.054171 229.020545 
L 410.324913 229.020545 
L 412.595656 229.020545 
L 414.866399 229.020545 
L 417.137142 229.020545 
L 419.407884 229.020545 
L 421.678627 229.020545 
L 423.94937 229.020545 
L 426.220112 229.020545 
L 428.490855 229.020545 
L 430.761598 229.020545 
L 433.03234 229.020545 
L 435.303083 229.020545 
L 437.573826 229.020545 
L 439.844569 229.020545 
L 442.115311 229.020545 
L 444.386054 229.020545 
L 446.656797 229.020545 
L 448.927539 229.020545 
L 451.198282 229.020545 
L 453.469025 229.020545 
L 455.739767 229.020545 
L 458.01051 229.020545 
L 460.281253 229.020545 
L 462.551996 229.020545 
L 464.822738 229.020545 
L 467.093481 229.020545 
L 469.364224 229.020545 
L 471.634966 229.020545 
L 473.905709 229.020545 
L 476.176452 229.020545 
L 478.447194 229.020545 
L 480.717937 229.020545 
L 482.98868 229.020545 
L 485.259423 229.020545 
L 487.530165 229.020545 
L 489.800908 229.020545 
L 492.071651 229.020545 
L 494.342393 229.020545 
L 496.613136 229.020545 
L 498.883879 229.020545 
L 501.154621 229.020545 
L 503.425364 229.020545 
L 505.696107 229.020545 
L 507.966849 229.020545 
L 510.237592 229.020545 
L 512.508335 229.020545 
L 514.779078 229.020545 
L 517.04982 229.020545 
L 519.320563 229.020545 
L 521.591306 229.020545 
L 523.862048 229.020545 
L 526.132791 229.020545 
L 528.403534 229.020545 
L 530.674276 229.020545 
L 532.945019 229.020545 
L 535.215762 229.020545 
L 537.486505 229.020545 
L 539.757247 229.020545 
L 542.02799 229.020545 
L 544.298733 229.020545 
L 546.569475 229.020545 
L 548.840218 229.020545 
L 551.110961 229.020545 
L 553.381703 229.020545 
" clip-path="url(#pf6ed383e80)" style="fill: none; stroke-dasharray: 4.44,1.92; stroke-dashoffset: 0; stroke: #ee6677; stroke-opacity: 0.5; stroke-width: 1.2"/>
   </g>
   <g id="line2d_49">
    <path d="M 328.578176 228.948947 
L 330.848919 228.84887 
L 333.119662 228.718966 
L 335.390404 228.575497 
L 337.661147 228.428584 
L 339.93189 228.283865 
L 342.202633 228.144504 
L 344.473375 228.010457 
L 346.744118 227.880347 
L 349.014861 227.753139 
L 351.285603 227.627796 
L 353.556346 227.50325 
L 355.827089 227.375405 
L 358.097831 227.243653 
L 360.368574 227.109587 
L 362.639317 226.968415 
L 364.91006 226.817631 
L 367.180802 226.656948 
L 369.451545 226.481825 
L 371.722288 226.29624 
L 373.99303 226.096154 
L 376.263773 225.875638 
L 378.534516 225.63596 
L 380.805258 225.376636 
L 383.076001 225.098153 
L 385.346744 224.796121 
L 387.617486 224.462907 
L 389.888229 224.100506 
L 392.158972 223.707207 
L 394.429715 223.281527 
L 396.700457 222.835551 
L 398.9712 222.3556 
L 401.241943 221.836174 
L 403.512685 221.267786 
L 405.783428 220.655323 
L 408.054171 220.006241 
L 410.324913 219.31707 
L 412.595656 218.588966 
L 414.866399 217.811296 
L 417.137142 216.979581 
L 419.407884 216.08723 
L 421.678627 215.143253 
L 423.94937 214.142348 
L 426.220112 213.086549 
L 428.490855 211.972011 
L 430.761598 210.79675 
L 433.03234 209.549211 
L 435.303083 208.232825 
L 437.573826 206.849097 
L 439.844569 205.388939 
L 442.115311 203.845202 
L 444.386054 202.226244 
L 446.656797 200.532085 
L 448.927539 198.761692 
L 451.198282 196.911109 
L 453.469025 194.970151 
L 455.739767 192.945792 
L 458.01051 190.844346 
L 460.281253 188.660594 
L 462.551996 186.403108 
L 464.822738 184.082436 
L 467.093481 181.688443 
L 469.364224 179.205023 
L 471.634966 176.639059 
L 473.905709 173.977962 
L 476.176452 171.217994 
L 478.447194 168.370613 
L 480.717937 165.446386 
L 482.98868 162.446246 
L 485.259423 159.367691 
L 487.530165 156.202523 
L 489.800908 152.953907 
L 492.071651 149.625582 
L 494.342393 146.221286 
L 496.613136 142.744173 
L 498.883879 139.195083 
L 501.154621 135.568098 
L 503.425364 131.862861 
L 505.696107 128.085636 
L 507.966849 124.243391 
L 510.237592 120.335239 
L 512.508335 116.361437 
L 514.779078 112.308259 
L 517.04982 108.175015 
L 519.320563 103.958709 
L 521.591306 99.648577 
L 523.862048 95.251288 
L 526.132791 90.761081 
L 528.403534 86.157618 
L 530.674276 81.439171 
L 532.945019 76.594859 
L 535.215762 71.621802 
L 537.486505 66.522391 
L 539.757247 61.284682 
L 542.02799 55.891053 
L 544.298733 50.329072 
L 546.569475 44.573652 
L 548.840218 38.686594 
L 551.110961 33.922289 
L 553.381703 33.351525 
" clip-path="url(#pf6ed383e80)" style="fill: none; stroke: #ee6677; stroke-width: 1.2; stroke-linecap: round"/>
   </g>
   <g id="line2d_50">
    <path d="M 328.578176 229.020545 
L 330.848919 229.020545 
L 333.119662 229.020545 
L 335.390404 229.020545 
L 337.661147 229.020545 
L 339.93189 229.020545 
L 342.202633 229.020545 
L 344.473375 229.020545 
L 346.744118 229.020545 
L 349.014861 229.020545 
L 351.285603 229.020545 
L 353.556346 229.020545 
L 355.827089 229.020545 
L 358.097831 229.020545 
L 360.368574 229.020545 
L 362.639317 229.020545 
L 364.91006 229.020545 
L 367.180802 229.020545 
L 369.451545 229.020545 
L 371.722288 229.020545 
L 373.99303 229.020545 
L 376.263773 229.020545 
L 378.534516 229.020545 
L 380.805258 229.020544 
L 383.076001 229.020543 
L 385.346744 229.020542 
L 387.617486 229.02054 
L 389.888229 229.020537 
L 392.158972 229.020533 
L 394.429715 229.020527 
L 396.700457 229.020519 
L 398.9712 229.020508 
L 401.241943 229.020492 
L 403.512685 229.020471 
L 405.783428 229.020443 
L 408.054171 229.020405 
L 410.324913 229.020355 
L 412.595656 229.020289 
L 414.866399 229.020201 
L 417.137142 229.020086 
L 419.407884 229.019935 
L 421.678627 229.019739 
L 423.94937 229.019482 
L 426.220112 229.019152 
L 428.490855 229.018725 
L 430.761598 229.018183 
L 433.03234 229.017496 
L 435.303083 229.016632 
L 437.573826 229.015556 
L 439.844569 229.014235 
L 442.115311 229.012627 
L 444.386054 229.010682 
L 446.656797 229.008332 
L 448.927539 229.005494 
L 451.198282 229.002058 
L 453.469025 228.997853 
L 455.739767 228.992688 
L 458.01051 228.986324 
L 460.281253 228.97844 
L 462.551996 228.968646 
L 464.822738 228.956522 
L 467.093481 228.941491 
L 469.364224 228.922859 
L 471.634966 228.899835 
L 473.905709 228.871355 
L 476.176452 228.836163 
L 478.447194 228.792634 
L 480.717937 228.738712 
L 482.98868 228.67167 
L 485.259423 228.588297 
L 487.530165 228.48442 
L 489.800908 228.355043 
L 492.071651 228.193962 
L 494.342393 227.993042 
L 496.613136 227.741555 
L 498.883879 227.426757 
L 501.154621 227.03277 
L 503.425364 226.540303 
L 505.696107 225.926009 
L 507.966849 225.161147 
L 510.237592 224.209895 
L 512.508335 223.028037 
L 514.779078 221.561499 
L 517.04982 219.743755 
L 519.320563 217.500584 
L 521.591306 214.742018 
L 523.862048 211.351405 
L 526.132791 207.18758 
L 528.403534 202.092493 
L 530.674276 195.878454 
L 532.945019 188.32298 
L 535.215762 179.145548 
L 537.486505 168.046381 
L 539.757247 154.768776 
L 542.02799 139.048027 
L 544.298733 120.583784 
L 546.569475 99.285491 
L 548.840218 75.62707 
L 551.110961 51.557455 
L 553.381703 33.35156 
" clip-path="url(#pf6ed383e80)" style="fill: none; stroke-dasharray: 4.44,1.92; stroke-dashoffset: 0; stroke: #aa3377; stroke-opacity: 0.5; stroke-width: 1.2"/>
   </g>
   <g id="line2d_51">
    <path d="M 328.578176 228.988118 
L 330.848919 228.937582 
L 333.119662 228.878183 
L 335.390404 228.816897 
L 337.661147 228.756178 
L 339.93189 228.696707 
L 342.202633 228.639059 
L 344.473375 228.583469 
L 346.744118 228.529796 
L 349.014861 228.477826 
L 351.285603 228.427086 
L 353.556346 228.377078 
L 355.827089 228.327357 
L 358.097831 228.27744 
L 360.368574 228.227466 
L 362.639317 228.17647 
L 364.91006 228.123862 
L 367.180802 228.068778 
L 369.451545 228.010544 
L 371.722288 227.950015 
L 373.99303 227.885194 
L 376.263773 227.815299 
L 378.534516 227.739092 
L 380.805258 227.656514 
L 383.076001 227.56732 
L 385.346744 227.469746 
L 387.617486 227.362689 
L 389.888229 227.244008 
L 392.158972 227.114005 
L 394.429715 226.97113 
L 396.700457 226.815999 
L 398.9712 226.646369 
L 401.241943 226.458903 
L 403.512685 226.250254 
L 405.783428 226.021888 
L 408.054171 225.776868 
L 410.324913 225.509269 
L 412.595656 225.220941 
L 414.866399 224.908496 
L 417.137142 224.568151 
L 419.407884 224.199172 
L 421.678627 223.802618 
L 423.94937 223.372585 
L 426.220112 222.910633 
L 428.490855 222.417115 
L 430.761598 221.888702 
L 433.03234 221.322254 
L 435.303083 220.715017 
L 437.573826 220.069024 
L 439.844569 219.378544 
L 442.115311 218.635659 
L 444.386054 217.845603 
L 446.656797 217.007961 
L 448.927539 216.119164 
L 451.198282 215.176979 
L 453.469025 214.173335 
L 455.739767 213.108667 
L 458.01051 211.988498 
L 460.281253 210.810226 
L 462.551996 209.573137 
L 464.822738 208.276222 
L 467.093481 206.919933 
L 469.364224 205.493948 
L 471.634966 204.002661 
L 473.905709 202.438723 
L 476.176452 200.792262 
L 478.447194 199.074946 
L 480.717937 197.290899 
L 482.98868 195.43407 
L 485.259423 193.500845 
L 487.530165 191.489405 
L 489.800908 189.389766 
L 492.071651 187.202146 
L 494.342393 184.926731 
L 496.613136 182.563717 
L 498.883879 180.115084 
L 501.154621 177.576502 
L 503.425364 174.940351 
L 505.696107 172.218456 
L 507.966849 169.405953 
L 510.237592 166.498147 
L 512.508335 163.488788 
L 514.779078 160.367162 
L 517.04982 157.131294 
L 519.320563 153.776139 
L 521.591306 150.290168 
L 523.862048 146.665825 
L 526.132791 142.90193 
L 528.403534 138.990192 
L 530.674276 134.934757 
L 532.945019 130.735245 
L 535.215762 126.384491 
L 537.486505 121.883217 
L 539.757247 117.232425 
L 542.02799 112.428537 
L 544.298733 107.447806 
L 546.569475 102.205152 
L 548.840218 95.689505 
L 551.110961 78.897944 
L 553.381703 33.351606 
" clip-path="url(#pf6ed383e80)" style="fill: none; stroke: #aa3377; stroke-width: 1.2; stroke-linecap: round"/>
   </g>
   <g id="patch_10">
    <path d="M 317.338 238.804 
L 317.338 23.568 
" style="fill: none; stroke: #262626; stroke-linejoin: miter; stroke-linecap: square"/>
   </g>
   <g id="patch_11">
    <path d="M 564.62188 238.804 
L 564.62188 23.568 
" style="fill: none; stroke: #262626; stroke-linejoin: miter; stroke-linecap: square"/>
   </g>
   <g id="patch_12">
    <path d="M 317.338 238.804 
L 564.62188 238.804 
" style="fill: none; stroke: #262626; stroke-linejoin: miter; stroke-linecap: square"/>
   </g>
   <g id="patch_13">
    <path d="M 317.338 23.568 
L 564.62188 23.568 
" style="fill: none; stroke: #262626; stroke-linejoin: miter; stroke-linecap: square"/>
   </g>
   <g id="text_29">
    <!-- Speed -->
    <g style="fill: #262626" transform="translate(425.93119 17.568) scale(0.096 -0.096)">
     <use xlink:href="#DejaVuSans-53"/>
     <use xlink:href="#DejaVuSans-70" x="63.476562"/>
     <use xlink:href="#DejaVuSans-65" x="126.953125"/>
     <use xlink:href="#DejaVuSans-65" x="188.476562"/>
     <use xlink:href="#DejaVuSans-64" x="250"/>
    </g>
   </g>
   <g id="legend_3"/>
  </g>
  <g id="text_30">
   <!-- Cumulative probability -->
   <g style="fill: #262626" transform="translate(20.2734 209.4363) rotate(-90) scale(0.1152 -0.1152)">
    <defs>
     <path id="DejaVuSans-43" d="M 4122 4306 
L 4122 3641 
Q 3803 3938 3442 4084 
Q 3081 4231 2675 4231 
Q 1875 4231 1450 3742 
Q 1025 3253 1025 2328 
Q 1025 1406 1450 917 
Q 1875 428 2675 428 
Q 3081 428 3442 575 
Q 3803 722 4122 1019 
L 4122 359 
Q 3791 134 3420 21 
Q 3050 -91 2638 -91 
Q 1578 -91 968 557 
Q 359 1206 359 2328 
Q 359 3453 968 4101 
Q 1578 4750 2638 4750 
Q 3056 4750 3426 4639 
Q 3797 4528 4122 4306 
z
" transform="scale(0.015625)"/>
     <path id="DejaVuSans-6c" d="M 603 4863 
L 1178 4863 
L 1178 0 
L 603 0 
L 603 4863 
z
" transform="scale(0.015625)"/>
     <path id="DejaVuSans-76" d="M 191 3500 
L 800 3500 
L 1894 563 
L 2988 3500 
L 3597 3500 
L 2284 0 
L 1503 0 
L 191 3500 
z
" transform="scale(0.015625)"/>
     <path id="DejaVuSans-20" transform="scale(0.015625)"/>
     <path id="DejaVuSans-62" d="M 3116 1747 
Q 3116 2381 2855 2742 
Q 2594 3103 2138 3103 
Q 1681 3103 1420 2742 
Q 1159 2381 1159 1747 
Q 1159 1113 1420 752 
Q 1681 391 2138 391 
Q 2594 391 2855 752 
Q 3116 1113 3116 1747 
z
M 1159 2969 
Q 1341 3281 1617 3432 
Q 1894 3584 2278 3584 
Q 2916 3584 3314 3078 
Q 3713 2572 3713 1747 
Q 3713 922 3314 415 
Q 2916 -91 2278 -91 
Q 1894 -91 1617 61 
Q 1341 213 1159 525 
L 1159 0 
L 581 0 
L 581 4863 
L 1159 4863 
L 1159 2969 
z
" transform="scale(0.015625)"/>
    </defs>
    <use xlink:href="#DejaVuSans-43"/>
    <use xlink:href="#DejaVuSans-75" x="69.824219"/>
    <use xlink:href="#DejaVuSans-6d" x="133.203125"/>
    <use xlink:href="#DejaVuSans-75" x="230.615234"/>
    <use xlink:href="#DejaVuSans-6c" x="293.994141"/>
    <use xlink:href="#DejaVuSans-61" x="321.777344"/>
    <use xlink:href="#DejaVuSans-74" x="383.056641"/>
    <use xlink:href="#DejaVuSans-69" x="422.265625"/>
    <use xlink:href="#DejaVuSans-76" x="450.048828"/>
    <use xlink:href="#DejaVuSans-65" x="509.228516"/>
    <use xlink:href="#DejaVuSans-20" x="570.751953"/>
    <use xlink:href="#DejaVuSans-70" x="602.539062"/>
    <use xlink:href="#DejaVuSans-72" x="666.015625"/>
    <use xlink:href="#DejaVuSans-6f" x="704.878906"/>
    <use xlink:href="#DejaVuSans-62" x="766.060547"/>
    <use xlink:href="#DejaVuSans-61" x="829.537109"/>
    <use xlink:href="#DejaVuSans-62" x="890.816406"/>
    <use xlink:href="#DejaVuSans-69" x="954.292969"/>
    <use xlink:href="#DejaVuSans-6c" x="982.076172"/>
    <use xlink:href="#DejaVuSans-69" x="1009.859375"/>
    <use xlink:href="#DejaVuSans-74" x="1037.642578"/>
    <use xlink:href="#DejaVuSans-79" x="1076.851562"/>
   </g>
  </g>
  <g id="text_31">
   <!-- Scaled time -->
   <g style="fill: #262626" transform="translate(254.0016 282.7242) scale(0.1152 -0.1152)">
    <use xlink:href="#DejaVuSans-53"/>
    <use xlink:href="#DejaVuSans-63" x="63.476562"/>
    <use xlink:href="#DejaVuSans-61" x="118.457031"/>
    <use xlink:href="#DejaVuSans-6c" x="179.736328"/>
    <use xlink:href="#DejaVuSans-65" x="207.519531"/>
    <use xlink:href="#DejaVuSans-64" x="269.042969"/>
    <use xlink:href="#DejaVuSans-20" x="332.519531"/>
    <use xlink:href="#DejaVuSans-74" x="364.306641"/>
    <use xlink:href="#DejaVuSans-69" x="403.515625"/>
    <use xlink:href="#DejaVuSans-6d" x="431.298828"/>
    <use xlink:href="#DejaVuSans-65" x="528.710938"/>
   </g>
  </g>
 </g>
 <defs>
  <clipPath id="pb8cfebec21">
   <rect x="53.876" y="23.568" width="247.28388" height="215.236"/>
  </clipPath>
  <clipPath id="pf6ed383e80">
   <rect x="317.338" y="23.568" width="247.28388" height="215.236"/>
  </clipPath>
 </defs>
</svg>
