<?xml version="1.0" encoding="utf-8" standalone="no"?>
<!DOCTYPE svg PUBLIC "-//W3C//DTD SVG 1.1//EN"
  "http://www.w3.org/Graphics/SVG/1.1/DTD/svg11.dtd">
<svg xmlns:xlink="http://www.w3.org/1999/xlink" width="576pt" height="288pt" viewBox="0 0 576 288" xmlns="http://www.w3.org/2000/svg" version="1.1">
 <metadata>
  <rdf:RDF xmlns:dc="http://purl.org/dc/elements/1.1/" xmlns:cc="http://creativecommons.org/ns#" xmlns:rdf="http://www.w3.org/1999/02/22-rdf-syntax-ns#">
   <cc:Work>
    <dc:type rdf:resource="http://purl.org/dc/dcmitype/StillImage"/>
    <dc:date>2024-11-26T13:27:20.768503</dc:date>
    <dc:format>image/svg+xml</dc:format>
    <dc:creator>
     <cc:Agent>
      <dc:title>Matplotlib v3.9.2, https://matplotlib.org/</dc:title>
     </cc:Agent>
    </dc:creator>
   </cc:Work>
  </rdf:RDF>
 </metadata>
 <defs>
  <style type="text/css">*{stroke-linejoin: round; stroke-linecap: butt}</style>
 </defs>
 <g id="figure_1">
  <g id="patch_1">
   <path d="M 0 288 
L 576 288 
L 576 0 
L 0 0 
L 0 288 
z
" style="fill: none"/>
  </g>
  <g id="axes_1">
   <g id="patch_2">
    <path d="M 53.876 238.804 
L 301.15988 238.804 
L 301.15988 23.568 
L 53.876 23.568 
L 53.876 238.804 
z
" style="fill: none"/>
   </g>
   <g id="matplotlib.axis_1">
    <g id="xtick_1">
     <g id="line2d_1">
      <defs>
       <path id="m5de0717c65" d="M 0 0 
L 0 4.8 
" style="stroke: #262626"/>
      </defs>
      <g>
       <use xlink:href="#m5de0717c65" x="65.116176" y="238.804" style="fill: #262626; stroke: #262626"/>
      </g>
     </g>
     <g id="text_1">
      <!-- 0 -->
      <g style="fill: #262626" transform="translate(62.316676 253.790625) scale(0.088 -0.088)">
       <defs>
        <path id="DejaVuSans-30" d="M 2034 4250 
Q 1547 4250 1301 3770 
Q 1056 3291 1056 2328 
Q 1056 1369 1301 889 
Q 1547 409 2034 409 
Q 2525 409 2770 889 
Q 3016 1369 3016 2328 
Q 3016 3291 2770 3770 
Q 2525 4250 2034 4250 
z
M 2034 4750 
Q 2819 4750 3233 4129 
Q 3647 3509 3647 2328 
Q 3647 1150 3233 529 
Q 2819 -91 2034 -91 
Q 1250 -91 836 529 
Q 422 1150 422 2328 
Q 422 3509 836 4129 
Q 1250 4750 2034 4750 
z
" transform="scale(0.015625)"/>
       </defs>
       <use xlink:href="#DejaVuSans-30"/>
      </g>
     </g>
    </g>
    <g id="xtick_2">
     <g id="line2d_2">
      <g>
       <use xlink:href="#m5de0717c65" x="110.53103" y="238.804" style="fill: #262626; stroke: #262626"/>
      </g>
     </g>
     <g id="text_2">
      <!-- 20 -->
      <g style="fill: #262626" transform="translate(104.93203 253.790625) scale(0.088 -0.088)">
       <defs>
        <path id="DejaVuSans-32" d="M 1228 531 
L 3431 531 
L 3431 0 
L 469 0 
L 469 531 
Q 828 903 1448 1529 
Q 2069 2156 2228 2338 
Q 2531 2678 2651 2914 
Q 2772 3150 2772 3378 
Q 2772 3750 2511 3984 
Q 2250 4219 1831 4219 
Q 1534 4219 1204 4116 
Q 875 4013 500 3803 
L 500 4441 
Q 881 4594 1212 4672 
Q 1544 4750 1819 4750 
Q 2544 4750 2975 4387 
Q 3406 4025 3406 3419 
Q 3406 3131 3298 2873 
Q 3191 2616 2906 2266 
Q 2828 2175 2409 1742 
Q 1991 1309 1228 531 
z
" transform="scale(0.015625)"/>
       </defs>
       <use xlink:href="#DejaVuSans-32"/>
       <use xlink:href="#DejaVuSans-30" x="63.623047"/>
      </g>
     </g>
    </g>
    <g id="xtick_3">
     <g id="line2d_3">
      <g>
       <use xlink:href="#m5de0717c65" x="155.945884" y="238.804" style="fill: #262626; stroke: #262626"/>
      </g>
     </g>
     <g id="text_3">
      <!-- 40 -->
      <g style="fill: #262626" transform="translate(150.346884 253.790625) scale(0.088 -0.088)">
       <defs>
        <path id="DejaVuSans-34" d="M 2419 4116 
L 825 1625 
L 2419 1625 
L 2419 4116 
z
M 2253 4666 
L 3047 4666 
L 3047 1625 
L 3713 1625 
L 3713 1100 
L 3047 1100 
L 3047 0 
L 2419 0 
L 2419 1100 
L 313 1100 
L 313 1709 
L 2253 4666 
z
" transform="scale(0.015625)"/>
       </defs>
       <use xlink:href="#DejaVuSans-34"/>
       <use xlink:href="#DejaVuSans-30" x="63.623047"/>
      </g>
     </g>
    </g>
    <g id="xtick_4">
     <g id="line2d_4">
      <g>
       <use xlink:href="#m5de0717c65" x="201.360738" y="238.804" style="fill: #262626; stroke: #262626"/>
      </g>
     </g>
     <g id="text_4">
      <!-- 60 -->
      <g style="fill: #262626" transform="translate(195.761738 253.790625) scale(0.088 -0.088)">
       <defs>
        <path id="DejaVuSans-36" d="M 2113 2584 
Q 1688 2584 1439 2293 
Q 1191 2003 1191 1497 
Q 1191 994 1439 701 
Q 1688 409 2113 409 
Q 2538 409 2786 701 
Q 3034 994 3034 1497 
Q 3034 2003 2786 2293 
Q 2538 2584 2113 2584 
z
M 3366 4563 
L 3366 3988 
Q 3128 4100 2886 4159 
Q 2644 4219 2406 4219 
Q 1781 4219 1451 3797 
Q 1122 3375 1075 2522 
Q 1259 2794 1537 2939 
Q 1816 3084 2150 3084 
Q 2853 3084 3261 2657 
Q 3669 2231 3669 1497 
Q 3669 778 3244 343 
Q 2819 -91 2113 -91 
Q 1303 -91 875 529 
Q 447 1150 447 2328 
Q 447 3434 972 4092 
Q 1497 4750 2381 4750 
Q 2619 4750 2861 4703 
Q 3103 4656 3366 4563 
z
" transform="scale(0.015625)"/>
       </defs>
       <use xlink:href="#DejaVuSans-36"/>
       <use xlink:href="#DejaVuSans-30" x="63.623047"/>
      </g>
     </g>
    </g>
    <g id="xtick_5">
     <g id="line2d_5">
      <g>
       <use xlink:href="#m5de0717c65" x="246.775592" y="238.804" style="fill: #262626; stroke: #262626"/>
      </g>
     </g>
     <g id="text_5">
      <!-- 80 -->
      <g style="fill: #262626" transform="translate(241.176592 253.790625) scale(0.088 -0.088)">
       <defs>
        <path id="DejaVuSans-38" d="M 2034 2216 
Q 1584 2216 1326 1975 
Q 1069 1734 1069 1313 
Q 1069 891 1326 650 
Q 1584 409 2034 409 
Q 2484 409 2743 651 
Q 3003 894 3003 1313 
Q 3003 1734 2745 1975 
Q 2488 2216 2034 2216 
z
M 1403 2484 
Q 997 2584 770 2862 
Q 544 3141 544 3541 
Q 544 4100 942 4425 
Q 1341 4750 2034 4750 
Q 2731 4750 3128 4425 
Q 3525 4100 3525 3541 
Q 3525 3141 3298 2862 
Q 3072 2584 2669 2484 
Q 3125 2378 3379 2068 
Q 3634 1759 3634 1313 
Q 3634 634 3220 271 
Q 2806 -91 2034 -91 
Q 1263 -91 848 271 
Q 434 634 434 1313 
Q 434 1759 690 2068 
Q 947 2378 1403 2484 
z
M 1172 3481 
Q 1172 3119 1398 2916 
Q 1625 2713 2034 2713 
Q 2441 2713 2670 2916 
Q 2900 3119 2900 3481 
Q 2900 3844 2670 4047 
Q 2441 4250 2034 4250 
Q 1625 4250 1398 4047 
Q 1172 3844 1172 3481 
z
" transform="scale(0.015625)"/>
       </defs>
       <use xlink:href="#DejaVuSans-38"/>
       <use xlink:href="#DejaVuSans-30" x="63.623047"/>
      </g>
     </g>
    </g>
    <g id="xtick_6">
     <g id="line2d_6">
      <g>
       <use xlink:href="#m5de0717c65" x="292.190446" y="238.804" style="fill: #262626; stroke: #262626"/>
      </g>
     </g>
     <g id="text_6">
      <!-- 100 -->
      <g style="fill: #262626" transform="translate(283.791946 253.790625) scale(0.088 -0.088)">
       <defs>
        <path id="DejaVuSans-31" d="M 794 531 
L 1825 531 
L 1825 4091 
L 703 3866 
L 703 4441 
L 1819 4666 
L 2450 4666 
L 2450 531 
L 3481 531 
L 3481 0 
L 794 0 
L 794 531 
z
" transform="scale(0.015625)"/>
       </defs>
       <use xlink:href="#DejaVuSans-31"/>
       <use xlink:href="#DejaVuSans-30" x="63.623047"/>
       <use xlink:href="#DejaVuSans-30" x="127.246094"/>
      </g>
     </g>
    </g>
   </g>
   <g id="matplotlib.axis_2">
    <g id="ytick_1">
     <g id="line2d_7">
      <defs>
       <path id="m079a57c43c" d="M 0 0 
L -4.8 0 
" style="stroke: #262626"/>
      </defs>
      <g>
       <use xlink:href="#m079a57c43c" x="53.876" y="229.020545" style="fill: #262626; stroke: #262626"/>
      </g>
     </g>
     <g id="text_7">
      <!-- 0.0 -->
      <g style="fill: #262626" transform="translate(31.58125 232.363858) scale(0.088 -0.088)">
       <defs>
        <path id="DejaVuSans-2e" d="M 684 794 
L 1344 794 
L 1344 0 
L 684 0 
L 684 794 
z
" transform="scale(0.015625)"/>
       </defs>
       <use xlink:href="#DejaVuSans-30"/>
       <use xlink:href="#DejaVuSans-2e" x="63.623047"/>
       <use xlink:href="#DejaVuSans-30" x="95.410156"/>
      </g>
     </g>
    </g>
    <g id="ytick_2">
     <g id="line2d_8">
      <g>
       <use xlink:href="#m079a57c43c" x="53.876" y="189.886741" style="fill: #262626; stroke: #262626"/>
      </g>
     </g>
     <g id="text_8">
      <!-- 0.2 -->
      <g style="fill: #262626" transform="translate(31.58125 193.230054) scale(0.088 -0.088)">
       <use xlink:href="#DejaVuSans-30"/>
       <use xlink:href="#DejaVuSans-2e" x="63.623047"/>
       <use xlink:href="#DejaVuSans-32" x="95.410156"/>
      </g>
     </g>
    </g>
    <g id="ytick_3">
     <g id="line2d_9">
      <g>
       <use xlink:href="#m079a57c43c" x="53.876" y="150.752937" style="fill: #262626; stroke: #262626"/>
      </g>
     </g>
     <g id="text_9">
      <!-- 0.4 -->
      <g style="fill: #262626" transform="translate(31.58125 154.09625) scale(0.088 -0.088)">
       <use xlink:href="#DejaVuSans-30"/>
       <use xlink:href="#DejaVuSans-2e" x="63.623047"/>
       <use xlink:href="#DejaVuSans-34" x="95.410156"/>
      </g>
     </g>
    </g>
    <g id="ytick_4">
     <g id="line2d_10">
      <g>
       <use xlink:href="#m079a57c43c" x="53.876" y="111.619133" style="fill: #262626; stroke: #262626"/>
      </g>
     </g>
     <g id="text_10">
      <!-- 0.6 -->
      <g style="fill: #262626" transform="translate(31.58125 114.962445) scale(0.088 -0.088)">
       <use xlink:href="#DejaVuSans-30"/>
       <use xlink:href="#DejaVuSans-2e" x="63.623047"/>
       <use xlink:href="#DejaVuSans-36" x="95.410156"/>
      </g>
     </g>
    </g>
    <g id="ytick_5">
     <g id="line2d_11">
      <g>
       <use xlink:href="#m079a57c43c" x="53.876" y="72.485329" style="fill: #262626; stroke: #262626"/>
      </g>
     </g>
     <g id="text_11">
      <!-- 0.8 -->
      <g style="fill: #262626" transform="translate(31.58125 75.828641) scale(0.088 -0.088)">
       <use xlink:href="#DejaVuSans-30"/>
       <use xlink:href="#DejaVuSans-2e" x="63.623047"/>
       <use xlink:href="#DejaVuSans-38" x="95.410156"/>
      </g>
     </g>
    </g>
    <g id="ytick_6">
     <g id="line2d_12">
      <g>
       <use xlink:href="#m079a57c43c" x="53.876" y="33.351525" style="fill: #262626; stroke: #262626"/>
      </g>
     </g>
     <g id="text_12">
      <!-- 1.0 -->
      <g style="fill: #262626" transform="translate(31.58125 36.694837) scale(0.088 -0.088)">
       <use xlink:href="#DejaVuSans-31"/>
       <use xlink:href="#DejaVuSans-2e" x="63.623047"/>
       <use xlink:href="#DejaVuSans-30" x="95.410156"/>
      </g>
     </g>
    </g>
   </g>
   <g id="PolyCollection_1"/>
   <g id="PolyCollection_2"/>
   <g id="PolyCollection_3"/>
   <g id="PolyCollection_4"/>
   <g id="PolyCollection_5"/>
   <g id="PolyCollection_6"/>
   <g id="PolyCollection_7"/>
   <g id="PolyCollection_8"/>
   <g id="line2d_13">
    <path d="M 65.116176 224.799268 
L 67.386919 207.776673 
L 69.657662 185.680316 
L 71.928404 162.842378 
L 74.199147 141.602748 
L 76.46989 122.685313 
L 78.740633 106.314428 
L 81.011375 92.439846 
L 83.282118 80.821813 
L 85.552861 71.18958 
L 87.823603 63.256881 
L 90.094346 56.796353 
L 92.365089 51.609132 
L 94.635831 47.484484 
L 96.906574 44.234452 
L 99.177317 41.697167 
L 101.44806 39.739277 
L 103.718802 38.242487 
L 105.989545 37.104165 
L 108.260288 36.241784 
L 110.53103 35.590546 
L 112.801773 35.099356 
L 115.072516 34.72687 
L 117.343258 34.441738 
L 119.614001 34.221183 
L 121.884744 34.048994 
L 124.155486 33.913472 
L 126.426229 33.80565 
L 128.696972 33.718867 
L 130.967715 33.648447 
L 133.238457 33.591101 
L 135.5092 33.54445 
L 137.779943 33.506605 
L 140.050685 33.475931 
L 142.321428 33.451066 
L 144.592171 33.430913 
L 146.862913 33.414632 
L 149.133656 33.401523 
L 151.404399 33.391003 
L 153.675142 33.382606 
L 155.945884 33.375911 
L 158.216627 33.370605 
L 160.48737 33.366406 
L 162.758112 33.363117 
L 165.028855 33.360528 
L 167.299598 33.358499 
L 169.57034 33.356901 
L 171.841083 33.355653 
L 174.111826 33.354673 
L 176.382569 33.353915 
L 178.653311 33.353332 
L 180.924054 33.352889 
L 183.194797 33.352551 
L 185.465539 33.352283 
L 187.736282 33.352084 
L 190.007025 33.351944 
L 192.277767 33.351828 
L 194.54851 33.351746 
L 196.819253 33.351688 
L 199.089996 33.351641 
L 201.360738 33.351606 
L 203.631481 33.351583 
L 205.902224 33.351571 
L 208.172966 33.35156 
L 210.443709 33.351548 
L 212.714452 33.351548 
L 214.985194 33.351536 
L 217.255937 33.351536 
L 219.52668 33.351536 
L 221.797423 33.351536 
L 224.068165 33.351525 
L 226.338908 33.351525 
L 228.609651 33.351525 
L 230.880393 33.351525 
L 233.151136 33.351525 
L 235.421879 33.351525 
L 237.692621 33.351525 
L 239.963364 33.351525 
L 242.234107 33.351525 
L 244.504849 33.351525 
L 246.775592 33.351525 
L 249.046335 33.351525 
L 251.317078 33.351525 
L 253.58782 33.351525 
L 255.858563 33.351525 
L 258.129306 33.351525 
L 260.400048 33.351525 
L 262.670791 33.351525 
L 264.941534 33.351525 
L 267.212276 33.351525 
L 269.483019 33.351525 
L 271.753762 33.351525 
L 274.024505 33.351525 
L 276.295247 33.351525 
L 278.56599 33.351525 
L 280.836733 33.351525 
L 283.107475 33.351525 
L 285.378218 33.351525 
L 287.648961 33.351525 
L 289.919703 33.351525 
" clip-path="url(#pf3805a3299)" style="fill: none; stroke-dasharray: 4.44,1.92; stroke-dashoffset: 0; stroke: #66ccee; stroke-opacity: 0.5; stroke-width: 1.2"/>
   </g>
   <g id="line2d_14">
    <path d="M 65.116176 228.598192 
L 67.386919 227.741273 
L 69.657662 225.372452 
L 71.928404 221.355737 
L 74.199147 215.842966 
L 76.46989 209.030245 
L 78.740633 201.299878 
L 81.011375 193.034733 
L 83.282118 184.412607 
L 85.552861 175.643495 
L 87.823603 166.890506 
L 90.094346 158.272911 
L 92.365089 149.903996 
L 94.635831 141.881821 
L 96.906574 134.233374 
L 99.177317 127.043298 
L 101.44806 120.387033 
L 103.718802 114.278639 
L 105.989545 108.725312 
L 108.260288 103.626705 
L 110.53103 98.952798 
L 112.801773 94.676114 
L 115.072516 90.738817 
L 117.343258 87.059128 
L 119.614001 83.612157 
L 121.884744 80.37717 
L 124.155486 77.332985 
L 126.426229 74.449316 
L 128.696972 71.717472 
L 130.967715 69.135869 
L 133.238457 66.698977 
L 135.5092 64.403473 
L 137.779943 62.236026 
L 140.050685 60.180589 
L 142.321428 58.240964 
L 144.592171 56.411971 
L 146.862913 54.684515 
L 149.133656 53.066782 
L 151.404399 51.555997 
L 153.675142 50.150083 
L 155.945884 48.84349 
L 158.216627 47.635342 
L 160.48737 46.516228 
L 162.758112 45.480002 
L 165.028855 44.521671 
L 167.299598 43.6339 
L 169.57034 42.811021 
L 171.841083 42.053593 
L 174.111826 41.356882 
L 176.382569 40.710799 
L 178.653311 40.114644 
L 180.924054 39.562306 
L 183.194797 39.053541 
L 185.465539 38.585303 
L 187.736282 38.156031 
L 190.007025 37.760686 
L 192.277767 37.401577 
L 194.54851 37.077165 
L 196.819253 36.782202 
L 199.089996 36.513561 
L 201.360738 36.272818 
L 203.631481 36.057045 
L 205.902224 35.86125 
L 208.172966 35.684198 
L 210.443709 35.523566 
L 212.714452 35.376685 
L 214.985194 35.242656 
L 217.255937 35.120664 
L 219.52668 35.009307 
L 221.797423 34.908681 
L 224.068165 34.817758 
L 226.338908 34.735034 
L 228.609651 34.660497 
L 230.880393 34.592071 
L 233.151136 34.527763 
L 235.421879 34.470032 
L 237.692621 34.415765 
L 239.963364 34.365545 
L 242.234107 34.320853 
L 244.504849 34.27959 
L 246.775592 34.240683 
L 249.046335 34.203094 
L 251.317078 34.165027 
L 253.58782 34.125863 
L 255.858563 34.084285 
L 258.129306 34.040037 
L 260.400048 33.992324 
L 262.670791 33.940915 
L 264.941534 33.885785 
L 267.212276 33.827424 
L 269.483019 33.766335 
L 271.753762 33.703437 
L 274.024505 33.640295 
L 276.295247 33.579089 
L 278.56599 33.521696 
L 280.836733 33.470007 
L 283.107475 33.427181 
L 285.378218 33.396869 
L 287.648961 33.374698 
L 289.919703 33.351525 
" clip-path="url(#pf3805a3299)" style="fill: none; stroke: #66ccee; stroke-width: 1.2; stroke-linecap: round"/>
   </g>
   <g id="line2d_15">
    <path d="M 65.116176 229.020328 
L 67.386919 228.991083 
L 69.657662 228.850507 
L 71.928404 228.50623 
L 74.199147 227.865627 
L 76.46989 226.854794 
L 78.740633 225.423472 
L 81.011375 223.510956 
L 83.282118 221.093677 
L 85.552861 218.123981 
L 87.823603 214.590753 
L 90.094346 210.547675 
L 92.365089 206.026349 
L 94.635831 201.118764 
L 96.906574 195.887942 
L 99.177317 190.388167 
L 101.44806 184.647711 
L 103.718802 178.720475 
L 105.989545 172.669357 
L 108.260288 166.533812 
L 110.53103 160.356806 
L 112.801773 154.209231 
L 115.072516 148.145202 
L 117.343258 142.192722 
L 119.614001 136.382942 
L 121.884744 130.737916 
L 124.155486 125.29163 
L 126.426229 120.092198 
L 128.696972 115.16269 
L 130.967715 110.511584 
L 133.238457 106.122879 
L 135.5092 101.971733 
L 137.779943 98.030587 
L 140.050685 94.288898 
L 142.321428 90.728752 
L 144.592171 87.342055 
L 146.862913 84.109692 
L 149.133656 81.015287 
L 151.404399 78.041243 
L 153.675142 75.180525 
L 155.945884 72.425251 
L 158.216627 69.782616 
L 160.48737 67.263969 
L 162.758112 64.883618 
L 165.028855 62.63529 
L 167.299598 60.506937 
L 169.57034 58.489288 
L 171.841083 56.569804 
L 174.111826 54.736088 
L 176.382569 52.984828 
L 178.653311 51.32498 
L 180.924054 49.766751 
L 183.194797 48.30951 
L 185.465539 46.944871 
L 187.736282 45.66684 
L 190.007025 44.475102 
L 192.277767 43.374835 
L 194.54851 42.358132 
L 196.819253 41.4207 
L 199.089996 40.562133 
L 201.360738 39.776761 
L 203.631481 39.057692 
L 205.902224 38.398372 
L 208.172966 37.79438 
L 210.443709 37.242415 
L 212.714452 36.739808 
L 214.985194 36.284726 
L 217.255937 35.875584 
L 219.52668 35.509827 
L 221.797423 35.184471 
L 224.068165 34.89717 
L 226.338908 34.645907 
L 228.609651 34.427789 
L 230.880393 34.239412 
L 233.151136 34.077906 
L 235.421879 33.940822 
L 237.692621 33.825255 
L 239.963364 33.728291 
L 242.234107 33.647456 
L 244.504849 33.580768 
L 246.775592 33.526525 
L 249.046335 33.483057 
L 251.317078 33.448687 
L 253.58782 33.421886 
L 255.858563 33.401301 
L 258.129306 33.385813 
L 260.400048 33.374419 
L 262.670791 33.366231 
L 264.941534 33.360552 
L 267.212276 33.356749 
L 269.483019 33.354347 
L 271.753762 33.352924 
L 274.024505 33.352143 
L 276.295247 33.351758 
L 278.56599 33.351594 
L 280.836733 33.351536 
L 283.107475 33.351525 
L 285.378218 33.351525 
L 287.648961 33.351525 
L 289.919703 33.351525 
" clip-path="url(#pf3805a3299)" style="fill: none; stroke-dasharray: 4.44,1.92; stroke-dashoffset: 0; stroke: #228833; stroke-opacity: 0.5; stroke-width: 1.2"/>
   </g>
   <g id="line2d_16">
    <path d="M 65.116176 228.842886 
L 67.386919 228.726778 
L 69.657662 228.559896 
L 71.928404 228.306905 
L 74.199147 227.929261 
L 76.46989 227.387613 
L 78.740633 226.648397 
L 81.011375 225.666926 
L 83.282118 224.429145 
L 85.552861 222.874993 
L 87.823603 221.005082 
L 90.094346 218.824544 
L 92.365089 216.37323 
L 94.635831 213.653461 
L 96.906574 210.712269 
L 99.177317 207.544536 
L 101.44806 204.15766 
L 103.718802 200.574652 
L 105.989545 196.807934 
L 108.260288 192.893278 
L 110.53103 188.843079 
L 112.801773 184.708215 
L 115.072516 180.541525 
L 117.343258 176.335967 
L 119.614001 172.114932 
L 121.884744 167.895605 
L 124.155486 163.686804 
L 126.426229 159.526229 
L 128.696972 155.434208 
L 130.967715 151.439244 
L 133.238457 147.547723 
L 135.5092 143.750152 
L 137.779943 140.037276 
L 140.050685 136.419575 
L 142.321428 132.873931 
L 144.592171 129.4043 
L 146.862913 125.999001 
L 149.133656 122.648937 
L 151.404399 119.358632 
L 153.675142 116.113253 
L 155.945884 112.915155 
L 158.216627 109.76856 
L 160.48737 106.682657 
L 162.758112 103.660737 
L 165.028855 100.697807 
L 167.299598 97.809601 
L 169.57034 94.986601 
L 171.841083 92.22167 
L 174.111826 89.503624 
L 176.382569 86.831074 
L 178.653311 84.207297 
L 180.924054 81.647795 
L 183.194797 79.147458 
L 185.465539 76.703778 
L 187.736282 74.31671 
L 190.007025 72.002371 
L 192.277767 69.763361 
L 194.54851 67.598084 
L 196.819253 65.501069 
L 199.089996 63.479734 
L 201.360738 61.533286 
L 203.631481 59.654645 
L 205.902224 57.83616 
L 208.172966 56.071779 
L 210.443709 54.354446 
L 212.714452 52.679927 
L 214.985194 51.060223 
L 217.255937 49.497457 
L 219.52668 47.991955 
L 221.797423 46.545619 
L 224.068165 45.162331 
L 226.338908 43.835013 
L 228.609651 42.565298 
L 230.880393 41.359961 
L 233.151136 40.227201 
L 235.421879 39.170273 
L 237.692621 38.210263 
L 239.963364 37.353235 
L 242.234107 36.605173 
L 244.504849 35.963335 
L 246.775592 35.432095 
L 249.046335 35.013413 
L 251.317078 34.687963 
L 253.58782 34.440817 
L 255.858563 34.252206 
L 258.129306 34.105174 
L 260.400048 33.987904 
L 262.670791 33.893786 
L 264.941534 33.816636 
L 267.212276 33.751441 
L 269.483019 33.694329 
L 271.753762 33.642872 
L 274.024505 33.595662 
L 276.295247 33.551984 
L 278.56599 33.511375 
L 280.836733 33.47403 
L 283.107475 33.440477 
L 285.378218 33.411005 
L 287.648961 33.382676 
L 289.919703 33.351525 
" clip-path="url(#pf3805a3299)" style="fill: none; stroke: #228833; stroke-width: 1.2; stroke-linecap: round"/>
   </g>
   <g id="line2d_17">
    <path d="M 65.116176 229.020545 
L 67.386919 229.020544 
L 69.657662 229.020521 
L 71.928404 229.020385 
L 74.199147 229.01991 
L 76.46989 229.018675 
L 78.740633 229.016 
L 81.011375 229.010902 
L 83.282118 229.00203 
L 85.552861 228.987747 
L 87.823603 228.966003 
L 90.094346 228.934156 
L 92.365089 228.889072 
L 94.635831 228.827029 
L 96.906574 228.744245 
L 99.177317 228.636204 
L 101.44806 228.498 
L 103.718802 228.325002 
L 105.989545 228.112259 
L 108.260288 227.853838 
L 110.53103 227.544241 
L 112.801773 227.178303 
L 115.072516 226.750418 
L 117.343258 226.254996 
L 119.614001 225.687918 
L 121.884744 225.045373 
L 124.155486 224.32246 
L 126.426229 223.514283 
L 128.696972 222.616958 
L 130.967715 221.625398 
L 133.238457 220.53254 
L 135.5092 219.334161 
L 137.779943 218.031278 
L 140.050685 216.625248 
L 142.321428 215.109326 
L 144.592171 213.479146 
L 146.862913 211.735555 
L 149.133656 209.879125 
L 151.404399 207.911548 
L 153.675142 205.834473 
L 155.945884 203.651055 
L 158.216627 201.357481 
L 160.48737 198.952099 
L 162.758112 196.433451 
L 165.028855 193.801106 
L 167.299598 191.061897 
L 169.57034 188.229652 
L 171.841083 185.307909 
L 174.111826 182.296558 
L 176.382569 179.196258 
L 178.653311 176.008312 
L 180.924054 172.734284 
L 183.194797 169.377117 
L 185.465539 165.937844 
L 187.736282 162.422203 
L 190.007025 158.836894 
L 192.277767 155.186187 
L 194.54851 151.473288 
L 196.819253 147.697905 
L 199.089996 143.866733 
L 201.360738 139.985663 
L 203.631481 136.059387 
L 205.902224 132.092035 
L 208.172966 128.091526 
L 210.443709 124.064787 
L 212.714452 120.018699 
L 214.985194 115.960786 
L 217.255937 111.903642 
L 219.52668 107.857753 
L 221.797423 103.827457 
L 224.068165 99.816182 
L 226.338908 95.829575 
L 228.609651 91.872965 
L 230.880393 87.952578 
L 233.151136 84.078785 
L 235.421879 80.260029 
L 237.692621 76.51315 
L 239.963364 72.853987 
L 242.234107 69.288546 
L 244.504849 65.822425 
L 246.775592 62.468291 
L 249.046335 59.240534 
L 251.317078 56.148404 
L 253.58782 53.202443 
L 255.858563 50.417173 
L 258.129306 47.80801 
L 260.400048 45.388916 
L 262.670791 43.170141 
L 264.941534 41.161367 
L 267.212276 39.376203 
L 269.483019 37.826907 
L 271.753762 36.521527 
L 274.024505 35.461625 
L 276.295247 34.642478 
L 278.56599 34.051291 
L 280.836733 33.666548 
L 283.107475 33.455871 
L 285.378218 33.371025 
L 287.648961 33.353496 
L 289.919703 33.351501 
" clip-path="url(#pf3805a3299)" style="fill: none; stroke-dasharray: 4.44,1.92; stroke-dashoffset: 0; stroke: #ccbb44; stroke-opacity: 0.5; stroke-width: 1.2"/>
   </g>
   <g id="line2d_18">
    <path d="M 65.116176 228.561598 
L 67.386919 228.391765 
L 69.657662 228.268171 
L 71.928404 228.150227 
L 74.199147 228.023864 
L 76.46989 227.884977 
L 78.740633 227.731595 
L 81.011375 227.561888 
L 83.282118 227.373503 
L 85.552861 227.163141 
L 87.823603 226.928005 
L 90.094346 226.664394 
L 92.365089 226.370081 
L 94.635831 226.042028 
L 96.906574 225.677016 
L 99.177317 225.271978 
L 101.44806 224.822851 
L 103.718802 224.327159 
L 105.989545 223.780763 
L 108.260288 223.179517 
L 110.53103 222.520858 
L 112.801773 221.803785 
L 115.072516 221.023478 
L 117.343258 220.176305 
L 119.614001 219.263946 
L 121.884744 218.291203 
L 124.155486 217.25782 
L 126.426229 216.161258 
L 128.696972 214.999843 
L 130.967715 213.767152 
L 133.238457 212.456935 
L 135.5092 211.070444 
L 137.779943 209.613361 
L 140.050685 208.085223 
L 142.321428 206.486211 
L 144.592171 204.807434 
L 146.862913 203.044354 
L 149.133656 201.199339 
L 151.404399 199.274881 
L 153.675142 197.270897 
L 155.945884 195.186259 
L 158.216627 193.020492 
L 160.48737 190.773509 
L 162.758112 188.44211 
L 165.028855 186.029337 
L 167.299598 183.533186 
L 169.57034 180.961295 
L 171.841083 178.31447 
L 174.111826 175.588522 
L 176.382569 172.791519 
L 178.653311 169.921145 
L 180.924054 166.976496 
L 183.194797 163.962174 
L 185.465539 160.870324 
L 187.736282 157.702975 
L 190.007025 154.463374 
L 192.277767 151.152929 
L 194.54851 147.775801 
L 196.819253 144.335945 
L 199.089996 140.830608 
L 201.360738 137.263785 
L 203.631481 133.632788 
L 205.902224 129.939762 
L 208.172966 126.189232 
L 210.443709 122.381917 
L 212.714452 118.515017 
L 214.985194 114.588648 
L 217.255937 110.6033 
L 219.52668 106.559475 
L 221.797423 102.462211 
L 224.068165 98.317701 
L 226.338908 94.12759 
L 228.609651 89.890233 
L 230.880393 85.603309 
L 233.151136 81.261838 
L 235.421879 76.896925 
L 237.692621 72.498412 
L 239.963364 68.110675 
L 242.234107 63.784727 
L 244.504849 59.602617 
L 246.775592 55.639102 
L 249.046335 51.985934 
L 251.317078 48.720798 
L 253.58782 45.900364 
L 255.858563 43.52967 
L 258.129306 41.569856 
L 260.400048 39.962514 
L 262.670791 38.649577 
L 264.941534 37.580356 
L 267.212276 36.711339 
L 269.483019 36.000527 
L 271.753762 35.418811 
L 274.024505 34.939086 
L 276.295247 34.539985 
L 278.56599 34.211025 
L 280.836733 33.943516 
L 283.107475 33.732303 
L 285.378218 33.571158 
L 287.648961 33.448827 
L 289.919703 33.351548 
" clip-path="url(#pf3805a3299)" style="fill: none; stroke: #ccbb44; stroke-width: 1.2; stroke-linecap: round"/>
   </g>
   <g id="line2d_19">
    <path d="M 65.116176 229.020545 
L 67.386919 229.020545 
L 69.657662 229.020545 
L 71.928404 229.020545 
L 74.199147 229.020545 
L 76.46989 229.020545 
L 78.740633 229.020545 
L 81.011375 229.020545 
L 83.282118 229.020545 
L 85.552861 229.020545 
L 87.823603 229.020545 
L 90.094346 229.020545 
L 92.365089 229.020545 
L 94.635831 229.020545 
L 96.906574 229.020545 
L 99.177317 229.020545 
L 101.44806 229.020545 
L 103.718802 229.020545 
L 105.989545 229.020545 
L 108.260288 229.020545 
L 110.53103 229.020545 
L 112.801773 229.020545 
L 115.072516 229.020545 
L 117.343258 229.020545 
L 119.614001 229.020545 
L 121.884744 229.020545 
L 124.155486 229.020545 
L 126.426229 229.020545 
L 128.696972 229.020545 
L 130.967715 229.020545 
L 133.238457 229.020545 
L 135.5092 229.020545 
L 137.779943 229.020545 
L 140.050685 229.020545 
L 142.321428 229.020545 
L 144.592171 229.020545 
L 146.862913 229.020545 
L 149.133656 229.020545 
L 151.404399 229.020545 
L 153.675142 229.020545 
L 155.945884 229.020545 
L 158.216627 229.020545 
L 160.48737 229.020545 
L 162.758112 229.020545 
L 165.028855 229.020544 
L 167.299598 229.020544 
L 169.57034 229.020543 
L 171.841083 229.020541 
L 174.111826 229.02054 
L 176.382569 229.020537 
L 178.653311 229.020533 
L 180.924054 229.020528 
L 183.194797 229.020521 
L 185.465539 229.02051 
L 187.736282 229.020495 
L 190.007025 229.020474 
L 192.277767 229.020444 
L 194.54851 229.020401 
L 196.819253 229.020341 
L 199.089996 229.020255 
L 201.360738 229.020132 
L 203.631481 229.019956 
L 205.902224 229.019703 
L 208.172966 229.01934 
L 210.443709 229.01882 
L 212.714452 229.018075 
L 214.985194 229.017009 
L 217.255937 229.015482 
L 219.52668 229.013291 
L 221.797423 229.010146 
L 224.068165 229.00564 
L 226.338908 228.999203 
L 228.609651 228.990032 
L 230.880393 228.976995 
L 233.151136 228.958498 
L 235.421879 228.932272 
L 237.692621 228.895056 
L 239.963364 228.842184 
L 242.234107 228.766983 
L 244.504849 228.65989 
L 246.775592 228.507226 
L 249.046335 228.289472 
L 251.317078 227.979475 
L 253.58782 227.540037 
L 255.858563 226.919262 
L 258.129306 226.043411 
L 260.400048 224.806746 
L 262.670791 223.059159 
L 264.941534 220.587487 
L 267.212276 217.098238 
L 269.483019 212.191385 
L 271.753762 205.33185 
L 274.024505 195.806629 
L 276.295247 182.693061 
L 278.56599 164.863719 
L 280.836733 141.140097 
L 283.107475 111.0186 
L 285.378218 76.159488 
L 287.648961 43.574618 
L 289.919703 33.351606 
" clip-path="url(#pf3805a3299)" style="fill: none; stroke-dasharray: 4.44,1.92; stroke-dashoffset: 0; stroke: #ee6677; stroke-opacity: 0.5; stroke-width: 1.2"/>
   </g>
   <g id="line2d_20">
    <path d="M 65.116176 228.810756 
L 67.386919 228.748171 
L 69.657662 228.680292 
L 71.928404 228.594006 
L 74.199147 228.496339 
L 76.46989 228.393587 
L 78.740633 228.290049 
L 81.011375 228.188509 
L 83.282118 228.090397 
L 85.552861 227.996748 
L 87.823603 227.907883 
L 90.094346 227.823787 
L 92.365089 227.74473 
L 94.635831 227.67057 
L 96.906574 227.601027 
L 99.177317 227.53542 
L 101.44806 227.473364 
L 103.718802 227.414206 
L 105.989545 227.357546 
L 108.260288 227.301969 
L 110.53103 227.246387 
L 112.801773 227.190311 
L 115.072516 227.133174 
L 117.343258 227.071893 
L 119.614001 227.006529 
L 121.884744 226.937541 
L 124.155486 226.864608 
L 126.426229 226.787132 
L 128.696972 226.705062 
L 130.967715 226.615769 
L 133.238457 226.516949 
L 135.5092 226.407455 
L 137.779943 226.287442 
L 140.050685 226.157307 
L 142.321428 226.013941 
L 144.592171 225.853128 
L 146.862913 225.674819 
L 149.133656 225.480883 
L 151.404399 225.269891 
L 153.675142 225.037691 
L 155.945884 224.784906 
L 158.216627 224.508357 
L 160.48737 224.203648 
L 162.758112 223.870857 
L 165.028855 223.511337 
L 167.299598 223.128301 
L 169.57034 222.724335 
L 171.841083 222.294658 
L 174.111826 221.832541 
L 176.382569 221.33708 
L 178.653311 220.805983 
L 180.924054 220.240168 
L 183.194797 219.635681 
L 185.465539 218.991125 
L 187.736282 218.308328 
L 190.007025 217.58735 
L 192.277767 216.825261 
L 194.54851 216.017145 
L 196.819253 215.16927 
L 199.089996 214.289754 
L 201.360738 213.372046 
L 203.631481 212.404124 
L 205.902224 211.3904 
L 208.172966 210.326018 
L 210.443709 209.212024 
L 212.714452 208.04796 
L 214.985194 206.834089 
L 217.255937 205.574032 
L 219.52668 204.269299 
L 221.797423 202.908468 
L 224.068165 201.499464 
L 226.338908 200.03123 
L 228.609651 198.507006 
L 230.880393 196.922276 
L 233.151136 195.262015 
L 235.421879 193.515519 
L 237.692621 191.660953 
L 239.963364 189.63995 
L 242.234107 187.356191 
L 244.504849 184.633372 
L 246.775592 181.284546 
L 249.046335 177.074571 
L 251.317078 171.702261 
L 253.58782 164.9157 
L 255.858563 156.570763 
L 258.129306 146.763191 
L 260.400048 135.710092 
L 262.670791 123.72835 
L 264.941534 111.205298 
L 267.212276 98.554608 
L 269.483019 86.188186 
L 271.753762 74.481132 
L 274.024505 63.770569 
L 276.295247 54.351822 
L 278.56599 46.477916 
L 280.836733 40.376625 
L 283.107475 36.244443 
L 285.378218 34.120743 
L 287.648961 33.502709 
L 289.919703 33.351501 
" clip-path="url(#pf3805a3299)" style="fill: none; stroke: #ee6677; stroke-width: 1.2; stroke-linecap: round"/>
   </g>
   <g id="patch_3">
    <path d="M 53.876 238.804 
L 53.876 23.568 
" style="fill: none; stroke: #262626; stroke-linejoin: miter; stroke-linecap: square"/>
   </g>
   <g id="patch_4">
    <path d="M 301.15988 238.804 
L 301.15988 23.568 
" style="fill: none; stroke: #262626; stroke-linejoin: miter; stroke-linecap: square"/>
   </g>
   <g id="patch_5">
    <path d="M 53.876 238.804 
L 301.15988 238.804 
" style="fill: none; stroke: #262626; stroke-linejoin: miter; stroke-linecap: square"/>
   </g>
   <g id="patch_6">
    <path d="M 53.876 23.568 
L 301.15988 23.568 
" style="fill: none; stroke: #262626; stroke-linejoin: miter; stroke-linecap: square"/>
   </g>
   <g id="text_13">
    <!-- Accuracy -->
    <g style="fill: #262626" transform="translate(155.60294 17.568) scale(0.096 -0.096)">
     <defs>
      <path id="DejaVuSans-41" d="M 2188 4044 
L 1331 1722 
L 3047 1722 
L 2188 4044 
z
M 1831 4666 
L 2547 4666 
L 4325 0 
L 3669 0 
L 3244 1197 
L 1141 1197 
L 716 0 
L 50 0 
L 1831 4666 
z
" transform="scale(0.015625)"/>
      <path id="DejaVuSans-63" d="M 3122 3366 
L 3122 2828 
Q 2878 2963 2633 3030 
Q 2388 3097 2138 3097 
Q 1578 3097 1268 2742 
Q 959 2388 959 1747 
Q 959 1106 1268 751 
Q 1578 397 2138 397 
Q 2388 397 2633 464 
Q 2878 531 3122 666 
L 3122 134 
Q 2881 22 2623 -34 
Q 2366 -91 2075 -91 
Q 1284 -91 818 406 
Q 353 903 353 1747 
Q 353 2603 823 3093 
Q 1294 3584 2113 3584 
Q 2378 3584 2631 3529 
Q 2884 3475 3122 3366 
z
" transform="scale(0.015625)"/>
      <path id="DejaVuSans-75" d="M 544 1381 
L 544 3500 
L 1119 3500 
L 1119 1403 
Q 1119 906 1312 657 
Q 1506 409 1894 409 
Q 2359 409 2629 706 
Q 2900 1003 2900 1516 
L 2900 3500 
L 3475 3500 
L 3475 0 
L 2900 0 
L 2900 538 
Q 2691 219 2414 64 
Q 2138 -91 1772 -91 
Q 1169 -91 856 284 
Q 544 659 544 1381 
z
M 1991 3584 
L 1991 3584 
z
" transform="scale(0.015625)"/>
      <path id="DejaVuSans-72" d="M 2631 2963 
Q 2534 3019 2420 3045 
Q 2306 3072 2169 3072 
Q 1681 3072 1420 2755 
Q 1159 2438 1159 1844 
L 1159 0 
L 581 0 
L 581 3500 
L 1159 3500 
L 1159 2956 
Q 1341 3275 1631 3429 
Q 1922 3584 2338 3584 
Q 2397 3584 2469 3576 
Q 2541 3569 2628 3553 
L 2631 2963 
z
" transform="scale(0.015625)"/>
      <path id="DejaVuSans-61" d="M 2194 1759 
Q 1497 1759 1228 1600 
Q 959 1441 959 1056 
Q 959 750 1161 570 
Q 1363 391 1709 391 
Q 2188 391 2477 730 
Q 2766 1069 2766 1631 
L 2766 1759 
L 2194 1759 
z
M 3341 1997 
L 3341 0 
L 2766 0 
L 2766 531 
Q 2569 213 2275 61 
Q 1981 -91 1556 -91 
Q 1019 -91 701 211 
Q 384 513 384 1019 
Q 384 1609 779 1909 
Q 1175 2209 1959 2209 
L 2766 2209 
L 2766 2266 
Q 2766 2663 2505 2880 
Q 2244 3097 1772 3097 
Q 1472 3097 1187 3025 
Q 903 2953 641 2809 
L 641 3341 
Q 956 3463 1253 3523 
Q 1550 3584 1831 3584 
Q 2591 3584 2966 3190 
Q 3341 2797 3341 1997 
z
" transform="scale(0.015625)"/>
      <path id="DejaVuSans-79" d="M 2059 -325 
Q 1816 -950 1584 -1140 
Q 1353 -1331 966 -1331 
L 506 -1331 
L 506 -850 
L 844 -850 
Q 1081 -850 1212 -737 
Q 1344 -625 1503 -206 
L 1606 56 
L 191 3500 
L 800 3500 
L 1894 763 
L 2988 3500 
L 3597 3500 
L 2059 -325 
z
" transform="scale(0.015625)"/>
     </defs>
     <use xlink:href="#DejaVuSans-41"/>
     <use xlink:href="#DejaVuSans-63" x="66.658203"/>
     <use xlink:href="#DejaVuSans-63" x="121.638672"/>
     <use xlink:href="#DejaVuSans-75" x="176.619141"/>
     <use xlink:href="#DejaVuSans-72" x="239.998047"/>
     <use xlink:href="#DejaVuSans-61" x="281.111328"/>
     <use xlink:href="#DejaVuSans-63" x="342.390625"/>
     <use xlink:href="#DejaVuSans-79" x="397.371094"/>
    </g>
   </g>
   <g id="legend_1">
    <g id="patch_7">
     <path d="M 60.036 95.966 
L 143.823 95.966 
Q 145.583 95.966 145.583 94.206 
L 145.583 29.728 
Q 145.583 27.968 143.823 27.968 
L 60.036 27.968 
Q 58.276 27.968 58.276 29.728 
L 58.276 94.206 
Q 58.276 95.966 60.036 95.966 
z
" style="fill: #ffffff; opacity: 0.8; stroke: #cccccc; stroke-width: 0.8; stroke-linejoin: miter"/>
    </g>
    <g id="text_14">
     <!-- Operation -->
     <g style="fill: #262626" transform="translate(78.04125 38.7825) scale(0.096 -0.096)">
      <defs>
       <path id="DejaVuSans-4f" d="M 2522 4238 
Q 1834 4238 1429 3725 
Q 1025 3213 1025 2328 
Q 1025 1447 1429 934 
Q 1834 422 2522 422 
Q 3209 422 3611 934 
Q 4013 1447 4013 2328 
Q 4013 3213 3611 3725 
Q 3209 4238 2522 4238 
z
M 2522 4750 
Q 3503 4750 4090 4092 
Q 4678 3434 4678 2328 
Q 4678 1225 4090 567 
Q 3503 -91 2522 -91 
Q 1538 -91 948 565 
Q 359 1222 359 2328 
Q 359 3434 948 4092 
Q 1538 4750 2522 4750 
z
" transform="scale(0.015625)"/>
       <path id="DejaVuSans-70" d="M 1159 525 
L 1159 -1331 
L 581 -1331 
L 581 3500 
L 1159 3500 
L 1159 2969 
Q 1341 3281 1617 3432 
Q 1894 3584 2278 3584 
Q 2916 3584 3314 3078 
Q 3713 2572 3713 1747 
Q 3713 922 3314 415 
Q 2916 -91 2278 -91 
Q 1894 -91 1617 61 
Q 1341 213 1159 525 
z
M 3116 1747 
Q 3116 2381 2855 2742 
Q 2594 3103 2138 3103 
Q 1681 3103 1420 2742 
Q 1159 2381 1159 1747 
Q 1159 1113 1420 752 
Q 1681 391 2138 391 
Q 2594 391 2855 752 
Q 3116 1113 3116 1747 
z
" transform="scale(0.015625)"/>
       <path id="DejaVuSans-65" d="M 3597 1894 
L 3597 1613 
L 953 1613 
Q 991 1019 1311 708 
Q 1631 397 2203 397 
Q 2534 397 2845 478 
Q 3156 559 3463 722 
L 3463 178 
Q 3153 47 2828 -22 
Q 2503 -91 2169 -91 
Q 1331 -91 842 396 
Q 353 884 353 1716 
Q 353 2575 817 3079 
Q 1281 3584 2069 3584 
Q 2775 3584 3186 3129 
Q 3597 2675 3597 1894 
z
M 3022 2063 
Q 3016 2534 2758 2815 
Q 2500 3097 2075 3097 
Q 1594 3097 1305 2825 
Q 1016 2553 972 2059 
L 3022 2063 
z
" transform="scale(0.015625)"/>
       <path id="DejaVuSans-74" d="M 1172 4494 
L 1172 3500 
L 2356 3500 
L 2356 3053 
L 1172 3053 
L 1172 1153 
Q 1172 725 1289 603 
Q 1406 481 1766 481 
L 2356 481 
L 2356 0 
L 1766 0 
Q 1100 0 847 248 
Q 594 497 594 1153 
L 594 3053 
L 172 3053 
L 172 3500 
L 594 3500 
L 594 4494 
L 1172 4494 
z
" transform="scale(0.015625)"/>
       <path id="DejaVuSans-69" d="M 603 3500 
L 1178 3500 
L 1178 0 
L 603 0 
L 603 3500 
z
M 603 4863 
L 1178 4863 
L 1178 4134 
L 603 4134 
L 603 4863 
z
" transform="scale(0.015625)"/>
       <path id="DejaVuSans-6f" d="M 1959 3097 
Q 1497 3097 1228 2736 
Q 959 2375 959 1747 
Q 959 1119 1226 758 
Q 1494 397 1959 397 
Q 2419 397 2687 759 
Q 2956 1122 2956 1747 
Q 2956 2369 2687 2733 
Q 2419 3097 1959 3097 
z
M 1959 3584 
Q 2709 3584 3137 3096 
Q 3566 2609 3566 1747 
Q 3566 888 3137 398 
Q 2709 -91 1959 -91 
Q 1206 -91 779 398 
Q 353 888 353 1747 
Q 353 2609 779 3096 
Q 1206 3584 1959 3584 
z
" transform="scale(0.015625)"/>
       <path id="DejaVuSans-6e" d="M 3513 2113 
L 3513 0 
L 2938 0 
L 2938 2094 
Q 2938 2591 2744 2837 
Q 2550 3084 2163 3084 
Q 1697 3084 1428 2787 
Q 1159 2491 1159 1978 
L 1159 0 
L 581 0 
L 581 3500 
L 1159 3500 
L 1159 2956 
Q 1366 3272 1645 3428 
Q 1925 3584 2291 3584 
Q 2894 3584 3203 3211 
Q 3513 2838 3513 2113 
z
" transform="scale(0.015625)"/>
      </defs>
      <use xlink:href="#DejaVuSans-4f"/>
      <use xlink:href="#DejaVuSans-70" x="78.710938"/>
      <use xlink:href="#DejaVuSans-65" x="142.1875"/>
      <use xlink:href="#DejaVuSans-72" x="203.710938"/>
      <use xlink:href="#DejaVuSans-61" x="244.824219"/>
      <use xlink:href="#DejaVuSans-74" x="306.103516"/>
      <use xlink:href="#DejaVuSans-69" x="345.3125"/>
      <use xlink:href="#DejaVuSans-6f" x="373.095703"/>
      <use xlink:href="#DejaVuSans-6e" x="434.277344"/>
     </g>
    </g>
    <g id="line2d_21">
     <path d="M 61.796 48.785625 
L 70.596 48.785625 
L 79.396 48.785625 
" style="fill: none; stroke: #66ccee; stroke-width: 1.2; stroke-linecap: round"/>
    </g>
    <g id="text_15">
     <!-- encoding -->
     <g style="fill: #262626" transform="translate(86.436 51.865625) scale(0.088 -0.088)">
      <defs>
       <path id="DejaVuSans-64" d="M 2906 2969 
L 2906 4863 
L 3481 4863 
L 3481 0 
L 2906 0 
L 2906 525 
Q 2725 213 2448 61 
Q 2172 -91 1784 -91 
Q 1150 -91 751 415 
Q 353 922 353 1747 
Q 353 2572 751 3078 
Q 1150 3584 1784 3584 
Q 2172 3584 2448 3432 
Q 2725 3281 2906 2969 
z
M 947 1747 
Q 947 1113 1208 752 
Q 1469 391 1925 391 
Q 2381 391 2643 752 
Q 2906 1113 2906 1747 
Q 2906 2381 2643 2742 
Q 2381 3103 1925 3103 
Q 1469 3103 1208 2742 
Q 947 2381 947 1747 
z
" transform="scale(0.015625)"/>
       <path id="DejaVuSans-67" d="M 2906 1791 
Q 2906 2416 2648 2759 
Q 2391 3103 1925 3103 
Q 1463 3103 1205 2759 
Q 947 2416 947 1791 
Q 947 1169 1205 825 
Q 1463 481 1925 481 
Q 2391 481 2648 825 
Q 2906 1169 2906 1791 
z
M 3481 434 
Q 3481 -459 3084 -895 
Q 2688 -1331 1869 -1331 
Q 1566 -1331 1297 -1286 
Q 1028 -1241 775 -1147 
L 775 -588 
Q 1028 -725 1275 -790 
Q 1522 -856 1778 -856 
Q 2344 -856 2625 -561 
Q 2906 -266 2906 331 
L 2906 616 
Q 2728 306 2450 153 
Q 2172 0 1784 0 
Q 1141 0 747 490 
Q 353 981 353 1791 
Q 353 2603 747 3093 
Q 1141 3584 1784 3584 
Q 2172 3584 2450 3431 
Q 2728 3278 2906 2969 
L 2906 3500 
L 3481 3500 
L 3481 434 
z
" transform="scale(0.015625)"/>
      </defs>
      <use xlink:href="#DejaVuSans-65"/>
      <use xlink:href="#DejaVuSans-6e" x="61.523438"/>
      <use xlink:href="#DejaVuSans-63" x="124.902344"/>
      <use xlink:href="#DejaVuSans-6f" x="179.882812"/>
      <use xlink:href="#DejaVuSans-64" x="241.064453"/>
      <use xlink:href="#DejaVuSans-69" x="304.541016"/>
      <use xlink:href="#DejaVuSans-6e" x="332.324219"/>
      <use xlink:href="#DejaVuSans-67" x="395.703125"/>
     </g>
    </g>
    <g id="line2d_22">
     <path d="M 61.796 61.702375 
L 70.596 61.702375 
L 79.396 61.702375 
" style="fill: none; stroke: #228833; stroke-width: 1.2; stroke-linecap: round"/>
    </g>
    <g id="text_16">
     <!-- decision -->
     <g style="fill: #262626" transform="translate(86.436 64.782375) scale(0.088 -0.088)">
      <defs>
       <path id="DejaVuSans-73" d="M 2834 3397 
L 2834 2853 
Q 2591 2978 2328 3040 
Q 2066 3103 1784 3103 
Q 1356 3103 1142 2972 
Q 928 2841 928 2578 
Q 928 2378 1081 2264 
Q 1234 2150 1697 2047 
L 1894 2003 
Q 2506 1872 2764 1633 
Q 3022 1394 3022 966 
Q 3022 478 2636 193 
Q 2250 -91 1575 -91 
Q 1294 -91 989 -36 
Q 684 19 347 128 
L 347 722 
Q 666 556 975 473 
Q 1284 391 1588 391 
Q 1994 391 2212 530 
Q 2431 669 2431 922 
Q 2431 1156 2273 1281 
Q 2116 1406 1581 1522 
L 1381 1569 
Q 847 1681 609 1914 
Q 372 2147 372 2553 
Q 372 3047 722 3315 
Q 1072 3584 1716 3584 
Q 2034 3584 2315 3537 
Q 2597 3491 2834 3397 
z
" transform="scale(0.015625)"/>
      </defs>
      <use xlink:href="#DejaVuSans-64"/>
      <use xlink:href="#DejaVuSans-65" x="63.476562"/>
      <use xlink:href="#DejaVuSans-63" x="125"/>
      <use xlink:href="#DejaVuSans-69" x="179.980469"/>
      <use xlink:href="#DejaVuSans-73" x="207.763672"/>
      <use xlink:href="#DejaVuSans-69" x="259.863281"/>
      <use xlink:href="#DejaVuSans-6f" x="287.646484"/>
      <use xlink:href="#DejaVuSans-6e" x="348.828125"/>
     </g>
    </g>
    <g id="line2d_23">
     <path d="M 61.796 74.619125 
L 70.596 74.619125 
L 79.396 74.619125 
" style="fill: none; stroke: #ccbb44; stroke-width: 1.2; stroke-linecap: round"/>
    </g>
    <g id="text_17">
     <!-- confirmation -->
     <g style="fill: #262626" transform="translate(86.436 77.699125) scale(0.088 -0.088)">
      <defs>
       <path id="DejaVuSans-66" d="M 2375 4863 
L 2375 4384 
L 1825 4384 
Q 1516 4384 1395 4259 
Q 1275 4134 1275 3809 
L 1275 3500 
L 2222 3500 
L 2222 3053 
L 1275 3053 
L 1275 0 
L 697 0 
L 697 3053 
L 147 3053 
L 147 3500 
L 697 3500 
L 697 3744 
Q 697 4328 969 4595 
Q 1241 4863 1831 4863 
L 2375 4863 
z
" transform="scale(0.015625)"/>
       <path id="DejaVuSans-6d" d="M 3328 2828 
Q 3544 3216 3844 3400 
Q 4144 3584 4550 3584 
Q 5097 3584 5394 3201 
Q 5691 2819 5691 2113 
L 5691 0 
L 5113 0 
L 5113 2094 
Q 5113 2597 4934 2840 
Q 4756 3084 4391 3084 
Q 3944 3084 3684 2787 
Q 3425 2491 3425 1978 
L 3425 0 
L 2847 0 
L 2847 2094 
Q 2847 2600 2669 2842 
Q 2491 3084 2119 3084 
Q 1678 3084 1418 2786 
Q 1159 2488 1159 1978 
L 1159 0 
L 581 0 
L 581 3500 
L 1159 3500 
L 1159 2956 
Q 1356 3278 1631 3431 
Q 1906 3584 2284 3584 
Q 2666 3584 2933 3390 
Q 3200 3197 3328 2828 
z
" transform="scale(0.015625)"/>
      </defs>
      <use xlink:href="#DejaVuSans-63"/>
      <use xlink:href="#DejaVuSans-6f" x="54.980469"/>
      <use xlink:href="#DejaVuSans-6e" x="116.162109"/>
      <use xlink:href="#DejaVuSans-66" x="179.541016"/>
      <use xlink:href="#DejaVuSans-69" x="214.746094"/>
      <use xlink:href="#DejaVuSans-72" x="242.529297"/>
      <use xlink:href="#DejaVuSans-6d" x="281.892578"/>
      <use xlink:href="#DejaVuSans-61" x="379.304688"/>
      <use xlink:href="#DejaVuSans-74" x="440.583984"/>
      <use xlink:href="#DejaVuSans-69" x="479.792969"/>
      <use xlink:href="#DejaVuSans-6f" x="507.576172"/>
      <use xlink:href="#DejaVuSans-6e" x="568.757812"/>
     </g>
    </g>
    <g id="line2d_24">
     <path d="M 61.796 87.535875 
L 70.596 87.535875 
L 79.396 87.535875 
" style="fill: none; stroke: #ee6677; stroke-width: 1.2; stroke-linecap: round"/>
    </g>
    <g id="text_18">
     <!-- response -->
     <g style="fill: #262626" transform="translate(86.436 90.615875) scale(0.088 -0.088)">
      <use xlink:href="#DejaVuSans-72"/>
      <use xlink:href="#DejaVuSans-65" x="38.863281"/>
      <use xlink:href="#DejaVuSans-73" x="100.386719"/>
      <use xlink:href="#DejaVuSans-70" x="152.486328"/>
      <use xlink:href="#DejaVuSans-6f" x="215.962891"/>
      <use xlink:href="#DejaVuSans-6e" x="277.144531"/>
      <use xlink:href="#DejaVuSans-73" x="340.523438"/>
      <use xlink:href="#DejaVuSans-65" x="392.623047"/>
     </g>
    </g>
   </g>
   <g id="legend_2">
    <g id="patch_8">
     <path d="M 247.32313 234.404 
L 294.99988 234.404 
Q 296.75988 234.404 296.75988 232.644 
L 296.75988 193.9995 
Q 296.75988 192.2395 294.99988 192.2395 
L 247.32313 192.2395 
Q 245.56313 192.2395 245.56313 193.9995 
L 245.56313 232.644 
Q 245.56313 234.404 247.32313 234.404 
z
" style="fill: #ffffff; opacity: 0.8; stroke: #cccccc; stroke-width: 0.8; stroke-linejoin: miter"/>
    </g>
    <g id="text_19">
     <!-- Source -->
     <g style="fill: #262626" transform="translate(254.677255 203.054) scale(0.096 -0.096)">
      <defs>
       <path id="DejaVuSans-53" d="M 3425 4513 
L 3425 3897 
Q 3066 4069 2747 4153 
Q 2428 4238 2131 4238 
Q 1616 4238 1336 4038 
Q 1056 3838 1056 3469 
Q 1056 3159 1242 3001 
Q 1428 2844 1947 2747 
L 2328 2669 
Q 3034 2534 3370 2195 
Q 3706 1856 3706 1288 
Q 3706 609 3251 259 
Q 2797 -91 1919 -91 
Q 1588 -91 1214 -16 
Q 841 59 441 206 
L 441 856 
Q 825 641 1194 531 
Q 1563 422 1919 422 
Q 2459 422 2753 634 
Q 3047 847 3047 1241 
Q 3047 1584 2836 1778 
Q 2625 1972 2144 2069 
L 1759 2144 
Q 1053 2284 737 2584 
Q 422 2884 422 3419 
Q 422 4038 858 4394 
Q 1294 4750 2059 4750 
Q 2388 4750 2728 4690 
Q 3069 4631 3425 4513 
z
" transform="scale(0.015625)"/>
      </defs>
      <use xlink:href="#DejaVuSans-53"/>
      <use xlink:href="#DejaVuSans-6f" x="63.476562"/>
      <use xlink:href="#DejaVuSans-75" x="124.658203"/>
      <use xlink:href="#DejaVuSans-72" x="188.037109"/>
      <use xlink:href="#DejaVuSans-63" x="226.900391"/>
      <use xlink:href="#DejaVuSans-65" x="281.880859"/>
     </g>
    </g>
    <g id="line2d_25">
     <path d="M 249.08313 213.057125 
L 257.88313 213.057125 
L 266.68313 213.057125 
" style="fill: none; stroke-dasharray: 4.44,1.92; stroke-dashoffset: 0; stroke: #000000; stroke-width: 1.2"/>
    </g>
    <g id="text_20">
     <!-- HMP -->
     <g style="fill: #262626" transform="translate(273.72313 216.137125) scale(0.088 -0.088)">
      <defs>
       <path id="DejaVuSans-48" d="M 628 4666 
L 1259 4666 
L 1259 2753 
L 3553 2753 
L 3553 4666 
L 4184 4666 
L 4184 0 
L 3553 0 
L 3553 2222 
L 1259 2222 
L 1259 0 
L 628 0 
L 628 4666 
z
" transform="scale(0.015625)"/>
       <path id="DejaVuSans-4d" d="M 628 4666 
L 1569 4666 
L 2759 1491 
L 3956 4666 
L 4897 4666 
L 4897 0 
L 4281 0 
L 4281 4097 
L 3078 897 
L 2444 897 
L 1241 4097 
L 1241 0 
L 628 0 
L 628 4666 
z
" transform="scale(0.015625)"/>
       <path id="DejaVuSans-50" d="M 1259 4147 
L 1259 2394 
L 2053 2394 
Q 2494 2394 2734 2622 
Q 2975 2850 2975 3272 
Q 2975 3691 2734 3919 
Q 2494 4147 2053 4147 
L 1259 4147 
z
M 628 4666 
L 2053 4666 
Q 2838 4666 3239 4311 
Q 3641 3956 3641 3272 
Q 3641 2581 3239 2228 
Q 2838 1875 2053 1875 
L 1259 1875 
L 1259 0 
L 628 0 
L 628 4666 
z
" transform="scale(0.015625)"/>
      </defs>
      <use xlink:href="#DejaVuSans-48"/>
      <use xlink:href="#DejaVuSans-4d" x="75.195312"/>
      <use xlink:href="#DejaVuSans-50" x="161.474609"/>
     </g>
    </g>
    <g id="line2d_26">
     <path d="M 249.08313 225.973875 
L 257.88313 225.973875 
L 266.68313 225.973875 
" style="fill: none; stroke: #000000; stroke-width: 1.2; stroke-linecap: round"/>
    </g>
    <g id="text_21">
     <!-- S4 -->
     <g style="fill: #262626" transform="translate(273.72313 229.053875) scale(0.088 -0.088)">
      <use xlink:href="#DejaVuSans-53"/>
      <use xlink:href="#DejaVuSans-34" x="63.476562"/>
     </g>
    </g>
   </g>
  </g>
  <g id="axes_2">
   <g id="patch_9">
    <path d="M 317.338 238.804 
L 564.62188 238.804 
L 564.62188 23.568 
L 317.338 23.568 
L 317.338 238.804 
z
" style="fill: none"/>
   </g>
   <g id="matplotlib.axis_3">
    <g id="xtick_7">
     <g id="line2d_27">
      <g>
       <use xlink:href="#m5de0717c65" x="328.578176" y="238.804" style="fill: #262626; stroke: #262626"/>
      </g>
     </g>
     <g id="text_22">
      <!-- 0 -->
      <g style="fill: #262626" transform="translate(325.778676 253.790625) scale(0.088 -0.088)">
       <use xlink:href="#DejaVuSans-30"/>
      </g>
     </g>
    </g>
    <g id="xtick_8">
     <g id="line2d_28">
      <g>
       <use xlink:href="#m5de0717c65" x="373.99303" y="238.804" style="fill: #262626; stroke: #262626"/>
      </g>
     </g>
     <g id="text_23">
      <!-- 20 -->
      <g style="fill: #262626" transform="translate(368.39403 253.790625) scale(0.088 -0.088)">
       <use xlink:href="#DejaVuSans-32"/>
       <use xlink:href="#DejaVuSans-30" x="63.623047"/>
      </g>
     </g>
    </g>
    <g id="xtick_9">
     <g id="line2d_29">
      <g>
       <use xlink:href="#m5de0717c65" x="419.407884" y="238.804" style="fill: #262626; stroke: #262626"/>
      </g>
     </g>
     <g id="text_24">
      <!-- 40 -->
      <g style="fill: #262626" transform="translate(413.808884 253.790625) scale(0.088 -0.088)">
       <use xlink:href="#DejaVuSans-34"/>
       <use xlink:href="#DejaVuSans-30" x="63.623047"/>
      </g>
     </g>
    </g>
    <g id="xtick_10">
     <g id="line2d_30">
      <g>
       <use xlink:href="#m5de0717c65" x="464.822738" y="238.804" style="fill: #262626; stroke: #262626"/>
      </g>
     </g>
     <g id="text_25">
      <!-- 60 -->
      <g style="fill: #262626" transform="translate(459.223738 253.790625) scale(0.088 -0.088)">
       <use xlink:href="#DejaVuSans-36"/>
       <use xlink:href="#DejaVuSans-30" x="63.623047"/>
      </g>
     </g>
    </g>
    <g id="xtick_11">
     <g id="line2d_31">
      <g>
       <use xlink:href="#m5de0717c65" x="510.237592" y="238.804" style="fill: #262626; stroke: #262626"/>
      </g>
     </g>
     <g id="text_26">
      <!-- 80 -->
      <g style="fill: #262626" transform="translate(504.638592 253.790625) scale(0.088 -0.088)">
       <use xlink:href="#DejaVuSans-38"/>
       <use xlink:href="#DejaVuSans-30" x="63.623047"/>
      </g>
     </g>
    </g>
    <g id="xtick_12">
     <g id="line2d_32">
      <g>
       <use xlink:href="#m5de0717c65" x="555.652446" y="238.804" style="fill: #262626; stroke: #262626"/>
      </g>
     </g>
     <g id="text_27">
      <!-- 100 -->
      <g style="fill: #262626" transform="translate(547.253946 253.790625) scale(0.088 -0.088)">
       <use xlink:href="#DejaVuSans-31"/>
       <use xlink:href="#DejaVuSans-30" x="63.623047"/>
       <use xlink:href="#DejaVuSans-30" x="127.246094"/>
      </g>
     </g>
    </g>
   </g>
   <g id="matplotlib.axis_4">
    <g id="ytick_7">
     <g id="line2d_33">
      <g>
       <use xlink:href="#m079a57c43c" x="317.338" y="229.020545" style="fill: #262626; stroke: #262626"/>
      </g>
     </g>
    </g>
    <g id="ytick_8">
     <g id="line2d_34">
      <g>
       <use xlink:href="#m079a57c43c" x="317.338" y="189.886741" style="fill: #262626; stroke: #262626"/>
      </g>
     </g>
    </g>
    <g id="ytick_9">
     <g id="line2d_35">
      <g>
       <use xlink:href="#m079a57c43c" x="317.338" y="150.752937" style="fill: #262626; stroke: #262626"/>
      </g>
     </g>
    </g>
    <g id="ytick_10">
     <g id="line2d_36">
      <g>
       <use xlink:href="#m079a57c43c" x="317.338" y="111.619133" style="fill: #262626; stroke: #262626"/>
      </g>
     </g>
    </g>
    <g id="ytick_11">
     <g id="line2d_37">
      <g>
       <use xlink:href="#m079a57c43c" x="317.338" y="72.485329" style="fill: #262626; stroke: #262626"/>
      </g>
     </g>
    </g>
    <g id="ytick_12">
     <g id="line2d_38">
      <g>
       <use xlink:href="#m079a57c43c" x="317.338" y="33.351525" style="fill: #262626; stroke: #262626"/>
      </g>
     </g>
    </g>
   </g>
   <g id="PolyCollection_9"/>
   <g id="PolyCollection_10"/>
   <g id="PolyCollection_11"/>
   <g id="PolyCollection_12"/>
   <g id="PolyCollection_13"/>
   <g id="PolyCollection_14"/>
   <g id="PolyCollection_15"/>
   <g id="PolyCollection_16"/>
   <g id="line2d_39">
    <path d="M 328.578176 228.110267 
L 330.848919 220.695842 
L 333.119662 209.031105 
L 335.390404 195.000442 
L 337.661147 180.065923 
L 339.93189 165.17459 
L 342.202633 150.900488 
L 344.473375 137.514191 
L 346.744118 125.128397 
L 349.014861 113.783997 
L 351.285603 103.461257 
L 353.556346 94.13481 
L 355.827089 85.768046 
L 358.097831 78.310898 
L 360.368574 71.717099 
L 362.639317 65.934236 
L 364.91006 60.894317 
L 367.180802 56.526383 
L 369.451545 52.765229 
L 371.722288 49.551981 
L 373.99303 46.831019 
L 376.263773 44.546268 
L 378.534516 42.639939 
L 380.805258 41.057288 
L 383.076001 39.748969 
L 385.346744 38.670348 
L 387.617486 37.782332 
L 389.888229 37.051764 
L 392.158972 36.450874 
L 394.429715 35.955894 
L 396.700457 35.546857 
L 398.9712 35.207097 
L 401.241943 34.923143 
L 403.512685 34.684476 
L 405.783428 34.482779 
L 408.054171 34.311616 
L 410.324913 34.165902 
L 412.595656 34.04167 
L 414.866399 33.93576 
L 417.137142 33.845467 
L 419.407884 33.768446 
L 421.678627 33.702749 
L 423.94937 33.646768 
L 426.220112 33.599137 
L 428.490855 33.558609 
L 430.761598 33.524122 
L 433.03234 33.494767 
L 435.303083 33.469785 
L 437.573826 33.448629 
L 439.844569 33.430843 
L 442.115311 33.41602 
L 444.386054 33.403762 
L 446.656797 33.393697 
L 448.927539 33.385475 
L 451.198282 33.378769 
L 453.469025 33.373322 
L 455.739767 33.368925 
L 458.01051 33.365392 
L 460.281253 33.362546 
L 462.551996 33.36026 
L 464.822738 33.358441 
L 467.093481 33.356971 
L 469.364224 33.355793 
L 471.634966 33.354848 
L 473.905709 33.354102 
L 476.176452 33.353496 
L 478.447194 33.353029 
L 480.717937 33.352656 
L 482.98868 33.352364 
L 485.259423 33.352143 
L 487.530165 33.351979 
L 489.800908 33.351839 
L 492.071651 33.351746 
L 494.342393 33.351676 
L 496.613136 33.351618 
L 498.883879 33.351571 
L 501.154621 33.351536 
L 503.425364 33.351525 
L 505.696107 33.351501 
L 507.966849 33.351478 
L 510.237592 33.351478 
L 512.508335 33.351478 
L 514.779078 33.351478 
L 517.04982 33.351455 
L 519.320563 33.351455 
L 521.591306 33.351455 
L 523.862048 33.351455 
L 526.132791 33.351455 
L 528.403534 33.351455 
L 530.674276 33.351455 
L 532.945019 33.351455 
L 535.215762 33.351455 
L 537.486505 33.351455 
L 539.757247 33.351455 
L 542.02799 33.351455 
L 544.298733 33.351455 
L 546.569475 33.351455 
L 548.840218 33.351455 
L 551.110961 33.351455 
L 553.381703 33.351455 
" clip-path="url(#p1d6d5c7a40)" style="fill: none; stroke-dasharray: 4.44,1.92; stroke-dashoffset: 0; stroke: #66ccee; stroke-opacity: 0.5; stroke-width: 1.2"/>
   </g>
   <g id="line2d_40">
    <path d="M 328.578176 228.644231 
L 330.848919 228.319615 
L 333.119662 227.564727 
L 335.390404 226.059375 
L 337.661147 223.756462 
L 339.93189 220.649499 
L 342.202633 216.807215 
L 344.473375 212.312792 
L 346.744118 207.242403 
L 349.014861 201.726518 
L 351.285603 195.871358 
L 353.556346 189.747327 
L 355.827089 183.449229 
L 358.097831 177.047956 
L 360.368574 170.616602 
L 362.639317 164.238734 
L 364.91006 157.975557 
L 367.180802 151.86465 
L 369.451545 145.953491 
L 371.722288 140.289192 
L 373.99303 134.903949 
L 376.263773 129.799214 
L 378.534516 124.977924 
L 380.805258 120.438244 
L 383.076001 116.180524 
L 385.346744 112.18461 
L 387.617486 108.430465 
L 389.888229 104.892992 
L 392.158972 101.548269 
L 394.429715 98.3785 
L 396.700457 95.365618 
L 398.9712 92.479056 
L 401.241943 89.701728 
L 403.512685 87.01741 
L 405.783428 84.405506 
L 408.054171 81.859229 
L 410.324913 79.368036 
L 412.595656 76.938002 
L 414.866399 74.576382 
L 417.137142 72.27956 
L 419.407884 70.056424 
L 421.678627 67.898564 
L 423.94937 65.803987 
L 426.220112 63.787177 
L 428.490855 61.85435 
L 430.761598 60.007327 
L 433.03234 58.24276 
L 435.303083 56.554012 
L 437.573826 54.940023 
L 439.844569 53.407102 
L 442.115311 51.959914 
L 444.386054 50.588989 
L 446.656797 49.291586 
L 448.927539 48.064976 
L 451.198282 46.903724 
L 453.469025 45.816392 
L 455.739767 44.799257 
L 458.01051 43.847691 
L 460.281253 42.962089 
L 462.551996 42.140924 
L 464.822738 41.37714 
L 467.093481 40.668533 
L 469.364224 40.01207 
L 471.634966 39.405278 
L 473.905709 38.844089 
L 476.176452 38.322156 
L 478.447194 37.838407 
L 480.717937 37.396982 
L 482.98868 37.002932 
L 485.259423 36.653072 
L 487.530165 36.346399 
L 489.800908 36.085199 
L 492.071651 35.864131 
L 494.342393 35.675147 
L 496.613136 35.519228 
L 498.883879 35.389642 
L 501.154621 35.278963 
L 503.425364 35.180191 
L 505.696107 35.089909 
L 507.966849 35.004642 
L 510.237592 34.919329 
L 512.508335 34.831812 
L 514.779078 34.740352 
L 517.04982 34.643737 
L 519.320563 34.542248 
L 521.591306 34.436595 
L 523.862048 34.327629 
L 526.132791 34.216285 
L 528.403534 34.103891 
L 530.674276 33.991916 
L 532.945019 33.883347 
L 535.215762 33.780587 
L 537.486505 33.68627 
L 539.757247 33.601551 
L 542.02799 33.527703 
L 544.298733 33.469319 
L 546.569475 33.430143 
L 548.840218 33.40375 
L 551.110961 33.379072 
L 553.381703 33.351525 
" clip-path="url(#p1d6d5c7a40)" style="fill: none; stroke: #66ccee; stroke-width: 1.2; stroke-linecap: round"/>
   </g>
   <g id="line2d_41">
    <path d="M 328.578176 229.020512 
L 330.848919 229.016035 
L 333.119662 228.989912 
L 335.390404 228.916378 
L 337.661147 228.764286 
L 339.93189 228.504814 
L 342.202633 228.111986 
L 344.473375 227.565481 
L 346.744118 226.843928 
L 349.014861 225.937716 
L 351.285603 224.82882 
L 353.556346 223.507608 
L 355.827089 221.970442 
L 358.097831 220.211185 
L 360.368574 218.218646 
L 362.639317 215.998046 
L 364.91006 213.538871 
L 367.180802 210.834165 
L 369.451545 207.88839 
L 371.722288 204.711742 
L 373.99303 201.309847 
L 376.263773 197.683369 
L 378.534516 193.827851 
L 380.805258 189.737116 
L 383.076001 185.436305 
L 385.346744 180.963263 
L 387.617486 176.351373 
L 389.888229 171.632448 
L 392.158972 166.835015 
L 394.429715 161.997777 
L 396.700457 157.164008 
L 398.9712 152.363788 
L 401.241943 147.620132 
L 403.512685 142.955724 
L 405.783428 138.395483 
L 408.054171 133.963002 
L 410.324913 129.675646 
L 412.595656 125.540665 
L 414.866399 121.560811 
L 417.137142 117.736678 
L 419.407884 114.062551 
L 421.678627 110.531061 
L 423.94937 107.131873 
L 426.220112 103.857698 
L 428.490855 100.701353 
L 430.761598 97.651488 
L 433.03234 94.698425 
L 435.303083 91.832576 
L 437.573826 89.046338 
L 439.844569 86.335044 
L 442.115311 83.694648 
L 444.386054 81.1222 
L 446.656797 78.618212 
L 448.927539 76.183711 
L 451.198282 73.818697 
L 453.469025 71.520021 
L 455.739767 69.286085 
L 458.01051 67.118405 
L 460.281253 65.018988 
L 462.551996 62.991075 
L 464.822738 61.036941 
L 467.093481 59.155361 
L 469.364224 57.34525 
L 471.634966 55.606726 
L 473.905709 53.939718 
L 476.176452 52.3432 
L 478.447194 50.81674 
L 480.717937 49.360804 
L 482.98868 47.974811 
L 485.259423 46.658211 
L 487.530165 45.410865 
L 489.800908 44.232516 
L 492.071651 43.12356 
L 494.342393 42.084604 
L 496.613136 41.114389 
L 498.883879 40.211795 
L 501.154621 39.375725 
L 503.425364 38.605608 
L 505.696107 37.900861 
L 507.966849 37.259245 
L 510.237592 36.677563 
L 512.508335 36.152692 
L 514.779078 35.681807 
L 517.04982 35.262693 
L 519.320563 34.893729 
L 521.591306 34.572839 
L 523.862048 34.297423 
L 526.132791 34.065089 
L 528.403534 33.873049 
L 530.674276 33.718214 
L 532.945019 33.597178 
L 535.215762 33.5065 
L 537.486505 33.442238 
L 539.757247 33.399668 
L 542.02799 33.373777 
L 544.298733 33.359805 
L 546.569475 33.353577 
L 548.840218 33.351676 
L 551.110961 33.351501 
L 553.381703 33.351501 
" clip-path="url(#p1d6d5c7a40)" style="fill: none; stroke-dasharray: 4.44,1.92; stroke-dashoffset: 0; stroke: #228833; stroke-opacity: 0.5; stroke-width: 1.2"/>
   </g>
   <g id="line2d_42">
    <path d="M 328.578176 228.827079 
L 330.848919 228.719957 
L 333.119662 228.611072 
L 335.390404 228.476693 
L 337.661147 228.294212 
L 339.93189 228.049811 
L 342.202633 227.726047 
L 344.473375 227.316296 
L 346.744118 226.815588 
L 349.014861 226.211956 
L 351.285603 225.495172 
L 353.556346 224.654173 
L 355.827089 223.689827 
L 358.097831 222.597874 
L 360.368574 221.360748 
L 362.639317 219.976569 
L 364.91006 218.441582 
L 367.180802 216.742885 
L 369.451545 214.879285 
L 371.722288 212.839253 
L 373.99303 210.629074 
L 376.263773 208.245309 
L 378.534516 205.680389 
L 380.805258 202.928396 
L 383.076001 200.010852 
L 385.346744 196.935484 
L 387.617486 193.722694 
L 389.888229 190.389223 
L 392.158972 186.947101 
L 394.429715 183.420349 
L 396.700457 179.824025 
L 398.9712 176.174769 
L 401.241943 172.492887 
L 403.512685 168.792671 
L 405.783428 165.089738 
L 408.054171 161.39642 
L 410.324913 157.725676 
L 412.595656 154.081278 
L 414.866399 150.461337 
L 417.137142 146.870728 
L 419.407884 143.310588 
L 421.678627 139.778829 
L 423.94937 136.271416 
L 426.220112 132.79891 
L 428.490855 129.35808 
L 430.761598 125.930459 
L 433.03234 122.512867 
L 435.303083 119.123744 
L 437.573826 115.750821 
L 439.844569 112.386108 
L 442.115311 109.029897 
L 444.386054 105.67988 
L 446.656797 102.345513 
L 448.927539 99.019136 
L 451.198282 95.701634 
L 453.469025 92.394116 
L 455.739767 89.111136 
L 458.01051 85.847085 
L 460.281253 82.592912 
L 462.551996 79.349865 
L 464.822738 76.120207 
L 467.093481 72.909397 
L 469.364224 69.718553 
L 471.634966 66.557437 
L 473.905709 63.424137 
L 476.176452 60.319971 
L 478.447194 57.264719 
L 480.717937 54.315458 
L 482.98868 51.51611 
L 485.259423 48.891646 
L 487.530165 46.485334 
L 489.800908 44.330705 
L 492.071651 42.401529 
L 494.342393 40.722543 
L 496.613136 39.295345 
L 498.883879 38.107152 
L 501.154621 37.146302 
L 503.425364 36.388012 
L 505.696107 35.799274 
L 507.966849 35.353954 
L 510.237592 35.017961 
L 512.508335 34.768261 
L 514.779078 34.578776 
L 517.04982 34.428384 
L 519.320563 34.302659 
L 521.591306 34.193787 
L 523.862048 34.096018 
L 526.132791 34.006495 
L 528.403534 33.923059 
L 530.674276 33.844884 
L 532.945019 33.771536 
L 535.215762 33.702563 
L 537.486505 33.638324 
L 539.757247 33.579497 
L 542.02799 33.526956 
L 544.298733 33.482579 
L 546.569475 33.446903 
L 548.840218 33.416731 
L 551.110961 33.3853 
L 553.381703 33.351525 
" clip-path="url(#p1d6d5c7a40)" style="fill: none; stroke: #228833; stroke-width: 1.2; stroke-linecap: round"/>
   </g>
   <g id="line2d_43">
    <path d="M 328.578176 229.020545 
L 330.848919 229.020545 
L 333.119662 229.020545 
L 335.390404 229.020545 
L 337.661147 229.020545 
L 339.93189 229.020545 
L 342.202633 229.020545 
L 344.473375 229.020545 
L 346.744118 229.020545 
L 349.014861 229.020545 
L 351.285603 229.020545 
L 353.556346 229.020545 
L 355.827089 229.020545 
L 358.097831 229.020545 
L 360.368574 229.020545 
L 362.639317 229.020545 
L 364.91006 229.020545 
L 367.180802 229.020545 
L 369.451545 229.020545 
L 371.722288 229.020545 
L 373.99303 229.020545 
L 376.263773 229.020545 
L 378.534516 229.020545 
L 380.805258 229.020545 
L 383.076001 229.020545 
L 385.346744 229.020545 
L 387.617486 229.020545 
L 389.888229 229.020545 
L 392.158972 229.020545 
L 394.429715 229.020545 
L 396.700457 229.020545 
L 398.9712 229.020545 
L 401.241943 229.020545 
L 403.512685 229.020545 
L 405.783428 229.020545 
L 408.054171 229.020545 
L 410.324913 229.020545 
L 412.595656 229.020545 
L 414.866399 229.020545 
L 417.137142 229.020545 
L 419.407884 229.020545 
L 421.678627 229.020545 
L 423.94937 229.020545 
L 426.220112 229.020545 
L 428.490855 229.020545 
L 430.761598 229.020545 
L 433.03234 229.020545 
L 435.303083 229.020545 
L 437.573826 229.020545 
L 439.844569 229.020545 
L 442.115311 229.020545 
L 444.386054 229.020545 
L 446.656797 229.020545 
L 448.927539 229.020545 
L 451.198282 229.020545 
L 453.469025 229.020545 
L 455.739767 229.020545 
L 458.01051 229.020545 
L 460.281253 229.020545 
L 462.551996 229.020545 
L 464.822738 229.020545 
L 467.093481 229.020545 
L 469.364224 229.020545 
L 471.634966 229.020545 
L 473.905709 229.020545 
L 476.176452 229.020545 
L 478.447194 229.020545 
L 480.717937 229.020545 
L 482.98868 229.020545 
L 485.259423 229.020545 
L 487.530165 229.020545 
L 489.800908 229.020545 
L 492.071651 229.020545 
L 494.342393 229.020545 
L 496.613136 229.020545 
L 498.883879 229.020545 
L 501.154621 229.020545 
L 503.425364 229.020545 
L 505.696107 229.020545 
L 507.966849 229.020545 
L 510.237592 229.020545 
L 512.508335 229.020545 
L 514.779078 229.020545 
L 517.04982 229.020545 
L 519.320563 229.020545 
L 521.591306 229.020545 
L 523.862048 229.020545 
L 526.132791 229.020545 
L 528.403534 229.020545 
L 530.674276 229.020545 
L 532.945019 229.020545 
L 535.215762 229.020545 
L 537.486505 229.020545 
L 539.757247 229.020545 
L 542.02799 229.020545 
L 544.298733 229.020545 
L 546.569475 229.020545 
L 548.840218 229.020545 
L 551.110961 229.020545 
L 553.381703 229.020545 
" clip-path="url(#p1d6d5c7a40)" style="fill: none; stroke-dasharray: 4.44,1.92; stroke-dashoffset: 0; stroke: #ccbb44; stroke-opacity: 0.5; stroke-width: 1.2"/>
   </g>
   <g id="line2d_44">
    <path d="M 328.578176 228.065343 
L 330.848919 227.644391 
L 333.119662 227.377391 
L 335.390404 227.163734 
L 337.661147 226.96348 
L 339.93189 226.757689 
L 342.202633 226.540776 
L 344.473375 226.310481 
L 346.744118 226.065846 
L 349.014861 225.806364 
L 351.285603 225.531099 
L 353.556346 225.238576 
L 355.827089 224.927485 
L 358.097831 224.596342 
L 360.368574 224.243429 
L 362.639317 223.866906 
L 364.91006 223.463288 
L 367.180802 223.029601 
L 369.451545 222.563605 
L 371.722288 222.063546 
L 373.99303 221.527426 
L 376.263773 220.950697 
L 378.534516 220.330926 
L 380.805258 219.668149 
L 383.076001 218.961787 
L 385.346744 218.208293 
L 387.617486 217.404997 
L 389.888229 216.551543 
L 392.158972 215.646089 
L 394.429715 214.687254 
L 396.700457 213.674107 
L 398.9712 212.606281 
L 401.241943 211.481227 
L 403.512685 210.297065 
L 405.783428 209.053041 
L 408.054171 207.749912 
L 410.324913 206.385123 
L 412.595656 204.957302 
L 414.866399 203.468625 
L 417.137142 201.91446 
L 419.407884 200.290438 
L 421.678627 198.596308 
L 423.94937 196.828869 
L 426.220112 194.983826 
L 428.490855 193.05858 
L 430.761598 191.046491 
L 433.03234 188.947659 
L 435.303083 186.759109 
L 437.573826 184.477799 
L 439.844569 182.099358 
L 442.115311 179.621821 
L 444.386054 177.0449 
L 446.656797 174.362805 
L 448.927539 171.575545 
L 451.198282 168.681595 
L 453.469025 165.681035 
L 455.739767 162.569947 
L 458.01051 159.344791 
L 460.281253 156.006127 
L 462.551996 152.548655 
L 464.822738 148.961877 
L 467.093481 145.251193 
L 469.364224 141.409286 
L 471.634966 137.429898 
L 473.905709 133.315181 
L 476.176452 129.065496 
L 478.447194 124.672919 
L 480.717937 120.120445 
L 482.98868 115.420379 
L 485.259423 110.577047 
L 487.530165 105.57804 
L 489.800908 100.459117 
L 492.071651 95.261493 
L 494.342393 89.973937 
L 496.613136 84.678637 
L 498.883879 79.448626 
L 501.154621 74.379176 
L 503.425364 69.555577 
L 505.696107 65.040424 
L 507.966849 60.903857 
L 510.237592 57.175242 
L 512.508335 53.862977 
L 514.779078 50.937403 
L 517.04982 48.376862 
L 519.320563 46.137561 
L 521.591306 44.182121 
L 523.862048 42.467657 
L 526.132791 40.965176 
L 528.403534 39.643048 
L 530.674276 38.476933 
L 532.945019 37.451447 
L 535.215762 36.554614 
L 537.486505 35.780392 
L 539.757247 35.124069 
L 542.02799 34.582613 
L 544.298733 34.162426 
L 546.569475 33.85952 
L 548.840218 33.650733 
L 551.110961 33.48904 
L 553.381703 33.351478 
" clip-path="url(#p1d6d5c7a40)" style="fill: none; stroke: #ccbb44; stroke-width: 1.2; stroke-linecap: round"/>
   </g>
   <g id="line2d_45">
    <path d="M 328.578176 229.020545 
L 330.848919 229.020545 
L 333.119662 229.020545 
L 335.390404 229.020545 
L 337.661147 229.020545 
L 339.93189 229.020545 
L 342.202633 229.020545 
L 344.473375 229.020545 
L 346.744118 229.020545 
L 349.014861 229.020545 
L 351.285603 229.020545 
L 353.556346 229.020545 
L 355.827089 229.020545 
L 358.097831 229.020545 
L 360.368574 229.020545 
L 362.639317 229.020545 
L 364.91006 229.020545 
L 367.180802 229.020545 
L 369.451545 229.020545 
L 371.722288 229.020545 
L 373.99303 229.020545 
L 376.263773 229.020544 
L 378.534516 229.020543 
L 380.805258 229.020543 
L 383.076001 229.020541 
L 385.346744 229.020539 
L 387.617486 229.020537 
L 389.888229 229.020533 
L 392.158972 229.020528 
L 394.429715 229.02052 
L 396.700457 229.02051 
L 398.9712 229.020496 
L 401.241943 229.020476 
L 403.512685 229.020449 
L 405.783428 229.020413 
L 408.054171 229.020363 
L 410.324913 229.020297 
L 412.595656 229.020209 
L 414.866399 229.020093 
L 417.137142 229.01994 
L 419.407884 229.019741 
L 421.678627 229.019484 
L 423.94937 229.019153 
L 426.220112 229.018728 
L 428.490855 229.018183 
L 430.761598 229.017487 
L 433.03234 229.016598 
L 435.303083 229.015464 
L 437.573826 229.014017 
L 439.844569 229.012177 
L 442.115311 229.009838 
L 444.386054 229.006873 
L 446.656797 229.00313 
L 448.927539 228.998423 
L 451.198282 228.992531 
L 453.469025 228.985173 
L 455.739767 228.975996 
L 458.01051 228.964546 
L 460.281253 228.95026 
L 462.551996 228.932411 
L 464.822738 228.910059 
L 467.093481 228.88198 
L 469.364224 228.846617 
L 471.634966 228.801984 
L 473.905709 228.74556 
L 476.176452 228.674235 
L 478.447194 228.584303 
L 480.717937 228.471343 
L 482.98868 228.330472 
L 485.259423 228.155884 
L 487.530165 227.940249 
L 489.800908 227.674196 
L 492.071651 227.345783 
L 494.342393 226.939801 
L 496.613136 226.437643 
L 498.883879 225.817457 
L 501.154621 225.053412 
L 503.425364 224.114677 
L 505.696107 222.964735 
L 507.966849 221.561698 
L 510.237592 219.857357 
L 512.508335 217.796572 
L 514.779078 215.315528 
L 517.04982 212.335931 
L 519.320563 208.764523 
L 521.591306 204.490655 
L 523.862048 199.37821 
L 526.132791 193.270621 
L 528.403534 185.995929 
L 530.674276 177.353824 
L 532.945019 167.110595 
L 535.215762 155.00658 
L 537.486505 140.786721 
L 539.757247 124.268827 
L 542.02799 105.531786 
L 544.298733 85.216268 
L 546.569475 64.835906 
L 548.840218 46.923178 
L 551.110961 34.993341 
L 553.381703 33.35156 
" clip-path="url(#p1d6d5c7a40)" style="fill: none; stroke-dasharray: 4.44,1.92; stroke-dashoffset: 0; stroke: #ee6677; stroke-opacity: 0.5; stroke-width: 1.2"/>
   </g>
   <g id="line2d_46">
    <path d="M 328.578176 228.864979 
L 330.848919 228.811582 
L 333.119662 228.775182 
L 335.390404 228.733388 
L 337.661147 228.683454 
L 339.93189 228.627563 
L 342.202633 228.56789 
L 344.473375 228.506505 
L 346.744118 228.444296 
L 349.014861 228.382345 
L 351.285603 228.321455 
L 353.556346 228.261993 
L 355.827089 228.204365 
L 358.097831 228.148744 
L 360.368574 228.095421 
L 362.639317 228.044503 
L 364.91006 227.995992 
L 367.180802 227.949725 
L 369.451545 227.905557 
L 371.722288 227.863424 
L 373.99303 227.823224 
L 376.263773 227.784565 
L 378.534516 227.746943 
L 380.805258 227.710333 
L 383.076001 227.674716 
L 385.346744 227.639537 
L 387.617486 227.604251 
L 389.888229 227.568717 
L 392.158972 227.532413 
L 394.429715 227.495525 
L 396.700457 227.456899 
L 398.9712 227.417537 
L 401.241943 227.375984 
L 403.512685 227.331559 
L 405.783428 227.283568 
L 408.054171 227.235925 
L 410.324913 227.188261 
L 412.595656 227.139166 
L 414.866399 227.086936 
L 417.137142 227.030069 
L 419.407884 226.967541 
L 421.678627 226.900546 
L 423.94937 226.8295 
L 426.220112 226.752275 
L 428.490855 226.667453 
L 430.761598 226.574483 
L 433.03234 226.475203 
L 435.303083 226.369507 
L 437.573826 226.256497 
L 439.844569 226.136303 
L 442.115311 226.008978 
L 444.386054 225.873571 
L 446.656797 225.725308 
L 448.927539 225.565573 
L 451.198282 225.392436 
L 453.469025 225.203428 
L 455.739767 225.005821 
L 458.01051 224.797199 
L 460.281253 224.577976 
L 462.551996 224.345777 
L 464.822738 224.098076 
L 467.093481 223.833348 
L 469.364224 223.556297 
L 471.634966 223.260564 
L 473.905709 222.95397 
L 476.176452 222.634924 
L 478.447194 222.298828 
L 480.717937 221.94174 
L 482.98868 221.558277 
L 485.259423 221.139427 
L 487.530165 220.670907 
L 489.800908 220.1231 
L 492.071651 219.455425 
L 494.342393 218.594651 
L 496.613136 217.434178 
L 498.883879 215.834688 
L 501.154621 213.643766 
L 503.425364 210.647341 
L 505.696107 206.618413 
L 507.966849 201.377243 
L 510.237592 194.709584 
L 512.508335 186.527396 
L 514.779078 176.827868 
L 517.04982 165.727226 
L 519.320563 153.460707 
L 521.591306 140.329143 
L 523.862048 126.695992 
L 526.132791 112.929465 
L 528.403534 99.404941 
L 530.674276 86.459054 
L 532.945019 74.447158 
L 535.215762 63.634452 
L 537.486505 54.277437 
L 539.757247 46.564501 
L 542.02799 40.642046 
L 544.298733 36.618433 
L 546.569475 34.423171 
L 548.840218 33.602111 
L 551.110961 33.410002 
L 553.381703 33.351455 
" clip-path="url(#p1d6d5c7a40)" style="fill: none; stroke: #ee6677; stroke-width: 1.2; stroke-linecap: round"/>
   </g>
   <g id="patch_10">
    <path d="M 317.338 238.804 
L 317.338 23.568 
" style="fill: none; stroke: #262626; stroke-linejoin: miter; stroke-linecap: square"/>
   </g>
   <g id="patch_11">
    <path d="M 564.62188 238.804 
L 564.62188 23.568 
" style="fill: none; stroke: #262626; stroke-linejoin: miter; stroke-linecap: square"/>
   </g>
   <g id="patch_12">
    <path d="M 317.338 238.804 
L 564.62188 238.804 
" style="fill: none; stroke: #262626; stroke-linejoin: miter; stroke-linecap: square"/>
   </g>
   <g id="patch_13">
    <path d="M 317.338 23.568 
L 564.62188 23.568 
" style="fill: none; stroke: #262626; stroke-linejoin: miter; stroke-linecap: square"/>
   </g>
   <g id="text_28">
    <!-- Speed -->
    <g style="fill: #262626" transform="translate(425.93119 17.568) scale(0.096 -0.096)">
     <use xlink:href="#DejaVuSans-53"/>
     <use xlink:href="#DejaVuSans-70" x="63.476562"/>
     <use xlink:href="#DejaVuSans-65" x="126.953125"/>
     <use xlink:href="#DejaVuSans-65" x="188.476562"/>
     <use xlink:href="#DejaVuSans-64" x="250"/>
    </g>
   </g>
   <g id="legend_3"/>
  </g>
  <g id="text_29">
   <!-- Cumulative probability -->
   <g style="fill: #262626" transform="translate(20.2734 209.4363) rotate(-90) scale(0.1152 -0.1152)">
    <defs>
     <path id="DejaVuSans-43" d="M 4122 4306 
L 4122 3641 
Q 3803 3938 3442 4084 
Q 3081 4231 2675 4231 
Q 1875 4231 1450 3742 
Q 1025 3253 1025 2328 
Q 1025 1406 1450 917 
Q 1875 428 2675 428 
Q 3081 428 3442 575 
Q 3803 722 4122 1019 
L 4122 359 
Q 3791 134 3420 21 
Q 3050 -91 2638 -91 
Q 1578 -91 968 557 
Q 359 1206 359 2328 
Q 359 3453 968 4101 
Q 1578 4750 2638 4750 
Q 3056 4750 3426 4639 
Q 3797 4528 4122 4306 
z
" transform="scale(0.015625)"/>
     <path id="DejaVuSans-6c" d="M 603 4863 
L 1178 4863 
L 1178 0 
L 603 0 
L 603 4863 
z
" transform="scale(0.015625)"/>
     <path id="DejaVuSans-76" d="M 191 3500 
L 800 3500 
L 1894 563 
L 2988 3500 
L 3597 3500 
L 2284 0 
L 1503 0 
L 191 3500 
z
" transform="scale(0.015625)"/>
     <path id="DejaVuSans-20" transform="scale(0.015625)"/>
     <path id="DejaVuSans-62" d="M 3116 1747 
Q 3116 2381 2855 2742 
Q 2594 3103 2138 3103 
Q 1681 3103 1420 2742 
Q 1159 2381 1159 1747 
Q 1159 1113 1420 752 
Q 1681 391 2138 391 
Q 2594 391 2855 752 
Q 3116 1113 3116 1747 
z
M 1159 2969 
Q 1341 3281 1617 3432 
Q 1894 3584 2278 3584 
Q 2916 3584 3314 3078 
Q 3713 2572 3713 1747 
Q 3713 922 3314 415 
Q 2916 -91 2278 -91 
Q 1894 -91 1617 61 
Q 1341 213 1159 525 
L 1159 0 
L 581 0 
L 581 4863 
L 1159 4863 
L 1159 2969 
z
" transform="scale(0.015625)"/>
    </defs>
    <use xlink:href="#DejaVuSans-43"/>
    <use xlink:href="#DejaVuSans-75" x="69.824219"/>
    <use xlink:href="#DejaVuSans-6d" x="133.203125"/>
    <use xlink:href="#DejaVuSans-75" x="230.615234"/>
    <use xlink:href="#DejaVuSans-6c" x="293.994141"/>
    <use xlink:href="#DejaVuSans-61" x="321.777344"/>
    <use xlink:href="#DejaVuSans-74" x="383.056641"/>
    <use xlink:href="#DejaVuSans-69" x="422.265625"/>
    <use xlink:href="#DejaVuSans-76" x="450.048828"/>
    <use xlink:href="#DejaVuSans-65" x="509.228516"/>
    <use xlink:href="#DejaVuSans-20" x="570.751953"/>
    <use xlink:href="#DejaVuSans-70" x="602.539062"/>
    <use xlink:href="#DejaVuSans-72" x="666.015625"/>
    <use xlink:href="#DejaVuSans-6f" x="704.878906"/>
    <use xlink:href="#DejaVuSans-62" x="766.060547"/>
    <use xlink:href="#DejaVuSans-61" x="829.537109"/>
    <use xlink:href="#DejaVuSans-62" x="890.816406"/>
    <use xlink:href="#DejaVuSans-69" x="954.292969"/>
    <use xlink:href="#DejaVuSans-6c" x="982.076172"/>
    <use xlink:href="#DejaVuSans-69" x="1009.859375"/>
    <use xlink:href="#DejaVuSans-74" x="1037.642578"/>
    <use xlink:href="#DejaVuSans-79" x="1076.851562"/>
   </g>
  </g>
  <g id="text_30">
   <!-- Scaled time -->
   <g style="fill: #262626" transform="translate(254.0016 282.7242) scale(0.1152 -0.1152)">
    <use xlink:href="#DejaVuSans-53"/>
    <use xlink:href="#DejaVuSans-63" x="63.476562"/>
    <use xlink:href="#DejaVuSans-61" x="118.457031"/>
    <use xlink:href="#DejaVuSans-6c" x="179.736328"/>
    <use xlink:href="#DejaVuSans-65" x="207.519531"/>
    <use xlink:href="#DejaVuSans-64" x="269.042969"/>
    <use xlink:href="#DejaVuSans-20" x="332.519531"/>
    <use xlink:href="#DejaVuSans-74" x="364.306641"/>
    <use xlink:href="#DejaVuSans-69" x="403.515625"/>
    <use xlink:href="#DejaVuSans-6d" x="431.298828"/>
    <use xlink:href="#DejaVuSans-65" x="528.710938"/>
   </g>
  </g>
 </g>
 <defs>
  <clipPath id="pf3805a3299">
   <rect x="53.876" y="23.568" width="247.28388" height="215.236"/>
  </clipPath>
  <clipPath id="p1d6d5c7a40">
   <rect x="317.338" y="23.568" width="247.28388" height="215.236"/>
  </clipPath>
 </defs>
</svg>
