<?xml version="1.0" encoding="utf-8" standalone="no"?>
<!DOCTYPE svg PUBLIC "-//W3C//DTD SVG 1.1//EN"
  "http://www.w3.org/Graphics/SVG/1.1/DTD/svg11.dtd">
<svg xmlns:xlink="http://www.w3.org/1999/xlink" width="576pt" height="288pt" viewBox="0 0 576 288" xmlns="http://www.w3.org/2000/svg" version="1.1">
 <metadata>
  <rdf:RDF xmlns:dc="http://purl.org/dc/elements/1.1/" xmlns:cc="http://creativecommons.org/ns#" xmlns:rdf="http://www.w3.org/1999/02/22-rdf-syntax-ns#">
   <cc:Work>
    <dc:type rdf:resource="http://purl.org/dc/dcmitype/StillImage"/>
    <dc:date>2025-01-15T17:26:47.899680</dc:date>
    <dc:format>image/svg+xml</dc:format>
    <dc:creator>
     <cc:Agent>
      <dc:title>Matplotlib v3.10.0, https://matplotlib.org/</dc:title>
     </cc:Agent>
    </dc:creator>
   </cc:Work>
  </rdf:RDF>
 </metadata>
 <defs>
  <style type="text/css">*{stroke-linejoin: round; stroke-linecap: butt}</style>
 </defs>
 <g id="figure_1">
  <g id="patch_1">
   <path d="M 0 288 
L 576 288 
L 576 0 
L 0 0 
L 0 288 
z
" style="fill: none"/>
  </g>
  <g id="axes_1">
   <g id="patch_2">
    <path d="M 53.876 238.804 
L 301.15988 238.804 
L 301.15988 23.568 
L 53.876 23.568 
L 53.876 238.804 
z
" style="fill: none"/>
   </g>
   <g id="matplotlib.axis_1">
    <g id="xtick_1">
     <g id="line2d_1">
      <defs>
       <path id="mebd3617ee6" d="M 0 0 
L 0 4.8 
" style="stroke: #262626"/>
      </defs>
      <g>
       <use xlink:href="#mebd3617ee6" x="65.116176" y="238.804" style="fill: #262626; stroke: #262626"/>
      </g>
     </g>
     <g id="text_1">
      <!-- 0 -->
      <g style="fill: #262626" transform="translate(62.316676 253.790625) scale(0.088 -0.088)">
       <defs>
        <path id="DejaVuSans-30" d="M 2034 4250 
Q 1547 4250 1301 3770 
Q 1056 3291 1056 2328 
Q 1056 1369 1301 889 
Q 1547 409 2034 409 
Q 2525 409 2770 889 
Q 3016 1369 3016 2328 
Q 3016 3291 2770 3770 
Q 2525 4250 2034 4250 
z
M 2034 4750 
Q 2819 4750 3233 4129 
Q 3647 3509 3647 2328 
Q 3647 1150 3233 529 
Q 2819 -91 2034 -91 
Q 1250 -91 836 529 
Q 422 1150 422 2328 
Q 422 3509 836 4129 
Q 1250 4750 2034 4750 
z
" transform="scale(0.015625)"/>
       </defs>
       <use xlink:href="#DejaVuSans-30"/>
      </g>
     </g>
    </g>
    <g id="xtick_2">
     <g id="line2d_2">
      <g>
       <use xlink:href="#mebd3617ee6" x="110.53103" y="238.804" style="fill: #262626; stroke: #262626"/>
      </g>
     </g>
     <g id="text_2">
      <!-- 20 -->
      <g style="fill: #262626" transform="translate(104.93203 253.790625) scale(0.088 -0.088)">
       <defs>
        <path id="DejaVuSans-32" d="M 1228 531 
L 3431 531 
L 3431 0 
L 469 0 
L 469 531 
Q 828 903 1448 1529 
Q 2069 2156 2228 2338 
Q 2531 2678 2651 2914 
Q 2772 3150 2772 3378 
Q 2772 3750 2511 3984 
Q 2250 4219 1831 4219 
Q 1534 4219 1204 4116 
Q 875 4013 500 3803 
L 500 4441 
Q 881 4594 1212 4672 
Q 1544 4750 1819 4750 
Q 2544 4750 2975 4387 
Q 3406 4025 3406 3419 
Q 3406 3131 3298 2873 
Q 3191 2616 2906 2266 
Q 2828 2175 2409 1742 
Q 1991 1309 1228 531 
z
" transform="scale(0.015625)"/>
       </defs>
       <use xlink:href="#DejaVuSans-32"/>
       <use xlink:href="#DejaVuSans-30" transform="translate(63.623047 0)"/>
      </g>
     </g>
    </g>
    <g id="xtick_3">
     <g id="line2d_3">
      <g>
       <use xlink:href="#mebd3617ee6" x="155.945884" y="238.804" style="fill: #262626; stroke: #262626"/>
      </g>
     </g>
     <g id="text_3">
      <!-- 40 -->
      <g style="fill: #262626" transform="translate(150.346884 253.790625) scale(0.088 -0.088)">
       <defs>
        <path id="DejaVuSans-34" d="M 2419 4116 
L 825 1625 
L 2419 1625 
L 2419 4116 
z
M 2253 4666 
L 3047 4666 
L 3047 1625 
L 3713 1625 
L 3713 1100 
L 3047 1100 
L 3047 0 
L 2419 0 
L 2419 1100 
L 313 1100 
L 313 1709 
L 2253 4666 
z
" transform="scale(0.015625)"/>
       </defs>
       <use xlink:href="#DejaVuSans-34"/>
       <use xlink:href="#DejaVuSans-30" transform="translate(63.623047 0)"/>
      </g>
     </g>
    </g>
    <g id="xtick_4">
     <g id="line2d_4">
      <g>
       <use xlink:href="#mebd3617ee6" x="201.360738" y="238.804" style="fill: #262626; stroke: #262626"/>
      </g>
     </g>
     <g id="text_4">
      <!-- 60 -->
      <g style="fill: #262626" transform="translate(195.761738 253.790625) scale(0.088 -0.088)">
       <defs>
        <path id="DejaVuSans-36" d="M 2113 2584 
Q 1688 2584 1439 2293 
Q 1191 2003 1191 1497 
Q 1191 994 1439 701 
Q 1688 409 2113 409 
Q 2538 409 2786 701 
Q 3034 994 3034 1497 
Q 3034 2003 2786 2293 
Q 2538 2584 2113 2584 
z
M 3366 4563 
L 3366 3988 
Q 3128 4100 2886 4159 
Q 2644 4219 2406 4219 
Q 1781 4219 1451 3797 
Q 1122 3375 1075 2522 
Q 1259 2794 1537 2939 
Q 1816 3084 2150 3084 
Q 2853 3084 3261 2657 
Q 3669 2231 3669 1497 
Q 3669 778 3244 343 
Q 2819 -91 2113 -91 
Q 1303 -91 875 529 
Q 447 1150 447 2328 
Q 447 3434 972 4092 
Q 1497 4750 2381 4750 
Q 2619 4750 2861 4703 
Q 3103 4656 3366 4563 
z
" transform="scale(0.015625)"/>
       </defs>
       <use xlink:href="#DejaVuSans-36"/>
       <use xlink:href="#DejaVuSans-30" transform="translate(63.623047 0)"/>
      </g>
     </g>
    </g>
    <g id="xtick_5">
     <g id="line2d_5">
      <g>
       <use xlink:href="#mebd3617ee6" x="246.775592" y="238.804" style="fill: #262626; stroke: #262626"/>
      </g>
     </g>
     <g id="text_5">
      <!-- 80 -->
      <g style="fill: #262626" transform="translate(241.176592 253.790625) scale(0.088 -0.088)">
       <defs>
        <path id="DejaVuSans-38" d="M 2034 2216 
Q 1584 2216 1326 1975 
Q 1069 1734 1069 1313 
Q 1069 891 1326 650 
Q 1584 409 2034 409 
Q 2484 409 2743 651 
Q 3003 894 3003 1313 
Q 3003 1734 2745 1975 
Q 2488 2216 2034 2216 
z
M 1403 2484 
Q 997 2584 770 2862 
Q 544 3141 544 3541 
Q 544 4100 942 4425 
Q 1341 4750 2034 4750 
Q 2731 4750 3128 4425 
Q 3525 4100 3525 3541 
Q 3525 3141 3298 2862 
Q 3072 2584 2669 2484 
Q 3125 2378 3379 2068 
Q 3634 1759 3634 1313 
Q 3634 634 3220 271 
Q 2806 -91 2034 -91 
Q 1263 -91 848 271 
Q 434 634 434 1313 
Q 434 1759 690 2068 
Q 947 2378 1403 2484 
z
M 1172 3481 
Q 1172 3119 1398 2916 
Q 1625 2713 2034 2713 
Q 2441 2713 2670 2916 
Q 2900 3119 2900 3481 
Q 2900 3844 2670 4047 
Q 2441 4250 2034 4250 
Q 1625 4250 1398 4047 
Q 1172 3844 1172 3481 
z
" transform="scale(0.015625)"/>
       </defs>
       <use xlink:href="#DejaVuSans-38"/>
       <use xlink:href="#DejaVuSans-30" transform="translate(63.623047 0)"/>
      </g>
     </g>
    </g>
    <g id="xtick_6">
     <g id="line2d_6">
      <g>
       <use xlink:href="#mebd3617ee6" x="292.190446" y="238.804" style="fill: #262626; stroke: #262626"/>
      </g>
     </g>
     <g id="text_6">
      <!-- 100 -->
      <g style="fill: #262626" transform="translate(283.791946 253.790625) scale(0.088 -0.088)">
       <defs>
        <path id="DejaVuSans-31" d="M 794 531 
L 1825 531 
L 1825 4091 
L 703 3866 
L 703 4441 
L 1819 4666 
L 2450 4666 
L 2450 531 
L 3481 531 
L 3481 0 
L 794 0 
L 794 531 
z
" transform="scale(0.015625)"/>
       </defs>
       <use xlink:href="#DejaVuSans-31"/>
       <use xlink:href="#DejaVuSans-30" transform="translate(63.623047 0)"/>
       <use xlink:href="#DejaVuSans-30" transform="translate(127.246094 0)"/>
      </g>
     </g>
    </g>
   </g>
   <g id="matplotlib.axis_2">
    <g id="ytick_1">
     <g id="line2d_7">
      <defs>
       <path id="mbbdaa6bb4c" d="M 0 0 
L -4.8 0 
" style="stroke: #262626"/>
      </defs>
      <g>
       <use xlink:href="#mbbdaa6bb4c" x="53.876" y="229.020545" style="fill: #262626; stroke: #262626"/>
      </g>
     </g>
     <g id="text_7">
      <!-- 0.0 -->
      <g style="fill: #262626" transform="translate(31.58125 232.363858) scale(0.088 -0.088)">
       <defs>
        <path id="DejaVuSans-2e" d="M 684 794 
L 1344 794 
L 1344 0 
L 684 0 
L 684 794 
z
" transform="scale(0.015625)"/>
       </defs>
       <use xlink:href="#DejaVuSans-30"/>
       <use xlink:href="#DejaVuSans-2e" transform="translate(63.623047 0)"/>
       <use xlink:href="#DejaVuSans-30" transform="translate(95.410156 0)"/>
      </g>
     </g>
    </g>
    <g id="ytick_2">
     <g id="line2d_8">
      <g>
       <use xlink:href="#mbbdaa6bb4c" x="53.876" y="189.88676" style="fill: #262626; stroke: #262626"/>
      </g>
     </g>
     <g id="text_8">
      <!-- 0.2 -->
      <g style="fill: #262626" transform="translate(31.58125 193.230072) scale(0.088 -0.088)">
       <use xlink:href="#DejaVuSans-30"/>
       <use xlink:href="#DejaVuSans-2e" transform="translate(63.623047 0)"/>
       <use xlink:href="#DejaVuSans-32" transform="translate(95.410156 0)"/>
      </g>
     </g>
    </g>
    <g id="ytick_3">
     <g id="line2d_9">
      <g>
       <use xlink:href="#mbbdaa6bb4c" x="53.876" y="150.752974" style="fill: #262626; stroke: #262626"/>
      </g>
     </g>
     <g id="text_9">
      <!-- 0.4 -->
      <g style="fill: #262626" transform="translate(31.58125 154.096287) scale(0.088 -0.088)">
       <use xlink:href="#DejaVuSans-30"/>
       <use xlink:href="#DejaVuSans-2e" transform="translate(63.623047 0)"/>
       <use xlink:href="#DejaVuSans-34" transform="translate(95.410156 0)"/>
      </g>
     </g>
    </g>
    <g id="ytick_4">
     <g id="line2d_10">
      <g>
       <use xlink:href="#mbbdaa6bb4c" x="53.876" y="111.619189" style="fill: #262626; stroke: #262626"/>
      </g>
     </g>
     <g id="text_10">
      <!-- 0.6 -->
      <g style="fill: #262626" transform="translate(31.58125 114.962501) scale(0.088 -0.088)">
       <use xlink:href="#DejaVuSans-30"/>
       <use xlink:href="#DejaVuSans-2e" transform="translate(63.623047 0)"/>
       <use xlink:href="#DejaVuSans-36" transform="translate(95.410156 0)"/>
      </g>
     </g>
    </g>
    <g id="ytick_5">
     <g id="line2d_11">
      <g>
       <use xlink:href="#mbbdaa6bb4c" x="53.876" y="72.485403" style="fill: #262626; stroke: #262626"/>
      </g>
     </g>
     <g id="text_11">
      <!-- 0.8 -->
      <g style="fill: #262626" transform="translate(31.58125 75.828716) scale(0.088 -0.088)">
       <use xlink:href="#DejaVuSans-30"/>
       <use xlink:href="#DejaVuSans-2e" transform="translate(63.623047 0)"/>
       <use xlink:href="#DejaVuSans-38" transform="translate(95.410156 0)"/>
      </g>
     </g>
    </g>
    <g id="ytick_6">
     <g id="line2d_12">
      <g>
       <use xlink:href="#mbbdaa6bb4c" x="53.876" y="33.351618" style="fill: #262626; stroke: #262626"/>
      </g>
     </g>
     <g id="text_12">
      <!-- 1.0 -->
      <g style="fill: #262626" transform="translate(31.58125 36.69493) scale(0.088 -0.088)">
       <use xlink:href="#DejaVuSans-31"/>
       <use xlink:href="#DejaVuSans-2e" transform="translate(63.623047 0)"/>
       <use xlink:href="#DejaVuSans-30" transform="translate(95.410156 0)"/>
      </g>
     </g>
    </g>
   </g>
   <g id="FillBetweenPolyCollection_1"/>
   <g id="FillBetweenPolyCollection_2"/>
   <g id="FillBetweenPolyCollection_3"/>
   <g id="FillBetweenPolyCollection_4"/>
   <g id="FillBetweenPolyCollection_5"/>
   <g id="FillBetweenPolyCollection_6"/>
   <g id="FillBetweenPolyCollection_7"/>
   <g id="FillBetweenPolyCollection_8"/>
   <g id="FillBetweenPolyCollection_9"/>
   <g id="FillBetweenPolyCollection_10"/>
   <g id="line2d_13">
    <path d="M 65.116176 226.289554 
L 67.386919 213.47344 
L 69.657662 196.499834 
L 71.928404 178.726394 
L 74.199147 161.545573 
L 76.46989 145.09683 
L 78.740633 129.767002 
L 81.011375 115.83992 
L 83.282118 103.369204 
L 85.552861 92.369759 
L 87.823603 82.629393 
L 90.094346 74.112195 
L 92.365089 66.848501 
L 94.635831 60.668827 
L 96.906574 55.435226 
L 99.177317 51.112663 
L 101.44806 47.562607 
L 103.718802 44.655531 
L 105.989545 42.319559 
L 108.260288 40.459299 
L 110.53103 38.996355 
L 112.801773 37.854756 
L 115.072516 36.955917 
L 117.343258 36.2546 
L 119.614001 35.713039 
L 121.884744 35.29431 
L 124.155486 34.962469 
L 126.426229 34.691613 
L 128.696972 34.471104 
L 130.967715 34.291428 
L 133.238457 34.141608 
L 135.5092 34.016583 
L 137.779943 33.910148 
L 140.050685 33.818164 
L 142.321428 33.74035 
L 144.592171 33.677348 
L 146.862913 33.623979 
L 149.133656 33.579777 
L 151.404399 33.544205 
L 153.675142 33.514069 
L 155.945884 33.488107 
L 158.216627 33.466356 
L 160.48737 33.448745 
L 162.758112 33.433129 
L 165.028855 33.415448 
L 167.299598 33.401418 
L 169.57034 33.392426 
L 171.841083 33.385848 
L 174.111826 33.380915 
L 176.382569 33.377089 
L 178.653311 33.373905 
L 180.924054 33.371025 
L 183.194797 33.368319 
L 185.465539 33.365811 
L 187.736282 33.363584 
L 190.007025 33.361869 
L 192.277767 33.360831 
L 194.54851 33.360097 
L 196.819253 33.359105 
L 199.089996 33.356633 
L 201.360738 33.353157 
L 203.631481 33.352341 
L 205.902224 33.352143 
L 208.172966 33.352003 
L 210.443709 33.351909 
L 212.714452 33.351863 
L 214.985194 33.351828 
L 217.255937 33.351804 
L 219.52668 33.351781 
L 221.797423 33.351769 
L 224.068165 33.351758 
L 226.338908 33.351746 
L 228.609651 33.351746 
L 230.880393 33.351746 
L 233.151136 33.351746 
L 235.421879 33.351734 
L 237.692621 33.351734 
L 239.963364 33.351734 
L 242.234107 33.351734 
L 244.504849 33.351734 
L 246.775592 33.351734 
L 249.046335 33.351734 
L 251.317078 33.351734 
L 253.58782 33.351734 
L 255.858563 33.351734 
L 258.129306 33.351734 
L 260.400048 33.351734 
L 262.670791 33.351734 
L 264.941534 33.351734 
L 267.212276 33.351734 
L 269.483019 33.351734 
L 271.753762 33.351734 
L 274.024505 33.351734 
L 276.295247 33.351734 
L 278.56599 33.351734 
L 280.836733 33.351734 
L 283.107475 33.351734 
L 285.378218 33.351734 
L 287.648961 33.351734 
L 289.919703 33.351734 
" clip-path="url(#pbb59dd88b1)" style="fill: none; stroke-dasharray: 4.44,1.92; stroke-dashoffset: 0; stroke: #66ccee; stroke-opacity: 0.5; stroke-width: 1.2"/>
   </g>
   <g id="line2d_14">
    <path d="M 65.116176 228.976722 
L 67.386919 228.656519 
L 69.657662 227.698812 
L 71.928404 225.960683 
L 74.199147 223.420906 
L 76.46989 220.006685 
L 78.740633 215.784912 
L 81.011375 210.944211 
L 83.282118 205.598252 
L 85.552861 199.869927 
L 87.823603 193.813243 
L 90.094346 187.537689 
L 92.365089 181.086824 
L 94.635831 174.619178 
L 96.906574 168.167803 
L 99.177317 161.816569 
L 101.44806 155.669673 
L 103.718802 149.738428 
L 105.989545 144.033237 
L 108.260288 138.589507 
L 110.53103 133.340774 
L 112.801773 128.301795 
L 115.072516 123.446021 
L 117.343258 118.709721 
L 119.614001 114.11145 
L 121.884744 109.569964 
L 124.155486 105.100812 
L 126.426229 100.756101 
L 128.696972 96.504494 
L 130.967715 92.329313 
L 133.238457 88.271226 
L 135.5092 84.37131 
L 137.779943 80.577199 
L 140.050685 76.933841 
L 142.321428 73.452082 
L 144.592171 70.136145 
L 146.862913 66.939961 
L 149.133656 63.886902 
L 151.404399 61.007502 
L 153.675142 58.319897 
L 155.945884 55.81843 
L 158.216627 53.499275 
L 160.48737 51.363296 
L 162.758112 49.417151 
L 165.028855 47.630309 
L 167.299598 45.995747 
L 169.57034 44.511496 
L 171.841083 43.185951 
L 174.111826 42.013994 
L 176.382569 40.972333 
L 178.653311 40.040407 
L 180.924054 39.210122 
L 183.194797 38.468171 
L 185.465539 37.805586 
L 187.736282 37.234285 
L 190.007025 36.744588 
L 192.277767 36.318885 
L 194.54851 35.946201 
L 196.819253 35.624751 
L 199.089996 35.352239 
L 201.360738 35.125654 
L 203.631481 34.936099 
L 205.902224 34.773264 
L 208.172966 34.628564 
L 210.443709 34.49983 
L 212.714452 34.387914 
L 214.985194 34.291521 
L 217.255937 34.208832 
L 219.52668 34.136651 
L 221.797423 34.072821 
L 224.068165 34.016093 
L 226.338908 33.967762 
L 228.609651 33.927409 
L 230.880393 33.892876 
L 233.151136 33.862891 
L 235.421879 33.836568 
L 237.692621 33.812741 
L 239.963364 33.791701 
L 242.234107 33.773367 
L 244.504849 33.757517 
L 246.775592 33.743545 
L 249.046335 33.731031 
L 251.317078 33.720103 
L 253.58782 33.710866 
L 255.858563 33.702819 
L 258.129306 33.69539 
L 260.400048 33.687751 
L 262.670791 33.678794 
L 264.941534 33.667749 
L 267.212276 33.652226 
L 269.483019 33.630475 
L 271.753762 33.602368 
L 274.024505 33.569583 
L 276.295247 33.532974 
L 278.56599 33.494685 
L 280.836733 33.455591 
L 283.107475 33.418772 
L 285.378218 33.389802 
L 287.648961 33.369369 
L 289.919703 33.351594 
" clip-path="url(#pbb59dd88b1)" style="fill: none; stroke: #66ccee; stroke-width: 1.2; stroke-linecap: round"/>
   </g>
   <g id="line2d_15">
    <path d="M 65.116176 229.019307 
L 67.386919 228.9218 
L 69.657662 228.538195 
L 71.928404 227.726257 
L 74.199147 226.305992 
L 76.46989 224.240935 
L 78.740633 221.464775 
L 81.011375 217.86441 
L 83.282118 213.507607 
L 85.552861 208.567032 
L 87.823603 202.956394 
L 90.094346 196.649094 
L 92.365089 189.726874 
L 94.635831 182.277098 
L 96.906574 174.670629 
L 99.177317 166.654878 
L 101.44806 158.336525 
L 103.718802 149.897211 
L 105.989545 141.476803 
L 108.260288 133.100159 
L 110.53103 124.7751 
L 112.801773 116.625326 
L 115.072516 108.796197 
L 117.343258 101.315552 
L 119.614001 94.208139 
L 121.884744 87.582399 
L 124.155486 81.515388 
L 126.426229 75.966565 
L 128.696972 70.906086 
L 130.967715 66.33037 
L 133.238457 62.230333 
L 135.5092 58.634839 
L 137.779943 55.48344 
L 140.050685 52.732541 
L 142.321428 50.329845 
L 144.592171 48.27757 
L 146.862913 46.511615 
L 149.133656 44.958635 
L 151.404399 43.589495 
L 153.675142 42.385068 
L 155.945884 41.33704 
L 158.216627 40.429722 
L 160.48737 39.618669 
L 162.758112 38.900161 
L 165.028855 38.255594 
L 167.299598 37.687395 
L 169.57034 37.192194 
L 171.841083 36.750058 
L 174.111826 36.34733 
L 176.382569 35.973119 
L 178.653311 35.639388 
L 180.924054 35.342629 
L 183.194797 35.078199 
L 185.465539 34.849387 
L 187.736282 34.651889 
L 190.007025 34.470918 
L 192.277767 34.314508 
L 194.54851 34.176946 
L 196.819253 34.056085 
L 199.089996 33.946443 
L 201.360738 33.851053 
L 203.631481 33.769647 
L 205.902224 33.701594 
L 208.172966 33.646231 
L 210.443709 33.599848 
L 212.714452 33.560475 
L 214.985194 33.526303 
L 217.255937 33.496143 
L 219.52668 33.470018 
L 221.797423 33.4452 
L 224.068165 33.413944 
L 226.338908 33.399692 
L 228.609651 33.389044 
L 230.880393 33.38095 
L 233.151136 33.374127 
L 235.421879 33.367724 
L 237.692621 33.362756 
L 239.963364 33.359677 
L 242.234107 33.357496 
L 244.504849 33.3557 
L 246.775592 33.354149 
L 249.046335 33.353064 
L 251.317078 33.352446 
L 253.58782 33.352131 
L 255.858563 33.351933 
L 258.129306 33.351804 
L 260.400048 33.351734 
L 262.670791 33.351688 
L 264.941534 33.351676 
L 267.212276 33.351664 
L 269.483019 33.351653 
L 271.753762 33.351653 
L 274.024505 33.351653 
L 276.295247 33.351653 
L 278.56599 33.351653 
L 280.836733 33.351653 
L 283.107475 33.351653 
L 285.378218 33.351653 
L 287.648961 33.351653 
L 289.919703 33.351653 
" clip-path="url(#pbb59dd88b1)" style="fill: none; stroke-dasharray: 4.44,1.92; stroke-dashoffset: 0; stroke: #228833; stroke-opacity: 0.5; stroke-width: 1.2"/>
   </g>
   <g id="line2d_16">
    <path d="M 65.116176 229.008871 
L 67.386919 228.988402 
L 69.657662 228.947499 
L 71.928404 228.854277 
L 74.199147 228.663366 
L 76.46989 228.341567 
L 78.740633 227.823145 
L 81.011375 227.040348 
L 83.282118 225.966057 
L 85.552861 224.576581 
L 87.823603 222.819109 
L 90.094346 220.6088 
L 92.365089 218.002558 
L 94.635831 214.999274 
L 96.906574 211.722841 
L 99.177317 208.012913 
L 101.44806 203.903752 
L 103.718802 199.474475 
L 105.989545 194.76836 
L 108.260288 189.793361 
L 110.53103 184.50612 
L 112.801773 178.983168 
L 115.072516 173.364252 
L 117.343258 167.657486 
L 119.614001 161.916 
L 121.884744 156.275829 
L 124.155486 150.719495 
L 126.426229 145.297604 
L 128.696972 140.014815 
L 130.967715 134.897224 
L 133.238457 129.918734 
L 135.5092 125.184918 
L 137.779943 120.663703 
L 140.050685 116.326608 
L 142.321428 112.154074 
L 144.592171 108.220849 
L 146.862913 104.426306 
L 149.133656 100.750106 
L 151.404399 97.215911 
L 153.675142 93.816538 
L 155.945884 90.546692 
L 158.216627 87.418945 
L 160.48737 84.330362 
L 162.758112 81.314053 
L 165.028855 78.4058 
L 167.299598 75.614512 
L 169.57034 72.945556 
L 171.841083 70.346681 
L 174.111826 67.828163 
L 176.382569 65.386455 
L 178.653311 63.044873 
L 180.924054 60.829867 
L 183.194797 58.737786 
L 185.465539 56.756222 
L 187.736282 54.875343 
L 190.007025 53.103219 
L 192.277767 51.438101 
L 194.54851 49.854972 
L 196.819253 48.376633 
L 199.089996 47.004589 
L 201.360738 45.73709 
L 203.631481 44.558847 
L 205.902224 43.459397 
L 208.172966 42.441948 
L 210.443709 41.513696 
L 212.714452 40.680239 
L 214.985194 39.928748 
L 217.255937 39.230555 
L 219.52668 38.598503 
L 221.797423 38.019469 
L 224.068165 37.488591 
L 226.338908 37.001134 
L 228.609651 36.564188 
L 230.880393 36.176506 
L 233.151136 35.837714 
L 235.421879 35.542051 
L 237.692621 35.281119 
L 239.963364 35.041834 
L 242.234107 34.826166 
L 244.504849 34.631153 
L 246.775592 34.457926 
L 249.046335 34.305925 
L 251.317078 34.174193 
L 253.58782 34.063152 
L 255.858563 33.969628 
L 258.129306 33.891849 
L 260.400048 33.827074 
L 262.670791 33.775175 
L 264.941534 33.733935 
L 267.212276 33.699215 
L 269.483019 33.666536 
L 271.753762 33.630848 
L 274.024505 33.593131 
L 276.295247 33.552066 
L 278.56599 33.510616 
L 280.836733 33.467826 
L 283.107475 33.427822 
L 285.378218 33.394129 
L 287.648961 33.368517 
L 289.919703 33.351676 
" clip-path="url(#pbb59dd88b1)" style="fill: none; stroke: #228833; stroke-width: 1.2; stroke-linecap: round"/>
   </g>
   <g id="line2d_17">
    <path d="M 65.116176 229.020545 
L 67.386919 229.020342 
L 69.657662 229.017255 
L 71.928404 229.005711 
L 74.199147 228.974251 
L 76.46989 228.901173 
L 78.740633 228.757178 
L 81.011375 228.484186 
L 83.282118 228.130624 
L 85.552861 227.641313 
L 87.823603 226.922322 
L 90.094346 226.028131 
L 92.365089 224.948109 
L 94.635831 223.682106 
L 96.906574 222.226765 
L 99.177317 220.489121 
L 101.44806 218.473141 
L 103.718802 216.074883 
L 105.989545 213.402903 
L 108.260288 210.519235 
L 110.53103 207.508244 
L 112.801773 204.227275 
L 115.072516 200.694127 
L 117.343258 196.873462 
L 119.614001 192.750653 
L 121.884744 188.390378 
L 124.155486 183.75839 
L 126.426229 178.936494 
L 128.696972 173.978641 
L 130.967715 168.771701 
L 133.238457 163.349011 
L 135.5092 157.831865 
L 137.779943 152.296985 
L 140.050685 146.779716 
L 142.321428 141.29873 
L 144.592171 135.873078 
L 146.862913 130.498794 
L 149.133656 125.169733 
L 151.404399 119.900047 
L 153.675142 114.708141 
L 155.945884 109.662508 
L 158.216627 104.792436 
L 160.48737 100.110566 
L 162.758112 95.620408 
L 165.028855 91.3272 
L 167.299598 87.241613 
L 169.57034 83.350362 
L 171.841083 79.651594 
L 174.111826 76.132165 
L 176.382569 72.781029 
L 178.653311 69.604462 
L 180.924054 66.629836 
L 183.194797 63.846024 
L 185.465539 61.248257 
L 187.736282 58.828546 
L 190.007025 56.579204 
L 192.277767 54.478855 
L 194.54851 52.513619 
L 196.819253 50.690692 
L 199.089996 49.007158 
L 201.360738 47.444544 
L 203.631481 46.008203 
L 205.902224 44.688758 
L 208.172966 43.474162 
L 210.443709 42.348692 
L 212.714452 41.304069 
L 214.985194 40.335417 
L 217.255937 39.451437 
L 219.52668 38.651394 
L 221.797423 37.935532 
L 224.068165 37.295864 
L 226.338908 36.726231 
L 228.609651 36.208812 
L 230.880393 35.754511 
L 233.151136 35.360041 
L 235.421879 35.014578 
L 237.692621 34.716303 
L 239.963364 34.460445 
L 242.234107 34.241091 
L 244.504849 34.053367 
L 246.775592 33.897156 
L 249.046335 33.771641 
L 251.317078 33.669697 
L 253.58782 33.586646 
L 255.858563 33.520087 
L 258.129306 33.468456 
L 260.400048 33.430435 
L 262.670791 33.403436 
L 264.941534 33.384227 
L 267.212276 33.371351 
L 269.483019 33.363024 
L 271.753762 33.357787 
L 274.024505 33.354673 
L 276.295247 33.352959 
L 278.56599 33.352119 
L 280.836733 33.351781 
L 283.107475 33.351676 
L 285.378218 33.351653 
L 287.648961 33.351653 
L 289.919703 33.351653 
" clip-path="url(#pbb59dd88b1)" style="fill: none; stroke-dasharray: 4.44,1.92; stroke-dashoffset: 0; stroke: #ccbb44; stroke-opacity: 0.5; stroke-width: 1.2"/>
   </g>
   <g id="line2d_18">
    <path d="M 65.116176 229.010217 
L 67.386919 228.999348 
L 69.657662 228.986389 
L 71.928404 228.971495 
L 74.199147 228.952376 
L 76.46989 228.925165 
L 78.740633 228.883351 
L 81.011375 228.802736 
L 83.282118 228.70119 
L 85.552861 228.556475 
L 87.823603 228.339834 
L 90.094346 228.077783 
L 92.365089 227.745136 
L 94.635831 227.356577 
L 96.906574 226.89467 
L 99.177317 226.312416 
L 101.44806 225.598066 
L 103.718802 224.737257 
L 105.989545 223.730631 
L 108.260288 222.600023 
L 110.53103 221.366116 
L 112.801773 219.951449 
L 115.072516 218.342136 
L 117.343258 216.521464 
L 119.614001 214.490597 
L 121.884744 212.252949 
L 124.155486 209.800597 
L 126.426229 207.140253 
L 128.696972 204.311413 
L 130.967715 201.234641 
L 133.238457 197.920179 
L 135.5092 194.41464 
L 137.779943 190.751837 
L 140.050685 186.958213 
L 142.321428 183.050885 
L 144.592171 179.032449 
L 146.862913 174.917955 
L 149.133656 170.676693 
L 151.404399 166.334974 
L 153.675142 161.909224 
L 155.945884 157.435593 
L 158.216627 152.945126 
L 160.48737 148.456549 
L 162.758112 143.994382 
L 165.028855 139.560375 
L 167.299598 135.153648 
L 169.57034 130.790865 
L 171.841083 126.496036 
L 174.111826 122.223319 
L 176.382569 117.992717 
L 178.653311 113.830878 
L 180.924054 109.758085 
L 183.194797 105.76622 
L 185.465539 101.850792 
L 187.736282 98.027209 
L 190.007025 94.310597 
L 192.277767 90.689223 
L 194.54851 87.168662 
L 196.819253 83.767808 
L 199.089996 80.4788 
L 201.360738 77.320625 
L 203.631481 74.286285 
L 205.902224 71.381321 
L 208.172966 68.59141 
L 210.443709 65.885634 
L 212.714452 63.275983 
L 214.985194 60.785431 
L 217.255937 58.425609 
L 219.52668 56.198765 
L 221.797423 54.106544 
L 224.068165 52.145903 
L 226.338908 50.312304 
L 228.609651 48.600547 
L 230.880393 47.005301 
L 233.151136 45.515719 
L 235.421879 44.127814 
L 237.692621 42.844209 
L 239.963364 41.665218 
L 242.234107 40.578924 
L 244.504849 39.578269 
L 246.775592 38.662193 
L 249.046335 37.820992 
L 251.317078 37.042339 
L 253.58782 36.328763 
L 255.858563 35.689643 
L 258.129306 35.140291 
L 260.400048 34.690213 
L 262.670791 34.338545 
L 264.941534 34.075958 
L 267.212276 33.891581 
L 269.483019 33.768212 
L 271.753762 33.68466 
L 274.024505 33.62076 
L 276.295247 33.563507 
L 278.56599 33.510407 
L 280.836733 33.459965 
L 283.107475 33.415005 
L 285.378218 33.380961 
L 287.648961 33.361764 
L 289.919703 33.351723 
" clip-path="url(#pbb59dd88b1)" style="fill: none; stroke: #ccbb44; stroke-width: 1.2; stroke-linecap: round"/>
   </g>
   <g id="line2d_19">
    <path d="M 65.116176 229.020545 
L 67.386919 229.020545 
L 69.657662 229.020545 
L 71.928404 229.020528 
L 74.199147 229.020438 
L 76.46989 229.020249 
L 78.740633 229.019479 
L 81.011375 229.018006 
L 83.282118 229.014533 
L 85.552861 229.004704 
L 87.823603 228.992212 
L 90.094346 228.960767 
L 92.365089 228.928072 
L 94.635831 228.894743 
L 96.906574 228.835562 
L 99.177317 228.76508 
L 101.44806 228.664395 
L 103.718802 228.53813 
L 105.989545 228.384925 
L 108.260288 228.202257 
L 110.53103 227.984039 
L 112.801773 227.704255 
L 115.072516 227.398502 
L 117.343258 227.020881 
L 119.614001 226.552633 
L 121.884744 226.028477 
L 124.155486 225.443111 
L 126.426229 224.798982 
L 128.696972 224.054695 
L 130.967715 223.254527 
L 133.238457 222.37751 
L 135.5092 221.389969 
L 137.779943 220.291217 
L 140.050685 219.137505 
L 142.321428 217.861855 
L 144.592171 216.44078 
L 146.862913 214.899506 
L 149.133656 213.237585 
L 151.404399 211.453435 
L 153.675142 209.570521 
L 155.945884 207.583991 
L 158.216627 205.441666 
L 160.48737 203.146894 
L 162.758112 200.778918 
L 165.028855 198.314133 
L 167.299598 195.71925 
L 169.57034 192.952749 
L 171.841083 190.081466 
L 174.111826 187.105963 
L 176.382569 184.02245 
L 178.653311 180.809328 
L 180.924054 177.499599 
L 183.194797 174.093391 
L 185.465539 170.591363 
L 187.736282 166.997268 
L 190.007025 163.331855 
L 192.277767 159.582739 
L 194.54851 155.746415 
L 196.819253 151.834194 
L 199.089996 147.873515 
L 201.360738 143.872961 
L 203.631481 139.850026 
L 205.902224 135.751307 
L 208.172966 131.596582 
L 210.443709 127.406059 
L 212.714452 123.184705 
L 214.985194 118.959071 
L 217.255937 114.738021 
L 219.52668 110.541439 
L 221.797423 106.401013 
L 224.068165 102.313128 
L 226.338908 98.292397 
L 228.609651 94.343299 
L 230.880393 90.437587 
L 233.151136 86.558209 
L 235.421879 82.732084 
L 237.692621 78.987108 
L 239.963364 75.330174 
L 242.234107 71.791244 
L 244.504849 68.332624 
L 246.775592 64.958478 
L 249.046335 61.699105 
L 251.317078 58.568606 
L 253.58782 55.585058 
L 255.858563 52.754933 
L 258.129306 50.073066 
L 260.400048 47.538348 
L 262.670791 45.179983 
L 264.941534 43.011698 
L 267.212276 41.054007 
L 269.483019 39.311472 
L 271.753762 37.801399 
L 274.024505 36.523322 
L 276.295247 35.473707 
L 278.56599 34.646956 
L 280.836733 34.039897 
L 283.107475 33.646103 
L 285.378218 33.434843 
L 287.648961 33.3564 
L 289.919703 33.351688 
" clip-path="url(#pbb59dd88b1)" style="fill: none; stroke-dasharray: 4.44,1.92; stroke-dashoffset: 0; stroke: #ee6677; stroke-opacity: 0.5; stroke-width: 1.2"/>
   </g>
   <g id="line2d_20">
    <path d="M 65.116176 229.002997 
L 67.386919 228.984663 
L 69.657662 228.967531 
L 71.928404 228.951562 
L 74.199147 228.937359 
L 76.46989 228.924487 
L 78.740633 228.911979 
L 81.011375 228.898944 
L 83.282118 228.884177 
L 85.552861 228.86448 
L 87.823603 228.844172 
L 90.094346 228.813413 
L 92.365089 228.779842 
L 94.635831 228.745682 
L 96.906574 228.694319 
L 99.177317 228.640884 
L 101.44806 228.568344 
L 103.718802 228.480417 
L 105.989545 228.371465 
L 108.260288 228.249829 
L 110.53103 228.101428 
L 112.801773 227.915626 
L 115.072516 227.71621 
L 117.343258 227.471472 
L 119.614001 227.172708 
L 121.884744 226.818448 
L 124.155486 226.410168 
L 126.426229 225.949188 
L 128.696972 225.40691 
L 130.967715 224.807606 
L 133.238457 224.133639 
L 135.5092 223.35097 
L 137.779943 222.458228 
L 140.050685 221.4725 
L 142.321428 220.349075 
L 144.592171 219.086994 
L 146.862913 217.680558 
L 149.133656 216.119966 
L 151.404399 214.390949 
L 153.675142 212.49986 
L 155.945884 210.437278 
L 158.216627 208.193317 
L 160.48737 205.761996 
L 162.758112 203.173843 
L 165.028855 200.423107 
L 167.299598 197.474078 
L 169.57034 194.300406 
L 171.841083 190.956548 
L 174.111826 187.449872 
L 176.382569 183.76367 
L 178.653311 179.896912 
L 180.924054 175.86993 
L 183.194797 171.721626 
L 185.465539 167.425059 
L 187.736282 162.999857 
L 190.007025 158.474239 
L 192.277767 153.855989 
L 194.54851 149.129147 
L 196.819253 144.31992 
L 199.089996 139.458909 
L 201.360738 134.568468 
L 203.631481 129.66676 
L 205.902224 124.75027 
L 208.172966 119.813101 
L 210.443709 114.910432 
L 212.714452 110.067662 
L 214.985194 105.311406 
L 217.255937 100.616742 
L 219.52668 96.012534 
L 221.797423 91.527124 
L 224.068165 87.182413 
L 226.338908 83.002427 
L 228.609651 78.985988 
L 230.880393 75.103345 
L 233.151136 71.343265 
L 235.421879 67.75464 
L 237.692621 64.346381 
L 239.963364 61.1061 
L 242.234107 58.048166 
L 244.504849 55.161897 
L 246.775592 52.434743 
L 249.046335 49.865154 
L 251.317078 47.457035 
L 253.58782 45.207565 
L 255.858563 43.132069 
L 258.129306 41.246175 
L 260.400048 39.568659 
L 262.670791 38.131082 
L 264.941534 36.949713 
L 267.212276 36.045754 
L 269.483019 35.365628 
L 271.753762 34.857072 
L 274.024505 34.478615 
L 276.295247 34.188597 
L 278.56599 33.95105 
L 280.836733 33.752794 
L 283.107475 33.590367 
L 285.378218 33.469342 
L 287.648961 33.391108 
L 289.919703 33.351653 
" clip-path="url(#pbb59dd88b1)" style="fill: none; stroke: #ee6677; stroke-width: 1.2; stroke-linecap: round"/>
   </g>
   <g id="line2d_21">
    <path d="M 65.116176 229.020545 
L 67.386919 229.020545 
L 69.657662 229.020545 
L 71.928404 229.020545 
L 74.199147 229.020545 
L 76.46989 229.020545 
L 78.740633 229.020545 
L 81.011375 229.020545 
L 83.282118 229.020545 
L 85.552861 229.020545 
L 87.823603 229.020545 
L 90.094346 229.020545 
L 92.365089 229.020545 
L 94.635831 229.020545 
L 96.906574 229.020545 
L 99.177317 229.020545 
L 101.44806 229.020545 
L 103.718802 229.020545 
L 105.989545 229.020545 
L 108.260288 229.020545 
L 110.53103 229.020545 
L 112.801773 229.020545 
L 115.072516 229.020545 
L 117.343258 229.020545 
L 119.614001 229.020545 
L 121.884744 229.020545 
L 124.155486 229.020545 
L 126.426229 229.020545 
L 128.696972 229.020545 
L 130.967715 229.020545 
L 133.238457 229.020545 
L 135.5092 229.020545 
L 137.779943 229.020545 
L 140.050685 229.020545 
L 142.321428 229.020545 
L 144.592171 229.020545 
L 146.862913 229.020545 
L 149.133656 229.020545 
L 151.404399 229.020544 
L 153.675142 229.020544 
L 155.945884 229.020543 
L 158.216627 229.020542 
L 160.48737 229.020541 
L 162.758112 229.020539 
L 165.028855 229.020536 
L 167.299598 229.020532 
L 169.57034 229.020527 
L 171.841083 229.020519 
L 174.111826 229.020509 
L 176.382569 229.020495 
L 178.653311 229.020475 
L 180.924054 229.020449 
L 183.194797 229.020413 
L 185.465539 229.020366 
L 187.736282 229.0203 
L 190.007025 229.02021 
L 192.277767 229.020085 
L 194.54851 229.019912 
L 196.819253 229.019674 
L 199.089996 229.019344 
L 201.360738 229.018886 
L 203.631481 229.018244 
L 205.902224 229.017344 
L 208.172966 229.016086 
L 210.443709 229.014332 
L 212.714452 229.011894 
L 214.985194 229.008507 
L 217.255937 229.003825 
L 219.52668 228.997355 
L 221.797423 228.988424 
L 224.068165 228.976143 
L 226.338908 228.959282 
L 228.609651 228.936137 
L 230.880393 228.904347 
L 233.151136 228.860711 
L 235.421879 228.801129 
L 237.692621 228.720029 
L 239.963364 228.609319 
L 242.234107 228.457472 
L 244.504849 228.248864 
L 246.775592 227.962488 
L 249.046335 227.570764 
L 251.317078 227.036961 
L 253.58782 226.312744 
L 255.858563 225.331328 
L 258.129306 224.002289 
L 260.400048 222.208799 
L 262.670791 219.808266 
L 264.941534 216.614323 
L 267.212276 212.384432 
L 269.483019 206.818792 
L 271.753762 199.524639 
L 274.024505 189.984989 
L 276.295247 177.605899 
L 278.56599 161.772309 
L 280.836733 141.841988 
L 283.107475 117.260691 
L 285.378218 88.202299 
L 287.648961 56.886985 
L 289.919703 33.351455 
" clip-path="url(#pbb59dd88b1)" style="fill: none; stroke-dasharray: 4.44,1.92; stroke-dashoffset: 0; stroke: #aa3377; stroke-opacity: 0.5; stroke-width: 1.2"/>
   </g>
   <g id="line2d_22">
    <path d="M 65.116176 229.015744 
L 67.386919 229.011916 
L 69.657662 229.008519 
L 71.928404 229.00537 
L 74.199147 229.002781 
L 76.46989 229.000656 
L 78.740633 228.998734 
L 81.011375 228.996794 
L 83.282118 228.994733 
L 85.552861 228.992423 
L 87.823603 228.989803 
L 90.094346 228.986936 
L 92.365089 228.98384 
L 94.635831 228.980399 
L 96.906574 228.976436 
L 99.177317 228.972065 
L 101.44806 228.966942 
L 103.718802 228.961005 
L 105.989545 228.95401 
L 108.260288 228.9462 
L 110.53103 228.937011 
L 112.801773 228.926571 
L 115.072516 228.914983 
L 117.343258 228.90231 
L 119.614001 228.887529 
L 121.884744 228.868634 
L 124.155486 228.847211 
L 126.426229 228.824775 
L 128.696972 228.798366 
L 130.967715 228.769811 
L 133.238457 228.737207 
L 135.5092 228.698816 
L 137.779943 228.654265 
L 140.050685 228.605476 
L 142.321428 228.547662 
L 144.592171 228.48003 
L 146.862913 228.404242 
L 149.133656 228.31883 
L 151.404399 228.219845 
L 153.675142 228.105677 
L 155.945884 227.974722 
L 158.216627 227.824012 
L 160.48737 227.653042 
L 162.758112 227.460444 
L 165.028855 227.237171 
L 167.299598 226.983294 
L 169.57034 226.692359 
L 171.841083 226.352877 
L 174.111826 225.961661 
L 176.382569 225.516123 
L 178.653311 225.003841 
L 180.924054 224.422485 
L 183.194797 223.761621 
L 185.465539 223.014302 
L 187.736282 222.157721 
L 190.007025 221.178776 
L 192.277767 220.077936 
L 194.54851 218.844995 
L 196.819253 217.454345 
L 199.089996 215.892868 
L 201.360738 214.137574 
L 203.631481 212.185973 
L 205.902224 210.015253 
L 208.172966 207.599784 
L 210.443709 204.935936 
L 212.714452 202.025669 
L 214.985194 198.860307 
L 217.255937 195.410125 
L 219.52668 191.671059 
L 221.797423 187.677549 
L 224.068165 183.43334 
L 226.338908 178.944284 
L 228.609651 174.227274 
L 230.880393 169.253415 
L 233.151136 163.989275 
L 235.421879 158.457596 
L 237.692621 152.709317 
L 239.963364 146.755504 
L 242.234107 140.627444 
L 244.504849 134.3427 
L 246.775592 127.893097 
L 249.046335 121.327443 
L 251.317078 114.657897 
L 253.58782 107.931298 
L 255.858563 101.114509 
L 258.129306 94.235629 
L 260.400048 87.430013 
L 262.670791 80.789601 
L 264.941534 74.459023 
L 267.212276 68.523567 
L 269.483019 62.956481 
L 271.753762 57.723544 
L 274.024505 52.812209 
L 276.295247 48.180489 
L 278.56599 43.908414 
L 280.836733 40.124449 
L 283.107475 36.967405 
L 285.378218 34.73326 
L 287.648961 33.628119 
L 289.919703 33.351641 
" clip-path="url(#pbb59dd88b1)" style="fill: none; stroke: #aa3377; stroke-width: 1.2; stroke-linecap: round"/>
   </g>
   <g id="patch_3">
    <path d="M 53.876 238.804 
L 53.876 23.568 
" style="fill: none; stroke: #262626; stroke-linejoin: miter; stroke-linecap: square"/>
   </g>
   <g id="patch_4">
    <path d="M 301.15988 238.804 
L 301.15988 23.568 
" style="fill: none; stroke: #262626; stroke-linejoin: miter; stroke-linecap: square"/>
   </g>
   <g id="patch_5">
    <path d="M 53.876 238.804 
L 301.15988 238.804 
" style="fill: none; stroke: #262626; stroke-linejoin: miter; stroke-linecap: square"/>
   </g>
   <g id="patch_6">
    <path d="M 53.876 23.568 
L 301.15988 23.568 
" style="fill: none; stroke: #262626; stroke-linejoin: miter; stroke-linecap: square"/>
   </g>
   <g id="text_13">
    <!-- Accuracy -->
    <g style="fill: #262626" transform="translate(155.60294 17.568) scale(0.096 -0.096)">
     <defs>
      <path id="DejaVuSans-41" d="M 2188 4044 
L 1331 1722 
L 3047 1722 
L 2188 4044 
z
M 1831 4666 
L 2547 4666 
L 4325 0 
L 3669 0 
L 3244 1197 
L 1141 1197 
L 716 0 
L 50 0 
L 1831 4666 
z
" transform="scale(0.015625)"/>
      <path id="DejaVuSans-63" d="M 3122 3366 
L 3122 2828 
Q 2878 2963 2633 3030 
Q 2388 3097 2138 3097 
Q 1578 3097 1268 2742 
Q 959 2388 959 1747 
Q 959 1106 1268 751 
Q 1578 397 2138 397 
Q 2388 397 2633 464 
Q 2878 531 3122 666 
L 3122 134 
Q 2881 22 2623 -34 
Q 2366 -91 2075 -91 
Q 1284 -91 818 406 
Q 353 903 353 1747 
Q 353 2603 823 3093 
Q 1294 3584 2113 3584 
Q 2378 3584 2631 3529 
Q 2884 3475 3122 3366 
z
" transform="scale(0.015625)"/>
      <path id="DejaVuSans-75" d="M 544 1381 
L 544 3500 
L 1119 3500 
L 1119 1403 
Q 1119 906 1312 657 
Q 1506 409 1894 409 
Q 2359 409 2629 706 
Q 2900 1003 2900 1516 
L 2900 3500 
L 3475 3500 
L 3475 0 
L 2900 0 
L 2900 538 
Q 2691 219 2414 64 
Q 2138 -91 1772 -91 
Q 1169 -91 856 284 
Q 544 659 544 1381 
z
M 1991 3584 
L 1991 3584 
z
" transform="scale(0.015625)"/>
      <path id="DejaVuSans-72" d="M 2631 2963 
Q 2534 3019 2420 3045 
Q 2306 3072 2169 3072 
Q 1681 3072 1420 2755 
Q 1159 2438 1159 1844 
L 1159 0 
L 581 0 
L 581 3500 
L 1159 3500 
L 1159 2956 
Q 1341 3275 1631 3429 
Q 1922 3584 2338 3584 
Q 2397 3584 2469 3576 
Q 2541 3569 2628 3553 
L 2631 2963 
z
" transform="scale(0.015625)"/>
      <path id="DejaVuSans-61" d="M 2194 1759 
Q 1497 1759 1228 1600 
Q 959 1441 959 1056 
Q 959 750 1161 570 
Q 1363 391 1709 391 
Q 2188 391 2477 730 
Q 2766 1069 2766 1631 
L 2766 1759 
L 2194 1759 
z
M 3341 1997 
L 3341 0 
L 2766 0 
L 2766 531 
Q 2569 213 2275 61 
Q 1981 -91 1556 -91 
Q 1019 -91 701 211 
Q 384 513 384 1019 
Q 384 1609 779 1909 
Q 1175 2209 1959 2209 
L 2766 2209 
L 2766 2266 
Q 2766 2663 2505 2880 
Q 2244 3097 1772 3097 
Q 1472 3097 1187 3025 
Q 903 2953 641 2809 
L 641 3341 
Q 956 3463 1253 3523 
Q 1550 3584 1831 3584 
Q 2591 3584 2966 3190 
Q 3341 2797 3341 1997 
z
" transform="scale(0.015625)"/>
      <path id="DejaVuSans-79" d="M 2059 -325 
Q 1816 -950 1584 -1140 
Q 1353 -1331 966 -1331 
L 506 -1331 
L 506 -850 
L 844 -850 
Q 1081 -850 1212 -737 
Q 1344 -625 1503 -206 
L 1606 56 
L 191 3500 
L 800 3500 
L 1894 763 
L 2988 3500 
L 3597 3500 
L 2059 -325 
z
" transform="scale(0.015625)"/>
     </defs>
     <use xlink:href="#DejaVuSans-41"/>
     <use xlink:href="#DejaVuSans-63" transform="translate(66.658203 0)"/>
     <use xlink:href="#DejaVuSans-63" transform="translate(121.638672 0)"/>
     <use xlink:href="#DejaVuSans-75" transform="translate(176.619141 0)"/>
     <use xlink:href="#DejaVuSans-72" transform="translate(239.998047 0)"/>
     <use xlink:href="#DejaVuSans-61" transform="translate(281.111328 0)"/>
     <use xlink:href="#DejaVuSans-63" transform="translate(342.390625 0)"/>
     <use xlink:href="#DejaVuSans-79" transform="translate(397.371094 0)"/>
    </g>
   </g>
   <g id="legend_1">
    <g id="patch_7">
     <path d="M 60.036 108.88275 
L 143.823 108.88275 
Q 145.583 108.88275 145.583 107.12275 
L 145.583 29.728 
Q 145.583 27.968 143.823 27.968 
L 60.036 27.968 
Q 58.276 27.968 58.276 29.728 
L 58.276 107.12275 
Q 58.276 108.88275 60.036 108.88275 
z
" style="fill: #ffffff; opacity: 0.8; stroke: #cccccc; stroke-width: 0.8; stroke-linejoin: miter"/>
    </g>
    <g id="text_14">
     <!-- Operation -->
     <g style="fill: #262626" transform="translate(78.04125 38.7825) scale(0.096 -0.096)">
      <defs>
       <path id="DejaVuSans-4f" d="M 2522 4238 
Q 1834 4238 1429 3725 
Q 1025 3213 1025 2328 
Q 1025 1447 1429 934 
Q 1834 422 2522 422 
Q 3209 422 3611 934 
Q 4013 1447 4013 2328 
Q 4013 3213 3611 3725 
Q 3209 4238 2522 4238 
z
M 2522 4750 
Q 3503 4750 4090 4092 
Q 4678 3434 4678 2328 
Q 4678 1225 4090 567 
Q 3503 -91 2522 -91 
Q 1538 -91 948 565 
Q 359 1222 359 2328 
Q 359 3434 948 4092 
Q 1538 4750 2522 4750 
z
" transform="scale(0.015625)"/>
       <path id="DejaVuSans-70" d="M 1159 525 
L 1159 -1331 
L 581 -1331 
L 581 3500 
L 1159 3500 
L 1159 2969 
Q 1341 3281 1617 3432 
Q 1894 3584 2278 3584 
Q 2916 3584 3314 3078 
Q 3713 2572 3713 1747 
Q 3713 922 3314 415 
Q 2916 -91 2278 -91 
Q 1894 -91 1617 61 
Q 1341 213 1159 525 
z
M 3116 1747 
Q 3116 2381 2855 2742 
Q 2594 3103 2138 3103 
Q 1681 3103 1420 2742 
Q 1159 2381 1159 1747 
Q 1159 1113 1420 752 
Q 1681 391 2138 391 
Q 2594 391 2855 752 
Q 3116 1113 3116 1747 
z
" transform="scale(0.015625)"/>
       <path id="DejaVuSans-65" d="M 3597 1894 
L 3597 1613 
L 953 1613 
Q 991 1019 1311 708 
Q 1631 397 2203 397 
Q 2534 397 2845 478 
Q 3156 559 3463 722 
L 3463 178 
Q 3153 47 2828 -22 
Q 2503 -91 2169 -91 
Q 1331 -91 842 396 
Q 353 884 353 1716 
Q 353 2575 817 3079 
Q 1281 3584 2069 3584 
Q 2775 3584 3186 3129 
Q 3597 2675 3597 1894 
z
M 3022 2063 
Q 3016 2534 2758 2815 
Q 2500 3097 2075 3097 
Q 1594 3097 1305 2825 
Q 1016 2553 972 2059 
L 3022 2063 
z
" transform="scale(0.015625)"/>
       <path id="DejaVuSans-74" d="M 1172 4494 
L 1172 3500 
L 2356 3500 
L 2356 3053 
L 1172 3053 
L 1172 1153 
Q 1172 725 1289 603 
Q 1406 481 1766 481 
L 2356 481 
L 2356 0 
L 1766 0 
Q 1100 0 847 248 
Q 594 497 594 1153 
L 594 3053 
L 172 3053 
L 172 3500 
L 594 3500 
L 594 4494 
L 1172 4494 
z
" transform="scale(0.015625)"/>
       <path id="DejaVuSans-69" d="M 603 3500 
L 1178 3500 
L 1178 0 
L 603 0 
L 603 3500 
z
M 603 4863 
L 1178 4863 
L 1178 4134 
L 603 4134 
L 603 4863 
z
" transform="scale(0.015625)"/>
       <path id="DejaVuSans-6f" d="M 1959 3097 
Q 1497 3097 1228 2736 
Q 959 2375 959 1747 
Q 959 1119 1226 758 
Q 1494 397 1959 397 
Q 2419 397 2687 759 
Q 2956 1122 2956 1747 
Q 2956 2369 2687 2733 
Q 2419 3097 1959 3097 
z
M 1959 3584 
Q 2709 3584 3137 3096 
Q 3566 2609 3566 1747 
Q 3566 888 3137 398 
Q 2709 -91 1959 -91 
Q 1206 -91 779 398 
Q 353 888 353 1747 
Q 353 2609 779 3096 
Q 1206 3584 1959 3584 
z
" transform="scale(0.015625)"/>
       <path id="DejaVuSans-6e" d="M 3513 2113 
L 3513 0 
L 2938 0 
L 2938 2094 
Q 2938 2591 2744 2837 
Q 2550 3084 2163 3084 
Q 1697 3084 1428 2787 
Q 1159 2491 1159 1978 
L 1159 0 
L 581 0 
L 581 3500 
L 1159 3500 
L 1159 2956 
Q 1366 3272 1645 3428 
Q 1925 3584 2291 3584 
Q 2894 3584 3203 3211 
Q 3513 2838 3513 2113 
z
" transform="scale(0.015625)"/>
      </defs>
      <use xlink:href="#DejaVuSans-4f"/>
      <use xlink:href="#DejaVuSans-70" transform="translate(78.710938 0)"/>
      <use xlink:href="#DejaVuSans-65" transform="translate(142.1875 0)"/>
      <use xlink:href="#DejaVuSans-72" transform="translate(203.710938 0)"/>
      <use xlink:href="#DejaVuSans-61" transform="translate(244.824219 0)"/>
      <use xlink:href="#DejaVuSans-74" transform="translate(306.103516 0)"/>
      <use xlink:href="#DejaVuSans-69" transform="translate(345.3125 0)"/>
      <use xlink:href="#DejaVuSans-6f" transform="translate(373.095703 0)"/>
      <use xlink:href="#DejaVuSans-6e" transform="translate(434.277344 0)"/>
     </g>
    </g>
    <g id="line2d_23">
     <path d="M 61.796 48.785625 
L 70.596 48.785625 
L 79.396 48.785625 
" style="fill: none; stroke: #66ccee; stroke-width: 1.2; stroke-linecap: round"/>
    </g>
    <g id="text_15">
     <!-- encoding -->
     <g style="fill: #262626" transform="translate(86.436 51.865625) scale(0.088 -0.088)">
      <defs>
       <path id="DejaVuSans-64" d="M 2906 2969 
L 2906 4863 
L 3481 4863 
L 3481 0 
L 2906 0 
L 2906 525 
Q 2725 213 2448 61 
Q 2172 -91 1784 -91 
Q 1150 -91 751 415 
Q 353 922 353 1747 
Q 353 2572 751 3078 
Q 1150 3584 1784 3584 
Q 2172 3584 2448 3432 
Q 2725 3281 2906 2969 
z
M 947 1747 
Q 947 1113 1208 752 
Q 1469 391 1925 391 
Q 2381 391 2643 752 
Q 2906 1113 2906 1747 
Q 2906 2381 2643 2742 
Q 2381 3103 1925 3103 
Q 1469 3103 1208 2742 
Q 947 2381 947 1747 
z
" transform="scale(0.015625)"/>
       <path id="DejaVuSans-67" d="M 2906 1791 
Q 2906 2416 2648 2759 
Q 2391 3103 1925 3103 
Q 1463 3103 1205 2759 
Q 947 2416 947 1791 
Q 947 1169 1205 825 
Q 1463 481 1925 481 
Q 2391 481 2648 825 
Q 2906 1169 2906 1791 
z
M 3481 434 
Q 3481 -459 3084 -895 
Q 2688 -1331 1869 -1331 
Q 1566 -1331 1297 -1286 
Q 1028 -1241 775 -1147 
L 775 -588 
Q 1028 -725 1275 -790 
Q 1522 -856 1778 -856 
Q 2344 -856 2625 -561 
Q 2906 -266 2906 331 
L 2906 616 
Q 2728 306 2450 153 
Q 2172 0 1784 0 
Q 1141 0 747 490 
Q 353 981 353 1791 
Q 353 2603 747 3093 
Q 1141 3584 1784 3584 
Q 2172 3584 2450 3431 
Q 2728 3278 2906 2969 
L 2906 3500 
L 3481 3500 
L 3481 434 
z
" transform="scale(0.015625)"/>
      </defs>
      <use xlink:href="#DejaVuSans-65"/>
      <use xlink:href="#DejaVuSans-6e" transform="translate(61.523438 0)"/>
      <use xlink:href="#DejaVuSans-63" transform="translate(124.902344 0)"/>
      <use xlink:href="#DejaVuSans-6f" transform="translate(179.882812 0)"/>
      <use xlink:href="#DejaVuSans-64" transform="translate(241.064453 0)"/>
      <use xlink:href="#DejaVuSans-69" transform="translate(304.541016 0)"/>
      <use xlink:href="#DejaVuSans-6e" transform="translate(332.324219 0)"/>
      <use xlink:href="#DejaVuSans-67" transform="translate(395.703125 0)"/>
     </g>
    </g>
    <g id="line2d_24">
     <path d="M 61.796 61.702375 
L 70.596 61.702375 
L 79.396 61.702375 
" style="fill: none; stroke: #228833; stroke-width: 1.2; stroke-linecap: round"/>
    </g>
    <g id="text_16">
     <!-- n200 -->
     <g style="fill: #262626" transform="translate(86.436 64.782375) scale(0.088 -0.088)">
      <use xlink:href="#DejaVuSans-6e"/>
      <use xlink:href="#DejaVuSans-32" transform="translate(63.378906 0)"/>
      <use xlink:href="#DejaVuSans-30" transform="translate(127.001953 0)"/>
      <use xlink:href="#DejaVuSans-30" transform="translate(190.625 0)"/>
     </g>
    </g>
    <g id="line2d_25">
     <path d="M 61.796 74.619125 
L 70.596 74.619125 
L 79.396 74.619125 
" style="fill: none; stroke: #ccbb44; stroke-width: 1.2; stroke-linecap: round"/>
    </g>
    <g id="text_17">
     <!-- decision -->
     <g style="fill: #262626" transform="translate(86.436 77.699125) scale(0.088 -0.088)">
      <defs>
       <path id="DejaVuSans-73" d="M 2834 3397 
L 2834 2853 
Q 2591 2978 2328 3040 
Q 2066 3103 1784 3103 
Q 1356 3103 1142 2972 
Q 928 2841 928 2578 
Q 928 2378 1081 2264 
Q 1234 2150 1697 2047 
L 1894 2003 
Q 2506 1872 2764 1633 
Q 3022 1394 3022 966 
Q 3022 478 2636 193 
Q 2250 -91 1575 -91 
Q 1294 -91 989 -36 
Q 684 19 347 128 
L 347 722 
Q 666 556 975 473 
Q 1284 391 1588 391 
Q 1994 391 2212 530 
Q 2431 669 2431 922 
Q 2431 1156 2273 1281 
Q 2116 1406 1581 1522 
L 1381 1569 
Q 847 1681 609 1914 
Q 372 2147 372 2553 
Q 372 3047 722 3315 
Q 1072 3584 1716 3584 
Q 2034 3584 2315 3537 
Q 2597 3491 2834 3397 
z
" transform="scale(0.015625)"/>
      </defs>
      <use xlink:href="#DejaVuSans-64"/>
      <use xlink:href="#DejaVuSans-65" transform="translate(63.476562 0)"/>
      <use xlink:href="#DejaVuSans-63" transform="translate(125 0)"/>
      <use xlink:href="#DejaVuSans-69" transform="translate(179.980469 0)"/>
      <use xlink:href="#DejaVuSans-73" transform="translate(207.763672 0)"/>
      <use xlink:href="#DejaVuSans-69" transform="translate(259.863281 0)"/>
      <use xlink:href="#DejaVuSans-6f" transform="translate(287.646484 0)"/>
      <use xlink:href="#DejaVuSans-6e" transform="translate(348.828125 0)"/>
     </g>
    </g>
    <g id="line2d_26">
     <path d="M 61.796 87.535875 
L 70.596 87.535875 
L 79.396 87.535875 
" style="fill: none; stroke: #ee6677; stroke-width: 1.2; stroke-linecap: round"/>
    </g>
    <g id="text_18">
     <!-- confirmation -->
     <g style="fill: #262626" transform="translate(86.436 90.615875) scale(0.088 -0.088)">
      <defs>
       <path id="DejaVuSans-66" d="M 2375 4863 
L 2375 4384 
L 1825 4384 
Q 1516 4384 1395 4259 
Q 1275 4134 1275 3809 
L 1275 3500 
L 2222 3500 
L 2222 3053 
L 1275 3053 
L 1275 0 
L 697 0 
L 697 3053 
L 147 3053 
L 147 3500 
L 697 3500 
L 697 3744 
Q 697 4328 969 4595 
Q 1241 4863 1831 4863 
L 2375 4863 
z
" transform="scale(0.015625)"/>
       <path id="DejaVuSans-6d" d="M 3328 2828 
Q 3544 3216 3844 3400 
Q 4144 3584 4550 3584 
Q 5097 3584 5394 3201 
Q 5691 2819 5691 2113 
L 5691 0 
L 5113 0 
L 5113 2094 
Q 5113 2597 4934 2840 
Q 4756 3084 4391 3084 
Q 3944 3084 3684 2787 
Q 3425 2491 3425 1978 
L 3425 0 
L 2847 0 
L 2847 2094 
Q 2847 2600 2669 2842 
Q 2491 3084 2119 3084 
Q 1678 3084 1418 2786 
Q 1159 2488 1159 1978 
L 1159 0 
L 581 0 
L 581 3500 
L 1159 3500 
L 1159 2956 
Q 1356 3278 1631 3431 
Q 1906 3584 2284 3584 
Q 2666 3584 2933 3390 
Q 3200 3197 3328 2828 
z
" transform="scale(0.015625)"/>
      </defs>
      <use xlink:href="#DejaVuSans-63"/>
      <use xlink:href="#DejaVuSans-6f" transform="translate(54.980469 0)"/>
      <use xlink:href="#DejaVuSans-6e" transform="translate(116.162109 0)"/>
      <use xlink:href="#DejaVuSans-66" transform="translate(179.541016 0)"/>
      <use xlink:href="#DejaVuSans-69" transform="translate(214.746094 0)"/>
      <use xlink:href="#DejaVuSans-72" transform="translate(242.529297 0)"/>
      <use xlink:href="#DejaVuSans-6d" transform="translate(281.892578 0)"/>
      <use xlink:href="#DejaVuSans-61" transform="translate(379.304688 0)"/>
      <use xlink:href="#DejaVuSans-74" transform="translate(440.583984 0)"/>
      <use xlink:href="#DejaVuSans-69" transform="translate(479.792969 0)"/>
      <use xlink:href="#DejaVuSans-6f" transform="translate(507.576172 0)"/>
      <use xlink:href="#DejaVuSans-6e" transform="translate(568.757812 0)"/>
     </g>
    </g>
    <g id="line2d_27">
     <path d="M 61.796 100.452625 
L 70.596 100.452625 
L 79.396 100.452625 
" style="fill: none; stroke: #aa3377; stroke-width: 1.2; stroke-linecap: round"/>
    </g>
    <g id="text_19">
     <!-- response -->
     <g style="fill: #262626" transform="translate(86.436 103.532625) scale(0.088 -0.088)">
      <use xlink:href="#DejaVuSans-72"/>
      <use xlink:href="#DejaVuSans-65" transform="translate(38.863281 0)"/>
      <use xlink:href="#DejaVuSans-73" transform="translate(100.386719 0)"/>
      <use xlink:href="#DejaVuSans-70" transform="translate(152.486328 0)"/>
      <use xlink:href="#DejaVuSans-6f" transform="translate(215.962891 0)"/>
      <use xlink:href="#DejaVuSans-6e" transform="translate(277.144531 0)"/>
      <use xlink:href="#DejaVuSans-73" transform="translate(340.523438 0)"/>
      <use xlink:href="#DejaVuSans-65" transform="translate(392.623047 0)"/>
     </g>
    </g>
   </g>
   <g id="legend_2">
    <g id="patch_8">
     <path d="M 247.32313 234.404 
L 294.99988 234.404 
Q 296.75988 234.404 296.75988 232.644 
L 296.75988 193.9995 
Q 296.75988 192.2395 294.99988 192.2395 
L 247.32313 192.2395 
Q 245.56313 192.2395 245.56313 193.9995 
L 245.56313 232.644 
Q 245.56313 234.404 247.32313 234.404 
z
" style="fill: #ffffff; opacity: 0.8; stroke: #cccccc; stroke-width: 0.8; stroke-linejoin: miter"/>
    </g>
    <g id="text_20">
     <!-- Source -->
     <g style="fill: #262626" transform="translate(254.677255 203.054) scale(0.096 -0.096)">
      <defs>
       <path id="DejaVuSans-53" d="M 3425 4513 
L 3425 3897 
Q 3066 4069 2747 4153 
Q 2428 4238 2131 4238 
Q 1616 4238 1336 4038 
Q 1056 3838 1056 3469 
Q 1056 3159 1242 3001 
Q 1428 2844 1947 2747 
L 2328 2669 
Q 3034 2534 3370 2195 
Q 3706 1856 3706 1288 
Q 3706 609 3251 259 
Q 2797 -91 1919 -91 
Q 1588 -91 1214 -16 
Q 841 59 441 206 
L 441 856 
Q 825 641 1194 531 
Q 1563 422 1919 422 
Q 2459 422 2753 634 
Q 3047 847 3047 1241 
Q 3047 1584 2836 1778 
Q 2625 1972 2144 2069 
L 1759 2144 
Q 1053 2284 737 2584 
Q 422 2884 422 3419 
Q 422 4038 858 4394 
Q 1294 4750 2059 4750 
Q 2388 4750 2728 4690 
Q 3069 4631 3425 4513 
z
" transform="scale(0.015625)"/>
      </defs>
      <use xlink:href="#DejaVuSans-53"/>
      <use xlink:href="#DejaVuSans-6f" transform="translate(63.476562 0)"/>
      <use xlink:href="#DejaVuSans-75" transform="translate(124.658203 0)"/>
      <use xlink:href="#DejaVuSans-72" transform="translate(188.037109 0)"/>
      <use xlink:href="#DejaVuSans-63" transform="translate(226.900391 0)"/>
      <use xlink:href="#DejaVuSans-65" transform="translate(281.880859 0)"/>
     </g>
    </g>
    <g id="line2d_28">
     <path d="M 249.08313 213.057125 
L 257.88313 213.057125 
L 266.68313 213.057125 
" style="fill: none; stroke-dasharray: 4.44,1.92; stroke-dashoffset: 0; stroke: #000000; stroke-width: 1.2"/>
    </g>
    <g id="text_21">
     <!-- HMP -->
     <g style="fill: #262626" transform="translate(273.72313 216.137125) scale(0.088 -0.088)">
      <defs>
       <path id="DejaVuSans-48" d="M 628 4666 
L 1259 4666 
L 1259 2753 
L 3553 2753 
L 3553 4666 
L 4184 4666 
L 4184 0 
L 3553 0 
L 3553 2222 
L 1259 2222 
L 1259 0 
L 628 0 
L 628 4666 
z
" transform="scale(0.015625)"/>
       <path id="DejaVuSans-4d" d="M 628 4666 
L 1569 4666 
L 2759 1491 
L 3956 4666 
L 4897 4666 
L 4897 0 
L 4281 0 
L 4281 4097 
L 3078 897 
L 2444 897 
L 1241 4097 
L 1241 0 
L 628 0 
L 628 4666 
z
" transform="scale(0.015625)"/>
       <path id="DejaVuSans-50" d="M 1259 4147 
L 1259 2394 
L 2053 2394 
Q 2494 2394 2734 2622 
Q 2975 2850 2975 3272 
Q 2975 3691 2734 3919 
Q 2494 4147 2053 4147 
L 1259 4147 
z
M 628 4666 
L 2053 4666 
Q 2838 4666 3239 4311 
Q 3641 3956 3641 3272 
Q 3641 2581 3239 2228 
Q 2838 1875 2053 1875 
L 1259 1875 
L 1259 0 
L 628 0 
L 628 4666 
z
" transform="scale(0.015625)"/>
      </defs>
      <use xlink:href="#DejaVuSans-48"/>
      <use xlink:href="#DejaVuSans-4d" transform="translate(75.195312 0)"/>
      <use xlink:href="#DejaVuSans-50" transform="translate(161.474609 0)"/>
     </g>
    </g>
    <g id="line2d_29">
     <path d="M 249.08313 225.973875 
L 257.88313 225.973875 
L 266.68313 225.973875 
" style="fill: none; stroke: #000000; stroke-width: 1.2; stroke-linecap: round"/>
    </g>
    <g id="text_22">
     <!-- S4 -->
     <g style="fill: #262626" transform="translate(273.72313 229.053875) scale(0.088 -0.088)">
      <use xlink:href="#DejaVuSans-53"/>
      <use xlink:href="#DejaVuSans-34" transform="translate(63.476562 0)"/>
     </g>
    </g>
   </g>
  </g>
  <g id="axes_2">
   <g id="patch_9">
    <path d="M 317.338 238.804 
L 564.62188 238.804 
L 564.62188 23.568 
L 317.338 23.568 
L 317.338 238.804 
z
" style="fill: none"/>
   </g>
   <g id="matplotlib.axis_3">
    <g id="xtick_7">
     <g id="line2d_30">
      <g>
       <use xlink:href="#mebd3617ee6" x="328.578176" y="238.804" style="fill: #262626; stroke: #262626"/>
      </g>
     </g>
     <g id="text_23">
      <!-- 0 -->
      <g style="fill: #262626" transform="translate(325.778676 253.790625) scale(0.088 -0.088)">
       <use xlink:href="#DejaVuSans-30"/>
      </g>
     </g>
    </g>
    <g id="xtick_8">
     <g id="line2d_31">
      <g>
       <use xlink:href="#mebd3617ee6" x="373.99303" y="238.804" style="fill: #262626; stroke: #262626"/>
      </g>
     </g>
     <g id="text_24">
      <!-- 20 -->
      <g style="fill: #262626" transform="translate(368.39403 253.790625) scale(0.088 -0.088)">
       <use xlink:href="#DejaVuSans-32"/>
       <use xlink:href="#DejaVuSans-30" transform="translate(63.623047 0)"/>
      </g>
     </g>
    </g>
    <g id="xtick_9">
     <g id="line2d_32">
      <g>
       <use xlink:href="#mebd3617ee6" x="419.407884" y="238.804" style="fill: #262626; stroke: #262626"/>
      </g>
     </g>
     <g id="text_25">
      <!-- 40 -->
      <g style="fill: #262626" transform="translate(413.808884 253.790625) scale(0.088 -0.088)">
       <use xlink:href="#DejaVuSans-34"/>
       <use xlink:href="#DejaVuSans-30" transform="translate(63.623047 0)"/>
      </g>
     </g>
    </g>
    <g id="xtick_10">
     <g id="line2d_33">
      <g>
       <use xlink:href="#mebd3617ee6" x="464.822738" y="238.804" style="fill: #262626; stroke: #262626"/>
      </g>
     </g>
     <g id="text_26">
      <!-- 60 -->
      <g style="fill: #262626" transform="translate(459.223738 253.790625) scale(0.088 -0.088)">
       <use xlink:href="#DejaVuSans-36"/>
       <use xlink:href="#DejaVuSans-30" transform="translate(63.623047 0)"/>
      </g>
     </g>
    </g>
    <g id="xtick_11">
     <g id="line2d_34">
      <g>
       <use xlink:href="#mebd3617ee6" x="510.237592" y="238.804" style="fill: #262626; stroke: #262626"/>
      </g>
     </g>
     <g id="text_27">
      <!-- 80 -->
      <g style="fill: #262626" transform="translate(504.638592 253.790625) scale(0.088 -0.088)">
       <use xlink:href="#DejaVuSans-38"/>
       <use xlink:href="#DejaVuSans-30" transform="translate(63.623047 0)"/>
      </g>
     </g>
    </g>
    <g id="xtick_12">
     <g id="line2d_35">
      <g>
       <use xlink:href="#mebd3617ee6" x="555.652446" y="238.804" style="fill: #262626; stroke: #262626"/>
      </g>
     </g>
     <g id="text_28">
      <!-- 100 -->
      <g style="fill: #262626" transform="translate(547.253946 253.790625) scale(0.088 -0.088)">
       <use xlink:href="#DejaVuSans-31"/>
       <use xlink:href="#DejaVuSans-30" transform="translate(63.623047 0)"/>
       <use xlink:href="#DejaVuSans-30" transform="translate(127.246094 0)"/>
      </g>
     </g>
    </g>
   </g>
   <g id="matplotlib.axis_4">
    <g id="ytick_7">
     <g id="line2d_36">
      <g>
       <use xlink:href="#mbbdaa6bb4c" x="317.338" y="229.020545" style="fill: #262626; stroke: #262626"/>
      </g>
     </g>
    </g>
    <g id="ytick_8">
     <g id="line2d_37">
      <g>
       <use xlink:href="#mbbdaa6bb4c" x="317.338" y="189.88676" style="fill: #262626; stroke: #262626"/>
      </g>
     </g>
    </g>
    <g id="ytick_9">
     <g id="line2d_38">
      <g>
       <use xlink:href="#mbbdaa6bb4c" x="317.338" y="150.752974" style="fill: #262626; stroke: #262626"/>
      </g>
     </g>
    </g>
    <g id="ytick_10">
     <g id="line2d_39">
      <g>
       <use xlink:href="#mbbdaa6bb4c" x="317.338" y="111.619189" style="fill: #262626; stroke: #262626"/>
      </g>
     </g>
    </g>
    <g id="ytick_11">
     <g id="line2d_40">
      <g>
       <use xlink:href="#mbbdaa6bb4c" x="317.338" y="72.485403" style="fill: #262626; stroke: #262626"/>
      </g>
     </g>
    </g>
    <g id="ytick_12">
     <g id="line2d_41">
      <g>
       <use xlink:href="#mbbdaa6bb4c" x="317.338" y="33.351618" style="fill: #262626; stroke: #262626"/>
      </g>
     </g>
    </g>
   </g>
   <g id="FillBetweenPolyCollection_11"/>
   <g id="FillBetweenPolyCollection_12"/>
   <g id="FillBetweenPolyCollection_13"/>
   <g id="FillBetweenPolyCollection_14"/>
   <g id="FillBetweenPolyCollection_15"/>
   <g id="FillBetweenPolyCollection_16"/>
   <g id="FillBetweenPolyCollection_17"/>
   <g id="FillBetweenPolyCollection_18"/>
   <g id="FillBetweenPolyCollection_19"/>
   <g id="FillBetweenPolyCollection_20"/>
   <g id="line2d_42">
    <path d="M 328.578176 228.432016 
L 330.848919 222.905756 
L 333.119662 213.662114 
L 335.390404 202.47368 
L 337.661147 190.500627 
L 339.93189 178.270269 
L 342.202633 166.250255 
L 344.473375 154.713565 
L 346.744118 143.662384 
L 349.014861 133.112143 
L 351.285603 123.121901 
L 353.556346 113.77029 
L 355.827089 105.083784 
L 358.097831 97.063047 
L 360.368574 89.692347 
L 362.639317 82.983475 
L 364.91006 76.937911 
L 367.180802 71.507372 
L 369.451545 66.632401 
L 371.722288 62.272412 
L 373.99303 58.39476 
L 376.263773 54.977975 
L 378.534516 51.991686 
L 380.805258 49.404509 
L 383.076001 47.168871 
L 385.346744 45.24491 
L 387.617486 43.592772 
L 389.888229 42.173576 
L 392.158972 40.953113 
L 394.429715 39.901118 
L 396.700457 38.995574 
L 398.9712 38.214483 
L 401.241943 37.538823 
L 403.512685 36.953795 
L 405.783428 36.445438 
L 408.054171 36.002987 
L 410.324913 35.617579 
L 412.595656 35.283638 
L 414.866399 34.994297 
L 417.137142 34.744935 
L 419.407884 34.530118 
L 421.678627 34.345391 
L 423.94937 34.186428 
L 426.220112 34.050311 
L 428.490855 33.934244 
L 430.761598 33.835996 
L 433.03234 33.753261 
L 435.303083 33.68396 
L 437.573826 33.625961 
L 439.844569 33.577561 
L 442.115311 33.537383 
L 444.386054 33.504109 
L 446.656797 33.476561 
L 448.927539 33.453749 
L 451.198282 33.434832 
L 453.469025 33.419145 
L 455.739767 33.40606 
L 458.01051 33.395307 
L 460.281253 33.386699 
L 462.551996 33.379818 
L 464.822738 33.374349 
L 467.093481 33.369917 
L 469.364224 33.366313 
L 471.634966 33.363362 
L 473.905709 33.36096 
L 476.176452 33.359012 
L 478.447194 33.357426 
L 480.717937 33.356155 
L 482.98868 33.355152 
L 485.259423 33.354347 
L 487.530165 33.353694 
L 489.800908 33.353192 
L 492.071651 33.352796 
L 494.342393 33.352493 
L 496.613136 33.352259 
L 498.883879 33.352084 
L 501.154621 33.351944 
L 503.425364 33.351839 
L 505.696107 33.351769 
L 507.966849 33.351723 
L 510.237592 33.351688 
L 512.508335 33.351664 
L 514.779078 33.351641 
L 517.04982 33.351629 
L 519.320563 33.351629 
L 521.591306 33.351618 
L 523.862048 33.351618 
L 526.132791 33.351618 
L 528.403534 33.351618 
L 530.674276 33.351618 
L 532.945019 33.351618 
L 535.215762 33.351618 
L 537.486505 33.351618 
L 539.757247 33.351618 
L 542.02799 33.351618 
L 544.298733 33.351618 
L 546.569475 33.351618 
L 548.840218 33.351618 
L 551.110961 33.351618 
L 553.381703 33.351618 
" clip-path="url(#p2ed176a537)" style="fill: none; stroke-dasharray: 4.44,1.92; stroke-dashoffset: 0; stroke: #66ccee; stroke-opacity: 0.5; stroke-width: 1.2"/>
   </g>
   <g id="line2d_43">
    <path d="M 328.578176 228.989142 
L 330.848919 228.903482 
L 333.119662 228.617575 
L 335.390404 227.992338 
L 337.661147 226.944555 
L 339.93189 225.436396 
L 342.202633 223.459515 
L 344.473375 221.056669 
L 346.744118 218.197866 
L 349.014861 214.874348 
L 351.285603 211.120224 
L 353.556346 206.980147 
L 355.827089 202.492026 
L 358.097831 197.706928 
L 360.368574 192.655328 
L 362.639317 187.444478 
L 364.91006 182.125665 
L 367.180802 176.706122 
L 369.451545 171.223806 
L 371.722288 165.742773 
L 373.99303 160.336644 
L 376.263773 155.029474 
L 378.534516 149.833357 
L 380.805258 144.768301 
L 383.076001 139.845204 
L 385.346744 135.062748 
L 387.617486 130.440807 
L 389.888229 125.974406 
L 392.158972 121.660555 
L 394.429715 117.463997 
L 396.700457 113.373487 
L 398.9712 109.388643 
L 401.241943 105.493929 
L 403.512685 101.687082 
L 405.783428 97.947669 
L 408.054171 94.264541 
L 410.324913 90.656299 
L 412.595656 87.131983 
L 414.866399 83.679976 
L 417.137142 80.295146 
L 419.407884 76.987536 
L 421.678627 73.777007 
L 423.94937 70.669168 
L 426.220112 67.681865 
L 428.490855 64.834783 
L 430.761598 62.142151 
L 433.03234 59.601846 
L 435.303083 57.221205 
L 437.573826 54.996659 
L 439.844569 52.920498 
L 442.115311 50.987369 
L 444.386054 49.194521 
L 446.656797 47.539911 
L 448.927539 46.024834 
L 451.198282 44.647169 
L 453.469025 43.389397 
L 455.739767 42.248672 
L 458.01051 41.224552 
L 460.281253 40.306878 
L 462.551996 39.486752 
L 464.822738 38.75742 
L 467.093481 38.11241 
L 469.364224 37.54175 
L 471.634966 37.037242 
L 473.905709 36.592179 
L 476.176452 36.200111 
L 478.447194 35.856572 
L 480.717937 35.554985 
L 482.98868 35.289551 
L 485.259423 35.05548 
L 487.530165 34.849375 
L 489.800908 34.667856 
L 492.071651 34.507656 
L 494.342393 34.368204 
L 496.613136 34.246678 
L 498.883879 34.140733 
L 501.154621 34.049752 
L 503.425364 33.974293 
L 505.696107 33.913251 
L 507.966849 33.863194 
L 510.237592 33.82031 
L 512.508335 33.783665 
L 514.779078 33.753645 
L 517.04982 33.728092 
L 519.320563 33.70563 
L 521.591306 33.684112 
L 523.862048 33.661848 
L 526.132791 33.637426 
L 528.403534 33.610613 
L 530.674276 33.581631 
L 532.945019 33.55104 
L 535.215762 33.519947 
L 537.486505 33.489227 
L 539.757247 33.459289 
L 542.02799 33.430703 
L 544.298733 33.405022 
L 546.569475 33.384822 
L 548.840218 33.3705 
L 551.110961 33.360575 
L 553.381703 33.351594 
" clip-path="url(#p2ed176a537)" style="fill: none; stroke: #66ccee; stroke-width: 1.2; stroke-linecap: round"/>
   </g>
   <g id="line2d_44">
    <path d="M 328.578176 229.020498 
L 330.848919 229.009341 
L 333.119662 228.938835 
L 335.390404 228.773442 
L 337.661147 228.451562 
L 339.93189 227.894867 
L 342.202633 227.085907 
L 344.473375 225.938151 
L 346.744118 224.489806 
L 349.014861 222.77574 
L 351.285603 220.773794 
L 353.556346 218.400997 
L 355.827089 215.707674 
L 358.097831 212.72843 
L 360.368574 209.473018 
L 362.639317 205.89118 
L 364.91006 201.967513 
L 367.180802 197.728714 
L 369.451545 193.15497 
L 371.722288 188.303514 
L 373.99303 183.221821 
L 376.263773 177.946924 
L 378.534516 172.422908 
L 380.805258 166.658972 
L 383.076001 160.685595 
L 385.346744 154.561243 
L 387.617486 148.34535 
L 389.888229 142.08332 
L 392.158972 135.798663 
L 394.429715 129.567965 
L 396.700457 123.456786 
L 398.9712 117.475298 
L 401.241943 111.653706 
L 403.512685 106.022089 
L 405.783428 100.628638 
L 408.054171 95.513426 
L 410.324913 90.666037 
L 412.595656 86.10223 
L 414.866399 81.83307 
L 417.137142 77.83914 
L 419.407884 74.108965 
L 421.678627 70.667722 
L 423.94937 67.519134 
L 426.220112 64.632095 
L 428.490855 61.988634 
L 430.761598 59.554974 
L 433.03234 57.304769 
L 435.303083 55.215604 
L 437.573826 53.271944 
L 439.844569 51.457484 
L 442.115311 49.759022 
L 444.386054 48.191673 
L 446.656797 46.760884 
L 448.927539 45.442139 
L 451.198282 44.227437 
L 453.469025 43.108965 
L 455.739767 42.083947 
L 458.01051 41.142411 
L 460.281253 40.275062 
L 462.551996 39.479124 
L 464.822738 38.754411 
L 467.093481 38.090566 
L 469.364224 37.490108 
L 471.634966 36.951999 
L 473.905709 36.469801 
L 476.176452 36.041789 
L 478.447194 35.660836 
L 480.717937 35.32349 
L 482.98868 35.024993 
L 485.259423 34.760085 
L 487.530165 34.527576 
L 489.800908 34.327489 
L 492.071651 34.156909 
L 494.342393 34.010133 
L 496.613136 33.883161 
L 498.883879 33.774708 
L 501.154621 33.684089 
L 503.425364 33.60947 
L 505.696107 33.549605 
L 507.966849 33.502557 
L 510.237592 33.465855 
L 512.508335 33.436849 
L 514.779078 33.413664 
L 517.04982 33.39512 
L 519.320563 33.381078 
L 521.591306 33.371386 
L 523.862048 33.364575 
L 526.132791 33.359852 
L 528.403534 33.356598 
L 530.674276 33.354464 
L 532.945019 33.353157 
L 535.215762 33.352388 
L 537.486505 33.351968 
L 539.757247 33.351746 
L 542.02799 33.351653 
L 544.298733 33.351618 
L 546.569475 33.351618 
L 548.840218 33.351618 
L 551.110961 33.351618 
L 553.381703 33.351618 
" clip-path="url(#p2ed176a537)" style="fill: none; stroke-dasharray: 4.44,1.92; stroke-dashoffset: 0; stroke: #228833; stroke-opacity: 0.5; stroke-width: 1.2"/>
   </g>
   <g id="line2d_45">
    <path d="M 328.578176 229.010882 
L 330.848919 228.99693 
L 333.119662 228.97529 
L 335.390404 228.945626 
L 337.661147 228.898123 
L 339.93189 228.810084 
L 342.202633 228.674201 
L 344.473375 228.454828 
L 346.744118 228.148782 
L 349.014861 227.757653 
L 351.285603 227.253217 
L 353.556346 226.586668 
L 355.827089 225.746867 
L 358.097831 224.738681 
L 360.368574 223.543103 
L 362.639317 222.125152 
L 364.91006 220.470528 
L 367.180802 218.578259 
L 369.451545 216.416454 
L 371.722288 214.00925 
L 373.99303 211.32583 
L 376.263773 208.395946 
L 378.534516 205.169827 
L 380.805258 201.65677 
L 383.076001 197.854302 
L 385.346744 193.775558 
L 387.617486 189.445982 
L 389.888229 184.929245 
L 392.158972 180.238873 
L 394.429715 175.404865 
L 396.700457 170.483074 
L 398.9712 165.448574 
L 401.241943 160.344633 
L 403.512685 155.205985 
L 405.783428 150.053866 
L 408.054171 144.980423 
L 410.324913 139.98027 
L 412.595656 135.084178 
L 414.866399 130.331468 
L 417.137142 125.711353 
L 419.407884 121.203281 
L 421.678627 116.832702 
L 423.94937 112.616305 
L 426.220112 108.545681 
L 428.490855 104.617226 
L 430.761598 100.821167 
L 433.03234 97.148827 
L 435.303083 93.568763 
L 437.573826 90.065638 
L 439.844569 86.673262 
L 442.115311 83.388208 
L 444.386054 80.206136 
L 446.656797 77.135129 
L 448.927539 74.16266 
L 451.198282 71.292625 
L 453.469025 68.524547 
L 455.739767 65.874484 
L 458.01051 63.348187 
L 460.281253 60.927729 
L 462.551996 58.609904 
L 464.822738 56.400134 
L 467.093481 54.299715 
L 469.364224 52.325032 
L 471.634966 50.479595 
L 473.905709 48.755522 
L 476.176452 47.141884 
L 478.447194 45.633723 
L 480.717937 44.232032 
L 482.98868 42.934945 
L 485.259423 41.752876 
L 487.530165 40.689977 
L 489.800908 39.737198 
L 492.071651 38.888428 
L 494.342393 38.125262 
L 496.613136 37.429986 
L 498.883879 36.803951 
L 501.154621 36.254973 
L 503.425364 35.776951 
L 505.696107 35.362456 
L 507.966849 35.007581 
L 510.237592 34.702051 
L 512.508335 34.444035 
L 514.779078 34.228892 
L 517.04982 34.056773 
L 519.320563 33.925147 
L 521.591306 33.826433 
L 523.862048 33.754578 
L 526.132791 33.69995 
L 528.403534 33.657626 
L 530.674276 33.619652 
L 532.945019 33.583182 
L 535.215762 33.547926 
L 537.486505 33.513252 
L 539.757247 33.479162 
L 542.02799 33.446623 
L 544.298733 33.417268 
L 546.569475 33.392811 
L 548.840218 33.373474 
L 551.110961 33.360423 
L 553.381703 33.351618 
" clip-path="url(#p2ed176a537)" style="fill: none; stroke: #228833; stroke-width: 1.2; stroke-linecap: round"/>
   </g>
   <g id="line2d_46">
    <path d="M 328.578176 229.020545 
L 330.848919 229.020542 
L 333.119662 229.020481 
L 335.390404 229.019916 
L 337.661147 229.016219 
L 339.93189 229.012515 
L 342.202633 229.005781 
L 344.473375 228.992415 
L 346.744118 228.959793 
L 349.014861 228.918007 
L 351.285603 228.844798 
L 353.556346 228.747088 
L 355.827089 228.60707 
L 358.097831 228.44974 
L 360.368574 228.247227 
L 362.639317 227.997658 
L 364.91006 227.685671 
L 367.180802 227.302272 
L 369.451545 226.870059 
L 371.722288 226.361403 
L 373.99303 225.771445 
L 376.263773 225.115262 
L 378.534516 224.373926 
L 380.805258 223.52833 
L 383.076001 222.580044 
L 385.346744 221.543111 
L 387.617486 220.400077 
L 389.888229 219.120696 
L 392.158972 217.700511 
L 394.429715 216.136072 
L 396.700457 214.413371 
L 398.9712 212.543712 
L 401.241943 210.535623 
L 403.512685 208.373609 
L 405.783428 206.04693 
L 408.054171 203.562943 
L 410.324913 200.898584 
L 412.595656 198.059605 
L 414.866399 195.045701 
L 417.137142 191.874992 
L 419.407884 188.564833 
L 421.678627 185.131446 
L 423.94937 181.594811 
L 426.220112 177.957538 
L 428.490855 174.209214 
L 430.761598 170.356912 
L 433.03234 166.434172 
L 435.303083 162.467043 
L 437.573826 158.448324 
L 439.844569 154.387345 
L 442.115311 150.292842 
L 444.386054 146.180756 
L 446.656797 142.052996 
L 448.927539 137.924379 
L 451.198282 133.819852 
L 453.469025 129.746825 
L 455.739767 125.704028 
L 458.01051 121.686633 
L 460.281253 117.699165 
L 462.551996 113.757076 
L 464.822738 109.872905 
L 467.093481 106.057987 
L 469.364224 102.306503 
L 471.634966 98.614278 
L 473.905709 94.978198 
L 476.176452 91.398098 
L 478.447194 87.877689 
L 480.717937 84.42041 
L 482.98868 81.031604 
L 485.259423 77.721906 
L 487.530165 74.49618 
L 489.800908 71.369868 
L 492.071651 68.355693 
L 494.342393 65.459674 
L 496.613136 62.672399 
L 498.883879 59.992619 
L 501.154621 57.42535 
L 503.425364 54.97682 
L 505.696107 52.647857 
L 507.966849 50.445575 
L 510.237592 48.374802 
L 512.508335 46.434793 
L 514.779078 44.627867 
L 517.04982 42.956684 
L 519.320563 41.425012 
L 521.591306 40.032978 
L 523.862048 38.78267 
L 526.132791 37.676245 
L 528.403534 36.711407 
L 530.674276 35.886651 
L 532.945019 35.198885 
L 535.215762 34.641054 
L 537.486505 34.202616 
L 539.757247 33.872897 
L 542.02799 33.640015 
L 544.298733 33.489903 
L 546.569475 33.404264 
L 548.840218 33.363992 
L 551.110961 33.351781 
L 553.381703 33.351618 
" clip-path="url(#p2ed176a537)" style="fill: none; stroke-dasharray: 4.44,1.92; stroke-dashoffset: 0; stroke: #ccbb44; stroke-opacity: 0.5; stroke-width: 1.2"/>
   </g>
   <g id="line2d_47">
    <path d="M 328.578176 229.009683 
L 330.848919 228.999283 
L 333.119662 228.988361 
L 335.390404 228.976784 
L 337.661147 228.9641 
L 339.93189 228.950366 
L 342.202633 228.934641 
L 344.473375 228.91604 
L 346.744118 228.888775 
L 349.014861 228.859421 
L 351.285603 228.811561 
L 353.556346 228.748898 
L 355.827089 228.659563 
L 358.097831 228.56968 
L 360.368574 228.45117 
L 362.639317 228.304411 
L 364.91006 228.125692 
L 367.180802 227.900291 
L 369.451545 227.645204 
L 371.722288 227.356657 
L 373.99303 227.028255 
L 376.263773 226.657047 
L 378.534516 226.22249 
L 380.805258 225.717157 
L 383.076001 225.138218 
L 385.346744 224.490976 
L 387.617486 223.764466 
L 389.888229 222.914593 
L 392.158972 221.929324 
L 394.429715 220.804846 
L 396.700457 219.539824 
L 398.9712 218.146369 
L 401.241943 216.632086 
L 403.512685 214.97632 
L 405.783428 213.157258 
L 408.054171 211.146824 
L 410.324913 208.933322 
L 412.595656 206.507983 
L 414.866399 203.88355 
L 417.137142 201.051518 
L 419.407884 198.029247 
L 421.678627 194.828307 
L 423.94937 191.475209 
L 426.220112 187.948307 
L 428.490855 184.247923 
L 430.761598 180.391026 
L 433.03234 176.404441 
L 435.303083 172.299551 
L 437.573826 168.081906 
L 439.844569 163.755926 
L 442.115311 159.335827 
L 444.386054 154.846707 
L 446.656797 150.283517 
L 448.927539 145.666271 
L 451.198282 141.01789 
L 453.469025 136.371177 
L 455.739767 131.719391 
L 458.01051 127.06967 
L 460.281253 122.433996 
L 462.551996 117.811979 
L 464.822738 113.218291 
L 467.093481 108.666332 
L 469.364224 104.156022 
L 471.634966 99.688303 
L 473.905709 95.271773 
L 476.176452 90.907317 
L 478.447194 86.603752 
L 480.717937 82.351446 
L 482.98868 78.147493 
L 485.259423 74.009679 
L 487.530165 69.95382 
L 489.800908 66.002168 
L 492.071651 62.191776 
L 494.342393 58.565305 
L 496.613136 55.148858 
L 498.883879 51.9786 
L 501.154621 49.10151 
L 503.425364 46.525949 
L 505.696107 44.228394 
L 507.966849 42.185472 
L 510.237592 40.370825 
L 512.508335 38.777177 
L 514.779078 37.415174 
L 517.04982 36.286707 
L 519.320563 35.403823 
L 521.591306 34.754568 
L 523.862048 34.306928 
L 526.132791 34.021551 
L 528.403534 33.840661 
L 530.674276 33.720686 
L 532.945019 33.638825 
L 535.215762 33.577642 
L 537.486505 33.526991 
L 539.757247 33.482299 
L 542.02799 33.443229 
L 544.298733 33.410503 
L 546.569475 33.385568 
L 548.840218 33.368925 
L 551.110961 33.359059 
L 553.381703 33.351676 
" clip-path="url(#p2ed176a537)" style="fill: none; stroke: #ccbb44; stroke-width: 1.2; stroke-linecap: round"/>
   </g>
   <g id="line2d_48">
    <path d="M 328.578176 229.020545 
L 330.848919 229.020545 
L 333.119662 229.020545 
L 335.390404 229.020545 
L 337.661147 229.020545 
L 339.93189 229.020545 
L 342.202633 229.020545 
L 344.473375 229.020545 
L 346.744118 229.020545 
L 349.014861 229.020545 
L 351.285603 229.020545 
L 353.556346 229.020545 
L 355.827089 229.020545 
L 358.097831 229.020545 
L 360.368574 229.020545 
L 362.639317 229.020545 
L 364.91006 229.020545 
L 367.180802 229.020545 
L 369.451545 229.020545 
L 371.722288 229.020545 
L 373.99303 229.020545 
L 376.263773 229.020545 
L 378.534516 229.020545 
L 380.805258 229.020545 
L 383.076001 229.020545 
L 385.346744 229.020545 
L 387.617486 229.020545 
L 389.888229 229.020545 
L 392.158972 229.020545 
L 394.429715 229.020545 
L 396.700457 229.020545 
L 398.9712 229.020545 
L 401.241943 229.020545 
L 403.512685 229.020545 
L 405.783428 229.020545 
L 408.054171 229.020545 
L 410.324913 229.020545 
L 412.595656 229.020545 
L 414.866399 229.020545 
L 417.137142 229.020545 
L 419.407884 229.020545 
L 421.678627 229.020545 
L 423.94937 229.020545 
L 426.220112 229.020545 
L 428.490855 229.020545 
L 430.761598 229.020545 
L 433.03234 229.020545 
L 435.303083 229.020545 
L 437.573826 229.020545 
L 439.844569 229.020545 
L 442.115311 229.020545 
L 444.386054 229.020545 
L 446.656797 229.020545 
L 448.927539 229.020545 
L 451.198282 229.020545 
L 453.469025 229.020545 
L 455.739767 229.020545 
L 458.01051 229.020545 
L 460.281253 229.020545 
L 462.551996 229.020545 
L 464.822738 229.020545 
L 467.093481 229.020545 
L 469.364224 229.020545 
L 471.634966 229.020545 
L 473.905709 229.020545 
L 476.176452 229.020545 
L 478.447194 229.020545 
L 480.717937 229.020545 
L 482.98868 229.020545 
L 485.259423 229.020545 
L 487.530165 229.020545 
L 489.800908 229.020545 
L 492.071651 229.020545 
L 494.342393 229.020545 
L 496.613136 229.020545 
L 498.883879 229.020545 
L 501.154621 229.020545 
L 503.425364 229.020545 
L 505.696107 229.020545 
L 507.966849 229.020545 
L 510.237592 229.020545 
L 512.508335 229.020545 
L 514.779078 229.020545 
L 517.04982 229.020545 
L 519.320563 229.020545 
L 521.591306 229.020545 
L 523.862048 229.020545 
L 526.132791 229.020545 
L 528.403534 229.020545 
L 530.674276 229.020545 
L 532.945019 229.020545 
L 535.215762 229.020545 
L 537.486505 229.020545 
L 539.757247 229.020545 
L 542.02799 229.020545 
L 544.298733 229.020545 
L 546.569475 229.020545 
L 548.840218 229.020545 
L 551.110961 229.020545 
L 553.381703 229.020545 
" clip-path="url(#p2ed176a537)" style="fill: none; stroke-dasharray: 4.44,1.92; stroke-dashoffset: 0; stroke: #ee6677; stroke-opacity: 0.5; stroke-width: 1.2"/>
   </g>
   <g id="line2d_49">
    <path d="M 328.578176 228.969971 
L 330.848919 228.915994 
L 333.119662 228.862034 
L 335.390404 228.809767 
L 337.661147 228.758321 
L 339.93189 228.708304 
L 342.202633 228.660815 
L 344.473375 228.615873 
L 346.744118 228.573139 
L 349.014861 228.531785 
L 351.285603 228.490754 
L 353.556346 228.448171 
L 355.827089 228.404415 
L 358.097831 228.35791 
L 360.368574 228.306875 
L 362.639317 228.252434 
L 364.91006 228.193586 
L 367.180802 228.128857 
L 369.451545 228.054956 
L 371.722288 227.972434 
L 373.99303 227.879742 
L 376.263773 227.77393 
L 378.534516 227.658159 
L 380.805258 227.525477 
L 383.076001 227.377703 
L 385.346744 227.206549 
L 387.617486 227.016156 
L 389.888229 226.801742 
L 392.158972 226.555209 
L 394.429715 226.275739 
L 396.700457 225.964348 
L 398.9712 225.608617 
L 401.241943 225.205515 
L 403.512685 224.731428 
L 405.783428 224.191987 
L 408.054171 223.590022 
L 410.324913 222.908127 
L 412.595656 222.143445 
L 414.866399 221.273032 
L 417.137142 220.289119 
L 419.407884 219.18595 
L 421.678627 217.953526 
L 423.94937 216.589928 
L 426.220112 215.074204 
L 428.490855 213.403937 
L 430.761598 211.570155 
L 433.03234 209.570798 
L 435.303083 207.387739 
L 437.573826 205.017989 
L 439.844569 202.445127 
L 442.115311 199.658391 
L 444.386054 196.657969 
L 446.656797 193.445527 
L 448.927539 190.034964 
L 451.198282 186.42053 
L 453.469025 182.609697 
L 455.739767 178.606501 
L 458.01051 174.42462 
L 460.281253 170.078924 
L 462.551996 165.565925 
L 464.822738 160.941569 
L 467.093481 156.219912 
L 469.364224 151.385965 
L 471.634966 146.435507 
L 473.905709 141.377943 
L 476.176452 136.236933 
L 478.447194 131.037405 
L 480.717937 125.808993 
L 482.98868 120.555612 
L 485.259423 115.272957 
L 487.530165 109.987049 
L 489.800908 104.719544 
L 492.071651 99.471644 
L 494.342393 94.254849 
L 496.613136 89.073474 
L 498.883879 83.95138 
L 501.154621 78.922507 
L 503.425364 74.005084 
L 505.696107 69.220547 
L 507.966849 64.605889 
L 510.237592 60.212568 
L 512.508335 56.065739 
L 514.779078 52.225152 
L 517.04982 48.739567 
L 519.320563 45.706266 
L 521.591306 43.231739 
L 523.862048 41.263856 
L 526.132791 39.724906 
L 528.403534 38.517866 
L 530.674276 37.558895 
L 532.945019 36.761301 
L 535.215762 36.080579 
L 537.486505 35.477847 
L 539.757247 34.943902 
L 542.02799 34.479455 
L 544.298733 34.097033 
L 546.569475 33.798046 
L 548.840218 33.579835 
L 551.110961 33.444465 
L 553.381703 33.351594 
" clip-path="url(#p2ed176a537)" style="fill: none; stroke: #ee6677; stroke-width: 1.2; stroke-linecap: round"/>
   </g>
   <g id="line2d_50">
    <path d="M 328.578176 229.020545 
L 330.848919 229.020545 
L 333.119662 229.020545 
L 335.390404 229.020545 
L 337.661147 229.020545 
L 339.93189 229.020545 
L 342.202633 229.020545 
L 344.473375 229.020545 
L 346.744118 229.020545 
L 349.014861 229.020545 
L 351.285603 229.020545 
L 353.556346 229.020545 
L 355.827089 229.020545 
L 358.097831 229.020545 
L 360.368574 229.020545 
L 362.639317 229.020545 
L 364.91006 229.020545 
L 367.180802 229.020545 
L 369.451545 229.020545 
L 371.722288 229.020545 
L 373.99303 229.020545 
L 376.263773 229.020544 
L 378.534516 229.020544 
L 380.805258 229.020543 
L 383.076001 229.020541 
L 385.346744 229.020539 
L 387.617486 229.020536 
L 389.888229 229.020531 
L 392.158972 229.020524 
L 394.429715 229.020515 
L 396.700457 229.020501 
L 398.9712 229.020483 
L 401.241943 229.020457 
L 403.512685 229.020422 
L 405.783428 229.020376 
L 408.054171 229.020314 
L 410.324913 229.020231 
L 412.595656 229.020123 
L 414.866399 229.01998 
L 417.137142 229.019791 
L 419.407884 229.019543 
L 421.678627 229.019217 
L 423.94937 229.018792 
L 426.220112 229.018247 
L 428.490855 229.017549 
L 430.761598 229.01667 
L 433.03234 229.015578 
L 435.303083 229.01422 
L 437.573826 229.012553 
L 439.844569 229.010528 
L 442.115311 229.008075 
L 444.386054 229.00511 
L 446.656797 229.00152 
L 448.927539 228.997158 
L 451.198282 228.991841 
L 453.469025 228.985283 
L 455.739767 228.977164 
L 458.01051 228.967066 
L 460.281253 228.954467 
L 462.551996 228.938775 
L 464.822738 228.919326 
L 467.093481 228.895209 
L 469.364224 228.86535 
L 471.634966 228.828635 
L 473.905709 228.78349 
L 476.176452 228.728023 
L 478.447194 228.659795 
L 480.717937 228.575838 
L 482.98868 228.472315 
L 485.259423 228.344598 
L 487.530165 228.186559 
L 489.800908 227.990767 
L 492.071651 227.748527 
L 494.342393 227.448911 
L 496.613136 227.077478 
L 498.883879 226.617696 
L 501.154621 226.048502 
L 503.425364 225.34529 
L 505.696107 224.47994 
L 507.966849 223.421054 
L 510.237592 222.128934 
L 512.508335 220.552124 
L 514.779078 218.629149 
L 517.04982 216.286911 
L 519.320563 213.448773 
L 521.591306 210.028174 
L 523.862048 205.910485 
L 526.132791 200.960003 
L 528.403534 195.027901 
L 530.674276 187.948966 
L 532.945019 179.543215 
L 535.215762 169.588142 
L 537.486505 157.872364 
L 539.757247 144.216949 
L 542.02799 128.454683 
L 544.298733 110.464896 
L 546.569475 90.392265 
L 548.840218 68.937631 
L 551.110961 48.174168 
L 553.381703 33.351711 
" clip-path="url(#p2ed176a537)" style="fill: none; stroke-dasharray: 4.44,1.92; stroke-dashoffset: 0; stroke: #aa3377; stroke-opacity: 0.5; stroke-width: 1.2"/>
   </g>
   <g id="line2d_51">
    <path d="M 328.578176 229.015361 
L 330.848919 229.010521 
L 333.119662 229.006473 
L 335.390404 229.002876 
L 337.661147 228.999388 
L 339.93189 228.995933 
L 342.202633 228.992863 
L 344.473375 228.990061 
L 346.744118 228.987429 
L 349.014861 228.984868 
L 351.285603 228.982299 
L 353.556346 228.979633 
L 355.827089 228.976831 
L 358.097831 228.973868 
L 360.368574 228.970736 
L 362.639317 228.967397 
L 364.91006 228.963722 
L 367.180802 228.959679 
L 369.451545 228.955221 
L 371.722288 228.950302 
L 373.99303 228.944848 
L 376.263773 228.938744 
L 378.534516 228.931862 
L 380.805258 228.924186 
L 383.076001 228.915721 
L 385.346744 228.905635 
L 387.617486 228.894175 
L 389.888229 228.881086 
L 392.158972 228.866258 
L 394.429715 228.847816 
L 396.700457 228.826459 
L 398.9712 228.803131 
L 401.241943 228.775796 
L 403.512685 228.744115 
L 405.783428 228.707722 
L 408.054171 228.66607 
L 410.324913 228.617328 
L 412.595656 228.56016 
L 414.866399 228.491595 
L 417.137142 228.410367 
L 419.407884 228.316995 
L 421.678627 228.205761 
L 423.94937 228.074672 
L 426.220112 227.916433 
L 428.490855 227.730753 
L 430.761598 227.516354 
L 433.03234 227.265204 
L 435.303083 226.971535 
L 437.573826 226.63072 
L 439.844569 226.232421 
L 442.115311 225.76241 
L 444.386054 225.212361 
L 446.656797 224.570462 
L 448.927539 223.820011 
L 451.198282 222.952626 
L 453.469025 221.960291 
L 455.739767 220.824542 
L 458.01051 219.528037 
L 460.281253 218.059588 
L 462.551996 216.409331 
L 464.822738 214.556068 
L 467.093481 212.489311 
L 469.364224 210.182933 
L 471.634966 207.610505 
L 473.905709 204.766457 
L 476.176452 201.638395 
L 478.447194 198.207751 
L 480.717937 194.474079 
L 482.98868 190.433327 
L 485.259423 186.071573 
L 487.530165 181.364086 
L 489.800908 176.31715 
L 492.071651 170.933053 
L 494.342393 165.217085 
L 496.613136 159.170845 
L 498.883879 152.804619 
L 501.154621 146.136193 
L 503.425364 139.184012 
L 505.696107 131.977115 
L 507.966849 124.566103 
L 510.237592 117.012472 
L 512.508335 109.386952 
L 514.779078 101.788431 
L 517.04982 94.313828 
L 519.320563 87.111153 
L 521.591306 80.309631 
L 523.862048 73.956719 
L 526.132791 68.101946 
L 528.403534 62.732649 
L 530.674276 57.8013 
L 532.945019 53.267372 
L 535.215762 49.113219 
L 537.486505 45.307177 
L 539.757247 41.901821 
L 542.02799 38.973694 
L 544.298733 36.616297 
L 546.569475 34.912401 
L 548.840218 33.898684 
L 551.110961 33.484434 
L 553.381703 33.351618 
" clip-path="url(#p2ed176a537)" style="fill: none; stroke: #aa3377; stroke-width: 1.2; stroke-linecap: round"/>
   </g>
   <g id="patch_10">
    <path d="M 317.338 238.804 
L 317.338 23.568 
" style="fill: none; stroke: #262626; stroke-linejoin: miter; stroke-linecap: square"/>
   </g>
   <g id="patch_11">
    <path d="M 564.62188 238.804 
L 564.62188 23.568 
" style="fill: none; stroke: #262626; stroke-linejoin: miter; stroke-linecap: square"/>
   </g>
   <g id="patch_12">
    <path d="M 317.338 238.804 
L 564.62188 238.804 
" style="fill: none; stroke: #262626; stroke-linejoin: miter; stroke-linecap: square"/>
   </g>
   <g id="patch_13">
    <path d="M 317.338 23.568 
L 564.62188 23.568 
" style="fill: none; stroke: #262626; stroke-linejoin: miter; stroke-linecap: square"/>
   </g>
   <g id="text_29">
    <!-- Speed -->
    <g style="fill: #262626" transform="translate(425.93119 17.568) scale(0.096 -0.096)">
     <use xlink:href="#DejaVuSans-53"/>
     <use xlink:href="#DejaVuSans-70" transform="translate(63.476562 0)"/>
     <use xlink:href="#DejaVuSans-65" transform="translate(126.953125 0)"/>
     <use xlink:href="#DejaVuSans-65" transform="translate(188.476562 0)"/>
     <use xlink:href="#DejaVuSans-64" transform="translate(250 0)"/>
    </g>
   </g>
   <g id="legend_3"/>
  </g>
  <g id="text_30">
   <!-- Cumulative probability -->
   <g style="fill: #262626" transform="translate(20.2734 209.4363) rotate(-90) scale(0.1152 -0.1152)">
    <defs>
     <path id="DejaVuSans-43" d="M 4122 4306 
L 4122 3641 
Q 3803 3938 3442 4084 
Q 3081 4231 2675 4231 
Q 1875 4231 1450 3742 
Q 1025 3253 1025 2328 
Q 1025 1406 1450 917 
Q 1875 428 2675 428 
Q 3081 428 3442 575 
Q 3803 722 4122 1019 
L 4122 359 
Q 3791 134 3420 21 
Q 3050 -91 2638 -91 
Q 1578 -91 968 557 
Q 359 1206 359 2328 
Q 359 3453 968 4101 
Q 1578 4750 2638 4750 
Q 3056 4750 3426 4639 
Q 3797 4528 4122 4306 
z
" transform="scale(0.015625)"/>
     <path id="DejaVuSans-6c" d="M 603 4863 
L 1178 4863 
L 1178 0 
L 603 0 
L 603 4863 
z
" transform="scale(0.015625)"/>
     <path id="DejaVuSans-76" d="M 191 3500 
L 800 3500 
L 1894 563 
L 2988 3500 
L 3597 3500 
L 2284 0 
L 1503 0 
L 191 3500 
z
" transform="scale(0.015625)"/>
     <path id="DejaVuSans-20" transform="scale(0.015625)"/>
     <path id="DejaVuSans-62" d="M 3116 1747 
Q 3116 2381 2855 2742 
Q 2594 3103 2138 3103 
Q 1681 3103 1420 2742 
Q 1159 2381 1159 1747 
Q 1159 1113 1420 752 
Q 1681 391 2138 391 
Q 2594 391 2855 752 
Q 3116 1113 3116 1747 
z
M 1159 2969 
Q 1341 3281 1617 3432 
Q 1894 3584 2278 3584 
Q 2916 3584 3314 3078 
Q 3713 2572 3713 1747 
Q 3713 922 3314 415 
Q 2916 -91 2278 -91 
Q 1894 -91 1617 61 
Q 1341 213 1159 525 
L 1159 0 
L 581 0 
L 581 4863 
L 1159 4863 
L 1159 2969 
z
" transform="scale(0.015625)"/>
    </defs>
    <use xlink:href="#DejaVuSans-43"/>
    <use xlink:href="#DejaVuSans-75" transform="translate(69.824219 0)"/>
    <use xlink:href="#DejaVuSans-6d" transform="translate(133.203125 0)"/>
    <use xlink:href="#DejaVuSans-75" transform="translate(230.615234 0)"/>
    <use xlink:href="#DejaVuSans-6c" transform="translate(293.994141 0)"/>
    <use xlink:href="#DejaVuSans-61" transform="translate(321.777344 0)"/>
    <use xlink:href="#DejaVuSans-74" transform="translate(383.056641 0)"/>
    <use xlink:href="#DejaVuSans-69" transform="translate(422.265625 0)"/>
    <use xlink:href="#DejaVuSans-76" transform="translate(450.048828 0)"/>
    <use xlink:href="#DejaVuSans-65" transform="translate(509.228516 0)"/>
    <use xlink:href="#DejaVuSans-20" transform="translate(570.751953 0)"/>
    <use xlink:href="#DejaVuSans-70" transform="translate(602.539062 0)"/>
    <use xlink:href="#DejaVuSans-72" transform="translate(666.015625 0)"/>
    <use xlink:href="#DejaVuSans-6f" transform="translate(704.878906 0)"/>
    <use xlink:href="#DejaVuSans-62" transform="translate(766.060547 0)"/>
    <use xlink:href="#DejaVuSans-61" transform="translate(829.537109 0)"/>
    <use xlink:href="#DejaVuSans-62" transform="translate(890.816406 0)"/>
    <use xlink:href="#DejaVuSans-69" transform="translate(954.292969 0)"/>
    <use xlink:href="#DejaVuSans-6c" transform="translate(982.076172 0)"/>
    <use xlink:href="#DejaVuSans-69" transform="translate(1009.859375 0)"/>
    <use xlink:href="#DejaVuSans-74" transform="translate(1037.642578 0)"/>
    <use xlink:href="#DejaVuSans-79" transform="translate(1076.851562 0)"/>
   </g>
  </g>
  <g id="text_31">
   <!-- Scaled time -->
   <g style="fill: #262626" transform="translate(254.0016 282.7242) scale(0.1152 -0.1152)">
    <use xlink:href="#DejaVuSans-53"/>
    <use xlink:href="#DejaVuSans-63" transform="translate(63.476562 0)"/>
    <use xlink:href="#DejaVuSans-61" transform="translate(118.457031 0)"/>
    <use xlink:href="#DejaVuSans-6c" transform="translate(179.736328 0)"/>
    <use xlink:href="#DejaVuSans-65" transform="translate(207.519531 0)"/>
    <use xlink:href="#DejaVuSans-64" transform="translate(269.042969 0)"/>
    <use xlink:href="#DejaVuSans-20" transform="translate(332.519531 0)"/>
    <use xlink:href="#DejaVuSans-74" transform="translate(364.306641 0)"/>
    <use xlink:href="#DejaVuSans-69" transform="translate(403.515625 0)"/>
    <use xlink:href="#DejaVuSans-6d" transform="translate(431.298828 0)"/>
    <use xlink:href="#DejaVuSans-65" transform="translate(528.710938 0)"/>
   </g>
  </g>
 </g>
 <defs>
  <clipPath id="pbb59dd88b1">
   <rect x="53.876" y="23.568" width="247.28388" height="215.236"/>
  </clipPath>
  <clipPath id="p2ed176a537">
   <rect x="317.338" y="23.568" width="247.28388" height="215.236"/>
  </clipPath>
 </defs>
</svg>
