<?xml version="1.0" encoding="utf-8" standalone="no"?>
<!DOCTYPE svg PUBLIC "-//W3C//DTD SVG 1.1//EN"
  "http://www.w3.org/Graphics/SVG/1.1/DTD/svg11.dtd">
<svg xmlns:xlink="http://www.w3.org/1999/xlink" width="576pt" height="288pt" viewBox="0 0 576 288" xmlns="http://www.w3.org/2000/svg" version="1.1">
 <metadata>
  <rdf:RDF xmlns:dc="http://purl.org/dc/elements/1.1/" xmlns:cc="http://creativecommons.org/ns#" xmlns:rdf="http://www.w3.org/1999/02/22-rdf-syntax-ns#">
   <cc:Work>
    <dc:type rdf:resource="http://purl.org/dc/dcmitype/StillImage"/>
    <dc:date>2024-12-10T13:39:42.085685</dc:date>
    <dc:format>image/svg+xml</dc:format>
    <dc:creator>
     <cc:Agent>
      <dc:title>Matplotlib v3.9.2, https://matplotlib.org/</dc:title>
     </cc:Agent>
    </dc:creator>
   </cc:Work>
  </rdf:RDF>
 </metadata>
 <defs>
  <style type="text/css">*{stroke-linejoin: round; stroke-linecap: butt}</style>
 </defs>
 <g id="figure_1">
  <g id="patch_1">
   <path d="M 0 288 
L 576 288 
L 576 0 
L 0 0 
L 0 288 
z
" style="fill: none"/>
  </g>
  <g id="axes_1">
   <g id="patch_2">
    <path d="M 65.036 238.804 
L 306.73988 238.804 
L 306.73988 23.568 
L 65.036 23.568 
L 65.036 238.804 
z
" style="fill: none"/>
   </g>
   <g id="matplotlib.axis_1">
    <g id="xtick_1">
     <g id="line2d_1">
      <defs>
       <path id="m35d15e88db" d="M 0 0 
L 0 4.8 
" style="stroke: #262626"/>
      </defs>
      <g>
       <use xlink:href="#m35d15e88db" x="76.02254" y="238.804" style="fill: #262626; stroke: #262626"/>
      </g>
     </g>
     <g id="text_1">
      <!-- 0 -->
      <g style="fill: #262626" transform="translate(73.22304 253.790625) scale(0.088 -0.088)">
       <defs>
        <path id="DejaVuSans-30" d="M 2034 4250 
Q 1547 4250 1301 3770 
Q 1056 3291 1056 2328 
Q 1056 1369 1301 889 
Q 1547 409 2034 409 
Q 2525 409 2770 889 
Q 3016 1369 3016 2328 
Q 3016 3291 2770 3770 
Q 2525 4250 2034 4250 
z
M 2034 4750 
Q 2819 4750 3233 4129 
Q 3647 3509 3647 2328 
Q 3647 1150 3233 529 
Q 2819 -91 2034 -91 
Q 1250 -91 836 529 
Q 422 1150 422 2328 
Q 422 3509 836 4129 
Q 1250 4750 2034 4750 
z
" transform="scale(0.015625)"/>
       </defs>
       <use xlink:href="#DejaVuSans-30"/>
      </g>
     </g>
    </g>
    <g id="xtick_2">
     <g id="line2d_2">
      <g>
       <use xlink:href="#m35d15e88db" x="120.412601" y="238.804" style="fill: #262626; stroke: #262626"/>
      </g>
     </g>
     <g id="text_2">
      <!-- 20 -->
      <g style="fill: #262626" transform="translate(114.813601 253.790625) scale(0.088 -0.088)">
       <defs>
        <path id="DejaVuSans-32" d="M 1228 531 
L 3431 531 
L 3431 0 
L 469 0 
L 469 531 
Q 828 903 1448 1529 
Q 2069 2156 2228 2338 
Q 2531 2678 2651 2914 
Q 2772 3150 2772 3378 
Q 2772 3750 2511 3984 
Q 2250 4219 1831 4219 
Q 1534 4219 1204 4116 
Q 875 4013 500 3803 
L 500 4441 
Q 881 4594 1212 4672 
Q 1544 4750 1819 4750 
Q 2544 4750 2975 4387 
Q 3406 4025 3406 3419 
Q 3406 3131 3298 2873 
Q 3191 2616 2906 2266 
Q 2828 2175 2409 1742 
Q 1991 1309 1228 531 
z
" transform="scale(0.015625)"/>
       </defs>
       <use xlink:href="#DejaVuSans-32"/>
       <use xlink:href="#DejaVuSans-30" x="63.623047"/>
      </g>
     </g>
    </g>
    <g id="xtick_3">
     <g id="line2d_3">
      <g>
       <use xlink:href="#m35d15e88db" x="164.802661" y="238.804" style="fill: #262626; stroke: #262626"/>
      </g>
     </g>
     <g id="text_3">
      <!-- 40 -->
      <g style="fill: #262626" transform="translate(159.203661 253.790625) scale(0.088 -0.088)">
       <defs>
        <path id="DejaVuSans-34" d="M 2419 4116 
L 825 1625 
L 2419 1625 
L 2419 4116 
z
M 2253 4666 
L 3047 4666 
L 3047 1625 
L 3713 1625 
L 3713 1100 
L 3047 1100 
L 3047 0 
L 2419 0 
L 2419 1100 
L 313 1100 
L 313 1709 
L 2253 4666 
z
" transform="scale(0.015625)"/>
       </defs>
       <use xlink:href="#DejaVuSans-34"/>
       <use xlink:href="#DejaVuSans-30" x="63.623047"/>
      </g>
     </g>
    </g>
    <g id="xtick_4">
     <g id="line2d_4">
      <g>
       <use xlink:href="#m35d15e88db" x="209.192722" y="238.804" style="fill: #262626; stroke: #262626"/>
      </g>
     </g>
     <g id="text_4">
      <!-- 60 -->
      <g style="fill: #262626" transform="translate(203.593722 253.790625) scale(0.088 -0.088)">
       <defs>
        <path id="DejaVuSans-36" d="M 2113 2584 
Q 1688 2584 1439 2293 
Q 1191 2003 1191 1497 
Q 1191 994 1439 701 
Q 1688 409 2113 409 
Q 2538 409 2786 701 
Q 3034 994 3034 1497 
Q 3034 2003 2786 2293 
Q 2538 2584 2113 2584 
z
M 3366 4563 
L 3366 3988 
Q 3128 4100 2886 4159 
Q 2644 4219 2406 4219 
Q 1781 4219 1451 3797 
Q 1122 3375 1075 2522 
Q 1259 2794 1537 2939 
Q 1816 3084 2150 3084 
Q 2853 3084 3261 2657 
Q 3669 2231 3669 1497 
Q 3669 778 3244 343 
Q 2819 -91 2113 -91 
Q 1303 -91 875 529 
Q 447 1150 447 2328 
Q 447 3434 972 4092 
Q 1497 4750 2381 4750 
Q 2619 4750 2861 4703 
Q 3103 4656 3366 4563 
z
" transform="scale(0.015625)"/>
       </defs>
       <use xlink:href="#DejaVuSans-36"/>
       <use xlink:href="#DejaVuSans-30" x="63.623047"/>
      </g>
     </g>
    </g>
    <g id="xtick_5">
     <g id="line2d_5">
      <g>
       <use xlink:href="#m35d15e88db" x="253.582782" y="238.804" style="fill: #262626; stroke: #262626"/>
      </g>
     </g>
     <g id="text_5">
      <!-- 80 -->
      <g style="fill: #262626" transform="translate(247.983782 253.790625) scale(0.088 -0.088)">
       <defs>
        <path id="DejaVuSans-38" d="M 2034 2216 
Q 1584 2216 1326 1975 
Q 1069 1734 1069 1313 
Q 1069 891 1326 650 
Q 1584 409 2034 409 
Q 2484 409 2743 651 
Q 3003 894 3003 1313 
Q 3003 1734 2745 1975 
Q 2488 2216 2034 2216 
z
M 1403 2484 
Q 997 2584 770 2862 
Q 544 3141 544 3541 
Q 544 4100 942 4425 
Q 1341 4750 2034 4750 
Q 2731 4750 3128 4425 
Q 3525 4100 3525 3541 
Q 3525 3141 3298 2862 
Q 3072 2584 2669 2484 
Q 3125 2378 3379 2068 
Q 3634 1759 3634 1313 
Q 3634 634 3220 271 
Q 2806 -91 2034 -91 
Q 1263 -91 848 271 
Q 434 634 434 1313 
Q 434 1759 690 2068 
Q 947 2378 1403 2484 
z
M 1172 3481 
Q 1172 3119 1398 2916 
Q 1625 2713 2034 2713 
Q 2441 2713 2670 2916 
Q 2900 3119 2900 3481 
Q 2900 3844 2670 4047 
Q 2441 4250 2034 4250 
Q 1625 4250 1398 4047 
Q 1172 3844 1172 3481 
z
" transform="scale(0.015625)"/>
       </defs>
       <use xlink:href="#DejaVuSans-38"/>
       <use xlink:href="#DejaVuSans-30" x="63.623047"/>
      </g>
     </g>
    </g>
    <g id="xtick_6">
     <g id="line2d_6">
      <g>
       <use xlink:href="#m35d15e88db" x="297.972843" y="238.804" style="fill: #262626; stroke: #262626"/>
      </g>
     </g>
     <g id="text_6">
      <!-- 100 -->
      <g style="fill: #262626" transform="translate(289.574343 253.790625) scale(0.088 -0.088)">
       <defs>
        <path id="DejaVuSans-31" d="M 794 531 
L 1825 531 
L 1825 4091 
L 703 3866 
L 703 4441 
L 1819 4666 
L 2450 4666 
L 2450 531 
L 3481 531 
L 3481 0 
L 794 0 
L 794 531 
z
" transform="scale(0.015625)"/>
       </defs>
       <use xlink:href="#DejaVuSans-31"/>
       <use xlink:href="#DejaVuSans-30" x="63.623047"/>
       <use xlink:href="#DejaVuSans-30" x="127.246094"/>
      </g>
     </g>
    </g>
   </g>
   <g id="matplotlib.axis_2">
    <g id="ytick_1">
     <g id="line2d_7">
      <defs>
       <path id="m606ad1dcc0" d="M 0 0 
L -4.8 0 
" style="stroke: #262626"/>
      </defs>
      <g>
       <use xlink:href="#m606ad1dcc0" x="65.036" y="238.804" style="fill: #262626; stroke: #262626"/>
      </g>
     </g>
     <g id="text_7">
      <!-- 0.000 -->
      <g style="fill: #262626" transform="translate(31.54325 242.147312) scale(0.088 -0.088)">
       <defs>
        <path id="DejaVuSans-2e" d="M 684 794 
L 1344 794 
L 1344 0 
L 684 0 
L 684 794 
z
" transform="scale(0.015625)"/>
       </defs>
       <use xlink:href="#DejaVuSans-30"/>
       <use xlink:href="#DejaVuSans-2e" x="63.623047"/>
       <use xlink:href="#DejaVuSans-30" x="95.410156"/>
       <use xlink:href="#DejaVuSans-30" x="159.033203"/>
       <use xlink:href="#DejaVuSans-30" x="222.65625"/>
      </g>
     </g>
    </g>
    <g id="ytick_2">
     <g id="line2d_8">
      <g>
       <use xlink:href="#m606ad1dcc0" x="65.036" y="211.8995" style="fill: #262626; stroke: #262626"/>
      </g>
     </g>
     <g id="text_8">
      <!-- 0.025 -->
      <g style="fill: #262626" transform="translate(31.54325 215.242812) scale(0.088 -0.088)">
       <defs>
        <path id="DejaVuSans-35" d="M 691 4666 
L 3169 4666 
L 3169 4134 
L 1269 4134 
L 1269 2991 
Q 1406 3038 1543 3061 
Q 1681 3084 1819 3084 
Q 2600 3084 3056 2656 
Q 3513 2228 3513 1497 
Q 3513 744 3044 326 
Q 2575 -91 1722 -91 
Q 1428 -91 1123 -41 
Q 819 9 494 109 
L 494 744 
Q 775 591 1075 516 
Q 1375 441 1709 441 
Q 2250 441 2565 725 
Q 2881 1009 2881 1497 
Q 2881 1984 2565 2268 
Q 2250 2553 1709 2553 
Q 1456 2553 1204 2497 
Q 953 2441 691 2322 
L 691 4666 
z
" transform="scale(0.015625)"/>
       </defs>
       <use xlink:href="#DejaVuSans-30"/>
       <use xlink:href="#DejaVuSans-2e" x="63.623047"/>
       <use xlink:href="#DejaVuSans-30" x="95.410156"/>
       <use xlink:href="#DejaVuSans-32" x="159.033203"/>
       <use xlink:href="#DejaVuSans-35" x="222.65625"/>
      </g>
     </g>
    </g>
    <g id="ytick_3">
     <g id="line2d_9">
      <g>
       <use xlink:href="#m606ad1dcc0" x="65.036" y="184.995" style="fill: #262626; stroke: #262626"/>
      </g>
     </g>
     <g id="text_9">
      <!-- 0.050 -->
      <g style="fill: #262626" transform="translate(31.54325 188.338312) scale(0.088 -0.088)">
       <use xlink:href="#DejaVuSans-30"/>
       <use xlink:href="#DejaVuSans-2e" x="63.623047"/>
       <use xlink:href="#DejaVuSans-30" x="95.410156"/>
       <use xlink:href="#DejaVuSans-35" x="159.033203"/>
       <use xlink:href="#DejaVuSans-30" x="222.65625"/>
      </g>
     </g>
    </g>
    <g id="ytick_4">
     <g id="line2d_10">
      <g>
       <use xlink:href="#m606ad1dcc0" x="65.036" y="158.0905" style="fill: #262626; stroke: #262626"/>
      </g>
     </g>
     <g id="text_10">
      <!-- 0.075 -->
      <g style="fill: #262626" transform="translate(31.54325 161.433812) scale(0.088 -0.088)">
       <defs>
        <path id="DejaVuSans-37" d="M 525 4666 
L 3525 4666 
L 3525 4397 
L 1831 0 
L 1172 0 
L 2766 4134 
L 525 4134 
L 525 4666 
z
" transform="scale(0.015625)"/>
       </defs>
       <use xlink:href="#DejaVuSans-30"/>
       <use xlink:href="#DejaVuSans-2e" x="63.623047"/>
       <use xlink:href="#DejaVuSans-30" x="95.410156"/>
       <use xlink:href="#DejaVuSans-37" x="159.033203"/>
       <use xlink:href="#DejaVuSans-35" x="222.65625"/>
      </g>
     </g>
    </g>
    <g id="ytick_5">
     <g id="line2d_11">
      <g>
       <use xlink:href="#m606ad1dcc0" x="65.036" y="131.186" style="fill: #262626; stroke: #262626"/>
      </g>
     </g>
     <g id="text_11">
      <!-- 0.100 -->
      <g style="fill: #262626" transform="translate(31.54325 134.529312) scale(0.088 -0.088)">
       <use xlink:href="#DejaVuSans-30"/>
       <use xlink:href="#DejaVuSans-2e" x="63.623047"/>
       <use xlink:href="#DejaVuSans-31" x="95.410156"/>
       <use xlink:href="#DejaVuSans-30" x="159.033203"/>
       <use xlink:href="#DejaVuSans-30" x="222.65625"/>
      </g>
     </g>
    </g>
    <g id="ytick_6">
     <g id="line2d_12">
      <g>
       <use xlink:href="#m606ad1dcc0" x="65.036" y="104.2815" style="fill: #262626; stroke: #262626"/>
      </g>
     </g>
     <g id="text_12">
      <!-- 0.125 -->
      <g style="fill: #262626" transform="translate(31.54325 107.624812) scale(0.088 -0.088)">
       <use xlink:href="#DejaVuSans-30"/>
       <use xlink:href="#DejaVuSans-2e" x="63.623047"/>
       <use xlink:href="#DejaVuSans-31" x="95.410156"/>
       <use xlink:href="#DejaVuSans-32" x="159.033203"/>
       <use xlink:href="#DejaVuSans-35" x="222.65625"/>
      </g>
     </g>
    </g>
    <g id="ytick_7">
     <g id="line2d_13">
      <g>
       <use xlink:href="#m606ad1dcc0" x="65.036" y="77.377" style="fill: #262626; stroke: #262626"/>
      </g>
     </g>
     <g id="text_13">
      <!-- 0.150 -->
      <g style="fill: #262626" transform="translate(31.54325 80.720312) scale(0.088 -0.088)">
       <use xlink:href="#DejaVuSans-30"/>
       <use xlink:href="#DejaVuSans-2e" x="63.623047"/>
       <use xlink:href="#DejaVuSans-31" x="95.410156"/>
       <use xlink:href="#DejaVuSans-35" x="159.033203"/>
       <use xlink:href="#DejaVuSans-30" x="222.65625"/>
      </g>
     </g>
    </g>
    <g id="ytick_8">
     <g id="line2d_14">
      <g>
       <use xlink:href="#m606ad1dcc0" x="65.036" y="50.4725" style="fill: #262626; stroke: #262626"/>
      </g>
     </g>
     <g id="text_14">
      <!-- 0.175 -->
      <g style="fill: #262626" transform="translate(31.54325 53.815812) scale(0.088 -0.088)">
       <use xlink:href="#DejaVuSans-30"/>
       <use xlink:href="#DejaVuSans-2e" x="63.623047"/>
       <use xlink:href="#DejaVuSans-31" x="95.410156"/>
       <use xlink:href="#DejaVuSans-37" x="159.033203"/>
       <use xlink:href="#DejaVuSans-35" x="222.65625"/>
      </g>
     </g>
    </g>
    <g id="ytick_9">
     <g id="line2d_15">
      <g>
       <use xlink:href="#m606ad1dcc0" x="65.036" y="23.568" style="fill: #262626; stroke: #262626"/>
      </g>
     </g>
     <g id="text_15">
      <!-- 0.200 -->
      <g style="fill: #262626" transform="translate(31.54325 26.911313) scale(0.088 -0.088)">
       <use xlink:href="#DejaVuSans-30"/>
       <use xlink:href="#DejaVuSans-2e" x="63.623047"/>
       <use xlink:href="#DejaVuSans-32" x="95.410156"/>
       <use xlink:href="#DejaVuSans-30" x="159.033203"/>
       <use xlink:href="#DejaVuSans-30" x="222.65625"/>
      </g>
     </g>
    </g>
   </g>
   <g id="PolyCollection_1"/>
   <g id="PolyCollection_2"/>
   <g id="PolyCollection_3"/>
   <g id="PolyCollection_4"/>
   <g id="PolyCollection_5"/>
   <g id="PolyCollection_6"/>
   <g id="PolyCollection_7"/>
   <g id="PolyCollection_8"/>
   <g id="PolyCollection_9"/>
   <g id="PolyCollection_10"/>
   <g id="line2d_16">
    <path d="M 76.02254 223.706303 
L 78.242043 167.788677 
L 80.461546 145.176704 
L 82.681049 140.395519 
L 84.900552 144.017678 
L 87.120055 148.054912 
L 89.339558 154.54055 
L 91.559061 162.275723 
L 93.778564 170.459496 
L 95.998067 178.639845 
L 98.21757 185.64055 
L 100.437073 192.272715 
L 102.656576 199.114015 
L 104.876079 205.07071 
L 107.095582 210.150313 
L 109.315085 215.098836 
L 111.534588 219.322295 
L 113.754091 222.855348 
L 115.973595 225.999169 
L 118.193098 228.604472 
L 120.412601 230.759106 
L 122.632104 232.522675 
L 124.851607 233.866393 
L 127.07111 234.937148 
L 129.290613 235.798989 
L 131.510116 236.485416 
L 133.729619 236.963903 
L 135.949122 237.301824 
L 138.168625 237.580284 
L 140.388128 237.803107 
L 142.607631 237.9681 
L 144.827134 238.102722 
L 147.046637 238.2057 
L 149.26614 238.286802 
L 151.485643 238.367504 
L 153.705146 238.453286 
L 155.924649 238.502119 
L 158.144152 238.552096 
L 160.363655 238.601456 
L 162.583158 238.630834 
L 164.802661 238.654533 
L 167.022164 238.680044 
L 169.241667 238.705657 
L 171.46117 238.718825 
L 173.680673 238.715515 
L 175.900176 238.732412 
L 178.119679 238.752784 
L 180.339182 238.765649 
L 182.558685 238.775451 
L 184.778188 238.782153 
L 186.997691 238.785605 
L 189.217194 238.786444 
L 191.436697 238.786054 
L 193.6562 238.78608 
L 195.875704 238.787856 
L 198.095207 238.791864 
L 200.31471 238.79719 
L 202.534213 238.799776 
L 204.753716 238.799684 
L 206.973219 238.796661 
L 209.192722 238.795739 
L 211.412225 238.801723 
L 213.631728 238.803091 
L 215.851231 238.803353 
L 218.070734 238.803571 
L 220.290237 238.803727 
L 222.50974 238.803816 
L 224.729243 238.803865 
L 226.948746 238.803889 
L 229.168249 238.803905 
L 231.387752 238.80393 
L 233.607255 238.803956 
L 235.826758 238.803974 
L 238.046261 238.803984 
L 240.265764 238.803989 
L 242.485267 238.803993 
L 244.70477 238.803996 
L 246.924273 238.803997 
L 249.143776 238.803998 
L 251.363279 238.803999 
L 253.582782 238.803999 
L 255.802285 238.804 
L 258.021788 238.804 
L 260.241291 238.804 
L 262.460794 238.804 
L 264.680297 238.804 
L 266.8998 238.804 
L 269.119303 238.804 
L 271.338806 238.804 
L 273.55831 238.804 
L 275.777813 238.804 
L 277.997316 238.804 
L 280.216819 238.804 
L 282.436322 238.804 
L 284.655825 238.804 
L 286.875328 238.804 
L 289.094831 238.804 
L 291.314334 238.804 
L 293.533837 238.804 
L 295.75334 238.804 
" clip-path="url(#p1f3eb76572)" style="fill: none; stroke-dasharray: 4.44,1.92; stroke-dashoffset: 0; stroke: #66ccee; stroke-opacity: 0.5; stroke-width: 1.2"/>
   </g>
   <g id="line2d_17">
    <path d="M 76.02254 219.371703 
L 78.242043 159.002226 
L 80.461546 138.662914 
L 82.681049 137.188582 
L 84.900552 143.533469 
L 87.120055 150.436348 
L 89.339558 158.626615 
L 91.559061 166.692786 
L 93.778564 174.753055 
L 95.998067 182.711875 
L 98.21757 189.276086 
L 100.437073 195.661974 
L 102.656576 201.965868 
L 104.876079 207.444158 
L 107.095582 212.166005 
L 109.315085 216.651724 
L 111.534588 220.538728 
L 113.754091 223.756762 
L 115.973595 226.484956 
L 118.193098 228.824425 
L 120.412601 230.681467 
L 122.632104 232.243318 
L 124.851607 233.451998 
L 127.07111 234.401096 
L 129.290613 235.226295 
L 131.510116 235.881377 
L 133.729619 236.375044 
L 135.949122 236.757988 
L 138.168625 237.043541 
L 140.388128 237.274037 
L 142.607631 237.459214 
L 144.827134 237.627012 
L 147.046637 237.768393 
L 149.26614 237.883926 
L 151.485643 237.99139 
L 153.705146 238.090769 
L 155.924649 238.161052 
L 158.144152 238.22833 
L 160.363655 238.285641 
L 162.583158 238.333499 
L 164.802661 238.376633 
L 167.022164 238.414568 
L 169.241667 238.455891 
L 171.46117 238.491554 
L 173.680673 238.515307 
L 175.900176 238.543366 
L 178.119679 238.578579 
L 180.339182 238.601598 
L 182.558685 238.619672 
L 184.778188 238.63396 
L 186.997691 238.645636 
L 189.217194 238.658408 
L 191.436697 238.669779 
L 193.6562 238.677553 
L 195.875704 238.684655 
L 198.095207 238.693763 
L 200.31471 238.702941 
L 202.534213 238.709451 
L 204.753716 238.714905 
L 206.973219 238.719406 
L 209.192722 238.723079 
L 211.412225 238.727981 
L 213.631728 238.730738 
L 215.851231 238.731942 
L 218.070734 238.732616 
L 220.290237 238.733827 
L 222.50974 238.734423 
L 224.729243 238.736283 
L 226.948746 238.737944 
L 229.168249 238.739243 
L 231.387752 238.739488 
L 233.607255 238.741061 
L 235.826758 238.74105 
L 238.046261 238.74178 
L 240.265764 238.741221 
L 242.485267 238.740931 
L 244.70477 238.740762 
L 246.924273 238.741183 
L 249.143776 238.741217 
L 251.363279 238.740865 
L 253.582782 238.740252 
L 255.802285 238.739532 
L 258.021788 238.738669 
L 260.241291 238.738921 
L 262.460794 238.738012 
L 264.680297 238.737017 
L 266.8998 238.735459 
L 269.119303 238.735177 
L 271.338806 238.733715 
L 273.55831 238.73233 
L 275.777813 238.730498 
L 277.997316 238.728572 
L 280.216819 238.726908 
L 282.436322 238.725062 
L 284.655825 238.723839 
L 286.875328 238.722827 
L 289.094831 238.719388 
L 291.314334 238.71736 
L 293.533837 238.7125 
L 295.75334 238.583707 
" clip-path="url(#p1f3eb76572)" style="fill: none; stroke: #66ccee; stroke-width: 1.2; stroke-linecap: round"/>
   </g>
   <g id="line2d_18">
    <path d="M 76.02254 238.797684 
L 78.242043 238.273499 
L 80.461546 236.678728 
L 82.681049 234.365745 
L 84.900552 230.91168 
L 87.120055 227.569297 
L 89.339558 223.070027 
L 91.559061 218.273458 
L 93.778564 214.046041 
L 95.998067 210.460387 
L 98.21757 207.185305 
L 100.437073 203.602268 
L 102.656576 200.347774 
L 104.876079 197.784743 
L 107.095582 196.99212 
L 109.315085 194.827379 
L 111.534588 193.240781 
L 113.754091 192.483581 
L 115.973595 192.577117 
L 118.193098 192.973603 
L 120.412601 193.306353 
L 122.632104 194.195836 
L 124.851607 196.011129 
L 127.07111 197.963252 
L 129.290613 200.012226 
L 131.510116 202.613275 
L 133.729619 205.667635 
L 135.949122 208.518866 
L 138.168625 211.228183 
L 140.388128 213.87462 
L 142.607631 216.464743 
L 144.827134 219.17642 
L 147.046637 221.575586 
L 149.26614 223.779935 
L 151.485643 225.690302 
L 153.705146 227.613223 
L 155.924649 229.165577 
L 158.144152 230.367882 
L 160.363655 231.371936 
L 162.583158 232.286309 
L 164.802661 233.121909 
L 167.022164 233.862097 
L 169.241667 234.401002 
L 171.46117 234.90055 
L 173.680673 235.295503 
L 175.900176 235.665526 
L 178.119679 236.059194 
L 180.339182 236.378546 
L 182.558685 236.587194 
L 184.778188 236.752819 
L 186.997691 236.987159 
L 189.217194 237.188452 
L 191.436697 237.369869 
L 193.6562 237.57088 
L 195.875704 237.729537 
L 198.095207 237.826302 
L 200.31471 237.95357 
L 202.534213 238.051178 
L 204.753716 238.136668 
L 206.973219 238.193898 
L 209.192722 238.268583 
L 211.412225 238.339851 
L 213.631728 238.416039 
L 215.851231 238.498349 
L 218.070734 238.552771 
L 220.290237 238.587815 
L 222.50974 238.610347 
L 224.729243 238.625405 
L 226.948746 238.654905 
L 229.168249 238.67897 
L 231.387752 238.628934 
L 233.607255 238.726311 
L 235.826758 238.74712 
L 238.046261 238.761165 
L 240.265764 238.770658 
L 242.485267 238.776214 
L 244.70477 238.78249 
L 246.924273 238.788249 
L 249.143776 238.790211 
L 251.363279 238.791481 
L 253.582782 238.792096 
L 255.802285 238.795041 
L 258.021788 238.799063 
L 260.241291 238.801535 
L 262.460794 238.802575 
L 264.680297 238.803105 
L 266.8998 238.803499 
L 269.119303 238.803746 
L 271.338806 238.803865 
L 273.55831 238.803924 
L 275.777813 238.803964 
L 277.997316 238.803985 
L 280.216819 238.803994 
L 282.436322 238.803997 
L 284.655825 238.803999 
L 286.875328 238.804 
L 289.094831 238.804 
L 291.314334 238.804 
L 293.533837 238.804 
L 295.75334 238.804 
" clip-path="url(#p1f3eb76572)" style="fill: none; stroke-dasharray: 4.44,1.92; stroke-dashoffset: 0; stroke: #228833; stroke-opacity: 0.5; stroke-width: 1.2"/>
   </g>
   <g id="line2d_19">
    <path d="M 76.02254 238.37675 
L 78.242043 237.474707 
L 80.461546 235.339162 
L 82.681049 232.148974 
L 84.900552 228.032522 
L 87.120055 224.019039 
L 89.339558 219.344012 
L 91.559061 214.871365 
L 93.778564 211.016617 
L 95.998067 207.475543 
L 98.21757 203.908116 
L 100.437073 201.091162 
L 102.656576 198.839617 
L 104.876079 196.915935 
L 107.095582 196.737114 
L 109.315085 195.538146 
L 111.534588 194.703892 
L 113.754091 194.835061 
L 115.973595 195.533503 
L 118.193098 196.383978 
L 120.412601 197.459863 
L 122.632104 198.957781 
L 124.851607 200.742837 
L 127.07111 202.822329 
L 129.290613 205.017879 
L 131.510116 207.458378 
L 133.729619 210.158569 
L 135.949122 212.695994 
L 138.168625 215.144868 
L 140.388128 217.493962 
L 142.607631 219.677349 
L 144.827134 221.894498 
L 147.046637 223.810759 
L 149.26614 225.492589 
L 151.485643 227.017991 
L 153.705146 228.525665 
L 155.924649 229.716363 
L 158.144152 230.659169 
L 160.363655 231.442698 
L 162.583158 232.154244 
L 164.802661 232.849784 
L 167.022164 233.448954 
L 169.241667 233.866143 
L 171.46117 234.210204 
L 173.680673 234.55001 
L 175.900176 234.89592 
L 178.119679 235.208302 
L 180.339182 235.446928 
L 182.558685 235.644299 
L 184.778188 235.85285 
L 186.997691 236.016657 
L 189.217194 236.203704 
L 191.436697 236.378038 
L 193.6562 236.536304 
L 195.875704 236.672395 
L 198.095207 236.816995 
L 200.31471 236.967551 
L 202.534213 237.103378 
L 204.753716 237.222693 
L 206.973219 237.312155 
L 209.192722 237.401659 
L 211.412225 237.493094 
L 213.631728 237.563826 
L 215.851231 237.631783 
L 218.070734 237.716964 
L 220.290237 237.819184 
L 222.50974 237.89555 
L 224.729243 237.928909 
L 226.948746 237.967343 
L 229.168249 238.014421 
L 231.387752 238.037239 
L 233.607255 238.067508 
L 235.826758 238.117077 
L 238.046261 238.171042 
L 240.265764 238.214947 
L 242.485267 238.239027 
L 244.70477 238.27216 
L 246.924273 238.298764 
L 249.143776 238.319487 
L 251.363279 238.344793 
L 253.582782 238.366753 
L 255.802285 238.385283 
L 258.021788 238.408775 
L 260.241291 238.435364 
L 262.460794 238.459377 
L 264.680297 238.477584 
L 266.8998 238.489062 
L 269.119303 238.501193 
L 271.338806 238.521896 
L 273.55831 238.538896 
L 275.777813 238.55407 
L 277.997316 238.566709 
L 280.216819 238.579904 
L 282.436322 238.591723 
L 284.655825 238.600658 
L 286.875328 238.605122 
L 289.094831 238.610848 
L 291.314334 238.623198 
L 293.533837 238.633511 
L 295.75334 238.622526 
" clip-path="url(#p1f3eb76572)" style="fill: none; stroke: #228833; stroke-width: 1.2; stroke-linecap: round"/>
   </g>
   <g id="line2d_20">
    <path d="M 76.02254 238.804 
L 78.242043 238.803028 
L 80.461546 238.788645 
L 82.681049 238.744108 
L 84.900552 238.649247 
L 87.120055 238.446278 
L 89.339558 238.082 
L 91.559061 237.585557 
L 93.778564 236.947357 
L 95.998067 236.028399 
L 98.21757 234.67954 
L 100.437073 233.555766 
L 102.656576 232.622731 
L 104.876079 231.665396 
L 107.095582 230.445051 
L 109.315085 228.946003 
L 111.534588 227.402726 
L 113.754091 225.44008 
L 115.973595 223.964456 
L 118.193098 222.727205 
L 120.412601 222.02043 
L 122.632104 220.674875 
L 124.851607 219.263279 
L 127.07111 217.785032 
L 129.290613 216.081149 
L 131.510116 214.798377 
L 133.729619 213.40559 
L 135.949122 212.408397 
L 138.168625 211.600699 
L 140.388128 210.203435 
L 142.607631 209.091093 
L 144.827134 208.62465 
L 147.046637 208.563013 
L 149.26614 208.643629 
L 151.485643 208.875005 
L 153.705146 209.203209 
L 155.924649 209.504111 
L 158.144152 209.761077 
L 160.363655 210.074058 
L 162.583158 210.456376 
L 164.802661 211.242882 
L 167.022164 212.192748 
L 169.241667 213.204913 
L 171.46117 214.229198 
L 173.680673 215.324054 
L 175.900176 216.461269 
L 178.119679 217.527174 
L 180.339182 218.589975 
L 182.558685 219.567737 
L 184.778188 220.455698 
L 186.997691 221.370784 
L 189.217194 222.494507 
L 191.436697 223.51405 
L 193.6562 224.547009 
L 195.875704 225.496176 
L 198.095207 226.417259 
L 200.31471 227.227209 
L 202.534213 227.948113 
L 204.753716 228.723143 
L 206.973219 229.44659 
L 209.192722 230.085206 
L 211.412225 230.803803 
L 213.631728 231.454727 
L 215.851231 232.016219 
L 218.070734 232.540299 
L 220.290237 233.009806 
L 222.50974 233.458588 
L 224.729243 233.921034 
L 226.948746 234.372798 
L 229.168249 234.823852 
L 231.387752 235.25425 
L 233.607255 235.63504 
L 235.826758 235.904692 
L 238.046261 236.25399 
L 240.265764 236.5874 
L 242.485267 236.866291 
L 244.70477 237.135261 
L 246.924273 237.375775 
L 249.143776 237.575857 
L 251.363279 237.745443 
L 253.582782 237.922183 
L 255.802285 238.093261 
L 258.021788 238.222255 
L 260.241291 238.327259 
L 262.460794 238.42026 
L 264.680297 238.503932 
L 266.8998 238.581637 
L 269.119303 238.645531 
L 271.338806 238.691199 
L 273.55831 238.727839 
L 275.777813 238.7537 
L 277.997316 238.771797 
L 280.216819 238.784847 
L 282.436322 238.793315 
L 284.655825 238.798563 
L 286.875328 238.801596 
L 289.094831 238.803277 
L 291.314334 238.803864 
L 293.533837 238.803991 
L 295.75334 238.804 
" clip-path="url(#p1f3eb76572)" style="fill: none; stroke-dasharray: 4.44,1.92; stroke-dashoffset: 0; stroke: #ccbb44; stroke-opacity: 0.5; stroke-width: 1.2"/>
   </g>
   <g id="line2d_21">
    <path d="M 76.02254 238.487794 
L 78.242043 238.466381 
L 80.461546 238.424775 
L 82.681049 238.326968 
L 84.900552 238.129024 
L 87.120055 237.802953 
L 89.339558 237.316513 
L 91.559061 236.641038 
L 93.778564 235.773735 
L 95.998067 234.693014 
L 98.21757 233.444114 
L 100.437073 232.270711 
L 102.656576 231.172771 
L 104.876079 230.195891 
L 107.095582 228.949022 
L 109.315085 227.603021 
L 111.534588 226.290763 
L 113.754091 224.71323 
L 115.973595 223.616344 
L 118.193098 222.727704 
L 120.412601 221.842109 
L 122.632104 220.824305 
L 124.851607 219.727968 
L 127.07111 218.696697 
L 129.290613 217.672344 
L 131.510116 216.761018 
L 133.729619 215.876001 
L 135.949122 215.087366 
L 138.168625 214.66023 
L 140.388128 214.20124 
L 142.607631 213.795491 
L 144.827134 213.592425 
L 147.046637 213.590016 
L 149.26614 213.787273 
L 151.485643 214.135604 
L 153.705146 214.484723 
L 155.924649 214.756607 
L 158.144152 215.034103 
L 160.363655 215.439007 
L 162.583158 215.901941 
L 164.802661 216.553389 
L 167.022164 217.187107 
L 169.241667 217.943288 
L 171.46117 218.734367 
L 173.680673 219.52265 
L 175.900176 220.330898 
L 178.119679 221.114523 
L 180.339182 221.839247 
L 182.558685 222.46797 
L 184.778188 223.083163 
L 186.997691 223.738947 
L 189.217194 224.423243 
L 191.436697 225.082777 
L 193.6562 225.737227 
L 195.875704 226.379291 
L 198.095207 226.9484 
L 200.31471 227.486394 
L 202.534213 227.995787 
L 204.753716 228.470337 
L 206.973219 228.930334 
L 209.192722 229.365982 
L 211.412225 229.822462 
L 213.631728 230.221446 
L 215.851231 230.606238 
L 218.070734 230.899197 
L 220.290237 231.17102 
L 222.50974 231.470152 
L 224.729243 231.751816 
L 226.948746 232.03672 
L 229.168249 232.341134 
L 231.387752 232.612424 
L 233.607255 232.894646 
L 235.826758 233.177889 
L 238.046261 233.407916 
L 240.265764 233.582537 
L 242.485267 233.7403 
L 244.70477 233.926053 
L 246.924273 234.180888 
L 249.143776 234.381172 
L 251.363279 234.566282 
L 253.582782 234.730712 
L 255.802285 234.870857 
L 258.021788 234.997768 
L 260.241291 235.150693 
L 262.460794 235.302606 
L 264.680297 235.441635 
L 266.8998 235.59627 
L 269.119303 235.741124 
L 271.338806 235.830019 
L 273.55831 235.923176 
L 275.777813 236.01219 
L 277.997316 236.091011 
L 280.216819 236.188491 
L 282.436322 236.27971 
L 284.655825 236.358477 
L 286.875328 236.447827 
L 289.094831 236.547273 
L 291.314334 236.645174 
L 293.533837 236.819891 
L 295.75334 238.20786 
" clip-path="url(#p1f3eb76572)" style="fill: none; stroke: #ccbb44; stroke-width: 1.2; stroke-linecap: round"/>
   </g>
   <g id="line2d_22">
    <path d="M 76.02254 238.804 
L 78.242043 238.804 
L 80.461546 238.803995 
L 82.681049 238.803931 
L 84.900552 238.803553 
L 87.120055 238.802945 
L 89.339558 238.801113 
L 91.559061 238.79623 
L 93.778564 238.78998 
L 95.998067 238.776629 
L 98.21757 238.757877 
L 100.437073 238.705297 
L 102.656576 238.605425 
L 104.876079 238.588793 
L 107.095582 238.495383 
L 109.315085 238.388198 
L 111.534588 238.200417 
L 113.754091 238.014223 
L 115.973595 237.78688 
L 118.193098 237.610822 
L 120.412601 237.419491 
L 122.632104 237.038588 
L 124.851607 236.822288 
L 127.07111 236.352304 
L 129.290613 235.901409 
L 131.510116 235.422503 
L 133.729619 235.047261 
L 135.949122 234.753805 
L 138.168625 234.2125 
L 140.388128 233.851425 
L 142.607631 233.415918 
L 144.827134 232.816611 
L 147.046637 232.211139 
L 149.26614 231.862673 
L 151.485643 231.106984 
L 153.705146 230.246775 
L 155.924649 229.611382 
L 158.144152 229.007326 
L 160.363655 228.366646 
L 162.583158 227.852598 
L 164.802661 227.239096 
L 167.022164 226.356604 
L 169.241667 225.545161 
L 171.46117 225.119138 
L 173.680673 224.601177 
L 175.900176 223.831406 
L 178.119679 222.987047 
L 180.339182 222.480762 
L 182.558685 221.942457 
L 184.778188 221.390123 
L 186.997691 220.713709 
L 189.217194 220.155851 
L 191.436697 219.638603 
L 193.6562 219.11383 
L 195.875704 218.702132 
L 198.095207 218.273296 
L 200.31471 217.846212 
L 202.534213 217.449985 
L 204.753716 217.074322 
L 206.973219 216.861993 
L 209.192722 216.718846 
L 211.412225 216.669302 
L 213.631728 216.319722 
L 215.851231 216.06361 
L 218.070734 215.907446 
L 220.290237 215.788915 
L 222.50974 215.817917 
L 224.729243 215.93556 
L 226.948746 216.100716 
L 229.168249 216.451176 
L 231.387752 216.793125 
L 233.607255 217.197445 
L 235.826758 217.584113 
L 238.046261 217.870078 
L 240.265764 218.023334 
L 242.485267 218.389732 
L 244.70477 218.948696 
L 246.924273 219.513903 
L 249.143776 220.159718 
L 251.363279 220.614368 
L 253.582782 221.094413 
L 255.802285 221.728021 
L 258.021788 222.460581 
L 260.241291 223.266402 
L 262.460794 224.097961 
L 264.680297 224.930074 
L 266.8998 225.769619 
L 269.119303 226.702458 
L 271.338806 227.695013 
L 273.55831 228.818583 
L 275.777813 229.938712 
L 277.997316 231.140312 
L 280.216819 232.330535 
L 282.436322 233.492613 
L 284.655825 234.638318 
L 286.875328 235.74811 
L 289.094831 236.815127 
L 291.314334 237.726142 
L 293.533837 238.398327 
L 295.75334 238.778787 
" clip-path="url(#p1f3eb76572)" style="fill: none; stroke-dasharray: 4.44,1.92; stroke-dashoffset: 0; stroke: #ee6677; stroke-opacity: 0.5; stroke-width: 1.2"/>
   </g>
   <g id="line2d_23">
    <path d="M 76.02254 238.409714 
L 78.242043 238.495234 
L 80.461546 238.482303 
L 82.681049 238.497982 
L 84.900552 238.508563 
L 87.120055 238.509733 
L 89.339558 238.494083 
L 91.559061 238.466101 
L 93.778564 238.42818 
L 95.998067 238.365529 
L 98.21757 238.28088 
L 100.437073 238.160859 
L 102.656576 237.92876 
L 104.876079 237.797121 
L 107.095582 237.56418 
L 109.315085 237.289005 
L 111.534588 236.955326 
L 113.754091 236.633044 
L 115.973595 236.279315 
L 118.193098 235.920961 
L 120.412601 235.654955 
L 122.632104 235.289415 
L 124.851607 234.888902 
L 127.07111 234.45963 
L 129.290613 233.968342 
L 131.510116 233.562294 
L 133.729619 233.212327 
L 135.949122 232.855103 
L 138.168625 232.356474 
L 140.388128 231.980098 
L 142.607631 231.591192 
L 144.827134 231.038805 
L 147.046637 230.596475 
L 149.26614 230.144234 
L 151.485643 229.717873 
L 153.705146 229.061216 
L 155.924649 228.646771 
L 158.144152 228.21495 
L 160.363655 227.810701 
L 162.583158 227.429372 
L 164.802661 227.044826 
L 167.022164 226.533527 
L 169.241667 226.186061 
L 171.46117 225.900883 
L 173.680673 225.608484 
L 175.900176 225.21021 
L 178.119679 224.749946 
L 180.339182 224.517826 
L 182.558685 224.262029 
L 184.778188 223.950825 
L 186.997691 223.612361 
L 189.217194 223.392777 
L 191.436697 223.184764 
L 193.6562 222.952227 
L 195.875704 222.757329 
L 198.095207 222.628363 
L 200.31471 222.520057 
L 202.534213 222.387978 
L 204.753716 222.225586 
L 206.973219 222.124477 
L 209.192722 222.054834 
L 211.412225 222.076508 
L 213.631728 221.967437 
L 215.851231 221.960524 
L 218.070734 221.894348 
L 220.290237 221.875722 
L 222.50974 221.85401 
L 224.729243 221.888551 
L 226.948746 221.958351 
L 229.168249 222.063738 
L 231.387752 222.210118 
L 233.607255 222.402041 
L 235.826758 222.575176 
L 238.046261 222.661302 
L 240.265764 222.599526 
L 242.485267 222.633817 
L 244.70477 222.785855 
L 246.924273 222.899506 
L 249.143776 223.027495 
L 251.363279 223.175312 
L 253.582782 223.28361 
L 255.802285 223.357156 
L 258.021788 223.503684 
L 260.241291 223.626221 
L 262.460794 223.695667 
L 264.680297 223.681201 
L 266.8998 223.751665 
L 269.119303 223.927558 
L 271.338806 223.987087 
L 273.55831 224.012214 
L 275.777813 224.009619 
L 277.997316 223.990733 
L 280.216819 223.929017 
L 282.436322 223.806921 
L 284.655825 223.784082 
L 286.875328 223.686374 
L 289.094831 223.523642 
L 291.314334 223.369993 
L 293.533837 223.642059 
L 295.75334 235.391005 
" clip-path="url(#p1f3eb76572)" style="fill: none; stroke: #ee6677; stroke-width: 1.2; stroke-linecap: round"/>
   </g>
   <g id="line2d_24"/>
   <g id="line2d_25">
    <path d="M 76.02254 238.683966 
L 78.242043 238.724784 
L 80.461546 238.737326 
L 82.681049 238.750546 
L 84.900552 238.755837 
L 87.120055 238.756731 
L 89.339558 238.7543 
L 91.559061 238.749124 
L 93.778564 238.74125 
L 95.998067 238.727637 
L 98.21757 238.709279 
L 100.437073 238.683757 
L 102.656576 238.638898 
L 104.876079 238.613267 
L 107.095582 238.56753 
L 109.315085 238.504929 
L 111.534588 238.430856 
L 113.754091 238.340711 
L 115.973595 238.245194 
L 118.193098 238.155794 
L 120.412601 238.054564 
L 122.632104 237.952192 
L 124.851607 237.807109 
L 127.07111 237.646618 
L 129.290613 237.506075 
L 131.510116 237.308069 
L 133.729619 237.163378 
L 135.949122 236.99672 
L 138.168625 236.783191 
L 140.388128 236.577789 
L 142.607631 236.370591 
L 144.827134 236.128306 
L 147.046637 235.901276 
L 149.26614 235.651415 
L 151.485643 235.408107 
L 153.705146 235.106688 
L 155.924649 234.854243 
L 158.144152 234.567359 
L 160.363655 234.236875 
L 162.583158 233.95932 
L 164.802661 233.665439 
L 167.022164 233.293733 
L 169.241667 232.994428 
L 171.46117 232.707707 
L 173.680673 232.43388 
L 175.900176 232.099378 
L 178.119679 231.691133 
L 180.339182 231.355213 
L 182.558685 231.065935 
L 184.778188 230.718487 
L 186.997691 230.316706 
L 189.217194 229.963661 
L 191.436697 229.674354 
L 193.6562 229.306955 
L 195.875704 228.951067 
L 198.095207 228.593886 
L 200.31471 228.279135 
L 202.534213 227.934108 
L 204.753716 227.562748 
L 206.973219 227.219981 
L 209.192722 226.908257 
L 211.412225 226.583094 
L 213.631728 226.220486 
L 215.851231 225.88073 
L 218.070734 225.498635 
L 220.290237 225.137127 
L 222.50974 224.796505 
L 224.729243 224.408634 
L 226.948746 224.04145 
L 229.168249 223.665002 
L 231.387752 223.361779 
L 233.607255 223.110438 
L 235.826758 222.805454 
L 238.046261 222.440154 
L 240.265764 221.962955 
L 242.485267 221.530975 
L 244.70477 221.116904 
L 246.924273 220.705791 
L 249.143776 220.340938 
L 251.363279 219.955132 
L 253.582782 219.543742 
L 255.802285 219.100282 
L 258.021788 218.754512 
L 260.241291 218.357579 
L 262.460794 217.863554 
L 264.680297 217.286069 
L 266.8998 216.792866 
L 269.119303 216.441861 
L 271.338806 216.000761 
L 273.55831 215.470412 
L 275.777813 214.844933 
L 277.997316 214.180415 
L 280.216819 213.532948 
L 282.436322 212.846629 
L 284.655825 212.22529 
L 286.875328 211.52891 
L 289.094831 210.839264 
L 291.314334 210.11933 
L 293.533837 206.849945 
L 295.75334 143.091002 
" clip-path="url(#p1f3eb76572)" style="fill: none; stroke: #aa3377; stroke-width: 1.2; stroke-linecap: round"/>
   </g>
   <g id="patch_3">
    <path d="M 65.036 238.804 
L 65.036 23.568 
" style="fill: none; stroke: #262626; stroke-linejoin: miter; stroke-linecap: square"/>
   </g>
   <g id="patch_4">
    <path d="M 306.73988 238.804 
L 306.73988 23.568 
" style="fill: none; stroke: #262626; stroke-linejoin: miter; stroke-linecap: square"/>
   </g>
   <g id="patch_5">
    <path d="M 65.036 238.804 
L 306.73988 238.804 
" style="fill: none; stroke: #262626; stroke-linejoin: miter; stroke-linecap: square"/>
   </g>
   <g id="patch_6">
    <path d="M 65.036 23.568 
L 306.73988 23.568 
" style="fill: none; stroke: #262626; stroke-linejoin: miter; stroke-linecap: square"/>
   </g>
   <g id="text_16">
    <!-- Accuracy -->
    <g style="fill: #262626" transform="translate(163.97294 17.568) scale(0.096 -0.096)">
     <defs>
      <path id="DejaVuSans-41" d="M 2188 4044 
L 1331 1722 
L 3047 1722 
L 2188 4044 
z
M 1831 4666 
L 2547 4666 
L 4325 0 
L 3669 0 
L 3244 1197 
L 1141 1197 
L 716 0 
L 50 0 
L 1831 4666 
z
" transform="scale(0.015625)"/>
      <path id="DejaVuSans-63" d="M 3122 3366 
L 3122 2828 
Q 2878 2963 2633 3030 
Q 2388 3097 2138 3097 
Q 1578 3097 1268 2742 
Q 959 2388 959 1747 
Q 959 1106 1268 751 
Q 1578 397 2138 397 
Q 2388 397 2633 464 
Q 2878 531 3122 666 
L 3122 134 
Q 2881 22 2623 -34 
Q 2366 -91 2075 -91 
Q 1284 -91 818 406 
Q 353 903 353 1747 
Q 353 2603 823 3093 
Q 1294 3584 2113 3584 
Q 2378 3584 2631 3529 
Q 2884 3475 3122 3366 
z
" transform="scale(0.015625)"/>
      <path id="DejaVuSans-75" d="M 544 1381 
L 544 3500 
L 1119 3500 
L 1119 1403 
Q 1119 906 1312 657 
Q 1506 409 1894 409 
Q 2359 409 2629 706 
Q 2900 1003 2900 1516 
L 2900 3500 
L 3475 3500 
L 3475 0 
L 2900 0 
L 2900 538 
Q 2691 219 2414 64 
Q 2138 -91 1772 -91 
Q 1169 -91 856 284 
Q 544 659 544 1381 
z
M 1991 3584 
L 1991 3584 
z
" transform="scale(0.015625)"/>
      <path id="DejaVuSans-72" d="M 2631 2963 
Q 2534 3019 2420 3045 
Q 2306 3072 2169 3072 
Q 1681 3072 1420 2755 
Q 1159 2438 1159 1844 
L 1159 0 
L 581 0 
L 581 3500 
L 1159 3500 
L 1159 2956 
Q 1341 3275 1631 3429 
Q 1922 3584 2338 3584 
Q 2397 3584 2469 3576 
Q 2541 3569 2628 3553 
L 2631 2963 
z
" transform="scale(0.015625)"/>
      <path id="DejaVuSans-61" d="M 2194 1759 
Q 1497 1759 1228 1600 
Q 959 1441 959 1056 
Q 959 750 1161 570 
Q 1363 391 1709 391 
Q 2188 391 2477 730 
Q 2766 1069 2766 1631 
L 2766 1759 
L 2194 1759 
z
M 3341 1997 
L 3341 0 
L 2766 0 
L 2766 531 
Q 2569 213 2275 61 
Q 1981 -91 1556 -91 
Q 1019 -91 701 211 
Q 384 513 384 1019 
Q 384 1609 779 1909 
Q 1175 2209 1959 2209 
L 2766 2209 
L 2766 2266 
Q 2766 2663 2505 2880 
Q 2244 3097 1772 3097 
Q 1472 3097 1187 3025 
Q 903 2953 641 2809 
L 641 3341 
Q 956 3463 1253 3523 
Q 1550 3584 1831 3584 
Q 2591 3584 2966 3190 
Q 3341 2797 3341 1997 
z
" transform="scale(0.015625)"/>
      <path id="DejaVuSans-79" d="M 2059 -325 
Q 1816 -950 1584 -1140 
Q 1353 -1331 966 -1331 
L 506 -1331 
L 506 -850 
L 844 -850 
Q 1081 -850 1212 -737 
Q 1344 -625 1503 -206 
L 1606 56 
L 191 3500 
L 800 3500 
L 1894 763 
L 2988 3500 
L 3597 3500 
L 2059 -325 
z
" transform="scale(0.015625)"/>
     </defs>
     <use xlink:href="#DejaVuSans-41"/>
     <use xlink:href="#DejaVuSans-63" x="66.658203"/>
     <use xlink:href="#DejaVuSans-63" x="121.638672"/>
     <use xlink:href="#DejaVuSans-75" x="176.619141"/>
     <use xlink:href="#DejaVuSans-72" x="239.998047"/>
     <use xlink:href="#DejaVuSans-61" x="281.111328"/>
     <use xlink:href="#DejaVuSans-63" x="342.390625"/>
     <use xlink:href="#DejaVuSans-79" x="397.371094"/>
    </g>
   </g>
   <g id="legend_1">
    <g id="patch_7">
     <path d="M 71.196 108.88275 
L 154.983 108.88275 
Q 156.743 108.88275 156.743 107.12275 
L 156.743 29.728 
Q 156.743 27.968 154.983 27.968 
L 71.196 27.968 
Q 69.436 27.968 69.436 29.728 
L 69.436 107.12275 
Q 69.436 108.88275 71.196 108.88275 
z
" style="fill: #ffffff; opacity: 0.8; stroke: #cccccc; stroke-width: 0.8; stroke-linejoin: miter"/>
    </g>
    <g id="text_17">
     <!-- Operation -->
     <g style="fill: #262626" transform="translate(89.20125 38.7825) scale(0.096 -0.096)">
      <defs>
       <path id="DejaVuSans-4f" d="M 2522 4238 
Q 1834 4238 1429 3725 
Q 1025 3213 1025 2328 
Q 1025 1447 1429 934 
Q 1834 422 2522 422 
Q 3209 422 3611 934 
Q 4013 1447 4013 2328 
Q 4013 3213 3611 3725 
Q 3209 4238 2522 4238 
z
M 2522 4750 
Q 3503 4750 4090 4092 
Q 4678 3434 4678 2328 
Q 4678 1225 4090 567 
Q 3503 -91 2522 -91 
Q 1538 -91 948 565 
Q 359 1222 359 2328 
Q 359 3434 948 4092 
Q 1538 4750 2522 4750 
z
" transform="scale(0.015625)"/>
       <path id="DejaVuSans-70" d="M 1159 525 
L 1159 -1331 
L 581 -1331 
L 581 3500 
L 1159 3500 
L 1159 2969 
Q 1341 3281 1617 3432 
Q 1894 3584 2278 3584 
Q 2916 3584 3314 3078 
Q 3713 2572 3713 1747 
Q 3713 922 3314 415 
Q 2916 -91 2278 -91 
Q 1894 -91 1617 61 
Q 1341 213 1159 525 
z
M 3116 1747 
Q 3116 2381 2855 2742 
Q 2594 3103 2138 3103 
Q 1681 3103 1420 2742 
Q 1159 2381 1159 1747 
Q 1159 1113 1420 752 
Q 1681 391 2138 391 
Q 2594 391 2855 752 
Q 3116 1113 3116 1747 
z
" transform="scale(0.015625)"/>
       <path id="DejaVuSans-65" d="M 3597 1894 
L 3597 1613 
L 953 1613 
Q 991 1019 1311 708 
Q 1631 397 2203 397 
Q 2534 397 2845 478 
Q 3156 559 3463 722 
L 3463 178 
Q 3153 47 2828 -22 
Q 2503 -91 2169 -91 
Q 1331 -91 842 396 
Q 353 884 353 1716 
Q 353 2575 817 3079 
Q 1281 3584 2069 3584 
Q 2775 3584 3186 3129 
Q 3597 2675 3597 1894 
z
M 3022 2063 
Q 3016 2534 2758 2815 
Q 2500 3097 2075 3097 
Q 1594 3097 1305 2825 
Q 1016 2553 972 2059 
L 3022 2063 
z
" transform="scale(0.015625)"/>
       <path id="DejaVuSans-74" d="M 1172 4494 
L 1172 3500 
L 2356 3500 
L 2356 3053 
L 1172 3053 
L 1172 1153 
Q 1172 725 1289 603 
Q 1406 481 1766 481 
L 2356 481 
L 2356 0 
L 1766 0 
Q 1100 0 847 248 
Q 594 497 594 1153 
L 594 3053 
L 172 3053 
L 172 3500 
L 594 3500 
L 594 4494 
L 1172 4494 
z
" transform="scale(0.015625)"/>
       <path id="DejaVuSans-69" d="M 603 3500 
L 1178 3500 
L 1178 0 
L 603 0 
L 603 3500 
z
M 603 4863 
L 1178 4863 
L 1178 4134 
L 603 4134 
L 603 4863 
z
" transform="scale(0.015625)"/>
       <path id="DejaVuSans-6f" d="M 1959 3097 
Q 1497 3097 1228 2736 
Q 959 2375 959 1747 
Q 959 1119 1226 758 
Q 1494 397 1959 397 
Q 2419 397 2687 759 
Q 2956 1122 2956 1747 
Q 2956 2369 2687 2733 
Q 2419 3097 1959 3097 
z
M 1959 3584 
Q 2709 3584 3137 3096 
Q 3566 2609 3566 1747 
Q 3566 888 3137 398 
Q 2709 -91 1959 -91 
Q 1206 -91 779 398 
Q 353 888 353 1747 
Q 353 2609 779 3096 
Q 1206 3584 1959 3584 
z
" transform="scale(0.015625)"/>
       <path id="DejaVuSans-6e" d="M 3513 2113 
L 3513 0 
L 2938 0 
L 2938 2094 
Q 2938 2591 2744 2837 
Q 2550 3084 2163 3084 
Q 1697 3084 1428 2787 
Q 1159 2491 1159 1978 
L 1159 0 
L 581 0 
L 581 3500 
L 1159 3500 
L 1159 2956 
Q 1366 3272 1645 3428 
Q 1925 3584 2291 3584 
Q 2894 3584 3203 3211 
Q 3513 2838 3513 2113 
z
" transform="scale(0.015625)"/>
      </defs>
      <use xlink:href="#DejaVuSans-4f"/>
      <use xlink:href="#DejaVuSans-70" x="78.710938"/>
      <use xlink:href="#DejaVuSans-65" x="142.1875"/>
      <use xlink:href="#DejaVuSans-72" x="203.710938"/>
      <use xlink:href="#DejaVuSans-61" x="244.824219"/>
      <use xlink:href="#DejaVuSans-74" x="306.103516"/>
      <use xlink:href="#DejaVuSans-69" x="345.3125"/>
      <use xlink:href="#DejaVuSans-6f" x="373.095703"/>
      <use xlink:href="#DejaVuSans-6e" x="434.277344"/>
     </g>
    </g>
    <g id="line2d_26">
     <path d="M 72.956 48.785625 
L 81.756 48.785625 
L 90.556 48.785625 
" style="fill: none; stroke: #66ccee; stroke-width: 1.2; stroke-linecap: round"/>
    </g>
    <g id="text_18">
     <!-- encoding -->
     <g style="fill: #262626" transform="translate(97.596 51.865625) scale(0.088 -0.088)">
      <defs>
       <path id="DejaVuSans-64" d="M 2906 2969 
L 2906 4863 
L 3481 4863 
L 3481 0 
L 2906 0 
L 2906 525 
Q 2725 213 2448 61 
Q 2172 -91 1784 -91 
Q 1150 -91 751 415 
Q 353 922 353 1747 
Q 353 2572 751 3078 
Q 1150 3584 1784 3584 
Q 2172 3584 2448 3432 
Q 2725 3281 2906 2969 
z
M 947 1747 
Q 947 1113 1208 752 
Q 1469 391 1925 391 
Q 2381 391 2643 752 
Q 2906 1113 2906 1747 
Q 2906 2381 2643 2742 
Q 2381 3103 1925 3103 
Q 1469 3103 1208 2742 
Q 947 2381 947 1747 
z
" transform="scale(0.015625)"/>
       <path id="DejaVuSans-67" d="M 2906 1791 
Q 2906 2416 2648 2759 
Q 2391 3103 1925 3103 
Q 1463 3103 1205 2759 
Q 947 2416 947 1791 
Q 947 1169 1205 825 
Q 1463 481 1925 481 
Q 2391 481 2648 825 
Q 2906 1169 2906 1791 
z
M 3481 434 
Q 3481 -459 3084 -895 
Q 2688 -1331 1869 -1331 
Q 1566 -1331 1297 -1286 
Q 1028 -1241 775 -1147 
L 775 -588 
Q 1028 -725 1275 -790 
Q 1522 -856 1778 -856 
Q 2344 -856 2625 -561 
Q 2906 -266 2906 331 
L 2906 616 
Q 2728 306 2450 153 
Q 2172 0 1784 0 
Q 1141 0 747 490 
Q 353 981 353 1791 
Q 353 2603 747 3093 
Q 1141 3584 1784 3584 
Q 2172 3584 2450 3431 
Q 2728 3278 2906 2969 
L 2906 3500 
L 3481 3500 
L 3481 434 
z
" transform="scale(0.015625)"/>
      </defs>
      <use xlink:href="#DejaVuSans-65"/>
      <use xlink:href="#DejaVuSans-6e" x="61.523438"/>
      <use xlink:href="#DejaVuSans-63" x="124.902344"/>
      <use xlink:href="#DejaVuSans-6f" x="179.882812"/>
      <use xlink:href="#DejaVuSans-64" x="241.064453"/>
      <use xlink:href="#DejaVuSans-69" x="304.541016"/>
      <use xlink:href="#DejaVuSans-6e" x="332.324219"/>
      <use xlink:href="#DejaVuSans-67" x="395.703125"/>
     </g>
    </g>
    <g id="line2d_27">
     <path d="M 72.956 61.702375 
L 81.756 61.702375 
L 90.556 61.702375 
" style="fill: none; stroke: #228833; stroke-width: 1.2; stroke-linecap: round"/>
    </g>
    <g id="text_19">
     <!-- n200 -->
     <g style="fill: #262626" transform="translate(97.596 64.782375) scale(0.088 -0.088)">
      <use xlink:href="#DejaVuSans-6e"/>
      <use xlink:href="#DejaVuSans-32" x="63.378906"/>
      <use xlink:href="#DejaVuSans-30" x="127.001953"/>
      <use xlink:href="#DejaVuSans-30" x="190.625"/>
     </g>
    </g>
    <g id="line2d_28">
     <path d="M 72.956 74.619125 
L 81.756 74.619125 
L 90.556 74.619125 
" style="fill: none; stroke: #ccbb44; stroke-width: 1.2; stroke-linecap: round"/>
    </g>
    <g id="text_20">
     <!-- decision -->
     <g style="fill: #262626" transform="translate(97.596 77.699125) scale(0.088 -0.088)">
      <defs>
       <path id="DejaVuSans-73" d="M 2834 3397 
L 2834 2853 
Q 2591 2978 2328 3040 
Q 2066 3103 1784 3103 
Q 1356 3103 1142 2972 
Q 928 2841 928 2578 
Q 928 2378 1081 2264 
Q 1234 2150 1697 2047 
L 1894 2003 
Q 2506 1872 2764 1633 
Q 3022 1394 3022 966 
Q 3022 478 2636 193 
Q 2250 -91 1575 -91 
Q 1294 -91 989 -36 
Q 684 19 347 128 
L 347 722 
Q 666 556 975 473 
Q 1284 391 1588 391 
Q 1994 391 2212 530 
Q 2431 669 2431 922 
Q 2431 1156 2273 1281 
Q 2116 1406 1581 1522 
L 1381 1569 
Q 847 1681 609 1914 
Q 372 2147 372 2553 
Q 372 3047 722 3315 
Q 1072 3584 1716 3584 
Q 2034 3584 2315 3537 
Q 2597 3491 2834 3397 
z
" transform="scale(0.015625)"/>
      </defs>
      <use xlink:href="#DejaVuSans-64"/>
      <use xlink:href="#DejaVuSans-65" x="63.476562"/>
      <use xlink:href="#DejaVuSans-63" x="125"/>
      <use xlink:href="#DejaVuSans-69" x="179.980469"/>
      <use xlink:href="#DejaVuSans-73" x="207.763672"/>
      <use xlink:href="#DejaVuSans-69" x="259.863281"/>
      <use xlink:href="#DejaVuSans-6f" x="287.646484"/>
      <use xlink:href="#DejaVuSans-6e" x="348.828125"/>
     </g>
    </g>
    <g id="line2d_29">
     <path d="M 72.956 87.535875 
L 81.756 87.535875 
L 90.556 87.535875 
" style="fill: none; stroke: #ee6677; stroke-width: 1.2; stroke-linecap: round"/>
    </g>
    <g id="text_21">
     <!-- confirmation -->
     <g style="fill: #262626" transform="translate(97.596 90.615875) scale(0.088 -0.088)">
      <defs>
       <path id="DejaVuSans-66" d="M 2375 4863 
L 2375 4384 
L 1825 4384 
Q 1516 4384 1395 4259 
Q 1275 4134 1275 3809 
L 1275 3500 
L 2222 3500 
L 2222 3053 
L 1275 3053 
L 1275 0 
L 697 0 
L 697 3053 
L 147 3053 
L 147 3500 
L 697 3500 
L 697 3744 
Q 697 4328 969 4595 
Q 1241 4863 1831 4863 
L 2375 4863 
z
" transform="scale(0.015625)"/>
       <path id="DejaVuSans-6d" d="M 3328 2828 
Q 3544 3216 3844 3400 
Q 4144 3584 4550 3584 
Q 5097 3584 5394 3201 
Q 5691 2819 5691 2113 
L 5691 0 
L 5113 0 
L 5113 2094 
Q 5113 2597 4934 2840 
Q 4756 3084 4391 3084 
Q 3944 3084 3684 2787 
Q 3425 2491 3425 1978 
L 3425 0 
L 2847 0 
L 2847 2094 
Q 2847 2600 2669 2842 
Q 2491 3084 2119 3084 
Q 1678 3084 1418 2786 
Q 1159 2488 1159 1978 
L 1159 0 
L 581 0 
L 581 3500 
L 1159 3500 
L 1159 2956 
Q 1356 3278 1631 3431 
Q 1906 3584 2284 3584 
Q 2666 3584 2933 3390 
Q 3200 3197 3328 2828 
z
" transform="scale(0.015625)"/>
      </defs>
      <use xlink:href="#DejaVuSans-63"/>
      <use xlink:href="#DejaVuSans-6f" x="54.980469"/>
      <use xlink:href="#DejaVuSans-6e" x="116.162109"/>
      <use xlink:href="#DejaVuSans-66" x="179.541016"/>
      <use xlink:href="#DejaVuSans-69" x="214.746094"/>
      <use xlink:href="#DejaVuSans-72" x="242.529297"/>
      <use xlink:href="#DejaVuSans-6d" x="281.892578"/>
      <use xlink:href="#DejaVuSans-61" x="379.304688"/>
      <use xlink:href="#DejaVuSans-74" x="440.583984"/>
      <use xlink:href="#DejaVuSans-69" x="479.792969"/>
      <use xlink:href="#DejaVuSans-6f" x="507.576172"/>
      <use xlink:href="#DejaVuSans-6e" x="568.757812"/>
     </g>
    </g>
    <g id="line2d_30">
     <path d="M 72.956 100.452625 
L 81.756 100.452625 
L 90.556 100.452625 
" style="fill: none; stroke: #aa3377; stroke-width: 1.2; stroke-linecap: round"/>
    </g>
    <g id="text_22">
     <!-- response -->
     <g style="fill: #262626" transform="translate(97.596 103.532625) scale(0.088 -0.088)">
      <use xlink:href="#DejaVuSans-72"/>
      <use xlink:href="#DejaVuSans-65" x="38.863281"/>
      <use xlink:href="#DejaVuSans-73" x="100.386719"/>
      <use xlink:href="#DejaVuSans-70" x="152.486328"/>
      <use xlink:href="#DejaVuSans-6f" x="215.962891"/>
      <use xlink:href="#DejaVuSans-6e" x="277.144531"/>
      <use xlink:href="#DejaVuSans-73" x="340.523438"/>
      <use xlink:href="#DejaVuSans-65" x="392.623047"/>
     </g>
    </g>
   </g>
   <g id="legend_2">
    <g id="patch_8">
     <path d="M 71.196 108.88275 
L 154.983 108.88275 
Q 156.743 108.88275 156.743 107.12275 
L 156.743 29.728 
Q 156.743 27.968 154.983 27.968 
L 71.196 27.968 
Q 69.436 27.968 69.436 29.728 
L 69.436 107.12275 
Q 69.436 108.88275 71.196 108.88275 
z
" style="fill: #ffffff; opacity: 0.8; stroke: #cccccc; stroke-width: 0.8; stroke-linejoin: miter"/>
    </g>
    <g id="text_23">
     <!-- Operation -->
     <g style="fill: #262626" transform="translate(89.20125 38.7825) scale(0.096 -0.096)">
      <use xlink:href="#DejaVuSans-4f"/>
      <use xlink:href="#DejaVuSans-70" x="78.710938"/>
      <use xlink:href="#DejaVuSans-65" x="142.1875"/>
      <use xlink:href="#DejaVuSans-72" x="203.710938"/>
      <use xlink:href="#DejaVuSans-61" x="244.824219"/>
      <use xlink:href="#DejaVuSans-74" x="306.103516"/>
      <use xlink:href="#DejaVuSans-69" x="345.3125"/>
      <use xlink:href="#DejaVuSans-6f" x="373.095703"/>
      <use xlink:href="#DejaVuSans-6e" x="434.277344"/>
     </g>
    </g>
    <g id="line2d_31">
     <path d="M 72.956 48.785625 
L 81.756 48.785625 
L 90.556 48.785625 
" style="fill: none; stroke: #66ccee; stroke-width: 1.2; stroke-linecap: round"/>
    </g>
    <g id="text_24">
     <!-- encoding -->
     <g style="fill: #262626" transform="translate(97.596 51.865625) scale(0.088 -0.088)">
      <use xlink:href="#DejaVuSans-65"/>
      <use xlink:href="#DejaVuSans-6e" x="61.523438"/>
      <use xlink:href="#DejaVuSans-63" x="124.902344"/>
      <use xlink:href="#DejaVuSans-6f" x="179.882812"/>
      <use xlink:href="#DejaVuSans-64" x="241.064453"/>
      <use xlink:href="#DejaVuSans-69" x="304.541016"/>
      <use xlink:href="#DejaVuSans-6e" x="332.324219"/>
      <use xlink:href="#DejaVuSans-67" x="395.703125"/>
     </g>
    </g>
    <g id="line2d_32">
     <path d="M 72.956 61.702375 
L 81.756 61.702375 
L 90.556 61.702375 
" style="fill: none; stroke: #228833; stroke-width: 1.2; stroke-linecap: round"/>
    </g>
    <g id="text_25">
     <!-- n200 -->
     <g style="fill: #262626" transform="translate(97.596 64.782375) scale(0.088 -0.088)">
      <use xlink:href="#DejaVuSans-6e"/>
      <use xlink:href="#DejaVuSans-32" x="63.378906"/>
      <use xlink:href="#DejaVuSans-30" x="127.001953"/>
      <use xlink:href="#DejaVuSans-30" x="190.625"/>
     </g>
    </g>
    <g id="line2d_33">
     <path d="M 72.956 74.619125 
L 81.756 74.619125 
L 90.556 74.619125 
" style="fill: none; stroke: #ccbb44; stroke-width: 1.2; stroke-linecap: round"/>
    </g>
    <g id="text_26">
     <!-- decision -->
     <g style="fill: #262626" transform="translate(97.596 77.699125) scale(0.088 -0.088)">
      <use xlink:href="#DejaVuSans-64"/>
      <use xlink:href="#DejaVuSans-65" x="63.476562"/>
      <use xlink:href="#DejaVuSans-63" x="125"/>
      <use xlink:href="#DejaVuSans-69" x="179.980469"/>
      <use xlink:href="#DejaVuSans-73" x="207.763672"/>
      <use xlink:href="#DejaVuSans-69" x="259.863281"/>
      <use xlink:href="#DejaVuSans-6f" x="287.646484"/>
      <use xlink:href="#DejaVuSans-6e" x="348.828125"/>
     </g>
    </g>
    <g id="line2d_34">
     <path d="M 72.956 87.535875 
L 81.756 87.535875 
L 90.556 87.535875 
" style="fill: none; stroke: #ee6677; stroke-width: 1.2; stroke-linecap: round"/>
    </g>
    <g id="text_27">
     <!-- confirmation -->
     <g style="fill: #262626" transform="translate(97.596 90.615875) scale(0.088 -0.088)">
      <use xlink:href="#DejaVuSans-63"/>
      <use xlink:href="#DejaVuSans-6f" x="54.980469"/>
      <use xlink:href="#DejaVuSans-6e" x="116.162109"/>
      <use xlink:href="#DejaVuSans-66" x="179.541016"/>
      <use xlink:href="#DejaVuSans-69" x="214.746094"/>
      <use xlink:href="#DejaVuSans-72" x="242.529297"/>
      <use xlink:href="#DejaVuSans-6d" x="281.892578"/>
      <use xlink:href="#DejaVuSans-61" x="379.304688"/>
      <use xlink:href="#DejaVuSans-74" x="440.583984"/>
      <use xlink:href="#DejaVuSans-69" x="479.792969"/>
      <use xlink:href="#DejaVuSans-6f" x="507.576172"/>
      <use xlink:href="#DejaVuSans-6e" x="568.757812"/>
     </g>
    </g>
    <g id="line2d_35">
     <path d="M 72.956 100.452625 
L 81.756 100.452625 
L 90.556 100.452625 
" style="fill: none; stroke: #aa3377; stroke-width: 1.2; stroke-linecap: round"/>
    </g>
    <g id="text_28">
     <!-- response -->
     <g style="fill: #262626" transform="translate(97.596 103.532625) scale(0.088 -0.088)">
      <use xlink:href="#DejaVuSans-72"/>
      <use xlink:href="#DejaVuSans-65" x="38.863281"/>
      <use xlink:href="#DejaVuSans-73" x="100.386719"/>
      <use xlink:href="#DejaVuSans-70" x="152.486328"/>
      <use xlink:href="#DejaVuSans-6f" x="215.962891"/>
      <use xlink:href="#DejaVuSans-6e" x="277.144531"/>
      <use xlink:href="#DejaVuSans-73" x="340.523438"/>
      <use xlink:href="#DejaVuSans-65" x="392.623047"/>
     </g>
    </g>
   </g>
  </g>
  <g id="axes_2">
   <g id="patch_9">
    <path d="M 322.918 238.804 
L 564.62188 238.804 
L 564.62188 23.568 
L 322.918 23.568 
L 322.918 238.804 
z
" style="fill: none"/>
   </g>
   <g id="matplotlib.axis_3">
    <g id="xtick_7">
     <g id="line2d_36">
      <g>
       <use xlink:href="#m35d15e88db" x="333.90454" y="238.804" style="fill: #262626; stroke: #262626"/>
      </g>
     </g>
     <g id="text_29">
      <!-- 0 -->
      <g style="fill: #262626" transform="translate(331.10504 253.790625) scale(0.088 -0.088)">
       <use xlink:href="#DejaVuSans-30"/>
      </g>
     </g>
    </g>
    <g id="xtick_8">
     <g id="line2d_37">
      <g>
       <use xlink:href="#m35d15e88db" x="378.294601" y="238.804" style="fill: #262626; stroke: #262626"/>
      </g>
     </g>
     <g id="text_30">
      <!-- 20 -->
      <g style="fill: #262626" transform="translate(372.695601 253.790625) scale(0.088 -0.088)">
       <use xlink:href="#DejaVuSans-32"/>
       <use xlink:href="#DejaVuSans-30" x="63.623047"/>
      </g>
     </g>
    </g>
    <g id="xtick_9">
     <g id="line2d_38">
      <g>
       <use xlink:href="#m35d15e88db" x="422.684661" y="238.804" style="fill: #262626; stroke: #262626"/>
      </g>
     </g>
     <g id="text_31">
      <!-- 40 -->
      <g style="fill: #262626" transform="translate(417.085661 253.790625) scale(0.088 -0.088)">
       <use xlink:href="#DejaVuSans-34"/>
       <use xlink:href="#DejaVuSans-30" x="63.623047"/>
      </g>
     </g>
    </g>
    <g id="xtick_10">
     <g id="line2d_39">
      <g>
       <use xlink:href="#m35d15e88db" x="467.074722" y="238.804" style="fill: #262626; stroke: #262626"/>
      </g>
     </g>
     <g id="text_32">
      <!-- 60 -->
      <g style="fill: #262626" transform="translate(461.475722 253.790625) scale(0.088 -0.088)">
       <use xlink:href="#DejaVuSans-36"/>
       <use xlink:href="#DejaVuSans-30" x="63.623047"/>
      </g>
     </g>
    </g>
    <g id="xtick_11">
     <g id="line2d_40">
      <g>
       <use xlink:href="#m35d15e88db" x="511.464782" y="238.804" style="fill: #262626; stroke: #262626"/>
      </g>
     </g>
     <g id="text_33">
      <!-- 80 -->
      <g style="fill: #262626" transform="translate(505.865782 253.790625) scale(0.088 -0.088)">
       <use xlink:href="#DejaVuSans-38"/>
       <use xlink:href="#DejaVuSans-30" x="63.623047"/>
      </g>
     </g>
    </g>
    <g id="xtick_12">
     <g id="line2d_41">
      <g>
       <use xlink:href="#m35d15e88db" x="555.854843" y="238.804" style="fill: #262626; stroke: #262626"/>
      </g>
     </g>
     <g id="text_34">
      <!-- 100 -->
      <g style="fill: #262626" transform="translate(547.456343 253.790625) scale(0.088 -0.088)">
       <use xlink:href="#DejaVuSans-31"/>
       <use xlink:href="#DejaVuSans-30" x="63.623047"/>
       <use xlink:href="#DejaVuSans-30" x="127.246094"/>
      </g>
     </g>
    </g>
   </g>
   <g id="matplotlib.axis_4">
    <g id="ytick_10">
     <g id="line2d_42">
      <g>
       <use xlink:href="#m606ad1dcc0" x="322.918" y="238.804" style="fill: #262626; stroke: #262626"/>
      </g>
     </g>
    </g>
    <g id="ytick_11">
     <g id="line2d_43">
      <g>
       <use xlink:href="#m606ad1dcc0" x="322.918" y="211.8995" style="fill: #262626; stroke: #262626"/>
      </g>
     </g>
    </g>
    <g id="ytick_12">
     <g id="line2d_44">
      <g>
       <use xlink:href="#m606ad1dcc0" x="322.918" y="184.995" style="fill: #262626; stroke: #262626"/>
      </g>
     </g>
    </g>
    <g id="ytick_13">
     <g id="line2d_45">
      <g>
       <use xlink:href="#m606ad1dcc0" x="322.918" y="158.0905" style="fill: #262626; stroke: #262626"/>
      </g>
     </g>
    </g>
    <g id="ytick_14">
     <g id="line2d_46">
      <g>
       <use xlink:href="#m606ad1dcc0" x="322.918" y="131.186" style="fill: #262626; stroke: #262626"/>
      </g>
     </g>
    </g>
    <g id="ytick_15">
     <g id="line2d_47">
      <g>
       <use xlink:href="#m606ad1dcc0" x="322.918" y="104.2815" style="fill: #262626; stroke: #262626"/>
      </g>
     </g>
    </g>
    <g id="ytick_16">
     <g id="line2d_48">
      <g>
       <use xlink:href="#m606ad1dcc0" x="322.918" y="77.377" style="fill: #262626; stroke: #262626"/>
      </g>
     </g>
    </g>
    <g id="ytick_17">
     <g id="line2d_49">
      <g>
       <use xlink:href="#m606ad1dcc0" x="322.918" y="50.4725" style="fill: #262626; stroke: #262626"/>
      </g>
     </g>
    </g>
    <g id="ytick_18">
     <g id="line2d_50">
      <g>
       <use xlink:href="#m606ad1dcc0" x="322.918" y="23.568" style="fill: #262626; stroke: #262626"/>
      </g>
     </g>
    </g>
   </g>
   <g id="PolyCollection_11"/>
   <g id="PolyCollection_12"/>
   <g id="PolyCollection_13"/>
   <g id="PolyCollection_14"/>
   <g id="PolyCollection_15"/>
   <g id="PolyCollection_16"/>
   <g id="PolyCollection_17"/>
   <g id="PolyCollection_18"/>
   <g id="PolyCollection_19"/>
   <g id="PolyCollection_20"/>
   <g id="line2d_51">
    <path d="M 333.90454 235.086839 
L 336.124043 207.545225 
L 338.343546 187.346282 
L 340.563049 176.730291 
L 342.782552 172.775463 
L 345.002055 171.475381 
L 347.221558 172.642802 
L 349.441061 175.442084 
L 351.660564 178.182721 
L 353.880067 180.975036 
L 356.09957 184.113001 
L 358.319073 187.626838 
L 360.538576 191.289388 
L 362.758079 194.968752 
L 364.977582 198.578578 
L 367.197085 202.22617 
L 369.416588 205.83689 
L 371.636091 209.153053 
L 373.855595 212.169626 
L 376.075098 214.983278 
L 378.294601 217.613832 
L 380.514104 220.119868 
L 382.733607 222.465275 
L 384.95311 224.641172 
L 387.172613 226.559968 
L 389.392116 228.259696 
L 391.611619 229.733828 
L 393.831122 230.99705 
L 396.050625 232.076221 
L 398.270128 232.991093 
L 400.489631 233.790773 
L 402.709134 234.475045 
L 404.928637 235.053378 
L 407.14814 235.54685 
L 409.367643 235.968077 
L 411.587146 236.333027 
L 413.806649 236.647823 
L 416.026152 236.931638 
L 418.245655 237.177959 
L 420.465158 237.398501 
L 422.684661 237.588568 
L 424.904164 237.753312 
L 427.123667 237.895278 
L 429.34317 238.023692 
L 431.562673 238.136991 
L 433.782176 238.239549 
L 436.001679 238.329226 
L 438.221182 238.406585 
L 440.440685 238.471911 
L 442.660188 238.526956 
L 444.879691 238.573919 
L 447.099194 238.613353 
L 449.318697 238.646271 
L 451.5382 238.673601 
L 453.757704 238.696172 
L 455.977207 238.715019 
L 458.19671 238.73042 
L 460.416213 238.744062 
L 462.635716 238.756025 
L 464.855219 238.765632 
L 467.074722 238.773482 
L 469.294225 238.779382 
L 471.513728 238.784043 
L 473.733231 238.787758 
L 475.952734 238.790857 
L 478.172237 238.793397 
L 480.39174 238.795444 
L 482.611243 238.797162 
L 484.830746 238.798574 
L 487.050249 238.799647 
L 489.269752 238.800497 
L 491.489255 238.801259 
L 493.708758 238.801922 
L 495.928261 238.802417 
L 498.147764 238.802779 
L 500.367267 238.803065 
L 502.58677 238.803298 
L 504.806273 238.803495 
L 507.025776 238.80365 
L 509.245279 238.803756 
L 511.464782 238.803827 
L 513.684285 238.803882 
L 515.903788 238.803925 
L 518.123291 238.803952 
L 520.342794 238.803971 
L 522.562297 238.803983 
L 524.7818 238.80399 
L 527.001303 238.803995 
L 529.220806 238.803997 
L 531.44031 238.803999 
L 533.659813 238.803999 
L 535.879316 238.804 
L 538.098819 238.804 
L 540.318322 238.804 
L 542.537825 238.804 
L 544.757328 238.804 
L 546.976831 238.804 
L 549.196334 238.804 
L 551.415837 238.804 
L 553.63534 238.804 
" clip-path="url(#pa877943eda)" style="fill: none; stroke-dasharray: 4.44,1.92; stroke-dashoffset: 0; stroke: #66ccee; stroke-opacity: 0.5; stroke-width: 1.2"/>
   </g>
   <g id="line2d_52">
    <path d="M 333.90454 233.316391 
L 336.124043 204.752141 
L 338.343546 183.645526 
L 340.563049 174.510265 
L 342.782552 172.001517 
L 345.002055 171.850884 
L 347.221558 174.195336 
L 349.441061 177.800335 
L 351.660564 181.275452 
L 353.880067 184.430893 
L 356.09957 187.52346 
L 358.319073 190.895183 
L 360.538576 194.417683 
L 362.758079 197.799316 
L 364.977582 201.244237 
L 367.197085 204.63093 
L 369.416588 207.862582 
L 371.636091 210.859201 
L 373.855595 213.616602 
L 376.075098 216.140113 
L 378.294601 218.453324 
L 380.514104 220.748233 
L 382.733607 222.853055 
L 384.95311 224.811467 
L 387.172613 226.587143 
L 389.392116 228.140888 
L 391.611619 229.453453 
L 393.831122 230.589284 
L 396.050625 231.570624 
L 398.270128 232.413283 
L 400.489631 233.144552 
L 402.709134 233.799217 
L 404.928637 234.328852 
L 407.14814 234.778507 
L 409.367643 235.18137 
L 411.587146 235.532758 
L 413.806649 235.850966 
L 416.026152 236.149543 
L 418.245655 236.411616 
L 420.465158 236.634667 
L 422.684661 236.834405 
L 424.904164 237.015343 
L 427.123667 237.177867 
L 429.34317 237.33256 
L 431.562673 237.464279 
L 433.782176 237.586588 
L 436.001679 237.69588 
L 438.221182 237.797548 
L 440.440685 237.890476 
L 442.660188 237.968386 
L 444.879691 238.037924 
L 447.099194 238.100666 
L 449.318697 238.161413 
L 451.5382 238.217276 
L 453.757704 238.268857 
L 455.977207 238.31391 
L 458.19671 238.352141 
L 460.416213 238.389595 
L 462.635716 238.425262 
L 464.855219 238.45692 
L 467.074722 238.485189 
L 469.294225 238.508155 
L 471.513728 238.526867 
L 473.733231 238.543796 
L 475.952734 238.559008 
L 478.172237 238.573218 
L 480.39174 238.587046 
L 482.611243 238.600311 
L 484.830746 238.611358 
L 487.050249 238.620473 
L 489.269752 238.628203 
L 491.489255 238.635995 
L 493.708758 238.644716 
L 495.928261 238.652495 
L 498.147764 238.659095 
L 500.367267 238.665571 
L 502.58677 238.671781 
L 504.806273 238.67713 
L 507.025776 238.682702 
L 509.245279 238.688004 
L 511.464782 238.692611 
L 513.684285 238.696246 
L 515.903788 238.700242 
L 518.123291 238.704159 
L 520.342794 238.707701 
L 522.562297 238.710954 
L 524.7818 238.714679 
L 527.001303 238.718113 
L 529.220806 238.721135 
L 531.44031 238.724287 
L 533.659813 238.727291 
L 535.879316 238.728851 
L 538.098819 238.73155 
L 540.318322 238.733059 
L 542.537825 238.735289 
L 544.757328 238.73728 
L 546.976831 238.740625 
L 549.196334 238.743193 
L 551.415837 238.728154 
L 553.63534 238.615538 
" clip-path="url(#pa877943eda)" style="fill: none; stroke: #66ccee; stroke-width: 1.2; stroke-linecap: round"/>
   </g>
   <g id="line2d_53">
    <path d="M 333.90454 238.803572 
L 336.124043 238.728174 
L 338.343546 238.400553 
L 340.563049 237.725272 
L 342.782552 236.866471 
L 345.002055 235.446738 
L 347.221558 234.045744 
L 349.441061 232.206041 
L 351.660564 230.344846 
L 353.880067 228.878678 
L 356.09957 227.247054 
L 358.319073 225.30107 
L 360.538576 223.564049 
L 362.758079 221.978188 
L 364.977582 220.396019 
L 367.197085 218.672386 
L 369.416588 216.71179 
L 371.636091 215.18021 
L 373.855595 213.609065 
L 376.075098 212.213557 
L 378.294601 211.002163 
L 380.514104 210.02006 
L 382.733607 208.719395 
L 384.95311 207.47512 
L 387.172613 206.426851 
L 389.392116 205.65952 
L 391.611619 205.150198 
L 393.831122 204.908363 
L 396.050625 204.730303 
L 398.270128 204.935211 
L 400.489631 205.605632 
L 402.709134 206.327083 
L 404.928637 207.201562 
L 407.14814 208.233388 
L 409.367643 209.473108 
L 411.587146 210.954555 
L 413.806649 212.415136 
L 416.026152 213.982409 
L 418.245655 215.606183 
L 420.465158 217.102189 
L 422.684661 218.535887 
L 424.904164 220.105762 
L 427.123667 221.659794 
L 429.34317 223.039837 
L 431.562673 224.338764 
L 433.782176 225.465453 
L 436.001679 226.43997 
L 438.221182 227.305241 
L 440.440685 228.101914 
L 442.660188 228.805587 
L 444.879691 229.436591 
L 447.099194 230.134971 
L 449.318697 230.873714 
L 451.5382 231.482156 
L 453.757704 232.033282 
L 455.977207 232.549013 
L 458.19671 233.066967 
L 460.416213 233.531982 
L 462.635716 233.937716 
L 464.855219 234.323902 
L 467.074722 234.715773 
L 469.294225 235.052221 
L 471.513728 235.400232 
L 473.733231 235.738175 
L 475.952734 236.047713 
L 478.172237 236.347535 
L 480.39174 236.607523 
L 482.611243 236.85474 
L 484.830746 237.07595 
L 487.050249 237.255441 
L 489.269752 237.429794 
L 491.489255 237.617392 
L 493.708758 237.788319 
L 495.928261 237.925852 
L 498.147764 238.042381 
L 500.367267 238.153082 
L 502.58677 238.26235 
L 504.806273 238.360396 
L 507.025776 238.449901 
L 509.245279 238.524582 
L 511.464782 238.582783 
L 513.684285 238.626142 
L 515.903788 238.660939 
L 518.123291 238.690349 
L 520.342794 238.718331 
L 522.562297 238.744133 
L 524.7818 238.761755 
L 527.001303 238.774547 
L 529.220806 238.783575 
L 531.44031 238.790562 
L 533.659813 238.795743 
L 535.879316 238.799104 
L 538.098819 238.801255 
L 540.318322 238.80261 
L 542.537825 238.803384 
L 544.757328 238.803776 
L 546.976831 238.803946 
L 549.196334 238.803992 
L 551.415837 238.804 
L 553.63534 238.804 
" clip-path="url(#pa877943eda)" style="fill: none; stroke-dasharray: 4.44,1.92; stroke-dashoffset: 0; stroke: #228833; stroke-opacity: 0.5; stroke-width: 1.2"/>
   </g>
   <g id="line2d_54">
    <path d="M 333.90454 238.589541 
L 336.124043 238.263514 
L 338.343546 237.694943 
L 340.563049 236.629675 
L 342.782552 235.188018 
L 345.002055 233.427419 
L 347.221558 231.427184 
L 349.441061 229.402057 
L 351.660564 227.452246 
L 353.880067 225.938302 
L 356.09957 224.33612 
L 358.319073 222.479267 
L 360.538576 220.822157 
L 362.758079 219.351936 
L 364.977582 217.84623 
L 367.197085 216.337937 
L 369.416588 214.858091 
L 371.636091 213.599371 
L 373.855595 212.61377 
L 376.075098 211.717984 
L 378.294601 210.813283 
L 380.514104 210.058817 
L 382.733607 209.349444 
L 384.95311 208.686037 
L 387.172613 208.066447 
L 389.392116 207.868136 
L 391.611619 207.864991 
L 393.831122 208.187754 
L 396.050625 208.632977 
L 398.270128 209.225487 
L 400.489631 210.06271 
L 402.709134 210.950828 
L 404.928637 211.853014 
L 407.14814 213.023825 
L 409.367643 214.324017 
L 411.587146 215.69811 
L 413.806649 217.042973 
L 416.026152 218.385446 
L 418.245655 219.714391 
L 420.465158 220.960466 
L 422.684661 222.169762 
L 424.904164 223.343274 
L 427.123667 224.463288 
L 429.34317 225.520661 
L 431.562673 226.462129 
L 433.782176 227.299396 
L 436.001679 228.017278 
L 438.221182 228.666815 
L 440.440685 229.24945 
L 442.660188 229.774485 
L 444.879691 230.254949 
L 447.099194 230.730585 
L 449.318697 231.225678 
L 451.5382 231.645959 
L 453.757704 232.039569 
L 455.977207 232.375319 
L 458.19671 232.729156 
L 460.416213 233.100347 
L 462.635716 233.407438 
L 464.855219 233.647666 
L 467.074722 233.89221 
L 469.294225 234.135157 
L 471.513728 234.387409 
L 473.733231 234.658328 
L 475.952734 234.912957 
L 478.172237 235.146099 
L 480.39174 235.343339 
L 482.611243 235.510626 
L 484.830746 235.67715 
L 487.050249 235.841556 
L 489.269752 236.00432 
L 491.489255 236.139577 
L 493.708758 236.274946 
L 495.928261 236.407816 
L 498.147764 236.522572 
L 500.367267 236.63526 
L 502.58677 236.748923 
L 504.806273 236.85873 
L 507.025776 236.948499 
L 509.245279 237.042703 
L 511.464782 237.143481 
L 513.684285 237.218635 
L 515.903788 237.273061 
L 518.123291 237.342986 
L 520.342794 237.420142 
L 522.562297 237.484128 
L 524.7818 237.533591 
L 527.001303 237.590194 
L 529.220806 237.628534 
L 531.44031 237.659502 
L 533.659813 237.702702 
L 535.879316 237.755339 
L 538.098819 237.792348 
L 540.318322 237.819441 
L 542.537825 237.850218 
L 544.757328 237.905018 
L 546.976831 237.993345 
L 549.196334 238.130713 
L 551.415837 238.401454 
L 553.63534 238.619227 
" clip-path="url(#pa877943eda)" style="fill: none; stroke: #228833; stroke-width: 1.2; stroke-linecap: round"/>
   </g>
   <g id="line2d_55">
    <path d="M 333.90454 238.804 
L 336.124043 238.804 
L 338.343546 238.804 
L 340.563049 238.804 
L 342.782552 238.804 
L 345.002055 238.804 
L 347.221558 238.804 
L 349.441061 238.804 
L 351.660564 238.804 
L 353.880067 238.804 
L 356.09957 238.804 
L 358.319073 238.804 
L 360.538576 238.804 
L 362.758079 238.804 
L 364.977582 238.804 
L 367.197085 238.804 
L 369.416588 238.804 
L 371.636091 238.804 
L 373.855595 238.804 
L 376.075098 238.804 
L 378.294601 238.804 
L 380.514104 238.804 
L 382.733607 238.804 
L 384.95311 238.804 
L 387.172613 238.804 
L 389.392116 238.804 
L 391.611619 238.804 
L 393.831122 238.804 
L 396.050625 238.804 
L 398.270128 238.804 
L 400.489631 238.804 
L 402.709134 238.804 
L 404.928637 238.804 
L 407.14814 238.804 
L 409.367643 238.804 
L 411.587146 238.804 
L 413.806649 238.804 
L 416.026152 238.804 
L 418.245655 238.804 
L 420.465158 238.804 
L 422.684661 238.804 
L 424.904164 238.804 
L 427.123667 238.804 
L 429.34317 238.804 
L 431.562673 238.804 
L 433.782176 238.804 
L 436.001679 238.804 
L 438.221182 238.804 
L 440.440685 238.804 
L 442.660188 238.804 
L 444.879691 238.804 
L 447.099194 238.804 
L 449.318697 238.804 
L 451.5382 238.804 
L 453.757704 238.804 
L 455.977207 238.804 
L 458.19671 238.804 
L 460.416213 238.804 
L 462.635716 238.804 
L 464.855219 238.804 
L 467.074722 238.804 
L 469.294225 238.804 
L 471.513728 238.804 
L 473.733231 238.804 
L 475.952734 238.804 
L 478.172237 238.804 
L 480.39174 238.804 
L 482.611243 238.804 
L 484.830746 238.804 
L 487.050249 238.804 
L 489.269752 238.804 
L 491.489255 238.804 
L 493.708758 238.804 
L 495.928261 238.804 
L 498.147764 238.804 
L 500.367267 238.804 
L 502.58677 238.804 
L 504.806273 238.804 
L 507.025776 238.804 
L 509.245279 238.804 
L 511.464782 238.804 
L 513.684285 238.804 
L 515.903788 238.804 
L 518.123291 238.804 
L 520.342794 238.804 
L 522.562297 238.804 
L 524.7818 238.804 
L 527.001303 238.804 
L 529.220806 238.804 
L 531.44031 238.804 
L 533.659813 238.804 
L 535.879316 238.804 
L 538.098819 238.804 
L 540.318322 238.804 
L 542.537825 238.804 
L 544.757328 238.804 
L 546.976831 238.804 
L 549.196334 238.804 
L 551.415837 238.804 
L 553.63534 238.804 
" clip-path="url(#pa877943eda)" style="fill: none; stroke-dasharray: 4.44,1.92; stroke-dashoffset: 0; stroke: #ccbb44; stroke-opacity: 0.5; stroke-width: 1.2"/>
   </g>
   <g id="line2d_56">
    <path d="M 333.90454 238.555367 
L 336.124043 238.553135 
L 338.343546 238.52948 
L 340.563049 238.512103 
L 342.782552 238.481199 
L 345.002055 238.405213 
L 347.221558 238.327522 
L 349.441061 238.182591 
L 351.660564 238.021091 
L 353.880067 237.751372 
L 356.09957 237.401916 
L 358.319073 237.018145 
L 360.538576 236.757694 
L 362.758079 236.344563 
L 364.977582 235.942524 
L 367.197085 235.568384 
L 369.416588 235.099381 
L 371.636091 234.541733 
L 373.855595 234.075153 
L 376.075098 233.494553 
L 378.294601 232.919304 
L 380.514104 232.455025 
L 382.733607 231.838419 
L 384.95311 231.294371 
L 387.172613 230.757362 
L 389.392116 230.227719 
L 391.611619 229.652868 
L 393.831122 229.018109 
L 396.050625 228.334224 
L 398.270128 227.691624 
L 400.489631 226.997896 
L 402.709134 226.369677 
L 404.928637 225.805969 
L 407.14814 225.19598 
L 409.367643 224.591105 
L 411.587146 223.892948 
L 413.806649 223.141466 
L 416.026152 222.396676 
L 418.245655 221.802251 
L 420.465158 221.352843 
L 422.684661 220.972539 
L 424.904164 220.641742 
L 427.123667 220.393263 
L 429.34317 220.134038 
L 431.562673 219.870485 
L 433.782176 219.69108 
L 436.001679 219.65947 
L 438.221182 219.716816 
L 440.440685 219.795779 
L 442.660188 219.841557 
L 444.879691 219.953188 
L 447.099194 220.109203 
L 449.318697 220.261823 
L 451.5382 220.449987 
L 453.757704 220.72201 
L 455.977207 221.014132 
L 458.19671 221.278462 
L 460.416213 221.548416 
L 462.635716 221.794684 
L 464.855219 222.070154 
L 467.074722 222.372149 
L 469.294225 222.70832 
L 471.513728 223.026626 
L 473.733231 223.328768 
L 475.952734 223.583543 
L 478.172237 223.843535 
L 480.39174 224.140449 
L 482.611243 224.416045 
L 484.830746 224.680364 
L 487.050249 224.931161 
L 489.269752 225.139 
L 491.489255 225.385832 
L 493.708758 225.695158 
L 495.928261 226.023102 
L 498.147764 226.332257 
L 500.367267 226.580848 
L 502.58677 226.831209 
L 504.806273 227.094718 
L 507.025776 227.362418 
L 509.245279 227.613812 
L 511.464782 227.866728 
L 513.684285 228.126372 
L 515.903788 228.356176 
L 518.123291 228.580256 
L 520.342794 228.818697 
L 522.562297 229.037138 
L 524.7818 229.236424 
L 527.001303 229.442205 
L 529.220806 229.641684 
L 531.44031 229.857103 
L 533.659813 230.079848 
L 535.879316 230.29549 
L 538.098819 230.493189 
L 540.318322 230.670367 
L 542.537825 230.861287 
L 544.757328 231.028739 
L 546.976831 231.209228 
L 549.196334 231.91366 
L 551.415837 234.265292 
L 553.63534 238.133166 
" clip-path="url(#pa877943eda)" style="fill: none; stroke: #ccbb44; stroke-width: 1.2; stroke-linecap: round"/>
   </g>
   <g id="line2d_57"/>
   <g id="line2d_58">
    <path d="M 333.90454 237.967953 
L 336.124043 238.130557 
L 338.343546 238.177072 
L 340.563049 238.175984 
L 342.782552 238.171414 
L 345.002055 238.171123 
L 347.221558 238.175061 
L 349.441061 238.182052 
L 351.660564 238.187047 
L 353.880067 238.187063 
L 356.09957 238.181004 
L 358.319073 238.168986 
L 360.538576 238.129708 
L 362.758079 238.104061 
L 364.977582 238.072548 
L 367.197085 238.036204 
L 369.416588 237.953489 
L 371.636091 237.89451 
L 373.855595 237.805505 
L 376.075098 237.728809 
L 378.294601 237.640512 
L 380.514104 237.514057 
L 382.733607 237.374109 
L 384.95311 237.289336 
L 387.172613 237.161715 
L 389.392116 237.006804 
L 391.611619 236.804021 
L 393.831122 236.653104 
L 396.050625 236.464241 
L 398.270128 236.267298 
L 400.489631 236.146885 
L 402.709134 235.937081 
L 404.928637 235.752416 
L 407.14814 235.418639 
L 409.367643 235.158127 
L 411.587146 234.958948 
L 413.806649 234.729737 
L 416.026152 234.491491 
L 418.245655 234.243429 
L 420.465158 233.950403 
L 422.684661 233.610014 
L 424.904164 233.305371 
L 427.123667 233.028823 
L 429.34317 232.706943 
L 431.562673 232.373829 
L 433.782176 232.053848 
L 436.001679 231.673537 
L 438.221182 231.316928 
L 440.440685 230.965662 
L 442.660188 230.544762 
L 444.879691 230.09427 
L 447.099194 229.699976 
L 449.318697 229.316454 
L 451.5382 228.863359 
L 453.757704 228.403165 
L 455.977207 227.941626 
L 458.19671 227.536125 
L 460.416213 227.125958 
L 462.635716 226.661524 
L 464.855219 226.282005 
L 467.074722 225.948446 
L 469.294225 225.528503 
L 471.513728 225.084122 
L 473.733231 224.631595 
L 475.952734 224.120563 
L 478.172237 223.580891 
L 480.39174 223.108384 
L 482.611243 222.727656 
L 484.830746 222.317015 
L 487.050249 221.88141 
L 489.269752 221.388367 
L 491.489255 220.942786 
L 493.708758 220.598588 
L 495.928261 220.20755 
L 498.147764 219.785021 
L 500.367267 219.397453 
L 502.58677 218.982805 
L 504.806273 218.565055 
L 507.025776 218.162958 
L 509.245279 217.859278 
L 511.464782 217.542933 
L 513.684285 217.15379 
L 515.903788 216.762517 
L 518.123291 216.281036 
L 520.342794 215.798493 
L 522.562297 215.303498 
L 524.7818 214.884482 
L 527.001303 214.418669 
L 529.220806 213.848772 
L 531.44031 213.258855 
L 533.659813 212.555083 
L 535.879316 211.865438 
L 538.098819 211.243335 
L 540.318322 210.543307 
L 542.537825 209.709644 
L 544.757328 208.780173 
L 546.976831 207.807888 
L 549.196334 207.105254 
L 551.415837 213.161268 
L 553.63534 235.310231 
" clip-path="url(#pa877943eda)" style="fill: none; stroke: #ee6677; stroke-width: 1.2; stroke-linecap: round"/>
   </g>
   <g id="line2d_59">
    <path d="M 333.90454 238.804 
L 336.124043 238.804 
L 338.343546 238.804 
L 340.563049 238.804 
L 342.782552 238.804 
L 345.002055 238.804 
L 347.221558 238.804 
L 349.441061 238.804 
L 351.660564 238.804 
L 353.880067 238.804 
L 356.09957 238.804 
L 358.319073 238.804 
L 360.538576 238.804 
L 362.758079 238.804 
L 364.977582 238.804 
L 367.197085 238.804 
L 369.416588 238.804 
L 371.636091 238.804 
L 373.855595 238.804 
L 376.075098 238.804 
L 378.294601 238.803999 
L 380.514104 238.803999 
L 382.733607 238.803998 
L 384.95311 238.803997 
L 387.172613 238.803995 
L 389.392116 238.803993 
L 391.611619 238.80399 
L 393.831122 238.803984 
L 396.050625 238.803978 
L 398.270128 238.803969 
L 400.489631 238.803956 
L 402.709134 238.803938 
L 404.928637 238.803914 
L 407.14814 238.803885 
L 409.367643 238.803846 
L 411.587146 238.803791 
L 413.806649 238.803721 
L 416.026152 238.803637 
L 418.245655 238.80352 
L 420.465158 238.803364 
L 422.684661 238.803172 
L 424.904164 238.802919 
L 427.123667 238.802588 
L 429.34317 238.802186 
L 431.562673 238.801654 
L 433.782176 238.801014 
L 436.001679 238.800226 
L 438.221182 238.799245 
L 440.440685 238.79808 
L 442.660188 238.796738 
L 444.879691 238.795153 
L 447.099194 238.793307 
L 449.318697 238.791075 
L 451.5382 238.788389 
L 453.757704 238.785104 
L 455.977207 238.780871 
L 458.19671 238.775594 
L 460.416213 238.768994 
L 462.635716 238.760639 
L 464.855219 238.750134 
L 467.074722 238.737316 
L 469.294225 238.721329 
L 471.513728 238.701527 
L 473.733231 238.677366 
L 475.952734 238.647363 
L 478.172237 238.61044 
L 480.39174 238.564588 
L 482.611243 238.507429 
L 484.830746 238.43527 
L 487.050249 238.345451 
L 489.269752 238.232677 
L 491.489255 238.092427 
L 493.708758 237.918048 
L 495.928261 237.698943 
L 498.147764 237.420822 
L 500.367267 237.072602 
L 502.58677 236.637072 
L 504.806273 236.095426 
L 507.025776 235.425374 
L 509.245279 234.597263 
L 511.464782 233.572128 
L 513.684285 232.303759 
L 515.903788 230.738044 
L 518.123291 228.806417 
L 520.342794 226.466557 
L 522.562297 223.631892 
L 524.7818 220.155663 
L 527.001303 215.902958 
L 529.220806 210.78103 
L 531.44031 204.626632 
L 533.659813 197.248942 
L 535.879316 188.328095 
L 538.098819 177.758496 
L 540.318322 165.777384 
L 542.537825 152.339812 
L 544.757328 137.25061 
L 546.976831 121.6632 
L 549.196334 108.682984 
L 551.415837 106.421083 
L 553.63534 138.671349 
" clip-path="url(#pa877943eda)" style="fill: none; stroke-dasharray: 4.44,1.92; stroke-dashoffset: 0; stroke: #aa3377; stroke-opacity: 0.5; stroke-width: 1.2"/>
   </g>
   <g id="line2d_60">
    <path d="M 333.90454 238.611361 
L 336.124043 238.648262 
L 338.343546 238.678343 
L 340.563049 238.696766 
L 342.782552 238.709244 
L 345.002055 238.717247 
L 347.221558 238.722049 
L 349.441061 238.724539 
L 351.660564 238.724923 
L 353.880067 238.722665 
L 356.09957 238.718112 
L 358.319073 238.711811 
L 360.538576 238.702022 
L 362.758079 238.69194 
L 364.977582 238.68003 
L 367.197085 238.6644 
L 369.416588 238.638271 
L 371.636091 238.615972 
L 373.855595 238.582023 
L 376.075098 238.552012 
L 378.294601 238.514093 
L 380.514104 238.465138 
L 382.733607 238.408855 
L 384.95311 238.363305 
L 387.172613 238.305057 
L 389.392116 238.245898 
L 391.611619 238.180775 
L 393.831122 238.100084 
L 396.050625 238.020682 
L 398.270128 237.922471 
L 400.489631 237.837552 
L 402.709134 237.739198 
L 404.928637 237.626374 
L 407.14814 237.474881 
L 409.367643 237.354813 
L 411.587146 237.232014 
L 413.806649 237.076506 
L 416.026152 236.936014 
L 418.245655 236.793984 
L 420.465158 236.635294 
L 422.684661 236.462065 
L 424.904164 236.28311 
L 427.123667 236.078467 
L 429.34317 235.867311 
L 431.562673 235.678204 
L 433.782176 235.469205 
L 436.001679 235.236444 
L 438.221182 234.99716 
L 440.440685 234.778922 
L 442.660188 234.526792 
L 444.879691 234.213527 
L 447.099194 233.928255 
L 449.318697 233.646824 
L 451.5382 233.354291 
L 453.757704 233.04331 
L 455.977207 232.679868 
L 458.19671 232.34339 
L 460.416213 232.043375 
L 462.635716 231.708867 
L 464.855219 231.383389 
L 467.074722 231.047521 
L 469.294225 230.689734 
L 471.513728 230.329829 
L 473.733231 229.965954 
L 475.952734 229.551122 
L 478.172237 229.101025 
L 480.39174 228.666698 
L 482.611243 228.308246 
L 484.830746 227.908238 
L 487.050249 227.466835 
L 489.269752 226.998969 
L 491.489255 226.540073 
L 493.708758 226.104493 
L 495.928261 225.612546 
L 498.147764 225.118572 
L 500.367267 224.620236 
L 502.58677 224.068645 
L 504.806273 223.481587 
L 507.025776 222.974045 
L 509.245279 222.471338 
L 511.464782 221.927649 
L 513.684285 221.30489 
L 515.903788 220.651574 
L 518.123291 219.947327 
L 520.342794 219.284896 
L 522.562297 218.537543 
L 524.7818 217.739847 
L 527.001303 216.916791 
L 529.220806 216.080294 
L 531.44031 215.2438 
L 533.659813 214.401209 
L 535.879316 213.528616 
L 538.098819 212.655116 
L 540.318322 211.753485 
L 542.537825 210.820573 
L 544.757328 209.752624 
L 546.976831 208.148523 
L 549.196334 201.162416 
L 551.415837 152.118062 
L 553.63534 28.750939 
" clip-path="url(#pa877943eda)" style="fill: none; stroke: #aa3377; stroke-width: 1.2; stroke-linecap: round"/>
   </g>
   <g id="patch_10">
    <path d="M 322.918 238.804 
L 322.918 23.568 
" style="fill: none; stroke: #262626; stroke-linejoin: miter; stroke-linecap: square"/>
   </g>
   <g id="patch_11">
    <path d="M 564.62188 238.804 
L 564.62188 23.568 
" style="fill: none; stroke: #262626; stroke-linejoin: miter; stroke-linecap: square"/>
   </g>
   <g id="patch_12">
    <path d="M 322.918 238.804 
L 564.62188 238.804 
" style="fill: none; stroke: #262626; stroke-linejoin: miter; stroke-linecap: square"/>
   </g>
   <g id="patch_13">
    <path d="M 322.918 23.568 
L 564.62188 23.568 
" style="fill: none; stroke: #262626; stroke-linejoin: miter; stroke-linecap: square"/>
   </g>
   <g id="text_35">
    <!-- Speed -->
    <g style="fill: #262626" transform="translate(428.72119 17.568) scale(0.096 -0.096)">
     <defs>
      <path id="DejaVuSans-53" d="M 3425 4513 
L 3425 3897 
Q 3066 4069 2747 4153 
Q 2428 4238 2131 4238 
Q 1616 4238 1336 4038 
Q 1056 3838 1056 3469 
Q 1056 3159 1242 3001 
Q 1428 2844 1947 2747 
L 2328 2669 
Q 3034 2534 3370 2195 
Q 3706 1856 3706 1288 
Q 3706 609 3251 259 
Q 2797 -91 1919 -91 
Q 1588 -91 1214 -16 
Q 841 59 441 206 
L 441 856 
Q 825 641 1194 531 
Q 1563 422 1919 422 
Q 2459 422 2753 634 
Q 3047 847 3047 1241 
Q 3047 1584 2836 1778 
Q 2625 1972 2144 2069 
L 1759 2144 
Q 1053 2284 737 2584 
Q 422 2884 422 3419 
Q 422 4038 858 4394 
Q 1294 4750 2059 4750 
Q 2388 4750 2728 4690 
Q 3069 4631 3425 4513 
z
" transform="scale(0.015625)"/>
     </defs>
     <use xlink:href="#DejaVuSans-53"/>
     <use xlink:href="#DejaVuSans-70" x="63.476562"/>
     <use xlink:href="#DejaVuSans-65" x="126.953125"/>
     <use xlink:href="#DejaVuSans-65" x="188.476562"/>
     <use xlink:href="#DejaVuSans-64" x="250"/>
    </g>
   </g>
   <g id="legend_3">
    <g id="patch_14">
     <path d="M 510.78513 70.1325 
L 558.46188 70.1325 
Q 560.22188 70.1325 560.22188 68.3725 
L 560.22188 29.728 
Q 560.22188 27.968 558.46188 27.968 
L 510.78513 27.968 
Q 509.02513 27.968 509.02513 29.728 
L 509.02513 68.3725 
Q 509.02513 70.1325 510.78513 70.1325 
z
" style="fill: #ffffff; opacity: 0.8; stroke: #cccccc; stroke-width: 0.8; stroke-linejoin: miter"/>
    </g>
    <g id="text_36">
     <!-- Source -->
     <g style="fill: #262626" transform="translate(518.139255 38.7825) scale(0.096 -0.096)">
      <use xlink:href="#DejaVuSans-53"/>
      <use xlink:href="#DejaVuSans-6f" x="63.476562"/>
      <use xlink:href="#DejaVuSans-75" x="124.658203"/>
      <use xlink:href="#DejaVuSans-72" x="188.037109"/>
      <use xlink:href="#DejaVuSans-63" x="226.900391"/>
      <use xlink:href="#DejaVuSans-65" x="281.880859"/>
     </g>
    </g>
    <g id="line2d_61">
     <path d="M 512.54513 48.785625 
L 521.34513 48.785625 
L 530.14513 48.785625 
" style="fill: none; stroke-dasharray: 4.44,1.92; stroke-dashoffset: 0; stroke: #000000; stroke-width: 1.2"/>
    </g>
    <g id="text_37">
     <!-- HMP -->
     <g style="fill: #262626" transform="translate(537.18513 51.865625) scale(0.088 -0.088)">
      <defs>
       <path id="DejaVuSans-48" d="M 628 4666 
L 1259 4666 
L 1259 2753 
L 3553 2753 
L 3553 4666 
L 4184 4666 
L 4184 0 
L 3553 0 
L 3553 2222 
L 1259 2222 
L 1259 0 
L 628 0 
L 628 4666 
z
" transform="scale(0.015625)"/>
       <path id="DejaVuSans-4d" d="M 628 4666 
L 1569 4666 
L 2759 1491 
L 3956 4666 
L 4897 4666 
L 4897 0 
L 4281 0 
L 4281 4097 
L 3078 897 
L 2444 897 
L 1241 4097 
L 1241 0 
L 628 0 
L 628 4666 
z
" transform="scale(0.015625)"/>
       <path id="DejaVuSans-50" d="M 1259 4147 
L 1259 2394 
L 2053 2394 
Q 2494 2394 2734 2622 
Q 2975 2850 2975 3272 
Q 2975 3691 2734 3919 
Q 2494 4147 2053 4147 
L 1259 4147 
z
M 628 4666 
L 2053 4666 
Q 2838 4666 3239 4311 
Q 3641 3956 3641 3272 
Q 3641 2581 3239 2228 
Q 2838 1875 2053 1875 
L 1259 1875 
L 1259 0 
L 628 0 
L 628 4666 
z
" transform="scale(0.015625)"/>
      </defs>
      <use xlink:href="#DejaVuSans-48"/>
      <use xlink:href="#DejaVuSans-4d" x="75.195312"/>
      <use xlink:href="#DejaVuSans-50" x="161.474609"/>
     </g>
    </g>
    <g id="line2d_62">
     <path d="M 512.54513 61.702375 
L 521.34513 61.702375 
L 530.14513 61.702375 
" style="fill: none; stroke: #000000; stroke-width: 1.2; stroke-linecap: round"/>
    </g>
    <g id="text_38">
     <!-- S4 -->
     <g style="fill: #262626" transform="translate(537.18513 64.782375) scale(0.088 -0.088)">
      <use xlink:href="#DejaVuSans-53"/>
      <use xlink:href="#DejaVuSans-34" x="63.476562"/>
     </g>
    </g>
   </g>
   <g id="legend_4"/>
  </g>
  <g id="text_39">
   <!-- Probability density -->
   <g style="fill: #262626" transform="translate(20.2734 197.3961) rotate(-90) scale(0.1152 -0.1152)">
    <defs>
     <path id="DejaVuSans-62" d="M 3116 1747 
Q 3116 2381 2855 2742 
Q 2594 3103 2138 3103 
Q 1681 3103 1420 2742 
Q 1159 2381 1159 1747 
Q 1159 1113 1420 752 
Q 1681 391 2138 391 
Q 2594 391 2855 752 
Q 3116 1113 3116 1747 
z
M 1159 2969 
Q 1341 3281 1617 3432 
Q 1894 3584 2278 3584 
Q 2916 3584 3314 3078 
Q 3713 2572 3713 1747 
Q 3713 922 3314 415 
Q 2916 -91 2278 -91 
Q 1894 -91 1617 61 
Q 1341 213 1159 525 
L 1159 0 
L 581 0 
L 581 4863 
L 1159 4863 
L 1159 2969 
z
" transform="scale(0.015625)"/>
     <path id="DejaVuSans-6c" d="M 603 4863 
L 1178 4863 
L 1178 0 
L 603 0 
L 603 4863 
z
" transform="scale(0.015625)"/>
     <path id="DejaVuSans-20" transform="scale(0.015625)"/>
    </defs>
    <use xlink:href="#DejaVuSans-50"/>
    <use xlink:href="#DejaVuSans-72" x="58.552734"/>
    <use xlink:href="#DejaVuSans-6f" x="97.416016"/>
    <use xlink:href="#DejaVuSans-62" x="158.597656"/>
    <use xlink:href="#DejaVuSans-61" x="222.074219"/>
    <use xlink:href="#DejaVuSans-62" x="283.353516"/>
    <use xlink:href="#DejaVuSans-69" x="346.830078"/>
    <use xlink:href="#DejaVuSans-6c" x="374.613281"/>
    <use xlink:href="#DejaVuSans-69" x="402.396484"/>
    <use xlink:href="#DejaVuSans-74" x="430.179688"/>
    <use xlink:href="#DejaVuSans-79" x="469.388672"/>
    <use xlink:href="#DejaVuSans-20" x="528.568359"/>
    <use xlink:href="#DejaVuSans-64" x="560.355469"/>
    <use xlink:href="#DejaVuSans-65" x="623.832031"/>
    <use xlink:href="#DejaVuSans-6e" x="685.355469"/>
    <use xlink:href="#DejaVuSans-73" x="748.734375"/>
    <use xlink:href="#DejaVuSans-69" x="800.833984"/>
    <use xlink:href="#DejaVuSans-74" x="828.617188"/>
    <use xlink:href="#DejaVuSans-79" x="867.826172"/>
   </g>
  </g>
  <g id="text_40">
   <!-- Scaled time -->
   <g style="fill: #262626" transform="translate(254.0016 282.7242) scale(0.1152 -0.1152)">
    <use xlink:href="#DejaVuSans-53"/>
    <use xlink:href="#DejaVuSans-63" x="63.476562"/>
    <use xlink:href="#DejaVuSans-61" x="118.457031"/>
    <use xlink:href="#DejaVuSans-6c" x="179.736328"/>
    <use xlink:href="#DejaVuSans-65" x="207.519531"/>
    <use xlink:href="#DejaVuSans-64" x="269.042969"/>
    <use xlink:href="#DejaVuSans-20" x="332.519531"/>
    <use xlink:href="#DejaVuSans-74" x="364.306641"/>
    <use xlink:href="#DejaVuSans-69" x="403.515625"/>
    <use xlink:href="#DejaVuSans-6d" x="431.298828"/>
    <use xlink:href="#DejaVuSans-65" x="528.710938"/>
   </g>
  </g>
 </g>
 <defs>
  <clipPath id="p1f3eb76572">
   <rect x="65.036" y="23.568" width="241.70388" height="215.236"/>
  </clipPath>
  <clipPath id="pa877943eda">
   <rect x="322.918" y="23.568" width="241.70388" height="215.236"/>
  </clipPath>
 </defs>
</svg>
