<?xml version="1.0" encoding="utf-8" standalone="no"?>
<!DOCTYPE svg PUBLIC "-//W3C//DTD SVG 1.1//EN"
  "http://www.w3.org/Graphics/SVG/1.1/DTD/svg11.dtd">
<svg xmlns:xlink="http://www.w3.org/1999/xlink" width="576pt" height="288pt" viewBox="0 0 576 288" xmlns="http://www.w3.org/2000/svg" version="1.1">
 <metadata>
  <rdf:RDF xmlns:dc="http://purl.org/dc/elements/1.1/" xmlns:cc="http://creativecommons.org/ns#" xmlns:rdf="http://www.w3.org/1999/02/22-rdf-syntax-ns#">
   <cc:Work>
    <dc:type rdf:resource="http://purl.org/dc/dcmitype/StillImage"/>
    <dc:date>2025-01-09T11:34:30.075555</dc:date>
    <dc:format>image/svg+xml</dc:format>
    <dc:creator>
     <cc:Agent>
      <dc:title>Matplotlib v3.9.2, https://matplotlib.org/</dc:title>
     </cc:Agent>
    </dc:creator>
   </cc:Work>
  </rdf:RDF>
 </metadata>
 <defs>
  <style type="text/css">*{stroke-linejoin: round; stroke-linecap: butt}</style>
 </defs>
 <g id="figure_1">
  <g id="patch_1">
   <path d="M 0 288 
L 576 288 
L 576 0 
L 0 0 
L 0 288 
z
" style="fill: none"/>
  </g>
  <g id="axes_1">
   <g id="patch_2">
    <path d="M 53.876 238.804 
L 301.15988 238.804 
L 301.15988 23.568 
L 53.876 23.568 
L 53.876 238.804 
z
" style="fill: none"/>
   </g>
   <g id="matplotlib.axis_1">
    <g id="xtick_1">
     <g id="line2d_1">
      <defs>
       <path id="m369bd3e0db" d="M 0 0 
L 0 4.8 
" style="stroke: #262626"/>
      </defs>
      <g>
       <use xlink:href="#m369bd3e0db" x="65.116176" y="238.804" style="fill: #262626; stroke: #262626"/>
      </g>
     </g>
     <g id="text_1">
      <!-- 0 -->
      <g style="fill: #262626" transform="translate(62.316676 253.790625) scale(0.088 -0.088)">
       <defs>
        <path id="DejaVuSans-30" d="M 2034 4250 
Q 1547 4250 1301 3770 
Q 1056 3291 1056 2328 
Q 1056 1369 1301 889 
Q 1547 409 2034 409 
Q 2525 409 2770 889 
Q 3016 1369 3016 2328 
Q 3016 3291 2770 3770 
Q 2525 4250 2034 4250 
z
M 2034 4750 
Q 2819 4750 3233 4129 
Q 3647 3509 3647 2328 
Q 3647 1150 3233 529 
Q 2819 -91 2034 -91 
Q 1250 -91 836 529 
Q 422 1150 422 2328 
Q 422 3509 836 4129 
Q 1250 4750 2034 4750 
z
" transform="scale(0.015625)"/>
       </defs>
       <use xlink:href="#DejaVuSans-30"/>
      </g>
     </g>
    </g>
    <g id="xtick_2">
     <g id="line2d_2">
      <g>
       <use xlink:href="#m369bd3e0db" x="110.53103" y="238.804" style="fill: #262626; stroke: #262626"/>
      </g>
     </g>
     <g id="text_2">
      <!-- 20 -->
      <g style="fill: #262626" transform="translate(104.93203 253.790625) scale(0.088 -0.088)">
       <defs>
        <path id="DejaVuSans-32" d="M 1228 531 
L 3431 531 
L 3431 0 
L 469 0 
L 469 531 
Q 828 903 1448 1529 
Q 2069 2156 2228 2338 
Q 2531 2678 2651 2914 
Q 2772 3150 2772 3378 
Q 2772 3750 2511 3984 
Q 2250 4219 1831 4219 
Q 1534 4219 1204 4116 
Q 875 4013 500 3803 
L 500 4441 
Q 881 4594 1212 4672 
Q 1544 4750 1819 4750 
Q 2544 4750 2975 4387 
Q 3406 4025 3406 3419 
Q 3406 3131 3298 2873 
Q 3191 2616 2906 2266 
Q 2828 2175 2409 1742 
Q 1991 1309 1228 531 
z
" transform="scale(0.015625)"/>
       </defs>
       <use xlink:href="#DejaVuSans-32"/>
       <use xlink:href="#DejaVuSans-30" x="63.623047"/>
      </g>
     </g>
    </g>
    <g id="xtick_3">
     <g id="line2d_3">
      <g>
       <use xlink:href="#m369bd3e0db" x="155.945884" y="238.804" style="fill: #262626; stroke: #262626"/>
      </g>
     </g>
     <g id="text_3">
      <!-- 40 -->
      <g style="fill: #262626" transform="translate(150.346884 253.790625) scale(0.088 -0.088)">
       <defs>
        <path id="DejaVuSans-34" d="M 2419 4116 
L 825 1625 
L 2419 1625 
L 2419 4116 
z
M 2253 4666 
L 3047 4666 
L 3047 1625 
L 3713 1625 
L 3713 1100 
L 3047 1100 
L 3047 0 
L 2419 0 
L 2419 1100 
L 313 1100 
L 313 1709 
L 2253 4666 
z
" transform="scale(0.015625)"/>
       </defs>
       <use xlink:href="#DejaVuSans-34"/>
       <use xlink:href="#DejaVuSans-30" x="63.623047"/>
      </g>
     </g>
    </g>
    <g id="xtick_4">
     <g id="line2d_4">
      <g>
       <use xlink:href="#m369bd3e0db" x="201.360738" y="238.804" style="fill: #262626; stroke: #262626"/>
      </g>
     </g>
     <g id="text_4">
      <!-- 60 -->
      <g style="fill: #262626" transform="translate(195.761738 253.790625) scale(0.088 -0.088)">
       <defs>
        <path id="DejaVuSans-36" d="M 2113 2584 
Q 1688 2584 1439 2293 
Q 1191 2003 1191 1497 
Q 1191 994 1439 701 
Q 1688 409 2113 409 
Q 2538 409 2786 701 
Q 3034 994 3034 1497 
Q 3034 2003 2786 2293 
Q 2538 2584 2113 2584 
z
M 3366 4563 
L 3366 3988 
Q 3128 4100 2886 4159 
Q 2644 4219 2406 4219 
Q 1781 4219 1451 3797 
Q 1122 3375 1075 2522 
Q 1259 2794 1537 2939 
Q 1816 3084 2150 3084 
Q 2853 3084 3261 2657 
Q 3669 2231 3669 1497 
Q 3669 778 3244 343 
Q 2819 -91 2113 -91 
Q 1303 -91 875 529 
Q 447 1150 447 2328 
Q 447 3434 972 4092 
Q 1497 4750 2381 4750 
Q 2619 4750 2861 4703 
Q 3103 4656 3366 4563 
z
" transform="scale(0.015625)"/>
       </defs>
       <use xlink:href="#DejaVuSans-36"/>
       <use xlink:href="#DejaVuSans-30" x="63.623047"/>
      </g>
     </g>
    </g>
    <g id="xtick_5">
     <g id="line2d_5">
      <g>
       <use xlink:href="#m369bd3e0db" x="246.775592" y="238.804" style="fill: #262626; stroke: #262626"/>
      </g>
     </g>
     <g id="text_5">
      <!-- 80 -->
      <g style="fill: #262626" transform="translate(241.176592 253.790625) scale(0.088 -0.088)">
       <defs>
        <path id="DejaVuSans-38" d="M 2034 2216 
Q 1584 2216 1326 1975 
Q 1069 1734 1069 1313 
Q 1069 891 1326 650 
Q 1584 409 2034 409 
Q 2484 409 2743 651 
Q 3003 894 3003 1313 
Q 3003 1734 2745 1975 
Q 2488 2216 2034 2216 
z
M 1403 2484 
Q 997 2584 770 2862 
Q 544 3141 544 3541 
Q 544 4100 942 4425 
Q 1341 4750 2034 4750 
Q 2731 4750 3128 4425 
Q 3525 4100 3525 3541 
Q 3525 3141 3298 2862 
Q 3072 2584 2669 2484 
Q 3125 2378 3379 2068 
Q 3634 1759 3634 1313 
Q 3634 634 3220 271 
Q 2806 -91 2034 -91 
Q 1263 -91 848 271 
Q 434 634 434 1313 
Q 434 1759 690 2068 
Q 947 2378 1403 2484 
z
M 1172 3481 
Q 1172 3119 1398 2916 
Q 1625 2713 2034 2713 
Q 2441 2713 2670 2916 
Q 2900 3119 2900 3481 
Q 2900 3844 2670 4047 
Q 2441 4250 2034 4250 
Q 1625 4250 1398 4047 
Q 1172 3844 1172 3481 
z
" transform="scale(0.015625)"/>
       </defs>
       <use xlink:href="#DejaVuSans-38"/>
       <use xlink:href="#DejaVuSans-30" x="63.623047"/>
      </g>
     </g>
    </g>
    <g id="xtick_6">
     <g id="line2d_6">
      <g>
       <use xlink:href="#m369bd3e0db" x="292.190446" y="238.804" style="fill: #262626; stroke: #262626"/>
      </g>
     </g>
     <g id="text_6">
      <!-- 100 -->
      <g style="fill: #262626" transform="translate(283.791946 253.790625) scale(0.088 -0.088)">
       <defs>
        <path id="DejaVuSans-31" d="M 794 531 
L 1825 531 
L 1825 4091 
L 703 3866 
L 703 4441 
L 1819 4666 
L 2450 4666 
L 2450 531 
L 3481 531 
L 3481 0 
L 794 0 
L 794 531 
z
" transform="scale(0.015625)"/>
       </defs>
       <use xlink:href="#DejaVuSans-31"/>
       <use xlink:href="#DejaVuSans-30" x="63.623047"/>
       <use xlink:href="#DejaVuSans-30" x="127.246094"/>
      </g>
     </g>
    </g>
   </g>
   <g id="matplotlib.axis_2">
    <g id="ytick_1">
     <g id="line2d_7">
      <defs>
       <path id="m5ad32db8ea" d="M 0 0 
L -4.8 0 
" style="stroke: #262626"/>
      </defs>
      <g>
       <use xlink:href="#m5ad32db8ea" x="53.876" y="229.020545" style="fill: #262626; stroke: #262626"/>
      </g>
     </g>
     <g id="text_7">
      <!-- 0.0 -->
      <g style="fill: #262626" transform="translate(31.58125 232.363858) scale(0.088 -0.088)">
       <defs>
        <path id="DejaVuSans-2e" d="M 684 794 
L 1344 794 
L 1344 0 
L 684 0 
L 684 794 
z
" transform="scale(0.015625)"/>
       </defs>
       <use xlink:href="#DejaVuSans-30"/>
       <use xlink:href="#DejaVuSans-2e" x="63.623047"/>
       <use xlink:href="#DejaVuSans-30" x="95.410156"/>
      </g>
     </g>
    </g>
    <g id="ytick_2">
     <g id="line2d_8">
      <g>
       <use xlink:href="#m5ad32db8ea" x="53.876" y="189.886755" style="fill: #262626; stroke: #262626"/>
      </g>
     </g>
     <g id="text_8">
      <!-- 0.2 -->
      <g style="fill: #262626" transform="translate(31.58125 193.230068) scale(0.088 -0.088)">
       <use xlink:href="#DejaVuSans-30"/>
       <use xlink:href="#DejaVuSans-2e" x="63.623047"/>
       <use xlink:href="#DejaVuSans-32" x="95.410156"/>
      </g>
     </g>
    </g>
    <g id="ytick_3">
     <g id="line2d_9">
      <g>
       <use xlink:href="#m5ad32db8ea" x="53.876" y="150.752965" style="fill: #262626; stroke: #262626"/>
      </g>
     </g>
     <g id="text_9">
      <!-- 0.4 -->
      <g style="fill: #262626" transform="translate(31.58125 154.096278) scale(0.088 -0.088)">
       <use xlink:href="#DejaVuSans-30"/>
       <use xlink:href="#DejaVuSans-2e" x="63.623047"/>
       <use xlink:href="#DejaVuSans-34" x="95.410156"/>
      </g>
     </g>
    </g>
    <g id="ytick_4">
     <g id="line2d_10">
      <g>
       <use xlink:href="#m5ad32db8ea" x="53.876" y="111.619175" style="fill: #262626; stroke: #262626"/>
      </g>
     </g>
     <g id="text_10">
      <!-- 0.6 -->
      <g style="fill: #262626" transform="translate(31.58125 114.962487) scale(0.088 -0.088)">
       <use xlink:href="#DejaVuSans-30"/>
       <use xlink:href="#DejaVuSans-2e" x="63.623047"/>
       <use xlink:href="#DejaVuSans-36" x="95.410156"/>
      </g>
     </g>
    </g>
    <g id="ytick_5">
     <g id="line2d_11">
      <g>
       <use xlink:href="#m5ad32db8ea" x="53.876" y="72.485385" style="fill: #262626; stroke: #262626"/>
      </g>
     </g>
     <g id="text_11">
      <!-- 0.8 -->
      <g style="fill: #262626" transform="translate(31.58125 75.828697) scale(0.088 -0.088)">
       <use xlink:href="#DejaVuSans-30"/>
       <use xlink:href="#DejaVuSans-2e" x="63.623047"/>
       <use xlink:href="#DejaVuSans-38" x="95.410156"/>
      </g>
     </g>
    </g>
    <g id="ytick_6">
     <g id="line2d_12">
      <g>
       <use xlink:href="#m5ad32db8ea" x="53.876" y="33.351594" style="fill: #262626; stroke: #262626"/>
      </g>
     </g>
     <g id="text_12">
      <!-- 1.0 -->
      <g style="fill: #262626" transform="translate(31.58125 36.694907) scale(0.088 -0.088)">
       <use xlink:href="#DejaVuSans-31"/>
       <use xlink:href="#DejaVuSans-2e" x="63.623047"/>
       <use xlink:href="#DejaVuSans-30" x="95.410156"/>
      </g>
     </g>
    </g>
   </g>
   <g id="PolyCollection_1"/>
   <g id="PolyCollection_2"/>
   <g id="PolyCollection_3"/>
   <g id="PolyCollection_4"/>
   <g id="PolyCollection_5"/>
   <g id="PolyCollection_6"/>
   <g id="PolyCollection_7"/>
   <g id="PolyCollection_8"/>
   <g id="PolyCollection_9"/>
   <g id="PolyCollection_10"/>
   <g id="line2d_13">
    <path d="M 65.116176 226.189536 
L 67.386919 213.200036 
L 69.657662 196.050784 
L 71.928404 178.134602 
L 74.199147 160.884775 
L 76.46989 144.427924 
L 78.740633 129.105314 
L 81.011375 115.209953 
L 83.282118 102.793771 
L 85.552861 91.85966 
L 87.823603 82.185875 
L 90.094346 73.734151 
L 92.365089 66.537972 
L 94.635831 60.41962 
L 96.906574 55.229194 
L 99.177317 50.945117 
L 101.44806 47.428743 
L 103.718802 44.549086 
L 105.989545 42.231949 
L 108.260288 40.389067 
L 110.53103 38.938812 
L 112.801773 37.805295 
L 115.072516 36.91329 
L 117.343258 36.216789 
L 119.614001 35.678435 
L 121.884744 35.263614 
L 124.155486 34.935225 
L 126.426229 34.667517 
L 128.696972 34.44968 
L 130.967715 34.272383 
L 133.238457 34.124837 
L 135.5092 34.001783 
L 137.779943 33.897191 
L 140.050685 33.806933 
L 142.321428 33.730611 
L 144.592171 33.66881 
L 146.862913 33.616584 
L 149.133656 33.573409 
L 151.404399 33.538677 
L 153.675142 33.509275 
L 155.945884 33.483955 
L 158.216627 33.462741 
L 160.48737 33.445573 
L 162.758112 33.430365 
L 165.028855 33.413232 
L 167.299598 33.399715 
L 169.57034 33.391003 
L 171.841083 33.3846 
L 174.111826 33.379807 
L 176.382569 33.376086 
L 178.653311 33.372996 
L 180.924054 33.370232 
L 183.194797 33.367677 
L 185.465539 33.365298 
L 187.736282 33.363176 
L 190.007025 33.361531 
L 192.277767 33.360517 
L 194.54851 33.359793 
L 196.819253 33.358825 
L 199.089996 33.356411 
L 201.360738 33.353017 
L 203.631481 33.352236 
L 205.902224 33.352038 
L 208.172966 33.351909 
L 210.443709 33.351816 
L 212.714452 33.351769 
L 214.985194 33.351734 
L 217.255937 33.351711 
L 219.52668 33.351699 
L 221.797423 33.351676 
L 224.068165 33.351676 
L 226.338908 33.351664 
L 228.609651 33.351664 
L 230.880393 33.351653 
L 233.151136 33.351653 
L 235.421879 33.351653 
L 237.692621 33.351653 
L 239.963364 33.351653 
L 242.234107 33.351653 
L 244.504849 33.351653 
L 246.775592 33.351653 
L 249.046335 33.351653 
L 251.317078 33.351653 
L 253.58782 33.351653 
L 255.858563 33.351653 
L 258.129306 33.351653 
L 260.400048 33.351653 
L 262.670791 33.351653 
L 264.941534 33.351653 
L 267.212276 33.351653 
L 269.483019 33.351653 
L 271.753762 33.351653 
L 274.024505 33.351653 
L 276.295247 33.351653 
L 278.56599 33.351653 
L 280.836733 33.351653 
L 283.107475 33.351653 
L 285.378218 33.351653 
L 287.648961 33.351653 
L 289.919703 33.351653 
" clip-path="url(#p3a9cd05c78)" style="fill: none; stroke-dasharray: 4.44,1.92; stroke-dashoffset: 0; stroke: #66ccee; stroke-opacity: 0.5; stroke-width: 1.2"/>
   </g>
   <g id="line2d_14">
    <path d="M 65.116176 228.988999 
L 67.386919 228.726575 
L 69.657662 227.922847 
L 71.928404 226.469526 
L 74.199147 224.353342 
L 76.46989 221.484871 
L 78.740633 217.899867 
L 81.011375 213.740941 
L 83.282118 209.132994 
L 85.552861 204.177376 
L 87.823603 198.955136 
L 90.094346 193.594057 
L 92.365089 188.156809 
L 94.635831 182.758398 
L 96.906574 177.413877 
L 99.177317 172.201589 
L 101.44806 167.176278 
L 103.718802 162.328989 
L 105.989545 157.704994 
L 108.260288 153.354026 
L 110.53103 149.182297 
L 112.801773 145.221466 
L 115.072516 141.388027 
L 117.343258 137.657425 
L 119.614001 134.028627 
L 121.884744 130.413236 
L 124.155486 126.855459 
L 126.426229 123.358946 
L 128.696972 119.936376 
L 130.967715 116.581099 
L 133.238457 113.269185 
L 135.5092 110.024682 
L 137.779943 106.843204 
L 140.050685 103.716332 
L 142.321428 100.652333 
L 144.592171 97.67198 
L 146.862913 94.7096 
L 149.133656 91.778615 
L 151.404399 88.928442 
L 153.675142 86.156328 
L 155.945884 83.460033 
L 158.216627 80.840014 
L 160.48737 78.295125 
L 162.758112 75.854351 
L 165.028855 73.490177 
L 167.299598 71.178533 
L 169.57034 68.924911 
L 171.841083 66.751494 
L 174.111826 64.669583 
L 176.382569 62.677639 
L 178.653311 60.772967 
L 180.924054 58.95888 
L 183.194797 57.22059 
L 185.465539 55.553862 
L 187.736282 53.960517 
L 190.007025 52.448823 
L 192.277767 51.030489 
L 194.54851 49.676102 
L 196.819253 48.390479 
L 199.089996 47.193586 
L 201.360738 46.098731 
L 203.631481 45.088373 
L 205.902224 44.144376 
L 208.172966 43.253806 
L 210.443709 42.41292 
L 212.714452 41.618965 
L 214.985194 40.865666 
L 217.255937 40.152394 
L 219.52668 39.486566 
L 221.797423 38.866223 
L 224.068165 38.285066 
L 226.338908 37.74284 
L 228.609651 37.244607 
L 230.880393 36.786049 
L 233.151136 36.358422 
L 235.421879 35.963859 
L 237.692621 35.602394 
L 239.963364 35.27109 
L 242.234107 34.97047 
L 244.504849 34.69987 
L 246.775592 34.454648 
L 249.046335 34.233231 
L 251.317078 34.036573 
L 253.58782 33.862378 
L 255.858563 33.713012 
L 258.129306 33.596629 
L 260.400048 33.517964 
L 262.670791 33.466753 
L 264.941534 33.436861 
L 267.212276 33.419192 
L 269.483019 33.405185 
L 271.753762 33.394035 
L 274.024505 33.385113 
L 276.295247 33.377579 
L 278.56599 33.371083 
L 280.836733 33.365555 
L 283.107475 33.360831 
L 285.378218 33.35619 
L 287.648961 33.352539 
L 289.919703 33.351653 
" clip-path="url(#p3a9cd05c78)" style="fill: none; stroke: #66ccee; stroke-width: 1.2; stroke-linecap: round"/>
   </g>
   <g id="line2d_15">
    <path d="M 65.116176 229.019149 
L 67.386919 228.917482 
L 69.657662 228.515237 
L 71.928404 227.670658 
L 74.199147 226.189487 
L 76.46989 224.049299 
L 78.740633 221.175449 
L 81.011375 217.470636 
L 83.282118 212.989904 
L 85.552861 207.885983 
L 87.823603 202.126817 
L 90.094346 195.703049 
L 92.365089 188.699831 
L 94.635831 181.191483 
L 96.906574 173.546173 
L 99.177317 165.505929 
L 101.44806 157.193821 
L 103.718802 148.762606 
L 105.989545 140.361638 
L 108.260288 132.01474 
L 110.53103 123.740786 
L 112.801773 115.647937 
L 115.072516 107.879792 
L 117.343258 100.464178 
L 119.614001 93.422717 
L 121.884744 86.856573 
L 124.155486 80.845343 
L 126.426229 75.350146 
L 128.696972 70.344213 
L 130.967715 65.819626 
L 133.238457 61.768385 
L 135.5092 58.216171 
L 137.779943 55.105335 
L 140.050685 52.391838 
L 142.321428 50.023781 
L 144.592171 48.000522 
L 146.862913 46.255549 
L 149.133656 44.727538 
L 151.404399 43.381584 
L 153.675142 42.197392 
L 155.945884 41.166216 
L 158.216627 40.272066 
L 160.48737 39.476711 
L 162.758112 38.772687 
L 165.028855 38.140576 
L 167.299598 37.582349 
L 169.57034 37.095825 
L 171.841083 36.663054 
L 174.111826 36.269143 
L 176.382569 35.903644 
L 178.653311 35.577716 
L 180.924054 35.287266 
L 183.194797 35.028154 
L 185.465539 34.80522 
L 187.736282 34.612877 
L 190.007025 34.436758 
L 192.277767 34.284663 
L 194.54851 34.151031 
L 196.819253 34.033692 
L 199.089996 33.927386 
L 201.360738 33.83497 
L 203.631481 33.756036 
L 205.902224 33.689955 
L 208.172966 33.63619 
L 210.443709 33.59116 
L 212.714452 33.552976 
L 214.985194 33.5199 
L 217.255937 33.490743 
L 219.52668 33.465586 
L 221.797423 33.441654 
L 224.068165 33.41146 
L 226.338908 33.397639 
L 228.609651 33.387318 
L 230.880393 33.379504 
L 233.151136 33.372937 
L 235.421879 33.366838 
L 237.692621 33.362114 
L 239.963364 33.359164 
L 242.234107 33.357099 
L 244.504849 33.35542 
L 246.775592 33.353985 
L 249.046335 33.352971 
L 251.317078 33.352411 
L 253.58782 33.352096 
L 255.858563 33.351921 
L 258.129306 33.351804 
L 260.400048 33.351734 
L 262.670791 33.351688 
L 264.941534 33.351664 
L 267.212276 33.351653 
L 269.483019 33.351653 
L 271.753762 33.351653 
L 274.024505 33.351653 
L 276.295247 33.351653 
L 278.56599 33.351653 
L 280.836733 33.351653 
L 283.107475 33.351653 
L 285.378218 33.351653 
L 287.648961 33.351653 
L 289.919703 33.351653 
" clip-path="url(#p3a9cd05c78)" style="fill: none; stroke-dasharray: 4.44,1.92; stroke-dashoffset: 0; stroke: #228833; stroke-opacity: 0.5; stroke-width: 1.2"/>
   </g>
   <g id="line2d_16">
    <path d="M 65.116176 229.018 
L 67.386919 229.011743 
L 69.657662 228.990023 
L 71.928404 228.917553 
L 74.199147 228.749068 
L 76.46989 228.439459 
L 78.740633 227.916556 
L 81.011375 227.148064 
L 83.282118 226.082298 
L 85.552861 224.706635 
L 87.823603 222.982391 
L 90.094346 220.858666 
L 92.365089 218.390823 
L 94.635831 215.601806 
L 96.906574 212.574121 
L 99.177317 209.218489 
L 101.44806 205.610359 
L 103.718802 201.748853 
L 105.989545 197.641444 
L 108.260288 193.376969 
L 110.53103 188.979708 
L 112.801773 184.488463 
L 115.072516 179.948239 
L 117.343258 175.383422 
L 119.614001 170.852322 
L 121.884744 166.392919 
L 124.155486 162.00102 
L 126.426229 157.728985 
L 128.696972 153.58331 
L 130.967715 149.551593 
L 133.238457 145.641687 
L 135.5092 141.91007 
L 137.779943 138.359273 
L 140.050685 134.948657 
L 142.321428 131.698789 
L 144.592171 128.650477 
L 146.862913 125.723866 
L 149.133656 122.892575 
L 151.404399 120.165188 
L 153.675142 117.548737 
L 155.945884 115.027372 
L 158.216627 112.574713 
L 160.48737 110.108526 
L 162.758112 107.655213 
L 165.028855 105.243736 
L 167.299598 102.878349 
L 169.57034 100.569761 
L 171.841083 98.28255 
L 174.111826 95.989263 
L 176.382569 93.719616 
L 178.653311 91.471056 
L 180.924054 89.271503 
L 183.194797 87.103882 
L 185.465539 84.961558 
L 187.736282 82.834745 
L 190.007025 80.756496 
L 192.277767 78.726508 
L 194.54851 76.709011 
L 196.819253 74.723458 
L 199.089996 72.75253 
L 201.360738 70.827822 
L 203.631481 68.944143 
L 205.902224 67.090461 
L 208.172966 65.26526 
L 210.443709 63.488319 
L 212.714452 61.76484 
L 214.985194 60.085085 
L 217.255937 58.432901 
L 219.52668 56.832639 
L 221.797423 55.272626 
L 224.068165 53.736242 
L 226.338908 52.221258 
L 228.609651 50.734849 
L 230.880393 49.303826 
L 233.151136 47.934138 
L 235.421879 46.626414 
L 237.692621 45.375406 
L 239.963364 44.164063 
L 242.234107 42.975591 
L 244.504849 41.816019 
L 246.775592 40.695366 
L 249.046335 39.624571 
L 251.317078 38.600475 
L 253.58782 37.628825 
L 255.858563 36.723257 
L 258.129306 35.895305 
L 260.400048 35.166521 
L 262.670791 34.561771 
L 264.941534 34.106724 
L 267.212276 33.815085 
L 269.483019 33.644517 
L 271.753762 33.552929 
L 274.024505 33.498254 
L 276.295247 33.460583 
L 278.56599 33.432184 
L 280.836733 33.407086 
L 283.107475 33.384647 
L 285.378218 33.365893 
L 287.648961 33.353822 
L 289.919703 33.351594 
" clip-path="url(#p3a9cd05c78)" style="fill: none; stroke: #228833; stroke-width: 1.2; stroke-linecap: round"/>
   </g>
   <g id="line2d_17">
    <path d="M 65.116176 229.020545 
L 67.386919 229.020321 
L 69.657662 229.016956 
L 71.928404 229.004616 
L 74.199147 228.970888 
L 76.46989 228.893648 
L 78.740633 228.742227 
L 81.011375 228.439355 
L 83.282118 228.050124 
L 85.552861 227.534223 
L 87.823603 226.769483 
L 90.094346 225.817471 
L 92.365089 224.677981 
L 94.635831 223.341575 
L 96.906574 221.816172 
L 99.177317 220.007421 
L 101.44806 217.910401 
L 103.718802 215.446901 
L 105.989545 212.71813 
L 108.260288 209.77108 
L 110.53103 206.694432 
L 112.801773 203.355453 
L 115.072516 199.762883 
L 117.343258 195.892698 
L 119.614001 191.722972 
L 121.884744 187.322993 
L 124.155486 182.666334 
L 126.426229 177.829171 
L 128.696972 172.859002 
L 130.967715 167.639926 
L 133.238457 162.213317 
L 135.5092 156.705535 
L 137.779943 151.188954 
L 140.050685 145.693499 
L 142.321428 140.240812 
L 144.592171 134.845552 
L 146.862913 129.50586 
L 149.133656 124.218108 
L 151.404399 118.99246 
L 153.675142 113.840825 
L 155.945884 108.834868 
L 158.216627 104.001207 
L 160.48737 99.353041 
L 162.758112 94.896286 
L 165.028855 90.643722 
L 167.299598 86.599035 
L 169.57034 82.74584 
L 171.841083 79.084077 
L 174.111826 75.602726 
L 176.382569 72.28687 
L 178.653311 69.144929 
L 180.924054 66.204731 
L 183.194797 63.452234 
L 185.465539 60.882877 
L 187.736282 58.48915 
L 190.007025 56.262994 
L 192.277767 54.184139 
L 194.54851 52.242205 
L 196.819253 50.442183 
L 199.089996 48.779094 
L 201.360738 47.233415 
L 203.631481 45.814801 
L 205.902224 44.511602 
L 208.172966 43.309601 
L 210.443709 42.199899 
L 212.714452 41.170111 
L 214.985194 40.216889 
L 217.255937 39.347324 
L 219.52668 38.560693 
L 221.797423 37.856926 
L 224.068165 37.228465 
L 226.338908 36.668885 
L 228.609651 36.160528 
L 230.880393 35.714042 
L 233.151136 35.326511 
L 235.421879 34.987078 
L 237.692621 34.693945 
L 239.963364 34.442589 
L 242.234107 34.227096 
L 244.504849 34.042684 
L 246.775592 33.889109 
L 249.046335 33.765576 
L 251.317078 33.66523 
L 253.58782 33.583497 
L 255.858563 33.517999 
L 258.129306 33.467173 
L 260.400048 33.429688 
L 262.670791 33.403039 
L 264.941534 33.384029 
L 267.212276 33.37127 
L 269.483019 33.363001 
L 271.753762 33.357787 
L 274.024505 33.354673 
L 276.295247 33.352947 
L 278.56599 33.352119 
L 280.836733 33.351769 
L 283.107475 33.351664 
L 285.378218 33.351641 
L 287.648961 33.351641 
L 289.919703 33.351641 
" clip-path="url(#p3a9cd05c78)" style="fill: none; stroke-dasharray: 4.44,1.92; stroke-dashoffset: 0; stroke: #ccbb44; stroke-opacity: 0.5; stroke-width: 1.2"/>
   </g>
   <g id="line2d_18">
    <path d="M 65.116176 229.019208 
L 67.386919 229.018376 
L 69.657662 229.016145 
L 71.928404 229.011567 
L 74.199147 229.00216 
L 76.46989 228.982225 
L 78.740633 228.942174 
L 81.011375 228.83663 
L 83.282118 228.706111 
L 85.552861 228.517149 
L 87.823603 228.236674 
L 90.094346 227.88577 
L 92.365089 227.443924 
L 94.635831 226.922498 
L 96.906574 226.307902 
L 99.177317 225.557129 
L 101.44806 224.677331 
L 103.718802 223.648465 
L 105.989545 222.498936 
L 108.260288 221.238928 
L 110.53103 219.88851 
L 112.801773 218.36912 
L 115.072516 216.698975 
L 117.343258 214.864306 
L 119.614001 212.847364 
L 121.884744 210.693122 
L 124.155486 208.376988 
L 126.426229 205.923444 
L 128.696972 203.366378 
L 130.967715 200.632597 
L 133.238457 197.724538 
L 135.5092 194.685061 
L 137.779943 191.567081 
L 140.050685 188.387694 
L 142.321428 185.172721 
L 144.592171 181.90672 
L 146.862913 178.599223 
L 149.133656 175.247609 
L 151.404399 171.827674 
L 153.675142 168.357088 
L 155.945884 164.877288 
L 158.216627 161.415204 
L 160.48737 157.97707 
L 162.758112 154.564576 
L 165.028855 151.198039 
L 167.299598 147.878177 
L 169.57034 144.601257 
L 171.841083 141.384487 
L 174.111826 138.197569 
L 176.382569 135.046969 
L 178.653311 131.944331 
L 180.924054 128.891162 
L 183.194797 125.886212 
L 185.465539 122.911037 
L 187.736282 119.966512 
L 190.007025 117.068195 
L 192.277767 114.208039 
L 194.54851 111.384445 
L 196.819253 108.612646 
L 199.089996 105.876453 
L 201.360738 103.178304 
L 203.631481 100.532463 
L 205.902224 97.925179 
L 208.172966 95.345466 
L 210.443709 92.775351 
L 212.714452 90.198717 
L 214.985194 87.641209 
L 217.255937 85.108486 
L 219.52668 82.604125 
L 221.797423 80.140107 
L 224.068165 77.716372 
L 226.338908 75.324301 
L 228.609651 72.960186 
L 230.880393 70.623326 
L 233.151136 68.304824 
L 235.421879 65.997484 
L 237.692621 63.713119 
L 239.963364 61.468769 
L 242.234107 59.241586 
L 244.504849 57.026288 
L 246.775592 54.83042 
L 249.046335 52.647475 
L 251.317078 50.456109 
L 253.58782 48.274458 
L 255.858563 46.115864 
L 258.129306 44.005647 
L 260.400048 41.966831 
L 262.670791 40.037772 
L 264.941534 38.267479 
L 267.212276 36.743095 
L 269.483019 35.571289 
L 271.753762 34.772914 
L 274.024505 34.277957 
L 276.295247 33.964089 
L 278.56599 33.747266 
L 280.836733 33.584407 
L 283.107475 33.466858 
L 285.378218 33.39084 
L 287.648961 33.355665 
L 289.919703 33.351606 
" clip-path="url(#p3a9cd05c78)" style="fill: none; stroke: #ccbb44; stroke-width: 1.2; stroke-linecap: round"/>
   </g>
   <g id="line2d_19">
    <path d="M 65.116176 229.020545 
L 67.386919 229.020545 
L 69.657662 229.020544 
L 71.928404 229.020522 
L 74.199147 229.020402 
L 76.46989 229.020158 
L 78.740633 229.019205 
L 81.011375 229.01738 
L 83.282118 229.011624 
L 85.552861 228.999202 
L 87.823603 228.98184 
L 90.094346 228.945288 
L 92.365089 228.904677 
L 94.635831 228.861237 
L 96.906574 228.791911 
L 99.177317 228.709636 
L 101.44806 228.59029 
L 103.718802 228.439283 
L 105.989545 228.257247 
L 108.260288 228.039533 
L 110.53103 227.787583 
L 112.801773 227.467878 
L 115.072516 227.11937 
L 117.343258 226.694202 
L 119.614001 226.174579 
L 121.884744 225.590454 
L 124.155486 224.939183 
L 126.426229 224.226653 
L 128.696972 223.402487 
L 130.967715 222.522548 
L 133.238457 221.567045 
L 135.5092 220.498548 
L 137.779943 219.31872 
L 140.050685 218.08157 
L 142.321428 216.713996 
L 144.592171 215.19118 
L 146.862913 213.549994 
L 149.133656 211.791708 
L 151.404399 209.916173 
L 153.675142 207.948306 
L 155.945884 205.869537 
L 158.216627 203.63461 
L 160.48737 201.256727 
L 162.758112 198.798636 
L 165.028855 196.249955 
L 167.299598 193.568635 
L 169.57034 190.728373 
L 171.841083 187.792548 
L 174.111826 184.758313 
L 176.382569 181.617349 
L 178.653311 178.359466 
L 180.924054 175.007123 
L 183.194797 171.559722 
L 185.465539 168.021013 
L 187.736282 164.399808 
L 190.007025 160.710959 
L 192.277767 156.947479 
L 194.54851 153.10534 
L 196.819253 149.194088 
L 199.089996 145.237893 
L 201.360738 141.25324 
L 203.631481 137.251484 
L 205.902224 133.177046 
L 208.172966 129.055222 
L 210.443709 124.903646 
L 212.714452 120.730879 
L 214.985194 116.560106 
L 217.255937 112.401498 
L 219.52668 108.272594 
L 221.797423 104.205084 
L 224.068165 100.197881 
L 226.338908 96.261612 
L 228.609651 92.396509 
L 230.880393 88.576249 
L 233.151136 84.777193 
L 235.421879 81.042876 
L 237.692621 77.395844 
L 239.963364 73.845041 
L 242.234107 70.41223 
L 244.504849 67.061432 
L 246.775592 63.794816 
L 249.046335 60.641714 
L 251.317078 57.616763 
L 253.58782 54.735625 
L 255.858563 52.002908 
L 258.129306 49.41727 
L 260.400048 46.976659 
L 262.670791 44.705764 
L 264.941534 42.61885 
L 267.212276 40.736699 
L 269.483019 39.061632 
L 271.753762 37.611693 
L 274.024505 36.386086 
L 276.295247 35.380276 
L 278.56599 34.5894 
L 280.836733 34.009025 
L 283.107475 33.632609 
L 285.378218 33.430796 
L 287.648961 33.356061 
L 289.919703 33.351618 
" clip-path="url(#p3a9cd05c78)" style="fill: none; stroke-dasharray: 4.44,1.92; stroke-dashoffset: 0; stroke: #ee6677; stroke-opacity: 0.5; stroke-width: 1.2"/>
   </g>
   <g id="line2d_20">
    <path d="M 65.116176 229.017312 
L 67.386919 229.015007 
L 69.657662 229.011195 
L 71.928404 229.005707 
L 74.199147 228.999465 
L 76.46989 228.992783 
L 78.740633 228.985513 
L 81.011375 228.976892 
L 83.282118 228.964744 
L 85.552861 228.948297 
L 87.823603 228.925933 
L 90.094346 228.895198 
L 92.365089 228.848422 
L 94.635831 228.805365 
L 96.906574 228.73883 
L 99.177317 228.666633 
L 101.44806 228.565324 
L 103.718802 228.443664 
L 105.989545 228.297037 
L 108.260288 228.137273 
L 110.53103 227.956049 
L 112.801773 227.739686 
L 115.072516 227.504523 
L 117.343258 227.219587 
L 119.614001 226.878258 
L 121.884744 226.487425 
L 124.155486 226.06086 
L 126.426229 225.59603 
L 128.696972 225.067123 
L 130.967715 224.494093 
L 133.238457 223.87099 
L 135.5092 223.168537 
L 137.779943 222.408486 
L 140.050685 221.615829 
L 142.321428 220.746158 
L 144.592171 219.784633 
L 146.862913 218.741652 
L 149.133656 217.615339 
L 151.404399 216.409486 
L 153.675142 215.133804 
L 155.945884 213.770804 
L 158.216627 212.296665 
L 160.48737 210.731354 
L 162.758112 209.098004 
L 165.028855 207.409678 
L 167.299598 205.623876 
L 169.57034 203.71164 
L 171.841083 201.719742 
L 174.111826 199.629248 
L 176.382569 197.42921 
L 178.653311 195.114563 
L 180.924054 192.694787 
L 183.194797 190.185622 
L 185.465539 187.591272 
L 187.736282 184.905305 
L 190.007025 182.141807 
L 192.277767 179.274207 
L 194.54851 176.274511 
L 196.819253 173.16887 
L 199.089996 169.973479 
L 201.360738 166.685929 
L 203.631481 163.307741 
L 205.902224 159.825101 
L 208.172966 156.269971 
L 210.443709 152.638328 
L 212.714452 148.90628 
L 214.985194 145.078538 
L 217.255937 141.183252 
L 219.52668 137.227179 
L 221.797423 133.20797 
L 224.068165 129.122155 
L 226.338908 125.004098 
L 228.609651 120.84823 
L 230.880393 116.612647 
L 233.151136 112.272997 
L 235.421879 107.852524 
L 237.692621 103.353899 
L 239.963364 98.77781 
L 242.234107 94.145296 
L 244.504849 89.451343 
L 246.775592 84.667038 
L 249.046335 79.793816 
L 251.317078 74.843036 
L 253.58782 69.814256 
L 255.858563 64.714893 
L 258.129306 59.614329 
L 260.400048 54.58675 
L 262.670791 49.81111 
L 264.941534 45.499533 
L 267.212276 41.888678 
L 269.483019 39.054506 
L 271.753762 36.987792 
L 274.024505 35.590323 
L 276.295247 34.691018 
L 278.56599 34.129502 
L 280.836733 33.789882 
L 283.107475 33.580535 
L 285.378218 33.447882 
L 287.648961 33.37485 
L 289.919703 33.351618 
" clip-path="url(#p3a9cd05c78)" style="fill: none; stroke: #ee6677; stroke-width: 1.2; stroke-linecap: round"/>
   </g>
   <g id="line2d_21">
    <path d="M 65.116176 229.020545 
L 67.386919 229.020545 
L 69.657662 229.020545 
L 71.928404 229.020545 
L 74.199147 229.020545 
L 76.46989 229.020545 
L 78.740633 229.020545 
L 81.011375 229.020545 
L 83.282118 229.020545 
L 85.552861 229.020545 
L 87.823603 229.020545 
L 90.094346 229.020545 
L 92.365089 229.020545 
L 94.635831 229.020545 
L 96.906574 229.020545 
L 99.177317 229.020545 
L 101.44806 229.020545 
L 103.718802 229.020545 
L 105.989545 229.020545 
L 108.260288 229.020545 
L 110.53103 229.020545 
L 112.801773 229.020545 
L 115.072516 229.020545 
L 117.343258 229.020545 
L 119.614001 229.020545 
L 121.884744 229.020545 
L 124.155486 229.020545 
L 126.426229 229.020545 
L 128.696972 229.020545 
L 130.967715 229.020545 
L 133.238457 229.020545 
L 135.5092 229.020545 
L 137.779943 229.020545 
L 140.050685 229.020545 
L 142.321428 229.020545 
L 144.592171 229.020545 
L 146.862913 229.020545 
L 149.133656 229.020545 
L 151.404399 229.020545 
L 153.675142 229.020544 
L 155.945884 229.020544 
L 158.216627 229.020543 
L 160.48737 229.020542 
L 162.758112 229.02054 
L 165.028855 229.020538 
L 167.299598 229.020535 
L 169.57034 229.02053 
L 171.841083 229.020524 
L 174.111826 229.020515 
L 176.382569 229.020503 
L 178.653311 229.020486 
L 180.924054 229.020464 
L 183.194797 229.020434 
L 185.465539 229.020393 
L 187.736282 229.020337 
L 190.007025 229.020259 
L 192.277767 229.020152 
L 194.54851 229.020003 
L 196.819253 229.019797 
L 199.089996 229.019512 
L 201.360738 229.019115 
L 203.631481 229.018558 
L 205.902224 229.017777 
L 208.172966 229.016681 
L 210.443709 229.015149 
L 212.714452 229.013013 
L 214.985194 229.01004 
L 217.255937 229.005918 
L 219.52668 229.000204 
L 221.797423 228.992293 
L 224.068165 228.981377 
L 226.338908 228.96634 
L 228.609651 228.945625 
L 230.880393 228.917078 
L 233.151136 228.877762 
L 235.421879 228.823884 
L 237.692621 228.750254 
L 239.963364 228.649338 
L 242.234107 228.510375 
L 244.504849 228.318727 
L 246.775592 228.054569 
L 249.046335 227.691659 
L 251.317078 227.194924 
L 253.58782 226.517834 
L 255.858563 225.59571 
L 258.129306 224.340697 
L 260.400048 222.63896 
L 262.670791 220.349793 
L 264.941534 217.288391 
L 267.212276 213.212852 
L 269.483019 207.821803 
L 271.753762 200.719263 
L 274.024505 191.38134 
L 276.295247 179.192544 
L 278.56599 163.51016 
L 280.836733 143.638465 
L 283.107475 118.95879 
L 285.378218 89.57035 
L 287.648961 57.607374 
L 289.919703 33.351455 
" clip-path="url(#p3a9cd05c78)" style="fill: none; stroke-dasharray: 4.44,1.92; stroke-dashoffset: 0; stroke: #aa3377; stroke-opacity: 0.5; stroke-width: 1.2"/>
   </g>
   <g id="line2d_22">
    <path d="M 65.116176 229.019208 
L 67.386919 229.017958 
L 69.657662 229.015243 
L 71.928404 229.012283 
L 74.199147 229.009295 
L 76.46989 229.006149 
L 78.740633 229.002663 
L 81.011375 228.998478 
L 83.282118 228.993211 
L 85.552861 228.986818 
L 87.823603 228.978552 
L 90.094346 228.967965 
L 92.365089 228.953001 
L 94.635831 228.936805 
L 96.906574 228.913559 
L 99.177317 228.885814 
L 101.44806 228.850185 
L 103.718802 228.808503 
L 105.989545 228.758611 
L 108.260288 228.70274 
L 110.53103 228.637902 
L 112.801773 228.556751 
L 115.072516 228.461682 
L 117.343258 228.355988 
L 119.614001 228.227737 
L 121.884744 228.083484 
L 124.155486 227.921511 
L 126.426229 227.741197 
L 128.696972 227.531503 
L 130.967715 227.303582 
L 133.238457 227.056208 
L 135.5092 226.777894 
L 137.779943 226.473695 
L 140.050685 226.149696 
L 142.321428 225.795897 
L 144.592171 225.397127 
L 146.862913 224.975379 
L 149.133656 224.519627 
L 151.404399 224.021532 
L 153.675142 223.487723 
L 155.945884 222.922763 
L 158.216627 222.320272 
L 160.48737 221.672629 
L 162.758112 220.992418 
L 165.028855 220.281328 
L 167.299598 219.525558 
L 169.57034 218.717942 
L 171.841083 217.876821 
L 174.111826 216.994508 
L 176.382569 216.059512 
L 178.653311 215.069827 
L 180.924054 214.039108 
L 183.194797 212.975341 
L 185.465539 211.859438 
L 187.736282 210.693075 
L 190.007025 209.493172 
L 192.277767 208.255082 
L 194.54851 206.971607 
L 196.819253 205.628323 
L 199.089996 204.238381 
L 201.360738 202.798208 
L 203.631481 201.313315 
L 205.902224 199.780916 
L 208.172966 198.195962 
L 210.443709 196.56252 
L 212.714452 194.878975 
L 214.985194 193.152697 
L 217.255937 191.36198 
L 219.52668 189.513417 
L 221.797423 187.618729 
L 224.068165 185.673424 
L 226.338908 183.694079 
L 228.609651 181.659912 
L 230.880393 179.558289 
L 233.151136 177.360391 
L 235.421879 175.092331 
L 237.692621 172.762306 
L 239.963364 170.364089 
L 242.234107 167.903587 
L 244.504849 165.374391 
L 246.775592 162.768559 
L 249.046335 160.08893 
L 251.317078 157.338731 
L 253.58782 154.512554 
L 255.858563 151.531157 
L 258.129306 148.292077 
L 260.400048 144.616284 
L 262.670791 140.266937 
L 264.941534 134.823935 
L 267.212276 127.680414 
L 269.483019 118.336452 
L 271.753762 106.686655 
L 274.024505 93.223202 
L 276.295247 79.023501 
L 278.56599 65.442242 
L 280.836733 53.439296 
L 283.107475 43.639973 
L 285.378218 36.76066 
L 287.648961 33.644109 
L 289.919703 33.351606 
" clip-path="url(#p3a9cd05c78)" style="fill: none; stroke: #aa3377; stroke-width: 1.2; stroke-linecap: round"/>
   </g>
   <g id="patch_3">
    <path d="M 53.876 238.804 
L 53.876 23.568 
" style="fill: none; stroke: #262626; stroke-linejoin: miter; stroke-linecap: square"/>
   </g>
   <g id="patch_4">
    <path d="M 301.15988 238.804 
L 301.15988 23.568 
" style="fill: none; stroke: #262626; stroke-linejoin: miter; stroke-linecap: square"/>
   </g>
   <g id="patch_5">
    <path d="M 53.876 238.804 
L 301.15988 238.804 
" style="fill: none; stroke: #262626; stroke-linejoin: miter; stroke-linecap: square"/>
   </g>
   <g id="patch_6">
    <path d="M 53.876 23.568 
L 301.15988 23.568 
" style="fill: none; stroke: #262626; stroke-linejoin: miter; stroke-linecap: square"/>
   </g>
   <g id="text_13">
    <!-- Accuracy -->
    <g style="fill: #262626" transform="translate(155.60294 17.568) scale(0.096 -0.096)">
     <defs>
      <path id="DejaVuSans-41" d="M 2188 4044 
L 1331 1722 
L 3047 1722 
L 2188 4044 
z
M 1831 4666 
L 2547 4666 
L 4325 0 
L 3669 0 
L 3244 1197 
L 1141 1197 
L 716 0 
L 50 0 
L 1831 4666 
z
" transform="scale(0.015625)"/>
      <path id="DejaVuSans-63" d="M 3122 3366 
L 3122 2828 
Q 2878 2963 2633 3030 
Q 2388 3097 2138 3097 
Q 1578 3097 1268 2742 
Q 959 2388 959 1747 
Q 959 1106 1268 751 
Q 1578 397 2138 397 
Q 2388 397 2633 464 
Q 2878 531 3122 666 
L 3122 134 
Q 2881 22 2623 -34 
Q 2366 -91 2075 -91 
Q 1284 -91 818 406 
Q 353 903 353 1747 
Q 353 2603 823 3093 
Q 1294 3584 2113 3584 
Q 2378 3584 2631 3529 
Q 2884 3475 3122 3366 
z
" transform="scale(0.015625)"/>
      <path id="DejaVuSans-75" d="M 544 1381 
L 544 3500 
L 1119 3500 
L 1119 1403 
Q 1119 906 1312 657 
Q 1506 409 1894 409 
Q 2359 409 2629 706 
Q 2900 1003 2900 1516 
L 2900 3500 
L 3475 3500 
L 3475 0 
L 2900 0 
L 2900 538 
Q 2691 219 2414 64 
Q 2138 -91 1772 -91 
Q 1169 -91 856 284 
Q 544 659 544 1381 
z
M 1991 3584 
L 1991 3584 
z
" transform="scale(0.015625)"/>
      <path id="DejaVuSans-72" d="M 2631 2963 
Q 2534 3019 2420 3045 
Q 2306 3072 2169 3072 
Q 1681 3072 1420 2755 
Q 1159 2438 1159 1844 
L 1159 0 
L 581 0 
L 581 3500 
L 1159 3500 
L 1159 2956 
Q 1341 3275 1631 3429 
Q 1922 3584 2338 3584 
Q 2397 3584 2469 3576 
Q 2541 3569 2628 3553 
L 2631 2963 
z
" transform="scale(0.015625)"/>
      <path id="DejaVuSans-61" d="M 2194 1759 
Q 1497 1759 1228 1600 
Q 959 1441 959 1056 
Q 959 750 1161 570 
Q 1363 391 1709 391 
Q 2188 391 2477 730 
Q 2766 1069 2766 1631 
L 2766 1759 
L 2194 1759 
z
M 3341 1997 
L 3341 0 
L 2766 0 
L 2766 531 
Q 2569 213 2275 61 
Q 1981 -91 1556 -91 
Q 1019 -91 701 211 
Q 384 513 384 1019 
Q 384 1609 779 1909 
Q 1175 2209 1959 2209 
L 2766 2209 
L 2766 2266 
Q 2766 2663 2505 2880 
Q 2244 3097 1772 3097 
Q 1472 3097 1187 3025 
Q 903 2953 641 2809 
L 641 3341 
Q 956 3463 1253 3523 
Q 1550 3584 1831 3584 
Q 2591 3584 2966 3190 
Q 3341 2797 3341 1997 
z
" transform="scale(0.015625)"/>
      <path id="DejaVuSans-79" d="M 2059 -325 
Q 1816 -950 1584 -1140 
Q 1353 -1331 966 -1331 
L 506 -1331 
L 506 -850 
L 844 -850 
Q 1081 -850 1212 -737 
Q 1344 -625 1503 -206 
L 1606 56 
L 191 3500 
L 800 3500 
L 1894 763 
L 2988 3500 
L 3597 3500 
L 2059 -325 
z
" transform="scale(0.015625)"/>
     </defs>
     <use xlink:href="#DejaVuSans-41"/>
     <use xlink:href="#DejaVuSans-63" x="66.658203"/>
     <use xlink:href="#DejaVuSans-63" x="121.638672"/>
     <use xlink:href="#DejaVuSans-75" x="176.619141"/>
     <use xlink:href="#DejaVuSans-72" x="239.998047"/>
     <use xlink:href="#DejaVuSans-61" x="281.111328"/>
     <use xlink:href="#DejaVuSans-63" x="342.390625"/>
     <use xlink:href="#DejaVuSans-79" x="397.371094"/>
    </g>
   </g>
   <g id="legend_1">
    <g id="patch_7">
     <path d="M 60.036 108.88275 
L 143.823 108.88275 
Q 145.583 108.88275 145.583 107.12275 
L 145.583 29.728 
Q 145.583 27.968 143.823 27.968 
L 60.036 27.968 
Q 58.276 27.968 58.276 29.728 
L 58.276 107.12275 
Q 58.276 108.88275 60.036 108.88275 
z
" style="fill: #ffffff; opacity: 0.8; stroke: #cccccc; stroke-width: 0.8; stroke-linejoin: miter"/>
    </g>
    <g id="text_14">
     <!-- Operation -->
     <g style="fill: #262626" transform="translate(78.04125 38.7825) scale(0.096 -0.096)">
      <defs>
       <path id="DejaVuSans-4f" d="M 2522 4238 
Q 1834 4238 1429 3725 
Q 1025 3213 1025 2328 
Q 1025 1447 1429 934 
Q 1834 422 2522 422 
Q 3209 422 3611 934 
Q 4013 1447 4013 2328 
Q 4013 3213 3611 3725 
Q 3209 4238 2522 4238 
z
M 2522 4750 
Q 3503 4750 4090 4092 
Q 4678 3434 4678 2328 
Q 4678 1225 4090 567 
Q 3503 -91 2522 -91 
Q 1538 -91 948 565 
Q 359 1222 359 2328 
Q 359 3434 948 4092 
Q 1538 4750 2522 4750 
z
" transform="scale(0.015625)"/>
       <path id="DejaVuSans-70" d="M 1159 525 
L 1159 -1331 
L 581 -1331 
L 581 3500 
L 1159 3500 
L 1159 2969 
Q 1341 3281 1617 3432 
Q 1894 3584 2278 3584 
Q 2916 3584 3314 3078 
Q 3713 2572 3713 1747 
Q 3713 922 3314 415 
Q 2916 -91 2278 -91 
Q 1894 -91 1617 61 
Q 1341 213 1159 525 
z
M 3116 1747 
Q 3116 2381 2855 2742 
Q 2594 3103 2138 3103 
Q 1681 3103 1420 2742 
Q 1159 2381 1159 1747 
Q 1159 1113 1420 752 
Q 1681 391 2138 391 
Q 2594 391 2855 752 
Q 3116 1113 3116 1747 
z
" transform="scale(0.015625)"/>
       <path id="DejaVuSans-65" d="M 3597 1894 
L 3597 1613 
L 953 1613 
Q 991 1019 1311 708 
Q 1631 397 2203 397 
Q 2534 397 2845 478 
Q 3156 559 3463 722 
L 3463 178 
Q 3153 47 2828 -22 
Q 2503 -91 2169 -91 
Q 1331 -91 842 396 
Q 353 884 353 1716 
Q 353 2575 817 3079 
Q 1281 3584 2069 3584 
Q 2775 3584 3186 3129 
Q 3597 2675 3597 1894 
z
M 3022 2063 
Q 3016 2534 2758 2815 
Q 2500 3097 2075 3097 
Q 1594 3097 1305 2825 
Q 1016 2553 972 2059 
L 3022 2063 
z
" transform="scale(0.015625)"/>
       <path id="DejaVuSans-74" d="M 1172 4494 
L 1172 3500 
L 2356 3500 
L 2356 3053 
L 1172 3053 
L 1172 1153 
Q 1172 725 1289 603 
Q 1406 481 1766 481 
L 2356 481 
L 2356 0 
L 1766 0 
Q 1100 0 847 248 
Q 594 497 594 1153 
L 594 3053 
L 172 3053 
L 172 3500 
L 594 3500 
L 594 4494 
L 1172 4494 
z
" transform="scale(0.015625)"/>
       <path id="DejaVuSans-69" d="M 603 3500 
L 1178 3500 
L 1178 0 
L 603 0 
L 603 3500 
z
M 603 4863 
L 1178 4863 
L 1178 4134 
L 603 4134 
L 603 4863 
z
" transform="scale(0.015625)"/>
       <path id="DejaVuSans-6f" d="M 1959 3097 
Q 1497 3097 1228 2736 
Q 959 2375 959 1747 
Q 959 1119 1226 758 
Q 1494 397 1959 397 
Q 2419 397 2687 759 
Q 2956 1122 2956 1747 
Q 2956 2369 2687 2733 
Q 2419 3097 1959 3097 
z
M 1959 3584 
Q 2709 3584 3137 3096 
Q 3566 2609 3566 1747 
Q 3566 888 3137 398 
Q 2709 -91 1959 -91 
Q 1206 -91 779 398 
Q 353 888 353 1747 
Q 353 2609 779 3096 
Q 1206 3584 1959 3584 
z
" transform="scale(0.015625)"/>
       <path id="DejaVuSans-6e" d="M 3513 2113 
L 3513 0 
L 2938 0 
L 2938 2094 
Q 2938 2591 2744 2837 
Q 2550 3084 2163 3084 
Q 1697 3084 1428 2787 
Q 1159 2491 1159 1978 
L 1159 0 
L 581 0 
L 581 3500 
L 1159 3500 
L 1159 2956 
Q 1366 3272 1645 3428 
Q 1925 3584 2291 3584 
Q 2894 3584 3203 3211 
Q 3513 2838 3513 2113 
z
" transform="scale(0.015625)"/>
      </defs>
      <use xlink:href="#DejaVuSans-4f"/>
      <use xlink:href="#DejaVuSans-70" x="78.710938"/>
      <use xlink:href="#DejaVuSans-65" x="142.1875"/>
      <use xlink:href="#DejaVuSans-72" x="203.710938"/>
      <use xlink:href="#DejaVuSans-61" x="244.824219"/>
      <use xlink:href="#DejaVuSans-74" x="306.103516"/>
      <use xlink:href="#DejaVuSans-69" x="345.3125"/>
      <use xlink:href="#DejaVuSans-6f" x="373.095703"/>
      <use xlink:href="#DejaVuSans-6e" x="434.277344"/>
     </g>
    </g>
    <g id="line2d_23">
     <path d="M 61.796 48.785625 
L 70.596 48.785625 
L 79.396 48.785625 
" style="fill: none; stroke: #66ccee; stroke-width: 1.2; stroke-linecap: round"/>
    </g>
    <g id="text_15">
     <!-- encoding -->
     <g style="fill: #262626" transform="translate(86.436 51.865625) scale(0.088 -0.088)">
      <defs>
       <path id="DejaVuSans-64" d="M 2906 2969 
L 2906 4863 
L 3481 4863 
L 3481 0 
L 2906 0 
L 2906 525 
Q 2725 213 2448 61 
Q 2172 -91 1784 -91 
Q 1150 -91 751 415 
Q 353 922 353 1747 
Q 353 2572 751 3078 
Q 1150 3584 1784 3584 
Q 2172 3584 2448 3432 
Q 2725 3281 2906 2969 
z
M 947 1747 
Q 947 1113 1208 752 
Q 1469 391 1925 391 
Q 2381 391 2643 752 
Q 2906 1113 2906 1747 
Q 2906 2381 2643 2742 
Q 2381 3103 1925 3103 
Q 1469 3103 1208 2742 
Q 947 2381 947 1747 
z
" transform="scale(0.015625)"/>
       <path id="DejaVuSans-67" d="M 2906 1791 
Q 2906 2416 2648 2759 
Q 2391 3103 1925 3103 
Q 1463 3103 1205 2759 
Q 947 2416 947 1791 
Q 947 1169 1205 825 
Q 1463 481 1925 481 
Q 2391 481 2648 825 
Q 2906 1169 2906 1791 
z
M 3481 434 
Q 3481 -459 3084 -895 
Q 2688 -1331 1869 -1331 
Q 1566 -1331 1297 -1286 
Q 1028 -1241 775 -1147 
L 775 -588 
Q 1028 -725 1275 -790 
Q 1522 -856 1778 -856 
Q 2344 -856 2625 -561 
Q 2906 -266 2906 331 
L 2906 616 
Q 2728 306 2450 153 
Q 2172 0 1784 0 
Q 1141 0 747 490 
Q 353 981 353 1791 
Q 353 2603 747 3093 
Q 1141 3584 1784 3584 
Q 2172 3584 2450 3431 
Q 2728 3278 2906 2969 
L 2906 3500 
L 3481 3500 
L 3481 434 
z
" transform="scale(0.015625)"/>
      </defs>
      <use xlink:href="#DejaVuSans-65"/>
      <use xlink:href="#DejaVuSans-6e" x="61.523438"/>
      <use xlink:href="#DejaVuSans-63" x="124.902344"/>
      <use xlink:href="#DejaVuSans-6f" x="179.882812"/>
      <use xlink:href="#DejaVuSans-64" x="241.064453"/>
      <use xlink:href="#DejaVuSans-69" x="304.541016"/>
      <use xlink:href="#DejaVuSans-6e" x="332.324219"/>
      <use xlink:href="#DejaVuSans-67" x="395.703125"/>
     </g>
    </g>
    <g id="line2d_24">
     <path d="M 61.796 61.702375 
L 70.596 61.702375 
L 79.396 61.702375 
" style="fill: none; stroke: #228833; stroke-width: 1.2; stroke-linecap: round"/>
    </g>
    <g id="text_16">
     <!-- n200 -->
     <g style="fill: #262626" transform="translate(86.436 64.782375) scale(0.088 -0.088)">
      <use xlink:href="#DejaVuSans-6e"/>
      <use xlink:href="#DejaVuSans-32" x="63.378906"/>
      <use xlink:href="#DejaVuSans-30" x="127.001953"/>
      <use xlink:href="#DejaVuSans-30" x="190.625"/>
     </g>
    </g>
    <g id="line2d_25">
     <path d="M 61.796 74.619125 
L 70.596 74.619125 
L 79.396 74.619125 
" style="fill: none; stroke: #ccbb44; stroke-width: 1.2; stroke-linecap: round"/>
    </g>
    <g id="text_17">
     <!-- decision -->
     <g style="fill: #262626" transform="translate(86.436 77.699125) scale(0.088 -0.088)">
      <defs>
       <path id="DejaVuSans-73" d="M 2834 3397 
L 2834 2853 
Q 2591 2978 2328 3040 
Q 2066 3103 1784 3103 
Q 1356 3103 1142 2972 
Q 928 2841 928 2578 
Q 928 2378 1081 2264 
Q 1234 2150 1697 2047 
L 1894 2003 
Q 2506 1872 2764 1633 
Q 3022 1394 3022 966 
Q 3022 478 2636 193 
Q 2250 -91 1575 -91 
Q 1294 -91 989 -36 
Q 684 19 347 128 
L 347 722 
Q 666 556 975 473 
Q 1284 391 1588 391 
Q 1994 391 2212 530 
Q 2431 669 2431 922 
Q 2431 1156 2273 1281 
Q 2116 1406 1581 1522 
L 1381 1569 
Q 847 1681 609 1914 
Q 372 2147 372 2553 
Q 372 3047 722 3315 
Q 1072 3584 1716 3584 
Q 2034 3584 2315 3537 
Q 2597 3491 2834 3397 
z
" transform="scale(0.015625)"/>
      </defs>
      <use xlink:href="#DejaVuSans-64"/>
      <use xlink:href="#DejaVuSans-65" x="63.476562"/>
      <use xlink:href="#DejaVuSans-63" x="125"/>
      <use xlink:href="#DejaVuSans-69" x="179.980469"/>
      <use xlink:href="#DejaVuSans-73" x="207.763672"/>
      <use xlink:href="#DejaVuSans-69" x="259.863281"/>
      <use xlink:href="#DejaVuSans-6f" x="287.646484"/>
      <use xlink:href="#DejaVuSans-6e" x="348.828125"/>
     </g>
    </g>
    <g id="line2d_26">
     <path d="M 61.796 87.535875 
L 70.596 87.535875 
L 79.396 87.535875 
" style="fill: none; stroke: #ee6677; stroke-width: 1.2; stroke-linecap: round"/>
    </g>
    <g id="text_18">
     <!-- confirmation -->
     <g style="fill: #262626" transform="translate(86.436 90.615875) scale(0.088 -0.088)">
      <defs>
       <path id="DejaVuSans-66" d="M 2375 4863 
L 2375 4384 
L 1825 4384 
Q 1516 4384 1395 4259 
Q 1275 4134 1275 3809 
L 1275 3500 
L 2222 3500 
L 2222 3053 
L 1275 3053 
L 1275 0 
L 697 0 
L 697 3053 
L 147 3053 
L 147 3500 
L 697 3500 
L 697 3744 
Q 697 4328 969 4595 
Q 1241 4863 1831 4863 
L 2375 4863 
z
" transform="scale(0.015625)"/>
       <path id="DejaVuSans-6d" d="M 3328 2828 
Q 3544 3216 3844 3400 
Q 4144 3584 4550 3584 
Q 5097 3584 5394 3201 
Q 5691 2819 5691 2113 
L 5691 0 
L 5113 0 
L 5113 2094 
Q 5113 2597 4934 2840 
Q 4756 3084 4391 3084 
Q 3944 3084 3684 2787 
Q 3425 2491 3425 1978 
L 3425 0 
L 2847 0 
L 2847 2094 
Q 2847 2600 2669 2842 
Q 2491 3084 2119 3084 
Q 1678 3084 1418 2786 
Q 1159 2488 1159 1978 
L 1159 0 
L 581 0 
L 581 3500 
L 1159 3500 
L 1159 2956 
Q 1356 3278 1631 3431 
Q 1906 3584 2284 3584 
Q 2666 3584 2933 3390 
Q 3200 3197 3328 2828 
z
" transform="scale(0.015625)"/>
      </defs>
      <use xlink:href="#DejaVuSans-63"/>
      <use xlink:href="#DejaVuSans-6f" x="54.980469"/>
      <use xlink:href="#DejaVuSans-6e" x="116.162109"/>
      <use xlink:href="#DejaVuSans-66" x="179.541016"/>
      <use xlink:href="#DejaVuSans-69" x="214.746094"/>
      <use xlink:href="#DejaVuSans-72" x="242.529297"/>
      <use xlink:href="#DejaVuSans-6d" x="281.892578"/>
      <use xlink:href="#DejaVuSans-61" x="379.304688"/>
      <use xlink:href="#DejaVuSans-74" x="440.583984"/>
      <use xlink:href="#DejaVuSans-69" x="479.792969"/>
      <use xlink:href="#DejaVuSans-6f" x="507.576172"/>
      <use xlink:href="#DejaVuSans-6e" x="568.757812"/>
     </g>
    </g>
    <g id="line2d_27">
     <path d="M 61.796 100.452625 
L 70.596 100.452625 
L 79.396 100.452625 
" style="fill: none; stroke: #aa3377; stroke-width: 1.2; stroke-linecap: round"/>
    </g>
    <g id="text_19">
     <!-- response -->
     <g style="fill: #262626" transform="translate(86.436 103.532625) scale(0.088 -0.088)">
      <use xlink:href="#DejaVuSans-72"/>
      <use xlink:href="#DejaVuSans-65" x="38.863281"/>
      <use xlink:href="#DejaVuSans-73" x="100.386719"/>
      <use xlink:href="#DejaVuSans-70" x="152.486328"/>
      <use xlink:href="#DejaVuSans-6f" x="215.962891"/>
      <use xlink:href="#DejaVuSans-6e" x="277.144531"/>
      <use xlink:href="#DejaVuSans-73" x="340.523438"/>
      <use xlink:href="#DejaVuSans-65" x="392.623047"/>
     </g>
    </g>
   </g>
   <g id="legend_2">
    <g id="patch_8">
     <path d="M 247.32313 234.404 
L 294.99988 234.404 
Q 296.75988 234.404 296.75988 232.644 
L 296.75988 193.9995 
Q 296.75988 192.2395 294.99988 192.2395 
L 247.32313 192.2395 
Q 245.56313 192.2395 245.56313 193.9995 
L 245.56313 232.644 
Q 245.56313 234.404 247.32313 234.404 
z
" style="fill: #ffffff; opacity: 0.8; stroke: #cccccc; stroke-width: 0.8; stroke-linejoin: miter"/>
    </g>
    <g id="text_20">
     <!-- Source -->
     <g style="fill: #262626" transform="translate(254.677255 203.054) scale(0.096 -0.096)">
      <defs>
       <path id="DejaVuSans-53" d="M 3425 4513 
L 3425 3897 
Q 3066 4069 2747 4153 
Q 2428 4238 2131 4238 
Q 1616 4238 1336 4038 
Q 1056 3838 1056 3469 
Q 1056 3159 1242 3001 
Q 1428 2844 1947 2747 
L 2328 2669 
Q 3034 2534 3370 2195 
Q 3706 1856 3706 1288 
Q 3706 609 3251 259 
Q 2797 -91 1919 -91 
Q 1588 -91 1214 -16 
Q 841 59 441 206 
L 441 856 
Q 825 641 1194 531 
Q 1563 422 1919 422 
Q 2459 422 2753 634 
Q 3047 847 3047 1241 
Q 3047 1584 2836 1778 
Q 2625 1972 2144 2069 
L 1759 2144 
Q 1053 2284 737 2584 
Q 422 2884 422 3419 
Q 422 4038 858 4394 
Q 1294 4750 2059 4750 
Q 2388 4750 2728 4690 
Q 3069 4631 3425 4513 
z
" transform="scale(0.015625)"/>
      </defs>
      <use xlink:href="#DejaVuSans-53"/>
      <use xlink:href="#DejaVuSans-6f" x="63.476562"/>
      <use xlink:href="#DejaVuSans-75" x="124.658203"/>
      <use xlink:href="#DejaVuSans-72" x="188.037109"/>
      <use xlink:href="#DejaVuSans-63" x="226.900391"/>
      <use xlink:href="#DejaVuSans-65" x="281.880859"/>
     </g>
    </g>
    <g id="line2d_28">
     <path d="M 249.08313 213.057125 
L 257.88313 213.057125 
L 266.68313 213.057125 
" style="fill: none; stroke-dasharray: 4.44,1.92; stroke-dashoffset: 0; stroke: #000000; stroke-width: 1.2"/>
    </g>
    <g id="text_21">
     <!-- HMP -->
     <g style="fill: #262626" transform="translate(273.72313 216.137125) scale(0.088 -0.088)">
      <defs>
       <path id="DejaVuSans-48" d="M 628 4666 
L 1259 4666 
L 1259 2753 
L 3553 2753 
L 3553 4666 
L 4184 4666 
L 4184 0 
L 3553 0 
L 3553 2222 
L 1259 2222 
L 1259 0 
L 628 0 
L 628 4666 
z
" transform="scale(0.015625)"/>
       <path id="DejaVuSans-4d" d="M 628 4666 
L 1569 4666 
L 2759 1491 
L 3956 4666 
L 4897 4666 
L 4897 0 
L 4281 0 
L 4281 4097 
L 3078 897 
L 2444 897 
L 1241 4097 
L 1241 0 
L 628 0 
L 628 4666 
z
" transform="scale(0.015625)"/>
       <path id="DejaVuSans-50" d="M 1259 4147 
L 1259 2394 
L 2053 2394 
Q 2494 2394 2734 2622 
Q 2975 2850 2975 3272 
Q 2975 3691 2734 3919 
Q 2494 4147 2053 4147 
L 1259 4147 
z
M 628 4666 
L 2053 4666 
Q 2838 4666 3239 4311 
Q 3641 3956 3641 3272 
Q 3641 2581 3239 2228 
Q 2838 1875 2053 1875 
L 1259 1875 
L 1259 0 
L 628 0 
L 628 4666 
z
" transform="scale(0.015625)"/>
      </defs>
      <use xlink:href="#DejaVuSans-48"/>
      <use xlink:href="#DejaVuSans-4d" x="75.195312"/>
      <use xlink:href="#DejaVuSans-50" x="161.474609"/>
     </g>
    </g>
    <g id="line2d_29">
     <path d="M 249.08313 225.973875 
L 257.88313 225.973875 
L 266.68313 225.973875 
" style="fill: none; stroke: #000000; stroke-width: 1.2; stroke-linecap: round"/>
    </g>
    <g id="text_22">
     <!-- S4 -->
     <g style="fill: #262626" transform="translate(273.72313 229.053875) scale(0.088 -0.088)">
      <use xlink:href="#DejaVuSans-53"/>
      <use xlink:href="#DejaVuSans-34" x="63.476562"/>
     </g>
    </g>
   </g>
  </g>
  <g id="axes_2">
   <g id="patch_9">
    <path d="M 317.338 238.804 
L 564.62188 238.804 
L 564.62188 23.568 
L 317.338 23.568 
L 317.338 238.804 
z
" style="fill: none"/>
   </g>
   <g id="matplotlib.axis_3">
    <g id="xtick_7">
     <g id="line2d_30">
      <g>
       <use xlink:href="#m369bd3e0db" x="328.578176" y="238.804" style="fill: #262626; stroke: #262626"/>
      </g>
     </g>
     <g id="text_23">
      <!-- 0 -->
      <g style="fill: #262626" transform="translate(325.778676 253.790625) scale(0.088 -0.088)">
       <use xlink:href="#DejaVuSans-30"/>
      </g>
     </g>
    </g>
    <g id="xtick_8">
     <g id="line2d_31">
      <g>
       <use xlink:href="#m369bd3e0db" x="373.99303" y="238.804" style="fill: #262626; stroke: #262626"/>
      </g>
     </g>
     <g id="text_24">
      <!-- 20 -->
      <g style="fill: #262626" transform="translate(368.39403 253.790625) scale(0.088 -0.088)">
       <use xlink:href="#DejaVuSans-32"/>
       <use xlink:href="#DejaVuSans-30" x="63.623047"/>
      </g>
     </g>
    </g>
    <g id="xtick_9">
     <g id="line2d_32">
      <g>
       <use xlink:href="#m369bd3e0db" x="419.407884" y="238.804" style="fill: #262626; stroke: #262626"/>
      </g>
     </g>
     <g id="text_25">
      <!-- 40 -->
      <g style="fill: #262626" transform="translate(413.808884 253.790625) scale(0.088 -0.088)">
       <use xlink:href="#DejaVuSans-34"/>
       <use xlink:href="#DejaVuSans-30" x="63.623047"/>
      </g>
     </g>
    </g>
    <g id="xtick_10">
     <g id="line2d_33">
      <g>
       <use xlink:href="#m369bd3e0db" x="464.822738" y="238.804" style="fill: #262626; stroke: #262626"/>
      </g>
     </g>
     <g id="text_26">
      <!-- 60 -->
      <g style="fill: #262626" transform="translate(459.223738 253.790625) scale(0.088 -0.088)">
       <use xlink:href="#DejaVuSans-36"/>
       <use xlink:href="#DejaVuSans-30" x="63.623047"/>
      </g>
     </g>
    </g>
    <g id="xtick_11">
     <g id="line2d_34">
      <g>
       <use xlink:href="#m369bd3e0db" x="510.237592" y="238.804" style="fill: #262626; stroke: #262626"/>
      </g>
     </g>
     <g id="text_27">
      <!-- 80 -->
      <g style="fill: #262626" transform="translate(504.638592 253.790625) scale(0.088 -0.088)">
       <use xlink:href="#DejaVuSans-38"/>
       <use xlink:href="#DejaVuSans-30" x="63.623047"/>
      </g>
     </g>
    </g>
    <g id="xtick_12">
     <g id="line2d_35">
      <g>
       <use xlink:href="#m369bd3e0db" x="555.652446" y="238.804" style="fill: #262626; stroke: #262626"/>
      </g>
     </g>
     <g id="text_28">
      <!-- 100 -->
      <g style="fill: #262626" transform="translate(547.253946 253.790625) scale(0.088 -0.088)">
       <use xlink:href="#DejaVuSans-31"/>
       <use xlink:href="#DejaVuSans-30" x="63.623047"/>
       <use xlink:href="#DejaVuSans-30" x="127.246094"/>
      </g>
     </g>
    </g>
   </g>
   <g id="matplotlib.axis_4">
    <g id="ytick_7">
     <g id="line2d_36">
      <g>
       <use xlink:href="#m5ad32db8ea" x="317.338" y="229.020545" style="fill: #262626; stroke: #262626"/>
      </g>
     </g>
    </g>
    <g id="ytick_8">
     <g id="line2d_37">
      <g>
       <use xlink:href="#m5ad32db8ea" x="317.338" y="189.886755" style="fill: #262626; stroke: #262626"/>
      </g>
     </g>
    </g>
    <g id="ytick_9">
     <g id="line2d_38">
      <g>
       <use xlink:href="#m5ad32db8ea" x="317.338" y="150.752965" style="fill: #262626; stroke: #262626"/>
      </g>
     </g>
    </g>
    <g id="ytick_10">
     <g id="line2d_39">
      <g>
       <use xlink:href="#m5ad32db8ea" x="317.338" y="111.619175" style="fill: #262626; stroke: #262626"/>
      </g>
     </g>
    </g>
    <g id="ytick_11">
     <g id="line2d_40">
      <g>
       <use xlink:href="#m5ad32db8ea" x="317.338" y="72.485385" style="fill: #262626; stroke: #262626"/>
      </g>
     </g>
    </g>
    <g id="ytick_12">
     <g id="line2d_41">
      <g>
       <use xlink:href="#m5ad32db8ea" x="317.338" y="33.351594" style="fill: #262626; stroke: #262626"/>
      </g>
     </g>
    </g>
   </g>
   <g id="PolyCollection_11"/>
   <g id="PolyCollection_12"/>
   <g id="PolyCollection_13"/>
   <g id="PolyCollection_14"/>
   <g id="PolyCollection_15"/>
   <g id="PolyCollection_16"/>
   <g id="PolyCollection_17"/>
   <g id="PolyCollection_18"/>
   <g id="PolyCollection_19"/>
   <g id="PolyCollection_20"/>
   <g id="line2d_42">
    <path d="M 328.578176 228.340195 
L 330.848919 222.612048 
L 333.119662 213.179984 
L 335.390404 201.814713 
L 337.661147 189.702792 
L 339.93189 177.361196 
L 342.202633 165.240391 
L 344.473375 153.642616 
L 346.744118 142.561425 
L 349.014861 132.018139 
L 351.285603 122.065731 
L 353.556346 112.76561 
L 355.827089 104.140029 
L 358.097831 96.183821 
L 360.368574 88.87807 
L 362.639317 82.234112 
L 364.91006 76.254921 
L 367.180802 70.888177 
L 369.451545 66.074167 
L 371.722288 61.770986 
L 373.99303 57.94528 
L 376.263773 54.576195 
L 378.534516 51.634072 
L 380.805258 49.086968 
L 383.076001 46.887555 
L 385.346744 44.996191 
L 387.617486 43.373082 
L 389.888229 41.979496 
L 392.158972 40.781694 
L 394.429715 39.749923 
L 396.700457 38.862327 
L 398.9712 38.097156 
L 401.241943 37.435573 
L 403.512685 36.863 
L 405.783428 36.365735 
L 408.054171 35.933174 
L 410.324913 35.556606 
L 412.595656 35.230596 
L 414.866399 34.948264 
L 417.137142 34.70506 
L 419.407884 34.495666 
L 421.678627 34.315698 
L 423.94937 34.160968 
L 426.220112 34.028595 
L 428.490855 33.915828 
L 430.761598 33.820462 
L 433.03234 33.74021 
L 435.303083 33.673032 
L 437.573826 33.616853 
L 439.844569 33.570003 
L 442.115311 33.531108 
L 444.386054 33.498895 
L 446.656797 33.472223 
L 448.927539 33.450145 
L 451.198282 33.431846 
L 453.469025 33.416696 
L 455.739767 33.404089 
L 458.01051 33.393755 
L 460.281253 33.385487 
L 462.551996 33.378862 
L 464.822738 33.373602 
L 467.093481 33.369334 
L 469.364224 33.365858 
L 471.634966 33.363012 
L 473.905709 33.360703 
L 476.176452 33.358825 
L 478.447194 33.357298 
L 480.717937 33.356073 
L 482.98868 33.355093 
L 485.259423 33.354312 
L 487.530165 33.353694 
L 489.800908 33.353204 
L 492.071651 33.352831 
L 494.342393 33.352539 
L 496.613136 33.352306 
L 498.883879 33.352143 
L 501.154621 33.352003 
L 503.425364 33.351909 
L 505.696107 33.351839 
L 507.966849 33.351793 
L 510.237592 33.351758 
L 512.508335 33.351734 
L 514.779078 33.351723 
L 517.04982 33.351711 
L 519.320563 33.351699 
L 521.591306 33.351699 
L 523.862048 33.351699 
L 526.132791 33.351699 
L 528.403534 33.351699 
L 530.674276 33.351699 
L 532.945019 33.351699 
L 535.215762 33.351699 
L 537.486505 33.351699 
L 539.757247 33.351699 
L 542.02799 33.351699 
L 544.298733 33.351699 
L 546.569475 33.351699 
L 548.840218 33.351699 
L 551.110961 33.351699 
L 553.381703 33.351699 
" clip-path="url(#p63ae778f2f)" style="fill: none; stroke-dasharray: 4.44,1.92; stroke-dashoffset: 0; stroke: #66ccee; stroke-opacity: 0.5; stroke-width: 1.2"/>
   </g>
   <g id="line2d_43">
    <path d="M 328.578176 229.001956 
L 330.848919 228.938704 
L 333.119662 228.723118 
L 335.390404 228.266542 
L 337.661147 227.536276 
L 339.93189 226.499696 
L 342.202633 225.130059 
L 344.473375 223.467576 
L 346.744118 221.484634 
L 349.014861 219.158945 
L 351.285603 216.532768 
L 353.556346 213.639412 
L 355.827089 210.492358 
L 358.097831 207.120129 
L 360.368574 203.540728 
L 362.639317 199.842604 
L 364.91006 196.043078 
L 367.180802 192.155241 
L 369.451545 188.212111 
L 371.722288 184.269876 
L 373.99303 180.356746 
L 376.263773 176.510775 
L 378.534516 172.759571 
L 380.805258 169.092811 
L 383.076001 165.500203 
L 385.346744 161.996395 
L 387.617486 158.614598 
L 389.888229 155.325624 
L 392.158972 152.141721 
L 394.429715 149.03643 
L 396.700457 145.983442 
L 398.9712 142.997858 
L 401.241943 140.057835 
L 403.512685 137.144916 
L 405.783428 134.254191 
L 408.054171 131.371217 
L 410.324913 128.509742 
L 412.595656 125.673343 
L 414.866399 122.836874 
L 417.137142 119.998503 
L 419.407884 117.156366 
L 421.678627 114.336201 
L 423.94937 111.5357 
L 426.220112 108.755188 
L 428.490855 106.008336 
L 430.761598 103.296052 
L 433.03234 100.617683 
L 435.303083 97.985546 
L 437.573826 95.403453 
L 439.844569 92.858168 
L 442.115311 90.345178 
L 444.386054 87.860505 
L 446.656797 85.41047 
L 448.927539 83.001675 
L 451.198282 80.645852 
L 453.469025 78.344237 
L 455.739767 76.092015 
L 458.01051 73.892065 
L 460.281253 71.729809 
L 462.551996 69.602728 
L 464.822738 67.518333 
L 467.093481 65.489162 
L 469.364224 63.508005 
L 471.634966 61.566374 
L 473.905709 59.673727 
L 476.176452 57.840758 
L 478.447194 56.068098 
L 480.717937 54.351407 
L 482.98868 52.684912 
L 485.259423 51.05624 
L 487.530165 49.465251 
L 489.800908 47.927805 
L 492.071651 46.445804 
L 494.342393 45.022922 
L 496.613136 43.65791 
L 498.883879 42.347142 
L 501.154621 41.099003 
L 503.425364 39.935793 
L 505.696107 38.871587 
L 507.966849 37.902026 
L 510.237592 37.012062 
L 512.508335 36.206234 
L 514.779078 35.510958 
L 517.04982 34.941371 
L 519.320563 34.506524 
L 521.591306 34.200878 
L 523.862048 34.001246 
L 526.132791 33.866739 
L 528.403534 33.771466 
L 530.674276 33.693186 
L 532.945019 33.626894 
L 535.215762 33.570633 
L 537.486505 33.522139 
L 539.757247 33.480328 
L 542.02799 33.445037 
L 544.298733 33.415448 
L 546.569475 33.388729 
L 548.840218 33.366208 
L 551.110961 33.353087 
L 553.381703 33.351606 
" clip-path="url(#p63ae778f2f)" style="fill: none; stroke: #66ccee; stroke-width: 1.2; stroke-linecap: round"/>
   </g>
   <g id="line2d_44">
    <path d="M 328.578176 229.020472 
L 330.848919 229.006716 
L 333.119662 228.925922 
L 335.390404 228.742596 
L 337.661147 228.388753 
L 339.93189 227.768755 
L 342.202633 226.908803 
L 344.473375 225.694996 
L 346.744118 224.148856 
L 349.014861 222.305895 
L 351.285603 220.183737 
L 353.556346 217.699901 
L 355.827089 214.888621 
L 358.097831 211.787266 
L 360.368574 208.397935 
L 362.639317 204.68418 
L 364.91006 200.617245 
L 367.180802 196.260454 
L 369.451545 191.601932 
L 371.722288 186.684698 
L 373.99303 181.552256 
L 376.263773 176.245272 
L 378.534516 170.70305 
L 380.805258 164.931345 
L 383.076001 158.966878 
L 385.346744 152.861384 
L 387.617486 146.670922 
L 389.888229 140.44459 
L 392.158972 134.196326 
L 394.429715 128.004744 
L 396.700457 121.939061 
L 398.9712 116.006626 
L 401.241943 110.231836 
L 403.512685 104.654684 
L 405.783428 99.318834 
L 408.054171 94.258612 
L 410.324913 89.467332 
L 412.595656 84.964543 
L 414.866399 80.757581 
L 417.137142 76.824986 
L 419.407884 73.155607 
L 421.678627 69.772189 
L 423.94937 66.6774 
L 426.220112 63.842342 
L 428.490855 61.249485 
L 430.761598 58.86475 
L 433.03234 56.660905 
L 435.303083 54.616501 
L 437.573826 52.716367 
L 439.844569 50.943601 
L 442.115311 49.285271 
L 444.386054 47.755254 
L 446.656797 46.358333 
L 448.927539 45.071392 
L 451.198282 43.88755 
L 453.469025 42.798445 
L 455.739767 41.801709 
L 458.01051 40.887044 
L 460.281253 40.044863 
L 462.551996 39.271971 
L 464.822738 38.56846 
L 467.093481 37.924943 
L 469.364224 37.343239 
L 471.634966 36.821808 
L 473.905709 36.355063 
L 476.176452 35.941174 
L 478.447194 35.573272 
L 480.717937 35.247799 
L 482.98868 34.95988 
L 485.259423 34.704488 
L 487.530165 34.480505 
L 489.800908 34.287906 
L 492.071651 34.123892 
L 494.342393 33.982866 
L 496.613136 33.860943 
L 498.883879 33.756888 
L 501.154621 33.669907 
L 503.425364 33.598227 
L 505.696107 33.54073 
L 507.966849 33.49563 
L 510.237592 33.460537 
L 512.508335 33.432861 
L 514.779078 33.410748 
L 517.04982 33.393056 
L 519.320563 33.379655 
L 521.591306 33.370418 
L 523.862048 33.363957 
L 526.132791 33.359467 
L 528.403534 33.356376 
L 530.674276 33.354359 
L 532.945019 33.353134 
L 535.215762 33.352399 
L 537.486505 33.351991 
L 539.757247 33.351793 
L 542.02799 33.351699 
L 544.298733 33.351676 
L 546.569475 33.351664 
L 548.840218 33.351664 
L 551.110961 33.351664 
L 553.381703 33.351664 
" clip-path="url(#p63ae778f2f)" style="fill: none; stroke-dasharray: 4.44,1.92; stroke-dashoffset: 0; stroke: #228833; stroke-opacity: 0.5; stroke-width: 1.2"/>
   </g>
   <g id="line2d_45">
    <path d="M 328.578176 229.016736 
L 330.848919 229.01312 
L 333.119662 229.005694 
L 335.390404 228.989275 
L 337.661147 228.95593 
L 339.93189 228.882817 
L 342.202633 228.779763 
L 344.473375 228.593796 
L 346.744118 228.327497 
L 349.014861 227.982349 
L 351.285603 227.548854 
L 353.556346 226.988465 
L 355.827089 226.31767 
L 358.097831 225.495553 
L 360.368574 224.512614 
L 362.639317 223.359865 
L 364.91006 222.015147 
L 367.180802 220.493057 
L 369.451545 218.772507 
L 371.722288 216.874013 
L 373.99303 214.792112 
L 376.263773 212.543154 
L 378.534516 210.090247 
L 380.805258 207.450002 
L 383.076001 204.567843 
L 385.346744 201.460727 
L 387.617486 198.15525 
L 389.888229 194.73496 
L 392.158972 191.172343 
L 394.429715 187.494862 
L 396.700457 183.729519 
L 398.9712 179.852791 
L 401.241943 175.902235 
L 403.512685 171.918784 
L 405.783428 167.931117 
L 408.054171 164.001874 
L 410.324913 160.121738 
L 412.595656 156.307916 
L 414.866399 152.585968 
L 417.137142 148.948131 
L 419.407884 145.375992 
L 421.678627 141.89832 
L 423.94937 138.522669 
L 426.220112 135.235637 
L 428.490855 132.043144 
L 430.761598 128.951295 
L 433.03234 125.934321 
L 435.303083 122.956289 
L 437.573826 120.008312 
L 439.844569 117.092617 
L 442.115311 114.215585 
L 444.386054 111.376281 
L 446.656797 108.57901 
L 448.927539 105.8105 
L 451.198282 103.067613 
L 453.469025 100.339409 
L 455.739767 97.645529 
L 458.01051 94.9943 
L 460.281253 92.375831 
L 462.551996 89.786321 
L 464.822738 87.203307 
L 467.093481 84.618124 
L 469.364224 82.054867 
L 471.634966 79.53636 
L 473.905709 77.053378 
L 476.176452 74.598911 
L 478.447194 72.173905 
L 480.717937 69.778312 
L 482.98868 67.405846 
L 485.259423 65.08402 
L 487.530165 62.832019 
L 489.800908 60.633994 
L 492.071651 58.480567 
L 494.342393 56.368811 
L 496.613136 54.298877 
L 498.883879 52.265414 
L 501.154621 50.270939 
L 503.425364 48.328013 
L 505.696107 46.448183 
L 507.966849 44.646564 
L 510.237592 42.918292 
L 512.508335 41.282016 
L 514.779078 39.767312 
L 517.04982 38.400026 
L 519.320563 37.194002 
L 521.591306 36.187667 
L 523.862048 35.412617 
L 526.132791 34.842098 
L 528.403534 34.463174 
L 530.674276 34.21878 
L 532.945019 34.047466 
L 535.215762 33.915233 
L 537.486505 33.800262 
L 539.757247 33.695623 
L 542.02799 33.599452 
L 544.298733 33.513357 
L 546.569475 33.440278 
L 548.840218 33.385731 
L 551.110961 33.355863 
L 553.381703 33.351664 
" clip-path="url(#p63ae778f2f)" style="fill: none; stroke: #228833; stroke-width: 1.2; stroke-linecap: round"/>
   </g>
   <g id="line2d_46">
    <path d="M 328.578176 229.020545 
L 330.848919 229.02054 
L 333.119662 229.020452 
L 335.390404 229.019702 
L 337.661147 229.015239 
L 339.93189 229.010244 
L 342.202633 229.000392 
L 344.473375 228.980009 
L 346.744118 228.938822 
L 349.014861 228.889251 
L 351.285603 228.803792 
L 353.556346 228.686097 
L 355.827089 228.5202 
L 358.097831 228.335174 
L 360.368574 228.097797 
L 362.639317 227.808177 
L 364.91006 227.448992 
L 367.180802 227.009467 
L 369.451545 226.506708 
L 371.722288 225.923798 
L 373.99303 225.253729 
L 376.263773 224.514288 
L 378.534516 223.679584 
L 380.805258 222.732743 
L 383.076001 221.679559 
L 385.346744 220.536871 
L 387.617486 219.287336 
L 389.888229 217.901903 
L 392.158972 216.376925 
L 394.429715 214.70571 
L 396.700457 212.870625 
L 398.9712 210.889361 
L 401.241943 208.772204 
L 403.512685 206.50078 
L 405.783428 204.067229 
L 408.054171 201.478553 
L 410.324913 198.713752 
L 412.595656 195.774096 
L 414.866399 192.66312 
L 417.137142 189.398933 
L 419.407884 186.005764 
L 421.678627 182.500324 
L 423.94937 178.899639 
L 426.220112 175.20385 
L 428.490855 171.403225 
L 430.761598 167.508178 
L 433.03234 163.552402 
L 435.303083 159.559709 
L 437.573826 155.51978 
L 439.844569 151.4441 
L 442.115311 147.344913 
L 444.386054 143.233796 
L 446.656797 139.113925 
L 448.927539 135.000172 
L 451.198282 130.919564 
L 453.469025 126.878434 
L 455.739767 122.872655 
L 458.01051 118.898936 
L 460.281253 114.961174 
L 462.551996 111.074542 
L 464.822738 107.25216 
L 467.093481 103.504862 
L 469.364224 99.826713 
L 471.634966 96.211975 
L 473.905709 92.658432 
L 476.176452 89.165954 
L 478.447194 85.737331 
L 480.717937 82.375652 
L 482.98868 79.085244 
L 485.259423 75.876872 
L 487.530165 72.753953 
L 489.800908 69.729969 
L 492.071651 66.81796 
L 494.342393 64.02406 
L 496.613136 61.338355 
L 498.883879 58.759295 
L 501.154621 56.29137 
L 503.425364 53.94118 
L 505.696107 51.709647 
L 507.966849 49.601997 
L 510.237592 47.622415 
L 512.508335 45.769701 
L 514.779078 44.045884 
L 517.04982 42.453133 
L 519.320563 40.994831 
L 521.591306 39.671491 
L 523.862048 38.484663 
L 526.132791 37.43569 
L 528.403534 36.521584 
L 530.674276 35.740166 
L 532.945019 35.08887 
L 535.215762 34.561829 
L 537.486505 34.148839 
L 539.757247 33.839169 
L 542.02799 33.620981 
L 544.298733 33.480608 
L 546.569475 33.400683 
L 548.840218 33.363129 
L 551.110961 33.351758 
L 553.381703 33.351618 
" clip-path="url(#p63ae778f2f)" style="fill: none; stroke-dasharray: 4.44,1.92; stroke-dashoffset: 0; stroke: #ccbb44; stroke-opacity: 0.5; stroke-width: 1.2"/>
   </g>
   <g id="line2d_47">
    <path d="M 328.578176 229.017841 
L 330.848919 229.01586 
L 333.119662 229.014072 
L 335.390404 229.01165 
L 337.661147 229.008322 
L 339.93189 229.003288 
L 342.202633 228.995096 
L 344.473375 228.981542 
L 346.744118 228.960532 
L 349.014861 228.934466 
L 351.285603 228.888328 
L 353.556346 228.81968 
L 355.827089 228.721983 
L 358.097831 228.616631 
L 360.368574 228.482316 
L 362.639317 228.315221 
L 364.91006 228.116759 
L 367.180802 227.872715 
L 369.451545 227.591933 
L 371.722288 227.262643 
L 373.99303 226.882569 
L 376.263773 226.476864 
L 378.534516 226.009778 
L 380.805258 225.469958 
L 383.076001 224.872056 
L 385.346744 224.225773 
L 387.617486 223.517653 
L 389.888229 222.712852 
L 392.158972 221.804661 
L 394.429715 220.794442 
L 396.700457 219.672783 
L 398.9712 218.446873 
L 401.241943 217.126827 
L 403.512685 215.704414 
L 405.783428 214.161482 
L 408.054171 212.49773 
L 410.324913 210.690692 
L 412.595656 208.741204 
L 414.866399 206.647131 
L 417.137142 204.410622 
L 419.407884 202.052861 
L 421.678627 199.590612 
L 423.94937 197.032731 
L 426.220112 194.36611 
L 428.490855 191.598609 
L 430.761598 188.745715 
L 433.03234 185.815795 
L 435.303083 182.821146 
L 437.573826 179.771274 
L 439.844569 176.653814 
L 442.115311 173.481701 
L 444.386054 170.276577 
L 446.656797 167.012685 
L 448.927539 163.683976 
L 451.198282 160.326087 
L 453.469025 156.948494 
L 455.739767 153.556247 
L 458.01051 150.144412 
L 460.281253 146.71163 
L 462.551996 143.258089 
L 464.822738 139.785188 
L 467.093481 136.299294 
L 469.364224 132.799615 
L 471.634966 129.288303 
L 473.905709 125.754108 
L 476.176452 122.182009 
L 478.447194 118.569883 
L 480.717937 114.918582 
L 482.98868 111.227359 
L 485.259423 107.492261 
L 487.530165 103.701777 
L 489.800908 99.860606 
L 492.071651 95.981029 
L 494.342393 92.077824 
L 496.613136 88.162524 
L 498.883879 84.249335 
L 501.154621 80.36542 
L 503.425364 76.509846 
L 505.696107 72.682892 
L 507.966849 68.913831 
L 510.237592 65.201196 
L 512.508335 61.529357 
L 514.779078 57.934014 
L 517.04982 54.441665 
L 519.320563 51.07104 
L 521.591306 47.860802 
L 523.862048 44.905711 
L 526.132791 42.336611 
L 528.403534 40.186076 
L 530.674276 38.45511 
L 532.945019 37.127151 
L 535.215762 36.12098 
L 537.486505 35.340973 
L 539.757247 34.720396 
L 542.02799 34.226361 
L 544.298733 33.852126 
L 546.569475 33.589189 
L 548.840218 33.427799 
L 551.110961 33.358581 
L 553.381703 33.351571 
" clip-path="url(#p63ae778f2f)" style="fill: none; stroke: #ccbb44; stroke-width: 1.2; stroke-linecap: round"/>
   </g>
   <g id="line2d_48">
    <path d="M 328.578176 229.020545 
L 330.848919 229.020545 
L 333.119662 229.020545 
L 335.390404 229.020545 
L 337.661147 229.020545 
L 339.93189 229.020545 
L 342.202633 229.020545 
L 344.473375 229.020545 
L 346.744118 229.020545 
L 349.014861 229.020545 
L 351.285603 229.020545 
L 353.556346 229.020545 
L 355.827089 229.020545 
L 358.097831 229.020545 
L 360.368574 229.020545 
L 362.639317 229.020545 
L 364.91006 229.020545 
L 367.180802 229.020545 
L 369.451545 229.020545 
L 371.722288 229.020545 
L 373.99303 229.020545 
L 376.263773 229.020545 
L 378.534516 229.020545 
L 380.805258 229.020545 
L 383.076001 229.020545 
L 385.346744 229.020545 
L 387.617486 229.020545 
L 389.888229 229.020545 
L 392.158972 229.020545 
L 394.429715 229.020545 
L 396.700457 229.020545 
L 398.9712 229.020545 
L 401.241943 229.020545 
L 403.512685 229.020545 
L 405.783428 229.020545 
L 408.054171 229.020545 
L 410.324913 229.020545 
L 412.595656 229.020545 
L 414.866399 229.020545 
L 417.137142 229.020545 
L 419.407884 229.020545 
L 421.678627 229.020545 
L 423.94937 229.020545 
L 426.220112 229.020545 
L 428.490855 229.020545 
L 430.761598 229.020545 
L 433.03234 229.020545 
L 435.303083 229.020545 
L 437.573826 229.020545 
L 439.844569 229.020545 
L 442.115311 229.020545 
L 444.386054 229.020545 
L 446.656797 229.020545 
L 448.927539 229.020545 
L 451.198282 229.020545 
L 453.469025 229.020545 
L 455.739767 229.020545 
L 458.01051 229.020545 
L 460.281253 229.020545 
L 462.551996 229.020545 
L 464.822738 229.020545 
L 467.093481 229.020545 
L 469.364224 229.020545 
L 471.634966 229.020545 
L 473.905709 229.020545 
L 476.176452 229.020545 
L 478.447194 229.020545 
L 480.717937 229.020545 
L 482.98868 229.020545 
L 485.259423 229.020545 
L 487.530165 229.020545 
L 489.800908 229.020545 
L 492.071651 229.020545 
L 494.342393 229.020545 
L 496.613136 229.020545 
L 498.883879 229.020545 
L 501.154621 229.020545 
L 503.425364 229.020545 
L 505.696107 229.020545 
L 507.966849 229.020545 
L 510.237592 229.020545 
L 512.508335 229.020545 
L 514.779078 229.020545 
L 517.04982 229.020545 
L 519.320563 229.020545 
L 521.591306 229.020545 
L 523.862048 229.020545 
L 526.132791 229.020545 
L 528.403534 229.020545 
L 530.674276 229.020545 
L 532.945019 229.020545 
L 535.215762 229.020545 
L 537.486505 229.020545 
L 539.757247 229.020545 
L 542.02799 229.020545 
L 544.298733 229.020545 
L 546.569475 229.020545 
L 548.840218 229.020545 
L 551.110961 229.020545 
L 553.381703 229.020545 
" clip-path="url(#p63ae778f2f)" style="fill: none; stroke-dasharray: 4.44,1.92; stroke-dashoffset: 0; stroke: #ee6677; stroke-opacity: 0.5; stroke-width: 1.2"/>
   </g>
   <g id="line2d_49">
    <path d="M 328.578176 228.996148 
L 330.848919 228.976677 
L 333.119662 228.96058 
L 335.390404 228.941429 
L 337.661147 228.915881 
L 339.93189 228.88458 
L 342.202633 228.849433 
L 344.473375 228.812192 
L 346.744118 228.773165 
L 349.014861 228.732081 
L 351.285603 228.688085 
L 353.556346 228.642909 
L 355.827089 228.595568 
L 358.097831 228.545045 
L 360.368574 228.489767 
L 362.639317 228.429371 
L 364.91006 228.36348 
L 367.180802 228.291648 
L 369.451545 228.213838 
L 371.722288 228.130869 
L 373.99303 228.038619 
L 376.263773 227.934898 
L 378.534516 227.82047 
L 380.805258 227.690108 
L 383.076001 227.546626 
L 385.346744 227.386796 
L 387.617486 227.208051 
L 389.888229 227.014953 
L 392.158972 226.799634 
L 394.429715 226.562455 
L 396.700457 226.310367 
L 398.9712 226.032014 
L 401.241943 225.721132 
L 403.512685 225.3707 
L 405.783428 224.97982 
L 408.054171 224.559717 
L 410.324913 224.117523 
L 412.595656 223.643705 
L 414.866399 223.130887 
L 417.137142 222.565405 
L 419.407884 221.953599 
L 421.678627 221.291425 
L 423.94937 220.575953 
L 426.220112 219.796552 
L 428.490855 218.964376 
L 430.761598 218.080923 
L 433.03234 217.127955 
L 435.303083 216.089678 
L 437.573826 214.981737 
L 439.844569 213.793199 
L 442.115311 212.516892 
L 444.386054 211.144263 
L 446.656797 209.665305 
L 448.927539 208.081652 
L 451.198282 206.381756 
L 453.469025 204.551978 
L 455.739767 202.602647 
L 458.01051 200.526352 
L 460.281253 198.315392 
L 462.551996 195.972048 
L 464.822738 193.50966 
L 467.093481 190.916015 
L 469.364224 188.163783 
L 471.634966 185.235146 
L 473.905709 182.1204 
L 476.176452 178.811054 
L 478.447194 175.310781 
L 480.717937 171.635297 
L 482.98868 167.77911 
L 485.259423 163.724767 
L 487.530165 159.452726 
L 489.800908 154.945639 
L 492.071651 150.18869 
L 494.342393 145.175695 
L 496.613136 139.888759 
L 498.883879 134.319561 
L 501.154621 128.457096 
L 503.425364 122.271077 
L 505.696107 115.75941 
L 507.966849 108.947029 
L 510.237592 101.875455 
L 512.508335 94.570183 
L 514.779078 87.095473 
L 517.04982 79.539742 
L 519.320563 72.160749 
L 521.591306 65.335983 
L 523.862048 59.263979 
L 526.132791 53.975095 
L 528.403534 49.480132 
L 530.674276 45.798321 
L 532.945019 42.796882 
L 535.215762 40.379713 
L 537.486505 38.429195 
L 539.757247 36.877847 
L 542.02799 35.685421 
L 544.298733 34.800741 
L 546.569475 34.145072 
L 548.840218 33.689395 
L 551.110961 33.436698 
L 553.381703 33.351548 
" clip-path="url(#p63ae778f2f)" style="fill: none; stroke: #ee6677; stroke-width: 1.2; stroke-linecap: round"/>
   </g>
   <g id="line2d_50">
    <path d="M 328.578176 229.020545 
L 330.848919 229.020545 
L 333.119662 229.020545 
L 335.390404 229.020545 
L 337.661147 229.020545 
L 339.93189 229.020545 
L 342.202633 229.020545 
L 344.473375 229.020545 
L 346.744118 229.020545 
L 349.014861 229.020545 
L 351.285603 229.020545 
L 353.556346 229.020545 
L 355.827089 229.020545 
L 358.097831 229.020545 
L 360.368574 229.020545 
L 362.639317 229.020545 
L 364.91006 229.020545 
L 367.180802 229.020545 
L 369.451545 229.020545 
L 371.722288 229.020545 
L 373.99303 229.020545 
L 376.263773 229.020545 
L 378.534516 229.020544 
L 380.805258 229.020543 
L 383.076001 229.020542 
L 385.346744 229.02054 
L 387.617486 229.020537 
L 389.888229 229.020532 
L 392.158972 229.020526 
L 394.429715 229.020518 
L 396.700457 229.020505 
L 398.9712 229.020488 
L 401.241943 229.020465 
L 403.512685 229.020433 
L 405.783428 229.020391 
L 408.054171 229.020334 
L 410.324913 229.020259 
L 412.595656 229.02016 
L 414.866399 229.020028 
L 417.137142 229.019854 
L 419.407884 229.019626 
L 421.678627 229.019326 
L 423.94937 229.018933 
L 426.220112 229.01843 
L 428.490855 229.017785 
L 430.761598 229.016973 
L 433.03234 229.015962 
L 435.303083 229.014704 
L 437.573826 229.013159 
L 439.844569 229.011281 
L 442.115311 229.009002 
L 444.386054 229.006244 
L 446.656797 229.002902 
L 448.927539 228.998836 
L 451.198282 228.993879 
L 453.469025 228.987762 
L 455.739767 228.980189 
L 458.01051 228.970773 
L 460.281253 228.959027 
L 462.551996 228.944395 
L 464.822738 228.926253 
L 467.093481 228.90375 
L 469.364224 228.875881 
L 471.634966 228.84159 
L 473.905709 228.799393 
L 476.176452 228.747506 
L 478.447194 228.68363 
L 480.717937 228.604952 
L 482.98868 228.507836 
L 485.259423 228.387887 
L 487.530165 228.239295 
L 489.800908 228.055001 
L 492.071651 227.826664 
L 494.342393 227.54379 
L 496.613136 227.192474 
L 498.883879 226.756744 
L 501.154621 226.216278 
L 503.425364 225.547217 
L 505.696107 224.721878 
L 507.966849 223.709127 
L 510.237592 222.470164 
L 512.508335 220.955025 
L 514.779078 219.102891 
L 517.04982 216.840891 
L 519.320563 214.091743 
L 521.591306 210.767226 
L 523.862048 206.750916 
L 526.132791 201.907117 
L 528.403534 196.08495 
L 530.674276 189.116985 
L 532.945019 180.822954 
L 535.215762 170.970629 
L 537.486505 159.321496 
L 539.757247 145.690747 
L 542.02799 129.919982 
L 544.298733 111.857021 
L 546.569475 91.605248 
L 548.840218 69.849315 
L 551.110961 48.648821 
L 553.381703 33.351594 
" clip-path="url(#p63ae778f2f)" style="fill: none; stroke-dasharray: 4.44,1.92; stroke-dashoffset: 0; stroke: #aa3377; stroke-opacity: 0.5; stroke-width: 1.2"/>
   </g>
   <g id="line2d_51">
    <path d="M 328.578176 229.019755 
L 330.848919 229.01918 
L 333.119662 229.017991 
L 335.390404 229.016287 
L 337.661147 229.014424 
L 339.93189 229.012479 
L 342.202633 229.010409 
L 344.473375 229.008202 
L 346.744118 229.005758 
L 349.014861 229.002945 
L 351.285603 228.999386 
L 353.556346 228.995737 
L 355.827089 228.991247 
L 358.097831 228.985666 
L 360.368574 228.97956 
L 362.639317 228.972343 
L 364.91006 228.963901 
L 367.180802 228.954231 
L 369.451545 228.941629 
L 371.722288 228.926962 
L 373.99303 228.91057 
L 376.263773 228.892016 
L 378.534516 228.868545 
L 380.805258 228.842356 
L 383.076001 228.813079 
L 385.346744 228.777237 
L 387.617486 228.737226 
L 389.888229 228.691675 
L 392.158972 228.637559 
L 394.429715 228.574877 
L 396.700457 228.506006 
L 398.9712 228.432179 
L 401.241943 228.35122 
L 403.512685 228.260059 
L 405.783428 228.157065 
L 408.054171 228.043811 
L 410.324913 227.919565 
L 412.595656 227.785102 
L 414.866399 227.637282 
L 417.137142 227.473505 
L 419.407884 227.298085 
L 421.678627 227.105194 
L 423.94937 226.891849 
L 426.220112 226.661236 
L 428.490855 226.419842 
L 430.761598 226.15973 
L 433.03234 225.881098 
L 435.303083 225.582354 
L 437.573826 225.26874 
L 439.844569 224.938324 
L 442.115311 224.578615 
L 444.386054 224.192872 
L 446.656797 223.78786 
L 448.927539 223.361261 
L 451.198282 222.909274 
L 453.469025 222.423201 
L 455.739767 221.912007 
L 458.01051 221.370826 
L 460.281253 220.802539 
L 462.551996 220.205979 
L 464.822738 219.582935 
L 467.093481 218.935519 
L 469.364224 218.258376 
L 471.634966 217.549618 
L 473.905709 216.815826 
L 476.176452 216.054197 
L 478.447194 215.264449 
L 480.717937 214.448021 
L 482.98868 213.603872 
L 485.259423 212.714793 
L 487.530165 211.771791 
L 489.800908 210.77652 
L 492.071651 209.725043 
L 494.342393 208.612 
L 496.613136 207.431671 
L 498.883879 206.168364 
L 501.154621 204.791928 
L 503.425364 203.282948 
L 505.696107 201.626726 
L 507.966849 199.77745 
L 510.237592 197.676826 
L 512.508335 195.252539 
L 514.779078 192.376064 
L 517.04982 188.852371 
L 519.320563 184.390318 
L 521.591306 178.618024 
L 523.862048 171.257936 
L 526.132791 162.115362 
L 528.403534 150.9608 
L 530.674276 137.824541 
L 532.945019 123.147617 
L 535.215762 107.547228 
L 537.486505 91.821662 
L 539.757247 76.778393 
L 542.02799 63.066977 
L 544.298733 51.240244 
L 546.569475 41.930373 
L 548.840218 35.843091 
L 551.110961 33.46154 
L 553.381703 33.351455 
" clip-path="url(#p63ae778f2f)" style="fill: none; stroke: #aa3377; stroke-width: 1.2; stroke-linecap: round"/>
   </g>
   <g id="patch_10">
    <path d="M 317.338 238.804 
L 317.338 23.568 
" style="fill: none; stroke: #262626; stroke-linejoin: miter; stroke-linecap: square"/>
   </g>
   <g id="patch_11">
    <path d="M 564.62188 238.804 
L 564.62188 23.568 
" style="fill: none; stroke: #262626; stroke-linejoin: miter; stroke-linecap: square"/>
   </g>
   <g id="patch_12">
    <path d="M 317.338 238.804 
L 564.62188 238.804 
" style="fill: none; stroke: #262626; stroke-linejoin: miter; stroke-linecap: square"/>
   </g>
   <g id="patch_13">
    <path d="M 317.338 23.568 
L 564.62188 23.568 
" style="fill: none; stroke: #262626; stroke-linejoin: miter; stroke-linecap: square"/>
   </g>
   <g id="text_29">
    <!-- Speed -->
    <g style="fill: #262626" transform="translate(425.93119 17.568) scale(0.096 -0.096)">
     <use xlink:href="#DejaVuSans-53"/>
     <use xlink:href="#DejaVuSans-70" x="63.476562"/>
     <use xlink:href="#DejaVuSans-65" x="126.953125"/>
     <use xlink:href="#DejaVuSans-65" x="188.476562"/>
     <use xlink:href="#DejaVuSans-64" x="250"/>
    </g>
   </g>
   <g id="legend_3"/>
  </g>
  <g id="text_30">
   <!-- Cumulative probability -->
   <g style="fill: #262626" transform="translate(20.2734 209.4363) rotate(-90) scale(0.1152 -0.1152)">
    <defs>
     <path id="DejaVuSans-43" d="M 4122 4306 
L 4122 3641 
Q 3803 3938 3442 4084 
Q 3081 4231 2675 4231 
Q 1875 4231 1450 3742 
Q 1025 3253 1025 2328 
Q 1025 1406 1450 917 
Q 1875 428 2675 428 
Q 3081 428 3442 575 
Q 3803 722 4122 1019 
L 4122 359 
Q 3791 134 3420 21 
Q 3050 -91 2638 -91 
Q 1578 -91 968 557 
Q 359 1206 359 2328 
Q 359 3453 968 4101 
Q 1578 4750 2638 4750 
Q 3056 4750 3426 4639 
Q 3797 4528 4122 4306 
z
" transform="scale(0.015625)"/>
     <path id="DejaVuSans-6c" d="M 603 4863 
L 1178 4863 
L 1178 0 
L 603 0 
L 603 4863 
z
" transform="scale(0.015625)"/>
     <path id="DejaVuSans-76" d="M 191 3500 
L 800 3500 
L 1894 563 
L 2988 3500 
L 3597 3500 
L 2284 0 
L 1503 0 
L 191 3500 
z
" transform="scale(0.015625)"/>
     <path id="DejaVuSans-20" transform="scale(0.015625)"/>
     <path id="DejaVuSans-62" d="M 3116 1747 
Q 3116 2381 2855 2742 
Q 2594 3103 2138 3103 
Q 1681 3103 1420 2742 
Q 1159 2381 1159 1747 
Q 1159 1113 1420 752 
Q 1681 391 2138 391 
Q 2594 391 2855 752 
Q 3116 1113 3116 1747 
z
M 1159 2969 
Q 1341 3281 1617 3432 
Q 1894 3584 2278 3584 
Q 2916 3584 3314 3078 
Q 3713 2572 3713 1747 
Q 3713 922 3314 415 
Q 2916 -91 2278 -91 
Q 1894 -91 1617 61 
Q 1341 213 1159 525 
L 1159 0 
L 581 0 
L 581 4863 
L 1159 4863 
L 1159 2969 
z
" transform="scale(0.015625)"/>
    </defs>
    <use xlink:href="#DejaVuSans-43"/>
    <use xlink:href="#DejaVuSans-75" x="69.824219"/>
    <use xlink:href="#DejaVuSans-6d" x="133.203125"/>
    <use xlink:href="#DejaVuSans-75" x="230.615234"/>
    <use xlink:href="#DejaVuSans-6c" x="293.994141"/>
    <use xlink:href="#DejaVuSans-61" x="321.777344"/>
    <use xlink:href="#DejaVuSans-74" x="383.056641"/>
    <use xlink:href="#DejaVuSans-69" x="422.265625"/>
    <use xlink:href="#DejaVuSans-76" x="450.048828"/>
    <use xlink:href="#DejaVuSans-65" x="509.228516"/>
    <use xlink:href="#DejaVuSans-20" x="570.751953"/>
    <use xlink:href="#DejaVuSans-70" x="602.539062"/>
    <use xlink:href="#DejaVuSans-72" x="666.015625"/>
    <use xlink:href="#DejaVuSans-6f" x="704.878906"/>
    <use xlink:href="#DejaVuSans-62" x="766.060547"/>
    <use xlink:href="#DejaVuSans-61" x="829.537109"/>
    <use xlink:href="#DejaVuSans-62" x="890.816406"/>
    <use xlink:href="#DejaVuSans-69" x="954.292969"/>
    <use xlink:href="#DejaVuSans-6c" x="982.076172"/>
    <use xlink:href="#DejaVuSans-69" x="1009.859375"/>
    <use xlink:href="#DejaVuSans-74" x="1037.642578"/>
    <use xlink:href="#DejaVuSans-79" x="1076.851562"/>
   </g>
  </g>
  <g id="text_31">
   <!-- Scaled time -->
   <g style="fill: #262626" transform="translate(254.0016 282.7242) scale(0.1152 -0.1152)">
    <use xlink:href="#DejaVuSans-53"/>
    <use xlink:href="#DejaVuSans-63" x="63.476562"/>
    <use xlink:href="#DejaVuSans-61" x="118.457031"/>
    <use xlink:href="#DejaVuSans-6c" x="179.736328"/>
    <use xlink:href="#DejaVuSans-65" x="207.519531"/>
    <use xlink:href="#DejaVuSans-64" x="269.042969"/>
    <use xlink:href="#DejaVuSans-20" x="332.519531"/>
    <use xlink:href="#DejaVuSans-74" x="364.306641"/>
    <use xlink:href="#DejaVuSans-69" x="403.515625"/>
    <use xlink:href="#DejaVuSans-6d" x="431.298828"/>
    <use xlink:href="#DejaVuSans-65" x="528.710938"/>
   </g>
  </g>
 </g>
 <defs>
  <clipPath id="p3a9cd05c78">
   <rect x="53.876" y="23.568" width="247.28388" height="215.236"/>
  </clipPath>
  <clipPath id="p63ae778f2f">
   <rect x="317.338" y="23.568" width="247.28388" height="215.236"/>
  </clipPath>
 </defs>
</svg>
