<?xml version="1.0" encoding="utf-8" standalone="no"?>
<!DOCTYPE svg PUBLIC "-//W3C//DTD SVG 1.1//EN"
  "http://www.w3.org/Graphics/SVG/1.1/DTD/svg11.dtd">
<svg xmlns:xlink="http://www.w3.org/1999/xlink" width="576pt" height="288pt" viewBox="0 0 576 288" xmlns="http://www.w3.org/2000/svg" version="1.1">
 <metadata>
  <rdf:RDF xmlns:dc="http://purl.org/dc/elements/1.1/" xmlns:cc="http://creativecommons.org/ns#" xmlns:rdf="http://www.w3.org/1999/02/22-rdf-syntax-ns#">
   <cc:Work>
    <dc:type rdf:resource="http://purl.org/dc/dcmitype/StillImage"/>
    <dc:date>2025-01-13T14:11:28.864744</dc:date>
    <dc:format>image/svg+xml</dc:format>
    <dc:creator>
     <cc:Agent>
      <dc:title>Matplotlib v3.10.0, https://matplotlib.org/</dc:title>
     </cc:Agent>
    </dc:creator>
   </cc:Work>
  </rdf:RDF>
 </metadata>
 <defs>
  <style type="text/css">*{stroke-linejoin: round; stroke-linecap: butt}</style>
 </defs>
 <g id="figure_1">
  <g id="patch_1">
   <path d="M 0 288 
L 576 288 
L 576 0 
L 0 0 
L 0 288 
z
" style="fill: none"/>
  </g>
  <g id="axes_1">
   <g id="patch_2">
    <path d="M 65.036 238.804 
L 306.73988 238.804 
L 306.73988 23.568 
L 65.036 23.568 
L 65.036 238.804 
z
" style="fill: none"/>
   </g>
   <g id="matplotlib.axis_1">
    <g id="xtick_1">
     <g id="line2d_1">
      <defs>
       <path id="ma647b73ec6" d="M 0 0 
L 0 4.8 
" style="stroke: #262626"/>
      </defs>
      <g>
       <use xlink:href="#ma647b73ec6" x="76.02254" y="238.804" style="fill: #262626; stroke: #262626"/>
      </g>
     </g>
     <g id="text_1">
      <!-- 0 -->
      <g style="fill: #262626" transform="translate(73.22304 253.790625) scale(0.088 -0.088)">
       <defs>
        <path id="DejaVuSans-30" d="M 2034 4250 
Q 1547 4250 1301 3770 
Q 1056 3291 1056 2328 
Q 1056 1369 1301 889 
Q 1547 409 2034 409 
Q 2525 409 2770 889 
Q 3016 1369 3016 2328 
Q 3016 3291 2770 3770 
Q 2525 4250 2034 4250 
z
M 2034 4750 
Q 2819 4750 3233 4129 
Q 3647 3509 3647 2328 
Q 3647 1150 3233 529 
Q 2819 -91 2034 -91 
Q 1250 -91 836 529 
Q 422 1150 422 2328 
Q 422 3509 836 4129 
Q 1250 4750 2034 4750 
z
" transform="scale(0.015625)"/>
       </defs>
       <use xlink:href="#DejaVuSans-30"/>
      </g>
     </g>
    </g>
    <g id="xtick_2">
     <g id="line2d_2">
      <g>
       <use xlink:href="#ma647b73ec6" x="120.412601" y="238.804" style="fill: #262626; stroke: #262626"/>
      </g>
     </g>
     <g id="text_2">
      <!-- 20 -->
      <g style="fill: #262626" transform="translate(114.813601 253.790625) scale(0.088 -0.088)">
       <defs>
        <path id="DejaVuSans-32" d="M 1228 531 
L 3431 531 
L 3431 0 
L 469 0 
L 469 531 
Q 828 903 1448 1529 
Q 2069 2156 2228 2338 
Q 2531 2678 2651 2914 
Q 2772 3150 2772 3378 
Q 2772 3750 2511 3984 
Q 2250 4219 1831 4219 
Q 1534 4219 1204 4116 
Q 875 4013 500 3803 
L 500 4441 
Q 881 4594 1212 4672 
Q 1544 4750 1819 4750 
Q 2544 4750 2975 4387 
Q 3406 4025 3406 3419 
Q 3406 3131 3298 2873 
Q 3191 2616 2906 2266 
Q 2828 2175 2409 1742 
Q 1991 1309 1228 531 
z
" transform="scale(0.015625)"/>
       </defs>
       <use xlink:href="#DejaVuSans-32"/>
       <use xlink:href="#DejaVuSans-30" transform="translate(63.623047 0)"/>
      </g>
     </g>
    </g>
    <g id="xtick_3">
     <g id="line2d_3">
      <g>
       <use xlink:href="#ma647b73ec6" x="164.802661" y="238.804" style="fill: #262626; stroke: #262626"/>
      </g>
     </g>
     <g id="text_3">
      <!-- 40 -->
      <g style="fill: #262626" transform="translate(159.203661 253.790625) scale(0.088 -0.088)">
       <defs>
        <path id="DejaVuSans-34" d="M 2419 4116 
L 825 1625 
L 2419 1625 
L 2419 4116 
z
M 2253 4666 
L 3047 4666 
L 3047 1625 
L 3713 1625 
L 3713 1100 
L 3047 1100 
L 3047 0 
L 2419 0 
L 2419 1100 
L 313 1100 
L 313 1709 
L 2253 4666 
z
" transform="scale(0.015625)"/>
       </defs>
       <use xlink:href="#DejaVuSans-34"/>
       <use xlink:href="#DejaVuSans-30" transform="translate(63.623047 0)"/>
      </g>
     </g>
    </g>
    <g id="xtick_4">
     <g id="line2d_4">
      <g>
       <use xlink:href="#ma647b73ec6" x="209.192722" y="238.804" style="fill: #262626; stroke: #262626"/>
      </g>
     </g>
     <g id="text_4">
      <!-- 60 -->
      <g style="fill: #262626" transform="translate(203.593722 253.790625) scale(0.088 -0.088)">
       <defs>
        <path id="DejaVuSans-36" d="M 2113 2584 
Q 1688 2584 1439 2293 
Q 1191 2003 1191 1497 
Q 1191 994 1439 701 
Q 1688 409 2113 409 
Q 2538 409 2786 701 
Q 3034 994 3034 1497 
Q 3034 2003 2786 2293 
Q 2538 2584 2113 2584 
z
M 3366 4563 
L 3366 3988 
Q 3128 4100 2886 4159 
Q 2644 4219 2406 4219 
Q 1781 4219 1451 3797 
Q 1122 3375 1075 2522 
Q 1259 2794 1537 2939 
Q 1816 3084 2150 3084 
Q 2853 3084 3261 2657 
Q 3669 2231 3669 1497 
Q 3669 778 3244 343 
Q 2819 -91 2113 -91 
Q 1303 -91 875 529 
Q 447 1150 447 2328 
Q 447 3434 972 4092 
Q 1497 4750 2381 4750 
Q 2619 4750 2861 4703 
Q 3103 4656 3366 4563 
z
" transform="scale(0.015625)"/>
       </defs>
       <use xlink:href="#DejaVuSans-36"/>
       <use xlink:href="#DejaVuSans-30" transform="translate(63.623047 0)"/>
      </g>
     </g>
    </g>
    <g id="xtick_5">
     <g id="line2d_5">
      <g>
       <use xlink:href="#ma647b73ec6" x="253.582782" y="238.804" style="fill: #262626; stroke: #262626"/>
      </g>
     </g>
     <g id="text_5">
      <!-- 80 -->
      <g style="fill: #262626" transform="translate(247.983782 253.790625) scale(0.088 -0.088)">
       <defs>
        <path id="DejaVuSans-38" d="M 2034 2216 
Q 1584 2216 1326 1975 
Q 1069 1734 1069 1313 
Q 1069 891 1326 650 
Q 1584 409 2034 409 
Q 2484 409 2743 651 
Q 3003 894 3003 1313 
Q 3003 1734 2745 1975 
Q 2488 2216 2034 2216 
z
M 1403 2484 
Q 997 2584 770 2862 
Q 544 3141 544 3541 
Q 544 4100 942 4425 
Q 1341 4750 2034 4750 
Q 2731 4750 3128 4425 
Q 3525 4100 3525 3541 
Q 3525 3141 3298 2862 
Q 3072 2584 2669 2484 
Q 3125 2378 3379 2068 
Q 3634 1759 3634 1313 
Q 3634 634 3220 271 
Q 2806 -91 2034 -91 
Q 1263 -91 848 271 
Q 434 634 434 1313 
Q 434 1759 690 2068 
Q 947 2378 1403 2484 
z
M 1172 3481 
Q 1172 3119 1398 2916 
Q 1625 2713 2034 2713 
Q 2441 2713 2670 2916 
Q 2900 3119 2900 3481 
Q 2900 3844 2670 4047 
Q 2441 4250 2034 4250 
Q 1625 4250 1398 4047 
Q 1172 3844 1172 3481 
z
" transform="scale(0.015625)"/>
       </defs>
       <use xlink:href="#DejaVuSans-38"/>
       <use xlink:href="#DejaVuSans-30" transform="translate(63.623047 0)"/>
      </g>
     </g>
    </g>
    <g id="xtick_6">
     <g id="line2d_6">
      <g>
       <use xlink:href="#ma647b73ec6" x="297.972843" y="238.804" style="fill: #262626; stroke: #262626"/>
      </g>
     </g>
     <g id="text_6">
      <!-- 100 -->
      <g style="fill: #262626" transform="translate(289.574343 253.790625) scale(0.088 -0.088)">
       <defs>
        <path id="DejaVuSans-31" d="M 794 531 
L 1825 531 
L 1825 4091 
L 703 3866 
L 703 4441 
L 1819 4666 
L 2450 4666 
L 2450 531 
L 3481 531 
L 3481 0 
L 794 0 
L 794 531 
z
" transform="scale(0.015625)"/>
       </defs>
       <use xlink:href="#DejaVuSans-31"/>
       <use xlink:href="#DejaVuSans-30" transform="translate(63.623047 0)"/>
       <use xlink:href="#DejaVuSans-30" transform="translate(127.246094 0)"/>
      </g>
     </g>
    </g>
   </g>
   <g id="matplotlib.axis_2">
    <g id="ytick_1">
     <g id="line2d_7">
      <defs>
       <path id="m765b1ccfd4" d="M 0 0 
L -4.8 0 
" style="stroke: #262626"/>
      </defs>
      <g>
       <use xlink:href="#m765b1ccfd4" x="65.036" y="238.804" style="fill: #262626; stroke: #262626"/>
      </g>
     </g>
     <g id="text_7">
      <!-- 0.000 -->
      <g style="fill: #262626" transform="translate(31.54325 242.147312) scale(0.088 -0.088)">
       <defs>
        <path id="DejaVuSans-2e" d="M 684 794 
L 1344 794 
L 1344 0 
L 684 0 
L 684 794 
z
" transform="scale(0.015625)"/>
       </defs>
       <use xlink:href="#DejaVuSans-30"/>
       <use xlink:href="#DejaVuSans-2e" transform="translate(63.623047 0)"/>
       <use xlink:href="#DejaVuSans-30" transform="translate(95.410156 0)"/>
       <use xlink:href="#DejaVuSans-30" transform="translate(159.033203 0)"/>
       <use xlink:href="#DejaVuSans-30" transform="translate(222.65625 0)"/>
      </g>
     </g>
    </g>
    <g id="ytick_2">
     <g id="line2d_8">
      <g>
       <use xlink:href="#m765b1ccfd4" x="65.036" y="211.8995" style="fill: #262626; stroke: #262626"/>
      </g>
     </g>
     <g id="text_8">
      <!-- 0.025 -->
      <g style="fill: #262626" transform="translate(31.54325 215.242812) scale(0.088 -0.088)">
       <defs>
        <path id="DejaVuSans-35" d="M 691 4666 
L 3169 4666 
L 3169 4134 
L 1269 4134 
L 1269 2991 
Q 1406 3038 1543 3061 
Q 1681 3084 1819 3084 
Q 2600 3084 3056 2656 
Q 3513 2228 3513 1497 
Q 3513 744 3044 326 
Q 2575 -91 1722 -91 
Q 1428 -91 1123 -41 
Q 819 9 494 109 
L 494 744 
Q 775 591 1075 516 
Q 1375 441 1709 441 
Q 2250 441 2565 725 
Q 2881 1009 2881 1497 
Q 2881 1984 2565 2268 
Q 2250 2553 1709 2553 
Q 1456 2553 1204 2497 
Q 953 2441 691 2322 
L 691 4666 
z
" transform="scale(0.015625)"/>
       </defs>
       <use xlink:href="#DejaVuSans-30"/>
       <use xlink:href="#DejaVuSans-2e" transform="translate(63.623047 0)"/>
       <use xlink:href="#DejaVuSans-30" transform="translate(95.410156 0)"/>
       <use xlink:href="#DejaVuSans-32" transform="translate(159.033203 0)"/>
       <use xlink:href="#DejaVuSans-35" transform="translate(222.65625 0)"/>
      </g>
     </g>
    </g>
    <g id="ytick_3">
     <g id="line2d_9">
      <g>
       <use xlink:href="#m765b1ccfd4" x="65.036" y="184.995" style="fill: #262626; stroke: #262626"/>
      </g>
     </g>
     <g id="text_9">
      <!-- 0.050 -->
      <g style="fill: #262626" transform="translate(31.54325 188.338312) scale(0.088 -0.088)">
       <use xlink:href="#DejaVuSans-30"/>
       <use xlink:href="#DejaVuSans-2e" transform="translate(63.623047 0)"/>
       <use xlink:href="#DejaVuSans-30" transform="translate(95.410156 0)"/>
       <use xlink:href="#DejaVuSans-35" transform="translate(159.033203 0)"/>
       <use xlink:href="#DejaVuSans-30" transform="translate(222.65625 0)"/>
      </g>
     </g>
    </g>
    <g id="ytick_4">
     <g id="line2d_10">
      <g>
       <use xlink:href="#m765b1ccfd4" x="65.036" y="158.0905" style="fill: #262626; stroke: #262626"/>
      </g>
     </g>
     <g id="text_10">
      <!-- 0.075 -->
      <g style="fill: #262626" transform="translate(31.54325 161.433812) scale(0.088 -0.088)">
       <defs>
        <path id="DejaVuSans-37" d="M 525 4666 
L 3525 4666 
L 3525 4397 
L 1831 0 
L 1172 0 
L 2766 4134 
L 525 4134 
L 525 4666 
z
" transform="scale(0.015625)"/>
       </defs>
       <use xlink:href="#DejaVuSans-30"/>
       <use xlink:href="#DejaVuSans-2e" transform="translate(63.623047 0)"/>
       <use xlink:href="#DejaVuSans-30" transform="translate(95.410156 0)"/>
       <use xlink:href="#DejaVuSans-37" transform="translate(159.033203 0)"/>
       <use xlink:href="#DejaVuSans-35" transform="translate(222.65625 0)"/>
      </g>
     </g>
    </g>
    <g id="ytick_5">
     <g id="line2d_11">
      <g>
       <use xlink:href="#m765b1ccfd4" x="65.036" y="131.186" style="fill: #262626; stroke: #262626"/>
      </g>
     </g>
     <g id="text_11">
      <!-- 0.100 -->
      <g style="fill: #262626" transform="translate(31.54325 134.529312) scale(0.088 -0.088)">
       <use xlink:href="#DejaVuSans-30"/>
       <use xlink:href="#DejaVuSans-2e" transform="translate(63.623047 0)"/>
       <use xlink:href="#DejaVuSans-31" transform="translate(95.410156 0)"/>
       <use xlink:href="#DejaVuSans-30" transform="translate(159.033203 0)"/>
       <use xlink:href="#DejaVuSans-30" transform="translate(222.65625 0)"/>
      </g>
     </g>
    </g>
    <g id="ytick_6">
     <g id="line2d_12">
      <g>
       <use xlink:href="#m765b1ccfd4" x="65.036" y="104.2815" style="fill: #262626; stroke: #262626"/>
      </g>
     </g>
     <g id="text_12">
      <!-- 0.125 -->
      <g style="fill: #262626" transform="translate(31.54325 107.624812) scale(0.088 -0.088)">
       <use xlink:href="#DejaVuSans-30"/>
       <use xlink:href="#DejaVuSans-2e" transform="translate(63.623047 0)"/>
       <use xlink:href="#DejaVuSans-31" transform="translate(95.410156 0)"/>
       <use xlink:href="#DejaVuSans-32" transform="translate(159.033203 0)"/>
       <use xlink:href="#DejaVuSans-35" transform="translate(222.65625 0)"/>
      </g>
     </g>
    </g>
    <g id="ytick_7">
     <g id="line2d_13">
      <g>
       <use xlink:href="#m765b1ccfd4" x="65.036" y="77.377" style="fill: #262626; stroke: #262626"/>
      </g>
     </g>
     <g id="text_13">
      <!-- 0.150 -->
      <g style="fill: #262626" transform="translate(31.54325 80.720312) scale(0.088 -0.088)">
       <use xlink:href="#DejaVuSans-30"/>
       <use xlink:href="#DejaVuSans-2e" transform="translate(63.623047 0)"/>
       <use xlink:href="#DejaVuSans-31" transform="translate(95.410156 0)"/>
       <use xlink:href="#DejaVuSans-35" transform="translate(159.033203 0)"/>
       <use xlink:href="#DejaVuSans-30" transform="translate(222.65625 0)"/>
      </g>
     </g>
    </g>
    <g id="ytick_8">
     <g id="line2d_14">
      <g>
       <use xlink:href="#m765b1ccfd4" x="65.036" y="50.4725" style="fill: #262626; stroke: #262626"/>
      </g>
     </g>
     <g id="text_14">
      <!-- 0.175 -->
      <g style="fill: #262626" transform="translate(31.54325 53.815812) scale(0.088 -0.088)">
       <use xlink:href="#DejaVuSans-30"/>
       <use xlink:href="#DejaVuSans-2e" transform="translate(63.623047 0)"/>
       <use xlink:href="#DejaVuSans-31" transform="translate(95.410156 0)"/>
       <use xlink:href="#DejaVuSans-37" transform="translate(159.033203 0)"/>
       <use xlink:href="#DejaVuSans-35" transform="translate(222.65625 0)"/>
      </g>
     </g>
    </g>
    <g id="ytick_9">
     <g id="line2d_15">
      <g>
       <use xlink:href="#m765b1ccfd4" x="65.036" y="23.568" style="fill: #262626; stroke: #262626"/>
      </g>
     </g>
     <g id="text_15">
      <!-- 0.200 -->
      <g style="fill: #262626" transform="translate(31.54325 26.911313) scale(0.088 -0.088)">
       <use xlink:href="#DejaVuSans-30"/>
       <use xlink:href="#DejaVuSans-2e" transform="translate(63.623047 0)"/>
       <use xlink:href="#DejaVuSans-32" transform="translate(95.410156 0)"/>
       <use xlink:href="#DejaVuSans-30" transform="translate(159.033203 0)"/>
       <use xlink:href="#DejaVuSans-30" transform="translate(222.65625 0)"/>
      </g>
     </g>
    </g>
   </g>
   <g id="FillBetweenPolyCollection_1"/>
   <g id="FillBetweenPolyCollection_2"/>
   <g id="FillBetweenPolyCollection_3"/>
   <g id="FillBetweenPolyCollection_4"/>
   <g id="FillBetweenPolyCollection_5"/>
   <g id="FillBetweenPolyCollection_6"/>
   <g id="FillBetweenPolyCollection_7"/>
   <g id="FillBetweenPolyCollection_8"/>
   <g id="FillBetweenPolyCollection_9"/>
   <g id="FillBetweenPolyCollection_10"/>
   <g id="line2d_16">
    <path d="M 76.02254 223.783524 
L 78.242043 168.315142 
L 80.461546 145.448832 
L 82.681049 141.049754 
L 84.900552 144.309387 
L 87.120055 148.335845 
L 89.339558 154.489988 
L 91.559061 162.204978 
L 93.778564 170.215014 
L 95.998067 178.306907 
L 98.21757 185.231856 
L 100.437073 191.959337 
L 102.656576 198.853637 
L 104.876079 204.815781 
L 107.095582 210.019204 
L 109.315085 215.029838 
L 111.534588 219.278676 
L 113.754091 222.815066 
L 115.973595 225.956137 
L 118.193098 228.572566 
L 120.412601 230.757857 
L 122.632104 232.525155 
L 124.851607 233.860422 
L 127.07111 234.946763 
L 129.290613 235.825364 
L 131.510116 236.501 
L 133.729619 236.978887 
L 135.949122 237.314305 
L 138.168625 237.591198 
L 140.388128 237.815751 
L 142.607631 237.980037 
L 144.827134 238.116327 
L 147.046637 238.218658 
L 149.26614 238.298066 
L 151.485643 238.376014 
L 153.705146 238.4575 
L 155.924649 238.510463 
L 158.144152 238.560907 
L 160.363655 238.608305 
L 162.583158 238.638284 
L 164.802661 238.66119 
L 167.022164 238.684365 
L 169.241667 238.707136 
L 171.46117 238.718143 
L 173.680673 238.706714 
L 175.900176 238.726867 
L 178.119679 238.754543 
L 180.339182 238.767835 
L 182.558685 238.776864 
L 184.778188 238.782963 
L 186.997691 238.786451 
L 189.217194 238.788154 
L 191.436697 238.78917 
L 193.6562 238.790178 
L 195.875704 238.791725 
L 198.095207 238.794614 
L 200.31471 238.798277 
L 202.534213 238.799929 
L 204.753716 238.798584 
L 206.973219 238.790421 
L 209.192722 238.784829 
L 211.412225 238.799563 
L 213.631728 238.802874 
L 215.851231 238.803224 
L 218.070734 238.803509 
L 220.290237 238.803708 
L 222.50974 238.803812 
L 224.729243 238.803868 
L 226.948746 238.803899 
L 229.168249 238.803919 
L 231.387752 238.803943 
L 233.607255 238.803963 
L 235.826758 238.803976 
L 238.046261 238.803984 
L 240.265764 238.803989 
L 242.485267 238.803993 
L 244.70477 238.803995 
L 246.924273 238.803997 
L 249.143776 238.803998 
L 251.363279 238.803999 
L 253.582782 238.803999 
L 255.802285 238.804 
L 258.021788 238.804 
L 260.241291 238.804 
L 262.460794 238.804 
L 264.680297 238.804 
L 266.8998 238.804 
L 269.119303 238.804 
L 271.338806 238.804 
L 273.55831 238.804 
L 275.777813 238.804 
L 277.997316 238.804 
L 280.216819 238.804 
L 282.436322 238.804 
L 284.655825 238.804 
L 286.875328 238.804 
L 289.094831 238.804 
L 291.314334 238.804 
L 293.533837 238.804 
L 295.75334 238.804 
" clip-path="url(#pfbd06e3839)" style="fill: none; stroke-dasharray: 4.44,1.92; stroke-dashoffset: 0; stroke: #66ccee; stroke-opacity: 0.5; stroke-width: 1.2"/>
   </g>
   <g id="line2d_17">
    <path d="M 76.02254 221.929507 
L 78.242043 165.662756 
L 80.461546 143.352867 
L 82.681049 139.510194 
L 84.900552 143.297967 
L 87.120055 148.09368 
L 89.339558 154.948947 
L 91.559061 163.013282 
L 93.778564 171.358188 
L 95.998067 179.427674 
L 98.21757 186.521674 
L 100.437073 193.37731 
L 102.656576 200.086426 
L 104.876079 206.004851 
L 107.095582 211.128244 
L 109.315085 215.924545 
L 111.534588 220.054329 
L 113.754091 223.485346 
L 115.973595 226.439916 
L 118.193098 228.888418 
L 120.412601 230.928544 
L 122.632104 232.576308 
L 124.851607 233.858843 
L 127.07111 234.906106 
L 129.290613 235.727965 
L 131.510116 236.371035 
L 133.729619 236.84877 
L 135.949122 237.19297 
L 138.168625 237.457415 
L 140.388128 237.662219 
L 142.607631 237.834957 
L 144.827134 237.975239 
L 147.046637 238.080106 
L 149.26614 238.171162 
L 151.485643 238.256458 
L 153.705146 238.332309 
L 155.924649 238.383169 
L 158.144152 238.425803 
L 160.363655 238.461502 
L 162.583158 238.493632 
L 164.802661 238.524723 
L 167.022164 238.556078 
L 169.241667 238.584181 
L 171.46117 238.609429 
L 173.680673 238.635104 
L 175.900176 238.660406 
L 178.119679 238.681089 
L 180.339182 238.695788 
L 182.558685 238.706029 
L 184.778188 238.716377 
L 186.997691 238.725972 
L 189.217194 238.733129 
L 191.436697 238.740151 
L 193.6562 238.745776 
L 195.875704 238.751809 
L 198.095207 238.759779 
L 200.31471 238.767069 
L 202.534213 238.772022 
L 204.753716 238.775247 
L 206.973219 238.775945 
L 209.192722 238.774727 
L 211.412225 238.783809 
L 213.631728 238.786813 
L 215.851231 238.786635 
L 218.070734 238.787392 
L 220.290237 238.7898 
L 222.50974 238.791789 
L 224.729243 238.79292 
L 226.948746 238.793833 
L 229.168249 238.794599 
L 231.387752 238.795358 
L 233.607255 238.796128 
L 235.826758 238.796659 
L 238.046261 238.797151 
L 240.265764 238.797565 
L 242.485267 238.797945 
L 244.70477 238.798307 
L 246.924273 238.798599 
L 249.143776 238.798945 
L 251.363279 238.799325 
L 253.582782 238.799669 
L 255.802285 238.799932 
L 258.021788 238.800178 
L 260.241291 238.800419 
L 262.460794 238.800669 
L 264.680297 238.80096 
L 266.8998 238.801177 
L 269.119303 238.801278 
L 271.338806 238.801368 
L 273.55831 238.801533 
L 275.777813 238.801505 
L 277.997316 238.801314 
L 280.216819 238.801014 
L 282.436322 238.800598 
L 284.655825 238.80002 
L 286.875328 238.799312 
L 289.094831 238.798308 
L 291.314334 238.796724 
L 293.533837 238.794838 
L 295.75334 238.79354 
" clip-path="url(#pfbd06e3839)" style="fill: none; stroke: #66ccee; stroke-width: 1.2; stroke-linecap: round"/>
   </g>
   <g id="line2d_18">
    <path d="M 76.02254 238.797189 
L 78.242043 238.267711 
L 80.461546 236.694171 
L 82.681049 234.338345 
L 84.900552 230.99253 
L 87.120055 227.446185 
L 89.339558 223.535097 
L 91.559061 219.001971 
L 93.778564 214.841523 
L 95.998067 211.630879 
L 98.21757 207.945473 
L 100.437073 204.11379 
L 102.656576 200.731752 
L 104.876079 197.830198 
L 107.095582 196.968538 
L 109.315085 194.717266 
L 111.534588 193.052947 
L 113.754091 192.387724 
L 115.973595 192.491736 
L 118.193098 192.732429 
L 120.412601 193.016132 
L 122.632104 193.980264 
L 124.851607 195.743711 
L 127.07111 197.660414 
L 129.290613 199.713313 
L 131.510116 202.362346 
L 133.729619 205.435361 
L 135.949122 208.285444 
L 138.168625 210.971271 
L 140.388128 213.637475 
L 142.607631 216.253831 
L 144.827134 219.028778 
L 147.046637 221.471243 
L 149.26614 223.673971 
L 151.485643 225.589228 
L 153.705146 227.516459 
L 155.924649 229.091217 
L 158.144152 230.262641 
L 160.363655 231.273727 
L 162.583158 232.179652 
L 164.802661 233.039835 
L 167.022164 233.813722 
L 169.241667 234.343216 
L 171.46117 234.852202 
L 173.680673 235.25889 
L 175.900176 235.67889 
L 178.119679 236.080395 
L 180.339182 236.372191 
L 182.558685 236.589002 
L 184.778188 236.745846 
L 186.997691 236.968503 
L 189.217194 237.171773 
L 191.436697 237.34969 
L 193.6562 237.545489 
L 195.875704 237.717808 
L 198.095207 237.808636 
L 200.31471 237.943721 
L 202.534213 238.047453 
L 204.753716 238.139209 
L 206.973219 238.200999 
L 209.192722 238.279376 
L 211.412225 238.356212 
L 213.631728 238.429759 
L 215.851231 238.499457 
L 218.070734 238.548948 
L 220.290237 238.587432 
L 222.50974 238.616052 
L 224.729243 238.638144 
L 226.948746 238.660288 
L 229.168249 238.667521 
L 231.387752 238.632075 
L 233.607255 238.725571 
L 235.826758 238.745454 
L 238.046261 238.7595 
L 240.265764 238.766461 
L 242.485267 238.768782 
L 244.70477 238.776706 
L 246.924273 238.787035 
L 249.143776 238.792019 
L 251.363279 238.79411 
L 253.582782 238.795504 
L 255.802285 238.797978 
L 258.021788 238.800647 
L 260.241291 238.802229 
L 262.460794 238.802936 
L 264.680297 238.80332 
L 266.8998 238.803592 
L 269.119303 238.803767 
L 271.338806 238.803874 
L 273.55831 238.803937 
L 275.777813 238.80397 
L 277.997316 238.803987 
L 280.216819 238.803995 
L 282.436322 238.803998 
L 284.655825 238.803999 
L 286.875328 238.804 
L 289.094831 238.804 
L 291.314334 238.804 
L 293.533837 238.804 
L 295.75334 238.804 
" clip-path="url(#pfbd06e3839)" style="fill: none; stroke-dasharray: 4.44,1.92; stroke-dashoffset: 0; stroke: #228833; stroke-opacity: 0.5; stroke-width: 1.2"/>
   </g>
   <g id="line2d_19">
    <path d="M 76.02254 238.763099 
L 78.242043 237.92396 
L 80.461546 235.654326 
L 82.681049 232.478655 
L 84.900552 228.681933 
L 87.120055 224.951277 
L 89.339558 220.867592 
L 91.559061 216.473214 
L 93.778564 212.843971 
L 95.998067 210.052814 
L 98.21757 206.64716 
L 100.437073 203.18038 
L 102.656576 200.341283 
L 104.876079 198.350176 
L 107.095582 197.793768 
L 109.315085 195.962876 
L 111.534588 194.667252 
L 113.754091 194.429931 
L 115.973595 194.846968 
L 118.193098 195.328142 
L 120.412601 195.76421 
L 122.632104 196.664389 
L 124.851607 198.468577 
L 127.07111 200.373428 
L 129.290613 202.551118 
L 131.510116 205.09543 
L 133.729619 207.938606 
L 135.949122 210.53686 
L 138.168625 213.057926 
L 140.388128 215.474712 
L 142.607631 217.898701 
L 144.827134 220.378957 
L 147.046637 222.644784 
L 149.26614 224.646858 
L 151.485643 226.427154 
L 153.705146 228.086324 
L 155.924649 229.478357 
L 158.144152 230.592189 
L 160.363655 231.51476 
L 162.583158 232.283913 
L 164.802661 232.999507 
L 167.022164 233.618966 
L 169.241667 234.073524 
L 171.46117 234.491691 
L 173.680673 234.849784 
L 175.900176 235.211409 
L 178.119679 235.534882 
L 180.339182 235.764872 
L 182.558685 235.942356 
L 184.778188 236.097898 
L 186.997691 236.26186 
L 189.217194 236.431714 
L 191.436697 236.608202 
L 193.6562 236.778589 
L 195.875704 236.930413 
L 198.095207 237.065088 
L 200.31471 237.191008 
L 202.534213 237.285952 
L 204.753716 237.383623 
L 206.973219 237.469604 
L 209.192722 237.54924 
L 211.412225 237.625196 
L 213.631728 237.695245 
L 215.851231 237.774058 
L 218.070734 237.868137 
L 220.290237 237.951161 
L 222.50974 238.008511 
L 224.729243 238.047485 
L 226.948746 238.094252 
L 229.168249 238.126822 
L 231.387752 238.139064 
L 233.607255 238.207111 
L 235.826758 238.256287 
L 238.046261 238.309845 
L 240.265764 238.350404 
L 242.485267 238.378329 
L 244.70477 238.406051 
L 246.924273 238.427131 
L 249.143776 238.447215 
L 251.363279 238.463337 
L 253.582782 238.478138 
L 255.802285 238.496033 
L 258.021788 238.521622 
L 260.241291 238.551299 
L 262.460794 238.585477 
L 264.680297 238.615602 
L 266.8998 238.65056 
L 269.119303 238.686021 
L 271.338806 238.717803 
L 273.55831 238.749608 
L 275.777813 238.772119 
L 277.997316 238.78667 
L 280.216819 238.792734 
L 282.436322 238.795336 
L 284.655825 238.796697 
L 286.875328 238.797532 
L 289.094831 238.798196 
L 291.314334 238.798694 
L 293.533837 238.798805 
L 295.75334 238.798582 
" clip-path="url(#pfbd06e3839)" style="fill: none; stroke: #228833; stroke-width: 1.2; stroke-linecap: round"/>
   </g>
   <g id="line2d_20">
    <path d="M 76.02254 238.804 
L 78.242043 238.802882 
L 80.461546 238.787023 
L 82.681049 238.740504 
L 84.900552 238.630971 
L 87.120055 238.40207 
L 89.339558 238.012025 
L 91.559061 237.302542 
L 93.778564 236.859407 
L 95.998067 236.112792 
L 98.21757 234.849545 
L 100.437073 233.885942 
L 102.656576 232.863867 
L 104.876079 231.840991 
L 107.095582 230.799593 
L 109.315085 229.246924 
L 111.534588 227.716071 
L 113.754091 225.613569 
L 115.973595 224.108047 
L 118.193098 222.943842 
L 120.412601 222.243494 
L 122.632104 220.758627 
L 124.851607 219.371664 
L 127.07111 217.790396 
L 129.290613 216.128591 
L 131.510116 214.822516 
L 133.729619 213.328074 
L 135.949122 212.283532 
L 138.168625 211.535774 
L 140.388128 210.165828 
L 142.607631 208.979229 
L 144.827134 208.45962 
L 147.046637 208.362196 
L 149.26614 208.459053 
L 151.485643 208.658561 
L 153.705146 208.962794 
L 155.924649 209.245437 
L 158.144152 209.494238 
L 160.363655 209.820688 
L 162.583158 210.248495 
L 164.802661 211.053036 
L 167.022164 212.018523 
L 169.241667 213.05368 
L 171.46117 214.108153 
L 173.680673 215.191346 
L 175.900176 216.333203 
L 178.119679 217.4021 
L 180.339182 218.460654 
L 182.558685 219.447129 
L 184.778188 220.372762 
L 186.997691 221.33287 
L 189.217194 222.443578 
L 191.436697 223.49298 
L 193.6562 224.516249 
L 195.875704 225.495526 
L 198.095207 226.432607 
L 200.31471 227.252078 
L 202.534213 227.995208 
L 204.753716 228.777883 
L 206.973219 229.544568 
L 209.192722 230.209642 
L 211.412225 230.904103 
L 213.631728 231.54704 
L 215.851231 232.123677 
L 218.070734 232.613927 
L 220.290237 233.058568 
L 222.50974 233.476418 
L 224.729243 233.942121 
L 226.948746 234.403762 
L 229.168249 234.866743 
L 231.387752 235.285853 
L 233.607255 235.670971 
L 235.826758 235.958181 
L 238.046261 236.305394 
L 240.265764 236.634413 
L 242.485267 236.903905 
L 244.70477 237.163497 
L 246.924273 237.396758 
L 249.143776 237.5976 
L 251.363279 237.771502 
L 253.582782 237.944849 
L 255.802285 238.11365 
L 258.021788 238.243332 
L 260.241291 238.347172 
L 262.460794 238.437926 
L 264.680297 238.520056 
L 266.8998 238.59487 
L 269.119303 238.655514 
L 271.338806 238.698324 
L 273.55831 238.733189 
L 275.777813 238.758238 
L 277.997316 238.775211 
L 280.216819 238.786855 
L 282.436322 238.794527 
L 284.655825 238.799432 
L 286.875328 238.802121 
L 289.094831 238.803419 
L 291.314334 238.803885 
L 293.533837 238.803992 
L 295.75334 238.804 
" clip-path="url(#pfbd06e3839)" style="fill: none; stroke-dasharray: 4.44,1.92; stroke-dashoffset: 0; stroke: #ccbb44; stroke-opacity: 0.5; stroke-width: 1.2"/>
   </g>
   <g id="line2d_21">
    <path d="M 76.02254 238.798964 
L 78.242043 238.782442 
L 80.461546 238.706867 
L 82.681049 238.612941 
L 84.900552 238.396134 
L 87.120055 238.016546 
L 89.339558 237.429889 
L 91.559061 236.544973 
L 93.778564 235.921064 
L 95.998067 234.952856 
L 98.21757 233.62499 
L 100.437073 232.480334 
L 102.656576 231.432088 
L 104.876079 230.500796 
L 107.095582 229.393509 
L 109.315085 227.955486 
L 111.534588 226.516716 
L 113.754091 224.744655 
L 115.973595 223.572235 
L 118.193098 222.725473 
L 120.412601 222.110388 
L 122.632104 221.047166 
L 124.851607 219.949401 
L 127.07111 218.844534 
L 129.290613 217.649868 
L 131.510116 216.561786 
L 133.729619 215.596201 
L 135.949122 215.065073 
L 138.168625 214.608467 
L 140.388128 213.747464 
L 142.607631 213.040549 
L 144.827134 212.743097 
L 147.046637 212.741521 
L 149.26614 212.993452 
L 151.485643 213.258302 
L 153.705146 213.600453 
L 155.924649 213.940728 
L 158.144152 214.22393 
L 160.363655 214.543782 
L 162.583158 215.036723 
L 164.802661 215.722186 
L 167.022164 216.492088 
L 169.241667 217.255604 
L 171.46117 218.032524 
L 173.680673 218.825339 
L 175.900176 219.600681 
L 178.119679 220.327223 
L 180.339182 221.059975 
L 182.558685 221.719492 
L 184.778188 222.379567 
L 186.997691 223.097187 
L 189.217194 223.872381 
L 191.436697 224.58835 
L 193.6562 225.262564 
L 195.875704 225.928977 
L 198.095207 226.589105 
L 200.31471 227.159941 
L 202.534213 227.674864 
L 204.753716 228.193729 
L 206.973219 228.672279 
L 209.192722 229.134251 
L 211.412225 229.582508 
L 213.631728 229.986023 
L 215.851231 230.375952 
L 218.070734 230.700929 
L 220.290237 230.982858 
L 222.50974 231.249341 
L 224.729243 231.539164 
L 226.948746 231.868847 
L 229.168249 232.197918 
L 231.387752 232.492153 
L 233.607255 232.785625 
L 235.826758 233.013176 
L 238.046261 233.242926 
L 240.265764 233.458197 
L 242.485267 233.645684 
L 244.70477 233.847506 
L 246.924273 234.056703 
L 249.143776 234.244331 
L 251.363279 234.420343 
L 253.582782 234.604043 
L 255.802285 234.781481 
L 258.021788 234.930428 
L 260.241291 235.082894 
L 262.460794 235.247899 
L 264.680297 235.457908 
L 266.8998 235.732225 
L 269.119303 236.057957 
L 271.338806 236.41768 
L 273.55831 236.833794 
L 275.777813 237.292176 
L 277.997316 237.723697 
L 280.216819 238.053298 
L 282.436322 238.286092 
L 284.655825 238.45829 
L 286.875328 238.586897 
L 289.094831 238.676307 
L 291.314334 238.736404 
L 293.533837 238.773418 
L 295.75334 238.797067 
" clip-path="url(#pfbd06e3839)" style="fill: none; stroke: #ccbb44; stroke-width: 1.2; stroke-linecap: round"/>
   </g>
   <g id="line2d_22">
    <path d="M 76.02254 238.804 
L 78.242043 238.804 
L 80.461546 238.803995 
L 82.681049 238.803911 
L 84.900552 238.8035 
L 87.120055 238.802964 
L 89.339558 238.799763 
L 91.559061 238.795898 
L 93.778564 238.784903 
L 95.998067 238.749936 
L 98.21757 238.735296 
L 100.437073 238.631051 
L 102.656576 238.624178 
L 104.876079 238.62069 
L 107.095582 238.478504 
L 109.315085 238.416348 
L 111.534588 238.250236 
L 113.754091 238.109543 
L 115.973595 237.961366 
L 118.193098 237.79933 
L 120.412601 237.603797 
L 122.632104 237.265186 
L 124.851607 237.122361 
L 127.07111 236.727083 
L 129.290613 236.228633 
L 131.510116 235.921137 
L 133.729619 235.584482 
L 135.949122 235.261276 
L 138.168625 234.710426 
L 140.388128 234.403063 
L 142.607631 233.980379 
L 144.827134 233.372527 
L 147.046637 232.760846 
L 149.26614 232.458566 
L 151.485643 231.787915 
L 153.705146 230.98808 
L 155.924649 230.326981 
L 158.144152 229.663445 
L 160.363655 228.991182 
L 162.583158 228.447959 
L 164.802661 227.878072 
L 167.022164 227.021228 
L 169.241667 226.182741 
L 171.46117 225.780141 
L 173.680673 225.247684 
L 175.900176 224.532139 
L 178.119679 223.588216 
L 180.339182 223.011939 
L 182.558685 222.438754 
L 184.778188 221.844661 
L 186.997691 221.131752 
L 189.217194 220.600488 
L 191.436697 220.069836 
L 193.6562 219.542784 
L 195.875704 219.036495 
L 198.095207 218.644276 
L 200.31471 218.183889 
L 202.534213 217.704189 
L 204.753716 217.286733 
L 206.973219 217.020287 
L 209.192722 216.800926 
L 211.412225 216.677893 
L 213.631728 216.260967 
L 215.851231 215.952961 
L 218.070734 215.756069 
L 220.290237 215.586583 
L 222.50974 215.562897 
L 224.729243 215.588253 
L 226.948746 215.72282 
L 229.168249 216.031641 
L 231.387752 216.320604 
L 233.607255 216.689947 
L 235.826758 217.083897 
L 238.046261 217.322642 
L 240.265764 217.467322 
L 242.485267 217.760308 
L 244.70477 218.206523 
L 246.924273 218.690832 
L 249.143776 219.339866 
L 251.363279 219.781549 
L 253.582782 220.246122 
L 255.802285 220.877426 
L 258.021788 221.58627 
L 260.241291 222.394469 
L 262.460794 223.238337 
L 264.680297 224.053716 
L 266.8998 224.863044 
L 269.119303 225.832959 
L 271.338806 226.878473 
L 273.55831 228.036672 
L 275.777813 229.220036 
L 277.997316 230.4986 
L 280.216819 231.774584 
L 282.436322 233.031094 
L 284.655825 234.256866 
L 286.875328 235.465139 
L 289.094831 236.638152 
L 291.314334 237.64205 
L 293.533837 238.372613 
L 295.75334 238.778047 
" clip-path="url(#pfbd06e3839)" style="fill: none; stroke-dasharray: 4.44,1.92; stroke-dashoffset: 0; stroke: #ee6677; stroke-opacity: 0.5; stroke-width: 1.2"/>
   </g>
   <g id="line2d_23">
    <path d="M 76.02254 238.796891 
L 78.242043 238.784455 
L 80.461546 238.784402 
L 82.681049 238.780876 
L 84.900552 238.772643 
L 87.120055 238.766456 
L 89.339558 238.742743 
L 91.559061 238.719899 
L 93.778564 238.672739 
L 95.998067 238.574685 
L 98.21757 238.543798 
L 100.437073 238.343283 
L 102.656576 238.228663 
L 104.876079 238.187648 
L 107.095582 237.957001 
L 109.315085 237.837581 
L 111.534588 237.537413 
L 113.754091 237.289433 
L 115.973595 237.033589 
L 118.193098 236.81573 
L 120.412601 236.544112 
L 122.632104 236.105959 
L 124.851607 235.971752 
L 127.07111 235.497351 
L 129.290613 234.979268 
L 131.510116 234.637759 
L 133.729619 234.321409 
L 135.949122 234.029256 
L 138.168625 233.465484 
L 140.388128 233.124791 
L 142.607631 232.727172 
L 144.827134 232.160394 
L 147.046637 231.670565 
L 149.26614 231.445584 
L 151.485643 230.973692 
L 153.705146 230.32304 
L 155.924649 229.85963 
L 158.144152 229.319523 
L 160.363655 228.84773 
L 162.583158 228.430992 
L 164.802661 228.0777 
L 167.022164 227.406245 
L 169.241667 226.793665 
L 171.46117 226.401314 
L 173.680673 226.070523 
L 175.900176 225.626722 
L 178.119679 224.908476 
L 180.339182 224.504353 
L 182.558685 224.125596 
L 184.778188 223.652709 
L 186.997691 223.226679 
L 189.217194 222.956896 
L 191.436697 222.614143 
L 193.6562 222.196897 
L 195.875704 221.845772 
L 198.095207 221.594657 
L 200.31471 221.230408 
L 202.534213 220.779676 
L 204.753716 220.454856 
L 206.973219 220.195242 
L 209.192722 220.046786 
L 211.412225 219.878952 
L 213.631728 219.53656 
L 215.851231 219.212059 
L 218.070734 218.931615 
L 220.290237 218.651759 
L 222.50974 218.449343 
L 224.729243 218.302929 
L 226.948746 218.18782 
L 229.168249 218.17635 
L 231.387752 218.224341 
L 233.607255 218.361402 
L 235.826758 218.46856 
L 238.046261 218.391283 
L 240.265764 218.171746 
L 242.485267 218.024506 
L 244.70477 217.937834 
L 246.924273 217.957669 
L 249.143776 218.102367 
L 251.363279 218.094974 
L 253.582782 218.01276 
L 255.802285 217.965599 
L 258.021788 217.977309 
L 260.241291 218.000748 
L 262.460794 218.101807 
L 264.680297 218.488688 
L 266.8998 219.237753 
L 269.119303 220.40336 
L 271.338806 222.056253 
L 273.55831 224.358841 
L 275.777813 227.00148 
L 277.997316 229.563561 
L 280.216819 231.725556 
L 282.436322 233.496416 
L 284.655825 234.927634 
L 286.875328 236.039874 
L 289.094831 236.894798 
L 291.314334 237.648812 
L 293.533837 238.261151 
L 295.75334 238.680657 
" clip-path="url(#pfbd06e3839)" style="fill: none; stroke: #ee6677; stroke-width: 1.2; stroke-linecap: round"/>
   </g>
   <g id="line2d_24">
    <path d="M 76.02254 238.804 
L 78.242043 238.804 
L 80.461546 238.804 
L 82.681049 238.804 
L 84.900552 238.804 
L 87.120055 238.804 
L 89.339558 238.804 
L 91.559061 238.804 
L 93.778564 238.804 
L 95.998067 238.804 
L 98.21757 238.804 
L 100.437073 238.804 
L 102.656576 238.804 
L 104.876079 238.804 
L 107.095582 238.804 
L 109.315085 238.804 
L 111.534588 238.804 
L 113.754091 238.804 
L 115.973595 238.804 
L 118.193098 238.804 
L 120.412601 238.804 
L 122.632104 238.804 
L 124.851607 238.804 
L 127.07111 238.804 
L 129.290613 238.804 
L 131.510116 238.804 
L 133.729619 238.804 
L 135.949122 238.804 
L 138.168625 238.804 
L 140.388128 238.804 
L 142.607631 238.804 
L 144.827134 238.804 
L 147.046637 238.804 
L 149.26614 238.804 
L 151.485643 238.804 
L 153.705146 238.803999 
L 155.924649 238.803999 
L 158.144152 238.803999 
L 160.363655 238.803998 
L 162.583158 238.803998 
L 164.802661 238.803996 
L 167.022164 238.803995 
L 169.241667 238.803992 
L 171.46117 238.803989 
L 173.680673 238.803985 
L 175.900176 238.803978 
L 178.119679 238.80397 
L 180.339182 238.803959 
L 182.558685 238.803943 
L 184.778188 238.803921 
L 186.997691 238.803892 
L 189.217194 238.803856 
L 191.436697 238.803805 
L 193.6562 238.803737 
L 195.875704 238.80364 
L 198.095207 238.803504 
L 200.31471 238.803312 
L 202.534213 238.80305 
L 204.753716 238.802689 
L 206.973219 238.802187 
L 209.192722 238.801476 
L 211.412225 238.800469 
L 213.631728 238.799052 
L 215.851231 238.797082 
L 218.070734 238.794355 
L 220.290237 238.790586 
L 222.50974 238.785376 
L 224.729243 238.778248 
L 226.948746 238.768415 
L 229.168249 238.754879 
L 231.387752 238.736452 
L 233.607255 238.711268 
L 235.826758 238.6767 
L 238.046261 238.629155 
L 240.265764 238.564002 
L 242.485267 238.476301 
L 244.70477 238.357948 
L 246.924273 238.195097 
L 249.143776 237.968838 
L 251.363279 237.656657 
L 253.582782 237.228935 
L 255.802285 236.649526 
L 258.021788 235.868079 
L 260.241291 234.820806 
L 262.460794 233.406211 
L 264.680297 231.494281 
L 266.8998 228.939819 
L 269.119303 225.601074 
L 271.338806 221.237311 
L 273.55831 215.539544 
L 275.777813 208.193052 
L 277.997316 198.686186 
L 280.216819 186.335929 
L 282.436322 170.71906 
L 284.655825 151.719431 
L 286.875328 129.186949 
L 289.094831 103.606499 
L 291.314334 78.982728 
L 293.533837 66.569741 
L 295.75334 109.358595 
" clip-path="url(#pfbd06e3839)" style="fill: none; stroke-dasharray: 4.44,1.92; stroke-dashoffset: 0; stroke: #aa3377; stroke-opacity: 0.5; stroke-width: 1.2"/>
   </g>
   <g id="line2d_25">
    <path d="M 76.02254 238.800342 
L 78.242043 238.797142 
L 80.461546 238.797575 
L 82.681049 238.797342 
L 84.900552 238.796823 
L 87.120055 238.796158 
L 89.339558 238.794572 
L 91.559061 238.792957 
L 93.778564 238.79032 
L 95.998067 238.785917 
L 98.21757 238.781108 
L 100.437073 238.771766 
L 102.656576 238.762707 
L 104.876079 238.756579 
L 107.095582 238.740176 
L 109.315085 238.724718 
L 111.534588 238.700169 
L 113.754091 238.673213 
L 115.973595 238.64615 
L 118.193098 238.624456 
L 120.412601 238.59006 
L 122.632104 238.560598 
L 124.851607 238.520298 
L 127.07111 238.478775 
L 129.290613 238.438615 
L 131.510116 238.396023 
L 133.729619 238.356075 
L 135.949122 238.294021 
L 138.168625 238.221718 
L 140.388128 238.174201 
L 142.607631 238.108898 
L 144.827134 238.034981 
L 147.046637 237.990536 
L 149.26614 237.961138 
L 151.485643 237.890065 
L 153.705146 237.788732 
L 155.924649 237.710175 
L 158.144152 237.619206 
L 160.363655 237.544888 
L 162.583158 237.484907 
L 164.802661 237.411107 
L 167.022164 237.292302 
L 169.241667 237.215197 
L 171.46117 237.138261 
L 173.680673 237.080577 
L 175.900176 236.994787 
L 178.119679 236.886042 
L 180.339182 236.791533 
L 182.558685 236.751695 
L 184.778188 236.650573 
L 186.997691 236.560826 
L 189.217194 236.483214 
L 191.436697 236.400645 
L 193.6562 236.318524 
L 195.875704 236.208418 
L 198.095207 236.120465 
L 200.31471 236.012363 
L 202.534213 235.937368 
L 204.753716 235.842809 
L 206.973219 235.817394 
L 209.192722 235.799723 
L 211.412225 235.734164 
L 213.631728 235.614133 
L 215.851231 235.50201 
L 218.070734 235.453693 
L 220.290237 235.356135 
L 222.50974 235.274132 
L 224.729243 235.132654 
L 226.948746 235.044357 
L 229.168249 235.033629 
L 231.387752 234.929157 
L 233.607255 234.914404 
L 235.826758 234.887298 
L 238.046261 234.845539 
L 240.265764 234.768898 
L 242.485267 234.670549 
L 244.70477 234.584007 
L 246.924273 234.447738 
L 249.143776 234.41744 
L 251.363279 234.284297 
L 253.582782 234.211237 
L 255.802285 234.150211 
L 258.021788 234.055643 
L 260.241291 233.969185 
L 262.460794 233.729942 
L 264.680297 233.203762 
L 266.8998 232.240948 
L 269.119303 230.656732 
L 271.338806 227.915435 
L 273.55831 223.183382 
L 275.777813 215.770225 
L 277.997316 205.562541 
L 280.216819 193.008655 
L 282.436322 177.487278 
L 284.655825 159.243565 
L 286.875328 138.79693 
L 289.094831 117.468127 
L 291.314334 97.161978 
L 293.533837 87.722015 
L 295.75334 124.780502 
" clip-path="url(#pfbd06e3839)" style="fill: none; stroke: #aa3377; stroke-width: 1.2; stroke-linecap: round"/>
   </g>
   <g id="patch_3">
    <path d="M 65.036 238.804 
L 65.036 23.568 
" style="fill: none; stroke: #262626; stroke-linejoin: miter; stroke-linecap: square"/>
   </g>
   <g id="patch_4">
    <path d="M 306.73988 238.804 
L 306.73988 23.568 
" style="fill: none; stroke: #262626; stroke-linejoin: miter; stroke-linecap: square"/>
   </g>
   <g id="patch_5">
    <path d="M 65.036 238.804 
L 306.73988 238.804 
" style="fill: none; stroke: #262626; stroke-linejoin: miter; stroke-linecap: square"/>
   </g>
   <g id="patch_6">
    <path d="M 65.036 23.568 
L 306.73988 23.568 
" style="fill: none; stroke: #262626; stroke-linejoin: miter; stroke-linecap: square"/>
   </g>
   <g id="text_16">
    <!-- Accuracy -->
    <g style="fill: #262626" transform="translate(163.97294 17.568) scale(0.096 -0.096)">
     <defs>
      <path id="DejaVuSans-41" d="M 2188 4044 
L 1331 1722 
L 3047 1722 
L 2188 4044 
z
M 1831 4666 
L 2547 4666 
L 4325 0 
L 3669 0 
L 3244 1197 
L 1141 1197 
L 716 0 
L 50 0 
L 1831 4666 
z
" transform="scale(0.015625)"/>
      <path id="DejaVuSans-63" d="M 3122 3366 
L 3122 2828 
Q 2878 2963 2633 3030 
Q 2388 3097 2138 3097 
Q 1578 3097 1268 2742 
Q 959 2388 959 1747 
Q 959 1106 1268 751 
Q 1578 397 2138 397 
Q 2388 397 2633 464 
Q 2878 531 3122 666 
L 3122 134 
Q 2881 22 2623 -34 
Q 2366 -91 2075 -91 
Q 1284 -91 818 406 
Q 353 903 353 1747 
Q 353 2603 823 3093 
Q 1294 3584 2113 3584 
Q 2378 3584 2631 3529 
Q 2884 3475 3122 3366 
z
" transform="scale(0.015625)"/>
      <path id="DejaVuSans-75" d="M 544 1381 
L 544 3500 
L 1119 3500 
L 1119 1403 
Q 1119 906 1312 657 
Q 1506 409 1894 409 
Q 2359 409 2629 706 
Q 2900 1003 2900 1516 
L 2900 3500 
L 3475 3500 
L 3475 0 
L 2900 0 
L 2900 538 
Q 2691 219 2414 64 
Q 2138 -91 1772 -91 
Q 1169 -91 856 284 
Q 544 659 544 1381 
z
M 1991 3584 
L 1991 3584 
z
" transform="scale(0.015625)"/>
      <path id="DejaVuSans-72" d="M 2631 2963 
Q 2534 3019 2420 3045 
Q 2306 3072 2169 3072 
Q 1681 3072 1420 2755 
Q 1159 2438 1159 1844 
L 1159 0 
L 581 0 
L 581 3500 
L 1159 3500 
L 1159 2956 
Q 1341 3275 1631 3429 
Q 1922 3584 2338 3584 
Q 2397 3584 2469 3576 
Q 2541 3569 2628 3553 
L 2631 2963 
z
" transform="scale(0.015625)"/>
      <path id="DejaVuSans-61" d="M 2194 1759 
Q 1497 1759 1228 1600 
Q 959 1441 959 1056 
Q 959 750 1161 570 
Q 1363 391 1709 391 
Q 2188 391 2477 730 
Q 2766 1069 2766 1631 
L 2766 1759 
L 2194 1759 
z
M 3341 1997 
L 3341 0 
L 2766 0 
L 2766 531 
Q 2569 213 2275 61 
Q 1981 -91 1556 -91 
Q 1019 -91 701 211 
Q 384 513 384 1019 
Q 384 1609 779 1909 
Q 1175 2209 1959 2209 
L 2766 2209 
L 2766 2266 
Q 2766 2663 2505 2880 
Q 2244 3097 1772 3097 
Q 1472 3097 1187 3025 
Q 903 2953 641 2809 
L 641 3341 
Q 956 3463 1253 3523 
Q 1550 3584 1831 3584 
Q 2591 3584 2966 3190 
Q 3341 2797 3341 1997 
z
" transform="scale(0.015625)"/>
      <path id="DejaVuSans-79" d="M 2059 -325 
Q 1816 -950 1584 -1140 
Q 1353 -1331 966 -1331 
L 506 -1331 
L 506 -850 
L 844 -850 
Q 1081 -850 1212 -737 
Q 1344 -625 1503 -206 
L 1606 56 
L 191 3500 
L 800 3500 
L 1894 763 
L 2988 3500 
L 3597 3500 
L 2059 -325 
z
" transform="scale(0.015625)"/>
     </defs>
     <use xlink:href="#DejaVuSans-41"/>
     <use xlink:href="#DejaVuSans-63" transform="translate(66.658203 0)"/>
     <use xlink:href="#DejaVuSans-63" transform="translate(121.638672 0)"/>
     <use xlink:href="#DejaVuSans-75" transform="translate(176.619141 0)"/>
     <use xlink:href="#DejaVuSans-72" transform="translate(239.998047 0)"/>
     <use xlink:href="#DejaVuSans-61" transform="translate(281.111328 0)"/>
     <use xlink:href="#DejaVuSans-63" transform="translate(342.390625 0)"/>
     <use xlink:href="#DejaVuSans-79" transform="translate(397.371094 0)"/>
    </g>
   </g>
   <g id="legend_1">
    <g id="patch_7">
     <path d="M 71.196 108.88275 
L 154.983 108.88275 
Q 156.743 108.88275 156.743 107.12275 
L 156.743 29.728 
Q 156.743 27.968 154.983 27.968 
L 71.196 27.968 
Q 69.436 27.968 69.436 29.728 
L 69.436 107.12275 
Q 69.436 108.88275 71.196 108.88275 
z
" style="fill: #ffffff; opacity: 0.8; stroke: #cccccc; stroke-width: 0.8; stroke-linejoin: miter"/>
    </g>
    <g id="text_17">
     <!-- Operation -->
     <g style="fill: #262626" transform="translate(89.20125 38.7825) scale(0.096 -0.096)">
      <defs>
       <path id="DejaVuSans-4f" d="M 2522 4238 
Q 1834 4238 1429 3725 
Q 1025 3213 1025 2328 
Q 1025 1447 1429 934 
Q 1834 422 2522 422 
Q 3209 422 3611 934 
Q 4013 1447 4013 2328 
Q 4013 3213 3611 3725 
Q 3209 4238 2522 4238 
z
M 2522 4750 
Q 3503 4750 4090 4092 
Q 4678 3434 4678 2328 
Q 4678 1225 4090 567 
Q 3503 -91 2522 -91 
Q 1538 -91 948 565 
Q 359 1222 359 2328 
Q 359 3434 948 4092 
Q 1538 4750 2522 4750 
z
" transform="scale(0.015625)"/>
       <path id="DejaVuSans-70" d="M 1159 525 
L 1159 -1331 
L 581 -1331 
L 581 3500 
L 1159 3500 
L 1159 2969 
Q 1341 3281 1617 3432 
Q 1894 3584 2278 3584 
Q 2916 3584 3314 3078 
Q 3713 2572 3713 1747 
Q 3713 922 3314 415 
Q 2916 -91 2278 -91 
Q 1894 -91 1617 61 
Q 1341 213 1159 525 
z
M 3116 1747 
Q 3116 2381 2855 2742 
Q 2594 3103 2138 3103 
Q 1681 3103 1420 2742 
Q 1159 2381 1159 1747 
Q 1159 1113 1420 752 
Q 1681 391 2138 391 
Q 2594 391 2855 752 
Q 3116 1113 3116 1747 
z
" transform="scale(0.015625)"/>
       <path id="DejaVuSans-65" d="M 3597 1894 
L 3597 1613 
L 953 1613 
Q 991 1019 1311 708 
Q 1631 397 2203 397 
Q 2534 397 2845 478 
Q 3156 559 3463 722 
L 3463 178 
Q 3153 47 2828 -22 
Q 2503 -91 2169 -91 
Q 1331 -91 842 396 
Q 353 884 353 1716 
Q 353 2575 817 3079 
Q 1281 3584 2069 3584 
Q 2775 3584 3186 3129 
Q 3597 2675 3597 1894 
z
M 3022 2063 
Q 3016 2534 2758 2815 
Q 2500 3097 2075 3097 
Q 1594 3097 1305 2825 
Q 1016 2553 972 2059 
L 3022 2063 
z
" transform="scale(0.015625)"/>
       <path id="DejaVuSans-74" d="M 1172 4494 
L 1172 3500 
L 2356 3500 
L 2356 3053 
L 1172 3053 
L 1172 1153 
Q 1172 725 1289 603 
Q 1406 481 1766 481 
L 2356 481 
L 2356 0 
L 1766 0 
Q 1100 0 847 248 
Q 594 497 594 1153 
L 594 3053 
L 172 3053 
L 172 3500 
L 594 3500 
L 594 4494 
L 1172 4494 
z
" transform="scale(0.015625)"/>
       <path id="DejaVuSans-69" d="M 603 3500 
L 1178 3500 
L 1178 0 
L 603 0 
L 603 3500 
z
M 603 4863 
L 1178 4863 
L 1178 4134 
L 603 4134 
L 603 4863 
z
" transform="scale(0.015625)"/>
       <path id="DejaVuSans-6f" d="M 1959 3097 
Q 1497 3097 1228 2736 
Q 959 2375 959 1747 
Q 959 1119 1226 758 
Q 1494 397 1959 397 
Q 2419 397 2687 759 
Q 2956 1122 2956 1747 
Q 2956 2369 2687 2733 
Q 2419 3097 1959 3097 
z
M 1959 3584 
Q 2709 3584 3137 3096 
Q 3566 2609 3566 1747 
Q 3566 888 3137 398 
Q 2709 -91 1959 -91 
Q 1206 -91 779 398 
Q 353 888 353 1747 
Q 353 2609 779 3096 
Q 1206 3584 1959 3584 
z
" transform="scale(0.015625)"/>
       <path id="DejaVuSans-6e" d="M 3513 2113 
L 3513 0 
L 2938 0 
L 2938 2094 
Q 2938 2591 2744 2837 
Q 2550 3084 2163 3084 
Q 1697 3084 1428 2787 
Q 1159 2491 1159 1978 
L 1159 0 
L 581 0 
L 581 3500 
L 1159 3500 
L 1159 2956 
Q 1366 3272 1645 3428 
Q 1925 3584 2291 3584 
Q 2894 3584 3203 3211 
Q 3513 2838 3513 2113 
z
" transform="scale(0.015625)"/>
      </defs>
      <use xlink:href="#DejaVuSans-4f"/>
      <use xlink:href="#DejaVuSans-70" transform="translate(78.710938 0)"/>
      <use xlink:href="#DejaVuSans-65" transform="translate(142.1875 0)"/>
      <use xlink:href="#DejaVuSans-72" transform="translate(203.710938 0)"/>
      <use xlink:href="#DejaVuSans-61" transform="translate(244.824219 0)"/>
      <use xlink:href="#DejaVuSans-74" transform="translate(306.103516 0)"/>
      <use xlink:href="#DejaVuSans-69" transform="translate(345.3125 0)"/>
      <use xlink:href="#DejaVuSans-6f" transform="translate(373.095703 0)"/>
      <use xlink:href="#DejaVuSans-6e" transform="translate(434.277344 0)"/>
     </g>
    </g>
    <g id="line2d_26">
     <path d="M 72.956 48.785625 
L 81.756 48.785625 
L 90.556 48.785625 
" style="fill: none; stroke: #66ccee; stroke-width: 1.2; stroke-linecap: round"/>
    </g>
    <g id="text_18">
     <!-- encoding -->
     <g style="fill: #262626" transform="translate(97.596 51.865625) scale(0.088 -0.088)">
      <defs>
       <path id="DejaVuSans-64" d="M 2906 2969 
L 2906 4863 
L 3481 4863 
L 3481 0 
L 2906 0 
L 2906 525 
Q 2725 213 2448 61 
Q 2172 -91 1784 -91 
Q 1150 -91 751 415 
Q 353 922 353 1747 
Q 353 2572 751 3078 
Q 1150 3584 1784 3584 
Q 2172 3584 2448 3432 
Q 2725 3281 2906 2969 
z
M 947 1747 
Q 947 1113 1208 752 
Q 1469 391 1925 391 
Q 2381 391 2643 752 
Q 2906 1113 2906 1747 
Q 2906 2381 2643 2742 
Q 2381 3103 1925 3103 
Q 1469 3103 1208 2742 
Q 947 2381 947 1747 
z
" transform="scale(0.015625)"/>
       <path id="DejaVuSans-67" d="M 2906 1791 
Q 2906 2416 2648 2759 
Q 2391 3103 1925 3103 
Q 1463 3103 1205 2759 
Q 947 2416 947 1791 
Q 947 1169 1205 825 
Q 1463 481 1925 481 
Q 2391 481 2648 825 
Q 2906 1169 2906 1791 
z
M 3481 434 
Q 3481 -459 3084 -895 
Q 2688 -1331 1869 -1331 
Q 1566 -1331 1297 -1286 
Q 1028 -1241 775 -1147 
L 775 -588 
Q 1028 -725 1275 -790 
Q 1522 -856 1778 -856 
Q 2344 -856 2625 -561 
Q 2906 -266 2906 331 
L 2906 616 
Q 2728 306 2450 153 
Q 2172 0 1784 0 
Q 1141 0 747 490 
Q 353 981 353 1791 
Q 353 2603 747 3093 
Q 1141 3584 1784 3584 
Q 2172 3584 2450 3431 
Q 2728 3278 2906 2969 
L 2906 3500 
L 3481 3500 
L 3481 434 
z
" transform="scale(0.015625)"/>
      </defs>
      <use xlink:href="#DejaVuSans-65"/>
      <use xlink:href="#DejaVuSans-6e" transform="translate(61.523438 0)"/>
      <use xlink:href="#DejaVuSans-63" transform="translate(124.902344 0)"/>
      <use xlink:href="#DejaVuSans-6f" transform="translate(179.882812 0)"/>
      <use xlink:href="#DejaVuSans-64" transform="translate(241.064453 0)"/>
      <use xlink:href="#DejaVuSans-69" transform="translate(304.541016 0)"/>
      <use xlink:href="#DejaVuSans-6e" transform="translate(332.324219 0)"/>
      <use xlink:href="#DejaVuSans-67" transform="translate(395.703125 0)"/>
     </g>
    </g>
    <g id="line2d_27">
     <path d="M 72.956 61.702375 
L 81.756 61.702375 
L 90.556 61.702375 
" style="fill: none; stroke: #228833; stroke-width: 1.2; stroke-linecap: round"/>
    </g>
    <g id="text_19">
     <!-- n200 -->
     <g style="fill: #262626" transform="translate(97.596 64.782375) scale(0.088 -0.088)">
      <use xlink:href="#DejaVuSans-6e"/>
      <use xlink:href="#DejaVuSans-32" transform="translate(63.378906 0)"/>
      <use xlink:href="#DejaVuSans-30" transform="translate(127.001953 0)"/>
      <use xlink:href="#DejaVuSans-30" transform="translate(190.625 0)"/>
     </g>
    </g>
    <g id="line2d_28">
     <path d="M 72.956 74.619125 
L 81.756 74.619125 
L 90.556 74.619125 
" style="fill: none; stroke: #ccbb44; stroke-width: 1.2; stroke-linecap: round"/>
    </g>
    <g id="text_20">
     <!-- decision -->
     <g style="fill: #262626" transform="translate(97.596 77.699125) scale(0.088 -0.088)">
      <defs>
       <path id="DejaVuSans-73" d="M 2834 3397 
L 2834 2853 
Q 2591 2978 2328 3040 
Q 2066 3103 1784 3103 
Q 1356 3103 1142 2972 
Q 928 2841 928 2578 
Q 928 2378 1081 2264 
Q 1234 2150 1697 2047 
L 1894 2003 
Q 2506 1872 2764 1633 
Q 3022 1394 3022 966 
Q 3022 478 2636 193 
Q 2250 -91 1575 -91 
Q 1294 -91 989 -36 
Q 684 19 347 128 
L 347 722 
Q 666 556 975 473 
Q 1284 391 1588 391 
Q 1994 391 2212 530 
Q 2431 669 2431 922 
Q 2431 1156 2273 1281 
Q 2116 1406 1581 1522 
L 1381 1569 
Q 847 1681 609 1914 
Q 372 2147 372 2553 
Q 372 3047 722 3315 
Q 1072 3584 1716 3584 
Q 2034 3584 2315 3537 
Q 2597 3491 2834 3397 
z
" transform="scale(0.015625)"/>
      </defs>
      <use xlink:href="#DejaVuSans-64"/>
      <use xlink:href="#DejaVuSans-65" transform="translate(63.476562 0)"/>
      <use xlink:href="#DejaVuSans-63" transform="translate(125 0)"/>
      <use xlink:href="#DejaVuSans-69" transform="translate(179.980469 0)"/>
      <use xlink:href="#DejaVuSans-73" transform="translate(207.763672 0)"/>
      <use xlink:href="#DejaVuSans-69" transform="translate(259.863281 0)"/>
      <use xlink:href="#DejaVuSans-6f" transform="translate(287.646484 0)"/>
      <use xlink:href="#DejaVuSans-6e" transform="translate(348.828125 0)"/>
     </g>
    </g>
    <g id="line2d_29">
     <path d="M 72.956 87.535875 
L 81.756 87.535875 
L 90.556 87.535875 
" style="fill: none; stroke: #ee6677; stroke-width: 1.2; stroke-linecap: round"/>
    </g>
    <g id="text_21">
     <!-- confirmation -->
     <g style="fill: #262626" transform="translate(97.596 90.615875) scale(0.088 -0.088)">
      <defs>
       <path id="DejaVuSans-66" d="M 2375 4863 
L 2375 4384 
L 1825 4384 
Q 1516 4384 1395 4259 
Q 1275 4134 1275 3809 
L 1275 3500 
L 2222 3500 
L 2222 3053 
L 1275 3053 
L 1275 0 
L 697 0 
L 697 3053 
L 147 3053 
L 147 3500 
L 697 3500 
L 697 3744 
Q 697 4328 969 4595 
Q 1241 4863 1831 4863 
L 2375 4863 
z
" transform="scale(0.015625)"/>
       <path id="DejaVuSans-6d" d="M 3328 2828 
Q 3544 3216 3844 3400 
Q 4144 3584 4550 3584 
Q 5097 3584 5394 3201 
Q 5691 2819 5691 2113 
L 5691 0 
L 5113 0 
L 5113 2094 
Q 5113 2597 4934 2840 
Q 4756 3084 4391 3084 
Q 3944 3084 3684 2787 
Q 3425 2491 3425 1978 
L 3425 0 
L 2847 0 
L 2847 2094 
Q 2847 2600 2669 2842 
Q 2491 3084 2119 3084 
Q 1678 3084 1418 2786 
Q 1159 2488 1159 1978 
L 1159 0 
L 581 0 
L 581 3500 
L 1159 3500 
L 1159 2956 
Q 1356 3278 1631 3431 
Q 1906 3584 2284 3584 
Q 2666 3584 2933 3390 
Q 3200 3197 3328 2828 
z
" transform="scale(0.015625)"/>
      </defs>
      <use xlink:href="#DejaVuSans-63"/>
      <use xlink:href="#DejaVuSans-6f" transform="translate(54.980469 0)"/>
      <use xlink:href="#DejaVuSans-6e" transform="translate(116.162109 0)"/>
      <use xlink:href="#DejaVuSans-66" transform="translate(179.541016 0)"/>
      <use xlink:href="#DejaVuSans-69" transform="translate(214.746094 0)"/>
      <use xlink:href="#DejaVuSans-72" transform="translate(242.529297 0)"/>
      <use xlink:href="#DejaVuSans-6d" transform="translate(281.892578 0)"/>
      <use xlink:href="#DejaVuSans-61" transform="translate(379.304688 0)"/>
      <use xlink:href="#DejaVuSans-74" transform="translate(440.583984 0)"/>
      <use xlink:href="#DejaVuSans-69" transform="translate(479.792969 0)"/>
      <use xlink:href="#DejaVuSans-6f" transform="translate(507.576172 0)"/>
      <use xlink:href="#DejaVuSans-6e" transform="translate(568.757812 0)"/>
     </g>
    </g>
    <g id="line2d_30">
     <path d="M 72.956 100.452625 
L 81.756 100.452625 
L 90.556 100.452625 
" style="fill: none; stroke: #aa3377; stroke-width: 1.2; stroke-linecap: round"/>
    </g>
    <g id="text_22">
     <!-- response -->
     <g style="fill: #262626" transform="translate(97.596 103.532625) scale(0.088 -0.088)">
      <use xlink:href="#DejaVuSans-72"/>
      <use xlink:href="#DejaVuSans-65" transform="translate(38.863281 0)"/>
      <use xlink:href="#DejaVuSans-73" transform="translate(100.386719 0)"/>
      <use xlink:href="#DejaVuSans-70" transform="translate(152.486328 0)"/>
      <use xlink:href="#DejaVuSans-6f" transform="translate(215.962891 0)"/>
      <use xlink:href="#DejaVuSans-6e" transform="translate(277.144531 0)"/>
      <use xlink:href="#DejaVuSans-73" transform="translate(340.523438 0)"/>
      <use xlink:href="#DejaVuSans-65" transform="translate(392.623047 0)"/>
     </g>
    </g>
   </g>
   <g id="legend_2">
    <g id="patch_8">
     <path d="M 71.196 108.88275 
L 154.983 108.88275 
Q 156.743 108.88275 156.743 107.12275 
L 156.743 29.728 
Q 156.743 27.968 154.983 27.968 
L 71.196 27.968 
Q 69.436 27.968 69.436 29.728 
L 69.436 107.12275 
Q 69.436 108.88275 71.196 108.88275 
z
" style="fill: #ffffff; opacity: 0.8; stroke: #cccccc; stroke-width: 0.8; stroke-linejoin: miter"/>
    </g>
    <g id="text_23">
     <!-- Operation -->
     <g style="fill: #262626" transform="translate(89.20125 38.7825) scale(0.096 -0.096)">
      <use xlink:href="#DejaVuSans-4f"/>
      <use xlink:href="#DejaVuSans-70" transform="translate(78.710938 0)"/>
      <use xlink:href="#DejaVuSans-65" transform="translate(142.1875 0)"/>
      <use xlink:href="#DejaVuSans-72" transform="translate(203.710938 0)"/>
      <use xlink:href="#DejaVuSans-61" transform="translate(244.824219 0)"/>
      <use xlink:href="#DejaVuSans-74" transform="translate(306.103516 0)"/>
      <use xlink:href="#DejaVuSans-69" transform="translate(345.3125 0)"/>
      <use xlink:href="#DejaVuSans-6f" transform="translate(373.095703 0)"/>
      <use xlink:href="#DejaVuSans-6e" transform="translate(434.277344 0)"/>
     </g>
    </g>
    <g id="line2d_31">
     <path d="M 72.956 48.785625 
L 81.756 48.785625 
L 90.556 48.785625 
" style="fill: none; stroke: #66ccee; stroke-width: 1.2; stroke-linecap: round"/>
    </g>
    <g id="text_24">
     <!-- encoding -->
     <g style="fill: #262626" transform="translate(97.596 51.865625) scale(0.088 -0.088)">
      <use xlink:href="#DejaVuSans-65"/>
      <use xlink:href="#DejaVuSans-6e" transform="translate(61.523438 0)"/>
      <use xlink:href="#DejaVuSans-63" transform="translate(124.902344 0)"/>
      <use xlink:href="#DejaVuSans-6f" transform="translate(179.882812 0)"/>
      <use xlink:href="#DejaVuSans-64" transform="translate(241.064453 0)"/>
      <use xlink:href="#DejaVuSans-69" transform="translate(304.541016 0)"/>
      <use xlink:href="#DejaVuSans-6e" transform="translate(332.324219 0)"/>
      <use xlink:href="#DejaVuSans-67" transform="translate(395.703125 0)"/>
     </g>
    </g>
    <g id="line2d_32">
     <path d="M 72.956 61.702375 
L 81.756 61.702375 
L 90.556 61.702375 
" style="fill: none; stroke: #228833; stroke-width: 1.2; stroke-linecap: round"/>
    </g>
    <g id="text_25">
     <!-- n200 -->
     <g style="fill: #262626" transform="translate(97.596 64.782375) scale(0.088 -0.088)">
      <use xlink:href="#DejaVuSans-6e"/>
      <use xlink:href="#DejaVuSans-32" transform="translate(63.378906 0)"/>
      <use xlink:href="#DejaVuSans-30" transform="translate(127.001953 0)"/>
      <use xlink:href="#DejaVuSans-30" transform="translate(190.625 0)"/>
     </g>
    </g>
    <g id="line2d_33">
     <path d="M 72.956 74.619125 
L 81.756 74.619125 
L 90.556 74.619125 
" style="fill: none; stroke: #ccbb44; stroke-width: 1.2; stroke-linecap: round"/>
    </g>
    <g id="text_26">
     <!-- decision -->
     <g style="fill: #262626" transform="translate(97.596 77.699125) scale(0.088 -0.088)">
      <use xlink:href="#DejaVuSans-64"/>
      <use xlink:href="#DejaVuSans-65" transform="translate(63.476562 0)"/>
      <use xlink:href="#DejaVuSans-63" transform="translate(125 0)"/>
      <use xlink:href="#DejaVuSans-69" transform="translate(179.980469 0)"/>
      <use xlink:href="#DejaVuSans-73" transform="translate(207.763672 0)"/>
      <use xlink:href="#DejaVuSans-69" transform="translate(259.863281 0)"/>
      <use xlink:href="#DejaVuSans-6f" transform="translate(287.646484 0)"/>
      <use xlink:href="#DejaVuSans-6e" transform="translate(348.828125 0)"/>
     </g>
    </g>
    <g id="line2d_34">
     <path d="M 72.956 87.535875 
L 81.756 87.535875 
L 90.556 87.535875 
" style="fill: none; stroke: #ee6677; stroke-width: 1.2; stroke-linecap: round"/>
    </g>
    <g id="text_27">
     <!-- confirmation -->
     <g style="fill: #262626" transform="translate(97.596 90.615875) scale(0.088 -0.088)">
      <use xlink:href="#DejaVuSans-63"/>
      <use xlink:href="#DejaVuSans-6f" transform="translate(54.980469 0)"/>
      <use xlink:href="#DejaVuSans-6e" transform="translate(116.162109 0)"/>
      <use xlink:href="#DejaVuSans-66" transform="translate(179.541016 0)"/>
      <use xlink:href="#DejaVuSans-69" transform="translate(214.746094 0)"/>
      <use xlink:href="#DejaVuSans-72" transform="translate(242.529297 0)"/>
      <use xlink:href="#DejaVuSans-6d" transform="translate(281.892578 0)"/>
      <use xlink:href="#DejaVuSans-61" transform="translate(379.304688 0)"/>
      <use xlink:href="#DejaVuSans-74" transform="translate(440.583984 0)"/>
      <use xlink:href="#DejaVuSans-69" transform="translate(479.792969 0)"/>
      <use xlink:href="#DejaVuSans-6f" transform="translate(507.576172 0)"/>
      <use xlink:href="#DejaVuSans-6e" transform="translate(568.757812 0)"/>
     </g>
    </g>
    <g id="line2d_35">
     <path d="M 72.956 100.452625 
L 81.756 100.452625 
L 90.556 100.452625 
" style="fill: none; stroke: #aa3377; stroke-width: 1.2; stroke-linecap: round"/>
    </g>
    <g id="text_28">
     <!-- response -->
     <g style="fill: #262626" transform="translate(97.596 103.532625) scale(0.088 -0.088)">
      <use xlink:href="#DejaVuSans-72"/>
      <use xlink:href="#DejaVuSans-65" transform="translate(38.863281 0)"/>
      <use xlink:href="#DejaVuSans-73" transform="translate(100.386719 0)"/>
      <use xlink:href="#DejaVuSans-70" transform="translate(152.486328 0)"/>
      <use xlink:href="#DejaVuSans-6f" transform="translate(215.962891 0)"/>
      <use xlink:href="#DejaVuSans-6e" transform="translate(277.144531 0)"/>
      <use xlink:href="#DejaVuSans-73" transform="translate(340.523438 0)"/>
      <use xlink:href="#DejaVuSans-65" transform="translate(392.623047 0)"/>
     </g>
    </g>
   </g>
  </g>
  <g id="axes_2">
   <g id="patch_9">
    <path d="M 322.918 238.804 
L 564.62188 238.804 
L 564.62188 23.568 
L 322.918 23.568 
L 322.918 238.804 
z
" style="fill: none"/>
   </g>
   <g id="matplotlib.axis_3">
    <g id="xtick_7">
     <g id="line2d_36">
      <g>
       <use xlink:href="#ma647b73ec6" x="333.90454" y="238.804" style="fill: #262626; stroke: #262626"/>
      </g>
     </g>
     <g id="text_29">
      <!-- 0 -->
      <g style="fill: #262626" transform="translate(331.10504 253.790625) scale(0.088 -0.088)">
       <use xlink:href="#DejaVuSans-30"/>
      </g>
     </g>
    </g>
    <g id="xtick_8">
     <g id="line2d_37">
      <g>
       <use xlink:href="#ma647b73ec6" x="378.294601" y="238.804" style="fill: #262626; stroke: #262626"/>
      </g>
     </g>
     <g id="text_30">
      <!-- 20 -->
      <g style="fill: #262626" transform="translate(372.695601 253.790625) scale(0.088 -0.088)">
       <use xlink:href="#DejaVuSans-32"/>
       <use xlink:href="#DejaVuSans-30" transform="translate(63.623047 0)"/>
      </g>
     </g>
    </g>
    <g id="xtick_9">
     <g id="line2d_38">
      <g>
       <use xlink:href="#ma647b73ec6" x="422.684661" y="238.804" style="fill: #262626; stroke: #262626"/>
      </g>
     </g>
     <g id="text_31">
      <!-- 40 -->
      <g style="fill: #262626" transform="translate(417.085661 253.790625) scale(0.088 -0.088)">
       <use xlink:href="#DejaVuSans-34"/>
       <use xlink:href="#DejaVuSans-30" transform="translate(63.623047 0)"/>
      </g>
     </g>
    </g>
    <g id="xtick_10">
     <g id="line2d_39">
      <g>
       <use xlink:href="#ma647b73ec6" x="467.074722" y="238.804" style="fill: #262626; stroke: #262626"/>
      </g>
     </g>
     <g id="text_32">
      <!-- 60 -->
      <g style="fill: #262626" transform="translate(461.475722 253.790625) scale(0.088 -0.088)">
       <use xlink:href="#DejaVuSans-36"/>
       <use xlink:href="#DejaVuSans-30" transform="translate(63.623047 0)"/>
      </g>
     </g>
    </g>
    <g id="xtick_11">
     <g id="line2d_40">
      <g>
       <use xlink:href="#ma647b73ec6" x="511.464782" y="238.804" style="fill: #262626; stroke: #262626"/>
      </g>
     </g>
     <g id="text_33">
      <!-- 80 -->
      <g style="fill: #262626" transform="translate(505.865782 253.790625) scale(0.088 -0.088)">
       <use xlink:href="#DejaVuSans-38"/>
       <use xlink:href="#DejaVuSans-30" transform="translate(63.623047 0)"/>
      </g>
     </g>
    </g>
    <g id="xtick_12">
     <g id="line2d_41">
      <g>
       <use xlink:href="#ma647b73ec6" x="555.854843" y="238.804" style="fill: #262626; stroke: #262626"/>
      </g>
     </g>
     <g id="text_34">
      <!-- 100 -->
      <g style="fill: #262626" transform="translate(547.456343 253.790625) scale(0.088 -0.088)">
       <use xlink:href="#DejaVuSans-31"/>
       <use xlink:href="#DejaVuSans-30" transform="translate(63.623047 0)"/>
       <use xlink:href="#DejaVuSans-30" transform="translate(127.246094 0)"/>
      </g>
     </g>
    </g>
   </g>
   <g id="matplotlib.axis_4">
    <g id="ytick_10">
     <g id="line2d_42">
      <g>
       <use xlink:href="#m765b1ccfd4" x="322.918" y="238.804" style="fill: #262626; stroke: #262626"/>
      </g>
     </g>
    </g>
    <g id="ytick_11">
     <g id="line2d_43">
      <g>
       <use xlink:href="#m765b1ccfd4" x="322.918" y="211.8995" style="fill: #262626; stroke: #262626"/>
      </g>
     </g>
    </g>
    <g id="ytick_12">
     <g id="line2d_44">
      <g>
       <use xlink:href="#m765b1ccfd4" x="322.918" y="184.995" style="fill: #262626; stroke: #262626"/>
      </g>
     </g>
    </g>
    <g id="ytick_13">
     <g id="line2d_45">
      <g>
       <use xlink:href="#m765b1ccfd4" x="322.918" y="158.0905" style="fill: #262626; stroke: #262626"/>
      </g>
     </g>
    </g>
    <g id="ytick_14">
     <g id="line2d_46">
      <g>
       <use xlink:href="#m765b1ccfd4" x="322.918" y="131.186" style="fill: #262626; stroke: #262626"/>
      </g>
     </g>
    </g>
    <g id="ytick_15">
     <g id="line2d_47">
      <g>
       <use xlink:href="#m765b1ccfd4" x="322.918" y="104.2815" style="fill: #262626; stroke: #262626"/>
      </g>
     </g>
    </g>
    <g id="ytick_16">
     <g id="line2d_48">
      <g>
       <use xlink:href="#m765b1ccfd4" x="322.918" y="77.377" style="fill: #262626; stroke: #262626"/>
      </g>
     </g>
    </g>
    <g id="ytick_17">
     <g id="line2d_49">
      <g>
       <use xlink:href="#m765b1ccfd4" x="322.918" y="50.4725" style="fill: #262626; stroke: #262626"/>
      </g>
     </g>
    </g>
    <g id="ytick_18">
     <g id="line2d_50">
      <g>
       <use xlink:href="#m765b1ccfd4" x="322.918" y="23.568" style="fill: #262626; stroke: #262626"/>
      </g>
     </g>
    </g>
   </g>
   <g id="FillBetweenPolyCollection_11"/>
   <g id="FillBetweenPolyCollection_12"/>
   <g id="FillBetweenPolyCollection_13"/>
   <g id="FillBetweenPolyCollection_14"/>
   <g id="FillBetweenPolyCollection_15"/>
   <g id="FillBetweenPolyCollection_16"/>
   <g id="FillBetweenPolyCollection_17"/>
   <g id="FillBetweenPolyCollection_18"/>
   <g id="FillBetweenPolyCollection_19"/>
   <g id="FillBetweenPolyCollection_20"/>
   <g id="line2d_51">
    <path d="M 333.90454 235.567084 
L 336.124043 208.409447 
L 338.343546 187.963805 
L 340.563049 177.267536 
L 342.782552 172.952247 
L 345.002055 171.537033 
L 347.221558 172.694014 
L 349.441061 175.352116 
L 351.660564 178.022446 
L 353.880067 180.777709 
L 356.09957 183.857642 
L 358.319073 187.370024 
L 360.538576 191.028248 
L 362.758079 194.689876 
L 364.977582 198.265144 
L 367.197085 201.905259 
L 369.416588 205.553354 
L 371.636091 208.936126 
L 373.855595 211.991662 
L 376.075098 214.824077 
L 378.294601 217.476862 
L 380.514104 220.011604 
L 382.733607 222.379487 
L 384.95311 224.574488 
L 387.172613 226.507978 
L 389.392116 228.222199 
L 391.611619 229.717251 
L 393.831122 230.99839 
L 396.050625 232.091492 
L 398.270128 233.017984 
L 400.489631 233.823486 
L 402.709134 234.508034 
L 404.928637 235.08784 
L 407.14814 235.586347 
L 409.367643 236.008028 
L 411.587146 236.370526 
L 413.806649 236.684244 
L 416.026152 236.967346 
L 418.245655 237.212581 
L 420.465158 237.432514 
L 422.684661 237.622558 
L 424.904164 237.787986 
L 427.123667 237.929672 
L 429.34317 238.055368 
L 431.562673 238.165621 
L 433.782176 238.263679 
L 436.001679 238.34893 
L 438.221182 238.422844 
L 440.440685 238.485022 
L 442.660188 238.537808 
L 444.879691 238.583015 
L 447.099194 238.620969 
L 449.318697 238.652465 
L 451.5382 238.678543 
L 453.757704 238.699967 
L 455.977207 238.717711 
L 458.19671 238.73202 
L 460.416213 238.744881 
L 462.635716 238.756676 
L 464.855219 238.766149 
L 467.074722 238.773898 
L 469.294225 238.779637 
L 471.513728 238.784154 
L 473.733231 238.787775 
L 475.952734 238.790794 
L 478.172237 238.793285 
L 480.39174 238.795297 
L 482.611243 238.797013 
L 484.830746 238.798453 
L 487.050249 238.799567 
L 489.269752 238.800466 
L 491.489255 238.801215 
L 493.708758 238.801836 
L 495.928261 238.80233 
L 498.147764 238.802705 
L 500.367267 238.803002 
L 502.58677 238.80324 
L 504.806273 238.803445 
L 507.025776 238.803611 
L 509.245279 238.803725 
L 511.464782 238.803803 
L 513.684285 238.803866 
L 515.903788 238.803915 
L 518.123291 238.803944 
L 520.342794 238.803966 
L 522.562297 238.80398 
L 524.7818 238.803989 
L 527.001303 238.803994 
L 529.220806 238.803997 
L 531.44031 238.803999 
L 533.659813 238.803999 
L 535.879316 238.804 
L 538.098819 238.804 
L 540.318322 238.804 
L 542.537825 238.804 
L 544.757328 238.804 
L 546.976831 238.804 
L 549.196334 238.804 
L 551.415837 238.804 
L 553.63534 238.804 
" clip-path="url(#p414d2b84cc)" style="fill: none; stroke-dasharray: 4.44,1.92; stroke-dashoffset: 0; stroke: #66ccee; stroke-opacity: 0.5; stroke-width: 1.2"/>
   </g>
   <g id="line2d_52">
    <path d="M 333.90454 235.069468 
L 336.124043 207.15915 
L 338.343546 187.401555 
L 340.563049 177.245719 
L 342.782552 173.595721 
L 345.002055 172.709008 
L 347.221558 174.117976 
L 349.441061 176.863024 
L 351.660564 179.663957 
L 353.880067 182.405344 
L 356.09957 185.496115 
L 358.319073 188.949611 
L 360.538576 192.45138 
L 362.758079 195.899159 
L 364.977582 199.313563 
L 367.197085 202.86808 
L 369.416588 206.404588 
L 371.636091 209.624626 
L 373.855595 212.519023 
L 376.075098 215.2172 
L 378.294601 217.741353 
L 380.514104 220.169308 
L 382.733607 222.463608 
L 384.95311 224.592599 
L 387.172613 226.45291 
L 389.392116 228.069921 
L 391.611619 229.456537 
L 393.831122 230.641063 
L 396.050625 231.661341 
L 398.270128 232.535951 
L 400.489631 233.291353 
L 402.709134 233.946572 
L 404.928637 234.51086 
L 407.14814 235.003576 
L 409.367643 235.426628 
L 411.587146 235.794366 
L 413.806649 236.111994 
L 416.026152 236.404537 
L 418.245655 236.660855 
L 420.465158 236.879147 
L 422.684661 237.066713 
L 424.904164 237.241091 
L 427.123667 237.402378 
L 429.34317 237.549253 
L 431.562673 237.677715 
L 433.782176 237.790791 
L 436.001679 237.891865 
L 438.221182 237.983619 
L 440.440685 238.065216 
L 442.660188 238.13597 
L 444.879691 238.199786 
L 447.099194 238.259189 
L 449.318697 238.315218 
L 451.5382 238.365759 
L 453.757704 238.410827 
L 455.977207 238.450309 
L 458.19671 238.484777 
L 460.416213 238.518791 
L 462.635716 238.55324 
L 464.855219 238.583355 
L 467.074722 238.608768 
L 469.294225 238.631155 
L 471.513728 238.651449 
L 473.733231 238.670044 
L 475.952734 238.686054 
L 478.172237 238.699858 
L 480.39174 238.711436 
L 482.611243 238.721625 
L 484.830746 238.730457 
L 487.050249 238.737477 
L 489.269752 238.742613 
L 491.489255 238.746913 
L 493.708758 238.751606 
L 495.928261 238.756774 
L 498.147764 238.761878 
L 500.367267 238.767339 
L 502.58677 238.773384 
L 504.806273 238.780262 
L 507.025776 238.786256 
L 509.245279 238.790093 
L 511.464782 238.792401 
L 513.684285 238.794336 
L 515.903788 238.796658 
L 518.123291 238.798181 
L 520.342794 238.799252 
L 522.562297 238.799993 
L 524.7818 238.80056 
L 527.001303 238.80089 
L 529.220806 238.801048 
L 531.44031 238.801072 
L 533.659813 238.800959 
L 535.879316 238.800789 
L 538.098819 238.800573 
L 540.318322 238.800263 
L 542.537825 238.799867 
L 544.757328 238.799383 
L 546.976831 238.798898 
L 549.196334 238.798462 
L 551.415837 238.797873 
L 553.63534 238.798313 
" clip-path="url(#p414d2b84cc)" style="fill: none; stroke: #66ccee; stroke-width: 1.2; stroke-linecap: round"/>
   </g>
   <g id="line2d_53">
    <path d="M 333.90454 238.803737 
L 336.124043 238.742637 
L 338.343546 238.416219 
L 340.563049 237.894337 
L 342.782552 237.033655 
L 345.002055 235.742173 
L 347.221558 234.35471 
L 349.441061 232.491332 
L 351.660564 230.838104 
L 353.880067 229.376665 
L 356.09957 227.793291 
L 358.319073 225.753591 
L 360.538576 223.990705 
L 362.758079 222.41811 
L 364.977582 220.899211 
L 367.197085 219.103818 
L 369.416588 217.223772 
L 371.636091 215.490547 
L 373.855595 213.64843 
L 376.075098 212.120981 
L 378.294601 210.854676 
L 380.514104 209.792087 
L 382.733607 208.421869 
L 384.95311 207.102249 
L 387.172613 205.950351 
L 389.392116 205.119898 
L 391.611619 204.61659 
L 393.831122 204.362851 
L 396.050625 204.238357 
L 398.270128 204.535165 
L 400.489631 205.192462 
L 402.709134 205.90578 
L 404.928637 206.785165 
L 407.14814 207.83007 
L 409.367643 209.140102 
L 411.587146 210.670301 
L 413.806649 212.143382 
L 416.026152 213.703076 
L 418.245655 215.323597 
L 420.465158 216.837254 
L 422.684661 218.287995 
L 424.904164 219.877089 
L 427.123667 221.486891 
L 429.34317 222.925253 
L 431.562673 224.264997 
L 433.782176 225.418864 
L 436.001679 226.427845 
L 438.221182 227.313573 
L 440.440685 228.113785 
L 442.660188 228.824483 
L 444.879691 229.462499 
L 447.099194 230.18361 
L 449.318697 230.934622 
L 451.5382 231.55089 
L 453.757704 232.123141 
L 455.977207 232.652403 
L 458.19671 233.166378 
L 460.416213 233.625542 
L 462.635716 234.033613 
L 464.855219 234.426299 
L 467.074722 234.818082 
L 469.294225 235.152861 
L 471.513728 235.501428 
L 473.733231 235.844458 
L 475.952734 236.15188 
L 478.172237 236.449912 
L 480.39174 236.708788 
L 482.611243 236.948608 
L 484.830746 237.162211 
L 487.050249 237.347002 
L 489.269752 237.525223 
L 491.489255 237.703504 
L 493.708758 237.865807 
L 495.928261 237.996745 
L 498.147764 238.10566 
L 500.367267 238.207519 
L 502.58677 238.305583 
L 504.806273 238.393581 
L 507.025776 238.474765 
L 509.245279 238.545235 
L 511.464782 238.602159 
L 513.684285 238.644448 
L 515.903788 238.676463 
L 518.123291 238.702012 
L 520.342794 238.726789 
L 522.562297 238.750681 
L 524.7818 238.766573 
L 527.001303 238.778006 
L 529.220806 238.786077 
L 531.44031 238.79228 
L 533.659813 238.796836 
L 535.879316 238.799767 
L 538.098819 238.801641 
L 540.318322 238.802818 
L 542.537825 238.803485 
L 544.757328 238.803812 
L 546.976831 238.803957 
L 549.196334 238.803994 
L 551.415837 238.804 
L 553.63534 238.804 
" clip-path="url(#p414d2b84cc)" style="fill: none; stroke-dasharray: 4.44,1.92; stroke-dashoffset: 0; stroke: #228833; stroke-opacity: 0.5; stroke-width: 1.2"/>
   </g>
   <g id="line2d_54">
    <path d="M 333.90454 238.798603 
L 336.124043 238.662618 
L 338.343546 238.122524 
L 340.563049 237.301854 
L 342.782552 236.023042 
L 345.002055 234.333834 
L 347.221558 232.438425 
L 349.441061 230.469501 
L 351.660564 228.696582 
L 353.880067 227.301753 
L 356.09957 225.726093 
L 358.319073 223.644888 
L 360.538576 222.028064 
L 362.758079 220.754728 
L 364.977582 219.426561 
L 367.197085 218.037979 
L 369.416588 216.451452 
L 371.636091 214.927823 
L 373.855595 213.43741 
L 376.075098 212.260459 
L 378.294601 211.317499 
L 380.514104 210.395334 
L 382.733607 209.336806 
L 384.95311 208.403395 
L 387.172613 207.588677 
L 389.392116 207.054146 
L 391.611619 206.856372 
L 393.831122 206.841939 
L 396.050625 206.963551 
L 398.270128 207.430268 
L 400.489631 208.154285 
L 402.709134 208.968962 
L 404.928637 209.881826 
L 407.14814 210.907091 
L 409.367643 212.130305 
L 411.587146 213.508768 
L 413.806649 214.917908 
L 416.026152 216.36555 
L 418.245655 217.771954 
L 420.465158 219.050016 
L 422.684661 220.293595 
L 424.904164 221.647895 
L 427.123667 223.030251 
L 429.34317 224.322956 
L 431.562673 225.466746 
L 433.782176 226.413976 
L 436.001679 227.250418 
L 438.221182 227.98419 
L 440.440685 228.637426 
L 442.660188 229.193432 
L 444.879691 229.709032 
L 447.099194 230.242841 
L 449.318697 230.788581 
L 451.5382 231.273004 
L 453.757704 231.716224 
L 455.977207 232.107824 
L 458.19671 232.495237 
L 460.416213 232.858375 
L 462.635716 233.183697 
L 464.855219 233.461591 
L 467.074722 233.740258 
L 469.294225 233.975206 
L 471.513728 234.233122 
L 473.733231 234.502156 
L 475.952734 234.74523 
L 478.172237 234.96418 
L 480.39174 235.151034 
L 482.611243 235.336994 
L 484.830746 235.517517 
L 487.050249 235.724977 
L 489.269752 235.95085 
L 491.489255 236.189323 
L 493.708758 236.441755 
L 495.928261 236.678369 
L 498.147764 236.87895 
L 500.367267 237.056033 
L 502.58677 237.239725 
L 504.806273 237.430174 
L 507.025776 237.607562 
L 509.245279 237.769713 
L 511.464782 237.918932 
L 513.684285 238.06586 
L 515.903788 238.208862 
L 518.123291 238.339606 
L 520.342794 238.455031 
L 522.562297 238.563746 
L 524.7818 238.64456 
L 527.001303 238.699321 
L 529.220806 238.741566 
L 531.44031 238.764463 
L 533.659813 238.77777 
L 535.879316 238.785167 
L 538.098819 238.788792 
L 540.318322 238.791274 
L 542.537825 238.793052 
L 544.757328 238.794467 
L 546.976831 238.795642 
L 549.196334 238.796661 
L 551.415837 238.797522 
L 553.63534 238.798282 
" clip-path="url(#p414d2b84cc)" style="fill: none; stroke: #228833; stroke-width: 1.2; stroke-linecap: round"/>
   </g>
   <g id="line2d_55">
    <path d="M 333.90454 238.804 
L 336.124043 238.804 
L 338.343546 238.804 
L 340.563049 238.804 
L 342.782552 238.804 
L 345.002055 238.804 
L 347.221558 238.804 
L 349.441061 238.804 
L 351.660564 238.804 
L 353.880067 238.804 
L 356.09957 238.804 
L 358.319073 238.804 
L 360.538576 238.804 
L 362.758079 238.804 
L 364.977582 238.804 
L 367.197085 238.804 
L 369.416588 238.804 
L 371.636091 238.804 
L 373.855595 238.804 
L 376.075098 238.804 
L 378.294601 238.804 
L 380.514104 238.804 
L 382.733607 238.804 
L 384.95311 238.804 
L 387.172613 238.804 
L 389.392116 238.804 
L 391.611619 238.804 
L 393.831122 238.804 
L 396.050625 238.804 
L 398.270128 238.804 
L 400.489631 238.804 
L 402.709134 238.804 
L 404.928637 238.804 
L 407.14814 238.804 
L 409.367643 238.804 
L 411.587146 238.804 
L 413.806649 238.804 
L 416.026152 238.804 
L 418.245655 238.804 
L 420.465158 238.804 
L 422.684661 238.804 
L 424.904164 238.804 
L 427.123667 238.804 
L 429.34317 238.804 
L 431.562673 238.804 
L 433.782176 238.804 
L 436.001679 238.804 
L 438.221182 238.804 
L 440.440685 238.804 
L 442.660188 238.804 
L 444.879691 238.804 
L 447.099194 238.804 
L 449.318697 238.804 
L 451.5382 238.804 
L 453.757704 238.804 
L 455.977207 238.804 
L 458.19671 238.804 
L 460.416213 238.804 
L 462.635716 238.804 
L 464.855219 238.804 
L 467.074722 238.804 
L 469.294225 238.804 
L 471.513728 238.804 
L 473.733231 238.804 
L 475.952734 238.804 
L 478.172237 238.804 
L 480.39174 238.804 
L 482.611243 238.804 
L 484.830746 238.804 
L 487.050249 238.804 
L 489.269752 238.804 
L 491.489255 238.804 
L 493.708758 238.804 
L 495.928261 238.804 
L 498.147764 238.804 
L 500.367267 238.804 
L 502.58677 238.804 
L 504.806273 238.804 
L 507.025776 238.804 
L 509.245279 238.804 
L 511.464782 238.804 
L 513.684285 238.804 
L 515.903788 238.804 
L 518.123291 238.804 
L 520.342794 238.804 
L 522.562297 238.804 
L 524.7818 238.804 
L 527.001303 238.804 
L 529.220806 238.804 
L 531.44031 238.804 
L 533.659813 238.804 
L 535.879316 238.804 
L 538.098819 238.804 
L 540.318322 238.804 
L 542.537825 238.804 
L 544.757328 238.804 
L 546.976831 238.804 
L 549.196334 238.804 
L 551.415837 238.804 
L 553.63534 238.804 
" clip-path="url(#p414d2b84cc)" style="fill: none; stroke-dasharray: 4.44,1.92; stroke-dashoffset: 0; stroke: #ccbb44; stroke-opacity: 0.5; stroke-width: 1.2"/>
   </g>
   <g id="line2d_56">
    <path d="M 333.90454 238.802633 
L 336.124043 238.796203 
L 338.343546 238.789403 
L 340.563049 238.770965 
L 342.782552 238.714096 
L 345.002055 238.6848 
L 347.221558 238.621723 
L 349.441061 238.467521 
L 351.660564 238.24522 
L 353.880067 238.033505 
L 356.09957 237.677884 
L 358.319073 237.384247 
L 360.538576 237.003487 
L 362.758079 236.753949 
L 364.977582 236.368025 
L 367.197085 236.014096 
L 369.416588 235.554949 
L 371.636091 234.953979 
L 373.855595 234.538226 
L 376.075098 233.991226 
L 378.294601 233.458443 
L 380.514104 233.054013 
L 382.733607 232.408365 
L 384.95311 231.756626 
L 387.172613 231.114968 
L 389.392116 230.59594 
L 391.611619 230.048434 
L 393.831122 229.317632 
L 396.050625 228.626486 
L 398.270128 227.886191 
L 400.489631 227.11825 
L 402.709134 226.388771 
L 404.928637 225.717178 
L 407.14814 225.011579 
L 409.367643 224.275984 
L 411.587146 223.509974 
L 413.806649 222.724952 
L 416.026152 221.884078 
L 418.245655 221.054323 
L 420.465158 220.429766 
L 422.684661 219.995598 
L 424.904164 219.684762 
L 427.123667 219.426204 
L 429.34317 219.113878 
L 431.562673 218.756996 
L 433.782176 218.480596 
L 436.001679 218.376963 
L 438.221182 218.429273 
L 440.440685 218.510181 
L 442.660188 218.565855 
L 444.879691 218.667104 
L 447.099194 218.801515 
L 449.318697 218.903125 
L 451.5382 219.073695 
L 453.757704 219.345287 
L 455.977207 219.661535 
L 458.19671 219.947653 
L 460.416213 220.20747 
L 462.635716 220.470037 
L 464.855219 220.779149 
L 467.074722 221.130726 
L 469.294225 221.505206 
L 471.513728 221.830645 
L 473.733231 222.110322 
L 475.952734 222.351031 
L 478.172237 222.603887 
L 480.39174 222.849424 
L 482.611243 223.099174 
L 484.830746 223.333404 
L 487.050249 223.554209 
L 489.269752 223.739564 
L 491.489255 223.910774 
L 493.708758 224.090071 
L 495.928261 224.278188 
L 498.147764 224.420281 
L 500.367267 224.500328 
L 502.58677 224.528383 
L 504.806273 224.573519 
L 507.025776 224.710102 
L 509.245279 224.946199 
L 511.464782 225.296494 
L 513.684285 225.752801 
L 515.903788 226.349106 
L 518.123291 227.083466 
L 520.342794 227.934587 
L 522.562297 228.893062 
L 524.7818 229.936097 
L 527.001303 231.052013 
L 529.220806 232.132436 
L 531.44031 233.14822 
L 533.659813 234.111389 
L 535.879316 235.013583 
L 538.098819 235.844131 
L 540.318322 236.593399 
L 542.537825 237.249139 
L 544.757328 237.795198 
L 546.976831 238.225971 
L 549.196334 238.515799 
L 551.415837 238.69367 
L 553.63534 238.78885 
" clip-path="url(#p414d2b84cc)" style="fill: none; stroke: #ccbb44; stroke-width: 1.2; stroke-linecap: round"/>
   </g>
   <g id="line2d_57"/>
   <g id="line2d_58">
    <path d="M 333.90454 238.791474 
L 336.124043 238.752855 
L 338.343546 238.731541 
L 340.563049 238.733563 
L 342.782552 238.736089 
L 345.002055 238.733764 
L 347.221558 238.726982 
L 349.441061 238.717855 
L 351.660564 238.705177 
L 353.880067 238.693242 
L 356.09957 238.674259 
L 358.319073 238.639061 
L 360.538576 238.616364 
L 362.758079 238.566939 
L 364.977582 238.535969 
L 367.197085 238.494959 
L 369.416588 238.43816 
L 371.636091 238.375462 
L 373.855595 238.308173 
L 376.075098 238.214649 
L 378.294601 238.15687 
L 380.514104 238.079926 
L 382.733607 238.013064 
L 384.95311 237.868819 
L 387.172613 237.705165 
L 389.392116 237.565688 
L 391.611619 237.439098 
L 393.831122 237.257746 
L 396.050625 237.078023 
L 398.270128 236.879147 
L 400.489631 236.718614 
L 402.709134 236.497713 
L 404.928637 236.259281 
L 407.14814 235.914288 
L 409.367643 235.607282 
L 411.587146 235.369146 
L 413.806649 235.118227 
L 416.026152 234.852074 
L 418.245655 234.52789 
L 420.465158 234.164232 
L 422.684661 233.782963 
L 424.904164 233.366332 
L 427.123667 232.925305 
L 429.34317 232.476735 
L 431.562673 232.112272 
L 433.782176 231.668357 
L 436.001679 231.149033 
L 438.221182 230.59398 
L 440.440685 230.08522 
L 442.660188 229.485689 
L 444.879691 228.900367 
L 447.099194 228.288604 
L 449.318697 227.622981 
L 451.5382 227.007428 
L 453.757704 226.225263 
L 455.977207 225.447309 
L 458.19671 224.720437 
L 460.416213 223.982831 
L 462.635716 223.162744 
L 464.855219 222.365555 
L 467.074722 221.748706 
L 469.294225 221.081312 
L 471.513728 220.219253 
L 473.733231 219.363201 
L 475.952734 218.52835 
L 478.172237 217.63591 
L 480.39174 216.714194 
L 482.611243 215.798164 
L 484.830746 214.886868 
L 487.050249 213.909279 
L 489.269752 212.903781 
L 491.489255 211.900977 
L 493.708758 210.938693 
L 495.928261 209.98047 
L 498.147764 209.035856 
L 500.367267 208.081776 
L 502.58677 207.138724 
L 504.806273 206.253392 
L 507.025776 205.565991 
L 509.245279 205.225431 
L 511.464782 205.204391 
L 513.684285 205.422702 
L 515.903788 206.070095 
L 518.123291 207.21295 
L 520.342794 209.399762 
L 522.562297 212.810097 
L 524.7818 216.317639 
L 527.001303 219.524118 
L 529.220806 222.340407 
L 531.44031 224.853578 
L 533.659813 226.749262 
L 535.879316 228.384589 
L 538.098819 229.798553 
L 540.318322 231.110174 
L 542.537825 232.390443 
L 544.757328 233.676591 
L 546.976831 235.040444 
L 549.196334 236.375672 
L 551.415837 237.575188 
L 553.63534 238.424576 
" clip-path="url(#p414d2b84cc)" style="fill: none; stroke: #ee6677; stroke-width: 1.2; stroke-linecap: round"/>
   </g>
   <g id="line2d_59">
    <path d="M 333.90454 238.804 
L 336.124043 238.804 
L 338.343546 238.804 
L 340.563049 238.804 
L 342.782552 238.804 
L 345.002055 238.804 
L 347.221558 238.804 
L 349.441061 238.804 
L 351.660564 238.804 
L 353.880067 238.804 
L 356.09957 238.804 
L 358.319073 238.804 
L 360.538576 238.804 
L 362.758079 238.804 
L 364.977582 238.804 
L 367.197085 238.804 
L 369.416588 238.804 
L 371.636091 238.804 
L 373.855595 238.804 
L 376.075098 238.803999 
L 378.294601 238.803999 
L 380.514104 238.803998 
L 382.733607 238.803997 
L 384.95311 238.803995 
L 387.172613 238.803992 
L 389.392116 238.803988 
L 391.611619 238.803982 
L 393.831122 238.803974 
L 396.050625 238.803962 
L 398.270128 238.803948 
L 400.489631 238.803926 
L 402.709134 238.803898 
L 404.928637 238.803858 
L 407.14814 238.803809 
L 409.367643 238.803746 
L 411.587146 238.803659 
L 413.806649 238.803545 
L 416.026152 238.803407 
L 418.245655 238.803212 
L 420.465158 238.802958 
L 422.684661 238.80264 
L 424.904164 238.802207 
L 427.123667 238.801659 
L 429.34317 238.801005 
L 431.562673 238.800159 
L 433.782176 238.799168 
L 436.001679 238.797993 
L 438.221182 238.796528 
L 440.440685 238.794833 
L 442.660188 238.792866 
L 444.879691 238.790506 
L 447.099194 238.787693 
L 449.318697 238.784255 
L 451.5382 238.780005 
L 453.757704 238.774756 
L 455.977207 238.767934 
L 458.19671 238.759344 
L 460.416213 238.74846 
L 462.635716 238.734703 
L 464.855219 238.717698 
L 467.074722 238.697031 
L 469.294225 238.671355 
L 471.513728 238.639774 
L 473.733231 238.602069 
L 475.952734 238.555705 
L 478.172237 238.498931 
L 480.39174 238.42874 
L 482.611243 238.342236 
L 484.830746 238.234628 
L 487.050249 238.101555 
L 489.269752 237.934786 
L 491.489255 237.727145 
L 493.708758 237.47168 
L 495.928261 237.156117 
L 498.147764 236.761118 
L 500.367267 236.275193 
L 502.58677 235.673434 
L 504.806273 234.936336 
L 507.025776 234.044574 
L 509.245279 232.980121 
L 511.464782 231.697336 
L 513.684285 230.131501 
L 515.903788 228.227599 
L 518.123291 225.921722 
L 520.342794 223.194231 
L 522.562297 219.990749 
L 524.7818 216.156697 
L 527.001303 211.576301 
L 529.220806 206.17732 
L 531.44031 199.869739 
L 533.659813 192.572435 
L 535.879316 184.051021 
L 538.098819 174.367253 
L 540.318322 163.69914 
L 542.537825 152.111367 
L 544.757328 139.859914 
L 546.976831 128.404272 
L 549.196334 120.802859 
L 551.415837 124.60484 
L 553.63534 157.280301 
" clip-path="url(#p414d2b84cc)" style="fill: none; stroke-dasharray: 4.44,1.92; stroke-dashoffset: 0; stroke: #aa3377; stroke-opacity: 0.5; stroke-width: 1.2"/>
   </g>
   <g id="line2d_60">
    <path d="M 333.90454 238.802595 
L 336.124043 238.799046 
L 338.343546 238.79912 
L 340.563049 238.799193 
L 342.782552 238.799144 
L 345.002055 238.798954 
L 347.221558 238.798533 
L 349.441061 238.798282 
L 351.660564 238.797746 
L 353.880067 238.797154 
L 356.09957 238.795346 
L 358.319073 238.79423 
L 360.538576 238.791738 
L 362.758079 238.791179 
L 364.977582 238.789244 
L 367.197085 238.785014 
L 369.416588 238.781812 
L 371.636091 238.775771 
L 373.855595 238.77238 
L 376.075098 238.766417 
L 378.294601 238.760876 
L 380.514104 238.753801 
L 382.733607 238.745868 
L 384.95311 238.734273 
L 387.172613 238.724521 
L 389.392116 238.711984 
L 391.611619 238.704884 
L 393.831122 238.690919 
L 396.050625 238.671121 
L 398.270128 238.655987 
L 400.489631 238.642958 
L 402.709134 238.617132 
L 404.928637 238.601691 
L 407.14814 238.578346 
L 409.367643 238.550281 
L 411.587146 238.524174 
L 413.806649 238.498693 
L 416.026152 238.469074 
L 418.245655 238.437241 
L 420.465158 238.410723 
L 422.684661 238.391583 
L 424.904164 238.35515 
L 427.123667 238.307368 
L 429.34317 238.250007 
L 431.562673 238.226448 
L 433.782176 238.20019 
L 436.001679 238.158688 
L 438.221182 238.114049 
L 440.440685 238.069299 
L 442.660188 238.047232 
L 444.879691 238.006254 
L 447.099194 237.957863 
L 449.318697 237.91228 
L 451.5382 237.879719 
L 453.757704 237.830931 
L 455.977207 237.762708 
L 458.19671 237.697524 
L 460.416213 237.650213 
L 462.635716 237.612084 
L 464.855219 237.559223 
L 467.074722 237.517817 
L 469.294225 237.473324 
L 471.513728 237.389198 
L 473.733231 237.34525 
L 475.952734 237.281081 
L 478.172237 237.214828 
L 480.39174 237.165327 
L 482.611243 237.105237 
L 484.830746 237.055267 
L 487.050249 236.989294 
L 489.269752 236.887566 
L 491.489255 236.792416 
L 493.708758 236.697963 
L 495.928261 236.581459 
L 498.147764 236.465955 
L 500.367267 236.334805 
L 502.58677 236.163525 
L 504.806273 235.941632 
L 507.025776 235.677496 
L 509.245279 235.315109 
L 511.464782 234.795815 
L 513.684285 234.074627 
L 515.903788 233.052752 
L 518.123291 231.615651 
L 520.342794 229.455574 
L 522.562297 226.138639 
L 524.7818 221.729214 
L 527.001303 216.43992 
L 529.220806 210.142264 
L 531.44031 202.533671 
L 533.659813 194.021866 
L 535.879316 184.54763 
L 538.098819 174.15571 
L 540.318322 162.699988 
L 542.537825 150.39847 
L 544.757328 137.532858 
L 546.976831 125.487472 
L 549.196334 117.377891 
L 551.415837 121.326894 
L 553.63534 152.993004 
" clip-path="url(#p414d2b84cc)" style="fill: none; stroke: #aa3377; stroke-width: 1.2; stroke-linecap: round"/>
   </g>
   <g id="patch_10">
    <path d="M 322.918 238.804 
L 322.918 23.568 
" style="fill: none; stroke: #262626; stroke-linejoin: miter; stroke-linecap: square"/>
   </g>
   <g id="patch_11">
    <path d="M 564.62188 238.804 
L 564.62188 23.568 
" style="fill: none; stroke: #262626; stroke-linejoin: miter; stroke-linecap: square"/>
   </g>
   <g id="patch_12">
    <path d="M 322.918 238.804 
L 564.62188 238.804 
" style="fill: none; stroke: #262626; stroke-linejoin: miter; stroke-linecap: square"/>
   </g>
   <g id="patch_13">
    <path d="M 322.918 23.568 
L 564.62188 23.568 
" style="fill: none; stroke: #262626; stroke-linejoin: miter; stroke-linecap: square"/>
   </g>
   <g id="text_35">
    <!-- Speed -->
    <g style="fill: #262626" transform="translate(428.72119 17.568) scale(0.096 -0.096)">
     <defs>
      <path id="DejaVuSans-53" d="M 3425 4513 
L 3425 3897 
Q 3066 4069 2747 4153 
Q 2428 4238 2131 4238 
Q 1616 4238 1336 4038 
Q 1056 3838 1056 3469 
Q 1056 3159 1242 3001 
Q 1428 2844 1947 2747 
L 2328 2669 
Q 3034 2534 3370 2195 
Q 3706 1856 3706 1288 
Q 3706 609 3251 259 
Q 2797 -91 1919 -91 
Q 1588 -91 1214 -16 
Q 841 59 441 206 
L 441 856 
Q 825 641 1194 531 
Q 1563 422 1919 422 
Q 2459 422 2753 634 
Q 3047 847 3047 1241 
Q 3047 1584 2836 1778 
Q 2625 1972 2144 2069 
L 1759 2144 
Q 1053 2284 737 2584 
Q 422 2884 422 3419 
Q 422 4038 858 4394 
Q 1294 4750 2059 4750 
Q 2388 4750 2728 4690 
Q 3069 4631 3425 4513 
z
" transform="scale(0.015625)"/>
     </defs>
     <use xlink:href="#DejaVuSans-53"/>
     <use xlink:href="#DejaVuSans-70" transform="translate(63.476562 0)"/>
     <use xlink:href="#DejaVuSans-65" transform="translate(126.953125 0)"/>
     <use xlink:href="#DejaVuSans-65" transform="translate(188.476562 0)"/>
     <use xlink:href="#DejaVuSans-64" transform="translate(250 0)"/>
    </g>
   </g>
   <g id="legend_3">
    <g id="patch_14">
     <path d="M 510.78513 70.1325 
L 558.46188 70.1325 
Q 560.22188 70.1325 560.22188 68.3725 
L 560.22188 29.728 
Q 560.22188 27.968 558.46188 27.968 
L 510.78513 27.968 
Q 509.02513 27.968 509.02513 29.728 
L 509.02513 68.3725 
Q 509.02513 70.1325 510.78513 70.1325 
z
" style="fill: #ffffff; opacity: 0.8; stroke: #cccccc; stroke-width: 0.8; stroke-linejoin: miter"/>
    </g>
    <g id="text_36">
     <!-- Source -->
     <g style="fill: #262626" transform="translate(518.139255 38.7825) scale(0.096 -0.096)">
      <use xlink:href="#DejaVuSans-53"/>
      <use xlink:href="#DejaVuSans-6f" transform="translate(63.476562 0)"/>
      <use xlink:href="#DejaVuSans-75" transform="translate(124.658203 0)"/>
      <use xlink:href="#DejaVuSans-72" transform="translate(188.037109 0)"/>
      <use xlink:href="#DejaVuSans-63" transform="translate(226.900391 0)"/>
      <use xlink:href="#DejaVuSans-65" transform="translate(281.880859 0)"/>
     </g>
    </g>
    <g id="line2d_61">
     <path d="M 512.54513 48.785625 
L 521.34513 48.785625 
L 530.14513 48.785625 
" style="fill: none; stroke-dasharray: 4.44,1.92; stroke-dashoffset: 0; stroke: #000000; stroke-width: 1.2"/>
    </g>
    <g id="text_37">
     <!-- HMP -->
     <g style="fill: #262626" transform="translate(537.18513 51.865625) scale(0.088 -0.088)">
      <defs>
       <path id="DejaVuSans-48" d="M 628 4666 
L 1259 4666 
L 1259 2753 
L 3553 2753 
L 3553 4666 
L 4184 4666 
L 4184 0 
L 3553 0 
L 3553 2222 
L 1259 2222 
L 1259 0 
L 628 0 
L 628 4666 
z
" transform="scale(0.015625)"/>
       <path id="DejaVuSans-4d" d="M 628 4666 
L 1569 4666 
L 2759 1491 
L 3956 4666 
L 4897 4666 
L 4897 0 
L 4281 0 
L 4281 4097 
L 3078 897 
L 2444 897 
L 1241 4097 
L 1241 0 
L 628 0 
L 628 4666 
z
" transform="scale(0.015625)"/>
       <path id="DejaVuSans-50" d="M 1259 4147 
L 1259 2394 
L 2053 2394 
Q 2494 2394 2734 2622 
Q 2975 2850 2975 3272 
Q 2975 3691 2734 3919 
Q 2494 4147 2053 4147 
L 1259 4147 
z
M 628 4666 
L 2053 4666 
Q 2838 4666 3239 4311 
Q 3641 3956 3641 3272 
Q 3641 2581 3239 2228 
Q 2838 1875 2053 1875 
L 1259 1875 
L 1259 0 
L 628 0 
L 628 4666 
z
" transform="scale(0.015625)"/>
      </defs>
      <use xlink:href="#DejaVuSans-48"/>
      <use xlink:href="#DejaVuSans-4d" transform="translate(75.195312 0)"/>
      <use xlink:href="#DejaVuSans-50" transform="translate(161.474609 0)"/>
     </g>
    </g>
    <g id="line2d_62">
     <path d="M 512.54513 61.702375 
L 521.34513 61.702375 
L 530.14513 61.702375 
" style="fill: none; stroke: #000000; stroke-width: 1.2; stroke-linecap: round"/>
    </g>
    <g id="text_38">
     <!-- S4 -->
     <g style="fill: #262626" transform="translate(537.18513 64.782375) scale(0.088 -0.088)">
      <use xlink:href="#DejaVuSans-53"/>
      <use xlink:href="#DejaVuSans-34" transform="translate(63.476562 0)"/>
     </g>
    </g>
   </g>
   <g id="legend_4"/>
  </g>
  <g id="text_39">
   <!-- Probability density -->
   <g style="fill: #262626" transform="translate(20.2734 197.3961) rotate(-90) scale(0.1152 -0.1152)">
    <defs>
     <path id="DejaVuSans-62" d="M 3116 1747 
Q 3116 2381 2855 2742 
Q 2594 3103 2138 3103 
Q 1681 3103 1420 2742 
Q 1159 2381 1159 1747 
Q 1159 1113 1420 752 
Q 1681 391 2138 391 
Q 2594 391 2855 752 
Q 3116 1113 3116 1747 
z
M 1159 2969 
Q 1341 3281 1617 3432 
Q 1894 3584 2278 3584 
Q 2916 3584 3314 3078 
Q 3713 2572 3713 1747 
Q 3713 922 3314 415 
Q 2916 -91 2278 -91 
Q 1894 -91 1617 61 
Q 1341 213 1159 525 
L 1159 0 
L 581 0 
L 581 4863 
L 1159 4863 
L 1159 2969 
z
" transform="scale(0.015625)"/>
     <path id="DejaVuSans-6c" d="M 603 4863 
L 1178 4863 
L 1178 0 
L 603 0 
L 603 4863 
z
" transform="scale(0.015625)"/>
     <path id="DejaVuSans-20" transform="scale(0.015625)"/>
    </defs>
    <use xlink:href="#DejaVuSans-50"/>
    <use xlink:href="#DejaVuSans-72" transform="translate(58.552734 0)"/>
    <use xlink:href="#DejaVuSans-6f" transform="translate(97.416016 0)"/>
    <use xlink:href="#DejaVuSans-62" transform="translate(158.597656 0)"/>
    <use xlink:href="#DejaVuSans-61" transform="translate(222.074219 0)"/>
    <use xlink:href="#DejaVuSans-62" transform="translate(283.353516 0)"/>
    <use xlink:href="#DejaVuSans-69" transform="translate(346.830078 0)"/>
    <use xlink:href="#DejaVuSans-6c" transform="translate(374.613281 0)"/>
    <use xlink:href="#DejaVuSans-69" transform="translate(402.396484 0)"/>
    <use xlink:href="#DejaVuSans-74" transform="translate(430.179688 0)"/>
    <use xlink:href="#DejaVuSans-79" transform="translate(469.388672 0)"/>
    <use xlink:href="#DejaVuSans-20" transform="translate(528.568359 0)"/>
    <use xlink:href="#DejaVuSans-64" transform="translate(560.355469 0)"/>
    <use xlink:href="#DejaVuSans-65" transform="translate(623.832031 0)"/>
    <use xlink:href="#DejaVuSans-6e" transform="translate(685.355469 0)"/>
    <use xlink:href="#DejaVuSans-73" transform="translate(748.734375 0)"/>
    <use xlink:href="#DejaVuSans-69" transform="translate(800.833984 0)"/>
    <use xlink:href="#DejaVuSans-74" transform="translate(828.617188 0)"/>
    <use xlink:href="#DejaVuSans-79" transform="translate(867.826172 0)"/>
   </g>
  </g>
  <g id="text_40">
   <!-- Scaled time -->
   <g style="fill: #262626" transform="translate(254.0016 282.7242) scale(0.1152 -0.1152)">
    <use xlink:href="#DejaVuSans-53"/>
    <use xlink:href="#DejaVuSans-63" transform="translate(63.476562 0)"/>
    <use xlink:href="#DejaVuSans-61" transform="translate(118.457031 0)"/>
    <use xlink:href="#DejaVuSans-6c" transform="translate(179.736328 0)"/>
    <use xlink:href="#DejaVuSans-65" transform="translate(207.519531 0)"/>
    <use xlink:href="#DejaVuSans-64" transform="translate(269.042969 0)"/>
    <use xlink:href="#DejaVuSans-20" transform="translate(332.519531 0)"/>
    <use xlink:href="#DejaVuSans-74" transform="translate(364.306641 0)"/>
    <use xlink:href="#DejaVuSans-69" transform="translate(403.515625 0)"/>
    <use xlink:href="#DejaVuSans-6d" transform="translate(431.298828 0)"/>
    <use xlink:href="#DejaVuSans-65" transform="translate(528.710938 0)"/>
   </g>
  </g>
 </g>
 <defs>
  <clipPath id="pfbd06e3839">
   <rect x="65.036" y="23.568" width="241.70388" height="215.236"/>
  </clipPath>
  <clipPath id="p414d2b84cc">
   <rect x="322.918" y="23.568" width="241.70388" height="215.236"/>
  </clipPath>
 </defs>
</svg>
