<?xml version="1.0" encoding="utf-8" standalone="no"?>
<!DOCTYPE svg PUBLIC "-//W3C//DTD SVG 1.1//EN"
  "http://www.w3.org/Graphics/SVG/1.1/DTD/svg11.dtd">
<svg xmlns:xlink="http://www.w3.org/1999/xlink" width="576pt" height="288pt" viewBox="0 0 576 288" xmlns="http://www.w3.org/2000/svg" version="1.1">
 <metadata>
  <rdf:RDF xmlns:dc="http://purl.org/dc/elements/1.1/" xmlns:cc="http://creativecommons.org/ns#" xmlns:rdf="http://www.w3.org/1999/02/22-rdf-syntax-ns#">
   <cc:Work>
    <dc:type rdf:resource="http://purl.org/dc/dcmitype/StillImage"/>
    <dc:date>2024-11-01T09:43:46.416673</dc:date>
    <dc:format>image/svg+xml</dc:format>
    <dc:creator>
     <cc:Agent>
      <dc:title>Matplotlib v3.9.2, https://matplotlib.org/</dc:title>
     </cc:Agent>
    </dc:creator>
   </cc:Work>
  </rdf:RDF>
 </metadata>
 <defs>
  <style type="text/css">*{stroke-linejoin: round; stroke-linecap: butt}</style>
 </defs>
 <g id="figure_1">
  <g id="patch_1">
   <path d="M 0 288 
L 576 288 
L 576 0 
L 0 0 
L 0 288 
z
" style="fill: none"/>
  </g>
  <g id="axes_1">
   <g id="patch_2">
    <path d="M 46.068 238.804 
L 278.676 238.804 
L 278.676 13.968 
L 46.068 13.968 
L 46.068 238.804 
z
" style="fill: none"/>
   </g>
   <g id="matplotlib.axis_1">
    <g id="xtick_1">
     <g id="line2d_1">
      <defs>
       <path id="mf92e45d837" d="M 0 0 
L 0 4.8 
" style="stroke: #262626"/>
      </defs>
      <g>
       <use xlink:href="#mf92e45d837" x="104.22" y="238.804" style="fill: #262626; stroke: #262626"/>
      </g>
     </g>
     <g id="text_1">
      <!-- accuracy -->
      <g style="fill: #262626" transform="translate(84.36775 253.790625) scale(0.088 -0.088)">
       <defs>
        <path id="DejaVuSans-61" d="M 2194 1759 
Q 1497 1759 1228 1600 
Q 959 1441 959 1056 
Q 959 750 1161 570 
Q 1363 391 1709 391 
Q 2188 391 2477 730 
Q 2766 1069 2766 1631 
L 2766 1759 
L 2194 1759 
z
M 3341 1997 
L 3341 0 
L 2766 0 
L 2766 531 
Q 2569 213 2275 61 
Q 1981 -91 1556 -91 
Q 1019 -91 701 211 
Q 384 513 384 1019 
Q 384 1609 779 1909 
Q 1175 2209 1959 2209 
L 2766 2209 
L 2766 2266 
Q 2766 2663 2505 2880 
Q 2244 3097 1772 3097 
Q 1472 3097 1187 3025 
Q 903 2953 641 2809 
L 641 3341 
Q 956 3463 1253 3523 
Q 1550 3584 1831 3584 
Q 2591 3584 2966 3190 
Q 3341 2797 3341 1997 
z
" transform="scale(0.015625)"/>
        <path id="DejaVuSans-63" d="M 3122 3366 
L 3122 2828 
Q 2878 2963 2633 3030 
Q 2388 3097 2138 3097 
Q 1578 3097 1268 2742 
Q 959 2388 959 1747 
Q 959 1106 1268 751 
Q 1578 397 2138 397 
Q 2388 397 2633 464 
Q 2878 531 3122 666 
L 3122 134 
Q 2881 22 2623 -34 
Q 2366 -91 2075 -91 
Q 1284 -91 818 406 
Q 353 903 353 1747 
Q 353 2603 823 3093 
Q 1294 3584 2113 3584 
Q 2378 3584 2631 3529 
Q 2884 3475 3122 3366 
z
" transform="scale(0.015625)"/>
        <path id="DejaVuSans-75" d="M 544 1381 
L 544 3500 
L 1119 3500 
L 1119 1403 
Q 1119 906 1312 657 
Q 1506 409 1894 409 
Q 2359 409 2629 706 
Q 2900 1003 2900 1516 
L 2900 3500 
L 3475 3500 
L 3475 0 
L 2900 0 
L 2900 538 
Q 2691 219 2414 64 
Q 2138 -91 1772 -91 
Q 1169 -91 856 284 
Q 544 659 544 1381 
z
M 1991 3584 
L 1991 3584 
z
" transform="scale(0.015625)"/>
        <path id="DejaVuSans-72" d="M 2631 2963 
Q 2534 3019 2420 3045 
Q 2306 3072 2169 3072 
Q 1681 3072 1420 2755 
Q 1159 2438 1159 1844 
L 1159 0 
L 581 0 
L 581 3500 
L 1159 3500 
L 1159 2956 
Q 1341 3275 1631 3429 
Q 1922 3584 2338 3584 
Q 2397 3584 2469 3576 
Q 2541 3569 2628 3553 
L 2631 2963 
z
" transform="scale(0.015625)"/>
        <path id="DejaVuSans-79" d="M 2059 -325 
Q 1816 -950 1584 -1140 
Q 1353 -1331 966 -1331 
L 506 -1331 
L 506 -850 
L 844 -850 
Q 1081 -850 1212 -737 
Q 1344 -625 1503 -206 
L 1606 56 
L 191 3500 
L 800 3500 
L 1894 763 
L 2988 3500 
L 3597 3500 
L 2059 -325 
z
" transform="scale(0.015625)"/>
       </defs>
       <use xlink:href="#DejaVuSans-61"/>
       <use xlink:href="#DejaVuSans-63" x="61.279297"/>
       <use xlink:href="#DejaVuSans-63" x="116.259766"/>
       <use xlink:href="#DejaVuSans-75" x="171.240234"/>
       <use xlink:href="#DejaVuSans-72" x="234.619141"/>
       <use xlink:href="#DejaVuSans-61" x="275.732422"/>
       <use xlink:href="#DejaVuSans-63" x="337.011719"/>
       <use xlink:href="#DejaVuSans-79" x="391.992188"/>
      </g>
     </g>
    </g>
    <g id="xtick_2">
     <g id="line2d_2">
      <g>
       <use xlink:href="#mf92e45d837" x="220.524" y="238.804" style="fill: #262626; stroke: #262626"/>
      </g>
     </g>
     <g id="text_2">
      <!-- speed -->
      <g style="fill: #262626" transform="translate(207.2305 253.790625) scale(0.088 -0.088)">
       <defs>
        <path id="DejaVuSans-73" d="M 2834 3397 
L 2834 2853 
Q 2591 2978 2328 3040 
Q 2066 3103 1784 3103 
Q 1356 3103 1142 2972 
Q 928 2841 928 2578 
Q 928 2378 1081 2264 
Q 1234 2150 1697 2047 
L 1894 2003 
Q 2506 1872 2764 1633 
Q 3022 1394 3022 966 
Q 3022 478 2636 193 
Q 2250 -91 1575 -91 
Q 1294 -91 989 -36 
Q 684 19 347 128 
L 347 722 
Q 666 556 975 473 
Q 1284 391 1588 391 
Q 1994 391 2212 530 
Q 2431 669 2431 922 
Q 2431 1156 2273 1281 
Q 2116 1406 1581 1522 
L 1381 1569 
Q 847 1681 609 1914 
Q 372 2147 372 2553 
Q 372 3047 722 3315 
Q 1072 3584 1716 3584 
Q 2034 3584 2315 3537 
Q 2597 3491 2834 3397 
z
" transform="scale(0.015625)"/>
        <path id="DejaVuSans-70" d="M 1159 525 
L 1159 -1331 
L 581 -1331 
L 581 3500 
L 1159 3500 
L 1159 2969 
Q 1341 3281 1617 3432 
Q 1894 3584 2278 3584 
Q 2916 3584 3314 3078 
Q 3713 2572 3713 1747 
Q 3713 922 3314 415 
Q 2916 -91 2278 -91 
Q 1894 -91 1617 61 
Q 1341 213 1159 525 
z
M 3116 1747 
Q 3116 2381 2855 2742 
Q 2594 3103 2138 3103 
Q 1681 3103 1420 2742 
Q 1159 2381 1159 1747 
Q 1159 1113 1420 752 
Q 1681 391 2138 391 
Q 2594 391 2855 752 
Q 3116 1113 3116 1747 
z
" transform="scale(0.015625)"/>
        <path id="DejaVuSans-65" d="M 3597 1894 
L 3597 1613 
L 953 1613 
Q 991 1019 1311 708 
Q 1631 397 2203 397 
Q 2534 397 2845 478 
Q 3156 559 3463 722 
L 3463 178 
Q 3153 47 2828 -22 
Q 2503 -91 2169 -91 
Q 1331 -91 842 396 
Q 353 884 353 1716 
Q 353 2575 817 3079 
Q 1281 3584 2069 3584 
Q 2775 3584 3186 3129 
Q 3597 2675 3597 1894 
z
M 3022 2063 
Q 3016 2534 2758 2815 
Q 2500 3097 2075 3097 
Q 1594 3097 1305 2825 
Q 1016 2553 972 2059 
L 3022 2063 
z
" transform="scale(0.015625)"/>
        <path id="DejaVuSans-64" d="M 2906 2969 
L 2906 4863 
L 3481 4863 
L 3481 0 
L 2906 0 
L 2906 525 
Q 2725 213 2448 61 
Q 2172 -91 1784 -91 
Q 1150 -91 751 415 
Q 353 922 353 1747 
Q 353 2572 751 3078 
Q 1150 3584 1784 3584 
Q 2172 3584 2448 3432 
Q 2725 3281 2906 2969 
z
M 947 1747 
Q 947 1113 1208 752 
Q 1469 391 1925 391 
Q 2381 391 2643 752 
Q 2906 1113 2906 1747 
Q 2906 2381 2643 2742 
Q 2381 3103 1925 3103 
Q 1469 3103 1208 2742 
Q 947 2381 947 1747 
z
" transform="scale(0.015625)"/>
       </defs>
       <use xlink:href="#DejaVuSans-73"/>
       <use xlink:href="#DejaVuSans-70" x="52.099609"/>
       <use xlink:href="#DejaVuSans-65" x="115.576172"/>
       <use xlink:href="#DejaVuSans-65" x="177.099609"/>
       <use xlink:href="#DejaVuSans-64" x="238.623047"/>
      </g>
     </g>
    </g>
   </g>
   <g id="matplotlib.axis_2">
    <g id="ytick_1">
     <g id="line2d_3">
      <defs>
       <path id="m122e94c53d" d="M 0 0 
L -4.8 0 
" style="stroke: #262626"/>
      </defs>
      <g>
       <use xlink:href="#m122e94c53d" x="46.068" y="238.804" style="fill: #262626; stroke: #262626"/>
      </g>
     </g>
     <g id="text_3">
      <!-- 0.5 -->
      <g style="fill: #262626" transform="translate(23.77325 242.147312) scale(0.088 -0.088)">
       <defs>
        <path id="DejaVuSans-30" d="M 2034 4250 
Q 1547 4250 1301 3770 
Q 1056 3291 1056 2328 
Q 1056 1369 1301 889 
Q 1547 409 2034 409 
Q 2525 409 2770 889 
Q 3016 1369 3016 2328 
Q 3016 3291 2770 3770 
Q 2525 4250 2034 4250 
z
M 2034 4750 
Q 2819 4750 3233 4129 
Q 3647 3509 3647 2328 
Q 3647 1150 3233 529 
Q 2819 -91 2034 -91 
Q 1250 -91 836 529 
Q 422 1150 422 2328 
Q 422 3509 836 4129 
Q 1250 4750 2034 4750 
z
" transform="scale(0.015625)"/>
        <path id="DejaVuSans-2e" d="M 684 794 
L 1344 794 
L 1344 0 
L 684 0 
L 684 794 
z
" transform="scale(0.015625)"/>
        <path id="DejaVuSans-35" d="M 691 4666 
L 3169 4666 
L 3169 4134 
L 1269 4134 
L 1269 2991 
Q 1406 3038 1543 3061 
Q 1681 3084 1819 3084 
Q 2600 3084 3056 2656 
Q 3513 2228 3513 1497 
Q 3513 744 3044 326 
Q 2575 -91 1722 -91 
Q 1428 -91 1123 -41 
Q 819 9 494 109 
L 494 744 
Q 775 591 1075 516 
Q 1375 441 1709 441 
Q 2250 441 2565 725 
Q 2881 1009 2881 1497 
Q 2881 1984 2565 2268 
Q 2250 2553 1709 2553 
Q 1456 2553 1204 2497 
Q 953 2441 691 2322 
L 691 4666 
z
" transform="scale(0.015625)"/>
       </defs>
       <use xlink:href="#DejaVuSans-30"/>
       <use xlink:href="#DejaVuSans-2e" x="63.623047"/>
       <use xlink:href="#DejaVuSans-35" x="95.410156"/>
      </g>
     </g>
    </g>
    <g id="ytick_2">
     <g id="line2d_4">
      <g>
       <use xlink:href="#m122e94c53d" x="46.068" y="193.8368" style="fill: #262626; stroke: #262626"/>
      </g>
     </g>
     <g id="text_4">
      <!-- 0.6 -->
      <g style="fill: #262626" transform="translate(23.77325 197.180112) scale(0.088 -0.088)">
       <defs>
        <path id="DejaVuSans-36" d="M 2113 2584 
Q 1688 2584 1439 2293 
Q 1191 2003 1191 1497 
Q 1191 994 1439 701 
Q 1688 409 2113 409 
Q 2538 409 2786 701 
Q 3034 994 3034 1497 
Q 3034 2003 2786 2293 
Q 2538 2584 2113 2584 
z
M 3366 4563 
L 3366 3988 
Q 3128 4100 2886 4159 
Q 2644 4219 2406 4219 
Q 1781 4219 1451 3797 
Q 1122 3375 1075 2522 
Q 1259 2794 1537 2939 
Q 1816 3084 2150 3084 
Q 2853 3084 3261 2657 
Q 3669 2231 3669 1497 
Q 3669 778 3244 343 
Q 2819 -91 2113 -91 
Q 1303 -91 875 529 
Q 447 1150 447 2328 
Q 447 3434 972 4092 
Q 1497 4750 2381 4750 
Q 2619 4750 2861 4703 
Q 3103 4656 3366 4563 
z
" transform="scale(0.015625)"/>
       </defs>
       <use xlink:href="#DejaVuSans-30"/>
       <use xlink:href="#DejaVuSans-2e" x="63.623047"/>
       <use xlink:href="#DejaVuSans-36" x="95.410156"/>
      </g>
     </g>
    </g>
    <g id="ytick_3">
     <g id="line2d_5">
      <g>
       <use xlink:href="#m122e94c53d" x="46.068" y="148.8696" style="fill: #262626; stroke: #262626"/>
      </g>
     </g>
     <g id="text_5">
      <!-- 0.7 -->
      <g style="fill: #262626" transform="translate(23.77325 152.212912) scale(0.088 -0.088)">
       <defs>
        <path id="DejaVuSans-37" d="M 525 4666 
L 3525 4666 
L 3525 4397 
L 1831 0 
L 1172 0 
L 2766 4134 
L 525 4134 
L 525 4666 
z
" transform="scale(0.015625)"/>
       </defs>
       <use xlink:href="#DejaVuSans-30"/>
       <use xlink:href="#DejaVuSans-2e" x="63.623047"/>
       <use xlink:href="#DejaVuSans-37" x="95.410156"/>
      </g>
     </g>
    </g>
    <g id="ytick_4">
     <g id="line2d_6">
      <g>
       <use xlink:href="#m122e94c53d" x="46.068" y="103.9024" style="fill: #262626; stroke: #262626"/>
      </g>
     </g>
     <g id="text_6">
      <!-- 0.8 -->
      <g style="fill: #262626" transform="translate(23.77325 107.245712) scale(0.088 -0.088)">
       <defs>
        <path id="DejaVuSans-38" d="M 2034 2216 
Q 1584 2216 1326 1975 
Q 1069 1734 1069 1313 
Q 1069 891 1326 650 
Q 1584 409 2034 409 
Q 2484 409 2743 651 
Q 3003 894 3003 1313 
Q 3003 1734 2745 1975 
Q 2488 2216 2034 2216 
z
M 1403 2484 
Q 997 2584 770 2862 
Q 544 3141 544 3541 
Q 544 4100 942 4425 
Q 1341 4750 2034 4750 
Q 2731 4750 3128 4425 
Q 3525 4100 3525 3541 
Q 3525 3141 3298 2862 
Q 3072 2584 2669 2484 
Q 3125 2378 3379 2068 
Q 3634 1759 3634 1313 
Q 3634 634 3220 271 
Q 2806 -91 2034 -91 
Q 1263 -91 848 271 
Q 434 634 434 1313 
Q 434 1759 690 2068 
Q 947 2378 1403 2484 
z
M 1172 3481 
Q 1172 3119 1398 2916 
Q 1625 2713 2034 2713 
Q 2441 2713 2670 2916 
Q 2900 3119 2900 3481 
Q 2900 3844 2670 4047 
Q 2441 4250 2034 4250 
Q 1625 4250 1398 4047 
Q 1172 3844 1172 3481 
z
" transform="scale(0.015625)"/>
       </defs>
       <use xlink:href="#DejaVuSans-30"/>
       <use xlink:href="#DejaVuSans-2e" x="63.623047"/>
       <use xlink:href="#DejaVuSans-38" x="95.410156"/>
      </g>
     </g>
    </g>
    <g id="ytick_5">
     <g id="line2d_7">
      <g>
       <use xlink:href="#m122e94c53d" x="46.068" y="58.9352" style="fill: #262626; stroke: #262626"/>
      </g>
     </g>
     <g id="text_7">
      <!-- 0.9 -->
      <g style="fill: #262626" transform="translate(23.77325 62.278513) scale(0.088 -0.088)">
       <defs>
        <path id="DejaVuSans-39" d="M 703 97 
L 703 672 
Q 941 559 1184 500 
Q 1428 441 1663 441 
Q 2288 441 2617 861 
Q 2947 1281 2994 2138 
Q 2813 1869 2534 1725 
Q 2256 1581 1919 1581 
Q 1219 1581 811 2004 
Q 403 2428 403 3163 
Q 403 3881 828 4315 
Q 1253 4750 1959 4750 
Q 2769 4750 3195 4129 
Q 3622 3509 3622 2328 
Q 3622 1225 3098 567 
Q 2575 -91 1691 -91 
Q 1453 -91 1209 -44 
Q 966 3 703 97 
z
M 1959 2075 
Q 2384 2075 2632 2365 
Q 2881 2656 2881 3163 
Q 2881 3666 2632 3958 
Q 2384 4250 1959 4250 
Q 1534 4250 1286 3958 
Q 1038 3666 1038 3163 
Q 1038 2656 1286 2365 
Q 1534 2075 1959 2075 
z
" transform="scale(0.015625)"/>
       </defs>
       <use xlink:href="#DejaVuSans-30"/>
       <use xlink:href="#DejaVuSans-2e" x="63.623047"/>
       <use xlink:href="#DejaVuSans-39" x="95.410156"/>
      </g>
     </g>
    </g>
    <g id="ytick_6">
     <g id="line2d_8">
      <g>
       <use xlink:href="#m122e94c53d" x="46.068" y="13.968" style="fill: #262626; stroke: #262626"/>
      </g>
     </g>
     <g id="text_8">
      <!-- 1.0 -->
      <g style="fill: #262626" transform="translate(23.77325 17.311313) scale(0.088 -0.088)">
       <defs>
        <path id="DejaVuSans-31" d="M 794 531 
L 1825 531 
L 1825 4091 
L 703 3866 
L 703 4441 
L 1819 4666 
L 2450 4666 
L 2450 531 
L 3481 531 
L 3481 0 
L 794 0 
L 794 531 
z
" transform="scale(0.015625)"/>
       </defs>
       <use xlink:href="#DejaVuSans-31"/>
       <use xlink:href="#DejaVuSans-2e" x="63.623047"/>
       <use xlink:href="#DejaVuSans-30" x="95.410156"/>
      </g>
     </g>
    </g>
    <g id="text_9">
     <!-- Probability of correct response -->
     <g style="fill: #262626" transform="translate(17.77675 199.56575) rotate(-90) scale(0.096 -0.096)">
      <defs>
       <path id="DejaVuSans-50" d="M 1259 4147 
L 1259 2394 
L 2053 2394 
Q 2494 2394 2734 2622 
Q 2975 2850 2975 3272 
Q 2975 3691 2734 3919 
Q 2494 4147 2053 4147 
L 1259 4147 
z
M 628 4666 
L 2053 4666 
Q 2838 4666 3239 4311 
Q 3641 3956 3641 3272 
Q 3641 2581 3239 2228 
Q 2838 1875 2053 1875 
L 1259 1875 
L 1259 0 
L 628 0 
L 628 4666 
z
" transform="scale(0.015625)"/>
       <path id="DejaVuSans-6f" d="M 1959 3097 
Q 1497 3097 1228 2736 
Q 959 2375 959 1747 
Q 959 1119 1226 758 
Q 1494 397 1959 397 
Q 2419 397 2687 759 
Q 2956 1122 2956 1747 
Q 2956 2369 2687 2733 
Q 2419 3097 1959 3097 
z
M 1959 3584 
Q 2709 3584 3137 3096 
Q 3566 2609 3566 1747 
Q 3566 888 3137 398 
Q 2709 -91 1959 -91 
Q 1206 -91 779 398 
Q 353 888 353 1747 
Q 353 2609 779 3096 
Q 1206 3584 1959 3584 
z
" transform="scale(0.015625)"/>
       <path id="DejaVuSans-62" d="M 3116 1747 
Q 3116 2381 2855 2742 
Q 2594 3103 2138 3103 
Q 1681 3103 1420 2742 
Q 1159 2381 1159 1747 
Q 1159 1113 1420 752 
Q 1681 391 2138 391 
Q 2594 391 2855 752 
Q 3116 1113 3116 1747 
z
M 1159 2969 
Q 1341 3281 1617 3432 
Q 1894 3584 2278 3584 
Q 2916 3584 3314 3078 
Q 3713 2572 3713 1747 
Q 3713 922 3314 415 
Q 2916 -91 2278 -91 
Q 1894 -91 1617 61 
Q 1341 213 1159 525 
L 1159 0 
L 581 0 
L 581 4863 
L 1159 4863 
L 1159 2969 
z
" transform="scale(0.015625)"/>
       <path id="DejaVuSans-69" d="M 603 3500 
L 1178 3500 
L 1178 0 
L 603 0 
L 603 3500 
z
M 603 4863 
L 1178 4863 
L 1178 4134 
L 603 4134 
L 603 4863 
z
" transform="scale(0.015625)"/>
       <path id="DejaVuSans-6c" d="M 603 4863 
L 1178 4863 
L 1178 0 
L 603 0 
L 603 4863 
z
" transform="scale(0.015625)"/>
       <path id="DejaVuSans-74" d="M 1172 4494 
L 1172 3500 
L 2356 3500 
L 2356 3053 
L 1172 3053 
L 1172 1153 
Q 1172 725 1289 603 
Q 1406 481 1766 481 
L 2356 481 
L 2356 0 
L 1766 0 
Q 1100 0 847 248 
Q 594 497 594 1153 
L 594 3053 
L 172 3053 
L 172 3500 
L 594 3500 
L 594 4494 
L 1172 4494 
z
" transform="scale(0.015625)"/>
       <path id="DejaVuSans-20" transform="scale(0.015625)"/>
       <path id="DejaVuSans-66" d="M 2375 4863 
L 2375 4384 
L 1825 4384 
Q 1516 4384 1395 4259 
Q 1275 4134 1275 3809 
L 1275 3500 
L 2222 3500 
L 2222 3053 
L 1275 3053 
L 1275 0 
L 697 0 
L 697 3053 
L 147 3053 
L 147 3500 
L 697 3500 
L 697 3744 
Q 697 4328 969 4595 
Q 1241 4863 1831 4863 
L 2375 4863 
z
" transform="scale(0.015625)"/>
       <path id="DejaVuSans-6e" d="M 3513 2113 
L 3513 0 
L 2938 0 
L 2938 2094 
Q 2938 2591 2744 2837 
Q 2550 3084 2163 3084 
Q 1697 3084 1428 2787 
Q 1159 2491 1159 1978 
L 1159 0 
L 581 0 
L 581 3500 
L 1159 3500 
L 1159 2956 
Q 1366 3272 1645 3428 
Q 1925 3584 2291 3584 
Q 2894 3584 3203 3211 
Q 3513 2838 3513 2113 
z
" transform="scale(0.015625)"/>
      </defs>
      <use xlink:href="#DejaVuSans-50"/>
      <use xlink:href="#DejaVuSans-72" x="58.552734"/>
      <use xlink:href="#DejaVuSans-6f" x="97.416016"/>
      <use xlink:href="#DejaVuSans-62" x="158.597656"/>
      <use xlink:href="#DejaVuSans-61" x="222.074219"/>
      <use xlink:href="#DejaVuSans-62" x="283.353516"/>
      <use xlink:href="#DejaVuSans-69" x="346.830078"/>
      <use xlink:href="#DejaVuSans-6c" x="374.613281"/>
      <use xlink:href="#DejaVuSans-69" x="402.396484"/>
      <use xlink:href="#DejaVuSans-74" x="430.179688"/>
      <use xlink:href="#DejaVuSans-79" x="469.388672"/>
      <use xlink:href="#DejaVuSans-20" x="528.568359"/>
      <use xlink:href="#DejaVuSans-6f" x="560.355469"/>
      <use xlink:href="#DejaVuSans-66" x="621.537109"/>
      <use xlink:href="#DejaVuSans-20" x="656.742188"/>
      <use xlink:href="#DejaVuSans-63" x="688.529297"/>
      <use xlink:href="#DejaVuSans-6f" x="743.509766"/>
      <use xlink:href="#DejaVuSans-72" x="804.691406"/>
      <use xlink:href="#DejaVuSans-72" x="844.054688"/>
      <use xlink:href="#DejaVuSans-65" x="882.917969"/>
      <use xlink:href="#DejaVuSans-63" x="944.441406"/>
      <use xlink:href="#DejaVuSans-74" x="999.421875"/>
      <use xlink:href="#DejaVuSans-20" x="1038.630859"/>
      <use xlink:href="#DejaVuSans-72" x="1070.417969"/>
      <use xlink:href="#DejaVuSans-65" x="1109.28125"/>
      <use xlink:href="#DejaVuSans-73" x="1170.804688"/>
      <use xlink:href="#DejaVuSans-70" x="1222.904297"/>
      <use xlink:href="#DejaVuSans-6f" x="1286.380859"/>
      <use xlink:href="#DejaVuSans-6e" x="1347.5625"/>
      <use xlink:href="#DejaVuSans-73" x="1410.941406"/>
      <use xlink:href="#DejaVuSans-65" x="1463.041016"/>
     </g>
    </g>
   </g>
   <g id="PolyCollection_1">
    <defs>
     <path id="m894f3000d2" d="M 123.775677 -178.556263 
L 84.664323 -178.556263 
L 83.421515 -179.262077 
L 82.147991 -179.967891 
L 80.847685 -180.673705 
L 79.525033 -181.37952 
L 78.184965 -182.085334 
L 76.832901 -182.791148 
L 75.474723 -183.496962 
L 74.116746 -184.202776 
L 72.76568 -184.90859 
L 71.428575 -185.614404 
L 70.112761 -186.320218 
L 68.825776 -187.026033 
L 67.57529 -187.731847 
L 66.369012 -188.437661 
L 65.214599 -189.143475 
L 64.11956 -189.849289 
L 63.091151 -190.555103 
L 62.136277 -191.260917 
L 61.261393 -191.966731 
L 60.472405 -192.672546 
L 59.774581 -193.37836 
L 59.172471 -194.084174 
L 58.669832 -194.789988 
L 58.269569 -195.495802 
L 57.973688 -196.201616 
L 57.783259 -196.90743 
L 57.6984 -197.613244 
L 57.71827 -198.319059 
L 57.841082 -199.024873 
L 58.064126 -199.730687 
L 58.383807 -200.436501 
L 58.795703 -201.142315 
L 59.294619 -201.848129 
L 59.874671 -202.553943 
L 60.529359 -203.259757 
L 61.251662 -203.965572 
L 62.034129 -204.671386 
L 62.868979 -205.3772 
L 63.748197 -206.083014 
L 64.663635 -206.788828 
L 65.607109 -207.494642 
L 66.570495 -208.200456 
L 67.545815 -208.90627 
L 68.525327 -209.612085 
L 69.501605 -210.317899 
L 70.467608 -211.023713 
L 71.416747 -211.729527 
L 72.342947 -212.435341 
L 73.240692 -213.141155 
L 74.10507 -213.846969 
L 74.931807 -214.552783 
L 75.717292 -215.258598 
L 76.458596 -215.964412 
L 77.15348 -216.670226 
L 77.800394 -217.37604 
L 78.398478 -218.081854 
L 78.947539 -218.787668 
L 79.448034 -219.493482 
L 79.901038 -220.199296 
L 80.308211 -220.905111 
L 80.671753 -221.610925 
L 80.994354 -222.316739 
L 81.279145 -223.022553 
L 81.529635 -223.728367 
L 81.749649 -224.434181 
L 81.943267 -225.139995 
L 82.114751 -225.845809 
L 82.268482 -226.551624 
L 82.408889 -227.257438 
L 82.540385 -227.963252 
L 82.667301 -228.669066 
L 82.79383 -229.37488 
L 82.923963 -230.080694 
L 83.061446 -230.786508 
L 83.209734 -231.492322 
L 83.371952 -232.198137 
L 83.550864 -232.903951 
L 83.748852 -233.609765 
L 83.967902 -234.315579 
L 84.209593 -235.021393 
L 84.4751 -235.727207 
L 84.765197 -236.433021 
L 85.080273 -237.138835 
L 85.420349 -237.84465 
L 85.785098 -238.550464 
L 86.173877 -239.256278 
L 86.585752 -239.962092 
L 87.019532 -240.667906 
L 87.473801 -241.37372 
L 87.946951 -242.079534 
L 88.437216 -242.785348 
L 88.942703 -243.491163 
L 89.46142 -244.196977 
L 89.99131 -244.902791 
L 90.53027 -245.608605 
L 91.076182 -246.314419 
L 91.626929 -247.020233 
L 92.180414 -247.726047 
L 92.734583 -248.431861 
L 115.705417 -248.431861 
L 115.705417 -248.431861 
L 116.259586 -247.726047 
L 116.813071 -247.020233 
L 117.363818 -246.314419 
L 117.90973 -245.608605 
L 118.44869 -244.902791 
L 118.97858 -244.196977 
L 119.497297 -243.491163 
L 120.002784 -242.785348 
L 120.493049 -242.079534 
L 120.966199 -241.37372 
L 121.420468 -240.667906 
L 121.854248 -239.962092 
L 122.266123 -239.256278 
L 122.654902 -238.550464 
L 123.019651 -237.84465 
L 123.359727 -237.138835 
L 123.674803 -236.433021 
L 123.9649 -235.727207 
L 124.230407 -235.021393 
L 124.472098 -234.315579 
L 124.691148 -233.609765 
L 124.889136 -232.903951 
L 125.068048 -232.198137 
L 125.230266 -231.492322 
L 125.378554 -230.786508 
L 125.516037 -230.080694 
L 125.64617 -229.37488 
L 125.772699 -228.669066 
L 125.899615 -227.963252 
L 126.031111 -227.257438 
L 126.171518 -226.551624 
L 126.325249 -225.845809 
L 126.496733 -225.139995 
L 126.690351 -224.434181 
L 126.910365 -223.728367 
L 127.160855 -223.022553 
L 127.445646 -222.316739 
L 127.768247 -221.610925 
L 128.131789 -220.905111 
L 128.538962 -220.199296 
L 128.991966 -219.493482 
L 129.492461 -218.787668 
L 130.041522 -218.081854 
L 130.639606 -217.37604 
L 131.28652 -216.670226 
L 131.981404 -215.964412 
L 132.722708 -215.258598 
L 133.508193 -214.552783 
L 134.33493 -213.846969 
L 135.199308 -213.141155 
L 136.097053 -212.435341 
L 137.023253 -211.729527 
L 137.972392 -211.023713 
L 138.938395 -210.317899 
L 139.914673 -209.612085 
L 140.894185 -208.90627 
L 141.869505 -208.200456 
L 142.832891 -207.494642 
L 143.776365 -206.788828 
L 144.691803 -206.083014 
L 145.571021 -205.3772 
L 146.405871 -204.671386 
L 147.188338 -203.965572 
L 147.910641 -203.259757 
L 148.565329 -202.553943 
L 149.145381 -201.848129 
L 149.644297 -201.142315 
L 150.056193 -200.436501 
L 150.375874 -199.730687 
L 150.598918 -199.024873 
L 150.72173 -198.319059 
L 150.7416 -197.613244 
L 150.656741 -196.90743 
L 150.466312 -196.201616 
L 150.170431 -195.495802 
L 149.770168 -194.789988 
L 149.267529 -194.084174 
L 148.665419 -193.37836 
L 147.967595 -192.672546 
L 147.178607 -191.966731 
L 146.303723 -191.260917 
L 145.348849 -190.555103 
L 144.32044 -189.849289 
L 143.225401 -189.143475 
L 142.070988 -188.437661 
L 140.86471 -187.731847 
L 139.614224 -187.026033 
L 138.327239 -186.320218 
L 137.011425 -185.614404 
L 135.67432 -184.90859 
L 134.323254 -184.202776 
L 132.965277 -183.496962 
L 131.607099 -182.791148 
L 130.255035 -182.085334 
L 128.914967 -181.37952 
L 127.592315 -180.673705 
L 126.292009 -179.967891 
L 125.018485 -179.262077 
L 123.775677 -178.556263 
z
" style="stroke: #474747"/>
    </defs>
    <g clip-path="url(#p327a3ac7be)">
     <use xlink:href="#m894f3000d2" x="0" y="288" style="fill: #51779d; stroke: #474747"/>
    </g>
   </g>
   <g id="PolyCollection_2">
    <defs>
     <path id="m433289784c" d="M 238.053154 -107.515235 
L 202.994846 -107.515235 
L 201.933249 -108.51153 
L 200.853361 -109.507824 
L 199.758621 -110.504119 
L 198.65267 -111.500413 
L 197.53931 -112.496708 
L 196.422472 -113.493002 
L 195.306172 -114.489297 
L 194.194464 -115.485591 
L 193.091391 -116.481885 
L 192.000934 -117.47818 
L 190.926958 -118.474474 
L 189.873162 -119.470769 
L 188.843028 -120.467063 
L 187.839775 -121.463358 
L 186.866317 -122.459652 
L 185.925227 -123.455947 
L 185.01871 -124.452241 
L 184.14858 -125.448535 
L 183.316257 -126.44483 
L 182.522759 -127.441124 
L 181.768714 -128.437419 
L 181.054379 -129.433713 
L 180.37967 -130.430008 
L 179.744196 -131.426302 
L 179.147301 -132.422596 
L 178.588119 -133.418891 
L 178.065621 -134.415185 
L 177.578673 -135.41148 
L 177.126096 -136.407774 
L 176.706713 -137.404069 
L 176.319409 -138.400363 
L 175.963174 -139.396658 
L 175.637149 -140.392952 
L 175.340657 -141.389246 
L 175.073234 -142.385541 
L 174.834646 -143.381835 
L 174.624904 -144.37813 
L 174.444261 -145.374424 
L 174.293214 -146.370719 
L 174.172486 -147.367013 
L 174.083006 -148.363308 
L 174.025889 -149.359602 
L 174.0024 -150.355896 
L 174.013921 -151.352191 
L 174.061913 -152.348485 
L 174.147876 -153.34478 
L 174.273307 -154.341074 
L 174.439658 -155.337369 
L 174.648295 -156.333663 
L 174.900454 -157.329957 
L 175.197205 -158.326252 
L 175.539413 -159.322546 
L 175.927701 -160.318841 
L 176.362421 -161.315135 
L 176.843621 -162.31143 
L 177.371026 -163.307724 
L 177.944012 -164.304019 
L 178.56159 -165.300313 
L 179.222399 -166.296607 
L 179.9247 -167.292902 
L 180.666371 -168.289196 
L 181.444925 -169.285491 
L 182.257514 -170.281785 
L 183.100956 -171.27808 
L 183.971766 -172.274374 
L 184.866185 -173.270669 
L 185.780228 -174.266963 
L 186.709733 -175.263257 
L 187.650413 -176.259552 
L 188.597921 -177.255846 
L 189.547908 -178.252141 
L 190.496094 -179.248435 
L 191.438336 -180.24473 
L 192.370687 -181.241024 
L 193.289472 -182.237318 
L 194.191336 -183.233613 
L 195.073306 -184.229907 
L 195.932836 -185.226202 
L 196.767842 -186.222496 
L 197.57673 -187.218791 
L 198.358413 -188.215085 
L 199.112314 -189.21138 
L 199.838358 -190.207674 
L 200.536951 -191.203968 
L 201.208947 -192.200263 
L 201.855608 -193.196557 
L 202.478547 -194.192852 
L 203.079673 -195.189146 
L 203.66112 -196.185441 
L 204.225178 -197.181735 
L 204.774219 -198.178029 
L 205.310627 -199.174324 
L 205.836724 -200.170618 
L 206.354706 -201.166913 
L 206.866585 -202.163207 
L 207.374131 -203.159502 
L 207.878834 -204.155796 
L 208.381872 -205.152091 
L 208.884083 -206.148385 
L 232.163917 -206.148385 
L 232.163917 -206.148385 
L 232.666128 -205.152091 
L 233.169166 -204.155796 
L 233.673869 -203.159502 
L 234.181415 -202.163207 
L 234.693294 -201.166913 
L 235.211276 -200.170618 
L 235.737373 -199.174324 
L 236.273781 -198.178029 
L 236.822822 -197.181735 
L 237.38688 -196.185441 
L 237.968327 -195.189146 
L 238.569453 -194.192852 
L 239.192392 -193.196557 
L 239.839053 -192.200263 
L 240.511049 -191.203968 
L 241.209642 -190.207674 
L 241.935686 -189.21138 
L 242.689587 -188.215085 
L 243.47127 -187.218791 
L 244.280158 -186.222496 
L 245.115164 -185.226202 
L 245.974694 -184.229907 
L 246.856664 -183.233613 
L 247.758528 -182.237318 
L 248.677313 -181.241024 
L 249.609664 -180.24473 
L 250.551906 -179.248435 
L 251.500092 -178.252141 
L 252.450079 -177.255846 
L 253.397587 -176.259552 
L 254.338267 -175.263257 
L 255.267772 -174.266963 
L 256.181815 -173.270669 
L 257.076234 -172.274374 
L 257.947044 -171.27808 
L 258.790486 -170.281785 
L 259.603075 -169.285491 
L 260.381629 -168.289196 
L 261.1233 -167.292902 
L 261.825601 -166.296607 
L 262.48641 -165.300313 
L 263.103988 -164.304019 
L 263.676974 -163.307724 
L 264.204379 -162.31143 
L 264.685579 -161.315135 
L 265.120299 -160.318841 
L 265.508587 -159.322546 
L 265.850795 -158.326252 
L 266.147546 -157.329957 
L 266.399705 -156.333663 
L 266.608342 -155.337369 
L 266.774693 -154.341074 
L 266.900124 -153.34478 
L 266.986087 -152.348485 
L 267.034079 -151.352191 
L 267.0456 -150.355896 
L 267.022111 -149.359602 
L 266.964994 -148.363308 
L 266.875514 -147.367013 
L 266.754786 -146.370719 
L 266.603739 -145.374424 
L 266.423096 -144.37813 
L 266.213354 -143.381835 
L 265.974766 -142.385541 
L 265.707343 -141.389246 
L 265.410851 -140.392952 
L 265.084826 -139.396658 
L 264.728591 -138.400363 
L 264.341287 -137.404069 
L 263.921904 -136.407774 
L 263.469327 -135.41148 
L 262.982379 -134.415185 
L 262.459881 -133.418891 
L 261.900699 -132.422596 
L 261.303804 -131.426302 
L 260.66833 -130.430008 
L 259.993621 -129.433713 
L 259.279286 -128.437419 
L 258.525241 -127.441124 
L 257.731743 -126.44483 
L 256.89942 -125.448535 
L 256.02929 -124.452241 
L 255.122773 -123.455947 
L 254.181683 -122.459652 
L 253.208225 -121.463358 
L 252.204972 -120.467063 
L 251.174838 -119.470769 
L 250.121042 -118.474474 
L 249.047066 -117.47818 
L 247.956609 -116.481885 
L 246.853536 -115.485591 
L 245.741828 -114.489297 
L 244.625528 -113.493002 
L 243.50869 -112.496708 
L 242.39533 -111.500413 
L 241.289379 -110.504119 
L 240.194639 -109.507824 
L 239.114751 -108.51153 
L 238.053154 -107.515235 
z
" style="stroke: #474747"/>
    </defs>
    <g clip-path="url(#p327a3ac7be)">
     <use xlink:href="#m433289784c" x="0" y="288" style="fill: #77c4dd; stroke: #474747"/>
    </g>
   </g>
   <g id="line2d_9">
    <path d="M 104.22 109.443737 
L 104.22 39.568139 
" clip-path="url(#p327a3ac7be)" style="fill: none; stroke: #474747; stroke-width: 1.5; stroke-linecap: round"/>
   </g>
   <g id="line2d_10">
    <path d="M 104.22 95.054838 
L 104.22 66.299222 
" clip-path="url(#p327a3ac7be)" style="fill: none; stroke: #474747; stroke-width: 4.5; stroke-linecap: round"/>
   </g>
   <g id="line2d_11">
    <path d="M 104.22 86.064172 
" clip-path="url(#p327a3ac7be)" style="fill: none; stroke: #474747; stroke-width: 1.2; stroke-linecap: round"/>
    <defs>
     <path id="m3b9e7c3ac7" d="M 1.875 0 
L -1.875 -0 
" style="stroke: #ffffff; stroke-width: 0.9"/>
    </defs>
    <g clip-path="url(#p327a3ac7be)">
     <use xlink:href="#m3b9e7c3ac7" x="104.22" y="86.064172" style="fill: #ffffff; stroke: #ffffff; stroke-width: 0.9"/>
    </g>
   </g>
   <g id="line2d_12">
    <path d="M 220.524 180.484765 
L 220.524 81.851615 
" clip-path="url(#p327a3ac7be)" style="fill: none; stroke: #474747; stroke-width: 1.5; stroke-linecap: round"/>
   </g>
   <g id="line2d_13">
    <path d="M 220.524 156.267161 
L 220.524 119.35777 
" clip-path="url(#p327a3ac7be)" style="fill: none; stroke: #474747; stroke-width: 4.5; stroke-linecap: round"/>
   </g>
   <g id="line2d_14">
    <path d="M 220.524 138.015448 
" clip-path="url(#p327a3ac7be)" style="fill: none; stroke: #474747; stroke-width: 1.2; stroke-linecap: round"/>
    <g clip-path="url(#p327a3ac7be)">
     <use xlink:href="#m3b9e7c3ac7" x="220.524" y="138.015448" style="fill: #ffffff; stroke: #ffffff; stroke-width: 0.9"/>
    </g>
   </g>
   <g id="patch_3">
    <path d="M 46.068 238.804 
L 46.068 13.968 
" style="fill: none; stroke: #262626; stroke-linejoin: miter; stroke-linecap: square"/>
   </g>
   <g id="patch_4">
    <path d="M 278.676 238.804 
L 278.676 13.968 
" style="fill: none; stroke: #262626; stroke-linejoin: miter; stroke-linecap: square"/>
   </g>
   <g id="patch_5">
    <path d="M 46.068 238.804 
L 278.676 238.804 
" style="fill: none; stroke: #262626; stroke-linejoin: miter; stroke-linecap: square"/>
   </g>
   <g id="patch_6">
    <path d="M 46.068 13.968 
L 278.676 13.968 
" style="fill: none; stroke: #262626; stroke-linejoin: miter; stroke-linecap: square"/>
   </g>
  </g>
  <g id="axes_2">
   <g id="patch_7">
    <path d="M 333.024 238.804 
L 565.632 238.804 
L 565.632 13.968 
L 333.024 13.968 
L 333.024 238.804 
z
" style="fill: none"/>
   </g>
   <g id="matplotlib.axis_3">
    <g id="xtick_3">
     <g id="line2d_15">
      <g>
       <use xlink:href="#mf92e45d837" x="391.176" y="238.804" style="fill: #262626; stroke: #262626"/>
      </g>
     </g>
     <g id="text_10">
      <!-- accuracy -->
      <g style="fill: #262626" transform="translate(371.32375 253.790625) scale(0.088 -0.088)">
       <use xlink:href="#DejaVuSans-61"/>
       <use xlink:href="#DejaVuSans-63" x="61.279297"/>
       <use xlink:href="#DejaVuSans-63" x="116.259766"/>
       <use xlink:href="#DejaVuSans-75" x="171.240234"/>
       <use xlink:href="#DejaVuSans-72" x="234.619141"/>
       <use xlink:href="#DejaVuSans-61" x="275.732422"/>
       <use xlink:href="#DejaVuSans-63" x="337.011719"/>
       <use xlink:href="#DejaVuSans-79" x="391.992188"/>
      </g>
     </g>
    </g>
    <g id="xtick_4">
     <g id="line2d_16">
      <g>
       <use xlink:href="#mf92e45d837" x="507.48" y="238.804" style="fill: #262626; stroke: #262626"/>
      </g>
     </g>
     <g id="text_11">
      <!-- speed -->
      <g style="fill: #262626" transform="translate(494.1865 253.790625) scale(0.088 -0.088)">
       <use xlink:href="#DejaVuSans-73"/>
       <use xlink:href="#DejaVuSans-70" x="52.099609"/>
       <use xlink:href="#DejaVuSans-65" x="115.576172"/>
       <use xlink:href="#DejaVuSans-65" x="177.099609"/>
       <use xlink:href="#DejaVuSans-64" x="238.623047"/>
      </g>
     </g>
    </g>
   </g>
   <g id="matplotlib.axis_4">
    <g id="ytick_7">
     <g id="line2d_17">
      <g>
       <use xlink:href="#m122e94c53d" x="333.024" y="238.804" style="fill: #262626; stroke: #262626"/>
      </g>
     </g>
     <g id="text_12">
      <!-- 200 -->
      <g style="fill: #262626" transform="translate(307.927 242.147312) scale(0.088 -0.088)">
       <defs>
        <path id="DejaVuSans-32" d="M 1228 531 
L 3431 531 
L 3431 0 
L 469 0 
L 469 531 
Q 828 903 1448 1529 
Q 2069 2156 2228 2338 
Q 2531 2678 2651 2914 
Q 2772 3150 2772 3378 
Q 2772 3750 2511 3984 
Q 2250 4219 1831 4219 
Q 1534 4219 1204 4116 
Q 875 4013 500 3803 
L 500 4441 
Q 881 4594 1212 4672 
Q 1544 4750 1819 4750 
Q 2544 4750 2975 4387 
Q 3406 4025 3406 3419 
Q 3406 3131 3298 2873 
Q 3191 2616 2906 2266 
Q 2828 2175 2409 1742 
Q 1991 1309 1228 531 
z
" transform="scale(0.015625)"/>
       </defs>
       <use xlink:href="#DejaVuSans-32"/>
       <use xlink:href="#DejaVuSans-30" x="63.623047"/>
       <use xlink:href="#DejaVuSans-30" x="127.246094"/>
      </g>
     </g>
    </g>
    <g id="ytick_8">
     <g id="line2d_18">
      <g>
       <use xlink:href="#m122e94c53d" x="333.024" y="210.6995" style="fill: #262626; stroke: #262626"/>
      </g>
     </g>
     <g id="text_13">
      <!-- 300 -->
      <g style="fill: #262626" transform="translate(307.927 214.042812) scale(0.088 -0.088)">
       <defs>
        <path id="DejaVuSans-33" d="M 2597 2516 
Q 3050 2419 3304 2112 
Q 3559 1806 3559 1356 
Q 3559 666 3084 287 
Q 2609 -91 1734 -91 
Q 1441 -91 1130 -33 
Q 819 25 488 141 
L 488 750 
Q 750 597 1062 519 
Q 1375 441 1716 441 
Q 2309 441 2620 675 
Q 2931 909 2931 1356 
Q 2931 1769 2642 2001 
Q 2353 2234 1838 2234 
L 1294 2234 
L 1294 2753 
L 1863 2753 
Q 2328 2753 2575 2939 
Q 2822 3125 2822 3475 
Q 2822 3834 2567 4026 
Q 2313 4219 1838 4219 
Q 1578 4219 1281 4162 
Q 984 4106 628 3988 
L 628 4550 
Q 988 4650 1302 4700 
Q 1616 4750 1894 4750 
Q 2613 4750 3031 4423 
Q 3450 4097 3450 3541 
Q 3450 3153 3228 2886 
Q 3006 2619 2597 2516 
z
" transform="scale(0.015625)"/>
       </defs>
       <use xlink:href="#DejaVuSans-33"/>
       <use xlink:href="#DejaVuSans-30" x="63.623047"/>
       <use xlink:href="#DejaVuSans-30" x="127.246094"/>
      </g>
     </g>
    </g>
    <g id="ytick_9">
     <g id="line2d_19">
      <g>
       <use xlink:href="#m122e94c53d" x="333.024" y="182.595" style="fill: #262626; stroke: #262626"/>
      </g>
     </g>
     <g id="text_14">
      <!-- 400 -->
      <g style="fill: #262626" transform="translate(307.927 185.938312) scale(0.088 -0.088)">
       <defs>
        <path id="DejaVuSans-34" d="M 2419 4116 
L 825 1625 
L 2419 1625 
L 2419 4116 
z
M 2253 4666 
L 3047 4666 
L 3047 1625 
L 3713 1625 
L 3713 1100 
L 3047 1100 
L 3047 0 
L 2419 0 
L 2419 1100 
L 313 1100 
L 313 1709 
L 2253 4666 
z
" transform="scale(0.015625)"/>
       </defs>
       <use xlink:href="#DejaVuSans-34"/>
       <use xlink:href="#DejaVuSans-30" x="63.623047"/>
       <use xlink:href="#DejaVuSans-30" x="127.246094"/>
      </g>
     </g>
    </g>
    <g id="ytick_10">
     <g id="line2d_20">
      <g>
       <use xlink:href="#m122e94c53d" x="333.024" y="154.4905" style="fill: #262626; stroke: #262626"/>
      </g>
     </g>
     <g id="text_15">
      <!-- 500 -->
      <g style="fill: #262626" transform="translate(307.927 157.833812) scale(0.088 -0.088)">
       <use xlink:href="#DejaVuSans-35"/>
       <use xlink:href="#DejaVuSans-30" x="63.623047"/>
       <use xlink:href="#DejaVuSans-30" x="127.246094"/>
      </g>
     </g>
    </g>
    <g id="ytick_11">
     <g id="line2d_21">
      <g>
       <use xlink:href="#m122e94c53d" x="333.024" y="126.386" style="fill: #262626; stroke: #262626"/>
      </g>
     </g>
     <g id="text_16">
      <!-- 600 -->
      <g style="fill: #262626" transform="translate(307.927 129.729313) scale(0.088 -0.088)">
       <use xlink:href="#DejaVuSans-36"/>
       <use xlink:href="#DejaVuSans-30" x="63.623047"/>
       <use xlink:href="#DejaVuSans-30" x="127.246094"/>
      </g>
     </g>
    </g>
    <g id="ytick_12">
     <g id="line2d_22">
      <g>
       <use xlink:href="#m122e94c53d" x="333.024" y="98.2815" style="fill: #262626; stroke: #262626"/>
      </g>
     </g>
     <g id="text_17">
      <!-- 700 -->
      <g style="fill: #262626" transform="translate(307.927 101.624812) scale(0.088 -0.088)">
       <use xlink:href="#DejaVuSans-37"/>
       <use xlink:href="#DejaVuSans-30" x="63.623047"/>
       <use xlink:href="#DejaVuSans-30" x="127.246094"/>
      </g>
     </g>
    </g>
    <g id="ytick_13">
     <g id="line2d_23">
      <g>
       <use xlink:href="#m122e94c53d" x="333.024" y="70.177" style="fill: #262626; stroke: #262626"/>
      </g>
     </g>
     <g id="text_18">
      <!-- 800 -->
      <g style="fill: #262626" transform="translate(307.927 73.520313) scale(0.088 -0.088)">
       <use xlink:href="#DejaVuSans-38"/>
       <use xlink:href="#DejaVuSans-30" x="63.623047"/>
       <use xlink:href="#DejaVuSans-30" x="127.246094"/>
      </g>
     </g>
    </g>
    <g id="ytick_14">
     <g id="line2d_24">
      <g>
       <use xlink:href="#m122e94c53d" x="333.024" y="42.0725" style="fill: #262626; stroke: #262626"/>
      </g>
     </g>
     <g id="text_19">
      <!-- 900 -->
      <g style="fill: #262626" transform="translate(307.927 45.415813) scale(0.088 -0.088)">
       <use xlink:href="#DejaVuSans-39"/>
       <use xlink:href="#DejaVuSans-30" x="63.623047"/>
       <use xlink:href="#DejaVuSans-30" x="127.246094"/>
      </g>
     </g>
    </g>
    <g id="ytick_15">
     <g id="line2d_25">
      <g>
       <use xlink:href="#m122e94c53d" x="333.024" y="13.968" style="fill: #262626; stroke: #262626"/>
      </g>
     </g>
     <g id="text_20">
      <!-- 1000 -->
      <g style="fill: #262626" transform="translate(302.328 17.311313) scale(0.088 -0.088)">
       <use xlink:href="#DejaVuSans-31"/>
       <use xlink:href="#DejaVuSans-30" x="63.623047"/>
       <use xlink:href="#DejaVuSans-30" x="127.246094"/>
       <use xlink:href="#DejaVuSans-30" x="190.869141"/>
      </g>
     </g>
    </g>
    <g id="text_21">
     <!-- Average RT (ms) -->
     <g style="fill: #262626" transform="translate(296.3315 165.989) rotate(-90) scale(0.096 -0.096)">
      <defs>
       <path id="DejaVuSans-41" d="M 2188 4044 
L 1331 1722 
L 3047 1722 
L 2188 4044 
z
M 1831 4666 
L 2547 4666 
L 4325 0 
L 3669 0 
L 3244 1197 
L 1141 1197 
L 716 0 
L 50 0 
L 1831 4666 
z
" transform="scale(0.015625)"/>
       <path id="DejaVuSans-76" d="M 191 3500 
L 800 3500 
L 1894 563 
L 2988 3500 
L 3597 3500 
L 2284 0 
L 1503 0 
L 191 3500 
z
" transform="scale(0.015625)"/>
       <path id="DejaVuSans-67" d="M 2906 1791 
Q 2906 2416 2648 2759 
Q 2391 3103 1925 3103 
Q 1463 3103 1205 2759 
Q 947 2416 947 1791 
Q 947 1169 1205 825 
Q 1463 481 1925 481 
Q 2391 481 2648 825 
Q 2906 1169 2906 1791 
z
M 3481 434 
Q 3481 -459 3084 -895 
Q 2688 -1331 1869 -1331 
Q 1566 -1331 1297 -1286 
Q 1028 -1241 775 -1147 
L 775 -588 
Q 1028 -725 1275 -790 
Q 1522 -856 1778 -856 
Q 2344 -856 2625 -561 
Q 2906 -266 2906 331 
L 2906 616 
Q 2728 306 2450 153 
Q 2172 0 1784 0 
Q 1141 0 747 490 
Q 353 981 353 1791 
Q 353 2603 747 3093 
Q 1141 3584 1784 3584 
Q 2172 3584 2450 3431 
Q 2728 3278 2906 2969 
L 2906 3500 
L 3481 3500 
L 3481 434 
z
" transform="scale(0.015625)"/>
       <path id="DejaVuSans-52" d="M 2841 2188 
Q 3044 2119 3236 1894 
Q 3428 1669 3622 1275 
L 4263 0 
L 3584 0 
L 2988 1197 
Q 2756 1666 2539 1819 
Q 2322 1972 1947 1972 
L 1259 1972 
L 1259 0 
L 628 0 
L 628 4666 
L 2053 4666 
Q 2853 4666 3247 4331 
Q 3641 3997 3641 3322 
Q 3641 2881 3436 2590 
Q 3231 2300 2841 2188 
z
M 1259 4147 
L 1259 2491 
L 2053 2491 
Q 2509 2491 2742 2702 
Q 2975 2913 2975 3322 
Q 2975 3731 2742 3939 
Q 2509 4147 2053 4147 
L 1259 4147 
z
" transform="scale(0.015625)"/>
       <path id="DejaVuSans-54" d="M -19 4666 
L 3928 4666 
L 3928 4134 
L 2272 4134 
L 2272 0 
L 1638 0 
L 1638 4134 
L -19 4134 
L -19 4666 
z
" transform="scale(0.015625)"/>
       <path id="DejaVuSans-28" d="M 1984 4856 
Q 1566 4138 1362 3434 
Q 1159 2731 1159 2009 
Q 1159 1288 1364 580 
Q 1569 -128 1984 -844 
L 1484 -844 
Q 1016 -109 783 600 
Q 550 1309 550 2009 
Q 550 2706 781 3412 
Q 1013 4119 1484 4856 
L 1984 4856 
z
" transform="scale(0.015625)"/>
       <path id="DejaVuSans-6d" d="M 3328 2828 
Q 3544 3216 3844 3400 
Q 4144 3584 4550 3584 
Q 5097 3584 5394 3201 
Q 5691 2819 5691 2113 
L 5691 0 
L 5113 0 
L 5113 2094 
Q 5113 2597 4934 2840 
Q 4756 3084 4391 3084 
Q 3944 3084 3684 2787 
Q 3425 2491 3425 1978 
L 3425 0 
L 2847 0 
L 2847 2094 
Q 2847 2600 2669 2842 
Q 2491 3084 2119 3084 
Q 1678 3084 1418 2786 
Q 1159 2488 1159 1978 
L 1159 0 
L 581 0 
L 581 3500 
L 1159 3500 
L 1159 2956 
Q 1356 3278 1631 3431 
Q 1906 3584 2284 3584 
Q 2666 3584 2933 3390 
Q 3200 3197 3328 2828 
z
" transform="scale(0.015625)"/>
       <path id="DejaVuSans-29" d="M 513 4856 
L 1013 4856 
Q 1481 4119 1714 3412 
Q 1947 2706 1947 2009 
Q 1947 1309 1714 600 
Q 1481 -109 1013 -844 
L 513 -844 
Q 928 -128 1133 580 
Q 1338 1288 1338 2009 
Q 1338 2731 1133 3434 
Q 928 4138 513 4856 
z
" transform="scale(0.015625)"/>
      </defs>
      <use xlink:href="#DejaVuSans-41"/>
      <use xlink:href="#DejaVuSans-76" x="62.533203"/>
      <use xlink:href="#DejaVuSans-65" x="121.712891"/>
      <use xlink:href="#DejaVuSans-72" x="183.236328"/>
      <use xlink:href="#DejaVuSans-61" x="224.349609"/>
      <use xlink:href="#DejaVuSans-67" x="285.628906"/>
      <use xlink:href="#DejaVuSans-65" x="349.105469"/>
      <use xlink:href="#DejaVuSans-20" x="410.628906"/>
      <use xlink:href="#DejaVuSans-52" x="442.416016"/>
      <use xlink:href="#DejaVuSans-54" x="504.648438"/>
      <use xlink:href="#DejaVuSans-20" x="565.732422"/>
      <use xlink:href="#DejaVuSans-28" x="597.519531"/>
      <use xlink:href="#DejaVuSans-6d" x="636.533203"/>
      <use xlink:href="#DejaVuSans-73" x="733.945312"/>
      <use xlink:href="#DejaVuSans-29" x="786.044922"/>
     </g>
    </g>
   </g>
   <g id="PolyCollection_3">
    <defs>
     <path id="m25846de05d" d="M 420.013559 -152.730814 
L 362.338441 -152.730814 
L 360.997621 -153.548272 
L 359.675012 -154.365729 
L 358.377247 -155.183187 
L 357.110851 -156.000644 
L 355.882159 -156.818102 
L 354.697242 -157.635559 
L 353.561824 -158.453017 
L 352.481221 -159.270474 
L 351.460264 -160.087932 
L 350.503248 -160.905389 
L 349.613876 -161.722847 
L 348.795219 -162.540305 
L 348.049681 -163.357762 
L 347.378978 -164.17522 
L 346.784124 -164.992677 
L 346.265429 -165.810135 
L 345.822512 -166.627592 
L 345.454314 -167.44505 
L 345.159133 -168.262507 
L 344.934662 -169.079965 
L 344.778035 -169.897422 
L 344.685883 -170.71488 
L 344.6544 -171.532337 
L 344.679408 -172.349795 
L 344.756433 -173.167252 
L 344.880777 -173.98471 
L 345.047603 -174.802167 
L 345.25201 -175.619625 
L 345.489113 -176.437082 
L 345.754119 -177.25454 
L 346.042403 -178.071997 
L 346.349572 -178.889455 
L 346.671534 -179.706912 
L 347.00455 -180.52437 
L 347.345284 -181.341827 
L 347.690843 -182.159285 
L 348.038804 -182.976742 
L 348.387238 -183.7942 
L 348.734715 -184.611657 
L 349.080308 -185.429115 
L 349.423575 -186.246572 
L 349.76454 -187.06403 
L 350.103659 -187.881487 
L 350.44178 -188.698945 
L 350.780091 -189.516402 
L 351.120062 -190.33386 
L 351.463387 -191.151317 
L 351.811911 -191.968775 
L 352.167563 -192.786232 
L 352.532281 -193.60369 
L 352.90795 -194.421147 
L 353.296324 -195.238605 
L 353.698971 -196.056062 
L 354.117212 -196.87352 
L 354.552069 -197.690977 
L 355.00423 -198.508435 
L 355.474011 -199.325892 
L 355.961341 -200.14335 
L 356.465749 -200.960807 
L 356.98637 -201.778265 
L 357.521957 -202.595722 
L 358.070905 -203.41318 
L 358.63129 -204.230637 
L 359.200912 -205.048095 
L 359.777346 -205.865552 
L 360.358007 -206.68301 
L 360.94021 -207.500467 
L 361.521242 -208.317925 
L 362.098427 -209.135382 
L 362.669199 -209.95284 
L 363.231165 -210.770297 
L 363.782167 -211.587755 
L 364.320337 -212.405212 
L 364.844147 -213.22267 
L 365.352445 -214.040127 
L 365.844483 -214.857585 
L 366.31994 -215.675042 
L 366.77892 -216.4925 
L 367.221955 -217.309957 
L 367.649986 -218.127415 
L 368.064336 -218.944872 
L 368.466675 -219.76233 
L 368.858976 -220.579787 
L 369.243461 -221.397245 
L 369.622541 -222.214702 
L 369.99876 -223.03216 
L 370.374724 -223.849617 
L 370.753036 -224.667075 
L 371.136235 -225.484532 
L 371.52673 -226.30199 
L 371.92674 -227.119447 
L 372.338248 -227.936905 
L 372.762949 -228.754362 
L 373.202214 -229.57182 
L 373.657061 -230.389277 
L 374.128134 -231.206735 
L 374.615688 -232.024192 
L 375.119593 -232.84165 
L 375.639336 -233.659107 
L 406.712664 -233.659107 
L 406.712664 -233.659107 
L 407.232407 -232.84165 
L 407.736312 -232.024192 
L 408.223866 -231.206735 
L 408.694939 -230.389277 
L 409.149786 -229.57182 
L 409.589051 -228.754362 
L 410.013752 -227.936905 
L 410.42526 -227.119447 
L 410.82527 -226.30199 
L 411.215765 -225.484532 
L 411.598964 -224.667075 
L 411.977276 -223.849617 
L 412.35324 -223.03216 
L 412.729459 -222.214702 
L 413.108539 -221.397245 
L 413.493024 -220.579787 
L 413.885325 -219.76233 
L 414.287664 -218.944872 
L 414.702014 -218.127415 
L 415.130045 -217.309957 
L 415.57308 -216.4925 
L 416.03206 -215.675042 
L 416.507517 -214.857585 
L 416.999555 -214.040127 
L 417.507853 -213.22267 
L 418.031663 -212.405212 
L 418.569833 -211.587755 
L 419.120835 -210.770297 
L 419.682801 -209.95284 
L 420.253573 -209.135382 
L 420.830758 -208.317925 
L 421.41179 -207.500467 
L 421.993993 -206.68301 
L 422.574654 -205.865552 
L 423.151088 -205.048095 
L 423.72071 -204.230637 
L 424.281095 -203.41318 
L 424.830043 -202.595722 
L 425.36563 -201.778265 
L 425.886251 -200.960807 
L 426.390659 -200.14335 
L 426.877989 -199.325892 
L 427.34777 -198.508435 
L 427.799931 -197.690977 
L 428.234788 -196.87352 
L 428.653029 -196.056062 
L 429.055676 -195.238605 
L 429.44405 -194.421147 
L 429.819719 -193.60369 
L 430.184437 -192.786232 
L 430.540089 -191.968775 
L 430.888613 -191.151317 
L 431.231938 -190.33386 
L 431.571909 -189.516402 
L 431.91022 -188.698945 
L 432.248341 -187.881487 
L 432.58746 -187.06403 
L 432.928425 -186.246572 
L 433.271692 -185.429115 
L 433.617285 -184.611657 
L 433.964762 -183.7942 
L 434.313196 -182.976742 
L 434.661157 -182.159285 
L 435.006716 -181.341827 
L 435.34745 -180.52437 
L 435.680466 -179.706912 
L 436.002428 -178.889455 
L 436.309597 -178.071997 
L 436.597881 -177.25454 
L 436.862887 -176.437082 
L 437.09999 -175.619625 
L 437.304397 -174.802167 
L 437.471223 -173.98471 
L 437.595567 -173.167252 
L 437.672592 -172.349795 
L 437.6976 -171.532337 
L 437.666117 -170.71488 
L 437.573965 -169.897422 
L 437.417338 -169.079965 
L 437.192867 -168.262507 
L 436.897686 -167.44505 
L 436.529488 -166.627592 
L 436.086571 -165.810135 
L 435.567876 -164.992677 
L 434.973022 -164.17522 
L 434.302319 -163.357762 
L 433.556781 -162.540305 
L 432.738124 -161.722847 
L 431.848752 -160.905389 
L 430.891736 -160.087932 
L 429.870779 -159.270474 
L 428.790176 -158.453017 
L 427.654758 -157.635559 
L 426.469841 -156.818102 
L 425.241149 -156.000644 
L 423.974753 -155.183187 
L 422.676988 -154.365729 
L 421.354379 -153.548272 
L 420.013559 -152.730814 
z
" style="stroke: #474747"/>
    </defs>
    <g clip-path="url(#pf393e4ca41)">
     <use xlink:href="#m25846de05d" x="0" y="288" style="fill: #51779d; stroke: #474747"/>
    </g>
   </g>
   <g id="PolyCollection_4">
    <defs>
     <path id="mf0ecf1d5bd" d="M 517.510685 -91.347579 
L 497.449315 -91.347579 
L 497.120226 -91.907938 
L 496.807318 -92.468296 
L 496.509756 -93.028655 
L 496.226049 -93.589014 
L 495.954039 -94.149373 
L 495.690906 -94.709732 
L 495.433185 -95.270091 
L 495.176805 -95.83045 
L 494.917135 -96.390808 
L 494.649053 -96.951167 
L 494.367018 -97.511526 
L 494.06517 -98.071885 
L 493.737425 -98.632244 
L 493.377594 -99.192603 
L 492.979504 -99.752961 
L 492.537122 -100.31332 
L 492.044693 -100.873679 
L 491.496874 -101.434038 
L 490.888866 -101.994397 
L 490.21655 -102.554756 
L 489.47661 -103.115115 
L 488.666655 -103.675473 
L 487.785324 -104.235832 
L 486.832381 -104.796191 
L 485.808796 -105.35655 
L 484.716798 -105.916909 
L 483.55992 -106.477268 
L 482.343011 -107.037627 
L 481.072227 -107.597985 
L 479.754999 -108.158344 
L 478.399973 -108.718703 
L 477.016923 -109.279062 
L 475.616642 -109.839421 
L 474.210804 -110.39978 
L 472.811815 -110.960138 
L 471.432629 -111.520497 
L 470.086565 -112.080856 
L 468.787099 -112.641215 
L 467.547655 -113.201574 
L 466.381389 -113.761933 
L 465.300976 -114.322292 
L 464.318403 -114.88265 
L 463.444769 -115.443009 
L 462.690099 -116.003368 
L 462.063188 -116.563727 
L 461.571447 -117.124086 
L 461.220792 -117.684445 
L 461.015551 -118.244804 
L 460.9584 -118.805162 
L 461.050333 -119.365521 
L 461.290659 -119.92588 
L 461.677026 -120.486239 
L 462.205476 -121.046598 
L 462.870527 -121.606957 
L 463.665273 -122.167315 
L 464.58151 -122.727674 
L 465.609877 -123.288033 
L 466.740009 -123.848392 
L 467.960703 -124.408751 
L 469.260093 -124.96911 
L 470.625821 -125.529469 
L 472.045212 -126.089827 
L 473.505451 -126.650186 
L 474.993747 -127.210545 
L 476.497492 -127.770904 
L 478.004414 -128.331263 
L 479.50271 -128.891622 
L 480.98118 -129.451981 
L 482.429336 -130.012339 
L 483.837504 -130.572698 
L 485.19691 -131.133057 
L 486.499754 -131.693416 
L 487.739267 -132.253775 
L 488.909759 -132.814134 
L 490.006648 -133.374493 
L 491.02648 -133.934851 
L 491.966932 -134.49521 
L 492.826802 -135.055569 
L 493.60599 -135.615928 
L 494.305457 -136.176287 
L 494.927183 -136.736646 
L 495.474096 -137.297004 
L 495.950004 -137.857363 
L 496.359506 -138.417722 
L 496.707894 -138.978081 
L 497.001044 -139.53844 
L 497.245305 -140.098799 
L 497.447366 -140.659158 
L 497.614137 -141.219516 
L 497.752616 -141.779875 
L 497.869756 -142.340234 
L 497.972342 -142.900593 
L 498.066868 -143.460952 
L 498.159424 -144.021311 
L 498.255593 -144.58167 
L 498.360366 -145.142028 
L 498.478065 -145.702387 
L 498.612292 -146.262746 
L 498.765888 -146.823105 
L 516.194112 -146.823105 
L 516.194112 -146.823105 
L 516.347708 -146.262746 
L 516.481935 -145.702387 
L 516.599634 -145.142028 
L 516.704407 -144.58167 
L 516.800576 -144.021311 
L 516.893132 -143.460952 
L 516.987658 -142.900593 
L 517.090244 -142.340234 
L 517.207384 -141.779875 
L 517.345863 -141.219516 
L 517.512634 -140.659158 
L 517.714695 -140.098799 
L 517.958956 -139.53844 
L 518.252106 -138.978081 
L 518.600494 -138.417722 
L 519.009996 -137.857363 
L 519.485904 -137.297004 
L 520.032817 -136.736646 
L 520.654543 -136.176287 
L 521.35401 -135.615928 
L 522.133198 -135.055569 
L 522.993068 -134.49521 
L 523.93352 -133.934851 
L 524.953352 -133.374493 
L 526.050241 -132.814134 
L 527.220733 -132.253775 
L 528.460246 -131.693416 
L 529.76309 -131.133057 
L 531.122496 -130.572698 
L 532.530664 -130.012339 
L 533.97882 -129.451981 
L 535.45729 -128.891622 
L 536.955586 -128.331263 
L 538.462508 -127.770904 
L 539.966253 -127.210545 
L 541.454549 -126.650186 
L 542.914788 -126.089827 
L 544.334179 -125.529469 
L 545.699907 -124.96911 
L 546.999297 -124.408751 
L 548.219991 -123.848392 
L 549.350123 -123.288033 
L 550.37849 -122.727674 
L 551.294727 -122.167315 
L 552.089473 -121.606957 
L 552.754524 -121.046598 
L 553.282974 -120.486239 
L 553.669341 -119.92588 
L 553.909667 -119.365521 
L 554.0016 -118.805162 
L 553.944449 -118.244804 
L 553.739208 -117.684445 
L 553.388553 -117.124086 
L 552.896812 -116.563727 
L 552.269901 -116.003368 
L 551.515231 -115.443009 
L 550.641597 -114.88265 
L 549.659024 -114.322292 
L 548.578611 -113.761933 
L 547.412345 -113.201574 
L 546.172901 -112.641215 
L 544.873435 -112.080856 
L 543.527371 -111.520497 
L 542.148185 -110.960138 
L 540.749196 -110.39978 
L 539.343358 -109.839421 
L 537.943077 -109.279062 
L 536.560027 -108.718703 
L 535.205001 -108.158344 
L 533.887773 -107.597985 
L 532.616989 -107.037627 
L 531.40008 -106.477268 
L 530.243202 -105.916909 
L 529.151204 -105.35655 
L 528.127619 -104.796191 
L 527.174676 -104.235832 
L 526.293345 -103.675473 
L 525.48339 -103.115115 
L 524.74345 -102.554756 
L 524.071134 -101.994397 
L 523.463126 -101.434038 
L 522.915307 -100.873679 
L 522.422878 -100.31332 
L 521.980496 -99.752961 
L 521.582406 -99.192603 
L 521.222575 -98.632244 
L 520.89483 -98.071885 
L 520.592982 -97.511526 
L 520.310947 -96.951167 
L 520.042865 -96.390808 
L 519.783195 -95.83045 
L 519.526815 -95.270091 
L 519.269094 -94.709732 
L 519.005961 -94.149373 
L 518.733951 -93.589014 
L 518.450244 -93.028655 
L 518.152682 -92.468296 
L 517.839774 -91.907938 
L 517.510685 -91.347579 
z
" style="stroke: #474747"/>
    </defs>
    <g clip-path="url(#pf393e4ca41)">
     <use xlink:href="#mf0ecf1d5bd" x="0" y="288" style="fill: #77c4dd; stroke: #474747"/>
    </g>
   </g>
   <g id="line2d_26">
    <path d="M 391.176 135.269186 
L 391.176 54.340893 
" clip-path="url(#pf393e4ca41)" style="fill: none; stroke: #474747; stroke-width: 1.5; stroke-linecap: round"/>
   </g>
   <g id="line2d_27">
    <path d="M 391.176 124.329627 
L 391.176 86.36225 
" clip-path="url(#pf393e4ca41)" style="fill: none; stroke: #474747; stroke-width: 4.5; stroke-linecap: round"/>
   </g>
   <g id="line2d_28">
    <path d="M 391.176 109.668148 
" clip-path="url(#pf393e4ca41)" style="fill: none; stroke: #474747; stroke-width: 1.2; stroke-linecap: round"/>
    <g clip-path="url(#pf393e4ca41)">
     <use xlink:href="#m3b9e7c3ac7" x="391.176" y="109.668148" style="fill: #ffffff; stroke: #ffffff; stroke-width: 0.9"/>
    </g>
   </g>
   <g id="line2d_29">
    <path d="M 507.48 186.558727 
L 507.48 157.541976 
" clip-path="url(#pf393e4ca41)" style="fill: none; stroke: #474747; stroke-width: 1.5; stroke-linecap: round"/>
   </g>
   <g id="line2d_30">
    <path d="M 507.48 174.347332 
L 507.48 164.538865 
" clip-path="url(#pf393e4ca41)" style="fill: none; stroke: #474747; stroke-width: 4.5; stroke-linecap: round"/>
   </g>
   <g id="line2d_31">
    <path d="M 507.48 169.727808 
" clip-path="url(#pf393e4ca41)" style="fill: none; stroke: #474747; stroke-width: 1.2; stroke-linecap: round"/>
    <g clip-path="url(#pf393e4ca41)">
     <use xlink:href="#m3b9e7c3ac7" x="507.48" y="169.727808" style="fill: #ffffff; stroke: #ffffff; stroke-width: 0.9"/>
    </g>
   </g>
   <g id="patch_8">
    <path d="M 333.024 238.804 
L 333.024 13.968 
" style="fill: none; stroke: #262626; stroke-linejoin: miter; stroke-linecap: square"/>
   </g>
   <g id="patch_9">
    <path d="M 565.632 238.804 
L 565.632 13.968 
" style="fill: none; stroke: #262626; stroke-linejoin: miter; stroke-linecap: square"/>
   </g>
   <g id="patch_10">
    <path d="M 333.024 238.804 
L 565.632 238.804 
" style="fill: none; stroke: #262626; stroke-linejoin: miter; stroke-linecap: square"/>
   </g>
   <g id="patch_11">
    <path d="M 333.024 13.968 
L 565.632 13.968 
" style="fill: none; stroke: #262626; stroke-linejoin: miter; stroke-linecap: square"/>
   </g>
  </g>
  <g id="text_22">
   <!-- Condition -->
   <g style="fill: #262626" transform="translate(260.5131 282.7242) scale(0.1152 -0.1152)">
    <defs>
     <path id="DejaVuSans-43" d="M 4122 4306 
L 4122 3641 
Q 3803 3938 3442 4084 
Q 3081 4231 2675 4231 
Q 1875 4231 1450 3742 
Q 1025 3253 1025 2328 
Q 1025 1406 1450 917 
Q 1875 428 2675 428 
Q 3081 428 3442 575 
Q 3803 722 4122 1019 
L 4122 359 
Q 3791 134 3420 21 
Q 3050 -91 2638 -91 
Q 1578 -91 968 557 
Q 359 1206 359 2328 
Q 359 3453 968 4101 
Q 1578 4750 2638 4750 
Q 3056 4750 3426 4639 
Q 3797 4528 4122 4306 
z
" transform="scale(0.015625)"/>
    </defs>
    <use xlink:href="#DejaVuSans-43"/>
    <use xlink:href="#DejaVuSans-6f" x="69.824219"/>
    <use xlink:href="#DejaVuSans-6e" x="131.005859"/>
    <use xlink:href="#DejaVuSans-64" x="194.384766"/>
    <use xlink:href="#DejaVuSans-69" x="257.861328"/>
    <use xlink:href="#DejaVuSans-74" x="285.644531"/>
    <use xlink:href="#DejaVuSans-69" x="324.853516"/>
    <use xlink:href="#DejaVuSans-6f" x="352.636719"/>
    <use xlink:href="#DejaVuSans-6e" x="413.818359"/>
   </g>
  </g>
 </g>
 <defs>
  <clipPath id="p327a3ac7be">
   <rect x="46.068" y="13.968" width="232.608" height="224.836"/>
  </clipPath>
  <clipPath id="pf393e4ca41">
   <rect x="333.024" y="13.968" width="232.608" height="224.836"/>
  </clipPath>
 </defs>
</svg>
