<?xml version="1.0" encoding="utf-8" standalone="no"?>
<!DOCTYPE svg PUBLIC "-//W3C//DTD SVG 1.1//EN"
  "http://www.w3.org/Graphics/SVG/1.1/DTD/svg11.dtd">
<svg xmlns:xlink="http://www.w3.org/1999/xlink" width="576pt" height="288pt" viewBox="0 0 576 288" xmlns="http://www.w3.org/2000/svg" version="1.1">
 <metadata>
  <rdf:RDF xmlns:dc="http://purl.org/dc/elements/1.1/" xmlns:cc="http://creativecommons.org/ns#" xmlns:rdf="http://www.w3.org/1999/02/22-rdf-syntax-ns#">
   <cc:Work>
    <dc:type rdf:resource="http://purl.org/dc/dcmitype/StillImage"/>
    <dc:date>2025-01-15T17:24:55.852007</dc:date>
    <dc:format>image/svg+xml</dc:format>
    <dc:creator>
     <cc:Agent>
      <dc:title>Matplotlib v3.10.0, https://matplotlib.org/</dc:title>
     </cc:Agent>
    </dc:creator>
   </cc:Work>
  </rdf:RDF>
 </metadata>
 <defs>
  <style type="text/css">*{stroke-linejoin: round; stroke-linecap: butt}</style>
 </defs>
 <g id="figure_1">
  <g id="patch_1">
   <path d="M 0 288 
L 576 288 
L 576 0 
L 0 0 
L 0 288 
z
" style="fill: none"/>
  </g>
  <g id="axes_1">
   <g id="patch_2">
    <path d="M 46.068 238.804 
L 298.266 238.804 
L 298.266 23.568 
L 46.068 23.568 
L 46.068 238.804 
z
" style="fill: none"/>
   </g>
   <g id="matplotlib.axis_1">
    <g id="xtick_1">
     <g id="line2d_1">
      <defs>
       <path id="m71a2157431" d="M 0 0 
L 0 4.8 
" style="stroke: #262626"/>
      </defs>
      <g>
       <use xlink:href="#m71a2157431" x="90.284532" y="238.804" style="fill: #262626; stroke: #262626"/>
      </g>
     </g>
     <g id="text_1">
      <!-- Low -->
      <g style="fill: #262626" transform="translate(81.619282 253.790625) scale(0.088 -0.088)">
       <defs>
        <path id="DejaVuSans-4c" d="M 628 4666 
L 1259 4666 
L 1259 531 
L 3531 531 
L 3531 0 
L 628 0 
L 628 4666 
z
" transform="scale(0.015625)"/>
        <path id="DejaVuSans-6f" d="M 1959 3097 
Q 1497 3097 1228 2736 
Q 959 2375 959 1747 
Q 959 1119 1226 758 
Q 1494 397 1959 397 
Q 2419 397 2687 759 
Q 2956 1122 2956 1747 
Q 2956 2369 2687 2733 
Q 2419 3097 1959 3097 
z
M 1959 3584 
Q 2709 3584 3137 3096 
Q 3566 2609 3566 1747 
Q 3566 888 3137 398 
Q 2709 -91 1959 -91 
Q 1206 -91 779 398 
Q 353 888 353 1747 
Q 353 2609 779 3096 
Q 1206 3584 1959 3584 
z
" transform="scale(0.015625)"/>
        <path id="DejaVuSans-77" d="M 269 3500 
L 844 3500 
L 1563 769 
L 2278 3500 
L 2956 3500 
L 3675 769 
L 4391 3500 
L 4966 3500 
L 4050 0 
L 3372 0 
L 2619 2869 
L 1863 0 
L 1184 0 
L 269 3500 
z
" transform="scale(0.015625)"/>
       </defs>
       <use xlink:href="#DejaVuSans-4c"/>
       <use xlink:href="#DejaVuSans-6f" transform="translate(53.962891 0)"/>
       <use xlink:href="#DejaVuSans-77" transform="translate(115.144531 0)"/>
      </g>
     </g>
    </g>
    <g id="xtick_2">
     <g id="line2d_2">
      <g>
       <use xlink:href="#m71a2157431" x="172.167" y="238.804" style="fill: #262626; stroke: #262626"/>
      </g>
     </g>
     <g id="text_2">
      <!-- Medium -->
      <g style="fill: #262626" transform="translate(154.573187 253.790625) scale(0.088 -0.088)">
       <defs>
        <path id="DejaVuSans-4d" d="M 628 4666 
L 1569 4666 
L 2759 1491 
L 3956 4666 
L 4897 4666 
L 4897 0 
L 4281 0 
L 4281 4097 
L 3078 897 
L 2444 897 
L 1241 4097 
L 1241 0 
L 628 0 
L 628 4666 
z
" transform="scale(0.015625)"/>
        <path id="DejaVuSans-65" d="M 3597 1894 
L 3597 1613 
L 953 1613 
Q 991 1019 1311 708 
Q 1631 397 2203 397 
Q 2534 397 2845 478 
Q 3156 559 3463 722 
L 3463 178 
Q 3153 47 2828 -22 
Q 2503 -91 2169 -91 
Q 1331 -91 842 396 
Q 353 884 353 1716 
Q 353 2575 817 3079 
Q 1281 3584 2069 3584 
Q 2775 3584 3186 3129 
Q 3597 2675 3597 1894 
z
M 3022 2063 
Q 3016 2534 2758 2815 
Q 2500 3097 2075 3097 
Q 1594 3097 1305 2825 
Q 1016 2553 972 2059 
L 3022 2063 
z
" transform="scale(0.015625)"/>
        <path id="DejaVuSans-64" d="M 2906 2969 
L 2906 4863 
L 3481 4863 
L 3481 0 
L 2906 0 
L 2906 525 
Q 2725 213 2448 61 
Q 2172 -91 1784 -91 
Q 1150 -91 751 415 
Q 353 922 353 1747 
Q 353 2572 751 3078 
Q 1150 3584 1784 3584 
Q 2172 3584 2448 3432 
Q 2725 3281 2906 2969 
z
M 947 1747 
Q 947 1113 1208 752 
Q 1469 391 1925 391 
Q 2381 391 2643 752 
Q 2906 1113 2906 1747 
Q 2906 2381 2643 2742 
Q 2381 3103 1925 3103 
Q 1469 3103 1208 2742 
Q 947 2381 947 1747 
z
" transform="scale(0.015625)"/>
        <path id="DejaVuSans-69" d="M 603 3500 
L 1178 3500 
L 1178 0 
L 603 0 
L 603 3500 
z
M 603 4863 
L 1178 4863 
L 1178 4134 
L 603 4134 
L 603 4863 
z
" transform="scale(0.015625)"/>
        <path id="DejaVuSans-75" d="M 544 1381 
L 544 3500 
L 1119 3500 
L 1119 1403 
Q 1119 906 1312 657 
Q 1506 409 1894 409 
Q 2359 409 2629 706 
Q 2900 1003 2900 1516 
L 2900 3500 
L 3475 3500 
L 3475 0 
L 2900 0 
L 2900 538 
Q 2691 219 2414 64 
Q 2138 -91 1772 -91 
Q 1169 -91 856 284 
Q 544 659 544 1381 
z
M 1991 3584 
L 1991 3584 
z
" transform="scale(0.015625)"/>
        <path id="DejaVuSans-6d" d="M 3328 2828 
Q 3544 3216 3844 3400 
Q 4144 3584 4550 3584 
Q 5097 3584 5394 3201 
Q 5691 2819 5691 2113 
L 5691 0 
L 5113 0 
L 5113 2094 
Q 5113 2597 4934 2840 
Q 4756 3084 4391 3084 
Q 3944 3084 3684 2787 
Q 3425 2491 3425 1978 
L 3425 0 
L 2847 0 
L 2847 2094 
Q 2847 2600 2669 2842 
Q 2491 3084 2119 3084 
Q 1678 3084 1418 2786 
Q 1159 2488 1159 1978 
L 1159 0 
L 581 0 
L 581 3500 
L 1159 3500 
L 1159 2956 
Q 1356 3278 1631 3431 
Q 1906 3584 2284 3584 
Q 2666 3584 2933 3390 
Q 3200 3197 3328 2828 
z
" transform="scale(0.015625)"/>
       </defs>
       <use xlink:href="#DejaVuSans-4d"/>
       <use xlink:href="#DejaVuSans-65" transform="translate(86.279297 0)"/>
       <use xlink:href="#DejaVuSans-64" transform="translate(147.802734 0)"/>
       <use xlink:href="#DejaVuSans-69" transform="translate(211.279297 0)"/>
       <use xlink:href="#DejaVuSans-75" transform="translate(239.0625 0)"/>
       <use xlink:href="#DejaVuSans-6d" transform="translate(302.441406 0)"/>
      </g>
     </g>
    </g>
    <g id="xtick_3">
     <g id="line2d_3">
      <g>
       <use xlink:href="#m71a2157431" x="254.049468" y="238.804" style="fill: #262626; stroke: #262626"/>
      </g>
     </g>
     <g id="text_3">
      <!-- High -->
      <g style="fill: #262626" transform="translate(243.936343 253.790625) scale(0.088 -0.088)">
       <defs>
        <path id="DejaVuSans-48" d="M 628 4666 
L 1259 4666 
L 1259 2753 
L 3553 2753 
L 3553 4666 
L 4184 4666 
L 4184 0 
L 3553 0 
L 3553 2222 
L 1259 2222 
L 1259 0 
L 628 0 
L 628 4666 
z
" transform="scale(0.015625)"/>
        <path id="DejaVuSans-67" d="M 2906 1791 
Q 2906 2416 2648 2759 
Q 2391 3103 1925 3103 
Q 1463 3103 1205 2759 
Q 947 2416 947 1791 
Q 947 1169 1205 825 
Q 1463 481 1925 481 
Q 2391 481 2648 825 
Q 2906 1169 2906 1791 
z
M 3481 434 
Q 3481 -459 3084 -895 
Q 2688 -1331 1869 -1331 
Q 1566 -1331 1297 -1286 
Q 1028 -1241 775 -1147 
L 775 -588 
Q 1028 -725 1275 -790 
Q 1522 -856 1778 -856 
Q 2344 -856 2625 -561 
Q 2906 -266 2906 331 
L 2906 616 
Q 2728 306 2450 153 
Q 2172 0 1784 0 
Q 1141 0 747 490 
Q 353 981 353 1791 
Q 353 2603 747 3093 
Q 1141 3584 1784 3584 
Q 2172 3584 2450 3431 
Q 2728 3278 2906 2969 
L 2906 3500 
L 3481 3500 
L 3481 434 
z
" transform="scale(0.015625)"/>
        <path id="DejaVuSans-68" d="M 3513 2113 
L 3513 0 
L 2938 0 
L 2938 2094 
Q 2938 2591 2744 2837 
Q 2550 3084 2163 3084 
Q 1697 3084 1428 2787 
Q 1159 2491 1159 1978 
L 1159 0 
L 581 0 
L 581 4863 
L 1159 4863 
L 1159 2956 
Q 1366 3272 1645 3428 
Q 1925 3584 2291 3584 
Q 2894 3584 3203 3211 
Q 3513 2838 3513 2113 
z
" transform="scale(0.015625)"/>
       </defs>
       <use xlink:href="#DejaVuSans-48"/>
       <use xlink:href="#DejaVuSans-69" transform="translate(75.195312 0)"/>
       <use xlink:href="#DejaVuSans-67" transform="translate(102.978516 0)"/>
       <use xlink:href="#DejaVuSans-68" transform="translate(166.455078 0)"/>
      </g>
     </g>
    </g>
   </g>
   <g id="matplotlib.axis_2">
    <g id="ytick_1">
     <g id="line2d_4">
      <defs>
       <path id="mea92d12042" d="M 0 0 
L -4.8 0 
" style="stroke: #262626"/>
      </defs>
      <g>
       <use xlink:href="#mea92d12042" x="46.068" y="238.804" style="fill: #262626; stroke: #262626"/>
      </g>
     </g>
     <g id="text_4">
      <!-- 0.5 -->
      <g style="fill: #262626" transform="translate(23.77325 242.147312) scale(0.088 -0.088)">
       <defs>
        <path id="DejaVuSans-30" d="M 2034 4250 
Q 1547 4250 1301 3770 
Q 1056 3291 1056 2328 
Q 1056 1369 1301 889 
Q 1547 409 2034 409 
Q 2525 409 2770 889 
Q 3016 1369 3016 2328 
Q 3016 3291 2770 3770 
Q 2525 4250 2034 4250 
z
M 2034 4750 
Q 2819 4750 3233 4129 
Q 3647 3509 3647 2328 
Q 3647 1150 3233 529 
Q 2819 -91 2034 -91 
Q 1250 -91 836 529 
Q 422 1150 422 2328 
Q 422 3509 836 4129 
Q 1250 4750 2034 4750 
z
" transform="scale(0.015625)"/>
        <path id="DejaVuSans-2e" d="M 684 794 
L 1344 794 
L 1344 0 
L 684 0 
L 684 794 
z
" transform="scale(0.015625)"/>
        <path id="DejaVuSans-35" d="M 691 4666 
L 3169 4666 
L 3169 4134 
L 1269 4134 
L 1269 2991 
Q 1406 3038 1543 3061 
Q 1681 3084 1819 3084 
Q 2600 3084 3056 2656 
Q 3513 2228 3513 1497 
Q 3513 744 3044 326 
Q 2575 -91 1722 -91 
Q 1428 -91 1123 -41 
Q 819 9 494 109 
L 494 744 
Q 775 591 1075 516 
Q 1375 441 1709 441 
Q 2250 441 2565 725 
Q 2881 1009 2881 1497 
Q 2881 1984 2565 2268 
Q 2250 2553 1709 2553 
Q 1456 2553 1204 2497 
Q 953 2441 691 2322 
L 691 4666 
z
" transform="scale(0.015625)"/>
       </defs>
       <use xlink:href="#DejaVuSans-30"/>
       <use xlink:href="#DejaVuSans-2e" transform="translate(63.623047 0)"/>
       <use xlink:href="#DejaVuSans-35" transform="translate(95.410156 0)"/>
      </g>
     </g>
    </g>
    <g id="ytick_2">
     <g id="line2d_5">
      <g>
       <use xlink:href="#mea92d12042" x="46.068" y="202.931333" style="fill: #262626; stroke: #262626"/>
      </g>
     </g>
     <g id="text_5">
      <!-- 0.6 -->
      <g style="fill: #262626" transform="translate(23.77325 206.274646) scale(0.088 -0.088)">
       <defs>
        <path id="DejaVuSans-36" d="M 2113 2584 
Q 1688 2584 1439 2293 
Q 1191 2003 1191 1497 
Q 1191 994 1439 701 
Q 1688 409 2113 409 
Q 2538 409 2786 701 
Q 3034 994 3034 1497 
Q 3034 2003 2786 2293 
Q 2538 2584 2113 2584 
z
M 3366 4563 
L 3366 3988 
Q 3128 4100 2886 4159 
Q 2644 4219 2406 4219 
Q 1781 4219 1451 3797 
Q 1122 3375 1075 2522 
Q 1259 2794 1537 2939 
Q 1816 3084 2150 3084 
Q 2853 3084 3261 2657 
Q 3669 2231 3669 1497 
Q 3669 778 3244 343 
Q 2819 -91 2113 -91 
Q 1303 -91 875 529 
Q 447 1150 447 2328 
Q 447 3434 972 4092 
Q 1497 4750 2381 4750 
Q 2619 4750 2861 4703 
Q 3103 4656 3366 4563 
z
" transform="scale(0.015625)"/>
       </defs>
       <use xlink:href="#DejaVuSans-30"/>
       <use xlink:href="#DejaVuSans-2e" transform="translate(63.623047 0)"/>
       <use xlink:href="#DejaVuSans-36" transform="translate(95.410156 0)"/>
      </g>
     </g>
    </g>
    <g id="ytick_3">
     <g id="line2d_6">
      <g>
       <use xlink:href="#mea92d12042" x="46.068" y="167.058667" style="fill: #262626; stroke: #262626"/>
      </g>
     </g>
     <g id="text_6">
      <!-- 0.7 -->
      <g style="fill: #262626" transform="translate(23.77325 170.401979) scale(0.088 -0.088)">
       <defs>
        <path id="DejaVuSans-37" d="M 525 4666 
L 3525 4666 
L 3525 4397 
L 1831 0 
L 1172 0 
L 2766 4134 
L 525 4134 
L 525 4666 
z
" transform="scale(0.015625)"/>
       </defs>
       <use xlink:href="#DejaVuSans-30"/>
       <use xlink:href="#DejaVuSans-2e" transform="translate(63.623047 0)"/>
       <use xlink:href="#DejaVuSans-37" transform="translate(95.410156 0)"/>
      </g>
     </g>
    </g>
    <g id="ytick_4">
     <g id="line2d_7">
      <g>
       <use xlink:href="#mea92d12042" x="46.068" y="131.186" style="fill: #262626; stroke: #262626"/>
      </g>
     </g>
     <g id="text_7">
      <!-- 0.8 -->
      <g style="fill: #262626" transform="translate(23.77325 134.529312) scale(0.088 -0.088)">
       <defs>
        <path id="DejaVuSans-38" d="M 2034 2216 
Q 1584 2216 1326 1975 
Q 1069 1734 1069 1313 
Q 1069 891 1326 650 
Q 1584 409 2034 409 
Q 2484 409 2743 651 
Q 3003 894 3003 1313 
Q 3003 1734 2745 1975 
Q 2488 2216 2034 2216 
z
M 1403 2484 
Q 997 2584 770 2862 
Q 544 3141 544 3541 
Q 544 4100 942 4425 
Q 1341 4750 2034 4750 
Q 2731 4750 3128 4425 
Q 3525 4100 3525 3541 
Q 3525 3141 3298 2862 
Q 3072 2584 2669 2484 
Q 3125 2378 3379 2068 
Q 3634 1759 3634 1313 
Q 3634 634 3220 271 
Q 2806 -91 2034 -91 
Q 1263 -91 848 271 
Q 434 634 434 1313 
Q 434 1759 690 2068 
Q 947 2378 1403 2484 
z
M 1172 3481 
Q 1172 3119 1398 2916 
Q 1625 2713 2034 2713 
Q 2441 2713 2670 2916 
Q 2900 3119 2900 3481 
Q 2900 3844 2670 4047 
Q 2441 4250 2034 4250 
Q 1625 4250 1398 4047 
Q 1172 3844 1172 3481 
z
" transform="scale(0.015625)"/>
       </defs>
       <use xlink:href="#DejaVuSans-30"/>
       <use xlink:href="#DejaVuSans-2e" transform="translate(63.623047 0)"/>
       <use xlink:href="#DejaVuSans-38" transform="translate(95.410156 0)"/>
      </g>
     </g>
    </g>
    <g id="ytick_5">
     <g id="line2d_8">
      <g>
       <use xlink:href="#mea92d12042" x="46.068" y="95.313333" style="fill: #262626; stroke: #262626"/>
      </g>
     </g>
     <g id="text_8">
      <!-- 0.9 -->
      <g style="fill: #262626" transform="translate(23.77325 98.656646) scale(0.088 -0.088)">
       <defs>
        <path id="DejaVuSans-39" d="M 703 97 
L 703 672 
Q 941 559 1184 500 
Q 1428 441 1663 441 
Q 2288 441 2617 861 
Q 2947 1281 2994 2138 
Q 2813 1869 2534 1725 
Q 2256 1581 1919 1581 
Q 1219 1581 811 2004 
Q 403 2428 403 3163 
Q 403 3881 828 4315 
Q 1253 4750 1959 4750 
Q 2769 4750 3195 4129 
Q 3622 3509 3622 2328 
Q 3622 1225 3098 567 
Q 2575 -91 1691 -91 
Q 1453 -91 1209 -44 
Q 966 3 703 97 
z
M 1959 2075 
Q 2384 2075 2632 2365 
Q 2881 2656 2881 3163 
Q 2881 3666 2632 3958 
Q 2384 4250 1959 4250 
Q 1534 4250 1286 3958 
Q 1038 3666 1038 3163 
Q 1038 2656 1286 2365 
Q 1534 2075 1959 2075 
z
" transform="scale(0.015625)"/>
       </defs>
       <use xlink:href="#DejaVuSans-30"/>
       <use xlink:href="#DejaVuSans-2e" transform="translate(63.623047 0)"/>
       <use xlink:href="#DejaVuSans-39" transform="translate(95.410156 0)"/>
      </g>
     </g>
    </g>
    <g id="ytick_6">
     <g id="line2d_9">
      <g>
       <use xlink:href="#mea92d12042" x="46.068" y="59.440667" style="fill: #262626; stroke: #262626"/>
      </g>
     </g>
     <g id="text_9">
      <!-- 1.0 -->
      <g style="fill: #262626" transform="translate(23.77325 62.783979) scale(0.088 -0.088)">
       <defs>
        <path id="DejaVuSans-31" d="M 794 531 
L 1825 531 
L 1825 4091 
L 703 3866 
L 703 4441 
L 1819 4666 
L 2450 4666 
L 2450 531 
L 3481 531 
L 3481 0 
L 794 0 
L 794 531 
z
" transform="scale(0.015625)"/>
       </defs>
       <use xlink:href="#DejaVuSans-31"/>
       <use xlink:href="#DejaVuSans-2e" transform="translate(63.623047 0)"/>
       <use xlink:href="#DejaVuSans-30" transform="translate(95.410156 0)"/>
      </g>
     </g>
    </g>
    <g id="ytick_7">
     <g id="line2d_10">
      <g>
       <use xlink:href="#mea92d12042" x="46.068" y="23.568" style="fill: #262626; stroke: #262626"/>
      </g>
     </g>
     <g id="text_10">
      <!-- 1.1 -->
      <g style="fill: #262626" transform="translate(23.77325 26.911313) scale(0.088 -0.088)">
       <use xlink:href="#DejaVuSans-31"/>
       <use xlink:href="#DejaVuSans-2e" transform="translate(63.623047 0)"/>
       <use xlink:href="#DejaVuSans-31" transform="translate(95.410156 0)"/>
      </g>
     </g>
    </g>
    <g id="text_11">
     <!-- Probability of correct response -->
     <g style="fill: #262626" transform="translate(17.77675 204.36575) rotate(-90) scale(0.096 -0.096)">
      <defs>
       <path id="DejaVuSans-50" d="M 1259 4147 
L 1259 2394 
L 2053 2394 
Q 2494 2394 2734 2622 
Q 2975 2850 2975 3272 
Q 2975 3691 2734 3919 
Q 2494 4147 2053 4147 
L 1259 4147 
z
M 628 4666 
L 2053 4666 
Q 2838 4666 3239 4311 
Q 3641 3956 3641 3272 
Q 3641 2581 3239 2228 
Q 2838 1875 2053 1875 
L 1259 1875 
L 1259 0 
L 628 0 
L 628 4666 
z
" transform="scale(0.015625)"/>
       <path id="DejaVuSans-72" d="M 2631 2963 
Q 2534 3019 2420 3045 
Q 2306 3072 2169 3072 
Q 1681 3072 1420 2755 
Q 1159 2438 1159 1844 
L 1159 0 
L 581 0 
L 581 3500 
L 1159 3500 
L 1159 2956 
Q 1341 3275 1631 3429 
Q 1922 3584 2338 3584 
Q 2397 3584 2469 3576 
Q 2541 3569 2628 3553 
L 2631 2963 
z
" transform="scale(0.015625)"/>
       <path id="DejaVuSans-62" d="M 3116 1747 
Q 3116 2381 2855 2742 
Q 2594 3103 2138 3103 
Q 1681 3103 1420 2742 
Q 1159 2381 1159 1747 
Q 1159 1113 1420 752 
Q 1681 391 2138 391 
Q 2594 391 2855 752 
Q 3116 1113 3116 1747 
z
M 1159 2969 
Q 1341 3281 1617 3432 
Q 1894 3584 2278 3584 
Q 2916 3584 3314 3078 
Q 3713 2572 3713 1747 
Q 3713 922 3314 415 
Q 2916 -91 2278 -91 
Q 1894 -91 1617 61 
Q 1341 213 1159 525 
L 1159 0 
L 581 0 
L 581 4863 
L 1159 4863 
L 1159 2969 
z
" transform="scale(0.015625)"/>
       <path id="DejaVuSans-61" d="M 2194 1759 
Q 1497 1759 1228 1600 
Q 959 1441 959 1056 
Q 959 750 1161 570 
Q 1363 391 1709 391 
Q 2188 391 2477 730 
Q 2766 1069 2766 1631 
L 2766 1759 
L 2194 1759 
z
M 3341 1997 
L 3341 0 
L 2766 0 
L 2766 531 
Q 2569 213 2275 61 
Q 1981 -91 1556 -91 
Q 1019 -91 701 211 
Q 384 513 384 1019 
Q 384 1609 779 1909 
Q 1175 2209 1959 2209 
L 2766 2209 
L 2766 2266 
Q 2766 2663 2505 2880 
Q 2244 3097 1772 3097 
Q 1472 3097 1187 3025 
Q 903 2953 641 2809 
L 641 3341 
Q 956 3463 1253 3523 
Q 1550 3584 1831 3584 
Q 2591 3584 2966 3190 
Q 3341 2797 3341 1997 
z
" transform="scale(0.015625)"/>
       <path id="DejaVuSans-6c" d="M 603 4863 
L 1178 4863 
L 1178 0 
L 603 0 
L 603 4863 
z
" transform="scale(0.015625)"/>
       <path id="DejaVuSans-74" d="M 1172 4494 
L 1172 3500 
L 2356 3500 
L 2356 3053 
L 1172 3053 
L 1172 1153 
Q 1172 725 1289 603 
Q 1406 481 1766 481 
L 2356 481 
L 2356 0 
L 1766 0 
Q 1100 0 847 248 
Q 594 497 594 1153 
L 594 3053 
L 172 3053 
L 172 3500 
L 594 3500 
L 594 4494 
L 1172 4494 
z
" transform="scale(0.015625)"/>
       <path id="DejaVuSans-79" d="M 2059 -325 
Q 1816 -950 1584 -1140 
Q 1353 -1331 966 -1331 
L 506 -1331 
L 506 -850 
L 844 -850 
Q 1081 -850 1212 -737 
Q 1344 -625 1503 -206 
L 1606 56 
L 191 3500 
L 800 3500 
L 1894 763 
L 2988 3500 
L 3597 3500 
L 2059 -325 
z
" transform="scale(0.015625)"/>
       <path id="DejaVuSans-20" transform="scale(0.015625)"/>
       <path id="DejaVuSans-66" d="M 2375 4863 
L 2375 4384 
L 1825 4384 
Q 1516 4384 1395 4259 
Q 1275 4134 1275 3809 
L 1275 3500 
L 2222 3500 
L 2222 3053 
L 1275 3053 
L 1275 0 
L 697 0 
L 697 3053 
L 147 3053 
L 147 3500 
L 697 3500 
L 697 3744 
Q 697 4328 969 4595 
Q 1241 4863 1831 4863 
L 2375 4863 
z
" transform="scale(0.015625)"/>
       <path id="DejaVuSans-63" d="M 3122 3366 
L 3122 2828 
Q 2878 2963 2633 3030 
Q 2388 3097 2138 3097 
Q 1578 3097 1268 2742 
Q 959 2388 959 1747 
Q 959 1106 1268 751 
Q 1578 397 2138 397 
Q 2388 397 2633 464 
Q 2878 531 3122 666 
L 3122 134 
Q 2881 22 2623 -34 
Q 2366 -91 2075 -91 
Q 1284 -91 818 406 
Q 353 903 353 1747 
Q 353 2603 823 3093 
Q 1294 3584 2113 3584 
Q 2378 3584 2631 3529 
Q 2884 3475 3122 3366 
z
" transform="scale(0.015625)"/>
       <path id="DejaVuSans-73" d="M 2834 3397 
L 2834 2853 
Q 2591 2978 2328 3040 
Q 2066 3103 1784 3103 
Q 1356 3103 1142 2972 
Q 928 2841 928 2578 
Q 928 2378 1081 2264 
Q 1234 2150 1697 2047 
L 1894 2003 
Q 2506 1872 2764 1633 
Q 3022 1394 3022 966 
Q 3022 478 2636 193 
Q 2250 -91 1575 -91 
Q 1294 -91 989 -36 
Q 684 19 347 128 
L 347 722 
Q 666 556 975 473 
Q 1284 391 1588 391 
Q 1994 391 2212 530 
Q 2431 669 2431 922 
Q 2431 1156 2273 1281 
Q 2116 1406 1581 1522 
L 1381 1569 
Q 847 1681 609 1914 
Q 372 2147 372 2553 
Q 372 3047 722 3315 
Q 1072 3584 1716 3584 
Q 2034 3584 2315 3537 
Q 2597 3491 2834 3397 
z
" transform="scale(0.015625)"/>
       <path id="DejaVuSans-70" d="M 1159 525 
L 1159 -1331 
L 581 -1331 
L 581 3500 
L 1159 3500 
L 1159 2969 
Q 1341 3281 1617 3432 
Q 1894 3584 2278 3584 
Q 2916 3584 3314 3078 
Q 3713 2572 3713 1747 
Q 3713 922 3314 415 
Q 2916 -91 2278 -91 
Q 1894 -91 1617 61 
Q 1341 213 1159 525 
z
M 3116 1747 
Q 3116 2381 2855 2742 
Q 2594 3103 2138 3103 
Q 1681 3103 1420 2742 
Q 1159 2381 1159 1747 
Q 1159 1113 1420 752 
Q 1681 391 2138 391 
Q 2594 391 2855 752 
Q 3116 1113 3116 1747 
z
" transform="scale(0.015625)"/>
       <path id="DejaVuSans-6e" d="M 3513 2113 
L 3513 0 
L 2938 0 
L 2938 2094 
Q 2938 2591 2744 2837 
Q 2550 3084 2163 3084 
Q 1697 3084 1428 2787 
Q 1159 2491 1159 1978 
L 1159 0 
L 581 0 
L 581 3500 
L 1159 3500 
L 1159 2956 
Q 1366 3272 1645 3428 
Q 1925 3584 2291 3584 
Q 2894 3584 3203 3211 
Q 3513 2838 3513 2113 
z
" transform="scale(0.015625)"/>
      </defs>
      <use xlink:href="#DejaVuSans-50"/>
      <use xlink:href="#DejaVuSans-72" transform="translate(58.552734 0)"/>
      <use xlink:href="#DejaVuSans-6f" transform="translate(97.416016 0)"/>
      <use xlink:href="#DejaVuSans-62" transform="translate(158.597656 0)"/>
      <use xlink:href="#DejaVuSans-61" transform="translate(222.074219 0)"/>
      <use xlink:href="#DejaVuSans-62" transform="translate(283.353516 0)"/>
      <use xlink:href="#DejaVuSans-69" transform="translate(346.830078 0)"/>
      <use xlink:href="#DejaVuSans-6c" transform="translate(374.613281 0)"/>
      <use xlink:href="#DejaVuSans-69" transform="translate(402.396484 0)"/>
      <use xlink:href="#DejaVuSans-74" transform="translate(430.179688 0)"/>
      <use xlink:href="#DejaVuSans-79" transform="translate(469.388672 0)"/>
      <use xlink:href="#DejaVuSans-20" transform="translate(528.568359 0)"/>
      <use xlink:href="#DejaVuSans-6f" transform="translate(560.355469 0)"/>
      <use xlink:href="#DejaVuSans-66" transform="translate(621.537109 0)"/>
      <use xlink:href="#DejaVuSans-20" transform="translate(656.742188 0)"/>
      <use xlink:href="#DejaVuSans-63" transform="translate(688.529297 0)"/>
      <use xlink:href="#DejaVuSans-6f" transform="translate(743.509766 0)"/>
      <use xlink:href="#DejaVuSans-72" transform="translate(804.691406 0)"/>
      <use xlink:href="#DejaVuSans-72" transform="translate(844.054688 0)"/>
      <use xlink:href="#DejaVuSans-65" transform="translate(882.917969 0)"/>
      <use xlink:href="#DejaVuSans-63" transform="translate(944.441406 0)"/>
      <use xlink:href="#DejaVuSans-74" transform="translate(999.421875 0)"/>
      <use xlink:href="#DejaVuSans-20" transform="translate(1038.630859 0)"/>
      <use xlink:href="#DejaVuSans-72" transform="translate(1070.417969 0)"/>
      <use xlink:href="#DejaVuSans-65" transform="translate(1109.28125 0)"/>
      <use xlink:href="#DejaVuSans-73" transform="translate(1170.804688 0)"/>
      <use xlink:href="#DejaVuSans-70" transform="translate(1222.904297 0)"/>
      <use xlink:href="#DejaVuSans-6f" transform="translate(1286.380859 0)"/>
      <use xlink:href="#DejaVuSans-6e" transform="translate(1347.5625 0)"/>
      <use xlink:href="#DejaVuSans-73" transform="translate(1410.941406 0)"/>
      <use xlink:href="#DejaVuSans-65" transform="translate(1463.041016 0)"/>
     </g>
    </g>
   </g>
   <g id="FillBetweenPolyCollection_1">
    <defs>
     <path id="m771d885883" d="M 98.095007 -133.496767 
L 82.474058 -133.496767 
L 82.299633 -134.153228 
L 82.125268 -134.809689 
L 81.949827 -135.466151 
L 81.77206 -136.122612 
L 81.590621 -136.779073 
L 81.404083 -137.435535 
L 81.210957 -138.091996 
L 81.009709 -138.748457 
L 80.798787 -139.404919 
L 80.576639 -140.06138 
L 80.341738 -140.717841 
L 80.092603 -141.374303 
L 79.827826 -142.030764 
L 79.546089 -142.687225 
L 79.24619 -143.343687 
L 78.927062 -144.000148 
L 78.587791 -144.656609 
L 78.227631 -145.313071 
L 77.846021 -145.969532 
L 77.442595 -146.625993 
L 77.017192 -147.282455 
L 76.569861 -147.938916 
L 76.100867 -148.595377 
L 75.610688 -149.251839 
L 75.100016 -149.9083 
L 74.569749 -150.564761 
L 74.020987 -151.221223 
L 73.455019 -151.877684 
L 72.873311 -152.534145 
L 72.277495 -153.190607 
L 71.669348 -153.847068 
L 71.050779 -154.503529 
L 70.423808 -155.159991 
L 69.79055 -155.816452 
L 69.153191 -156.472913 
L 68.513972 -157.129375 
L 67.875167 -157.785836 
L 67.239066 -158.442298 
L 66.607954 -159.098759 
L 65.984095 -159.75522 
L 65.369712 -160.411682 
L 64.766976 -161.068143 
L 64.177988 -161.724604 
L 63.604768 -162.381066 
L 63.049242 -163.037527 
L 62.51323 -163.693988 
L 61.998442 -164.35045 
L 61.506468 -165.006911 
L 61.038773 -165.663372 
L 60.596689 -166.319834 
L 60.181419 -166.976295 
L 59.79403 -167.632756 
L 59.435453 -168.289218 
L 59.106486 -168.945679 
L 58.807796 -169.60214 
L 58.539918 -170.258602 
L 58.303262 -170.915063 
L 58.098118 -171.571524 
L 57.924662 -172.227986 
L 57.782958 -172.884447 
L 57.672968 -173.540908 
L 57.594562 -174.19737 
L 57.547521 -174.853831 
L 57.531545 -175.510292 
L 57.546268 -176.166754 
L 57.591257 -176.823215 
L 57.666027 -177.479676 
L 57.77005 -178.136138 
L 57.902755 -178.792599 
L 58.063545 -179.44906 
L 58.251799 -180.105522 
L 58.466878 -180.761983 
L 58.708134 -181.418444 
L 58.974911 -182.074906 
L 59.266553 -182.731367 
L 59.582402 -183.387828 
L 59.921803 -184.04429 
L 60.284106 -184.700751 
L 60.668663 -185.357212 
L 61.074826 -186.013674 
L 61.501949 -186.670135 
L 61.949381 -187.326596 
L 62.416464 -187.983058 
L 62.902526 -188.639519 
L 63.40688 -189.29598 
L 63.928815 -189.952442 
L 64.467591 -190.608903 
L 65.022435 -191.265364 
L 65.592533 -191.921826 
L 66.177028 -192.578287 
L 66.775013 -193.234748 
L 67.385529 -193.89121 
L 68.00756 -194.547671 
L 68.640033 -195.204132 
L 69.281817 -195.860594 
L 69.931723 -196.517055 
L 70.588506 -197.173516 
L 71.250868 -197.829978 
L 71.917461 -198.486439 
L 108.651603 -198.486439 
L 108.651603 -198.486439 
L 109.318197 -197.829978 
L 109.980559 -197.173516 
L 110.637342 -196.517055 
L 111.287248 -195.860594 
L 111.929032 -195.204132 
L 112.561505 -194.547671 
L 113.183536 -193.89121 
L 113.794052 -193.234748 
L 114.392037 -192.578287 
L 114.976532 -191.921826 
L 115.54663 -191.265364 
L 116.101474 -190.608903 
L 116.64025 -189.952442 
L 117.162185 -189.29598 
L 117.666539 -188.639519 
L 118.152601 -187.983058 
L 118.619684 -187.326596 
L 119.067116 -186.670135 
L 119.494239 -186.013674 
L 119.900402 -185.357212 
L 120.284959 -184.700751 
L 120.647262 -184.04429 
L 120.986663 -183.387828 
L 121.302512 -182.731367 
L 121.594154 -182.074906 
L 121.860931 -181.418444 
L 122.102187 -180.761983 
L 122.317266 -180.105522 
L 122.50552 -179.44906 
L 122.66631 -178.792599 
L 122.799015 -178.136138 
L 122.903037 -177.479676 
L 122.977808 -176.823215 
L 123.022797 -176.166754 
L 123.037519 -175.510292 
L 123.021544 -174.853831 
L 122.974503 -174.19737 
L 122.896097 -173.540908 
L 122.786107 -172.884447 
L 122.644403 -172.227986 
L 122.470946 -171.571524 
L 122.265803 -170.915063 
L 122.029147 -170.258602 
L 121.761269 -169.60214 
L 121.462579 -168.945679 
L 121.133612 -168.289218 
L 120.775035 -167.632756 
L 120.387646 -166.976295 
L 119.972376 -166.319834 
L 119.530292 -165.663372 
L 119.062597 -165.006911 
L 118.570623 -164.35045 
L 118.055835 -163.693988 
L 117.519823 -163.037527 
L 116.964296 -162.381066 
L 116.391076 -161.724604 
L 115.802089 -161.068143 
L 115.199353 -160.411682 
L 114.58497 -159.75522 
L 113.961111 -159.098759 
L 113.329999 -158.442298 
L 112.693898 -157.785836 
L 112.055093 -157.129375 
L 111.415874 -156.472913 
L 110.778515 -155.816452 
L 110.145257 -155.159991 
L 109.518286 -154.503529 
L 108.899717 -153.847068 
L 108.29157 -153.190607 
L 107.695754 -152.534145 
L 107.114046 -151.877684 
L 106.548078 -151.221223 
L 105.999316 -150.564761 
L 105.469049 -149.9083 
L 104.958377 -149.251839 
L 104.468198 -148.595377 
L 103.999204 -147.938916 
L 103.551873 -147.282455 
L 103.12647 -146.625993 
L 102.723044 -145.969532 
L 102.341434 -145.313071 
L 101.981274 -144.656609 
L 101.642003 -144.000148 
L 101.322875 -143.343687 
L 101.022976 -142.687225 
L 100.741239 -142.030764 
L 100.476462 -141.374303 
L 100.227327 -140.717841 
L 99.992426 -140.06138 
L 99.770278 -139.404919 
L 99.559356 -138.748457 
L 99.358108 -138.091996 
L 99.164982 -137.435535 
L 98.978444 -136.779073 
L 98.797005 -136.122612 
L 98.619238 -135.466151 
L 98.443797 -134.809689 
L 98.269432 -134.153228 
L 98.095007 -133.496767 
z
" style="stroke: #2f2f2f"/>
    </defs>
    <g clip-path="url(#pcb25082061)">
     <use xlink:href="#m771d885883" x="0" y="288" style="fill: #58b2a3; stroke: #2f2f2f"/>
    </g>
   </g>
   <g id="FillBetweenPolyCollection_2">
    <defs>
     <path id="mff63022732" d="M 191.469902 -148.542608 
L 152.864098 -148.542608 
L 152.366507 -149.014545 
L 151.877931 -149.486482 
L 151.39945 -149.958418 
L 150.932117 -150.430355 
L 150.476949 -150.902292 
L 150.034924 -151.374228 
L 149.606973 -151.846165 
L 149.193975 -152.318102 
L 148.796753 -152.790039 
L 148.416064 -153.261975 
L 148.052602 -153.733912 
L 147.706985 -154.205849 
L 147.379755 -154.677786 
L 147.071374 -155.149722 
L 146.78222 -155.621659 
L 146.51258 -156.093596 
L 146.262656 -156.565532 
L 146.032552 -157.037469 
L 145.82228 -157.509406 
L 145.631757 -157.981343 
L 145.460801 -158.453279 
L 145.309136 -158.925216 
L 145.176388 -159.397153 
L 145.062089 -159.869089 
L 144.965676 -160.341026 
L 144.886496 -160.812963 
L 144.823807 -161.2849 
L 144.776781 -161.756836 
L 144.744509 -162.228773 
L 144.726004 -162.70071 
L 144.720209 -163.172646 
L 144.726 -163.644583 
L 144.74219 -164.11652 
L 144.767542 -164.588457 
L 144.800769 -165.060393 
L 144.840547 -165.53233 
L 144.885517 -166.004267 
L 144.934301 -166.476203 
L 144.985501 -166.94814 
L 145.037717 -167.420077 
L 145.089548 -167.892014 
L 145.139608 -168.36395 
L 145.18653 -168.835887 
L 145.228978 -169.307824 
L 145.265659 -169.779761 
L 145.295325 -170.251697 
L 145.31679 -170.723634 
L 145.328935 -171.195571 
L 145.330719 -171.667507 
L 145.321188 -172.139444 
L 145.29948 -172.611381 
L 145.264838 -173.083318 
L 145.216613 -173.555254 
L 145.154277 -174.027191 
L 145.077422 -174.499128 
L 144.985772 -174.971064 
L 144.879187 -175.443001 
L 144.757662 -175.914938 
L 144.621339 -176.386875 
L 144.470503 -176.858811 
L 144.305587 -177.330748 
L 144.12717 -177.802685 
L 143.93598 -178.274621 
L 143.732889 -178.746558 
L 143.518911 -179.218495 
L 143.295199 -179.690432 
L 143.063042 -180.162368 
L 142.823855 -180.634305 
L 142.579172 -181.106242 
L 142.330641 -181.578178 
L 142.080011 -182.050115 
L 141.829124 -182.522052 
L 141.579901 -182.993989 
L 141.334332 -183.465925 
L 141.09446 -183.937862 
L 140.862371 -184.409799 
L 140.640174 -184.881736 
L 140.42999 -185.353672 
L 140.233937 -185.825609 
L 140.054108 -186.297546 
L 139.892563 -186.769482 
L 139.75131 -187.241419 
L 139.632285 -187.713356 
L 139.537344 -188.185293 
L 139.468244 -188.657229 
L 139.426628 -189.129166 
L 139.414013 -189.601103 
L 139.431778 -190.073039 
L 139.481151 -190.544976 
L 139.5632 -191.016913 
L 139.678821 -191.48885 
L 139.828735 -191.960786 
L 140.013475 -192.432723 
L 140.23339 -192.90466 
L 140.488634 -193.376596 
L 140.779167 -193.848533 
L 141.104756 -194.32047 
L 141.464975 -194.792407 
L 141.859212 -195.264343 
L 202.474788 -195.264343 
L 202.474788 -195.264343 
L 202.869025 -194.792407 
L 203.229244 -194.32047 
L 203.554833 -193.848533 
L 203.845366 -193.376596 
L 204.10061 -192.90466 
L 204.320525 -192.432723 
L 204.505265 -191.960786 
L 204.655179 -191.48885 
L 204.7708 -191.016913 
L 204.852849 -190.544976 
L 204.902222 -190.073039 
L 204.919987 -189.601103 
L 204.907372 -189.129166 
L 204.865756 -188.657229 
L 204.796656 -188.185293 
L 204.701715 -187.713356 
L 204.58269 -187.241419 
L 204.441437 -186.769482 
L 204.279892 -186.297546 
L 204.100063 -185.825609 
L 203.90401 -185.353672 
L 203.693826 -184.881736 
L 203.471629 -184.409799 
L 203.23954 -183.937862 
L 202.999668 -183.465925 
L 202.754099 -182.993989 
L 202.504876 -182.522052 
L 202.253989 -182.050115 
L 202.003359 -181.578178 
L 201.754828 -181.106242 
L 201.510145 -180.634305 
L 201.270958 -180.162368 
L 201.038801 -179.690432 
L 200.815089 -179.218495 
L 200.601111 -178.746558 
L 200.39802 -178.274621 
L 200.20683 -177.802685 
L 200.028413 -177.330748 
L 199.863497 -176.858811 
L 199.712661 -176.386875 
L 199.576338 -175.914938 
L 199.454813 -175.443001 
L 199.348228 -174.971064 
L 199.256578 -174.499128 
L 199.179723 -174.027191 
L 199.117387 -173.555254 
L 199.069162 -173.083318 
L 199.03452 -172.611381 
L 199.012812 -172.139444 
L 199.003281 -171.667507 
L 199.005065 -171.195571 
L 199.01721 -170.723634 
L 199.038675 -170.251697 
L 199.068341 -169.779761 
L 199.105022 -169.307824 
L 199.14747 -168.835887 
L 199.194392 -168.36395 
L 199.244452 -167.892014 
L 199.296283 -167.420077 
L 199.348499 -166.94814 
L 199.399699 -166.476203 
L 199.448483 -166.004267 
L 199.493453 -165.53233 
L 199.533231 -165.060393 
L 199.566458 -164.588457 
L 199.59181 -164.11652 
L 199.608 -163.644583 
L 199.613791 -163.172646 
L 199.607996 -162.70071 
L 199.589491 -162.228773 
L 199.557219 -161.756836 
L 199.510193 -161.2849 
L 199.447504 -160.812963 
L 199.368324 -160.341026 
L 199.271911 -159.869089 
L 199.157612 -159.397153 
L 199.024864 -158.925216 
L 198.873199 -158.453279 
L 198.702243 -157.981343 
L 198.51172 -157.509406 
L 198.301448 -157.037469 
L 198.071344 -156.565532 
L 197.82142 -156.093596 
L 197.55178 -155.621659 
L 197.262626 -155.149722 
L 196.954245 -154.677786 
L 196.627015 -154.205849 
L 196.281398 -153.733912 
L 195.917936 -153.261975 
L 195.537247 -152.790039 
L 195.140025 -152.318102 
L 194.727027 -151.846165 
L 194.299076 -151.374228 
L 193.857051 -150.902292 
L 193.401883 -150.430355 
L 192.93455 -149.958418 
L 192.456069 -149.486482 
L 191.967493 -149.014545 
L 191.469902 -148.542608 
z
" style="stroke: #2f2f2f"/>
    </defs>
    <g clip-path="url(#pcb25082061)">
     <use xlink:href="#mff63022732" x="0" y="288" style="fill: #437695; stroke: #2f2f2f"/>
    </g>
   </g>
   <g id="FillBetweenPolyCollection_3">
    <defs>
     <path id="mc1e868012a" d="M 271.812987 -153.03793 
L 236.285948 -153.03793 
L 235.772413 -153.605494 
L 235.268359 -154.173058 
L 234.774456 -154.740622 
L 234.291253 -155.308186 
L 233.819172 -155.875749 
L 233.35851 -156.443313 
L 232.909438 -157.010877 
L 232.472001 -157.578441 
L 232.046126 -158.146005 
L 231.631627 -158.713569 
L 231.22821 -159.281133 
L 230.83549 -159.848697 
L 230.452994 -160.416261 
L 230.080179 -160.983825 
L 229.716447 -161.551389 
L 229.361157 -162.118953 
L 229.013643 -162.686517 
L 228.67323 -163.25408 
L 228.339252 -163.821644 
L 228.011064 -164.389208 
L 227.688067 -164.956772 
L 227.369715 -165.524336 
L 227.055533 -166.0919 
L 226.745134 -166.659464 
L 226.438223 -167.227028 
L 226.134618 -167.794592 
L 225.834248 -168.362156 
L 225.537166 -168.92972 
L 225.243553 -169.497284 
L 224.953716 -170.064848 
L 224.668092 -170.632412 
L 224.387247 -171.199975 
L 224.111863 -171.767539 
L 223.842741 -172.335103 
L 223.580788 -172.902667 
L 223.327004 -173.470231 
L 223.082475 -174.037795 
L 222.848353 -174.605359 
L 222.625849 -175.172923 
L 222.41621 -175.740487 
L 222.220705 -176.308051 
L 222.040609 -176.875615 
L 221.877187 -177.443179 
L 221.731675 -178.010743 
L 221.605264 -178.578306 
L 221.499086 -179.14587 
L 221.414198 -179.713434 
L 221.351573 -180.280998 
L 221.31208 -180.848562 
L 221.296481 -181.416126 
L 221.305419 -181.98369 
L 221.339412 -182.551254 
L 221.398846 -183.118818 
L 221.483976 -183.686382 
L 221.594917 -184.253946 
L 221.731651 -184.82151 
L 221.894026 -185.389074 
L 222.081759 -185.956638 
L 222.294442 -186.524201 
L 222.531547 -187.091765 
L 222.792434 -187.659329 
L 223.07636 -188.226893 
L 223.382486 -188.794457 
L 223.70989 -189.362021 
L 224.057577 -189.929585 
L 224.424486 -190.497149 
L 224.809507 -191.064713 
L 225.211488 -191.632277 
L 225.629246 -192.199841 
L 226.061582 -192.767405 
L 226.507286 -193.334969 
L 226.965149 -193.902532 
L 227.433976 -194.470096 
L 227.912588 -195.03766 
L 228.399837 -195.605224 
L 228.894605 -196.172788 
L 229.395821 -196.740352 
L 229.902457 -197.307916 
L 230.413536 -197.87548 
L 230.928138 -198.443044 
L 231.445399 -199.010608 
L 231.964516 -199.578172 
L 232.484744 -200.145736 
L 233.0054 -200.7133 
L 233.52586 -201.280864 
L 234.045557 -201.848427 
L 234.563981 -202.415991 
L 235.080673 -202.983555 
L 235.595222 -203.551119 
L 236.107264 -204.118683 
L 236.616471 -204.686247 
L 237.122554 -205.253811 
L 237.625251 -205.821375 
L 238.124326 -206.388939 
L 238.61956 -206.956503 
L 239.11075 -207.524067 
L 239.597701 -208.091631 
L 240.08022 -208.659195 
L 240.558115 -209.226758 
L 267.54082 -209.226758 
L 267.54082 -209.226758 
L 268.018715 -208.659195 
L 268.501234 -208.091631 
L 268.988185 -207.524067 
L 269.479375 -206.956503 
L 269.974609 -206.388939 
L 270.473684 -205.821375 
L 270.976381 -205.253811 
L 271.482464 -204.686247 
L 271.991671 -204.118683 
L 272.503713 -203.551119 
L 273.018262 -202.983555 
L 273.534954 -202.415991 
L 274.053378 -201.848427 
L 274.573075 -201.280864 
L 275.093535 -200.7133 
L 275.614191 -200.145736 
L 276.134419 -199.578172 
L 276.653536 -199.010608 
L 277.170797 -198.443044 
L 277.685399 -197.87548 
L 278.196479 -197.307916 
L 278.703114 -196.740352 
L 279.20433 -196.172788 
L 279.699099 -195.605224 
L 280.186347 -195.03766 
L 280.664959 -194.470096 
L 281.133786 -193.902532 
L 281.591649 -193.334969 
L 282.037353 -192.767405 
L 282.469689 -192.199841 
L 282.887448 -191.632277 
L 283.289428 -191.064713 
L 283.674449 -190.497149 
L 284.041358 -189.929585 
L 284.389045 -189.362021 
L 284.716449 -188.794457 
L 285.022575 -188.226893 
L 285.306501 -187.659329 
L 285.567388 -187.091765 
L 285.804493 -186.524201 
L 286.017176 -185.956638 
L 286.204909 -185.389074 
L 286.367284 -184.82151 
L 286.504018 -184.253946 
L 286.614959 -183.686382 
L 286.700089 -183.118818 
L 286.759523 -182.551254 
L 286.793516 -181.98369 
L 286.802455 -181.416126 
L 286.786856 -180.848562 
L 286.747362 -180.280998 
L 286.684737 -179.713434 
L 286.599849 -179.14587 
L 286.493671 -178.578306 
L 286.36726 -178.010743 
L 286.221748 -177.443179 
L 286.058326 -176.875615 
L 285.87823 -176.308051 
L 285.682725 -175.740487 
L 285.473086 -175.172923 
L 285.250582 -174.605359 
L 285.016461 -174.037795 
L 284.771931 -173.470231 
L 284.518147 -172.902667 
L 284.256194 -172.335103 
L 283.987072 -171.767539 
L 283.711689 -171.199975 
L 283.430843 -170.632412 
L 283.145219 -170.064848 
L 282.855383 -169.497284 
L 282.561769 -168.92972 
L 282.264687 -168.362156 
L 281.964317 -167.794592 
L 281.660712 -167.227028 
L 281.353801 -166.659464 
L 281.043402 -166.0919 
L 280.72922 -165.524336 
L 280.410868 -164.956772 
L 280.087871 -164.389208 
L 279.759683 -163.821644 
L 279.425705 -163.25408 
L 279.085292 -162.686517 
L 278.737778 -162.118953 
L 278.382488 -161.551389 
L 278.018756 -160.983825 
L 277.645942 -160.416261 
L 277.263445 -159.848697 
L 276.870725 -159.281133 
L 276.467309 -158.713569 
L 276.052809 -158.146005 
L 275.626934 -157.578441 
L 275.189497 -157.010877 
L 274.740425 -156.443313 
L 274.279763 -155.875749 
L 273.807682 -155.308186 
L 273.324479 -154.740622 
L 272.830576 -154.173058 
L 272.326523 -153.605494 
L 271.812987 -153.03793 
z
" style="stroke: #2f2f2f"/>
    </defs>
    <g clip-path="url(#pcb25082061)">
     <use xlink:href="#mc1e868012a" x="0" y="288" style="fill: #423b63; stroke: #2f2f2f"/>
    </g>
   </g>
   <g id="line2d_11">
    <path d="M 90.284532 154.503233 
L 90.284532 89.513561 
" clip-path="url(#pcb25082061)" style="fill: none; stroke: #2f2f2f; stroke-width: 1.5; stroke-linecap: round"/>
   </g>
   <g id="line2d_12">
    <path d="M 90.284532 127.282756 
L 90.284532 102.100054 
" clip-path="url(#pcb25082061)" style="fill: none; stroke: #2f2f2f; stroke-width: 4.5; stroke-linecap: round"/>
   </g>
   <g id="line2d_13">
    <path d="M 90.284532 112.716904 
" clip-path="url(#pcb25082061)" style="fill: none; stroke: #2f2f2f; stroke-width: 1.2; stroke-linecap: round"/>
    <defs>
     <path id="maf21457181" d="M 1.875 0 
L -1.875 -0 
" style="stroke: #ffffff; stroke-width: 0.9"/>
    </defs>
    <g clip-path="url(#pcb25082061)">
     <use xlink:href="#maf21457181" x="90.284532" y="112.716904" style="fill: #ffffff; stroke: #ffffff; stroke-width: 0.9"/>
    </g>
   </g>
   <g id="line2d_14">
    <path d="M 172.167 139.457392 
L 172.167 92.735657 
" clip-path="url(#pcb25082061)" style="fill: none; stroke: #2f2f2f; stroke-width: 1.5; stroke-linecap: round"/>
   </g>
   <g id="line2d_15">
    <path d="M 172.167 128.2121 
L 172.167 96.064593 
" clip-path="url(#pcb25082061)" style="fill: none; stroke: #2f2f2f; stroke-width: 4.5; stroke-linecap: round"/>
   </g>
   <g id="line2d_16">
    <path d="M 172.167 110.431739 
" clip-path="url(#pcb25082061)" style="fill: none; stroke: #2f2f2f; stroke-width: 1.2; stroke-linecap: round"/>
    <g clip-path="url(#pcb25082061)">
     <use xlink:href="#maf21457181" x="172.167" y="110.431739" style="fill: #ffffff; stroke: #ffffff; stroke-width: 0.9"/>
    </g>
   </g>
   <g id="line2d_17">
    <path d="M 254.049468 134.96207 
L 254.049468 78.773242 
" clip-path="url(#pcb25082061)" style="fill: none; stroke: #2f2f2f; stroke-width: 1.5; stroke-linecap: round"/>
   </g>
   <g id="line2d_18">
    <path d="M 254.049468 121.706694 
L 254.049468 96.118456 
" clip-path="url(#pcb25082061)" style="fill: none; stroke: #2f2f2f; stroke-width: 4.5; stroke-linecap: round"/>
   </g>
   <g id="line2d_19">
    <path d="M 254.049468 106.947712 
" clip-path="url(#pcb25082061)" style="fill: none; stroke: #2f2f2f; stroke-width: 1.2; stroke-linecap: round"/>
    <g clip-path="url(#pcb25082061)">
     <use xlink:href="#maf21457181" x="254.049468" y="106.947712" style="fill: #ffffff; stroke: #ffffff; stroke-width: 0.9"/>
    </g>
   </g>
   <g id="line2d_20">
    <path d="M 90.284532 75.185975 
L 90.284532 66.611441 
L 172.167 66.611441 
L 172.167 75.185975 
" clip-path="url(#pcb25082061)" style="fill: none; stroke: #000000; stroke-linecap: round"/>
   </g>
   <g id="line2d_21">
    <path d="M 172.167 60.836908 
L 172.167 51.903648 
L 254.049468 51.903648 
L 254.049468 60.836908 
" clip-path="url(#pcb25082061)" style="fill: none; stroke: #000000; stroke-linecap: round"/>
   </g>
   <g id="line2d_22">
    <path d="M 90.284532 46.487842 
L 90.284532 37.195854 
L 254.049468 37.195854 
L 254.049468 46.487842 
" clip-path="url(#pcb25082061)" style="fill: none; stroke: #000000; stroke-linecap: round"/>
   </g>
   <g id="patch_3">
    <path d="M 46.068 238.804 
L 46.068 23.568 
" style="fill: none; stroke: #262626; stroke-linejoin: miter; stroke-linecap: square"/>
   </g>
   <g id="patch_4">
    <path d="M 298.266 238.804 
L 298.266 23.568 
" style="fill: none; stroke: #262626; stroke-linejoin: miter; stroke-linecap: square"/>
   </g>
   <g id="patch_5">
    <path d="M 46.068 238.804 
L 298.266 238.804 
" style="fill: none; stroke: #262626; stroke-linejoin: miter; stroke-linecap: square"/>
   </g>
   <g id="patch_6">
    <path d="M 46.068 23.568 
L 298.266 23.568 
" style="fill: none; stroke: #262626; stroke-linejoin: miter; stroke-linecap: square"/>
   </g>
   <g id="text_12">
    <!-- ns -->
    <g transform="translate(125.683266 64.614941) scale(0.096 -0.096)">
     <use xlink:href="#DejaVuSans-6e"/>
     <use xlink:href="#DejaVuSans-73" transform="translate(63.378906 0)"/>
    </g>
   </g>
   <g id="text_13">
    <!-- ns -->
    <g transform="translate(207.565734 49.907148) scale(0.096 -0.096)">
     <use xlink:href="#DejaVuSans-6e"/>
     <use xlink:href="#DejaVuSans-73" transform="translate(63.378906 0)"/>
    </g>
   </g>
   <g id="text_14">
    <!-- ns -->
    <g transform="translate(166.6245 35.199354) scale(0.096 -0.096)">
     <use xlink:href="#DejaVuSans-6e"/>
     <use xlink:href="#DejaVuSans-73" transform="translate(63.378906 0)"/>
    </g>
   </g>
   <g id="text_15">
    <!-- Accuracy -->
    <g style="fill: #262626" transform="translate(150.252 17.568) scale(0.096 -0.096)">
     <defs>
      <path id="DejaVuSans-41" d="M 2188 4044 
L 1331 1722 
L 3047 1722 
L 2188 4044 
z
M 1831 4666 
L 2547 4666 
L 4325 0 
L 3669 0 
L 3244 1197 
L 1141 1197 
L 716 0 
L 50 0 
L 1831 4666 
z
" transform="scale(0.015625)"/>
     </defs>
     <use xlink:href="#DejaVuSans-41"/>
     <use xlink:href="#DejaVuSans-63" transform="translate(66.658203 0)"/>
     <use xlink:href="#DejaVuSans-63" transform="translate(121.638672 0)"/>
     <use xlink:href="#DejaVuSans-75" transform="translate(176.619141 0)"/>
     <use xlink:href="#DejaVuSans-72" transform="translate(239.998047 0)"/>
     <use xlink:href="#DejaVuSans-61" transform="translate(281.111328 0)"/>
     <use xlink:href="#DejaVuSans-63" transform="translate(342.390625 0)"/>
     <use xlink:href="#DejaVuSans-79" transform="translate(397.371094 0)"/>
    </g>
   </g>
  </g>
  <g id="axes_2">
   <g id="patch_7">
    <path d="M 313.434 238.804 
L 565.632 238.804 
L 565.632 23.568 
L 313.434 23.568 
L 313.434 238.804 
z
" style="fill: none"/>
   </g>
   <g id="matplotlib.axis_3">
    <g id="xtick_4">
     <g id="line2d_23">
      <g>
       <use xlink:href="#m71a2157431" x="357.650532" y="238.804" style="fill: #262626; stroke: #262626"/>
      </g>
     </g>
     <g id="text_16">
      <!-- Low -->
      <g style="fill: #262626" transform="translate(348.985282 253.790625) scale(0.088 -0.088)">
       <use xlink:href="#DejaVuSans-4c"/>
       <use xlink:href="#DejaVuSans-6f" transform="translate(53.962891 0)"/>
       <use xlink:href="#DejaVuSans-77" transform="translate(115.144531 0)"/>
      </g>
     </g>
    </g>
    <g id="xtick_5">
     <g id="line2d_24">
      <g>
       <use xlink:href="#m71a2157431" x="439.533" y="238.804" style="fill: #262626; stroke: #262626"/>
      </g>
     </g>
     <g id="text_17">
      <!-- Medium -->
      <g style="fill: #262626" transform="translate(421.939188 253.790625) scale(0.088 -0.088)">
       <use xlink:href="#DejaVuSans-4d"/>
       <use xlink:href="#DejaVuSans-65" transform="translate(86.279297 0)"/>
       <use xlink:href="#DejaVuSans-64" transform="translate(147.802734 0)"/>
       <use xlink:href="#DejaVuSans-69" transform="translate(211.279297 0)"/>
       <use xlink:href="#DejaVuSans-75" transform="translate(239.0625 0)"/>
       <use xlink:href="#DejaVuSans-6d" transform="translate(302.441406 0)"/>
      </g>
     </g>
    </g>
    <g id="xtick_6">
     <g id="line2d_25">
      <g>
       <use xlink:href="#m71a2157431" x="521.415468" y="238.804" style="fill: #262626; stroke: #262626"/>
      </g>
     </g>
     <g id="text_18">
      <!-- High -->
      <g style="fill: #262626" transform="translate(511.302343 253.790625) scale(0.088 -0.088)">
       <use xlink:href="#DejaVuSans-48"/>
       <use xlink:href="#DejaVuSans-69" transform="translate(75.195312 0)"/>
       <use xlink:href="#DejaVuSans-67" transform="translate(102.978516 0)"/>
       <use xlink:href="#DejaVuSans-68" transform="translate(166.455078 0)"/>
      </g>
     </g>
    </g>
   </g>
   <g id="matplotlib.axis_4">
    <g id="ytick_8">
     <g id="line2d_26">
      <g>
       <use xlink:href="#mea92d12042" x="313.434" y="238.804" style="fill: #262626; stroke: #262626"/>
      </g>
     </g>
    </g>
    <g id="ytick_9">
     <g id="line2d_27">
      <g>
       <use xlink:href="#mea92d12042" x="313.434" y="202.931333" style="fill: #262626; stroke: #262626"/>
      </g>
     </g>
    </g>
    <g id="ytick_10">
     <g id="line2d_28">
      <g>
       <use xlink:href="#mea92d12042" x="313.434" y="167.058667" style="fill: #262626; stroke: #262626"/>
      </g>
     </g>
    </g>
    <g id="ytick_11">
     <g id="line2d_29">
      <g>
       <use xlink:href="#mea92d12042" x="313.434" y="131.186" style="fill: #262626; stroke: #262626"/>
      </g>
     </g>
    </g>
    <g id="ytick_12">
     <g id="line2d_30">
      <g>
       <use xlink:href="#mea92d12042" x="313.434" y="95.313333" style="fill: #262626; stroke: #262626"/>
      </g>
     </g>
    </g>
    <g id="ytick_13">
     <g id="line2d_31">
      <g>
       <use xlink:href="#mea92d12042" x="313.434" y="59.440667" style="fill: #262626; stroke: #262626"/>
      </g>
     </g>
    </g>
    <g id="ytick_14">
     <g id="line2d_32">
      <g>
       <use xlink:href="#mea92d12042" x="313.434" y="23.568" style="fill: #262626; stroke: #262626"/>
      </g>
     </g>
    </g>
   </g>
   <g id="FillBetweenPolyCollection_4">
    <defs>
     <path id="m13b83ac754" d="M 386.458182 -88.188029 
L 328.842883 -88.188029 
L 328.37409 -89.008043 
L 327.932957 -89.828057 
L 327.520385 -90.648072 
L 327.137135 -91.468086 
L 326.783822 -92.2881 
L 326.460909 -93.108114 
L 326.168709 -93.928128 
L 325.907381 -94.748142 
L 325.676931 -95.568157 
L 325.477213 -96.388171 
L 325.307935 -97.208185 
L 325.168657 -98.028199 
L 325.058801 -98.848213 
L 324.977658 -99.668228 
L 324.924389 -100.488242 
L 324.898039 -101.308256 
L 324.897545 -102.12827 
L 324.921744 -102.948284 
L 324.969382 -103.768299 
L 325.039131 -104.588313 
L 325.129592 -105.408327 
L 325.239314 -106.228341 
L 325.3668 -107.048355 
L 325.510522 -107.868369 
L 325.668931 -108.688384 
L 325.84047 -109.508398 
L 326.023581 -110.328412 
L 326.216721 -111.148426 
L 326.418369 -111.96844 
L 326.627036 -112.788455 
L 326.841274 -113.608469 
L 327.059684 -114.428483 
L 327.280925 -115.248497 
L 327.503716 -116.068511 
L 327.726848 -116.888525 
L 327.949185 -117.70854 
L 328.169668 -118.528554 
L 328.387322 -119.348568 
L 328.601253 -120.168582 
L 328.810653 -120.988596 
L 329.014802 -121.808611 
L 329.213065 -122.628625 
L 329.404893 -123.448639 
L 329.589824 -124.268653 
L 329.767478 -125.088667 
L 329.937557 -125.908682 
L 330.099843 -126.728696 
L 330.254193 -127.54871 
L 330.400538 -128.368724 
L 330.538881 -129.188738 
L 330.669288 -130.008752 
L 330.79189 -130.828767 
L 330.906879 -131.648781 
L 331.014501 -132.468795 
L 331.115056 -133.288809 
L 331.20889 -134.108823 
L 331.296398 -134.928838 
L 331.378015 -135.748852 
L 331.454216 -136.568866 
L 331.525511 -137.38888 
L 331.592446 -138.208894 
L 331.655593 -139.028908 
L 331.715554 -139.848923 
L 331.772957 -140.668937 
L 331.82845 -141.488951 
L 331.882703 -142.308965 
L 331.936403 -143.128979 
L 331.990253 -143.948994 
L 332.044967 -144.769008 
L 332.101272 -145.589022 
L 332.159901 -146.409036 
L 332.221593 -147.22905 
L 332.287091 -148.049065 
L 332.357136 -148.869079 
L 332.432467 -149.689093 
L 332.513816 -150.509107 
L 332.601907 -151.329121 
L 332.69745 -152.149135 
L 332.801139 -152.96915 
L 332.913649 -153.789164 
L 333.035631 -154.609178 
L 333.167707 -155.429192 
L 333.310471 -156.249206 
L 333.46448 -157.069221 
L 333.63025 -157.889235 
L 333.808258 -158.709249 
L 333.998932 -159.529263 
L 334.20265 -160.349277 
L 334.419738 -161.169291 
L 334.650463 -161.989306 
L 334.895034 -162.80932 
L 335.153595 -163.629334 
L 335.42623 -164.449348 
L 335.712951 -165.269362 
L 336.013707 -166.089377 
L 336.328374 -166.909391 
L 336.656761 -167.729405 
L 336.998606 -168.549419 
L 337.353579 -169.369433 
L 377.947486 -169.369433 
L 377.947486 -169.369433 
L 378.302459 -168.549419 
L 378.644304 -167.729405 
L 378.972691 -166.909391 
L 379.287358 -166.089377 
L 379.588114 -165.269362 
L 379.874835 -164.449348 
L 380.14747 -163.629334 
L 380.406031 -162.80932 
L 380.650602 -161.989306 
L 380.881327 -161.169291 
L 381.098414 -160.349277 
L 381.302133 -159.529263 
L 381.492807 -158.709249 
L 381.670815 -157.889235 
L 381.836585 -157.069221 
L 381.990594 -156.249206 
L 382.133358 -155.429192 
L 382.265434 -154.609178 
L 382.387416 -153.789164 
L 382.499926 -152.96915 
L 382.603615 -152.149135 
L 382.699158 -151.329121 
L 382.787249 -150.509107 
L 382.868598 -149.689093 
L 382.943929 -148.869079 
L 383.013974 -148.049065 
L 383.079472 -147.22905 
L 383.141164 -146.409036 
L 383.199793 -145.589022 
L 383.256098 -144.769008 
L 383.310812 -143.948994 
L 383.364662 -143.128979 
L 383.418362 -142.308965 
L 383.472615 -141.488951 
L 383.528108 -140.668937 
L 383.585511 -139.848923 
L 383.645472 -139.028908 
L 383.708619 -138.208894 
L 383.775554 -137.38888 
L 383.846849 -136.568866 
L 383.92305 -135.748852 
L 384.004667 -134.928838 
L 384.092175 -134.108823 
L 384.186009 -133.288809 
L 384.286564 -132.468795 
L 384.394186 -131.648781 
L 384.509175 -130.828767 
L 384.631777 -130.008752 
L 384.762184 -129.188738 
L 384.900527 -128.368724 
L 385.046872 -127.54871 
L 385.201222 -126.728696 
L 385.363508 -125.908682 
L 385.533587 -125.088667 
L 385.711241 -124.268653 
L 385.896172 -123.448639 
L 386.088 -122.628625 
L 386.286263 -121.808611 
L 386.490412 -120.988596 
L 386.699812 -120.168582 
L 386.913743 -119.348568 
L 387.131397 -118.528554 
L 387.35188 -117.70854 
L 387.574217 -116.888525 
L 387.797349 -116.068511 
L 388.02014 -115.248497 
L 388.241381 -114.428483 
L 388.459791 -113.608469 
L 388.674029 -112.788455 
L 388.882696 -111.96844 
L 389.084344 -111.148426 
L 389.277484 -110.328412 
L 389.460595 -109.508398 
L 389.632133 -108.688384 
L 389.790543 -107.868369 
L 389.934265 -107.048355 
L 390.061751 -106.228341 
L 390.171473 -105.408327 
L 390.261934 -104.588313 
L 390.331682 -103.768299 
L 390.379321 -102.948284 
L 390.403519 -102.12827 
L 390.403026 -101.308256 
L 390.376676 -100.488242 
L 390.323407 -99.668228 
L 390.242264 -98.848213 
L 390.132408 -98.028199 
L 389.99313 -97.208185 
L 389.823852 -96.388171 
L 389.624134 -95.568157 
L 389.393684 -94.748142 
L 389.132356 -93.928128 
L 388.840156 -93.108114 
L 388.517243 -92.2881 
L 388.16393 -91.468086 
L 387.78068 -90.648072 
L 387.368108 -89.828057 
L 386.926975 -89.008043 
L 386.458182 -88.188029 
z
" style="stroke: #2f2f2f"/>
    </defs>
    <g clip-path="url(#p52b1890e78)">
     <use xlink:href="#m13b83ac754" x="0" y="288" style="fill: #58b2a3; stroke: #2f2f2f"/>
    </g>
   </g>
   <g id="FillBetweenPolyCollection_5">
    <defs>
     <path id="m5df18703e7" d="M 450.704097 -99.197543 
L 428.361903 -99.197543 
L 427.832234 -100.038511 
L 427.281905 -100.87948 
L 426.710353 -101.720448 
L 426.117167 -102.561416 
L 425.502117 -103.402384 
L 424.865186 -104.243352 
L 424.206601 -105.084321 
L 423.526859 -105.925289 
L 422.826756 -106.766257 
L 422.107404 -107.607225 
L 421.370252 -108.448194 
L 420.617099 -109.289162 
L 419.850094 -110.13013 
L 419.071747 -110.971098 
L 418.284912 -111.812067 
L 417.492781 -112.653035 
L 416.698861 -113.494003 
L 415.906948 -114.334971 
L 415.12109 -115.175939 
L 414.345549 -116.016908 
L 413.584753 -116.857876 
L 412.843245 -117.698844 
L 412.125625 -118.539812 
L 411.43649 -119.380781 
L 410.780373 -120.221749 
L 410.161679 -121.062717 
L 409.58462 -121.903685 
L 409.053153 -122.744654 
L 408.570921 -123.585622 
L 408.141198 -124.42659 
L 407.766835 -125.267558 
L 407.450217 -126.108527 
L 407.193223 -126.949495 
L 406.9972 -127.790463 
L 406.862939 -128.631431 
L 406.790659 -129.472399 
L 406.780013 -130.313368 
L 406.830085 -131.154336 
L 406.93941 -131.995304 
L 407.106 -132.836272 
L 407.327371 -133.677241 
L 407.600592 -134.518209 
L 407.922323 -135.359177 
L 408.288876 -136.200145 
L 408.696268 -137.041114 
L 409.140285 -137.882082 
L 409.616542 -138.72305 
L 410.120554 -139.564018 
L 410.647791 -140.404986 
L 411.193748 -141.245955 
L 411.754002 -142.086923 
L 412.324266 -142.927891 
L 412.900445 -143.768859 
L 413.478676 -144.609828 
L 414.055372 -145.450796 
L 414.627253 -146.291764 
L 415.191372 -147.132732 
L 415.745135 -147.973701 
L 416.286311 -148.814669 
L 416.813038 -149.655637 
L 417.323823 -150.496605 
L 417.817531 -151.337573 
L 418.293374 -152.178542 
L 418.750895 -153.01951 
L 419.18994 -153.860478 
L 419.610638 -154.701446 
L 420.013371 -155.542415 
L 420.398741 -156.383383 
L 420.767546 -157.224351 
L 421.120742 -158.065319 
L 421.459414 -158.906288 
L 421.784747 -159.747256 
L 422.097999 -160.588224 
L 422.400468 -161.429192 
L 422.693475 -162.270161 
L 422.978337 -163.111129 
L 423.256351 -163.952097 
L 423.528774 -164.793065 
L 423.796813 -165.634033 
L 424.061609 -166.475002 
L 424.324233 -167.31597 
L 424.585677 -168.156938 
L 424.846848 -168.997906 
L 425.108569 -169.838875 
L 425.371575 -170.679843 
L 425.636516 -171.520811 
L 425.903954 -172.361779 
L 426.174367 -173.202748 
L 426.448153 -174.043716 
L 426.725629 -174.884684 
L 427.007038 -175.725652 
L 427.292547 -176.56662 
L 427.582254 -177.407589 
L 427.876187 -178.248557 
L 428.17431 -179.089525 
L 428.476523 -179.930493 
L 428.782662 -180.771462 
L 429.092508 -181.61243 
L 429.40578 -182.453398 
L 449.66022 -182.453398 
L 449.66022 -182.453398 
L 449.973492 -181.61243 
L 450.283338 -180.771462 
L 450.589477 -179.930493 
L 450.89169 -179.089525 
L 451.189813 -178.248557 
L 451.483746 -177.407589 
L 451.773453 -176.56662 
L 452.058962 -175.725652 
L 452.340371 -174.884684 
L 452.617847 -174.043716 
L 452.891633 -173.202748 
L 453.162046 -172.361779 
L 453.429484 -171.520811 
L 453.694425 -170.679843 
L 453.957431 -169.838875 
L 454.219152 -168.997906 
L 454.480323 -168.156938 
L 454.741767 -167.31597 
L 455.004391 -166.475002 
L 455.269187 -165.634033 
L 455.537226 -164.793065 
L 455.809649 -163.952097 
L 456.087663 -163.111129 
L 456.372525 -162.270161 
L 456.665532 -161.429192 
L 456.968001 -160.588224 
L 457.281253 -159.747256 
L 457.606586 -158.906288 
L 457.945258 -158.065319 
L 458.298454 -157.224351 
L 458.667259 -156.383383 
L 459.052629 -155.542415 
L 459.455362 -154.701446 
L 459.87606 -153.860478 
L 460.315105 -153.01951 
L 460.772626 -152.178542 
L 461.248469 -151.337573 
L 461.742177 -150.496605 
L 462.252962 -149.655637 
L 462.779689 -148.814669 
L 463.320865 -147.973701 
L 463.874628 -147.132732 
L 464.438747 -146.291764 
L 465.010628 -145.450796 
L 465.587324 -144.609828 
L 466.165555 -143.768859 
L 466.741734 -142.927891 
L 467.311998 -142.086923 
L 467.872252 -141.245955 
L 468.418209 -140.404986 
L 468.945446 -139.564018 
L 469.449458 -138.72305 
L 469.925715 -137.882082 
L 470.369732 -137.041114 
L 470.777124 -136.200145 
L 471.143677 -135.359177 
L 471.465408 -134.518209 
L 471.738629 -133.677241 
L 471.96 -132.836272 
L 472.12659 -131.995304 
L 472.235915 -131.154336 
L 472.285987 -130.313368 
L 472.275341 -129.472399 
L 472.203061 -128.631431 
L 472.0688 -127.790463 
L 471.872777 -126.949495 
L 471.615783 -126.108527 
L 471.299165 -125.267558 
L 470.924802 -124.42659 
L 470.495079 -123.585622 
L 470.012847 -122.744654 
L 469.48138 -121.903685 
L 468.904321 -121.062717 
L 468.285627 -120.221749 
L 467.62951 -119.380781 
L 466.940375 -118.539812 
L 466.222755 -117.698844 
L 465.481247 -116.857876 
L 464.720451 -116.016908 
L 463.94491 -115.175939 
L 463.159052 -114.334971 
L 462.367139 -113.494003 
L 461.573219 -112.653035 
L 460.781088 -111.812067 
L 459.994253 -110.971098 
L 459.215906 -110.13013 
L 458.448901 -109.289162 
L 457.695748 -108.448194 
L 456.958596 -107.607225 
L 456.239244 -106.766257 
L 455.539141 -105.925289 
L 454.859399 -105.084321 
L 454.200814 -104.243352 
L 453.563883 -103.402384 
L 452.948833 -102.561416 
L 452.355647 -101.720448 
L 451.784095 -100.87948 
L 451.233766 -100.038511 
L 450.704097 -99.197543 
z
" style="stroke: #2f2f2f"/>
    </defs>
    <g clip-path="url(#p52b1890e78)">
     <use xlink:href="#m5df18703e7" x="0" y="288" style="fill: #437695; stroke: #2f2f2f"/>
    </g>
   </g>
   <g id="FillBetweenPolyCollection_6">
    <defs>
     <path id="m2644eaaa91" d="M 549.15888 -81.765812 
L 493.672055 -81.765812 
L 493.171871 -82.669269 
L 492.694019 -83.572726 
L 492.239581 -84.476183 
L 491.809554 -85.37964 
L 491.404843 -86.283097 
L 491.02626 -87.186554 
L 490.674515 -88.090011 
L 490.35022 -88.993468 
L 490.05388 -89.896925 
L 489.785892 -90.800382 
L 489.54655 -91.703839 
L 489.336036 -92.607296 
L 489.154423 -93.510752 
L 489.00168 -94.414209 
L 488.877666 -95.317666 
L 488.782136 -96.221123 
L 488.714743 -97.12458 
L 488.675039 -98.028037 
L 488.662481 -98.931494 
L 488.67643 -99.834951 
L 488.716162 -100.738408 
L 488.780866 -101.641865 
L 488.869651 -102.545322 
L 488.981552 -103.448779 
L 489.115535 -104.352236 
L 489.270502 -105.255693 
L 489.445296 -106.159149 
L 489.638707 -107.062606 
L 489.849481 -107.966063 
L 490.076322 -108.86952 
L 490.317898 -109.772977 
L 490.572853 -110.676434 
L 490.839804 -111.579891 
L 491.117357 -112.483348 
L 491.404103 -113.386805 
L 491.698632 -114.290262 
L 491.999537 -115.193719 
L 492.305418 -116.097176 
L 492.614887 -117.000633 
L 492.926578 -117.904089 
L 493.23915 -118.807546 
L 493.551292 -119.711003 
L 493.861729 -120.61446 
L 494.16923 -121.517917 
L 494.472608 -122.421374 
L 494.770727 -123.324831 
L 495.062511 -124.228288 
L 495.346942 -125.131745 
L 495.623069 -126.035202 
L 495.89001 -126.938659 
L 496.146958 -127.842116 
L 496.393182 -128.745573 
L 496.628035 -129.649029 
L 496.850949 -130.552486 
L 497.061449 -131.455943 
L 497.259146 -132.3594 
L 497.443743 -133.262857 
L 497.615038 -134.166314 
L 497.772922 -135.069771 
L 497.917383 -135.973228 
L 498.048504 -136.876685 
L 498.166463 -137.780142 
L 498.271536 -138.683599 
L 498.36409 -139.587056 
L 498.444585 -140.490513 
L 498.513571 -141.39397 
L 498.571686 -142.297426 
L 498.619648 -143.200883 
L 498.658258 -144.10434 
L 498.68839 -145.007797 
L 498.710988 -145.911254 
L 498.727059 -146.814711 
L 498.737668 -147.718168 
L 498.743933 -148.621625 
L 498.747014 -149.525082 
L 498.748107 -150.428539 
L 498.748437 -151.331996 
L 498.749252 -152.235453 
L 498.751808 -153.13891 
L 498.757368 -154.042366 
L 498.767188 -154.945823 
L 498.782512 -155.84928 
L 498.80456 -156.752737 
L 498.834524 -157.656194 
L 498.873553 -158.559651 
L 498.922753 -159.463108 
L 498.983172 -160.366565 
L 499.055796 -161.270022 
L 499.141544 -162.173479 
L 499.241257 -163.076936 
L 499.355694 -163.980393 
L 499.485529 -164.88385 
L 499.631344 -165.787307 
L 499.793624 -166.690763 
L 499.972758 -167.59422 
L 500.169032 -168.497677 
L 500.382631 -169.401134 
L 500.613636 -170.304591 
L 500.862025 -171.208048 
L 541.96891 -171.208048 
L 541.96891 -171.208048 
L 542.217299 -170.304591 
L 542.448304 -169.401134 
L 542.661903 -168.497677 
L 542.858177 -167.59422 
L 543.037311 -166.690763 
L 543.199591 -165.787307 
L 543.345406 -164.88385 
L 543.475241 -163.980393 
L 543.589678 -163.076936 
L 543.689391 -162.173479 
L 543.775139 -161.270022 
L 543.847763 -160.366565 
L 543.908182 -159.463108 
L 543.957382 -158.559651 
L 543.996411 -157.656194 
L 544.026375 -156.752737 
L 544.048423 -155.84928 
L 544.063747 -154.945823 
L 544.073567 -154.042366 
L 544.079127 -153.13891 
L 544.081683 -152.235453 
L 544.082498 -151.331996 
L 544.082828 -150.428539 
L 544.083921 -149.525082 
L 544.087002 -148.621625 
L 544.093267 -147.718168 
L 544.103877 -146.814711 
L 544.119948 -145.911254 
L 544.142545 -145.007797 
L 544.172677 -144.10434 
L 544.211287 -143.200883 
L 544.259249 -142.297426 
L 544.317364 -141.39397 
L 544.38635 -140.490513 
L 544.466845 -139.587056 
L 544.559399 -138.683599 
L 544.664472 -137.780142 
L 544.782432 -136.876685 
L 544.913552 -135.973228 
L 545.058013 -135.069771 
L 545.215897 -134.166314 
L 545.387192 -133.262857 
L 545.571789 -132.3594 
L 545.769486 -131.455943 
L 545.979986 -130.552486 
L 546.202901 -129.649029 
L 546.437753 -128.745573 
L 546.683977 -127.842116 
L 546.940925 -126.938659 
L 547.207866 -126.035202 
L 547.483993 -125.131745 
L 547.768424 -124.228288 
L 548.060208 -123.324831 
L 548.358328 -122.421374 
L 548.661705 -121.517917 
L 548.969206 -120.61446 
L 549.279643 -119.711003 
L 549.591785 -118.807546 
L 549.904357 -117.904089 
L 550.216048 -117.000633 
L 550.525517 -116.097176 
L 550.831398 -115.193719 
L 551.132303 -114.290262 
L 551.426832 -113.386805 
L 551.713579 -112.483348 
L 551.991131 -111.579891 
L 552.258082 -110.676434 
L 552.513037 -109.772977 
L 552.754613 -108.86952 
L 552.981454 -107.966063 
L 553.192228 -107.062606 
L 553.385639 -106.159149 
L 553.560433 -105.255693 
L 553.7154 -104.352236 
L 553.849383 -103.448779 
L 553.961284 -102.545322 
L 554.050069 -101.641865 
L 554.114773 -100.738408 
L 554.154505 -99.834951 
L 554.168455 -98.931494 
L 554.155896 -98.028037 
L 554.116192 -97.12458 
L 554.048799 -96.221123 
L 553.953269 -95.317666 
L 553.829255 -94.414209 
L 553.676512 -93.510752 
L 553.494899 -92.607296 
L 553.284385 -91.703839 
L 553.045043 -90.800382 
L 552.777055 -89.896925 
L 552.480715 -88.993468 
L 552.15642 -88.090011 
L 551.804675 -87.186554 
L 551.426092 -86.283097 
L 551.021381 -85.37964 
L 550.591354 -84.476183 
L 550.136916 -83.572726 
L 549.659064 -82.669269 
L 549.15888 -81.765812 
z
" style="stroke: #2f2f2f"/>
    </defs>
    <g clip-path="url(#p52b1890e78)">
     <use xlink:href="#m2644eaaa91" x="0" y="288" style="fill: #423b63; stroke: #2f2f2f"/>
    </g>
   </g>
   <g id="line2d_33">
    <path d="M 357.650532 199.811971 
L 357.650532 118.630567 
" clip-path="url(#p52b1890e78)" style="fill: none; stroke: #2f2f2f; stroke-width: 1.5; stroke-linecap: round"/>
   </g>
   <g id="line2d_34">
    <path d="M 357.650532 190.530905 
L 357.650532 139.157704 
" clip-path="url(#p52b1890e78)" style="fill: none; stroke: #2f2f2f; stroke-width: 4.5; stroke-linecap: round"/>
   </g>
   <g id="line2d_35">
    <path d="M 357.650532 165.895712 
" clip-path="url(#p52b1890e78)" style="fill: none; stroke: #2f2f2f; stroke-width: 1.2; stroke-linecap: round"/>
    <g clip-path="url(#p52b1890e78)">
     <use xlink:href="#maf21457181" x="357.650532" y="165.895712" style="fill: #ffffff; stroke: #ffffff; stroke-width: 0.9"/>
    </g>
   </g>
   <g id="line2d_36">
    <path d="M 439.533 188.802457 
L 439.533 105.546602 
" clip-path="url(#p52b1890e78)" style="fill: none; stroke: #2f2f2f; stroke-width: 1.5; stroke-linecap: round"/>
   </g>
   <g id="line2d_37">
    <path d="M 439.533 160.41558 
L 439.533 133.822311 
" clip-path="url(#p52b1890e78)" style="fill: none; stroke: #2f2f2f; stroke-width: 4.5; stroke-linecap: round"/>
   </g>
   <g id="line2d_38">
    <path d="M 439.533 158.499237 
" clip-path="url(#p52b1890e78)" style="fill: none; stroke: #2f2f2f; stroke-width: 1.2; stroke-linecap: round"/>
    <g clip-path="url(#p52b1890e78)">
     <use xlink:href="#maf21457181" x="439.533" y="158.499237" style="fill: #ffffff; stroke: #ffffff; stroke-width: 0.9"/>
    </g>
   </g>
   <g id="line2d_39">
    <path d="M 521.415468 206.234188 
L 521.415468 116.791952 
" clip-path="url(#p52b1890e78)" style="fill: none; stroke: #2f2f2f; stroke-width: 1.5; stroke-linecap: round"/>
   </g>
   <g id="line2d_40">
    <path d="M 521.415468 198.99518 
L 521.415468 130.60896 
" clip-path="url(#p52b1890e78)" style="fill: none; stroke: #2f2f2f; stroke-width: 4.5; stroke-linecap: round"/>
   </g>
   <g id="line2d_41">
    <path d="M 521.415468 175.499294 
" clip-path="url(#p52b1890e78)" style="fill: none; stroke: #2f2f2f; stroke-width: 1.2; stroke-linecap: round"/>
    <g clip-path="url(#p52b1890e78)">
     <use xlink:href="#maf21457181" x="521.415468" y="175.499294" style="fill: #ffffff; stroke: #ffffff; stroke-width: 0.9"/>
    </g>
   </g>
   <g id="line2d_42">
    <path d="M 357.650532 101.959335 
L 357.650532 94.054135 
L 439.533 94.054135 
L 439.533 101.959335 
" clip-path="url(#p52b1890e78)" style="fill: none; stroke: #000000; stroke-linecap: round"/>
   </g>
   <g id="line2d_43">
    <path d="M 439.533 87.610269 
L 439.533 79.346342 
L 521.415468 79.346342 
L 521.415468 87.610269 
" clip-path="url(#p52b1890e78)" style="fill: none; stroke: #000000; stroke-linecap: round"/>
   </g>
   <g id="line2d_44">
    <path d="M 357.650532 73.261202 
L 357.650532 64.638549 
L 521.415468 64.638549 
L 521.415468 73.261202 
" clip-path="url(#p52b1890e78)" style="fill: none; stroke: #000000; stroke-linecap: round"/>
   </g>
   <g id="patch_8">
    <path d="M 313.434 238.804 
L 313.434 23.568 
" style="fill: none; stroke: #262626; stroke-linejoin: miter; stroke-linecap: square"/>
   </g>
   <g id="patch_9">
    <path d="M 565.632 238.804 
L 565.632 23.568 
" style="fill: none; stroke: #262626; stroke-linejoin: miter; stroke-linecap: square"/>
   </g>
   <g id="patch_10">
    <path d="M 313.434 238.804 
L 565.632 238.804 
" style="fill: none; stroke: #262626; stroke-linejoin: miter; stroke-linecap: square"/>
   </g>
   <g id="patch_11">
    <path d="M 313.434 23.568 
L 565.632 23.568 
" style="fill: none; stroke: #262626; stroke-linejoin: miter; stroke-linecap: square"/>
   </g>
   <g id="text_19">
    <!-- ns -->
    <g transform="translate(393.049266 92.057635) scale(0.096 -0.096)">
     <use xlink:href="#DejaVuSans-6e"/>
     <use xlink:href="#DejaVuSans-73" transform="translate(63.378906 0)"/>
    </g>
   </g>
   <g id="text_20">
    <!-- ns -->
    <g transform="translate(474.931734 77.349842) scale(0.096 -0.096)">
     <use xlink:href="#DejaVuSans-6e"/>
     <use xlink:href="#DejaVuSans-73" transform="translate(63.378906 0)"/>
    </g>
   </g>
   <g id="text_21">
    <!-- ns -->
    <g transform="translate(433.9905 62.642049) scale(0.096 -0.096)">
     <use xlink:href="#DejaVuSans-6e"/>
     <use xlink:href="#DejaVuSans-73" transform="translate(63.378906 0)"/>
    </g>
   </g>
   <g id="text_22">
    <!-- Speed -->
    <g style="fill: #262626" transform="translate(424.48425 17.568) scale(0.096 -0.096)">
     <defs>
      <path id="DejaVuSans-53" d="M 3425 4513 
L 3425 3897 
Q 3066 4069 2747 4153 
Q 2428 4238 2131 4238 
Q 1616 4238 1336 4038 
Q 1056 3838 1056 3469 
Q 1056 3159 1242 3001 
Q 1428 2844 1947 2747 
L 2328 2669 
Q 3034 2534 3370 2195 
Q 3706 1856 3706 1288 
Q 3706 609 3251 259 
Q 2797 -91 1919 -91 
Q 1588 -91 1214 -16 
Q 841 59 441 206 
L 441 856 
Q 825 641 1194 531 
Q 1563 422 1919 422 
Q 2459 422 2753 634 
Q 3047 847 3047 1241 
Q 3047 1584 2836 1778 
Q 2625 1972 2144 2069 
L 1759 2144 
Q 1053 2284 737 2584 
Q 422 2884 422 3419 
Q 422 4038 858 4394 
Q 1294 4750 2059 4750 
Q 2388 4750 2728 4690 
Q 3069 4631 3425 4513 
z
" transform="scale(0.015625)"/>
     </defs>
     <use xlink:href="#DejaVuSans-53"/>
     <use xlink:href="#DejaVuSans-70" transform="translate(63.476562 0)"/>
     <use xlink:href="#DejaVuSans-65" transform="translate(126.953125 0)"/>
     <use xlink:href="#DejaVuSans-65" transform="translate(188.476562 0)"/>
     <use xlink:href="#DejaVuSans-64" transform="translate(250 0)"/>
    </g>
   </g>
  </g>
  <g id="text_23">
   <!-- Average decision probability tertile -->
   <g style="fill: #262626" transform="translate(187.2072 282.7242) scale(0.1152 -0.1152)">
    <defs>
     <path id="DejaVuSans-76" d="M 191 3500 
L 800 3500 
L 1894 563 
L 2988 3500 
L 3597 3500 
L 2284 0 
L 1503 0 
L 191 3500 
z
" transform="scale(0.015625)"/>
    </defs>
    <use xlink:href="#DejaVuSans-41"/>
    <use xlink:href="#DejaVuSans-76" transform="translate(62.533203 0)"/>
    <use xlink:href="#DejaVuSans-65" transform="translate(121.712891 0)"/>
    <use xlink:href="#DejaVuSans-72" transform="translate(183.236328 0)"/>
    <use xlink:href="#DejaVuSans-61" transform="translate(224.349609 0)"/>
    <use xlink:href="#DejaVuSans-67" transform="translate(285.628906 0)"/>
    <use xlink:href="#DejaVuSans-65" transform="translate(349.105469 0)"/>
    <use xlink:href="#DejaVuSans-20" transform="translate(410.628906 0)"/>
    <use xlink:href="#DejaVuSans-64" transform="translate(442.416016 0)"/>
    <use xlink:href="#DejaVuSans-65" transform="translate(505.892578 0)"/>
    <use xlink:href="#DejaVuSans-63" transform="translate(567.416016 0)"/>
    <use xlink:href="#DejaVuSans-69" transform="translate(622.396484 0)"/>
    <use xlink:href="#DejaVuSans-73" transform="translate(650.179688 0)"/>
    <use xlink:href="#DejaVuSans-69" transform="translate(702.279297 0)"/>
    <use xlink:href="#DejaVuSans-6f" transform="translate(730.0625 0)"/>
    <use xlink:href="#DejaVuSans-6e" transform="translate(791.244141 0)"/>
    <use xlink:href="#DejaVuSans-20" transform="translate(854.623047 0)"/>
    <use xlink:href="#DejaVuSans-70" transform="translate(886.410156 0)"/>
    <use xlink:href="#DejaVuSans-72" transform="translate(949.886719 0)"/>
    <use xlink:href="#DejaVuSans-6f" transform="translate(988.75 0)"/>
    <use xlink:href="#DejaVuSans-62" transform="translate(1049.931641 0)"/>
    <use xlink:href="#DejaVuSans-61" transform="translate(1113.408203 0)"/>
    <use xlink:href="#DejaVuSans-62" transform="translate(1174.6875 0)"/>
    <use xlink:href="#DejaVuSans-69" transform="translate(1238.164062 0)"/>
    <use xlink:href="#DejaVuSans-6c" transform="translate(1265.947266 0)"/>
    <use xlink:href="#DejaVuSans-69" transform="translate(1293.730469 0)"/>
    <use xlink:href="#DejaVuSans-74" transform="translate(1321.513672 0)"/>
    <use xlink:href="#DejaVuSans-79" transform="translate(1360.722656 0)"/>
    <use xlink:href="#DejaVuSans-20" transform="translate(1419.902344 0)"/>
    <use xlink:href="#DejaVuSans-74" transform="translate(1451.689453 0)"/>
    <use xlink:href="#DejaVuSans-65" transform="translate(1490.898438 0)"/>
    <use xlink:href="#DejaVuSans-72" transform="translate(1552.421875 0)"/>
    <use xlink:href="#DejaVuSans-74" transform="translate(1593.535156 0)"/>
    <use xlink:href="#DejaVuSans-69" transform="translate(1632.744141 0)"/>
    <use xlink:href="#DejaVuSans-6c" transform="translate(1660.527344 0)"/>
    <use xlink:href="#DejaVuSans-65" transform="translate(1688.310547 0)"/>
   </g>
  </g>
 </g>
 <defs>
  <clipPath id="pcb25082061">
   <rect x="46.068" y="23.568" width="252.198" height="215.236"/>
  </clipPath>
  <clipPath id="p52b1890e78">
   <rect x="313.434" y="23.568" width="252.198" height="215.236"/>
  </clipPath>
 </defs>
</svg>
