<?xml version="1.0" encoding="utf-8" standalone="no"?>
<!DOCTYPE svg PUBLIC "-//W3C//DTD SVG 1.1//EN"
  "http://www.w3.org/Graphics/SVG/1.1/DTD/svg11.dtd">
<svg xmlns:xlink="http://www.w3.org/1999/xlink" width="576pt" height="288pt" viewBox="0 0 576 288" xmlns="http://www.w3.org/2000/svg" version="1.1">
 <metadata>
  <rdf:RDF xmlns:dc="http://purl.org/dc/elements/1.1/" xmlns:cc="http://creativecommons.org/ns#" xmlns:rdf="http://www.w3.org/1999/02/22-rdf-syntax-ns#">
   <cc:Work>
    <dc:type rdf:resource="http://purl.org/dc/dcmitype/StillImage"/>
    <dc:date>2025-01-15T17:24:56.573528</dc:date>
    <dc:format>image/svg+xml</dc:format>
    <dc:creator>
     <cc:Agent>
      <dc:title>Matplotlib v3.10.0, https://matplotlib.org/</dc:title>
     </cc:Agent>
    </dc:creator>
   </cc:Work>
  </rdf:RDF>
 </metadata>
 <defs>
  <style type="text/css">*{stroke-linejoin: round; stroke-linecap: butt}</style>
 </defs>
 <g id="figure_1">
  <g id="patch_1">
   <path d="M 0 288 
L 576 288 
L 576 0 
L 0 0 
L 0 288 
z
" style="fill: none"/>
  </g>
  <g id="axes_1">
   <g id="patch_2">
    <path d="M 46.068 238.804 
L 298.266 238.804 
L 298.266 23.568 
L 46.068 23.568 
L 46.068 238.804 
z
" style="fill: none"/>
   </g>
   <g id="matplotlib.axis_1">
    <g id="xtick_1">
     <g id="line2d_1">
      <defs>
       <path id="meaf413d10e" d="M 0 0 
L 0 4.8 
" style="stroke: #262626"/>
      </defs>
      <g>
       <use xlink:href="#meaf413d10e" x="90.284532" y="238.804" style="fill: #262626; stroke: #262626"/>
      </g>
     </g>
     <g id="text_1">
      <!-- Low -->
      <g style="fill: #262626" transform="translate(81.619282 253.790625) scale(0.088 -0.088)">
       <defs>
        <path id="DejaVuSans-4c" d="M 628 4666 
L 1259 4666 
L 1259 531 
L 3531 531 
L 3531 0 
L 628 0 
L 628 4666 
z
" transform="scale(0.015625)"/>
        <path id="DejaVuSans-6f" d="M 1959 3097 
Q 1497 3097 1228 2736 
Q 959 2375 959 1747 
Q 959 1119 1226 758 
Q 1494 397 1959 397 
Q 2419 397 2687 759 
Q 2956 1122 2956 1747 
Q 2956 2369 2687 2733 
Q 2419 3097 1959 3097 
z
M 1959 3584 
Q 2709 3584 3137 3096 
Q 3566 2609 3566 1747 
Q 3566 888 3137 398 
Q 2709 -91 1959 -91 
Q 1206 -91 779 398 
Q 353 888 353 1747 
Q 353 2609 779 3096 
Q 1206 3584 1959 3584 
z
" transform="scale(0.015625)"/>
        <path id="DejaVuSans-77" d="M 269 3500 
L 844 3500 
L 1563 769 
L 2278 3500 
L 2956 3500 
L 3675 769 
L 4391 3500 
L 4966 3500 
L 4050 0 
L 3372 0 
L 2619 2869 
L 1863 0 
L 1184 0 
L 269 3500 
z
" transform="scale(0.015625)"/>
       </defs>
       <use xlink:href="#DejaVuSans-4c"/>
       <use xlink:href="#DejaVuSans-6f" transform="translate(53.962891 0)"/>
       <use xlink:href="#DejaVuSans-77" transform="translate(115.144531 0)"/>
      </g>
     </g>
    </g>
    <g id="xtick_2">
     <g id="line2d_2">
      <g>
       <use xlink:href="#meaf413d10e" x="172.167" y="238.804" style="fill: #262626; stroke: #262626"/>
      </g>
     </g>
     <g id="text_2">
      <!-- Medium -->
      <g style="fill: #262626" transform="translate(154.573187 253.790625) scale(0.088 -0.088)">
       <defs>
        <path id="DejaVuSans-4d" d="M 628 4666 
L 1569 4666 
L 2759 1491 
L 3956 4666 
L 4897 4666 
L 4897 0 
L 4281 0 
L 4281 4097 
L 3078 897 
L 2444 897 
L 1241 4097 
L 1241 0 
L 628 0 
L 628 4666 
z
" transform="scale(0.015625)"/>
        <path id="DejaVuSans-65" d="M 3597 1894 
L 3597 1613 
L 953 1613 
Q 991 1019 1311 708 
Q 1631 397 2203 397 
Q 2534 397 2845 478 
Q 3156 559 3463 722 
L 3463 178 
Q 3153 47 2828 -22 
Q 2503 -91 2169 -91 
Q 1331 -91 842 396 
Q 353 884 353 1716 
Q 353 2575 817 3079 
Q 1281 3584 2069 3584 
Q 2775 3584 3186 3129 
Q 3597 2675 3597 1894 
z
M 3022 2063 
Q 3016 2534 2758 2815 
Q 2500 3097 2075 3097 
Q 1594 3097 1305 2825 
Q 1016 2553 972 2059 
L 3022 2063 
z
" transform="scale(0.015625)"/>
        <path id="DejaVuSans-64" d="M 2906 2969 
L 2906 4863 
L 3481 4863 
L 3481 0 
L 2906 0 
L 2906 525 
Q 2725 213 2448 61 
Q 2172 -91 1784 -91 
Q 1150 -91 751 415 
Q 353 922 353 1747 
Q 353 2572 751 3078 
Q 1150 3584 1784 3584 
Q 2172 3584 2448 3432 
Q 2725 3281 2906 2969 
z
M 947 1747 
Q 947 1113 1208 752 
Q 1469 391 1925 391 
Q 2381 391 2643 752 
Q 2906 1113 2906 1747 
Q 2906 2381 2643 2742 
Q 2381 3103 1925 3103 
Q 1469 3103 1208 2742 
Q 947 2381 947 1747 
z
" transform="scale(0.015625)"/>
        <path id="DejaVuSans-69" d="M 603 3500 
L 1178 3500 
L 1178 0 
L 603 0 
L 603 3500 
z
M 603 4863 
L 1178 4863 
L 1178 4134 
L 603 4134 
L 603 4863 
z
" transform="scale(0.015625)"/>
        <path id="DejaVuSans-75" d="M 544 1381 
L 544 3500 
L 1119 3500 
L 1119 1403 
Q 1119 906 1312 657 
Q 1506 409 1894 409 
Q 2359 409 2629 706 
Q 2900 1003 2900 1516 
L 2900 3500 
L 3475 3500 
L 3475 0 
L 2900 0 
L 2900 538 
Q 2691 219 2414 64 
Q 2138 -91 1772 -91 
Q 1169 -91 856 284 
Q 544 659 544 1381 
z
M 1991 3584 
L 1991 3584 
z
" transform="scale(0.015625)"/>
        <path id="DejaVuSans-6d" d="M 3328 2828 
Q 3544 3216 3844 3400 
Q 4144 3584 4550 3584 
Q 5097 3584 5394 3201 
Q 5691 2819 5691 2113 
L 5691 0 
L 5113 0 
L 5113 2094 
Q 5113 2597 4934 2840 
Q 4756 3084 4391 3084 
Q 3944 3084 3684 2787 
Q 3425 2491 3425 1978 
L 3425 0 
L 2847 0 
L 2847 2094 
Q 2847 2600 2669 2842 
Q 2491 3084 2119 3084 
Q 1678 3084 1418 2786 
Q 1159 2488 1159 1978 
L 1159 0 
L 581 0 
L 581 3500 
L 1159 3500 
L 1159 2956 
Q 1356 3278 1631 3431 
Q 1906 3584 2284 3584 
Q 2666 3584 2933 3390 
Q 3200 3197 3328 2828 
z
" transform="scale(0.015625)"/>
       </defs>
       <use xlink:href="#DejaVuSans-4d"/>
       <use xlink:href="#DejaVuSans-65" transform="translate(86.279297 0)"/>
       <use xlink:href="#DejaVuSans-64" transform="translate(147.802734 0)"/>
       <use xlink:href="#DejaVuSans-69" transform="translate(211.279297 0)"/>
       <use xlink:href="#DejaVuSans-75" transform="translate(239.0625 0)"/>
       <use xlink:href="#DejaVuSans-6d" transform="translate(302.441406 0)"/>
      </g>
     </g>
    </g>
    <g id="xtick_3">
     <g id="line2d_3">
      <g>
       <use xlink:href="#meaf413d10e" x="254.049468" y="238.804" style="fill: #262626; stroke: #262626"/>
      </g>
     </g>
     <g id="text_3">
      <!-- High -->
      <g style="fill: #262626" transform="translate(243.936343 253.790625) scale(0.088 -0.088)">
       <defs>
        <path id="DejaVuSans-48" d="M 628 4666 
L 1259 4666 
L 1259 2753 
L 3553 2753 
L 3553 4666 
L 4184 4666 
L 4184 0 
L 3553 0 
L 3553 2222 
L 1259 2222 
L 1259 0 
L 628 0 
L 628 4666 
z
" transform="scale(0.015625)"/>
        <path id="DejaVuSans-67" d="M 2906 1791 
Q 2906 2416 2648 2759 
Q 2391 3103 1925 3103 
Q 1463 3103 1205 2759 
Q 947 2416 947 1791 
Q 947 1169 1205 825 
Q 1463 481 1925 481 
Q 2391 481 2648 825 
Q 2906 1169 2906 1791 
z
M 3481 434 
Q 3481 -459 3084 -895 
Q 2688 -1331 1869 -1331 
Q 1566 -1331 1297 -1286 
Q 1028 -1241 775 -1147 
L 775 -588 
Q 1028 -725 1275 -790 
Q 1522 -856 1778 -856 
Q 2344 -856 2625 -561 
Q 2906 -266 2906 331 
L 2906 616 
Q 2728 306 2450 153 
Q 2172 0 1784 0 
Q 1141 0 747 490 
Q 353 981 353 1791 
Q 353 2603 747 3093 
Q 1141 3584 1784 3584 
Q 2172 3584 2450 3431 
Q 2728 3278 2906 2969 
L 2906 3500 
L 3481 3500 
L 3481 434 
z
" transform="scale(0.015625)"/>
        <path id="DejaVuSans-68" d="M 3513 2113 
L 3513 0 
L 2938 0 
L 2938 2094 
Q 2938 2591 2744 2837 
Q 2550 3084 2163 3084 
Q 1697 3084 1428 2787 
Q 1159 2491 1159 1978 
L 1159 0 
L 581 0 
L 581 4863 
L 1159 4863 
L 1159 2956 
Q 1366 3272 1645 3428 
Q 1925 3584 2291 3584 
Q 2894 3584 3203 3211 
Q 3513 2838 3513 2113 
z
" transform="scale(0.015625)"/>
       </defs>
       <use xlink:href="#DejaVuSans-48"/>
       <use xlink:href="#DejaVuSans-69" transform="translate(75.195312 0)"/>
       <use xlink:href="#DejaVuSans-67" transform="translate(102.978516 0)"/>
       <use xlink:href="#DejaVuSans-68" transform="translate(166.455078 0)"/>
      </g>
     </g>
    </g>
   </g>
   <g id="matplotlib.axis_2">
    <g id="ytick_1">
     <g id="line2d_4">
      <defs>
       <path id="m173dab7354" d="M 0 0 
L -4.8 0 
" style="stroke: #262626"/>
      </defs>
      <g>
       <use xlink:href="#m173dab7354" x="46.068" y="238.804" style="fill: #262626; stroke: #262626"/>
      </g>
     </g>
     <g id="text_4">
      <!-- 0.5 -->
      <g style="fill: #262626" transform="translate(23.77325 242.147312) scale(0.088 -0.088)">
       <defs>
        <path id="DejaVuSans-30" d="M 2034 4250 
Q 1547 4250 1301 3770 
Q 1056 3291 1056 2328 
Q 1056 1369 1301 889 
Q 1547 409 2034 409 
Q 2525 409 2770 889 
Q 3016 1369 3016 2328 
Q 3016 3291 2770 3770 
Q 2525 4250 2034 4250 
z
M 2034 4750 
Q 2819 4750 3233 4129 
Q 3647 3509 3647 2328 
Q 3647 1150 3233 529 
Q 2819 -91 2034 -91 
Q 1250 -91 836 529 
Q 422 1150 422 2328 
Q 422 3509 836 4129 
Q 1250 4750 2034 4750 
z
" transform="scale(0.015625)"/>
        <path id="DejaVuSans-2e" d="M 684 794 
L 1344 794 
L 1344 0 
L 684 0 
L 684 794 
z
" transform="scale(0.015625)"/>
        <path id="DejaVuSans-35" d="M 691 4666 
L 3169 4666 
L 3169 4134 
L 1269 4134 
L 1269 2991 
Q 1406 3038 1543 3061 
Q 1681 3084 1819 3084 
Q 2600 3084 3056 2656 
Q 3513 2228 3513 1497 
Q 3513 744 3044 326 
Q 2575 -91 1722 -91 
Q 1428 -91 1123 -41 
Q 819 9 494 109 
L 494 744 
Q 775 591 1075 516 
Q 1375 441 1709 441 
Q 2250 441 2565 725 
Q 2881 1009 2881 1497 
Q 2881 1984 2565 2268 
Q 2250 2553 1709 2553 
Q 1456 2553 1204 2497 
Q 953 2441 691 2322 
L 691 4666 
z
" transform="scale(0.015625)"/>
       </defs>
       <use xlink:href="#DejaVuSans-30"/>
       <use xlink:href="#DejaVuSans-2e" transform="translate(63.623047 0)"/>
       <use xlink:href="#DejaVuSans-35" transform="translate(95.410156 0)"/>
      </g>
     </g>
    </g>
    <g id="ytick_2">
     <g id="line2d_5">
      <g>
       <use xlink:href="#m173dab7354" x="46.068" y="202.931333" style="fill: #262626; stroke: #262626"/>
      </g>
     </g>
     <g id="text_5">
      <!-- 0.6 -->
      <g style="fill: #262626" transform="translate(23.77325 206.274646) scale(0.088 -0.088)">
       <defs>
        <path id="DejaVuSans-36" d="M 2113 2584 
Q 1688 2584 1439 2293 
Q 1191 2003 1191 1497 
Q 1191 994 1439 701 
Q 1688 409 2113 409 
Q 2538 409 2786 701 
Q 3034 994 3034 1497 
Q 3034 2003 2786 2293 
Q 2538 2584 2113 2584 
z
M 3366 4563 
L 3366 3988 
Q 3128 4100 2886 4159 
Q 2644 4219 2406 4219 
Q 1781 4219 1451 3797 
Q 1122 3375 1075 2522 
Q 1259 2794 1537 2939 
Q 1816 3084 2150 3084 
Q 2853 3084 3261 2657 
Q 3669 2231 3669 1497 
Q 3669 778 3244 343 
Q 2819 -91 2113 -91 
Q 1303 -91 875 529 
Q 447 1150 447 2328 
Q 447 3434 972 4092 
Q 1497 4750 2381 4750 
Q 2619 4750 2861 4703 
Q 3103 4656 3366 4563 
z
" transform="scale(0.015625)"/>
       </defs>
       <use xlink:href="#DejaVuSans-30"/>
       <use xlink:href="#DejaVuSans-2e" transform="translate(63.623047 0)"/>
       <use xlink:href="#DejaVuSans-36" transform="translate(95.410156 0)"/>
      </g>
     </g>
    </g>
    <g id="ytick_3">
     <g id="line2d_6">
      <g>
       <use xlink:href="#m173dab7354" x="46.068" y="167.058667" style="fill: #262626; stroke: #262626"/>
      </g>
     </g>
     <g id="text_6">
      <!-- 0.7 -->
      <g style="fill: #262626" transform="translate(23.77325 170.401979) scale(0.088 -0.088)">
       <defs>
        <path id="DejaVuSans-37" d="M 525 4666 
L 3525 4666 
L 3525 4397 
L 1831 0 
L 1172 0 
L 2766 4134 
L 525 4134 
L 525 4666 
z
" transform="scale(0.015625)"/>
       </defs>
       <use xlink:href="#DejaVuSans-30"/>
       <use xlink:href="#DejaVuSans-2e" transform="translate(63.623047 0)"/>
       <use xlink:href="#DejaVuSans-37" transform="translate(95.410156 0)"/>
      </g>
     </g>
    </g>
    <g id="ytick_4">
     <g id="line2d_7">
      <g>
       <use xlink:href="#m173dab7354" x="46.068" y="131.186" style="fill: #262626; stroke: #262626"/>
      </g>
     </g>
     <g id="text_7">
      <!-- 0.8 -->
      <g style="fill: #262626" transform="translate(23.77325 134.529312) scale(0.088 -0.088)">
       <defs>
        <path id="DejaVuSans-38" d="M 2034 2216 
Q 1584 2216 1326 1975 
Q 1069 1734 1069 1313 
Q 1069 891 1326 650 
Q 1584 409 2034 409 
Q 2484 409 2743 651 
Q 3003 894 3003 1313 
Q 3003 1734 2745 1975 
Q 2488 2216 2034 2216 
z
M 1403 2484 
Q 997 2584 770 2862 
Q 544 3141 544 3541 
Q 544 4100 942 4425 
Q 1341 4750 2034 4750 
Q 2731 4750 3128 4425 
Q 3525 4100 3525 3541 
Q 3525 3141 3298 2862 
Q 3072 2584 2669 2484 
Q 3125 2378 3379 2068 
Q 3634 1759 3634 1313 
Q 3634 634 3220 271 
Q 2806 -91 2034 -91 
Q 1263 -91 848 271 
Q 434 634 434 1313 
Q 434 1759 690 2068 
Q 947 2378 1403 2484 
z
M 1172 3481 
Q 1172 3119 1398 2916 
Q 1625 2713 2034 2713 
Q 2441 2713 2670 2916 
Q 2900 3119 2900 3481 
Q 2900 3844 2670 4047 
Q 2441 4250 2034 4250 
Q 1625 4250 1398 4047 
Q 1172 3844 1172 3481 
z
" transform="scale(0.015625)"/>
       </defs>
       <use xlink:href="#DejaVuSans-30"/>
       <use xlink:href="#DejaVuSans-2e" transform="translate(63.623047 0)"/>
       <use xlink:href="#DejaVuSans-38" transform="translate(95.410156 0)"/>
      </g>
     </g>
    </g>
    <g id="ytick_5">
     <g id="line2d_8">
      <g>
       <use xlink:href="#m173dab7354" x="46.068" y="95.313333" style="fill: #262626; stroke: #262626"/>
      </g>
     </g>
     <g id="text_8">
      <!-- 0.9 -->
      <g style="fill: #262626" transform="translate(23.77325 98.656646) scale(0.088 -0.088)">
       <defs>
        <path id="DejaVuSans-39" d="M 703 97 
L 703 672 
Q 941 559 1184 500 
Q 1428 441 1663 441 
Q 2288 441 2617 861 
Q 2947 1281 2994 2138 
Q 2813 1869 2534 1725 
Q 2256 1581 1919 1581 
Q 1219 1581 811 2004 
Q 403 2428 403 3163 
Q 403 3881 828 4315 
Q 1253 4750 1959 4750 
Q 2769 4750 3195 4129 
Q 3622 3509 3622 2328 
Q 3622 1225 3098 567 
Q 2575 -91 1691 -91 
Q 1453 -91 1209 -44 
Q 966 3 703 97 
z
M 1959 2075 
Q 2384 2075 2632 2365 
Q 2881 2656 2881 3163 
Q 2881 3666 2632 3958 
Q 2384 4250 1959 4250 
Q 1534 4250 1286 3958 
Q 1038 3666 1038 3163 
Q 1038 2656 1286 2365 
Q 1534 2075 1959 2075 
z
" transform="scale(0.015625)"/>
       </defs>
       <use xlink:href="#DejaVuSans-30"/>
       <use xlink:href="#DejaVuSans-2e" transform="translate(63.623047 0)"/>
       <use xlink:href="#DejaVuSans-39" transform="translate(95.410156 0)"/>
      </g>
     </g>
    </g>
    <g id="ytick_6">
     <g id="line2d_9">
      <g>
       <use xlink:href="#m173dab7354" x="46.068" y="59.440667" style="fill: #262626; stroke: #262626"/>
      </g>
     </g>
     <g id="text_9">
      <!-- 1.0 -->
      <g style="fill: #262626" transform="translate(23.77325 62.783979) scale(0.088 -0.088)">
       <defs>
        <path id="DejaVuSans-31" d="M 794 531 
L 1825 531 
L 1825 4091 
L 703 3866 
L 703 4441 
L 1819 4666 
L 2450 4666 
L 2450 531 
L 3481 531 
L 3481 0 
L 794 0 
L 794 531 
z
" transform="scale(0.015625)"/>
       </defs>
       <use xlink:href="#DejaVuSans-31"/>
       <use xlink:href="#DejaVuSans-2e" transform="translate(63.623047 0)"/>
       <use xlink:href="#DejaVuSans-30" transform="translate(95.410156 0)"/>
      </g>
     </g>
    </g>
    <g id="ytick_7">
     <g id="line2d_10">
      <g>
       <use xlink:href="#m173dab7354" x="46.068" y="23.568" style="fill: #262626; stroke: #262626"/>
      </g>
     </g>
     <g id="text_10">
      <!-- 1.1 -->
      <g style="fill: #262626" transform="translate(23.77325 26.911313) scale(0.088 -0.088)">
       <use xlink:href="#DejaVuSans-31"/>
       <use xlink:href="#DejaVuSans-2e" transform="translate(63.623047 0)"/>
       <use xlink:href="#DejaVuSans-31" transform="translate(95.410156 0)"/>
      </g>
     </g>
    </g>
    <g id="text_11">
     <!-- Probability of correct response -->
     <g style="fill: #262626" transform="translate(17.77675 204.36575) rotate(-90) scale(0.096 -0.096)">
      <defs>
       <path id="DejaVuSans-50" d="M 1259 4147 
L 1259 2394 
L 2053 2394 
Q 2494 2394 2734 2622 
Q 2975 2850 2975 3272 
Q 2975 3691 2734 3919 
Q 2494 4147 2053 4147 
L 1259 4147 
z
M 628 4666 
L 2053 4666 
Q 2838 4666 3239 4311 
Q 3641 3956 3641 3272 
Q 3641 2581 3239 2228 
Q 2838 1875 2053 1875 
L 1259 1875 
L 1259 0 
L 628 0 
L 628 4666 
z
" transform="scale(0.015625)"/>
       <path id="DejaVuSans-72" d="M 2631 2963 
Q 2534 3019 2420 3045 
Q 2306 3072 2169 3072 
Q 1681 3072 1420 2755 
Q 1159 2438 1159 1844 
L 1159 0 
L 581 0 
L 581 3500 
L 1159 3500 
L 1159 2956 
Q 1341 3275 1631 3429 
Q 1922 3584 2338 3584 
Q 2397 3584 2469 3576 
Q 2541 3569 2628 3553 
L 2631 2963 
z
" transform="scale(0.015625)"/>
       <path id="DejaVuSans-62" d="M 3116 1747 
Q 3116 2381 2855 2742 
Q 2594 3103 2138 3103 
Q 1681 3103 1420 2742 
Q 1159 2381 1159 1747 
Q 1159 1113 1420 752 
Q 1681 391 2138 391 
Q 2594 391 2855 752 
Q 3116 1113 3116 1747 
z
M 1159 2969 
Q 1341 3281 1617 3432 
Q 1894 3584 2278 3584 
Q 2916 3584 3314 3078 
Q 3713 2572 3713 1747 
Q 3713 922 3314 415 
Q 2916 -91 2278 -91 
Q 1894 -91 1617 61 
Q 1341 213 1159 525 
L 1159 0 
L 581 0 
L 581 4863 
L 1159 4863 
L 1159 2969 
z
" transform="scale(0.015625)"/>
       <path id="DejaVuSans-61" d="M 2194 1759 
Q 1497 1759 1228 1600 
Q 959 1441 959 1056 
Q 959 750 1161 570 
Q 1363 391 1709 391 
Q 2188 391 2477 730 
Q 2766 1069 2766 1631 
L 2766 1759 
L 2194 1759 
z
M 3341 1997 
L 3341 0 
L 2766 0 
L 2766 531 
Q 2569 213 2275 61 
Q 1981 -91 1556 -91 
Q 1019 -91 701 211 
Q 384 513 384 1019 
Q 384 1609 779 1909 
Q 1175 2209 1959 2209 
L 2766 2209 
L 2766 2266 
Q 2766 2663 2505 2880 
Q 2244 3097 1772 3097 
Q 1472 3097 1187 3025 
Q 903 2953 641 2809 
L 641 3341 
Q 956 3463 1253 3523 
Q 1550 3584 1831 3584 
Q 2591 3584 2966 3190 
Q 3341 2797 3341 1997 
z
" transform="scale(0.015625)"/>
       <path id="DejaVuSans-6c" d="M 603 4863 
L 1178 4863 
L 1178 0 
L 603 0 
L 603 4863 
z
" transform="scale(0.015625)"/>
       <path id="DejaVuSans-74" d="M 1172 4494 
L 1172 3500 
L 2356 3500 
L 2356 3053 
L 1172 3053 
L 1172 1153 
Q 1172 725 1289 603 
Q 1406 481 1766 481 
L 2356 481 
L 2356 0 
L 1766 0 
Q 1100 0 847 248 
Q 594 497 594 1153 
L 594 3053 
L 172 3053 
L 172 3500 
L 594 3500 
L 594 4494 
L 1172 4494 
z
" transform="scale(0.015625)"/>
       <path id="DejaVuSans-79" d="M 2059 -325 
Q 1816 -950 1584 -1140 
Q 1353 -1331 966 -1331 
L 506 -1331 
L 506 -850 
L 844 -850 
Q 1081 -850 1212 -737 
Q 1344 -625 1503 -206 
L 1606 56 
L 191 3500 
L 800 3500 
L 1894 763 
L 2988 3500 
L 3597 3500 
L 2059 -325 
z
" transform="scale(0.015625)"/>
       <path id="DejaVuSans-20" transform="scale(0.015625)"/>
       <path id="DejaVuSans-66" d="M 2375 4863 
L 2375 4384 
L 1825 4384 
Q 1516 4384 1395 4259 
Q 1275 4134 1275 3809 
L 1275 3500 
L 2222 3500 
L 2222 3053 
L 1275 3053 
L 1275 0 
L 697 0 
L 697 3053 
L 147 3053 
L 147 3500 
L 697 3500 
L 697 3744 
Q 697 4328 969 4595 
Q 1241 4863 1831 4863 
L 2375 4863 
z
" transform="scale(0.015625)"/>
       <path id="DejaVuSans-63" d="M 3122 3366 
L 3122 2828 
Q 2878 2963 2633 3030 
Q 2388 3097 2138 3097 
Q 1578 3097 1268 2742 
Q 959 2388 959 1747 
Q 959 1106 1268 751 
Q 1578 397 2138 397 
Q 2388 397 2633 464 
Q 2878 531 3122 666 
L 3122 134 
Q 2881 22 2623 -34 
Q 2366 -91 2075 -91 
Q 1284 -91 818 406 
Q 353 903 353 1747 
Q 353 2603 823 3093 
Q 1294 3584 2113 3584 
Q 2378 3584 2631 3529 
Q 2884 3475 3122 3366 
z
" transform="scale(0.015625)"/>
       <path id="DejaVuSans-73" d="M 2834 3397 
L 2834 2853 
Q 2591 2978 2328 3040 
Q 2066 3103 1784 3103 
Q 1356 3103 1142 2972 
Q 928 2841 928 2578 
Q 928 2378 1081 2264 
Q 1234 2150 1697 2047 
L 1894 2003 
Q 2506 1872 2764 1633 
Q 3022 1394 3022 966 
Q 3022 478 2636 193 
Q 2250 -91 1575 -91 
Q 1294 -91 989 -36 
Q 684 19 347 128 
L 347 722 
Q 666 556 975 473 
Q 1284 391 1588 391 
Q 1994 391 2212 530 
Q 2431 669 2431 922 
Q 2431 1156 2273 1281 
Q 2116 1406 1581 1522 
L 1381 1569 
Q 847 1681 609 1914 
Q 372 2147 372 2553 
Q 372 3047 722 3315 
Q 1072 3584 1716 3584 
Q 2034 3584 2315 3537 
Q 2597 3491 2834 3397 
z
" transform="scale(0.015625)"/>
       <path id="DejaVuSans-70" d="M 1159 525 
L 1159 -1331 
L 581 -1331 
L 581 3500 
L 1159 3500 
L 1159 2969 
Q 1341 3281 1617 3432 
Q 1894 3584 2278 3584 
Q 2916 3584 3314 3078 
Q 3713 2572 3713 1747 
Q 3713 922 3314 415 
Q 2916 -91 2278 -91 
Q 1894 -91 1617 61 
Q 1341 213 1159 525 
z
M 3116 1747 
Q 3116 2381 2855 2742 
Q 2594 3103 2138 3103 
Q 1681 3103 1420 2742 
Q 1159 2381 1159 1747 
Q 1159 1113 1420 752 
Q 1681 391 2138 391 
Q 2594 391 2855 752 
Q 3116 1113 3116 1747 
z
" transform="scale(0.015625)"/>
       <path id="DejaVuSans-6e" d="M 3513 2113 
L 3513 0 
L 2938 0 
L 2938 2094 
Q 2938 2591 2744 2837 
Q 2550 3084 2163 3084 
Q 1697 3084 1428 2787 
Q 1159 2491 1159 1978 
L 1159 0 
L 581 0 
L 581 3500 
L 1159 3500 
L 1159 2956 
Q 1366 3272 1645 3428 
Q 1925 3584 2291 3584 
Q 2894 3584 3203 3211 
Q 3513 2838 3513 2113 
z
" transform="scale(0.015625)"/>
      </defs>
      <use xlink:href="#DejaVuSans-50"/>
      <use xlink:href="#DejaVuSans-72" transform="translate(58.552734 0)"/>
      <use xlink:href="#DejaVuSans-6f" transform="translate(97.416016 0)"/>
      <use xlink:href="#DejaVuSans-62" transform="translate(158.597656 0)"/>
      <use xlink:href="#DejaVuSans-61" transform="translate(222.074219 0)"/>
      <use xlink:href="#DejaVuSans-62" transform="translate(283.353516 0)"/>
      <use xlink:href="#DejaVuSans-69" transform="translate(346.830078 0)"/>
      <use xlink:href="#DejaVuSans-6c" transform="translate(374.613281 0)"/>
      <use xlink:href="#DejaVuSans-69" transform="translate(402.396484 0)"/>
      <use xlink:href="#DejaVuSans-74" transform="translate(430.179688 0)"/>
      <use xlink:href="#DejaVuSans-79" transform="translate(469.388672 0)"/>
      <use xlink:href="#DejaVuSans-20" transform="translate(528.568359 0)"/>
      <use xlink:href="#DejaVuSans-6f" transform="translate(560.355469 0)"/>
      <use xlink:href="#DejaVuSans-66" transform="translate(621.537109 0)"/>
      <use xlink:href="#DejaVuSans-20" transform="translate(656.742188 0)"/>
      <use xlink:href="#DejaVuSans-63" transform="translate(688.529297 0)"/>
      <use xlink:href="#DejaVuSans-6f" transform="translate(743.509766 0)"/>
      <use xlink:href="#DejaVuSans-72" transform="translate(804.691406 0)"/>
      <use xlink:href="#DejaVuSans-72" transform="translate(844.054688 0)"/>
      <use xlink:href="#DejaVuSans-65" transform="translate(882.917969 0)"/>
      <use xlink:href="#DejaVuSans-63" transform="translate(944.441406 0)"/>
      <use xlink:href="#DejaVuSans-74" transform="translate(999.421875 0)"/>
      <use xlink:href="#DejaVuSans-20" transform="translate(1038.630859 0)"/>
      <use xlink:href="#DejaVuSans-72" transform="translate(1070.417969 0)"/>
      <use xlink:href="#DejaVuSans-65" transform="translate(1109.28125 0)"/>
      <use xlink:href="#DejaVuSans-73" transform="translate(1170.804688 0)"/>
      <use xlink:href="#DejaVuSans-70" transform="translate(1222.904297 0)"/>
      <use xlink:href="#DejaVuSans-6f" transform="translate(1286.380859 0)"/>
      <use xlink:href="#DejaVuSans-6e" transform="translate(1347.5625 0)"/>
      <use xlink:href="#DejaVuSans-73" transform="translate(1410.941406 0)"/>
      <use xlink:href="#DejaVuSans-65" transform="translate(1463.041016 0)"/>
     </g>
    </g>
   </g>
   <g id="FillBetweenPolyCollection_1">
    <defs>
     <path id="mab5d42121d" d="M 96.913699 -124.5286 
L 83.655366 -124.5286 
L 83.550322 -125.297346 
L 83.449245 -126.066093 
L 83.350636 -126.834839 
L 83.252786 -127.603586 
L 83.153791 -128.372332 
L 83.051565 -129.141079 
L 82.943866 -129.909825 
L 82.828315 -130.678572 
L 82.702428 -131.447318 
L 82.563643 -132.216065 
L 82.409353 -132.984811 
L 82.236945 -133.753558 
L 82.04383 -134.522304 
L 81.827488 -135.291051 
L 81.585501 -136.059797 
L 81.315594 -136.828544 
L 81.015671 -137.59729 
L 80.683856 -138.366037 
L 80.318524 -139.134783 
L 79.918335 -139.90353 
L 79.482268 -140.672276 
L 79.009642 -141.441023 
L 78.500146 -142.209769 
L 77.953851 -142.978516 
L 77.371233 -143.747262 
L 76.753173 -144.516009 
L 76.10097 -145.284755 
L 75.416335 -146.053502 
L 74.701386 -146.822248 
L 73.958637 -147.590995 
L 73.190977 -148.359741 
L 72.401649 -149.128488 
L 71.594225 -149.897234 
L 70.772564 -150.665981 
L 69.940784 -151.434727 
L 69.103214 -152.203474 
L 68.264349 -152.97222 
L 67.428807 -153.740967 
L 66.601272 -154.509713 
L 65.786447 -155.27846 
L 64.988999 -156.047206 
L 64.213509 -156.815953 
L 63.464422 -157.584699 
L 62.745993 -158.353446 
L 62.062245 -159.122192 
L 61.416928 -159.890939 
L 60.813472 -160.659685 
L 60.254963 -161.428432 
L 59.744107 -162.197178 
L 59.283208 -162.965925 
L 58.874158 -163.734671 
L 58.518415 -164.503418 
L 58.217008 -165.272164 
L 57.970538 -166.040911 
L 57.779179 -166.809657 
L 57.642701 -167.578404 
L 57.560485 -168.34715 
L 57.531545 -169.115897 
L 57.554564 -169.884643 
L 57.627918 -170.65339 
L 57.749715 -171.422136 
L 57.917833 -172.190883 
L 58.129956 -172.959629 
L 58.383615 -173.728376 
L 58.676224 -174.497122 
L 59.005122 -175.265869 
L 59.367605 -176.034615 
L 59.760964 -176.803362 
L 60.182513 -177.572108 
L 60.62962 -178.340855 
L 61.099728 -179.109601 
L 61.590383 -179.878348 
L 62.099244 -180.647094 
L 62.624101 -181.415841 
L 63.162888 -182.184587 
L 63.713681 -182.953334 
L 64.274709 -183.72208 
L 64.844351 -184.490827 
L 65.421133 -185.259573 
L 66.003723 -186.02832 
L 66.590925 -186.797066 
L 67.18167 -187.565813 
L 67.775002 -188.334559 
L 68.370072 -189.103306 
L 68.966124 -189.872052 
L 69.562482 -190.640799 
L 70.158537 -191.409545 
L 70.753739 -192.178292 
L 71.347581 -192.947038 
L 71.939591 -193.715785 
L 72.529321 -194.484531 
L 73.116337 -195.253278 
L 73.700213 -196.022024 
L 74.280521 -196.790771 
L 74.856827 -197.559517 
L 75.428688 -198.328264 
L 75.995643 -199.09701 
L 76.557216 -199.865756 
L 77.112909 -200.634503 
L 103.456156 -200.634503 
L 103.456156 -200.634503 
L 104.011849 -199.865756 
L 104.573422 -199.09701 
L 105.140377 -198.328264 
L 105.712237 -197.559517 
L 106.288544 -196.790771 
L 106.868852 -196.022024 
L 107.452728 -195.253278 
L 108.039744 -194.484531 
L 108.629474 -193.715785 
L 109.221484 -192.947038 
L 109.815326 -192.178292 
L 110.410528 -191.409545 
L 111.006583 -190.640799 
L 111.602941 -189.872052 
L 112.198993 -189.103306 
L 112.794063 -188.334559 
L 113.387395 -187.565813 
L 113.97814 -186.797066 
L 114.565342 -186.02832 
L 115.147932 -185.259573 
L 115.724714 -184.490827 
L 116.294356 -183.72208 
L 116.855384 -182.953334 
L 117.406177 -182.184587 
L 117.944963 -181.415841 
L 118.469821 -180.647094 
L 118.978682 -179.878348 
L 119.469337 -179.109601 
L 119.939445 -178.340855 
L 120.386551 -177.572108 
L 120.808101 -176.803362 
L 121.20146 -176.034615 
L 121.563943 -175.265869 
L 121.892841 -174.497122 
L 122.18545 -173.728376 
L 122.439109 -172.959629 
L 122.651232 -172.190883 
L 122.81935 -171.422136 
L 122.941147 -170.65339 
L 123.014501 -169.884643 
L 123.037519 -169.115897 
L 123.00858 -168.34715 
L 122.926364 -167.578404 
L 122.789886 -166.809657 
L 122.598527 -166.040911 
L 122.352056 -165.272164 
L 122.05065 -164.503418 
L 121.694907 -163.734671 
L 121.285856 -162.965925 
L 120.824958 -162.197178 
L 120.314102 -161.428432 
L 119.755592 -160.659685 
L 119.152137 -159.890939 
L 118.50682 -159.122192 
L 117.823072 -158.353446 
L 117.104643 -157.584699 
L 116.355556 -156.815953 
L 115.580066 -156.047206 
L 114.782618 -155.27846 
L 113.967793 -154.509713 
L 113.140258 -153.740967 
L 112.304716 -152.97222 
L 111.465851 -152.203474 
L 110.628281 -151.434727 
L 109.796501 -150.665981 
L 108.97484 -149.897234 
L 108.167416 -149.128488 
L 107.378088 -148.359741 
L 106.610428 -147.590995 
L 105.867679 -146.822248 
L 105.15273 -146.053502 
L 104.468095 -145.284755 
L 103.815892 -144.516009 
L 103.197832 -143.747262 
L 102.615214 -142.978516 
L 102.068919 -142.209769 
L 101.559422 -141.441023 
L 101.086797 -140.672276 
L 100.65073 -139.90353 
L 100.250541 -139.134783 
L 99.885209 -138.366037 
L 99.553394 -137.59729 
L 99.253471 -136.828544 
L 98.983564 -136.059797 
L 98.741577 -135.291051 
L 98.525235 -134.522304 
L 98.33212 -133.753558 
L 98.159712 -132.984811 
L 98.005422 -132.216065 
L 97.866637 -131.447318 
L 97.740749 -130.678572 
L 97.625199 -129.909825 
L 97.5175 -129.141079 
L 97.415274 -128.372332 
L 97.316279 -127.603586 
L 97.218429 -126.834839 
L 97.11982 -126.066093 
L 97.018743 -125.297346 
L 96.913699 -124.5286 
z
" style="stroke: #2f2f2f"/>
    </defs>
    <g clip-path="url(#p46e6841fa7)">
     <use xlink:href="#mab5d42121d" x="0" y="288" style="fill: #58b2a3; stroke: #2f2f2f"/>
    </g>
   </g>
   <g id="FillBetweenPolyCollection_2">
    <defs>
     <path id="m19dae1f142" d="M 197.666474 -160.960087 
L 146.667526 -160.960087 
L 146.201368 -161.329883 
L 145.755817 -161.699678 
L 145.331484 -162.069474 
L 144.928858 -162.43927 
L 144.548301 -162.809065 
L 144.190044 -163.178861 
L 143.854193 -163.548657 
L 143.540723 -163.918452 
L 143.249486 -164.288248 
L 142.980212 -164.658044 
L 142.732514 -165.027839 
L 142.50589 -165.397635 
L 142.299735 -165.767431 
L 142.113344 -166.137226 
L 141.945923 -166.507022 
L 141.796593 -166.876818 
L 141.664404 -167.246613 
L 141.548342 -167.616409 
L 141.447339 -167.986205 
L 141.360286 -168.356 
L 141.286036 -168.725796 
L 141.223425 -169.095592 
L 141.171273 -169.465387 
L 141.128397 -169.835183 
L 141.093623 -170.204978 
L 141.065791 -170.574774 
L 141.043768 -170.94457 
L 141.026454 -171.314365 
L 141.012788 -171.684161 
L 141.00176 -172.053957 
L 140.992411 -172.423752 
L 140.983844 -172.793548 
L 140.975226 -173.163344 
L 140.965794 -173.533139 
L 140.954855 -173.902935 
L 140.941793 -174.272731 
L 140.926068 -174.642526 
L 140.907218 -175.012322 
L 140.88486 -175.382118 
L 140.85869 -175.751913 
L 140.828482 -176.121709 
L 140.794088 -176.491505 
L 140.755435 -176.8613 
L 140.712523 -177.231096 
L 140.665427 -177.600892 
L 140.614286 -177.970687 
L 140.55931 -178.340483 
L 140.500769 -178.710279 
L 140.438995 -179.080074 
L 140.374374 -179.44987 
L 140.307348 -179.819665 
L 140.238408 -180.189461 
L 140.16809 -180.559257 
L 140.096973 -180.929052 
L 140.025677 -181.298848 
L 139.954854 -181.668644 
L 139.885192 -182.038439 
L 139.817406 -182.408235 
L 139.752237 -182.778031 
L 139.690447 -183.147826 
L 139.632818 -183.517622 
L 139.580147 -183.887418 
L 139.533244 -184.257213 
L 139.492926 -184.627009 
L 139.460018 -184.996805 
L 139.435346 -185.3666 
L 139.419738 -185.736396 
L 139.414013 -186.106192 
L 139.418987 -186.475987 
L 139.435463 -186.845783 
L 139.464229 -187.215579 
L 139.506057 -187.585374 
L 139.561697 -187.95517 
L 139.631873 -188.324966 
L 139.71728 -188.694761 
L 139.818581 -189.064557 
L 139.936404 -189.434352 
L 140.071333 -189.804148 
L 140.223914 -190.173944 
L 140.39464 -190.543739 
L 140.583956 -190.913535 
L 140.792252 -191.283331 
L 141.01986 -191.653126 
L 141.267048 -192.022922 
L 141.534025 -192.392718 
L 141.820929 -192.762513 
L 142.127828 -193.132309 
L 142.454721 -193.502105 
L 142.80153 -193.8719 
L 143.168105 -194.241696 
L 143.554216 -194.611492 
L 143.959559 -194.981287 
L 144.383749 -195.351083 
L 144.826328 -195.720879 
L 145.286758 -196.090674 
L 145.764428 -196.46047 
L 146.258651 -196.830266 
L 146.76867 -197.200061 
L 147.293661 -197.569857 
L 197.040339 -197.569857 
L 197.040339 -197.569857 
L 197.56533 -197.200061 
L 198.075349 -196.830266 
L 198.569572 -196.46047 
L 199.047242 -196.090674 
L 199.507672 -195.720879 
L 199.950251 -195.351083 
L 200.374441 -194.981287 
L 200.779784 -194.611492 
L 201.165895 -194.241696 
L 201.53247 -193.8719 
L 201.879279 -193.502105 
L 202.206172 -193.132309 
L 202.513071 -192.762513 
L 202.799975 -192.392718 
L 203.066952 -192.022922 
L 203.31414 -191.653126 
L 203.541748 -191.283331 
L 203.750044 -190.913535 
L 203.93936 -190.543739 
L 204.110086 -190.173944 
L 204.262667 -189.804148 
L 204.397596 -189.434352 
L 204.515419 -189.064557 
L 204.61672 -188.694761 
L 204.702127 -188.324966 
L 204.772303 -187.95517 
L 204.827943 -187.585374 
L 204.869771 -187.215579 
L 204.898537 -186.845783 
L 204.915013 -186.475987 
L 204.919987 -186.106192 
L 204.914262 -185.736396 
L 204.898654 -185.3666 
L 204.873982 -184.996805 
L 204.841074 -184.627009 
L 204.800756 -184.257213 
L 204.753853 -183.887418 
L 204.701182 -183.517622 
L 204.643553 -183.147826 
L 204.581763 -182.778031 
L 204.516594 -182.408235 
L 204.448808 -182.038439 
L 204.379146 -181.668644 
L 204.308323 -181.298848 
L 204.237027 -180.929052 
L 204.16591 -180.559257 
L 204.095592 -180.189461 
L 204.026652 -179.819665 
L 203.959626 -179.44987 
L 203.895005 -179.080074 
L 203.833231 -178.710279 
L 203.77469 -178.340483 
L 203.719714 -177.970687 
L 203.668573 -177.600892 
L 203.621477 -177.231096 
L 203.578565 -176.8613 
L 203.539912 -176.491505 
L 203.505518 -176.121709 
L 203.47531 -175.751913 
L 203.44914 -175.382118 
L 203.426782 -175.012322 
L 203.407932 -174.642526 
L 203.392207 -174.272731 
L 203.379145 -173.902935 
L 203.368206 -173.533139 
L 203.358774 -173.163344 
L 203.350156 -172.793548 
L 203.341589 -172.423752 
L 203.33224 -172.053957 
L 203.321212 -171.684161 
L 203.307546 -171.314365 
L 203.290232 -170.94457 
L 203.268209 -170.574774 
L 203.240377 -170.204978 
L 203.205603 -169.835183 
L 203.162727 -169.465387 
L 203.110575 -169.095592 
L 203.047964 -168.725796 
L 202.973714 -168.356 
L 202.886661 -167.986205 
L 202.785658 -167.616409 
L 202.669596 -167.246613 
L 202.537407 -166.876818 
L 202.388077 -166.507022 
L 202.220656 -166.137226 
L 202.034265 -165.767431 
L 201.82811 -165.397635 
L 201.601486 -165.027839 
L 201.353788 -164.658044 
L 201.084514 -164.288248 
L 200.793277 -163.918452 
L 200.479807 -163.548657 
L 200.143956 -163.178861 
L 199.785699 -162.809065 
L 199.405142 -162.43927 
L 199.002516 -162.069474 
L 198.578183 -161.699678 
L 198.132632 -161.329883 
L 197.666474 -160.960087 
z
" style="stroke: #2f2f2f"/>
    </defs>
    <g clip-path="url(#p46e6841fa7)">
     <use xlink:href="#m19dae1f142" x="0" y="288" style="fill: #437695; stroke: #2f2f2f"/>
    </g>
   </g>
   <g id="FillBetweenPolyCollection_3">
    <defs>
     <path id="m289bb2259f" d="M 273.159673 -149.639467 
L 234.939262 -149.639467 
L 234.439528 -150.208812 
L 233.95094 -150.778157 
L 233.474507 -151.347503 
L 233.011163 -151.916848 
L 232.561764 -152.486194 
L 232.127078 -153.055539 
L 231.707785 -153.624885 
L 231.304462 -154.19423 
L 230.917591 -154.763575 
L 230.547545 -155.332921 
L 230.194592 -155.902266 
L 229.858888 -156.471612 
L 229.540482 -157.040957 
L 229.239314 -157.610302 
L 228.955214 -158.179648 
L 228.687907 -158.748993 
L 228.437015 -159.318339 
L 228.202062 -159.887684 
L 227.982479 -160.45703 
L 227.777608 -161.026375 
L 227.58671 -161.59572 
L 227.408975 -162.165066 
L 227.243525 -162.734411 
L 227.089426 -163.303757 
L 226.945697 -163.873102 
L 226.811318 -164.442447 
L 226.685241 -165.011793 
L 226.5664 -165.581138 
L 226.453721 -166.150484 
L 226.346132 -166.719829 
L 226.242572 -167.289175 
L 226.142005 -167.85852 
L 226.043422 -168.427865 
L 225.945859 -168.997211 
L 225.8484 -169.566556 
L 225.750185 -170.135902 
L 225.650422 -170.705247 
L 225.548388 -171.274592 
L 225.44344 -171.843938 
L 225.335018 -172.413283 
L 225.22265 -172.982629 
L 225.105957 -173.551974 
L 224.984654 -174.121319 
L 224.85855 -174.690665 
L 224.727556 -175.26001 
L 224.59168 -175.829356 
L 224.451027 -176.398701 
L 224.305799 -176.968047 
L 224.156294 -177.537392 
L 224.002901 -178.106737 
L 223.846099 -178.676083 
L 223.686452 -179.245428 
L 223.524605 -179.814774 
L 223.361279 -180.384119 
L 223.197268 -180.953464 
L 223.03343 -181.52281 
L 222.870684 -182.092155 
L 222.710002 -182.661501 
L 222.552405 -183.230846 
L 222.398956 -183.800192 
L 222.250751 -184.369537 
L 222.108917 -184.938882 
L 221.974603 -185.508228 
L 221.848973 -186.077573 
L 221.733202 -186.646919 
L 221.628466 -187.216264 
L 221.535939 -187.785609 
L 221.456784 -188.354955 
L 221.39215 -188.9243 
L 221.343162 -189.493646 
L 221.310918 -190.062991 
L 221.296481 -190.632336 
L 221.300873 -191.201682 
L 221.325072 -191.771027 
L 221.370003 -192.340373 
L 221.436532 -192.909718 
L 221.525464 -193.479064 
L 221.637533 -194.048409 
L 221.773401 -194.617754 
L 221.93365 -195.1871 
L 222.118779 -195.756445 
L 222.329199 -196.325791 
L 222.565226 -196.895136 
L 222.827081 -197.464481 
L 223.114885 -198.033827 
L 223.428656 -198.603172 
L 223.768305 -199.172518 
L 224.133637 -199.741863 
L 224.524347 -200.311209 
L 224.94002 -200.880554 
L 225.380133 -201.449899 
L 225.84405 -202.019245 
L 226.33103 -202.58859 
L 226.840228 -203.157936 
L 227.370692 -203.727281 
L 227.921377 -204.296626 
L 228.491138 -204.865972 
L 229.078747 -205.435317 
L 229.68289 -206.004663 
L 278.416046 -206.004663 
L 278.416046 -206.004663 
L 279.020188 -205.435317 
L 279.607797 -204.865972 
L 280.177558 -204.296626 
L 280.728243 -203.727281 
L 281.258707 -203.157936 
L 281.767905 -202.58859 
L 282.254885 -202.019245 
L 282.718803 -201.449899 
L 283.158915 -200.880554 
L 283.574588 -200.311209 
L 283.965298 -199.741863 
L 284.33063 -199.172518 
L 284.67028 -198.603172 
L 284.98405 -198.033827 
L 285.271854 -197.464481 
L 285.53371 -196.895136 
L 285.769736 -196.325791 
L 285.980156 -195.756445 
L 286.165285 -195.1871 
L 286.325534 -194.617754 
L 286.461402 -194.048409 
L 286.573472 -193.479064 
L 286.662403 -192.909718 
L 286.728932 -192.340373 
L 286.773863 -191.771027 
L 286.798062 -191.201682 
L 286.802455 -190.632336 
L 286.788017 -190.062991 
L 286.755773 -189.493646 
L 286.706785 -188.9243 
L 286.642151 -188.354955 
L 286.562996 -187.785609 
L 286.470469 -187.216264 
L 286.365733 -186.646919 
L 286.249962 -186.077573 
L 286.124332 -185.508228 
L 285.990018 -184.938882 
L 285.848184 -184.369537 
L 285.699979 -183.800192 
L 285.54653 -183.230846 
L 285.388933 -182.661501 
L 285.228251 -182.092155 
L 285.065505 -181.52281 
L 284.901667 -180.953464 
L 284.737656 -180.384119 
L 284.57433 -179.814774 
L 284.412483 -179.245428 
L 284.252836 -178.676083 
L 284.096034 -178.106737 
L 283.942641 -177.537392 
L 283.793136 -176.968047 
L 283.647908 -176.398701 
L 283.507255 -175.829356 
L 283.371379 -175.26001 
L 283.240385 -174.690665 
L 283.114282 -174.121319 
L 282.992978 -173.551974 
L 282.876285 -172.982629 
L 282.763917 -172.413283 
L 282.655495 -171.843938 
L 282.550547 -171.274592 
L 282.448513 -170.705247 
L 282.34875 -170.135902 
L 282.250535 -169.566556 
L 282.153076 -168.997211 
L 282.055513 -168.427865 
L 281.956931 -167.85852 
L 281.856363 -167.289175 
L 281.752803 -166.719829 
L 281.645214 -166.150484 
L 281.532535 -165.581138 
L 281.413694 -165.011793 
L 281.287617 -164.442447 
L 281.153238 -163.873102 
L 281.009509 -163.303757 
L 280.85541 -162.734411 
L 280.68996 -162.165066 
L 280.512225 -161.59572 
L 280.321328 -161.026375 
L 280.116456 -160.45703 
L 279.896873 -159.887684 
L 279.66192 -159.318339 
L 279.411028 -158.748993 
L 279.143721 -158.179648 
L 278.859621 -157.610302 
L 278.558453 -157.040957 
L 278.240047 -156.471612 
L 277.904344 -155.902266 
L 277.55139 -155.332921 
L 277.181344 -154.763575 
L 276.794473 -154.19423 
L 276.391151 -153.624885 
L 275.971857 -153.055539 
L 275.537171 -152.486194 
L 275.087772 -151.916848 
L 274.624428 -151.347503 
L 274.147995 -150.778157 
L 273.659407 -150.208812 
L 273.159673 -149.639467 
z
" style="stroke: #2f2f2f"/>
    </defs>
    <g clip-path="url(#p46e6841fa7)">
     <use xlink:href="#m289bb2259f" x="0" y="288" style="fill: #423b63; stroke: #2f2f2f"/>
    </g>
   </g>
   <g id="line2d_11">
    <path d="M 90.284532 132.63175 
L 90.284532 87.365497 
" clip-path="url(#p46e6841fa7)" style="fill: none; stroke: #2f2f2f; stroke-width: 1.5; stroke-linecap: round"/>
   </g>
   <g id="line2d_12">
    <path d="M 90.284532 124.260089 
L 90.284532 103.577194 
" clip-path="url(#p46e6841fa7)" style="fill: none; stroke: #2f2f2f; stroke-width: 4.5; stroke-linecap: round"/>
   </g>
   <g id="line2d_13">
    <path d="M 90.284532 122.636038 
" clip-path="url(#p46e6841fa7)" style="fill: none; stroke: #2f2f2f; stroke-width: 1.2; stroke-linecap: round"/>
    <defs>
     <path id="mdf17b1e656" d="M 1.875 0 
L -1.875 -0 
" style="stroke: #ffffff; stroke-width: 0.9"/>
    </defs>
    <g clip-path="url(#p46e6841fa7)">
     <use xlink:href="#mdf17b1e656" x="90.284532" y="122.636038" style="fill: #ffffff; stroke: #ffffff; stroke-width: 0.9"/>
    </g>
   </g>
   <g id="line2d_14">
    <path d="M 172.167 127.039913 
L 172.167 90.430143 
" clip-path="url(#p46e6841fa7)" style="fill: none; stroke: #2f2f2f; stroke-width: 1.5; stroke-linecap: round"/>
   </g>
   <g id="line2d_15">
    <path d="M 172.167 122.797864 
L 172.167 99.696776 
" clip-path="url(#p46e6841fa7)" style="fill: none; stroke: #2f2f2f; stroke-width: 4.5; stroke-linecap: round"/>
   </g>
   <g id="line2d_16">
    <path d="M 172.167 109.138316 
" clip-path="url(#p46e6841fa7)" style="fill: none; stroke: #2f2f2f; stroke-width: 1.2; stroke-linecap: round"/>
    <g clip-path="url(#p46e6841fa7)">
     <use xlink:href="#mdf17b1e656" x="172.167" y="109.138316" style="fill: #ffffff; stroke: #ffffff; stroke-width: 0.9"/>
    </g>
   </g>
   <g id="line2d_17">
    <path d="M 254.049468 138.360533 
L 254.049468 81.995337 
" clip-path="url(#p46e6841fa7)" style="fill: none; stroke: #2f2f2f; stroke-width: 1.5; stroke-linecap: round"/>
   </g>
   <g id="line2d_18">
    <path d="M 254.049468 125.148026 
L 254.049468 91.369218 
" clip-path="url(#p46e6841fa7)" style="fill: none; stroke: #2f2f2f; stroke-width: 4.5; stroke-linecap: round"/>
   </g>
   <g id="line2d_19">
    <path d="M 254.049468 102.167416 
" clip-path="url(#p46e6841fa7)" style="fill: none; stroke: #2f2f2f; stroke-width: 1.2; stroke-linecap: round"/>
    <g clip-path="url(#p46e6841fa7)">
     <use xlink:href="#mdf17b1e656" x="254.049468" y="102.167416" style="fill: #ffffff; stroke: #ffffff; stroke-width: 0.9"/>
    </g>
   </g>
   <g id="line2d_20">
    <path d="M 90.284532 78.408071 
L 90.284532 69.914089 
L 172.167 69.914089 
L 172.167 78.408071 
" clip-path="url(#p46e6841fa7)" style="fill: none; stroke: #000000; stroke-linecap: round"/>
   </g>
   <g id="line2d_21">
    <path d="M 172.167 64.059004 
L 172.167 55.206296 
L 254.049468 55.206296 
L 254.049468 64.059004 
" clip-path="url(#p46e6841fa7)" style="fill: none; stroke: #000000; stroke-linecap: round"/>
   </g>
   <g id="line2d_22">
    <path d="M 90.284532 49.709937 
L 90.284532 40.498502 
L 254.049468 40.498502 
L 254.049468 49.709937 
" clip-path="url(#p46e6841fa7)" style="fill: none; stroke: #000000; stroke-linecap: round"/>
   </g>
   <g id="patch_3">
    <path d="M 46.068 238.804 
L 46.068 23.568 
" style="fill: none; stroke: #262626; stroke-linejoin: miter; stroke-linecap: square"/>
   </g>
   <g id="patch_4">
    <path d="M 298.266 238.804 
L 298.266 23.568 
" style="fill: none; stroke: #262626; stroke-linejoin: miter; stroke-linecap: square"/>
   </g>
   <g id="patch_5">
    <path d="M 46.068 238.804 
L 298.266 238.804 
" style="fill: none; stroke: #262626; stroke-linejoin: miter; stroke-linecap: square"/>
   </g>
   <g id="patch_6">
    <path d="M 46.068 23.568 
L 298.266 23.568 
" style="fill: none; stroke: #262626; stroke-linejoin: miter; stroke-linecap: square"/>
   </g>
   <g id="text_12">
    <!-- ns -->
    <g transform="translate(125.683266 67.917589) scale(0.096 -0.096)">
     <use xlink:href="#DejaVuSans-6e"/>
     <use xlink:href="#DejaVuSans-73" transform="translate(63.378906 0)"/>
    </g>
   </g>
   <g id="text_13">
    <!-- ns -->
    <g transform="translate(207.565734 53.209796) scale(0.096 -0.096)">
     <use xlink:href="#DejaVuSans-6e"/>
     <use xlink:href="#DejaVuSans-73" transform="translate(63.378906 0)"/>
    </g>
   </g>
   <g id="text_14">
    <!-- ns -->
    <g transform="translate(166.6245 38.502002) scale(0.096 -0.096)">
     <use xlink:href="#DejaVuSans-6e"/>
     <use xlink:href="#DejaVuSans-73" transform="translate(63.378906 0)"/>
    </g>
   </g>
   <g id="text_15">
    <!-- Accuracy -->
    <g style="fill: #262626" transform="translate(150.252 17.568) scale(0.096 -0.096)">
     <defs>
      <path id="DejaVuSans-41" d="M 2188 4044 
L 1331 1722 
L 3047 1722 
L 2188 4044 
z
M 1831 4666 
L 2547 4666 
L 4325 0 
L 3669 0 
L 3244 1197 
L 1141 1197 
L 716 0 
L 50 0 
L 1831 4666 
z
" transform="scale(0.015625)"/>
     </defs>
     <use xlink:href="#DejaVuSans-41"/>
     <use xlink:href="#DejaVuSans-63" transform="translate(66.658203 0)"/>
     <use xlink:href="#DejaVuSans-63" transform="translate(121.638672 0)"/>
     <use xlink:href="#DejaVuSans-75" transform="translate(176.619141 0)"/>
     <use xlink:href="#DejaVuSans-72" transform="translate(239.998047 0)"/>
     <use xlink:href="#DejaVuSans-61" transform="translate(281.111328 0)"/>
     <use xlink:href="#DejaVuSans-63" transform="translate(342.390625 0)"/>
     <use xlink:href="#DejaVuSans-79" transform="translate(397.371094 0)"/>
    </g>
   </g>
  </g>
  <g id="axes_2">
   <g id="patch_7">
    <path d="M 313.434 238.804 
L 565.632 238.804 
L 565.632 23.568 
L 313.434 23.568 
L 313.434 238.804 
z
" style="fill: none"/>
   </g>
   <g id="matplotlib.axis_3">
    <g id="xtick_4">
     <g id="line2d_23">
      <g>
       <use xlink:href="#meaf413d10e" x="357.650532" y="238.804" style="fill: #262626; stroke: #262626"/>
      </g>
     </g>
     <g id="text_16">
      <!-- Low -->
      <g style="fill: #262626" transform="translate(348.985282 253.790625) scale(0.088 -0.088)">
       <use xlink:href="#DejaVuSans-4c"/>
       <use xlink:href="#DejaVuSans-6f" transform="translate(53.962891 0)"/>
       <use xlink:href="#DejaVuSans-77" transform="translate(115.144531 0)"/>
      </g>
     </g>
    </g>
    <g id="xtick_5">
     <g id="line2d_24">
      <g>
       <use xlink:href="#meaf413d10e" x="439.533" y="238.804" style="fill: #262626; stroke: #262626"/>
      </g>
     </g>
     <g id="text_17">
      <!-- Medium -->
      <g style="fill: #262626" transform="translate(421.939188 253.790625) scale(0.088 -0.088)">
       <use xlink:href="#DejaVuSans-4d"/>
       <use xlink:href="#DejaVuSans-65" transform="translate(86.279297 0)"/>
       <use xlink:href="#DejaVuSans-64" transform="translate(147.802734 0)"/>
       <use xlink:href="#DejaVuSans-69" transform="translate(211.279297 0)"/>
       <use xlink:href="#DejaVuSans-75" transform="translate(239.0625 0)"/>
       <use xlink:href="#DejaVuSans-6d" transform="translate(302.441406 0)"/>
      </g>
     </g>
    </g>
    <g id="xtick_6">
     <g id="line2d_25">
      <g>
       <use xlink:href="#meaf413d10e" x="521.415468" y="238.804" style="fill: #262626; stroke: #262626"/>
      </g>
     </g>
     <g id="text_18">
      <!-- High -->
      <g style="fill: #262626" transform="translate(511.302343 253.790625) scale(0.088 -0.088)">
       <use xlink:href="#DejaVuSans-48"/>
       <use xlink:href="#DejaVuSans-69" transform="translate(75.195312 0)"/>
       <use xlink:href="#DejaVuSans-67" transform="translate(102.978516 0)"/>
       <use xlink:href="#DejaVuSans-68" transform="translate(166.455078 0)"/>
      </g>
     </g>
    </g>
   </g>
   <g id="matplotlib.axis_4">
    <g id="ytick_8">
     <g id="line2d_26">
      <g>
       <use xlink:href="#m173dab7354" x="313.434" y="238.804" style="fill: #262626; stroke: #262626"/>
      </g>
     </g>
    </g>
    <g id="ytick_9">
     <g id="line2d_27">
      <g>
       <use xlink:href="#m173dab7354" x="313.434" y="202.931333" style="fill: #262626; stroke: #262626"/>
      </g>
     </g>
    </g>
    <g id="ytick_10">
     <g id="line2d_28">
      <g>
       <use xlink:href="#m173dab7354" x="313.434" y="167.058667" style="fill: #262626; stroke: #262626"/>
      </g>
     </g>
    </g>
    <g id="ytick_11">
     <g id="line2d_29">
      <g>
       <use xlink:href="#m173dab7354" x="313.434" y="131.186" style="fill: #262626; stroke: #262626"/>
      </g>
     </g>
    </g>
    <g id="ytick_12">
     <g id="line2d_30">
      <g>
       <use xlink:href="#m173dab7354" x="313.434" y="95.313333" style="fill: #262626; stroke: #262626"/>
      </g>
     </g>
    </g>
    <g id="ytick_13">
     <g id="line2d_31">
      <g>
       <use xlink:href="#m173dab7354" x="313.434" y="59.440667" style="fill: #262626; stroke: #262626"/>
      </g>
     </g>
    </g>
    <g id="ytick_14">
     <g id="line2d_32">
      <g>
       <use xlink:href="#m173dab7354" x="313.434" y="23.568" style="fill: #262626; stroke: #262626"/>
      </g>
     </g>
    </g>
   </g>
   <g id="FillBetweenPolyCollection_4">
    <defs>
     <path id="mcbf95b68f0" d="M 374.330362 -53.324568 
L 340.970702 -53.324568 
L 340.245059 -54.606182 
L 339.5123 -55.887795 
L 338.774157 -57.169409 
L 338.032483 -58.451023 
L 337.289243 -59.732636 
L 336.546515 -61.01425 
L 335.80648 -62.295864 
L 335.071409 -63.577478 
L 334.343659 -64.859091 
L 333.625655 -66.140705 
L 332.919878 -67.422319 
L 332.228849 -68.703933 
L 331.55511 -69.985546 
L 330.901208 -71.26716 
L 330.269673 -72.548774 
L 329.663001 -73.830388 
L 329.08363 -75.112001 
L 328.533917 -76.393615 
L 328.016125 -77.675229 
L 327.532391 -78.956843 
L 327.084718 -80.238456 
L 326.674944 -81.52007 
L 326.304734 -82.801684 
L 325.975558 -84.083298 
L 325.68868 -85.364911 
L 325.445142 -86.646525 
L 325.245757 -87.928139 
L 325.091098 -89.209753 
L 324.981495 -90.491366 
L 324.917032 -91.77298 
L 324.897545 -93.054594 
L 324.922626 -94.336207 
L 324.991622 -95.617821 
L 325.103652 -96.899435 
L 325.257606 -98.181049 
L 325.452161 -99.462662 
L 325.685794 -100.744276 
L 325.956795 -102.02589 
L 326.263283 -103.307504 
L 326.603225 -104.589117 
L 326.974454 -105.870731 
L 327.374685 -107.152345 
L 327.801539 -108.433959 
L 328.252559 -109.715572 
L 328.725233 -110.997186 
L 329.21701 -112.2788 
L 329.725323 -113.560414 
L 330.247607 -114.842027 
L 330.781317 -116.123641 
L 331.323944 -117.405255 
L 331.873034 -118.686869 
L 332.426206 -119.968482 
L 332.981159 -121.250096 
L 333.535693 -122.53171 
L 334.087719 -123.813324 
L 334.635268 -125.094937 
L 335.176505 -126.376551 
L 335.709732 -127.658165 
L 336.233401 -128.939778 
L 336.746114 -130.221392 
L 337.246635 -131.503006 
L 337.733883 -132.78462 
L 338.206944 -134.066233 
L 338.665065 -135.347847 
L 339.107655 -136.629461 
L 339.534285 -137.911075 
L 339.944681 -139.192688 
L 340.338725 -140.474302 
L 340.716442 -141.755916 
L 341.078002 -143.03753 
L 341.423708 -144.319143 
L 341.753987 -145.600757 
L 342.069384 -146.882371 
L 342.370551 -148.163985 
L 342.658237 -149.445598 
L 342.933277 -150.727212 
L 343.196579 -152.008826 
L 343.449117 -153.29044 
L 343.691914 -154.572053 
L 343.926035 -155.853667 
L 344.15257 -157.135281 
L 344.372627 -158.416895 
L 344.587319 -159.698508 
L 344.79775 -160.980122 
L 345.005005 -162.261736 
L 345.210144 -163.543349 
L 345.414185 -164.824963 
L 345.618097 -166.106577 
L 345.822795 -167.388191 
L 346.029126 -168.669804 
L 346.237866 -169.951418 
L 346.449709 -171.233032 
L 346.665268 -172.514646 
L 346.885063 -173.796259 
L 347.109525 -175.077873 
L 347.338986 -176.359487 
L 347.573683 -177.641101 
L 347.813756 -178.922714 
L 348.059245 -180.204328 
L 367.24182 -180.204328 
L 367.24182 -180.204328 
L 367.487309 -178.922714 
L 367.727382 -177.641101 
L 367.962079 -176.359487 
L 368.19154 -175.077873 
L 368.416002 -173.796259 
L 368.635797 -172.514646 
L 368.851356 -171.233032 
L 369.063199 -169.951418 
L 369.271938 -168.669804 
L 369.47827 -167.388191 
L 369.682968 -166.106577 
L 369.88688 -164.824963 
L 370.090921 -163.543349 
L 370.29606 -162.261736 
L 370.503315 -160.980122 
L 370.713746 -159.698508 
L 370.928438 -158.416895 
L 371.148495 -157.135281 
L 371.37503 -155.853667 
L 371.609151 -154.572053 
L 371.851948 -153.29044 
L 372.104486 -152.008826 
L 372.367788 -150.727212 
L 372.642828 -149.445598 
L 372.930514 -148.163985 
L 373.231681 -146.882371 
L 373.547078 -145.600757 
L 373.877357 -144.319143 
L 374.223063 -143.03753 
L 374.584623 -141.755916 
L 374.96234 -140.474302 
L 375.356383 -139.192688 
L 375.76678 -137.911075 
L 376.19341 -136.629461 
L 376.636 -135.347847 
L 377.094121 -134.066233 
L 377.567182 -132.78462 
L 378.05443 -131.503006 
L 378.55495 -130.221392 
L 379.067664 -128.939778 
L 379.591333 -127.658165 
L 380.12456 -126.376551 
L 380.665797 -125.094937 
L 381.213346 -123.813324 
L 381.765372 -122.53171 
L 382.319906 -121.250096 
L 382.874859 -119.968482 
L 383.42803 -118.686869 
L 383.977121 -117.405255 
L 384.519748 -116.123641 
L 385.053458 -114.842027 
L 385.575742 -113.560414 
L 386.084055 -112.2788 
L 386.575832 -110.997186 
L 387.048506 -109.715572 
L 387.499526 -108.433959 
L 387.92638 -107.152345 
L 388.326611 -105.870731 
L 388.69784 -104.589117 
L 389.037782 -103.307504 
L 389.34427 -102.02589 
L 389.615271 -100.744276 
L 389.848904 -99.462662 
L 390.043459 -98.181049 
L 390.197413 -96.899435 
L 390.309442 -95.617821 
L 390.378439 -94.336207 
L 390.403519 -93.054594 
L 390.384033 -91.77298 
L 390.31957 -90.491366 
L 390.209967 -89.209753 
L 390.055308 -87.928139 
L 389.855923 -86.646525 
L 389.612385 -85.364911 
L 389.325506 -84.083298 
L 388.996331 -82.801684 
L 388.626121 -81.52007 
L 388.216347 -80.238456 
L 387.768674 -78.956843 
L 387.28494 -77.675229 
L 386.767147 -76.393615 
L 386.217435 -75.112001 
L 385.638064 -73.830388 
L 385.031392 -72.548774 
L 384.399857 -71.26716 
L 383.745955 -69.985546 
L 383.072216 -68.703933 
L 382.381187 -67.422319 
L 381.67541 -66.140705 
L 380.957406 -64.859091 
L 380.229656 -63.577478 
L 379.494585 -62.295864 
L 378.75455 -61.01425 
L 378.011822 -59.732636 
L 377.268582 -58.451023 
L 376.526908 -57.169409 
L 375.788765 -55.887795 
L 375.056006 -54.606182 
L 374.330362 -53.324568 
z
" style="stroke: #2f2f2f"/>
    </defs>
    <g clip-path="url(#p95e7e7c277)">
     <use xlink:href="#mcbf95b68f0" x="0" y="288" style="fill: #58b2a3; stroke: #2f2f2f"/>
    </g>
   </g>
   <g id="FillBetweenPolyCollection_5">
    <defs>
     <path id="m833060fdb1" d="M 459.338634 -104.7023 
L 419.727366 -104.7023 
L 419.066921 -105.400797 
L 418.408582 -106.099294 
L 417.75381 -106.797791 
L 417.104098 -107.496289 
L 416.460966 -108.194786 
L 415.825961 -108.893283 
L 415.200646 -109.59178 
L 414.586598 -110.290277 
L 413.985398 -110.988774 
L 413.398628 -111.687271 
L 412.827862 -112.385769 
L 412.27466 -113.084266 
L 411.740557 -113.782763 
L 411.227058 -114.48126 
L 410.735627 -115.179757 
L 410.267683 -115.878254 
L 409.824582 -116.576751 
L 409.40762 -117.275249 
L 409.018012 -117.973746 
L 408.656892 -118.672243 
L 408.3253 -119.37074 
L 408.024175 -120.069237 
L 407.754345 -120.767734 
L 407.516521 -121.466231 
L 407.311291 -122.164729 
L 407.139108 -122.863226 
L 407.000291 -123.561723 
L 406.895018 -124.26022 
L 406.823317 -124.958717 
L 406.785072 -125.657214 
L 406.780013 -126.355711 
L 406.80772 -127.054208 
L 406.867623 -127.752706 
L 406.959 -128.451203 
L 407.080985 -129.1497 
L 407.23257 -129.848197 
L 407.412608 -130.546694 
L 407.619825 -131.245191 
L 407.852822 -131.943688 
L 408.110087 -132.642186 
L 408.390004 -133.340683 
L 408.690865 -134.03918 
L 409.01088 -134.737677 
L 409.34819 -135.436174 
L 409.70088 -136.134671 
L 410.066994 -136.833168 
L 410.444545 -137.531666 
L 410.831535 -138.230163 
L 411.225963 -138.92866 
L 411.625844 -139.627157 
L 412.029222 -140.325654 
L 412.434182 -141.024151 
L 412.838865 -141.722648 
L 413.241481 -142.421145 
L 413.640322 -143.119643 
L 414.033772 -143.81814 
L 414.420318 -144.516637 
L 414.798561 -145.215134 
L 415.167223 -145.913631 
L 415.525158 -146.612128 
L 415.871355 -147.310625 
L 416.204947 -148.009123 
L 416.525211 -148.70762 
L 416.831576 -149.406117 
L 417.123622 -150.104614 
L 417.401082 -150.803111 
L 417.66384 -151.501608 
L 417.91193 -152.200105 
L 418.145535 -152.898603 
L 418.36498 -153.5971 
L 418.570729 -154.295597 
L 418.763376 -154.994094 
L 418.943641 -155.692591 
L 419.112361 -156.391088 
L 419.270479 -157.089585 
L 419.419036 -157.788083 
L 419.55916 -158.48658 
L 419.692055 -159.185077 
L 419.818988 -159.883574 
L 419.941277 -160.582071 
L 420.06028 -161.280568 
L 420.17738 -161.979065 
L 420.293975 -162.677562 
L 420.411461 -163.37606 
L 420.53122 -164.074557 
L 420.654611 -164.773054 
L 420.782953 -165.471551 
L 420.917514 -166.170048 
L 421.059502 -166.868545 
L 421.210051 -167.567042 
L 421.370212 -168.26554 
L 421.540945 -168.964037 
L 421.723107 -169.662534 
L 421.91745 -170.361031 
L 422.124609 -171.059528 
L 422.345104 -171.758025 
L 422.579326 -172.456522 
L 422.827546 -173.15502 
L 423.089903 -173.853517 
L 455.976097 -173.853517 
L 455.976097 -173.853517 
L 456.238454 -173.15502 
L 456.486674 -172.456522 
L 456.720896 -171.758025 
L 456.941391 -171.059528 
L 457.14855 -170.361031 
L 457.342893 -169.662534 
L 457.525055 -168.964037 
L 457.695788 -168.26554 
L 457.855949 -167.567042 
L 458.006498 -166.868545 
L 458.148486 -166.170048 
L 458.283047 -165.471551 
L 458.411389 -164.773054 
L 458.53478 -164.074557 
L 458.654539 -163.37606 
L 458.772025 -162.677562 
L 458.88862 -161.979065 
L 459.00572 -161.280568 
L 459.124723 -160.582071 
L 459.247012 -159.883574 
L 459.373945 -159.185077 
L 459.50684 -158.48658 
L 459.646964 -157.788083 
L 459.795521 -157.089585 
L 459.953639 -156.391088 
L 460.122359 -155.692591 
L 460.302624 -154.994094 
L 460.495271 -154.295597 
L 460.70102 -153.5971 
L 460.920465 -152.898603 
L 461.15407 -152.200105 
L 461.40216 -151.501608 
L 461.664918 -150.803111 
L 461.942378 -150.104614 
L 462.234424 -149.406117 
L 462.540789 -148.70762 
L 462.861053 -148.009123 
L 463.194645 -147.310625 
L 463.540842 -146.612128 
L 463.898777 -145.913631 
L 464.267439 -145.215134 
L 464.645682 -144.516637 
L 465.032228 -143.81814 
L 465.425678 -143.119643 
L 465.824519 -142.421145 
L 466.227135 -141.722648 
L 466.631818 -141.024151 
L 467.036778 -140.325654 
L 467.440156 -139.627157 
L 467.840037 -138.92866 
L 468.234465 -138.230163 
L 468.621455 -137.531666 
L 468.999006 -136.833168 
L 469.36512 -136.134671 
L 469.71781 -135.436174 
L 470.05512 -134.737677 
L 470.375135 -134.03918 
L 470.675996 -133.340683 
L 470.955913 -132.642186 
L 471.213178 -131.943688 
L 471.446175 -131.245191 
L 471.653392 -130.546694 
L 471.83343 -129.848197 
L 471.985015 -129.1497 
L 472.107 -128.451203 
L 472.198377 -127.752706 
L 472.25828 -127.054208 
L 472.285987 -126.355711 
L 472.280928 -125.657214 
L 472.242683 -124.958717 
L 472.170982 -124.26022 
L 472.065709 -123.561723 
L 471.926892 -122.863226 
L 471.754709 -122.164729 
L 471.549479 -121.466231 
L 471.311655 -120.767734 
L 471.041825 -120.069237 
L 470.7407 -119.37074 
L 470.409108 -118.672243 
L 470.047988 -117.973746 
L 469.65838 -117.275249 
L 469.241418 -116.576751 
L 468.798317 -115.878254 
L 468.330373 -115.179757 
L 467.838942 -114.48126 
L 467.325443 -113.782763 
L 466.79134 -113.084266 
L 466.238138 -112.385769 
L 465.667372 -111.687271 
L 465.080602 -110.988774 
L 464.479402 -110.290277 
L 463.865354 -109.59178 
L 463.240039 -108.893283 
L 462.605034 -108.194786 
L 461.961902 -107.496289 
L 461.31219 -106.797791 
L 460.657418 -106.099294 
L 459.999079 -105.400797 
L 459.338634 -104.7023 
z
" style="stroke: #2f2f2f"/>
    </defs>
    <g clip-path="url(#p95e7e7c277)">
     <use xlink:href="#m833060fdb1" x="0" y="288" style="fill: #437695; stroke: #2f2f2f"/>
    </g>
   </g>
   <g id="FillBetweenPolyCollection_6">
    <defs>
     <path id="m79065270ad" d="M 546.009261 -111.124517 
L 496.821674 -111.124517 
L 496.110015 -111.811247 
L 495.418445 -112.497977 
L 494.749513 -113.184707 
L 494.105698 -113.871437 
L 493.48938 -114.558167 
L 492.902824 -115.244897 
L 492.34816 -115.931627 
L 491.827363 -116.618357 
L 491.342239 -117.305087 
L 490.894402 -117.991818 
L 490.485262 -118.678548 
L 490.116015 -119.365278 
L 489.787624 -120.052008 
L 489.500817 -120.738738 
L 489.256073 -121.425468 
L 489.053623 -122.112198 
L 488.893442 -122.798928 
L 488.775252 -123.485658 
L 488.698524 -124.172388 
L 488.662481 -124.859118 
L 488.666106 -125.545848 
L 488.708156 -126.232579 
L 488.787164 -126.919309 
L 488.901465 -127.606039 
L 489.049203 -128.292769 
L 489.228352 -128.979499 
L 489.436738 -129.666229 
L 489.672056 -130.352959 
L 489.931893 -131.039689 
L 490.213754 -131.726419 
L 490.51508 -132.413149 
L 490.833276 -133.099879 
L 491.165732 -133.78661 
L 491.509848 -134.47334 
L 491.863057 -135.16007 
L 492.222843 -135.8468 
L 492.586768 -136.53353 
L 492.952488 -137.22026 
L 493.31777 -137.90699 
L 493.68051 -138.59372 
L 494.038749 -139.28045 
L 494.390684 -139.96718 
L 494.734678 -140.65391 
L 495.06927 -141.34064 
L 495.393179 -142.027371 
L 495.705313 -142.714101 
L 496.004767 -143.400831 
L 496.290825 -144.087561 
L 496.562957 -144.774291 
L 496.820818 -145.461021 
L 497.064239 -146.147751 
L 497.293226 -146.834481 
L 497.507946 -147.521211 
L 497.70872 -148.207941 
L 497.896013 -148.894671 
L 498.070423 -149.581402 
L 498.232667 -150.268132 
L 498.383571 -150.954862 
L 498.524056 -151.641592 
L 498.655124 -152.328322 
L 498.777846 -153.015052 
L 498.893351 -153.701782 
L 499.002809 -154.388512 
L 499.107422 -155.075242 
L 499.208411 -155.761972 
L 499.307006 -156.448702 
L 499.404433 -157.135433 
L 499.501907 -157.822163 
L 499.600619 -158.508893 
L 499.701732 -159.195623 
L 499.80637 -159.882353 
L 499.915611 -160.569083 
L 500.030484 -161.255813 
L 500.151959 -161.942543 
L 500.280946 -162.629273 
L 500.418288 -163.316003 
L 500.564762 -164.002733 
L 500.721069 -164.689463 
L 500.887838 -165.376194 
L 501.065623 -166.062924 
L 501.254898 -166.749654 
L 501.456061 -167.436384 
L 501.669431 -168.123114 
L 501.895247 -168.809844 
L 502.133673 -169.496574 
L 502.384791 -170.183304 
L 502.648609 -170.870034 
L 502.925059 -171.556764 
L 503.214 -172.243494 
L 503.515218 -172.930225 
L 503.828429 -173.616955 
L 504.153281 -174.303685 
L 504.489359 -174.990415 
L 504.836183 -175.677145 
L 505.193217 -176.363875 
L 505.559867 -177.050605 
L 505.935491 -177.737335 
L 506.319394 -178.424065 
L 506.710842 -179.110795 
L 536.120093 -179.110795 
L 536.120093 -179.110795 
L 536.511541 -178.424065 
L 536.895445 -177.737335 
L 537.271068 -177.050605 
L 537.637719 -176.363875 
L 537.994752 -175.677145 
L 538.341576 -174.990415 
L 538.677654 -174.303685 
L 539.002506 -173.616955 
L 539.315717 -172.930225 
L 539.616935 -172.243494 
L 539.905876 -171.556764 
L 540.182326 -170.870034 
L 540.446145 -170.183304 
L 540.697262 -169.496574 
L 540.935688 -168.809844 
L 541.161504 -168.123114 
L 541.374874 -167.436384 
L 541.576037 -166.749654 
L 541.765312 -166.062924 
L 541.943097 -165.376194 
L 542.109866 -164.689463 
L 542.266173 -164.002733 
L 542.412647 -163.316003 
L 542.549989 -162.629273 
L 542.678976 -161.942543 
L 542.800451 -161.255813 
L 542.915324 -160.569083 
L 543.024565 -159.882353 
L 543.129203 -159.195623 
L 543.230316 -158.508893 
L 543.329028 -157.822163 
L 543.426502 -157.135433 
L 543.523929 -156.448702 
L 543.622524 -155.761972 
L 543.723513 -155.075242 
L 543.828126 -154.388512 
L 543.937584 -153.701782 
L 544.053089 -153.015052 
L 544.175811 -152.328322 
L 544.306879 -151.641592 
L 544.447364 -150.954862 
L 544.598268 -150.268132 
L 544.760512 -149.581402 
L 544.934922 -148.894671 
L 545.122215 -148.207941 
L 545.322989 -147.521211 
L 545.537709 -146.834481 
L 545.766696 -146.147751 
L 546.010117 -145.461021 
L 546.267978 -144.774291 
L 546.54011 -144.087561 
L 546.826168 -143.400831 
L 547.125622 -142.714101 
L 547.437756 -142.027371 
L 547.761665 -141.34064 
L 548.096257 -140.65391 
L 548.440251 -139.96718 
L 548.792186 -139.28045 
L 549.150425 -138.59372 
L 549.513165 -137.90699 
L 549.878447 -137.22026 
L 550.244167 -136.53353 
L 550.608092 -135.8468 
L 550.967878 -135.16007 
L 551.321087 -134.47334 
L 551.665203 -133.78661 
L 551.997659 -133.099879 
L 552.315855 -132.413149 
L 552.617181 -131.726419 
L 552.899042 -131.039689 
L 553.158879 -130.352959 
L 553.394197 -129.666229 
L 553.602583 -128.979499 
L 553.781732 -128.292769 
L 553.92947 -127.606039 
L 554.043771 -126.919309 
L 554.122779 -126.232579 
L 554.164829 -125.545848 
L 554.168455 -124.859118 
L 554.132411 -124.172388 
L 554.055683 -123.485658 
L 553.937493 -122.798928 
L 553.777312 -122.112198 
L 553.574862 -121.425468 
L 553.330118 -120.738738 
L 553.043311 -120.052008 
L 552.71492 -119.365278 
L 552.345673 -118.678548 
L 551.936533 -117.991818 
L 551.488696 -117.305087 
L 551.003572 -116.618357 
L 550.482776 -115.931627 
L 549.928112 -115.244897 
L 549.341555 -114.558167 
L 548.725237 -113.871437 
L 548.081422 -113.184707 
L 547.41249 -112.497977 
L 546.72092 -111.811247 
L 546.009261 -111.124517 
z
" style="stroke: #2f2f2f"/>
    </defs>
    <g clip-path="url(#p95e7e7c277)">
     <use xlink:href="#m79065270ad" x="0" y="288" style="fill: #423b63; stroke: #2f2f2f"/>
    </g>
   </g>
   <g id="line2d_33">
    <path d="M 357.650532 234.675432 
L 357.650532 136.760199 
" clip-path="url(#p95e7e7c277)" style="fill: none; stroke: #2f2f2f; stroke-width: 1.5; stroke-linecap: round"/>
   </g>
   <g id="line2d_34">
    <path d="M 357.650532 200.437512 
L 357.650532 169.746799 
" clip-path="url(#p95e7e7c277)" style="fill: none; stroke: #2f2f2f; stroke-width: 4.5; stroke-linecap: round"/>
   </g>
   <g id="line2d_35">
    <path d="M 357.650532 194.859983 
" clip-path="url(#p95e7e7c277)" style="fill: none; stroke: #2f2f2f; stroke-width: 1.2; stroke-linecap: round"/>
    <g clip-path="url(#p95e7e7c277)">
     <use xlink:href="#mdf17b1e656" x="357.650532" y="194.859983" style="fill: #ffffff; stroke: #ffffff; stroke-width: 0.9"/>
    </g>
   </g>
   <g id="line2d_36">
    <path d="M 439.533 183.2977 
L 439.533 114.146483 
" clip-path="url(#p95e7e7c277)" style="fill: none; stroke: #2f2f2f; stroke-width: 1.5; stroke-linecap: round"/>
   </g>
   <g id="line2d_37">
    <path d="M 439.533 162.865758 
L 439.533 133.822311 
" clip-path="url(#p95e7e7c277)" style="fill: none; stroke: #2f2f2f; stroke-width: 4.5; stroke-linecap: round"/>
   </g>
   <g id="line2d_38">
    <path d="M 439.533 158.499237 
" clip-path="url(#p95e7e7c277)" style="fill: none; stroke: #2f2f2f; stroke-width: 1.2; stroke-linecap: round"/>
    <g clip-path="url(#p95e7e7c277)">
     <use xlink:href="#mdf17b1e656" x="439.533" y="158.499237" style="fill: #ffffff; stroke: #ffffff; stroke-width: 0.9"/>
    </g>
   </g>
   <g id="line2d_39">
    <path d="M 521.415468 176.875483 
L 521.415468 108.889205 
" clip-path="url(#p95e7e7c277)" style="fill: none; stroke: #2f2f2f; stroke-width: 1.5; stroke-linecap: round"/>
   </g>
   <g id="line2d_40">
    <path d="M 521.415468 165.895712 
L 521.415468 130.41867 
" clip-path="url(#p95e7e7c277)" style="fill: none; stroke: #2f2f2f; stroke-width: 4.5; stroke-linecap: round"/>
   </g>
   <g id="line2d_41">
    <path d="M 521.415468 160.152699 
" clip-path="url(#p95e7e7c277)" style="fill: none; stroke: #2f2f2f; stroke-width: 1.2; stroke-linecap: round"/>
    <g clip-path="url(#p95e7e7c277)">
     <use xlink:href="#mdf17b1e656" x="521.415468" y="160.152699" style="fill: #ffffff; stroke: #ffffff; stroke-width: 0.9"/>
    </g>
   </g>
   <g id="line2d_42">
    <path d="M 357.650532 104.208405 
L 357.650532 96.359432 
L 439.533 96.359432 
L 439.533 104.208405 
" clip-path="url(#p95e7e7c277)" style="fill: none; stroke: #000000; stroke-linecap: round"/>
   </g>
   <g id="line2d_43">
    <path d="M 439.533 89.859339 
L 439.533 81.651639 
L 521.415468 81.651639 
L 521.415468 89.859339 
" clip-path="url(#p95e7e7c277)" style="fill: none; stroke: #000000; stroke-linecap: round"/>
   </g>
   <g id="line2d_44">
    <path d="M 357.650532 75.510272 
L 357.650532 66.943845 
L 521.415468 66.943845 
L 521.415468 75.510272 
" clip-path="url(#p95e7e7c277)" style="fill: none; stroke: #000000; stroke-linecap: round"/>
   </g>
   <g id="patch_8">
    <path d="M 313.434 238.804 
L 313.434 23.568 
" style="fill: none; stroke: #262626; stroke-linejoin: miter; stroke-linecap: square"/>
   </g>
   <g id="patch_9">
    <path d="M 565.632 238.804 
L 565.632 23.568 
" style="fill: none; stroke: #262626; stroke-linejoin: miter; stroke-linecap: square"/>
   </g>
   <g id="patch_10">
    <path d="M 313.434 238.804 
L 565.632 238.804 
" style="fill: none; stroke: #262626; stroke-linejoin: miter; stroke-linecap: square"/>
   </g>
   <g id="patch_11">
    <path d="M 313.434 23.568 
L 565.632 23.568 
" style="fill: none; stroke: #262626; stroke-linejoin: miter; stroke-linecap: square"/>
   </g>
   <g id="text_19">
    <!-- ns -->
    <g transform="translate(393.049266 94.362932) scale(0.096 -0.096)">
     <use xlink:href="#DejaVuSans-6e"/>
     <use xlink:href="#DejaVuSans-73" transform="translate(63.378906 0)"/>
    </g>
   </g>
   <g id="text_20">
    <!-- ns -->
    <g transform="translate(474.931734 79.655139) scale(0.096 -0.096)">
     <use xlink:href="#DejaVuSans-6e"/>
     <use xlink:href="#DejaVuSans-73" transform="translate(63.378906 0)"/>
    </g>
   </g>
   <g id="text_21">
    <!-- * -->
    <g transform="translate(437.133 64.947345) scale(0.096 -0.096)">
     <defs>
      <path id="DejaVuSans-2a" d="M 3009 3897 
L 1888 3291 
L 3009 2681 
L 2828 2375 
L 1778 3009 
L 1778 1831 
L 1422 1831 
L 1422 3009 
L 372 2375 
L 191 2681 
L 1313 3291 
L 191 3897 
L 372 4206 
L 1422 3572 
L 1422 4750 
L 1778 4750 
L 1778 3572 
L 2828 4206 
L 3009 3897 
z
" transform="scale(0.015625)"/>
     </defs>
     <use xlink:href="#DejaVuSans-2a"/>
    </g>
   </g>
   <g id="text_22">
    <!-- Speed -->
    <g style="fill: #262626" transform="translate(424.48425 17.568) scale(0.096 -0.096)">
     <defs>
      <path id="DejaVuSans-53" d="M 3425 4513 
L 3425 3897 
Q 3066 4069 2747 4153 
Q 2428 4238 2131 4238 
Q 1616 4238 1336 4038 
Q 1056 3838 1056 3469 
Q 1056 3159 1242 3001 
Q 1428 2844 1947 2747 
L 2328 2669 
Q 3034 2534 3370 2195 
Q 3706 1856 3706 1288 
Q 3706 609 3251 259 
Q 2797 -91 1919 -91 
Q 1588 -91 1214 -16 
Q 841 59 441 206 
L 441 856 
Q 825 641 1194 531 
Q 1563 422 1919 422 
Q 2459 422 2753 634 
Q 3047 847 3047 1241 
Q 3047 1584 2836 1778 
Q 2625 1972 2144 2069 
L 1759 2144 
Q 1053 2284 737 2584 
Q 422 2884 422 3419 
Q 422 4038 858 4394 
Q 1294 4750 2059 4750 
Q 2388 4750 2728 4690 
Q 3069 4631 3425 4513 
z
" transform="scale(0.015625)"/>
     </defs>
     <use xlink:href="#DejaVuSans-53"/>
     <use xlink:href="#DejaVuSans-70" transform="translate(63.476562 0)"/>
     <use xlink:href="#DejaVuSans-65" transform="translate(126.953125 0)"/>
     <use xlink:href="#DejaVuSans-65" transform="translate(188.476562 0)"/>
     <use xlink:href="#DejaVuSans-64" transform="translate(250 0)"/>
    </g>
   </g>
  </g>
  <g id="text_23">
   <!-- Average response probability tertile -->
   <g style="fill: #262626" transform="translate(184.7916 282.7242) scale(0.1152 -0.1152)">
    <defs>
     <path id="DejaVuSans-76" d="M 191 3500 
L 800 3500 
L 1894 563 
L 2988 3500 
L 3597 3500 
L 2284 0 
L 1503 0 
L 191 3500 
z
" transform="scale(0.015625)"/>
    </defs>
    <use xlink:href="#DejaVuSans-41"/>
    <use xlink:href="#DejaVuSans-76" transform="translate(62.533203 0)"/>
    <use xlink:href="#DejaVuSans-65" transform="translate(121.712891 0)"/>
    <use xlink:href="#DejaVuSans-72" transform="translate(183.236328 0)"/>
    <use xlink:href="#DejaVuSans-61" transform="translate(224.349609 0)"/>
    <use xlink:href="#DejaVuSans-67" transform="translate(285.628906 0)"/>
    <use xlink:href="#DejaVuSans-65" transform="translate(349.105469 0)"/>
    <use xlink:href="#DejaVuSans-20" transform="translate(410.628906 0)"/>
    <use xlink:href="#DejaVuSans-72" transform="translate(442.416016 0)"/>
    <use xlink:href="#DejaVuSans-65" transform="translate(481.279297 0)"/>
    <use xlink:href="#DejaVuSans-73" transform="translate(542.802734 0)"/>
    <use xlink:href="#DejaVuSans-70" transform="translate(594.902344 0)"/>
    <use xlink:href="#DejaVuSans-6f" transform="translate(658.378906 0)"/>
    <use xlink:href="#DejaVuSans-6e" transform="translate(719.560547 0)"/>
    <use xlink:href="#DejaVuSans-73" transform="translate(782.939453 0)"/>
    <use xlink:href="#DejaVuSans-65" transform="translate(835.039062 0)"/>
    <use xlink:href="#DejaVuSans-20" transform="translate(896.5625 0)"/>
    <use xlink:href="#DejaVuSans-70" transform="translate(928.349609 0)"/>
    <use xlink:href="#DejaVuSans-72" transform="translate(991.826172 0)"/>
    <use xlink:href="#DejaVuSans-6f" transform="translate(1030.689453 0)"/>
    <use xlink:href="#DejaVuSans-62" transform="translate(1091.871094 0)"/>
    <use xlink:href="#DejaVuSans-61" transform="translate(1155.347656 0)"/>
    <use xlink:href="#DejaVuSans-62" transform="translate(1216.626953 0)"/>
    <use xlink:href="#DejaVuSans-69" transform="translate(1280.103516 0)"/>
    <use xlink:href="#DejaVuSans-6c" transform="translate(1307.886719 0)"/>
    <use xlink:href="#DejaVuSans-69" transform="translate(1335.669922 0)"/>
    <use xlink:href="#DejaVuSans-74" transform="translate(1363.453125 0)"/>
    <use xlink:href="#DejaVuSans-79" transform="translate(1402.662109 0)"/>
    <use xlink:href="#DejaVuSans-20" transform="translate(1461.841797 0)"/>
    <use xlink:href="#DejaVuSans-74" transform="translate(1493.628906 0)"/>
    <use xlink:href="#DejaVuSans-65" transform="translate(1532.837891 0)"/>
    <use xlink:href="#DejaVuSans-72" transform="translate(1594.361328 0)"/>
    <use xlink:href="#DejaVuSans-74" transform="translate(1635.474609 0)"/>
    <use xlink:href="#DejaVuSans-69" transform="translate(1674.683594 0)"/>
    <use xlink:href="#DejaVuSans-6c" transform="translate(1702.466797 0)"/>
    <use xlink:href="#DejaVuSans-65" transform="translate(1730.25 0)"/>
   </g>
  </g>
 </g>
 <defs>
  <clipPath id="p46e6841fa7">
   <rect x="46.068" y="23.568" width="252.198" height="215.236"/>
  </clipPath>
  <clipPath id="p95e7e7c277">
   <rect x="313.434" y="23.568" width="252.198" height="215.236"/>
  </clipPath>
 </defs>
</svg>
