<?xml version="1.0" encoding="utf-8" standalone="no"?>
<!DOCTYPE svg PUBLIC "-//W3C//DTD SVG 1.1//EN"
  "http://www.w3.org/Graphics/SVG/1.1/DTD/svg11.dtd">
<svg xmlns:xlink="http://www.w3.org/1999/xlink" width="576pt" height="288pt" viewBox="0 0 576 288" xmlns="http://www.w3.org/2000/svg" version="1.1">
 <metadata>
  <rdf:RDF xmlns:dc="http://purl.org/dc/elements/1.1/" xmlns:cc="http://creativecommons.org/ns#" xmlns:rdf="http://www.w3.org/1999/02/22-rdf-syntax-ns#">
   <cc:Work>
    <dc:type rdf:resource="http://purl.org/dc/dcmitype/StillImage"/>
    <dc:date>2025-01-09T10:56:08.624350</dc:date>
    <dc:format>image/svg+xml</dc:format>
    <dc:creator>
     <cc:Agent>
      <dc:title>Matplotlib v3.9.2, https://matplotlib.org/</dc:title>
     </cc:Agent>
    </dc:creator>
   </cc:Work>
  </rdf:RDF>
 </metadata>
 <defs>
  <style type="text/css">*{stroke-linejoin: round; stroke-linecap: butt}</style>
 </defs>
 <g id="figure_1">
  <g id="patch_1">
   <path d="M 0 288 
L 576 288 
L 576 0 
L 0 0 
L 0 288 
z
" style="fill: none"/>
  </g>
  <g id="axes_1">
   <g id="patch_2">
    <path d="M 46.068 238.804 
L 298.266 238.804 
L 298.266 23.568 
L 46.068 23.568 
L 46.068 238.804 
z
" style="fill: none"/>
   </g>
   <g id="matplotlib.axis_1">
    <g id="xtick_1">
     <g id="line2d_1">
      <defs>
       <path id="mcb6c632f3d" d="M 0 0 
L 0 4.8 
" style="stroke: #262626"/>
      </defs>
      <g>
       <use xlink:href="#mcb6c632f3d" x="90.284532" y="238.804" style="fill: #262626; stroke: #262626"/>
      </g>
     </g>
     <g id="text_1">
      <!-- Low -->
      <g style="fill: #262626" transform="translate(81.619282 253.790625) scale(0.088 -0.088)">
       <defs>
        <path id="DejaVuSans-4c" d="M 628 4666 
L 1259 4666 
L 1259 531 
L 3531 531 
L 3531 0 
L 628 0 
L 628 4666 
z
" transform="scale(0.015625)"/>
        <path id="DejaVuSans-6f" d="M 1959 3097 
Q 1497 3097 1228 2736 
Q 959 2375 959 1747 
Q 959 1119 1226 758 
Q 1494 397 1959 397 
Q 2419 397 2687 759 
Q 2956 1122 2956 1747 
Q 2956 2369 2687 2733 
Q 2419 3097 1959 3097 
z
M 1959 3584 
Q 2709 3584 3137 3096 
Q 3566 2609 3566 1747 
Q 3566 888 3137 398 
Q 2709 -91 1959 -91 
Q 1206 -91 779 398 
Q 353 888 353 1747 
Q 353 2609 779 3096 
Q 1206 3584 1959 3584 
z
" transform="scale(0.015625)"/>
        <path id="DejaVuSans-77" d="M 269 3500 
L 844 3500 
L 1563 769 
L 2278 3500 
L 2956 3500 
L 3675 769 
L 4391 3500 
L 4966 3500 
L 4050 0 
L 3372 0 
L 2619 2869 
L 1863 0 
L 1184 0 
L 269 3500 
z
" transform="scale(0.015625)"/>
       </defs>
       <use xlink:href="#DejaVuSans-4c"/>
       <use xlink:href="#DejaVuSans-6f" x="53.962891"/>
       <use xlink:href="#DejaVuSans-77" x="115.144531"/>
      </g>
     </g>
    </g>
    <g id="xtick_2">
     <g id="line2d_2">
      <g>
       <use xlink:href="#mcb6c632f3d" x="172.167" y="238.804" style="fill: #262626; stroke: #262626"/>
      </g>
     </g>
     <g id="text_2">
      <!-- Medium -->
      <g style="fill: #262626" transform="translate(154.573187 253.790625) scale(0.088 -0.088)">
       <defs>
        <path id="DejaVuSans-4d" d="M 628 4666 
L 1569 4666 
L 2759 1491 
L 3956 4666 
L 4897 4666 
L 4897 0 
L 4281 0 
L 4281 4097 
L 3078 897 
L 2444 897 
L 1241 4097 
L 1241 0 
L 628 0 
L 628 4666 
z
" transform="scale(0.015625)"/>
        <path id="DejaVuSans-65" d="M 3597 1894 
L 3597 1613 
L 953 1613 
Q 991 1019 1311 708 
Q 1631 397 2203 397 
Q 2534 397 2845 478 
Q 3156 559 3463 722 
L 3463 178 
Q 3153 47 2828 -22 
Q 2503 -91 2169 -91 
Q 1331 -91 842 396 
Q 353 884 353 1716 
Q 353 2575 817 3079 
Q 1281 3584 2069 3584 
Q 2775 3584 3186 3129 
Q 3597 2675 3597 1894 
z
M 3022 2063 
Q 3016 2534 2758 2815 
Q 2500 3097 2075 3097 
Q 1594 3097 1305 2825 
Q 1016 2553 972 2059 
L 3022 2063 
z
" transform="scale(0.015625)"/>
        <path id="DejaVuSans-64" d="M 2906 2969 
L 2906 4863 
L 3481 4863 
L 3481 0 
L 2906 0 
L 2906 525 
Q 2725 213 2448 61 
Q 2172 -91 1784 -91 
Q 1150 -91 751 415 
Q 353 922 353 1747 
Q 353 2572 751 3078 
Q 1150 3584 1784 3584 
Q 2172 3584 2448 3432 
Q 2725 3281 2906 2969 
z
M 947 1747 
Q 947 1113 1208 752 
Q 1469 391 1925 391 
Q 2381 391 2643 752 
Q 2906 1113 2906 1747 
Q 2906 2381 2643 2742 
Q 2381 3103 1925 3103 
Q 1469 3103 1208 2742 
Q 947 2381 947 1747 
z
" transform="scale(0.015625)"/>
        <path id="DejaVuSans-69" d="M 603 3500 
L 1178 3500 
L 1178 0 
L 603 0 
L 603 3500 
z
M 603 4863 
L 1178 4863 
L 1178 4134 
L 603 4134 
L 603 4863 
z
" transform="scale(0.015625)"/>
        <path id="DejaVuSans-75" d="M 544 1381 
L 544 3500 
L 1119 3500 
L 1119 1403 
Q 1119 906 1312 657 
Q 1506 409 1894 409 
Q 2359 409 2629 706 
Q 2900 1003 2900 1516 
L 2900 3500 
L 3475 3500 
L 3475 0 
L 2900 0 
L 2900 538 
Q 2691 219 2414 64 
Q 2138 -91 1772 -91 
Q 1169 -91 856 284 
Q 544 659 544 1381 
z
M 1991 3584 
L 1991 3584 
z
" transform="scale(0.015625)"/>
        <path id="DejaVuSans-6d" d="M 3328 2828 
Q 3544 3216 3844 3400 
Q 4144 3584 4550 3584 
Q 5097 3584 5394 3201 
Q 5691 2819 5691 2113 
L 5691 0 
L 5113 0 
L 5113 2094 
Q 5113 2597 4934 2840 
Q 4756 3084 4391 3084 
Q 3944 3084 3684 2787 
Q 3425 2491 3425 1978 
L 3425 0 
L 2847 0 
L 2847 2094 
Q 2847 2600 2669 2842 
Q 2491 3084 2119 3084 
Q 1678 3084 1418 2786 
Q 1159 2488 1159 1978 
L 1159 0 
L 581 0 
L 581 3500 
L 1159 3500 
L 1159 2956 
Q 1356 3278 1631 3431 
Q 1906 3584 2284 3584 
Q 2666 3584 2933 3390 
Q 3200 3197 3328 2828 
z
" transform="scale(0.015625)"/>
       </defs>
       <use xlink:href="#DejaVuSans-4d"/>
       <use xlink:href="#DejaVuSans-65" x="86.279297"/>
       <use xlink:href="#DejaVuSans-64" x="147.802734"/>
       <use xlink:href="#DejaVuSans-69" x="211.279297"/>
       <use xlink:href="#DejaVuSans-75" x="239.0625"/>
       <use xlink:href="#DejaVuSans-6d" x="302.441406"/>
      </g>
     </g>
    </g>
    <g id="xtick_3">
     <g id="line2d_3">
      <g>
       <use xlink:href="#mcb6c632f3d" x="254.049468" y="238.804" style="fill: #262626; stroke: #262626"/>
      </g>
     </g>
     <g id="text_3">
      <!-- High -->
      <g style="fill: #262626" transform="translate(243.936343 253.790625) scale(0.088 -0.088)">
       <defs>
        <path id="DejaVuSans-48" d="M 628 4666 
L 1259 4666 
L 1259 2753 
L 3553 2753 
L 3553 4666 
L 4184 4666 
L 4184 0 
L 3553 0 
L 3553 2222 
L 1259 2222 
L 1259 0 
L 628 0 
L 628 4666 
z
" transform="scale(0.015625)"/>
        <path id="DejaVuSans-67" d="M 2906 1791 
Q 2906 2416 2648 2759 
Q 2391 3103 1925 3103 
Q 1463 3103 1205 2759 
Q 947 2416 947 1791 
Q 947 1169 1205 825 
Q 1463 481 1925 481 
Q 2391 481 2648 825 
Q 2906 1169 2906 1791 
z
M 3481 434 
Q 3481 -459 3084 -895 
Q 2688 -1331 1869 -1331 
Q 1566 -1331 1297 -1286 
Q 1028 -1241 775 -1147 
L 775 -588 
Q 1028 -725 1275 -790 
Q 1522 -856 1778 -856 
Q 2344 -856 2625 -561 
Q 2906 -266 2906 331 
L 2906 616 
Q 2728 306 2450 153 
Q 2172 0 1784 0 
Q 1141 0 747 490 
Q 353 981 353 1791 
Q 353 2603 747 3093 
Q 1141 3584 1784 3584 
Q 2172 3584 2450 3431 
Q 2728 3278 2906 2969 
L 2906 3500 
L 3481 3500 
L 3481 434 
z
" transform="scale(0.015625)"/>
        <path id="DejaVuSans-68" d="M 3513 2113 
L 3513 0 
L 2938 0 
L 2938 2094 
Q 2938 2591 2744 2837 
Q 2550 3084 2163 3084 
Q 1697 3084 1428 2787 
Q 1159 2491 1159 1978 
L 1159 0 
L 581 0 
L 581 4863 
L 1159 4863 
L 1159 2956 
Q 1366 3272 1645 3428 
Q 1925 3584 2291 3584 
Q 2894 3584 3203 3211 
Q 3513 2838 3513 2113 
z
" transform="scale(0.015625)"/>
       </defs>
       <use xlink:href="#DejaVuSans-48"/>
       <use xlink:href="#DejaVuSans-69" x="75.195312"/>
       <use xlink:href="#DejaVuSans-67" x="102.978516"/>
       <use xlink:href="#DejaVuSans-68" x="166.455078"/>
      </g>
     </g>
    </g>
   </g>
   <g id="matplotlib.axis_2">
    <g id="ytick_1">
     <g id="line2d_4">
      <defs>
       <path id="m2030f69457" d="M 0 0 
L -4.8 0 
" style="stroke: #262626"/>
      </defs>
      <g>
       <use xlink:href="#m2030f69457" x="46.068" y="238.804" style="fill: #262626; stroke: #262626"/>
      </g>
     </g>
     <g id="text_4">
      <!-- 0.5 -->
      <g style="fill: #262626" transform="translate(23.77325 242.147312) scale(0.088 -0.088)">
       <defs>
        <path id="DejaVuSans-30" d="M 2034 4250 
Q 1547 4250 1301 3770 
Q 1056 3291 1056 2328 
Q 1056 1369 1301 889 
Q 1547 409 2034 409 
Q 2525 409 2770 889 
Q 3016 1369 3016 2328 
Q 3016 3291 2770 3770 
Q 2525 4250 2034 4250 
z
M 2034 4750 
Q 2819 4750 3233 4129 
Q 3647 3509 3647 2328 
Q 3647 1150 3233 529 
Q 2819 -91 2034 -91 
Q 1250 -91 836 529 
Q 422 1150 422 2328 
Q 422 3509 836 4129 
Q 1250 4750 2034 4750 
z
" transform="scale(0.015625)"/>
        <path id="DejaVuSans-2e" d="M 684 794 
L 1344 794 
L 1344 0 
L 684 0 
L 684 794 
z
" transform="scale(0.015625)"/>
        <path id="DejaVuSans-35" d="M 691 4666 
L 3169 4666 
L 3169 4134 
L 1269 4134 
L 1269 2991 
Q 1406 3038 1543 3061 
Q 1681 3084 1819 3084 
Q 2600 3084 3056 2656 
Q 3513 2228 3513 1497 
Q 3513 744 3044 326 
Q 2575 -91 1722 -91 
Q 1428 -91 1123 -41 
Q 819 9 494 109 
L 494 744 
Q 775 591 1075 516 
Q 1375 441 1709 441 
Q 2250 441 2565 725 
Q 2881 1009 2881 1497 
Q 2881 1984 2565 2268 
Q 2250 2553 1709 2553 
Q 1456 2553 1204 2497 
Q 953 2441 691 2322 
L 691 4666 
z
" transform="scale(0.015625)"/>
       </defs>
       <use xlink:href="#DejaVuSans-30"/>
       <use xlink:href="#DejaVuSans-2e" x="63.623047"/>
       <use xlink:href="#DejaVuSans-35" x="95.410156"/>
      </g>
     </g>
    </g>
    <g id="ytick_2">
     <g id="line2d_5">
      <g>
       <use xlink:href="#m2030f69457" x="46.068" y="202.931333" style="fill: #262626; stroke: #262626"/>
      </g>
     </g>
     <g id="text_5">
      <!-- 0.6 -->
      <g style="fill: #262626" transform="translate(23.77325 206.274646) scale(0.088 -0.088)">
       <defs>
        <path id="DejaVuSans-36" d="M 2113 2584 
Q 1688 2584 1439 2293 
Q 1191 2003 1191 1497 
Q 1191 994 1439 701 
Q 1688 409 2113 409 
Q 2538 409 2786 701 
Q 3034 994 3034 1497 
Q 3034 2003 2786 2293 
Q 2538 2584 2113 2584 
z
M 3366 4563 
L 3366 3988 
Q 3128 4100 2886 4159 
Q 2644 4219 2406 4219 
Q 1781 4219 1451 3797 
Q 1122 3375 1075 2522 
Q 1259 2794 1537 2939 
Q 1816 3084 2150 3084 
Q 2853 3084 3261 2657 
Q 3669 2231 3669 1497 
Q 3669 778 3244 343 
Q 2819 -91 2113 -91 
Q 1303 -91 875 529 
Q 447 1150 447 2328 
Q 447 3434 972 4092 
Q 1497 4750 2381 4750 
Q 2619 4750 2861 4703 
Q 3103 4656 3366 4563 
z
" transform="scale(0.015625)"/>
       </defs>
       <use xlink:href="#DejaVuSans-30"/>
       <use xlink:href="#DejaVuSans-2e" x="63.623047"/>
       <use xlink:href="#DejaVuSans-36" x="95.410156"/>
      </g>
     </g>
    </g>
    <g id="ytick_3">
     <g id="line2d_6">
      <g>
       <use xlink:href="#m2030f69457" x="46.068" y="167.058667" style="fill: #262626; stroke: #262626"/>
      </g>
     </g>
     <g id="text_6">
      <!-- 0.7 -->
      <g style="fill: #262626" transform="translate(23.77325 170.401979) scale(0.088 -0.088)">
       <defs>
        <path id="DejaVuSans-37" d="M 525 4666 
L 3525 4666 
L 3525 4397 
L 1831 0 
L 1172 0 
L 2766 4134 
L 525 4134 
L 525 4666 
z
" transform="scale(0.015625)"/>
       </defs>
       <use xlink:href="#DejaVuSans-30"/>
       <use xlink:href="#DejaVuSans-2e" x="63.623047"/>
       <use xlink:href="#DejaVuSans-37" x="95.410156"/>
      </g>
     </g>
    </g>
    <g id="ytick_4">
     <g id="line2d_7">
      <g>
       <use xlink:href="#m2030f69457" x="46.068" y="131.186" style="fill: #262626; stroke: #262626"/>
      </g>
     </g>
     <g id="text_7">
      <!-- 0.8 -->
      <g style="fill: #262626" transform="translate(23.77325 134.529312) scale(0.088 -0.088)">
       <defs>
        <path id="DejaVuSans-38" d="M 2034 2216 
Q 1584 2216 1326 1975 
Q 1069 1734 1069 1313 
Q 1069 891 1326 650 
Q 1584 409 2034 409 
Q 2484 409 2743 651 
Q 3003 894 3003 1313 
Q 3003 1734 2745 1975 
Q 2488 2216 2034 2216 
z
M 1403 2484 
Q 997 2584 770 2862 
Q 544 3141 544 3541 
Q 544 4100 942 4425 
Q 1341 4750 2034 4750 
Q 2731 4750 3128 4425 
Q 3525 4100 3525 3541 
Q 3525 3141 3298 2862 
Q 3072 2584 2669 2484 
Q 3125 2378 3379 2068 
Q 3634 1759 3634 1313 
Q 3634 634 3220 271 
Q 2806 -91 2034 -91 
Q 1263 -91 848 271 
Q 434 634 434 1313 
Q 434 1759 690 2068 
Q 947 2378 1403 2484 
z
M 1172 3481 
Q 1172 3119 1398 2916 
Q 1625 2713 2034 2713 
Q 2441 2713 2670 2916 
Q 2900 3119 2900 3481 
Q 2900 3844 2670 4047 
Q 2441 4250 2034 4250 
Q 1625 4250 1398 4047 
Q 1172 3844 1172 3481 
z
" transform="scale(0.015625)"/>
       </defs>
       <use xlink:href="#DejaVuSans-30"/>
       <use xlink:href="#DejaVuSans-2e" x="63.623047"/>
       <use xlink:href="#DejaVuSans-38" x="95.410156"/>
      </g>
     </g>
    </g>
    <g id="ytick_5">
     <g id="line2d_8">
      <g>
       <use xlink:href="#m2030f69457" x="46.068" y="95.313333" style="fill: #262626; stroke: #262626"/>
      </g>
     </g>
     <g id="text_8">
      <!-- 0.9 -->
      <g style="fill: #262626" transform="translate(23.77325 98.656646) scale(0.088 -0.088)">
       <defs>
        <path id="DejaVuSans-39" d="M 703 97 
L 703 672 
Q 941 559 1184 500 
Q 1428 441 1663 441 
Q 2288 441 2617 861 
Q 2947 1281 2994 2138 
Q 2813 1869 2534 1725 
Q 2256 1581 1919 1581 
Q 1219 1581 811 2004 
Q 403 2428 403 3163 
Q 403 3881 828 4315 
Q 1253 4750 1959 4750 
Q 2769 4750 3195 4129 
Q 3622 3509 3622 2328 
Q 3622 1225 3098 567 
Q 2575 -91 1691 -91 
Q 1453 -91 1209 -44 
Q 966 3 703 97 
z
M 1959 2075 
Q 2384 2075 2632 2365 
Q 2881 2656 2881 3163 
Q 2881 3666 2632 3958 
Q 2384 4250 1959 4250 
Q 1534 4250 1286 3958 
Q 1038 3666 1038 3163 
Q 1038 2656 1286 2365 
Q 1534 2075 1959 2075 
z
" transform="scale(0.015625)"/>
       </defs>
       <use xlink:href="#DejaVuSans-30"/>
       <use xlink:href="#DejaVuSans-2e" x="63.623047"/>
       <use xlink:href="#DejaVuSans-39" x="95.410156"/>
      </g>
     </g>
    </g>
    <g id="ytick_6">
     <g id="line2d_9">
      <g>
       <use xlink:href="#m2030f69457" x="46.068" y="59.440667" style="fill: #262626; stroke: #262626"/>
      </g>
     </g>
     <g id="text_9">
      <!-- 1.0 -->
      <g style="fill: #262626" transform="translate(23.77325 62.783979) scale(0.088 -0.088)">
       <defs>
        <path id="DejaVuSans-31" d="M 794 531 
L 1825 531 
L 1825 4091 
L 703 3866 
L 703 4441 
L 1819 4666 
L 2450 4666 
L 2450 531 
L 3481 531 
L 3481 0 
L 794 0 
L 794 531 
z
" transform="scale(0.015625)"/>
       </defs>
       <use xlink:href="#DejaVuSans-31"/>
       <use xlink:href="#DejaVuSans-2e" x="63.623047"/>
       <use xlink:href="#DejaVuSans-30" x="95.410156"/>
      </g>
     </g>
    </g>
    <g id="ytick_7">
     <g id="line2d_10">
      <g>
       <use xlink:href="#m2030f69457" x="46.068" y="23.568" style="fill: #262626; stroke: #262626"/>
      </g>
     </g>
     <g id="text_10">
      <!-- 1.1 -->
      <g style="fill: #262626" transform="translate(23.77325 26.911313) scale(0.088 -0.088)">
       <use xlink:href="#DejaVuSans-31"/>
       <use xlink:href="#DejaVuSans-2e" x="63.623047"/>
       <use xlink:href="#DejaVuSans-31" x="95.410156"/>
      </g>
     </g>
    </g>
    <g id="text_11">
     <!-- Probability of correct response -->
     <g style="fill: #262626" transform="translate(17.77675 204.36575) rotate(-90) scale(0.096 -0.096)">
      <defs>
       <path id="DejaVuSans-50" d="M 1259 4147 
L 1259 2394 
L 2053 2394 
Q 2494 2394 2734 2622 
Q 2975 2850 2975 3272 
Q 2975 3691 2734 3919 
Q 2494 4147 2053 4147 
L 1259 4147 
z
M 628 4666 
L 2053 4666 
Q 2838 4666 3239 4311 
Q 3641 3956 3641 3272 
Q 3641 2581 3239 2228 
Q 2838 1875 2053 1875 
L 1259 1875 
L 1259 0 
L 628 0 
L 628 4666 
z
" transform="scale(0.015625)"/>
       <path id="DejaVuSans-72" d="M 2631 2963 
Q 2534 3019 2420 3045 
Q 2306 3072 2169 3072 
Q 1681 3072 1420 2755 
Q 1159 2438 1159 1844 
L 1159 0 
L 581 0 
L 581 3500 
L 1159 3500 
L 1159 2956 
Q 1341 3275 1631 3429 
Q 1922 3584 2338 3584 
Q 2397 3584 2469 3576 
Q 2541 3569 2628 3553 
L 2631 2963 
z
" transform="scale(0.015625)"/>
       <path id="DejaVuSans-62" d="M 3116 1747 
Q 3116 2381 2855 2742 
Q 2594 3103 2138 3103 
Q 1681 3103 1420 2742 
Q 1159 2381 1159 1747 
Q 1159 1113 1420 752 
Q 1681 391 2138 391 
Q 2594 391 2855 752 
Q 3116 1113 3116 1747 
z
M 1159 2969 
Q 1341 3281 1617 3432 
Q 1894 3584 2278 3584 
Q 2916 3584 3314 3078 
Q 3713 2572 3713 1747 
Q 3713 922 3314 415 
Q 2916 -91 2278 -91 
Q 1894 -91 1617 61 
Q 1341 213 1159 525 
L 1159 0 
L 581 0 
L 581 4863 
L 1159 4863 
L 1159 2969 
z
" transform="scale(0.015625)"/>
       <path id="DejaVuSans-61" d="M 2194 1759 
Q 1497 1759 1228 1600 
Q 959 1441 959 1056 
Q 959 750 1161 570 
Q 1363 391 1709 391 
Q 2188 391 2477 730 
Q 2766 1069 2766 1631 
L 2766 1759 
L 2194 1759 
z
M 3341 1997 
L 3341 0 
L 2766 0 
L 2766 531 
Q 2569 213 2275 61 
Q 1981 -91 1556 -91 
Q 1019 -91 701 211 
Q 384 513 384 1019 
Q 384 1609 779 1909 
Q 1175 2209 1959 2209 
L 2766 2209 
L 2766 2266 
Q 2766 2663 2505 2880 
Q 2244 3097 1772 3097 
Q 1472 3097 1187 3025 
Q 903 2953 641 2809 
L 641 3341 
Q 956 3463 1253 3523 
Q 1550 3584 1831 3584 
Q 2591 3584 2966 3190 
Q 3341 2797 3341 1997 
z
" transform="scale(0.015625)"/>
       <path id="DejaVuSans-6c" d="M 603 4863 
L 1178 4863 
L 1178 0 
L 603 0 
L 603 4863 
z
" transform="scale(0.015625)"/>
       <path id="DejaVuSans-74" d="M 1172 4494 
L 1172 3500 
L 2356 3500 
L 2356 3053 
L 1172 3053 
L 1172 1153 
Q 1172 725 1289 603 
Q 1406 481 1766 481 
L 2356 481 
L 2356 0 
L 1766 0 
Q 1100 0 847 248 
Q 594 497 594 1153 
L 594 3053 
L 172 3053 
L 172 3500 
L 594 3500 
L 594 4494 
L 1172 4494 
z
" transform="scale(0.015625)"/>
       <path id="DejaVuSans-79" d="M 2059 -325 
Q 1816 -950 1584 -1140 
Q 1353 -1331 966 -1331 
L 506 -1331 
L 506 -850 
L 844 -850 
Q 1081 -850 1212 -737 
Q 1344 -625 1503 -206 
L 1606 56 
L 191 3500 
L 800 3500 
L 1894 763 
L 2988 3500 
L 3597 3500 
L 2059 -325 
z
" transform="scale(0.015625)"/>
       <path id="DejaVuSans-20" transform="scale(0.015625)"/>
       <path id="DejaVuSans-66" d="M 2375 4863 
L 2375 4384 
L 1825 4384 
Q 1516 4384 1395 4259 
Q 1275 4134 1275 3809 
L 1275 3500 
L 2222 3500 
L 2222 3053 
L 1275 3053 
L 1275 0 
L 697 0 
L 697 3053 
L 147 3053 
L 147 3500 
L 697 3500 
L 697 3744 
Q 697 4328 969 4595 
Q 1241 4863 1831 4863 
L 2375 4863 
z
" transform="scale(0.015625)"/>
       <path id="DejaVuSans-63" d="M 3122 3366 
L 3122 2828 
Q 2878 2963 2633 3030 
Q 2388 3097 2138 3097 
Q 1578 3097 1268 2742 
Q 959 2388 959 1747 
Q 959 1106 1268 751 
Q 1578 397 2138 397 
Q 2388 397 2633 464 
Q 2878 531 3122 666 
L 3122 134 
Q 2881 22 2623 -34 
Q 2366 -91 2075 -91 
Q 1284 -91 818 406 
Q 353 903 353 1747 
Q 353 2603 823 3093 
Q 1294 3584 2113 3584 
Q 2378 3584 2631 3529 
Q 2884 3475 3122 3366 
z
" transform="scale(0.015625)"/>
       <path id="DejaVuSans-73" d="M 2834 3397 
L 2834 2853 
Q 2591 2978 2328 3040 
Q 2066 3103 1784 3103 
Q 1356 3103 1142 2972 
Q 928 2841 928 2578 
Q 928 2378 1081 2264 
Q 1234 2150 1697 2047 
L 1894 2003 
Q 2506 1872 2764 1633 
Q 3022 1394 3022 966 
Q 3022 478 2636 193 
Q 2250 -91 1575 -91 
Q 1294 -91 989 -36 
Q 684 19 347 128 
L 347 722 
Q 666 556 975 473 
Q 1284 391 1588 391 
Q 1994 391 2212 530 
Q 2431 669 2431 922 
Q 2431 1156 2273 1281 
Q 2116 1406 1581 1522 
L 1381 1569 
Q 847 1681 609 1914 
Q 372 2147 372 2553 
Q 372 3047 722 3315 
Q 1072 3584 1716 3584 
Q 2034 3584 2315 3537 
Q 2597 3491 2834 3397 
z
" transform="scale(0.015625)"/>
       <path id="DejaVuSans-70" d="M 1159 525 
L 1159 -1331 
L 581 -1331 
L 581 3500 
L 1159 3500 
L 1159 2969 
Q 1341 3281 1617 3432 
Q 1894 3584 2278 3584 
Q 2916 3584 3314 3078 
Q 3713 2572 3713 1747 
Q 3713 922 3314 415 
Q 2916 -91 2278 -91 
Q 1894 -91 1617 61 
Q 1341 213 1159 525 
z
M 3116 1747 
Q 3116 2381 2855 2742 
Q 2594 3103 2138 3103 
Q 1681 3103 1420 2742 
Q 1159 2381 1159 1747 
Q 1159 1113 1420 752 
Q 1681 391 2138 391 
Q 2594 391 2855 752 
Q 3116 1113 3116 1747 
z
" transform="scale(0.015625)"/>
       <path id="DejaVuSans-6e" d="M 3513 2113 
L 3513 0 
L 2938 0 
L 2938 2094 
Q 2938 2591 2744 2837 
Q 2550 3084 2163 3084 
Q 1697 3084 1428 2787 
Q 1159 2491 1159 1978 
L 1159 0 
L 581 0 
L 581 3500 
L 1159 3500 
L 1159 2956 
Q 1366 3272 1645 3428 
Q 1925 3584 2291 3584 
Q 2894 3584 3203 3211 
Q 3513 2838 3513 2113 
z
" transform="scale(0.015625)"/>
      </defs>
      <use xlink:href="#DejaVuSans-50"/>
      <use xlink:href="#DejaVuSans-72" x="58.552734"/>
      <use xlink:href="#DejaVuSans-6f" x="97.416016"/>
      <use xlink:href="#DejaVuSans-62" x="158.597656"/>
      <use xlink:href="#DejaVuSans-61" x="222.074219"/>
      <use xlink:href="#DejaVuSans-62" x="283.353516"/>
      <use xlink:href="#DejaVuSans-69" x="346.830078"/>
      <use xlink:href="#DejaVuSans-6c" x="374.613281"/>
      <use xlink:href="#DejaVuSans-69" x="402.396484"/>
      <use xlink:href="#DejaVuSans-74" x="430.179688"/>
      <use xlink:href="#DejaVuSans-79" x="469.388672"/>
      <use xlink:href="#DejaVuSans-20" x="528.568359"/>
      <use xlink:href="#DejaVuSans-6f" x="560.355469"/>
      <use xlink:href="#DejaVuSans-66" x="621.537109"/>
      <use xlink:href="#DejaVuSans-20" x="656.742188"/>
      <use xlink:href="#DejaVuSans-63" x="688.529297"/>
      <use xlink:href="#DejaVuSans-6f" x="743.509766"/>
      <use xlink:href="#DejaVuSans-72" x="804.691406"/>
      <use xlink:href="#DejaVuSans-72" x="844.054688"/>
      <use xlink:href="#DejaVuSans-65" x="882.917969"/>
      <use xlink:href="#DejaVuSans-63" x="944.441406"/>
      <use xlink:href="#DejaVuSans-74" x="999.421875"/>
      <use xlink:href="#DejaVuSans-20" x="1038.630859"/>
      <use xlink:href="#DejaVuSans-72" x="1070.417969"/>
      <use xlink:href="#DejaVuSans-65" x="1109.28125"/>
      <use xlink:href="#DejaVuSans-73" x="1170.804688"/>
      <use xlink:href="#DejaVuSans-70" x="1222.904297"/>
      <use xlink:href="#DejaVuSans-6f" x="1286.380859"/>
      <use xlink:href="#DejaVuSans-6e" x="1347.5625"/>
      <use xlink:href="#DejaVuSans-73" x="1410.941406"/>
      <use xlink:href="#DejaVuSans-65" x="1463.041016"/>
     </g>
    </g>
   </g>
   <g id="PolyCollection_1">
    <defs>
     <path id="m1e36fc8ada" d="M 100.128345 -128.962003 
L 80.44072 -128.962003 
L 80.152016 -129.602878 
L 79.857684 -130.243752 
L 79.55694 -130.884627 
L 79.248983 -131.525501 
L 78.933006 -132.166376 
L 78.608214 -132.807251 
L 78.273842 -133.448125 
L 77.929168 -134.089 
L 77.573535 -134.729874 
L 77.206364 -135.370749 
L 76.827172 -136.011623 
L 76.435588 -136.652498 
L 76.031366 -137.293372 
L 75.614396 -137.934247 
L 75.184718 -138.575122 
L 74.742529 -139.215996 
L 74.288187 -139.856871 
L 73.822216 -140.497745 
L 73.345309 -141.13862 
L 72.858322 -141.779494 
L 72.362268 -142.420369 
L 71.858316 -143.061243 
L 71.347773 -143.702118 
L 70.832071 -144.342993 
L 70.312755 -144.983867 
L 69.791463 -145.624742 
L 69.269904 -146.265616 
L 68.749836 -146.906491 
L 68.233045 -147.547365 
L 67.721321 -148.18824 
L 67.216431 -148.829114 
L 66.720094 -149.469989 
L 66.233961 -150.110864 
L 65.759589 -150.751738 
L 65.29842 -151.392613 
L 64.851762 -152.033487 
L 64.420768 -152.674362 
L 64.006426 -153.315236 
L 63.609541 -153.956111 
L 63.230733 -154.596985 
L 62.870423 -155.23786 
L 62.528837 -155.878734 
L 62.206003 -156.519609 
L 61.901758 -157.160484 
L 61.615753 -157.801358 
L 61.347468 -158.442233 
L 61.096224 -159.083107 
L 60.861198 -159.723982 
L 60.641446 -160.364856 
L 60.435923 -161.005731 
L 60.243507 -161.646605 
L 60.063023 -162.28748 
L 59.893269 -162.928355 
L 59.733041 -163.569229 
L 59.581162 -164.210104 
L 59.436504 -164.850978 
L 59.298015 -165.491853 
L 59.16474 -166.132727 
L 59.035846 -166.773602 
L 58.910639 -167.414476 
L 58.78858 -168.055351 
L 58.669303 -168.696226 
L 58.552621 -169.3371 
L 58.438541 -169.977975 
L 58.327264 -170.618849 
L 58.219188 -171.259724 
L 58.114909 -171.900598 
L 58.015213 -172.541473 
L 57.921071 -173.182347 
L 57.833627 -173.823222 
L 57.754183 -174.464097 
L 57.684187 -175.104971 
L 57.62521 -175.745846 
L 57.578929 -176.38672 
L 57.547102 -177.027595 
L 57.531545 -177.668469 
L 57.534111 -178.309344 
L 57.556659 -178.950218 
L 57.601031 -179.591093 
L 57.669026 -180.231967 
L 57.762376 -180.872842 
L 57.88272 -181.513717 
L 58.03158 -182.154591 
L 58.210339 -182.795466 
L 58.420223 -183.43634 
L 58.66228 -184.077215 
L 58.937362 -184.718089 
L 59.246116 -185.358964 
L 59.588968 -185.999838 
L 59.966114 -186.640713 
L 60.377516 -187.281588 
L 60.8229 -187.922462 
L 61.301748 -188.563337 
L 61.81331 -189.204211 
L 62.356601 -189.845086 
L 62.930411 -190.48596 
L 63.533319 -191.126835 
L 64.163696 -191.767709 
L 64.81973 -192.408584 
L 115.749335 -192.408584 
L 115.749335 -192.408584 
L 116.405369 -191.767709 
L 117.035746 -191.126835 
L 117.638654 -190.48596 
L 118.212464 -189.845086 
L 118.755755 -189.204211 
L 119.267317 -188.563337 
L 119.746165 -187.922462 
L 120.191549 -187.281588 
L 120.602951 -186.640713 
L 120.980097 -185.999838 
L 121.322948 -185.358964 
L 121.631703 -184.718089 
L 121.906785 -184.077215 
L 122.148842 -183.43634 
L 122.358726 -182.795466 
L 122.537485 -182.154591 
L 122.686345 -181.513717 
L 122.806689 -180.872842 
L 122.900039 -180.231967 
L 122.968034 -179.591093 
L 123.012406 -178.950218 
L 123.034953 -178.309344 
L 123.037519 -177.668469 
L 123.021963 -177.027595 
L 122.990136 -176.38672 
L 122.943855 -175.745846 
L 122.884878 -175.104971 
L 122.814882 -174.464097 
L 122.735438 -173.823222 
L 122.647994 -173.182347 
L 122.553852 -172.541473 
L 122.454156 -171.900598 
L 122.349877 -171.259724 
L 122.241801 -170.618849 
L 122.130524 -169.977975 
L 122.016444 -169.3371 
L 121.899762 -168.696226 
L 121.780485 -168.055351 
L 121.658426 -167.414476 
L 121.533219 -166.773602 
L 121.404325 -166.132727 
L 121.27105 -165.491853 
L 121.132561 -164.850978 
L 120.987903 -164.210104 
L 120.836024 -163.569229 
L 120.675796 -162.928355 
L 120.506042 -162.28748 
L 120.325558 -161.646605 
L 120.133142 -161.005731 
L 119.927619 -160.364856 
L 119.707867 -159.723982 
L 119.472841 -159.083107 
L 119.221597 -158.442233 
L 118.953312 -157.801358 
L 118.667307 -157.160484 
L 118.363062 -156.519609 
L 118.040228 -155.878734 
L 117.698642 -155.23786 
L 117.338332 -154.596985 
L 116.959524 -153.956111 
L 116.562639 -153.315236 
L 116.148297 -152.674362 
L 115.717303 -152.033487 
L 115.270644 -151.392613 
L 114.809476 -150.751738 
L 114.335104 -150.110864 
L 113.848971 -149.469989 
L 113.352634 -148.829114 
L 112.847744 -148.18824 
L 112.33602 -147.547365 
L 111.819229 -146.906491 
L 111.299161 -146.265616 
L 110.777602 -145.624742 
L 110.25631 -144.983867 
L 109.736994 -144.342993 
L 109.221292 -143.702118 
L 108.710749 -143.061243 
L 108.206797 -142.420369 
L 107.710743 -141.779494 
L 107.223756 -141.13862 
L 106.746849 -140.497745 
L 106.280878 -139.856871 
L 105.826536 -139.215996 
L 105.384347 -138.575122 
L 104.954669 -137.934247 
L 104.537699 -137.293372 
L 104.133476 -136.652498 
L 103.741893 -136.011623 
L 103.362701 -135.370749 
L 102.99553 -134.729874 
L 102.639897 -134.089 
L 102.295223 -133.448125 
L 101.960851 -132.807251 
L 101.636059 -132.166376 
L 101.320082 -131.525501 
L 101.012125 -130.884627 
L 100.711381 -130.243752 
L 100.417049 -129.602878 
L 100.128345 -128.962003 
z
" style="stroke: #2f2f2f"/>
    </defs>
    <g clip-path="url(#p8d35c342a3)">
     <use xlink:href="#m1e36fc8ada" x="0" y="288" style="fill: #58b2a3; stroke: #2f2f2f"/>
    </g>
   </g>
   <g id="PolyCollection_2">
    <defs>
     <path id="m094f054f51" d="M 187.39372 -155.928255 
L 156.94028 -155.928255 
L 156.57519 -156.451844 
L 156.218812 -156.975434 
L 155.870979 -157.499023 
L 155.531389 -158.022612 
L 155.19961 -158.546201 
L 154.87509 -159.06979 
L 154.557163 -159.593379 
L 154.245064 -160.116969 
L 153.937942 -160.640558 
L 153.634872 -161.164147 
L 153.334878 -161.687736 
L 153.036941 -162.211325 
L 152.740026 -162.734915 
L 152.443095 -163.258504 
L 152.145127 -163.782093 
L 151.845137 -164.305682 
L 151.542194 -164.829271 
L 151.235437 -165.35286 
L 150.924089 -165.87645 
L 150.607477 -166.400039 
L 150.285038 -166.923628 
L 149.956335 -167.447217 
L 149.621061 -167.970806 
L 149.279052 -168.494396 
L 148.930285 -169.017985 
L 148.574885 -169.541574 
L 148.21312 -170.065163 
L 147.845406 -170.588752 
L 147.472295 -171.112342 
L 147.094476 -171.635931 
L 146.712761 -172.15952 
L 146.328079 -172.683109 
L 145.941466 -173.206698 
L 145.554051 -173.730287 
L 145.167045 -174.253877 
L 144.781727 -174.777466 
L 144.39943 -175.301055 
L 144.021532 -175.824644 
L 143.649438 -176.348233 
L 143.284567 -176.871823 
L 142.928346 -177.395412 
L 142.58219 -177.919001 
L 142.2475 -178.44259 
L 141.925646 -178.966179 
L 141.617965 -179.489769 
L 141.325748 -180.013358 
L 141.050236 -180.536947 
L 140.792618 -181.060536 
L 140.554019 -181.584125 
L 140.335502 -182.107714 
L 140.138066 -182.631304 
L 139.962639 -183.154893 
L 139.810081 -183.678482 
L 139.681178 -184.202071 
L 139.576648 -184.72566 
L 139.497133 -185.24925 
L 139.443204 -185.772839 
L 139.415357 -186.296428 
L 139.414013 -186.820017 
L 139.439519 -187.343606 
L 139.492146 -187.867195 
L 139.572086 -188.390785 
L 139.679455 -188.914374 
L 139.814288 -189.437963 
L 139.976538 -189.961552 
L 140.166081 -190.485141 
L 140.382704 -191.008731 
L 140.626116 -191.53232 
L 140.895937 -192.055909 
L 141.191705 -192.579498 
L 141.512874 -193.103087 
L 141.858816 -193.626677 
L 142.228818 -194.150266 
L 142.622092 -194.673855 
L 143.037771 -195.197444 
L 143.474916 -195.721033 
L 143.93252 -196.244622 
L 144.409513 -196.768212 
L 144.904769 -197.291801 
L 145.417108 -197.81539 
L 145.945308 -198.338979 
L 146.48811 -198.862568 
L 147.044225 -199.386158 
L 147.612344 -199.909747 
L 148.191142 -200.433336 
L 148.779289 -200.956925 
L 149.375458 -201.480514 
L 149.978329 -202.004103 
L 150.586599 -202.527693 
L 151.198987 -203.051282 
L 151.814241 -203.574871 
L 152.43114 -204.09846 
L 153.048505 -204.622049 
L 153.665197 -205.145639 
L 154.28012 -205.669228 
L 154.89223 -206.192817 
L 155.500528 -206.716406 
L 156.10407 -207.239995 
L 156.70196 -207.763585 
L 187.63204 -207.763585 
L 187.63204 -207.763585 
L 188.22993 -207.239995 
L 188.833472 -206.716406 
L 189.44177 -206.192817 
L 190.05388 -205.669228 
L 190.668803 -205.145639 
L 191.285495 -204.622049 
L 191.90286 -204.09846 
L 192.519759 -203.574871 
L 193.135013 -203.051282 
L 193.747401 -202.527693 
L 194.355671 -202.004103 
L 194.958542 -201.480514 
L 195.554711 -200.956925 
L 196.142858 -200.433336 
L 196.721656 -199.909747 
L 197.289775 -199.386158 
L 197.84589 -198.862568 
L 198.388692 -198.338979 
L 198.916892 -197.81539 
L 199.429231 -197.291801 
L 199.924487 -196.768212 
L 200.40148 -196.244622 
L 200.859084 -195.721033 
L 201.296229 -195.197444 
L 201.711908 -194.673855 
L 202.105182 -194.150266 
L 202.475184 -193.626677 
L 202.821126 -193.103087 
L 203.142295 -192.579498 
L 203.438063 -192.055909 
L 203.707884 -191.53232 
L 203.951296 -191.008731 
L 204.167919 -190.485141 
L 204.357462 -189.961552 
L 204.519712 -189.437963 
L 204.654545 -188.914374 
L 204.761914 -188.390785 
L 204.841854 -187.867195 
L 204.894481 -187.343606 
L 204.919987 -186.820017 
L 204.918643 -186.296428 
L 204.890796 -185.772839 
L 204.836867 -185.24925 
L 204.757352 -184.72566 
L 204.652822 -184.202071 
L 204.523919 -183.678482 
L 204.371361 -183.154893 
L 204.195934 -182.631304 
L 203.998498 -182.107714 
L 203.779981 -181.584125 
L 203.541382 -181.060536 
L 203.283764 -180.536947 
L 203.008252 -180.013358 
L 202.716035 -179.489769 
L 202.408354 -178.966179 
L 202.0865 -178.44259 
L 201.75181 -177.919001 
L 201.405654 -177.395412 
L 201.049433 -176.871823 
L 200.684562 -176.348233 
L 200.312468 -175.824644 
L 199.93457 -175.301055 
L 199.552273 -174.777466 
L 199.166955 -174.253877 
L 198.779949 -173.730287 
L 198.392534 -173.206698 
L 198.005921 -172.683109 
L 197.621239 -172.15952 
L 197.239524 -171.635931 
L 196.861705 -171.112342 
L 196.488594 -170.588752 
L 196.12088 -170.065163 
L 195.759115 -169.541574 
L 195.403715 -169.017985 
L 195.054948 -168.494396 
L 194.712939 -167.970806 
L 194.377665 -167.447217 
L 194.048962 -166.923628 
L 193.726523 -166.400039 
L 193.409911 -165.87645 
L 193.098563 -165.35286 
L 192.791806 -164.829271 
L 192.488863 -164.305682 
L 192.188873 -163.782093 
L 191.890905 -163.258504 
L 191.593974 -162.734915 
L 191.297059 -162.211325 
L 190.999122 -161.687736 
L 190.699128 -161.164147 
L 190.396058 -160.640558 
L 190.088936 -160.116969 
L 189.776837 -159.593379 
L 189.45891 -159.06979 
L 189.13439 -158.546201 
L 188.802611 -158.022612 
L 188.463021 -157.499023 
L 188.115188 -156.975434 
L 187.75881 -156.451844 
L 187.39372 -155.928255 
z
" style="stroke: #2f2f2f"/>
    </defs>
    <g clip-path="url(#p8d35c342a3)">
     <use xlink:href="#m094f054f51" x="0" y="288" style="fill: #437695; stroke: #2f2f2f"/>
    </g>
   </g>
   <g id="PolyCollection_3">
    <defs>
     <path id="m10696107a7" d="M 272.435656 -146.589849 
L 235.663279 -146.589849 
L 235.217675 -147.196622 
L 234.78669 -147.803394 
L 234.371113 -148.410167 
L 233.971601 -149.016939 
L 233.588679 -149.623712 
L 233.222728 -150.230484 
L 232.873984 -150.837256 
L 232.542537 -151.444029 
L 232.228325 -152.050801 
L 231.93114 -152.657574 
L 231.650627 -153.264346 
L 231.386289 -153.871119 
L 231.137494 -154.477891 
L 230.903481 -155.084664 
L 230.68337 -155.691436 
L 230.47617 -156.298208 
L 230.280796 -156.904981 
L 230.096077 -157.511753 
L 229.920771 -158.118526 
L 229.753584 -158.725298 
L 229.593178 -159.332071 
L 229.438196 -159.938843 
L 229.287271 -160.545616 
L 229.139046 -161.152388 
L 228.99219 -161.759161 
L 228.845412 -162.365933 
L 228.69748 -162.972705 
L 228.547232 -163.579478 
L 228.39359 -164.18625 
L 228.235577 -164.793023 
L 228.072321 -165.399795 
L 227.90307 -166.006568 
L 227.727202 -166.61334 
L 227.544225 -167.220113 
L 227.353788 -167.826885 
L 227.155686 -168.433657 
L 226.949853 -169.04043 
L 226.736374 -169.647202 
L 226.515475 -170.253975 
L 226.287523 -170.860747 
L 226.053024 -171.46752 
L 225.812612 -172.074292 
L 225.567049 -172.681065 
L 225.317211 -173.287837 
L 225.06408 -173.894609 
L 224.808739 -174.501382 
L 224.552356 -175.108154 
L 224.296174 -175.714927 
L 224.041502 -176.321699 
L 223.789701 -176.928472 
L 223.542175 -177.535244 
L 223.300356 -178.142017 
L 223.065694 -178.748789 
L 222.839647 -179.355562 
L 222.623669 -179.962334 
L 222.4192 -180.569106 
L 222.227655 -181.175879 
L 222.050417 -181.782651 
L 221.888828 -182.389424 
L 221.74418 -182.996196 
L 221.617707 -183.602969 
L 221.510581 -184.209741 
L 221.423907 -184.816514 
L 221.358712 -185.423286 
L 221.315947 -186.030058 
L 221.296481 -186.636831 
L 221.301093 -187.243603 
L 221.330479 -187.850376 
L 221.38524 -188.457148 
L 221.465886 -189.063921 
L 221.572832 -189.670693 
L 221.706398 -190.277466 
L 221.86681 -190.884238 
L 222.054195 -191.49101 
L 222.268588 -192.097783 
L 222.509925 -192.704555 
L 222.778049 -193.311328 
L 223.072711 -193.9181 
L 223.393567 -194.524873 
L 223.740183 -195.131645 
L 224.112038 -195.738418 
L 224.508522 -196.34519 
L 224.928941 -196.951963 
L 225.372522 -197.558735 
L 225.838411 -198.165507 
L 226.325682 -198.77228 
L 226.833334 -199.379052 
L 227.360303 -199.985825 
L 227.905459 -200.592597 
L 228.467617 -201.19937 
L 229.045537 -201.806142 
L 229.637931 -202.412915 
L 230.24347 -203.019687 
L 230.860789 -203.626459 
L 231.48849 -204.233232 
L 232.125153 -204.840004 
L 232.76934 -205.446777 
L 233.419601 -206.053549 
L 234.07448 -206.660322 
L 274.024455 -206.660322 
L 274.024455 -206.660322 
L 274.679335 -206.053549 
L 275.329595 -205.446777 
L 275.973782 -204.840004 
L 276.610445 -204.233232 
L 277.238146 -203.626459 
L 277.855465 -203.019687 
L 278.461004 -202.412915 
L 279.053398 -201.806142 
L 279.631318 -201.19937 
L 280.193476 -200.592597 
L 280.738632 -199.985825 
L 281.265601 -199.379052 
L 281.773253 -198.77228 
L 282.260524 -198.165507 
L 282.726413 -197.558735 
L 283.169994 -196.951963 
L 283.590414 -196.34519 
L 283.986897 -195.738418 
L 284.358752 -195.131645 
L 284.705368 -194.524873 
L 285.026224 -193.9181 
L 285.320886 -193.311328 
L 285.58901 -192.704555 
L 285.830347 -192.097783 
L 286.04474 -191.49101 
L 286.232125 -190.884238 
L 286.392537 -190.277466 
L 286.526103 -189.670693 
L 286.633049 -189.063921 
L 286.713695 -188.457148 
L 286.768456 -187.850376 
L 286.797842 -187.243603 
L 286.802455 -186.636831 
L 286.782988 -186.030058 
L 286.740223 -185.423286 
L 286.675028 -184.816514 
L 286.588354 -184.209741 
L 286.481228 -183.602969 
L 286.354755 -182.996196 
L 286.210107 -182.389424 
L 286.048518 -181.782651 
L 285.87128 -181.175879 
L 285.679735 -180.569106 
L 285.475266 -179.962334 
L 285.259288 -179.355562 
L 285.033241 -178.748789 
L 284.798579 -178.142017 
L 284.55676 -177.535244 
L 284.309234 -176.928472 
L 284.057434 -176.321699 
L 283.802761 -175.714927 
L 283.546579 -175.108154 
L 283.290196 -174.501382 
L 283.034855 -173.894609 
L 282.781724 -173.287837 
L 282.531886 -172.681065 
L 282.286323 -172.074292 
L 282.045911 -171.46752 
L 281.811412 -170.860747 
L 281.58346 -170.253975 
L 281.362561 -169.647202 
L 281.149082 -169.04043 
L 280.943249 -168.433657 
L 280.745147 -167.826885 
L 280.55471 -167.220113 
L 280.371733 -166.61334 
L 280.195865 -166.006568 
L 280.026615 -165.399795 
L 279.863358 -164.793023 
L 279.705345 -164.18625 
L 279.551703 -163.579478 
L 279.401455 -162.972705 
L 279.253523 -162.365933 
L 279.106745 -161.759161 
L 278.959889 -161.152388 
L 278.811664 -160.545616 
L 278.660739 -159.938843 
L 278.505757 -159.332071 
L 278.345351 -158.725298 
L 278.178164 -158.118526 
L 278.002858 -157.511753 
L 277.818139 -156.904981 
L 277.622765 -156.298208 
L 277.415565 -155.691436 
L 277.195454 -155.084664 
L 276.961441 -154.477891 
L 276.712646 -153.871119 
L 276.448308 -153.264346 
L 276.167795 -152.657574 
L 275.87061 -152.050801 
L 275.556398 -151.444029 
L 275.224951 -150.837256 
L 274.876207 -150.230484 
L 274.510256 -149.623712 
L 274.127334 -149.016939 
L 273.727822 -148.410167 
L 273.312245 -147.803394 
L 272.88126 -147.196622 
L 272.435656 -146.589849 
z
" style="stroke: #2f2f2f"/>
    </defs>
    <g clip-path="url(#p8d35c342a3)">
     <use xlink:href="#m10696107a7" x="0" y="288" style="fill: #423b63; stroke: #2f2f2f"/>
    </g>
   </g>
   <g id="line2d_11">
    <path d="M 90.284532 159.037997 
L 90.284532 95.591416 
" clip-path="url(#p8d35c342a3)" style="fill: none; stroke: #2f2f2f; stroke-width: 1.5; stroke-linecap: round"/>
   </g>
   <g id="line2d_12">
    <path d="M 90.284532 132.596228 
L 90.284532 102.19588 
" clip-path="url(#p8d35c342a3)" style="fill: none; stroke: #2f2f2f; stroke-width: 4.5; stroke-linecap: round"/>
   </g>
   <g id="line2d_13">
    <path d="M 90.284532 115.988713 
" clip-path="url(#p8d35c342a3)" style="fill: none; stroke: #2f2f2f; stroke-width: 1.2; stroke-linecap: round"/>
    <defs>
     <path id="medff4b2f0e" d="M 1.875 0 
L -1.875 -0 
" style="stroke: #ffffff; stroke-width: 0.9"/>
    </defs>
    <g clip-path="url(#p8d35c342a3)">
     <use xlink:href="#medff4b2f0e" x="90.284532" y="115.988713" style="fill: #ffffff; stroke: #ffffff; stroke-width: 0.9"/>
    </g>
   </g>
   <g id="line2d_14">
    <path d="M 172.167 132.071745 
L 172.167 80.236415 
" clip-path="url(#p8d35c342a3)" style="fill: none; stroke: #2f2f2f; stroke-width: 1.5; stroke-linecap: round"/>
   </g>
   <g id="line2d_15">
    <path d="M 172.167 112.485462 
L 172.167 93.899632 
" clip-path="url(#p8d35c342a3)" style="fill: none; stroke: #2f2f2f; stroke-width: 4.5; stroke-linecap: round"/>
   </g>
   <g id="line2d_16">
    <path d="M 172.167 106.189621 
" clip-path="url(#p8d35c342a3)" style="fill: none; stroke: #2f2f2f; stroke-width: 1.2; stroke-linecap: round"/>
    <g clip-path="url(#p8d35c342a3)">
     <use xlink:href="#medff4b2f0e" x="172.167" y="106.189621" style="fill: #ffffff; stroke: #ffffff; stroke-width: 0.9"/>
    </g>
   </g>
   <g id="line2d_17">
    <path d="M 254.049468 141.410151 
L 254.049468 81.339678 
" clip-path="url(#p8d35c342a3)" style="fill: none; stroke: #2f2f2f; stroke-width: 1.5; stroke-linecap: round"/>
   </g>
   <g id="line2d_18">
    <path d="M 254.049468 128.528765 
L 254.049468 93.899632 
" clip-path="url(#p8d35c342a3)" style="fill: none; stroke: #2f2f2f; stroke-width: 4.5; stroke-linecap: round"/>
   </g>
   <g id="line2d_19">
    <path d="M 254.049468 110.559217 
" clip-path="url(#p8d35c342a3)" style="fill: none; stroke: #2f2f2f; stroke-width: 1.2; stroke-linecap: round"/>
    <g clip-path="url(#p8d35c342a3)">
     <use xlink:href="#medff4b2f0e" x="254.049468" y="110.559217" style="fill: #ffffff; stroke: #ffffff; stroke-width: 0.9"/>
    </g>
   </g>
   <g id="line2d_20">
    <path d="M 90.284532 76.649149 
L 90.284532 68.111194 
L 172.167 68.111194 
L 172.167 76.649149 
" clip-path="url(#p8d35c342a3)" style="fill: none; stroke: #000000; stroke-linecap: round"/>
   </g>
   <g id="line2d_21">
    <path d="M 172.167 62.300082 
L 172.167 53.403401 
L 254.049468 53.403401 
L 254.049468 62.300082 
" clip-path="url(#p8d35c342a3)" style="fill: none; stroke: #000000; stroke-linecap: round"/>
   </g>
   <g id="line2d_22">
    <path d="M 90.284532 47.951015 
L 90.284532 38.695608 
L 254.049468 38.695608 
L 254.049468 47.951015 
" clip-path="url(#p8d35c342a3)" style="fill: none; stroke: #000000; stroke-linecap: round"/>
   </g>
   <g id="patch_3">
    <path d="M 46.068 238.804 
L 46.068 23.568 
" style="fill: none; stroke: #262626; stroke-linejoin: miter; stroke-linecap: square"/>
   </g>
   <g id="patch_4">
    <path d="M 298.266 238.804 
L 298.266 23.568 
" style="fill: none; stroke: #262626; stroke-linejoin: miter; stroke-linecap: square"/>
   </g>
   <g id="patch_5">
    <path d="M 46.068 238.804 
L 298.266 238.804 
" style="fill: none; stroke: #262626; stroke-linejoin: miter; stroke-linecap: square"/>
   </g>
   <g id="patch_6">
    <path d="M 46.068 23.568 
L 298.266 23.568 
" style="fill: none; stroke: #262626; stroke-linejoin: miter; stroke-linecap: square"/>
   </g>
   <g id="text_12">
    <!-- ns -->
    <g transform="translate(125.683266 66.114694) scale(0.096 -0.096)">
     <use xlink:href="#DejaVuSans-6e"/>
     <use xlink:href="#DejaVuSans-73" x="63.378906"/>
    </g>
   </g>
   <g id="text_13">
    <!-- ns -->
    <g transform="translate(207.565734 51.406901) scale(0.096 -0.096)">
     <use xlink:href="#DejaVuSans-6e"/>
     <use xlink:href="#DejaVuSans-73" x="63.378906"/>
    </g>
   </g>
   <g id="text_14">
    <!-- ns -->
    <g transform="translate(166.6245 36.699108) scale(0.096 -0.096)">
     <use xlink:href="#DejaVuSans-6e"/>
     <use xlink:href="#DejaVuSans-73" x="63.378906"/>
    </g>
   </g>
   <g id="text_15">
    <!-- Accuracy -->
    <g style="fill: #262626" transform="translate(150.252 17.568) scale(0.096 -0.096)">
     <defs>
      <path id="DejaVuSans-41" d="M 2188 4044 
L 1331 1722 
L 3047 1722 
L 2188 4044 
z
M 1831 4666 
L 2547 4666 
L 4325 0 
L 3669 0 
L 3244 1197 
L 1141 1197 
L 716 0 
L 50 0 
L 1831 4666 
z
" transform="scale(0.015625)"/>
     </defs>
     <use xlink:href="#DejaVuSans-41"/>
     <use xlink:href="#DejaVuSans-63" x="66.658203"/>
     <use xlink:href="#DejaVuSans-63" x="121.638672"/>
     <use xlink:href="#DejaVuSans-75" x="176.619141"/>
     <use xlink:href="#DejaVuSans-72" x="239.998047"/>
     <use xlink:href="#DejaVuSans-61" x="281.111328"/>
     <use xlink:href="#DejaVuSans-63" x="342.390625"/>
     <use xlink:href="#DejaVuSans-79" x="397.371094"/>
    </g>
   </g>
  </g>
  <g id="axes_2">
   <g id="patch_7">
    <path d="M 313.434 238.804 
L 565.632 238.804 
L 565.632 23.568 
L 313.434 23.568 
L 313.434 238.804 
z
" style="fill: none"/>
   </g>
   <g id="matplotlib.axis_3">
    <g id="xtick_4">
     <g id="line2d_23">
      <g>
       <use xlink:href="#mcb6c632f3d" x="357.650532" y="238.804" style="fill: #262626; stroke: #262626"/>
      </g>
     </g>
     <g id="text_16">
      <!-- Low -->
      <g style="fill: #262626" transform="translate(348.985282 253.790625) scale(0.088 -0.088)">
       <use xlink:href="#DejaVuSans-4c"/>
       <use xlink:href="#DejaVuSans-6f" x="53.962891"/>
       <use xlink:href="#DejaVuSans-77" x="115.144531"/>
      </g>
     </g>
    </g>
    <g id="xtick_5">
     <g id="line2d_24">
      <g>
       <use xlink:href="#mcb6c632f3d" x="439.533" y="238.804" style="fill: #262626; stroke: #262626"/>
      </g>
     </g>
     <g id="text_17">
      <!-- Medium -->
      <g style="fill: #262626" transform="translate(421.939188 253.790625) scale(0.088 -0.088)">
       <use xlink:href="#DejaVuSans-4d"/>
       <use xlink:href="#DejaVuSans-65" x="86.279297"/>
       <use xlink:href="#DejaVuSans-64" x="147.802734"/>
       <use xlink:href="#DejaVuSans-69" x="211.279297"/>
       <use xlink:href="#DejaVuSans-75" x="239.0625"/>
       <use xlink:href="#DejaVuSans-6d" x="302.441406"/>
      </g>
     </g>
    </g>
    <g id="xtick_6">
     <g id="line2d_25">
      <g>
       <use xlink:href="#mcb6c632f3d" x="521.415468" y="238.804" style="fill: #262626; stroke: #262626"/>
      </g>
     </g>
     <g id="text_18">
      <!-- High -->
      <g style="fill: #262626" transform="translate(511.302343 253.790625) scale(0.088 -0.088)">
       <use xlink:href="#DejaVuSans-48"/>
       <use xlink:href="#DejaVuSans-69" x="75.195312"/>
       <use xlink:href="#DejaVuSans-67" x="102.978516"/>
       <use xlink:href="#DejaVuSans-68" x="166.455078"/>
      </g>
     </g>
    </g>
   </g>
   <g id="matplotlib.axis_4">
    <g id="ytick_8">
     <g id="line2d_26">
      <g>
       <use xlink:href="#m2030f69457" x="313.434" y="238.804" style="fill: #262626; stroke: #262626"/>
      </g>
     </g>
    </g>
    <g id="ytick_9">
     <g id="line2d_27">
      <g>
       <use xlink:href="#m2030f69457" x="313.434" y="202.931333" style="fill: #262626; stroke: #262626"/>
      </g>
     </g>
    </g>
    <g id="ytick_10">
     <g id="line2d_28">
      <g>
       <use xlink:href="#m2030f69457" x="313.434" y="167.058667" style="fill: #262626; stroke: #262626"/>
      </g>
     </g>
    </g>
    <g id="ytick_11">
     <g id="line2d_29">
      <g>
       <use xlink:href="#m2030f69457" x="313.434" y="131.186" style="fill: #262626; stroke: #262626"/>
      </g>
     </g>
    </g>
    <g id="ytick_12">
     <g id="line2d_30">
      <g>
       <use xlink:href="#m2030f69457" x="313.434" y="95.313333" style="fill: #262626; stroke: #262626"/>
      </g>
     </g>
    </g>
    <g id="ytick_13">
     <g id="line2d_31">
      <g>
       <use xlink:href="#m2030f69457" x="313.434" y="59.440667" style="fill: #262626; stroke: #262626"/>
      </g>
     </g>
    </g>
    <g id="ytick_14">
     <g id="line2d_32">
      <g>
       <use xlink:href="#m2030f69457" x="313.434" y="23.568" style="fill: #262626; stroke: #262626"/>
      </g>
     </g>
    </g>
   </g>
   <g id="PolyCollection_4">
    <defs>
     <path id="m23945432bd" d="M 381.282711 -130.067629 
L 334.018354 -130.067629 
L 333.332792 -130.546123 
L 332.660771 -131.024618 
L 332.004464 -131.503112 
L 331.366026 -131.981607 
L 330.747584 -132.460101 
L 330.151221 -132.938596 
L 329.578959 -133.41709 
L 329.032745 -133.895585 
L 328.514438 -134.374079 
L 328.025791 -134.852573 
L 327.568438 -135.331068 
L 327.14388 -135.809562 
L 326.753471 -136.288057 
L 326.398403 -136.766551 
L 326.079698 -137.245046 
L 325.798195 -137.72354 
L 325.554539 -138.202035 
L 325.349177 -138.680529 
L 325.182346 -139.159024 
L 325.054069 -139.637518 
L 324.964154 -140.116012 
L 324.91219 -140.594507 
L 324.897545 -141.073001 
L 324.919373 -141.551496 
L 324.97661 -142.02999 
L 325.067987 -142.508485 
L 325.192033 -142.986979 
L 325.347084 -143.465474 
L 325.531296 -143.943968 
L 325.742655 -144.422463 
L 325.978997 -144.900957 
L 326.238014 -145.379451 
L 326.51728 -145.857946 
L 326.814266 -146.33644 
L 327.126358 -146.814935 
L 327.45088 -147.293429 
L 327.785111 -147.771924 
L 328.126313 -148.250418 
L 328.471745 -148.728913 
L 328.818689 -149.207407 
L 329.164474 -149.685902 
L 329.506491 -150.164396 
L 329.842219 -150.64289 
L 330.169243 -151.121385 
L 330.485273 -151.599879 
L 330.788165 -152.078374 
L 331.075932 -152.556868 
L 331.346764 -153.035363 
L 331.599042 -153.513857 
L 331.831346 -153.992352 
L 332.042469 -154.470846 
L 332.231426 -154.949341 
L 332.397455 -155.427835 
L 332.540028 -155.906329 
L 332.65885 -156.384824 
L 332.75386 -156.863318 
L 332.825229 -157.341813 
L 332.873358 -157.820307 
L 332.898869 -158.298802 
L 332.902605 -158.777296 
L 332.88561 -159.255791 
L 332.849129 -159.734285 
L 332.794589 -160.21278 
L 332.723586 -160.691274 
L 332.637875 -161.169768 
L 332.539347 -161.648263 
L 332.430016 -162.126757 
L 332.312 -162.605252 
L 332.187503 -163.083746 
L 332.058794 -163.562241 
L 331.928192 -164.040735 
L 331.798043 -164.51923 
L 331.670699 -164.997724 
L 331.548506 -165.476218 
L 331.433776 -165.954713 
L 331.328776 -166.433207 
L 331.235707 -166.911702 
L 331.156688 -167.390196 
L 331.093741 -167.868691 
L 331.048774 -168.347185 
L 331.023569 -168.82568 
L 331.019771 -169.304174 
L 331.038873 -169.782669 
L 331.082211 -170.261163 
L 331.150952 -170.739657 
L 331.246091 -171.218152 
L 331.368442 -171.696646 
L 331.518637 -172.175141 
L 331.697124 -172.653635 
L 331.904165 -173.13213 
L 332.139838 -173.610624 
L 332.404039 -174.089119 
L 332.696487 -174.567613 
L 333.016726 -175.046108 
L 333.364136 -175.524602 
L 333.737936 -176.003096 
L 334.137196 -176.481591 
L 334.560846 -176.960085 
L 335.007683 -177.43858 
L 380.293382 -177.43858 
L 380.293382 -177.43858 
L 380.740219 -176.960085 
L 381.163869 -176.481591 
L 381.563129 -176.003096 
L 381.936929 -175.524602 
L 382.284339 -175.046108 
L 382.604578 -174.567613 
L 382.897026 -174.089119 
L 383.161227 -173.610624 
L 383.3969 -173.13213 
L 383.603941 -172.653635 
L 383.782428 -172.175141 
L 383.932623 -171.696646 
L 384.054974 -171.218152 
L 384.150113 -170.739657 
L 384.218854 -170.261163 
L 384.262192 -169.782669 
L 384.281294 -169.304174 
L 384.277496 -168.82568 
L 384.252291 -168.347185 
L 384.207324 -167.868691 
L 384.144377 -167.390196 
L 384.065358 -166.911702 
L 383.972289 -166.433207 
L 383.867289 -165.954713 
L 383.752559 -165.476218 
L 383.630366 -164.997724 
L 383.503022 -164.51923 
L 383.372873 -164.040735 
L 383.242271 -163.562241 
L 383.113562 -163.083746 
L 382.989065 -162.605252 
L 382.871049 -162.126757 
L 382.761718 -161.648263 
L 382.663189 -161.169768 
L 382.577478 -160.691274 
L 382.506476 -160.21278 
L 382.451936 -159.734285 
L 382.415455 -159.255791 
L 382.39846 -158.777296 
L 382.402196 -158.298802 
L 382.427707 -157.820307 
L 382.475836 -157.341813 
L 382.547205 -156.863318 
L 382.642215 -156.384824 
L 382.761037 -155.906329 
L 382.90361 -155.427835 
L 383.069639 -154.949341 
L 383.258596 -154.470846 
L 383.469719 -153.992352 
L 383.702023 -153.513857 
L 383.954301 -153.035363 
L 384.225133 -152.556868 
L 384.5129 -152.078374 
L 384.815792 -151.599879 
L 385.131822 -151.121385 
L 385.458846 -150.64289 
L 385.794574 -150.164396 
L 386.136591 -149.685902 
L 386.482376 -149.207407 
L 386.82932 -148.728913 
L 387.174752 -148.250418 
L 387.515954 -147.771924 
L 387.850185 -147.293429 
L 388.174707 -146.814935 
L 388.486799 -146.33644 
L 388.783785 -145.857946 
L 389.063051 -145.379451 
L 389.322068 -144.900957 
L 389.55841 -144.422463 
L 389.769769 -143.943968 
L 389.953981 -143.465474 
L 390.109032 -142.986979 
L 390.233078 -142.508485 
L 390.324455 -142.02999 
L 390.381692 -141.551496 
L 390.403519 -141.073001 
L 390.388875 -140.594507 
L 390.336911 -140.116012 
L 390.246996 -139.637518 
L 390.118719 -139.159024 
L 389.951888 -138.680529 
L 389.746525 -138.202035 
L 389.50287 -137.72354 
L 389.221367 -137.245046 
L 388.902662 -136.766551 
L 388.547594 -136.288057 
L 388.157185 -135.809562 
L 387.732627 -135.331068 
L 387.275274 -134.852573 
L 386.786627 -134.374079 
L 386.26832 -133.895585 
L 385.722106 -133.41709 
L 385.149844 -132.938596 
L 384.55348 -132.460101 
L 383.935039 -131.981607 
L 383.296601 -131.503112 
L 382.640294 -131.024618 
L 381.968273 -130.546123 
L 381.282711 -130.067629 
z
" style="stroke: #2f2f2f"/>
    </defs>
    <g clip-path="url(#p686638e427)">
     <use xlink:href="#m23945432bd" x="0" y="288" style="fill: #58b2a3; stroke: #2f2f2f"/>
    </g>
   </g>
   <g id="PolyCollection_5">
    <defs>
     <path id="m5182216290" d="M 456.200587 -102.056227 
L 422.865413 -102.056227 
L 422.20127 -103.010708 
L 421.532178 -103.965189 
L 420.859448 -104.919671 
L 420.184463 -105.874152 
L 419.508673 -106.828633 
L 418.833594 -107.783115 
L 418.160802 -108.737596 
L 417.49193 -109.692077 
L 416.828659 -110.646559 
L 416.172711 -111.60104 
L 415.525843 -112.555521 
L 414.889837 -113.510002 
L 414.266487 -114.464484 
L 413.657592 -115.418965 
L 413.064941 -116.373446 
L 412.490305 -117.327928 
L 411.935419 -118.282409 
L 411.401972 -119.23689 
L 410.891594 -120.191372 
L 410.405842 -121.145853 
L 409.946186 -122.100334 
L 409.514 -123.054816 
L 409.110546 -124.009297 
L 408.736965 -124.963778 
L 408.394267 -125.91826 
L 408.083323 -126.872741 
L 407.804851 -127.827222 
L 407.55942 -128.781704 
L 407.347435 -129.736185 
L 407.169141 -130.690666 
L 407.024614 -131.645147 
L 406.913769 -132.599629 
L 406.836354 -133.55411 
L 406.791958 -134.508591 
L 406.780013 -135.463073 
L 406.799801 -136.417554 
L 406.850462 -137.372035 
L 406.931001 -138.326517 
L 407.040298 -139.280998 
L 407.177122 -140.235479 
L 407.340137 -141.189961 
L 407.527922 -142.144442 
L 407.738977 -143.098923 
L 407.97174 -144.053405 
L 408.224598 -145.007886 
L 408.495905 -145.962367 
L 408.783993 -146.916849 
L 409.087182 -147.87133 
L 409.4038 -148.825811 
L 409.73219 -149.780292 
L 410.070725 -150.734774 
L 410.417819 -151.689255 
L 410.771934 -152.643736 
L 411.131597 -153.598218 
L 411.495402 -154.552699 
L 411.862023 -155.50718 
L 412.230219 -156.461662 
L 412.598841 -157.416143 
L 412.966837 -158.370624 
L 413.333255 -159.325106 
L 413.697252 -160.279587 
L 414.05809 -161.234068 
L 414.415142 -162.18855 
L 414.767888 -163.143031 
L 415.115923 -164.097512 
L 415.458947 -165.051994 
L 415.796769 -166.006475 
L 416.129301 -166.960956 
L 416.456557 -167.915437 
L 416.778649 -168.869919 
L 417.095777 -169.8244 
L 417.40823 -170.778881 
L 417.716375 -171.733363 
L 418.020653 -172.687844 
L 418.321568 -173.642325 
L 418.619682 -174.596807 
L 418.915605 -175.551288 
L 419.209987 -176.505769 
L 419.503509 -177.460251 
L 419.796869 -178.414732 
L 420.090782 -179.369213 
L 420.385958 -180.323695 
L 420.683104 -181.278176 
L 420.982907 -182.232657 
L 421.286026 -183.187139 
L 421.593084 -184.14162 
L 421.904662 -185.096101 
L 422.221284 -186.050582 
L 422.543416 -187.005064 
L 422.871456 -187.959545 
L 423.20573 -188.914026 
L 423.546485 -189.868508 
L 423.893884 -190.822989 
L 424.248007 -191.77747 
L 424.608844 -192.731952 
L 424.976297 -193.686433 
L 425.350179 -194.640914 
L 425.730214 -195.595396 
L 426.11604 -196.549877 
L 452.94996 -196.549877 
L 452.94996 -196.549877 
L 453.335786 -195.595396 
L 453.715821 -194.640914 
L 454.089703 -193.686433 
L 454.457156 -192.731952 
L 454.817993 -191.77747 
L 455.172116 -190.822989 
L 455.519515 -189.868508 
L 455.86027 -188.914026 
L 456.194544 -187.959545 
L 456.522584 -187.005064 
L 456.844716 -186.050582 
L 457.161338 -185.096101 
L 457.472916 -184.14162 
L 457.779974 -183.187139 
L 458.083093 -182.232657 
L 458.382896 -181.278176 
L 458.680042 -180.323695 
L 458.975218 -179.369213 
L 459.269131 -178.414732 
L 459.562491 -177.460251 
L 459.856013 -176.505769 
L 460.150395 -175.551288 
L 460.446318 -174.596807 
L 460.744432 -173.642325 
L 461.045347 -172.687844 
L 461.349625 -171.733363 
L 461.65777 -170.778881 
L 461.970223 -169.8244 
L 462.287351 -168.869919 
L 462.609443 -167.915437 
L 462.936699 -166.960956 
L 463.269231 -166.006475 
L 463.607053 -165.051994 
L 463.950077 -164.097512 
L 464.298112 -163.143031 
L 464.650858 -162.18855 
L 465.00791 -161.234068 
L 465.368748 -160.279587 
L 465.732745 -159.325106 
L 466.099163 -158.370624 
L 466.467159 -157.416143 
L 466.835781 -156.461662 
L 467.203977 -155.50718 
L 467.570598 -154.552699 
L 467.934403 -153.598218 
L 468.294066 -152.643736 
L 468.648181 -151.689255 
L 468.995275 -150.734774 
L 469.33381 -149.780292 
L 469.6622 -148.825811 
L 469.978818 -147.87133 
L 470.282007 -146.916849 
L 470.570095 -145.962367 
L 470.841402 -145.007886 
L 471.09426 -144.053405 
L 471.327023 -143.098923 
L 471.538078 -142.144442 
L 471.725863 -141.189961 
L 471.888878 -140.235479 
L 472.025702 -139.280998 
L 472.134999 -138.326517 
L 472.215538 -137.372035 
L 472.266199 -136.417554 
L 472.285987 -135.463073 
L 472.274042 -134.508591 
L 472.229646 -133.55411 
L 472.152231 -132.599629 
L 472.041386 -131.645147 
L 471.896859 -130.690666 
L 471.718565 -129.736185 
L 471.50658 -128.781704 
L 471.261149 -127.827222 
L 470.982677 -126.872741 
L 470.671733 -125.91826 
L 470.329035 -124.963778 
L 469.955454 -124.009297 
L 469.552 -123.054816 
L 469.119814 -122.100334 
L 468.660158 -121.145853 
L 468.174406 -120.191372 
L 467.664028 -119.23689 
L 467.130581 -118.282409 
L 466.575695 -117.327928 
L 466.001059 -116.373446 
L 465.408408 -115.418965 
L 464.799513 -114.464484 
L 464.176163 -113.510002 
L 463.540157 -112.555521 
L 462.893289 -111.60104 
L 462.237341 -110.646559 
L 461.57407 -109.692077 
L 460.905198 -108.737596 
L 460.232406 -107.783115 
L 459.557327 -106.828633 
L 458.881537 -105.874152 
L 458.206552 -104.919671 
L 457.533822 -103.965189 
L 456.86473 -103.010708 
L 456.200587 -102.056227 
z
" style="stroke: #2f2f2f"/>
    </defs>
    <g clip-path="url(#p686638e427)">
     <use xlink:href="#m5182216290" x="0" y="288" style="fill: #437695; stroke: #2f2f2f"/>
    </g>
   </g>
   <g id="PolyCollection_6">
    <defs>
     <path id="m7e3771a140" d="M 540.861954 -38.804673 
L 501.968981 -38.804673 
L 501.237559 -39.940941 
L 500.506365 -41.077208 
L 499.777431 -42.213475 
L 499.052863 -43.349742 
L 498.334833 -44.486009 
L 497.625575 -45.622277 
L 496.927365 -46.758544 
L 496.242519 -47.894811 
L 495.573376 -49.031078 
L 494.922288 -50.167346 
L 494.291603 -51.303613 
L 493.683655 -52.43988 
L 493.100748 -53.576147 
L 492.545143 -54.712414 
L 492.019038 -55.848682 
L 491.52456 -56.984949 
L 491.063744 -58.121216 
L 490.638522 -59.257483 
L 490.250706 -60.393751 
L 489.901975 -61.530018 
L 489.593863 -62.666285 
L 489.327742 -63.802552 
L 489.104815 -64.938819 
L 488.926099 -66.075087 
L 488.792423 -67.211354 
L 488.704411 -68.347621 
L 488.662481 -69.483888 
L 488.666834 -70.620156 
L 488.717455 -71.756423 
L 488.814105 -72.89269 
L 488.956322 -74.028957 
L 489.143419 -75.165224 
L 489.374492 -76.301492 
L 489.648413 -77.437759 
L 489.963847 -78.574026 
L 490.319248 -79.710293 
L 490.712875 -80.846561 
L 491.142797 -81.982828 
L 491.606908 -83.119095 
L 492.102936 -84.255362 
L 492.628459 -85.391629 
L 493.180917 -86.527897 
L 493.757634 -87.664164 
L 494.355827 -88.800431 
L 494.97263 -89.936698 
L 495.60511 -91.072966 
L 496.250285 -92.209233 
L 496.905144 -93.3455 
L 497.566667 -94.481767 
L 498.231843 -95.618034 
L 498.897691 -96.754302 
L 499.561277 -97.890569 
L 500.219738 -99.026836 
L 500.870293 -100.163103 
L 501.510265 -101.299371 
L 502.1371 -102.435638 
L 502.748377 -103.571905 
L 503.341829 -104.708172 
L 503.915353 -105.844439 
L 504.467025 -106.980707 
L 504.99511 -108.116974 
L 505.498073 -109.253241 
L 505.974584 -110.389508 
L 506.423532 -111.525775 
L 506.844022 -112.662043 
L 507.235384 -113.79831 
L 507.597175 -114.934577 
L 507.929174 -116.070844 
L 508.231386 -117.207112 
L 508.504036 -118.343379 
L 508.747564 -119.479646 
L 508.96262 -120.615913 
L 509.150054 -121.75218 
L 509.310905 -122.888448 
L 509.446395 -124.024715 
L 509.557909 -125.160982 
L 509.646986 -126.297249 
L 509.715303 -127.433517 
L 509.764657 -128.569784 
L 509.796951 -129.706051 
L 509.814173 -130.842318 
L 509.818379 -131.978585 
L 509.811676 -133.114853 
L 509.7962 -134.25112 
L 509.774097 -135.387387 
L 509.747508 -136.523654 
L 509.718547 -137.659922 
L 509.689282 -138.796189 
L 509.661723 -139.932456 
L 509.637797 -141.068723 
L 509.619343 -142.20499 
L 509.608086 -143.341258 
L 509.605635 -144.477525 
L 509.613462 -145.613792 
L 509.632898 -146.750059 
L 509.665123 -147.886327 
L 509.711157 -149.022594 
L 509.771857 -150.158861 
L 509.847913 -151.295128 
L 532.983022 -151.295128 
L 532.983022 -151.295128 
L 533.059078 -150.158861 
L 533.119778 -149.022594 
L 533.165812 -147.886327 
L 533.198037 -146.750059 
L 533.217473 -145.613792 
L 533.2253 -144.477525 
L 533.222849 -143.341258 
L 533.211592 -142.20499 
L 533.193138 -141.068723 
L 533.169212 -139.932456 
L 533.141653 -138.796189 
L 533.112388 -137.659922 
L 533.083427 -136.523654 
L 533.056838 -135.387387 
L 533.034735 -134.25112 
L 533.019259 -133.114853 
L 533.012556 -131.978585 
L 533.016762 -130.842318 
L 533.033984 -129.706051 
L 533.066278 -128.569784 
L 533.115632 -127.433517 
L 533.183949 -126.297249 
L 533.273026 -125.160982 
L 533.38454 -124.024715 
L 533.52003 -122.888448 
L 533.680881 -121.75218 
L 533.868315 -120.615913 
L 534.083371 -119.479646 
L 534.3269 -118.343379 
L 534.599549 -117.207112 
L 534.901761 -116.070844 
L 535.23376 -114.934577 
L 535.595551 -113.79831 
L 535.986913 -112.662043 
L 536.407403 -111.525775 
L 536.856351 -110.389508 
L 537.332862 -109.253241 
L 537.835825 -108.116974 
L 538.36391 -106.980707 
L 538.915582 -105.844439 
L 539.489106 -104.708172 
L 540.082558 -103.571905 
L 540.693835 -102.435638 
L 541.32067 -101.299371 
L 541.960642 -100.163103 
L 542.611197 -99.026836 
L 543.269658 -97.890569 
L 543.933244 -96.754302 
L 544.599092 -95.618034 
L 545.264268 -94.481767 
L 545.925791 -93.3455 
L 546.58065 -92.209233 
L 547.225825 -91.072966 
L 547.858305 -89.936698 
L 548.475108 -88.800431 
L 549.073301 -87.664164 
L 549.650018 -86.527897 
L 550.202476 -85.391629 
L 550.727999 -84.255362 
L 551.224027 -83.119095 
L 551.688138 -81.982828 
L 552.11806 -80.846561 
L 552.511687 -79.710293 
L 552.867088 -78.574026 
L 553.182522 -77.437759 
L 553.456443 -76.301492 
L 553.687516 -75.165224 
L 553.874613 -74.028957 
L 554.01683 -72.89269 
L 554.11348 -71.756423 
L 554.164101 -70.620156 
L 554.168455 -69.483888 
L 554.126524 -68.347621 
L 554.038512 -67.211354 
L 553.904836 -66.075087 
L 553.72612 -64.938819 
L 553.503193 -63.802552 
L 553.237072 -62.666285 
L 552.92896 -61.530018 
L 552.580229 -60.393751 
L 552.192413 -59.257483 
L 551.767191 -58.121216 
L 551.306375 -56.984949 
L 550.811897 -55.848682 
L 550.285792 -54.712414 
L 549.730187 -53.576147 
L 549.14728 -52.43988 
L 548.539332 -51.303613 
L 547.908647 -50.167346 
L 547.257559 -49.031078 
L 546.588416 -47.894811 
L 545.90357 -46.758544 
L 545.20536 -45.622277 
L 544.496102 -44.486009 
L 543.778073 -43.349742 
L 543.053504 -42.213475 
L 542.32457 -41.077208 
L 541.593376 -39.940941 
L 540.861954 -38.804673 
z
" style="stroke: #2f2f2f"/>
    </defs>
    <g clip-path="url(#p686638e427)">
     <use xlink:href="#m7e3771a140" x="0" y="288" style="fill: #423b63; stroke: #2f2f2f"/>
    </g>
   </g>
   <g id="line2d_33">
    <path d="M 357.650532 157.932371 
L 357.650532 110.56142 
" clip-path="url(#p686638e427)" style="fill: none; stroke: #2f2f2f; stroke-width: 1.5; stroke-linecap: round"/>
   </g>
   <g id="line2d_34">
    <path d="M 357.650532 148.243101 
L 357.650532 118.29426 
" clip-path="url(#p686638e427)" style="fill: none; stroke: #2f2f2f; stroke-width: 4.5; stroke-linecap: round"/>
   </g>
   <g id="line2d_35">
    <path d="M 357.650532 142.700683 
" clip-path="url(#p686638e427)" style="fill: none; stroke: #2f2f2f; stroke-width: 1.2; stroke-linecap: round"/>
    <g clip-path="url(#p686638e427)">
     <use xlink:href="#medff4b2f0e" x="357.650532" y="142.700683" style="fill: #ffffff; stroke: #ffffff; stroke-width: 0.9"/>
    </g>
   </g>
   <g id="line2d_36">
    <path d="M 439.533 185.943773 
L 439.533 91.450123 
" clip-path="url(#p686638e427)" style="fill: none; stroke: #2f2f2f; stroke-width: 1.5; stroke-linecap: round"/>
   </g>
   <g id="line2d_37">
    <path d="M 439.533 164.217267 
L 439.533 124.236845 
" clip-path="url(#p686638e427)" style="fill: none; stroke: #2f2f2f; stroke-width: 4.5; stroke-linecap: round"/>
   </g>
   <g id="line2d_38">
    <path d="M 439.533 147.047436 
" clip-path="url(#p686638e427)" style="fill: none; stroke: #2f2f2f; stroke-width: 1.2; stroke-linecap: round"/>
    <g clip-path="url(#p686638e427)">
     <use xlink:href="#medff4b2f0e" x="439.533" y="147.047436" style="fill: #ffffff; stroke: #ffffff; stroke-width: 0.9"/>
    </g>
   </g>
   <g id="line2d_39">
    <path d="M 521.415468 249.195327 
L 521.415468 200.502455 
" clip-path="url(#p686638e427)" style="fill: none; stroke: #2f2f2f; stroke-width: 1.5; stroke-linecap: round"/>
   </g>
   <g id="line2d_40">
    <path d="M 521.415468 224.79124 
L 521.415468 200.502455 
" clip-path="url(#p686638e427)" style="fill: none; stroke: #2f2f2f; stroke-width: 4.5; stroke-linecap: round"/>
   </g>
   <g id="line2d_41">
    <path d="M 521.415468 213.560272 
" clip-path="url(#p686638e427)" style="fill: none; stroke: #2f2f2f; stroke-width: 1.2; stroke-linecap: round"/>
    <g clip-path="url(#p686638e427)">
     <use xlink:href="#medff4b2f0e" x="521.415468" y="213.560272" style="fill: #ffffff; stroke: #ffffff; stroke-width: 0.9"/>
    </g>
   </g>
   <g id="line2d_42">
    <path d="M 357.650532 87.862856 
L 357.650532 79.605244 
L 439.533 79.605244 
L 439.533 87.862856 
" clip-path="url(#p686638e427)" style="fill: none; stroke: #000000; stroke-linecap: round"/>
   </g>
   <g id="line2d_43">
    <path d="M 439.533 73.51379 
L 439.533 64.897451 
L 521.415468 64.897451 
L 521.415468 73.51379 
" clip-path="url(#p686638e427)" style="fill: none; stroke: #000000; stroke-linecap: round"/>
   </g>
   <g id="line2d_44">
    <path d="M 357.650532 59.164723 
L 357.650532 50.189658 
L 521.415468 50.189658 
L 521.415468 59.164723 
" clip-path="url(#p686638e427)" style="fill: none; stroke: #000000; stroke-linecap: round"/>
   </g>
   <g id="patch_8">
    <path d="M 313.434 238.804 
L 313.434 23.568 
" style="fill: none; stroke: #262626; stroke-linejoin: miter; stroke-linecap: square"/>
   </g>
   <g id="patch_9">
    <path d="M 565.632 238.804 
L 565.632 23.568 
" style="fill: none; stroke: #262626; stroke-linejoin: miter; stroke-linecap: square"/>
   </g>
   <g id="patch_10">
    <path d="M 313.434 238.804 
L 565.632 238.804 
" style="fill: none; stroke: #262626; stroke-linejoin: miter; stroke-linecap: square"/>
   </g>
   <g id="patch_11">
    <path d="M 313.434 23.568 
L 565.632 23.568 
" style="fill: none; stroke: #262626; stroke-linejoin: miter; stroke-linecap: square"/>
   </g>
   <g id="text_19">
    <!-- ns -->
    <g transform="translate(393.049266 77.608744) scale(0.096 -0.096)">
     <use xlink:href="#DejaVuSans-6e"/>
     <use xlink:href="#DejaVuSans-73" x="63.378906"/>
    </g>
   </g>
   <g id="text_20">
    <!-- ** -->
    <g transform="translate(475.674234 62.900951) scale(0.096 -0.096)">
     <defs>
      <path id="DejaVuSans-2a" d="M 3009 3897 
L 1888 3291 
L 3009 2681 
L 2828 2375 
L 1778 3009 
L 1778 1831 
L 1422 1831 
L 1422 3009 
L 372 2375 
L 191 2681 
L 1313 3291 
L 191 3897 
L 372 4206 
L 1422 3572 
L 1422 4750 
L 1778 4750 
L 1778 3572 
L 2828 4206 
L 3009 3897 
z
" transform="scale(0.015625)"/>
     </defs>
     <use xlink:href="#DejaVuSans-2a"/>
     <use xlink:href="#DejaVuSans-2a" x="50"/>
    </g>
   </g>
   <g id="text_21">
    <!-- *** -->
    <g transform="translate(432.333 48.193158) scale(0.096 -0.096)">
     <use xlink:href="#DejaVuSans-2a"/>
     <use xlink:href="#DejaVuSans-2a" x="50"/>
     <use xlink:href="#DejaVuSans-2a" x="100"/>
    </g>
   </g>
   <g id="text_22">
    <!-- Speed -->
    <g style="fill: #262626" transform="translate(424.48425 17.568) scale(0.096 -0.096)">
     <defs>
      <path id="DejaVuSans-53" d="M 3425 4513 
L 3425 3897 
Q 3066 4069 2747 4153 
Q 2428 4238 2131 4238 
Q 1616 4238 1336 4038 
Q 1056 3838 1056 3469 
Q 1056 3159 1242 3001 
Q 1428 2844 1947 2747 
L 2328 2669 
Q 3034 2534 3370 2195 
Q 3706 1856 3706 1288 
Q 3706 609 3251 259 
Q 2797 -91 1919 -91 
Q 1588 -91 1214 -16 
Q 841 59 441 206 
L 441 856 
Q 825 641 1194 531 
Q 1563 422 1919 422 
Q 2459 422 2753 634 
Q 3047 847 3047 1241 
Q 3047 1584 2836 1778 
Q 2625 1972 2144 2069 
L 1759 2144 
Q 1053 2284 737 2584 
Q 422 2884 422 3419 
Q 422 4038 858 4394 
Q 1294 4750 2059 4750 
Q 2388 4750 2728 4690 
Q 3069 4631 3425 4513 
z
" transform="scale(0.015625)"/>
     </defs>
     <use xlink:href="#DejaVuSans-53"/>
     <use xlink:href="#DejaVuSans-70" x="63.476562"/>
     <use xlink:href="#DejaVuSans-65" x="126.953125"/>
     <use xlink:href="#DejaVuSans-65" x="188.476562"/>
     <use xlink:href="#DejaVuSans-64" x="250"/>
    </g>
   </g>
  </g>
  <g id="text_23">
   <!-- Average response probability tertile -->
   <g style="fill: #262626" transform="translate(184.7916 282.7242) scale(0.1152 -0.1152)">
    <defs>
     <path id="DejaVuSans-76" d="M 191 3500 
L 800 3500 
L 1894 563 
L 2988 3500 
L 3597 3500 
L 2284 0 
L 1503 0 
L 191 3500 
z
" transform="scale(0.015625)"/>
    </defs>
    <use xlink:href="#DejaVuSans-41"/>
    <use xlink:href="#DejaVuSans-76" x="62.533203"/>
    <use xlink:href="#DejaVuSans-65" x="121.712891"/>
    <use xlink:href="#DejaVuSans-72" x="183.236328"/>
    <use xlink:href="#DejaVuSans-61" x="224.349609"/>
    <use xlink:href="#DejaVuSans-67" x="285.628906"/>
    <use xlink:href="#DejaVuSans-65" x="349.105469"/>
    <use xlink:href="#DejaVuSans-20" x="410.628906"/>
    <use xlink:href="#DejaVuSans-72" x="442.416016"/>
    <use xlink:href="#DejaVuSans-65" x="481.279297"/>
    <use xlink:href="#DejaVuSans-73" x="542.802734"/>
    <use xlink:href="#DejaVuSans-70" x="594.902344"/>
    <use xlink:href="#DejaVuSans-6f" x="658.378906"/>
    <use xlink:href="#DejaVuSans-6e" x="719.560547"/>
    <use xlink:href="#DejaVuSans-73" x="782.939453"/>
    <use xlink:href="#DejaVuSans-65" x="835.039062"/>
    <use xlink:href="#DejaVuSans-20" x="896.5625"/>
    <use xlink:href="#DejaVuSans-70" x="928.349609"/>
    <use xlink:href="#DejaVuSans-72" x="991.826172"/>
    <use xlink:href="#DejaVuSans-6f" x="1030.689453"/>
    <use xlink:href="#DejaVuSans-62" x="1091.871094"/>
    <use xlink:href="#DejaVuSans-61" x="1155.347656"/>
    <use xlink:href="#DejaVuSans-62" x="1216.626953"/>
    <use xlink:href="#DejaVuSans-69" x="1280.103516"/>
    <use xlink:href="#DejaVuSans-6c" x="1307.886719"/>
    <use xlink:href="#DejaVuSans-69" x="1335.669922"/>
    <use xlink:href="#DejaVuSans-74" x="1363.453125"/>
    <use xlink:href="#DejaVuSans-79" x="1402.662109"/>
    <use xlink:href="#DejaVuSans-20" x="1461.841797"/>
    <use xlink:href="#DejaVuSans-74" x="1493.628906"/>
    <use xlink:href="#DejaVuSans-65" x="1532.837891"/>
    <use xlink:href="#DejaVuSans-72" x="1594.361328"/>
    <use xlink:href="#DejaVuSans-74" x="1635.474609"/>
    <use xlink:href="#DejaVuSans-69" x="1674.683594"/>
    <use xlink:href="#DejaVuSans-6c" x="1702.466797"/>
    <use xlink:href="#DejaVuSans-65" x="1730.25"/>
   </g>
  </g>
 </g>
 <defs>
  <clipPath id="p8d35c342a3">
   <rect x="46.068" y="23.568" width="252.198" height="215.236"/>
  </clipPath>
  <clipPath id="p686638e427">
   <rect x="313.434" y="23.568" width="252.198" height="215.236"/>
  </clipPath>
 </defs>
</svg>
