<?xml version="1.0" encoding="utf-8" standalone="no"?>
<!DOCTYPE svg PUBLIC "-//W3C//DTD SVG 1.1//EN"
  "http://www.w3.org/Graphics/SVG/1.1/DTD/svg11.dtd">
<svg xmlns:xlink="http://www.w3.org/1999/xlink" width="576pt" height="288pt" viewBox="0 0 576 288" xmlns="http://www.w3.org/2000/svg" version="1.1">
 <metadata>
  <rdf:RDF xmlns:dc="http://purl.org/dc/elements/1.1/" xmlns:cc="http://creativecommons.org/ns#" xmlns:rdf="http://www.w3.org/1999/02/22-rdf-syntax-ns#">
   <cc:Work>
    <dc:type rdf:resource="http://purl.org/dc/dcmitype/StillImage"/>
    <dc:date>2024-12-13T10:15:39.311347</dc:date>
    <dc:format>image/svg+xml</dc:format>
    <dc:creator>
     <cc:Agent>
      <dc:title>Matplotlib v3.9.2, https://matplotlib.org/</dc:title>
     </cc:Agent>
    </dc:creator>
   </cc:Work>
  </rdf:RDF>
 </metadata>
 <defs>
  <style type="text/css">*{stroke-linejoin: round; stroke-linecap: butt}</style>
 </defs>
 <g id="figure_1">
  <g id="patch_1">
   <path d="M 0 288 
L 576 288 
L 576 0 
L 0 0 
L 0 288 
z
" style="fill: none"/>
  </g>
  <g id="axes_1">
   <g id="patch_2">
    <path d="M 46.068 238.804 
L 298.266 238.804 
L 298.266 23.568 
L 46.068 23.568 
L 46.068 238.804 
z
" style="fill: none"/>
   </g>
   <g id="matplotlib.axis_1">
    <g id="xtick_1">
     <g id="line2d_1">
      <defs>
       <path id="ma17f09f605" d="M 0 0 
L 0 4.8 
" style="stroke: #262626"/>
      </defs>
      <g>
       <use xlink:href="#ma17f09f605" x="90.284532" y="238.804" style="fill: #262626; stroke: #262626"/>
      </g>
     </g>
     <g id="text_1">
      <!-- Low -->
      <g style="fill: #262626" transform="translate(81.619282 253.790625) scale(0.088 -0.088)">
       <defs>
        <path id="DejaVuSans-4c" d="M 628 4666 
L 1259 4666 
L 1259 531 
L 3531 531 
L 3531 0 
L 628 0 
L 628 4666 
z
" transform="scale(0.015625)"/>
        <path id="DejaVuSans-6f" d="M 1959 3097 
Q 1497 3097 1228 2736 
Q 959 2375 959 1747 
Q 959 1119 1226 758 
Q 1494 397 1959 397 
Q 2419 397 2687 759 
Q 2956 1122 2956 1747 
Q 2956 2369 2687 2733 
Q 2419 3097 1959 3097 
z
M 1959 3584 
Q 2709 3584 3137 3096 
Q 3566 2609 3566 1747 
Q 3566 888 3137 398 
Q 2709 -91 1959 -91 
Q 1206 -91 779 398 
Q 353 888 353 1747 
Q 353 2609 779 3096 
Q 1206 3584 1959 3584 
z
" transform="scale(0.015625)"/>
        <path id="DejaVuSans-77" d="M 269 3500 
L 844 3500 
L 1563 769 
L 2278 3500 
L 2956 3500 
L 3675 769 
L 4391 3500 
L 4966 3500 
L 4050 0 
L 3372 0 
L 2619 2869 
L 1863 0 
L 1184 0 
L 269 3500 
z
" transform="scale(0.015625)"/>
       </defs>
       <use xlink:href="#DejaVuSans-4c"/>
       <use xlink:href="#DejaVuSans-6f" x="53.962891"/>
       <use xlink:href="#DejaVuSans-77" x="115.144531"/>
      </g>
     </g>
    </g>
    <g id="xtick_2">
     <g id="line2d_2">
      <g>
       <use xlink:href="#ma17f09f605" x="172.167" y="238.804" style="fill: #262626; stroke: #262626"/>
      </g>
     </g>
     <g id="text_2">
      <!-- Medium -->
      <g style="fill: #262626" transform="translate(154.573187 253.790625) scale(0.088 -0.088)">
       <defs>
        <path id="DejaVuSans-4d" d="M 628 4666 
L 1569 4666 
L 2759 1491 
L 3956 4666 
L 4897 4666 
L 4897 0 
L 4281 0 
L 4281 4097 
L 3078 897 
L 2444 897 
L 1241 4097 
L 1241 0 
L 628 0 
L 628 4666 
z
" transform="scale(0.015625)"/>
        <path id="DejaVuSans-65" d="M 3597 1894 
L 3597 1613 
L 953 1613 
Q 991 1019 1311 708 
Q 1631 397 2203 397 
Q 2534 397 2845 478 
Q 3156 559 3463 722 
L 3463 178 
Q 3153 47 2828 -22 
Q 2503 -91 2169 -91 
Q 1331 -91 842 396 
Q 353 884 353 1716 
Q 353 2575 817 3079 
Q 1281 3584 2069 3584 
Q 2775 3584 3186 3129 
Q 3597 2675 3597 1894 
z
M 3022 2063 
Q 3016 2534 2758 2815 
Q 2500 3097 2075 3097 
Q 1594 3097 1305 2825 
Q 1016 2553 972 2059 
L 3022 2063 
z
" transform="scale(0.015625)"/>
        <path id="DejaVuSans-64" d="M 2906 2969 
L 2906 4863 
L 3481 4863 
L 3481 0 
L 2906 0 
L 2906 525 
Q 2725 213 2448 61 
Q 2172 -91 1784 -91 
Q 1150 -91 751 415 
Q 353 922 353 1747 
Q 353 2572 751 3078 
Q 1150 3584 1784 3584 
Q 2172 3584 2448 3432 
Q 2725 3281 2906 2969 
z
M 947 1747 
Q 947 1113 1208 752 
Q 1469 391 1925 391 
Q 2381 391 2643 752 
Q 2906 1113 2906 1747 
Q 2906 2381 2643 2742 
Q 2381 3103 1925 3103 
Q 1469 3103 1208 2742 
Q 947 2381 947 1747 
z
" transform="scale(0.015625)"/>
        <path id="DejaVuSans-69" d="M 603 3500 
L 1178 3500 
L 1178 0 
L 603 0 
L 603 3500 
z
M 603 4863 
L 1178 4863 
L 1178 4134 
L 603 4134 
L 603 4863 
z
" transform="scale(0.015625)"/>
        <path id="DejaVuSans-75" d="M 544 1381 
L 544 3500 
L 1119 3500 
L 1119 1403 
Q 1119 906 1312 657 
Q 1506 409 1894 409 
Q 2359 409 2629 706 
Q 2900 1003 2900 1516 
L 2900 3500 
L 3475 3500 
L 3475 0 
L 2900 0 
L 2900 538 
Q 2691 219 2414 64 
Q 2138 -91 1772 -91 
Q 1169 -91 856 284 
Q 544 659 544 1381 
z
M 1991 3584 
L 1991 3584 
z
" transform="scale(0.015625)"/>
        <path id="DejaVuSans-6d" d="M 3328 2828 
Q 3544 3216 3844 3400 
Q 4144 3584 4550 3584 
Q 5097 3584 5394 3201 
Q 5691 2819 5691 2113 
L 5691 0 
L 5113 0 
L 5113 2094 
Q 5113 2597 4934 2840 
Q 4756 3084 4391 3084 
Q 3944 3084 3684 2787 
Q 3425 2491 3425 1978 
L 3425 0 
L 2847 0 
L 2847 2094 
Q 2847 2600 2669 2842 
Q 2491 3084 2119 3084 
Q 1678 3084 1418 2786 
Q 1159 2488 1159 1978 
L 1159 0 
L 581 0 
L 581 3500 
L 1159 3500 
L 1159 2956 
Q 1356 3278 1631 3431 
Q 1906 3584 2284 3584 
Q 2666 3584 2933 3390 
Q 3200 3197 3328 2828 
z
" transform="scale(0.015625)"/>
       </defs>
       <use xlink:href="#DejaVuSans-4d"/>
       <use xlink:href="#DejaVuSans-65" x="86.279297"/>
       <use xlink:href="#DejaVuSans-64" x="147.802734"/>
       <use xlink:href="#DejaVuSans-69" x="211.279297"/>
       <use xlink:href="#DejaVuSans-75" x="239.0625"/>
       <use xlink:href="#DejaVuSans-6d" x="302.441406"/>
      </g>
     </g>
    </g>
    <g id="xtick_3">
     <g id="line2d_3">
      <g>
       <use xlink:href="#ma17f09f605" x="254.049468" y="238.804" style="fill: #262626; stroke: #262626"/>
      </g>
     </g>
     <g id="text_3">
      <!-- High -->
      <g style="fill: #262626" transform="translate(243.936343 253.790625) scale(0.088 -0.088)">
       <defs>
        <path id="DejaVuSans-48" d="M 628 4666 
L 1259 4666 
L 1259 2753 
L 3553 2753 
L 3553 4666 
L 4184 4666 
L 4184 0 
L 3553 0 
L 3553 2222 
L 1259 2222 
L 1259 0 
L 628 0 
L 628 4666 
z
" transform="scale(0.015625)"/>
        <path id="DejaVuSans-67" d="M 2906 1791 
Q 2906 2416 2648 2759 
Q 2391 3103 1925 3103 
Q 1463 3103 1205 2759 
Q 947 2416 947 1791 
Q 947 1169 1205 825 
Q 1463 481 1925 481 
Q 2391 481 2648 825 
Q 2906 1169 2906 1791 
z
M 3481 434 
Q 3481 -459 3084 -895 
Q 2688 -1331 1869 -1331 
Q 1566 -1331 1297 -1286 
Q 1028 -1241 775 -1147 
L 775 -588 
Q 1028 -725 1275 -790 
Q 1522 -856 1778 -856 
Q 2344 -856 2625 -561 
Q 2906 -266 2906 331 
L 2906 616 
Q 2728 306 2450 153 
Q 2172 0 1784 0 
Q 1141 0 747 490 
Q 353 981 353 1791 
Q 353 2603 747 3093 
Q 1141 3584 1784 3584 
Q 2172 3584 2450 3431 
Q 2728 3278 2906 2969 
L 2906 3500 
L 3481 3500 
L 3481 434 
z
" transform="scale(0.015625)"/>
        <path id="DejaVuSans-68" d="M 3513 2113 
L 3513 0 
L 2938 0 
L 2938 2094 
Q 2938 2591 2744 2837 
Q 2550 3084 2163 3084 
Q 1697 3084 1428 2787 
Q 1159 2491 1159 1978 
L 1159 0 
L 581 0 
L 581 4863 
L 1159 4863 
L 1159 2956 
Q 1366 3272 1645 3428 
Q 1925 3584 2291 3584 
Q 2894 3584 3203 3211 
Q 3513 2838 3513 2113 
z
" transform="scale(0.015625)"/>
       </defs>
       <use xlink:href="#DejaVuSans-48"/>
       <use xlink:href="#DejaVuSans-69" x="75.195312"/>
       <use xlink:href="#DejaVuSans-67" x="102.978516"/>
       <use xlink:href="#DejaVuSans-68" x="166.455078"/>
      </g>
     </g>
    </g>
   </g>
   <g id="matplotlib.axis_2">
    <g id="ytick_1">
     <g id="line2d_4">
      <defs>
       <path id="m86e19a5fa4" d="M 0 0 
L -4.8 0 
" style="stroke: #262626"/>
      </defs>
      <g>
       <use xlink:href="#m86e19a5fa4" x="46.068" y="238.804" style="fill: #262626; stroke: #262626"/>
      </g>
     </g>
     <g id="text_4">
      <!-- 0.5 -->
      <g style="fill: #262626" transform="translate(23.77325 242.147312) scale(0.088 -0.088)">
       <defs>
        <path id="DejaVuSans-30" d="M 2034 4250 
Q 1547 4250 1301 3770 
Q 1056 3291 1056 2328 
Q 1056 1369 1301 889 
Q 1547 409 2034 409 
Q 2525 409 2770 889 
Q 3016 1369 3016 2328 
Q 3016 3291 2770 3770 
Q 2525 4250 2034 4250 
z
M 2034 4750 
Q 2819 4750 3233 4129 
Q 3647 3509 3647 2328 
Q 3647 1150 3233 529 
Q 2819 -91 2034 -91 
Q 1250 -91 836 529 
Q 422 1150 422 2328 
Q 422 3509 836 4129 
Q 1250 4750 2034 4750 
z
" transform="scale(0.015625)"/>
        <path id="DejaVuSans-2e" d="M 684 794 
L 1344 794 
L 1344 0 
L 684 0 
L 684 794 
z
" transform="scale(0.015625)"/>
        <path id="DejaVuSans-35" d="M 691 4666 
L 3169 4666 
L 3169 4134 
L 1269 4134 
L 1269 2991 
Q 1406 3038 1543 3061 
Q 1681 3084 1819 3084 
Q 2600 3084 3056 2656 
Q 3513 2228 3513 1497 
Q 3513 744 3044 326 
Q 2575 -91 1722 -91 
Q 1428 -91 1123 -41 
Q 819 9 494 109 
L 494 744 
Q 775 591 1075 516 
Q 1375 441 1709 441 
Q 2250 441 2565 725 
Q 2881 1009 2881 1497 
Q 2881 1984 2565 2268 
Q 2250 2553 1709 2553 
Q 1456 2553 1204 2497 
Q 953 2441 691 2322 
L 691 4666 
z
" transform="scale(0.015625)"/>
       </defs>
       <use xlink:href="#DejaVuSans-30"/>
       <use xlink:href="#DejaVuSans-2e" x="63.623047"/>
       <use xlink:href="#DejaVuSans-35" x="95.410156"/>
      </g>
     </g>
    </g>
    <g id="ytick_2">
     <g id="line2d_5">
      <g>
       <use xlink:href="#m86e19a5fa4" x="46.068" y="202.931333" style="fill: #262626; stroke: #262626"/>
      </g>
     </g>
     <g id="text_5">
      <!-- 0.6 -->
      <g style="fill: #262626" transform="translate(23.77325 206.274646) scale(0.088 -0.088)">
       <defs>
        <path id="DejaVuSans-36" d="M 2113 2584 
Q 1688 2584 1439 2293 
Q 1191 2003 1191 1497 
Q 1191 994 1439 701 
Q 1688 409 2113 409 
Q 2538 409 2786 701 
Q 3034 994 3034 1497 
Q 3034 2003 2786 2293 
Q 2538 2584 2113 2584 
z
M 3366 4563 
L 3366 3988 
Q 3128 4100 2886 4159 
Q 2644 4219 2406 4219 
Q 1781 4219 1451 3797 
Q 1122 3375 1075 2522 
Q 1259 2794 1537 2939 
Q 1816 3084 2150 3084 
Q 2853 3084 3261 2657 
Q 3669 2231 3669 1497 
Q 3669 778 3244 343 
Q 2819 -91 2113 -91 
Q 1303 -91 875 529 
Q 447 1150 447 2328 
Q 447 3434 972 4092 
Q 1497 4750 2381 4750 
Q 2619 4750 2861 4703 
Q 3103 4656 3366 4563 
z
" transform="scale(0.015625)"/>
       </defs>
       <use xlink:href="#DejaVuSans-30"/>
       <use xlink:href="#DejaVuSans-2e" x="63.623047"/>
       <use xlink:href="#DejaVuSans-36" x="95.410156"/>
      </g>
     </g>
    </g>
    <g id="ytick_3">
     <g id="line2d_6">
      <g>
       <use xlink:href="#m86e19a5fa4" x="46.068" y="167.058667" style="fill: #262626; stroke: #262626"/>
      </g>
     </g>
     <g id="text_6">
      <!-- 0.7 -->
      <g style="fill: #262626" transform="translate(23.77325 170.401979) scale(0.088 -0.088)">
       <defs>
        <path id="DejaVuSans-37" d="M 525 4666 
L 3525 4666 
L 3525 4397 
L 1831 0 
L 1172 0 
L 2766 4134 
L 525 4134 
L 525 4666 
z
" transform="scale(0.015625)"/>
       </defs>
       <use xlink:href="#DejaVuSans-30"/>
       <use xlink:href="#DejaVuSans-2e" x="63.623047"/>
       <use xlink:href="#DejaVuSans-37" x="95.410156"/>
      </g>
     </g>
    </g>
    <g id="ytick_4">
     <g id="line2d_7">
      <g>
       <use xlink:href="#m86e19a5fa4" x="46.068" y="131.186" style="fill: #262626; stroke: #262626"/>
      </g>
     </g>
     <g id="text_7">
      <!-- 0.8 -->
      <g style="fill: #262626" transform="translate(23.77325 134.529312) scale(0.088 -0.088)">
       <defs>
        <path id="DejaVuSans-38" d="M 2034 2216 
Q 1584 2216 1326 1975 
Q 1069 1734 1069 1313 
Q 1069 891 1326 650 
Q 1584 409 2034 409 
Q 2484 409 2743 651 
Q 3003 894 3003 1313 
Q 3003 1734 2745 1975 
Q 2488 2216 2034 2216 
z
M 1403 2484 
Q 997 2584 770 2862 
Q 544 3141 544 3541 
Q 544 4100 942 4425 
Q 1341 4750 2034 4750 
Q 2731 4750 3128 4425 
Q 3525 4100 3525 3541 
Q 3525 3141 3298 2862 
Q 3072 2584 2669 2484 
Q 3125 2378 3379 2068 
Q 3634 1759 3634 1313 
Q 3634 634 3220 271 
Q 2806 -91 2034 -91 
Q 1263 -91 848 271 
Q 434 634 434 1313 
Q 434 1759 690 2068 
Q 947 2378 1403 2484 
z
M 1172 3481 
Q 1172 3119 1398 2916 
Q 1625 2713 2034 2713 
Q 2441 2713 2670 2916 
Q 2900 3119 2900 3481 
Q 2900 3844 2670 4047 
Q 2441 4250 2034 4250 
Q 1625 4250 1398 4047 
Q 1172 3844 1172 3481 
z
" transform="scale(0.015625)"/>
       </defs>
       <use xlink:href="#DejaVuSans-30"/>
       <use xlink:href="#DejaVuSans-2e" x="63.623047"/>
       <use xlink:href="#DejaVuSans-38" x="95.410156"/>
      </g>
     </g>
    </g>
    <g id="ytick_5">
     <g id="line2d_8">
      <g>
       <use xlink:href="#m86e19a5fa4" x="46.068" y="95.313333" style="fill: #262626; stroke: #262626"/>
      </g>
     </g>
     <g id="text_8">
      <!-- 0.9 -->
      <g style="fill: #262626" transform="translate(23.77325 98.656646) scale(0.088 -0.088)">
       <defs>
        <path id="DejaVuSans-39" d="M 703 97 
L 703 672 
Q 941 559 1184 500 
Q 1428 441 1663 441 
Q 2288 441 2617 861 
Q 2947 1281 2994 2138 
Q 2813 1869 2534 1725 
Q 2256 1581 1919 1581 
Q 1219 1581 811 2004 
Q 403 2428 403 3163 
Q 403 3881 828 4315 
Q 1253 4750 1959 4750 
Q 2769 4750 3195 4129 
Q 3622 3509 3622 2328 
Q 3622 1225 3098 567 
Q 2575 -91 1691 -91 
Q 1453 -91 1209 -44 
Q 966 3 703 97 
z
M 1959 2075 
Q 2384 2075 2632 2365 
Q 2881 2656 2881 3163 
Q 2881 3666 2632 3958 
Q 2384 4250 1959 4250 
Q 1534 4250 1286 3958 
Q 1038 3666 1038 3163 
Q 1038 2656 1286 2365 
Q 1534 2075 1959 2075 
z
" transform="scale(0.015625)"/>
       </defs>
       <use xlink:href="#DejaVuSans-30"/>
       <use xlink:href="#DejaVuSans-2e" x="63.623047"/>
       <use xlink:href="#DejaVuSans-39" x="95.410156"/>
      </g>
     </g>
    </g>
    <g id="ytick_6">
     <g id="line2d_9">
      <g>
       <use xlink:href="#m86e19a5fa4" x="46.068" y="59.440667" style="fill: #262626; stroke: #262626"/>
      </g>
     </g>
     <g id="text_9">
      <!-- 1.0 -->
      <g style="fill: #262626" transform="translate(23.77325 62.783979) scale(0.088 -0.088)">
       <defs>
        <path id="DejaVuSans-31" d="M 794 531 
L 1825 531 
L 1825 4091 
L 703 3866 
L 703 4441 
L 1819 4666 
L 2450 4666 
L 2450 531 
L 3481 531 
L 3481 0 
L 794 0 
L 794 531 
z
" transform="scale(0.015625)"/>
       </defs>
       <use xlink:href="#DejaVuSans-31"/>
       <use xlink:href="#DejaVuSans-2e" x="63.623047"/>
       <use xlink:href="#DejaVuSans-30" x="95.410156"/>
      </g>
     </g>
    </g>
    <g id="ytick_7">
     <g id="line2d_10">
      <g>
       <use xlink:href="#m86e19a5fa4" x="46.068" y="23.568" style="fill: #262626; stroke: #262626"/>
      </g>
     </g>
     <g id="text_10">
      <!-- 1.1 -->
      <g style="fill: #262626" transform="translate(23.77325 26.911313) scale(0.088 -0.088)">
       <use xlink:href="#DejaVuSans-31"/>
       <use xlink:href="#DejaVuSans-2e" x="63.623047"/>
       <use xlink:href="#DejaVuSans-31" x="95.410156"/>
      </g>
     </g>
    </g>
    <g id="text_11">
     <!-- Probability of correct response -->
     <g style="fill: #262626" transform="translate(17.77675 204.36575) rotate(-90) scale(0.096 -0.096)">
      <defs>
       <path id="DejaVuSans-50" d="M 1259 4147 
L 1259 2394 
L 2053 2394 
Q 2494 2394 2734 2622 
Q 2975 2850 2975 3272 
Q 2975 3691 2734 3919 
Q 2494 4147 2053 4147 
L 1259 4147 
z
M 628 4666 
L 2053 4666 
Q 2838 4666 3239 4311 
Q 3641 3956 3641 3272 
Q 3641 2581 3239 2228 
Q 2838 1875 2053 1875 
L 1259 1875 
L 1259 0 
L 628 0 
L 628 4666 
z
" transform="scale(0.015625)"/>
       <path id="DejaVuSans-72" d="M 2631 2963 
Q 2534 3019 2420 3045 
Q 2306 3072 2169 3072 
Q 1681 3072 1420 2755 
Q 1159 2438 1159 1844 
L 1159 0 
L 581 0 
L 581 3500 
L 1159 3500 
L 1159 2956 
Q 1341 3275 1631 3429 
Q 1922 3584 2338 3584 
Q 2397 3584 2469 3576 
Q 2541 3569 2628 3553 
L 2631 2963 
z
" transform="scale(0.015625)"/>
       <path id="DejaVuSans-62" d="M 3116 1747 
Q 3116 2381 2855 2742 
Q 2594 3103 2138 3103 
Q 1681 3103 1420 2742 
Q 1159 2381 1159 1747 
Q 1159 1113 1420 752 
Q 1681 391 2138 391 
Q 2594 391 2855 752 
Q 3116 1113 3116 1747 
z
M 1159 2969 
Q 1341 3281 1617 3432 
Q 1894 3584 2278 3584 
Q 2916 3584 3314 3078 
Q 3713 2572 3713 1747 
Q 3713 922 3314 415 
Q 2916 -91 2278 -91 
Q 1894 -91 1617 61 
Q 1341 213 1159 525 
L 1159 0 
L 581 0 
L 581 4863 
L 1159 4863 
L 1159 2969 
z
" transform="scale(0.015625)"/>
       <path id="DejaVuSans-61" d="M 2194 1759 
Q 1497 1759 1228 1600 
Q 959 1441 959 1056 
Q 959 750 1161 570 
Q 1363 391 1709 391 
Q 2188 391 2477 730 
Q 2766 1069 2766 1631 
L 2766 1759 
L 2194 1759 
z
M 3341 1997 
L 3341 0 
L 2766 0 
L 2766 531 
Q 2569 213 2275 61 
Q 1981 -91 1556 -91 
Q 1019 -91 701 211 
Q 384 513 384 1019 
Q 384 1609 779 1909 
Q 1175 2209 1959 2209 
L 2766 2209 
L 2766 2266 
Q 2766 2663 2505 2880 
Q 2244 3097 1772 3097 
Q 1472 3097 1187 3025 
Q 903 2953 641 2809 
L 641 3341 
Q 956 3463 1253 3523 
Q 1550 3584 1831 3584 
Q 2591 3584 2966 3190 
Q 3341 2797 3341 1997 
z
" transform="scale(0.015625)"/>
       <path id="DejaVuSans-6c" d="M 603 4863 
L 1178 4863 
L 1178 0 
L 603 0 
L 603 4863 
z
" transform="scale(0.015625)"/>
       <path id="DejaVuSans-74" d="M 1172 4494 
L 1172 3500 
L 2356 3500 
L 2356 3053 
L 1172 3053 
L 1172 1153 
Q 1172 725 1289 603 
Q 1406 481 1766 481 
L 2356 481 
L 2356 0 
L 1766 0 
Q 1100 0 847 248 
Q 594 497 594 1153 
L 594 3053 
L 172 3053 
L 172 3500 
L 594 3500 
L 594 4494 
L 1172 4494 
z
" transform="scale(0.015625)"/>
       <path id="DejaVuSans-79" d="M 2059 -325 
Q 1816 -950 1584 -1140 
Q 1353 -1331 966 -1331 
L 506 -1331 
L 506 -850 
L 844 -850 
Q 1081 -850 1212 -737 
Q 1344 -625 1503 -206 
L 1606 56 
L 191 3500 
L 800 3500 
L 1894 763 
L 2988 3500 
L 3597 3500 
L 2059 -325 
z
" transform="scale(0.015625)"/>
       <path id="DejaVuSans-20" transform="scale(0.015625)"/>
       <path id="DejaVuSans-66" d="M 2375 4863 
L 2375 4384 
L 1825 4384 
Q 1516 4384 1395 4259 
Q 1275 4134 1275 3809 
L 1275 3500 
L 2222 3500 
L 2222 3053 
L 1275 3053 
L 1275 0 
L 697 0 
L 697 3053 
L 147 3053 
L 147 3500 
L 697 3500 
L 697 3744 
Q 697 4328 969 4595 
Q 1241 4863 1831 4863 
L 2375 4863 
z
" transform="scale(0.015625)"/>
       <path id="DejaVuSans-63" d="M 3122 3366 
L 3122 2828 
Q 2878 2963 2633 3030 
Q 2388 3097 2138 3097 
Q 1578 3097 1268 2742 
Q 959 2388 959 1747 
Q 959 1106 1268 751 
Q 1578 397 2138 397 
Q 2388 397 2633 464 
Q 2878 531 3122 666 
L 3122 134 
Q 2881 22 2623 -34 
Q 2366 -91 2075 -91 
Q 1284 -91 818 406 
Q 353 903 353 1747 
Q 353 2603 823 3093 
Q 1294 3584 2113 3584 
Q 2378 3584 2631 3529 
Q 2884 3475 3122 3366 
z
" transform="scale(0.015625)"/>
       <path id="DejaVuSans-73" d="M 2834 3397 
L 2834 2853 
Q 2591 2978 2328 3040 
Q 2066 3103 1784 3103 
Q 1356 3103 1142 2972 
Q 928 2841 928 2578 
Q 928 2378 1081 2264 
Q 1234 2150 1697 2047 
L 1894 2003 
Q 2506 1872 2764 1633 
Q 3022 1394 3022 966 
Q 3022 478 2636 193 
Q 2250 -91 1575 -91 
Q 1294 -91 989 -36 
Q 684 19 347 128 
L 347 722 
Q 666 556 975 473 
Q 1284 391 1588 391 
Q 1994 391 2212 530 
Q 2431 669 2431 922 
Q 2431 1156 2273 1281 
Q 2116 1406 1581 1522 
L 1381 1569 
Q 847 1681 609 1914 
Q 372 2147 372 2553 
Q 372 3047 722 3315 
Q 1072 3584 1716 3584 
Q 2034 3584 2315 3537 
Q 2597 3491 2834 3397 
z
" transform="scale(0.015625)"/>
       <path id="DejaVuSans-70" d="M 1159 525 
L 1159 -1331 
L 581 -1331 
L 581 3500 
L 1159 3500 
L 1159 2969 
Q 1341 3281 1617 3432 
Q 1894 3584 2278 3584 
Q 2916 3584 3314 3078 
Q 3713 2572 3713 1747 
Q 3713 922 3314 415 
Q 2916 -91 2278 -91 
Q 1894 -91 1617 61 
Q 1341 213 1159 525 
z
M 3116 1747 
Q 3116 2381 2855 2742 
Q 2594 3103 2138 3103 
Q 1681 3103 1420 2742 
Q 1159 2381 1159 1747 
Q 1159 1113 1420 752 
Q 1681 391 2138 391 
Q 2594 391 2855 752 
Q 3116 1113 3116 1747 
z
" transform="scale(0.015625)"/>
       <path id="DejaVuSans-6e" d="M 3513 2113 
L 3513 0 
L 2938 0 
L 2938 2094 
Q 2938 2591 2744 2837 
Q 2550 3084 2163 3084 
Q 1697 3084 1428 2787 
Q 1159 2491 1159 1978 
L 1159 0 
L 581 0 
L 581 3500 
L 1159 3500 
L 1159 2956 
Q 1366 3272 1645 3428 
Q 1925 3584 2291 3584 
Q 2894 3584 3203 3211 
Q 3513 2838 3513 2113 
z
" transform="scale(0.015625)"/>
      </defs>
      <use xlink:href="#DejaVuSans-50"/>
      <use xlink:href="#DejaVuSans-72" x="58.552734"/>
      <use xlink:href="#DejaVuSans-6f" x="97.416016"/>
      <use xlink:href="#DejaVuSans-62" x="158.597656"/>
      <use xlink:href="#DejaVuSans-61" x="222.074219"/>
      <use xlink:href="#DejaVuSans-62" x="283.353516"/>
      <use xlink:href="#DejaVuSans-69" x="346.830078"/>
      <use xlink:href="#DejaVuSans-6c" x="374.613281"/>
      <use xlink:href="#DejaVuSans-69" x="402.396484"/>
      <use xlink:href="#DejaVuSans-74" x="430.179688"/>
      <use xlink:href="#DejaVuSans-79" x="469.388672"/>
      <use xlink:href="#DejaVuSans-20" x="528.568359"/>
      <use xlink:href="#DejaVuSans-6f" x="560.355469"/>
      <use xlink:href="#DejaVuSans-66" x="621.537109"/>
      <use xlink:href="#DejaVuSans-20" x="656.742188"/>
      <use xlink:href="#DejaVuSans-63" x="688.529297"/>
      <use xlink:href="#DejaVuSans-6f" x="743.509766"/>
      <use xlink:href="#DejaVuSans-72" x="804.691406"/>
      <use xlink:href="#DejaVuSans-72" x="844.054688"/>
      <use xlink:href="#DejaVuSans-65" x="882.917969"/>
      <use xlink:href="#DejaVuSans-63" x="944.441406"/>
      <use xlink:href="#DejaVuSans-74" x="999.421875"/>
      <use xlink:href="#DejaVuSans-20" x="1038.630859"/>
      <use xlink:href="#DejaVuSans-72" x="1070.417969"/>
      <use xlink:href="#DejaVuSans-65" x="1109.28125"/>
      <use xlink:href="#DejaVuSans-73" x="1170.804688"/>
      <use xlink:href="#DejaVuSans-70" x="1222.904297"/>
      <use xlink:href="#DejaVuSans-6f" x="1286.380859"/>
      <use xlink:href="#DejaVuSans-6e" x="1347.5625"/>
      <use xlink:href="#DejaVuSans-73" x="1410.941406"/>
      <use xlink:href="#DejaVuSans-65" x="1463.041016"/>
     </g>
    </g>
   </g>
   <g id="PolyCollection_1">
    <defs>
     <path id="m1a779f099b" d="M 110.522368 -150.115419 
L 70.046697 -150.115419 
L 69.390309 -150.645209 
L 68.744455 -151.174999 
L 68.110776 -151.704789 
L 67.490829 -152.234579 
L 66.886074 -152.764369 
L 66.297863 -153.29416 
L 65.727433 -153.82395 
L 65.175888 -154.35374 
L 64.6442 -154.88353 
L 64.133196 -155.41332 
L 63.643558 -155.943111 
L 63.175817 -156.472901 
L 62.730355 -157.002691 
L 62.3074 -157.532481 
L 61.907034 -158.062271 
L 61.529196 -158.592062 
L 61.173686 -159.121852 
L 60.840173 -159.651642 
L 60.528207 -160.181432 
L 60.237225 -160.711222 
L 59.96657 -161.241013 
L 59.715496 -161.770803 
L 59.483188 -162.300593 
L 59.268775 -162.830383 
L 59.071346 -163.360173 
L 58.889965 -163.889963 
L 58.723687 -164.419754 
L 58.571575 -164.949544 
L 58.432716 -165.479334 
L 58.306234 -166.009124 
L 58.191305 -166.538914 
L 58.08717 -167.068705 
L 57.993149 -167.598495 
L 57.90865 -168.128285 
L 57.833178 -168.658075 
L 57.766343 -169.187865 
L 57.707867 -169.717656 
L 57.657587 -170.247446 
L 57.615455 -170.777236 
L 57.581544 -171.307026 
L 57.556039 -171.836816 
L 57.539238 -172.366606 
L 57.531545 -172.896397 
L 57.533464 -173.426187 
L 57.545586 -173.955977 
L 57.568583 -174.485767 
L 57.603192 -175.015557 
L 57.650206 -175.545348 
L 57.710454 -176.075138 
L 57.784791 -176.604928 
L 57.874079 -177.134718 
L 57.979175 -177.664508 
L 58.100908 -178.194299 
L 58.24007 -178.724089 
L 58.397397 -179.253879 
L 58.573553 -179.783669 
L 58.769121 -180.313459 
L 58.984585 -180.84325 
L 59.220321 -181.37304 
L 59.476589 -181.90283 
L 59.753521 -182.43262 
L 60.051119 -182.96241 
L 60.369248 -183.4922 
L 60.707637 -184.021991 
L 61.065874 -184.551781 
L 61.443415 -185.081571 
L 61.839584 -185.611361 
L 62.253579 -186.141151 
L 62.684484 -186.670942 
L 63.131275 -187.200732 
L 63.592835 -187.730522 
L 64.067962 -188.260312 
L 64.555391 -188.790102 
L 65.0538 -189.319893 
L 65.561831 -189.849683 
L 66.078107 -190.379473 
L 66.601241 -190.909263 
L 67.12986 -191.439053 
L 67.662612 -191.968844 
L 68.198187 -192.498634 
L 68.735325 -193.028424 
L 69.272831 -193.558214 
L 69.809582 -194.088004 
L 70.34454 -194.617794 
L 70.876754 -195.147585 
L 71.40537 -195.677375 
L 71.92963 -196.207165 
L 72.448876 -196.736955 
L 72.962547 -197.266745 
L 73.470179 -197.796536 
L 73.971401 -198.326326 
L 74.465927 -198.856116 
L 74.953553 -199.385906 
L 75.434144 -199.915696 
L 75.907633 -200.445487 
L 76.374003 -200.975277 
L 76.833283 -201.505067 
L 77.285536 -202.034857 
L 77.730848 -202.564647 
L 102.838217 -202.564647 
L 102.838217 -202.564647 
L 103.283529 -202.034857 
L 103.735782 -201.505067 
L 104.195062 -200.975277 
L 104.661432 -200.445487 
L 105.134921 -199.915696 
L 105.615512 -199.385906 
L 106.103138 -198.856116 
L 106.597664 -198.326326 
L 107.098886 -197.796536 
L 107.606518 -197.266745 
L 108.120189 -196.736955 
L 108.639435 -196.207165 
L 109.163695 -195.677375 
L 109.692311 -195.147585 
L 110.224525 -194.617794 
L 110.759483 -194.088004 
L 111.296234 -193.558214 
L 111.83374 -193.028424 
L 112.370878 -192.498634 
L 112.906453 -191.968844 
L 113.439205 -191.439053 
L 113.967824 -190.909263 
L 114.490958 -190.379473 
L 115.007234 -189.849683 
L 115.515265 -189.319893 
L 116.013674 -188.790102 
L 116.501103 -188.260312 
L 116.97623 -187.730522 
L 117.437789 -187.200732 
L 117.884581 -186.670942 
L 118.315486 -186.141151 
L 118.729481 -185.611361 
L 119.12565 -185.081571 
L 119.503191 -184.551781 
L 119.861428 -184.021991 
L 120.199817 -183.4922 
L 120.517946 -182.96241 
L 120.815544 -182.43262 
L 121.092476 -181.90283 
L 121.348744 -181.37304 
L 121.58448 -180.84325 
L 121.799944 -180.313459 
L 121.995512 -179.783669 
L 122.171668 -179.253879 
L 122.328995 -178.724089 
L 122.468157 -178.194299 
L 122.58989 -177.664508 
L 122.694986 -177.134718 
L 122.784274 -176.604928 
L 122.858611 -176.075138 
L 122.918859 -175.545348 
L 122.965873 -175.015557 
L 123.000482 -174.485767 
L 123.023479 -173.955977 
L 123.035601 -173.426187 
L 123.037519 -172.896397 
L 123.029827 -172.366606 
L 123.013026 -171.836816 
L 122.987521 -171.307026 
L 122.95361 -170.777236 
L 122.911478 -170.247446 
L 122.861198 -169.717656 
L 122.802722 -169.187865 
L 122.735887 -168.658075 
L 122.660415 -168.128285 
L 122.575916 -167.598495 
L 122.481895 -167.068705 
L 122.37776 -166.538914 
L 122.262831 -166.009124 
L 122.136349 -165.479334 
L 121.99749 -164.949544 
L 121.845378 -164.419754 
L 121.6791 -163.889963 
L 121.497719 -163.360173 
L 121.30029 -162.830383 
L 121.085877 -162.300593 
L 120.853569 -161.770803 
L 120.602495 -161.241013 
L 120.33184 -160.711222 
L 120.040858 -160.181432 
L 119.728892 -159.651642 
L 119.395379 -159.121852 
L 119.039869 -158.592062 
L 118.662031 -158.062271 
L 118.261665 -157.532481 
L 117.83871 -157.002691 
L 117.393248 -156.472901 
L 116.925507 -155.943111 
L 116.435869 -155.41332 
L 115.924865 -154.88353 
L 115.393177 -154.35374 
L 114.841632 -153.82395 
L 114.271201 -153.29416 
L 113.682991 -152.764369 
L 113.078236 -152.234579 
L 112.458289 -151.704789 
L 111.82461 -151.174999 
L 111.178756 -150.645209 
L 110.522368 -150.115419 
z
" style="stroke: #2f2f2f"/>
    </defs>
    <g clip-path="url(#p3f4f53ff99)">
     <use xlink:href="#m1a779f099b" x="0" y="288" style="fill: #58b2a3; stroke: #2f2f2f"/>
    </g>
   </g>
   <g id="PolyCollection_2">
    <defs>
     <path id="m6713074240" d="M 177.982312 -131.367379 
L 166.351688 -131.367379 
L 166.326089 -132.064713 
L 166.31104 -132.762048 
L 166.305702 -133.459382 
L 166.309052 -134.156716 
L 166.31988 -134.85405 
L 166.336799 -135.551384 
L 166.35825 -136.248718 
L 166.382509 -136.946053 
L 166.407703 -137.643387 
L 166.431818 -138.340721 
L 166.452718 -139.038055 
L 166.468162 -139.735389 
L 166.475819 -140.432723 
L 166.473292 -141.130058 
L 166.458138 -141.827392 
L 166.427888 -142.524726 
L 166.380078 -143.22206 
L 166.312263 -143.919394 
L 166.222052 -144.616728 
L 166.107127 -145.314063 
L 165.965269 -146.011397 
L 165.794387 -146.708731 
L 165.592539 -147.406065 
L 165.35796 -148.103399 
L 165.089083 -148.800733 
L 164.784563 -149.498067 
L 164.443298 -150.195402 
L 164.064448 -150.892736 
L 163.647456 -151.59007 
L 163.192058 -152.287404 
L 162.698299 -152.984738 
L 162.166547 -153.682072 
L 161.597491 -154.379407 
L 160.992156 -155.076741 
L 160.351895 -155.774075 
L 159.678391 -156.471409 
L 158.973647 -157.168743 
L 158.23998 -157.866077 
L 157.480001 -158.563412 
L 156.696601 -159.260746 
L 155.892929 -159.95808 
L 155.072364 -160.655414 
L 154.23849 -161.352748 
L 153.395059 -162.050082 
L 152.545963 -162.747417 
L 151.695194 -163.444751 
L 150.846805 -164.142085 
L 150.004874 -164.839419 
L 149.17346 -165.536753 
L 148.356568 -166.234087 
L 147.558104 -166.931422 
L 146.78184 -167.628756 
L 146.031381 -168.32609 
L 145.310125 -169.023424 
L 144.621237 -169.720758 
L 143.96762 -170.418092 
L 143.351895 -171.115426 
L 142.776376 -171.812761 
L 142.243065 -172.510095 
L 141.753636 -173.207429 
L 141.309432 -173.904763 
L 140.91147 -174.602097 
L 140.560439 -175.299431 
L 140.25672 -175.996766 
L 140.000391 -176.6941 
L 139.791251 -177.391434 
L 139.628839 -178.088768 
L 139.51246 -178.786102 
L 139.441212 -179.483436 
L 139.414013 -180.180771 
L 139.42963 -180.878105 
L 139.486709 -181.575439 
L 139.583806 -182.272773 
L 139.719413 -182.970107 
L 139.891984 -183.667441 
L 140.099962 -184.364776 
L 140.341798 -185.06211 
L 140.615973 -185.759444 
L 140.921012 -186.456778 
L 141.255495 -187.154112 
L 141.618067 -187.851446 
L 142.007446 -188.548781 
L 142.42242 -189.246115 
L 142.861848 -189.943449 
L 143.324655 -190.640783 
L 143.809826 -191.338117 
L 144.316394 -192.035451 
L 144.843432 -192.732785 
L 145.390036 -193.43012 
L 145.955315 -194.127454 
L 146.538374 -194.824788 
L 147.138304 -195.522122 
L 147.754162 -196.219456 
L 148.384966 -196.91679 
L 149.029678 -197.614125 
L 149.687196 -198.311459 
L 150.356349 -199.008793 
L 151.035891 -199.706127 
L 151.724494 -200.403461 
L 192.609506 -200.403461 
L 192.609506 -200.403461 
L 193.298109 -199.706127 
L 193.977651 -199.008793 
L 194.646804 -198.311459 
L 195.304322 -197.614125 
L 195.949034 -196.91679 
L 196.579838 -196.219456 
L 197.195696 -195.522122 
L 197.795626 -194.824788 
L 198.378685 -194.127454 
L 198.943964 -193.43012 
L 199.490568 -192.732785 
L 200.017606 -192.035451 
L 200.524174 -191.338117 
L 201.009345 -190.640783 
L 201.472152 -189.943449 
L 201.91158 -189.246115 
L 202.326554 -188.548781 
L 202.715933 -187.851446 
L 203.078505 -187.154112 
L 203.412988 -186.456778 
L 203.718027 -185.759444 
L 203.992202 -185.06211 
L 204.234038 -184.364776 
L 204.442016 -183.667441 
L 204.614587 -182.970107 
L 204.750194 -182.272773 
L 204.847291 -181.575439 
L 204.90437 -180.878105 
L 204.919987 -180.180771 
L 204.892788 -179.483436 
L 204.82154 -178.786102 
L 204.705161 -178.088768 
L 204.542749 -177.391434 
L 204.333609 -176.6941 
L 204.07728 -175.996766 
L 203.773561 -175.299431 
L 203.42253 -174.602097 
L 203.024568 -173.904763 
L 202.580364 -173.207429 
L 202.090935 -172.510095 
L 201.557624 -171.812761 
L 200.982105 -171.115426 
L 200.36638 -170.418092 
L 199.712763 -169.720758 
L 199.023875 -169.023424 
L 198.302619 -168.32609 
L 197.55216 -167.628756 
L 196.775896 -166.931422 
L 195.977432 -166.234087 
L 195.16054 -165.536753 
L 194.329126 -164.839419 
L 193.487195 -164.142085 
L 192.638806 -163.444751 
L 191.788037 -162.747417 
L 190.938941 -162.050082 
L 190.09551 -161.352748 
L 189.261636 -160.655414 
L 188.441071 -159.95808 
L 187.637399 -159.260746 
L 186.853999 -158.563412 
L 186.09402 -157.866077 
L 185.360353 -157.168743 
L 184.655609 -156.471409 
L 183.982105 -155.774075 
L 183.341844 -155.076741 
L 182.736509 -154.379407 
L 182.167453 -153.682072 
L 181.635701 -152.984738 
L 181.141942 -152.287404 
L 180.686544 -151.59007 
L 180.269552 -150.892736 
L 179.890702 -150.195402 
L 179.549437 -149.498067 
L 179.244917 -148.800733 
L 178.97604 -148.103399 
L 178.741461 -147.406065 
L 178.539613 -146.708731 
L 178.368731 -146.011397 
L 178.226873 -145.314063 
L 178.111948 -144.616728 
L 178.021737 -143.919394 
L 177.953922 -143.22206 
L 177.906112 -142.524726 
L 177.875862 -141.827392 
L 177.860708 -141.130058 
L 177.858181 -140.432723 
L 177.865838 -139.735389 
L 177.881282 -139.038055 
L 177.902182 -138.340721 
L 177.926297 -137.643387 
L 177.951491 -136.946053 
L 177.97575 -136.248718 
L 177.997201 -135.551384 
L 178.01412 -134.85405 
L 178.024948 -134.156716 
L 178.028298 -133.459382 
L 178.02296 -132.762048 
L 178.007911 -132.064713 
L 177.982312 -131.367379 
z
" style="stroke: #2f2f2f"/>
    </defs>
    <g clip-path="url(#p3f4f53ff99)">
     <use xlink:href="#m6713074240" x="0" y="288" style="fill: #437695; stroke: #2f2f2f"/>
    </g>
   </g>
   <g id="PolyCollection_3">
    <defs>
     <path id="m4e1478a868" d="M 279.084017 -153.670519 
L 229.014919 -153.670519 
L 228.736622 -154.110969 
L 228.476619 -154.551418 
L 228.234812 -154.991868 
L 228.01101 -155.432317 
L 227.80493 -155.872767 
L 227.616202 -156.313217 
L 227.444366 -156.753666 
L 227.288886 -157.194116 
L 227.149146 -157.634565 
L 227.02446 -158.075015 
L 226.914078 -158.515465 
L 226.817192 -158.955914 
L 226.732941 -159.396364 
L 226.66042 -159.836814 
L 226.598686 -160.277263 
L 226.546768 -160.717713 
L 226.503671 -161.158162 
L 226.468386 -161.598612 
L 226.439899 -162.039062 
L 226.417191 -162.479511 
L 226.399256 -162.919961 
L 226.385098 -163.36041 
L 226.373745 -163.80086 
L 226.36425 -164.24131 
L 226.355699 -164.681759 
L 226.347215 -165.122209 
L 226.337966 -165.562659 
L 226.327164 -166.003108 
L 226.314075 -166.443558 
L 226.298015 -166.884007 
L 226.278358 -167.324457 
L 226.254536 -167.764907 
L 226.226039 -168.205356 
L 226.192419 -168.645806 
L 226.153288 -169.086256 
L 226.108319 -169.526705 
L 226.057244 -169.967155 
L 225.999854 -170.407604 
L 225.935999 -170.848054 
L 225.865583 -171.288504 
L 225.788566 -171.728953 
L 225.704959 -172.169403 
L 225.614822 -172.609852 
L 225.518264 -173.050302 
L 225.415437 -173.490752 
L 225.306538 -173.931201 
L 225.191799 -174.371651 
L 225.071496 -174.812101 
L 224.945934 -175.25255 
L 224.815456 -175.693 
L 224.680432 -176.133449 
L 224.541264 -176.573899 
L 224.398381 -177.014349 
L 224.252235 -177.454798 
L 224.103308 -177.895248 
L 223.952101 -178.335697 
L 223.799139 -178.776147 
L 223.644971 -179.216597 
L 223.490165 -179.657046 
L 223.33531 -180.097496 
L 223.181016 -180.537946 
L 223.027912 -180.978395 
L 222.876648 -181.418845 
L 222.727893 -181.859294 
L 222.582334 -182.299744 
L 222.440676 -182.740194 
L 222.303644 -183.180643 
L 222.171977 -183.621093 
L 222.046432 -184.061542 
L 221.927778 -184.501992 
L 221.816801 -184.942442 
L 221.714295 -185.382891 
L 221.621065 -185.823341 
L 221.537922 -186.263791 
L 221.465683 -186.70424 
L 221.405163 -187.14469 
L 221.357179 -187.585139 
L 221.32254 -188.025589 
L 221.302045 -188.466039 
L 221.296481 -188.906488 
L 221.306615 -189.346938 
L 221.333194 -189.787388 
L 221.376935 -190.227837 
L 221.438525 -190.668287 
L 221.518611 -191.108736 
L 221.617801 -191.549186 
L 221.736654 -191.989636 
L 221.875677 -192.430085 
L 222.035322 -192.870535 
L 222.215977 -193.310984 
L 222.417968 -193.751434 
L 222.64155 -194.191884 
L 222.886904 -194.632333 
L 223.154136 -195.072783 
L 223.443275 -195.513233 
L 223.754264 -195.953682 
L 224.086969 -196.394132 
L 224.441167 -196.834581 
L 224.816553 -197.275031 
L 283.282382 -197.275031 
L 283.282382 -197.275031 
L 283.657768 -196.834581 
L 284.011966 -196.394132 
L 284.344671 -195.953682 
L 284.65566 -195.513233 
L 284.944799 -195.072783 
L 285.212031 -194.632333 
L 285.457385 -194.191884 
L 285.680967 -193.751434 
L 285.882958 -193.310984 
L 286.063613 -192.870535 
L 286.223258 -192.430085 
L 286.362281 -191.989636 
L 286.481134 -191.549186 
L 286.580324 -191.108736 
L 286.66041 -190.668287 
L 286.722 -190.227837 
L 286.765741 -189.787388 
L 286.79232 -189.346938 
L 286.802455 -188.906488 
L 286.79689 -188.466039 
L 286.776395 -188.025589 
L 286.741756 -187.585139 
L 286.693772 -187.14469 
L 286.633252 -186.70424 
L 286.561013 -186.263791 
L 286.47787 -185.823341 
L 286.38464 -185.382891 
L 286.282134 -184.942442 
L 286.171157 -184.501992 
L 286.052504 -184.061542 
L 285.926958 -183.621093 
L 285.795291 -183.180643 
L 285.658259 -182.740194 
L 285.516601 -182.299744 
L 285.371042 -181.859294 
L 285.222287 -181.418845 
L 285.071023 -180.978395 
L 284.917919 -180.537946 
L 284.763625 -180.097496 
L 284.60877 -179.657046 
L 284.453964 -179.216597 
L 284.299796 -178.776147 
L 284.146834 -178.335697 
L 283.995627 -177.895248 
L 283.8467 -177.454798 
L 283.700555 -177.014349 
L 283.557671 -176.573899 
L 283.418503 -176.133449 
L 283.283479 -175.693 
L 283.153001 -175.25255 
L 283.027439 -174.812101 
L 282.907136 -174.371651 
L 282.792397 -173.931201 
L 282.683498 -173.490752 
L 282.580671 -173.050302 
L 282.484113 -172.609852 
L 282.393976 -172.169403 
L 282.310369 -171.728953 
L 282.233352 -171.288504 
L 282.162936 -170.848054 
L 282.099081 -170.407604 
L 282.041691 -169.967155 
L 281.990616 -169.526705 
L 281.945647 -169.086256 
L 281.906516 -168.645806 
L 281.872896 -168.205356 
L 281.8444 -167.764907 
L 281.820577 -167.324457 
L 281.80092 -166.884007 
L 281.78486 -166.443558 
L 281.771771 -166.003108 
L 281.760969 -165.562659 
L 281.75172 -165.122209 
L 281.743237 -164.681759 
L 281.734685 -164.24131 
L 281.72519 -163.80086 
L 281.713837 -163.36041 
L 281.699679 -162.919961 
L 281.681744 -162.479511 
L 281.659037 -162.039062 
L 281.630549 -161.598612 
L 281.595264 -161.158162 
L 281.552167 -160.717713 
L 281.500249 -160.277263 
L 281.438516 -159.836814 
L 281.365994 -159.396364 
L 281.281743 -158.955914 
L 281.184857 -158.515465 
L 281.074475 -158.075015 
L 280.94979 -157.634565 
L 280.810049 -157.194116 
L 280.654569 -156.753666 
L 280.482733 -156.313217 
L 280.294005 -155.872767 
L 280.087925 -155.432317 
L 279.864123 -154.991868 
L 279.622316 -154.551418 
L 279.362313 -154.110969 
L 279.084017 -153.670519 
z
" style="stroke: #2f2f2f"/>
    </defs>
    <g clip-path="url(#p3f4f53ff99)">
     <use xlink:href="#m4e1478a868" x="0" y="288" style="fill: #423b63; stroke: #2f2f2f"/>
    </g>
   </g>
   <g id="line2d_11">
    <path d="M 90.284532 137.884581 
L 90.284532 85.435353 
" clip-path="url(#p3f4f53ff99)" style="fill: none; stroke: #2f2f2f; stroke-width: 1.5; stroke-linecap: round"/>
   </g>
   <g id="line2d_12">
    <path d="M 90.284532 128.66862 
L 90.284532 101.970117 
" clip-path="url(#p3f4f53ff99)" style="fill: none; stroke: #2f2f2f; stroke-width: 4.5; stroke-linecap: round"/>
   </g>
   <g id="line2d_13">
    <path d="M 90.284532 114.221586 
" clip-path="url(#p3f4f53ff99)" style="fill: none; stroke: #2f2f2f; stroke-width: 1.2; stroke-linecap: round"/>
    <defs>
     <path id="mba8fc7874d" d="M 1.875 0 
L -1.875 -0 
" style="stroke: #ffffff; stroke-width: 0.9"/>
    </defs>
    <g clip-path="url(#p3f4f53ff99)">
     <use xlink:href="#mba8fc7874d" x="90.284532" y="114.221586" style="fill: #ffffff; stroke: #ffffff; stroke-width: 0.9"/>
    </g>
   </g>
   <g id="line2d_14">
    <path d="M 172.167 118.785572 
L 172.167 87.596539 
" clip-path="url(#p3f4f53ff99)" style="fill: none; stroke: #2f2f2f; stroke-width: 1.5; stroke-linecap: round"/>
   </g>
   <g id="line2d_15">
    <path d="M 172.167 115.988713 
L 172.167 97.433885 
" clip-path="url(#p3f4f53ff99)" style="fill: none; stroke: #2f2f2f; stroke-width: 4.5; stroke-linecap: round"/>
   </g>
   <g id="line2d_16">
    <path d="M 172.167 113.20332 
" clip-path="url(#p3f4f53ff99)" style="fill: none; stroke: #2f2f2f; stroke-width: 1.2; stroke-linecap: round"/>
    <g clip-path="url(#p3f4f53ff99)">
     <use xlink:href="#mba8fc7874d" x="172.167" y="113.20332" style="fill: #ffffff; stroke: #ffffff; stroke-width: 0.9"/>
    </g>
   </g>
   <g id="line2d_17">
    <path d="M 254.049468 134.329481 
L 254.049468 90.724969 
" clip-path="url(#p3f4f53ff99)" style="fill: none; stroke: #2f2f2f; stroke-width: 1.5; stroke-linecap: round"/>
   </g>
   <g id="line2d_18">
    <path d="M 254.049468 132.071745 
L 254.049468 91.800031 
" clip-path="url(#p3f4f53ff99)" style="fill: none; stroke: #2f2f2f; stroke-width: 4.5; stroke-linecap: round"/>
   </g>
   <g id="line2d_19">
    <path d="M 254.049468 112.324205 
" clip-path="url(#p3f4f53ff99)" style="fill: none; stroke: #2f2f2f; stroke-width: 1.2; stroke-linecap: round"/>
    <g clip-path="url(#p3f4f53ff99)">
     <use xlink:href="#mba8fc7874d" x="254.049468" y="112.324205" style="fill: #ffffff; stroke: #ffffff; stroke-width: 0.9"/>
    </g>
   </g>
   <g id="line2d_20">
    <path d="M 90.284532 81.848086 
L 90.284532 73.440105 
L 172.167 73.440105 
L 172.167 81.848086 
" clip-path="url(#p3f4f53ff99)" style="fill: none; stroke: #000000; stroke-linecap: round"/>
   </g>
   <g id="line2d_21">
    <path d="M 172.167 67.499019 
L 172.167 58.732311 
L 254.049468 58.732311 
L 254.049468 67.499019 
" clip-path="url(#p3f4f53ff99)" style="fill: none; stroke: #000000; stroke-linecap: round"/>
   </g>
   <g id="line2d_22">
    <path d="M 90.284532 53.149953 
L 90.284532 44.024518 
L 254.049468 44.024518 
L 254.049468 53.149953 
" clip-path="url(#p3f4f53ff99)" style="fill: none; stroke: #000000; stroke-linecap: round"/>
   </g>
   <g id="patch_3">
    <path d="M 46.068 238.804 
L 46.068 23.568 
" style="fill: none; stroke: #262626; stroke-linejoin: miter; stroke-linecap: square"/>
   </g>
   <g id="patch_4">
    <path d="M 298.266 238.804 
L 298.266 23.568 
" style="fill: none; stroke: #262626; stroke-linejoin: miter; stroke-linecap: square"/>
   </g>
   <g id="patch_5">
    <path d="M 46.068 238.804 
L 298.266 238.804 
" style="fill: none; stroke: #262626; stroke-linejoin: miter; stroke-linecap: square"/>
   </g>
   <g id="patch_6">
    <path d="M 46.068 23.568 
L 298.266 23.568 
" style="fill: none; stroke: #262626; stroke-linejoin: miter; stroke-linecap: square"/>
   </g>
   <g id="text_12">
    <!-- ns -->
    <g transform="translate(125.683266 71.443605) scale(0.096 -0.096)">
     <use xlink:href="#DejaVuSans-6e"/>
     <use xlink:href="#DejaVuSans-73" x="63.378906"/>
    </g>
   </g>
   <g id="text_13">
    <!-- ns -->
    <g transform="translate(207.565734 56.735811) scale(0.096 -0.096)">
     <use xlink:href="#DejaVuSans-6e"/>
     <use xlink:href="#DejaVuSans-73" x="63.378906"/>
    </g>
   </g>
   <g id="text_14">
    <!-- ns -->
    <g transform="translate(166.6245 42.028018) scale(0.096 -0.096)">
     <use xlink:href="#DejaVuSans-6e"/>
     <use xlink:href="#DejaVuSans-73" x="63.378906"/>
    </g>
   </g>
   <g id="text_15">
    <!-- Accuracy -->
    <g style="fill: #262626" transform="translate(150.252 17.568) scale(0.096 -0.096)">
     <defs>
      <path id="DejaVuSans-41" d="M 2188 4044 
L 1331 1722 
L 3047 1722 
L 2188 4044 
z
M 1831 4666 
L 2547 4666 
L 4325 0 
L 3669 0 
L 3244 1197 
L 1141 1197 
L 716 0 
L 50 0 
L 1831 4666 
z
" transform="scale(0.015625)"/>
     </defs>
     <use xlink:href="#DejaVuSans-41"/>
     <use xlink:href="#DejaVuSans-63" x="66.658203"/>
     <use xlink:href="#DejaVuSans-63" x="121.638672"/>
     <use xlink:href="#DejaVuSans-75" x="176.619141"/>
     <use xlink:href="#DejaVuSans-72" x="239.998047"/>
     <use xlink:href="#DejaVuSans-61" x="281.111328"/>
     <use xlink:href="#DejaVuSans-63" x="342.390625"/>
     <use xlink:href="#DejaVuSans-79" x="397.371094"/>
    </g>
   </g>
  </g>
  <g id="axes_2">
   <g id="patch_7">
    <path d="M 313.434 238.804 
L 565.632 238.804 
L 565.632 23.568 
L 313.434 23.568 
L 313.434 238.804 
z
" style="fill: none"/>
   </g>
   <g id="matplotlib.axis_3">
    <g id="xtick_4">
     <g id="line2d_23">
      <g>
       <use xlink:href="#ma17f09f605" x="357.650532" y="238.804" style="fill: #262626; stroke: #262626"/>
      </g>
     </g>
     <g id="text_16">
      <!-- Low -->
      <g style="fill: #262626" transform="translate(348.985282 253.790625) scale(0.088 -0.088)">
       <use xlink:href="#DejaVuSans-4c"/>
       <use xlink:href="#DejaVuSans-6f" x="53.962891"/>
       <use xlink:href="#DejaVuSans-77" x="115.144531"/>
      </g>
     </g>
    </g>
    <g id="xtick_5">
     <g id="line2d_24">
      <g>
       <use xlink:href="#ma17f09f605" x="439.533" y="238.804" style="fill: #262626; stroke: #262626"/>
      </g>
     </g>
     <g id="text_17">
      <!-- Medium -->
      <g style="fill: #262626" transform="translate(421.939188 253.790625) scale(0.088 -0.088)">
       <use xlink:href="#DejaVuSans-4d"/>
       <use xlink:href="#DejaVuSans-65" x="86.279297"/>
       <use xlink:href="#DejaVuSans-64" x="147.802734"/>
       <use xlink:href="#DejaVuSans-69" x="211.279297"/>
       <use xlink:href="#DejaVuSans-75" x="239.0625"/>
       <use xlink:href="#DejaVuSans-6d" x="302.441406"/>
      </g>
     </g>
    </g>
    <g id="xtick_6">
     <g id="line2d_25">
      <g>
       <use xlink:href="#ma17f09f605" x="521.415468" y="238.804" style="fill: #262626; stroke: #262626"/>
      </g>
     </g>
     <g id="text_18">
      <!-- High -->
      <g style="fill: #262626" transform="translate(511.302343 253.790625) scale(0.088 -0.088)">
       <use xlink:href="#DejaVuSans-48"/>
       <use xlink:href="#DejaVuSans-69" x="75.195312"/>
       <use xlink:href="#DejaVuSans-67" x="102.978516"/>
       <use xlink:href="#DejaVuSans-68" x="166.455078"/>
      </g>
     </g>
    </g>
   </g>
   <g id="matplotlib.axis_4">
    <g id="ytick_8">
     <g id="line2d_26">
      <g>
       <use xlink:href="#m86e19a5fa4" x="313.434" y="238.804" style="fill: #262626; stroke: #262626"/>
      </g>
     </g>
    </g>
    <g id="ytick_9">
     <g id="line2d_27">
      <g>
       <use xlink:href="#m86e19a5fa4" x="313.434" y="202.931333" style="fill: #262626; stroke: #262626"/>
      </g>
     </g>
    </g>
    <g id="ytick_10">
     <g id="line2d_28">
      <g>
       <use xlink:href="#m86e19a5fa4" x="313.434" y="167.058667" style="fill: #262626; stroke: #262626"/>
      </g>
     </g>
    </g>
    <g id="ytick_11">
     <g id="line2d_29">
      <g>
       <use xlink:href="#m86e19a5fa4" x="313.434" y="131.186" style="fill: #262626; stroke: #262626"/>
      </g>
     </g>
    </g>
    <g id="ytick_12">
     <g id="line2d_30">
      <g>
       <use xlink:href="#m86e19a5fa4" x="313.434" y="95.313333" style="fill: #262626; stroke: #262626"/>
      </g>
     </g>
    </g>
    <g id="ytick_13">
     <g id="line2d_31">
      <g>
       <use xlink:href="#m86e19a5fa4" x="313.434" y="59.440667" style="fill: #262626; stroke: #262626"/>
      </g>
     </g>
    </g>
    <g id="ytick_14">
     <g id="line2d_32">
      <g>
       <use xlink:href="#m86e19a5fa4" x="313.434" y="23.568" style="fill: #262626; stroke: #262626"/>
      </g>
     </g>
    </g>
   </g>
   <g id="PolyCollection_4">
    <defs>
     <path id="mb689410550" d="M 376.610483 -43.322641 
L 338.690582 -43.322641 
L 337.933833 -44.569362 
L 337.176715 -45.816082 
L 336.421463 -47.062803 
L 335.670398 -48.309523 
L 334.925911 -49.556244 
L 334.190449 -50.802964 
L 333.466504 -52.049685 
L 332.756598 -53.296405 
L 332.063261 -54.543126 
L 331.389022 -55.789846 
L 330.736385 -57.036567 
L 330.107815 -58.283287 
L 329.505714 -59.530008 
L 328.932408 -60.776728 
L 328.390126 -62.023449 
L 327.880978 -63.270169 
L 327.406945 -64.51689 
L 326.969855 -65.76361 
L 326.571367 -67.010331 
L 326.212964 -68.257051 
L 325.89593 -69.503772 
L 325.621344 -70.750492 
L 325.390069 -71.997213 
L 325.202742 -73.243933 
L 325.059771 -74.490654 
L 324.961329 -75.737374 
L 324.907353 -76.984095 
L 324.897545 -78.230815 
L 324.931374 -79.477535 
L 325.00808 -80.724256 
L 325.126681 -81.970976 
L 325.285985 -83.217697 
L 325.484596 -84.464417 
L 325.720929 -85.711138 
L 325.993222 -86.957858 
L 326.299554 -88.204579 
L 326.637857 -89.451299 
L 327.005938 -90.69802 
L 327.401494 -91.94474 
L 327.822129 -93.191461 
L 328.265378 -94.438181 
L 328.728718 -95.684902 
L 329.209597 -96.931622 
L 329.705442 -98.178343 
L 330.213684 -99.425063 
L 330.731775 -100.671784 
L 331.257203 -101.918504 
L 331.787509 -103.165225 
L 332.320301 -104.411945 
L 332.853273 -105.658666 
L 333.384213 -106.905386 
L 333.911018 -108.152107 
L 334.431706 -109.398827 
L 334.944422 -110.645548 
L 335.447453 -111.892268 
L 335.93923 -113.138988 
L 336.418339 -114.385709 
L 336.883522 -115.632429 
L 337.333685 -116.87915 
L 337.767899 -118.12587 
L 338.185403 -119.372591 
L 338.585603 -120.619311 
L 338.968072 -121.866032 
L 339.33255 -123.112752 
L 339.678939 -124.359473 
L 340.007301 -125.606193 
L 340.317852 -126.852914 
L 340.610955 -128.099634 
L 340.887118 -129.346355 
L 341.146978 -130.593075 
L 341.3913 -131.839796 
L 341.620962 -133.086516 
L 341.836948 -134.333237 
L 342.040334 -135.579957 
L 342.232278 -136.826678 
L 342.414005 -138.073398 
L 342.5868 -139.320119 
L 342.751988 -140.566839 
L 342.910922 -141.81356 
L 343.064975 -143.06028 
L 343.215518 -144.307001 
L 343.363913 -145.553721 
L 343.511497 -146.800442 
L 343.659569 -148.047162 
L 343.809379 -149.293882 
L 343.962116 -150.540603 
L 344.118898 -151.787323 
L 344.280758 -153.034044 
L 344.448642 -154.280764 
L 344.623395 -155.527485 
L 344.805756 -156.774205 
L 344.996353 -158.020926 
L 345.195701 -159.267646 
L 345.404195 -160.514367 
L 345.62211 -161.761087 
L 345.8496 -163.007808 
L 346.086701 -164.254528 
L 346.333333 -165.501249 
L 346.5893 -166.747969 
L 368.711765 -166.747969 
L 368.711765 -166.747969 
L 368.967732 -165.501249 
L 369.214364 -164.254528 
L 369.451465 -163.007808 
L 369.678955 -161.761087 
L 369.89687 -160.514367 
L 370.105363 -159.267646 
L 370.304712 -158.020926 
L 370.495309 -156.774205 
L 370.67767 -155.527485 
L 370.852423 -154.280764 
L 371.020306 -153.034044 
L 371.182167 -151.787323 
L 371.338949 -150.540603 
L 371.491686 -149.293882 
L 371.641496 -148.047162 
L 371.789568 -146.800442 
L 371.937152 -145.553721 
L 372.085547 -144.307001 
L 372.23609 -143.06028 
L 372.390143 -141.81356 
L 372.549077 -140.566839 
L 372.714265 -139.320119 
L 372.88706 -138.073398 
L 373.068787 -136.826678 
L 373.260731 -135.579957 
L 373.464117 -134.333237 
L 373.680102 -133.086516 
L 373.909765 -131.839796 
L 374.154087 -130.593075 
L 374.413947 -129.346355 
L 374.69011 -128.099634 
L 374.983213 -126.852914 
L 375.293764 -125.606193 
L 375.622126 -124.359473 
L 375.968515 -123.112752 
L 376.332993 -121.866032 
L 376.715462 -120.619311 
L 377.115662 -119.372591 
L 377.533166 -118.12587 
L 377.96738 -116.87915 
L 378.417543 -115.632429 
L 378.882726 -114.385709 
L 379.361835 -113.138988 
L 379.853612 -111.892268 
L 380.356643 -110.645548 
L 380.869359 -109.398827 
L 381.390046 -108.152107 
L 381.916852 -106.905386 
L 382.447792 -105.658666 
L 382.980764 -104.411945 
L 383.513556 -103.165225 
L 384.043862 -101.918504 
L 384.56929 -100.671784 
L 385.087381 -99.425063 
L 385.595623 -98.178343 
L 386.091468 -96.931622 
L 386.572346 -95.684902 
L 387.035687 -94.438181 
L 387.478936 -93.191461 
L 387.899571 -91.94474 
L 388.295127 -90.69802 
L 388.663208 -89.451299 
L 389.001511 -88.204579 
L 389.307843 -86.957858 
L 389.580136 -85.711138 
L 389.816469 -84.464417 
L 390.01508 -83.217697 
L 390.174384 -81.970976 
L 390.292985 -80.724256 
L 390.369691 -79.477535 
L 390.403519 -78.230815 
L 390.393712 -76.984095 
L 390.339736 -75.737374 
L 390.241294 -74.490654 
L 390.098323 -73.243933 
L 389.910996 -71.997213 
L 389.679721 -70.750492 
L 389.405135 -69.503772 
L 389.088101 -68.257051 
L 388.729698 -67.010331 
L 388.33121 -65.76361 
L 387.89412 -64.51689 
L 387.420086 -63.270169 
L 386.910939 -62.023449 
L 386.368657 -60.776728 
L 385.795351 -59.530008 
L 385.19325 -58.283287 
L 384.564679 -57.036567 
L 383.912043 -55.789846 
L 383.237804 -54.543126 
L 382.544467 -53.296405 
L 381.83456 -52.049685 
L 381.110616 -50.802964 
L 380.375154 -49.556244 
L 379.630667 -48.309523 
L 378.879602 -47.062803 
L 378.12435 -45.816082 
L 377.367232 -44.569362 
L 376.610483 -43.322641 
z
" style="stroke: #2f2f2f"/>
    </defs>
    <g clip-path="url(#p8c2ea30eb0)">
     <use xlink:href="#mb689410550" x="0" y="288" style="fill: #58b2a3; stroke: #2f2f2f"/>
    </g>
   </g>
   <g id="PolyCollection_5">
    <defs>
     <path id="m430376f602" d="M 458.003396 -95.163487 
L 421.062604 -95.163487 
L 420.384359 -96.087249 
L 419.705095 -97.011011 
L 419.026326 -97.934773 
L 418.34962 -98.858535 
L 417.676589 -99.782297 
L 417.008888 -100.706058 
L 416.348207 -101.62982 
L 415.696264 -102.553582 
L 415.054799 -103.477344 
L 414.425565 -104.401106 
L 413.810319 -105.324867 
L 413.210818 -106.248629 
L 412.628802 -107.172391 
L 412.06599 -108.096153 
L 411.524069 -109.019915 
L 411.004682 -109.943677 
L 410.509421 -110.867438 
L 410.039812 -111.7912 
L 409.597308 -112.714962 
L 409.183279 -113.638724 
L 408.798999 -114.562486 
L 408.44564 -115.486247 
L 408.12426 -116.410009 
L 407.835796 -117.333771 
L 407.581056 -118.257533 
L 407.360712 -119.181295 
L 407.175292 -120.105057 
L 407.025177 -121.028818 
L 406.910597 -121.95258 
L 406.831625 -122.876342 
L 406.788178 -123.800104 
L 406.780013 -124.723866 
L 406.806732 -125.647628 
L 406.867777 -126.571389 
L 406.962441 -127.495151 
L 407.089862 -128.418913 
L 407.249038 -129.342675 
L 407.438823 -130.266437 
L 407.657945 -131.190198 
L 407.905004 -132.11396 
L 408.178487 -133.037722 
L 408.476776 -133.961484 
L 408.79816 -134.885246 
L 409.140841 -135.809008 
L 409.502955 -136.732769 
L 409.882575 -137.656531 
L 410.277728 -138.580293 
L 410.686408 -139.504055 
L 411.106588 -140.427817 
L 411.536234 -141.351578 
L 411.973316 -142.27534 
L 412.415824 -143.199102 
L 412.861779 -144.122864 
L 413.309245 -145.046626 
L 413.756346 -145.970388 
L 414.201269 -146.894149 
L 414.642285 -147.817911 
L 415.077755 -148.741673 
L 415.506138 -149.665435 
L 415.926008 -150.589197 
L 416.336056 -151.512959 
L 416.7351 -152.43672 
L 417.122094 -153.360482 
L 417.496133 -154.284244 
L 417.856457 -155.208006 
L 418.202456 -156.131768 
L 418.533677 -157.055529 
L 418.849818 -157.979291 
L 419.150735 -158.903053 
L 419.436439 -159.826815 
L 419.707097 -160.750577 
L 419.963022 -161.674339 
L 420.204678 -162.5981 
L 420.432666 -163.521862 
L 420.647722 -164.445624 
L 420.850707 -165.369386 
L 421.042598 -166.293148 
L 421.224477 -167.216909 
L 421.397519 -168.140671 
L 421.562981 -169.064433 
L 421.722188 -169.988195 
L 421.876516 -170.911957 
L 422.02738 -171.835719 
L 422.176222 -172.75948 
L 422.324486 -173.683242 
L 422.473612 -174.607004 
L 422.625017 -175.530766 
L 422.780076 -176.454528 
L 422.940114 -177.378289 
L 423.106386 -178.302051 
L 423.280069 -179.225813 
L 423.462243 -180.149575 
L 423.653886 -181.073337 
L 423.855861 -181.997099 
L 424.068906 -182.92086 
L 424.293631 -183.844622 
L 424.530508 -184.768384 
L 424.77987 -185.692146 
L 425.041909 -186.615908 
L 454.024091 -186.615908 
L 454.024091 -186.615908 
L 454.28613 -185.692146 
L 454.535492 -184.768384 
L 454.772369 -183.844622 
L 454.997094 -182.92086 
L 455.210139 -181.997099 
L 455.412114 -181.073337 
L 455.603757 -180.149575 
L 455.785931 -179.225813 
L 455.959614 -178.302051 
L 456.125886 -177.378289 
L 456.285924 -176.454528 
L 456.440983 -175.530766 
L 456.592388 -174.607004 
L 456.741514 -173.683242 
L 456.889778 -172.75948 
L 457.03862 -171.835719 
L 457.189484 -170.911957 
L 457.343812 -169.988195 
L 457.503019 -169.064433 
L 457.668481 -168.140671 
L 457.841523 -167.216909 
L 458.023402 -166.293148 
L 458.215293 -165.369386 
L 458.418278 -164.445624 
L 458.633334 -163.521862 
L 458.861322 -162.5981 
L 459.102978 -161.674339 
L 459.358903 -160.750577 
L 459.629561 -159.826815 
L 459.915265 -158.903053 
L 460.216182 -157.979291 
L 460.532323 -157.055529 
L 460.863544 -156.131768 
L 461.209543 -155.208006 
L 461.569867 -154.284244 
L 461.943906 -153.360482 
L 462.3309 -152.43672 
L 462.729944 -151.512959 
L 463.139992 -150.589197 
L 463.559862 -149.665435 
L 463.988245 -148.741673 
L 464.423715 -147.817911 
L 464.864731 -146.894149 
L 465.309654 -145.970388 
L 465.756755 -145.046626 
L 466.204221 -144.122864 
L 466.650176 -143.199102 
L 467.092684 -142.27534 
L 467.529766 -141.351578 
L 467.959412 -140.427817 
L 468.379592 -139.504055 
L 468.788272 -138.580293 
L 469.183425 -137.656531 
L 469.563045 -136.732769 
L 469.925159 -135.809008 
L 470.26784 -134.885246 
L 470.589224 -133.961484 
L 470.887513 -133.037722 
L 471.160996 -132.11396 
L 471.408055 -131.190198 
L 471.627177 -130.266437 
L 471.816962 -129.342675 
L 471.976138 -128.418913 
L 472.103559 -127.495151 
L 472.198223 -126.571389 
L 472.259268 -125.647628 
L 472.285987 -124.723866 
L 472.277822 -123.800104 
L 472.234375 -122.876342 
L 472.155403 -121.95258 
L 472.040823 -121.028818 
L 471.890708 -120.105057 
L 471.705288 -119.181295 
L 471.484944 -118.257533 
L 471.230204 -117.333771 
L 470.94174 -116.410009 
L 470.62036 -115.486247 
L 470.267001 -114.562486 
L 469.882721 -113.638724 
L 469.468692 -112.714962 
L 469.026188 -111.7912 
L 468.556579 -110.867438 
L 468.061318 -109.943677 
L 467.541931 -109.019915 
L 467.00001 -108.096153 
L 466.437198 -107.172391 
L 465.855182 -106.248629 
L 465.255681 -105.324867 
L 464.640435 -104.401106 
L 464.011201 -103.477344 
L 463.369736 -102.553582 
L 462.717793 -101.62982 
L 462.057112 -100.706058 
L 461.389411 -99.782297 
L 460.71638 -98.858535 
L 460.039674 -97.934773 
L 459.360905 -97.011011 
L 458.681641 -96.087249 
L 458.003396 -95.163487 
z
" style="stroke: #2f2f2f"/>
    </defs>
    <g clip-path="url(#p8c2ea30eb0)">
     <use xlink:href="#m430376f602" x="0" y="288" style="fill: #437695; stroke: #2f2f2f"/>
    </g>
   </g>
   <g id="PolyCollection_6">
    <defs>
     <path id="m51cdd8ef88" d="M 547.049385 -129.886446 
L 495.78155 -129.886446 
L 495.157442 -130.402382 
L 494.55344 -130.918318 
L 493.971363 -131.434255 
L 493.41296 -131.950191 
L 492.879895 -132.466128 
L 492.373735 -132.982064 
L 491.895942 -133.498 
L 491.447857 -134.013937 
L 491.030692 -134.529873 
L 490.645519 -135.04581 
L 490.29326 -135.561746 
L 489.974681 -136.077682 
L 489.690379 -136.593619 
L 489.440779 -137.109555 
L 489.226128 -137.625492 
L 489.046488 -138.141428 
L 488.901735 -138.657364 
L 488.791555 -139.173301 
L 488.715446 -139.689237 
L 488.672714 -140.205174 
L 488.662481 -140.72111 
L 488.683683 -141.237046 
L 488.735082 -141.752983 
L 488.815266 -142.268919 
L 488.922663 -142.784856 
L 489.05555 -143.300792 
L 489.21206 -143.816728 
L 489.390203 -144.332665 
L 489.587873 -144.848601 
L 489.802868 -145.364538 
L 490.032907 -145.880474 
L 490.275644 -146.39641 
L 490.528692 -146.912347 
L 490.789637 -147.428283 
L 491.056062 -147.94422 
L 491.325567 -148.460156 
L 491.595787 -148.976092 
L 491.864412 -149.492029 
L 492.129211 -150.007965 
L 492.388049 -150.523902 
L 492.638903 -151.039838 
L 492.879886 -151.555774 
L 493.109258 -152.071711 
L 493.325445 -152.587647 
L 493.527051 -153.103584 
L 493.712871 -153.61952 
L 493.8819 -154.135456 
L 494.033344 -154.651393 
L 494.166625 -155.167329 
L 494.281383 -155.683266 
L 494.377484 -156.199202 
L 494.455013 -156.715138 
L 494.514277 -157.231075 
L 494.555797 -157.747011 
L 494.580304 -158.262948 
L 494.588729 -158.778884 
L 494.582193 -159.29482 
L 494.561993 -159.810757 
L 494.529591 -160.326693 
L 494.486596 -160.84263 
L 494.434747 -161.358566 
L 494.375897 -161.874502 
L 494.311993 -162.390439 
L 494.245055 -162.906375 
L 494.177161 -163.422312 
L 494.110419 -163.938248 
L 494.046955 -164.454184 
L 493.988885 -164.970121 
L 493.938302 -165.486057 
L 493.897255 -166.001993 
L 493.867727 -166.51793 
L 493.851625 -167.033866 
L 493.850757 -167.549803 
L 493.866822 -168.065739 
L 493.901394 -168.581675 
L 493.955911 -169.097612 
L 494.031666 -169.613548 
L 494.129796 -170.129485 
L 494.251278 -170.645421 
L 494.39692 -171.161357 
L 494.567362 -171.677294 
L 494.763071 -172.19323 
L 494.98434 -172.709167 
L 495.231293 -173.225103 
L 495.503885 -173.741039 
L 495.801907 -174.256976 
L 496.12499 -174.772912 
L 496.472615 -175.288849 
L 496.844119 -175.804785 
L 497.2387 -176.320721 
L 497.655433 -176.836658 
L 498.093276 -177.352594 
L 498.551082 -177.868531 
L 499.027609 -178.384467 
L 499.521533 -178.900403 
L 500.031457 -179.41634 
L 500.555928 -179.932276 
L 501.093441 -180.448213 
L 501.642457 -180.964149 
L 541.188478 -180.964149 
L 541.188478 -180.964149 
L 541.737494 -180.448213 
L 542.275007 -179.932276 
L 542.799478 -179.41634 
L 543.309402 -178.900403 
L 543.803326 -178.384467 
L 544.279853 -177.868531 
L 544.737659 -177.352594 
L 545.175502 -176.836658 
L 545.592235 -176.320721 
L 545.986817 -175.804785 
L 546.35832 -175.288849 
L 546.705945 -174.772912 
L 547.029028 -174.256976 
L 547.32705 -173.741039 
L 547.599642 -173.225103 
L 547.846595 -172.709167 
L 548.067864 -172.19323 
L 548.263573 -171.677294 
L 548.434015 -171.161357 
L 548.579657 -170.645421 
L 548.701139 -170.129485 
L 548.799269 -169.613548 
L 548.875024 -169.097612 
L 548.929541 -168.581675 
L 548.964113 -168.065739 
L 548.980178 -167.549803 
L 548.97931 -167.033866 
L 548.963208 -166.51793 
L 548.93368 -166.001993 
L 548.892633 -165.486057 
L 548.84205 -164.970121 
L 548.78398 -164.454184 
L 548.720516 -163.938248 
L 548.653774 -163.422312 
L 548.58588 -162.906375 
L 548.518943 -162.390439 
L 548.455038 -161.874502 
L 548.396188 -161.358566 
L 548.344339 -160.84263 
L 548.301344 -160.326693 
L 548.268942 -159.810757 
L 548.248742 -159.29482 
L 548.242206 -158.778884 
L 548.250631 -158.262948 
L 548.275138 -157.747011 
L 548.316658 -157.231075 
L 548.375922 -156.715138 
L 548.453451 -156.199202 
L 548.549552 -155.683266 
L 548.66431 -155.167329 
L 548.797591 -154.651393 
L 548.949035 -154.135456 
L 549.118064 -153.61952 
L 549.303884 -153.103584 
L 549.50549 -152.587647 
L 549.721677 -152.071711 
L 549.951049 -151.555774 
L 550.192032 -151.039838 
L 550.442886 -150.523902 
L 550.701724 -150.007965 
L 550.966523 -149.492029 
L 551.235148 -148.976092 
L 551.505368 -148.460156 
L 551.774873 -147.94422 
L 552.041298 -147.428283 
L 552.302243 -146.912347 
L 552.555291 -146.39641 
L 552.798028 -145.880474 
L 553.028067 -145.364538 
L 553.243062 -144.848601 
L 553.440732 -144.332665 
L 553.618875 -143.816728 
L 553.775385 -143.300792 
L 553.908272 -142.784856 
L 554.015669 -142.268919 
L 554.095854 -141.752983 
L 554.147252 -141.237046 
L 554.168455 -140.72111 
L 554.158221 -140.205174 
L 554.115489 -139.689237 
L 554.03938 -139.173301 
L 553.9292 -138.657364 
L 553.784447 -138.141428 
L 553.604807 -137.625492 
L 553.390156 -137.109555 
L 553.140556 -136.593619 
L 552.856254 -136.077682 
L 552.537675 -135.561746 
L 552.185416 -135.04581 
L 551.800243 -134.529873 
L 551.383078 -134.013937 
L 550.934993 -133.498 
L 550.4572 -132.982064 
L 549.95104 -132.466128 
L 549.417975 -131.950191 
L 548.859572 -131.434255 
L 548.277495 -130.918318 
L 547.673493 -130.402382 
L 547.049385 -129.886446 
z
" style="stroke: #2f2f2f"/>
    </defs>
    <g clip-path="url(#p8c2ea30eb0)">
     <use xlink:href="#m51cdd8ef88" x="0" y="288" style="fill: #423b63; stroke: #2f2f2f"/>
    </g>
   </g>
   <g id="line2d_33">
    <path d="M 357.650532 244.677359 
L 357.650532 121.252031 
" clip-path="url(#p8c2ea30eb0)" style="fill: none; stroke: #2f2f2f; stroke-width: 1.5; stroke-linecap: round"/>
   </g>
   <g id="line2d_34">
    <path d="M 357.650532 216.499751 
L 357.650532 175.634908 
" clip-path="url(#p8c2ea30eb0)" style="fill: none; stroke: #2f2f2f; stroke-width: 4.5; stroke-linecap: round"/>
   </g>
   <g id="line2d_35">
    <path d="M 357.650532 205.588568 
" clip-path="url(#p8c2ea30eb0)" style="fill: none; stroke: #2f2f2f; stroke-width: 1.2; stroke-linecap: round"/>
    <g clip-path="url(#p8c2ea30eb0)">
     <use xlink:href="#mba8fc7874d" x="357.650532" y="205.588568" style="fill: #ffffff; stroke: #ffffff; stroke-width: 0.9"/>
    </g>
   </g>
   <g id="line2d_36">
    <path d="M 439.533 192.836513 
L 439.533 101.384092 
" clip-path="url(#p8c2ea30eb0)" style="fill: none; stroke: #2f2f2f; stroke-width: 1.5; stroke-linecap: round"/>
   </g>
   <g id="line2d_37">
    <path d="M 439.533 170.432828 
L 439.533 134.370519 
" clip-path="url(#p8c2ea30eb0)" style="fill: none; stroke: #2f2f2f; stroke-width: 4.5; stroke-linecap: round"/>
   </g>
   <g id="line2d_38">
    <path d="M 439.533 160.035975 
" clip-path="url(#p8c2ea30eb0)" style="fill: none; stroke: #2f2f2f; stroke-width: 1.2; stroke-linecap: round"/>
    <g clip-path="url(#p8c2ea30eb0)">
     <use xlink:href="#mba8fc7874d" x="439.533" y="160.035975" style="fill: #ffffff; stroke: #ffffff; stroke-width: 0.9"/>
    </g>
   </g>
   <g id="line2d_39">
    <path d="M 521.415468 158.113554 
L 521.415468 107.035851 
" clip-path="url(#p8c2ea30eb0)" style="fill: none; stroke: #2f2f2f; stroke-width: 1.5; stroke-linecap: round"/>
   </g>
   <g id="line2d_40">
    <path d="M 521.415468 146.749802 
L 521.415468 120.148256 
" clip-path="url(#p8c2ea30eb0)" style="fill: none; stroke: #2f2f2f; stroke-width: 4.5; stroke-linecap: round"/>
   </g>
   <g id="line2d_41">
    <path d="M 521.415468 142.967709 
" clip-path="url(#p8c2ea30eb0)" style="fill: none; stroke: #2f2f2f; stroke-width: 1.2; stroke-linecap: round"/>
    <g clip-path="url(#p8c2ea30eb0)">
     <use xlink:href="#mba8fc7874d" x="521.415468" y="142.967709" style="fill: #ffffff; stroke: #ffffff; stroke-width: 0.9"/>
    </g>
   </g>
   <g id="line2d_42">
    <path d="M 357.650532 97.796826 
L 357.650532 89.787563 
L 439.533 89.787563 
L 439.533 97.796826 
" clip-path="url(#p8c2ea30eb0)" style="fill: none; stroke: #000000; stroke-linecap: round"/>
   </g>
   <g id="line2d_43">
    <path d="M 439.533 83.447759 
L 439.533 75.07977 
L 521.415468 75.07977 
L 521.415468 83.447759 
" clip-path="url(#p8c2ea30eb0)" style="fill: none; stroke: #000000; stroke-linecap: round"/>
   </g>
   <g id="line2d_44">
    <path d="M 357.650532 69.098692 
L 357.650532 60.371976 
L 521.415468 60.371976 
L 521.415468 69.098692 
" clip-path="url(#p8c2ea30eb0)" style="fill: none; stroke: #000000; stroke-linecap: round"/>
   </g>
   <g id="patch_8">
    <path d="M 313.434 238.804 
L 313.434 23.568 
" style="fill: none; stroke: #262626; stroke-linejoin: miter; stroke-linecap: square"/>
   </g>
   <g id="patch_9">
    <path d="M 565.632 238.804 
L 565.632 23.568 
" style="fill: none; stroke: #262626; stroke-linejoin: miter; stroke-linecap: square"/>
   </g>
   <g id="patch_10">
    <path d="M 313.434 238.804 
L 565.632 238.804 
" style="fill: none; stroke: #262626; stroke-linejoin: miter; stroke-linecap: square"/>
   </g>
   <g id="patch_11">
    <path d="M 313.434 23.568 
L 565.632 23.568 
" style="fill: none; stroke: #262626; stroke-linejoin: miter; stroke-linecap: square"/>
   </g>
   <g id="text_19">
    <!-- * -->
    <g transform="translate(396.191766 87.791063) scale(0.096 -0.096)">
     <defs>
      <path id="DejaVuSans-2a" d="M 3009 3897 
L 1888 3291 
L 3009 2681 
L 2828 2375 
L 1778 3009 
L 1778 1831 
L 1422 1831 
L 1422 3009 
L 372 2375 
L 191 2681 
L 1313 3291 
L 191 3897 
L 372 4206 
L 1422 3572 
L 1422 4750 
L 1778 4750 
L 1778 3572 
L 2828 4206 
L 3009 3897 
z
" transform="scale(0.015625)"/>
     </defs>
     <use xlink:href="#DejaVuSans-2a"/>
    </g>
   </g>
   <g id="text_20">
    <!-- ns -->
    <g transform="translate(474.931734 73.08327) scale(0.096 -0.096)">
     <use xlink:href="#DejaVuSans-6e"/>
     <use xlink:href="#DejaVuSans-73" x="63.378906"/>
    </g>
   </g>
   <g id="text_21">
    <!-- ** -->
    <g transform="translate(434.733 58.375476) scale(0.096 -0.096)">
     <use xlink:href="#DejaVuSans-2a"/>
     <use xlink:href="#DejaVuSans-2a" x="50"/>
    </g>
   </g>
   <g id="text_22">
    <!-- Speed -->
    <g style="fill: #262626" transform="translate(424.48425 17.568) scale(0.096 -0.096)">
     <defs>
      <path id="DejaVuSans-53" d="M 3425 4513 
L 3425 3897 
Q 3066 4069 2747 4153 
Q 2428 4238 2131 4238 
Q 1616 4238 1336 4038 
Q 1056 3838 1056 3469 
Q 1056 3159 1242 3001 
Q 1428 2844 1947 2747 
L 2328 2669 
Q 3034 2534 3370 2195 
Q 3706 1856 3706 1288 
Q 3706 609 3251 259 
Q 2797 -91 1919 -91 
Q 1588 -91 1214 -16 
Q 841 59 441 206 
L 441 856 
Q 825 641 1194 531 
Q 1563 422 1919 422 
Q 2459 422 2753 634 
Q 3047 847 3047 1241 
Q 3047 1584 2836 1778 
Q 2625 1972 2144 2069 
L 1759 2144 
Q 1053 2284 737 2584 
Q 422 2884 422 3419 
Q 422 4038 858 4394 
Q 1294 4750 2059 4750 
Q 2388 4750 2728 4690 
Q 3069 4631 3425 4513 
z
" transform="scale(0.015625)"/>
     </defs>
     <use xlink:href="#DejaVuSans-53"/>
     <use xlink:href="#DejaVuSans-70" x="63.476562"/>
     <use xlink:href="#DejaVuSans-65" x="126.953125"/>
     <use xlink:href="#DejaVuSans-65" x="188.476562"/>
     <use xlink:href="#DejaVuSans-64" x="250"/>
    </g>
   </g>
  </g>
  <g id="text_23">
   <!-- Average confirmation probability tertile -->
   <g style="fill: #262626" transform="translate(174.5406 282.7242) scale(0.1152 -0.1152)">
    <defs>
     <path id="DejaVuSans-76" d="M 191 3500 
L 800 3500 
L 1894 563 
L 2988 3500 
L 3597 3500 
L 2284 0 
L 1503 0 
L 191 3500 
z
" transform="scale(0.015625)"/>
    </defs>
    <use xlink:href="#DejaVuSans-41"/>
    <use xlink:href="#DejaVuSans-76" x="62.533203"/>
    <use xlink:href="#DejaVuSans-65" x="121.712891"/>
    <use xlink:href="#DejaVuSans-72" x="183.236328"/>
    <use xlink:href="#DejaVuSans-61" x="224.349609"/>
    <use xlink:href="#DejaVuSans-67" x="285.628906"/>
    <use xlink:href="#DejaVuSans-65" x="349.105469"/>
    <use xlink:href="#DejaVuSans-20" x="410.628906"/>
    <use xlink:href="#DejaVuSans-63" x="442.416016"/>
    <use xlink:href="#DejaVuSans-6f" x="497.396484"/>
    <use xlink:href="#DejaVuSans-6e" x="558.578125"/>
    <use xlink:href="#DejaVuSans-66" x="621.957031"/>
    <use xlink:href="#DejaVuSans-69" x="657.162109"/>
    <use xlink:href="#DejaVuSans-72" x="684.945312"/>
    <use xlink:href="#DejaVuSans-6d" x="724.308594"/>
    <use xlink:href="#DejaVuSans-61" x="821.720703"/>
    <use xlink:href="#DejaVuSans-74" x="883"/>
    <use xlink:href="#DejaVuSans-69" x="922.208984"/>
    <use xlink:href="#DejaVuSans-6f" x="949.992188"/>
    <use xlink:href="#DejaVuSans-6e" x="1011.173828"/>
    <use xlink:href="#DejaVuSans-20" x="1074.552734"/>
    <use xlink:href="#DejaVuSans-70" x="1106.339844"/>
    <use xlink:href="#DejaVuSans-72" x="1169.816406"/>
    <use xlink:href="#DejaVuSans-6f" x="1208.679688"/>
    <use xlink:href="#DejaVuSans-62" x="1269.861328"/>
    <use xlink:href="#DejaVuSans-61" x="1333.337891"/>
    <use xlink:href="#DejaVuSans-62" x="1394.617188"/>
    <use xlink:href="#DejaVuSans-69" x="1458.09375"/>
    <use xlink:href="#DejaVuSans-6c" x="1485.876953"/>
    <use xlink:href="#DejaVuSans-69" x="1513.660156"/>
    <use xlink:href="#DejaVuSans-74" x="1541.443359"/>
    <use xlink:href="#DejaVuSans-79" x="1580.652344"/>
    <use xlink:href="#DejaVuSans-20" x="1639.832031"/>
    <use xlink:href="#DejaVuSans-74" x="1671.619141"/>
    <use xlink:href="#DejaVuSans-65" x="1710.828125"/>
    <use xlink:href="#DejaVuSans-72" x="1772.351562"/>
    <use xlink:href="#DejaVuSans-74" x="1813.464844"/>
    <use xlink:href="#DejaVuSans-69" x="1852.673828"/>
    <use xlink:href="#DejaVuSans-6c" x="1880.457031"/>
    <use xlink:href="#DejaVuSans-65" x="1908.240234"/>
   </g>
  </g>
 </g>
 <defs>
  <clipPath id="p3f4f53ff99">
   <rect x="46.068" y="23.568" width="252.198" height="215.236"/>
  </clipPath>
  <clipPath id="p8c2ea30eb0">
   <rect x="313.434" y="23.568" width="252.198" height="215.236"/>
  </clipPath>
 </defs>
</svg>
