<?xml version="1.0" encoding="utf-8" standalone="no"?>
<!DOCTYPE svg PUBLIC "-//W3C//DTD SVG 1.1//EN"
  "http://www.w3.org/Graphics/SVG/1.1/DTD/svg11.dtd">
<svg xmlns:xlink="http://www.w3.org/1999/xlink" width="576pt" height="288pt" viewBox="0 0 576 288" xmlns="http://www.w3.org/2000/svg" version="1.1">
 <metadata>
  <rdf:RDF xmlns:dc="http://purl.org/dc/elements/1.1/" xmlns:cc="http://creativecommons.org/ns#" xmlns:rdf="http://www.w3.org/1999/02/22-rdf-syntax-ns#">
   <cc:Work>
    <dc:type rdf:resource="http://purl.org/dc/dcmitype/StillImage"/>
    <dc:date>2024-11-01T12:47:18.449878</dc:date>
    <dc:format>image/svg+xml</dc:format>
    <dc:creator>
     <cc:Agent>
      <dc:title>Matplotlib v3.9.2, https://matplotlib.org/</dc:title>
     </cc:Agent>
    </dc:creator>
   </cc:Work>
  </rdf:RDF>
 </metadata>
 <defs>
  <style type="text/css">*{stroke-linejoin: round; stroke-linecap: butt}</style>
 </defs>
 <g id="figure_1">
  <g id="patch_1">
   <path d="M 0 288 
L 576 288 
L 576 0 
L 0 0 
L 0 288 
z
" style="fill: none"/>
  </g>
  <g id="axes_1">
   <g id="patch_2">
    <path d="M 46.068 238.804 
L 298.266 238.804 
L 298.266 23.568 
L 46.068 23.568 
L 46.068 238.804 
z
" style="fill: none"/>
   </g>
   <g id="matplotlib.axis_1">
    <g id="xtick_1">
     <g id="line2d_1">
      <defs>
       <path id="m59d05d61bd" d="M 0 0 
L 0 4.8 
" style="stroke: #262626"/>
      </defs>
      <g>
       <use xlink:href="#m59d05d61bd" x="90.284532" y="238.804" style="fill: #262626; stroke: #262626"/>
      </g>
     </g>
     <g id="text_1">
      <!-- Low -->
      <g style="fill: #262626" transform="translate(81.619282 253.790625) scale(0.088 -0.088)">
       <defs>
        <path id="DejaVuSans-4c" d="M 628 4666 
L 1259 4666 
L 1259 531 
L 3531 531 
L 3531 0 
L 628 0 
L 628 4666 
z
" transform="scale(0.015625)"/>
        <path id="DejaVuSans-6f" d="M 1959 3097 
Q 1497 3097 1228 2736 
Q 959 2375 959 1747 
Q 959 1119 1226 758 
Q 1494 397 1959 397 
Q 2419 397 2687 759 
Q 2956 1122 2956 1747 
Q 2956 2369 2687 2733 
Q 2419 3097 1959 3097 
z
M 1959 3584 
Q 2709 3584 3137 3096 
Q 3566 2609 3566 1747 
Q 3566 888 3137 398 
Q 2709 -91 1959 -91 
Q 1206 -91 779 398 
Q 353 888 353 1747 
Q 353 2609 779 3096 
Q 1206 3584 1959 3584 
z
" transform="scale(0.015625)"/>
        <path id="DejaVuSans-77" d="M 269 3500 
L 844 3500 
L 1563 769 
L 2278 3500 
L 2956 3500 
L 3675 769 
L 4391 3500 
L 4966 3500 
L 4050 0 
L 3372 0 
L 2619 2869 
L 1863 0 
L 1184 0 
L 269 3500 
z
" transform="scale(0.015625)"/>
       </defs>
       <use xlink:href="#DejaVuSans-4c"/>
       <use xlink:href="#DejaVuSans-6f" x="53.962891"/>
       <use xlink:href="#DejaVuSans-77" x="115.144531"/>
      </g>
     </g>
    </g>
    <g id="xtick_2">
     <g id="line2d_2">
      <g>
       <use xlink:href="#m59d05d61bd" x="172.167" y="238.804" style="fill: #262626; stroke: #262626"/>
      </g>
     </g>
     <g id="text_2">
      <!-- Medium -->
      <g style="fill: #262626" transform="translate(154.573187 253.790625) scale(0.088 -0.088)">
       <defs>
        <path id="DejaVuSans-4d" d="M 628 4666 
L 1569 4666 
L 2759 1491 
L 3956 4666 
L 4897 4666 
L 4897 0 
L 4281 0 
L 4281 4097 
L 3078 897 
L 2444 897 
L 1241 4097 
L 1241 0 
L 628 0 
L 628 4666 
z
" transform="scale(0.015625)"/>
        <path id="DejaVuSans-65" d="M 3597 1894 
L 3597 1613 
L 953 1613 
Q 991 1019 1311 708 
Q 1631 397 2203 397 
Q 2534 397 2845 478 
Q 3156 559 3463 722 
L 3463 178 
Q 3153 47 2828 -22 
Q 2503 -91 2169 -91 
Q 1331 -91 842 396 
Q 353 884 353 1716 
Q 353 2575 817 3079 
Q 1281 3584 2069 3584 
Q 2775 3584 3186 3129 
Q 3597 2675 3597 1894 
z
M 3022 2063 
Q 3016 2534 2758 2815 
Q 2500 3097 2075 3097 
Q 1594 3097 1305 2825 
Q 1016 2553 972 2059 
L 3022 2063 
z
" transform="scale(0.015625)"/>
        <path id="DejaVuSans-64" d="M 2906 2969 
L 2906 4863 
L 3481 4863 
L 3481 0 
L 2906 0 
L 2906 525 
Q 2725 213 2448 61 
Q 2172 -91 1784 -91 
Q 1150 -91 751 415 
Q 353 922 353 1747 
Q 353 2572 751 3078 
Q 1150 3584 1784 3584 
Q 2172 3584 2448 3432 
Q 2725 3281 2906 2969 
z
M 947 1747 
Q 947 1113 1208 752 
Q 1469 391 1925 391 
Q 2381 391 2643 752 
Q 2906 1113 2906 1747 
Q 2906 2381 2643 2742 
Q 2381 3103 1925 3103 
Q 1469 3103 1208 2742 
Q 947 2381 947 1747 
z
" transform="scale(0.015625)"/>
        <path id="DejaVuSans-69" d="M 603 3500 
L 1178 3500 
L 1178 0 
L 603 0 
L 603 3500 
z
M 603 4863 
L 1178 4863 
L 1178 4134 
L 603 4134 
L 603 4863 
z
" transform="scale(0.015625)"/>
        <path id="DejaVuSans-75" d="M 544 1381 
L 544 3500 
L 1119 3500 
L 1119 1403 
Q 1119 906 1312 657 
Q 1506 409 1894 409 
Q 2359 409 2629 706 
Q 2900 1003 2900 1516 
L 2900 3500 
L 3475 3500 
L 3475 0 
L 2900 0 
L 2900 538 
Q 2691 219 2414 64 
Q 2138 -91 1772 -91 
Q 1169 -91 856 284 
Q 544 659 544 1381 
z
M 1991 3584 
L 1991 3584 
z
" transform="scale(0.015625)"/>
        <path id="DejaVuSans-6d" d="M 3328 2828 
Q 3544 3216 3844 3400 
Q 4144 3584 4550 3584 
Q 5097 3584 5394 3201 
Q 5691 2819 5691 2113 
L 5691 0 
L 5113 0 
L 5113 2094 
Q 5113 2597 4934 2840 
Q 4756 3084 4391 3084 
Q 3944 3084 3684 2787 
Q 3425 2491 3425 1978 
L 3425 0 
L 2847 0 
L 2847 2094 
Q 2847 2600 2669 2842 
Q 2491 3084 2119 3084 
Q 1678 3084 1418 2786 
Q 1159 2488 1159 1978 
L 1159 0 
L 581 0 
L 581 3500 
L 1159 3500 
L 1159 2956 
Q 1356 3278 1631 3431 
Q 1906 3584 2284 3584 
Q 2666 3584 2933 3390 
Q 3200 3197 3328 2828 
z
" transform="scale(0.015625)"/>
       </defs>
       <use xlink:href="#DejaVuSans-4d"/>
       <use xlink:href="#DejaVuSans-65" x="86.279297"/>
       <use xlink:href="#DejaVuSans-64" x="147.802734"/>
       <use xlink:href="#DejaVuSans-69" x="211.279297"/>
       <use xlink:href="#DejaVuSans-75" x="239.0625"/>
       <use xlink:href="#DejaVuSans-6d" x="302.441406"/>
      </g>
     </g>
    </g>
    <g id="xtick_3">
     <g id="line2d_3">
      <g>
       <use xlink:href="#m59d05d61bd" x="254.049468" y="238.804" style="fill: #262626; stroke: #262626"/>
      </g>
     </g>
     <g id="text_3">
      <!-- High -->
      <g style="fill: #262626" transform="translate(243.936343 253.790625) scale(0.088 -0.088)">
       <defs>
        <path id="DejaVuSans-48" d="M 628 4666 
L 1259 4666 
L 1259 2753 
L 3553 2753 
L 3553 4666 
L 4184 4666 
L 4184 0 
L 3553 0 
L 3553 2222 
L 1259 2222 
L 1259 0 
L 628 0 
L 628 4666 
z
" transform="scale(0.015625)"/>
        <path id="DejaVuSans-67" d="M 2906 1791 
Q 2906 2416 2648 2759 
Q 2391 3103 1925 3103 
Q 1463 3103 1205 2759 
Q 947 2416 947 1791 
Q 947 1169 1205 825 
Q 1463 481 1925 481 
Q 2391 481 2648 825 
Q 2906 1169 2906 1791 
z
M 3481 434 
Q 3481 -459 3084 -895 
Q 2688 -1331 1869 -1331 
Q 1566 -1331 1297 -1286 
Q 1028 -1241 775 -1147 
L 775 -588 
Q 1028 -725 1275 -790 
Q 1522 -856 1778 -856 
Q 2344 -856 2625 -561 
Q 2906 -266 2906 331 
L 2906 616 
Q 2728 306 2450 153 
Q 2172 0 1784 0 
Q 1141 0 747 490 
Q 353 981 353 1791 
Q 353 2603 747 3093 
Q 1141 3584 1784 3584 
Q 2172 3584 2450 3431 
Q 2728 3278 2906 2969 
L 2906 3500 
L 3481 3500 
L 3481 434 
z
" transform="scale(0.015625)"/>
        <path id="DejaVuSans-68" d="M 3513 2113 
L 3513 0 
L 2938 0 
L 2938 2094 
Q 2938 2591 2744 2837 
Q 2550 3084 2163 3084 
Q 1697 3084 1428 2787 
Q 1159 2491 1159 1978 
L 1159 0 
L 581 0 
L 581 4863 
L 1159 4863 
L 1159 2956 
Q 1366 3272 1645 3428 
Q 1925 3584 2291 3584 
Q 2894 3584 3203 3211 
Q 3513 2838 3513 2113 
z
" transform="scale(0.015625)"/>
       </defs>
       <use xlink:href="#DejaVuSans-48"/>
       <use xlink:href="#DejaVuSans-69" x="75.195312"/>
       <use xlink:href="#DejaVuSans-67" x="102.978516"/>
       <use xlink:href="#DejaVuSans-68" x="166.455078"/>
      </g>
     </g>
    </g>
   </g>
   <g id="matplotlib.axis_2">
    <g id="ytick_1">
     <g id="line2d_4">
      <defs>
       <path id="m3b9b2f70d7" d="M 0 0 
L -4.8 0 
" style="stroke: #262626"/>
      </defs>
      <g>
       <use xlink:href="#m3b9b2f70d7" x="46.068" y="238.804" style="fill: #262626; stroke: #262626"/>
      </g>
     </g>
     <g id="text_4">
      <!-- 0.5 -->
      <g style="fill: #262626" transform="translate(23.77325 242.147312) scale(0.088 -0.088)">
       <defs>
        <path id="DejaVuSans-30" d="M 2034 4250 
Q 1547 4250 1301 3770 
Q 1056 3291 1056 2328 
Q 1056 1369 1301 889 
Q 1547 409 2034 409 
Q 2525 409 2770 889 
Q 3016 1369 3016 2328 
Q 3016 3291 2770 3770 
Q 2525 4250 2034 4250 
z
M 2034 4750 
Q 2819 4750 3233 4129 
Q 3647 3509 3647 2328 
Q 3647 1150 3233 529 
Q 2819 -91 2034 -91 
Q 1250 -91 836 529 
Q 422 1150 422 2328 
Q 422 3509 836 4129 
Q 1250 4750 2034 4750 
z
" transform="scale(0.015625)"/>
        <path id="DejaVuSans-2e" d="M 684 794 
L 1344 794 
L 1344 0 
L 684 0 
L 684 794 
z
" transform="scale(0.015625)"/>
        <path id="DejaVuSans-35" d="M 691 4666 
L 3169 4666 
L 3169 4134 
L 1269 4134 
L 1269 2991 
Q 1406 3038 1543 3061 
Q 1681 3084 1819 3084 
Q 2600 3084 3056 2656 
Q 3513 2228 3513 1497 
Q 3513 744 3044 326 
Q 2575 -91 1722 -91 
Q 1428 -91 1123 -41 
Q 819 9 494 109 
L 494 744 
Q 775 591 1075 516 
Q 1375 441 1709 441 
Q 2250 441 2565 725 
Q 2881 1009 2881 1497 
Q 2881 1984 2565 2268 
Q 2250 2553 1709 2553 
Q 1456 2553 1204 2497 
Q 953 2441 691 2322 
L 691 4666 
z
" transform="scale(0.015625)"/>
       </defs>
       <use xlink:href="#DejaVuSans-30"/>
       <use xlink:href="#DejaVuSans-2e" x="63.623047"/>
       <use xlink:href="#DejaVuSans-35" x="95.410156"/>
      </g>
     </g>
    </g>
    <g id="ytick_2">
     <g id="line2d_5">
      <g>
       <use xlink:href="#m3b9b2f70d7" x="46.068" y="202.931333" style="fill: #262626; stroke: #262626"/>
      </g>
     </g>
     <g id="text_5">
      <!-- 0.6 -->
      <g style="fill: #262626" transform="translate(23.77325 206.274646) scale(0.088 -0.088)">
       <defs>
        <path id="DejaVuSans-36" d="M 2113 2584 
Q 1688 2584 1439 2293 
Q 1191 2003 1191 1497 
Q 1191 994 1439 701 
Q 1688 409 2113 409 
Q 2538 409 2786 701 
Q 3034 994 3034 1497 
Q 3034 2003 2786 2293 
Q 2538 2584 2113 2584 
z
M 3366 4563 
L 3366 3988 
Q 3128 4100 2886 4159 
Q 2644 4219 2406 4219 
Q 1781 4219 1451 3797 
Q 1122 3375 1075 2522 
Q 1259 2794 1537 2939 
Q 1816 3084 2150 3084 
Q 2853 3084 3261 2657 
Q 3669 2231 3669 1497 
Q 3669 778 3244 343 
Q 2819 -91 2113 -91 
Q 1303 -91 875 529 
Q 447 1150 447 2328 
Q 447 3434 972 4092 
Q 1497 4750 2381 4750 
Q 2619 4750 2861 4703 
Q 3103 4656 3366 4563 
z
" transform="scale(0.015625)"/>
       </defs>
       <use xlink:href="#DejaVuSans-30"/>
       <use xlink:href="#DejaVuSans-2e" x="63.623047"/>
       <use xlink:href="#DejaVuSans-36" x="95.410156"/>
      </g>
     </g>
    </g>
    <g id="ytick_3">
     <g id="line2d_6">
      <g>
       <use xlink:href="#m3b9b2f70d7" x="46.068" y="167.058667" style="fill: #262626; stroke: #262626"/>
      </g>
     </g>
     <g id="text_6">
      <!-- 0.7 -->
      <g style="fill: #262626" transform="translate(23.77325 170.401979) scale(0.088 -0.088)">
       <defs>
        <path id="DejaVuSans-37" d="M 525 4666 
L 3525 4666 
L 3525 4397 
L 1831 0 
L 1172 0 
L 2766 4134 
L 525 4134 
L 525 4666 
z
" transform="scale(0.015625)"/>
       </defs>
       <use xlink:href="#DejaVuSans-30"/>
       <use xlink:href="#DejaVuSans-2e" x="63.623047"/>
       <use xlink:href="#DejaVuSans-37" x="95.410156"/>
      </g>
     </g>
    </g>
    <g id="ytick_4">
     <g id="line2d_7">
      <g>
       <use xlink:href="#m3b9b2f70d7" x="46.068" y="131.186" style="fill: #262626; stroke: #262626"/>
      </g>
     </g>
     <g id="text_7">
      <!-- 0.8 -->
      <g style="fill: #262626" transform="translate(23.77325 134.529312) scale(0.088 -0.088)">
       <defs>
        <path id="DejaVuSans-38" d="M 2034 2216 
Q 1584 2216 1326 1975 
Q 1069 1734 1069 1313 
Q 1069 891 1326 650 
Q 1584 409 2034 409 
Q 2484 409 2743 651 
Q 3003 894 3003 1313 
Q 3003 1734 2745 1975 
Q 2488 2216 2034 2216 
z
M 1403 2484 
Q 997 2584 770 2862 
Q 544 3141 544 3541 
Q 544 4100 942 4425 
Q 1341 4750 2034 4750 
Q 2731 4750 3128 4425 
Q 3525 4100 3525 3541 
Q 3525 3141 3298 2862 
Q 3072 2584 2669 2484 
Q 3125 2378 3379 2068 
Q 3634 1759 3634 1313 
Q 3634 634 3220 271 
Q 2806 -91 2034 -91 
Q 1263 -91 848 271 
Q 434 634 434 1313 
Q 434 1759 690 2068 
Q 947 2378 1403 2484 
z
M 1172 3481 
Q 1172 3119 1398 2916 
Q 1625 2713 2034 2713 
Q 2441 2713 2670 2916 
Q 2900 3119 2900 3481 
Q 2900 3844 2670 4047 
Q 2441 4250 2034 4250 
Q 1625 4250 1398 4047 
Q 1172 3844 1172 3481 
z
" transform="scale(0.015625)"/>
       </defs>
       <use xlink:href="#DejaVuSans-30"/>
       <use xlink:href="#DejaVuSans-2e" x="63.623047"/>
       <use xlink:href="#DejaVuSans-38" x="95.410156"/>
      </g>
     </g>
    </g>
    <g id="ytick_5">
     <g id="line2d_8">
      <g>
       <use xlink:href="#m3b9b2f70d7" x="46.068" y="95.313333" style="fill: #262626; stroke: #262626"/>
      </g>
     </g>
     <g id="text_8">
      <!-- 0.9 -->
      <g style="fill: #262626" transform="translate(23.77325 98.656646) scale(0.088 -0.088)">
       <defs>
        <path id="DejaVuSans-39" d="M 703 97 
L 703 672 
Q 941 559 1184 500 
Q 1428 441 1663 441 
Q 2288 441 2617 861 
Q 2947 1281 2994 2138 
Q 2813 1869 2534 1725 
Q 2256 1581 1919 1581 
Q 1219 1581 811 2004 
Q 403 2428 403 3163 
Q 403 3881 828 4315 
Q 1253 4750 1959 4750 
Q 2769 4750 3195 4129 
Q 3622 3509 3622 2328 
Q 3622 1225 3098 567 
Q 2575 -91 1691 -91 
Q 1453 -91 1209 -44 
Q 966 3 703 97 
z
M 1959 2075 
Q 2384 2075 2632 2365 
Q 2881 2656 2881 3163 
Q 2881 3666 2632 3958 
Q 2384 4250 1959 4250 
Q 1534 4250 1286 3958 
Q 1038 3666 1038 3163 
Q 1038 2656 1286 2365 
Q 1534 2075 1959 2075 
z
" transform="scale(0.015625)"/>
       </defs>
       <use xlink:href="#DejaVuSans-30"/>
       <use xlink:href="#DejaVuSans-2e" x="63.623047"/>
       <use xlink:href="#DejaVuSans-39" x="95.410156"/>
      </g>
     </g>
    </g>
    <g id="ytick_6">
     <g id="line2d_9">
      <g>
       <use xlink:href="#m3b9b2f70d7" x="46.068" y="59.440667" style="fill: #262626; stroke: #262626"/>
      </g>
     </g>
     <g id="text_9">
      <!-- 1.0 -->
      <g style="fill: #262626" transform="translate(23.77325 62.783979) scale(0.088 -0.088)">
       <defs>
        <path id="DejaVuSans-31" d="M 794 531 
L 1825 531 
L 1825 4091 
L 703 3866 
L 703 4441 
L 1819 4666 
L 2450 4666 
L 2450 531 
L 3481 531 
L 3481 0 
L 794 0 
L 794 531 
z
" transform="scale(0.015625)"/>
       </defs>
       <use xlink:href="#DejaVuSans-31"/>
       <use xlink:href="#DejaVuSans-2e" x="63.623047"/>
       <use xlink:href="#DejaVuSans-30" x="95.410156"/>
      </g>
     </g>
    </g>
    <g id="ytick_7">
     <g id="line2d_10">
      <g>
       <use xlink:href="#m3b9b2f70d7" x="46.068" y="23.568" style="fill: #262626; stroke: #262626"/>
      </g>
     </g>
     <g id="text_10">
      <!-- 1.1 -->
      <g style="fill: #262626" transform="translate(23.77325 26.911313) scale(0.088 -0.088)">
       <use xlink:href="#DejaVuSans-31"/>
       <use xlink:href="#DejaVuSans-2e" x="63.623047"/>
       <use xlink:href="#DejaVuSans-31" x="95.410156"/>
      </g>
     </g>
    </g>
    <g id="text_11">
     <!-- Probability of correct response -->
     <g style="fill: #262626" transform="translate(17.77675 204.36575) rotate(-90) scale(0.096 -0.096)">
      <defs>
       <path id="DejaVuSans-50" d="M 1259 4147 
L 1259 2394 
L 2053 2394 
Q 2494 2394 2734 2622 
Q 2975 2850 2975 3272 
Q 2975 3691 2734 3919 
Q 2494 4147 2053 4147 
L 1259 4147 
z
M 628 4666 
L 2053 4666 
Q 2838 4666 3239 4311 
Q 3641 3956 3641 3272 
Q 3641 2581 3239 2228 
Q 2838 1875 2053 1875 
L 1259 1875 
L 1259 0 
L 628 0 
L 628 4666 
z
" transform="scale(0.015625)"/>
       <path id="DejaVuSans-72" d="M 2631 2963 
Q 2534 3019 2420 3045 
Q 2306 3072 2169 3072 
Q 1681 3072 1420 2755 
Q 1159 2438 1159 1844 
L 1159 0 
L 581 0 
L 581 3500 
L 1159 3500 
L 1159 2956 
Q 1341 3275 1631 3429 
Q 1922 3584 2338 3584 
Q 2397 3584 2469 3576 
Q 2541 3569 2628 3553 
L 2631 2963 
z
" transform="scale(0.015625)"/>
       <path id="DejaVuSans-62" d="M 3116 1747 
Q 3116 2381 2855 2742 
Q 2594 3103 2138 3103 
Q 1681 3103 1420 2742 
Q 1159 2381 1159 1747 
Q 1159 1113 1420 752 
Q 1681 391 2138 391 
Q 2594 391 2855 752 
Q 3116 1113 3116 1747 
z
M 1159 2969 
Q 1341 3281 1617 3432 
Q 1894 3584 2278 3584 
Q 2916 3584 3314 3078 
Q 3713 2572 3713 1747 
Q 3713 922 3314 415 
Q 2916 -91 2278 -91 
Q 1894 -91 1617 61 
Q 1341 213 1159 525 
L 1159 0 
L 581 0 
L 581 4863 
L 1159 4863 
L 1159 2969 
z
" transform="scale(0.015625)"/>
       <path id="DejaVuSans-61" d="M 2194 1759 
Q 1497 1759 1228 1600 
Q 959 1441 959 1056 
Q 959 750 1161 570 
Q 1363 391 1709 391 
Q 2188 391 2477 730 
Q 2766 1069 2766 1631 
L 2766 1759 
L 2194 1759 
z
M 3341 1997 
L 3341 0 
L 2766 0 
L 2766 531 
Q 2569 213 2275 61 
Q 1981 -91 1556 -91 
Q 1019 -91 701 211 
Q 384 513 384 1019 
Q 384 1609 779 1909 
Q 1175 2209 1959 2209 
L 2766 2209 
L 2766 2266 
Q 2766 2663 2505 2880 
Q 2244 3097 1772 3097 
Q 1472 3097 1187 3025 
Q 903 2953 641 2809 
L 641 3341 
Q 956 3463 1253 3523 
Q 1550 3584 1831 3584 
Q 2591 3584 2966 3190 
Q 3341 2797 3341 1997 
z
" transform="scale(0.015625)"/>
       <path id="DejaVuSans-6c" d="M 603 4863 
L 1178 4863 
L 1178 0 
L 603 0 
L 603 4863 
z
" transform="scale(0.015625)"/>
       <path id="DejaVuSans-74" d="M 1172 4494 
L 1172 3500 
L 2356 3500 
L 2356 3053 
L 1172 3053 
L 1172 1153 
Q 1172 725 1289 603 
Q 1406 481 1766 481 
L 2356 481 
L 2356 0 
L 1766 0 
Q 1100 0 847 248 
Q 594 497 594 1153 
L 594 3053 
L 172 3053 
L 172 3500 
L 594 3500 
L 594 4494 
L 1172 4494 
z
" transform="scale(0.015625)"/>
       <path id="DejaVuSans-79" d="M 2059 -325 
Q 1816 -950 1584 -1140 
Q 1353 -1331 966 -1331 
L 506 -1331 
L 506 -850 
L 844 -850 
Q 1081 -850 1212 -737 
Q 1344 -625 1503 -206 
L 1606 56 
L 191 3500 
L 800 3500 
L 1894 763 
L 2988 3500 
L 3597 3500 
L 2059 -325 
z
" transform="scale(0.015625)"/>
       <path id="DejaVuSans-20" transform="scale(0.015625)"/>
       <path id="DejaVuSans-66" d="M 2375 4863 
L 2375 4384 
L 1825 4384 
Q 1516 4384 1395 4259 
Q 1275 4134 1275 3809 
L 1275 3500 
L 2222 3500 
L 2222 3053 
L 1275 3053 
L 1275 0 
L 697 0 
L 697 3053 
L 147 3053 
L 147 3500 
L 697 3500 
L 697 3744 
Q 697 4328 969 4595 
Q 1241 4863 1831 4863 
L 2375 4863 
z
" transform="scale(0.015625)"/>
       <path id="DejaVuSans-63" d="M 3122 3366 
L 3122 2828 
Q 2878 2963 2633 3030 
Q 2388 3097 2138 3097 
Q 1578 3097 1268 2742 
Q 959 2388 959 1747 
Q 959 1106 1268 751 
Q 1578 397 2138 397 
Q 2388 397 2633 464 
Q 2878 531 3122 666 
L 3122 134 
Q 2881 22 2623 -34 
Q 2366 -91 2075 -91 
Q 1284 -91 818 406 
Q 353 903 353 1747 
Q 353 2603 823 3093 
Q 1294 3584 2113 3584 
Q 2378 3584 2631 3529 
Q 2884 3475 3122 3366 
z
" transform="scale(0.015625)"/>
       <path id="DejaVuSans-73" d="M 2834 3397 
L 2834 2853 
Q 2591 2978 2328 3040 
Q 2066 3103 1784 3103 
Q 1356 3103 1142 2972 
Q 928 2841 928 2578 
Q 928 2378 1081 2264 
Q 1234 2150 1697 2047 
L 1894 2003 
Q 2506 1872 2764 1633 
Q 3022 1394 3022 966 
Q 3022 478 2636 193 
Q 2250 -91 1575 -91 
Q 1294 -91 989 -36 
Q 684 19 347 128 
L 347 722 
Q 666 556 975 473 
Q 1284 391 1588 391 
Q 1994 391 2212 530 
Q 2431 669 2431 922 
Q 2431 1156 2273 1281 
Q 2116 1406 1581 1522 
L 1381 1569 
Q 847 1681 609 1914 
Q 372 2147 372 2553 
Q 372 3047 722 3315 
Q 1072 3584 1716 3584 
Q 2034 3584 2315 3537 
Q 2597 3491 2834 3397 
z
" transform="scale(0.015625)"/>
       <path id="DejaVuSans-70" d="M 1159 525 
L 1159 -1331 
L 581 -1331 
L 581 3500 
L 1159 3500 
L 1159 2969 
Q 1341 3281 1617 3432 
Q 1894 3584 2278 3584 
Q 2916 3584 3314 3078 
Q 3713 2572 3713 1747 
Q 3713 922 3314 415 
Q 2916 -91 2278 -91 
Q 1894 -91 1617 61 
Q 1341 213 1159 525 
z
M 3116 1747 
Q 3116 2381 2855 2742 
Q 2594 3103 2138 3103 
Q 1681 3103 1420 2742 
Q 1159 2381 1159 1747 
Q 1159 1113 1420 752 
Q 1681 391 2138 391 
Q 2594 391 2855 752 
Q 3116 1113 3116 1747 
z
" transform="scale(0.015625)"/>
       <path id="DejaVuSans-6e" d="M 3513 2113 
L 3513 0 
L 2938 0 
L 2938 2094 
Q 2938 2591 2744 2837 
Q 2550 3084 2163 3084 
Q 1697 3084 1428 2787 
Q 1159 2491 1159 1978 
L 1159 0 
L 581 0 
L 581 3500 
L 1159 3500 
L 1159 2956 
Q 1366 3272 1645 3428 
Q 1925 3584 2291 3584 
Q 2894 3584 3203 3211 
Q 3513 2838 3513 2113 
z
" transform="scale(0.015625)"/>
      </defs>
      <use xlink:href="#DejaVuSans-50"/>
      <use xlink:href="#DejaVuSans-72" x="58.552734"/>
      <use xlink:href="#DejaVuSans-6f" x="97.416016"/>
      <use xlink:href="#DejaVuSans-62" x="158.597656"/>
      <use xlink:href="#DejaVuSans-61" x="222.074219"/>
      <use xlink:href="#DejaVuSans-62" x="283.353516"/>
      <use xlink:href="#DejaVuSans-69" x="346.830078"/>
      <use xlink:href="#DejaVuSans-6c" x="374.613281"/>
      <use xlink:href="#DejaVuSans-69" x="402.396484"/>
      <use xlink:href="#DejaVuSans-74" x="430.179688"/>
      <use xlink:href="#DejaVuSans-79" x="469.388672"/>
      <use xlink:href="#DejaVuSans-20" x="528.568359"/>
      <use xlink:href="#DejaVuSans-6f" x="560.355469"/>
      <use xlink:href="#DejaVuSans-66" x="621.537109"/>
      <use xlink:href="#DejaVuSans-20" x="656.742188"/>
      <use xlink:href="#DejaVuSans-63" x="688.529297"/>
      <use xlink:href="#DejaVuSans-6f" x="743.509766"/>
      <use xlink:href="#DejaVuSans-72" x="804.691406"/>
      <use xlink:href="#DejaVuSans-72" x="844.054688"/>
      <use xlink:href="#DejaVuSans-65" x="882.917969"/>
      <use xlink:href="#DejaVuSans-63" x="944.441406"/>
      <use xlink:href="#DejaVuSans-74" x="999.421875"/>
      <use xlink:href="#DejaVuSans-20" x="1038.630859"/>
      <use xlink:href="#DejaVuSans-72" x="1070.417969"/>
      <use xlink:href="#DejaVuSans-65" x="1109.28125"/>
      <use xlink:href="#DejaVuSans-73" x="1170.804688"/>
      <use xlink:href="#DejaVuSans-70" x="1222.904297"/>
      <use xlink:href="#DejaVuSans-6f" x="1286.380859"/>
      <use xlink:href="#DejaVuSans-6e" x="1347.5625"/>
      <use xlink:href="#DejaVuSans-73" x="1410.941406"/>
      <use xlink:href="#DejaVuSans-65" x="1463.041016"/>
     </g>
    </g>
   </g>
   <g id="PolyCollection_1">
    <defs>
     <path id="m2f3531b6e3" d="M 105.385683 -148.842296 
L 75.183382 -148.842296 
L 74.555405 -149.410266 
L 73.922054 -149.978235 
L 73.284399 -150.546205 
L 72.643556 -151.114174 
L 72.00069 -151.682144 
L 71.357004 -152.250113 
L 70.713744 -152.818083 
L 70.072192 -153.386052 
L 69.433661 -153.954022 
L 68.799491 -154.521991 
L 68.171042 -155.089961 
L 67.549686 -155.65793 
L 66.9368 -156.2259 
L 66.333759 -156.793869 
L 65.741924 -157.361839 
L 65.162637 -157.929808 
L 64.597207 -158.497778 
L 64.046906 -159.065747 
L 63.512957 -159.633717 
L 62.996526 -160.201686 
L 62.49872 -160.769656 
L 62.020574 -161.337626 
L 61.563051 -161.905595 
L 61.127038 -162.473565 
L 60.713342 -163.041534 
L 60.322695 -163.609504 
L 59.955747 -164.177473 
L 59.613079 -164.745443 
L 59.295199 -165.313412 
L 59.002553 -165.881382 
L 58.735528 -166.449351 
L 58.494464 -167.017321 
L 58.279659 -167.58529 
L 58.091379 -168.15326 
L 57.929865 -168.721229 
L 57.795345 -169.289199 
L 57.688035 -169.857168 
L 57.608152 -170.425138 
L 57.555914 -170.993107 
L 57.531545 -171.561077 
L 57.535279 -172.129046 
L 57.567352 -172.697016 
L 57.628006 -173.264985 
L 57.71748 -173.832955 
L 57.836004 -174.400924 
L 57.983788 -174.968894 
L 58.161011 -175.536863 
L 58.367808 -176.104833 
L 58.604256 -176.672802 
L 58.870357 -177.240772 
L 59.166022 -177.808741 
L 59.491055 -178.376711 
L 59.845138 -178.94468 
L 60.227815 -179.51265 
L 60.638477 -180.080619 
L 61.076355 -180.648589 
L 61.540505 -181.216558 
L 62.029805 -181.784528 
L 62.54295 -182.352497 
L 63.078454 -182.920467 
L 63.634649 -183.488436 
L 64.209698 -184.056406 
L 64.8016 -184.624375 
L 65.408207 -185.192345 
L 66.027245 -185.760314 
L 66.656327 -186.328284 
L 67.292986 -186.896253 
L 67.934695 -187.464223 
L 68.578897 -188.032192 
L 69.223037 -188.600162 
L 69.864589 -189.168132 
L 70.501087 -189.736101 
L 71.13016 -190.304071 
L 71.749556 -190.87204 
L 72.35717 -191.44001 
L 72.951073 -192.007979 
L 73.529532 -192.575949 
L 74.091031 -193.143918 
L 74.634284 -193.711888 
L 75.158252 -194.279857 
L 75.662145 -194.847827 
L 76.145431 -195.415796 
L 76.607831 -195.983766 
L 77.049319 -196.551735 
L 77.470108 -197.119705 
L 77.870639 -197.687674 
L 78.251567 -198.255644 
L 78.613738 -198.823613 
L 78.958169 -199.391583 
L 79.28602 -199.959552 
L 79.598574 -200.527522 
L 79.897203 -201.095491 
L 80.183344 -201.663461 
L 80.458469 -202.23143 
L 80.72406 -202.7994 
L 80.98158 -203.367369 
L 81.232448 -203.935339 
L 81.478019 -204.503308 
L 81.719559 -205.071278 
L 98.849506 -205.071278 
L 98.849506 -205.071278 
L 99.091046 -204.503308 
L 99.336617 -203.935339 
L 99.587485 -203.367369 
L 99.845005 -202.7994 
L 100.110596 -202.23143 
L 100.385721 -201.663461 
L 100.671862 -201.095491 
L 100.970491 -200.527522 
L 101.283045 -199.959552 
L 101.610896 -199.391583 
L 101.955326 -198.823613 
L 102.317498 -198.255644 
L 102.698426 -197.687674 
L 103.098957 -197.119705 
L 103.519746 -196.551735 
L 103.961234 -195.983766 
L 104.423634 -195.415796 
L 104.90692 -194.847827 
L 105.410813 -194.279857 
L 105.93478 -193.711888 
L 106.478034 -193.143918 
L 107.039533 -192.575949 
L 107.617992 -192.007979 
L 108.211895 -191.44001 
L 108.819509 -190.87204 
L 109.438905 -190.304071 
L 110.067978 -189.736101 
L 110.704476 -189.168132 
L 111.346028 -188.600162 
L 111.990168 -188.032192 
L 112.63437 -187.464223 
L 113.276079 -186.896253 
L 113.912738 -186.328284 
L 114.54182 -185.760314 
L 115.160858 -185.192345 
L 115.767465 -184.624375 
L 116.359367 -184.056406 
L 116.934416 -183.488436 
L 117.490611 -182.920467 
L 118.026115 -182.352497 
L 118.53926 -181.784528 
L 119.02856 -181.216558 
L 119.49271 -180.648589 
L 119.930588 -180.080619 
L 120.34125 -179.51265 
L 120.723927 -178.94468 
L 121.07801 -178.376711 
L 121.403043 -177.808741 
L 121.698708 -177.240772 
L 121.964809 -176.672802 
L 122.201257 -176.104833 
L 122.408054 -175.536863 
L 122.585277 -174.968894 
L 122.733061 -174.400924 
L 122.851585 -173.832955 
L 122.941059 -173.264985 
L 123.001713 -172.697016 
L 123.033786 -172.129046 
L 123.037519 -171.561077 
L 123.013151 -170.993107 
L 122.960913 -170.425138 
L 122.88103 -169.857168 
L 122.77372 -169.289199 
L 122.639199 -168.721229 
L 122.477686 -168.15326 
L 122.289406 -167.58529 
L 122.074601 -167.017321 
L 121.833537 -166.449351 
L 121.566512 -165.881382 
L 121.273866 -165.313412 
L 120.955986 -164.745443 
L 120.613318 -164.177473 
L 120.24637 -163.609504 
L 119.855723 -163.041534 
L 119.442027 -162.473565 
L 119.006014 -161.905595 
L 118.548491 -161.337626 
L 118.070345 -160.769656 
L 117.572539 -160.201686 
L 117.056108 -159.633717 
L 116.522159 -159.065747 
L 115.971858 -158.497778 
L 115.406428 -157.929808 
L 114.827141 -157.361839 
L 114.235306 -156.793869 
L 113.632265 -156.2259 
L 113.019379 -155.65793 
L 112.398023 -155.089961 
L 111.769574 -154.521991 
L 111.135404 -153.954022 
L 110.496873 -153.386052 
L 109.855321 -152.818083 
L 109.212061 -152.250113 
L 108.568375 -151.682144 
L 107.925509 -151.114174 
L 107.284666 -150.546205 
L 106.647011 -149.978235 
L 106.013659 -149.410266 
L 105.385683 -148.842296 
z
" style="stroke: #2f2f2f"/>
    </defs>
    <g clip-path="url(#p7982751e1b)">
     <use xlink:href="#m2f3531b6e3" x="0" y="288" style="fill: #58b2a3; stroke: #2f2f2f"/>
    </g>
   </g>
   <g id="PolyCollection_2">
    <defs>
     <path id="m43d6c54b5b" d="M 186.98489 -149.859095 
L 157.34911 -149.859095 
L 157.026007 -150.567773 
L 156.710952 -151.276451 
L 156.403342 -151.985129 
L 156.102418 -152.693807 
L 155.807279 -153.402485 
L 155.516888 -154.111164 
L 155.230091 -154.819842 
L 154.945634 -155.52852 
L 154.662181 -156.237198 
L 154.378336 -156.945876 
L 154.092666 -157.654554 
L 153.803726 -158.363232 
L 153.510081 -159.07191 
L 153.210339 -159.780588 
L 152.903166 -160.489266 
L 152.587324 -161.197944 
L 152.261685 -161.906622 
L 151.92526 -162.6153 
L 151.577221 -163.323978 
L 151.216919 -164.032656 
L 150.843902 -164.741334 
L 150.457934 -165.450012 
L 150.058999 -166.15869 
L 149.647316 -166.867368 
L 149.223344 -167.576046 
L 148.787782 -168.284725 
L 148.341566 -168.993403 
L 147.885868 -169.702081 
L 147.422085 -170.410759 
L 146.951824 -171.119437 
L 146.476891 -171.828115 
L 145.999272 -172.536793 
L 145.521109 -173.245471 
L 145.044678 -173.954149 
L 144.572364 -174.662827 
L 144.106634 -175.371505 
L 143.650007 -176.080183 
L 143.205028 -176.788861 
L 142.774234 -177.497539 
L 142.36013 -178.206217 
L 141.965155 -178.914895 
L 141.591659 -179.623573 
L 141.241873 -180.332251 
L 140.91789 -181.040929 
L 140.621635 -181.749608 
L 140.354853 -182.458286 
L 140.119086 -183.166964 
L 139.915662 -183.875642 
L 139.745684 -184.58432 
L 139.61002 -185.292998 
L 139.5093 -186.001676 
L 139.443914 -186.710354 
L 139.414013 -187.419032 
L 139.419515 -188.12771 
L 139.46011 -188.836388 
L 139.535274 -189.545066 
L 139.644278 -190.253744 
L 139.786204 -190.962422 
L 139.959963 -191.6711 
L 140.164313 -192.379778 
L 140.397875 -193.088456 
L 140.659158 -193.797134 
L 140.946578 -194.505812 
L 141.258479 -195.21449 
L 141.593155 -195.923169 
L 141.948871 -196.631847 
L 142.323881 -197.340525 
L 142.716449 -198.049203 
L 143.124867 -198.757881 
L 143.547468 -199.466559 
L 143.982649 -200.175237 
L 144.428873 -200.883915 
L 144.88469 -201.592593 
L 145.34874 -202.301271 
L 145.819763 -203.009949 
L 146.296605 -203.718627 
L 146.778217 -204.427305 
L 147.263662 -205.135983 
L 147.75211 -205.844661 
L 148.24284 -206.553339 
L 148.73523 -207.262017 
L 149.228758 -207.970695 
L 149.72299 -208.679373 
L 150.217578 -209.388051 
L 150.712245 -210.09673 
L 151.20678 -210.805408 
L 151.701027 -211.514086 
L 152.194874 -212.222764 
L 152.688243 -212.931442 
L 153.18108 -213.64012 
L 153.673344 -214.348798 
L 154.165 -215.057476 
L 154.656006 -215.766154 
L 155.146308 -216.474832 
L 155.63583 -217.18351 
L 156.124471 -217.892188 
L 156.612094 -218.600866 
L 157.098527 -219.309544 
L 157.583556 -220.018222 
L 186.750444 -220.018222 
L 186.750444 -220.018222 
L 187.235473 -219.309544 
L 187.721906 -218.600866 
L 188.209529 -217.892188 
L 188.69817 -217.18351 
L 189.187692 -216.474832 
L 189.677994 -215.766154 
L 190.169 -215.057476 
L 190.660656 -214.348798 
L 191.15292 -213.64012 
L 191.645757 -212.931442 
L 192.139126 -212.222764 
L 192.632973 -211.514086 
L 193.12722 -210.805408 
L 193.621755 -210.09673 
L 194.116422 -209.388051 
L 194.61101 -208.679373 
L 195.105242 -207.970695 
L 195.59877 -207.262017 
L 196.09116 -206.553339 
L 196.58189 -205.844661 
L 197.070338 -205.135983 
L 197.555783 -204.427305 
L 198.037395 -203.718627 
L 198.514237 -203.009949 
L 198.98526 -202.301271 
L 199.44931 -201.592593 
L 199.905127 -200.883915 
L 200.351351 -200.175237 
L 200.786532 -199.466559 
L 201.209133 -198.757881 
L 201.617551 -198.049203 
L 202.010119 -197.340525 
L 202.385129 -196.631847 
L 202.740845 -195.923169 
L 203.075521 -195.21449 
L 203.387422 -194.505812 
L 203.674842 -193.797134 
L 203.936125 -193.088456 
L 204.169687 -192.379778 
L 204.374037 -191.6711 
L 204.547796 -190.962422 
L 204.689722 -190.253744 
L 204.798726 -189.545066 
L 204.87389 -188.836388 
L 204.914485 -188.12771 
L 204.919987 -187.419032 
L 204.890086 -186.710354 
L 204.8247 -186.001676 
L 204.72398 -185.292998 
L 204.588316 -184.58432 
L 204.418338 -183.875642 
L 204.214914 -183.166964 
L 203.979147 -182.458286 
L 203.712365 -181.749608 
L 203.41611 -181.040929 
L 203.092127 -180.332251 
L 202.742341 -179.623573 
L 202.368845 -178.914895 
L 201.97387 -178.206217 
L 201.559766 -177.497539 
L 201.128972 -176.788861 
L 200.683993 -176.080183 
L 200.227366 -175.371505 
L 199.761636 -174.662827 
L 199.289322 -173.954149 
L 198.812891 -173.245471 
L 198.334728 -172.536793 
L 197.857109 -171.828115 
L 197.382176 -171.119437 
L 196.911915 -170.410759 
L 196.448132 -169.702081 
L 195.992434 -168.993403 
L 195.546218 -168.284725 
L 195.110656 -167.576046 
L 194.686684 -166.867368 
L 194.275001 -166.15869 
L 193.876066 -165.450012 
L 193.490098 -164.741334 
L 193.117081 -164.032656 
L 192.756779 -163.323978 
L 192.40874 -162.6153 
L 192.072315 -161.906622 
L 191.746676 -161.197944 
L 191.430834 -160.489266 
L 191.123661 -159.780588 
L 190.823919 -159.07191 
L 190.530274 -158.363232 
L 190.241334 -157.654554 
L 189.955664 -156.945876 
L 189.671819 -156.237198 
L 189.388366 -155.52852 
L 189.103909 -154.819842 
L 188.817112 -154.111164 
L 188.526721 -153.402485 
L 188.231582 -152.693807 
L 187.930658 -151.985129 
L 187.623048 -151.276451 
L 187.307993 -150.567773 
L 186.98489 -149.859095 
z
" style="stroke: #2f2f2f"/>
    </defs>
    <g clip-path="url(#p7982751e1b)">
     <use xlink:href="#m43d6c54b5b" x="0" y="288" style="fill: #437695; stroke: #2f2f2f"/>
    </g>
   </g>
   <g id="PolyCollection_3">
    <defs>
     <path id="me942f49fff" d="M 282.762834 -161.417979 
L 225.336101 -161.417979 
L 224.830395 -161.923626 
L 224.358798 -162.429274 
L 223.922065 -162.934922 
L 223.520694 -163.44057 
L 223.154921 -163.946218 
L 222.824721 -164.451865 
L 222.529813 -164.957513 
L 222.269662 -165.463161 
L 222.043492 -165.968809 
L 221.850297 -166.474457 
L 221.688856 -166.980104 
L 221.55775 -167.485752 
L 221.455384 -167.9914 
L 221.380006 -168.497048 
L 221.329735 -169.002696 
L 221.302582 -169.508343 
L 221.296481 -170.013991 
L 221.309312 -170.519639 
L 221.338933 -171.025287 
L 221.383205 -171.530935 
L 221.440018 -172.036582 
L 221.507322 -172.54223 
L 221.583148 -173.047878 
L 221.665634 -173.553526 
L 221.753048 -174.059174 
L 221.843804 -174.564821 
L 221.936485 -175.070469 
L 222.029853 -175.576117 
L 222.122867 -176.081765 
L 222.214684 -176.587413 
L 222.304675 -177.093061 
L 222.39242 -177.598708 
L 222.477714 -178.104356 
L 222.560559 -178.610004 
L 222.641163 -179.115652 
L 222.719929 -179.6213 
L 222.797441 -180.126947 
L 222.874455 -180.632595 
L 222.95188 -181.138243 
L 223.03076 -181.643891 
L 223.112254 -182.149539 
L 223.197617 -182.655186 
L 223.288172 -183.160834 
L 223.385294 -183.666482 
L 223.490383 -184.17213 
L 223.604838 -184.677778 
L 223.73004 -185.183425 
L 223.867323 -185.689073 
L 224.017956 -186.194721 
L 224.183124 -186.700369 
L 224.363905 -187.206017 
L 224.561255 -187.711664 
L 224.775993 -188.217312 
L 225.008791 -188.72296 
L 225.260158 -189.228608 
L 225.530435 -189.734256 
L 225.819792 -190.239903 
L 226.12822 -190.745551 
L 226.455535 -191.251199 
L 226.801379 -191.756847 
L 227.165226 -192.262495 
L 227.546385 -192.768142 
L 227.944015 -193.27379 
L 228.357133 -193.779438 
L 228.78463 -194.285086 
L 229.225282 -194.790734 
L 229.677769 -195.296381 
L 230.140694 -195.802029 
L 230.612596 -196.307677 
L 231.091972 -196.813325 
L 231.577296 -197.318973 
L 232.067036 -197.82462 
L 232.559673 -198.330268 
L 233.05372 -198.835916 
L 233.547733 -199.341564 
L 234.040336 -199.847212 
L 234.530224 -200.352859 
L 235.016185 -200.858507 
L 235.497106 -201.364155 
L 235.971983 -201.869803 
L 236.439928 -202.375451 
L 236.900173 -202.881098 
L 237.352075 -203.386746 
L 237.795119 -203.892394 
L 238.228911 -204.398042 
L 238.65318 -204.90369 
L 239.067773 -205.409337 
L 239.47265 -205.914985 
L 239.867873 -206.420633 
L 240.253601 -206.926281 
L 240.630078 -207.431929 
L 240.997623 -207.937576 
L 241.35662 -208.443224 
L 241.707504 -208.948872 
L 242.050751 -209.45452 
L 242.386864 -209.960168 
L 242.716365 -210.465816 
L 243.039778 -210.971463 
L 243.357624 -211.477111 
L 264.741311 -211.477111 
L 264.741311 -211.477111 
L 265.059157 -210.971463 
L 265.38257 -210.465816 
L 265.712071 -209.960168 
L 266.048184 -209.45452 
L 266.391431 -208.948872 
L 266.742316 -208.443224 
L 267.101312 -207.937576 
L 267.468858 -207.431929 
L 267.845334 -206.926281 
L 268.231062 -206.420633 
L 268.626285 -205.914985 
L 269.031162 -205.409337 
L 269.445755 -204.90369 
L 269.870024 -204.398042 
L 270.303816 -203.892394 
L 270.74686 -203.386746 
L 271.198762 -202.881098 
L 271.659007 -202.375451 
L 272.126952 -201.869803 
L 272.601829 -201.364155 
L 273.08275 -200.858507 
L 273.568711 -200.352859 
L 274.0586 -199.847212 
L 274.551202 -199.341564 
L 275.045215 -198.835916 
L 275.539262 -198.330268 
L 276.031899 -197.82462 
L 276.521639 -197.318973 
L 277.006963 -196.813325 
L 277.486339 -196.307677 
L 277.958241 -195.802029 
L 278.421166 -195.296381 
L 278.873653 -194.790734 
L 279.314305 -194.285086 
L 279.741802 -193.779438 
L 280.15492 -193.27379 
L 280.55255 -192.768142 
L 280.933709 -192.262495 
L 281.297556 -191.756847 
L 281.6434 -191.251199 
L 281.970715 -190.745551 
L 282.279144 -190.239903 
L 282.5685 -189.734256 
L 282.838778 -189.228608 
L 283.090144 -188.72296 
L 283.322942 -188.217312 
L 283.537681 -187.711664 
L 283.73503 -187.206017 
L 283.915811 -186.700369 
L 284.080979 -186.194721 
L 284.231612 -185.689073 
L 284.368895 -185.183425 
L 284.494097 -184.677778 
L 284.608552 -184.17213 
L 284.713641 -183.666482 
L 284.810763 -183.160834 
L 284.901319 -182.655186 
L 284.986681 -182.149539 
L 285.068175 -181.643891 
L 285.147055 -181.138243 
L 285.22448 -180.632595 
L 285.301494 -180.126947 
L 285.379006 -179.6213 
L 285.457772 -179.115652 
L 285.538376 -178.610004 
L 285.621221 -178.104356 
L 285.706515 -177.598708 
L 285.79426 -177.093061 
L 285.884251 -176.587413 
L 285.976068 -176.081765 
L 286.069082 -175.576117 
L 286.16245 -175.070469 
L 286.255131 -174.564821 
L 286.345887 -174.059174 
L 286.433301 -173.553526 
L 286.515787 -173.047878 
L 286.591613 -172.54223 
L 286.658917 -172.036582 
L 286.71573 -171.530935 
L 286.760002 -171.025287 
L 286.789623 -170.519639 
L 286.802455 -170.013991 
L 286.796353 -169.508343 
L 286.7692 -169.002696 
L 286.718929 -168.497048 
L 286.643551 -167.9914 
L 286.541185 -167.485752 
L 286.410079 -166.980104 
L 286.248638 -166.474457 
L 286.055443 -165.968809 
L 285.829273 -165.463161 
L 285.569122 -164.957513 
L 285.274214 -164.451865 
L 284.944014 -163.946218 
L 284.578241 -163.44057 
L 284.17687 -162.934922 
L 283.740137 -162.429274 
L 283.26854 -161.923626 
L 282.762834 -161.417979 
z
" style="stroke: #2f2f2f"/>
    </defs>
    <g clip-path="url(#p7982751e1b)">
     <use xlink:href="#me942f49fff" x="0" y="288" style="fill: #423b63; stroke: #2f2f2f"/>
    </g>
   </g>
   <g id="line2d_11">
    <path d="M 90.284532 139.157704 
L 90.284532 82.928722 
" clip-path="url(#p7982751e1b)" style="fill: none; stroke: #2f2f2f; stroke-width: 1.5; stroke-linecap: round"/>
   </g>
   <g id="line2d_12">
    <path d="M 90.284532 123.827504 
L 90.284532 105.277963 
" clip-path="url(#p7982751e1b)" style="fill: none; stroke: #2f2f2f; stroke-width: 4.5; stroke-linecap: round"/>
   </g>
   <g id="line2d_13">
    <path d="M 90.284532 115.072075 
" clip-path="url(#p7982751e1b)" style="fill: none; stroke: #2f2f2f; stroke-width: 1.2; stroke-linecap: round"/>
    <defs>
     <path id="m30317c2e00" d="M 1.875 0 
L -1.875 -0 
" style="stroke: #ffffff; stroke-width: 0.9"/>
    </defs>
    <g clip-path="url(#p7982751e1b)">
     <use xlink:href="#m30317c2e00" x="90.284532" y="115.072075" style="fill: #ffffff; stroke: #ffffff; stroke-width: 0.9"/>
    </g>
   </g>
   <g id="line2d_14">
    <path d="M 172.167 138.140905 
L 172.167 67.981778 
" clip-path="url(#p7982751e1b)" style="fill: none; stroke: #2f2f2f; stroke-width: 1.5; stroke-linecap: round"/>
   </g>
   <g id="line2d_15">
    <path d="M 172.167 109.886604 
L 172.167 91.038352 
" clip-path="url(#p7982751e1b)" style="fill: none; stroke: #2f2f2f; stroke-width: 4.5; stroke-linecap: round"/>
   </g>
   <g id="line2d_16">
    <path d="M 172.167 104.506831 
" clip-path="url(#p7982751e1b)" style="fill: none; stroke: #2f2f2f; stroke-width: 1.2; stroke-linecap: round"/>
    <g clip-path="url(#p7982751e1b)">
     <use xlink:href="#m30317c2e00" x="172.167" y="104.506831" style="fill: #ffffff; stroke: #ffffff; stroke-width: 0.9"/>
    </g>
   </g>
   <g id="line2d_17">
    <path d="M 254.049468 126.582021 
L 254.049468 76.522889 
" clip-path="url(#p7982751e1b)" style="fill: none; stroke: #2f2f2f; stroke-width: 1.5; stroke-linecap: round"/>
   </g>
   <g id="line2d_18">
    <path d="M 254.049468 122.851946 
L 254.049468 96.422797 
" clip-path="url(#p7982751e1b)" style="fill: none; stroke: #2f2f2f; stroke-width: 4.5; stroke-linecap: round"/>
   </g>
   <g id="line2d_19">
    <path d="M 254.049468 107.868767 
" clip-path="url(#p7982751e1b)" style="fill: none; stroke: #2f2f2f; stroke-width: 1.2; stroke-linecap: round"/>
    <g clip-path="url(#p7982751e1b)">
     <use xlink:href="#m30317c2e00" x="254.049468" y="107.868767" style="fill: #ffffff; stroke: #ffffff; stroke-width: 0.9"/>
    </g>
   </g>
   <g id="line2d_20">
    <path d="M 90.284532 64.394511 
L 90.284532 60.807244 
L 172.167 60.807244 
L 172.167 64.394511 
" clip-path="url(#p7982751e1b)" style="fill: none; stroke: #000000; stroke-linecap: round"/>
   </g>
   <g id="line2d_21">
    <path d="M 172.167 50.045444 
L 172.167 46.458178 
L 254.049468 46.458178 
L 254.049468 50.045444 
" clip-path="url(#p7982751e1b)" style="fill: none; stroke: #000000; stroke-linecap: round"/>
   </g>
   <g id="line2d_22">
    <path d="M 90.284532 35.696378 
L 90.284532 32.109111 
L 254.049468 32.109111 
L 254.049468 35.696378 
" clip-path="url(#p7982751e1b)" style="fill: none; stroke: #000000; stroke-linecap: round"/>
   </g>
   <g id="patch_3">
    <path d="M 46.068 238.804 
L 46.068 23.568 
" style="fill: none; stroke: #262626; stroke-linejoin: miter; stroke-linecap: square"/>
   </g>
   <g id="patch_4">
    <path d="M 298.266 238.804 
L 298.266 23.568 
" style="fill: none; stroke: #262626; stroke-linejoin: miter; stroke-linecap: square"/>
   </g>
   <g id="patch_5">
    <path d="M 46.068 238.804 
L 298.266 238.804 
" style="fill: none; stroke: #262626; stroke-linejoin: miter; stroke-linecap: square"/>
   </g>
   <g id="patch_6">
    <path d="M 46.068 23.568 
L 298.266 23.568 
" style="fill: none; stroke: #262626; stroke-linejoin: miter; stroke-linecap: square"/>
   </g>
   <g id="text_12">
    <!-- ns -->
    <g transform="translate(125.683266 55.223478) scale(0.096 -0.096)">
     <use xlink:href="#DejaVuSans-6e"/>
     <use xlink:href="#DejaVuSans-73" x="63.378906"/>
    </g>
   </g>
   <g id="text_13">
    <!-- ns -->
    <g transform="translate(207.565734 40.874411) scale(0.096 -0.096)">
     <use xlink:href="#DejaVuSans-6e"/>
     <use xlink:href="#DejaVuSans-73" x="63.378906"/>
    </g>
   </g>
   <g id="text_14">
    <!-- ns -->
    <g transform="translate(166.6245 26.525344) scale(0.096 -0.096)">
     <use xlink:href="#DejaVuSans-6e"/>
     <use xlink:href="#DejaVuSans-73" x="63.378906"/>
    </g>
   </g>
   <g id="text_15">
    <!-- Accuracy -->
    <g style="fill: #262626" transform="translate(150.252 17.568) scale(0.096 -0.096)">
     <defs>
      <path id="DejaVuSans-41" d="M 2188 4044 
L 1331 1722 
L 3047 1722 
L 2188 4044 
z
M 1831 4666 
L 2547 4666 
L 4325 0 
L 3669 0 
L 3244 1197 
L 1141 1197 
L 716 0 
L 50 0 
L 1831 4666 
z
" transform="scale(0.015625)"/>
     </defs>
     <use xlink:href="#DejaVuSans-41"/>
     <use xlink:href="#DejaVuSans-63" x="66.658203"/>
     <use xlink:href="#DejaVuSans-63" x="121.638672"/>
     <use xlink:href="#DejaVuSans-75" x="176.619141"/>
     <use xlink:href="#DejaVuSans-72" x="239.998047"/>
     <use xlink:href="#DejaVuSans-61" x="281.111328"/>
     <use xlink:href="#DejaVuSans-63" x="342.390625"/>
     <use xlink:href="#DejaVuSans-79" x="397.371094"/>
    </g>
   </g>
  </g>
  <g id="axes_2">
   <g id="patch_7">
    <path d="M 313.434 238.804 
L 565.632 238.804 
L 565.632 23.568 
L 313.434 23.568 
L 313.434 238.804 
z
" style="fill: none"/>
   </g>
   <g id="matplotlib.axis_3">
    <g id="xtick_4">
     <g id="line2d_23">
      <g>
       <use xlink:href="#m59d05d61bd" x="357.650532" y="238.804" style="fill: #262626; stroke: #262626"/>
      </g>
     </g>
     <g id="text_16">
      <!-- Low -->
      <g style="fill: #262626" transform="translate(348.985282 253.790625) scale(0.088 -0.088)">
       <use xlink:href="#DejaVuSans-4c"/>
       <use xlink:href="#DejaVuSans-6f" x="53.962891"/>
       <use xlink:href="#DejaVuSans-77" x="115.144531"/>
      </g>
     </g>
    </g>
    <g id="xtick_5">
     <g id="line2d_24">
      <g>
       <use xlink:href="#m59d05d61bd" x="439.533" y="238.804" style="fill: #262626; stroke: #262626"/>
      </g>
     </g>
     <g id="text_17">
      <!-- Medium -->
      <g style="fill: #262626" transform="translate(421.939188 253.790625) scale(0.088 -0.088)">
       <use xlink:href="#DejaVuSans-4d"/>
       <use xlink:href="#DejaVuSans-65" x="86.279297"/>
       <use xlink:href="#DejaVuSans-64" x="147.802734"/>
       <use xlink:href="#DejaVuSans-69" x="211.279297"/>
       <use xlink:href="#DejaVuSans-75" x="239.0625"/>
       <use xlink:href="#DejaVuSans-6d" x="302.441406"/>
      </g>
     </g>
    </g>
    <g id="xtick_6">
     <g id="line2d_25">
      <g>
       <use xlink:href="#m59d05d61bd" x="521.415468" y="238.804" style="fill: #262626; stroke: #262626"/>
      </g>
     </g>
     <g id="text_18">
      <!-- High -->
      <g style="fill: #262626" transform="translate(511.302343 253.790625) scale(0.088 -0.088)">
       <use xlink:href="#DejaVuSans-48"/>
       <use xlink:href="#DejaVuSans-69" x="75.195312"/>
       <use xlink:href="#DejaVuSans-67" x="102.978516"/>
       <use xlink:href="#DejaVuSans-68" x="166.455078"/>
      </g>
     </g>
    </g>
   </g>
   <g id="matplotlib.axis_4">
    <g id="ytick_8">
     <g id="line2d_26">
      <g>
       <use xlink:href="#m3b9b2f70d7" x="313.434" y="238.804" style="fill: #262626; stroke: #262626"/>
      </g>
     </g>
    </g>
    <g id="ytick_9">
     <g id="line2d_27">
      <g>
       <use xlink:href="#m3b9b2f70d7" x="313.434" y="202.931333" style="fill: #262626; stroke: #262626"/>
      </g>
     </g>
    </g>
    <g id="ytick_10">
     <g id="line2d_28">
      <g>
       <use xlink:href="#m3b9b2f70d7" x="313.434" y="167.058667" style="fill: #262626; stroke: #262626"/>
      </g>
     </g>
    </g>
    <g id="ytick_11">
     <g id="line2d_29">
      <g>
       <use xlink:href="#m3b9b2f70d7" x="313.434" y="131.186" style="fill: #262626; stroke: #262626"/>
      </g>
     </g>
    </g>
    <g id="ytick_12">
     <g id="line2d_30">
      <g>
       <use xlink:href="#m3b9b2f70d7" x="313.434" y="95.313333" style="fill: #262626; stroke: #262626"/>
      </g>
     </g>
    </g>
    <g id="ytick_13">
     <g id="line2d_31">
      <g>
       <use xlink:href="#m3b9b2f70d7" x="313.434" y="59.440667" style="fill: #262626; stroke: #262626"/>
      </g>
     </g>
    </g>
    <g id="ytick_14">
     <g id="line2d_32">
      <g>
       <use xlink:href="#m3b9b2f70d7" x="313.434" y="23.568" style="fill: #262626; stroke: #262626"/>
      </g>
     </g>
    </g>
   </g>
   <g id="PolyCollection_4">
    <defs>
     <path id="m47c6d31b50" d="M 374.324656 -103.879943 
L 340.976409 -103.879943 
L 340.512459 -104.610904 
L 340.051274 -105.341864 
L 339.593348 -106.072824 
L 339.139154 -106.803785 
L 338.689138 -107.534745 
L 338.243731 -108.265706 
L 337.803336 -108.996666 
L 337.368341 -109.727627 
L 336.939112 -110.458587 
L 336.515996 -111.189548 
L 336.099326 -111.920508 
L 335.689417 -112.651469 
L 335.28657 -113.382429 
L 334.891076 -114.113389 
L 334.50321 -114.84435 
L 334.123241 -115.57531 
L 333.751426 -116.306271 
L 333.388013 -117.037231 
L 333.033245 -117.768192 
L 332.687352 -118.499152 
L 332.350558 -119.230113 
L 332.02308 -119.961073 
L 331.705123 -120.692033 
L 331.396879 -121.422994 
L 331.098533 -122.153954 
L 330.810249 -122.884915 
L 330.53218 -123.615875 
L 330.264455 -124.346836 
L 330.007185 -125.077796 
L 329.760454 -125.808757 
L 329.52432 -126.539717 
L 329.298807 -127.270678 
L 329.08391 -128.001638 
L 328.879583 -128.732598 
L 328.685745 -129.463559 
L 328.502272 -130.194519 
L 328.328994 -130.92548 
L 328.165698 -131.65644 
L 328.012126 -132.387401 
L 327.86797 -133.118361 
L 327.732877 -133.849322 
L 327.606447 -134.580282 
L 327.488235 -135.311242 
L 327.377755 -136.042203 
L 327.274477 -136.773163 
L 327.17784 -137.504124 
L 327.087249 -138.235084 
L 327.002081 -138.966045 
L 326.921696 -139.697005 
L 326.845438 -140.427966 
L 326.772646 -141.158926 
L 326.70266 -141.889887 
L 326.634829 -142.620847 
L 326.568521 -143.351807 
L 326.503134 -144.082768 
L 326.4381 -144.813728 
L 326.372899 -145.544689 
L 326.307066 -146.275649 
L 326.240201 -147.00661 
L 326.171976 -147.73757 
L 326.102145 -148.468531 
L 326.030552 -149.199491 
L 325.957137 -149.930452 
L 325.88194 -150.661412 
L 325.80511 -151.392372 
L 325.726908 -152.123333 
L 325.647706 -152.854293 
L 325.567995 -153.585254 
L 325.488379 -154.316214 
L 325.409579 -155.047175 
L 325.332426 -155.778135 
L 325.25786 -156.509096 
L 325.186926 -157.240056 
L 325.120762 -157.971016 
L 325.060595 -158.701977 
L 325.007732 -159.432937 
L 324.963546 -160.163898 
L 324.929466 -160.894858 
L 324.906965 -161.625819 
L 324.897545 -162.356779 
L 324.902725 -163.08774 
L 324.92402 -163.8187 
L 324.962933 -164.549661 
L 325.020935 -165.280621 
L 325.09945 -166.011581 
L 325.199842 -166.742542 
L 325.323393 -167.473502 
L 325.471298 -168.204463 
L 325.644642 -168.935423 
L 325.844393 -169.666384 
L 326.071387 -170.397344 
L 326.326318 -171.128305 
L 326.609727 -171.859265 
L 326.921997 -172.590226 
L 327.263343 -173.321186 
L 327.63381 -174.052146 
L 328.033267 -174.783107 
L 328.461407 -175.514067 
L 328.91775 -176.245028 
L 386.383315 -176.245028 
L 386.383315 -176.245028 
L 386.839657 -175.514067 
L 387.267798 -174.783107 
L 387.667255 -174.052146 
L 388.037722 -173.321186 
L 388.379068 -172.590226 
L 388.691338 -171.859265 
L 388.974747 -171.128305 
L 389.229677 -170.397344 
L 389.456671 -169.666384 
L 389.656423 -168.935423 
L 389.829767 -168.204463 
L 389.977672 -167.473502 
L 390.101223 -166.742542 
L 390.201615 -166.011581 
L 390.28013 -165.280621 
L 390.338132 -164.549661 
L 390.377045 -163.8187 
L 390.39834 -163.08774 
L 390.403519 -162.356779 
L 390.3941 -161.625819 
L 390.371599 -160.894858 
L 390.337519 -160.163898 
L 390.293333 -159.432937 
L 390.24047 -158.701977 
L 390.180303 -157.971016 
L 390.114139 -157.240056 
L 390.043205 -156.509096 
L 389.968639 -155.778135 
L 389.891486 -155.047175 
L 389.812686 -154.316214 
L 389.73307 -153.585254 
L 389.653358 -152.854293 
L 389.574157 -152.123333 
L 389.495955 -151.392372 
L 389.419125 -150.661412 
L 389.343928 -149.930452 
L 389.270513 -149.199491 
L 389.19892 -148.468531 
L 389.129089 -147.73757 
L 389.060864 -147.00661 
L 388.993999 -146.275649 
L 388.928166 -145.544689 
L 388.862965 -144.813728 
L 388.797931 -144.082768 
L 388.732544 -143.351807 
L 388.666236 -142.620847 
L 388.598405 -141.889887 
L 388.528419 -141.158926 
L 388.455626 -140.427966 
L 388.379369 -139.697005 
L 388.298984 -138.966045 
L 388.213816 -138.235084 
L 388.123225 -137.504124 
L 388.026588 -136.773163 
L 387.92331 -136.042203 
L 387.812829 -135.311242 
L 387.694618 -134.580282 
L 387.568188 -133.849322 
L 387.433095 -133.118361 
L 387.288939 -132.387401 
L 387.135367 -131.65644 
L 386.972071 -130.92548 
L 386.798793 -130.194519 
L 386.615319 -129.463559 
L 386.421482 -128.732598 
L 386.217155 -128.001638 
L 386.002258 -127.270678 
L 385.776745 -126.539717 
L 385.540611 -125.808757 
L 385.29388 -125.077796 
L 385.03661 -124.346836 
L 384.768885 -123.615875 
L 384.490816 -122.884915 
L 384.202532 -122.153954 
L 383.904185 -121.422994 
L 383.595942 -120.692033 
L 383.277985 -119.961073 
L 382.950506 -119.230113 
L 382.613713 -118.499152 
L 382.26782 -117.768192 
L 381.913051 -117.037231 
L 381.549639 -116.306271 
L 381.177824 -115.57531 
L 380.797855 -114.84435 
L 380.409989 -114.113389 
L 380.014495 -113.382429 
L 379.611648 -112.651469 
L 379.201739 -111.920508 
L 378.785069 -111.189548 
L 378.361953 -110.458587 
L 377.932724 -109.727627 
L 377.497729 -108.996666 
L 377.057334 -108.265706 
L 376.611926 -107.534745 
L 376.161911 -106.803785 
L 375.707716 -106.072824 
L 375.249791 -105.341864 
L 374.788606 -104.610904 
L 374.324656 -103.879943 
z
" style="stroke: #2f2f2f"/>
    </defs>
    <g clip-path="url(#p0194716c20)">
     <use xlink:href="#m47c6d31b50" x="0" y="288" style="fill: #58b2a3; stroke: #2f2f2f"/>
    </g>
   </g>
   <g id="PolyCollection_5">
    <defs>
     <path id="meb31ef806c" d="M 455.487662 -90.587538 
L 423.578338 -90.587538 
L 422.8725 -91.583777 
L 422.15572 -92.580015 
L 421.429443 -93.576253 
L 420.695274 -94.572491 
L 419.954981 -95.568729 
L 419.210496 -96.564968 
L 418.463915 -97.561206 
L 417.717487 -98.557444 
L 416.973615 -99.553682 
L 416.234839 -100.54992 
L 415.503826 -101.546158 
L 414.783358 -102.542397 
L 414.076307 -103.538635 
L 413.385617 -104.534873 
L 412.71428 -105.531111 
L 412.065312 -106.527349 
L 411.441718 -107.523588 
L 410.846472 -108.519826 
L 410.282477 -109.516064 
L 409.752537 -110.512302 
L 409.259325 -111.50854 
L 408.80535 -112.504778 
L 408.392922 -113.501017 
L 408.024129 -114.497255 
L 407.700801 -115.493493 
L 407.424488 -116.489731 
L 407.196434 -117.485969 
L 407.01756 -118.482208 
L 406.888442 -119.478446 
L 406.809306 -120.474684 
L 406.780013 -121.470922 
L 406.800059 -122.46716 
L 406.868577 -123.463398 
L 406.984339 -124.459637 
L 407.145774 -125.455875 
L 407.350976 -126.452113 
L 407.59773 -127.448351 
L 407.883531 -128.444589 
L 408.20562 -129.440827 
L 408.561007 -130.437066 
L 408.946511 -131.433304 
L 409.358797 -132.429542 
L 409.794413 -133.42578 
L 410.249832 -134.422018 
L 410.721489 -135.418257 
L 411.205829 -136.414495 
L 411.699339 -137.410733 
L 412.198592 -138.406971 
L 412.70028 -139.403209 
L 413.201253 -140.399447 
L 413.698546 -141.395686 
L 414.189412 -142.391924 
L 414.671339 -143.388162 
L 415.142079 -144.3844 
L 415.599658 -145.380638 
L 416.042392 -146.376877 
L 416.468892 -147.373115 
L 416.878067 -148.369353 
L 417.269127 -149.365591 
L 417.641572 -150.361829 
L 417.995188 -151.358067 
L 418.330034 -152.354306 
L 418.646425 -153.350544 
L 418.944912 -154.346782 
L 419.226267 -155.34302 
L 419.491456 -156.339258 
L 419.741615 -157.335497 
L 419.978028 -158.331735 
L 420.202098 -159.327973 
L 420.415326 -160.324211 
L 420.619279 -161.320449 
L 420.81557 -162.316687 
L 421.005834 -163.312926 
L 421.191703 -164.309164 
L 421.374787 -165.305402 
L 421.556653 -166.30164 
L 421.738811 -167.297878 
L 421.922694 -168.294116 
L 422.109647 -169.290355 
L 422.300916 -170.286593 
L 422.497638 -171.282831 
L 422.700834 -172.279069 
L 422.911405 -173.275307 
L 423.130126 -174.271546 
L 423.357646 -175.267784 
L 423.594488 -176.264022 
L 423.841048 -177.26026 
L 424.097601 -178.256498 
L 424.364302 -179.252736 
L 424.64119 -180.248975 
L 424.928197 -181.245213 
L 425.225148 -182.241451 
L 425.531771 -183.237689 
L 425.847705 -184.233927 
L 426.172503 -185.230166 
L 426.505641 -186.226404 
L 426.846528 -187.222642 
L 427.194506 -188.21888 
L 427.548867 -189.215118 
L 451.517133 -189.215118 
L 451.517133 -189.215118 
L 451.871494 -188.21888 
L 452.219472 -187.222642 
L 452.560359 -186.226404 
L 452.893497 -185.230166 
L 453.218295 -184.233927 
L 453.534229 -183.237689 
L 453.840852 -182.241451 
L 454.137803 -181.245213 
L 454.42481 -180.248975 
L 454.701698 -179.252736 
L 454.968399 -178.256498 
L 455.224952 -177.26026 
L 455.471512 -176.264022 
L 455.708354 -175.267784 
L 455.935874 -174.271546 
L 456.154595 -173.275307 
L 456.365166 -172.279069 
L 456.568362 -171.282831 
L 456.765084 -170.286593 
L 456.956353 -169.290355 
L 457.143306 -168.294116 
L 457.327189 -167.297878 
L 457.509347 -166.30164 
L 457.691213 -165.305402 
L 457.874297 -164.309164 
L 458.060166 -163.312926 
L 458.25043 -162.316687 
L 458.446721 -161.320449 
L 458.650674 -160.324211 
L 458.863902 -159.327973 
L 459.087972 -158.331735 
L 459.324385 -157.335497 
L 459.574544 -156.339258 
L 459.839733 -155.34302 
L 460.121088 -154.346782 
L 460.419575 -153.350544 
L 460.735966 -152.354306 
L 461.070812 -151.358067 
L 461.424428 -150.361829 
L 461.796873 -149.365591 
L 462.187933 -148.369353 
L 462.597108 -147.373115 
L 463.023608 -146.376877 
L 463.466342 -145.380638 
L 463.923921 -144.3844 
L 464.394661 -143.388162 
L 464.876588 -142.391924 
L 465.367454 -141.395686 
L 465.864747 -140.399447 
L 466.36572 -139.403209 
L 466.867408 -138.406971 
L 467.366661 -137.410733 
L 467.860171 -136.414495 
L 468.344511 -135.418257 
L 468.816168 -134.422018 
L 469.271587 -133.42578 
L 469.707203 -132.429542 
L 470.119489 -131.433304 
L 470.504993 -130.437066 
L 470.86038 -129.440827 
L 471.182469 -128.444589 
L 471.46827 -127.448351 
L 471.715024 -126.452113 
L 471.920226 -125.455875 
L 472.081661 -124.459637 
L 472.197423 -123.463398 
L 472.265941 -122.46716 
L 472.285987 -121.470922 
L 472.256694 -120.474684 
L 472.177558 -119.478446 
L 472.04844 -118.482208 
L 471.869566 -117.485969 
L 471.641512 -116.489731 
L 471.365199 -115.493493 
L 471.041871 -114.497255 
L 470.673078 -113.501017 
L 470.26065 -112.504778 
L 469.806675 -111.50854 
L 469.313463 -110.512302 
L 468.783523 -109.516064 
L 468.219528 -108.519826 
L 467.624282 -107.523588 
L 467.000688 -106.527349 
L 466.35172 -105.531111 
L 465.680383 -104.534873 
L 464.989693 -103.538635 
L 464.282642 -102.542397 
L 463.562174 -101.546158 
L 462.831161 -100.54992 
L 462.092385 -99.553682 
L 461.348513 -98.557444 
L 460.602085 -97.561206 
L 459.855504 -96.564968 
L 459.111019 -95.568729 
L 458.370726 -94.572491 
L 457.636557 -93.576253 
L 456.91028 -92.580015 
L 456.1935 -91.583777 
L 455.487662 -90.587538 
z
" style="stroke: #2f2f2f"/>
    </defs>
    <g clip-path="url(#p0194716c20)">
     <use xlink:href="#meb31ef806c" x="0" y="288" style="fill: #437695; stroke: #2f2f2f"/>
    </g>
   </g>
   <g id="PolyCollection_6">
    <defs>
     <path id="m322c09f51f" d="M 550.241636 -82.096966 
L 492.589299 -82.096966 
L 492.051318 -82.991949 
L 491.547362 -83.886931 
L 491.079279 -84.781913 
L 490.648776 -85.676895 
L 490.257401 -86.571877 
L 489.906536 -87.466859 
L 489.59739 -88.361841 
L 489.330985 -89.256823 
L 489.108158 -90.151805 
L 488.92955 -91.046787 
L 488.795604 -91.941769 
L 488.706567 -92.836752 
L 488.662481 -93.731734 
L 488.663191 -94.626716 
L 488.708346 -95.521698 
L 488.797398 -96.41668 
L 488.929612 -97.311662 
L 489.10407 -98.206644 
L 489.319675 -99.101626 
L 489.575163 -99.996608 
L 489.869112 -100.89159 
L 490.199949 -101.786572 
L 490.565962 -102.681555 
L 490.965312 -103.576537 
L 491.396043 -104.471519 
L 491.856096 -105.366501 
L 492.343321 -106.261483 
L 492.855489 -107.156465 
L 493.390306 -108.051447 
L 493.945425 -108.946429 
L 494.518458 -109.841411 
L 495.106994 -110.736393 
L 495.708603 -111.631375 
L 496.320857 -112.526358 
L 496.941335 -113.42134 
L 497.567641 -114.316322 
L 498.197408 -115.211304 
L 498.828316 -116.106286 
L 499.458098 -117.001268 
L 500.084549 -117.89625 
L 500.70554 -118.791232 
L 501.31902 -119.686214 
L 501.92303 -120.581196 
L 502.515706 -121.476179 
L 503.09529 -122.371161 
L 503.660131 -123.266143 
L 504.208697 -124.161125 
L 504.739572 -125.056107 
L 505.251468 -125.951089 
L 505.743225 -126.846071 
L 506.213814 -127.741053 
L 506.662341 -128.636035 
L 507.088047 -129.531017 
L 507.490311 -130.425999 
L 507.868649 -131.320982 
L 508.222715 -132.215964 
L 508.552302 -133.110946 
L 508.857338 -134.005928 
L 509.137882 -134.90091 
L 509.39413 -135.795892 
L 509.626403 -136.690874 
L 509.835146 -137.585856 
L 510.020927 -138.480838 
L 510.184428 -139.37582 
L 510.326439 -140.270802 
L 510.447857 -141.165785 
L 510.549674 -142.060767 
L 510.632972 -142.955749 
L 510.698914 -143.850731 
L 510.748739 -144.745713 
L 510.78375 -145.640695 
L 510.805308 -146.535677 
L 510.814819 -147.430659 
L 510.81373 -148.325641 
L 510.803512 -149.220623 
L 510.785659 -150.115605 
L 510.761669 -151.010588 
L 510.733043 -151.90557 
L 510.701266 -152.800552 
L 510.667807 -153.695534 
L 510.6341 -154.590516 
L 510.601544 -155.485498 
L 510.571486 -156.38048 
L 510.545218 -157.275462 
L 510.523968 -158.170444 
L 510.508892 -159.065426 
L 510.501066 -159.960408 
L 510.501482 -160.855391 
L 510.511044 -161.750373 
L 510.530561 -162.645355 
L 510.560742 -163.540337 
L 510.602197 -164.435319 
L 510.655434 -165.330301 
L 510.720854 -166.225283 
L 510.798756 -167.120265 
L 510.889333 -168.015247 
L 510.992677 -168.910229 
L 511.108779 -169.805211 
L 511.237533 -170.700194 
L 531.593402 -170.700194 
L 531.593402 -170.700194 
L 531.722156 -169.805211 
L 531.838258 -168.910229 
L 531.941602 -168.015247 
L 532.032179 -167.120265 
L 532.110081 -166.225283 
L 532.175501 -165.330301 
L 532.228738 -164.435319 
L 532.270193 -163.540337 
L 532.300374 -162.645355 
L 532.319891 -161.750373 
L 532.329453 -160.855391 
L 532.32987 -159.960408 
L 532.322043 -159.065426 
L 532.306967 -158.170444 
L 532.285717 -157.275462 
L 532.259449 -156.38048 
L 532.229391 -155.485498 
L 532.196835 -154.590516 
L 532.163129 -153.695534 
L 532.129669 -152.800552 
L 532.097893 -151.90557 
L 532.069266 -151.010588 
L 532.045276 -150.115605 
L 532.027423 -149.220623 
L 532.017205 -148.325641 
L 532.016116 -147.430659 
L 532.025627 -146.535677 
L 532.047185 -145.640695 
L 532.082196 -144.745713 
L 532.132021 -143.850731 
L 532.197964 -142.955749 
L 532.281261 -142.060767 
L 532.383078 -141.165785 
L 532.504496 -140.270802 
L 532.646507 -139.37582 
L 532.810008 -138.480838 
L 532.995789 -137.585856 
L 533.204532 -136.690874 
L 533.436805 -135.795892 
L 533.693053 -134.90091 
L 533.973598 -134.005928 
L 534.278633 -133.110946 
L 534.60822 -132.215964 
L 534.962286 -131.320982 
L 535.340624 -130.425999 
L 535.742888 -129.531017 
L 536.168594 -128.636035 
L 536.617121 -127.741053 
L 537.08771 -126.846071 
L 537.579467 -125.951089 
L 538.091363 -125.056107 
L 538.622239 -124.161125 
L 539.170804 -123.266143 
L 539.735645 -122.371161 
L 540.315229 -121.476179 
L 540.907906 -120.581196 
L 541.511915 -119.686214 
L 542.125396 -118.791232 
L 542.746386 -117.89625 
L 543.372837 -117.001268 
L 544.002619 -116.106286 
L 544.633527 -115.211304 
L 545.263294 -114.316322 
L 545.8896 -113.42134 
L 546.510078 -112.526358 
L 547.122332 -111.631375 
L 547.723941 -110.736393 
L 548.312477 -109.841411 
L 548.88551 -108.946429 
L 549.440629 -108.051447 
L 549.975446 -107.156465 
L 550.487614 -106.261483 
L 550.974839 -105.366501 
L 551.434892 -104.471519 
L 551.865624 -103.576537 
L 552.264973 -102.681555 
L 552.630986 -101.786572 
L 552.961823 -100.89159 
L 553.255772 -99.996608 
L 553.511261 -99.101626 
L 553.726865 -98.206644 
L 553.901323 -97.311662 
L 554.033537 -96.41668 
L 554.122589 -95.521698 
L 554.167744 -94.626716 
L 554.168455 -93.731734 
L 554.124368 -92.836752 
L 554.035331 -91.941769 
L 553.901385 -91.046787 
L 553.722777 -90.151805 
L 553.49995 -89.256823 
L 553.233546 -88.361841 
L 552.924399 -87.466859 
L 552.573534 -86.571877 
L 552.182159 -85.676895 
L 551.751656 -84.781913 
L 551.283573 -83.886931 
L 550.779617 -82.991949 
L 550.241636 -82.096966 
z
" style="stroke: #2f2f2f"/>
    </defs>
    <g clip-path="url(#p0194716c20)">
     <use xlink:href="#m322c09f51f" x="0" y="288" style="fill: #423b63; stroke: #2f2f2f"/>
    </g>
   </g>
   <g id="line2d_33">
    <path d="M 357.650532 184.120057 
L 357.650532 111.754972 
" clip-path="url(#p0194716c20)" style="fill: none; stroke: #2f2f2f; stroke-width: 1.5; stroke-linecap: round"/>
   </g>
   <g id="line2d_34">
    <path d="M 357.650532 156.507882 
L 357.650532 114.985441 
" clip-path="url(#p0194716c20)" style="fill: none; stroke: #2f2f2f; stroke-width: 4.5; stroke-linecap: round"/>
   </g>
   <g id="line2d_35">
    <path d="M 357.650532 141.771377 
" clip-path="url(#p0194716c20)" style="fill: none; stroke: #2f2f2f; stroke-width: 1.2; stroke-linecap: round"/>
    <g clip-path="url(#p0194716c20)">
     <use xlink:href="#m30317c2e00" x="357.650532" y="141.771377" style="fill: #ffffff; stroke: #ffffff; stroke-width: 0.9"/>
    </g>
   </g>
   <g id="line2d_36">
    <path d="M 439.533 197.412462 
L 439.533 98.784882 
" clip-path="url(#p0194716c20)" style="fill: none; stroke: #2f2f2f; stroke-width: 1.5; stroke-linecap: round"/>
   </g>
   <g id="line2d_37">
    <path d="M 439.533 171.812876 
L 439.533 128.794489 
" clip-path="url(#p0194716c20)" style="fill: none; stroke: #2f2f2f; stroke-width: 4.5; stroke-linecap: round"/>
   </g>
   <g id="line2d_38">
    <path d="M 439.533 159.962974 
" clip-path="url(#p0194716c20)" style="fill: none; stroke: #2f2f2f; stroke-width: 1.2; stroke-linecap: round"/>
    <g clip-path="url(#p0194716c20)">
     <use xlink:href="#m30317c2e00" x="439.533" y="159.962974" style="fill: #ffffff; stroke: #ffffff; stroke-width: 0.9"/>
    </g>
   </g>
   <g id="line2d_39">
    <path d="M 521.415468 205.903034 
L 521.415468 128.570285 
" clip-path="url(#p0194716c20)" style="fill: none; stroke: #2f2f2f; stroke-width: 1.5; stroke-linecap: round"/>
   </g>
   <g id="line2d_40">
    <path d="M 521.415468 200.821176 
L 521.415468 171.175202 
" clip-path="url(#p0194716c20)" style="fill: none; stroke: #2f2f2f; stroke-width: 4.5; stroke-linecap: round"/>
   </g>
   <g id="line2d_41">
    <path d="M 521.415468 186.307415 
" clip-path="url(#p0194716c20)" style="fill: none; stroke: #2f2f2f; stroke-width: 1.2; stroke-linecap: round"/>
    <g clip-path="url(#p0194716c20)">
     <use xlink:href="#m30317c2e00" x="521.415468" y="186.307415" style="fill: #ffffff; stroke: #ffffff; stroke-width: 0.9"/>
    </g>
   </g>
   <g id="line2d_42">
    <path d="M 357.650532 95.197615 
L 357.650532 91.610348 
L 439.533 91.610348 
L 439.533 95.197615 
" clip-path="url(#p0194716c20)" style="fill: none; stroke: #000000; stroke-linecap: round"/>
   </g>
   <g id="line2d_43">
    <path d="M 439.533 80.848548 
L 439.533 77.261282 
L 521.415468 77.261282 
L 521.415468 80.848548 
" clip-path="url(#p0194716c20)" style="fill: none; stroke: #000000; stroke-linecap: round"/>
   </g>
   <g id="line2d_44">
    <path d="M 357.650532 66.499482 
L 357.650532 62.912215 
L 521.415468 62.912215 
L 521.415468 66.499482 
" clip-path="url(#p0194716c20)" style="fill: none; stroke: #000000; stroke-linecap: round"/>
   </g>
   <g id="patch_8">
    <path d="M 313.434 238.804 
L 313.434 23.568 
" style="fill: none; stroke: #262626; stroke-linejoin: miter; stroke-linecap: square"/>
   </g>
   <g id="patch_9">
    <path d="M 565.632 238.804 
L 565.632 23.568 
" style="fill: none; stroke: #262626; stroke-linejoin: miter; stroke-linecap: square"/>
   </g>
   <g id="patch_10">
    <path d="M 313.434 238.804 
L 565.632 238.804 
" style="fill: none; stroke: #262626; stroke-linejoin: miter; stroke-linecap: square"/>
   </g>
   <g id="patch_11">
    <path d="M 313.434 23.568 
L 565.632 23.568 
" style="fill: none; stroke: #262626; stroke-linejoin: miter; stroke-linecap: square"/>
   </g>
   <g id="text_19">
    <!-- ns -->
    <g transform="translate(393.049266 86.026582) scale(0.096 -0.096)">
     <use xlink:href="#DejaVuSans-6e"/>
     <use xlink:href="#DejaVuSans-73" x="63.378906"/>
    </g>
   </g>
   <g id="text_20">
    <!-- ns -->
    <g transform="translate(474.931734 71.677515) scale(0.096 -0.096)">
     <use xlink:href="#DejaVuSans-6e"/>
     <use xlink:href="#DejaVuSans-73" x="63.378906"/>
    </g>
   </g>
   <g id="text_21">
    <!-- * -->
    <g transform="translate(437.133 57.328448) scale(0.096 -0.096)">
     <defs>
      <path id="DejaVuSans-2a" d="M 3009 3897 
L 1888 3291 
L 3009 2681 
L 2828 2375 
L 1778 3009 
L 1778 1831 
L 1422 1831 
L 1422 3009 
L 372 2375 
L 191 2681 
L 1313 3291 
L 191 3897 
L 372 4206 
L 1422 3572 
L 1422 4750 
L 1778 4750 
L 1778 3572 
L 2828 4206 
L 3009 3897 
z
" transform="scale(0.015625)"/>
     </defs>
     <use xlink:href="#DejaVuSans-2a"/>
    </g>
   </g>
   <g id="text_22">
    <!-- Speed -->
    <g style="fill: #262626" transform="translate(424.48425 17.568) scale(0.096 -0.096)">
     <defs>
      <path id="DejaVuSans-53" d="M 3425 4513 
L 3425 3897 
Q 3066 4069 2747 4153 
Q 2428 4238 2131 4238 
Q 1616 4238 1336 4038 
Q 1056 3838 1056 3469 
Q 1056 3159 1242 3001 
Q 1428 2844 1947 2747 
L 2328 2669 
Q 3034 2534 3370 2195 
Q 3706 1856 3706 1288 
Q 3706 609 3251 259 
Q 2797 -91 1919 -91 
Q 1588 -91 1214 -16 
Q 841 59 441 206 
L 441 856 
Q 825 641 1194 531 
Q 1563 422 1919 422 
Q 2459 422 2753 634 
Q 3047 847 3047 1241 
Q 3047 1584 2836 1778 
Q 2625 1972 2144 2069 
L 1759 2144 
Q 1053 2284 737 2584 
Q 422 2884 422 3419 
Q 422 4038 858 4394 
Q 1294 4750 2059 4750 
Q 2388 4750 2728 4690 
Q 3069 4631 3425 4513 
z
" transform="scale(0.015625)"/>
     </defs>
     <use xlink:href="#DejaVuSans-53"/>
     <use xlink:href="#DejaVuSans-70" x="63.476562"/>
     <use xlink:href="#DejaVuSans-65" x="126.953125"/>
     <use xlink:href="#DejaVuSans-65" x="188.476562"/>
     <use xlink:href="#DejaVuSans-64" x="250"/>
    </g>
   </g>
  </g>
  <g id="text_23">
   <!-- Encoding ratio tertiles -->
   <g style="fill: #262626" transform="translate(224.3394 282.7242) scale(0.1152 -0.1152)">
    <defs>
     <path id="DejaVuSans-45" d="M 628 4666 
L 3578 4666 
L 3578 4134 
L 1259 4134 
L 1259 2753 
L 3481 2753 
L 3481 2222 
L 1259 2222 
L 1259 531 
L 3634 531 
L 3634 0 
L 628 0 
L 628 4666 
z
" transform="scale(0.015625)"/>
    </defs>
    <use xlink:href="#DejaVuSans-45"/>
    <use xlink:href="#DejaVuSans-6e" x="63.183594"/>
    <use xlink:href="#DejaVuSans-63" x="126.5625"/>
    <use xlink:href="#DejaVuSans-6f" x="181.542969"/>
    <use xlink:href="#DejaVuSans-64" x="242.724609"/>
    <use xlink:href="#DejaVuSans-69" x="306.201172"/>
    <use xlink:href="#DejaVuSans-6e" x="333.984375"/>
    <use xlink:href="#DejaVuSans-67" x="397.363281"/>
    <use xlink:href="#DejaVuSans-20" x="460.839844"/>
    <use xlink:href="#DejaVuSans-72" x="492.626953"/>
    <use xlink:href="#DejaVuSans-61" x="533.740234"/>
    <use xlink:href="#DejaVuSans-74" x="595.019531"/>
    <use xlink:href="#DejaVuSans-69" x="634.228516"/>
    <use xlink:href="#DejaVuSans-6f" x="662.011719"/>
    <use xlink:href="#DejaVuSans-20" x="723.193359"/>
    <use xlink:href="#DejaVuSans-74" x="754.980469"/>
    <use xlink:href="#DejaVuSans-65" x="794.189453"/>
    <use xlink:href="#DejaVuSans-72" x="855.712891"/>
    <use xlink:href="#DejaVuSans-74" x="896.826172"/>
    <use xlink:href="#DejaVuSans-69" x="936.035156"/>
    <use xlink:href="#DejaVuSans-6c" x="963.818359"/>
    <use xlink:href="#DejaVuSans-65" x="991.601562"/>
    <use xlink:href="#DejaVuSans-73" x="1053.125"/>
   </g>
  </g>
 </g>
 <defs>
  <clipPath id="p7982751e1b">
   <rect x="46.068" y="23.568" width="252.198" height="215.236"/>
  </clipPath>
  <clipPath id="p0194716c20">
   <rect x="313.434" y="23.568" width="252.198" height="215.236"/>
  </clipPath>
 </defs>
</svg>
