<?xml version="1.0" encoding="utf-8" standalone="no"?>
<!DOCTYPE svg PUBLIC "-//W3C//DTD SVG 1.1//EN"
  "http://www.w3.org/Graphics/SVG/1.1/DTD/svg11.dtd">
<svg xmlns:xlink="http://www.w3.org/1999/xlink" width="576pt" height="288pt" viewBox="0 0 576 288" xmlns="http://www.w3.org/2000/svg" version="1.1">
 <metadata>
  <rdf:RDF xmlns:dc="http://purl.org/dc/elements/1.1/" xmlns:cc="http://creativecommons.org/ns#" xmlns:rdf="http://www.w3.org/1999/02/22-rdf-syntax-ns#">
   <cc:Work>
    <dc:type rdf:resource="http://purl.org/dc/dcmitype/StillImage"/>
    <dc:date>2024-12-13T10:15:39.743672</dc:date>
    <dc:format>image/svg+xml</dc:format>
    <dc:creator>
     <cc:Agent>
      <dc:title>Matplotlib v3.9.2, https://matplotlib.org/</dc:title>
     </cc:Agent>
    </dc:creator>
   </cc:Work>
  </rdf:RDF>
 </metadata>
 <defs>
  <style type="text/css">*{stroke-linejoin: round; stroke-linecap: butt}</style>
 </defs>
 <g id="figure_1">
  <g id="patch_1">
   <path d="M 0 288 
L 576 288 
L 576 0 
L 0 0 
L 0 288 
z
" style="fill: none"/>
  </g>
  <g id="axes_1">
   <g id="patch_2">
    <path d="M 46.068 238.804 
L 298.266 238.804 
L 298.266 23.568 
L 46.068 23.568 
L 46.068 238.804 
z
" style="fill: none"/>
   </g>
   <g id="matplotlib.axis_1">
    <g id="xtick_1">
     <g id="line2d_1">
      <defs>
       <path id="mfcdc22f3de" d="M 0 0 
L 0 4.8 
" style="stroke: #262626"/>
      </defs>
      <g>
       <use xlink:href="#mfcdc22f3de" x="90.284532" y="238.804" style="fill: #262626; stroke: #262626"/>
      </g>
     </g>
     <g id="text_1">
      <!-- Low -->
      <g style="fill: #262626" transform="translate(81.619282 253.790625) scale(0.088 -0.088)">
       <defs>
        <path id="DejaVuSans-4c" d="M 628 4666 
L 1259 4666 
L 1259 531 
L 3531 531 
L 3531 0 
L 628 0 
L 628 4666 
z
" transform="scale(0.015625)"/>
        <path id="DejaVuSans-6f" d="M 1959 3097 
Q 1497 3097 1228 2736 
Q 959 2375 959 1747 
Q 959 1119 1226 758 
Q 1494 397 1959 397 
Q 2419 397 2687 759 
Q 2956 1122 2956 1747 
Q 2956 2369 2687 2733 
Q 2419 3097 1959 3097 
z
M 1959 3584 
Q 2709 3584 3137 3096 
Q 3566 2609 3566 1747 
Q 3566 888 3137 398 
Q 2709 -91 1959 -91 
Q 1206 -91 779 398 
Q 353 888 353 1747 
Q 353 2609 779 3096 
Q 1206 3584 1959 3584 
z
" transform="scale(0.015625)"/>
        <path id="DejaVuSans-77" d="M 269 3500 
L 844 3500 
L 1563 769 
L 2278 3500 
L 2956 3500 
L 3675 769 
L 4391 3500 
L 4966 3500 
L 4050 0 
L 3372 0 
L 2619 2869 
L 1863 0 
L 1184 0 
L 269 3500 
z
" transform="scale(0.015625)"/>
       </defs>
       <use xlink:href="#DejaVuSans-4c"/>
       <use xlink:href="#DejaVuSans-6f" x="53.962891"/>
       <use xlink:href="#DejaVuSans-77" x="115.144531"/>
      </g>
     </g>
    </g>
    <g id="xtick_2">
     <g id="line2d_2">
      <g>
       <use xlink:href="#mfcdc22f3de" x="172.167" y="238.804" style="fill: #262626; stroke: #262626"/>
      </g>
     </g>
     <g id="text_2">
      <!-- Medium -->
      <g style="fill: #262626" transform="translate(154.573187 253.790625) scale(0.088 -0.088)">
       <defs>
        <path id="DejaVuSans-4d" d="M 628 4666 
L 1569 4666 
L 2759 1491 
L 3956 4666 
L 4897 4666 
L 4897 0 
L 4281 0 
L 4281 4097 
L 3078 897 
L 2444 897 
L 1241 4097 
L 1241 0 
L 628 0 
L 628 4666 
z
" transform="scale(0.015625)"/>
        <path id="DejaVuSans-65" d="M 3597 1894 
L 3597 1613 
L 953 1613 
Q 991 1019 1311 708 
Q 1631 397 2203 397 
Q 2534 397 2845 478 
Q 3156 559 3463 722 
L 3463 178 
Q 3153 47 2828 -22 
Q 2503 -91 2169 -91 
Q 1331 -91 842 396 
Q 353 884 353 1716 
Q 353 2575 817 3079 
Q 1281 3584 2069 3584 
Q 2775 3584 3186 3129 
Q 3597 2675 3597 1894 
z
M 3022 2063 
Q 3016 2534 2758 2815 
Q 2500 3097 2075 3097 
Q 1594 3097 1305 2825 
Q 1016 2553 972 2059 
L 3022 2063 
z
" transform="scale(0.015625)"/>
        <path id="DejaVuSans-64" d="M 2906 2969 
L 2906 4863 
L 3481 4863 
L 3481 0 
L 2906 0 
L 2906 525 
Q 2725 213 2448 61 
Q 2172 -91 1784 -91 
Q 1150 -91 751 415 
Q 353 922 353 1747 
Q 353 2572 751 3078 
Q 1150 3584 1784 3584 
Q 2172 3584 2448 3432 
Q 2725 3281 2906 2969 
z
M 947 1747 
Q 947 1113 1208 752 
Q 1469 391 1925 391 
Q 2381 391 2643 752 
Q 2906 1113 2906 1747 
Q 2906 2381 2643 2742 
Q 2381 3103 1925 3103 
Q 1469 3103 1208 2742 
Q 947 2381 947 1747 
z
" transform="scale(0.015625)"/>
        <path id="DejaVuSans-69" d="M 603 3500 
L 1178 3500 
L 1178 0 
L 603 0 
L 603 3500 
z
M 603 4863 
L 1178 4863 
L 1178 4134 
L 603 4134 
L 603 4863 
z
" transform="scale(0.015625)"/>
        <path id="DejaVuSans-75" d="M 544 1381 
L 544 3500 
L 1119 3500 
L 1119 1403 
Q 1119 906 1312 657 
Q 1506 409 1894 409 
Q 2359 409 2629 706 
Q 2900 1003 2900 1516 
L 2900 3500 
L 3475 3500 
L 3475 0 
L 2900 0 
L 2900 538 
Q 2691 219 2414 64 
Q 2138 -91 1772 -91 
Q 1169 -91 856 284 
Q 544 659 544 1381 
z
M 1991 3584 
L 1991 3584 
z
" transform="scale(0.015625)"/>
        <path id="DejaVuSans-6d" d="M 3328 2828 
Q 3544 3216 3844 3400 
Q 4144 3584 4550 3584 
Q 5097 3584 5394 3201 
Q 5691 2819 5691 2113 
L 5691 0 
L 5113 0 
L 5113 2094 
Q 5113 2597 4934 2840 
Q 4756 3084 4391 3084 
Q 3944 3084 3684 2787 
Q 3425 2491 3425 1978 
L 3425 0 
L 2847 0 
L 2847 2094 
Q 2847 2600 2669 2842 
Q 2491 3084 2119 3084 
Q 1678 3084 1418 2786 
Q 1159 2488 1159 1978 
L 1159 0 
L 581 0 
L 581 3500 
L 1159 3500 
L 1159 2956 
Q 1356 3278 1631 3431 
Q 1906 3584 2284 3584 
Q 2666 3584 2933 3390 
Q 3200 3197 3328 2828 
z
" transform="scale(0.015625)"/>
       </defs>
       <use xlink:href="#DejaVuSans-4d"/>
       <use xlink:href="#DejaVuSans-65" x="86.279297"/>
       <use xlink:href="#DejaVuSans-64" x="147.802734"/>
       <use xlink:href="#DejaVuSans-69" x="211.279297"/>
       <use xlink:href="#DejaVuSans-75" x="239.0625"/>
       <use xlink:href="#DejaVuSans-6d" x="302.441406"/>
      </g>
     </g>
    </g>
    <g id="xtick_3">
     <g id="line2d_3">
      <g>
       <use xlink:href="#mfcdc22f3de" x="254.049468" y="238.804" style="fill: #262626; stroke: #262626"/>
      </g>
     </g>
     <g id="text_3">
      <!-- High -->
      <g style="fill: #262626" transform="translate(243.936343 253.790625) scale(0.088 -0.088)">
       <defs>
        <path id="DejaVuSans-48" d="M 628 4666 
L 1259 4666 
L 1259 2753 
L 3553 2753 
L 3553 4666 
L 4184 4666 
L 4184 0 
L 3553 0 
L 3553 2222 
L 1259 2222 
L 1259 0 
L 628 0 
L 628 4666 
z
" transform="scale(0.015625)"/>
        <path id="DejaVuSans-67" d="M 2906 1791 
Q 2906 2416 2648 2759 
Q 2391 3103 1925 3103 
Q 1463 3103 1205 2759 
Q 947 2416 947 1791 
Q 947 1169 1205 825 
Q 1463 481 1925 481 
Q 2391 481 2648 825 
Q 2906 1169 2906 1791 
z
M 3481 434 
Q 3481 -459 3084 -895 
Q 2688 -1331 1869 -1331 
Q 1566 -1331 1297 -1286 
Q 1028 -1241 775 -1147 
L 775 -588 
Q 1028 -725 1275 -790 
Q 1522 -856 1778 -856 
Q 2344 -856 2625 -561 
Q 2906 -266 2906 331 
L 2906 616 
Q 2728 306 2450 153 
Q 2172 0 1784 0 
Q 1141 0 747 490 
Q 353 981 353 1791 
Q 353 2603 747 3093 
Q 1141 3584 1784 3584 
Q 2172 3584 2450 3431 
Q 2728 3278 2906 2969 
L 2906 3500 
L 3481 3500 
L 3481 434 
z
" transform="scale(0.015625)"/>
        <path id="DejaVuSans-68" d="M 3513 2113 
L 3513 0 
L 2938 0 
L 2938 2094 
Q 2938 2591 2744 2837 
Q 2550 3084 2163 3084 
Q 1697 3084 1428 2787 
Q 1159 2491 1159 1978 
L 1159 0 
L 581 0 
L 581 4863 
L 1159 4863 
L 1159 2956 
Q 1366 3272 1645 3428 
Q 1925 3584 2291 3584 
Q 2894 3584 3203 3211 
Q 3513 2838 3513 2113 
z
" transform="scale(0.015625)"/>
       </defs>
       <use xlink:href="#DejaVuSans-48"/>
       <use xlink:href="#DejaVuSans-69" x="75.195312"/>
       <use xlink:href="#DejaVuSans-67" x="102.978516"/>
       <use xlink:href="#DejaVuSans-68" x="166.455078"/>
      </g>
     </g>
    </g>
   </g>
   <g id="matplotlib.axis_2">
    <g id="ytick_1">
     <g id="line2d_4">
      <defs>
       <path id="m0acac0e0c8" d="M 0 0 
L -4.8 0 
" style="stroke: #262626"/>
      </defs>
      <g>
       <use xlink:href="#m0acac0e0c8" x="46.068" y="238.804" style="fill: #262626; stroke: #262626"/>
      </g>
     </g>
     <g id="text_4">
      <!-- 0.5 -->
      <g style="fill: #262626" transform="translate(23.77325 242.147312) scale(0.088 -0.088)">
       <defs>
        <path id="DejaVuSans-30" d="M 2034 4250 
Q 1547 4250 1301 3770 
Q 1056 3291 1056 2328 
Q 1056 1369 1301 889 
Q 1547 409 2034 409 
Q 2525 409 2770 889 
Q 3016 1369 3016 2328 
Q 3016 3291 2770 3770 
Q 2525 4250 2034 4250 
z
M 2034 4750 
Q 2819 4750 3233 4129 
Q 3647 3509 3647 2328 
Q 3647 1150 3233 529 
Q 2819 -91 2034 -91 
Q 1250 -91 836 529 
Q 422 1150 422 2328 
Q 422 3509 836 4129 
Q 1250 4750 2034 4750 
z
" transform="scale(0.015625)"/>
        <path id="DejaVuSans-2e" d="M 684 794 
L 1344 794 
L 1344 0 
L 684 0 
L 684 794 
z
" transform="scale(0.015625)"/>
        <path id="DejaVuSans-35" d="M 691 4666 
L 3169 4666 
L 3169 4134 
L 1269 4134 
L 1269 2991 
Q 1406 3038 1543 3061 
Q 1681 3084 1819 3084 
Q 2600 3084 3056 2656 
Q 3513 2228 3513 1497 
Q 3513 744 3044 326 
Q 2575 -91 1722 -91 
Q 1428 -91 1123 -41 
Q 819 9 494 109 
L 494 744 
Q 775 591 1075 516 
Q 1375 441 1709 441 
Q 2250 441 2565 725 
Q 2881 1009 2881 1497 
Q 2881 1984 2565 2268 
Q 2250 2553 1709 2553 
Q 1456 2553 1204 2497 
Q 953 2441 691 2322 
L 691 4666 
z
" transform="scale(0.015625)"/>
       </defs>
       <use xlink:href="#DejaVuSans-30"/>
       <use xlink:href="#DejaVuSans-2e" x="63.623047"/>
       <use xlink:href="#DejaVuSans-35" x="95.410156"/>
      </g>
     </g>
    </g>
    <g id="ytick_2">
     <g id="line2d_5">
      <g>
       <use xlink:href="#m0acac0e0c8" x="46.068" y="202.931333" style="fill: #262626; stroke: #262626"/>
      </g>
     </g>
     <g id="text_5">
      <!-- 0.6 -->
      <g style="fill: #262626" transform="translate(23.77325 206.274646) scale(0.088 -0.088)">
       <defs>
        <path id="DejaVuSans-36" d="M 2113 2584 
Q 1688 2584 1439 2293 
Q 1191 2003 1191 1497 
Q 1191 994 1439 701 
Q 1688 409 2113 409 
Q 2538 409 2786 701 
Q 3034 994 3034 1497 
Q 3034 2003 2786 2293 
Q 2538 2584 2113 2584 
z
M 3366 4563 
L 3366 3988 
Q 3128 4100 2886 4159 
Q 2644 4219 2406 4219 
Q 1781 4219 1451 3797 
Q 1122 3375 1075 2522 
Q 1259 2794 1537 2939 
Q 1816 3084 2150 3084 
Q 2853 3084 3261 2657 
Q 3669 2231 3669 1497 
Q 3669 778 3244 343 
Q 2819 -91 2113 -91 
Q 1303 -91 875 529 
Q 447 1150 447 2328 
Q 447 3434 972 4092 
Q 1497 4750 2381 4750 
Q 2619 4750 2861 4703 
Q 3103 4656 3366 4563 
z
" transform="scale(0.015625)"/>
       </defs>
       <use xlink:href="#DejaVuSans-30"/>
       <use xlink:href="#DejaVuSans-2e" x="63.623047"/>
       <use xlink:href="#DejaVuSans-36" x="95.410156"/>
      </g>
     </g>
    </g>
    <g id="ytick_3">
     <g id="line2d_6">
      <g>
       <use xlink:href="#m0acac0e0c8" x="46.068" y="167.058667" style="fill: #262626; stroke: #262626"/>
      </g>
     </g>
     <g id="text_6">
      <!-- 0.7 -->
      <g style="fill: #262626" transform="translate(23.77325 170.401979) scale(0.088 -0.088)">
       <defs>
        <path id="DejaVuSans-37" d="M 525 4666 
L 3525 4666 
L 3525 4397 
L 1831 0 
L 1172 0 
L 2766 4134 
L 525 4134 
L 525 4666 
z
" transform="scale(0.015625)"/>
       </defs>
       <use xlink:href="#DejaVuSans-30"/>
       <use xlink:href="#DejaVuSans-2e" x="63.623047"/>
       <use xlink:href="#DejaVuSans-37" x="95.410156"/>
      </g>
     </g>
    </g>
    <g id="ytick_4">
     <g id="line2d_7">
      <g>
       <use xlink:href="#m0acac0e0c8" x="46.068" y="131.186" style="fill: #262626; stroke: #262626"/>
      </g>
     </g>
     <g id="text_7">
      <!-- 0.8 -->
      <g style="fill: #262626" transform="translate(23.77325 134.529312) scale(0.088 -0.088)">
       <defs>
        <path id="DejaVuSans-38" d="M 2034 2216 
Q 1584 2216 1326 1975 
Q 1069 1734 1069 1313 
Q 1069 891 1326 650 
Q 1584 409 2034 409 
Q 2484 409 2743 651 
Q 3003 894 3003 1313 
Q 3003 1734 2745 1975 
Q 2488 2216 2034 2216 
z
M 1403 2484 
Q 997 2584 770 2862 
Q 544 3141 544 3541 
Q 544 4100 942 4425 
Q 1341 4750 2034 4750 
Q 2731 4750 3128 4425 
Q 3525 4100 3525 3541 
Q 3525 3141 3298 2862 
Q 3072 2584 2669 2484 
Q 3125 2378 3379 2068 
Q 3634 1759 3634 1313 
Q 3634 634 3220 271 
Q 2806 -91 2034 -91 
Q 1263 -91 848 271 
Q 434 634 434 1313 
Q 434 1759 690 2068 
Q 947 2378 1403 2484 
z
M 1172 3481 
Q 1172 3119 1398 2916 
Q 1625 2713 2034 2713 
Q 2441 2713 2670 2916 
Q 2900 3119 2900 3481 
Q 2900 3844 2670 4047 
Q 2441 4250 2034 4250 
Q 1625 4250 1398 4047 
Q 1172 3844 1172 3481 
z
" transform="scale(0.015625)"/>
       </defs>
       <use xlink:href="#DejaVuSans-30"/>
       <use xlink:href="#DejaVuSans-2e" x="63.623047"/>
       <use xlink:href="#DejaVuSans-38" x="95.410156"/>
      </g>
     </g>
    </g>
    <g id="ytick_5">
     <g id="line2d_8">
      <g>
       <use xlink:href="#m0acac0e0c8" x="46.068" y="95.313333" style="fill: #262626; stroke: #262626"/>
      </g>
     </g>
     <g id="text_8">
      <!-- 0.9 -->
      <g style="fill: #262626" transform="translate(23.77325 98.656646) scale(0.088 -0.088)">
       <defs>
        <path id="DejaVuSans-39" d="M 703 97 
L 703 672 
Q 941 559 1184 500 
Q 1428 441 1663 441 
Q 2288 441 2617 861 
Q 2947 1281 2994 2138 
Q 2813 1869 2534 1725 
Q 2256 1581 1919 1581 
Q 1219 1581 811 2004 
Q 403 2428 403 3163 
Q 403 3881 828 4315 
Q 1253 4750 1959 4750 
Q 2769 4750 3195 4129 
Q 3622 3509 3622 2328 
Q 3622 1225 3098 567 
Q 2575 -91 1691 -91 
Q 1453 -91 1209 -44 
Q 966 3 703 97 
z
M 1959 2075 
Q 2384 2075 2632 2365 
Q 2881 2656 2881 3163 
Q 2881 3666 2632 3958 
Q 2384 4250 1959 4250 
Q 1534 4250 1286 3958 
Q 1038 3666 1038 3163 
Q 1038 2656 1286 2365 
Q 1534 2075 1959 2075 
z
" transform="scale(0.015625)"/>
       </defs>
       <use xlink:href="#DejaVuSans-30"/>
       <use xlink:href="#DejaVuSans-2e" x="63.623047"/>
       <use xlink:href="#DejaVuSans-39" x="95.410156"/>
      </g>
     </g>
    </g>
    <g id="ytick_6">
     <g id="line2d_9">
      <g>
       <use xlink:href="#m0acac0e0c8" x="46.068" y="59.440667" style="fill: #262626; stroke: #262626"/>
      </g>
     </g>
     <g id="text_9">
      <!-- 1.0 -->
      <g style="fill: #262626" transform="translate(23.77325 62.783979) scale(0.088 -0.088)">
       <defs>
        <path id="DejaVuSans-31" d="M 794 531 
L 1825 531 
L 1825 4091 
L 703 3866 
L 703 4441 
L 1819 4666 
L 2450 4666 
L 2450 531 
L 3481 531 
L 3481 0 
L 794 0 
L 794 531 
z
" transform="scale(0.015625)"/>
       </defs>
       <use xlink:href="#DejaVuSans-31"/>
       <use xlink:href="#DejaVuSans-2e" x="63.623047"/>
       <use xlink:href="#DejaVuSans-30" x="95.410156"/>
      </g>
     </g>
    </g>
    <g id="ytick_7">
     <g id="line2d_10">
      <g>
       <use xlink:href="#m0acac0e0c8" x="46.068" y="23.568" style="fill: #262626; stroke: #262626"/>
      </g>
     </g>
     <g id="text_10">
      <!-- 1.1 -->
      <g style="fill: #262626" transform="translate(23.77325 26.911313) scale(0.088 -0.088)">
       <use xlink:href="#DejaVuSans-31"/>
       <use xlink:href="#DejaVuSans-2e" x="63.623047"/>
       <use xlink:href="#DejaVuSans-31" x="95.410156"/>
      </g>
     </g>
    </g>
    <g id="text_11">
     <!-- Probability of correct response -->
     <g style="fill: #262626" transform="translate(17.77675 204.36575) rotate(-90) scale(0.096 -0.096)">
      <defs>
       <path id="DejaVuSans-50" d="M 1259 4147 
L 1259 2394 
L 2053 2394 
Q 2494 2394 2734 2622 
Q 2975 2850 2975 3272 
Q 2975 3691 2734 3919 
Q 2494 4147 2053 4147 
L 1259 4147 
z
M 628 4666 
L 2053 4666 
Q 2838 4666 3239 4311 
Q 3641 3956 3641 3272 
Q 3641 2581 3239 2228 
Q 2838 1875 2053 1875 
L 1259 1875 
L 1259 0 
L 628 0 
L 628 4666 
z
" transform="scale(0.015625)"/>
       <path id="DejaVuSans-72" d="M 2631 2963 
Q 2534 3019 2420 3045 
Q 2306 3072 2169 3072 
Q 1681 3072 1420 2755 
Q 1159 2438 1159 1844 
L 1159 0 
L 581 0 
L 581 3500 
L 1159 3500 
L 1159 2956 
Q 1341 3275 1631 3429 
Q 1922 3584 2338 3584 
Q 2397 3584 2469 3576 
Q 2541 3569 2628 3553 
L 2631 2963 
z
" transform="scale(0.015625)"/>
       <path id="DejaVuSans-62" d="M 3116 1747 
Q 3116 2381 2855 2742 
Q 2594 3103 2138 3103 
Q 1681 3103 1420 2742 
Q 1159 2381 1159 1747 
Q 1159 1113 1420 752 
Q 1681 391 2138 391 
Q 2594 391 2855 752 
Q 3116 1113 3116 1747 
z
M 1159 2969 
Q 1341 3281 1617 3432 
Q 1894 3584 2278 3584 
Q 2916 3584 3314 3078 
Q 3713 2572 3713 1747 
Q 3713 922 3314 415 
Q 2916 -91 2278 -91 
Q 1894 -91 1617 61 
Q 1341 213 1159 525 
L 1159 0 
L 581 0 
L 581 4863 
L 1159 4863 
L 1159 2969 
z
" transform="scale(0.015625)"/>
       <path id="DejaVuSans-61" d="M 2194 1759 
Q 1497 1759 1228 1600 
Q 959 1441 959 1056 
Q 959 750 1161 570 
Q 1363 391 1709 391 
Q 2188 391 2477 730 
Q 2766 1069 2766 1631 
L 2766 1759 
L 2194 1759 
z
M 3341 1997 
L 3341 0 
L 2766 0 
L 2766 531 
Q 2569 213 2275 61 
Q 1981 -91 1556 -91 
Q 1019 -91 701 211 
Q 384 513 384 1019 
Q 384 1609 779 1909 
Q 1175 2209 1959 2209 
L 2766 2209 
L 2766 2266 
Q 2766 2663 2505 2880 
Q 2244 3097 1772 3097 
Q 1472 3097 1187 3025 
Q 903 2953 641 2809 
L 641 3341 
Q 956 3463 1253 3523 
Q 1550 3584 1831 3584 
Q 2591 3584 2966 3190 
Q 3341 2797 3341 1997 
z
" transform="scale(0.015625)"/>
       <path id="DejaVuSans-6c" d="M 603 4863 
L 1178 4863 
L 1178 0 
L 603 0 
L 603 4863 
z
" transform="scale(0.015625)"/>
       <path id="DejaVuSans-74" d="M 1172 4494 
L 1172 3500 
L 2356 3500 
L 2356 3053 
L 1172 3053 
L 1172 1153 
Q 1172 725 1289 603 
Q 1406 481 1766 481 
L 2356 481 
L 2356 0 
L 1766 0 
Q 1100 0 847 248 
Q 594 497 594 1153 
L 594 3053 
L 172 3053 
L 172 3500 
L 594 3500 
L 594 4494 
L 1172 4494 
z
" transform="scale(0.015625)"/>
       <path id="DejaVuSans-79" d="M 2059 -325 
Q 1816 -950 1584 -1140 
Q 1353 -1331 966 -1331 
L 506 -1331 
L 506 -850 
L 844 -850 
Q 1081 -850 1212 -737 
Q 1344 -625 1503 -206 
L 1606 56 
L 191 3500 
L 800 3500 
L 1894 763 
L 2988 3500 
L 3597 3500 
L 2059 -325 
z
" transform="scale(0.015625)"/>
       <path id="DejaVuSans-20" transform="scale(0.015625)"/>
       <path id="DejaVuSans-66" d="M 2375 4863 
L 2375 4384 
L 1825 4384 
Q 1516 4384 1395 4259 
Q 1275 4134 1275 3809 
L 1275 3500 
L 2222 3500 
L 2222 3053 
L 1275 3053 
L 1275 0 
L 697 0 
L 697 3053 
L 147 3053 
L 147 3500 
L 697 3500 
L 697 3744 
Q 697 4328 969 4595 
Q 1241 4863 1831 4863 
L 2375 4863 
z
" transform="scale(0.015625)"/>
       <path id="DejaVuSans-63" d="M 3122 3366 
L 3122 2828 
Q 2878 2963 2633 3030 
Q 2388 3097 2138 3097 
Q 1578 3097 1268 2742 
Q 959 2388 959 1747 
Q 959 1106 1268 751 
Q 1578 397 2138 397 
Q 2388 397 2633 464 
Q 2878 531 3122 666 
L 3122 134 
Q 2881 22 2623 -34 
Q 2366 -91 2075 -91 
Q 1284 -91 818 406 
Q 353 903 353 1747 
Q 353 2603 823 3093 
Q 1294 3584 2113 3584 
Q 2378 3584 2631 3529 
Q 2884 3475 3122 3366 
z
" transform="scale(0.015625)"/>
       <path id="DejaVuSans-73" d="M 2834 3397 
L 2834 2853 
Q 2591 2978 2328 3040 
Q 2066 3103 1784 3103 
Q 1356 3103 1142 2972 
Q 928 2841 928 2578 
Q 928 2378 1081 2264 
Q 1234 2150 1697 2047 
L 1894 2003 
Q 2506 1872 2764 1633 
Q 3022 1394 3022 966 
Q 3022 478 2636 193 
Q 2250 -91 1575 -91 
Q 1294 -91 989 -36 
Q 684 19 347 128 
L 347 722 
Q 666 556 975 473 
Q 1284 391 1588 391 
Q 1994 391 2212 530 
Q 2431 669 2431 922 
Q 2431 1156 2273 1281 
Q 2116 1406 1581 1522 
L 1381 1569 
Q 847 1681 609 1914 
Q 372 2147 372 2553 
Q 372 3047 722 3315 
Q 1072 3584 1716 3584 
Q 2034 3584 2315 3537 
Q 2597 3491 2834 3397 
z
" transform="scale(0.015625)"/>
       <path id="DejaVuSans-70" d="M 1159 525 
L 1159 -1331 
L 581 -1331 
L 581 3500 
L 1159 3500 
L 1159 2969 
Q 1341 3281 1617 3432 
Q 1894 3584 2278 3584 
Q 2916 3584 3314 3078 
Q 3713 2572 3713 1747 
Q 3713 922 3314 415 
Q 2916 -91 2278 -91 
Q 1894 -91 1617 61 
Q 1341 213 1159 525 
z
M 3116 1747 
Q 3116 2381 2855 2742 
Q 2594 3103 2138 3103 
Q 1681 3103 1420 2742 
Q 1159 2381 1159 1747 
Q 1159 1113 1420 752 
Q 1681 391 2138 391 
Q 2594 391 2855 752 
Q 3116 1113 3116 1747 
z
" transform="scale(0.015625)"/>
       <path id="DejaVuSans-6e" d="M 3513 2113 
L 3513 0 
L 2938 0 
L 2938 2094 
Q 2938 2591 2744 2837 
Q 2550 3084 2163 3084 
Q 1697 3084 1428 2787 
Q 1159 2491 1159 1978 
L 1159 0 
L 581 0 
L 581 3500 
L 1159 3500 
L 1159 2956 
Q 1366 3272 1645 3428 
Q 1925 3584 2291 3584 
Q 2894 3584 3203 3211 
Q 3513 2838 3513 2113 
z
" transform="scale(0.015625)"/>
      </defs>
      <use xlink:href="#DejaVuSans-50"/>
      <use xlink:href="#DejaVuSans-72" x="58.552734"/>
      <use xlink:href="#DejaVuSans-6f" x="97.416016"/>
      <use xlink:href="#DejaVuSans-62" x="158.597656"/>
      <use xlink:href="#DejaVuSans-61" x="222.074219"/>
      <use xlink:href="#DejaVuSans-62" x="283.353516"/>
      <use xlink:href="#DejaVuSans-69" x="346.830078"/>
      <use xlink:href="#DejaVuSans-6c" x="374.613281"/>
      <use xlink:href="#DejaVuSans-69" x="402.396484"/>
      <use xlink:href="#DejaVuSans-74" x="430.179688"/>
      <use xlink:href="#DejaVuSans-79" x="469.388672"/>
      <use xlink:href="#DejaVuSans-20" x="528.568359"/>
      <use xlink:href="#DejaVuSans-6f" x="560.355469"/>
      <use xlink:href="#DejaVuSans-66" x="621.537109"/>
      <use xlink:href="#DejaVuSans-20" x="656.742188"/>
      <use xlink:href="#DejaVuSans-63" x="688.529297"/>
      <use xlink:href="#DejaVuSans-6f" x="743.509766"/>
      <use xlink:href="#DejaVuSans-72" x="804.691406"/>
      <use xlink:href="#DejaVuSans-72" x="844.054688"/>
      <use xlink:href="#DejaVuSans-65" x="882.917969"/>
      <use xlink:href="#DejaVuSans-63" x="944.441406"/>
      <use xlink:href="#DejaVuSans-74" x="999.421875"/>
      <use xlink:href="#DejaVuSans-20" x="1038.630859"/>
      <use xlink:href="#DejaVuSans-72" x="1070.417969"/>
      <use xlink:href="#DejaVuSans-65" x="1109.28125"/>
      <use xlink:href="#DejaVuSans-73" x="1170.804688"/>
      <use xlink:href="#DejaVuSans-70" x="1222.904297"/>
      <use xlink:href="#DejaVuSans-6f" x="1286.380859"/>
      <use xlink:href="#DejaVuSans-6e" x="1347.5625"/>
      <use xlink:href="#DejaVuSans-73" x="1410.941406"/>
      <use xlink:href="#DejaVuSans-65" x="1463.041016"/>
     </g>
    </g>
   </g>
   <g id="PolyCollection_1">
    <defs>
     <path id="m1a50da1dda" d="M 113.932545 -150.115419 
L 66.63652 -150.115419 
L 66.309765 -150.708226 
L 66.007293 -151.301034 
L 65.728629 -151.893841 
L 65.473079 -152.486649 
L 65.239741 -153.079457 
L 65.027509 -153.672264 
L 64.835094 -154.265072 
L 64.661035 -154.857879 
L 64.503716 -155.450687 
L 64.361389 -156.043495 
L 64.232195 -156.636302 
L 64.114186 -157.22911 
L 64.005352 -157.821917 
L 63.903643 -158.414725 
L 63.806997 -159.007533 
L 63.71337 -159.60034 
L 63.620754 -160.193148 
L 63.527212 -160.785956 
L 63.430898 -161.378763 
L 63.330082 -161.971571 
L 63.223173 -162.564378 
L 63.108742 -163.157186 
L 62.985537 -163.749994 
L 62.852503 -164.342801 
L 62.708799 -164.935609 
L 62.553803 -165.528416 
L 62.387129 -166.121224 
L 62.208628 -166.714032 
L 62.018394 -167.306839 
L 61.816764 -167.899647 
L 61.604316 -168.492454 
L 61.381865 -169.085262 
L 61.150451 -169.67807 
L 60.911335 -170.270877 
L 60.665977 -170.863685 
L 60.416029 -171.456492 
L 60.163309 -172.0493 
L 59.909788 -172.642108 
L 59.657564 -173.234915 
L 59.40884 -173.827723 
L 59.165901 -174.420531 
L 58.931084 -175.013338 
L 58.706759 -175.606146 
L 58.495298 -176.198953 
L 58.29905 -176.791761 
L 58.120315 -177.384569 
L 57.961322 -177.977376 
L 57.824198 -178.570184 
L 57.710953 -179.162991 
L 57.623452 -179.755799 
L 57.5634 -180.348607 
L 57.532321 -180.941414 
L 57.531545 -181.534222 
L 57.562193 -182.127029 
L 57.625166 -182.719837 
L 57.721139 -183.312645 
L 57.850553 -183.905452 
L 58.013614 -184.49826 
L 58.210293 -185.091068 
L 58.440327 -185.683875 
L 58.703225 -186.276683 
L 58.998276 -186.86949 
L 59.324561 -187.462298 
L 59.68096 -188.055106 
L 60.066173 -188.647913 
L 60.478729 -189.240721 
L 60.917012 -189.833528 
L 61.379272 -190.426336 
L 61.86365 -191.019144 
L 62.368197 -191.611951 
L 62.890897 -192.204759 
L 63.429684 -192.797566 
L 63.982469 -193.390374 
L 64.547156 -193.983182 
L 65.121667 -194.575989 
L 65.703956 -195.168797 
L 66.292029 -195.761605 
L 66.883965 -196.354412 
L 67.477924 -196.94722 
L 68.072165 -197.540027 
L 68.665056 -198.132835 
L 69.255086 -198.725643 
L 69.840867 -199.31845 
L 70.421146 -199.911258 
L 70.994807 -200.504065 
L 71.560867 -201.096873 
L 72.118485 -201.689681 
L 72.666952 -202.282488 
L 73.205692 -202.875296 
L 73.734253 -203.468103 
L 74.252303 -204.060911 
L 74.759621 -204.653719 
L 75.256089 -205.246526 
L 75.741679 -205.839334 
L 76.216445 -206.432142 
L 76.680514 -207.024949 
L 77.134071 -207.617757 
L 77.577349 -208.210564 
L 78.01062 -208.803372 
L 102.558445 -208.803372 
L 102.558445 -208.803372 
L 102.991716 -208.210564 
L 103.434994 -207.617757 
L 103.888551 -207.024949 
L 104.35262 -206.432142 
L 104.827386 -205.839334 
L 105.312976 -205.246526 
L 105.809444 -204.653719 
L 106.316762 -204.060911 
L 106.834812 -203.468103 
L 107.363373 -202.875296 
L 107.902113 -202.282488 
L 108.45058 -201.689681 
L 109.008198 -201.096873 
L 109.574258 -200.504065 
L 110.147918 -199.911258 
L 110.728198 -199.31845 
L 111.313979 -198.725643 
L 111.904009 -198.132835 
L 112.4969 -197.540027 
L 113.091141 -196.94722 
L 113.6851 -196.354412 
L 114.277036 -195.761605 
L 114.865109 -195.168797 
L 115.447398 -194.575989 
L 116.021909 -193.983182 
L 116.586596 -193.390374 
L 117.139381 -192.797566 
L 117.678168 -192.204759 
L 118.200867 -191.611951 
L 118.705415 -191.019144 
L 119.189793 -190.426336 
L 119.652053 -189.833528 
L 120.090336 -189.240721 
L 120.502892 -188.647913 
L 120.888105 -188.055106 
L 121.244504 -187.462298 
L 121.570789 -186.86949 
L 121.86584 -186.276683 
L 122.128738 -185.683875 
L 122.358772 -185.091068 
L 122.555451 -184.49826 
L 122.718512 -183.905452 
L 122.847926 -183.312645 
L 122.943899 -182.719837 
L 123.006872 -182.127029 
L 123.037519 -181.534222 
L 123.036744 -180.941414 
L 123.005665 -180.348607 
L 122.945613 -179.755799 
L 122.858112 -179.162991 
L 122.744867 -178.570184 
L 122.607743 -177.977376 
L 122.44875 -177.384569 
L 122.270015 -176.791761 
L 122.073767 -176.198953 
L 121.862306 -175.606146 
L 121.637981 -175.013338 
L 121.403164 -174.420531 
L 121.160224 -173.827723 
L 120.911501 -173.234915 
L 120.659277 -172.642108 
L 120.405756 -172.0493 
L 120.153036 -171.456492 
L 119.903088 -170.863685 
L 119.65773 -170.270877 
L 119.418614 -169.67807 
L 119.1872 -169.085262 
L 118.964749 -168.492454 
L 118.752301 -167.899647 
L 118.550671 -167.306839 
L 118.360437 -166.714032 
L 118.181936 -166.121224 
L 118.015262 -165.528416 
L 117.860266 -164.935609 
L 117.716562 -164.342801 
L 117.583528 -163.749994 
L 117.460323 -163.157186 
L 117.345891 -162.564378 
L 117.238983 -161.971571 
L 117.138167 -161.378763 
L 117.041853 -160.785956 
L 116.948311 -160.193148 
L 116.855695 -159.60034 
L 116.762068 -159.007533 
L 116.665422 -158.414725 
L 116.563713 -157.821917 
L 116.454878 -157.22911 
L 116.33687 -156.636302 
L 116.207676 -156.043495 
L 116.065349 -155.450687 
L 115.90803 -154.857879 
L 115.733971 -154.265072 
L 115.541556 -153.672264 
L 115.329324 -153.079457 
L 115.095986 -152.486649 
L 114.840436 -151.893841 
L 114.561772 -151.301034 
L 114.2593 -150.708226 
L 113.932545 -150.115419 
z
" style="stroke: #2f2f2f"/>
    </defs>
    <g clip-path="url(#pfbc326ce5e)">
     <use xlink:href="#m1a50da1dda" x="0" y="288" style="fill: #58b2a3; stroke: #2f2f2f"/>
    </g>
   </g>
   <g id="PolyCollection_2">
    <defs>
     <path id="mfe072a36bd" d="M 180.3761 -141.970138 
L 163.9579 -141.970138 
L 163.759256 -142.612365 
L 163.560182 -143.254592 
L 163.35964 -143.896819 
L 163.156492 -144.539047 
L 162.949506 -145.181274 
L 162.73738 -145.823501 
L 162.51875 -146.465728 
L 162.292215 -147.107955 
L 162.056356 -147.750182 
L 161.809754 -148.392409 
L 161.551014 -149.034637 
L 161.278785 -149.676864 
L 160.991784 -150.319091 
L 160.688813 -150.961318 
L 160.368783 -151.603545 
L 160.03073 -152.245772 
L 159.673834 -152.887999 
L 159.297437 -153.530227 
L 158.901052 -154.172454 
L 158.484378 -154.814681 
L 158.047309 -155.456908 
L 157.589939 -156.099135 
L 157.112567 -156.741362 
L 156.615699 -157.38359 
L 156.100047 -158.025817 
L 155.566521 -158.668044 
L 155.016228 -159.310271 
L 154.450461 -159.952498 
L 153.870686 -160.594725 
L 153.27853 -161.236952 
L 152.67577 -161.87918 
L 152.064308 -162.521407 
L 151.446161 -163.163634 
L 150.823438 -163.805861 
L 150.198321 -164.448088 
L 149.573047 -165.090315 
L 148.949882 -165.732543 
L 148.331108 -166.37477 
L 147.718998 -167.016997 
L 147.115799 -167.659224 
L 146.523712 -168.301451 
L 145.944877 -168.943678 
L 145.381355 -169.585905 
L 144.835113 -170.228133 
L 144.308014 -170.87036 
L 143.8018 -171.512587 
L 143.31809 -172.154814 
L 142.858365 -172.797041 
L 142.423966 -173.439268 
L 142.01609 -174.081495 
L 141.635785 -174.723723 
L 141.283954 -175.36595 
L 140.96135 -176.008177 
L 140.668585 -176.650404 
L 140.406131 -177.292631 
L 140.174328 -177.934858 
L 139.973387 -178.577086 
L 139.803404 -179.219313 
L 139.664361 -179.86154 
L 139.556145 -180.503767 
L 139.478549 -181.145994 
L 139.43129 -181.788221 
L 139.414013 -182.430448 
L 139.426307 -183.072676 
L 139.467712 -183.714903 
L 139.53773 -184.35713 
L 139.635831 -184.999357 
L 139.761469 -185.641584 
L 139.91408 -186.283811 
L 140.093096 -186.926038 
L 140.297947 -187.568266 
L 140.528065 -188.210493 
L 140.782891 -188.85272 
L 141.061871 -189.494947 
L 141.36446 -190.137174 
L 141.690124 -190.779401 
L 142.038333 -191.421629 
L 142.408562 -192.063856 
L 142.800286 -192.706083 
L 143.212976 -193.34831 
L 143.646095 -193.990537 
L 144.09909 -194.632764 
L 144.571388 -195.274991 
L 145.062388 -195.917219 
L 145.571456 -196.559446 
L 146.097921 -197.201673 
L 146.641064 -197.8439 
L 147.200118 -198.486127 
L 147.77426 -199.128354 
L 148.362609 -199.770581 
L 148.964223 -200.412809 
L 149.578095 -201.055036 
L 150.203157 -201.697263 
L 150.838275 -202.33949 
L 151.482255 -202.981717 
L 152.133842 -203.623944 
L 152.791727 -204.266172 
L 153.454553 -204.908399 
L 154.120918 -205.550626 
L 190.213082 -205.550626 
L 190.213082 -205.550626 
L 190.879447 -204.908399 
L 191.542273 -204.266172 
L 192.200158 -203.623944 
L 192.851745 -202.981717 
L 193.495725 -202.33949 
L 194.130843 -201.697263 
L 194.755905 -201.055036 
L 195.369777 -200.412809 
L 195.971391 -199.770581 
L 196.55974 -199.128354 
L 197.133882 -198.486127 
L 197.692936 -197.8439 
L 198.236079 -197.201673 
L 198.762544 -196.559446 
L 199.271612 -195.917219 
L 199.762612 -195.274991 
L 200.23491 -194.632764 
L 200.687905 -193.990537 
L 201.121024 -193.34831 
L 201.533714 -192.706083 
L 201.925438 -192.063856 
L 202.295667 -191.421629 
L 202.643876 -190.779401 
L 202.96954 -190.137174 
L 203.272129 -189.494947 
L 203.551109 -188.85272 
L 203.805935 -188.210493 
L 204.036053 -187.568266 
L 204.240904 -186.926038 
L 204.41992 -186.283811 
L 204.572531 -185.641584 
L 204.698169 -184.999357 
L 204.79627 -184.35713 
L 204.866288 -183.714903 
L 204.907693 -183.072676 
L 204.919987 -182.430448 
L 204.90271 -181.788221 
L 204.855451 -181.145994 
L 204.777855 -180.503767 
L 204.669639 -179.86154 
L 204.530596 -179.219313 
L 204.360613 -178.577086 
L 204.159672 -177.934858 
L 203.927869 -177.292631 
L 203.665415 -176.650404 
L 203.37265 -176.008177 
L 203.050046 -175.36595 
L 202.698215 -174.723723 
L 202.31791 -174.081495 
L 201.910034 -173.439268 
L 201.475635 -172.797041 
L 201.01591 -172.154814 
L 200.5322 -171.512587 
L 200.025986 -170.87036 
L 199.498887 -170.228133 
L 198.952645 -169.585905 
L 198.389123 -168.943678 
L 197.810288 -168.301451 
L 197.218201 -167.659224 
L 196.615002 -167.016997 
L 196.002892 -166.37477 
L 195.384118 -165.732543 
L 194.760953 -165.090315 
L 194.135679 -164.448088 
L 193.510562 -163.805861 
L 192.887839 -163.163634 
L 192.269692 -162.521407 
L 191.65823 -161.87918 
L 191.05547 -161.236952 
L 190.463314 -160.594725 
L 189.883539 -159.952498 
L 189.317772 -159.310271 
L 188.767479 -158.668044 
L 188.233953 -158.025817 
L 187.718301 -157.38359 
L 187.221433 -156.741362 
L 186.744061 -156.099135 
L 186.286691 -155.456908 
L 185.849622 -154.814681 
L 185.432948 -154.172454 
L 185.036563 -153.530227 
L 184.660166 -152.887999 
L 184.30327 -152.245772 
L 183.965217 -151.603545 
L 183.645187 -150.961318 
L 183.342216 -150.319091 
L 183.055215 -149.676864 
L 182.782986 -149.034637 
L 182.524246 -148.392409 
L 182.277644 -147.750182 
L 182.041785 -147.107955 
L 181.81525 -146.465728 
L 181.59662 -145.823501 
L 181.384494 -145.181274 
L 181.177508 -144.539047 
L 180.97436 -143.896819 
L 180.773818 -143.254592 
L 180.574744 -142.612365 
L 180.3761 -141.970138 
z
" style="stroke: #2f2f2f"/>
    </defs>
    <g clip-path="url(#pfbc326ce5e)">
     <use xlink:href="#mfe072a36bd" x="0" y="288" style="fill: #437695; stroke: #2f2f2f"/>
    </g>
   </g>
   <g id="PolyCollection_3">
    <defs>
     <path id="m4ab6fe04e6" d="M 264.529888 -143.945672 
L 243.569047 -143.945672 
L 243.253393 -144.435197 
L 242.934296 -144.924721 
L 242.611488 -145.414245 
L 242.284699 -145.90377 
L 241.953665 -146.393294 
L 241.618135 -146.882819 
L 241.277882 -147.372343 
L 240.932713 -147.861867 
L 240.582477 -148.351392 
L 240.227072 -148.840916 
L 239.866458 -149.33044 
L 239.500658 -149.819965 
L 239.129768 -150.309489 
L 238.75396 -150.799013 
L 238.373489 -151.288538 
L 237.988689 -151.778062 
L 237.59998 -152.267587 
L 237.207861 -152.757111 
L 236.812912 -153.246635 
L 236.415787 -153.73616 
L 236.017207 -154.225684 
L 235.617955 -154.715208 
L 235.218865 -155.204733 
L 234.820809 -155.694257 
L 234.424689 -156.183781 
L 234.031422 -156.673306 
L 233.641927 -157.16283 
L 233.25711 -157.652354 
L 232.877848 -158.141879 
L 232.504979 -158.631403 
L 232.139282 -159.120928 
L 231.781468 -159.610452 
L 231.432166 -160.099976 
L 231.091909 -160.589501 
L 230.761126 -161.079025 
L 230.440134 -161.568549 
L 230.129129 -162.058074 
L 229.828185 -162.547598 
L 229.537246 -163.037122 
L 229.256133 -163.526647 
L 228.98454 -164.016171 
L 228.722044 -164.505695 
L 228.468107 -164.99522 
L 228.222091 -165.484744 
L 227.983264 -165.974269 
L 227.75082 -166.463793 
L 227.52389 -166.953317 
L 227.30156 -167.442842 
L 227.082893 -167.932366 
L 226.866944 -168.42189 
L 226.652786 -168.911415 
L 226.439525 -169.400939 
L 226.226325 -169.890463 
L 226.012429 -170.379988 
L 225.797176 -170.869512 
L 225.580023 -171.359037 
L 225.360561 -171.848561 
L 225.138532 -172.338085 
L 224.913841 -172.82761 
L 224.686571 -173.317134 
L 224.456989 -173.806658 
L 224.225554 -174.296183 
L 223.992921 -174.785707 
L 223.759941 -175.275231 
L 223.527659 -175.764756 
L 223.297308 -176.25428 
L 223.070303 -176.743804 
L 222.848227 -177.233329 
L 222.632818 -177.722853 
L 222.425954 -178.212378 
L 222.229633 -178.701902 
L 222.04595 -179.191426 
L 221.877079 -179.680951 
L 221.725243 -180.170475 
L 221.592692 -180.659999 
L 221.481678 -181.149524 
L 221.394423 -181.639048 
L 221.333096 -182.128572 
L 221.299788 -182.618097 
L 221.296481 -183.107621 
L 221.325026 -183.597146 
L 221.387122 -184.08667 
L 221.484289 -184.576194 
L 221.617851 -185.065719 
L 221.788919 -185.555243 
L 221.998374 -186.044767 
L 222.246856 -186.534292 
L 222.534753 -187.023816 
L 222.862194 -187.51334 
L 223.229046 -188.002865 
L 223.634914 -188.492389 
L 224.07914 -188.981913 
L 224.56081 -189.471438 
L 225.078763 -189.960962 
L 225.631598 -190.450487 
L 226.217687 -190.940011 
L 226.835195 -191.429535 
L 227.482091 -191.91906 
L 228.156171 -192.408584 
L 279.942764 -192.408584 
L 279.942764 -192.408584 
L 280.616844 -191.91906 
L 281.26374 -191.429535 
L 281.881248 -190.940011 
L 282.467337 -190.450487 
L 283.020172 -189.960962 
L 283.538125 -189.471438 
L 284.019795 -188.981913 
L 284.464021 -188.492389 
L 284.869889 -188.002865 
L 285.236742 -187.51334 
L 285.564182 -187.023816 
L 285.852079 -186.534292 
L 286.100561 -186.044767 
L 286.310016 -185.555243 
L 286.481084 -185.065719 
L 286.614646 -184.576194 
L 286.711813 -184.08667 
L 286.773909 -183.597146 
L 286.802455 -183.107621 
L 286.799147 -182.618097 
L 286.765839 -182.128572 
L 286.704513 -181.639048 
L 286.617257 -181.149524 
L 286.506243 -180.659999 
L 286.373692 -180.170475 
L 286.221856 -179.680951 
L 286.052985 -179.191426 
L 285.869302 -178.701902 
L 285.672981 -178.212378 
L 285.466117 -177.722853 
L 285.250708 -177.233329 
L 285.028632 -176.743804 
L 284.801627 -176.25428 
L 284.571276 -175.764756 
L 284.338994 -175.275231 
L 284.106014 -174.785707 
L 283.873381 -174.296183 
L 283.641946 -173.806658 
L 283.412364 -173.317134 
L 283.185094 -172.82761 
L 282.960403 -172.338085 
L 282.738374 -171.848561 
L 282.518912 -171.359037 
L 282.301759 -170.869512 
L 282.086506 -170.379988 
L 281.87261 -169.890463 
L 281.65941 -169.400939 
L 281.446149 -168.911415 
L 281.231991 -168.42189 
L 281.016042 -167.932366 
L 280.797375 -167.442842 
L 280.575045 -166.953317 
L 280.348115 -166.463793 
L 280.115671 -165.974269 
L 279.876845 -165.484744 
L 279.630828 -164.99522 
L 279.376891 -164.505695 
L 279.114395 -164.016171 
L 278.842802 -163.526647 
L 278.561689 -163.037122 
L 278.27075 -162.547598 
L 277.969806 -162.058074 
L 277.658801 -161.568549 
L 277.337809 -161.079025 
L 277.007026 -160.589501 
L 276.666769 -160.099976 
L 276.317467 -159.610452 
L 275.959653 -159.120928 
L 275.593956 -158.631403 
L 275.221087 -158.141879 
L 274.841825 -157.652354 
L 274.457008 -157.16283 
L 274.067513 -156.673306 
L 273.674246 -156.183781 
L 273.278126 -155.694257 
L 272.88007 -155.204733 
L 272.48098 -154.715208 
L 272.081728 -154.225684 
L 271.683148 -153.73616 
L 271.286023 -153.246635 
L 270.891074 -152.757111 
L 270.498955 -152.267587 
L 270.110246 -151.778062 
L 269.725446 -151.288538 
L 269.344975 -150.799013 
L 268.969167 -150.309489 
L 268.598277 -149.819965 
L 268.232477 -149.33044 
L 267.871863 -148.840916 
L 267.516458 -148.351392 
L 267.166222 -147.861867 
L 266.821053 -147.372343 
L 266.4808 -146.882819 
L 266.14527 -146.393294 
L 265.814236 -145.90377 
L 265.487447 -145.414245 
L 265.164639 -144.924721 
L 264.845542 -144.435197 
L 264.529888 -143.945672 
z
" style="stroke: #2f2f2f"/>
    </defs>
    <g clip-path="url(#pfbc326ce5e)">
     <use xlink:href="#m4ab6fe04e6" x="0" y="288" style="fill: #423b63; stroke: #2f2f2f"/>
    </g>
   </g>
   <g id="line2d_11">
    <path d="M 90.284532 137.884581 
L 90.284532 79.196628 
" clip-path="url(#pfbc326ce5e)" style="fill: none; stroke: #2f2f2f; stroke-width: 1.5; stroke-linecap: round"/>
   </g>
   <g id="line2d_12">
    <path d="M 90.284532 135.254034 
L 90.284532 103.32744 
" clip-path="url(#pfbc326ce5e)" style="fill: none; stroke: #2f2f2f; stroke-width: 4.5; stroke-linecap: round"/>
   </g>
   <g id="line2d_13">
    <path d="M 90.284532 108.798636 
" clip-path="url(#pfbc326ce5e)" style="fill: none; stroke: #2f2f2f; stroke-width: 1.2; stroke-linecap: round"/>
    <defs>
     <path id="m03c6c8fcf6" d="M 1.875 0 
L -1.875 -0 
" style="stroke: #ffffff; stroke-width: 0.9"/>
    </defs>
    <g clip-path="url(#pfbc326ce5e)">
     <use xlink:href="#m03c6c8fcf6" x="90.284532" y="108.798636" style="fill: #ffffff; stroke: #ffffff; stroke-width: 0.9"/>
    </g>
   </g>
   <g id="line2d_14">
    <path d="M 172.167 146.029862 
L 172.167 82.449374 
" clip-path="url(#pfbc326ce5e)" style="fill: none; stroke: #2f2f2f; stroke-width: 1.5; stroke-linecap: round"/>
   </g>
   <g id="line2d_15">
    <path d="M 172.167 116.224034 
L 172.167 94.783195 
" clip-path="url(#pfbc326ce5e)" style="fill: none; stroke: #2f2f2f; stroke-width: 4.5; stroke-linecap: round"/>
   </g>
   <g id="line2d_16">
    <path d="M 172.167 105.23556 
" clip-path="url(#pfbc326ce5e)" style="fill: none; stroke: #2f2f2f; stroke-width: 1.2; stroke-linecap: round"/>
    <g clip-path="url(#pfbc326ce5e)">
     <use xlink:href="#m03c6c8fcf6" x="172.167" y="105.23556" style="fill: #ffffff; stroke: #ffffff; stroke-width: 0.9"/>
    </g>
   </g>
   <g id="line2d_17">
    <path d="M 254.049468 144.054328 
L 254.049468 95.591416 
" clip-path="url(#pfbc326ce5e)" style="fill: none; stroke: #2f2f2f; stroke-width: 1.5; stroke-linecap: round"/>
   </g>
   <g id="line2d_18">
    <path d="M 254.049468 123.782305 
L 254.049468 102.071952 
" clip-path="url(#pfbc326ce5e)" style="fill: none; stroke: #2f2f2f; stroke-width: 4.5; stroke-linecap: round"/>
   </g>
   <g id="line2d_19">
    <path d="M 254.049468 109.928123 
" clip-path="url(#pfbc326ce5e)" style="fill: none; stroke: #2f2f2f; stroke-width: 1.2; stroke-linecap: round"/>
    <g clip-path="url(#pfbc326ce5e)">
     <use xlink:href="#m03c6c8fcf6" x="254.049468" y="109.928123" style="fill: #ffffff; stroke: #ffffff; stroke-width: 0.9"/>
    </g>
   </g>
   <g id="line2d_20">
    <path d="M 90.284532 75.609361 
L 90.284532 67.045412 
L 172.167 67.045412 
L 172.167 75.609361 
" clip-path="url(#pfbc326ce5e)" style="fill: none; stroke: #000000; stroke-linecap: round"/>
   </g>
   <g id="line2d_21">
    <path d="M 172.167 61.260295 
L 172.167 52.337619 
L 254.049468 52.337619 
L 254.049468 61.260295 
" clip-path="url(#pfbc326ce5e)" style="fill: none; stroke: #000000; stroke-linecap: round"/>
   </g>
   <g id="line2d_22">
    <path d="M 90.284532 46.911228 
L 90.284532 37.629825 
L 254.049468 37.629825 
L 254.049468 46.911228 
" clip-path="url(#pfbc326ce5e)" style="fill: none; stroke: #000000; stroke-linecap: round"/>
   </g>
   <g id="patch_3">
    <path d="M 46.068 238.804 
L 46.068 23.568 
" style="fill: none; stroke: #262626; stroke-linejoin: miter; stroke-linecap: square"/>
   </g>
   <g id="patch_4">
    <path d="M 298.266 238.804 
L 298.266 23.568 
" style="fill: none; stroke: #262626; stroke-linejoin: miter; stroke-linecap: square"/>
   </g>
   <g id="patch_5">
    <path d="M 46.068 238.804 
L 298.266 238.804 
" style="fill: none; stroke: #262626; stroke-linejoin: miter; stroke-linecap: square"/>
   </g>
   <g id="patch_6">
    <path d="M 46.068 23.568 
L 298.266 23.568 
" style="fill: none; stroke: #262626; stroke-linejoin: miter; stroke-linecap: square"/>
   </g>
   <g id="text_12">
    <!-- ns -->
    <g transform="translate(125.683266 65.048912) scale(0.096 -0.096)">
     <use xlink:href="#DejaVuSans-6e"/>
     <use xlink:href="#DejaVuSans-73" x="63.378906"/>
    </g>
   </g>
   <g id="text_13">
    <!-- ns -->
    <g transform="translate(207.565734 50.341119) scale(0.096 -0.096)">
     <use xlink:href="#DejaVuSans-6e"/>
     <use xlink:href="#DejaVuSans-73" x="63.378906"/>
    </g>
   </g>
   <g id="text_14">
    <!-- ns -->
    <g transform="translate(166.6245 35.633325) scale(0.096 -0.096)">
     <use xlink:href="#DejaVuSans-6e"/>
     <use xlink:href="#DejaVuSans-73" x="63.378906"/>
    </g>
   </g>
   <g id="text_15">
    <!-- Accuracy -->
    <g style="fill: #262626" transform="translate(150.252 17.568) scale(0.096 -0.096)">
     <defs>
      <path id="DejaVuSans-41" d="M 2188 4044 
L 1331 1722 
L 3047 1722 
L 2188 4044 
z
M 1831 4666 
L 2547 4666 
L 4325 0 
L 3669 0 
L 3244 1197 
L 1141 1197 
L 716 0 
L 50 0 
L 1831 4666 
z
" transform="scale(0.015625)"/>
     </defs>
     <use xlink:href="#DejaVuSans-41"/>
     <use xlink:href="#DejaVuSans-63" x="66.658203"/>
     <use xlink:href="#DejaVuSans-63" x="121.638672"/>
     <use xlink:href="#DejaVuSans-75" x="176.619141"/>
     <use xlink:href="#DejaVuSans-72" x="239.998047"/>
     <use xlink:href="#DejaVuSans-61" x="281.111328"/>
     <use xlink:href="#DejaVuSans-63" x="342.390625"/>
     <use xlink:href="#DejaVuSans-79" x="397.371094"/>
    </g>
   </g>
  </g>
  <g id="axes_2">
   <g id="patch_7">
    <path d="M 313.434 238.804 
L 565.632 238.804 
L 565.632 23.568 
L 313.434 23.568 
L 313.434 238.804 
z
" style="fill: none"/>
   </g>
   <g id="matplotlib.axis_3">
    <g id="xtick_4">
     <g id="line2d_23">
      <g>
       <use xlink:href="#mfcdc22f3de" x="357.650532" y="238.804" style="fill: #262626; stroke: #262626"/>
      </g>
     </g>
     <g id="text_16">
      <!-- Low -->
      <g style="fill: #262626" transform="translate(348.985282 253.790625) scale(0.088 -0.088)">
       <use xlink:href="#DejaVuSans-4c"/>
       <use xlink:href="#DejaVuSans-6f" x="53.962891"/>
       <use xlink:href="#DejaVuSans-77" x="115.144531"/>
      </g>
     </g>
    </g>
    <g id="xtick_5">
     <g id="line2d_24">
      <g>
       <use xlink:href="#mfcdc22f3de" x="439.533" y="238.804" style="fill: #262626; stroke: #262626"/>
      </g>
     </g>
     <g id="text_17">
      <!-- Medium -->
      <g style="fill: #262626" transform="translate(421.939188 253.790625) scale(0.088 -0.088)">
       <use xlink:href="#DejaVuSans-4d"/>
       <use xlink:href="#DejaVuSans-65" x="86.279297"/>
       <use xlink:href="#DejaVuSans-64" x="147.802734"/>
       <use xlink:href="#DejaVuSans-69" x="211.279297"/>
       <use xlink:href="#DejaVuSans-75" x="239.0625"/>
       <use xlink:href="#DejaVuSans-6d" x="302.441406"/>
      </g>
     </g>
    </g>
    <g id="xtick_6">
     <g id="line2d_25">
      <g>
       <use xlink:href="#mfcdc22f3de" x="521.415468" y="238.804" style="fill: #262626; stroke: #262626"/>
      </g>
     </g>
     <g id="text_18">
      <!-- High -->
      <g style="fill: #262626" transform="translate(511.302343 253.790625) scale(0.088 -0.088)">
       <use xlink:href="#DejaVuSans-48"/>
       <use xlink:href="#DejaVuSans-69" x="75.195312"/>
       <use xlink:href="#DejaVuSans-67" x="102.978516"/>
       <use xlink:href="#DejaVuSans-68" x="166.455078"/>
      </g>
     </g>
    </g>
   </g>
   <g id="matplotlib.axis_4">
    <g id="ytick_8">
     <g id="line2d_26">
      <g>
       <use xlink:href="#m0acac0e0c8" x="313.434" y="238.804" style="fill: #262626; stroke: #262626"/>
      </g>
     </g>
    </g>
    <g id="ytick_9">
     <g id="line2d_27">
      <g>
       <use xlink:href="#m0acac0e0c8" x="313.434" y="202.931333" style="fill: #262626; stroke: #262626"/>
      </g>
     </g>
    </g>
    <g id="ytick_10">
     <g id="line2d_28">
      <g>
       <use xlink:href="#m0acac0e0c8" x="313.434" y="167.058667" style="fill: #262626; stroke: #262626"/>
      </g>
     </g>
    </g>
    <g id="ytick_11">
     <g id="line2d_29">
      <g>
       <use xlink:href="#m0acac0e0c8" x="313.434" y="131.186" style="fill: #262626; stroke: #262626"/>
      </g>
     </g>
    </g>
    <g id="ytick_12">
     <g id="line2d_30">
      <g>
       <use xlink:href="#m0acac0e0c8" x="313.434" y="95.313333" style="fill: #262626; stroke: #262626"/>
      </g>
     </g>
    </g>
    <g id="ytick_13">
     <g id="line2d_31">
      <g>
       <use xlink:href="#m0acac0e0c8" x="313.434" y="59.440667" style="fill: #262626; stroke: #262626"/>
      </g>
     </g>
    </g>
    <g id="ytick_14">
     <g id="line2d_32">
      <g>
       <use xlink:href="#m0acac0e0c8" x="313.434" y="23.568" style="fill: #262626; stroke: #262626"/>
      </g>
     </g>
    </g>
   </g>
   <g id="PolyCollection_4">
    <defs>
     <path id="m0d408e4996" d="M 383.754722 -66.321142 
L 331.546343 -66.321142 
L 330.883931 -67.424749 
L 330.246902 -68.528355 
L 329.637474 -69.631961 
L 329.057761 -70.735567 
L 328.509754 -71.839174 
L 327.995316 -72.94278 
L 327.516161 -74.046386 
L 327.073855 -75.149993 
L 326.669796 -76.253599 
L 326.305217 -77.357205 
L 325.981171 -78.460811 
L 325.69853 -79.564418 
L 325.457982 -80.668024 
L 325.260027 -81.77163 
L 325.104975 -82.875237 
L 324.992951 -83.978843 
L 324.92389 -85.082449 
L 324.897545 -86.186055 
L 324.91349 -87.289662 
L 324.97112 -88.393268 
L 325.069664 -89.496874 
L 325.208186 -90.600481 
L 325.385595 -91.704087 
L 325.600653 -92.807693 
L 325.851983 -93.911299 
L 326.138078 -95.014906 
L 326.457311 -96.118512 
L 326.807947 -97.222118 
L 327.188151 -98.325724 
L 327.595997 -99.429331 
L 328.029484 -100.532937 
L 328.486544 -101.636543 
L 328.96505 -102.74015 
L 329.462834 -103.843756 
L 329.977692 -104.947362 
L 330.507398 -106.050968 
L 331.049715 -107.154575 
L 331.602404 -108.258181 
L 332.163237 -109.361787 
L 332.730007 -110.465394 
L 333.300538 -111.569 
L 333.872696 -112.672606 
L 334.444398 -113.776212 
L 335.013623 -114.879819 
L 335.578419 -115.983425 
L 336.136918 -117.087031 
L 336.687336 -118.190638 
L 337.227988 -119.294244 
L 337.757293 -120.39785 
L 338.273782 -121.501456 
L 338.776103 -122.605063 
L 339.263027 -123.708669 
L 339.733457 -124.812275 
L 340.186427 -125.915882 
L 340.621107 -127.019488 
L 341.036809 -128.123094 
L 341.432984 -129.2267 
L 341.809225 -130.330307 
L 342.16527 -131.433913 
L 342.500993 -132.537519 
L 342.816412 -133.641125 
L 343.111677 -134.744732 
L 343.387073 -135.848338 
L 343.643009 -136.951944 
L 343.88002 -138.055551 
L 344.09875 -139.159157 
L 344.299957 -140.262763 
L 344.484494 -141.366369 
L 344.653307 -142.469976 
L 344.807423 -143.573582 
L 344.947941 -144.677188 
L 345.076021 -145.780795 
L 345.192876 -146.884401 
L 345.299758 -147.988007 
L 345.397948 -149.091613 
L 345.488749 -150.19522 
L 345.573468 -151.298826 
L 345.653412 -152.402432 
L 345.729875 -153.506039 
L 345.804127 -154.609645 
L 345.877407 -155.713251 
L 345.950912 -156.816857 
L 346.025787 -157.920464 
L 346.103123 -159.02407 
L 346.183942 -160.127676 
L 346.269196 -161.231282 
L 346.359761 -162.334889 
L 346.456428 -163.438495 
L 346.559905 -164.542101 
L 346.670808 -165.645708 
L 346.789662 -166.749314 
L 346.916898 -167.85292 
L 347.052853 -168.956526 
L 347.197771 -170.060133 
L 347.3518 -171.163739 
L 347.515 -172.267345 
L 347.687337 -173.370952 
L 347.868695 -174.474558 
L 348.058872 -175.578164 
L 367.242193 -175.578164 
L 367.242193 -175.578164 
L 367.43237 -174.474558 
L 367.613728 -173.370952 
L 367.786065 -172.267345 
L 367.949264 -171.163739 
L 368.103294 -170.060133 
L 368.248211 -168.956526 
L 368.384167 -167.85292 
L 368.511403 -166.749314 
L 368.630257 -165.645708 
L 368.74116 -164.542101 
L 368.844636 -163.438495 
L 368.941304 -162.334889 
L 369.031869 -161.231282 
L 369.117123 -160.127676 
L 369.197942 -159.02407 
L 369.275278 -157.920464 
L 369.350153 -156.816857 
L 369.423657 -155.713251 
L 369.496937 -154.609645 
L 369.57119 -153.506039 
L 369.647653 -152.402432 
L 369.727597 -151.298826 
L 369.812316 -150.19522 
L 369.903116 -149.091613 
L 370.001307 -147.988007 
L 370.108189 -146.884401 
L 370.225044 -145.780795 
L 370.353124 -144.677188 
L 370.493642 -143.573582 
L 370.647758 -142.469976 
L 370.816571 -141.366369 
L 371.001108 -140.262763 
L 371.202315 -139.159157 
L 371.421045 -138.055551 
L 371.658055 -136.951944 
L 371.913992 -135.848338 
L 372.189388 -134.744732 
L 372.484653 -133.641125 
L 372.800072 -132.537519 
L 373.135795 -131.433913 
L 373.49184 -130.330307 
L 373.868081 -129.2267 
L 374.264256 -128.123094 
L 374.679958 -127.019488 
L 375.114638 -125.915882 
L 375.567608 -124.812275 
L 376.038038 -123.708669 
L 376.524962 -122.605063 
L 377.027283 -121.501456 
L 377.543772 -120.39785 
L 378.073077 -119.294244 
L 378.613729 -118.190638 
L 379.164147 -117.087031 
L 379.722645 -115.983425 
L 380.287442 -114.879819 
L 380.856667 -113.776212 
L 381.428369 -112.672606 
L 382.000527 -111.569 
L 382.571058 -110.465394 
L 383.137828 -109.361787 
L 383.698661 -108.258181 
L 384.25135 -107.154575 
L 384.793667 -106.050968 
L 385.323373 -104.947362 
L 385.838231 -103.843756 
L 386.336015 -102.74015 
L 386.814521 -101.636543 
L 387.271581 -100.532937 
L 387.705068 -99.429331 
L 388.112914 -98.325724 
L 388.493118 -97.222118 
L 388.843754 -96.118512 
L 389.162987 -95.014906 
L 389.449082 -93.911299 
L 389.700412 -92.807693 
L 389.91547 -91.704087 
L 390.092879 -90.600481 
L 390.231401 -89.496874 
L 390.329945 -88.393268 
L 390.387575 -87.289662 
L 390.403519 -86.186055 
L 390.377175 -85.082449 
L 390.308114 -83.978843 
L 390.19609 -82.875237 
L 390.041038 -81.77163 
L 389.843083 -80.668024 
L 389.602535 -79.564418 
L 389.319894 -78.460811 
L 388.995848 -77.357205 
L 388.631269 -76.253599 
L 388.22721 -75.149993 
L 387.784904 -74.046386 
L 387.305749 -72.94278 
L 386.79131 -71.839174 
L 386.243304 -70.735567 
L 385.663591 -69.631961 
L 385.054163 -68.528355 
L 384.417134 -67.424749 
L 383.754722 -66.321142 
z
" style="stroke: #2f2f2f"/>
    </defs>
    <g clip-path="url(#pa561f5e5e0)">
     <use xlink:href="#m0d408e4996" x="0" y="288" style="fill: #58b2a3; stroke: #2f2f2f"/>
    </g>
   </g>
   <g id="PolyCollection_5">
    <defs>
     <path id="mb322d07ad9" d="M 451.731465 -81.807515 
L 427.334535 -81.807515 
L 426.82637 -82.772214 
L 426.304482 -83.736912 
L 425.768819 -84.701611 
L 425.219411 -85.666309 
L 424.656383 -86.631008 
L 424.079965 -87.595706 
L 423.490506 -88.560405 
L 422.888485 -89.525103 
L 422.274521 -90.489802 
L 421.64938 -91.4545 
L 421.013985 -92.419199 
L 420.369419 -93.383897 
L 419.71693 -94.348596 
L 419.057933 -95.313294 
L 418.394007 -96.277993 
L 417.726892 -97.242691 
L 417.058487 -98.20739 
L 416.390836 -99.172088 
L 415.726123 -100.136787 
L 415.066655 -101.101485 
L 414.414848 -102.066184 
L 413.773212 -103.030882 
L 413.144328 -103.995581 
L 412.53083 -104.960279 
L 411.935381 -105.924978 
L 411.360652 -106.889676 
L 410.809293 -107.854375 
L 410.283914 -108.819073 
L 409.787055 -109.783772 
L 409.321165 -110.74847 
L 408.888574 -111.713169 
L 408.491473 -112.677867 
L 408.131887 -113.642566 
L 407.811659 -114.607264 
L 407.532427 -115.571963 
L 407.295608 -116.536661 
L 407.10238 -117.50136 
L 406.953674 -118.466058 
L 406.850157 -119.430757 
L 406.792229 -120.395455 
L 406.780013 -121.360154 
L 406.813357 -122.324852 
L 406.891829 -123.289551 
L 407.014722 -124.254249 
L 407.18106 -125.218948 
L 407.389603 -126.183646 
L 407.638857 -127.148345 
L 407.927088 -128.113043 
L 408.252338 -129.077742 
L 408.612434 -130.04244 
L 409.005017 -131.007139 
L 409.427551 -131.971837 
L 409.877354 -132.936536 
L 410.351611 -133.901234 
L 410.847407 -134.865933 
L 411.361744 -135.830631 
L 411.891569 -136.79533 
L 412.433801 -137.760028 
L 412.985353 -138.724727 
L 413.54316 -139.689425 
L 414.104203 -140.654124 
L 414.665536 -141.618822 
L 415.224308 -142.583521 
L 415.777785 -143.548219 
L 416.323377 -144.512918 
L 416.858653 -145.477616 
L 417.381367 -146.442315 
L 417.889468 -147.407013 
L 418.381121 -148.371712 
L 418.854719 -149.33641 
L 419.308894 -150.301109 
L 419.742528 -151.265807 
L 420.154757 -152.230506 
L 420.544974 -153.195204 
L 420.912836 -154.159903 
L 421.258255 -155.124601 
L 421.5814 -156.0893 
L 421.882685 -157.053998 
L 422.162765 -158.018697 
L 422.422518 -158.983395 
L 422.663035 -159.948094 
L 422.8856 -160.912792 
L 423.091672 -161.877491 
L 423.282865 -162.842189 
L 423.460926 -163.806888 
L 423.627708 -164.771586 
L 423.785147 -165.736285 
L 423.935238 -166.700983 
L 424.080008 -167.665682 
L 424.221487 -168.63038 
L 424.361687 -169.595079 
L 424.502575 -170.559777 
L 424.646048 -171.524476 
L 424.793912 -172.489174 
L 424.94786 -173.453873 
L 425.109454 -174.418571 
L 425.280105 -175.38327 
L 425.461062 -176.347968 
L 425.653398 -177.312667 
L 453.412602 -177.312667 
L 453.412602 -177.312667 
L 453.604938 -176.347968 
L 453.785895 -175.38327 
L 453.956546 -174.418571 
L 454.11814 -173.453873 
L 454.272088 -172.489174 
L 454.419952 -171.524476 
L 454.563425 -170.559777 
L 454.704313 -169.595079 
L 454.844513 -168.63038 
L 454.985992 -167.665682 
L 455.130762 -166.700983 
L 455.280853 -165.736285 
L 455.438292 -164.771586 
L 455.605074 -163.806888 
L 455.783135 -162.842189 
L 455.974328 -161.877491 
L 456.1804 -160.912792 
L 456.402965 -159.948094 
L 456.643482 -158.983395 
L 456.903235 -158.018697 
L 457.183315 -157.053998 
L 457.4846 -156.0893 
L 457.807745 -155.124601 
L 458.153164 -154.159903 
L 458.521026 -153.195204 
L 458.911243 -152.230506 
L 459.323472 -151.265807 
L 459.757106 -150.301109 
L 460.211281 -149.33641 
L 460.684879 -148.371712 
L 461.176532 -147.407013 
L 461.684633 -146.442315 
L 462.207347 -145.477616 
L 462.742623 -144.512918 
L 463.288215 -143.548219 
L 463.841692 -142.583521 
L 464.400464 -141.618822 
L 464.961797 -140.654124 
L 465.52284 -139.689425 
L 466.080647 -138.724727 
L 466.632199 -137.760028 
L 467.174431 -136.79533 
L 467.704256 -135.830631 
L 468.218593 -134.865933 
L 468.714389 -133.901234 
L 469.188646 -132.936536 
L 469.638449 -131.971837 
L 470.060983 -131.007139 
L 470.453566 -130.04244 
L 470.813662 -129.077742 
L 471.138912 -128.113043 
L 471.427143 -127.148345 
L 471.676397 -126.183646 
L 471.88494 -125.218948 
L 472.051278 -124.254249 
L 472.174171 -123.289551 
L 472.252643 -122.324852 
L 472.285987 -121.360154 
L 472.273771 -120.395455 
L 472.215843 -119.430757 
L 472.112326 -118.466058 
L 471.96362 -117.50136 
L 471.770392 -116.536661 
L 471.533573 -115.571963 
L 471.254341 -114.607264 
L 470.934113 -113.642566 
L 470.574527 -112.677867 
L 470.177426 -111.713169 
L 469.744835 -110.74847 
L 469.278945 -109.783772 
L 468.782086 -108.819073 
L 468.256707 -107.854375 
L 467.705348 -106.889676 
L 467.130619 -105.924978 
L 466.53517 -104.960279 
L 465.921672 -103.995581 
L 465.292788 -103.030882 
L 464.651152 -102.066184 
L 463.999345 -101.101485 
L 463.339877 -100.136787 
L 462.675164 -99.172088 
L 462.007513 -98.20739 
L 461.339108 -97.242691 
L 460.671993 -96.277993 
L 460.008067 -95.313294 
L 459.34907 -94.348596 
L 458.696581 -93.383897 
L 458.052015 -92.419199 
L 457.41662 -91.4545 
L 456.791479 -90.489802 
L 456.177515 -89.525103 
L 455.575494 -88.560405 
L 454.986035 -87.595706 
L 454.409617 -86.631008 
L 453.846589 -85.666309 
L 453.297181 -84.701611 
L 452.761518 -83.736912 
L 452.23963 -82.772214 
L 451.731465 -81.807515 
z
" style="stroke: #2f2f2f"/>
    </defs>
    <g clip-path="url(#pa561f5e5e0)">
     <use xlink:href="#mb322d07ad9" x="0" y="288" style="fill: #437695; stroke: #2f2f2f"/>
    </g>
   </g>
   <g id="PolyCollection_6">
    <defs>
     <path id="m7dab7b53d4" d="M 537.749369 -123.104509 
L 505.081566 -123.104509 
L 504.4918 -123.653338 
L 503.899253 -124.202167 
L 503.304865 -124.750996 
L 502.709612 -125.299825 
L 502.114509 -125.848654 
L 501.520599 -126.397483 
L 500.928962 -126.946312 
L 500.3407 -127.495141 
L 499.756944 -128.04397 
L 499.178841 -128.592799 
L 498.607552 -129.141628 
L 498.044247 -129.690457 
L 497.490096 -130.239286 
L 496.94626 -130.788115 
L 496.413888 -131.336944 
L 495.894101 -131.885773 
L 495.387988 -132.434602 
L 494.896598 -132.983431 
L 494.420924 -133.53226 
L 493.961898 -134.081089 
L 493.520384 -134.629918 
L 493.097164 -135.178747 
L 492.692931 -135.727576 
L 492.308286 -136.276405 
L 491.943726 -136.825234 
L 491.599639 -137.374063 
L 491.276303 -137.922892 
L 490.973882 -138.471721 
L 490.692421 -139.02055 
L 490.431849 -139.569379 
L 490.191978 -140.118208 
L 489.972509 -140.667037 
L 489.773033 -141.215866 
L 489.593037 -141.764695 
L 489.431915 -142.313524 
L 489.288969 -142.862353 
L 489.163427 -143.411182 
L 489.054447 -143.960011 
L 488.961132 -144.50884 
L 488.882542 -145.057669 
L 488.817704 -145.606498 
L 488.765629 -146.155327 
L 488.725323 -146.704156 
L 488.695801 -147.252985 
L 488.676098 -147.801814 
L 488.665285 -148.350643 
L 488.662481 -148.899472 
L 488.666858 -149.448301 
L 488.677661 -149.99713 
L 488.69421 -150.545959 
L 488.715911 -151.094788 
L 488.742265 -151.643617 
L 488.772868 -152.192446 
L 488.807423 -152.741275 
L 488.845738 -153.290104 
L 488.887728 -153.838933 
L 488.933419 -154.387762 
L 488.982943 -154.936591 
L 489.036536 -155.48542 
L 489.094538 -156.034249 
L 489.157385 -156.583078 
L 489.225605 -157.131907 
L 489.299808 -157.680736 
L 489.380682 -158.229565 
L 489.468983 -158.778394 
L 489.565525 -159.327223 
L 489.671169 -159.876052 
L 489.786815 -160.424881 
L 489.913391 -160.97371 
L 490.051839 -161.522539 
L 490.203104 -162.071368 
L 490.368126 -162.620197 
L 490.547827 -163.169026 
L 490.743096 -163.717855 
L 490.954783 -164.266684 
L 491.183688 -164.815513 
L 491.430547 -165.364342 
L 491.696025 -165.913171 
L 491.980709 -166.462 
L 492.285097 -167.010829 
L 492.609589 -167.559658 
L 492.954486 -168.108487 
L 493.319979 -168.657316 
L 493.70615 -169.206145 
L 494.11296 -169.754974 
L 494.540257 -170.303803 
L 494.987766 -170.852632 
L 495.455092 -171.401461 
L 495.941722 -171.95029 
L 496.447026 -172.499119 
L 496.970258 -173.047948 
L 497.510563 -173.596777 
L 498.066979 -174.145606 
L 498.638448 -174.694435 
L 499.223815 -175.243264 
L 499.821843 -175.792093 
L 500.431218 -176.340922 
L 501.050559 -176.889751 
L 501.678425 -177.43858 
L 541.15251 -177.43858 
L 541.15251 -177.43858 
L 541.780376 -176.889751 
L 542.399717 -176.340922 
L 543.009092 -175.792093 
L 543.60712 -175.243264 
L 544.192487 -174.694435 
L 544.763956 -174.145606 
L 545.320372 -173.596777 
L 545.860677 -173.047948 
L 546.383909 -172.499119 
L 546.889213 -171.95029 
L 547.375843 -171.401461 
L 547.84317 -170.852632 
L 548.290678 -170.303803 
L 548.717975 -169.754974 
L 549.124785 -169.206145 
L 549.510956 -168.657316 
L 549.876449 -168.108487 
L 550.221346 -167.559658 
L 550.545838 -167.010829 
L 550.850226 -166.462 
L 551.13491 -165.913171 
L 551.400388 -165.364342 
L 551.647247 -164.815513 
L 551.876152 -164.266684 
L 552.087839 -163.717855 
L 552.283108 -163.169026 
L 552.462809 -162.620197 
L 552.627831 -162.071368 
L 552.779096 -161.522539 
L 552.917544 -160.97371 
L 553.04412 -160.424881 
L 553.159766 -159.876052 
L 553.26541 -159.327223 
L 553.361952 -158.778394 
L 553.450253 -158.229565 
L 553.531127 -157.680736 
L 553.60533 -157.131907 
L 553.67355 -156.583078 
L 553.736397 -156.034249 
L 553.794399 -155.48542 
L 553.847992 -154.936591 
L 553.897516 -154.387762 
L 553.943207 -153.838933 
L 553.985197 -153.290104 
L 554.023512 -152.741275 
L 554.058067 -152.192446 
L 554.088671 -151.643617 
L 554.115024 -151.094788 
L 554.136725 -150.545959 
L 554.153274 -149.99713 
L 554.164077 -149.448301 
L 554.168455 -148.899472 
L 554.16565 -148.350643 
L 554.154837 -147.801814 
L 554.135135 -147.252985 
L 554.105612 -146.704156 
L 554.065306 -146.155327 
L 554.013231 -145.606498 
L 553.948393 -145.057669 
L 553.869803 -144.50884 
L 553.776488 -143.960011 
L 553.667508 -143.411182 
L 553.541966 -142.862353 
L 553.39902 -142.313524 
L 553.237898 -141.764695 
L 553.057902 -141.215866 
L 552.858426 -140.667037 
L 552.638957 -140.118208 
L 552.399086 -139.569379 
L 552.138514 -139.02055 
L 551.857053 -138.471721 
L 551.554632 -137.922892 
L 551.231296 -137.374063 
L 550.88721 -136.825234 
L 550.522649 -136.276405 
L 550.138004 -135.727576 
L 549.733771 -135.178747 
L 549.310551 -134.629918 
L 548.869037 -134.081089 
L 548.410012 -133.53226 
L 547.934337 -132.983431 
L 547.442947 -132.434602 
L 546.936834 -131.885773 
L 546.417047 -131.336944 
L 545.884675 -130.788115 
L 545.340839 -130.239286 
L 544.786688 -129.690457 
L 544.223383 -129.141628 
L 543.652095 -128.592799 
L 543.073991 -128.04397 
L 542.490235 -127.495141 
L 541.901974 -126.946312 
L 541.310336 -126.397483 
L 540.716426 -125.848654 
L 540.121323 -125.299825 
L 539.52607 -124.750996 
L 538.931682 -124.202167 
L 538.339135 -123.653338 
L 537.749369 -123.104509 
z
" style="stroke: #2f2f2f"/>
    </defs>
    <g clip-path="url(#pa561f5e5e0)">
     <use xlink:href="#m7dab7b53d4" x="0" y="288" style="fill: #423b63; stroke: #2f2f2f"/>
    </g>
   </g>
   <g id="line2d_33">
    <path d="M 357.650532 221.678858 
L 357.650532 135.240405 
" clip-path="url(#pa561f5e5e0)" style="fill: none; stroke: #2f2f2f; stroke-width: 1.5; stroke-linecap: round"/>
   </g>
   <g id="line2d_34">
    <path d="M 357.650532 212.674527 
L 357.650532 174.345302 
" clip-path="url(#pa561f5e5e0)" style="fill: none; stroke: #2f2f2f; stroke-width: 4.5; stroke-linecap: round"/>
   </g>
   <g id="line2d_35">
    <path d="M 357.650532 197.047457 
" clip-path="url(#pa561f5e5e0)" style="fill: none; stroke: #2f2f2f; stroke-width: 1.2; stroke-linecap: round"/>
    <g clip-path="url(#pa561f5e5e0)">
     <use xlink:href="#m03c6c8fcf6" x="357.650532" y="197.047457" style="fill: #ffffff; stroke: #ffffff; stroke-width: 0.9"/>
    </g>
   </g>
   <g id="line2d_36">
    <path d="M 439.533 178.06721 
L 439.533 149.587005 
" clip-path="url(#pa561f5e5e0)" style="fill: none; stroke: #2f2f2f; stroke-width: 1.5; stroke-linecap: round"/>
   </g>
   <g id="line2d_37">
    <path d="M 439.533 172.208703 
L 439.533 149.587005 
" clip-path="url(#pa561f5e5e0)" style="fill: none; stroke: #2f2f2f; stroke-width: 4.5; stroke-linecap: round"/>
   </g>
   <g id="line2d_38">
    <path d="M 439.533 167.33532 
" clip-path="url(#pa561f5e5e0)" style="fill: none; stroke: #2f2f2f; stroke-width: 1.2; stroke-linecap: round"/>
    <g clip-path="url(#pa561f5e5e0)">
     <use xlink:href="#m03c6c8fcf6" x="439.533" y="167.33532" style="fill: #ffffff; stroke: #ffffff; stroke-width: 0.9"/>
    </g>
   </g>
   <g id="line2d_39">
    <path d="M 521.415468 164.895491 
L 521.415468 110.56142 
" clip-path="url(#pa561f5e5e0)" style="fill: none; stroke: #2f2f2f; stroke-width: 1.5; stroke-linecap: round"/>
   </g>
   <g id="line2d_40">
    <path d="M 521.415468 149.122333 
L 521.415468 122.030997 
" clip-path="url(#pa561f5e5e0)" style="fill: none; stroke: #2f2f2f; stroke-width: 4.5; stroke-linecap: round"/>
   </g>
   <g id="line2d_41">
    <path d="M 521.415468 135.614724 
" clip-path="url(#pa561f5e5e0)" style="fill: none; stroke: #2f2f2f; stroke-width: 1.2; stroke-linecap: round"/>
    <g clip-path="url(#pa561f5e5e0)">
     <use xlink:href="#m03c6c8fcf6" x="521.415468" y="135.614724" style="fill: #ffffff; stroke: #ffffff; stroke-width: 0.9"/>
    </g>
   </g>
   <g id="line2d_42">
    <path d="M 357.650532 106.974153 
L 357.650532 99.194324 
L 439.533 99.194324 
L 439.533 106.974153 
" clip-path="url(#pa561f5e5e0)" style="fill: none; stroke: #000000; stroke-linecap: round"/>
   </g>
   <g id="line2d_43">
    <path d="M 439.533 92.625087 
L 439.533 84.486531 
L 521.415468 84.486531 
L 521.415468 92.625087 
" clip-path="url(#pa561f5e5e0)" style="fill: none; stroke: #000000; stroke-linecap: round"/>
   </g>
   <g id="line2d_44">
    <path d="M 357.650532 78.27602 
L 357.650532 69.778737 
L 521.415468 69.778737 
L 521.415468 78.27602 
" clip-path="url(#pa561f5e5e0)" style="fill: none; stroke: #000000; stroke-linecap: round"/>
   </g>
   <g id="patch_8">
    <path d="M 313.434 238.804 
L 313.434 23.568 
" style="fill: none; stroke: #262626; stroke-linejoin: miter; stroke-linecap: square"/>
   </g>
   <g id="patch_9">
    <path d="M 565.632 238.804 
L 565.632 23.568 
" style="fill: none; stroke: #262626; stroke-linejoin: miter; stroke-linecap: square"/>
   </g>
   <g id="patch_10">
    <path d="M 313.434 238.804 
L 565.632 238.804 
" style="fill: none; stroke: #262626; stroke-linejoin: miter; stroke-linecap: square"/>
   </g>
   <g id="patch_11">
    <path d="M 313.434 23.568 
L 565.632 23.568 
" style="fill: none; stroke: #262626; stroke-linejoin: miter; stroke-linecap: square"/>
   </g>
   <g id="text_19">
    <!-- ns -->
    <g transform="translate(393.049266 97.197824) scale(0.096 -0.096)">
     <use xlink:href="#DejaVuSans-6e"/>
     <use xlink:href="#DejaVuSans-73" x="63.378906"/>
    </g>
   </g>
   <g id="text_20">
    <!-- ns -->
    <g transform="translate(474.931734 82.490031) scale(0.096 -0.096)">
     <use xlink:href="#DejaVuSans-6e"/>
     <use xlink:href="#DejaVuSans-73" x="63.378906"/>
    </g>
   </g>
   <g id="text_21">
    <!-- ** -->
    <g transform="translate(434.733 67.782237) scale(0.096 -0.096)">
     <defs>
      <path id="DejaVuSans-2a" d="M 3009 3897 
L 1888 3291 
L 3009 2681 
L 2828 2375 
L 1778 3009 
L 1778 1831 
L 1422 1831 
L 1422 3009 
L 372 2375 
L 191 2681 
L 1313 3291 
L 191 3897 
L 372 4206 
L 1422 3572 
L 1422 4750 
L 1778 4750 
L 1778 3572 
L 2828 4206 
L 3009 3897 
z
" transform="scale(0.015625)"/>
     </defs>
     <use xlink:href="#DejaVuSans-2a"/>
     <use xlink:href="#DejaVuSans-2a" x="50"/>
    </g>
   </g>
   <g id="text_22">
    <!-- Speed -->
    <g style="fill: #262626" transform="translate(424.48425 17.568) scale(0.096 -0.096)">
     <defs>
      <path id="DejaVuSans-53" d="M 3425 4513 
L 3425 3897 
Q 3066 4069 2747 4153 
Q 2428 4238 2131 4238 
Q 1616 4238 1336 4038 
Q 1056 3838 1056 3469 
Q 1056 3159 1242 3001 
Q 1428 2844 1947 2747 
L 2328 2669 
Q 3034 2534 3370 2195 
Q 3706 1856 3706 1288 
Q 3706 609 3251 259 
Q 2797 -91 1919 -91 
Q 1588 -91 1214 -16 
Q 841 59 441 206 
L 441 856 
Q 825 641 1194 531 
Q 1563 422 1919 422 
Q 2459 422 2753 634 
Q 3047 847 3047 1241 
Q 3047 1584 2836 1778 
Q 2625 1972 2144 2069 
L 1759 2144 
Q 1053 2284 737 2584 
Q 422 2884 422 3419 
Q 422 4038 858 4394 
Q 1294 4750 2059 4750 
Q 2388 4750 2728 4690 
Q 3069 4631 3425 4513 
z
" transform="scale(0.015625)"/>
     </defs>
     <use xlink:href="#DejaVuSans-53"/>
     <use xlink:href="#DejaVuSans-70" x="63.476562"/>
     <use xlink:href="#DejaVuSans-65" x="126.953125"/>
     <use xlink:href="#DejaVuSans-65" x="188.476562"/>
     <use xlink:href="#DejaVuSans-64" x="250"/>
    </g>
   </g>
  </g>
  <g id="text_23">
   <!-- Average response probability tertile -->
   <g style="fill: #262626" transform="translate(184.7916 282.7242) scale(0.1152 -0.1152)">
    <defs>
     <path id="DejaVuSans-76" d="M 191 3500 
L 800 3500 
L 1894 563 
L 2988 3500 
L 3597 3500 
L 2284 0 
L 1503 0 
L 191 3500 
z
" transform="scale(0.015625)"/>
    </defs>
    <use xlink:href="#DejaVuSans-41"/>
    <use xlink:href="#DejaVuSans-76" x="62.533203"/>
    <use xlink:href="#DejaVuSans-65" x="121.712891"/>
    <use xlink:href="#DejaVuSans-72" x="183.236328"/>
    <use xlink:href="#DejaVuSans-61" x="224.349609"/>
    <use xlink:href="#DejaVuSans-67" x="285.628906"/>
    <use xlink:href="#DejaVuSans-65" x="349.105469"/>
    <use xlink:href="#DejaVuSans-20" x="410.628906"/>
    <use xlink:href="#DejaVuSans-72" x="442.416016"/>
    <use xlink:href="#DejaVuSans-65" x="481.279297"/>
    <use xlink:href="#DejaVuSans-73" x="542.802734"/>
    <use xlink:href="#DejaVuSans-70" x="594.902344"/>
    <use xlink:href="#DejaVuSans-6f" x="658.378906"/>
    <use xlink:href="#DejaVuSans-6e" x="719.560547"/>
    <use xlink:href="#DejaVuSans-73" x="782.939453"/>
    <use xlink:href="#DejaVuSans-65" x="835.039062"/>
    <use xlink:href="#DejaVuSans-20" x="896.5625"/>
    <use xlink:href="#DejaVuSans-70" x="928.349609"/>
    <use xlink:href="#DejaVuSans-72" x="991.826172"/>
    <use xlink:href="#DejaVuSans-6f" x="1030.689453"/>
    <use xlink:href="#DejaVuSans-62" x="1091.871094"/>
    <use xlink:href="#DejaVuSans-61" x="1155.347656"/>
    <use xlink:href="#DejaVuSans-62" x="1216.626953"/>
    <use xlink:href="#DejaVuSans-69" x="1280.103516"/>
    <use xlink:href="#DejaVuSans-6c" x="1307.886719"/>
    <use xlink:href="#DejaVuSans-69" x="1335.669922"/>
    <use xlink:href="#DejaVuSans-74" x="1363.453125"/>
    <use xlink:href="#DejaVuSans-79" x="1402.662109"/>
    <use xlink:href="#DejaVuSans-20" x="1461.841797"/>
    <use xlink:href="#DejaVuSans-74" x="1493.628906"/>
    <use xlink:href="#DejaVuSans-65" x="1532.837891"/>
    <use xlink:href="#DejaVuSans-72" x="1594.361328"/>
    <use xlink:href="#DejaVuSans-74" x="1635.474609"/>
    <use xlink:href="#DejaVuSans-69" x="1674.683594"/>
    <use xlink:href="#DejaVuSans-6c" x="1702.466797"/>
    <use xlink:href="#DejaVuSans-65" x="1730.25"/>
   </g>
  </g>
 </g>
 <defs>
  <clipPath id="pfbc326ce5e">
   <rect x="46.068" y="23.568" width="252.198" height="215.236"/>
  </clipPath>
  <clipPath id="pa561f5e5e0">
   <rect x="313.434" y="23.568" width="252.198" height="215.236"/>
  </clipPath>
 </defs>
</svg>
