<?xml version="1.0" encoding="utf-8" standalone="no"?>
<!DOCTYPE svg PUBLIC "-//W3C//DTD SVG 1.1//EN"
  "http://www.w3.org/Graphics/SVG/1.1/DTD/svg11.dtd">
<svg xmlns:xlink="http://www.w3.org/1999/xlink" width="576pt" height="288pt" viewBox="0 0 576 288" xmlns="http://www.w3.org/2000/svg" version="1.1">
 <metadata>
  <rdf:RDF xmlns:dc="http://purl.org/dc/elements/1.1/" xmlns:cc="http://creativecommons.org/ns#" xmlns:rdf="http://www.w3.org/1999/02/22-rdf-syntax-ns#">
   <cc:Work>
    <dc:type rdf:resource="http://purl.org/dc/dcmitype/StillImage"/>
    <dc:date>2025-01-09T10:56:08.196456</dc:date>
    <dc:format>image/svg+xml</dc:format>
    <dc:creator>
     <cc:Agent>
      <dc:title>Matplotlib v3.9.2, https://matplotlib.org/</dc:title>
     </cc:Agent>
    </dc:creator>
   </cc:Work>
  </rdf:RDF>
 </metadata>
 <defs>
  <style type="text/css">*{stroke-linejoin: round; stroke-linecap: butt}</style>
 </defs>
 <g id="figure_1">
  <g id="patch_1">
   <path d="M 0 288 
L 576 288 
L 576 0 
L 0 0 
L 0 288 
z
" style="fill: none"/>
  </g>
  <g id="axes_1">
   <g id="patch_2">
    <path d="M 46.068 238.804 
L 298.266 238.804 
L 298.266 23.568 
L 46.068 23.568 
L 46.068 238.804 
z
" style="fill: none"/>
   </g>
   <g id="matplotlib.axis_1">
    <g id="xtick_1">
     <g id="line2d_1">
      <defs>
       <path id="m9e3ca1b543" d="M 0 0 
L 0 4.8 
" style="stroke: #262626"/>
      </defs>
      <g>
       <use xlink:href="#m9e3ca1b543" x="90.284532" y="238.804" style="fill: #262626; stroke: #262626"/>
      </g>
     </g>
     <g id="text_1">
      <!-- Low -->
      <g style="fill: #262626" transform="translate(81.619282 253.790625) scale(0.088 -0.088)">
       <defs>
        <path id="DejaVuSans-4c" d="M 628 4666 
L 1259 4666 
L 1259 531 
L 3531 531 
L 3531 0 
L 628 0 
L 628 4666 
z
" transform="scale(0.015625)"/>
        <path id="DejaVuSans-6f" d="M 1959 3097 
Q 1497 3097 1228 2736 
Q 959 2375 959 1747 
Q 959 1119 1226 758 
Q 1494 397 1959 397 
Q 2419 397 2687 759 
Q 2956 1122 2956 1747 
Q 2956 2369 2687 2733 
Q 2419 3097 1959 3097 
z
M 1959 3584 
Q 2709 3584 3137 3096 
Q 3566 2609 3566 1747 
Q 3566 888 3137 398 
Q 2709 -91 1959 -91 
Q 1206 -91 779 398 
Q 353 888 353 1747 
Q 353 2609 779 3096 
Q 1206 3584 1959 3584 
z
" transform="scale(0.015625)"/>
        <path id="DejaVuSans-77" d="M 269 3500 
L 844 3500 
L 1563 769 
L 2278 3500 
L 2956 3500 
L 3675 769 
L 4391 3500 
L 4966 3500 
L 4050 0 
L 3372 0 
L 2619 2869 
L 1863 0 
L 1184 0 
L 269 3500 
z
" transform="scale(0.015625)"/>
       </defs>
       <use xlink:href="#DejaVuSans-4c"/>
       <use xlink:href="#DejaVuSans-6f" x="53.962891"/>
       <use xlink:href="#DejaVuSans-77" x="115.144531"/>
      </g>
     </g>
    </g>
    <g id="xtick_2">
     <g id="line2d_2">
      <g>
       <use xlink:href="#m9e3ca1b543" x="172.167" y="238.804" style="fill: #262626; stroke: #262626"/>
      </g>
     </g>
     <g id="text_2">
      <!-- Medium -->
      <g style="fill: #262626" transform="translate(154.573187 253.790625) scale(0.088 -0.088)">
       <defs>
        <path id="DejaVuSans-4d" d="M 628 4666 
L 1569 4666 
L 2759 1491 
L 3956 4666 
L 4897 4666 
L 4897 0 
L 4281 0 
L 4281 4097 
L 3078 897 
L 2444 897 
L 1241 4097 
L 1241 0 
L 628 0 
L 628 4666 
z
" transform="scale(0.015625)"/>
        <path id="DejaVuSans-65" d="M 3597 1894 
L 3597 1613 
L 953 1613 
Q 991 1019 1311 708 
Q 1631 397 2203 397 
Q 2534 397 2845 478 
Q 3156 559 3463 722 
L 3463 178 
Q 3153 47 2828 -22 
Q 2503 -91 2169 -91 
Q 1331 -91 842 396 
Q 353 884 353 1716 
Q 353 2575 817 3079 
Q 1281 3584 2069 3584 
Q 2775 3584 3186 3129 
Q 3597 2675 3597 1894 
z
M 3022 2063 
Q 3016 2534 2758 2815 
Q 2500 3097 2075 3097 
Q 1594 3097 1305 2825 
Q 1016 2553 972 2059 
L 3022 2063 
z
" transform="scale(0.015625)"/>
        <path id="DejaVuSans-64" d="M 2906 2969 
L 2906 4863 
L 3481 4863 
L 3481 0 
L 2906 0 
L 2906 525 
Q 2725 213 2448 61 
Q 2172 -91 1784 -91 
Q 1150 -91 751 415 
Q 353 922 353 1747 
Q 353 2572 751 3078 
Q 1150 3584 1784 3584 
Q 2172 3584 2448 3432 
Q 2725 3281 2906 2969 
z
M 947 1747 
Q 947 1113 1208 752 
Q 1469 391 1925 391 
Q 2381 391 2643 752 
Q 2906 1113 2906 1747 
Q 2906 2381 2643 2742 
Q 2381 3103 1925 3103 
Q 1469 3103 1208 2742 
Q 947 2381 947 1747 
z
" transform="scale(0.015625)"/>
        <path id="DejaVuSans-69" d="M 603 3500 
L 1178 3500 
L 1178 0 
L 603 0 
L 603 3500 
z
M 603 4863 
L 1178 4863 
L 1178 4134 
L 603 4134 
L 603 4863 
z
" transform="scale(0.015625)"/>
        <path id="DejaVuSans-75" d="M 544 1381 
L 544 3500 
L 1119 3500 
L 1119 1403 
Q 1119 906 1312 657 
Q 1506 409 1894 409 
Q 2359 409 2629 706 
Q 2900 1003 2900 1516 
L 2900 3500 
L 3475 3500 
L 3475 0 
L 2900 0 
L 2900 538 
Q 2691 219 2414 64 
Q 2138 -91 1772 -91 
Q 1169 -91 856 284 
Q 544 659 544 1381 
z
M 1991 3584 
L 1991 3584 
z
" transform="scale(0.015625)"/>
        <path id="DejaVuSans-6d" d="M 3328 2828 
Q 3544 3216 3844 3400 
Q 4144 3584 4550 3584 
Q 5097 3584 5394 3201 
Q 5691 2819 5691 2113 
L 5691 0 
L 5113 0 
L 5113 2094 
Q 5113 2597 4934 2840 
Q 4756 3084 4391 3084 
Q 3944 3084 3684 2787 
Q 3425 2491 3425 1978 
L 3425 0 
L 2847 0 
L 2847 2094 
Q 2847 2600 2669 2842 
Q 2491 3084 2119 3084 
Q 1678 3084 1418 2786 
Q 1159 2488 1159 1978 
L 1159 0 
L 581 0 
L 581 3500 
L 1159 3500 
L 1159 2956 
Q 1356 3278 1631 3431 
Q 1906 3584 2284 3584 
Q 2666 3584 2933 3390 
Q 3200 3197 3328 2828 
z
" transform="scale(0.015625)"/>
       </defs>
       <use xlink:href="#DejaVuSans-4d"/>
       <use xlink:href="#DejaVuSans-65" x="86.279297"/>
       <use xlink:href="#DejaVuSans-64" x="147.802734"/>
       <use xlink:href="#DejaVuSans-69" x="211.279297"/>
       <use xlink:href="#DejaVuSans-75" x="239.0625"/>
       <use xlink:href="#DejaVuSans-6d" x="302.441406"/>
      </g>
     </g>
    </g>
    <g id="xtick_3">
     <g id="line2d_3">
      <g>
       <use xlink:href="#m9e3ca1b543" x="254.049468" y="238.804" style="fill: #262626; stroke: #262626"/>
      </g>
     </g>
     <g id="text_3">
      <!-- High -->
      <g style="fill: #262626" transform="translate(243.936343 253.790625) scale(0.088 -0.088)">
       <defs>
        <path id="DejaVuSans-48" d="M 628 4666 
L 1259 4666 
L 1259 2753 
L 3553 2753 
L 3553 4666 
L 4184 4666 
L 4184 0 
L 3553 0 
L 3553 2222 
L 1259 2222 
L 1259 0 
L 628 0 
L 628 4666 
z
" transform="scale(0.015625)"/>
        <path id="DejaVuSans-67" d="M 2906 1791 
Q 2906 2416 2648 2759 
Q 2391 3103 1925 3103 
Q 1463 3103 1205 2759 
Q 947 2416 947 1791 
Q 947 1169 1205 825 
Q 1463 481 1925 481 
Q 2391 481 2648 825 
Q 2906 1169 2906 1791 
z
M 3481 434 
Q 3481 -459 3084 -895 
Q 2688 -1331 1869 -1331 
Q 1566 -1331 1297 -1286 
Q 1028 -1241 775 -1147 
L 775 -588 
Q 1028 -725 1275 -790 
Q 1522 -856 1778 -856 
Q 2344 -856 2625 -561 
Q 2906 -266 2906 331 
L 2906 616 
Q 2728 306 2450 153 
Q 2172 0 1784 0 
Q 1141 0 747 490 
Q 353 981 353 1791 
Q 353 2603 747 3093 
Q 1141 3584 1784 3584 
Q 2172 3584 2450 3431 
Q 2728 3278 2906 2969 
L 2906 3500 
L 3481 3500 
L 3481 434 
z
" transform="scale(0.015625)"/>
        <path id="DejaVuSans-68" d="M 3513 2113 
L 3513 0 
L 2938 0 
L 2938 2094 
Q 2938 2591 2744 2837 
Q 2550 3084 2163 3084 
Q 1697 3084 1428 2787 
Q 1159 2491 1159 1978 
L 1159 0 
L 581 0 
L 581 4863 
L 1159 4863 
L 1159 2956 
Q 1366 3272 1645 3428 
Q 1925 3584 2291 3584 
Q 2894 3584 3203 3211 
Q 3513 2838 3513 2113 
z
" transform="scale(0.015625)"/>
       </defs>
       <use xlink:href="#DejaVuSans-48"/>
       <use xlink:href="#DejaVuSans-69" x="75.195312"/>
       <use xlink:href="#DejaVuSans-67" x="102.978516"/>
       <use xlink:href="#DejaVuSans-68" x="166.455078"/>
      </g>
     </g>
    </g>
   </g>
   <g id="matplotlib.axis_2">
    <g id="ytick_1">
     <g id="line2d_4">
      <defs>
       <path id="m0a4f704f27" d="M 0 0 
L -4.8 0 
" style="stroke: #262626"/>
      </defs>
      <g>
       <use xlink:href="#m0a4f704f27" x="46.068" y="238.804" style="fill: #262626; stroke: #262626"/>
      </g>
     </g>
     <g id="text_4">
      <!-- 0.5 -->
      <g style="fill: #262626" transform="translate(23.77325 242.147312) scale(0.088 -0.088)">
       <defs>
        <path id="DejaVuSans-30" d="M 2034 4250 
Q 1547 4250 1301 3770 
Q 1056 3291 1056 2328 
Q 1056 1369 1301 889 
Q 1547 409 2034 409 
Q 2525 409 2770 889 
Q 3016 1369 3016 2328 
Q 3016 3291 2770 3770 
Q 2525 4250 2034 4250 
z
M 2034 4750 
Q 2819 4750 3233 4129 
Q 3647 3509 3647 2328 
Q 3647 1150 3233 529 
Q 2819 -91 2034 -91 
Q 1250 -91 836 529 
Q 422 1150 422 2328 
Q 422 3509 836 4129 
Q 1250 4750 2034 4750 
z
" transform="scale(0.015625)"/>
        <path id="DejaVuSans-2e" d="M 684 794 
L 1344 794 
L 1344 0 
L 684 0 
L 684 794 
z
" transform="scale(0.015625)"/>
        <path id="DejaVuSans-35" d="M 691 4666 
L 3169 4666 
L 3169 4134 
L 1269 4134 
L 1269 2991 
Q 1406 3038 1543 3061 
Q 1681 3084 1819 3084 
Q 2600 3084 3056 2656 
Q 3513 2228 3513 1497 
Q 3513 744 3044 326 
Q 2575 -91 1722 -91 
Q 1428 -91 1123 -41 
Q 819 9 494 109 
L 494 744 
Q 775 591 1075 516 
Q 1375 441 1709 441 
Q 2250 441 2565 725 
Q 2881 1009 2881 1497 
Q 2881 1984 2565 2268 
Q 2250 2553 1709 2553 
Q 1456 2553 1204 2497 
Q 953 2441 691 2322 
L 691 4666 
z
" transform="scale(0.015625)"/>
       </defs>
       <use xlink:href="#DejaVuSans-30"/>
       <use xlink:href="#DejaVuSans-2e" x="63.623047"/>
       <use xlink:href="#DejaVuSans-35" x="95.410156"/>
      </g>
     </g>
    </g>
    <g id="ytick_2">
     <g id="line2d_5">
      <g>
       <use xlink:href="#m0a4f704f27" x="46.068" y="202.931333" style="fill: #262626; stroke: #262626"/>
      </g>
     </g>
     <g id="text_5">
      <!-- 0.6 -->
      <g style="fill: #262626" transform="translate(23.77325 206.274646) scale(0.088 -0.088)">
       <defs>
        <path id="DejaVuSans-36" d="M 2113 2584 
Q 1688 2584 1439 2293 
Q 1191 2003 1191 1497 
Q 1191 994 1439 701 
Q 1688 409 2113 409 
Q 2538 409 2786 701 
Q 3034 994 3034 1497 
Q 3034 2003 2786 2293 
Q 2538 2584 2113 2584 
z
M 3366 4563 
L 3366 3988 
Q 3128 4100 2886 4159 
Q 2644 4219 2406 4219 
Q 1781 4219 1451 3797 
Q 1122 3375 1075 2522 
Q 1259 2794 1537 2939 
Q 1816 3084 2150 3084 
Q 2853 3084 3261 2657 
Q 3669 2231 3669 1497 
Q 3669 778 3244 343 
Q 2819 -91 2113 -91 
Q 1303 -91 875 529 
Q 447 1150 447 2328 
Q 447 3434 972 4092 
Q 1497 4750 2381 4750 
Q 2619 4750 2861 4703 
Q 3103 4656 3366 4563 
z
" transform="scale(0.015625)"/>
       </defs>
       <use xlink:href="#DejaVuSans-30"/>
       <use xlink:href="#DejaVuSans-2e" x="63.623047"/>
       <use xlink:href="#DejaVuSans-36" x="95.410156"/>
      </g>
     </g>
    </g>
    <g id="ytick_3">
     <g id="line2d_6">
      <g>
       <use xlink:href="#m0a4f704f27" x="46.068" y="167.058667" style="fill: #262626; stroke: #262626"/>
      </g>
     </g>
     <g id="text_6">
      <!-- 0.7 -->
      <g style="fill: #262626" transform="translate(23.77325 170.401979) scale(0.088 -0.088)">
       <defs>
        <path id="DejaVuSans-37" d="M 525 4666 
L 3525 4666 
L 3525 4397 
L 1831 0 
L 1172 0 
L 2766 4134 
L 525 4134 
L 525 4666 
z
" transform="scale(0.015625)"/>
       </defs>
       <use xlink:href="#DejaVuSans-30"/>
       <use xlink:href="#DejaVuSans-2e" x="63.623047"/>
       <use xlink:href="#DejaVuSans-37" x="95.410156"/>
      </g>
     </g>
    </g>
    <g id="ytick_4">
     <g id="line2d_7">
      <g>
       <use xlink:href="#m0a4f704f27" x="46.068" y="131.186" style="fill: #262626; stroke: #262626"/>
      </g>
     </g>
     <g id="text_7">
      <!-- 0.8 -->
      <g style="fill: #262626" transform="translate(23.77325 134.529312) scale(0.088 -0.088)">
       <defs>
        <path id="DejaVuSans-38" d="M 2034 2216 
Q 1584 2216 1326 1975 
Q 1069 1734 1069 1313 
Q 1069 891 1326 650 
Q 1584 409 2034 409 
Q 2484 409 2743 651 
Q 3003 894 3003 1313 
Q 3003 1734 2745 1975 
Q 2488 2216 2034 2216 
z
M 1403 2484 
Q 997 2584 770 2862 
Q 544 3141 544 3541 
Q 544 4100 942 4425 
Q 1341 4750 2034 4750 
Q 2731 4750 3128 4425 
Q 3525 4100 3525 3541 
Q 3525 3141 3298 2862 
Q 3072 2584 2669 2484 
Q 3125 2378 3379 2068 
Q 3634 1759 3634 1313 
Q 3634 634 3220 271 
Q 2806 -91 2034 -91 
Q 1263 -91 848 271 
Q 434 634 434 1313 
Q 434 1759 690 2068 
Q 947 2378 1403 2484 
z
M 1172 3481 
Q 1172 3119 1398 2916 
Q 1625 2713 2034 2713 
Q 2441 2713 2670 2916 
Q 2900 3119 2900 3481 
Q 2900 3844 2670 4047 
Q 2441 4250 2034 4250 
Q 1625 4250 1398 4047 
Q 1172 3844 1172 3481 
z
" transform="scale(0.015625)"/>
       </defs>
       <use xlink:href="#DejaVuSans-30"/>
       <use xlink:href="#DejaVuSans-2e" x="63.623047"/>
       <use xlink:href="#DejaVuSans-38" x="95.410156"/>
      </g>
     </g>
    </g>
    <g id="ytick_5">
     <g id="line2d_8">
      <g>
       <use xlink:href="#m0a4f704f27" x="46.068" y="95.313333" style="fill: #262626; stroke: #262626"/>
      </g>
     </g>
     <g id="text_8">
      <!-- 0.9 -->
      <g style="fill: #262626" transform="translate(23.77325 98.656646) scale(0.088 -0.088)">
       <defs>
        <path id="DejaVuSans-39" d="M 703 97 
L 703 672 
Q 941 559 1184 500 
Q 1428 441 1663 441 
Q 2288 441 2617 861 
Q 2947 1281 2994 2138 
Q 2813 1869 2534 1725 
Q 2256 1581 1919 1581 
Q 1219 1581 811 2004 
Q 403 2428 403 3163 
Q 403 3881 828 4315 
Q 1253 4750 1959 4750 
Q 2769 4750 3195 4129 
Q 3622 3509 3622 2328 
Q 3622 1225 3098 567 
Q 2575 -91 1691 -91 
Q 1453 -91 1209 -44 
Q 966 3 703 97 
z
M 1959 2075 
Q 2384 2075 2632 2365 
Q 2881 2656 2881 3163 
Q 2881 3666 2632 3958 
Q 2384 4250 1959 4250 
Q 1534 4250 1286 3958 
Q 1038 3666 1038 3163 
Q 1038 2656 1286 2365 
Q 1534 2075 1959 2075 
z
" transform="scale(0.015625)"/>
       </defs>
       <use xlink:href="#DejaVuSans-30"/>
       <use xlink:href="#DejaVuSans-2e" x="63.623047"/>
       <use xlink:href="#DejaVuSans-39" x="95.410156"/>
      </g>
     </g>
    </g>
    <g id="ytick_6">
     <g id="line2d_9">
      <g>
       <use xlink:href="#m0a4f704f27" x="46.068" y="59.440667" style="fill: #262626; stroke: #262626"/>
      </g>
     </g>
     <g id="text_9">
      <!-- 1.0 -->
      <g style="fill: #262626" transform="translate(23.77325 62.783979) scale(0.088 -0.088)">
       <defs>
        <path id="DejaVuSans-31" d="M 794 531 
L 1825 531 
L 1825 4091 
L 703 3866 
L 703 4441 
L 1819 4666 
L 2450 4666 
L 2450 531 
L 3481 531 
L 3481 0 
L 794 0 
L 794 531 
z
" transform="scale(0.015625)"/>
       </defs>
       <use xlink:href="#DejaVuSans-31"/>
       <use xlink:href="#DejaVuSans-2e" x="63.623047"/>
       <use xlink:href="#DejaVuSans-30" x="95.410156"/>
      </g>
     </g>
    </g>
    <g id="ytick_7">
     <g id="line2d_10">
      <g>
       <use xlink:href="#m0a4f704f27" x="46.068" y="23.568" style="fill: #262626; stroke: #262626"/>
      </g>
     </g>
     <g id="text_10">
      <!-- 1.1 -->
      <g style="fill: #262626" transform="translate(23.77325 26.911313) scale(0.088 -0.088)">
       <use xlink:href="#DejaVuSans-31"/>
       <use xlink:href="#DejaVuSans-2e" x="63.623047"/>
       <use xlink:href="#DejaVuSans-31" x="95.410156"/>
      </g>
     </g>
    </g>
    <g id="text_11">
     <!-- Probability of correct response -->
     <g style="fill: #262626" transform="translate(17.77675 204.36575) rotate(-90) scale(0.096 -0.096)">
      <defs>
       <path id="DejaVuSans-50" d="M 1259 4147 
L 1259 2394 
L 2053 2394 
Q 2494 2394 2734 2622 
Q 2975 2850 2975 3272 
Q 2975 3691 2734 3919 
Q 2494 4147 2053 4147 
L 1259 4147 
z
M 628 4666 
L 2053 4666 
Q 2838 4666 3239 4311 
Q 3641 3956 3641 3272 
Q 3641 2581 3239 2228 
Q 2838 1875 2053 1875 
L 1259 1875 
L 1259 0 
L 628 0 
L 628 4666 
z
" transform="scale(0.015625)"/>
       <path id="DejaVuSans-72" d="M 2631 2963 
Q 2534 3019 2420 3045 
Q 2306 3072 2169 3072 
Q 1681 3072 1420 2755 
Q 1159 2438 1159 1844 
L 1159 0 
L 581 0 
L 581 3500 
L 1159 3500 
L 1159 2956 
Q 1341 3275 1631 3429 
Q 1922 3584 2338 3584 
Q 2397 3584 2469 3576 
Q 2541 3569 2628 3553 
L 2631 2963 
z
" transform="scale(0.015625)"/>
       <path id="DejaVuSans-62" d="M 3116 1747 
Q 3116 2381 2855 2742 
Q 2594 3103 2138 3103 
Q 1681 3103 1420 2742 
Q 1159 2381 1159 1747 
Q 1159 1113 1420 752 
Q 1681 391 2138 391 
Q 2594 391 2855 752 
Q 3116 1113 3116 1747 
z
M 1159 2969 
Q 1341 3281 1617 3432 
Q 1894 3584 2278 3584 
Q 2916 3584 3314 3078 
Q 3713 2572 3713 1747 
Q 3713 922 3314 415 
Q 2916 -91 2278 -91 
Q 1894 -91 1617 61 
Q 1341 213 1159 525 
L 1159 0 
L 581 0 
L 581 4863 
L 1159 4863 
L 1159 2969 
z
" transform="scale(0.015625)"/>
       <path id="DejaVuSans-61" d="M 2194 1759 
Q 1497 1759 1228 1600 
Q 959 1441 959 1056 
Q 959 750 1161 570 
Q 1363 391 1709 391 
Q 2188 391 2477 730 
Q 2766 1069 2766 1631 
L 2766 1759 
L 2194 1759 
z
M 3341 1997 
L 3341 0 
L 2766 0 
L 2766 531 
Q 2569 213 2275 61 
Q 1981 -91 1556 -91 
Q 1019 -91 701 211 
Q 384 513 384 1019 
Q 384 1609 779 1909 
Q 1175 2209 1959 2209 
L 2766 2209 
L 2766 2266 
Q 2766 2663 2505 2880 
Q 2244 3097 1772 3097 
Q 1472 3097 1187 3025 
Q 903 2953 641 2809 
L 641 3341 
Q 956 3463 1253 3523 
Q 1550 3584 1831 3584 
Q 2591 3584 2966 3190 
Q 3341 2797 3341 1997 
z
" transform="scale(0.015625)"/>
       <path id="DejaVuSans-6c" d="M 603 4863 
L 1178 4863 
L 1178 0 
L 603 0 
L 603 4863 
z
" transform="scale(0.015625)"/>
       <path id="DejaVuSans-74" d="M 1172 4494 
L 1172 3500 
L 2356 3500 
L 2356 3053 
L 1172 3053 
L 1172 1153 
Q 1172 725 1289 603 
Q 1406 481 1766 481 
L 2356 481 
L 2356 0 
L 1766 0 
Q 1100 0 847 248 
Q 594 497 594 1153 
L 594 3053 
L 172 3053 
L 172 3500 
L 594 3500 
L 594 4494 
L 1172 4494 
z
" transform="scale(0.015625)"/>
       <path id="DejaVuSans-79" d="M 2059 -325 
Q 1816 -950 1584 -1140 
Q 1353 -1331 966 -1331 
L 506 -1331 
L 506 -850 
L 844 -850 
Q 1081 -850 1212 -737 
Q 1344 -625 1503 -206 
L 1606 56 
L 191 3500 
L 800 3500 
L 1894 763 
L 2988 3500 
L 3597 3500 
L 2059 -325 
z
" transform="scale(0.015625)"/>
       <path id="DejaVuSans-20" transform="scale(0.015625)"/>
       <path id="DejaVuSans-66" d="M 2375 4863 
L 2375 4384 
L 1825 4384 
Q 1516 4384 1395 4259 
Q 1275 4134 1275 3809 
L 1275 3500 
L 2222 3500 
L 2222 3053 
L 1275 3053 
L 1275 0 
L 697 0 
L 697 3053 
L 147 3053 
L 147 3500 
L 697 3500 
L 697 3744 
Q 697 4328 969 4595 
Q 1241 4863 1831 4863 
L 2375 4863 
z
" transform="scale(0.015625)"/>
       <path id="DejaVuSans-63" d="M 3122 3366 
L 3122 2828 
Q 2878 2963 2633 3030 
Q 2388 3097 2138 3097 
Q 1578 3097 1268 2742 
Q 959 2388 959 1747 
Q 959 1106 1268 751 
Q 1578 397 2138 397 
Q 2388 397 2633 464 
Q 2878 531 3122 666 
L 3122 134 
Q 2881 22 2623 -34 
Q 2366 -91 2075 -91 
Q 1284 -91 818 406 
Q 353 903 353 1747 
Q 353 2603 823 3093 
Q 1294 3584 2113 3584 
Q 2378 3584 2631 3529 
Q 2884 3475 3122 3366 
z
" transform="scale(0.015625)"/>
       <path id="DejaVuSans-73" d="M 2834 3397 
L 2834 2853 
Q 2591 2978 2328 3040 
Q 2066 3103 1784 3103 
Q 1356 3103 1142 2972 
Q 928 2841 928 2578 
Q 928 2378 1081 2264 
Q 1234 2150 1697 2047 
L 1894 2003 
Q 2506 1872 2764 1633 
Q 3022 1394 3022 966 
Q 3022 478 2636 193 
Q 2250 -91 1575 -91 
Q 1294 -91 989 -36 
Q 684 19 347 128 
L 347 722 
Q 666 556 975 473 
Q 1284 391 1588 391 
Q 1994 391 2212 530 
Q 2431 669 2431 922 
Q 2431 1156 2273 1281 
Q 2116 1406 1581 1522 
L 1381 1569 
Q 847 1681 609 1914 
Q 372 2147 372 2553 
Q 372 3047 722 3315 
Q 1072 3584 1716 3584 
Q 2034 3584 2315 3537 
Q 2597 3491 2834 3397 
z
" transform="scale(0.015625)"/>
       <path id="DejaVuSans-70" d="M 1159 525 
L 1159 -1331 
L 581 -1331 
L 581 3500 
L 1159 3500 
L 1159 2969 
Q 1341 3281 1617 3432 
Q 1894 3584 2278 3584 
Q 2916 3584 3314 3078 
Q 3713 2572 3713 1747 
Q 3713 922 3314 415 
Q 2916 -91 2278 -91 
Q 1894 -91 1617 61 
Q 1341 213 1159 525 
z
M 3116 1747 
Q 3116 2381 2855 2742 
Q 2594 3103 2138 3103 
Q 1681 3103 1420 2742 
Q 1159 2381 1159 1747 
Q 1159 1113 1420 752 
Q 1681 391 2138 391 
Q 2594 391 2855 752 
Q 3116 1113 3116 1747 
z
" transform="scale(0.015625)"/>
       <path id="DejaVuSans-6e" d="M 3513 2113 
L 3513 0 
L 2938 0 
L 2938 2094 
Q 2938 2591 2744 2837 
Q 2550 3084 2163 3084 
Q 1697 3084 1428 2787 
Q 1159 2491 1159 1978 
L 1159 0 
L 581 0 
L 581 3500 
L 1159 3500 
L 1159 2956 
Q 1366 3272 1645 3428 
Q 1925 3584 2291 3584 
Q 2894 3584 3203 3211 
Q 3513 2838 3513 2113 
z
" transform="scale(0.015625)"/>
      </defs>
      <use xlink:href="#DejaVuSans-50"/>
      <use xlink:href="#DejaVuSans-72" x="58.552734"/>
      <use xlink:href="#DejaVuSans-6f" x="97.416016"/>
      <use xlink:href="#DejaVuSans-62" x="158.597656"/>
      <use xlink:href="#DejaVuSans-61" x="222.074219"/>
      <use xlink:href="#DejaVuSans-62" x="283.353516"/>
      <use xlink:href="#DejaVuSans-69" x="346.830078"/>
      <use xlink:href="#DejaVuSans-6c" x="374.613281"/>
      <use xlink:href="#DejaVuSans-69" x="402.396484"/>
      <use xlink:href="#DejaVuSans-74" x="430.179688"/>
      <use xlink:href="#DejaVuSans-79" x="469.388672"/>
      <use xlink:href="#DejaVuSans-20" x="528.568359"/>
      <use xlink:href="#DejaVuSans-6f" x="560.355469"/>
      <use xlink:href="#DejaVuSans-66" x="621.537109"/>
      <use xlink:href="#DejaVuSans-20" x="656.742188"/>
      <use xlink:href="#DejaVuSans-63" x="688.529297"/>
      <use xlink:href="#DejaVuSans-6f" x="743.509766"/>
      <use xlink:href="#DejaVuSans-72" x="804.691406"/>
      <use xlink:href="#DejaVuSans-72" x="844.054688"/>
      <use xlink:href="#DejaVuSans-65" x="882.917969"/>
      <use xlink:href="#DejaVuSans-63" x="944.441406"/>
      <use xlink:href="#DejaVuSans-74" x="999.421875"/>
      <use xlink:href="#DejaVuSans-20" x="1038.630859"/>
      <use xlink:href="#DejaVuSans-72" x="1070.417969"/>
      <use xlink:href="#DejaVuSans-65" x="1109.28125"/>
      <use xlink:href="#DejaVuSans-73" x="1170.804688"/>
      <use xlink:href="#DejaVuSans-70" x="1222.904297"/>
      <use xlink:href="#DejaVuSans-6f" x="1286.380859"/>
      <use xlink:href="#DejaVuSans-6e" x="1347.5625"/>
      <use xlink:href="#DejaVuSans-73" x="1410.941406"/>
      <use xlink:href="#DejaVuSans-65" x="1463.041016"/>
     </g>
    </g>
   </g>
   <g id="PolyCollection_1">
    <defs>
     <path id="m0b4acb81d2" d="M 111.587612 -151.878203 
L 68.981453 -151.878203 
L 68.478628 -152.432199 
L 67.996954 -152.986195 
L 67.536893 -153.540191 
L 67.098662 -154.094187 
L 66.682225 -154.648183 
L 66.287295 -155.202179 
L 65.913347 -155.756174 
L 65.559621 -156.31017 
L 65.225141 -156.864166 
L 64.908732 -157.418162 
L 64.609042 -157.972158 
L 64.324567 -158.526154 
L 64.05368 -159.08015 
L 63.794663 -159.634146 
L 63.545737 -160.188142 
L 63.305099 -160.742137 
L 63.070957 -161.296133 
L 62.841566 -161.850129 
L 62.615264 -162.404125 
L 62.390505 -162.958121 
L 62.165898 -163.512117 
L 61.940231 -164.066113 
L 61.712508 -164.620109 
L 61.481969 -165.174105 
L 61.248115 -165.728101 
L 61.010723 -166.282096 
L 60.769867 -166.836092 
L 60.525916 -167.390088 
L 60.279548 -167.944084 
L 60.031744 -168.49808 
L 59.783779 -169.052076 
L 59.537216 -169.606072 
L 59.293884 -170.160068 
L 59.055861 -170.714064 
L 58.825443 -171.26806 
L 58.605116 -171.822055 
L 58.397521 -172.376051 
L 58.205416 -172.930047 
L 58.031639 -173.484043 
L 57.879059 -174.038039 
L 57.75054 -174.592035 
L 57.648891 -175.146031 
L 57.576824 -175.700027 
L 57.536912 -176.254023 
L 57.531545 -176.808019 
L 57.562893 -177.362014 
L 57.632863 -177.91601 
L 57.743077 -178.470006 
L 57.89483 -179.024002 
L 58.089076 -179.577998 
L 58.326403 -180.131994 
L 58.60702 -180.68599 
L 58.930747 -181.239986 
L 59.297017 -181.793982 
L 59.70487 -182.347978 
L 60.15297 -182.901973 
L 60.639614 -183.455969 
L 61.162752 -184.009965 
L 61.720011 -184.563961 
L 62.308727 -185.117957 
L 62.92597 -185.671953 
L 63.568589 -186.225949 
L 64.233244 -186.779945 
L 64.916452 -187.333941 
L 65.614626 -187.887937 
L 66.324121 -188.441932 
L 67.041279 -188.995928 
L 67.762466 -189.549924 
L 68.484124 -190.10392 
L 69.2028 -190.657916 
L 69.915193 -191.211912 
L 70.618184 -191.765908 
L 71.308868 -192.319904 
L 71.984583 -192.8739 
L 72.642931 -193.427896 
L 73.2818 -193.981891 
L 73.899376 -194.535887 
L 74.494154 -195.089883 
L 75.064941 -195.643879 
L 75.610859 -196.197875 
L 76.131342 -196.751871 
L 76.626124 -197.305867 
L 77.095228 -197.859863 
L 77.538952 -198.413859 
L 77.957849 -198.967855 
L 78.352705 -199.52185 
L 78.724515 -200.075846 
L 79.074458 -200.629842 
L 79.403867 -201.183838 
L 79.714202 -201.737834 
L 80.007024 -202.29183 
L 80.283961 -202.845826 
L 80.546686 -203.399822 
L 80.796884 -203.953818 
L 81.03623 -204.507814 
L 81.266363 -205.061809 
L 81.488865 -205.615805 
L 81.70524 -206.169801 
L 81.916896 -206.723797 
L 98.652169 -206.723797 
L 98.652169 -206.723797 
L 98.863825 -206.169801 
L 99.0802 -205.615805 
L 99.302702 -205.061809 
L 99.532835 -204.507814 
L 99.772181 -203.953818 
L 100.022379 -203.399822 
L 100.285104 -202.845826 
L 100.562041 -202.29183 
L 100.854863 -201.737834 
L 101.165198 -201.183838 
L 101.494607 -200.629842 
L 101.84455 -200.075846 
L 102.21636 -199.52185 
L 102.611216 -198.967855 
L 103.030113 -198.413859 
L 103.473837 -197.859863 
L 103.942941 -197.305867 
L 104.437722 -196.751871 
L 104.958206 -196.197875 
L 105.504124 -195.643879 
L 106.074911 -195.089883 
L 106.669689 -194.535887 
L 107.287265 -193.981891 
L 107.926134 -193.427896 
L 108.584482 -192.8739 
L 109.260197 -192.319904 
L 109.950881 -191.765908 
L 110.653872 -191.211912 
L 111.366265 -190.657916 
L 112.084941 -190.10392 
L 112.806599 -189.549924 
L 113.527786 -188.995928 
L 114.244944 -188.441932 
L 114.954439 -187.887937 
L 115.652613 -187.333941 
L 116.335821 -186.779945 
L 117.000476 -186.225949 
L 117.643095 -185.671953 
L 118.260338 -185.117957 
L 118.849054 -184.563961 
L 119.406313 -184.009965 
L 119.929451 -183.455969 
L 120.416095 -182.901973 
L 120.864195 -182.347978 
L 121.272048 -181.793982 
L 121.638318 -181.239986 
L 121.962045 -180.68599 
L 122.242662 -180.131994 
L 122.479989 -179.577998 
L 122.674235 -179.024002 
L 122.825988 -178.470006 
L 122.936202 -177.91601 
L 123.006172 -177.362014 
L 123.037519 -176.808019 
L 123.032153 -176.254023 
L 122.992241 -175.700027 
L 122.920174 -175.146031 
L 122.818525 -174.592035 
L 122.690006 -174.038039 
L 122.537426 -173.484043 
L 122.363648 -172.930047 
L 122.171544 -172.376051 
L 121.963949 -171.822055 
L 121.743622 -171.26806 
L 121.513204 -170.714064 
L 121.275181 -170.160068 
L 121.031849 -169.606072 
L 120.785286 -169.052076 
L 120.537321 -168.49808 
L 120.289517 -167.944084 
L 120.043149 -167.390088 
L 119.799198 -166.836092 
L 119.558341 -166.282096 
L 119.32095 -165.728101 
L 119.087096 -165.174105 
L 118.856556 -164.620109 
L 118.628834 -164.066113 
L 118.403167 -163.512117 
L 118.17856 -162.958121 
L 117.953801 -162.404125 
L 117.727499 -161.850129 
L 117.498108 -161.296133 
L 117.263966 -160.742137 
L 117.023328 -160.188142 
L 116.774402 -159.634146 
L 116.515385 -159.08015 
L 116.244498 -158.526154 
L 115.960023 -157.972158 
L 115.660333 -157.418162 
L 115.343924 -156.864166 
L 115.009444 -156.31017 
L 114.655718 -155.756174 
L 114.281769 -155.202179 
L 113.88684 -154.648183 
L 113.470403 -154.094187 
L 113.032172 -153.540191 
L 112.572111 -152.986195 
L 112.090437 -152.432199 
L 111.587612 -151.878203 
z
" style="stroke: #2f2f2f"/>
    </defs>
    <g clip-path="url(#p85d81d7d6a)">
     <use xlink:href="#m0b4acb81d2" x="0" y="288" style="fill: #58b2a3; stroke: #2f2f2f"/>
    </g>
   </g>
   <g id="PolyCollection_2">
    <defs>
     <path id="mf5af0694f1" d="M 184.257816 -145.504391 
L 160.076184 -145.504391 
L 159.691616 -146.06171 
L 159.302514 -146.61903 
L 158.908718 -147.176349 
L 158.510067 -147.733669 
L 158.10641 -148.290988 
L 157.697612 -148.848308 
L 157.283563 -149.405627 
L 156.864186 -149.962947 
L 156.439446 -150.520266 
L 156.009357 -151.077586 
L 155.57399 -151.634905 
L 155.133477 -152.192225 
L 154.688021 -152.749544 
L 154.237896 -153.306864 
L 153.783456 -153.864183 
L 153.32513 -154.421503 
L 152.863431 -154.978823 
L 152.39895 -155.536142 
L 151.932355 -156.093462 
L 151.464391 -156.650781 
L 150.995869 -157.208101 
L 150.527666 -157.76542 
L 150.060714 -158.32274 
L 149.595993 -158.880059 
L 149.13452 -159.437379 
L 148.677337 -159.994698 
L 148.225503 -160.552018 
L 147.780077 -161.109337 
L 147.342111 -161.666657 
L 146.912633 -162.223976 
L 146.492634 -162.781296 
L 146.083059 -163.338615 
L 145.684794 -163.895935 
L 145.298653 -164.453254 
L 144.925368 -165.010574 
L 144.565583 -165.567893 
L 144.219844 -166.125213 
L 143.88859 -166.682532 
L 143.572155 -167.239852 
L 143.270758 -167.797171 
L 142.984509 -168.354491 
L 142.713402 -168.91181 
L 142.457322 -169.46913 
L 142.216051 -170.026449 
L 141.989269 -170.583769 
L 141.776565 -171.141088 
L 141.577447 -171.698408 
L 141.391348 -172.255727 
L 141.217646 -172.813047 
L 141.055668 -173.370366 
L 140.904711 -173.927686 
L 140.764053 -174.485005 
L 140.632968 -175.042325 
L 140.510742 -175.599644 
L 140.396688 -176.156964 
L 140.290159 -176.714283 
L 140.190564 -177.271603 
L 140.097381 -177.828922 
L 140.010168 -178.386242 
L 139.928575 -178.943562 
L 139.852352 -179.500881 
L 139.78136 -180.058201 
L 139.715575 -180.61552 
L 139.655095 -181.17284 
L 139.600138 -181.730159 
L 139.55105 -182.287479 
L 139.508297 -182.844798 
L 139.472467 -183.402118 
L 139.444263 -183.959437 
L 139.424496 -184.516757 
L 139.414079 -185.074076 
L 139.414013 -185.631396 
L 139.425381 -186.188715 
L 139.449331 -186.746035 
L 139.487064 -187.303354 
L 139.539818 -187.860674 
L 139.608854 -188.417993 
L 139.695439 -188.975313 
L 139.800828 -189.532632 
L 139.926253 -190.089952 
L 140.072898 -190.647271 
L 140.241891 -191.204591 
L 140.434281 -191.76191 
L 140.65103 -192.31923 
L 140.892994 -192.876549 
L 141.16091 -193.433869 
L 141.455387 -193.991188 
L 141.776893 -194.548508 
L 142.125749 -195.105827 
L 142.502115 -195.663147 
L 142.905992 -196.220466 
L 143.337213 -196.777786 
L 143.795443 -197.335105 
L 144.280176 -197.892425 
L 144.790739 -198.449744 
L 145.326293 -199.007064 
L 145.885838 -199.564383 
L 146.468221 -200.121703 
L 147.072142 -200.679022 
L 197.261858 -200.679022 
L 197.261858 -200.679022 
L 197.865779 -200.121703 
L 198.448162 -199.564383 
L 199.007707 -199.007064 
L 199.543261 -198.449744 
L 200.053824 -197.892425 
L 200.538557 -197.335105 
L 200.996787 -196.777786 
L 201.428008 -196.220466 
L 201.831885 -195.663147 
L 202.208251 -195.105827 
L 202.557107 -194.548508 
L 202.878613 -193.991188 
L 203.17309 -193.433869 
L 203.441006 -192.876549 
L 203.68297 -192.31923 
L 203.899719 -191.76191 
L 204.092109 -191.204591 
L 204.261102 -190.647271 
L 204.407747 -190.089952 
L 204.533172 -189.532632 
L 204.638561 -188.975313 
L 204.725146 -188.417993 
L 204.794182 -187.860674 
L 204.846936 -187.303354 
L 204.884669 -186.746035 
L 204.908619 -186.188715 
L 204.919987 -185.631396 
L 204.919921 -185.074076 
L 204.909504 -184.516757 
L 204.889737 -183.959437 
L 204.861533 -183.402118 
L 204.825703 -182.844798 
L 204.78295 -182.287479 
L 204.733862 -181.730159 
L 204.678905 -181.17284 
L 204.618425 -180.61552 
L 204.55264 -180.058201 
L 204.481648 -179.500881 
L 204.405425 -178.943562 
L 204.323832 -178.386242 
L 204.236619 -177.828922 
L 204.143436 -177.271603 
L 204.043841 -176.714283 
L 203.937312 -176.156964 
L 203.823258 -175.599644 
L 203.701032 -175.042325 
L 203.569947 -174.485005 
L 203.429289 -173.927686 
L 203.278332 -173.370366 
L 203.116354 -172.813047 
L 202.942652 -172.255727 
L 202.756553 -171.698408 
L 202.557435 -171.141088 
L 202.344731 -170.583769 
L 202.117949 -170.026449 
L 201.876678 -169.46913 
L 201.620598 -168.91181 
L 201.349491 -168.354491 
L 201.063242 -167.797171 
L 200.761845 -167.239852 
L 200.44541 -166.682532 
L 200.114156 -166.125213 
L 199.768417 -165.567893 
L 199.408632 -165.010574 
L 199.035347 -164.453254 
L 198.649206 -163.895935 
L 198.250941 -163.338615 
L 197.841366 -162.781296 
L 197.421367 -162.223976 
L 196.991889 -161.666657 
L 196.553923 -161.109337 
L 196.108497 -160.552018 
L 195.656663 -159.994698 
L 195.19948 -159.437379 
L 194.738007 -158.880059 
L 194.273286 -158.32274 
L 193.806334 -157.76542 
L 193.338131 -157.208101 
L 192.869609 -156.650781 
L 192.401645 -156.093462 
L 191.93505 -155.536142 
L 191.470569 -154.978823 
L 191.00887 -154.421503 
L 190.550544 -153.864183 
L 190.096104 -153.306864 
L 189.645979 -152.749544 
L 189.200523 -152.192225 
L 188.76001 -151.634905 
L 188.324643 -151.077586 
L 187.894554 -150.520266 
L 187.469814 -149.962947 
L 187.050437 -149.405627 
L 186.636388 -148.848308 
L 186.22759 -148.290988 
L 185.823933 -147.733669 
L 185.425282 -147.176349 
L 185.031486 -146.61903 
L 184.642384 -146.06171 
L 184.257816 -145.504391 
z
" style="stroke: #2f2f2f"/>
    </defs>
    <g clip-path="url(#p85d81d7d6a)">
     <use xlink:href="#mf5af0694f1" x="0" y="288" style="fill: #437695; stroke: #2f2f2f"/>
    </g>
   </g>
   <g id="PolyCollection_3">
    <defs>
     <path id="m031ae4ff06" d="M 262.355447 -138.657319 
L 245.743488 -138.657319 
L 245.569871 -139.229219 
L 245.395783 -139.801119 
L 245.22023 -140.373019 
L 245.042129 -140.944918 
L 244.86032 -141.516818 
L 244.673577 -142.088718 
L 244.480622 -142.660618 
L 244.280142 -143.232518 
L 244.070805 -143.804418 
L 243.851276 -144.376318 
L 243.620236 -144.948218 
L 243.3764 -145.520118 
L 243.118539 -146.092018 
L 242.845496 -146.663918 
L 242.556203 -147.235818 
L 242.249705 -147.807718 
L 241.92517 -148.379618 
L 241.581913 -148.951518 
L 241.219401 -149.523418 
L 240.837277 -150.095318 
L 240.43536 -150.667218 
L 240.013663 -151.239118 
L 239.572396 -151.811018 
L 239.111967 -152.382918 
L 238.632989 -152.954818 
L 238.136278 -153.526718 
L 237.622844 -154.098618 
L 237.093893 -154.670518 
L 236.55081 -155.242418 
L 235.995152 -155.814318 
L 235.428629 -156.386218 
L 234.853095 -156.958118 
L 234.27052 -157.530018 
L 233.682977 -158.101918 
L 233.092615 -158.673818 
L 232.501636 -159.245718 
L 231.912273 -159.817618 
L 231.326761 -160.389518 
L 230.747312 -160.961417 
L 230.176094 -161.533317 
L 229.6152 -162.105217 
L 229.066628 -162.677117 
L 228.532254 -163.249017 
L 228.013818 -163.820917 
L 227.512897 -164.392817 
L 227.030893 -164.964717 
L 226.56902 -165.536617 
L 226.128286 -166.108517 
L 225.709495 -166.680417 
L 225.313232 -167.252317 
L 224.939871 -167.824217 
L 224.589569 -168.396117 
L 224.262277 -168.968017 
L 223.957748 -169.539917 
L 223.675546 -170.111817 
L 223.415066 -170.683717 
L 223.17555 -171.255617 
L 222.956106 -171.827517 
L 222.755735 -172.399417 
L 222.573352 -172.971317 
L 222.407814 -173.543217 
L 222.25795 -174.115117 
L 222.122581 -174.687017 
L 222.000558 -175.258917 
L 221.890781 -175.830817 
L 221.792226 -176.402717 
L 221.703976 -176.974617 
L 221.625236 -177.546517 
L 221.555359 -178.118417 
L 221.493859 -178.690317 
L 221.440429 -179.262217 
L 221.394951 -179.834117 
L 221.357502 -180.406017 
L 221.328357 -180.977917 
L 221.307994 -181.549816 
L 221.297083 -182.121716 
L 221.296481 -182.693616 
L 221.307219 -183.265516 
L 221.330491 -183.837416 
L 221.367627 -184.409316 
L 221.420078 -184.981216 
L 221.489391 -185.553116 
L 221.577178 -186.125016 
L 221.685093 -186.696916 
L 221.8148 -187.268816 
L 221.967944 -187.840716 
L 222.146121 -188.412616 
L 222.350846 -188.984516 
L 222.583525 -189.556416 
L 222.845431 -190.128316 
L 223.137673 -190.700216 
L 223.461175 -191.272116 
L 223.816655 -191.844016 
L 224.204609 -192.415916 
L 224.625293 -192.987816 
L 225.078715 -193.559716 
L 225.564626 -194.131616 
L 226.082519 -194.703516 
L 226.631626 -195.275416 
L 281.467309 -195.275416 
L 281.467309 -195.275416 
L 282.016416 -194.703516 
L 282.534309 -194.131616 
L 283.02022 -193.559716 
L 283.473642 -192.987816 
L 283.894326 -192.415916 
L 284.28228 -191.844016 
L 284.63776 -191.272116 
L 284.961262 -190.700216 
L 285.253504 -190.128316 
L 285.51541 -189.556416 
L 285.748089 -188.984516 
L 285.952814 -188.412616 
L 286.130991 -187.840716 
L 286.284135 -187.268816 
L 286.413842 -186.696916 
L 286.521757 -186.125016 
L 286.609544 -185.553116 
L 286.678857 -184.981216 
L 286.731308 -184.409316 
L 286.768444 -183.837416 
L 286.791716 -183.265516 
L 286.802455 -182.693616 
L 286.801852 -182.121716 
L 286.790941 -181.549816 
L 286.770578 -180.977917 
L 286.741434 -180.406017 
L 286.703984 -179.834117 
L 286.658506 -179.262217 
L 286.605076 -178.690317 
L 286.543576 -178.118417 
L 286.473699 -177.546517 
L 286.394959 -176.974617 
L 286.306709 -176.402717 
L 286.208155 -175.830817 
L 286.098377 -175.258917 
L 285.976354 -174.687017 
L 285.840986 -174.115117 
L 285.691121 -173.543217 
L 285.525584 -172.971317 
L 285.3432 -172.399417 
L 285.142829 -171.827517 
L 284.923385 -171.255617 
L 284.683869 -170.683717 
L 284.423389 -170.111817 
L 284.141187 -169.539917 
L 283.836658 -168.968017 
L 283.509366 -168.396117 
L 283.159064 -167.824217 
L 282.785703 -167.252317 
L 282.38944 -166.680417 
L 281.970649 -166.108517 
L 281.529915 -165.536617 
L 281.068042 -164.964717 
L 280.586038 -164.392817 
L 280.085117 -163.820917 
L 279.566681 -163.249017 
L 279.032307 -162.677117 
L 278.483735 -162.105217 
L 277.922841 -161.533317 
L 277.351623 -160.961417 
L 276.772175 -160.389518 
L 276.186662 -159.817618 
L 275.597299 -159.245718 
L 275.00632 -158.673818 
L 274.415958 -158.101918 
L 273.828415 -157.530018 
L 273.24584 -156.958118 
L 272.670306 -156.386218 
L 272.103784 -155.814318 
L 271.548125 -155.242418 
L 271.005042 -154.670518 
L 270.476091 -154.098618 
L 269.962657 -153.526718 
L 269.465946 -152.954818 
L 268.986969 -152.382918 
L 268.52654 -151.811018 
L 268.085272 -151.239118 
L 267.663575 -150.667218 
L 267.261658 -150.095318 
L 266.879534 -149.523418 
L 266.517022 -148.951518 
L 266.173765 -148.379618 
L 265.84923 -147.807718 
L 265.542732 -147.235818 
L 265.253439 -146.663918 
L 264.980396 -146.092018 
L 264.722535 -145.520118 
L 264.4787 -144.948218 
L 264.247659 -144.376318 
L 264.02813 -143.804418 
L 263.818793 -143.232518 
L 263.618313 -142.660618 
L 263.425358 -142.088718 
L 263.238615 -141.516818 
L 263.056806 -140.944918 
L 262.878705 -140.373019 
L 262.703152 -139.801119 
L 262.529064 -139.229219 
L 262.355447 -138.657319 
z
" style="stroke: #2f2f2f"/>
    </defs>
    <g clip-path="url(#p85d81d7d6a)">
     <use xlink:href="#m031ae4ff06" x="0" y="288" style="fill: #423b63; stroke: #2f2f2f"/>
    </g>
   </g>
   <g id="line2d_11">
    <path d="M 90.284532 136.121797 
L 90.284532 81.276203 
" clip-path="url(#p85d81d7d6a)" style="fill: none; stroke: #2f2f2f; stroke-width: 1.5; stroke-linecap: round"/>
   </g>
   <g id="line2d_12">
    <path d="M 90.284532 130.300255 
L 90.284532 107.15308 
" clip-path="url(#p85d81d7d6a)" style="fill: none; stroke: #2f2f2f; stroke-width: 4.5; stroke-linecap: round"/>
   </g>
   <g id="line2d_13">
    <path d="M 90.284532 109.051801 
" clip-path="url(#p85d81d7d6a)" style="fill: none; stroke: #2f2f2f; stroke-width: 1.2; stroke-linecap: round"/>
    <defs>
     <path id="mfb0ff0b86b" d="M 1.875 0 
L -1.875 -0 
" style="stroke: #ffffff; stroke-width: 0.9"/>
    </defs>
    <g clip-path="url(#p85d81d7d6a)">
     <use xlink:href="#mfb0ff0b86b" x="90.284532" y="109.051801" style="fill: #ffffff; stroke: #ffffff; stroke-width: 0.9"/>
    </g>
   </g>
   <g id="line2d_14">
    <path d="M 172.167 142.495609 
L 172.167 87.320978 
" clip-path="url(#p85d81d7d6a)" style="fill: none; stroke: #2f2f2f; stroke-width: 1.5; stroke-linecap: round"/>
   </g>
   <g id="line2d_15">
    <path d="M 172.167 118.778912 
L 172.167 98.317448 
" clip-path="url(#p85d81d7d6a)" style="fill: none; stroke: #2f2f2f; stroke-width: 4.5; stroke-linecap: round"/>
   </g>
   <g id="line2d_16">
    <path d="M 172.167 108.920207 
" clip-path="url(#p85d81d7d6a)" style="fill: none; stroke: #2f2f2f; stroke-width: 1.2; stroke-linecap: round"/>
    <g clip-path="url(#p85d81d7d6a)">
     <use xlink:href="#mfb0ff0b86b" x="172.167" y="108.920207" style="fill: #ffffff; stroke: #ffffff; stroke-width: 0.9"/>
    </g>
   </g>
   <g id="line2d_17">
    <path d="M 254.049468 149.342681 
L 254.049468 92.724584 
" clip-path="url(#p85d81d7d6a)" style="fill: none; stroke: #2f2f2f; stroke-width: 1.5; stroke-linecap: round"/>
   </g>
   <g id="line2d_18">
    <path d="M 254.049468 120.256735 
L 254.049468 97.433885 
" clip-path="url(#p85d81d7d6a)" style="fill: none; stroke: #2f2f2f; stroke-width: 4.5; stroke-linecap: round"/>
   </g>
   <g id="line2d_19">
    <path d="M 254.049468 114.356848 
" clip-path="url(#p85d81d7d6a)" style="fill: none; stroke: #2f2f2f; stroke-width: 1.2; stroke-linecap: round"/>
    <g clip-path="url(#p85d81d7d6a)">
     <use xlink:href="#mfb0ff0b86b" x="254.049468" y="114.356848" style="fill: #ffffff; stroke: #ffffff; stroke-width: 0.9"/>
    </g>
   </g>
   <g id="line2d_20">
    <path d="M 90.284532 77.688936 
L 90.284532 69.176976 
L 172.167 69.176976 
L 172.167 77.688936 
" clip-path="url(#p85d81d7d6a)" style="fill: none; stroke: #000000; stroke-linecap: round"/>
   </g>
   <g id="line2d_21">
    <path d="M 172.167 63.33987 
L 172.167 54.469183 
L 254.049468 54.469183 
L 254.049468 63.33987 
" clip-path="url(#p85d81d7d6a)" style="fill: none; stroke: #000000; stroke-linecap: round"/>
   </g>
   <g id="line2d_22">
    <path d="M 90.284532 48.990803 
L 90.284532 39.76139 
L 254.049468 39.76139 
L 254.049468 48.990803 
" clip-path="url(#p85d81d7d6a)" style="fill: none; stroke: #000000; stroke-linecap: round"/>
   </g>
   <g id="patch_3">
    <path d="M 46.068 238.804 
L 46.068 23.568 
" style="fill: none; stroke: #262626; stroke-linejoin: miter; stroke-linecap: square"/>
   </g>
   <g id="patch_4">
    <path d="M 298.266 238.804 
L 298.266 23.568 
" style="fill: none; stroke: #262626; stroke-linejoin: miter; stroke-linecap: square"/>
   </g>
   <g id="patch_5">
    <path d="M 46.068 238.804 
L 298.266 238.804 
" style="fill: none; stroke: #262626; stroke-linejoin: miter; stroke-linecap: square"/>
   </g>
   <g id="patch_6">
    <path d="M 46.068 23.568 
L 298.266 23.568 
" style="fill: none; stroke: #262626; stroke-linejoin: miter; stroke-linecap: square"/>
   </g>
   <g id="text_12">
    <!-- ns -->
    <g transform="translate(125.683266 67.180476) scale(0.096 -0.096)">
     <use xlink:href="#DejaVuSans-6e"/>
     <use xlink:href="#DejaVuSans-73" x="63.378906"/>
    </g>
   </g>
   <g id="text_13">
    <!-- ns -->
    <g transform="translate(207.565734 52.472683) scale(0.096 -0.096)">
     <use xlink:href="#DejaVuSans-6e"/>
     <use xlink:href="#DejaVuSans-73" x="63.378906"/>
    </g>
   </g>
   <g id="text_14">
    <!-- ns -->
    <g transform="translate(166.6245 37.76489) scale(0.096 -0.096)">
     <use xlink:href="#DejaVuSans-6e"/>
     <use xlink:href="#DejaVuSans-73" x="63.378906"/>
    </g>
   </g>
   <g id="text_15">
    <!-- Accuracy -->
    <g style="fill: #262626" transform="translate(150.252 17.568) scale(0.096 -0.096)">
     <defs>
      <path id="DejaVuSans-41" d="M 2188 4044 
L 1331 1722 
L 3047 1722 
L 2188 4044 
z
M 1831 4666 
L 2547 4666 
L 4325 0 
L 3669 0 
L 3244 1197 
L 1141 1197 
L 716 0 
L 50 0 
L 1831 4666 
z
" transform="scale(0.015625)"/>
     </defs>
     <use xlink:href="#DejaVuSans-41"/>
     <use xlink:href="#DejaVuSans-63" x="66.658203"/>
     <use xlink:href="#DejaVuSans-63" x="121.638672"/>
     <use xlink:href="#DejaVuSans-75" x="176.619141"/>
     <use xlink:href="#DejaVuSans-72" x="239.998047"/>
     <use xlink:href="#DejaVuSans-61" x="281.111328"/>
     <use xlink:href="#DejaVuSans-63" x="342.390625"/>
     <use xlink:href="#DejaVuSans-79" x="397.371094"/>
    </g>
   </g>
  </g>
  <g id="axes_2">
   <g id="patch_7">
    <path d="M 313.434 238.804 
L 565.632 238.804 
L 565.632 23.568 
L 313.434 23.568 
L 313.434 238.804 
z
" style="fill: none"/>
   </g>
   <g id="matplotlib.axis_3">
    <g id="xtick_4">
     <g id="line2d_23">
      <g>
       <use xlink:href="#m9e3ca1b543" x="357.650532" y="238.804" style="fill: #262626; stroke: #262626"/>
      </g>
     </g>
     <g id="text_16">
      <!-- Low -->
      <g style="fill: #262626" transform="translate(348.985282 253.790625) scale(0.088 -0.088)">
       <use xlink:href="#DejaVuSans-4c"/>
       <use xlink:href="#DejaVuSans-6f" x="53.962891"/>
       <use xlink:href="#DejaVuSans-77" x="115.144531"/>
      </g>
     </g>
    </g>
    <g id="xtick_5">
     <g id="line2d_24">
      <g>
       <use xlink:href="#m9e3ca1b543" x="439.533" y="238.804" style="fill: #262626; stroke: #262626"/>
      </g>
     </g>
     <g id="text_17">
      <!-- Medium -->
      <g style="fill: #262626" transform="translate(421.939188 253.790625) scale(0.088 -0.088)">
       <use xlink:href="#DejaVuSans-4d"/>
       <use xlink:href="#DejaVuSans-65" x="86.279297"/>
       <use xlink:href="#DejaVuSans-64" x="147.802734"/>
       <use xlink:href="#DejaVuSans-69" x="211.279297"/>
       <use xlink:href="#DejaVuSans-75" x="239.0625"/>
       <use xlink:href="#DejaVuSans-6d" x="302.441406"/>
      </g>
     </g>
    </g>
    <g id="xtick_6">
     <g id="line2d_25">
      <g>
       <use xlink:href="#m9e3ca1b543" x="521.415468" y="238.804" style="fill: #262626; stroke: #262626"/>
      </g>
     </g>
     <g id="text_18">
      <!-- High -->
      <g style="fill: #262626" transform="translate(511.302343 253.790625) scale(0.088 -0.088)">
       <use xlink:href="#DejaVuSans-48"/>
       <use xlink:href="#DejaVuSans-69" x="75.195312"/>
       <use xlink:href="#DejaVuSans-67" x="102.978516"/>
       <use xlink:href="#DejaVuSans-68" x="166.455078"/>
      </g>
     </g>
    </g>
   </g>
   <g id="matplotlib.axis_4">
    <g id="ytick_8">
     <g id="line2d_26">
      <g>
       <use xlink:href="#m0a4f704f27" x="313.434" y="238.804" style="fill: #262626; stroke: #262626"/>
      </g>
     </g>
    </g>
    <g id="ytick_9">
     <g id="line2d_27">
      <g>
       <use xlink:href="#m0a4f704f27" x="313.434" y="202.931333" style="fill: #262626; stroke: #262626"/>
      </g>
     </g>
    </g>
    <g id="ytick_10">
     <g id="line2d_28">
      <g>
       <use xlink:href="#m0a4f704f27" x="313.434" y="167.058667" style="fill: #262626; stroke: #262626"/>
      </g>
     </g>
    </g>
    <g id="ytick_11">
     <g id="line2d_29">
      <g>
       <use xlink:href="#m0a4f704f27" x="313.434" y="131.186" style="fill: #262626; stroke: #262626"/>
      </g>
     </g>
    </g>
    <g id="ytick_12">
     <g id="line2d_30">
      <g>
       <use xlink:href="#m0a4f704f27" x="313.434" y="95.313333" style="fill: #262626; stroke: #262626"/>
      </g>
     </g>
    </g>
    <g id="ytick_13">
     <g id="line2d_31">
      <g>
       <use xlink:href="#m0a4f704f27" x="313.434" y="59.440667" style="fill: #262626; stroke: #262626"/>
      </g>
     </g>
    </g>
    <g id="ytick_14">
     <g id="line2d_32">
      <g>
       <use xlink:href="#m0a4f704f27" x="313.434" y="23.568" style="fill: #262626; stroke: #262626"/>
      </g>
     </g>
    </g>
   </g>
   <g id="PolyCollection_4">
    <defs>
     <path id="mb28061dadd" d="M 381.503722 -42.419048 
L 333.797343 -42.419048 
L 333.111354 -43.563403 
L 332.4408 -44.707759 
L 331.787753 -45.852114 
L 331.154244 -46.996469 
L 330.542249 -48.140825 
L 329.953683 -49.28518 
L 329.390387 -50.429535 
L 328.854117 -51.573891 
L 328.346534 -52.718246 
L 327.869198 -53.862601 
L 327.423556 -55.006957 
L 327.010938 -56.151312 
L 326.632548 -57.295667 
L 326.289459 -58.440022 
L 325.982608 -59.584378 
L 325.712791 -60.728733 
L 325.480662 -61.873088 
L 325.286731 -63.017444 
L 325.131358 -64.161799 
L 325.014759 -65.306154 
L 324.937 -66.45051 
L 324.898003 -67.594865 
L 324.897545 -68.73922 
L 324.935263 -69.883576 
L 325.010652 -71.027931 
L 325.123074 -72.172286 
L 325.271759 -73.316642 
L 325.455811 -74.460997 
L 325.674212 -75.605352 
L 325.925828 -76.749708 
L 326.209415 -77.894063 
L 326.523622 -79.038418 
L 326.867003 -80.182774 
L 327.238018 -81.327129 
L 327.63504 -82.471484 
L 328.056367 -83.61584 
L 328.500223 -84.760195 
L 328.964769 -85.90455 
L 329.448106 -87.048906 
L 329.948291 -88.193261 
L 330.463334 -89.337616 
L 330.991216 -90.481972 
L 331.529888 -91.626327 
L 332.077287 -92.770682 
L 332.631342 -93.915038 
L 333.18998 -95.059393 
L 333.751138 -96.203748 
L 334.312773 -97.348104 
L 334.872869 -98.492459 
L 335.429448 -99.636814 
L 335.980577 -100.78117 
L 336.524384 -101.925525 
L 337.059059 -103.06988 
L 337.582872 -104.214236 
L 338.094176 -105.358591 
L 338.591422 -106.502946 
L 339.073162 -107.647302 
L 339.538065 -108.791657 
L 339.984918 -109.936012 
L 340.412639 -111.080368 
L 340.820281 -112.224723 
L 341.207041 -113.369078 
L 341.572262 -114.513434 
L 341.915442 -115.657789 
L 342.236234 -116.802144 
L 342.534449 -117.9465 
L 342.810059 -119.090855 
L 343.063196 -120.23521 
L 343.294149 -121.379566 
L 343.503367 -122.523921 
L 343.691448 -123.668276 
L 343.859138 -124.812632 
L 344.007327 -125.956987 
L 344.137035 -127.101342 
L 344.249407 -128.245698 
L 344.345703 -129.390053 
L 344.427286 -130.534408 
L 344.495611 -131.678764 
L 344.552208 -132.823119 
L 344.598675 -133.967474 
L 344.636659 -135.11183 
L 344.66784 -136.256185 
L 344.69392 -137.40054 
L 344.716608 -138.544896 
L 344.737599 -139.689251 
L 344.758564 -140.833606 
L 344.781136 -141.977962 
L 344.806893 -143.122317 
L 344.837343 -144.266672 
L 344.873918 -145.411028 
L 344.917955 -146.555383 
L 344.97069 -147.699738 
L 345.033247 -148.844094 
L 345.106628 -149.988449 
L 345.19171 -151.132804 
L 345.289237 -152.27716 
L 345.399816 -153.421515 
L 345.523915 -154.56587 
L 345.661862 -155.710226 
L 369.639203 -155.710226 
L 369.639203 -155.710226 
L 369.77715 -154.56587 
L 369.901249 -153.421515 
L 370.011828 -152.27716 
L 370.109355 -151.132804 
L 370.194437 -149.988449 
L 370.267818 -148.844094 
L 370.330375 -147.699738 
L 370.38311 -146.555383 
L 370.427147 -145.411028 
L 370.463722 -144.266672 
L 370.494172 -143.122317 
L 370.519928 -141.977962 
L 370.542501 -140.833606 
L 370.563466 -139.689251 
L 370.584457 -138.544896 
L 370.607145 -137.40054 
L 370.633225 -136.256185 
L 370.664406 -135.11183 
L 370.70239 -133.967474 
L 370.748857 -132.823119 
L 370.805454 -131.678764 
L 370.873779 -130.534408 
L 370.955362 -129.390053 
L 371.051658 -128.245698 
L 371.16403 -127.101342 
L 371.293738 -125.956987 
L 371.441927 -124.812632 
L 371.609617 -123.668276 
L 371.797698 -122.523921 
L 372.006916 -121.379566 
L 372.237869 -120.23521 
L 372.491006 -119.090855 
L 372.766616 -117.9465 
L 373.064831 -116.802144 
L 373.385623 -115.657789 
L 373.728803 -114.513434 
L 374.094024 -113.369078 
L 374.480784 -112.224723 
L 374.888426 -111.080368 
L 375.316147 -109.936012 
L 375.763 -108.791657 
L 376.227903 -107.647302 
L 376.709643 -106.502946 
L 377.206889 -105.358591 
L 377.718193 -104.214236 
L 378.242006 -103.06988 
L 378.776681 -101.925525 
L 379.320488 -100.78117 
L 379.871617 -99.636814 
L 380.428196 -98.492459 
L 380.988292 -97.348104 
L 381.549927 -96.203748 
L 382.111085 -95.059393 
L 382.669723 -93.915038 
L 383.223777 -92.770682 
L 383.771177 -91.626327 
L 384.309849 -90.481972 
L 384.83773 -89.337616 
L 385.352774 -88.193261 
L 385.852958 -87.048906 
L 386.336296 -85.90455 
L 386.800842 -84.760195 
L 387.244698 -83.61584 
L 387.666025 -82.471484 
L 388.063047 -81.327129 
L 388.434062 -80.182774 
L 388.777442 -79.038418 
L 389.09165 -77.894063 
L 389.375237 -76.749708 
L 389.626853 -75.605352 
L 389.845254 -74.460997 
L 390.029306 -73.316642 
L 390.177991 -72.172286 
L 390.290413 -71.027931 
L 390.365802 -69.883576 
L 390.403519 -68.73922 
L 390.403062 -67.594865 
L 390.364065 -66.45051 
L 390.286306 -65.306154 
L 390.169707 -64.161799 
L 390.014334 -63.017444 
L 389.820403 -61.873088 
L 389.588274 -60.728733 
L 389.318457 -59.584378 
L 389.011606 -58.440022 
L 388.668517 -57.295667 
L 388.290127 -56.151312 
L 387.877509 -55.006957 
L 387.431867 -53.862601 
L 386.954531 -52.718246 
L 386.446948 -51.573891 
L 385.910678 -50.429535 
L 385.347382 -49.28518 
L 384.758816 -48.140825 
L 384.146821 -46.996469 
L 383.513312 -45.852114 
L 382.860265 -44.707759 
L 382.189711 -43.563403 
L 381.503722 -42.419048 
z
" style="stroke: #2f2f2f"/>
    </defs>
    <g clip-path="url(#p08933ae9ee)">
     <use xlink:href="#mb28061dadd" x="0" y="288" style="fill: #58b2a3; stroke: #2f2f2f"/>
    </g>
   </g>
   <g id="PolyCollection_5">
    <defs>
     <path id="med326bfad0" d="M 456.35029 -99.345446 
L 422.71571 -99.345446 
L 422.031417 -100.30501 
L 421.341471 -101.264575 
L 420.647326 -102.224139 
L 419.950526 -103.183704 
L 419.252702 -104.143268 
L 418.555564 -105.102833 
L 417.860904 -106.062397 
L 417.17058 -107.021962 
L 416.486514 -107.981526 
L 415.810678 -108.941091 
L 415.145089 -109.900655 
L 414.491792 -110.860219 
L 413.85285 -111.819784 
L 413.230328 -112.779348 
L 412.626281 -113.738913 
L 412.042735 -114.698477 
L 411.481675 -115.658042 
L 410.945025 -116.617606 
L 410.434635 -117.577171 
L 409.952263 -118.536735 
L 409.49956 -119.4963 
L 409.078054 -120.455864 
L 408.689139 -121.415429 
L 408.334056 -122.374993 
L 408.013891 -123.334558 
L 407.729553 -124.294122 
L 407.481777 -125.253686 
L 407.271107 -126.213251 
L 407.097899 -127.172815 
L 406.962316 -128.13238 
L 406.864323 -129.091944 
L 406.803694 -130.051509 
L 406.780013 -131.011073 
L 406.792676 -131.970638 
L 406.840902 -132.930202 
L 406.923738 -133.889767 
L 407.040072 -134.849331 
L 407.188642 -135.808896 
L 407.368048 -136.76846 
L 407.576768 -137.728025 
L 407.813169 -138.687589 
L 408.075524 -139.647154 
L 408.362026 -140.606718 
L 408.670803 -141.566282 
L 408.999936 -142.525847 
L 409.347468 -143.485411 
L 409.711426 -144.444976 
L 410.089832 -145.40454 
L 410.480715 -146.364105 
L 410.882128 -147.323669 
L 411.292158 -148.283234 
L 411.70894 -149.242798 
L 412.130666 -150.202363 
L 412.555595 -151.161927 
L 412.982067 -152.121492 
L 413.408503 -153.081056 
L 413.833422 -154.040621 
L 414.255442 -155.000185 
L 414.673289 -155.959749 
L 415.085799 -156.919314 
L 415.491928 -157.878878 
L 415.890751 -158.838443 
L 416.281468 -159.798007 
L 416.663405 -160.757572 
L 417.036015 -161.717136 
L 417.398879 -162.676701 
L 417.751709 -163.636265 
L 418.094341 -164.59583 
L 418.426738 -165.555394 
L 418.748987 -166.514959 
L 419.061292 -167.474523 
L 419.363973 -168.434088 
L 419.657457 -169.393652 
L 419.942276 -170.353216 
L 420.219055 -171.312781 
L 420.488507 -172.272345 
L 420.751423 -173.23191 
L 421.00866 -174.191474 
L 421.261134 -175.151039 
L 421.509805 -176.110603 
L 421.755669 -177.070168 
L 421.999741 -178.029732 
L 422.243047 -178.989297 
L 422.486608 -179.948861 
L 422.731431 -180.908426 
L 422.978491 -181.86799 
L 423.228724 -182.827555 
L 423.483013 -183.787119 
L 423.742177 -184.746684 
L 424.006961 -185.706248 
L 424.278026 -186.665812 
L 424.555942 -187.625377 
L 424.841181 -188.584941 
L 425.134109 -189.544506 
L 425.434985 -190.50407 
L 425.743955 -191.463635 
L 426.061052 -192.423199 
L 426.386195 -193.382764 
L 426.719191 -194.342328 
L 452.346809 -194.342328 
L 452.346809 -194.342328 
L 452.679805 -193.382764 
L 453.004948 -192.423199 
L 453.322045 -191.463635 
L 453.631015 -190.50407 
L 453.931891 -189.544506 
L 454.224819 -188.584941 
L 454.510058 -187.625377 
L 454.787974 -186.665812 
L 455.059039 -185.706248 
L 455.323823 -184.746684 
L 455.582987 -183.787119 
L 455.837276 -182.827555 
L 456.087509 -181.86799 
L 456.334569 -180.908426 
L 456.579392 -179.948861 
L 456.822953 -178.989297 
L 457.066259 -178.029732 
L 457.310331 -177.070168 
L 457.556195 -176.110603 
L 457.804866 -175.151039 
L 458.05734 -174.191474 
L 458.314577 -173.23191 
L 458.577493 -172.272345 
L 458.846945 -171.312781 
L 459.123724 -170.353216 
L 459.408543 -169.393652 
L 459.702027 -168.434088 
L 460.004708 -167.474523 
L 460.317013 -166.514959 
L 460.639262 -165.555394 
L 460.971659 -164.59583 
L 461.314291 -163.636265 
L 461.667121 -162.676701 
L 462.029985 -161.717136 
L 462.402595 -160.757572 
L 462.784532 -159.798007 
L 463.175249 -158.838443 
L 463.574072 -157.878878 
L 463.980201 -156.919314 
L 464.392711 -155.959749 
L 464.810558 -155.000185 
L 465.232578 -154.040621 
L 465.657497 -153.081056 
L 466.083933 -152.121492 
L 466.510405 -151.161927 
L 466.935334 -150.202363 
L 467.35706 -149.242798 
L 467.773842 -148.283234 
L 468.183872 -147.323669 
L 468.585285 -146.364105 
L 468.976168 -145.40454 
L 469.354574 -144.444976 
L 469.718532 -143.485411 
L 470.066064 -142.525847 
L 470.395197 -141.566282 
L 470.703974 -140.606718 
L 470.990476 -139.647154 
L 471.252831 -138.687589 
L 471.489232 -137.728025 
L 471.697952 -136.76846 
L 471.877358 -135.808896 
L 472.025928 -134.849331 
L 472.142262 -133.889767 
L 472.225098 -132.930202 
L 472.273324 -131.970638 
L 472.285987 -131.011073 
L 472.262306 -130.051509 
L 472.201677 -129.091944 
L 472.103684 -128.13238 
L 471.968101 -127.172815 
L 471.794893 -126.213251 
L 471.584223 -125.253686 
L 471.336447 -124.294122 
L 471.052109 -123.334558 
L 470.731944 -122.374993 
L 470.376861 -121.415429 
L 469.987946 -120.455864 
L 469.56644 -119.4963 
L 469.113737 -118.536735 
L 468.631365 -117.577171 
L 468.120975 -116.617606 
L 467.584325 -115.658042 
L 467.023265 -114.698477 
L 466.439719 -113.738913 
L 465.835672 -112.779348 
L 465.21315 -111.819784 
L 464.574208 -110.860219 
L 463.920911 -109.900655 
L 463.255322 -108.941091 
L 462.579486 -107.981526 
L 461.89542 -107.021962 
L 461.205096 -106.062397 
L 460.510436 -105.102833 
L 459.813298 -104.143268 
L 459.115474 -103.183704 
L 458.418674 -102.224139 
L 457.724529 -101.264575 
L 457.034583 -100.30501 
L 456.35029 -99.345446 
z
" style="stroke: #2f2f2f"/>
    </defs>
    <g clip-path="url(#p08933ae9ee)">
     <use xlink:href="#med326bfad0" x="0" y="288" style="fill: #437695; stroke: #2f2f2f"/>
    </g>
   </g>
   <g id="PolyCollection_6">
    <defs>
     <path id="maa053f464b" d="M 540.402119 -129.164035 
L 502.428816 -129.164035 
L 501.75132 -129.669463 
L 501.071867 -130.17489 
L 500.392045 -130.680318 
L 499.713524 -131.185746 
L 499.038058 -131.691173 
L 498.367476 -132.196601 
L 497.703672 -132.702028 
L 497.048604 -133.207456 
L 496.404278 -133.712883 
L 495.772738 -134.218311 
L 495.156054 -134.723739 
L 494.556311 -135.229166 
L 493.975587 -135.734594 
L 493.415945 -136.240021 
L 492.879411 -136.745449 
L 492.367958 -137.250876 
L 491.883488 -137.756304 
L 491.427813 -138.261731 
L 491.002634 -138.767159 
L 490.609527 -139.272587 
L 490.249918 -139.778014 
L 489.925072 -140.283442 
L 489.636069 -140.788869 
L 489.383792 -141.294297 
L 489.168911 -141.799724 
L 488.991871 -142.305152 
L 488.852877 -142.81058 
L 488.751888 -143.316007 
L 488.688607 -143.821435 
L 488.662481 -144.326862 
L 488.67269 -144.83229 
L 488.71816 -145.337717 
L 488.797552 -145.843145 
L 488.909282 -146.348573 
L 489.051519 -146.854 
L 489.222204 -147.359428 
L 489.419062 -147.864855 
L 489.639618 -148.370283 
L 489.881221 -148.87571 
L 490.141063 -149.381138 
L 490.416205 -149.886566 
L 490.703602 -150.391993 
L 491.000135 -150.897421 
L 491.302636 -151.402848 
L 491.607921 -151.908276 
L 491.91282 -152.413703 
L 492.214209 -152.919131 
L 492.509044 -153.424559 
L 492.794387 -153.929986 
L 493.067441 -154.435414 
L 493.325575 -154.940841 
L 493.566354 -155.446269 
L 493.787567 -155.951696 
L 493.987245 -156.457124 
L 494.163687 -156.962551 
L 494.315475 -157.467979 
L 494.441491 -157.973407 
L 494.540931 -158.478834 
L 494.61331 -158.984262 
L 494.65847 -159.489689 
L 494.676583 -159.995117 
L 494.668147 -160.500544 
L 494.633984 -161.005972 
L 494.575229 -161.5114 
L 494.493317 -162.016827 
L 494.389975 -162.522255 
L 494.267194 -163.027682 
L 494.127218 -163.53311 
L 493.972513 -164.038537 
L 493.805746 -164.543965 
L 493.629753 -165.049393 
L 493.447516 -165.55482 
L 493.262126 -166.060248 
L 493.076755 -166.565675 
L 492.894621 -167.071103 
L 492.718961 -167.57653 
L 492.552992 -168.081958 
L 492.399882 -168.587386 
L 492.26272 -169.092813 
L 492.144487 -169.598241 
L 492.048023 -170.103668 
L 491.976007 -170.609096 
L 491.930925 -171.114523 
L 491.915057 -171.619951 
L 491.93045 -172.125379 
L 491.978903 -172.630806 
L 492.061954 -173.136234 
L 492.180871 -173.641661 
L 492.336637 -174.147089 
L 492.529952 -174.652516 
L 492.761228 -175.157944 
L 493.030587 -175.663371 
L 493.337871 -176.168799 
L 493.682643 -176.674227 
L 494.064196 -177.179654 
L 494.481568 -177.685082 
L 494.933556 -178.190509 
L 495.418724 -178.695937 
L 495.935431 -179.201364 
L 546.895504 -179.201364 
L 546.895504 -179.201364 
L 547.412211 -178.695937 
L 547.897379 -178.190509 
L 548.349367 -177.685082 
L 548.766739 -177.179654 
L 549.148293 -176.674227 
L 549.493064 -176.168799 
L 549.800348 -175.663371 
L 550.069707 -175.157944 
L 550.300983 -174.652516 
L 550.494298 -174.147089 
L 550.650064 -173.641661 
L 550.768981 -173.136234 
L 550.852032 -172.630806 
L 550.900485 -172.125379 
L 550.915878 -171.619951 
L 550.90001 -171.114523 
L 550.854929 -170.609096 
L 550.782912 -170.103668 
L 550.686448 -169.598241 
L 550.568215 -169.092813 
L 550.431054 -168.587386 
L 550.277943 -168.081958 
L 550.111974 -167.57653 
L 549.936314 -167.071103 
L 549.75418 -166.565675 
L 549.568809 -166.060248 
L 549.383419 -165.55482 
L 549.201182 -165.049393 
L 549.025189 -164.543965 
L 548.858422 -164.038537 
L 548.703717 -163.53311 
L 548.563741 -163.027682 
L 548.44096 -162.522255 
L 548.337618 -162.016827 
L 548.255706 -161.5114 
L 548.196951 -161.005972 
L 548.162788 -160.500544 
L 548.154352 -159.995117 
L 548.172465 -159.489689 
L 548.217626 -158.984262 
L 548.290004 -158.478834 
L 548.389444 -157.973407 
L 548.51546 -157.467979 
L 548.667248 -156.962551 
L 548.84369 -156.457124 
L 549.043368 -155.951696 
L 549.264581 -155.446269 
L 549.505361 -154.940841 
L 549.763494 -154.435414 
L 550.036548 -153.929986 
L 550.321891 -153.424559 
L 550.616726 -152.919131 
L 550.918115 -152.413703 
L 551.223014 -151.908276 
L 551.528299 -151.402848 
L 551.8308 -150.897421 
L 552.127333 -150.391993 
L 552.41473 -149.886566 
L 552.689872 -149.381138 
L 552.949714 -148.87571 
L 553.191317 -148.370283 
L 553.411873 -147.864855 
L 553.608731 -147.359428 
L 553.779416 -146.854 
L 553.921653 -146.348573 
L 554.033383 -145.843145 
L 554.112776 -145.337717 
L 554.158245 -144.83229 
L 554.168455 -144.326862 
L 554.142328 -143.821435 
L 554.079047 -143.316007 
L 553.978058 -142.81058 
L 553.839064 -142.305152 
L 553.662024 -141.799724 
L 553.447143 -141.294297 
L 553.194867 -140.788869 
L 552.905863 -140.283442 
L 552.581017 -139.778014 
L 552.221408 -139.272587 
L 551.828301 -138.767159 
L 551.403122 -138.261731 
L 550.947447 -137.756304 
L 550.462977 -137.250876 
L 549.951524 -136.745449 
L 549.41499 -136.240021 
L 548.855348 -135.734594 
L 548.274624 -135.229166 
L 547.674881 -134.723739 
L 547.058197 -134.218311 
L 546.426657 -133.712883 
L 545.782331 -133.207456 
L 545.127263 -132.702028 
L 544.463459 -132.196601 
L 543.792877 -131.691173 
L 543.117411 -131.185746 
L 542.43889 -130.680318 
L 541.759068 -130.17489 
L 541.079615 -129.669463 
L 540.402119 -129.164035 
z
" style="stroke: #2f2f2f"/>
    </defs>
    <g clip-path="url(#p08933ae9ee)">
     <use xlink:href="#maa053f464b" x="0" y="288" style="fill: #423b63; stroke: #2f2f2f"/>
    </g>
   </g>
   <g id="line2d_33">
    <path d="M 357.650532 245.580952 
L 357.650532 193.963167 
" clip-path="url(#p08933ae9ee)" style="fill: none; stroke: #2f2f2f; stroke-width: 1.5; stroke-linecap: round"/>
   </g>
   <g id="line2d_34">
    <path d="M 357.650532 226.46684 
L 357.650532 193.963167 
" clip-path="url(#p08933ae9ee)" style="fill: none; stroke: #2f2f2f; stroke-width: 4.5; stroke-linecap: round"/>
   </g>
   <g id="line2d_35">
    <path d="M 357.650532 214.446016 
" clip-path="url(#p08933ae9ee)" style="fill: none; stroke: #2f2f2f; stroke-width: 1.2; stroke-linecap: round"/>
    <g clip-path="url(#p08933ae9ee)">
     <use xlink:href="#mfb0ff0b86b" x="357.650532" y="214.446016" style="fill: #ffffff; stroke: #ffffff; stroke-width: 0.9"/>
    </g>
   </g>
   <g id="line2d_36">
    <path d="M 439.533 188.654554 
L 439.533 93.657672 
" clip-path="url(#p08933ae9ee)" style="fill: none; stroke: #2f2f2f; stroke-width: 1.5; stroke-linecap: round"/>
   </g>
   <g id="line2d_37">
    <path d="M 439.533 164.217267 
L 439.533 130.624026 
" clip-path="url(#p08933ae9ee)" style="fill: none; stroke: #2f2f2f; stroke-width: 4.5; stroke-linecap: round"/>
   </g>
   <g id="line2d_38">
    <path d="M 439.533 154.341901 
" clip-path="url(#p08933ae9ee)" style="fill: none; stroke: #2f2f2f; stroke-width: 1.2; stroke-linecap: round"/>
    <g clip-path="url(#p08933ae9ee)">
     <use xlink:href="#mfb0ff0b86b" x="439.533" y="154.341901" style="fill: #ffffff; stroke: #ffffff; stroke-width: 0.9"/>
    </g>
   </g>
   <g id="line2d_39">
    <path d="M 521.415468 158.835965 
L 521.415468 108.798636 
" clip-path="url(#p08933ae9ee)" style="fill: none; stroke: #2f2f2f; stroke-width: 1.5; stroke-linecap: round"/>
   </g>
   <g id="line2d_40">
    <path d="M 521.415468 142.967709 
L 521.415468 115.491708 
" clip-path="url(#p08933ae9ee)" style="fill: none; stroke: #2f2f2f; stroke-width: 4.5; stroke-linecap: round"/>
   </g>
   <g id="line2d_41">
    <path d="M 521.415468 141.514377 
" clip-path="url(#p08933ae9ee)" style="fill: none; stroke: #2f2f2f; stroke-width: 1.2; stroke-linecap: round"/>
    <g clip-path="url(#p08933ae9ee)">
     <use xlink:href="#mfb0ff0b86b" x="521.415468" y="141.514377" style="fill: #ffffff; stroke: #ffffff; stroke-width: 0.9"/>
    </g>
   </g>
   <g id="line2d_42">
    <path d="M 357.650532 90.070405 
L 357.650532 81.867982 
L 439.533 81.867982 
L 439.533 90.070405 
" clip-path="url(#p08933ae9ee)" style="fill: none; stroke: #000000; stroke-linecap: round"/>
   </g>
   <g id="line2d_43">
    <path d="M 439.533 75.721338 
L 439.533 67.160189 
L 521.415468 67.160189 
L 521.415468 75.721338 
" clip-path="url(#p08933ae9ee)" style="fill: none; stroke: #000000; stroke-linecap: round"/>
   </g>
   <g id="line2d_44">
    <path d="M 357.650532 61.372272 
L 357.650532 52.452395 
L 521.415468 52.452395 
L 521.415468 61.372272 
" clip-path="url(#p08933ae9ee)" style="fill: none; stroke: #000000; stroke-linecap: round"/>
   </g>
   <g id="patch_8">
    <path d="M 313.434 238.804 
L 313.434 23.568 
" style="fill: none; stroke: #262626; stroke-linejoin: miter; stroke-linecap: square"/>
   </g>
   <g id="patch_9">
    <path d="M 565.632 238.804 
L 565.632 23.568 
" style="fill: none; stroke: #262626; stroke-linejoin: miter; stroke-linecap: square"/>
   </g>
   <g id="patch_10">
    <path d="M 313.434 238.804 
L 565.632 238.804 
" style="fill: none; stroke: #262626; stroke-linejoin: miter; stroke-linecap: square"/>
   </g>
   <g id="patch_11">
    <path d="M 313.434 23.568 
L 565.632 23.568 
" style="fill: none; stroke: #262626; stroke-linejoin: miter; stroke-linecap: square"/>
   </g>
   <g id="text_19">
    <!-- ** -->
    <g transform="translate(393.791766 79.871482) scale(0.096 -0.096)">
     <defs>
      <path id="DejaVuSans-2a" d="M 3009 3897 
L 1888 3291 
L 3009 2681 
L 2828 2375 
L 1778 3009 
L 1778 1831 
L 1422 1831 
L 1422 3009 
L 372 2375 
L 191 2681 
L 1313 3291 
L 191 3897 
L 372 4206 
L 1422 3572 
L 1422 4750 
L 1778 4750 
L 1778 3572 
L 2828 4206 
L 3009 3897 
z
" transform="scale(0.015625)"/>
     </defs>
     <use xlink:href="#DejaVuSans-2a"/>
     <use xlink:href="#DejaVuSans-2a" x="50"/>
    </g>
   </g>
   <g id="text_20">
    <!-- ns -->
    <g transform="translate(474.931734 65.163689) scale(0.096 -0.096)">
     <use xlink:href="#DejaVuSans-6e"/>
     <use xlink:href="#DejaVuSans-73" x="63.378906"/>
    </g>
   </g>
   <g id="text_21">
    <!-- *** -->
    <g transform="translate(432.333 50.455895) scale(0.096 -0.096)">
     <use xlink:href="#DejaVuSans-2a"/>
     <use xlink:href="#DejaVuSans-2a" x="50"/>
     <use xlink:href="#DejaVuSans-2a" x="100"/>
    </g>
   </g>
   <g id="text_22">
    <!-- Speed -->
    <g style="fill: #262626" transform="translate(424.48425 17.568) scale(0.096 -0.096)">
     <defs>
      <path id="DejaVuSans-53" d="M 3425 4513 
L 3425 3897 
Q 3066 4069 2747 4153 
Q 2428 4238 2131 4238 
Q 1616 4238 1336 4038 
Q 1056 3838 1056 3469 
Q 1056 3159 1242 3001 
Q 1428 2844 1947 2747 
L 2328 2669 
Q 3034 2534 3370 2195 
Q 3706 1856 3706 1288 
Q 3706 609 3251 259 
Q 2797 -91 1919 -91 
Q 1588 -91 1214 -16 
Q 841 59 441 206 
L 441 856 
Q 825 641 1194 531 
Q 1563 422 1919 422 
Q 2459 422 2753 634 
Q 3047 847 3047 1241 
Q 3047 1584 2836 1778 
Q 2625 1972 2144 2069 
L 1759 2144 
Q 1053 2284 737 2584 
Q 422 2884 422 3419 
Q 422 4038 858 4394 
Q 1294 4750 2059 4750 
Q 2388 4750 2728 4690 
Q 3069 4631 3425 4513 
z
" transform="scale(0.015625)"/>
     </defs>
     <use xlink:href="#DejaVuSans-53"/>
     <use xlink:href="#DejaVuSans-70" x="63.476562"/>
     <use xlink:href="#DejaVuSans-65" x="126.953125"/>
     <use xlink:href="#DejaVuSans-65" x="188.476562"/>
     <use xlink:href="#DejaVuSans-64" x="250"/>
    </g>
   </g>
  </g>
  <g id="text_23">
   <!-- Average confirmation probability tertile -->
   <g style="fill: #262626" transform="translate(174.5406 282.7242) scale(0.1152 -0.1152)">
    <defs>
     <path id="DejaVuSans-76" d="M 191 3500 
L 800 3500 
L 1894 563 
L 2988 3500 
L 3597 3500 
L 2284 0 
L 1503 0 
L 191 3500 
z
" transform="scale(0.015625)"/>
    </defs>
    <use xlink:href="#DejaVuSans-41"/>
    <use xlink:href="#DejaVuSans-76" x="62.533203"/>
    <use xlink:href="#DejaVuSans-65" x="121.712891"/>
    <use xlink:href="#DejaVuSans-72" x="183.236328"/>
    <use xlink:href="#DejaVuSans-61" x="224.349609"/>
    <use xlink:href="#DejaVuSans-67" x="285.628906"/>
    <use xlink:href="#DejaVuSans-65" x="349.105469"/>
    <use xlink:href="#DejaVuSans-20" x="410.628906"/>
    <use xlink:href="#DejaVuSans-63" x="442.416016"/>
    <use xlink:href="#DejaVuSans-6f" x="497.396484"/>
    <use xlink:href="#DejaVuSans-6e" x="558.578125"/>
    <use xlink:href="#DejaVuSans-66" x="621.957031"/>
    <use xlink:href="#DejaVuSans-69" x="657.162109"/>
    <use xlink:href="#DejaVuSans-72" x="684.945312"/>
    <use xlink:href="#DejaVuSans-6d" x="724.308594"/>
    <use xlink:href="#DejaVuSans-61" x="821.720703"/>
    <use xlink:href="#DejaVuSans-74" x="883"/>
    <use xlink:href="#DejaVuSans-69" x="922.208984"/>
    <use xlink:href="#DejaVuSans-6f" x="949.992188"/>
    <use xlink:href="#DejaVuSans-6e" x="1011.173828"/>
    <use xlink:href="#DejaVuSans-20" x="1074.552734"/>
    <use xlink:href="#DejaVuSans-70" x="1106.339844"/>
    <use xlink:href="#DejaVuSans-72" x="1169.816406"/>
    <use xlink:href="#DejaVuSans-6f" x="1208.679688"/>
    <use xlink:href="#DejaVuSans-62" x="1269.861328"/>
    <use xlink:href="#DejaVuSans-61" x="1333.337891"/>
    <use xlink:href="#DejaVuSans-62" x="1394.617188"/>
    <use xlink:href="#DejaVuSans-69" x="1458.09375"/>
    <use xlink:href="#DejaVuSans-6c" x="1485.876953"/>
    <use xlink:href="#DejaVuSans-69" x="1513.660156"/>
    <use xlink:href="#DejaVuSans-74" x="1541.443359"/>
    <use xlink:href="#DejaVuSans-79" x="1580.652344"/>
    <use xlink:href="#DejaVuSans-20" x="1639.832031"/>
    <use xlink:href="#DejaVuSans-74" x="1671.619141"/>
    <use xlink:href="#DejaVuSans-65" x="1710.828125"/>
    <use xlink:href="#DejaVuSans-72" x="1772.351562"/>
    <use xlink:href="#DejaVuSans-74" x="1813.464844"/>
    <use xlink:href="#DejaVuSans-69" x="1852.673828"/>
    <use xlink:href="#DejaVuSans-6c" x="1880.457031"/>
    <use xlink:href="#DejaVuSans-65" x="1908.240234"/>
   </g>
  </g>
 </g>
 <defs>
  <clipPath id="p85d81d7d6a">
   <rect x="46.068" y="23.568" width="252.198" height="215.236"/>
  </clipPath>
  <clipPath id="p08933ae9ee">
   <rect x="313.434" y="23.568" width="252.198" height="215.236"/>
  </clipPath>
 </defs>
</svg>
