<?xml version="1.0" encoding="utf-8" standalone="no"?>
<!DOCTYPE svg PUBLIC "-//W3C//DTD SVG 1.1//EN"
  "http://www.w3.org/Graphics/SVG/1.1/DTD/svg11.dtd">
<svg xmlns:xlink="http://www.w3.org/1999/xlink" width="576pt" height="288pt" viewBox="0 0 576 288" xmlns="http://www.w3.org/2000/svg" version="1.1">
 <metadata>
  <rdf:RDF xmlns:dc="http://purl.org/dc/elements/1.1/" xmlns:cc="http://creativecommons.org/ns#" xmlns:rdf="http://www.w3.org/1999/02/22-rdf-syntax-ns#">
   <cc:Work>
    <dc:type rdf:resource="http://purl.org/dc/dcmitype/StillImage"/>
    <dc:date>2024-11-01T12:47:20.311861</dc:date>
    <dc:format>image/svg+xml</dc:format>
    <dc:creator>
     <cc:Agent>
      <dc:title>Matplotlib v3.9.2, https://matplotlib.org/</dc:title>
     </cc:Agent>
    </dc:creator>
   </cc:Work>
  </rdf:RDF>
 </metadata>
 <defs>
  <style type="text/css">*{stroke-linejoin: round; stroke-linecap: butt}</style>
 </defs>
 <g id="figure_1">
  <g id="patch_1">
   <path d="M 0 288 
L 576 288 
L 576 0 
L 0 0 
L 0 288 
z
" style="fill: none"/>
  </g>
  <g id="axes_1">
   <g id="patch_2">
    <path d="M 46.068 238.804 
L 298.266 238.804 
L 298.266 23.568 
L 46.068 23.568 
L 46.068 238.804 
z
" style="fill: none"/>
   </g>
   <g id="matplotlib.axis_1">
    <g id="xtick_1">
     <g id="line2d_1">
      <defs>
       <path id="m0fab333169" d="M 0 0 
L 0 4.8 
" style="stroke: #262626"/>
      </defs>
      <g>
       <use xlink:href="#m0fab333169" x="90.284532" y="238.804" style="fill: #262626; stroke: #262626"/>
      </g>
     </g>
     <g id="text_1">
      <!-- Low -->
      <g style="fill: #262626" transform="translate(81.619282 253.790625) scale(0.088 -0.088)">
       <defs>
        <path id="DejaVuSans-4c" d="M 628 4666 
L 1259 4666 
L 1259 531 
L 3531 531 
L 3531 0 
L 628 0 
L 628 4666 
z
" transform="scale(0.015625)"/>
        <path id="DejaVuSans-6f" d="M 1959 3097 
Q 1497 3097 1228 2736 
Q 959 2375 959 1747 
Q 959 1119 1226 758 
Q 1494 397 1959 397 
Q 2419 397 2687 759 
Q 2956 1122 2956 1747 
Q 2956 2369 2687 2733 
Q 2419 3097 1959 3097 
z
M 1959 3584 
Q 2709 3584 3137 3096 
Q 3566 2609 3566 1747 
Q 3566 888 3137 398 
Q 2709 -91 1959 -91 
Q 1206 -91 779 398 
Q 353 888 353 1747 
Q 353 2609 779 3096 
Q 1206 3584 1959 3584 
z
" transform="scale(0.015625)"/>
        <path id="DejaVuSans-77" d="M 269 3500 
L 844 3500 
L 1563 769 
L 2278 3500 
L 2956 3500 
L 3675 769 
L 4391 3500 
L 4966 3500 
L 4050 0 
L 3372 0 
L 2619 2869 
L 1863 0 
L 1184 0 
L 269 3500 
z
" transform="scale(0.015625)"/>
       </defs>
       <use xlink:href="#DejaVuSans-4c"/>
       <use xlink:href="#DejaVuSans-6f" x="53.962891"/>
       <use xlink:href="#DejaVuSans-77" x="115.144531"/>
      </g>
     </g>
    </g>
    <g id="xtick_2">
     <g id="line2d_2">
      <g>
       <use xlink:href="#m0fab333169" x="172.167" y="238.804" style="fill: #262626; stroke: #262626"/>
      </g>
     </g>
     <g id="text_2">
      <!-- Medium -->
      <g style="fill: #262626" transform="translate(154.573187 253.790625) scale(0.088 -0.088)">
       <defs>
        <path id="DejaVuSans-4d" d="M 628 4666 
L 1569 4666 
L 2759 1491 
L 3956 4666 
L 4897 4666 
L 4897 0 
L 4281 0 
L 4281 4097 
L 3078 897 
L 2444 897 
L 1241 4097 
L 1241 0 
L 628 0 
L 628 4666 
z
" transform="scale(0.015625)"/>
        <path id="DejaVuSans-65" d="M 3597 1894 
L 3597 1613 
L 953 1613 
Q 991 1019 1311 708 
Q 1631 397 2203 397 
Q 2534 397 2845 478 
Q 3156 559 3463 722 
L 3463 178 
Q 3153 47 2828 -22 
Q 2503 -91 2169 -91 
Q 1331 -91 842 396 
Q 353 884 353 1716 
Q 353 2575 817 3079 
Q 1281 3584 2069 3584 
Q 2775 3584 3186 3129 
Q 3597 2675 3597 1894 
z
M 3022 2063 
Q 3016 2534 2758 2815 
Q 2500 3097 2075 3097 
Q 1594 3097 1305 2825 
Q 1016 2553 972 2059 
L 3022 2063 
z
" transform="scale(0.015625)"/>
        <path id="DejaVuSans-64" d="M 2906 2969 
L 2906 4863 
L 3481 4863 
L 3481 0 
L 2906 0 
L 2906 525 
Q 2725 213 2448 61 
Q 2172 -91 1784 -91 
Q 1150 -91 751 415 
Q 353 922 353 1747 
Q 353 2572 751 3078 
Q 1150 3584 1784 3584 
Q 2172 3584 2448 3432 
Q 2725 3281 2906 2969 
z
M 947 1747 
Q 947 1113 1208 752 
Q 1469 391 1925 391 
Q 2381 391 2643 752 
Q 2906 1113 2906 1747 
Q 2906 2381 2643 2742 
Q 2381 3103 1925 3103 
Q 1469 3103 1208 2742 
Q 947 2381 947 1747 
z
" transform="scale(0.015625)"/>
        <path id="DejaVuSans-69" d="M 603 3500 
L 1178 3500 
L 1178 0 
L 603 0 
L 603 3500 
z
M 603 4863 
L 1178 4863 
L 1178 4134 
L 603 4134 
L 603 4863 
z
" transform="scale(0.015625)"/>
        <path id="DejaVuSans-75" d="M 544 1381 
L 544 3500 
L 1119 3500 
L 1119 1403 
Q 1119 906 1312 657 
Q 1506 409 1894 409 
Q 2359 409 2629 706 
Q 2900 1003 2900 1516 
L 2900 3500 
L 3475 3500 
L 3475 0 
L 2900 0 
L 2900 538 
Q 2691 219 2414 64 
Q 2138 -91 1772 -91 
Q 1169 -91 856 284 
Q 544 659 544 1381 
z
M 1991 3584 
L 1991 3584 
z
" transform="scale(0.015625)"/>
        <path id="DejaVuSans-6d" d="M 3328 2828 
Q 3544 3216 3844 3400 
Q 4144 3584 4550 3584 
Q 5097 3584 5394 3201 
Q 5691 2819 5691 2113 
L 5691 0 
L 5113 0 
L 5113 2094 
Q 5113 2597 4934 2840 
Q 4756 3084 4391 3084 
Q 3944 3084 3684 2787 
Q 3425 2491 3425 1978 
L 3425 0 
L 2847 0 
L 2847 2094 
Q 2847 2600 2669 2842 
Q 2491 3084 2119 3084 
Q 1678 3084 1418 2786 
Q 1159 2488 1159 1978 
L 1159 0 
L 581 0 
L 581 3500 
L 1159 3500 
L 1159 2956 
Q 1356 3278 1631 3431 
Q 1906 3584 2284 3584 
Q 2666 3584 2933 3390 
Q 3200 3197 3328 2828 
z
" transform="scale(0.015625)"/>
       </defs>
       <use xlink:href="#DejaVuSans-4d"/>
       <use xlink:href="#DejaVuSans-65" x="86.279297"/>
       <use xlink:href="#DejaVuSans-64" x="147.802734"/>
       <use xlink:href="#DejaVuSans-69" x="211.279297"/>
       <use xlink:href="#DejaVuSans-75" x="239.0625"/>
       <use xlink:href="#DejaVuSans-6d" x="302.441406"/>
      </g>
     </g>
    </g>
    <g id="xtick_3">
     <g id="line2d_3">
      <g>
       <use xlink:href="#m0fab333169" x="254.049468" y="238.804" style="fill: #262626; stroke: #262626"/>
      </g>
     </g>
     <g id="text_3">
      <!-- High -->
      <g style="fill: #262626" transform="translate(243.936343 253.790625) scale(0.088 -0.088)">
       <defs>
        <path id="DejaVuSans-48" d="M 628 4666 
L 1259 4666 
L 1259 2753 
L 3553 2753 
L 3553 4666 
L 4184 4666 
L 4184 0 
L 3553 0 
L 3553 2222 
L 1259 2222 
L 1259 0 
L 628 0 
L 628 4666 
z
" transform="scale(0.015625)"/>
        <path id="DejaVuSans-67" d="M 2906 1791 
Q 2906 2416 2648 2759 
Q 2391 3103 1925 3103 
Q 1463 3103 1205 2759 
Q 947 2416 947 1791 
Q 947 1169 1205 825 
Q 1463 481 1925 481 
Q 2391 481 2648 825 
Q 2906 1169 2906 1791 
z
M 3481 434 
Q 3481 -459 3084 -895 
Q 2688 -1331 1869 -1331 
Q 1566 -1331 1297 -1286 
Q 1028 -1241 775 -1147 
L 775 -588 
Q 1028 -725 1275 -790 
Q 1522 -856 1778 -856 
Q 2344 -856 2625 -561 
Q 2906 -266 2906 331 
L 2906 616 
Q 2728 306 2450 153 
Q 2172 0 1784 0 
Q 1141 0 747 490 
Q 353 981 353 1791 
Q 353 2603 747 3093 
Q 1141 3584 1784 3584 
Q 2172 3584 2450 3431 
Q 2728 3278 2906 2969 
L 2906 3500 
L 3481 3500 
L 3481 434 
z
" transform="scale(0.015625)"/>
        <path id="DejaVuSans-68" d="M 3513 2113 
L 3513 0 
L 2938 0 
L 2938 2094 
Q 2938 2591 2744 2837 
Q 2550 3084 2163 3084 
Q 1697 3084 1428 2787 
Q 1159 2491 1159 1978 
L 1159 0 
L 581 0 
L 581 4863 
L 1159 4863 
L 1159 2956 
Q 1366 3272 1645 3428 
Q 1925 3584 2291 3584 
Q 2894 3584 3203 3211 
Q 3513 2838 3513 2113 
z
" transform="scale(0.015625)"/>
       </defs>
       <use xlink:href="#DejaVuSans-48"/>
       <use xlink:href="#DejaVuSans-69" x="75.195312"/>
       <use xlink:href="#DejaVuSans-67" x="102.978516"/>
       <use xlink:href="#DejaVuSans-68" x="166.455078"/>
      </g>
     </g>
    </g>
   </g>
   <g id="matplotlib.axis_2">
    <g id="ytick_1">
     <g id="line2d_4">
      <defs>
       <path id="mf4ef2e66cb" d="M 0 0 
L -4.8 0 
" style="stroke: #262626"/>
      </defs>
      <g>
       <use xlink:href="#mf4ef2e66cb" x="46.068" y="238.804" style="fill: #262626; stroke: #262626"/>
      </g>
     </g>
     <g id="text_4">
      <!-- 0.5 -->
      <g style="fill: #262626" transform="translate(23.77325 242.147312) scale(0.088 -0.088)">
       <defs>
        <path id="DejaVuSans-30" d="M 2034 4250 
Q 1547 4250 1301 3770 
Q 1056 3291 1056 2328 
Q 1056 1369 1301 889 
Q 1547 409 2034 409 
Q 2525 409 2770 889 
Q 3016 1369 3016 2328 
Q 3016 3291 2770 3770 
Q 2525 4250 2034 4250 
z
M 2034 4750 
Q 2819 4750 3233 4129 
Q 3647 3509 3647 2328 
Q 3647 1150 3233 529 
Q 2819 -91 2034 -91 
Q 1250 -91 836 529 
Q 422 1150 422 2328 
Q 422 3509 836 4129 
Q 1250 4750 2034 4750 
z
" transform="scale(0.015625)"/>
        <path id="DejaVuSans-2e" d="M 684 794 
L 1344 794 
L 1344 0 
L 684 0 
L 684 794 
z
" transform="scale(0.015625)"/>
        <path id="DejaVuSans-35" d="M 691 4666 
L 3169 4666 
L 3169 4134 
L 1269 4134 
L 1269 2991 
Q 1406 3038 1543 3061 
Q 1681 3084 1819 3084 
Q 2600 3084 3056 2656 
Q 3513 2228 3513 1497 
Q 3513 744 3044 326 
Q 2575 -91 1722 -91 
Q 1428 -91 1123 -41 
Q 819 9 494 109 
L 494 744 
Q 775 591 1075 516 
Q 1375 441 1709 441 
Q 2250 441 2565 725 
Q 2881 1009 2881 1497 
Q 2881 1984 2565 2268 
Q 2250 2553 1709 2553 
Q 1456 2553 1204 2497 
Q 953 2441 691 2322 
L 691 4666 
z
" transform="scale(0.015625)"/>
       </defs>
       <use xlink:href="#DejaVuSans-30"/>
       <use xlink:href="#DejaVuSans-2e" x="63.623047"/>
       <use xlink:href="#DejaVuSans-35" x="95.410156"/>
      </g>
     </g>
    </g>
    <g id="ytick_2">
     <g id="line2d_5">
      <g>
       <use xlink:href="#mf4ef2e66cb" x="46.068" y="202.931333" style="fill: #262626; stroke: #262626"/>
      </g>
     </g>
     <g id="text_5">
      <!-- 0.6 -->
      <g style="fill: #262626" transform="translate(23.77325 206.274646) scale(0.088 -0.088)">
       <defs>
        <path id="DejaVuSans-36" d="M 2113 2584 
Q 1688 2584 1439 2293 
Q 1191 2003 1191 1497 
Q 1191 994 1439 701 
Q 1688 409 2113 409 
Q 2538 409 2786 701 
Q 3034 994 3034 1497 
Q 3034 2003 2786 2293 
Q 2538 2584 2113 2584 
z
M 3366 4563 
L 3366 3988 
Q 3128 4100 2886 4159 
Q 2644 4219 2406 4219 
Q 1781 4219 1451 3797 
Q 1122 3375 1075 2522 
Q 1259 2794 1537 2939 
Q 1816 3084 2150 3084 
Q 2853 3084 3261 2657 
Q 3669 2231 3669 1497 
Q 3669 778 3244 343 
Q 2819 -91 2113 -91 
Q 1303 -91 875 529 
Q 447 1150 447 2328 
Q 447 3434 972 4092 
Q 1497 4750 2381 4750 
Q 2619 4750 2861 4703 
Q 3103 4656 3366 4563 
z
" transform="scale(0.015625)"/>
       </defs>
       <use xlink:href="#DejaVuSans-30"/>
       <use xlink:href="#DejaVuSans-2e" x="63.623047"/>
       <use xlink:href="#DejaVuSans-36" x="95.410156"/>
      </g>
     </g>
    </g>
    <g id="ytick_3">
     <g id="line2d_6">
      <g>
       <use xlink:href="#mf4ef2e66cb" x="46.068" y="167.058667" style="fill: #262626; stroke: #262626"/>
      </g>
     </g>
     <g id="text_6">
      <!-- 0.7 -->
      <g style="fill: #262626" transform="translate(23.77325 170.401979) scale(0.088 -0.088)">
       <defs>
        <path id="DejaVuSans-37" d="M 525 4666 
L 3525 4666 
L 3525 4397 
L 1831 0 
L 1172 0 
L 2766 4134 
L 525 4134 
L 525 4666 
z
" transform="scale(0.015625)"/>
       </defs>
       <use xlink:href="#DejaVuSans-30"/>
       <use xlink:href="#DejaVuSans-2e" x="63.623047"/>
       <use xlink:href="#DejaVuSans-37" x="95.410156"/>
      </g>
     </g>
    </g>
    <g id="ytick_4">
     <g id="line2d_7">
      <g>
       <use xlink:href="#mf4ef2e66cb" x="46.068" y="131.186" style="fill: #262626; stroke: #262626"/>
      </g>
     </g>
     <g id="text_7">
      <!-- 0.8 -->
      <g style="fill: #262626" transform="translate(23.77325 134.529312) scale(0.088 -0.088)">
       <defs>
        <path id="DejaVuSans-38" d="M 2034 2216 
Q 1584 2216 1326 1975 
Q 1069 1734 1069 1313 
Q 1069 891 1326 650 
Q 1584 409 2034 409 
Q 2484 409 2743 651 
Q 3003 894 3003 1313 
Q 3003 1734 2745 1975 
Q 2488 2216 2034 2216 
z
M 1403 2484 
Q 997 2584 770 2862 
Q 544 3141 544 3541 
Q 544 4100 942 4425 
Q 1341 4750 2034 4750 
Q 2731 4750 3128 4425 
Q 3525 4100 3525 3541 
Q 3525 3141 3298 2862 
Q 3072 2584 2669 2484 
Q 3125 2378 3379 2068 
Q 3634 1759 3634 1313 
Q 3634 634 3220 271 
Q 2806 -91 2034 -91 
Q 1263 -91 848 271 
Q 434 634 434 1313 
Q 434 1759 690 2068 
Q 947 2378 1403 2484 
z
M 1172 3481 
Q 1172 3119 1398 2916 
Q 1625 2713 2034 2713 
Q 2441 2713 2670 2916 
Q 2900 3119 2900 3481 
Q 2900 3844 2670 4047 
Q 2441 4250 2034 4250 
Q 1625 4250 1398 4047 
Q 1172 3844 1172 3481 
z
" transform="scale(0.015625)"/>
       </defs>
       <use xlink:href="#DejaVuSans-30"/>
       <use xlink:href="#DejaVuSans-2e" x="63.623047"/>
       <use xlink:href="#DejaVuSans-38" x="95.410156"/>
      </g>
     </g>
    </g>
    <g id="ytick_5">
     <g id="line2d_8">
      <g>
       <use xlink:href="#mf4ef2e66cb" x="46.068" y="95.313333" style="fill: #262626; stroke: #262626"/>
      </g>
     </g>
     <g id="text_8">
      <!-- 0.9 -->
      <g style="fill: #262626" transform="translate(23.77325 98.656646) scale(0.088 -0.088)">
       <defs>
        <path id="DejaVuSans-39" d="M 703 97 
L 703 672 
Q 941 559 1184 500 
Q 1428 441 1663 441 
Q 2288 441 2617 861 
Q 2947 1281 2994 2138 
Q 2813 1869 2534 1725 
Q 2256 1581 1919 1581 
Q 1219 1581 811 2004 
Q 403 2428 403 3163 
Q 403 3881 828 4315 
Q 1253 4750 1959 4750 
Q 2769 4750 3195 4129 
Q 3622 3509 3622 2328 
Q 3622 1225 3098 567 
Q 2575 -91 1691 -91 
Q 1453 -91 1209 -44 
Q 966 3 703 97 
z
M 1959 2075 
Q 2384 2075 2632 2365 
Q 2881 2656 2881 3163 
Q 2881 3666 2632 3958 
Q 2384 4250 1959 4250 
Q 1534 4250 1286 3958 
Q 1038 3666 1038 3163 
Q 1038 2656 1286 2365 
Q 1534 2075 1959 2075 
z
" transform="scale(0.015625)"/>
       </defs>
       <use xlink:href="#DejaVuSans-30"/>
       <use xlink:href="#DejaVuSans-2e" x="63.623047"/>
       <use xlink:href="#DejaVuSans-39" x="95.410156"/>
      </g>
     </g>
    </g>
    <g id="ytick_6">
     <g id="line2d_9">
      <g>
       <use xlink:href="#mf4ef2e66cb" x="46.068" y="59.440667" style="fill: #262626; stroke: #262626"/>
      </g>
     </g>
     <g id="text_9">
      <!-- 1.0 -->
      <g style="fill: #262626" transform="translate(23.77325 62.783979) scale(0.088 -0.088)">
       <defs>
        <path id="DejaVuSans-31" d="M 794 531 
L 1825 531 
L 1825 4091 
L 703 3866 
L 703 4441 
L 1819 4666 
L 2450 4666 
L 2450 531 
L 3481 531 
L 3481 0 
L 794 0 
L 794 531 
z
" transform="scale(0.015625)"/>
       </defs>
       <use xlink:href="#DejaVuSans-31"/>
       <use xlink:href="#DejaVuSans-2e" x="63.623047"/>
       <use xlink:href="#DejaVuSans-30" x="95.410156"/>
      </g>
     </g>
    </g>
    <g id="ytick_7">
     <g id="line2d_10">
      <g>
       <use xlink:href="#mf4ef2e66cb" x="46.068" y="23.568" style="fill: #262626; stroke: #262626"/>
      </g>
     </g>
     <g id="text_10">
      <!-- 1.1 -->
      <g style="fill: #262626" transform="translate(23.77325 26.911313) scale(0.088 -0.088)">
       <use xlink:href="#DejaVuSans-31"/>
       <use xlink:href="#DejaVuSans-2e" x="63.623047"/>
       <use xlink:href="#DejaVuSans-31" x="95.410156"/>
      </g>
     </g>
    </g>
    <g id="text_11">
     <!-- Probability of correct response -->
     <g style="fill: #262626" transform="translate(17.77675 204.36575) rotate(-90) scale(0.096 -0.096)">
      <defs>
       <path id="DejaVuSans-50" d="M 1259 4147 
L 1259 2394 
L 2053 2394 
Q 2494 2394 2734 2622 
Q 2975 2850 2975 3272 
Q 2975 3691 2734 3919 
Q 2494 4147 2053 4147 
L 1259 4147 
z
M 628 4666 
L 2053 4666 
Q 2838 4666 3239 4311 
Q 3641 3956 3641 3272 
Q 3641 2581 3239 2228 
Q 2838 1875 2053 1875 
L 1259 1875 
L 1259 0 
L 628 0 
L 628 4666 
z
" transform="scale(0.015625)"/>
       <path id="DejaVuSans-72" d="M 2631 2963 
Q 2534 3019 2420 3045 
Q 2306 3072 2169 3072 
Q 1681 3072 1420 2755 
Q 1159 2438 1159 1844 
L 1159 0 
L 581 0 
L 581 3500 
L 1159 3500 
L 1159 2956 
Q 1341 3275 1631 3429 
Q 1922 3584 2338 3584 
Q 2397 3584 2469 3576 
Q 2541 3569 2628 3553 
L 2631 2963 
z
" transform="scale(0.015625)"/>
       <path id="DejaVuSans-62" d="M 3116 1747 
Q 3116 2381 2855 2742 
Q 2594 3103 2138 3103 
Q 1681 3103 1420 2742 
Q 1159 2381 1159 1747 
Q 1159 1113 1420 752 
Q 1681 391 2138 391 
Q 2594 391 2855 752 
Q 3116 1113 3116 1747 
z
M 1159 2969 
Q 1341 3281 1617 3432 
Q 1894 3584 2278 3584 
Q 2916 3584 3314 3078 
Q 3713 2572 3713 1747 
Q 3713 922 3314 415 
Q 2916 -91 2278 -91 
Q 1894 -91 1617 61 
Q 1341 213 1159 525 
L 1159 0 
L 581 0 
L 581 4863 
L 1159 4863 
L 1159 2969 
z
" transform="scale(0.015625)"/>
       <path id="DejaVuSans-61" d="M 2194 1759 
Q 1497 1759 1228 1600 
Q 959 1441 959 1056 
Q 959 750 1161 570 
Q 1363 391 1709 391 
Q 2188 391 2477 730 
Q 2766 1069 2766 1631 
L 2766 1759 
L 2194 1759 
z
M 3341 1997 
L 3341 0 
L 2766 0 
L 2766 531 
Q 2569 213 2275 61 
Q 1981 -91 1556 -91 
Q 1019 -91 701 211 
Q 384 513 384 1019 
Q 384 1609 779 1909 
Q 1175 2209 1959 2209 
L 2766 2209 
L 2766 2266 
Q 2766 2663 2505 2880 
Q 2244 3097 1772 3097 
Q 1472 3097 1187 3025 
Q 903 2953 641 2809 
L 641 3341 
Q 956 3463 1253 3523 
Q 1550 3584 1831 3584 
Q 2591 3584 2966 3190 
Q 3341 2797 3341 1997 
z
" transform="scale(0.015625)"/>
       <path id="DejaVuSans-6c" d="M 603 4863 
L 1178 4863 
L 1178 0 
L 603 0 
L 603 4863 
z
" transform="scale(0.015625)"/>
       <path id="DejaVuSans-74" d="M 1172 4494 
L 1172 3500 
L 2356 3500 
L 2356 3053 
L 1172 3053 
L 1172 1153 
Q 1172 725 1289 603 
Q 1406 481 1766 481 
L 2356 481 
L 2356 0 
L 1766 0 
Q 1100 0 847 248 
Q 594 497 594 1153 
L 594 3053 
L 172 3053 
L 172 3500 
L 594 3500 
L 594 4494 
L 1172 4494 
z
" transform="scale(0.015625)"/>
       <path id="DejaVuSans-79" d="M 2059 -325 
Q 1816 -950 1584 -1140 
Q 1353 -1331 966 -1331 
L 506 -1331 
L 506 -850 
L 844 -850 
Q 1081 -850 1212 -737 
Q 1344 -625 1503 -206 
L 1606 56 
L 191 3500 
L 800 3500 
L 1894 763 
L 2988 3500 
L 3597 3500 
L 2059 -325 
z
" transform="scale(0.015625)"/>
       <path id="DejaVuSans-20" transform="scale(0.015625)"/>
       <path id="DejaVuSans-66" d="M 2375 4863 
L 2375 4384 
L 1825 4384 
Q 1516 4384 1395 4259 
Q 1275 4134 1275 3809 
L 1275 3500 
L 2222 3500 
L 2222 3053 
L 1275 3053 
L 1275 0 
L 697 0 
L 697 3053 
L 147 3053 
L 147 3500 
L 697 3500 
L 697 3744 
Q 697 4328 969 4595 
Q 1241 4863 1831 4863 
L 2375 4863 
z
" transform="scale(0.015625)"/>
       <path id="DejaVuSans-63" d="M 3122 3366 
L 3122 2828 
Q 2878 2963 2633 3030 
Q 2388 3097 2138 3097 
Q 1578 3097 1268 2742 
Q 959 2388 959 1747 
Q 959 1106 1268 751 
Q 1578 397 2138 397 
Q 2388 397 2633 464 
Q 2878 531 3122 666 
L 3122 134 
Q 2881 22 2623 -34 
Q 2366 -91 2075 -91 
Q 1284 -91 818 406 
Q 353 903 353 1747 
Q 353 2603 823 3093 
Q 1294 3584 2113 3584 
Q 2378 3584 2631 3529 
Q 2884 3475 3122 3366 
z
" transform="scale(0.015625)"/>
       <path id="DejaVuSans-73" d="M 2834 3397 
L 2834 2853 
Q 2591 2978 2328 3040 
Q 2066 3103 1784 3103 
Q 1356 3103 1142 2972 
Q 928 2841 928 2578 
Q 928 2378 1081 2264 
Q 1234 2150 1697 2047 
L 1894 2003 
Q 2506 1872 2764 1633 
Q 3022 1394 3022 966 
Q 3022 478 2636 193 
Q 2250 -91 1575 -91 
Q 1294 -91 989 -36 
Q 684 19 347 128 
L 347 722 
Q 666 556 975 473 
Q 1284 391 1588 391 
Q 1994 391 2212 530 
Q 2431 669 2431 922 
Q 2431 1156 2273 1281 
Q 2116 1406 1581 1522 
L 1381 1569 
Q 847 1681 609 1914 
Q 372 2147 372 2553 
Q 372 3047 722 3315 
Q 1072 3584 1716 3584 
Q 2034 3584 2315 3537 
Q 2597 3491 2834 3397 
z
" transform="scale(0.015625)"/>
       <path id="DejaVuSans-70" d="M 1159 525 
L 1159 -1331 
L 581 -1331 
L 581 3500 
L 1159 3500 
L 1159 2969 
Q 1341 3281 1617 3432 
Q 1894 3584 2278 3584 
Q 2916 3584 3314 3078 
Q 3713 2572 3713 1747 
Q 3713 922 3314 415 
Q 2916 -91 2278 -91 
Q 1894 -91 1617 61 
Q 1341 213 1159 525 
z
M 3116 1747 
Q 3116 2381 2855 2742 
Q 2594 3103 2138 3103 
Q 1681 3103 1420 2742 
Q 1159 2381 1159 1747 
Q 1159 1113 1420 752 
Q 1681 391 2138 391 
Q 2594 391 2855 752 
Q 3116 1113 3116 1747 
z
" transform="scale(0.015625)"/>
       <path id="DejaVuSans-6e" d="M 3513 2113 
L 3513 0 
L 2938 0 
L 2938 2094 
Q 2938 2591 2744 2837 
Q 2550 3084 2163 3084 
Q 1697 3084 1428 2787 
Q 1159 2491 1159 1978 
L 1159 0 
L 581 0 
L 581 3500 
L 1159 3500 
L 1159 2956 
Q 1366 3272 1645 3428 
Q 1925 3584 2291 3584 
Q 2894 3584 3203 3211 
Q 3513 2838 3513 2113 
z
" transform="scale(0.015625)"/>
      </defs>
      <use xlink:href="#DejaVuSans-50"/>
      <use xlink:href="#DejaVuSans-72" x="58.552734"/>
      <use xlink:href="#DejaVuSans-6f" x="97.416016"/>
      <use xlink:href="#DejaVuSans-62" x="158.597656"/>
      <use xlink:href="#DejaVuSans-61" x="222.074219"/>
      <use xlink:href="#DejaVuSans-62" x="283.353516"/>
      <use xlink:href="#DejaVuSans-69" x="346.830078"/>
      <use xlink:href="#DejaVuSans-6c" x="374.613281"/>
      <use xlink:href="#DejaVuSans-69" x="402.396484"/>
      <use xlink:href="#DejaVuSans-74" x="430.179688"/>
      <use xlink:href="#DejaVuSans-79" x="469.388672"/>
      <use xlink:href="#DejaVuSans-20" x="528.568359"/>
      <use xlink:href="#DejaVuSans-6f" x="560.355469"/>
      <use xlink:href="#DejaVuSans-66" x="621.537109"/>
      <use xlink:href="#DejaVuSans-20" x="656.742188"/>
      <use xlink:href="#DejaVuSans-63" x="688.529297"/>
      <use xlink:href="#DejaVuSans-6f" x="743.509766"/>
      <use xlink:href="#DejaVuSans-72" x="804.691406"/>
      <use xlink:href="#DejaVuSans-72" x="844.054688"/>
      <use xlink:href="#DejaVuSans-65" x="882.917969"/>
      <use xlink:href="#DejaVuSans-63" x="944.441406"/>
      <use xlink:href="#DejaVuSans-74" x="999.421875"/>
      <use xlink:href="#DejaVuSans-20" x="1038.630859"/>
      <use xlink:href="#DejaVuSans-72" x="1070.417969"/>
      <use xlink:href="#DejaVuSans-65" x="1109.28125"/>
      <use xlink:href="#DejaVuSans-73" x="1170.804688"/>
      <use xlink:href="#DejaVuSans-70" x="1222.904297"/>
      <use xlink:href="#DejaVuSans-6f" x="1286.380859"/>
      <use xlink:href="#DejaVuSans-6e" x="1347.5625"/>
      <use xlink:href="#DejaVuSans-73" x="1410.941406"/>
      <use xlink:href="#DejaVuSans-65" x="1463.041016"/>
     </g>
    </g>
   </g>
   <g id="PolyCollection_1">
    <defs>
     <path id="mdbed26a283" d="M 100.798521 -133.870061 
L 79.770544 -133.870061 
L 79.390862 -134.740244 
L 79.002991 -135.610428 
L 78.606161 -136.480611 
L 78.199575 -137.350795 
L 77.782426 -138.220978 
L 77.353912 -139.091162 
L 76.913262 -139.961345 
L 76.459756 -140.831528 
L 75.992742 -141.701712 
L 75.511666 -142.571895 
L 75.016085 -143.442079 
L 74.505693 -144.312262 
L 73.98034 -145.182446 
L 73.440049 -146.052629 
L 72.885033 -146.922813 
L 72.315705 -147.792996 
L 71.732694 -148.66318 
L 71.13685 -149.533363 
L 70.52925 -150.403546 
L 69.911195 -151.27373 
L 69.284213 -152.143913 
L 68.65005 -153.014097 
L 68.010658 -153.88428 
L 67.368184 -154.754464 
L 66.724954 -155.624647 
L 66.083448 -156.494831 
L 65.446279 -157.365014 
L 64.816167 -158.235197 
L 64.195911 -159.105381 
L 63.588355 -159.975564 
L 62.996359 -160.845748 
L 62.422766 -161.715931 
L 61.870367 -162.586115 
L 61.341868 -163.456298 
L 60.839861 -164.326482 
L 60.366788 -165.196665 
L 59.924917 -166.066848 
L 59.51631 -166.937032 
L 59.142805 -167.807215 
L 58.805989 -168.677399 
L 58.507186 -169.547582 
L 58.247444 -170.417766 
L 58.027522 -171.287949 
L 57.847889 -172.158133 
L 57.708722 -173.028316 
L 57.609912 -173.8985 
L 57.551072 -174.768683 
L 57.531545 -175.638866 
L 57.550428 -176.50905 
L 57.606582 -177.379233 
L 57.698663 -178.249417 
L 57.825142 -179.1196 
L 57.98433 -179.989784 
L 58.174413 -180.859967 
L 58.393472 -181.730151 
L 58.639522 -182.600334 
L 58.910531 -183.470517 
L 59.204455 -184.340701 
L 59.519264 -185.210884 
L 59.852963 -186.081068 
L 60.20362 -186.951251 
L 60.569381 -187.821435 
L 60.948491 -188.691618 
L 61.33931 -189.561802 
L 61.740319 -190.431985 
L 62.150133 -191.302168 
L 62.567505 -192.172352 
L 62.991325 -193.042535 
L 63.420626 -193.912719 
L 63.854574 -194.782902 
L 64.292467 -195.653086 
L 64.733726 -196.523269 
L 65.177884 -197.393453 
L 65.624581 -198.263636 
L 66.073544 -199.133819 
L 66.524582 -200.004003 
L 66.977572 -200.874186 
L 67.432442 -201.74437 
L 67.889165 -202.614553 
L 68.347743 -203.484737 
L 68.808196 -204.35492 
L 69.270555 -205.225104 
L 69.734848 -206.095287 
L 70.201096 -206.965471 
L 70.669301 -207.835654 
L 71.139444 -208.705837 
L 71.611478 -209.576021 
L 72.085325 -210.446204 
L 72.56087 -211.316388 
L 73.037962 -212.186571 
L 73.516411 -213.056755 
L 73.995986 -213.926938 
L 74.476416 -214.797122 
L 74.957393 -215.667305 
L 75.438567 -216.537488 
L 75.919551 -217.407672 
L 76.399922 -218.277855 
L 76.879223 -219.148039 
L 77.356966 -220.018222 
L 103.212099 -220.018222 
L 103.212099 -220.018222 
L 103.689842 -219.148039 
L 104.169143 -218.277855 
L 104.649514 -217.407672 
L 105.130498 -216.537488 
L 105.611672 -215.667305 
L 106.092649 -214.797122 
L 106.573079 -213.926938 
L 107.052654 -213.056755 
L 107.531103 -212.186571 
L 108.008195 -211.316388 
L 108.48374 -210.446204 
L 108.957587 -209.576021 
L 109.429621 -208.705837 
L 109.899764 -207.835654 
L 110.367969 -206.965471 
L 110.834217 -206.095287 
L 111.29851 -205.225104 
L 111.760869 -204.35492 
L 112.221322 -203.484737 
L 112.6799 -202.614553 
L 113.136623 -201.74437 
L 113.591493 -200.874186 
L 114.044483 -200.004003 
L 114.495521 -199.133819 
L 114.944484 -198.263636 
L 115.39118 -197.393453 
L 115.835339 -196.523269 
L 116.276598 -195.653086 
L 116.714491 -194.782902 
L 117.148439 -193.912719 
L 117.57774 -193.042535 
L 118.00156 -192.172352 
L 118.418931 -191.302168 
L 118.828746 -190.431985 
L 119.229755 -189.561802 
L 119.620574 -188.691618 
L 119.999684 -187.821435 
L 120.365445 -186.951251 
L 120.716102 -186.081068 
L 121.049801 -185.210884 
L 121.36461 -184.340701 
L 121.658534 -183.470517 
L 121.929543 -182.600334 
L 122.175593 -181.730151 
L 122.394652 -180.859967 
L 122.584735 -179.989784 
L 122.743923 -179.1196 
L 122.870402 -178.249417 
L 122.962483 -177.379233 
L 123.018637 -176.50905 
L 123.037519 -175.638866 
L 123.017993 -174.768683 
L 122.959152 -173.8985 
L 122.860343 -173.028316 
L 122.721176 -172.158133 
L 122.541543 -171.287949 
L 122.321621 -170.417766 
L 122.061879 -169.547582 
L 121.763076 -168.677399 
L 121.42626 -167.807215 
L 121.052755 -166.937032 
L 120.644148 -166.066848 
L 120.202277 -165.196665 
L 119.729204 -164.326482 
L 119.227197 -163.456298 
L 118.698698 -162.586115 
L 118.146299 -161.715931 
L 117.572706 -160.845748 
L 116.98071 -159.975564 
L 116.373154 -159.105381 
L 115.752898 -158.235197 
L 115.122786 -157.365014 
L 114.485617 -156.494831 
L 113.844111 -155.624647 
L 113.200881 -154.754464 
L 112.558407 -153.88428 
L 111.919015 -153.014097 
L 111.284852 -152.143913 
L 110.65787 -151.27373 
L 110.039815 -150.403546 
L 109.432215 -149.533363 
L 108.836371 -148.66318 
L 108.25336 -147.792996 
L 107.684032 -146.922813 
L 107.129015 -146.052629 
L 106.588725 -145.182446 
L 106.063372 -144.312262 
L 105.55298 -143.442079 
L 105.057399 -142.571895 
L 104.576323 -141.701712 
L 104.109309 -140.831528 
L 103.655803 -139.961345 
L 103.215153 -139.091162 
L 102.786639 -138.220978 
L 102.36949 -137.350795 
L 101.962904 -136.480611 
L 101.566074 -135.610428 
L 101.178203 -134.740244 
L 100.798521 -133.870061 
z
" style="stroke: #2f2f2f"/>
    </defs>
    <g clip-path="url(#p445dc54f0b)">
     <use xlink:href="#mdbed26a283" x="0" y="288" style="fill: #58b2a3; stroke: #2f2f2f"/>
    </g>
   </g>
   <g id="PolyCollection_2">
    <defs>
     <path id="m4381950a7e" d="M 179.177475 -150.258589 
L 165.156525 -150.258589 
L 165.042726 -150.769115 
L 164.932395 -151.279642 
L 164.824181 -151.790169 
L 164.716559 -152.300695 
L 164.60785 -152.811222 
L 164.496229 -153.321748 
L 164.379753 -153.832275 
L 164.25638 -154.342802 
L 164.123994 -154.853328 
L 163.980434 -155.363855 
L 163.823524 -155.874381 
L 163.6511 -156.384908 
L 163.461044 -156.895435 
L 163.251318 -157.405961 
L 163.019992 -157.916488 
L 162.765276 -158.427014 
L 162.485551 -158.937541 
L 162.179397 -159.448068 
L 161.845618 -159.958594 
L 161.483268 -160.469121 
L 161.091667 -160.979647 
L 160.67042 -161.490174 
L 160.219433 -162.000701 
L 159.738914 -162.511227 
L 159.229387 -163.021754 
L 158.691682 -163.53228 
L 158.126941 -164.042807 
L 157.536598 -164.553334 
L 156.922376 -165.06386 
L 156.286263 -165.574387 
L 155.63049 -166.084913 
L 154.957511 -166.59544 
L 154.269972 -167.105967 
L 153.570679 -167.616493 
L 152.862568 -168.12702 
L 152.148666 -168.637546 
L 151.432062 -169.148073 
L 150.715867 -169.6586 
L 150.003179 -170.169126 
L 149.29705 -170.679653 
L 148.600452 -171.190179 
L 147.916248 -171.700706 
L 147.247164 -172.211233 
L 146.595763 -172.721759 
L 145.964425 -173.232286 
L 145.355331 -173.742812 
L 144.770449 -174.253339 
L 144.211524 -174.763866 
L 143.680079 -175.274392 
L 143.177409 -175.784919 
L 142.704588 -176.295445 
L 142.262479 -176.805972 
L 141.851742 -177.316499 
L 141.472851 -177.827025 
L 141.12611 -178.337552 
L 140.811676 -178.848078 
L 140.529575 -179.358605 
L 140.279726 -179.869132 
L 140.061966 -180.379658 
L 139.876067 -180.890185 
L 139.72176 -181.400711 
L 139.598752 -181.911238 
L 139.506748 -182.421765 
L 139.445461 -182.932291 
L 139.414627 -183.442818 
L 139.414013 -183.953344 
L 139.443426 -184.463871 
L 139.502713 -184.974398 
L 139.591761 -185.484924 
L 139.710498 -185.995451 
L 139.858879 -186.505977 
L 140.036886 -187.016504 
L 140.24451 -187.527031 
L 140.481742 -188.037557 
L 140.748557 -188.548084 
L 141.044899 -189.05861 
L 141.370667 -189.569137 
L 141.725695 -190.079664 
L 142.109743 -190.59019 
L 142.522478 -191.100717 
L 142.96346 -191.611243 
L 143.432138 -192.12177 
L 143.927833 -192.632297 
L 144.449734 -193.142823 
L 144.996897 -193.65335 
L 145.568237 -194.163876 
L 146.162534 -194.674403 
L 146.77843 -195.18493 
L 147.414443 -195.695456 
L 148.068966 -196.205983 
L 148.740286 -196.716509 
L 149.426585 -197.227036 
L 150.125964 -197.737563 
L 150.836451 -198.248089 
L 151.556017 -198.758616 
L 152.282598 -199.269142 
L 153.014101 -199.779669 
L 153.748434 -200.290196 
L 154.483509 -200.800722 
L 189.850491 -200.800722 
L 189.850491 -200.800722 
L 190.585566 -200.290196 
L 191.319899 -199.779669 
L 192.051402 -199.269142 
L 192.777983 -198.758616 
L 193.497549 -198.248089 
L 194.208036 -197.737563 
L 194.907415 -197.227036 
L 195.593714 -196.716509 
L 196.265034 -196.205983 
L 196.919557 -195.695456 
L 197.55557 -195.18493 
L 198.171466 -194.674403 
L 198.765763 -194.163876 
L 199.337103 -193.65335 
L 199.884266 -193.142823 
L 200.406167 -192.632297 
L 200.901862 -192.12177 
L 201.37054 -191.611243 
L 201.811522 -191.100717 
L 202.224257 -190.59019 
L 202.608305 -190.079664 
L 202.963333 -189.569137 
L 203.289101 -189.05861 
L 203.585443 -188.548084 
L 203.852258 -188.037557 
L 204.08949 -187.527031 
L 204.297114 -187.016504 
L 204.475121 -186.505977 
L 204.623502 -185.995451 
L 204.742239 -185.484924 
L 204.831287 -184.974398 
L 204.890574 -184.463871 
L 204.919987 -183.953344 
L 204.919373 -183.442818 
L 204.888539 -182.932291 
L 204.827252 -182.421765 
L 204.735248 -181.911238 
L 204.61224 -181.400711 
L 204.457933 -180.890185 
L 204.272034 -180.379658 
L 204.054274 -179.869132 
L 203.804425 -179.358605 
L 203.522324 -178.848078 
L 203.20789 -178.337552 
L 202.861149 -177.827025 
L 202.482258 -177.316499 
L 202.071521 -176.805972 
L 201.629412 -176.295445 
L 201.156591 -175.784919 
L 200.653921 -175.274392 
L 200.122476 -174.763866 
L 199.563551 -174.253339 
L 198.978669 -173.742812 
L 198.369575 -173.232286 
L 197.738237 -172.721759 
L 197.086836 -172.211233 
L 196.417752 -171.700706 
L 195.733548 -171.190179 
L 195.03695 -170.679653 
L 194.330821 -170.169126 
L 193.618133 -169.6586 
L 192.901938 -169.148073 
L 192.185334 -168.637546 
L 191.471432 -168.12702 
L 190.763321 -167.616493 
L 190.064028 -167.105967 
L 189.376489 -166.59544 
L 188.70351 -166.084913 
L 188.047737 -165.574387 
L 187.411624 -165.06386 
L 186.797402 -164.553334 
L 186.207059 -164.042807 
L 185.642318 -163.53228 
L 185.104613 -163.021754 
L 184.595086 -162.511227 
L 184.114567 -162.000701 
L 183.66358 -161.490174 
L 183.242333 -160.979647 
L 182.850732 -160.469121 
L 182.488382 -159.958594 
L 182.154603 -159.448068 
L 181.848449 -158.937541 
L 181.568724 -158.427014 
L 181.314008 -157.916488 
L 181.082682 -157.405961 
L 180.872956 -156.895435 
L 180.6829 -156.384908 
L 180.510476 -155.874381 
L 180.353566 -155.363855 
L 180.210006 -154.853328 
L 180.07762 -154.342802 
L 179.954247 -153.832275 
L 179.837771 -153.321748 
L 179.72615 -152.811222 
L 179.617441 -152.300695 
L 179.509819 -151.790169 
L 179.401605 -151.279642 
L 179.291274 -150.769115 
L 179.177475 -150.258589 
z
" style="stroke: #2f2f2f"/>
    </defs>
    <g clip-path="url(#p445dc54f0b)">
     <use xlink:href="#m4381950a7e" x="0" y="288" style="fill: #437695; stroke: #2f2f2f"/>
    </g>
   </g>
   <g id="PolyCollection_3">
    <defs>
     <path id="ma79e0cfd64" d="M 273.451556 -151.295128 
L 234.647379 -151.295128 
L 234.14506 -151.946164 
L 233.652346 -152.5972 
L 233.169479 -153.248235 
L 232.696594 -153.899271 
L 232.233727 -154.550307 
L 231.780823 -155.201343 
L 231.337745 -155.852378 
L 230.904285 -156.503414 
L 230.480172 -157.15445 
L 230.065092 -157.805486 
L 229.658695 -158.456521 
L 229.260612 -159.107557 
L 228.870469 -159.758593 
L 228.487902 -160.409629 
L 228.112567 -161.060664 
L 227.744159 -161.7117 
L 227.38242 -162.362736 
L 227.02715 -163.013772 
L 226.678221 -163.664807 
L 226.335582 -164.315843 
L 225.999265 -164.966879 
L 225.669396 -165.617915 
L 225.346193 -166.26895 
L 225.029968 -166.919986 
L 224.72113 -167.571022 
L 224.420182 -168.222057 
L 224.127715 -168.873093 
L 223.844407 -169.524129 
L 223.571011 -170.175165 
L 223.308353 -170.8262 
L 223.057318 -171.477236 
L 222.818843 -172.128272 
L 222.593903 -172.779308 
L 222.383503 -173.430343 
L 222.188664 -174.081379 
L 222.010411 -174.732415 
L 221.84976 -175.383451 
L 221.707708 -176.034486 
L 221.58522 -176.685522 
L 221.48322 -177.336558 
L 221.402577 -177.987594 
L 221.344096 -178.638629 
L 221.308513 -179.289665 
L 221.296481 -179.940701 
L 221.308566 -180.591737 
L 221.345243 -181.242772 
L 221.406884 -181.893808 
L 221.493762 -182.544844 
L 221.606042 -183.19588 
L 221.743779 -183.846915 
L 221.906922 -184.497951 
L 222.095305 -185.148987 
L 222.308658 -185.800023 
L 222.546598 -186.451058 
L 222.808638 -187.102094 
L 223.094188 -187.75313 
L 223.402558 -188.404166 
L 223.732962 -189.055201 
L 224.084525 -189.706237 
L 224.456286 -190.357273 
L 224.847209 -191.008308 
L 225.256182 -191.659344 
L 225.682033 -192.31038 
L 226.12353 -192.961416 
L 226.579397 -193.612451 
L 227.048317 -194.263487 
L 227.528943 -194.914523 
L 228.019909 -195.565559 
L 228.519836 -196.216594 
L 229.027348 -196.86763 
L 229.541074 -197.518666 
L 230.059666 -198.169702 
L 230.581802 -198.820737 
L 231.106201 -199.471773 
L 231.631628 -200.122809 
L 232.156906 -200.773845 
L 232.680921 -201.42488 
L 233.202631 -202.075916 
L 233.721074 -202.726952 
L 234.23537 -203.377988 
L 234.744729 -204.029023 
L 235.24845 -204.680059 
L 235.74593 -205.331095 
L 236.236658 -205.982131 
L 236.720217 -206.633166 
L 237.196283 -207.284202 
L 237.664624 -207.935238 
L 238.125092 -208.586274 
L 238.577619 -209.237309 
L 239.022213 -209.888345 
L 239.458948 -210.539381 
L 239.887957 -211.190416 
L 240.309424 -211.841452 
L 240.723577 -212.492488 
L 241.130672 -213.143524 
L 241.53099 -213.794559 
L 241.924827 -214.445595 
L 242.31248 -215.096631 
L 242.694243 -215.747667 
L 265.404692 -215.747667 
L 265.404692 -215.747667 
L 265.786455 -215.096631 
L 266.174108 -214.445595 
L 266.567945 -213.794559 
L 266.968263 -213.143524 
L 267.375358 -212.492488 
L 267.789511 -211.841452 
L 268.210978 -211.190416 
L 268.639987 -210.539381 
L 269.076722 -209.888345 
L 269.521316 -209.237309 
L 269.973843 -208.586274 
L 270.434311 -207.935238 
L 270.902652 -207.284202 
L 271.378719 -206.633166 
L 271.862277 -205.982131 
L 272.353005 -205.331095 
L 272.850485 -204.680059 
L 273.354207 -204.029023 
L 273.863565 -203.377988 
L 274.377861 -202.726952 
L 274.896304 -202.075916 
L 275.418014 -201.42488 
L 275.942029 -200.773845 
L 276.467307 -200.122809 
L 276.992734 -199.471773 
L 277.517133 -198.820737 
L 278.039269 -198.169702 
L 278.557861 -197.518666 
L 279.071588 -196.86763 
L 279.579099 -196.216594 
L 280.079026 -195.565559 
L 280.569992 -194.914523 
L 281.050618 -194.263487 
L 281.519538 -193.612451 
L 281.975405 -192.961416 
L 282.416903 -192.31038 
L 282.842753 -191.659344 
L 283.251726 -191.008308 
L 283.642649 -190.357273 
L 284.01441 -189.706237 
L 284.365973 -189.055201 
L 284.696377 -188.404166 
L 285.004747 -187.75313 
L 285.290297 -187.102094 
L 285.552337 -186.451058 
L 285.790277 -185.800023 
L 286.00363 -185.148987 
L 286.192013 -184.497951 
L 286.355156 -183.846915 
L 286.492893 -183.19588 
L 286.605173 -182.544844 
L 286.692051 -181.893808 
L 286.753692 -181.242772 
L 286.790369 -180.591737 
L 286.802455 -179.940701 
L 286.790422 -179.289665 
L 286.754839 -178.638629 
L 286.696359 -177.987594 
L 286.615715 -177.336558 
L 286.513715 -176.685522 
L 286.391227 -176.034486 
L 286.249175 -175.383451 
L 286.088524 -174.732415 
L 285.910271 -174.081379 
L 285.715432 -173.430343 
L 285.505032 -172.779308 
L 285.280092 -172.128272 
L 285.041617 -171.477236 
L 284.790582 -170.8262 
L 284.527924 -170.175165 
L 284.254529 -169.524129 
L 283.97122 -168.873093 
L 283.678753 -168.222057 
L 283.377805 -167.571022 
L 283.068967 -166.919986 
L 282.752742 -166.26895 
L 282.429539 -165.617915 
L 282.09967 -164.966879 
L 281.763354 -164.315843 
L 281.420714 -163.664807 
L 281.071785 -163.013772 
L 280.716515 -162.362736 
L 280.354776 -161.7117 
L 279.986368 -161.060664 
L 279.611033 -160.409629 
L 279.228466 -159.758593 
L 278.838323 -159.107557 
L 278.44024 -158.456521 
L 278.033843 -157.805486 
L 277.618763 -157.15445 
L 277.19465 -156.503414 
L 276.76119 -155.852378 
L 276.318112 -155.201343 
L 275.865209 -154.550307 
L 275.402342 -153.899271 
L 274.929456 -153.248235 
L 274.446589 -152.5972 
L 273.953875 -151.946164 
L 273.451556 -151.295128 
z
" style="stroke: #2f2f2f"/>
    </defs>
    <g clip-path="url(#p445dc54f0b)">
     <use xlink:href="#ma79e0cfd64" x="0" y="288" style="fill: #423b63; stroke: #2f2f2f"/>
    </g>
   </g>
   <g id="line2d_11">
    <path d="M 90.284532 154.129939 
L 90.284532 67.981778 
" clip-path="url(#p445dc54f0b)" style="fill: none; stroke: #2f2f2f; stroke-width: 1.5; stroke-linecap: round"/>
   </g>
   <g id="line2d_12">
    <path d="M 90.284532 121.096812 
L 90.284532 89.334556 
" clip-path="url(#p445dc54f0b)" style="fill: none; stroke: #2f2f2f; stroke-width: 4.5; stroke-linecap: round"/>
   </g>
   <g id="line2d_13">
    <path d="M 90.284532 113.249667 
" clip-path="url(#p445dc54f0b)" style="fill: none; stroke: #2f2f2f; stroke-width: 1.2; stroke-linecap: round"/>
    <defs>
     <path id="m6235464b18" d="M 1.875 0 
L -1.875 -0 
" style="stroke: #ffffff; stroke-width: 0.9"/>
    </defs>
    <g clip-path="url(#p445dc54f0b)">
     <use xlink:href="#m6235464b18" x="90.284532" y="113.249667" style="fill: #ffffff; stroke: #ffffff; stroke-width: 0.9"/>
    </g>
   </g>
   <g id="line2d_14">
    <path d="M 172.167 137.741411 
L 172.167 87.199278 
" clip-path="url(#p445dc54f0b)" style="fill: none; stroke: #2f2f2f; stroke-width: 1.5; stroke-linecap: round"/>
   </g>
   <g id="line2d_15">
    <path d="M 172.167 114.913863 
L 172.167 97.517799 
" clip-path="url(#p445dc54f0b)" style="fill: none; stroke: #2f2f2f; stroke-width: 4.5; stroke-linecap: round"/>
   </g>
   <g id="line2d_16">
    <path d="M 172.167 108.112124 
" clip-path="url(#p445dc54f0b)" style="fill: none; stroke: #2f2f2f; stroke-width: 1.2; stroke-linecap: round"/>
    <g clip-path="url(#p445dc54f0b)">
     <use xlink:href="#m6235464b18" x="172.167" y="108.112124" style="fill: #ffffff; stroke: #ffffff; stroke-width: 0.9"/>
    </g>
   </g>
   <g id="line2d_17">
    <path d="M 254.049468 136.704872 
L 254.049468 72.252333 
" clip-path="url(#p445dc54f0b)" style="fill: none; stroke: #2f2f2f; stroke-width: 1.5; stroke-linecap: round"/>
   </g>
   <g id="line2d_18">
    <path d="M 254.049468 121.096812 
L 254.049468 93.320407 
" clip-path="url(#p445dc54f0b)" style="fill: none; stroke: #2f2f2f; stroke-width: 4.5; stroke-linecap: round"/>
   </g>
   <g id="line2d_19">
    <path d="M 254.049468 108.357939 
" clip-path="url(#p445dc54f0b)" style="fill: none; stroke: #2f2f2f; stroke-width: 1.2; stroke-linecap: round"/>
    <g clip-path="url(#p445dc54f0b)">
     <use xlink:href="#m6235464b18" x="254.049468" y="108.357939" style="fill: #ffffff; stroke: #ffffff; stroke-width: 0.9"/>
    </g>
   </g>
   <g id="line2d_20">
    <path d="M 90.284532 64.394511 
L 90.284532 60.807244 
L 172.167 60.807244 
L 172.167 64.394511 
" clip-path="url(#p445dc54f0b)" style="fill: none; stroke: #000000; stroke-linecap: round"/>
   </g>
   <g id="line2d_21">
    <path d="M 172.167 50.045444 
L 172.167 46.458178 
L 254.049468 46.458178 
L 254.049468 50.045444 
" clip-path="url(#p445dc54f0b)" style="fill: none; stroke: #000000; stroke-linecap: round"/>
   </g>
   <g id="line2d_22">
    <path d="M 90.284532 35.696378 
L 90.284532 32.109111 
L 254.049468 32.109111 
L 254.049468 35.696378 
" clip-path="url(#p445dc54f0b)" style="fill: none; stroke: #000000; stroke-linecap: round"/>
   </g>
   <g id="patch_3">
    <path d="M 46.068 238.804 
L 46.068 23.568 
" style="fill: none; stroke: #262626; stroke-linejoin: miter; stroke-linecap: square"/>
   </g>
   <g id="patch_4">
    <path d="M 298.266 238.804 
L 298.266 23.568 
" style="fill: none; stroke: #262626; stroke-linejoin: miter; stroke-linecap: square"/>
   </g>
   <g id="patch_5">
    <path d="M 46.068 238.804 
L 298.266 238.804 
" style="fill: none; stroke: #262626; stroke-linejoin: miter; stroke-linecap: square"/>
   </g>
   <g id="patch_6">
    <path d="M 46.068 23.568 
L 298.266 23.568 
" style="fill: none; stroke: #262626; stroke-linejoin: miter; stroke-linecap: square"/>
   </g>
   <g id="text_12">
    <!-- ns -->
    <g transform="translate(125.683266 55.223478) scale(0.096 -0.096)">
     <use xlink:href="#DejaVuSans-6e"/>
     <use xlink:href="#DejaVuSans-73" x="63.378906"/>
    </g>
   </g>
   <g id="text_13">
    <!-- ns -->
    <g transform="translate(207.565734 40.874411) scale(0.096 -0.096)">
     <use xlink:href="#DejaVuSans-6e"/>
     <use xlink:href="#DejaVuSans-73" x="63.378906"/>
    </g>
   </g>
   <g id="text_14">
    <!-- ns -->
    <g transform="translate(166.6245 26.525344) scale(0.096 -0.096)">
     <use xlink:href="#DejaVuSans-6e"/>
     <use xlink:href="#DejaVuSans-73" x="63.378906"/>
    </g>
   </g>
   <g id="text_15">
    <!-- Accuracy -->
    <g style="fill: #262626" transform="translate(150.252 17.568) scale(0.096 -0.096)">
     <defs>
      <path id="DejaVuSans-41" d="M 2188 4044 
L 1331 1722 
L 3047 1722 
L 2188 4044 
z
M 1831 4666 
L 2547 4666 
L 4325 0 
L 3669 0 
L 3244 1197 
L 1141 1197 
L 716 0 
L 50 0 
L 1831 4666 
z
" transform="scale(0.015625)"/>
     </defs>
     <use xlink:href="#DejaVuSans-41"/>
     <use xlink:href="#DejaVuSans-63" x="66.658203"/>
     <use xlink:href="#DejaVuSans-63" x="121.638672"/>
     <use xlink:href="#DejaVuSans-75" x="176.619141"/>
     <use xlink:href="#DejaVuSans-72" x="239.998047"/>
     <use xlink:href="#DejaVuSans-61" x="281.111328"/>
     <use xlink:href="#DejaVuSans-63" x="342.390625"/>
     <use xlink:href="#DejaVuSans-79" x="397.371094"/>
    </g>
   </g>
  </g>
  <g id="axes_2">
   <g id="patch_7">
    <path d="M 313.434 238.804 
L 565.632 238.804 
L 565.632 23.568 
L 313.434 23.568 
L 313.434 238.804 
z
" style="fill: none"/>
   </g>
   <g id="matplotlib.axis_3">
    <g id="xtick_4">
     <g id="line2d_23">
      <g>
       <use xlink:href="#m0fab333169" x="357.650532" y="238.804" style="fill: #262626; stroke: #262626"/>
      </g>
     </g>
     <g id="text_16">
      <!-- Low -->
      <g style="fill: #262626" transform="translate(348.985282 253.790625) scale(0.088 -0.088)">
       <use xlink:href="#DejaVuSans-4c"/>
       <use xlink:href="#DejaVuSans-6f" x="53.962891"/>
       <use xlink:href="#DejaVuSans-77" x="115.144531"/>
      </g>
     </g>
    </g>
    <g id="xtick_5">
     <g id="line2d_24">
      <g>
       <use xlink:href="#m0fab333169" x="439.533" y="238.804" style="fill: #262626; stroke: #262626"/>
      </g>
     </g>
     <g id="text_17">
      <!-- Medium -->
      <g style="fill: #262626" transform="translate(421.939188 253.790625) scale(0.088 -0.088)">
       <use xlink:href="#DejaVuSans-4d"/>
       <use xlink:href="#DejaVuSans-65" x="86.279297"/>
       <use xlink:href="#DejaVuSans-64" x="147.802734"/>
       <use xlink:href="#DejaVuSans-69" x="211.279297"/>
       <use xlink:href="#DejaVuSans-75" x="239.0625"/>
       <use xlink:href="#DejaVuSans-6d" x="302.441406"/>
      </g>
     </g>
    </g>
    <g id="xtick_6">
     <g id="line2d_25">
      <g>
       <use xlink:href="#m0fab333169" x="521.415468" y="238.804" style="fill: #262626; stroke: #262626"/>
      </g>
     </g>
     <g id="text_18">
      <!-- High -->
      <g style="fill: #262626" transform="translate(511.302343 253.790625) scale(0.088 -0.088)">
       <use xlink:href="#DejaVuSans-48"/>
       <use xlink:href="#DejaVuSans-69" x="75.195312"/>
       <use xlink:href="#DejaVuSans-67" x="102.978516"/>
       <use xlink:href="#DejaVuSans-68" x="166.455078"/>
      </g>
     </g>
    </g>
   </g>
   <g id="matplotlib.axis_4">
    <g id="ytick_8">
     <g id="line2d_26">
      <g>
       <use xlink:href="#mf4ef2e66cb" x="313.434" y="238.804" style="fill: #262626; stroke: #262626"/>
      </g>
     </g>
    </g>
    <g id="ytick_9">
     <g id="line2d_27">
      <g>
       <use xlink:href="#mf4ef2e66cb" x="313.434" y="202.931333" style="fill: #262626; stroke: #262626"/>
      </g>
     </g>
    </g>
    <g id="ytick_10">
     <g id="line2d_28">
      <g>
       <use xlink:href="#mf4ef2e66cb" x="313.434" y="167.058667" style="fill: #262626; stroke: #262626"/>
      </g>
     </g>
    </g>
    <g id="ytick_11">
     <g id="line2d_29">
      <g>
       <use xlink:href="#mf4ef2e66cb" x="313.434" y="131.186" style="fill: #262626; stroke: #262626"/>
      </g>
     </g>
    </g>
    <g id="ytick_12">
     <g id="line2d_30">
      <g>
       <use xlink:href="#mf4ef2e66cb" x="313.434" y="95.313333" style="fill: #262626; stroke: #262626"/>
      </g>
     </g>
    </g>
    <g id="ytick_13">
     <g id="line2d_31">
      <g>
       <use xlink:href="#mf4ef2e66cb" x="313.434" y="59.440667" style="fill: #262626; stroke: #262626"/>
      </g>
     </g>
    </g>
    <g id="ytick_14">
     <g id="line2d_32">
      <g>
       <use xlink:href="#mf4ef2e66cb" x="313.434" y="23.568" style="fill: #262626; stroke: #262626"/>
      </g>
     </g>
    </g>
   </g>
   <g id="PolyCollection_4">
    <defs>
     <path id="m77f7cf056e" d="M 373.478992 -102.890756 
L 341.822073 -102.890756 
L 341.399251 -103.692587 
L 340.982215 -104.494418 
L 340.57129 -105.296249 
L 340.166726 -106.09808 
L 339.7687 -106.899911 
L 339.377313 -107.701742 
L 338.992594 -108.503573 
L 338.614503 -109.305404 
L 338.242931 -110.107235 
L 337.877709 -110.909066 
L 337.51861 -111.710896 
L 337.165358 -112.512727 
L 336.817631 -113.314558 
L 336.475073 -114.116389 
L 336.137298 -114.91822 
L 335.803901 -115.720051 
L 335.474465 -116.521882 
L 335.148571 -117.323713 
L 334.825807 -118.125544 
L 334.505775 -118.927375 
L 334.188102 -119.729206 
L 333.872444 -120.531037 
L 333.558499 -121.332868 
L 333.246008 -122.134699 
L 332.934766 -122.93653 
L 332.624624 -123.738361 
L 332.315496 -124.540192 
L 332.007358 -125.342023 
L 331.700254 -126.143854 
L 331.394298 -126.945685 
L 331.08967 -127.747516 
L 330.786616 -128.549347 
L 330.485448 -129.351178 
L 330.18654 -130.153009 
L 329.890322 -130.95484 
L 329.597276 -131.756671 
L 329.307931 -132.558502 
L 329.022855 -133.360333 
L 328.742647 -134.162164 
L 328.467931 -134.963994 
L 328.199348 -135.765825 
L 327.937547 -136.567656 
L 327.683178 -137.369487 
L 327.43688 -138.171318 
L 327.199281 -138.973149 
L 326.970982 -139.77498 
L 326.752559 -140.576811 
L 326.544549 -141.378642 
L 326.347452 -142.180473 
L 326.16172 -142.982304 
L 325.987762 -143.784135 
L 325.825934 -144.585966 
L 325.676545 -145.387797 
L 325.53985 -146.189628 
L 325.416059 -146.991459 
L 325.305334 -147.79329 
L 325.207794 -148.595121 
L 325.123519 -149.396952 
L 325.052557 -150.198783 
L 324.994928 -151.000614 
L 324.95063 -151.802445 
L 324.919649 -152.604276 
L 324.901961 -153.406107 
L 324.897545 -154.207938 
L 324.906387 -155.009769 
L 324.928487 -155.8116 
L 324.963865 -156.613431 
L 325.012569 -157.415262 
L 325.074679 -158.217093 
L 325.150309 -159.018923 
L 325.239617 -159.820754 
L 325.342797 -160.622585 
L 325.460089 -161.424416 
L 325.591773 -162.226247 
L 325.738172 -163.028078 
L 325.899643 -163.829909 
L 326.076578 -164.63174 
L 326.269397 -165.433571 
L 326.478541 -166.235402 
L 326.704463 -167.037233 
L 326.947622 -167.839064 
L 327.208472 -168.640895 
L 327.487453 -169.442726 
L 327.78498 -170.244557 
L 328.101431 -171.046388 
L 328.437139 -171.848219 
L 328.792378 -172.65005 
L 329.167358 -173.451881 
L 329.562207 -174.253712 
L 329.976971 -175.055543 
L 330.4116 -175.857374 
L 330.865941 -176.659205 
L 331.339734 -177.461036 
L 331.83261 -178.262867 
L 332.344079 -179.064698 
L 332.873539 -179.866529 
L 333.420266 -180.66836 
L 333.983424 -181.470191 
L 334.562061 -182.272022 
L 380.739004 -182.272022 
L 380.739004 -182.272022 
L 381.317641 -181.470191 
L 381.880799 -180.66836 
L 382.427526 -179.866529 
L 382.956986 -179.064698 
L 383.468455 -178.262867 
L 383.961331 -177.461036 
L 384.435124 -176.659205 
L 384.889465 -175.857374 
L 385.324093 -175.055543 
L 385.738858 -174.253712 
L 386.133707 -173.451881 
L 386.508687 -172.65005 
L 386.863926 -171.848219 
L 387.199634 -171.046388 
L 387.516085 -170.244557 
L 387.813612 -169.442726 
L 388.092593 -168.640895 
L 388.353443 -167.839064 
L 388.596602 -167.037233 
L 388.822524 -166.235402 
L 389.031668 -165.433571 
L 389.224487 -164.63174 
L 389.401422 -163.829909 
L 389.562893 -163.028078 
L 389.709292 -162.226247 
L 389.840976 -161.424416 
L 389.958268 -160.622585 
L 390.061448 -159.820754 
L 390.150755 -159.018923 
L 390.226386 -158.217093 
L 390.288496 -157.415262 
L 390.3372 -156.613431 
L 390.372578 -155.8116 
L 390.394677 -155.009769 
L 390.403519 -154.207938 
L 390.399104 -153.406107 
L 390.381416 -152.604276 
L 390.350435 -151.802445 
L 390.306137 -151.000614 
L 390.248508 -150.198783 
L 390.177546 -149.396952 
L 390.093271 -148.595121 
L 389.995731 -147.79329 
L 389.885006 -146.991459 
L 389.761215 -146.189628 
L 389.62452 -145.387797 
L 389.475131 -144.585966 
L 389.313303 -143.784135 
L 389.139345 -142.982304 
L 388.953613 -142.180473 
L 388.756516 -141.378642 
L 388.548506 -140.576811 
L 388.330082 -139.77498 
L 388.101784 -138.973149 
L 387.864185 -138.171318 
L 387.617887 -137.369487 
L 387.363518 -136.567656 
L 387.101717 -135.765825 
L 386.833134 -134.963994 
L 386.558418 -134.162164 
L 386.27821 -133.360333 
L 385.993133 -132.558502 
L 385.703789 -131.756671 
L 385.410743 -130.95484 
L 385.114525 -130.153009 
L 384.815617 -129.351178 
L 384.514449 -128.549347 
L 384.211395 -127.747516 
L 383.906767 -126.945685 
L 383.600811 -126.143854 
L 383.293707 -125.342023 
L 382.985569 -124.540192 
L 382.676441 -123.738361 
L 382.366299 -122.93653 
L 382.055057 -122.134699 
L 381.742566 -121.332868 
L 381.428621 -120.531037 
L 381.112963 -119.729206 
L 380.79529 -118.927375 
L 380.475258 -118.125544 
L 380.152494 -117.323713 
L 379.8266 -116.521882 
L 379.497164 -115.720051 
L 379.163767 -114.91822 
L 378.825992 -114.116389 
L 378.483434 -113.314558 
L 378.135707 -112.512727 
L 377.782455 -111.710896 
L 377.423356 -110.909066 
L 377.058134 -110.107235 
L 376.686562 -109.305404 
L 376.308471 -108.503573 
L 375.923752 -107.701742 
L 375.532365 -106.899911 
L 375.134339 -106.09808 
L 374.729775 -105.296249 
L 374.31885 -104.494418 
L 373.901814 -103.692587 
L 373.478992 -102.890756 
z
" style="stroke: #2f2f2f"/>
    </defs>
    <g clip-path="url(#p512404962a)">
     <use xlink:href="#m77f7cf056e" x="0" y="288" style="fill: #58b2a3; stroke: #2f2f2f"/>
    </g>
   </g>
   <g id="PolyCollection_5">
    <defs>
     <path id="mc268270fac" d="M 463.761967 -102.085188 
L 415.304033 -102.085188 
L 414.690965 -102.965288 
L 414.094928 -103.845389 
L 413.517279 -104.725489 
L 412.959286 -105.605589 
L 412.422112 -106.48569 
L 411.906817 -107.36579 
L 411.414348 -108.24589 
L 410.945534 -109.12599 
L 410.501087 -110.006091 
L 410.081597 -110.886191 
L 409.68753 -111.766291 
L 409.319231 -112.646392 
L 408.976922 -113.526492 
L 408.660706 -114.406592 
L 408.370569 -115.286693 
L 408.106383 -116.166793 
L 407.867911 -117.046893 
L 407.654813 -117.926994 
L 407.466651 -118.807094 
L 407.302898 -119.687194 
L 407.16294 -120.567294 
L 407.046089 -121.447395 
L 406.951587 -122.327495 
L 406.878619 -123.207595 
L 406.826314 -124.087696 
L 406.793761 -124.967796 
L 406.780013 -125.847896 
L 406.784096 -126.727997 
L 406.805017 -127.608097 
L 406.841777 -128.488197 
L 406.89337 -129.368298 
L 406.958798 -130.248398 
L 407.037074 -131.128498 
L 407.127229 -132.008598 
L 407.22832 -132.888699 
L 407.339435 -133.768799 
L 407.459695 -134.648899 
L 407.588262 -135.529 
L 407.724341 -136.4091 
L 407.867185 -137.2892 
L 408.016094 -138.169301 
L 408.170421 -139.049401 
L 408.32957 -139.929501 
L 408.493001 -140.809601 
L 408.660226 -141.689702 
L 408.830811 -142.569802 
L 409.004375 -143.449902 
L 409.180591 -144.330003 
L 409.359179 -145.210103 
L 409.539912 -146.090203 
L 409.722608 -146.970304 
L 409.90713 -147.850404 
L 410.093385 -148.730504 
L 410.281318 -149.610605 
L 410.470915 -150.490705 
L 410.662194 -151.370805 
L 410.855208 -152.250905 
L 411.050038 -153.131006 
L 411.246794 -154.011106 
L 411.445613 -154.891206 
L 411.646652 -155.771307 
L 411.850092 -156.651407 
L 412.056132 -157.531507 
L 412.264988 -158.411608 
L 412.476894 -159.291708 
L 412.692096 -160.171808 
L 412.910852 -161.051909 
L 413.133434 -161.932009 
L 413.360121 -162.812109 
L 413.5912 -163.692209 
L 413.826967 -164.57231 
L 414.067721 -165.45241 
L 414.313764 -166.33251 
L 414.565401 -167.212611 
L 414.822935 -168.092711 
L 415.086668 -168.972811 
L 415.356896 -169.852912 
L 415.633907 -170.733012 
L 415.91798 -171.613112 
L 416.209381 -172.493212 
L 416.508359 -173.373313 
L 416.815144 -174.253413 
L 417.129944 -175.133513 
L 417.452942 -176.013614 
L 417.784288 -176.893714 
L 418.124103 -177.773814 
L 418.472469 -178.653915 
L 418.829432 -179.534015 
L 419.194991 -180.414115 
L 419.569102 -181.294216 
L 419.951674 -182.174316 
L 420.342564 -183.054416 
L 420.741576 -183.934516 
L 421.148463 -184.814617 
L 421.562921 -185.694717 
L 421.984594 -186.574817 
L 422.41307 -187.454918 
L 422.847881 -188.335018 
L 423.28851 -189.215118 
L 455.77749 -189.215118 
L 455.77749 -189.215118 
L 456.218119 -188.335018 
L 456.65293 -187.454918 
L 457.081406 -186.574817 
L 457.503079 -185.694717 
L 457.917537 -184.814617 
L 458.324424 -183.934516 
L 458.723436 -183.054416 
L 459.114326 -182.174316 
L 459.496898 -181.294216 
L 459.871009 -180.414115 
L 460.236568 -179.534015 
L 460.593531 -178.653915 
L 460.941897 -177.773814 
L 461.281712 -176.893714 
L 461.613058 -176.013614 
L 461.936056 -175.133513 
L 462.250856 -174.253413 
L 462.557641 -173.373313 
L 462.856619 -172.493212 
L 463.14802 -171.613112 
L 463.432093 -170.733012 
L 463.709104 -169.852912 
L 463.979332 -168.972811 
L 464.243065 -168.092711 
L 464.500599 -167.212611 
L 464.752236 -166.33251 
L 464.998279 -165.45241 
L 465.239033 -164.57231 
L 465.4748 -163.692209 
L 465.705879 -162.812109 
L 465.932566 -161.932009 
L 466.155148 -161.051909 
L 466.373904 -160.171808 
L 466.589106 -159.291708 
L 466.801012 -158.411608 
L 467.009868 -157.531507 
L 467.215908 -156.651407 
L 467.419348 -155.771307 
L 467.620387 -154.891206 
L 467.819206 -154.011106 
L 468.015962 -153.131006 
L 468.210792 -152.250905 
L 468.403806 -151.370805 
L 468.595085 -150.490705 
L 468.784682 -149.610605 
L 468.972615 -148.730504 
L 469.15887 -147.850404 
L 469.343392 -146.970304 
L 469.526088 -146.090203 
L 469.706821 -145.210103 
L 469.885409 -144.330003 
L 470.061625 -143.449902 
L 470.235189 -142.569802 
L 470.405774 -141.689702 
L 470.572999 -140.809601 
L 470.73643 -139.929501 
L 470.895579 -139.049401 
L 471.049906 -138.169301 
L 471.198815 -137.2892 
L 471.341659 -136.4091 
L 471.477738 -135.529 
L 471.606305 -134.648899 
L 471.726565 -133.768799 
L 471.83768 -132.888699 
L 471.938771 -132.008598 
L 472.028926 -131.128498 
L 472.107202 -130.248398 
L 472.17263 -129.368298 
L 472.224223 -128.488197 
L 472.260983 -127.608097 
L 472.281904 -126.727997 
L 472.285987 -125.847896 
L 472.272239 -124.967796 
L 472.239686 -124.087696 
L 472.187381 -123.207595 
L 472.114413 -122.327495 
L 472.019911 -121.447395 
L 471.90306 -120.567294 
L 471.763102 -119.687194 
L 471.599349 -118.807094 
L 471.411187 -117.926994 
L 471.198089 -117.046893 
L 470.959617 -116.166793 
L 470.695431 -115.286693 
L 470.405294 -114.406592 
L 470.089078 -113.526492 
L 469.746769 -112.646392 
L 469.37847 -111.766291 
L 468.984403 -110.886191 
L 468.564913 -110.006091 
L 468.120466 -109.12599 
L 467.651652 -108.24589 
L 467.159183 -107.36579 
L 466.643888 -106.48569 
L 466.106714 -105.605589 
L 465.548721 -104.725489 
L 464.971072 -103.845389 
L 464.375035 -102.965288 
L 463.761967 -102.085188 
z
" style="stroke: #2f2f2f"/>
    </defs>
    <g clip-path="url(#p512404962a)">
     <use xlink:href="#mc268270fac" x="0" y="288" style="fill: #437695; stroke: #2f2f2f"/>
    </g>
   </g>
   <g id="PolyCollection_6">
    <defs>
     <path id="m1846d8dcde" d="M 547.654783 -75.128048 
L 495.176152 -75.128048 
L 494.484799 -75.999914 
L 493.820307 -76.871779 
L 493.185485 -77.743645 
L 492.583053 -78.61551 
L 492.015624 -79.487376 
L 491.485684 -80.359241 
L 490.995573 -81.231107 
L 490.547467 -82.102972 
L 490.143359 -82.974838 
L 489.785044 -83.846703 
L 489.474108 -84.718569 
L 489.211909 -85.590434 
L 488.999568 -86.462299 
L 488.837962 -87.334165 
L 488.727713 -88.20603 
L 488.669186 -89.077896 
L 488.662481 -89.949761 
L 488.707436 -90.821627 
L 488.803626 -91.693492 
L 488.950366 -92.565358 
L 489.146715 -93.437223 
L 489.391485 -94.309089 
L 489.683247 -95.180954 
L 490.020346 -96.05282 
L 490.400907 -96.924685 
L 490.822855 -97.796551 
L 491.283927 -98.668416 
L 491.781688 -99.540282 
L 492.31355 -100.412147 
L 492.87679 -101.284013 
L 493.468569 -102.155878 
L 494.08595 -103.027744 
L 494.725922 -103.899609 
L 495.385415 -104.771475 
L 496.061322 -105.64334 
L 496.750519 -106.515206 
L 497.449887 -107.387071 
L 498.156324 -108.258937 
L 498.866769 -109.130802 
L 499.57822 -110.002668 
L 500.287745 -110.874533 
L 500.992503 -111.746399 
L 501.689756 -112.618264 
L 502.376883 -113.49013 
L 503.051393 -114.361995 
L 503.710934 -115.23386 
L 504.353308 -116.105726 
L 504.976472 -116.977591 
L 505.578552 -117.849457 
L 506.157845 -118.721322 
L 506.712829 -119.593188 
L 507.242161 -120.465053 
L 507.744682 -121.336919 
L 508.219421 -122.208784 
L 508.665593 -123.08065 
L 509.082598 -123.952515 
L 509.47002 -124.824381 
L 509.827626 -125.696246 
L 510.155361 -126.568112 
L 510.453344 -127.439977 
L 510.721862 -128.311843 
L 510.961367 -129.183708 
L 511.172466 -130.055574 
L 511.355917 -130.927439 
L 511.512618 -131.799305 
L 511.643598 -132.67117 
L 511.750014 -133.543036 
L 511.833133 -134.414901 
L 511.894329 -135.286767 
L 511.935067 -136.158632 
L 511.956895 -137.030498 
L 511.961434 -137.902363 
L 511.950364 -138.774229 
L 511.925412 -139.646094 
L 511.888344 -140.51796 
L 511.840948 -141.389825 
L 511.785026 -142.261691 
L 511.72238 -143.133556 
L 511.654801 -144.005421 
L 511.584057 -144.877287 
L 511.511885 -145.749152 
L 511.439972 -146.621018 
L 511.369955 -147.492883 
L 511.303401 -148.364749 
L 511.241805 -149.236614 
L 511.186578 -150.10848 
L 511.139039 -150.980345 
L 511.100408 -151.852211 
L 511.0718 -152.724076 
L 511.054218 -153.595942 
L 511.048551 -154.467807 
L 511.055567 -155.339673 
L 511.075915 -156.211538 
L 511.110117 -157.083404 
L 511.158572 -157.955269 
L 511.221558 -158.827135 
L 511.299226 -159.699 
L 511.391609 -160.570866 
L 511.498626 -161.442731 
L 531.332309 -161.442731 
L 531.332309 -161.442731 
L 531.439326 -160.570866 
L 531.53171 -159.699 
L 531.609378 -158.827135 
L 531.672363 -157.955269 
L 531.720819 -157.083404 
L 531.75502 -156.211538 
L 531.775368 -155.339673 
L 531.782384 -154.467807 
L 531.776717 -153.595942 
L 531.759135 -152.724076 
L 531.730527 -151.852211 
L 531.691896 -150.980345 
L 531.644357 -150.10848 
L 531.58913 -149.236614 
L 531.527534 -148.364749 
L 531.46098 -147.492883 
L 531.390963 -146.621018 
L 531.31905 -145.749152 
L 531.246878 -144.877287 
L 531.176134 -144.005421 
L 531.108555 -143.133556 
L 531.045909 -142.261691 
L 530.989987 -141.389825 
L 530.942591 -140.51796 
L 530.905523 -139.646094 
L 530.880571 -138.774229 
L 530.869501 -137.902363 
L 530.87404 -137.030498 
L 530.895869 -136.158632 
L 530.936606 -135.286767 
L 530.997802 -134.414901 
L 531.080921 -133.543036 
L 531.187337 -132.67117 
L 531.318317 -131.799305 
L 531.475018 -130.927439 
L 531.658469 -130.055574 
L 531.869568 -129.183708 
L 532.109073 -128.311843 
L 532.377591 -127.439977 
L 532.675574 -126.568112 
L 533.003309 -125.696246 
L 533.360915 -124.824381 
L 533.748337 -123.952515 
L 534.165342 -123.08065 
L 534.611514 -122.208784 
L 535.086253 -121.336919 
L 535.588775 -120.465053 
L 536.118106 -119.593188 
L 536.67309 -118.721322 
L 537.252384 -117.849457 
L 537.854463 -116.977591 
L 538.477627 -116.105726 
L 539.120001 -115.23386 
L 539.779542 -114.361995 
L 540.454052 -113.49013 
L 541.141179 -112.618264 
L 541.838432 -111.746399 
L 542.54319 -110.874533 
L 543.252715 -110.002668 
L 543.964166 -109.130802 
L 544.674611 -108.258937 
L 545.381048 -107.387071 
L 546.080416 -106.515206 
L 546.769613 -105.64334 
L 547.44552 -104.771475 
L 548.105013 -103.899609 
L 548.744985 -103.027744 
L 549.362367 -102.155878 
L 549.954145 -101.284013 
L 550.517385 -100.412147 
L 551.049247 -99.540282 
L 551.547008 -98.668416 
L 552.00808 -97.796551 
L 552.430028 -96.924685 
L 552.810589 -96.05282 
L 553.147688 -95.180954 
L 553.439451 -94.309089 
L 553.68422 -93.437223 
L 553.880569 -92.565358 
L 554.027309 -91.693492 
L 554.123499 -90.821627 
L 554.168455 -89.949761 
L 554.16175 -89.077896 
L 554.103222 -88.20603 
L 553.992973 -87.334165 
L 553.831367 -86.462299 
L 553.619026 -85.590434 
L 553.356827 -84.718569 
L 553.045891 -83.846703 
L 552.687577 -82.974838 
L 552.283468 -82.102972 
L 551.835362 -81.231107 
L 551.345251 -80.359241 
L 550.815311 -79.487376 
L 550.247882 -78.61551 
L 549.64545 -77.743645 
L 549.010628 -76.871779 
L 548.346136 -75.999914 
L 547.654783 -75.128048 
z
" style="stroke: #2f2f2f"/>
    </defs>
    <g clip-path="url(#p512404962a)">
     <use xlink:href="#m1846d8dcde" x="0" y="288" style="fill: #423b63; stroke: #2f2f2f"/>
    </g>
   </g>
   <g id="line2d_33">
    <path d="M 357.650532 185.109244 
L 357.650532 105.727978 
" clip-path="url(#p512404962a)" style="fill: none; stroke: #2f2f2f; stroke-width: 1.5; stroke-linecap: round"/>
   </g>
   <g id="line2d_34">
    <path d="M 357.650532 157.871764 
L 357.650532 117.787775 
" clip-path="url(#p512404962a)" style="fill: none; stroke: #2f2f2f; stroke-width: 4.5; stroke-linecap: round"/>
   </g>
   <g id="line2d_35">
    <path d="M 357.650532 141.771377 
" clip-path="url(#p512404962a)" style="fill: none; stroke: #2f2f2f; stroke-width: 1.2; stroke-linecap: round"/>
    <g clip-path="url(#p512404962a)">
     <use xlink:href="#m6235464b18" x="357.650532" y="141.771377" style="fill: #ffffff; stroke: #ffffff; stroke-width: 0.9"/>
    </g>
   </g>
   <g id="line2d_36">
    <path d="M 439.533 185.914812 
L 439.533 98.784882 
" clip-path="url(#p512404962a)" style="fill: none; stroke: #2f2f2f; stroke-width: 1.5; stroke-linecap: round"/>
   </g>
   <g id="line2d_37">
    <path d="M 439.533 170.475111 
L 439.533 129.259951 
" clip-path="url(#p512404962a)" style="fill: none; stroke: #2f2f2f; stroke-width: 4.5; stroke-linecap: round"/>
   </g>
   <g id="line2d_38">
    <path d="M 439.533 152.363839 
" clip-path="url(#p512404962a)" style="fill: none; stroke: #2f2f2f; stroke-width: 1.2; stroke-linecap: round"/>
    <g clip-path="url(#p512404962a)">
     <use xlink:href="#m6235464b18" x="439.533" y="152.363839" style="fill: #ffffff; stroke: #ffffff; stroke-width: 0.9"/>
    </g>
   </g>
   <g id="line2d_39">
    <path d="M 521.415468 212.871952 
L 521.415468 180.600004 
" clip-path="url(#p512404962a)" style="fill: none; stroke: #2f2f2f; stroke-width: 1.5; stroke-linecap: round"/>
   </g>
   <g id="line2d_40">
    <path d="M 521.415468 199.431561 
L 521.415468 180.600004 
" clip-path="url(#p512404962a)" style="fill: none; stroke: #2f2f2f; stroke-width: 4.5; stroke-linecap: round"/>
   </g>
   <g id="line2d_41">
    <path d="M 521.415468 196.600863 
" clip-path="url(#p512404962a)" style="fill: none; stroke: #2f2f2f; stroke-width: 1.2; stroke-linecap: round"/>
    <g clip-path="url(#p512404962a)">
     <use xlink:href="#m6235464b18" x="521.415468" y="196.600863" style="fill: #ffffff; stroke: #ffffff; stroke-width: 0.9"/>
    </g>
   </g>
   <g id="line2d_42">
    <path d="M 357.650532 95.197615 
L 357.650532 91.610348 
L 439.533 91.610348 
L 439.533 95.197615 
" clip-path="url(#p512404962a)" style="fill: none; stroke: #000000; stroke-linecap: round"/>
   </g>
   <g id="line2d_43">
    <path d="M 439.533 80.848548 
L 439.533 77.261282 
L 521.415468 77.261282 
L 521.415468 80.848548 
" clip-path="url(#p512404962a)" style="fill: none; stroke: #000000; stroke-linecap: round"/>
   </g>
   <g id="line2d_44">
    <path d="M 357.650532 66.499482 
L 357.650532 62.912215 
L 521.415468 62.912215 
L 521.415468 66.499482 
" clip-path="url(#p512404962a)" style="fill: none; stroke: #000000; stroke-linecap: round"/>
   </g>
   <g id="patch_8">
    <path d="M 313.434 238.804 
L 313.434 23.568 
" style="fill: none; stroke: #262626; stroke-linejoin: miter; stroke-linecap: square"/>
   </g>
   <g id="patch_9">
    <path d="M 565.632 238.804 
L 565.632 23.568 
" style="fill: none; stroke: #262626; stroke-linejoin: miter; stroke-linecap: square"/>
   </g>
   <g id="patch_10">
    <path d="M 313.434 238.804 
L 565.632 238.804 
" style="fill: none; stroke: #262626; stroke-linejoin: miter; stroke-linecap: square"/>
   </g>
   <g id="patch_11">
    <path d="M 313.434 23.568 
L 565.632 23.568 
" style="fill: none; stroke: #262626; stroke-linejoin: miter; stroke-linecap: square"/>
   </g>
   <g id="text_19">
    <!-- ns -->
    <g transform="translate(393.049266 86.026582) scale(0.096 -0.096)">
     <use xlink:href="#DejaVuSans-6e"/>
     <use xlink:href="#DejaVuSans-73" x="63.378906"/>
    </g>
   </g>
   <g id="text_20">
    <!-- * -->
    <g transform="translate(478.074234 71.677515) scale(0.096 -0.096)">
     <defs>
      <path id="DejaVuSans-2a" d="M 3009 3897 
L 1888 3291 
L 3009 2681 
L 2828 2375 
L 1778 3009 
L 1778 1831 
L 1422 1831 
L 1422 3009 
L 372 2375 
L 191 2681 
L 1313 3291 
L 191 3897 
L 372 4206 
L 1422 3572 
L 1422 4750 
L 1778 4750 
L 1778 3572 
L 2828 4206 
L 3009 3897 
z
" transform="scale(0.015625)"/>
     </defs>
     <use xlink:href="#DejaVuSans-2a"/>
    </g>
   </g>
   <g id="text_21">
    <!-- ** -->
    <g transform="translate(434.733 57.328448) scale(0.096 -0.096)">
     <use xlink:href="#DejaVuSans-2a"/>
     <use xlink:href="#DejaVuSans-2a" x="50"/>
    </g>
   </g>
   <g id="text_22">
    <!-- Speed -->
    <g style="fill: #262626" transform="translate(424.48425 17.568) scale(0.096 -0.096)">
     <defs>
      <path id="DejaVuSans-53" d="M 3425 4513 
L 3425 3897 
Q 3066 4069 2747 4153 
Q 2428 4238 2131 4238 
Q 1616 4238 1336 4038 
Q 1056 3838 1056 3469 
Q 1056 3159 1242 3001 
Q 1428 2844 1947 2747 
L 2328 2669 
Q 3034 2534 3370 2195 
Q 3706 1856 3706 1288 
Q 3706 609 3251 259 
Q 2797 -91 1919 -91 
Q 1588 -91 1214 -16 
Q 841 59 441 206 
L 441 856 
Q 825 641 1194 531 
Q 1563 422 1919 422 
Q 2459 422 2753 634 
Q 3047 847 3047 1241 
Q 3047 1584 2836 1778 
Q 2625 1972 2144 2069 
L 1759 2144 
Q 1053 2284 737 2584 
Q 422 2884 422 3419 
Q 422 4038 858 4394 
Q 1294 4750 2059 4750 
Q 2388 4750 2728 4690 
Q 3069 4631 3425 4513 
z
" transform="scale(0.015625)"/>
     </defs>
     <use xlink:href="#DejaVuSans-53"/>
     <use xlink:href="#DejaVuSans-70" x="63.476562"/>
     <use xlink:href="#DejaVuSans-65" x="126.953125"/>
     <use xlink:href="#DejaVuSans-65" x="188.476562"/>
     <use xlink:href="#DejaVuSans-64" x="250"/>
    </g>
   </g>
  </g>
  <g id="text_23">
   <!-- Response ratio tertiles -->
   <g style="fill: #262626" transform="translate(223.2207 282.7242) scale(0.1152 -0.1152)">
    <defs>
     <path id="DejaVuSans-52" d="M 2841 2188 
Q 3044 2119 3236 1894 
Q 3428 1669 3622 1275 
L 4263 0 
L 3584 0 
L 2988 1197 
Q 2756 1666 2539 1819 
Q 2322 1972 1947 1972 
L 1259 1972 
L 1259 0 
L 628 0 
L 628 4666 
L 2053 4666 
Q 2853 4666 3247 4331 
Q 3641 3997 3641 3322 
Q 3641 2881 3436 2590 
Q 3231 2300 2841 2188 
z
M 1259 4147 
L 1259 2491 
L 2053 2491 
Q 2509 2491 2742 2702 
Q 2975 2913 2975 3322 
Q 2975 3731 2742 3939 
Q 2509 4147 2053 4147 
L 1259 4147 
z
" transform="scale(0.015625)"/>
    </defs>
    <use xlink:href="#DejaVuSans-52"/>
    <use xlink:href="#DejaVuSans-65" x="64.982422"/>
    <use xlink:href="#DejaVuSans-73" x="126.505859"/>
    <use xlink:href="#DejaVuSans-70" x="178.605469"/>
    <use xlink:href="#DejaVuSans-6f" x="242.082031"/>
    <use xlink:href="#DejaVuSans-6e" x="303.263672"/>
    <use xlink:href="#DejaVuSans-73" x="366.642578"/>
    <use xlink:href="#DejaVuSans-65" x="418.742188"/>
    <use xlink:href="#DejaVuSans-20" x="480.265625"/>
    <use xlink:href="#DejaVuSans-72" x="512.052734"/>
    <use xlink:href="#DejaVuSans-61" x="553.166016"/>
    <use xlink:href="#DejaVuSans-74" x="614.445312"/>
    <use xlink:href="#DejaVuSans-69" x="653.654297"/>
    <use xlink:href="#DejaVuSans-6f" x="681.4375"/>
    <use xlink:href="#DejaVuSans-20" x="742.619141"/>
    <use xlink:href="#DejaVuSans-74" x="774.40625"/>
    <use xlink:href="#DejaVuSans-65" x="813.615234"/>
    <use xlink:href="#DejaVuSans-72" x="875.138672"/>
    <use xlink:href="#DejaVuSans-74" x="916.251953"/>
    <use xlink:href="#DejaVuSans-69" x="955.460938"/>
    <use xlink:href="#DejaVuSans-6c" x="983.244141"/>
    <use xlink:href="#DejaVuSans-65" x="1011.027344"/>
    <use xlink:href="#DejaVuSans-73" x="1072.550781"/>
   </g>
  </g>
 </g>
 <defs>
  <clipPath id="p445dc54f0b">
   <rect x="46.068" y="23.568" width="252.198" height="215.236"/>
  </clipPath>
  <clipPath id="p512404962a">
   <rect x="313.434" y="23.568" width="252.198" height="215.236"/>
  </clipPath>
 </defs>
</svg>
