<?xml version="1.0" encoding="utf-8" standalone="no"?>
<!DOCTYPE svg PUBLIC "-//W3C//DTD SVG 1.1//EN"
  "http://www.w3.org/Graphics/SVG/1.1/DTD/svg11.dtd">
<svg xmlns:xlink="http://www.w3.org/1999/xlink" width="576pt" height="288pt" viewBox="0 0 576 288" xmlns="http://www.w3.org/2000/svg" version="1.1">
 <metadata>
  <rdf:RDF xmlns:dc="http://purl.org/dc/elements/1.1/" xmlns:cc="http://creativecommons.org/ns#" xmlns:rdf="http://www.w3.org/1999/02/22-rdf-syntax-ns#">
   <cc:Work>
    <dc:type rdf:resource="http://purl.org/dc/dcmitype/StillImage"/>
    <dc:date>2024-11-01T12:47:19.213009</dc:date>
    <dc:format>image/svg+xml</dc:format>
    <dc:creator>
     <cc:Agent>
      <dc:title>Matplotlib v3.9.2, https://matplotlib.org/</dc:title>
     </cc:Agent>
    </dc:creator>
   </cc:Work>
  </rdf:RDF>
 </metadata>
 <defs>
  <style type="text/css">*{stroke-linejoin: round; stroke-linecap: butt}</style>
 </defs>
 <g id="figure_1">
  <g id="patch_1">
   <path d="M 0 288 
L 576 288 
L 576 0 
L 0 0 
L 0 288 
z
" style="fill: none"/>
  </g>
  <g id="axes_1">
   <g id="patch_2">
    <path d="M 46.068 238.804 
L 298.266 238.804 
L 298.266 23.568 
L 46.068 23.568 
L 46.068 238.804 
z
" style="fill: none"/>
   </g>
   <g id="matplotlib.axis_1">
    <g id="xtick_1">
     <g id="line2d_1">
      <defs>
       <path id="maf7a3ce231" d="M 0 0 
L 0 4.8 
" style="stroke: #262626"/>
      </defs>
      <g>
       <use xlink:href="#maf7a3ce231" x="90.284532" y="238.804" style="fill: #262626; stroke: #262626"/>
      </g>
     </g>
     <g id="text_1">
      <!-- Low -->
      <g style="fill: #262626" transform="translate(81.619282 253.790625) scale(0.088 -0.088)">
       <defs>
        <path id="DejaVuSans-4c" d="M 628 4666 
L 1259 4666 
L 1259 531 
L 3531 531 
L 3531 0 
L 628 0 
L 628 4666 
z
" transform="scale(0.015625)"/>
        <path id="DejaVuSans-6f" d="M 1959 3097 
Q 1497 3097 1228 2736 
Q 959 2375 959 1747 
Q 959 1119 1226 758 
Q 1494 397 1959 397 
Q 2419 397 2687 759 
Q 2956 1122 2956 1747 
Q 2956 2369 2687 2733 
Q 2419 3097 1959 3097 
z
M 1959 3584 
Q 2709 3584 3137 3096 
Q 3566 2609 3566 1747 
Q 3566 888 3137 398 
Q 2709 -91 1959 -91 
Q 1206 -91 779 398 
Q 353 888 353 1747 
Q 353 2609 779 3096 
Q 1206 3584 1959 3584 
z
" transform="scale(0.015625)"/>
        <path id="DejaVuSans-77" d="M 269 3500 
L 844 3500 
L 1563 769 
L 2278 3500 
L 2956 3500 
L 3675 769 
L 4391 3500 
L 4966 3500 
L 4050 0 
L 3372 0 
L 2619 2869 
L 1863 0 
L 1184 0 
L 269 3500 
z
" transform="scale(0.015625)"/>
       </defs>
       <use xlink:href="#DejaVuSans-4c"/>
       <use xlink:href="#DejaVuSans-6f" x="53.962891"/>
       <use xlink:href="#DejaVuSans-77" x="115.144531"/>
      </g>
     </g>
    </g>
    <g id="xtick_2">
     <g id="line2d_2">
      <g>
       <use xlink:href="#maf7a3ce231" x="172.167" y="238.804" style="fill: #262626; stroke: #262626"/>
      </g>
     </g>
     <g id="text_2">
      <!-- Medium -->
      <g style="fill: #262626" transform="translate(154.573187 253.790625) scale(0.088 -0.088)">
       <defs>
        <path id="DejaVuSans-4d" d="M 628 4666 
L 1569 4666 
L 2759 1491 
L 3956 4666 
L 4897 4666 
L 4897 0 
L 4281 0 
L 4281 4097 
L 3078 897 
L 2444 897 
L 1241 4097 
L 1241 0 
L 628 0 
L 628 4666 
z
" transform="scale(0.015625)"/>
        <path id="DejaVuSans-65" d="M 3597 1894 
L 3597 1613 
L 953 1613 
Q 991 1019 1311 708 
Q 1631 397 2203 397 
Q 2534 397 2845 478 
Q 3156 559 3463 722 
L 3463 178 
Q 3153 47 2828 -22 
Q 2503 -91 2169 -91 
Q 1331 -91 842 396 
Q 353 884 353 1716 
Q 353 2575 817 3079 
Q 1281 3584 2069 3584 
Q 2775 3584 3186 3129 
Q 3597 2675 3597 1894 
z
M 3022 2063 
Q 3016 2534 2758 2815 
Q 2500 3097 2075 3097 
Q 1594 3097 1305 2825 
Q 1016 2553 972 2059 
L 3022 2063 
z
" transform="scale(0.015625)"/>
        <path id="DejaVuSans-64" d="M 2906 2969 
L 2906 4863 
L 3481 4863 
L 3481 0 
L 2906 0 
L 2906 525 
Q 2725 213 2448 61 
Q 2172 -91 1784 -91 
Q 1150 -91 751 415 
Q 353 922 353 1747 
Q 353 2572 751 3078 
Q 1150 3584 1784 3584 
Q 2172 3584 2448 3432 
Q 2725 3281 2906 2969 
z
M 947 1747 
Q 947 1113 1208 752 
Q 1469 391 1925 391 
Q 2381 391 2643 752 
Q 2906 1113 2906 1747 
Q 2906 2381 2643 2742 
Q 2381 3103 1925 3103 
Q 1469 3103 1208 2742 
Q 947 2381 947 1747 
z
" transform="scale(0.015625)"/>
        <path id="DejaVuSans-69" d="M 603 3500 
L 1178 3500 
L 1178 0 
L 603 0 
L 603 3500 
z
M 603 4863 
L 1178 4863 
L 1178 4134 
L 603 4134 
L 603 4863 
z
" transform="scale(0.015625)"/>
        <path id="DejaVuSans-75" d="M 544 1381 
L 544 3500 
L 1119 3500 
L 1119 1403 
Q 1119 906 1312 657 
Q 1506 409 1894 409 
Q 2359 409 2629 706 
Q 2900 1003 2900 1516 
L 2900 3500 
L 3475 3500 
L 3475 0 
L 2900 0 
L 2900 538 
Q 2691 219 2414 64 
Q 2138 -91 1772 -91 
Q 1169 -91 856 284 
Q 544 659 544 1381 
z
M 1991 3584 
L 1991 3584 
z
" transform="scale(0.015625)"/>
        <path id="DejaVuSans-6d" d="M 3328 2828 
Q 3544 3216 3844 3400 
Q 4144 3584 4550 3584 
Q 5097 3584 5394 3201 
Q 5691 2819 5691 2113 
L 5691 0 
L 5113 0 
L 5113 2094 
Q 5113 2597 4934 2840 
Q 4756 3084 4391 3084 
Q 3944 3084 3684 2787 
Q 3425 2491 3425 1978 
L 3425 0 
L 2847 0 
L 2847 2094 
Q 2847 2600 2669 2842 
Q 2491 3084 2119 3084 
Q 1678 3084 1418 2786 
Q 1159 2488 1159 1978 
L 1159 0 
L 581 0 
L 581 3500 
L 1159 3500 
L 1159 2956 
Q 1356 3278 1631 3431 
Q 1906 3584 2284 3584 
Q 2666 3584 2933 3390 
Q 3200 3197 3328 2828 
z
" transform="scale(0.015625)"/>
       </defs>
       <use xlink:href="#DejaVuSans-4d"/>
       <use xlink:href="#DejaVuSans-65" x="86.279297"/>
       <use xlink:href="#DejaVuSans-64" x="147.802734"/>
       <use xlink:href="#DejaVuSans-69" x="211.279297"/>
       <use xlink:href="#DejaVuSans-75" x="239.0625"/>
       <use xlink:href="#DejaVuSans-6d" x="302.441406"/>
      </g>
     </g>
    </g>
    <g id="xtick_3">
     <g id="line2d_3">
      <g>
       <use xlink:href="#maf7a3ce231" x="254.049468" y="238.804" style="fill: #262626; stroke: #262626"/>
      </g>
     </g>
     <g id="text_3">
      <!-- High -->
      <g style="fill: #262626" transform="translate(243.936343 253.790625) scale(0.088 -0.088)">
       <defs>
        <path id="DejaVuSans-48" d="M 628 4666 
L 1259 4666 
L 1259 2753 
L 3553 2753 
L 3553 4666 
L 4184 4666 
L 4184 0 
L 3553 0 
L 3553 2222 
L 1259 2222 
L 1259 0 
L 628 0 
L 628 4666 
z
" transform="scale(0.015625)"/>
        <path id="DejaVuSans-67" d="M 2906 1791 
Q 2906 2416 2648 2759 
Q 2391 3103 1925 3103 
Q 1463 3103 1205 2759 
Q 947 2416 947 1791 
Q 947 1169 1205 825 
Q 1463 481 1925 481 
Q 2391 481 2648 825 
Q 2906 1169 2906 1791 
z
M 3481 434 
Q 3481 -459 3084 -895 
Q 2688 -1331 1869 -1331 
Q 1566 -1331 1297 -1286 
Q 1028 -1241 775 -1147 
L 775 -588 
Q 1028 -725 1275 -790 
Q 1522 -856 1778 -856 
Q 2344 -856 2625 -561 
Q 2906 -266 2906 331 
L 2906 616 
Q 2728 306 2450 153 
Q 2172 0 1784 0 
Q 1141 0 747 490 
Q 353 981 353 1791 
Q 353 2603 747 3093 
Q 1141 3584 1784 3584 
Q 2172 3584 2450 3431 
Q 2728 3278 2906 2969 
L 2906 3500 
L 3481 3500 
L 3481 434 
z
" transform="scale(0.015625)"/>
        <path id="DejaVuSans-68" d="M 3513 2113 
L 3513 0 
L 2938 0 
L 2938 2094 
Q 2938 2591 2744 2837 
Q 2550 3084 2163 3084 
Q 1697 3084 1428 2787 
Q 1159 2491 1159 1978 
L 1159 0 
L 581 0 
L 581 4863 
L 1159 4863 
L 1159 2956 
Q 1366 3272 1645 3428 
Q 1925 3584 2291 3584 
Q 2894 3584 3203 3211 
Q 3513 2838 3513 2113 
z
" transform="scale(0.015625)"/>
       </defs>
       <use xlink:href="#DejaVuSans-48"/>
       <use xlink:href="#DejaVuSans-69" x="75.195312"/>
       <use xlink:href="#DejaVuSans-67" x="102.978516"/>
       <use xlink:href="#DejaVuSans-68" x="166.455078"/>
      </g>
     </g>
    </g>
   </g>
   <g id="matplotlib.axis_2">
    <g id="ytick_1">
     <g id="line2d_4">
      <defs>
       <path id="m69d54ad1b0" d="M 0 0 
L -4.8 0 
" style="stroke: #262626"/>
      </defs>
      <g>
       <use xlink:href="#m69d54ad1b0" x="46.068" y="238.804" style="fill: #262626; stroke: #262626"/>
      </g>
     </g>
     <g id="text_4">
      <!-- 0.5 -->
      <g style="fill: #262626" transform="translate(23.77325 242.147312) scale(0.088 -0.088)">
       <defs>
        <path id="DejaVuSans-30" d="M 2034 4250 
Q 1547 4250 1301 3770 
Q 1056 3291 1056 2328 
Q 1056 1369 1301 889 
Q 1547 409 2034 409 
Q 2525 409 2770 889 
Q 3016 1369 3016 2328 
Q 3016 3291 2770 3770 
Q 2525 4250 2034 4250 
z
M 2034 4750 
Q 2819 4750 3233 4129 
Q 3647 3509 3647 2328 
Q 3647 1150 3233 529 
Q 2819 -91 2034 -91 
Q 1250 -91 836 529 
Q 422 1150 422 2328 
Q 422 3509 836 4129 
Q 1250 4750 2034 4750 
z
" transform="scale(0.015625)"/>
        <path id="DejaVuSans-2e" d="M 684 794 
L 1344 794 
L 1344 0 
L 684 0 
L 684 794 
z
" transform="scale(0.015625)"/>
        <path id="DejaVuSans-35" d="M 691 4666 
L 3169 4666 
L 3169 4134 
L 1269 4134 
L 1269 2991 
Q 1406 3038 1543 3061 
Q 1681 3084 1819 3084 
Q 2600 3084 3056 2656 
Q 3513 2228 3513 1497 
Q 3513 744 3044 326 
Q 2575 -91 1722 -91 
Q 1428 -91 1123 -41 
Q 819 9 494 109 
L 494 744 
Q 775 591 1075 516 
Q 1375 441 1709 441 
Q 2250 441 2565 725 
Q 2881 1009 2881 1497 
Q 2881 1984 2565 2268 
Q 2250 2553 1709 2553 
Q 1456 2553 1204 2497 
Q 953 2441 691 2322 
L 691 4666 
z
" transform="scale(0.015625)"/>
       </defs>
       <use xlink:href="#DejaVuSans-30"/>
       <use xlink:href="#DejaVuSans-2e" x="63.623047"/>
       <use xlink:href="#DejaVuSans-35" x="95.410156"/>
      </g>
     </g>
    </g>
    <g id="ytick_2">
     <g id="line2d_5">
      <g>
       <use xlink:href="#m69d54ad1b0" x="46.068" y="202.931333" style="fill: #262626; stroke: #262626"/>
      </g>
     </g>
     <g id="text_5">
      <!-- 0.6 -->
      <g style="fill: #262626" transform="translate(23.77325 206.274646) scale(0.088 -0.088)">
       <defs>
        <path id="DejaVuSans-36" d="M 2113 2584 
Q 1688 2584 1439 2293 
Q 1191 2003 1191 1497 
Q 1191 994 1439 701 
Q 1688 409 2113 409 
Q 2538 409 2786 701 
Q 3034 994 3034 1497 
Q 3034 2003 2786 2293 
Q 2538 2584 2113 2584 
z
M 3366 4563 
L 3366 3988 
Q 3128 4100 2886 4159 
Q 2644 4219 2406 4219 
Q 1781 4219 1451 3797 
Q 1122 3375 1075 2522 
Q 1259 2794 1537 2939 
Q 1816 3084 2150 3084 
Q 2853 3084 3261 2657 
Q 3669 2231 3669 1497 
Q 3669 778 3244 343 
Q 2819 -91 2113 -91 
Q 1303 -91 875 529 
Q 447 1150 447 2328 
Q 447 3434 972 4092 
Q 1497 4750 2381 4750 
Q 2619 4750 2861 4703 
Q 3103 4656 3366 4563 
z
" transform="scale(0.015625)"/>
       </defs>
       <use xlink:href="#DejaVuSans-30"/>
       <use xlink:href="#DejaVuSans-2e" x="63.623047"/>
       <use xlink:href="#DejaVuSans-36" x="95.410156"/>
      </g>
     </g>
    </g>
    <g id="ytick_3">
     <g id="line2d_6">
      <g>
       <use xlink:href="#m69d54ad1b0" x="46.068" y="167.058667" style="fill: #262626; stroke: #262626"/>
      </g>
     </g>
     <g id="text_6">
      <!-- 0.7 -->
      <g style="fill: #262626" transform="translate(23.77325 170.401979) scale(0.088 -0.088)">
       <defs>
        <path id="DejaVuSans-37" d="M 525 4666 
L 3525 4666 
L 3525 4397 
L 1831 0 
L 1172 0 
L 2766 4134 
L 525 4134 
L 525 4666 
z
" transform="scale(0.015625)"/>
       </defs>
       <use xlink:href="#DejaVuSans-30"/>
       <use xlink:href="#DejaVuSans-2e" x="63.623047"/>
       <use xlink:href="#DejaVuSans-37" x="95.410156"/>
      </g>
     </g>
    </g>
    <g id="ytick_4">
     <g id="line2d_7">
      <g>
       <use xlink:href="#m69d54ad1b0" x="46.068" y="131.186" style="fill: #262626; stroke: #262626"/>
      </g>
     </g>
     <g id="text_7">
      <!-- 0.8 -->
      <g style="fill: #262626" transform="translate(23.77325 134.529312) scale(0.088 -0.088)">
       <defs>
        <path id="DejaVuSans-38" d="M 2034 2216 
Q 1584 2216 1326 1975 
Q 1069 1734 1069 1313 
Q 1069 891 1326 650 
Q 1584 409 2034 409 
Q 2484 409 2743 651 
Q 3003 894 3003 1313 
Q 3003 1734 2745 1975 
Q 2488 2216 2034 2216 
z
M 1403 2484 
Q 997 2584 770 2862 
Q 544 3141 544 3541 
Q 544 4100 942 4425 
Q 1341 4750 2034 4750 
Q 2731 4750 3128 4425 
Q 3525 4100 3525 3541 
Q 3525 3141 3298 2862 
Q 3072 2584 2669 2484 
Q 3125 2378 3379 2068 
Q 3634 1759 3634 1313 
Q 3634 634 3220 271 
Q 2806 -91 2034 -91 
Q 1263 -91 848 271 
Q 434 634 434 1313 
Q 434 1759 690 2068 
Q 947 2378 1403 2484 
z
M 1172 3481 
Q 1172 3119 1398 2916 
Q 1625 2713 2034 2713 
Q 2441 2713 2670 2916 
Q 2900 3119 2900 3481 
Q 2900 3844 2670 4047 
Q 2441 4250 2034 4250 
Q 1625 4250 1398 4047 
Q 1172 3844 1172 3481 
z
" transform="scale(0.015625)"/>
       </defs>
       <use xlink:href="#DejaVuSans-30"/>
       <use xlink:href="#DejaVuSans-2e" x="63.623047"/>
       <use xlink:href="#DejaVuSans-38" x="95.410156"/>
      </g>
     </g>
    </g>
    <g id="ytick_5">
     <g id="line2d_8">
      <g>
       <use xlink:href="#m69d54ad1b0" x="46.068" y="95.313333" style="fill: #262626; stroke: #262626"/>
      </g>
     </g>
     <g id="text_8">
      <!-- 0.9 -->
      <g style="fill: #262626" transform="translate(23.77325 98.656646) scale(0.088 -0.088)">
       <defs>
        <path id="DejaVuSans-39" d="M 703 97 
L 703 672 
Q 941 559 1184 500 
Q 1428 441 1663 441 
Q 2288 441 2617 861 
Q 2947 1281 2994 2138 
Q 2813 1869 2534 1725 
Q 2256 1581 1919 1581 
Q 1219 1581 811 2004 
Q 403 2428 403 3163 
Q 403 3881 828 4315 
Q 1253 4750 1959 4750 
Q 2769 4750 3195 4129 
Q 3622 3509 3622 2328 
Q 3622 1225 3098 567 
Q 2575 -91 1691 -91 
Q 1453 -91 1209 -44 
Q 966 3 703 97 
z
M 1959 2075 
Q 2384 2075 2632 2365 
Q 2881 2656 2881 3163 
Q 2881 3666 2632 3958 
Q 2384 4250 1959 4250 
Q 1534 4250 1286 3958 
Q 1038 3666 1038 3163 
Q 1038 2656 1286 2365 
Q 1534 2075 1959 2075 
z
" transform="scale(0.015625)"/>
       </defs>
       <use xlink:href="#DejaVuSans-30"/>
       <use xlink:href="#DejaVuSans-2e" x="63.623047"/>
       <use xlink:href="#DejaVuSans-39" x="95.410156"/>
      </g>
     </g>
    </g>
    <g id="ytick_6">
     <g id="line2d_9">
      <g>
       <use xlink:href="#m69d54ad1b0" x="46.068" y="59.440667" style="fill: #262626; stroke: #262626"/>
      </g>
     </g>
     <g id="text_9">
      <!-- 1.0 -->
      <g style="fill: #262626" transform="translate(23.77325 62.783979) scale(0.088 -0.088)">
       <defs>
        <path id="DejaVuSans-31" d="M 794 531 
L 1825 531 
L 1825 4091 
L 703 3866 
L 703 4441 
L 1819 4666 
L 2450 4666 
L 2450 531 
L 3481 531 
L 3481 0 
L 794 0 
L 794 531 
z
" transform="scale(0.015625)"/>
       </defs>
       <use xlink:href="#DejaVuSans-31"/>
       <use xlink:href="#DejaVuSans-2e" x="63.623047"/>
       <use xlink:href="#DejaVuSans-30" x="95.410156"/>
      </g>
     </g>
    </g>
    <g id="ytick_7">
     <g id="line2d_10">
      <g>
       <use xlink:href="#m69d54ad1b0" x="46.068" y="23.568" style="fill: #262626; stroke: #262626"/>
      </g>
     </g>
     <g id="text_10">
      <!-- 1.1 -->
      <g style="fill: #262626" transform="translate(23.77325 26.911313) scale(0.088 -0.088)">
       <use xlink:href="#DejaVuSans-31"/>
       <use xlink:href="#DejaVuSans-2e" x="63.623047"/>
       <use xlink:href="#DejaVuSans-31" x="95.410156"/>
      </g>
     </g>
    </g>
    <g id="text_11">
     <!-- Probability of correct response -->
     <g style="fill: #262626" transform="translate(17.77675 204.36575) rotate(-90) scale(0.096 -0.096)">
      <defs>
       <path id="DejaVuSans-50" d="M 1259 4147 
L 1259 2394 
L 2053 2394 
Q 2494 2394 2734 2622 
Q 2975 2850 2975 3272 
Q 2975 3691 2734 3919 
Q 2494 4147 2053 4147 
L 1259 4147 
z
M 628 4666 
L 2053 4666 
Q 2838 4666 3239 4311 
Q 3641 3956 3641 3272 
Q 3641 2581 3239 2228 
Q 2838 1875 2053 1875 
L 1259 1875 
L 1259 0 
L 628 0 
L 628 4666 
z
" transform="scale(0.015625)"/>
       <path id="DejaVuSans-72" d="M 2631 2963 
Q 2534 3019 2420 3045 
Q 2306 3072 2169 3072 
Q 1681 3072 1420 2755 
Q 1159 2438 1159 1844 
L 1159 0 
L 581 0 
L 581 3500 
L 1159 3500 
L 1159 2956 
Q 1341 3275 1631 3429 
Q 1922 3584 2338 3584 
Q 2397 3584 2469 3576 
Q 2541 3569 2628 3553 
L 2631 2963 
z
" transform="scale(0.015625)"/>
       <path id="DejaVuSans-62" d="M 3116 1747 
Q 3116 2381 2855 2742 
Q 2594 3103 2138 3103 
Q 1681 3103 1420 2742 
Q 1159 2381 1159 1747 
Q 1159 1113 1420 752 
Q 1681 391 2138 391 
Q 2594 391 2855 752 
Q 3116 1113 3116 1747 
z
M 1159 2969 
Q 1341 3281 1617 3432 
Q 1894 3584 2278 3584 
Q 2916 3584 3314 3078 
Q 3713 2572 3713 1747 
Q 3713 922 3314 415 
Q 2916 -91 2278 -91 
Q 1894 -91 1617 61 
Q 1341 213 1159 525 
L 1159 0 
L 581 0 
L 581 4863 
L 1159 4863 
L 1159 2969 
z
" transform="scale(0.015625)"/>
       <path id="DejaVuSans-61" d="M 2194 1759 
Q 1497 1759 1228 1600 
Q 959 1441 959 1056 
Q 959 750 1161 570 
Q 1363 391 1709 391 
Q 2188 391 2477 730 
Q 2766 1069 2766 1631 
L 2766 1759 
L 2194 1759 
z
M 3341 1997 
L 3341 0 
L 2766 0 
L 2766 531 
Q 2569 213 2275 61 
Q 1981 -91 1556 -91 
Q 1019 -91 701 211 
Q 384 513 384 1019 
Q 384 1609 779 1909 
Q 1175 2209 1959 2209 
L 2766 2209 
L 2766 2266 
Q 2766 2663 2505 2880 
Q 2244 3097 1772 3097 
Q 1472 3097 1187 3025 
Q 903 2953 641 2809 
L 641 3341 
Q 956 3463 1253 3523 
Q 1550 3584 1831 3584 
Q 2591 3584 2966 3190 
Q 3341 2797 3341 1997 
z
" transform="scale(0.015625)"/>
       <path id="DejaVuSans-6c" d="M 603 4863 
L 1178 4863 
L 1178 0 
L 603 0 
L 603 4863 
z
" transform="scale(0.015625)"/>
       <path id="DejaVuSans-74" d="M 1172 4494 
L 1172 3500 
L 2356 3500 
L 2356 3053 
L 1172 3053 
L 1172 1153 
Q 1172 725 1289 603 
Q 1406 481 1766 481 
L 2356 481 
L 2356 0 
L 1766 0 
Q 1100 0 847 248 
Q 594 497 594 1153 
L 594 3053 
L 172 3053 
L 172 3500 
L 594 3500 
L 594 4494 
L 1172 4494 
z
" transform="scale(0.015625)"/>
       <path id="DejaVuSans-79" d="M 2059 -325 
Q 1816 -950 1584 -1140 
Q 1353 -1331 966 -1331 
L 506 -1331 
L 506 -850 
L 844 -850 
Q 1081 -850 1212 -737 
Q 1344 -625 1503 -206 
L 1606 56 
L 191 3500 
L 800 3500 
L 1894 763 
L 2988 3500 
L 3597 3500 
L 2059 -325 
z
" transform="scale(0.015625)"/>
       <path id="DejaVuSans-20" transform="scale(0.015625)"/>
       <path id="DejaVuSans-66" d="M 2375 4863 
L 2375 4384 
L 1825 4384 
Q 1516 4384 1395 4259 
Q 1275 4134 1275 3809 
L 1275 3500 
L 2222 3500 
L 2222 3053 
L 1275 3053 
L 1275 0 
L 697 0 
L 697 3053 
L 147 3053 
L 147 3500 
L 697 3500 
L 697 3744 
Q 697 4328 969 4595 
Q 1241 4863 1831 4863 
L 2375 4863 
z
" transform="scale(0.015625)"/>
       <path id="DejaVuSans-63" d="M 3122 3366 
L 3122 2828 
Q 2878 2963 2633 3030 
Q 2388 3097 2138 3097 
Q 1578 3097 1268 2742 
Q 959 2388 959 1747 
Q 959 1106 1268 751 
Q 1578 397 2138 397 
Q 2388 397 2633 464 
Q 2878 531 3122 666 
L 3122 134 
Q 2881 22 2623 -34 
Q 2366 -91 2075 -91 
Q 1284 -91 818 406 
Q 353 903 353 1747 
Q 353 2603 823 3093 
Q 1294 3584 2113 3584 
Q 2378 3584 2631 3529 
Q 2884 3475 3122 3366 
z
" transform="scale(0.015625)"/>
       <path id="DejaVuSans-73" d="M 2834 3397 
L 2834 2853 
Q 2591 2978 2328 3040 
Q 2066 3103 1784 3103 
Q 1356 3103 1142 2972 
Q 928 2841 928 2578 
Q 928 2378 1081 2264 
Q 1234 2150 1697 2047 
L 1894 2003 
Q 2506 1872 2764 1633 
Q 3022 1394 3022 966 
Q 3022 478 2636 193 
Q 2250 -91 1575 -91 
Q 1294 -91 989 -36 
Q 684 19 347 128 
L 347 722 
Q 666 556 975 473 
Q 1284 391 1588 391 
Q 1994 391 2212 530 
Q 2431 669 2431 922 
Q 2431 1156 2273 1281 
Q 2116 1406 1581 1522 
L 1381 1569 
Q 847 1681 609 1914 
Q 372 2147 372 2553 
Q 372 3047 722 3315 
Q 1072 3584 1716 3584 
Q 2034 3584 2315 3537 
Q 2597 3491 2834 3397 
z
" transform="scale(0.015625)"/>
       <path id="DejaVuSans-70" d="M 1159 525 
L 1159 -1331 
L 581 -1331 
L 581 3500 
L 1159 3500 
L 1159 2969 
Q 1341 3281 1617 3432 
Q 1894 3584 2278 3584 
Q 2916 3584 3314 3078 
Q 3713 2572 3713 1747 
Q 3713 922 3314 415 
Q 2916 -91 2278 -91 
Q 1894 -91 1617 61 
Q 1341 213 1159 525 
z
M 3116 1747 
Q 3116 2381 2855 2742 
Q 2594 3103 2138 3103 
Q 1681 3103 1420 2742 
Q 1159 2381 1159 1747 
Q 1159 1113 1420 752 
Q 1681 391 2138 391 
Q 2594 391 2855 752 
Q 3116 1113 3116 1747 
z
" transform="scale(0.015625)"/>
       <path id="DejaVuSans-6e" d="M 3513 2113 
L 3513 0 
L 2938 0 
L 2938 2094 
Q 2938 2591 2744 2837 
Q 2550 3084 2163 3084 
Q 1697 3084 1428 2787 
Q 1159 2491 1159 1978 
L 1159 0 
L 581 0 
L 581 3500 
L 1159 3500 
L 1159 2956 
Q 1366 3272 1645 3428 
Q 1925 3584 2291 3584 
Q 2894 3584 3203 3211 
Q 3513 2838 3513 2113 
z
" transform="scale(0.015625)"/>
      </defs>
      <use xlink:href="#DejaVuSans-50"/>
      <use xlink:href="#DejaVuSans-72" x="58.552734"/>
      <use xlink:href="#DejaVuSans-6f" x="97.416016"/>
      <use xlink:href="#DejaVuSans-62" x="158.597656"/>
      <use xlink:href="#DejaVuSans-61" x="222.074219"/>
      <use xlink:href="#DejaVuSans-62" x="283.353516"/>
      <use xlink:href="#DejaVuSans-69" x="346.830078"/>
      <use xlink:href="#DejaVuSans-6c" x="374.613281"/>
      <use xlink:href="#DejaVuSans-69" x="402.396484"/>
      <use xlink:href="#DejaVuSans-74" x="430.179688"/>
      <use xlink:href="#DejaVuSans-79" x="469.388672"/>
      <use xlink:href="#DejaVuSans-20" x="528.568359"/>
      <use xlink:href="#DejaVuSans-6f" x="560.355469"/>
      <use xlink:href="#DejaVuSans-66" x="621.537109"/>
      <use xlink:href="#DejaVuSans-20" x="656.742188"/>
      <use xlink:href="#DejaVuSans-63" x="688.529297"/>
      <use xlink:href="#DejaVuSans-6f" x="743.509766"/>
      <use xlink:href="#DejaVuSans-72" x="804.691406"/>
      <use xlink:href="#DejaVuSans-72" x="844.054688"/>
      <use xlink:href="#DejaVuSans-65" x="882.917969"/>
      <use xlink:href="#DejaVuSans-63" x="944.441406"/>
      <use xlink:href="#DejaVuSans-74" x="999.421875"/>
      <use xlink:href="#DejaVuSans-20" x="1038.630859"/>
      <use xlink:href="#DejaVuSans-72" x="1070.417969"/>
      <use xlink:href="#DejaVuSans-65" x="1109.28125"/>
      <use xlink:href="#DejaVuSans-73" x="1170.804688"/>
      <use xlink:href="#DejaVuSans-70" x="1222.904297"/>
      <use xlink:href="#DejaVuSans-6f" x="1286.380859"/>
      <use xlink:href="#DejaVuSans-6e" x="1347.5625"/>
      <use xlink:href="#DejaVuSans-73" x="1410.941406"/>
      <use xlink:href="#DejaVuSans-65" x="1463.041016"/>
     </g>
    </g>
   </g>
   <g id="PolyCollection_1">
    <defs>
     <path id="m2ca3142421" d="M 99.037333 -145.218795 
L 81.531731 -145.218795 
L 81.261593 -145.801797 
L 80.986479 -146.384799 
L 80.705276 -146.967801 
L 80.416788 -147.550803 
L 80.119756 -148.133805 
L 79.812876 -148.716807 
L 79.494823 -149.299809 
L 79.164269 -149.882811 
L 78.819909 -150.465813 
L 78.460485 -151.048815 
L 78.084808 -151.631817 
L 77.691787 -152.21482 
L 77.280447 -152.797822 
L 76.849957 -153.380824 
L 76.399646 -153.963826 
L 75.929028 -154.546828 
L 75.437816 -155.12983 
L 74.925937 -155.712832 
L 74.393548 -156.295834 
L 73.841042 -156.878836 
L 73.269057 -157.461838 
L 72.678479 -158.04484 
L 72.070442 -158.627842 
L 71.446327 -159.210844 
L 70.807754 -159.793846 
L 70.156576 -160.376849 
L 69.494864 -160.959851 
L 68.824894 -161.542853 
L 68.149131 -162.125855 
L 67.470209 -162.708857 
L 66.790908 -163.291859 
L 66.114132 -163.874861 
L 65.442884 -164.457863 
L 64.780239 -165.040865 
L 64.129318 -165.623867 
L 63.49326 -166.206869 
L 62.875193 -166.789871 
L 62.278205 -167.372873 
L 61.705318 -167.955876 
L 61.159459 -168.538878 
L 60.643432 -169.12188 
L 60.159893 -169.704882 
L 59.711328 -170.287884 
L 59.300022 -170.870886 
L 58.928047 -171.453888 
L 58.597237 -172.03689 
L 58.309169 -172.619892 
L 58.065154 -173.202894 
L 57.866219 -173.785896 
L 57.713102 -174.368898 
L 57.606243 -174.9519 
L 57.545778 -175.534902 
L 57.531545 -176.117905 
L 57.563083 -176.700907 
L 57.639636 -177.283909 
L 57.760167 -177.866911 
L 57.923368 -178.449913 
L 58.127678 -179.032915 
L 58.371298 -179.615917 
L 58.652214 -180.198919 
L 58.968226 -180.781921 
L 59.316964 -181.364923 
L 59.695927 -181.947925 
L 60.102506 -182.530927 
L 60.534014 -183.113929 
L 60.987724 -183.696932 
L 61.460893 -184.279934 
L 61.950797 -184.862936 
L 62.454762 -185.445938 
L 62.97019 -186.02894 
L 63.49459 -186.611942 
L 64.025601 -187.194944 
L 64.561012 -187.777946 
L 65.098789 -188.360948 
L 65.637083 -188.94395 
L 66.174247 -189.526952 
L 66.708846 -190.109954 
L 67.23966 -190.692956 
L 67.765688 -191.275959 
L 68.286141 -191.858961 
L 68.800445 -192.441963 
L 69.308222 -193.024965 
L 69.809285 -193.607967 
L 70.303619 -194.190969 
L 70.791365 -194.773971 
L 71.272801 -195.356973 
L 71.748318 -195.939975 
L 72.218401 -196.522977 
L 72.683603 -197.105979 
L 73.144523 -197.688981 
L 73.601784 -198.271983 
L 74.056011 -198.854985 
L 74.507806 -199.437988 
L 74.957735 -200.02099 
L 75.406303 -200.603992 
L 75.853947 -201.186994 
L 76.301013 -201.769996 
L 76.747756 -202.352998 
L 77.194324 -202.936 
L 103.374741 -202.936 
L 103.374741 -202.936 
L 103.821309 -202.352998 
L 104.268052 -201.769996 
L 104.715118 -201.186994 
L 105.162762 -200.603992 
L 105.61133 -200.02099 
L 106.061259 -199.437988 
L 106.513054 -198.854985 
L 106.967281 -198.271983 
L 107.424542 -197.688981 
L 107.885462 -197.105979 
L 108.350664 -196.522977 
L 108.820747 -195.939975 
L 109.296264 -195.356973 
L 109.7777 -194.773971 
L 110.265446 -194.190969 
L 110.75978 -193.607967 
L 111.260843 -193.024965 
L 111.76862 -192.441963 
L 112.282923 -191.858961 
L 112.803377 -191.275959 
L 113.329405 -190.692956 
L 113.860219 -190.109954 
L 114.394818 -189.526952 
L 114.931982 -188.94395 
L 115.470276 -188.360948 
L 116.008053 -187.777946 
L 116.543464 -187.194944 
L 117.074475 -186.611942 
L 117.598875 -186.02894 
L 118.114303 -185.445938 
L 118.618268 -184.862936 
L 119.108172 -184.279934 
L 119.581341 -183.696932 
L 120.035051 -183.113929 
L 120.466559 -182.530927 
L 120.873137 -181.947925 
L 121.252101 -181.364923 
L 121.600839 -180.781921 
L 121.916851 -180.198919 
L 122.197767 -179.615917 
L 122.441387 -179.032915 
L 122.645697 -178.449913 
L 122.808898 -177.866911 
L 122.929429 -177.283909 
L 123.005982 -176.700907 
L 123.037519 -176.117905 
L 123.023287 -175.534902 
L 122.962822 -174.9519 
L 122.855963 -174.368898 
L 122.702846 -173.785896 
L 122.503911 -173.202894 
L 122.259896 -172.619892 
L 121.971828 -172.03689 
L 121.641018 -171.453888 
L 121.269043 -170.870886 
L 120.857737 -170.287884 
L 120.409172 -169.704882 
L 119.925633 -169.12188 
L 119.409606 -168.538878 
L 118.863747 -167.955876 
L 118.29086 -167.372873 
L 117.693872 -166.789871 
L 117.075805 -166.206869 
L 116.439747 -165.623867 
L 115.788826 -165.040865 
L 115.126181 -164.457863 
L 114.454933 -163.874861 
L 113.778157 -163.291859 
L 113.098855 -162.708857 
L 112.419933 -162.125855 
L 111.744171 -161.542853 
L 111.074201 -160.959851 
L 110.412489 -160.376849 
L 109.76131 -159.793846 
L 109.122738 -159.210844 
L 108.498623 -158.627842 
L 107.890586 -158.04484 
L 107.300008 -157.461838 
L 106.728023 -156.878836 
L 106.175517 -156.295834 
L 105.643128 -155.712832 
L 105.131249 -155.12983 
L 104.640037 -154.546828 
L 104.169419 -153.963826 
L 103.719108 -153.380824 
L 103.288618 -152.797822 
L 102.877278 -152.21482 
L 102.484257 -151.631817 
L 102.10858 -151.048815 
L 101.749156 -150.465813 
L 101.404796 -149.882811 
L 101.074242 -149.299809 
L 100.756189 -148.716807 
L 100.449309 -148.133805 
L 100.152277 -147.550803 
L 99.863789 -146.967801 
L 99.582586 -146.384799 
L 99.307472 -145.801797 
L 99.037333 -145.218795 
z
" style="stroke: #2f2f2f"/>
    </defs>
    <g clip-path="url(#pd9e720af5f)">
     <use xlink:href="#m2ca3142421" x="0" y="288" style="fill: #58b2a3; stroke: #2f2f2f"/>
    </g>
   </g>
   <g id="PolyCollection_2">
    <defs>
     <path id="m46e489bbef" d="M 185.653204 -155.721431 
L 158.680796 -155.721431 
L 158.463443 -156.327757 
L 158.258966 -156.934083 
L 158.066616 -157.540408 
L 157.885446 -158.146734 
L 157.714321 -158.75306 
L 157.551931 -159.359385 
L 157.396801 -159.965711 
L 157.247307 -160.572036 
L 157.101696 -161.178362 
L 156.958103 -161.784688 
L 156.814577 -162.391013 
L 156.669104 -162.997339 
L 156.519628 -163.603664 
L 156.364082 -164.20999 
L 156.200412 -164.816316 
L 156.026607 -165.422641 
L 155.840721 -166.028967 
L 155.640903 -166.635292 
L 155.42542 -167.241618 
L 155.192684 -167.847944 
L 154.941273 -168.454269 
L 154.669952 -169.060595 
L 154.377694 -169.66692 
L 154.063694 -170.273246 
L 153.727386 -170.879572 
L 153.368451 -171.485897 
L 152.98683 -172.092223 
L 152.58273 -172.698548 
L 152.156624 -173.304874 
L 151.709252 -173.9112 
L 151.241623 -174.517525 
L 150.755005 -175.123851 
L 150.250918 -175.730177 
L 149.731125 -176.336502 
L 149.197617 -176.942828 
L 148.6526 -177.549153 
L 148.098476 -178.155479 
L 147.537822 -178.761805 
L 146.973372 -179.36813 
L 146.407992 -179.974456 
L 145.844658 -180.580781 
L 145.286429 -181.187107 
L 144.736421 -181.793433 
L 144.197781 -182.399758 
L 143.673663 -183.006084 
L 143.167195 -183.612409 
L 142.681459 -184.218735 
L 142.219458 -184.825061 
L 141.784096 -185.431386 
L 141.37815 -186.037712 
L 141.004246 -186.644037 
L 140.664837 -187.250363 
L 140.362183 -187.856689 
L 140.098331 -188.463014 
L 139.875099 -189.06934 
L 139.694058 -189.675666 
L 139.556522 -190.281991 
L 139.463536 -190.888317 
L 139.41587 -191.494642 
L 139.414013 -192.100968 
L 139.45817 -192.707294 
L 139.548262 -193.313619 
L 139.683933 -193.919945 
L 139.864552 -194.52627 
L 140.089223 -195.132596 
L 140.356795 -195.738922 
L 140.66588 -196.345247 
L 141.014865 -196.951573 
L 141.401932 -197.557898 
L 141.825077 -198.164224 
L 142.282132 -198.77055 
L 142.770791 -199.376875 
L 143.288628 -199.983201 
L 143.833128 -200.589526 
L 144.401708 -201.195852 
L 144.991742 -201.802178 
L 145.60059 -202.408503 
L 146.225617 -203.014829 
L 146.864219 -203.621155 
L 147.513844 -204.22748 
L 148.172012 -204.833806 
L 148.836335 -205.440131 
L 149.504531 -206.046457 
L 150.174442 -206.652783 
L 150.844041 -207.259108 
L 151.511448 -207.865434 
L 152.17493 -208.471759 
L 152.832914 -209.078085 
L 153.483982 -209.684411 
L 154.126876 -210.290736 
L 154.760493 -210.897062 
L 155.383886 -211.503387 
L 155.99625 -212.109713 
L 156.596924 -212.716039 
L 157.185373 -213.322364 
L 157.761187 -213.92869 
L 158.324063 -214.535015 
L 158.873797 -215.141341 
L 159.410273 -215.747667 
L 184.923727 -215.747667 
L 184.923727 -215.747667 
L 185.460203 -215.141341 
L 186.009937 -214.535015 
L 186.572813 -213.92869 
L 187.148627 -213.322364 
L 187.737076 -212.716039 
L 188.33775 -212.109713 
L 188.950114 -211.503387 
L 189.573507 -210.897062 
L 190.207124 -210.290736 
L 190.850018 -209.684411 
L 191.501086 -209.078085 
L 192.15907 -208.471759 
L 192.822552 -207.865434 
L 193.489959 -207.259108 
L 194.159558 -206.652783 
L 194.829469 -206.046457 
L 195.497665 -205.440131 
L 196.161988 -204.833806 
L 196.820156 -204.22748 
L 197.469781 -203.621155 
L 198.108383 -203.014829 
L 198.73341 -202.408503 
L 199.342258 -201.802178 
L 199.932292 -201.195852 
L 200.500872 -200.589526 
L 201.045372 -199.983201 
L 201.563209 -199.376875 
L 202.051868 -198.77055 
L 202.508923 -198.164224 
L 202.932068 -197.557898 
L 203.319135 -196.951573 
L 203.66812 -196.345247 
L 203.977205 -195.738922 
L 204.244777 -195.132596 
L 204.469448 -194.52627 
L 204.650067 -193.919945 
L 204.785738 -193.313619 
L 204.87583 -192.707294 
L 204.919987 -192.100968 
L 204.91813 -191.494642 
L 204.870464 -190.888317 
L 204.777478 -190.281991 
L 204.639942 -189.675666 
L 204.458901 -189.06934 
L 204.235669 -188.463014 
L 203.971817 -187.856689 
L 203.669163 -187.250363 
L 203.329754 -186.644037 
L 202.95585 -186.037712 
L 202.549904 -185.431386 
L 202.114542 -184.825061 
L 201.652541 -184.218735 
L 201.166805 -183.612409 
L 200.660337 -183.006084 
L 200.136219 -182.399758 
L 199.597579 -181.793433 
L 199.047571 -181.187107 
L 198.489342 -180.580781 
L 197.926008 -179.974456 
L 197.360628 -179.36813 
L 196.796178 -178.761805 
L 196.235524 -178.155479 
L 195.6814 -177.549153 
L 195.136383 -176.942828 
L 194.602875 -176.336502 
L 194.083082 -175.730177 
L 193.578995 -175.123851 
L 193.092377 -174.517525 
L 192.624748 -173.9112 
L 192.177376 -173.304874 
L 191.75127 -172.698548 
L 191.34717 -172.092223 
L 190.965549 -171.485897 
L 190.606614 -170.879572 
L 190.270306 -170.273246 
L 189.956306 -169.66692 
L 189.664048 -169.060595 
L 189.392727 -168.454269 
L 189.141316 -167.847944 
L 188.90858 -167.241618 
L 188.693097 -166.635292 
L 188.493279 -166.028967 
L 188.307393 -165.422641 
L 188.133588 -164.816316 
L 187.969918 -164.20999 
L 187.814372 -163.603664 
L 187.664896 -162.997339 
L 187.519423 -162.391013 
L 187.375897 -161.784688 
L 187.232304 -161.178362 
L 187.086693 -160.572036 
L 186.937199 -159.965711 
L 186.782069 -159.359385 
L 186.619679 -158.75306 
L 186.448554 -158.146734 
L 186.267384 -157.540408 
L 186.075034 -156.934083 
L 185.870557 -156.327757 
L 185.653204 -155.721431 
z
" style="stroke: #2f2f2f"/>
    </defs>
    <g clip-path="url(#pd9e720af5f)">
     <use xlink:href="#m46e489bbef" x="0" y="288" style="fill: #437695; stroke: #2f2f2f"/>
    </g>
   </g>
   <g id="PolyCollection_3">
    <defs>
     <path id="m0ddbc1591f" d="M 281.20449 -150.087875 
L 226.894445 -150.087875 
L 226.335079 -150.772674 
L 225.804295 -151.457472 
L 225.30313 -152.142271 
L 224.832413 -152.82707 
L 224.392756 -153.511868 
L 223.984552 -154.196667 
L 223.607978 -154.881466 
L 223.262992 -155.566264 
L 222.949342 -156.251063 
L 222.666572 -156.935862 
L 222.414031 -157.62066 
L 222.190887 -158.305459 
L 221.99614 -158.990258 
L 221.828639 -159.675057 
L 221.687097 -160.359855 
L 221.570115 -161.044654 
L 221.4762 -161.729453 
L 221.403785 -162.414251 
L 221.351252 -163.09905 
L 221.316956 -163.783849 
L 221.299244 -164.468647 
L 221.296481 -165.153446 
L 221.307064 -165.838245 
L 221.329452 -166.523043 
L 221.362176 -167.207842 
L 221.403861 -167.892641 
L 221.453242 -168.577439 
L 221.509176 -169.262238 
L 221.570655 -169.947037 
L 221.636817 -170.631835 
L 221.706949 -171.316634 
L 221.780497 -172.001433 
L 221.857066 -172.686231 
L 221.93642 -173.37103 
L 222.018481 -174.055829 
L 222.103321 -174.740628 
L 222.191162 -175.425426 
L 222.28236 -176.110225 
L 222.377398 -176.795024 
L 222.476872 -177.479822 
L 222.581479 -178.164621 
L 222.692 -178.84942 
L 222.809282 -179.534218 
L 222.934225 -180.219017 
L 223.067762 -180.903816 
L 223.210838 -181.588614 
L 223.3644 -182.273413 
L 223.529369 -182.958212 
L 223.706633 -183.64301 
L 223.897022 -184.327809 
L 224.101299 -185.012608 
L 224.320142 -185.697406 
L 224.554132 -186.382205 
L 224.803744 -187.067004 
L 225.069335 -187.751802 
L 225.351138 -188.436601 
L 225.649254 -189.1214 
L 225.963651 -189.806199 
L 226.294164 -190.490997 
L 226.640489 -191.175796 
L 227.002193 -191.860595 
L 227.378712 -192.545393 
L 227.769364 -193.230192 
L 228.173349 -193.914991 
L 228.589766 -194.599789 
L 229.017618 -195.284588 
L 229.45583 -195.969387 
L 229.903257 -196.654185 
L 230.358701 -197.338984 
L 230.820924 -198.023783 
L 231.288665 -198.708581 
L 231.760653 -199.39338 
L 232.235622 -200.078179 
L 232.712327 -200.762977 
L 233.189557 -201.447776 
L 233.666147 -202.132575 
L 234.14099 -202.817373 
L 234.613052 -203.502172 
L 235.081376 -204.186971 
L 235.545093 -204.87177 
L 236.003428 -205.556568 
L 236.455704 -206.241367 
L 236.901347 -206.926166 
L 237.339886 -207.610964 
L 237.770955 -208.295763 
L 238.194287 -208.980562 
L 238.609716 -209.66536 
L 239.01717 -210.350159 
L 239.416662 -211.034958 
L 239.80829 -211.719756 
L 240.192221 -212.404555 
L 240.568687 -213.089354 
L 240.937976 -213.774152 
L 241.300418 -214.458951 
L 241.656376 -215.14375 
L 242.006238 -215.828548 
L 242.350406 -216.513347 
L 242.689283 -217.198146 
L 243.023266 -217.882944 
L 265.075669 -217.882944 
L 265.075669 -217.882944 
L 265.409653 -217.198146 
L 265.748529 -216.513347 
L 266.092697 -215.828548 
L 266.442559 -215.14375 
L 266.798517 -214.458951 
L 267.160959 -213.774152 
L 267.530248 -213.089354 
L 267.906714 -212.404555 
L 268.290645 -211.719756 
L 268.682273 -211.034958 
L 269.081765 -210.350159 
L 269.489219 -209.66536 
L 269.904648 -208.980562 
L 270.32798 -208.295763 
L 270.759049 -207.610964 
L 271.197588 -206.926166 
L 271.643231 -206.241367 
L 272.095507 -205.556568 
L 272.553842 -204.87177 
L 273.017559 -204.186971 
L 273.485883 -203.502172 
L 273.957945 -202.817373 
L 274.432789 -202.132575 
L 274.909378 -201.447776 
L 275.386608 -200.762977 
L 275.863313 -200.078179 
L 276.338282 -199.39338 
L 276.81027 -198.708581 
L 277.278011 -198.023783 
L 277.740234 -197.338984 
L 278.195678 -196.654185 
L 278.643105 -195.969387 
L 279.081317 -195.284588 
L 279.509169 -194.599789 
L 279.925586 -193.914991 
L 280.329571 -193.230192 
L 280.720223 -192.545393 
L 281.096742 -191.860595 
L 281.458446 -191.175796 
L 281.804771 -190.490997 
L 282.135284 -189.806199 
L 282.449681 -189.1214 
L 282.747797 -188.436601 
L 283.0296 -187.751802 
L 283.295191 -187.067004 
L 283.544803 -186.382205 
L 283.778793 -185.697406 
L 283.997636 -185.012608 
L 284.201913 -184.327809 
L 284.392302 -183.64301 
L 284.569566 -182.958212 
L 284.734535 -182.273413 
L 284.888097 -181.588614 
L 285.031173 -180.903816 
L 285.16471 -180.219017 
L 285.289653 -179.534218 
L 285.406935 -178.84942 
L 285.517456 -178.164621 
L 285.622063 -177.479822 
L 285.721537 -176.795024 
L 285.816575 -176.110225 
L 285.907773 -175.425426 
L 285.995614 -174.740628 
L 286.080454 -174.055829 
L 286.162515 -173.37103 
L 286.241869 -172.686231 
L 286.318438 -172.001433 
L 286.391986 -171.316634 
L 286.462118 -170.631835 
L 286.52828 -169.947037 
L 286.589759 -169.262238 
L 286.645693 -168.577439 
L 286.695074 -167.892641 
L 286.736759 -167.207842 
L 286.769483 -166.523043 
L 286.791871 -165.838245 
L 286.802455 -165.153446 
L 286.799691 -164.468647 
L 286.781979 -163.783849 
L 286.747683 -163.09905 
L 286.69515 -162.414251 
L 286.622735 -161.729453 
L 286.52882 -161.044654 
L 286.411838 -160.359855 
L 286.270296 -159.675057 
L 286.102795 -158.990258 
L 285.908048 -158.305459 
L 285.684904 -157.62066 
L 285.432363 -156.935862 
L 285.149593 -156.251063 
L 284.835943 -155.566264 
L 284.490957 -154.881466 
L 284.114383 -154.196667 
L 283.706179 -153.511868 
L 283.266522 -152.82707 
L 282.795805 -152.142271 
L 282.29464 -151.457472 
L 281.763856 -150.772674 
L 281.20449 -150.087875 
z
" style="stroke: #2f2f2f"/>
    </defs>
    <g clip-path="url(#pd9e720af5f)">
     <use xlink:href="#m0ddbc1591f" x="0" y="288" style="fill: #423b63; stroke: #2f2f2f"/>
    </g>
   </g>
   <g id="line2d_11">
    <path d="M 90.284532 124.833549 
L 90.284532 93.320407 
" clip-path="url(#pd9e720af5f)" style="fill: none; stroke: #2f2f2f; stroke-width: 1.5; stroke-linecap: round"/>
   </g>
   <g id="line2d_12">
    <path d="M 90.284532 118.630567 
L 90.284532 105.66833 
" clip-path="url(#pd9e720af5f)" style="fill: none; stroke: #2f2f2f; stroke-width: 4.5; stroke-linecap: round"/>
   </g>
   <g id="line2d_13">
    <path d="M 90.284532 109.317102 
" clip-path="url(#pd9e720af5f)" style="fill: none; stroke: #2f2f2f; stroke-width: 1.2; stroke-linecap: round"/>
    <defs>
     <path id="m0667ab1b53" d="M 1.875 0 
L -1.875 -0 
" style="stroke: #ffffff; stroke-width: 0.9"/>
    </defs>
    <g clip-path="url(#pd9e720af5f)">
     <use xlink:href="#m0667ab1b53" x="90.284532" y="109.317102" style="fill: #ffffff; stroke: #ffffff; stroke-width: 0.9"/>
    </g>
   </g>
   <g id="line2d_14">
    <path d="M 172.167 107.656616 
L 172.167 88.062475 
" clip-path="url(#pd9e720af5f)" style="fill: none; stroke: #2f2f2f; stroke-width: 1.5; stroke-linecap: round"/>
   </g>
   <g id="line2d_15">
    <path d="M 172.167 107.656616 
L 172.167 93.50968 
" clip-path="url(#pd9e720af5f)" style="fill: none; stroke: #2f2f2f; stroke-width: 4.5; stroke-linecap: round"/>
   </g>
   <g id="line2d_16">
    <path d="M 172.167 94.93966 
" clip-path="url(#pd9e720af5f)" style="fill: none; stroke: #2f2f2f; stroke-width: 1.2; stroke-linecap: round"/>
    <g clip-path="url(#pd9e720af5f)">
     <use xlink:href="#m0667ab1b53" x="172.167" y="94.93966" style="fill: #ffffff; stroke: #ffffff; stroke-width: 0.9"/>
    </g>
   </g>
   <g id="line2d_17">
    <path d="M 254.049468 137.912125 
L 254.049468 70.117056 
" clip-path="url(#pd9e720af5f)" style="fill: none; stroke: #2f2f2f; stroke-width: 1.5; stroke-linecap: round"/>
   </g>
   <g id="line2d_18">
    <path d="M 254.049468 130.41867 
L 254.049468 96.422797 
" clip-path="url(#pd9e720af5f)" style="fill: none; stroke: #2f2f2f; stroke-width: 4.5; stroke-linecap: round"/>
   </g>
   <g id="line2d_19">
    <path d="M 254.049468 111.456033 
" clip-path="url(#pd9e720af5f)" style="fill: none; stroke: #2f2f2f; stroke-width: 1.2; stroke-linecap: round"/>
    <g clip-path="url(#pd9e720af5f)">
     <use xlink:href="#m0667ab1b53" x="254.049468" y="111.456033" style="fill: #ffffff; stroke: #ffffff; stroke-width: 0.9"/>
    </g>
   </g>
   <g id="line2d_20">
    <path d="M 90.284532 66.529789 
L 90.284532 62.942522 
L 172.167 62.942522 
L 172.167 66.529789 
" clip-path="url(#pd9e720af5f)" style="fill: none; stroke: #000000; stroke-linecap: round"/>
   </g>
   <g id="line2d_21">
    <path d="M 172.167 52.180722 
L 172.167 48.593456 
L 254.049468 48.593456 
L 254.049468 52.180722 
" clip-path="url(#pd9e720af5f)" style="fill: none; stroke: #000000; stroke-linecap: round"/>
   </g>
   <g id="line2d_22">
    <path d="M 90.284532 37.831656 
L 90.284532 34.244389 
L 254.049468 34.244389 
L 254.049468 37.831656 
" clip-path="url(#pd9e720af5f)" style="fill: none; stroke: #000000; stroke-linecap: round"/>
   </g>
   <g id="patch_3">
    <path d="M 46.068 238.804 
L 46.068 23.568 
" style="fill: none; stroke: #262626; stroke-linejoin: miter; stroke-linecap: square"/>
   </g>
   <g id="patch_4">
    <path d="M 298.266 238.804 
L 298.266 23.568 
" style="fill: none; stroke: #262626; stroke-linejoin: miter; stroke-linecap: square"/>
   </g>
   <g id="patch_5">
    <path d="M 46.068 238.804 
L 298.266 238.804 
" style="fill: none; stroke: #262626; stroke-linejoin: miter; stroke-linecap: square"/>
   </g>
   <g id="patch_6">
    <path d="M 46.068 23.568 
L 298.266 23.568 
" style="fill: none; stroke: #262626; stroke-linejoin: miter; stroke-linecap: square"/>
   </g>
   <g id="text_12">
    <!-- ns -->
    <g transform="translate(125.683266 57.358756) scale(0.096 -0.096)">
     <use xlink:href="#DejaVuSans-6e"/>
     <use xlink:href="#DejaVuSans-73" x="63.378906"/>
    </g>
   </g>
   <g id="text_13">
    <!-- ns -->
    <g transform="translate(207.565734 43.009689) scale(0.096 -0.096)">
     <use xlink:href="#DejaVuSans-6e"/>
     <use xlink:href="#DejaVuSans-73" x="63.378906"/>
    </g>
   </g>
   <g id="text_14">
    <!-- ns -->
    <g transform="translate(166.6245 28.660622) scale(0.096 -0.096)">
     <use xlink:href="#DejaVuSans-6e"/>
     <use xlink:href="#DejaVuSans-73" x="63.378906"/>
    </g>
   </g>
   <g id="text_15">
    <!-- Accuracy -->
    <g style="fill: #262626" transform="translate(150.252 17.568) scale(0.096 -0.096)">
     <defs>
      <path id="DejaVuSans-41" d="M 2188 4044 
L 1331 1722 
L 3047 1722 
L 2188 4044 
z
M 1831 4666 
L 2547 4666 
L 4325 0 
L 3669 0 
L 3244 1197 
L 1141 1197 
L 716 0 
L 50 0 
L 1831 4666 
z
" transform="scale(0.015625)"/>
     </defs>
     <use xlink:href="#DejaVuSans-41"/>
     <use xlink:href="#DejaVuSans-63" x="66.658203"/>
     <use xlink:href="#DejaVuSans-63" x="121.638672"/>
     <use xlink:href="#DejaVuSans-75" x="176.619141"/>
     <use xlink:href="#DejaVuSans-72" x="239.998047"/>
     <use xlink:href="#DejaVuSans-61" x="281.111328"/>
     <use xlink:href="#DejaVuSans-63" x="342.390625"/>
     <use xlink:href="#DejaVuSans-79" x="397.371094"/>
    </g>
   </g>
  </g>
  <g id="axes_2">
   <g id="patch_7">
    <path d="M 313.434 238.804 
L 565.632 238.804 
L 565.632 23.568 
L 313.434 23.568 
L 313.434 238.804 
z
" style="fill: none"/>
   </g>
   <g id="matplotlib.axis_3">
    <g id="xtick_4">
     <g id="line2d_23">
      <g>
       <use xlink:href="#maf7a3ce231" x="357.650532" y="238.804" style="fill: #262626; stroke: #262626"/>
      </g>
     </g>
     <g id="text_16">
      <!-- Low -->
      <g style="fill: #262626" transform="translate(348.985282 253.790625) scale(0.088 -0.088)">
       <use xlink:href="#DejaVuSans-4c"/>
       <use xlink:href="#DejaVuSans-6f" x="53.962891"/>
       <use xlink:href="#DejaVuSans-77" x="115.144531"/>
      </g>
     </g>
    </g>
    <g id="xtick_5">
     <g id="line2d_24">
      <g>
       <use xlink:href="#maf7a3ce231" x="439.533" y="238.804" style="fill: #262626; stroke: #262626"/>
      </g>
     </g>
     <g id="text_17">
      <!-- Medium -->
      <g style="fill: #262626" transform="translate(421.939188 253.790625) scale(0.088 -0.088)">
       <use xlink:href="#DejaVuSans-4d"/>
       <use xlink:href="#DejaVuSans-65" x="86.279297"/>
       <use xlink:href="#DejaVuSans-64" x="147.802734"/>
       <use xlink:href="#DejaVuSans-69" x="211.279297"/>
       <use xlink:href="#DejaVuSans-75" x="239.0625"/>
       <use xlink:href="#DejaVuSans-6d" x="302.441406"/>
      </g>
     </g>
    </g>
    <g id="xtick_6">
     <g id="line2d_25">
      <g>
       <use xlink:href="#maf7a3ce231" x="521.415468" y="238.804" style="fill: #262626; stroke: #262626"/>
      </g>
     </g>
     <g id="text_18">
      <!-- High -->
      <g style="fill: #262626" transform="translate(511.302343 253.790625) scale(0.088 -0.088)">
       <use xlink:href="#DejaVuSans-48"/>
       <use xlink:href="#DejaVuSans-69" x="75.195312"/>
       <use xlink:href="#DejaVuSans-67" x="102.978516"/>
       <use xlink:href="#DejaVuSans-68" x="166.455078"/>
      </g>
     </g>
    </g>
   </g>
   <g id="matplotlib.axis_4">
    <g id="ytick_8">
     <g id="line2d_26">
      <g>
       <use xlink:href="#m69d54ad1b0" x="313.434" y="238.804" style="fill: #262626; stroke: #262626"/>
      </g>
     </g>
    </g>
    <g id="ytick_9">
     <g id="line2d_27">
      <g>
       <use xlink:href="#m69d54ad1b0" x="313.434" y="202.931333" style="fill: #262626; stroke: #262626"/>
      </g>
     </g>
    </g>
    <g id="ytick_10">
     <g id="line2d_28">
      <g>
       <use xlink:href="#m69d54ad1b0" x="313.434" y="167.058667" style="fill: #262626; stroke: #262626"/>
      </g>
     </g>
    </g>
    <g id="ytick_11">
     <g id="line2d_29">
      <g>
       <use xlink:href="#m69d54ad1b0" x="313.434" y="131.186" style="fill: #262626; stroke: #262626"/>
      </g>
     </g>
    </g>
    <g id="ytick_12">
     <g id="line2d_30">
      <g>
       <use xlink:href="#m69d54ad1b0" x="313.434" y="95.313333" style="fill: #262626; stroke: #262626"/>
      </g>
     </g>
    </g>
    <g id="ytick_13">
     <g id="line2d_31">
      <g>
       <use xlink:href="#m69d54ad1b0" x="313.434" y="59.440667" style="fill: #262626; stroke: #262626"/>
      </g>
     </g>
    </g>
    <g id="ytick_14">
     <g id="line2d_32">
      <g>
       <use xlink:href="#m69d54ad1b0" x="313.434" y="23.568" style="fill: #262626; stroke: #262626"/>
      </g>
     </g>
    </g>
   </g>
   <g id="PolyCollection_4">
    <defs>
     <path id="m07d7693ac6" d="M 371.773296 -84.61169 
L 343.527769 -84.61169 
L 343.094178 -85.3863 
L 342.661954 -86.16091 
L 342.231444 -86.93552 
L 341.80296 -87.71013 
L 341.376781 -88.48474 
L 340.953152 -89.25935 
L 340.532291 -90.03396 
L 340.114386 -90.80857 
L 339.699602 -91.58318 
L 339.288081 -92.35779 
L 338.879945 -93.1324 
L 338.475301 -93.90701 
L 338.074244 -94.68162 
L 337.676857 -95.45623 
L 337.28322 -96.230841 
L 336.893404 -97.005451 
L 336.507483 -97.780061 
L 336.125527 -98.554671 
L 335.747613 -99.329281 
L 335.373817 -100.103891 
L 335.004223 -100.878501 
L 334.638918 -101.653111 
L 334.277996 -102.427721 
L 333.921556 -103.202331 
L 333.569703 -103.976941 
L 333.222543 -104.751551 
L 332.88019 -105.526161 
L 332.542758 -106.300771 
L 332.210363 -107.075381 
L 331.883122 -107.849991 
L 331.561152 -108.624601 
L 331.244567 -109.399211 
L 330.93348 -110.173821 
L 330.628003 -110.948431 
L 330.328244 -111.723041 
L 330.03431 -112.497651 
L 329.746305 -113.272261 
L 329.464335 -114.046871 
L 329.188506 -114.821481 
L 328.918926 -115.596091 
L 328.65571 -116.370701 
L 328.398981 -117.145311 
L 328.14887 -117.919921 
L 327.905524 -118.694531 
L 327.669106 -119.469142 
L 327.439799 -120.243752 
L 327.217808 -121.018362 
L 327.003366 -121.792972 
L 326.796733 -122.567582 
L 326.598203 -123.342192 
L 326.4081 -124.116802 
L 326.226787 -124.891412 
L 326.054663 -125.666022 
L 325.892163 -126.440632 
L 325.73976 -127.215242 
L 325.597965 -127.989852 
L 325.467324 -128.764462 
L 325.348416 -129.539072 
L 325.24185 -130.313682 
L 325.148267 -131.088292 
L 325.068327 -131.862902 
L 325.002713 -132.637512 
L 324.95212 -133.412122 
L 324.917256 -134.186732 
L 324.898829 -134.961342 
L 324.897545 -135.735952 
L 324.914105 -136.510562 
L 324.94919 -137.285172 
L 325.003463 -138.059782 
L 325.077558 -138.834392 
L 325.172076 -139.609002 
L 325.287576 -140.383612 
L 325.424574 -141.158222 
L 325.583532 -141.932832 
L 325.764857 -142.707443 
L 325.968892 -143.482053 
L 326.195916 -144.256663 
L 326.446138 -145.031273 
L 326.719691 -145.805883 
L 327.016633 -146.580493 
L 327.336943 -147.355103 
L 327.680515 -148.129713 
L 328.047162 -148.904323 
L 328.436612 -149.678933 
L 328.848505 -150.453543 
L 329.282399 -151.228153 
L 329.737763 -152.002763 
L 330.21398 -152.777373 
L 330.710353 -153.551983 
L 331.226097 -154.326593 
L 331.760352 -155.101203 
L 332.312176 -155.875813 
L 332.880553 -156.650423 
L 333.464397 -157.425033 
L 334.062554 -158.199643 
L 334.673806 -158.974253 
L 335.296878 -159.748863 
L 335.930445 -160.523473 
L 336.573132 -161.298083 
L 378.727933 -161.298083 
L 378.727933 -161.298083 
L 379.37062 -160.523473 
L 380.004187 -159.748863 
L 380.627259 -158.974253 
L 381.238511 -158.199643 
L 381.836668 -157.425033 
L 382.420512 -156.650423 
L 382.988889 -155.875813 
L 383.540713 -155.101203 
L 384.074968 -154.326593 
L 384.590712 -153.551983 
L 385.087085 -152.777373 
L 385.563302 -152.002763 
L 386.018666 -151.228153 
L 386.452559 -150.453543 
L 386.864453 -149.678933 
L 387.253903 -148.904323 
L 387.62055 -148.129713 
L 387.964122 -147.355103 
L 388.284432 -146.580493 
L 388.581374 -145.805883 
L 388.854927 -145.031273 
L 389.105149 -144.256663 
L 389.332173 -143.482053 
L 389.536208 -142.707443 
L 389.717533 -141.932832 
L 389.876491 -141.158222 
L 390.013489 -140.383612 
L 390.128989 -139.609002 
L 390.223507 -138.834392 
L 390.297602 -138.059782 
L 390.351875 -137.285172 
L 390.38696 -136.510562 
L 390.403519 -135.735952 
L 390.402236 -134.961342 
L 390.383809 -134.186732 
L 390.348945 -133.412122 
L 390.298352 -132.637512 
L 390.232738 -131.862902 
L 390.152798 -131.088292 
L 390.059215 -130.313682 
L 389.952649 -129.539072 
L 389.833741 -128.764462 
L 389.7031 -127.989852 
L 389.561305 -127.215242 
L 389.408902 -126.440632 
L 389.246402 -125.666022 
L 389.074278 -124.891412 
L 388.892965 -124.116802 
L 388.702862 -123.342192 
L 388.504332 -122.567582 
L 388.297699 -121.792972 
L 388.083256 -121.018362 
L 387.861266 -120.243752 
L 387.631958 -119.469142 
L 387.395541 -118.694531 
L 387.152195 -117.919921 
L 386.902084 -117.145311 
L 386.645355 -116.370701 
L 386.382139 -115.596091 
L 386.112559 -114.821481 
L 385.83673 -114.046871 
L 385.55476 -113.272261 
L 385.266755 -112.497651 
L 384.972821 -111.723041 
L 384.673062 -110.948431 
L 384.367585 -110.173821 
L 384.056498 -109.399211 
L 383.739913 -108.624601 
L 383.417943 -107.849991 
L 383.090702 -107.075381 
L 382.758307 -106.300771 
L 382.420875 -105.526161 
L 382.078522 -104.751551 
L 381.731362 -103.976941 
L 381.379508 -103.202331 
L 381.023069 -102.427721 
L 380.662147 -101.653111 
L 380.296842 -100.878501 
L 379.927248 -100.103891 
L 379.553452 -99.329281 
L 379.175537 -98.554671 
L 378.793582 -97.780061 
L 378.407661 -97.005451 
L 378.017845 -96.230841 
L 377.624208 -95.45623 
L 377.226821 -94.68162 
L 376.825764 -93.90701 
L 376.42112 -93.1324 
L 376.012984 -92.35779 
L 375.601463 -91.58318 
L 375.186679 -90.80857 
L 374.768774 -90.03396 
L 374.347913 -89.25935 
L 373.924284 -88.48474 
L 373.498105 -87.71013 
L 373.069621 -86.93552 
L 372.639111 -86.16091 
L 372.206887 -85.3863 
L 371.773296 -84.61169 
z
" style="stroke: #2f2f2f"/>
    </defs>
    <g clip-path="url(#p2b266b0a0f)">
     <use xlink:href="#m07d7693ac6" x="0" y="288" style="fill: #58b2a3; stroke: #2f2f2f"/>
    </g>
   </g>
   <g id="PolyCollection_5">
    <defs>
     <path id="med8f77f2a4" d="M 468.434691 -108.983778 
L 410.631309 -108.983778 
L 410.147046 -109.84095 
L 409.692877 -110.698123 
L 409.269775 -111.555295 
L 408.878574 -112.412468 
L 408.519962 -113.26964 
L 408.194488 -114.126812 
L 407.902557 -114.983985 
L 407.644437 -115.841157 
L 407.420263 -116.69833 
L 407.230038 -117.555502 
L 407.073644 -118.412675 
L 406.950843 -119.269847 
L 406.861287 -120.12702 
L 406.804526 -120.984192 
L 406.780013 -121.841364 
L 406.787116 -122.698537 
L 406.825121 -123.555709 
L 406.893245 -124.412882 
L 406.990639 -125.270054 
L 407.116398 -126.127227 
L 407.269569 -126.984399 
L 407.449154 -127.841571 
L 407.654119 -128.698744 
L 407.883396 -129.555916 
L 408.135891 -130.413089 
L 408.410487 -131.270261 
L 408.706046 -132.127434 
L 409.021412 -132.984606 
L 409.355417 -133.841779 
L 409.706875 -134.698951 
L 410.074593 -135.556123 
L 410.457364 -136.413296 
L 410.853972 -137.270468 
L 411.263191 -138.127641 
L 411.683786 -138.984813 
L 412.114514 -139.841986 
L 412.554125 -140.699158 
L 413.00136 -141.556331 
L 413.454958 -142.413503 
L 413.91365 -143.270675 
L 414.37617 -144.127848 
L 414.841249 -144.98502 
L 415.307623 -145.842193 
L 415.774037 -146.699365 
L 416.239246 -147.556538 
L 416.70202 -148.41371 
L 417.161154 -149.270883 
L 417.615466 -150.128055 
L 418.063809 -150.985227 
L 418.505076 -151.8424 
L 418.938203 -152.699572 
L 419.362179 -153.556745 
L 419.776055 -154.413917 
L 420.178943 -155.27109 
L 420.57003 -156.128262 
L 420.948581 -156.985434 
L 421.313944 -157.842607 
L 421.665558 -158.699779 
L 422.002954 -159.556952 
L 422.325764 -160.414124 
L 422.633719 -161.271297 
L 422.926656 -162.128469 
L 423.204516 -162.985642 
L 423.467347 -163.842814 
L 423.715304 -164.699986 
L 423.948646 -165.557159 
L 424.167733 -166.414331 
L 424.373027 -167.271504 
L 424.565083 -168.128676 
L 424.744546 -168.985849 
L 424.912146 -169.843021 
L 425.06869 -170.700194 
L 425.215052 -171.557366 
L 425.352171 -172.414538 
L 425.481036 -173.271711 
L 425.602681 -174.128883 
L 425.718171 -174.986056 
L 425.8286 -175.843228 
L 425.93507 -176.700401 
L 426.038693 -177.557573 
L 426.140571 -178.414746 
L 426.241793 -179.271918 
L 426.343422 -180.12909 
L 426.446486 -180.986263 
L 426.551973 -181.843435 
L 426.660819 -182.700608 
L 426.773901 -183.55778 
L 426.892035 -184.414953 
L 427.015962 -185.272125 
L 427.146351 -186.129297 
L 427.283789 -186.98647 
L 427.42878 -187.843642 
L 427.581742 -188.700815 
L 427.743005 -189.557987 
L 427.912811 -190.41516 
L 428.091314 -191.272332 
L 428.278578 -192.129505 
L 428.474583 -192.986677 
L 428.679225 -193.843849 
L 450.386775 -193.843849 
L 450.386775 -193.843849 
L 450.591417 -192.986677 
L 450.787422 -192.129505 
L 450.974686 -191.272332 
L 451.153189 -190.41516 
L 451.322995 -189.557987 
L 451.484258 -188.700815 
L 451.63722 -187.843642 
L 451.782211 -186.98647 
L 451.919649 -186.129297 
L 452.050038 -185.272125 
L 452.173965 -184.414953 
L 452.292099 -183.55778 
L 452.405181 -182.700608 
L 452.514027 -181.843435 
L 452.619514 -180.986263 
L 452.722578 -180.12909 
L 452.824207 -179.271918 
L 452.925429 -178.414746 
L 453.027307 -177.557573 
L 453.13093 -176.700401 
L 453.2374 -175.843228 
L 453.347829 -174.986056 
L 453.463319 -174.128883 
L 453.584964 -173.271711 
L 453.713829 -172.414538 
L 453.850948 -171.557366 
L 453.99731 -170.700194 
L 454.153854 -169.843021 
L 454.321454 -168.985849 
L 454.500917 -168.128676 
L 454.692973 -167.271504 
L 454.898267 -166.414331 
L 455.117354 -165.557159 
L 455.350696 -164.699986 
L 455.598653 -163.842814 
L 455.861484 -162.985642 
L 456.139344 -162.128469 
L 456.432281 -161.271297 
L 456.740236 -160.414124 
L 457.063046 -159.556952 
L 457.400442 -158.699779 
L 457.752056 -157.842607 
L 458.117419 -156.985434 
L 458.49597 -156.128262 
L 458.887057 -155.27109 
L 459.289945 -154.413917 
L 459.703821 -153.556745 
L 460.127797 -152.699572 
L 460.560924 -151.8424 
L 461.002191 -150.985227 
L 461.450534 -150.128055 
L 461.904846 -149.270883 
L 462.36398 -148.41371 
L 462.826754 -147.556538 
L 463.291963 -146.699365 
L 463.758377 -145.842193 
L 464.224751 -144.98502 
L 464.68983 -144.127848 
L 465.15235 -143.270675 
L 465.611042 -142.413503 
L 466.06464 -141.556331 
L 466.511875 -140.699158 
L 466.951486 -139.841986 
L 467.382214 -138.984813 
L 467.802809 -138.127641 
L 468.212028 -137.270468 
L 468.608636 -136.413296 
L 468.991407 -135.556123 
L 469.359125 -134.698951 
L 469.710583 -133.841779 
L 470.044588 -132.984606 
L 470.359954 -132.127434 
L 470.655513 -131.270261 
L 470.930109 -130.413089 
L 471.182604 -129.555916 
L 471.411881 -128.698744 
L 471.616846 -127.841571 
L 471.796431 -126.984399 
L 471.949602 -126.127227 
L 472.075361 -125.270054 
L 472.172755 -124.412882 
L 472.240879 -123.555709 
L 472.278884 -122.698537 
L 472.285987 -121.841364 
L 472.261474 -120.984192 
L 472.204713 -120.12702 
L 472.115157 -119.269847 
L 471.992356 -118.412675 
L 471.835962 -117.555502 
L 471.645737 -116.69833 
L 471.421563 -115.841157 
L 471.163443 -114.983985 
L 470.871512 -114.126812 
L 470.546038 -113.26964 
L 470.187426 -112.412468 
L 469.796225 -111.555295 
L 469.373123 -110.698123 
L 468.918954 -109.84095 
L 468.434691 -108.983778 
z
" style="stroke: #2f2f2f"/>
    </defs>
    <g clip-path="url(#p2b266b0a0f)">
     <use xlink:href="#med8f77f2a4" x="0" y="288" style="fill: #437695; stroke: #2f2f2f"/>
    </g>
   </g>
   <g id="PolyCollection_6">
    <defs>
     <path id="mf34ff7144e" d="M 542.42202 -79.974323 
L 500.408915 -79.974323 
L 499.654518 -81.031011 
L 498.906387 -82.087698 
L 498.16702 -83.144386 
L 497.438959 -84.201074 
L 496.724768 -85.257761 
L 496.027015 -86.314449 
L 495.348256 -87.371136 
L 494.691013 -88.427824 
L 494.057751 -89.484511 
L 493.450858 -90.541199 
L 492.872623 -91.597886 
L 492.325214 -92.654574 
L 491.810659 -93.711261 
L 491.33082 -94.767949 
L 490.887379 -95.824636 
L 490.481815 -96.881324 
L 490.115389 -97.938011 
L 489.789131 -98.994699 
L 489.503821 -100.051386 
L 489.259985 -101.108074 
L 489.057882 -102.164761 
L 488.897501 -103.221449 
L 488.778557 -104.278136 
L 488.700492 -105.334824 
L 488.662481 -106.391511 
L 488.663432 -107.448199 
L 488.702003 -108.504886 
L 488.776612 -109.561574 
L 488.88545 -110.618261 
L 489.026502 -111.674949 
L 489.197566 -112.731636 
L 489.39628 -113.788324 
L 489.620138 -114.845011 
L 489.866526 -115.901699 
L 490.132744 -116.958386 
L 490.416035 -118.015074 
L 490.713614 -119.071761 
L 491.0227 -120.128449 
L 491.340539 -121.185136 
L 491.664437 -122.241824 
L 491.991785 -123.298511 
L 492.320083 -124.355199 
L 492.646967 -125.411886 
L 492.970227 -126.468574 
L 493.28783 -127.525261 
L 493.597933 -128.581949 
L 493.898901 -129.638637 
L 494.189316 -130.695324 
L 494.467985 -131.752012 
L 494.733948 -132.808699 
L 494.986479 -133.865387 
L 495.225084 -134.922074 
L 495.449502 -135.978762 
L 495.659696 -137.035449 
L 495.855845 -138.092137 
L 496.038333 -139.148824 
L 496.207742 -140.205512 
L 496.364828 -141.262199 
L 496.510513 -142.318887 
L 496.645863 -143.375574 
L 496.772075 -144.432262 
L 496.890452 -145.488949 
L 497.002385 -146.545637 
L 497.10934 -147.602324 
L 497.212828 -148.659012 
L 497.314394 -149.715699 
L 497.415596 -150.772387 
L 497.517988 -151.829074 
L 497.623099 -152.885762 
L 497.732423 -153.942449 
L 497.847403 -154.999137 
L 497.969415 -156.055824 
L 498.099758 -157.112512 
L 498.239646 -158.169199 
L 498.390195 -159.225887 
L 498.552419 -160.282574 
L 498.727221 -161.339262 
L 498.915391 -162.395949 
L 499.117602 -163.452637 
L 499.334408 -164.509324 
L 499.566243 -165.566012 
L 499.813421 -166.622699 
L 500.076141 -167.679387 
L 500.354482 -168.736074 
L 500.648415 -169.792762 
L 500.957799 -170.849449 
L 501.282393 -171.906137 
L 501.621855 -172.962824 
L 501.975749 -174.019512 
L 502.343554 -175.076199 
L 502.724665 -176.132887 
L 503.118406 -177.189575 
L 503.524029 -178.246262 
L 503.940727 -179.30295 
L 504.367636 -180.359637 
L 504.803846 -181.416325 
L 505.248404 -182.473012 
L 505.700322 -183.5297 
L 506.158584 -184.586387 
L 536.672352 -184.586387 
L 536.672352 -184.586387 
L 537.130613 -183.5297 
L 537.582531 -182.473012 
L 538.027089 -181.416325 
L 538.463299 -180.359637 
L 538.890209 -179.30295 
L 539.306906 -178.246262 
L 539.712529 -177.189575 
L 540.10627 -176.132887 
L 540.487381 -175.076199 
L 540.855186 -174.019512 
L 541.20908 -172.962824 
L 541.548542 -171.906137 
L 541.873136 -170.849449 
L 542.18252 -169.792762 
L 542.476453 -168.736074 
L 542.754795 -167.679387 
L 543.017514 -166.622699 
L 543.264692 -165.566012 
L 543.496527 -164.509324 
L 543.713333 -163.452637 
L 543.915544 -162.395949 
L 544.103715 -161.339262 
L 544.278516 -160.282574 
L 544.44074 -159.225887 
L 544.591289 -158.169199 
L 544.731177 -157.112512 
L 544.86152 -156.055824 
L 544.983532 -154.999137 
L 545.098512 -153.942449 
L 545.207836 -152.885762 
L 545.312947 -151.829074 
L 545.415339 -150.772387 
L 545.516541 -149.715699 
L 545.618108 -148.659012 
L 545.721596 -147.602324 
L 545.82855 -146.545637 
L 545.940484 -145.488949 
L 546.05886 -144.432262 
L 546.185072 -143.375574 
L 546.320422 -142.318887 
L 546.466107 -141.262199 
L 546.623193 -140.205512 
L 546.792602 -139.148824 
L 546.975091 -138.092137 
L 547.171239 -137.035449 
L 547.381433 -135.978762 
L 547.605851 -134.922074 
L 547.844456 -133.865387 
L 548.096987 -132.808699 
L 548.36295 -131.752012 
L 548.64162 -130.695324 
L 548.932034 -129.638637 
L 549.233002 -128.581949 
L 549.543105 -127.525261 
L 549.860708 -126.468574 
L 550.183968 -125.411886 
L 550.510852 -124.355199 
L 550.83915 -123.298511 
L 551.166498 -122.241824 
L 551.490396 -121.185136 
L 551.808235 -120.128449 
L 552.117321 -119.071761 
L 552.4149 -118.015074 
L 552.698191 -116.958386 
L 552.964409 -115.901699 
L 553.210797 -114.845011 
L 553.434655 -113.788324 
L 553.633369 -112.731636 
L 553.804434 -111.674949 
L 553.945485 -110.618261 
L 554.054323 -109.561574 
L 554.128932 -108.504886 
L 554.167503 -107.448199 
L 554.168455 -106.391511 
L 554.130443 -105.334824 
L 554.052378 -104.278136 
L 553.933434 -103.221449 
L 553.773053 -102.164761 
L 553.57095 -101.108074 
L 553.327114 -100.051386 
L 553.041804 -98.994699 
L 552.715546 -97.938011 
L 552.349121 -96.881324 
L 551.943556 -95.824636 
L 551.500115 -94.767949 
L 551.020276 -93.711261 
L 550.505721 -92.654574 
L 549.958312 -91.597886 
L 549.380078 -90.541199 
L 548.773184 -89.484511 
L 548.139922 -88.427824 
L 547.482679 -87.371136 
L 546.80392 -86.314449 
L 546.106167 -85.257761 
L 545.391976 -84.201074 
L 544.663915 -83.144386 
L 543.924549 -82.087698 
L 543.176418 -81.031011 
L 542.42202 -79.974323 
z
" style="stroke: #2f2f2f"/>
    </defs>
    <g clip-path="url(#p2b266b0a0f)">
     <use xlink:href="#mf34ff7144e" x="0" y="288" style="fill: #423b63; stroke: #2f2f2f"/>
    </g>
   </g>
   <g id="line2d_33">
    <path d="M 357.650532 203.38831 
L 357.650532 126.701917 
" clip-path="url(#p2b266b0a0f)" style="fill: none; stroke: #2f2f2f; stroke-width: 1.5; stroke-linecap: round"/>
   </g>
   <g id="line2d_34">
    <path d="M 357.650532 173.97388 
L 357.650532 147.340578 
" clip-path="url(#p2b266b0a0f)" style="fill: none; stroke: #2f2f2f; stroke-width: 4.5; stroke-linecap: round"/>
   </g>
   <g id="line2d_35">
    <path d="M 357.650532 157.082245 
" clip-path="url(#p2b266b0a0f)" style="fill: none; stroke: #2f2f2f; stroke-width: 1.2; stroke-linecap: round"/>
    <g clip-path="url(#p2b266b0a0f)">
     <use xlink:href="#m0667ab1b53" x="357.650532" y="157.082245" style="fill: #ffffff; stroke: #ffffff; stroke-width: 0.9"/>
    </g>
   </g>
   <g id="line2d_36">
    <path d="M 439.533 179.016222 
L 439.533 94.156151 
" clip-path="url(#p2b266b0a0f)" style="fill: none; stroke: #2f2f2f; stroke-width: 1.5; stroke-linecap: round"/>
   </g>
   <g id="line2d_37">
    <path d="M 439.533 176.134884 
L 439.533 142.223744 
" clip-path="url(#p2b266b0a0f)" style="fill: none; stroke: #2f2f2f; stroke-width: 4.5; stroke-linecap: round"/>
   </g>
   <g id="line2d_38">
    <path d="M 439.533 153.392889 
" clip-path="url(#p2b266b0a0f)" style="fill: none; stroke: #2f2f2f; stroke-width: 1.2; stroke-linecap: round"/>
    <g clip-path="url(#p2b266b0a0f)">
     <use xlink:href="#m0667ab1b53" x="439.533" y="153.392889" style="fill: #ffffff; stroke: #ffffff; stroke-width: 0.9"/>
    </g>
   </g>
   <g id="line2d_39">
    <path d="M 521.415468 208.025677 
L 521.415468 103.413613 
" clip-path="url(#p2b266b0a0f)" style="fill: none; stroke: #2f2f2f; stroke-width: 1.5; stroke-linecap: round"/>
   </g>
   <g id="line2d_40">
    <path d="M 521.415468 182.936732 
L 521.415468 132.914803 
" clip-path="url(#p2b266b0a0f)" style="fill: none; stroke: #2f2f2f; stroke-width: 4.5; stroke-linecap: round"/>
   </g>
   <g id="line2d_41">
    <path d="M 521.415468 177.557984 
" clip-path="url(#p2b266b0a0f)" style="fill: none; stroke: #2f2f2f; stroke-width: 1.2; stroke-linecap: round"/>
    <g clip-path="url(#p2b266b0a0f)">
     <use xlink:href="#m0667ab1b53" x="521.415468" y="177.557984" style="fill: #ffffff; stroke: #ffffff; stroke-width: 0.9"/>
    </g>
   </g>
   <g id="line2d_42">
    <path d="M 357.650532 90.568884 
L 357.650532 86.981617 
L 439.533 86.981617 
L 439.533 90.568884 
" clip-path="url(#p2b266b0a0f)" style="fill: none; stroke: #000000; stroke-linecap: round"/>
   </g>
   <g id="line2d_43">
    <path d="M 439.533 76.219817 
L 439.533 72.632551 
L 521.415468 72.632551 
L 521.415468 76.219817 
" clip-path="url(#p2b266b0a0f)" style="fill: none; stroke: #000000; stroke-linecap: round"/>
   </g>
   <g id="line2d_44">
    <path d="M 357.650532 61.870751 
L 357.650532 58.283484 
L 521.415468 58.283484 
L 521.415468 61.870751 
" clip-path="url(#p2b266b0a0f)" style="fill: none; stroke: #000000; stroke-linecap: round"/>
   </g>
   <g id="patch_8">
    <path d="M 313.434 238.804 
L 313.434 23.568 
" style="fill: none; stroke: #262626; stroke-linejoin: miter; stroke-linecap: square"/>
   </g>
   <g id="patch_9">
    <path d="M 565.632 238.804 
L 565.632 23.568 
" style="fill: none; stroke: #262626; stroke-linejoin: miter; stroke-linecap: square"/>
   </g>
   <g id="patch_10">
    <path d="M 313.434 238.804 
L 565.632 238.804 
" style="fill: none; stroke: #262626; stroke-linejoin: miter; stroke-linecap: square"/>
   </g>
   <g id="patch_11">
    <path d="M 313.434 23.568 
L 565.632 23.568 
" style="fill: none; stroke: #262626; stroke-linejoin: miter; stroke-linecap: square"/>
   </g>
   <g id="text_19">
    <!-- ns -->
    <g transform="translate(393.049266 81.397851) scale(0.096 -0.096)">
     <use xlink:href="#DejaVuSans-6e"/>
     <use xlink:href="#DejaVuSans-73" x="63.378906"/>
    </g>
   </g>
   <g id="text_20">
    <!-- ns -->
    <g transform="translate(474.931734 67.048784) scale(0.096 -0.096)">
     <use xlink:href="#DejaVuSans-6e"/>
     <use xlink:href="#DejaVuSans-73" x="63.378906"/>
    </g>
   </g>
   <g id="text_21">
    <!-- ns -->
    <g transform="translate(433.9905 52.699717) scale(0.096 -0.096)">
     <use xlink:href="#DejaVuSans-6e"/>
     <use xlink:href="#DejaVuSans-73" x="63.378906"/>
    </g>
   </g>
   <g id="text_22">
    <!-- Speed -->
    <g style="fill: #262626" transform="translate(424.48425 17.568) scale(0.096 -0.096)">
     <defs>
      <path id="DejaVuSans-53" d="M 3425 4513 
L 3425 3897 
Q 3066 4069 2747 4153 
Q 2428 4238 2131 4238 
Q 1616 4238 1336 4038 
Q 1056 3838 1056 3469 
Q 1056 3159 1242 3001 
Q 1428 2844 1947 2747 
L 2328 2669 
Q 3034 2534 3370 2195 
Q 3706 1856 3706 1288 
Q 3706 609 3251 259 
Q 2797 -91 1919 -91 
Q 1588 -91 1214 -16 
Q 841 59 441 206 
L 441 856 
Q 825 641 1194 531 
Q 1563 422 1919 422 
Q 2459 422 2753 634 
Q 3047 847 3047 1241 
Q 3047 1584 2836 1778 
Q 2625 1972 2144 2069 
L 1759 2144 
Q 1053 2284 737 2584 
Q 422 2884 422 3419 
Q 422 4038 858 4394 
Q 1294 4750 2059 4750 
Q 2388 4750 2728 4690 
Q 3069 4631 3425 4513 
z
" transform="scale(0.015625)"/>
     </defs>
     <use xlink:href="#DejaVuSans-53"/>
     <use xlink:href="#DejaVuSans-70" x="63.476562"/>
     <use xlink:href="#DejaVuSans-65" x="126.953125"/>
     <use xlink:href="#DejaVuSans-65" x="188.476562"/>
     <use xlink:href="#DejaVuSans-64" x="250"/>
    </g>
   </g>
  </g>
  <g id="text_23">
   <!-- Decision ratio tertiles -->
   <g style="fill: #262626" transform="translate(226.3626 282.7242) scale(0.1152 -0.1152)">
    <defs>
     <path id="DejaVuSans-44" d="M 1259 4147 
L 1259 519 
L 2022 519 
Q 2988 519 3436 956 
Q 3884 1394 3884 2338 
Q 3884 3275 3436 3711 
Q 2988 4147 2022 4147 
L 1259 4147 
z
M 628 4666 
L 1925 4666 
Q 3281 4666 3915 4102 
Q 4550 3538 4550 2338 
Q 4550 1131 3912 565 
Q 3275 0 1925 0 
L 628 0 
L 628 4666 
z
" transform="scale(0.015625)"/>
    </defs>
    <use xlink:href="#DejaVuSans-44"/>
    <use xlink:href="#DejaVuSans-65" x="77.001953"/>
    <use xlink:href="#DejaVuSans-63" x="138.525391"/>
    <use xlink:href="#DejaVuSans-69" x="193.505859"/>
    <use xlink:href="#DejaVuSans-73" x="221.289062"/>
    <use xlink:href="#DejaVuSans-69" x="273.388672"/>
    <use xlink:href="#DejaVuSans-6f" x="301.171875"/>
    <use xlink:href="#DejaVuSans-6e" x="362.353516"/>
    <use xlink:href="#DejaVuSans-20" x="425.732422"/>
    <use xlink:href="#DejaVuSans-72" x="457.519531"/>
    <use xlink:href="#DejaVuSans-61" x="498.632812"/>
    <use xlink:href="#DejaVuSans-74" x="559.912109"/>
    <use xlink:href="#DejaVuSans-69" x="599.121094"/>
    <use xlink:href="#DejaVuSans-6f" x="626.904297"/>
    <use xlink:href="#DejaVuSans-20" x="688.085938"/>
    <use xlink:href="#DejaVuSans-74" x="719.873047"/>
    <use xlink:href="#DejaVuSans-65" x="759.082031"/>
    <use xlink:href="#DejaVuSans-72" x="820.605469"/>
    <use xlink:href="#DejaVuSans-74" x="861.71875"/>
    <use xlink:href="#DejaVuSans-69" x="900.927734"/>
    <use xlink:href="#DejaVuSans-6c" x="928.710938"/>
    <use xlink:href="#DejaVuSans-65" x="956.494141"/>
    <use xlink:href="#DejaVuSans-73" x="1018.017578"/>
   </g>
  </g>
 </g>
 <defs>
  <clipPath id="pd9e720af5f">
   <rect x="46.068" y="23.568" width="252.198" height="215.236"/>
  </clipPath>
  <clipPath id="p2b266b0a0f">
   <rect x="313.434" y="23.568" width="252.198" height="215.236"/>
  </clipPath>
 </defs>
</svg>
