<?xml version="1.0" encoding="utf-8" standalone="no"?>
<!DOCTYPE svg PUBLIC "-//W3C//DTD SVG 1.1//EN"
  "http://www.w3.org/Graphics/SVG/1.1/DTD/svg11.dtd">
<svg xmlns:xlink="http://www.w3.org/1999/xlink" width="576pt" height="288pt" viewBox="0 0 576 288" xmlns="http://www.w3.org/2000/svg" version="1.1">
 <metadata>
  <rdf:RDF xmlns:dc="http://purl.org/dc/elements/1.1/" xmlns:cc="http://creativecommons.org/ns#" xmlns:rdf="http://www.w3.org/1999/02/22-rdf-syntax-ns#">
   <cc:Work>
    <dc:type rdf:resource="http://purl.org/dc/dcmitype/StillImage"/>
    <dc:date>2024-12-13T10:15:38.887363</dc:date>
    <dc:format>image/svg+xml</dc:format>
    <dc:creator>
     <cc:Agent>
      <dc:title>Matplotlib v3.9.2, https://matplotlib.org/</dc:title>
     </cc:Agent>
    </dc:creator>
   </cc:Work>
  </rdf:RDF>
 </metadata>
 <defs>
  <style type="text/css">*{stroke-linejoin: round; stroke-linecap: butt}</style>
 </defs>
 <g id="figure_1">
  <g id="patch_1">
   <path d="M 0 288 
L 576 288 
L 576 0 
L 0 0 
L 0 288 
z
" style="fill: none"/>
  </g>
  <g id="axes_1">
   <g id="patch_2">
    <path d="M 46.068 238.804 
L 298.266 238.804 
L 298.266 23.568 
L 46.068 23.568 
L 46.068 238.804 
z
" style="fill: none"/>
   </g>
   <g id="matplotlib.axis_1">
    <g id="xtick_1">
     <g id="line2d_1">
      <defs>
       <path id="m4de247aab0" d="M 0 0 
L 0 4.8 
" style="stroke: #262626"/>
      </defs>
      <g>
       <use xlink:href="#m4de247aab0" x="90.284532" y="238.804" style="fill: #262626; stroke: #262626"/>
      </g>
     </g>
     <g id="text_1">
      <!-- Low -->
      <g style="fill: #262626" transform="translate(81.619282 253.790625) scale(0.088 -0.088)">
       <defs>
        <path id="DejaVuSans-4c" d="M 628 4666 
L 1259 4666 
L 1259 531 
L 3531 531 
L 3531 0 
L 628 0 
L 628 4666 
z
" transform="scale(0.015625)"/>
        <path id="DejaVuSans-6f" d="M 1959 3097 
Q 1497 3097 1228 2736 
Q 959 2375 959 1747 
Q 959 1119 1226 758 
Q 1494 397 1959 397 
Q 2419 397 2687 759 
Q 2956 1122 2956 1747 
Q 2956 2369 2687 2733 
Q 2419 3097 1959 3097 
z
M 1959 3584 
Q 2709 3584 3137 3096 
Q 3566 2609 3566 1747 
Q 3566 888 3137 398 
Q 2709 -91 1959 -91 
Q 1206 -91 779 398 
Q 353 888 353 1747 
Q 353 2609 779 3096 
Q 1206 3584 1959 3584 
z
" transform="scale(0.015625)"/>
        <path id="DejaVuSans-77" d="M 269 3500 
L 844 3500 
L 1563 769 
L 2278 3500 
L 2956 3500 
L 3675 769 
L 4391 3500 
L 4966 3500 
L 4050 0 
L 3372 0 
L 2619 2869 
L 1863 0 
L 1184 0 
L 269 3500 
z
" transform="scale(0.015625)"/>
       </defs>
       <use xlink:href="#DejaVuSans-4c"/>
       <use xlink:href="#DejaVuSans-6f" x="53.962891"/>
       <use xlink:href="#DejaVuSans-77" x="115.144531"/>
      </g>
     </g>
    </g>
    <g id="xtick_2">
     <g id="line2d_2">
      <g>
       <use xlink:href="#m4de247aab0" x="172.167" y="238.804" style="fill: #262626; stroke: #262626"/>
      </g>
     </g>
     <g id="text_2">
      <!-- Medium -->
      <g style="fill: #262626" transform="translate(154.573187 253.790625) scale(0.088 -0.088)">
       <defs>
        <path id="DejaVuSans-4d" d="M 628 4666 
L 1569 4666 
L 2759 1491 
L 3956 4666 
L 4897 4666 
L 4897 0 
L 4281 0 
L 4281 4097 
L 3078 897 
L 2444 897 
L 1241 4097 
L 1241 0 
L 628 0 
L 628 4666 
z
" transform="scale(0.015625)"/>
        <path id="DejaVuSans-65" d="M 3597 1894 
L 3597 1613 
L 953 1613 
Q 991 1019 1311 708 
Q 1631 397 2203 397 
Q 2534 397 2845 478 
Q 3156 559 3463 722 
L 3463 178 
Q 3153 47 2828 -22 
Q 2503 -91 2169 -91 
Q 1331 -91 842 396 
Q 353 884 353 1716 
Q 353 2575 817 3079 
Q 1281 3584 2069 3584 
Q 2775 3584 3186 3129 
Q 3597 2675 3597 1894 
z
M 3022 2063 
Q 3016 2534 2758 2815 
Q 2500 3097 2075 3097 
Q 1594 3097 1305 2825 
Q 1016 2553 972 2059 
L 3022 2063 
z
" transform="scale(0.015625)"/>
        <path id="DejaVuSans-64" d="M 2906 2969 
L 2906 4863 
L 3481 4863 
L 3481 0 
L 2906 0 
L 2906 525 
Q 2725 213 2448 61 
Q 2172 -91 1784 -91 
Q 1150 -91 751 415 
Q 353 922 353 1747 
Q 353 2572 751 3078 
Q 1150 3584 1784 3584 
Q 2172 3584 2448 3432 
Q 2725 3281 2906 2969 
z
M 947 1747 
Q 947 1113 1208 752 
Q 1469 391 1925 391 
Q 2381 391 2643 752 
Q 2906 1113 2906 1747 
Q 2906 2381 2643 2742 
Q 2381 3103 1925 3103 
Q 1469 3103 1208 2742 
Q 947 2381 947 1747 
z
" transform="scale(0.015625)"/>
        <path id="DejaVuSans-69" d="M 603 3500 
L 1178 3500 
L 1178 0 
L 603 0 
L 603 3500 
z
M 603 4863 
L 1178 4863 
L 1178 4134 
L 603 4134 
L 603 4863 
z
" transform="scale(0.015625)"/>
        <path id="DejaVuSans-75" d="M 544 1381 
L 544 3500 
L 1119 3500 
L 1119 1403 
Q 1119 906 1312 657 
Q 1506 409 1894 409 
Q 2359 409 2629 706 
Q 2900 1003 2900 1516 
L 2900 3500 
L 3475 3500 
L 3475 0 
L 2900 0 
L 2900 538 
Q 2691 219 2414 64 
Q 2138 -91 1772 -91 
Q 1169 -91 856 284 
Q 544 659 544 1381 
z
M 1991 3584 
L 1991 3584 
z
" transform="scale(0.015625)"/>
        <path id="DejaVuSans-6d" d="M 3328 2828 
Q 3544 3216 3844 3400 
Q 4144 3584 4550 3584 
Q 5097 3584 5394 3201 
Q 5691 2819 5691 2113 
L 5691 0 
L 5113 0 
L 5113 2094 
Q 5113 2597 4934 2840 
Q 4756 3084 4391 3084 
Q 3944 3084 3684 2787 
Q 3425 2491 3425 1978 
L 3425 0 
L 2847 0 
L 2847 2094 
Q 2847 2600 2669 2842 
Q 2491 3084 2119 3084 
Q 1678 3084 1418 2786 
Q 1159 2488 1159 1978 
L 1159 0 
L 581 0 
L 581 3500 
L 1159 3500 
L 1159 2956 
Q 1356 3278 1631 3431 
Q 1906 3584 2284 3584 
Q 2666 3584 2933 3390 
Q 3200 3197 3328 2828 
z
" transform="scale(0.015625)"/>
       </defs>
       <use xlink:href="#DejaVuSans-4d"/>
       <use xlink:href="#DejaVuSans-65" x="86.279297"/>
       <use xlink:href="#DejaVuSans-64" x="147.802734"/>
       <use xlink:href="#DejaVuSans-69" x="211.279297"/>
       <use xlink:href="#DejaVuSans-75" x="239.0625"/>
       <use xlink:href="#DejaVuSans-6d" x="302.441406"/>
      </g>
     </g>
    </g>
    <g id="xtick_3">
     <g id="line2d_3">
      <g>
       <use xlink:href="#m4de247aab0" x="254.049468" y="238.804" style="fill: #262626; stroke: #262626"/>
      </g>
     </g>
     <g id="text_3">
      <!-- High -->
      <g style="fill: #262626" transform="translate(243.936343 253.790625) scale(0.088 -0.088)">
       <defs>
        <path id="DejaVuSans-48" d="M 628 4666 
L 1259 4666 
L 1259 2753 
L 3553 2753 
L 3553 4666 
L 4184 4666 
L 4184 0 
L 3553 0 
L 3553 2222 
L 1259 2222 
L 1259 0 
L 628 0 
L 628 4666 
z
" transform="scale(0.015625)"/>
        <path id="DejaVuSans-67" d="M 2906 1791 
Q 2906 2416 2648 2759 
Q 2391 3103 1925 3103 
Q 1463 3103 1205 2759 
Q 947 2416 947 1791 
Q 947 1169 1205 825 
Q 1463 481 1925 481 
Q 2391 481 2648 825 
Q 2906 1169 2906 1791 
z
M 3481 434 
Q 3481 -459 3084 -895 
Q 2688 -1331 1869 -1331 
Q 1566 -1331 1297 -1286 
Q 1028 -1241 775 -1147 
L 775 -588 
Q 1028 -725 1275 -790 
Q 1522 -856 1778 -856 
Q 2344 -856 2625 -561 
Q 2906 -266 2906 331 
L 2906 616 
Q 2728 306 2450 153 
Q 2172 0 1784 0 
Q 1141 0 747 490 
Q 353 981 353 1791 
Q 353 2603 747 3093 
Q 1141 3584 1784 3584 
Q 2172 3584 2450 3431 
Q 2728 3278 2906 2969 
L 2906 3500 
L 3481 3500 
L 3481 434 
z
" transform="scale(0.015625)"/>
        <path id="DejaVuSans-68" d="M 3513 2113 
L 3513 0 
L 2938 0 
L 2938 2094 
Q 2938 2591 2744 2837 
Q 2550 3084 2163 3084 
Q 1697 3084 1428 2787 
Q 1159 2491 1159 1978 
L 1159 0 
L 581 0 
L 581 4863 
L 1159 4863 
L 1159 2956 
Q 1366 3272 1645 3428 
Q 1925 3584 2291 3584 
Q 2894 3584 3203 3211 
Q 3513 2838 3513 2113 
z
" transform="scale(0.015625)"/>
       </defs>
       <use xlink:href="#DejaVuSans-48"/>
       <use xlink:href="#DejaVuSans-69" x="75.195312"/>
       <use xlink:href="#DejaVuSans-67" x="102.978516"/>
       <use xlink:href="#DejaVuSans-68" x="166.455078"/>
      </g>
     </g>
    </g>
   </g>
   <g id="matplotlib.axis_2">
    <g id="ytick_1">
     <g id="line2d_4">
      <defs>
       <path id="m4156cd0ff5" d="M 0 0 
L -4.8 0 
" style="stroke: #262626"/>
      </defs>
      <g>
       <use xlink:href="#m4156cd0ff5" x="46.068" y="238.804" style="fill: #262626; stroke: #262626"/>
      </g>
     </g>
     <g id="text_4">
      <!-- 0.5 -->
      <g style="fill: #262626" transform="translate(23.77325 242.147312) scale(0.088 -0.088)">
       <defs>
        <path id="DejaVuSans-30" d="M 2034 4250 
Q 1547 4250 1301 3770 
Q 1056 3291 1056 2328 
Q 1056 1369 1301 889 
Q 1547 409 2034 409 
Q 2525 409 2770 889 
Q 3016 1369 3016 2328 
Q 3016 3291 2770 3770 
Q 2525 4250 2034 4250 
z
M 2034 4750 
Q 2819 4750 3233 4129 
Q 3647 3509 3647 2328 
Q 3647 1150 3233 529 
Q 2819 -91 2034 -91 
Q 1250 -91 836 529 
Q 422 1150 422 2328 
Q 422 3509 836 4129 
Q 1250 4750 2034 4750 
z
" transform="scale(0.015625)"/>
        <path id="DejaVuSans-2e" d="M 684 794 
L 1344 794 
L 1344 0 
L 684 0 
L 684 794 
z
" transform="scale(0.015625)"/>
        <path id="DejaVuSans-35" d="M 691 4666 
L 3169 4666 
L 3169 4134 
L 1269 4134 
L 1269 2991 
Q 1406 3038 1543 3061 
Q 1681 3084 1819 3084 
Q 2600 3084 3056 2656 
Q 3513 2228 3513 1497 
Q 3513 744 3044 326 
Q 2575 -91 1722 -91 
Q 1428 -91 1123 -41 
Q 819 9 494 109 
L 494 744 
Q 775 591 1075 516 
Q 1375 441 1709 441 
Q 2250 441 2565 725 
Q 2881 1009 2881 1497 
Q 2881 1984 2565 2268 
Q 2250 2553 1709 2553 
Q 1456 2553 1204 2497 
Q 953 2441 691 2322 
L 691 4666 
z
" transform="scale(0.015625)"/>
       </defs>
       <use xlink:href="#DejaVuSans-30"/>
       <use xlink:href="#DejaVuSans-2e" x="63.623047"/>
       <use xlink:href="#DejaVuSans-35" x="95.410156"/>
      </g>
     </g>
    </g>
    <g id="ytick_2">
     <g id="line2d_5">
      <g>
       <use xlink:href="#m4156cd0ff5" x="46.068" y="202.931333" style="fill: #262626; stroke: #262626"/>
      </g>
     </g>
     <g id="text_5">
      <!-- 0.6 -->
      <g style="fill: #262626" transform="translate(23.77325 206.274646) scale(0.088 -0.088)">
       <defs>
        <path id="DejaVuSans-36" d="M 2113 2584 
Q 1688 2584 1439 2293 
Q 1191 2003 1191 1497 
Q 1191 994 1439 701 
Q 1688 409 2113 409 
Q 2538 409 2786 701 
Q 3034 994 3034 1497 
Q 3034 2003 2786 2293 
Q 2538 2584 2113 2584 
z
M 3366 4563 
L 3366 3988 
Q 3128 4100 2886 4159 
Q 2644 4219 2406 4219 
Q 1781 4219 1451 3797 
Q 1122 3375 1075 2522 
Q 1259 2794 1537 2939 
Q 1816 3084 2150 3084 
Q 2853 3084 3261 2657 
Q 3669 2231 3669 1497 
Q 3669 778 3244 343 
Q 2819 -91 2113 -91 
Q 1303 -91 875 529 
Q 447 1150 447 2328 
Q 447 3434 972 4092 
Q 1497 4750 2381 4750 
Q 2619 4750 2861 4703 
Q 3103 4656 3366 4563 
z
" transform="scale(0.015625)"/>
       </defs>
       <use xlink:href="#DejaVuSans-30"/>
       <use xlink:href="#DejaVuSans-2e" x="63.623047"/>
       <use xlink:href="#DejaVuSans-36" x="95.410156"/>
      </g>
     </g>
    </g>
    <g id="ytick_3">
     <g id="line2d_6">
      <g>
       <use xlink:href="#m4156cd0ff5" x="46.068" y="167.058667" style="fill: #262626; stroke: #262626"/>
      </g>
     </g>
     <g id="text_6">
      <!-- 0.7 -->
      <g style="fill: #262626" transform="translate(23.77325 170.401979) scale(0.088 -0.088)">
       <defs>
        <path id="DejaVuSans-37" d="M 525 4666 
L 3525 4666 
L 3525 4397 
L 1831 0 
L 1172 0 
L 2766 4134 
L 525 4134 
L 525 4666 
z
" transform="scale(0.015625)"/>
       </defs>
       <use xlink:href="#DejaVuSans-30"/>
       <use xlink:href="#DejaVuSans-2e" x="63.623047"/>
       <use xlink:href="#DejaVuSans-37" x="95.410156"/>
      </g>
     </g>
    </g>
    <g id="ytick_4">
     <g id="line2d_7">
      <g>
       <use xlink:href="#m4156cd0ff5" x="46.068" y="131.186" style="fill: #262626; stroke: #262626"/>
      </g>
     </g>
     <g id="text_7">
      <!-- 0.8 -->
      <g style="fill: #262626" transform="translate(23.77325 134.529312) scale(0.088 -0.088)">
       <defs>
        <path id="DejaVuSans-38" d="M 2034 2216 
Q 1584 2216 1326 1975 
Q 1069 1734 1069 1313 
Q 1069 891 1326 650 
Q 1584 409 2034 409 
Q 2484 409 2743 651 
Q 3003 894 3003 1313 
Q 3003 1734 2745 1975 
Q 2488 2216 2034 2216 
z
M 1403 2484 
Q 997 2584 770 2862 
Q 544 3141 544 3541 
Q 544 4100 942 4425 
Q 1341 4750 2034 4750 
Q 2731 4750 3128 4425 
Q 3525 4100 3525 3541 
Q 3525 3141 3298 2862 
Q 3072 2584 2669 2484 
Q 3125 2378 3379 2068 
Q 3634 1759 3634 1313 
Q 3634 634 3220 271 
Q 2806 -91 2034 -91 
Q 1263 -91 848 271 
Q 434 634 434 1313 
Q 434 1759 690 2068 
Q 947 2378 1403 2484 
z
M 1172 3481 
Q 1172 3119 1398 2916 
Q 1625 2713 2034 2713 
Q 2441 2713 2670 2916 
Q 2900 3119 2900 3481 
Q 2900 3844 2670 4047 
Q 2441 4250 2034 4250 
Q 1625 4250 1398 4047 
Q 1172 3844 1172 3481 
z
" transform="scale(0.015625)"/>
       </defs>
       <use xlink:href="#DejaVuSans-30"/>
       <use xlink:href="#DejaVuSans-2e" x="63.623047"/>
       <use xlink:href="#DejaVuSans-38" x="95.410156"/>
      </g>
     </g>
    </g>
    <g id="ytick_5">
     <g id="line2d_8">
      <g>
       <use xlink:href="#m4156cd0ff5" x="46.068" y="95.313333" style="fill: #262626; stroke: #262626"/>
      </g>
     </g>
     <g id="text_8">
      <!-- 0.9 -->
      <g style="fill: #262626" transform="translate(23.77325 98.656646) scale(0.088 -0.088)">
       <defs>
        <path id="DejaVuSans-39" d="M 703 97 
L 703 672 
Q 941 559 1184 500 
Q 1428 441 1663 441 
Q 2288 441 2617 861 
Q 2947 1281 2994 2138 
Q 2813 1869 2534 1725 
Q 2256 1581 1919 1581 
Q 1219 1581 811 2004 
Q 403 2428 403 3163 
Q 403 3881 828 4315 
Q 1253 4750 1959 4750 
Q 2769 4750 3195 4129 
Q 3622 3509 3622 2328 
Q 3622 1225 3098 567 
Q 2575 -91 1691 -91 
Q 1453 -91 1209 -44 
Q 966 3 703 97 
z
M 1959 2075 
Q 2384 2075 2632 2365 
Q 2881 2656 2881 3163 
Q 2881 3666 2632 3958 
Q 2384 4250 1959 4250 
Q 1534 4250 1286 3958 
Q 1038 3666 1038 3163 
Q 1038 2656 1286 2365 
Q 1534 2075 1959 2075 
z
" transform="scale(0.015625)"/>
       </defs>
       <use xlink:href="#DejaVuSans-30"/>
       <use xlink:href="#DejaVuSans-2e" x="63.623047"/>
       <use xlink:href="#DejaVuSans-39" x="95.410156"/>
      </g>
     </g>
    </g>
    <g id="ytick_6">
     <g id="line2d_9">
      <g>
       <use xlink:href="#m4156cd0ff5" x="46.068" y="59.440667" style="fill: #262626; stroke: #262626"/>
      </g>
     </g>
     <g id="text_9">
      <!-- 1.0 -->
      <g style="fill: #262626" transform="translate(23.77325 62.783979) scale(0.088 -0.088)">
       <defs>
        <path id="DejaVuSans-31" d="M 794 531 
L 1825 531 
L 1825 4091 
L 703 3866 
L 703 4441 
L 1819 4666 
L 2450 4666 
L 2450 531 
L 3481 531 
L 3481 0 
L 794 0 
L 794 531 
z
" transform="scale(0.015625)"/>
       </defs>
       <use xlink:href="#DejaVuSans-31"/>
       <use xlink:href="#DejaVuSans-2e" x="63.623047"/>
       <use xlink:href="#DejaVuSans-30" x="95.410156"/>
      </g>
     </g>
    </g>
    <g id="ytick_7">
     <g id="line2d_10">
      <g>
       <use xlink:href="#m4156cd0ff5" x="46.068" y="23.568" style="fill: #262626; stroke: #262626"/>
      </g>
     </g>
     <g id="text_10">
      <!-- 1.1 -->
      <g style="fill: #262626" transform="translate(23.77325 26.911313) scale(0.088 -0.088)">
       <use xlink:href="#DejaVuSans-31"/>
       <use xlink:href="#DejaVuSans-2e" x="63.623047"/>
       <use xlink:href="#DejaVuSans-31" x="95.410156"/>
      </g>
     </g>
    </g>
    <g id="text_11">
     <!-- Probability of correct response -->
     <g style="fill: #262626" transform="translate(17.77675 204.36575) rotate(-90) scale(0.096 -0.096)">
      <defs>
       <path id="DejaVuSans-50" d="M 1259 4147 
L 1259 2394 
L 2053 2394 
Q 2494 2394 2734 2622 
Q 2975 2850 2975 3272 
Q 2975 3691 2734 3919 
Q 2494 4147 2053 4147 
L 1259 4147 
z
M 628 4666 
L 2053 4666 
Q 2838 4666 3239 4311 
Q 3641 3956 3641 3272 
Q 3641 2581 3239 2228 
Q 2838 1875 2053 1875 
L 1259 1875 
L 1259 0 
L 628 0 
L 628 4666 
z
" transform="scale(0.015625)"/>
       <path id="DejaVuSans-72" d="M 2631 2963 
Q 2534 3019 2420 3045 
Q 2306 3072 2169 3072 
Q 1681 3072 1420 2755 
Q 1159 2438 1159 1844 
L 1159 0 
L 581 0 
L 581 3500 
L 1159 3500 
L 1159 2956 
Q 1341 3275 1631 3429 
Q 1922 3584 2338 3584 
Q 2397 3584 2469 3576 
Q 2541 3569 2628 3553 
L 2631 2963 
z
" transform="scale(0.015625)"/>
       <path id="DejaVuSans-62" d="M 3116 1747 
Q 3116 2381 2855 2742 
Q 2594 3103 2138 3103 
Q 1681 3103 1420 2742 
Q 1159 2381 1159 1747 
Q 1159 1113 1420 752 
Q 1681 391 2138 391 
Q 2594 391 2855 752 
Q 3116 1113 3116 1747 
z
M 1159 2969 
Q 1341 3281 1617 3432 
Q 1894 3584 2278 3584 
Q 2916 3584 3314 3078 
Q 3713 2572 3713 1747 
Q 3713 922 3314 415 
Q 2916 -91 2278 -91 
Q 1894 -91 1617 61 
Q 1341 213 1159 525 
L 1159 0 
L 581 0 
L 581 4863 
L 1159 4863 
L 1159 2969 
z
" transform="scale(0.015625)"/>
       <path id="DejaVuSans-61" d="M 2194 1759 
Q 1497 1759 1228 1600 
Q 959 1441 959 1056 
Q 959 750 1161 570 
Q 1363 391 1709 391 
Q 2188 391 2477 730 
Q 2766 1069 2766 1631 
L 2766 1759 
L 2194 1759 
z
M 3341 1997 
L 3341 0 
L 2766 0 
L 2766 531 
Q 2569 213 2275 61 
Q 1981 -91 1556 -91 
Q 1019 -91 701 211 
Q 384 513 384 1019 
Q 384 1609 779 1909 
Q 1175 2209 1959 2209 
L 2766 2209 
L 2766 2266 
Q 2766 2663 2505 2880 
Q 2244 3097 1772 3097 
Q 1472 3097 1187 3025 
Q 903 2953 641 2809 
L 641 3341 
Q 956 3463 1253 3523 
Q 1550 3584 1831 3584 
Q 2591 3584 2966 3190 
Q 3341 2797 3341 1997 
z
" transform="scale(0.015625)"/>
       <path id="DejaVuSans-6c" d="M 603 4863 
L 1178 4863 
L 1178 0 
L 603 0 
L 603 4863 
z
" transform="scale(0.015625)"/>
       <path id="DejaVuSans-74" d="M 1172 4494 
L 1172 3500 
L 2356 3500 
L 2356 3053 
L 1172 3053 
L 1172 1153 
Q 1172 725 1289 603 
Q 1406 481 1766 481 
L 2356 481 
L 2356 0 
L 1766 0 
Q 1100 0 847 248 
Q 594 497 594 1153 
L 594 3053 
L 172 3053 
L 172 3500 
L 594 3500 
L 594 4494 
L 1172 4494 
z
" transform="scale(0.015625)"/>
       <path id="DejaVuSans-79" d="M 2059 -325 
Q 1816 -950 1584 -1140 
Q 1353 -1331 966 -1331 
L 506 -1331 
L 506 -850 
L 844 -850 
Q 1081 -850 1212 -737 
Q 1344 -625 1503 -206 
L 1606 56 
L 191 3500 
L 800 3500 
L 1894 763 
L 2988 3500 
L 3597 3500 
L 2059 -325 
z
" transform="scale(0.015625)"/>
       <path id="DejaVuSans-20" transform="scale(0.015625)"/>
       <path id="DejaVuSans-66" d="M 2375 4863 
L 2375 4384 
L 1825 4384 
Q 1516 4384 1395 4259 
Q 1275 4134 1275 3809 
L 1275 3500 
L 2222 3500 
L 2222 3053 
L 1275 3053 
L 1275 0 
L 697 0 
L 697 3053 
L 147 3053 
L 147 3500 
L 697 3500 
L 697 3744 
Q 697 4328 969 4595 
Q 1241 4863 1831 4863 
L 2375 4863 
z
" transform="scale(0.015625)"/>
       <path id="DejaVuSans-63" d="M 3122 3366 
L 3122 2828 
Q 2878 2963 2633 3030 
Q 2388 3097 2138 3097 
Q 1578 3097 1268 2742 
Q 959 2388 959 1747 
Q 959 1106 1268 751 
Q 1578 397 2138 397 
Q 2388 397 2633 464 
Q 2878 531 3122 666 
L 3122 134 
Q 2881 22 2623 -34 
Q 2366 -91 2075 -91 
Q 1284 -91 818 406 
Q 353 903 353 1747 
Q 353 2603 823 3093 
Q 1294 3584 2113 3584 
Q 2378 3584 2631 3529 
Q 2884 3475 3122 3366 
z
" transform="scale(0.015625)"/>
       <path id="DejaVuSans-73" d="M 2834 3397 
L 2834 2853 
Q 2591 2978 2328 3040 
Q 2066 3103 1784 3103 
Q 1356 3103 1142 2972 
Q 928 2841 928 2578 
Q 928 2378 1081 2264 
Q 1234 2150 1697 2047 
L 1894 2003 
Q 2506 1872 2764 1633 
Q 3022 1394 3022 966 
Q 3022 478 2636 193 
Q 2250 -91 1575 -91 
Q 1294 -91 989 -36 
Q 684 19 347 128 
L 347 722 
Q 666 556 975 473 
Q 1284 391 1588 391 
Q 1994 391 2212 530 
Q 2431 669 2431 922 
Q 2431 1156 2273 1281 
Q 2116 1406 1581 1522 
L 1381 1569 
Q 847 1681 609 1914 
Q 372 2147 372 2553 
Q 372 3047 722 3315 
Q 1072 3584 1716 3584 
Q 2034 3584 2315 3537 
Q 2597 3491 2834 3397 
z
" transform="scale(0.015625)"/>
       <path id="DejaVuSans-70" d="M 1159 525 
L 1159 -1331 
L 581 -1331 
L 581 3500 
L 1159 3500 
L 1159 2969 
Q 1341 3281 1617 3432 
Q 1894 3584 2278 3584 
Q 2916 3584 3314 3078 
Q 3713 2572 3713 1747 
Q 3713 922 3314 415 
Q 2916 -91 2278 -91 
Q 1894 -91 1617 61 
Q 1341 213 1159 525 
z
M 3116 1747 
Q 3116 2381 2855 2742 
Q 2594 3103 2138 3103 
Q 1681 3103 1420 2742 
Q 1159 2381 1159 1747 
Q 1159 1113 1420 752 
Q 1681 391 2138 391 
Q 2594 391 2855 752 
Q 3116 1113 3116 1747 
z
" transform="scale(0.015625)"/>
       <path id="DejaVuSans-6e" d="M 3513 2113 
L 3513 0 
L 2938 0 
L 2938 2094 
Q 2938 2591 2744 2837 
Q 2550 3084 2163 3084 
Q 1697 3084 1428 2787 
Q 1159 2491 1159 1978 
L 1159 0 
L 581 0 
L 581 3500 
L 1159 3500 
L 1159 2956 
Q 1366 3272 1645 3428 
Q 1925 3584 2291 3584 
Q 2894 3584 3203 3211 
Q 3513 2838 3513 2113 
z
" transform="scale(0.015625)"/>
      </defs>
      <use xlink:href="#DejaVuSans-50"/>
      <use xlink:href="#DejaVuSans-72" x="58.552734"/>
      <use xlink:href="#DejaVuSans-6f" x="97.416016"/>
      <use xlink:href="#DejaVuSans-62" x="158.597656"/>
      <use xlink:href="#DejaVuSans-61" x="222.074219"/>
      <use xlink:href="#DejaVuSans-62" x="283.353516"/>
      <use xlink:href="#DejaVuSans-69" x="346.830078"/>
      <use xlink:href="#DejaVuSans-6c" x="374.613281"/>
      <use xlink:href="#DejaVuSans-69" x="402.396484"/>
      <use xlink:href="#DejaVuSans-74" x="430.179688"/>
      <use xlink:href="#DejaVuSans-79" x="469.388672"/>
      <use xlink:href="#DejaVuSans-20" x="528.568359"/>
      <use xlink:href="#DejaVuSans-6f" x="560.355469"/>
      <use xlink:href="#DejaVuSans-66" x="621.537109"/>
      <use xlink:href="#DejaVuSans-20" x="656.742188"/>
      <use xlink:href="#DejaVuSans-63" x="688.529297"/>
      <use xlink:href="#DejaVuSans-6f" x="743.509766"/>
      <use xlink:href="#DejaVuSans-72" x="804.691406"/>
      <use xlink:href="#DejaVuSans-72" x="844.054688"/>
      <use xlink:href="#DejaVuSans-65" x="882.917969"/>
      <use xlink:href="#DejaVuSans-63" x="944.441406"/>
      <use xlink:href="#DejaVuSans-74" x="999.421875"/>
      <use xlink:href="#DejaVuSans-20" x="1038.630859"/>
      <use xlink:href="#DejaVuSans-72" x="1070.417969"/>
      <use xlink:href="#DejaVuSans-65" x="1109.28125"/>
      <use xlink:href="#DejaVuSans-73" x="1170.804688"/>
      <use xlink:href="#DejaVuSans-70" x="1222.904297"/>
      <use xlink:href="#DejaVuSans-6f" x="1286.380859"/>
      <use xlink:href="#DejaVuSans-6e" x="1347.5625"/>
      <use xlink:href="#DejaVuSans-73" x="1410.941406"/>
      <use xlink:href="#DejaVuSans-65" x="1463.041016"/>
     </g>
    </g>
   </g>
   <g id="PolyCollection_1">
    <defs>
     <path id="md29f5a7ba1" d="M 98.117538 -139.538711 
L 82.451527 -139.538711 
L 82.282311 -140.100839 
L 82.112859 -140.662967 
L 81.942006 -141.225096 
L 81.768477 -141.787224 
L 81.590905 -142.349352 
L 81.407845 -142.911481 
L 81.217797 -143.473609 
L 81.019222 -144.035737 
L 80.810566 -144.597865 
L 80.590286 -145.159994 
L 80.356865 -145.722122 
L 80.108848 -146.28425 
L 79.844854 -146.846379 
L 79.563609 -147.408507 
L 79.263961 -147.970635 
L 78.944906 -148.532763 
L 78.605604 -149.094892 
L 78.245396 -149.65702 
L 77.863823 -150.219148 
L 77.460632 -150.781277 
L 77.035786 -151.343405 
L 76.589473 -151.905533 
L 76.122105 -152.467661 
L 75.634316 -153.02979 
L 75.126962 -153.591918 
L 74.601108 -154.154046 
L 74.05802 -154.716175 
L 73.499151 -155.278303 
L 72.926122 -155.840431 
L 72.340705 -156.402559 
L 71.744803 -156.964688 
L 71.140426 -157.526816 
L 70.529665 -158.088944 
L 69.914672 -158.651072 
L 69.297631 -159.213201 
L 68.680737 -159.775329 
L 68.066169 -160.337457 
L 67.456071 -160.899586 
L 66.852526 -161.461714 
L 66.25754 -162.023842 
L 65.673025 -162.58597 
L 65.10078 -163.148099 
L 64.542486 -163.710227 
L 63.999689 -164.272355 
L 63.473799 -164.834484 
L 62.966084 -165.396612 
L 62.477667 -165.95874 
L 62.009534 -166.520868 
L 61.56253 -167.082997 
L 61.137373 -167.645125 
L 60.734655 -168.207253 
L 60.354859 -168.769382 
L 59.998365 -169.33151 
L 59.665465 -169.893638 
L 59.356373 -170.455766 
L 59.071242 -171.017895 
L 58.810175 -171.580023 
L 58.573234 -172.142151 
L 58.36046 -172.70428 
L 58.171873 -173.266408 
L 58.007493 -173.828536 
L 57.867338 -174.390664 
L 57.751438 -174.952793 
L 57.659837 -175.514921 
L 57.592597 -176.077049 
L 57.549799 -176.639178 
L 57.531545 -177.201306 
L 57.537957 -177.763434 
L 57.569172 -178.325562 
L 57.625341 -178.887691 
L 57.706621 -179.449819 
L 57.813174 -180.011947 
L 57.945156 -180.574076 
L 58.102712 -181.136204 
L 58.285968 -181.698332 
L 58.495025 -182.26046 
L 58.729948 -182.822589 
L 58.990761 -183.384717 
L 59.27744 -183.946845 
L 59.589904 -184.508973 
L 59.92801 -185.071102 
L 60.291548 -185.63323 
L 60.680232 -186.195358 
L 61.093698 -186.757487 
L 61.531501 -187.319615 
L 61.993109 -187.881743 
L 62.477902 -188.443871 
L 62.985171 -189.006 
L 63.514114 -189.568128 
L 64.063841 -190.130256 
L 64.63337 -190.692385 
L 65.221629 -191.254513 
L 65.827461 -191.816641 
L 66.449625 -192.378769 
L 67.086801 -192.940898 
L 67.737593 -193.503026 
L 68.400537 -194.065154 
L 69.074106 -194.627283 
L 69.756715 -195.189411 
L 110.81235 -195.189411 
L 110.81235 -195.189411 
L 111.494959 -194.627283 
L 112.168528 -194.065154 
L 112.831472 -193.503026 
L 113.482264 -192.940898 
L 114.11944 -192.378769 
L 114.741604 -191.816641 
L 115.347436 -191.254513 
L 115.935695 -190.692385 
L 116.505224 -190.130256 
L 117.054951 -189.568128 
L 117.583894 -189.006 
L 118.091163 -188.443871 
L 118.575956 -187.881743 
L 119.037564 -187.319615 
L 119.475367 -186.757487 
L 119.888833 -186.195358 
L 120.277517 -185.63323 
L 120.641055 -185.071102 
L 120.979161 -184.508973 
L 121.291625 -183.946845 
L 121.578304 -183.384717 
L 121.839117 -182.822589 
L 122.07404 -182.26046 
L 122.283097 -181.698332 
L 122.466353 -181.136204 
L 122.623909 -180.574076 
L 122.755891 -180.011947 
L 122.862444 -179.449819 
L 122.943724 -178.887691 
L 122.999893 -178.325562 
L 123.031108 -177.763434 
L 123.037519 -177.201306 
L 123.019266 -176.639178 
L 122.976468 -176.077049 
L 122.909228 -175.514921 
L 122.817627 -174.952793 
L 122.701727 -174.390664 
L 122.561572 -173.828536 
L 122.397192 -173.266408 
L 122.208605 -172.70428 
L 121.99583 -172.142151 
L 121.75889 -171.580023 
L 121.497823 -171.017895 
L 121.212692 -170.455766 
L 120.9036 -169.893638 
L 120.5707 -169.33151 
L 120.214206 -168.769382 
L 119.83441 -168.207253 
L 119.431692 -167.645125 
L 119.006535 -167.082997 
L 118.559531 -166.520868 
L 118.091398 -165.95874 
L 117.602981 -165.396612 
L 117.095266 -164.834484 
L 116.569376 -164.272355 
L 116.026579 -163.710227 
L 115.468285 -163.148099 
L 114.89604 -162.58597 
L 114.311525 -162.023842 
L 113.716539 -161.461714 
L 113.112994 -160.899586 
L 112.502896 -160.337457 
L 111.888328 -159.775329 
L 111.271434 -159.213201 
L 110.654393 -158.651072 
L 110.0394 -158.088944 
L 109.428639 -157.526816 
L 108.824261 -156.964688 
L 108.22836 -156.402559 
L 107.642943 -155.840431 
L 107.069914 -155.278303 
L 106.511044 -154.716175 
L 105.967957 -154.154046 
L 105.442103 -153.591918 
L 104.934748 -153.02979 
L 104.44696 -152.467661 
L 103.979592 -151.905533 
L 103.533279 -151.343405 
L 103.108433 -150.781277 
L 102.705242 -150.219148 
L 102.323669 -149.65702 
L 101.963461 -149.094892 
L 101.624159 -148.532763 
L 101.305104 -147.970635 
L 101.005456 -147.408507 
L 100.724211 -146.846379 
L 100.460217 -146.28425 
L 100.2122 -145.722122 
L 99.978779 -145.159994 
L 99.758498 -144.597865 
L 99.549843 -144.035737 
L 99.351268 -143.473609 
L 99.16122 -142.911481 
L 98.97816 -142.349352 
L 98.800588 -141.787224 
L 98.627059 -141.225096 
L 98.456206 -140.662967 
L 98.286754 -140.100839 
L 98.117538 -139.538711 
z
" style="stroke: #2f2f2f"/>
    </defs>
    <g clip-path="url(#pb1c5b593a2)">
     <use xlink:href="#md29f5a7ba1" x="0" y="288" style="fill: #58b2a3; stroke: #2f2f2f"/>
    </g>
   </g>
   <g id="PolyCollection_2">
    <defs>
     <path id="m84228c5d67" d="M 190.95836 -145.504391 
L 153.37564 -145.504391 
L 152.831836 -146.053075 
L 152.293558 -146.601759 
L 151.761862 -147.150443 
L 151.237792 -147.699127 
L 150.722366 -148.247812 
L 150.216578 -148.796496 
L 149.721386 -149.34518 
L 149.237713 -149.893864 
L 148.766438 -150.442548 
L 148.308393 -150.991232 
L 147.864361 -151.539917 
L 147.435063 -152.088601 
L 147.021167 -152.637285 
L 146.62327 -153.185969 
L 146.241906 -153.734653 
L 145.877536 -154.283337 
L 145.530549 -154.832021 
L 145.201255 -155.380706 
L 144.889888 -155.92939 
L 144.596601 -156.478074 
L 144.321464 -157.026758 
L 144.064467 -157.575442 
L 143.825516 -158.124126 
L 143.604435 -158.672811 
L 143.400965 -159.221495 
L 143.214766 -159.770179 
L 143.045419 -160.318863 
L 142.892426 -160.867547 
L 142.755214 -161.416231 
L 142.63314 -161.964916 
L 142.525488 -162.5136 
L 142.431482 -163.062284 
L 142.350282 -163.610968 
L 142.280992 -164.159652 
L 142.22267 -164.708336 
L 142.174325 -165.25702 
L 142.13493 -165.805705 
L 142.103427 -166.354389 
L 142.07873 -166.903073 
L 142.059741 -167.451757 
L 142.045347 -168.000441 
L 142.034437 -168.549125 
L 142.025904 -169.09781 
L 142.018659 -169.646494 
L 142.011634 -170.195178 
L 142.003793 -170.743862 
L 141.994143 -171.292546 
L 141.981738 -171.84123 
L 141.965692 -172.389914 
L 141.945185 -172.938599 
L 141.919471 -173.487283 
L 141.887889 -174.035967 
L 141.849867 -174.584651 
L 141.80493 -175.133335 
L 141.752709 -175.682019 
L 141.692944 -176.230704 
L 141.62549 -176.779388 
L 141.550322 -177.328072 
L 141.467541 -177.876756 
L 141.37737 -178.42544 
L 141.280165 -178.974124 
L 141.176408 -179.522809 
L 141.066708 -180.071493 
L 140.951806 -180.620177 
L 140.832562 -181.168861 
L 140.709959 -181.717545 
L 140.585096 -182.266229 
L 140.45918 -182.814913 
L 140.333519 -183.363598 
L 140.209517 -183.912282 
L 140.08866 -184.460966 
L 139.972506 -185.00965 
L 139.862677 -185.558334 
L 139.760843 -186.107018 
L 139.66871 -186.655703 
L 139.588005 -187.204387 
L 139.520466 -187.753071 
L 139.467822 -188.301755 
L 139.43178 -188.850439 
L 139.414013 -189.399123 
L 139.41614 -189.947807 
L 139.439715 -190.496492 
L 139.48621 -191.045176 
L 139.557006 -191.59386 
L 139.653374 -192.142544 
L 139.776465 -192.691228 
L 139.927301 -193.239912 
L 140.106761 -193.788597 
L 140.315574 -194.337281 
L 140.554311 -194.885965 
L 140.82338 -195.434649 
L 141.123018 -195.983333 
L 141.453288 -196.532017 
L 141.814081 -197.080702 
L 142.205112 -197.629386 
L 142.625921 -198.17807 
L 143.075879 -198.726754 
L 143.554189 -199.275438 
L 144.059893 -199.824122 
L 200.274107 -199.824122 
L 200.274107 -199.824122 
L 200.779811 -199.275438 
L 201.258121 -198.726754 
L 201.708079 -198.17807 
L 202.128888 -197.629386 
L 202.519919 -197.080702 
L 202.880712 -196.532017 
L 203.210982 -195.983333 
L 203.51062 -195.434649 
L 203.779689 -194.885965 
L 204.018426 -194.337281 
L 204.227239 -193.788597 
L 204.406699 -193.239912 
L 204.557535 -192.691228 
L 204.680626 -192.142544 
L 204.776994 -191.59386 
L 204.84779 -191.045176 
L 204.894285 -190.496492 
L 204.91786 -189.947807 
L 204.919987 -189.399123 
L 204.90222 -188.850439 
L 204.866178 -188.301755 
L 204.813534 -187.753071 
L 204.745995 -187.204387 
L 204.66529 -186.655703 
L 204.573157 -186.107018 
L 204.471323 -185.558334 
L 204.361494 -185.00965 
L 204.24534 -184.460966 
L 204.124483 -183.912282 
L 204.000481 -183.363598 
L 203.87482 -182.814913 
L 203.748904 -182.266229 
L 203.624041 -181.717545 
L 203.501438 -181.168861 
L 203.382194 -180.620177 
L 203.267292 -180.071493 
L 203.157592 -179.522809 
L 203.053835 -178.974124 
L 202.95663 -178.42544 
L 202.866459 -177.876756 
L 202.783678 -177.328072 
L 202.70851 -176.779388 
L 202.641056 -176.230704 
L 202.581291 -175.682019 
L 202.52907 -175.133335 
L 202.484133 -174.584651 
L 202.446111 -174.035967 
L 202.414529 -173.487283 
L 202.388815 -172.938599 
L 202.368308 -172.389914 
L 202.352262 -171.84123 
L 202.339857 -171.292546 
L 202.330207 -170.743862 
L 202.322366 -170.195178 
L 202.315341 -169.646494 
L 202.308096 -169.09781 
L 202.299563 -168.549125 
L 202.288653 -168.000441 
L 202.274259 -167.451757 
L 202.25527 -166.903073 
L 202.230573 -166.354389 
L 202.19907 -165.805705 
L 202.159675 -165.25702 
L 202.11133 -164.708336 
L 202.053008 -164.159652 
L 201.983718 -163.610968 
L 201.902518 -163.062284 
L 201.808512 -162.5136 
L 201.70086 -161.964916 
L 201.578786 -161.416231 
L 201.441574 -160.867547 
L 201.288581 -160.318863 
L 201.119234 -159.770179 
L 200.933035 -159.221495 
L 200.729565 -158.672811 
L 200.508484 -158.124126 
L 200.269533 -157.575442 
L 200.012536 -157.026758 
L 199.737399 -156.478074 
L 199.444112 -155.92939 
L 199.132745 -155.380706 
L 198.803451 -154.832021 
L 198.456464 -154.283337 
L 198.092094 -153.734653 
L 197.71073 -153.185969 
L 197.312833 -152.637285 
L 196.898937 -152.088601 
L 196.469639 -151.539917 
L 196.025607 -150.991232 
L 195.567562 -150.442548 
L 195.096287 -149.893864 
L 194.612614 -149.34518 
L 194.117422 -148.796496 
L 193.611634 -148.247812 
L 193.096208 -147.699127 
L 192.572138 -147.150443 
L 192.040442 -146.601759 
L 191.502164 -146.053075 
L 190.95836 -145.504391 
z
" style="stroke: #2f2f2f"/>
    </defs>
    <g clip-path="url(#pb1c5b593a2)">
     <use xlink:href="#m84228c5d67" x="0" y="288" style="fill: #437695; stroke: #2f2f2f"/>
    </g>
   </g>
   <g id="PolyCollection_3">
    <defs>
     <path id="m4c692b3d05" d="M 271.047396 -150.996811 
L 237.051539 -150.996811 
L 236.691222 -151.549207 
L 236.345706 -152.101603 
L 236.015129 -152.653999 
L 235.699466 -153.206395 
L 235.398527 -153.758791 
L 235.111954 -154.311186 
L 234.83923 -154.863582 
L 234.579678 -155.415978 
L 234.332471 -155.968374 
L 234.096641 -156.52077 
L 233.871091 -157.073166 
L 233.654603 -157.625562 
L 233.445859 -158.177958 
L 233.243452 -158.730354 
L 233.045903 -159.28275 
L 232.851685 -159.835146 
L 232.659236 -160.387542 
L 232.466983 -160.939938 
L 232.27336 -161.492334 
L 232.076833 -162.04473 
L 231.875916 -162.597126 
L 231.669194 -163.149522 
L 231.455344 -163.701918 
L 231.233152 -164.254314 
L 231.001534 -164.80671 
L 230.759549 -165.359105 
L 230.50642 -165.911501 
L 230.241544 -166.463897 
L 229.964506 -167.016293 
L 229.675086 -167.568689 
L 229.373271 -168.121085 
L 229.059259 -168.673481 
L 228.733459 -169.225877 
L 228.396496 -169.778273 
L 228.049207 -170.330669 
L 227.692636 -170.883065 
L 227.328029 -171.435461 
L 226.956823 -171.987857 
L 226.580635 -172.540253 
L 226.201245 -173.092649 
L 225.820587 -173.645045 
L 225.440725 -174.197441 
L 225.063834 -174.749837 
L 224.692181 -175.302233 
L 224.328102 -175.854628 
L 223.973979 -176.407024 
L 223.632213 -176.95942 
L 223.305207 -177.511816 
L 222.995333 -178.064212 
L 222.704914 -178.616608 
L 222.436199 -179.169004 
L 222.19134 -179.7214 
L 221.972369 -180.273796 
L 221.781182 -180.826192 
L 221.619517 -181.378588 
L 221.488938 -181.930984 
L 221.390823 -182.48338 
L 221.326348 -183.035776 
L 221.296481 -183.588172 
L 221.301971 -184.140568 
L 221.343347 -184.692964 
L 221.420913 -185.24536 
L 221.534749 -185.797756 
L 221.684714 -186.350151 
L 221.870452 -186.902547 
L 222.091397 -187.454943 
L 222.346787 -188.007339 
L 222.635672 -188.559735 
L 222.956927 -189.112131 
L 223.309271 -189.664527 
L 223.691279 -190.216923 
L 224.101401 -190.769319 
L 224.537982 -191.321715 
L 224.999275 -191.874111 
L 225.483466 -192.426507 
L 225.988689 -192.978903 
L 226.513044 -193.531299 
L 227.054616 -194.083695 
L 227.611492 -194.636091 
L 228.181778 -195.188487 
L 228.763611 -195.740883 
L 229.355173 -196.293279 
L 229.954705 -196.845674 
L 230.560518 -197.39807 
L 231.170996 -197.950466 
L 231.784613 -198.502862 
L 232.399928 -199.055258 
L 233.015596 -199.607654 
L 233.630369 -200.16005 
L 234.243095 -200.712446 
L 234.852717 -201.264842 
L 235.458276 -201.817238 
L 236.058902 -202.369634 
L 236.653814 -202.92203 
L 237.242312 -203.474426 
L 237.823775 -204.026822 
L 238.397653 -204.579218 
L 238.96346 -205.131614 
L 239.520769 -205.68401 
L 268.578167 -205.68401 
L 268.578167 -205.68401 
L 269.135475 -205.131614 
L 269.701282 -204.579218 
L 270.27516 -204.026822 
L 270.856623 -203.474426 
L 271.445121 -202.92203 
L 272.040033 -202.369634 
L 272.640659 -201.817238 
L 273.246218 -201.264842 
L 273.85584 -200.712446 
L 274.468566 -200.16005 
L 275.083339 -199.607654 
L 275.699007 -199.055258 
L 276.314322 -198.502862 
L 276.927939 -197.950466 
L 277.538418 -197.39807 
L 278.14423 -196.845674 
L 278.743762 -196.293279 
L 279.335324 -195.740883 
L 279.917157 -195.188487 
L 280.487443 -194.636091 
L 281.044319 -194.083695 
L 281.585891 -193.531299 
L 282.110246 -192.978903 
L 282.615469 -192.426507 
L 283.09966 -191.874111 
L 283.560953 -191.321715 
L 283.997534 -190.769319 
L 284.407656 -190.216923 
L 284.789664 -189.664527 
L 285.142008 -189.112131 
L 285.463263 -188.559735 
L 285.752148 -188.007339 
L 286.007538 -187.454943 
L 286.228483 -186.902547 
L 286.414221 -186.350151 
L 286.564186 -185.797756 
L 286.678022 -185.24536 
L 286.755588 -184.692964 
L 286.796964 -184.140568 
L 286.802455 -183.588172 
L 286.772587 -183.035776 
L 286.708112 -182.48338 
L 286.609997 -181.930984 
L 286.479418 -181.378588 
L 286.317753 -180.826192 
L 286.126566 -180.273796 
L 285.907595 -179.7214 
L 285.662736 -179.169004 
L 285.394021 -178.616608 
L 285.103602 -178.064212 
L 284.793728 -177.511816 
L 284.466722 -176.95942 
L 284.124957 -176.407024 
L 283.770833 -175.854628 
L 283.406754 -175.302233 
L 283.035101 -174.749837 
L 282.65821 -174.197441 
L 282.278348 -173.645045 
L 281.89769 -173.092649 
L 281.518301 -172.540253 
L 281.142112 -171.987857 
L 280.770906 -171.435461 
L 280.406299 -170.883065 
L 280.049728 -170.330669 
L 279.702439 -169.778273 
L 279.365476 -169.225877 
L 279.039676 -168.673481 
L 278.725664 -168.121085 
L 278.423849 -167.568689 
L 278.134429 -167.016293 
L 277.857391 -166.463897 
L 277.592515 -165.911501 
L 277.339386 -165.359105 
L 277.097402 -164.80671 
L 276.865783 -164.254314 
L 276.643591 -163.701918 
L 276.429741 -163.149522 
L 276.223019 -162.597126 
L 276.022102 -162.04473 
L 275.825575 -161.492334 
L 275.631952 -160.939938 
L 275.439699 -160.387542 
L 275.24725 -159.835146 
L 275.053032 -159.28275 
L 274.855483 -158.730354 
L 274.653076 -158.177958 
L 274.444332 -157.625562 
L 274.227844 -157.073166 
L 274.002294 -156.52077 
L 273.766465 -155.968374 
L 273.519258 -155.415978 
L 273.259705 -154.863582 
L 272.986981 -154.311186 
L 272.700408 -153.758791 
L 272.399469 -153.206395 
L 272.083806 -152.653999 
L 271.753229 -152.101603 
L 271.407713 -151.549207 
L 271.047396 -150.996811 
z
" style="stroke: #2f2f2f"/>
    </defs>
    <g clip-path="url(#pb1c5b593a2)">
     <use xlink:href="#m4c692b3d05" x="0" y="288" style="fill: #423b63; stroke: #2f2f2f"/>
    </g>
   </g>
   <g id="line2d_11">
    <path d="M 90.284532 148.461289 
L 90.284532 92.810589 
" clip-path="url(#pb1c5b593a2)" style="fill: none; stroke: #2f2f2f; stroke-width: 1.5; stroke-linecap: round"/>
   </g>
   <g id="line2d_12">
    <path d="M 90.284532 123.234842 
L 90.284532 105.23556 
" clip-path="url(#pb1c5b593a2)" style="fill: none; stroke: #2f2f2f; stroke-width: 4.5; stroke-linecap: round"/>
   </g>
   <g id="line2d_13">
    <path d="M 90.284532 109.80377 
" clip-path="url(#pb1c5b593a2)" style="fill: none; stroke: #2f2f2f; stroke-width: 1.2; stroke-linecap: round"/>
    <defs>
     <path id="m712f0ada1b" d="M 1.875 0 
L -1.875 -0 
" style="stroke: #ffffff; stroke-width: 0.9"/>
    </defs>
    <g clip-path="url(#pb1c5b593a2)">
     <use xlink:href="#m712f0ada1b" x="90.284532" y="109.80377" style="fill: #ffffff; stroke: #ffffff; stroke-width: 0.9"/>
    </g>
   </g>
   <g id="line2d_14">
    <path d="M 172.167 142.495609 
L 172.167 88.175878 
" clip-path="url(#pb1c5b593a2)" style="fill: none; stroke: #2f2f2f; stroke-width: 1.5; stroke-linecap: round"/>
   </g>
   <g id="line2d_15">
    <path d="M 172.167 129.41451 
L 172.167 96.649018 
" clip-path="url(#pb1c5b593a2)" style="fill: none; stroke: #2f2f2f; stroke-width: 4.5; stroke-linecap: round"/>
   </g>
   <g id="line2d_16">
    <path d="M 172.167 112.45446 
" clip-path="url(#pb1c5b593a2)" style="fill: none; stroke: #2f2f2f; stroke-width: 1.2; stroke-linecap: round"/>
    <g clip-path="url(#pb1c5b593a2)">
     <use xlink:href="#m712f0ada1b" x="172.167" y="112.45446" style="fill: #ffffff; stroke: #ffffff; stroke-width: 0.9"/>
    </g>
   </g>
   <g id="line2d_17">
    <path d="M 254.049468 137.003189 
L 254.049468 82.31599 
" clip-path="url(#pb1c5b593a2)" style="fill: none; stroke: #2f2f2f; stroke-width: 1.5; stroke-linecap: round"/>
   </g>
   <g id="line2d_18">
    <path d="M 254.049468 123.234842 
L 254.049468 100.12101 
" clip-path="url(#pb1c5b593a2)" style="fill: none; stroke: #2f2f2f; stroke-width: 4.5; stroke-linecap: round"/>
   </g>
   <g id="line2d_19">
    <path d="M 254.049468 106.189621 
" clip-path="url(#pb1c5b593a2)" style="fill: none; stroke: #2f2f2f; stroke-width: 1.2; stroke-linecap: round"/>
    <g clip-path="url(#pb1c5b593a2)">
     <use xlink:href="#m712f0ada1b" x="254.049468" y="106.189621" style="fill: #ffffff; stroke: #ffffff; stroke-width: 0.9"/>
    </g>
   </g>
   <g id="line2d_20">
    <path d="M 90.284532 78.728724 
L 90.284532 70.242758 
L 172.167 70.242758 
L 172.167 78.728724 
" clip-path="url(#pb1c5b593a2)" style="fill: none; stroke: #000000; stroke-linecap: round"/>
   </g>
   <g id="line2d_21">
    <path d="M 172.167 64.379657 
L 172.167 55.534965 
L 254.049468 55.534965 
L 254.049468 64.379657 
" clip-path="url(#pb1c5b593a2)" style="fill: none; stroke: #000000; stroke-linecap: round"/>
   </g>
   <g id="line2d_22">
    <path d="M 90.284532 50.03059 
L 90.284532 40.827172 
L 254.049468 40.827172 
L 254.049468 50.03059 
" clip-path="url(#pb1c5b593a2)" style="fill: none; stroke: #000000; stroke-linecap: round"/>
   </g>
   <g id="patch_3">
    <path d="M 46.068 238.804 
L 46.068 23.568 
" style="fill: none; stroke: #262626; stroke-linejoin: miter; stroke-linecap: square"/>
   </g>
   <g id="patch_4">
    <path d="M 298.266 238.804 
L 298.266 23.568 
" style="fill: none; stroke: #262626; stroke-linejoin: miter; stroke-linecap: square"/>
   </g>
   <g id="patch_5">
    <path d="M 46.068 238.804 
L 298.266 238.804 
" style="fill: none; stroke: #262626; stroke-linejoin: miter; stroke-linecap: square"/>
   </g>
   <g id="patch_6">
    <path d="M 46.068 23.568 
L 298.266 23.568 
" style="fill: none; stroke: #262626; stroke-linejoin: miter; stroke-linecap: square"/>
   </g>
   <g id="text_12">
    <!-- ns -->
    <g transform="translate(125.683266 68.246258) scale(0.096 -0.096)">
     <use xlink:href="#DejaVuSans-6e"/>
     <use xlink:href="#DejaVuSans-73" x="63.378906"/>
    </g>
   </g>
   <g id="text_13">
    <!-- ns -->
    <g transform="translate(207.565734 53.538465) scale(0.096 -0.096)">
     <use xlink:href="#DejaVuSans-6e"/>
     <use xlink:href="#DejaVuSans-73" x="63.378906"/>
    </g>
   </g>
   <g id="text_14">
    <!-- ns -->
    <g transform="translate(166.6245 38.830672) scale(0.096 -0.096)">
     <use xlink:href="#DejaVuSans-6e"/>
     <use xlink:href="#DejaVuSans-73" x="63.378906"/>
    </g>
   </g>
   <g id="text_15">
    <!-- Accuracy -->
    <g style="fill: #262626" transform="translate(150.252 17.568) scale(0.096 -0.096)">
     <defs>
      <path id="DejaVuSans-41" d="M 2188 4044 
L 1331 1722 
L 3047 1722 
L 2188 4044 
z
M 1831 4666 
L 2547 4666 
L 4325 0 
L 3669 0 
L 3244 1197 
L 1141 1197 
L 716 0 
L 50 0 
L 1831 4666 
z
" transform="scale(0.015625)"/>
     </defs>
     <use xlink:href="#DejaVuSans-41"/>
     <use xlink:href="#DejaVuSans-63" x="66.658203"/>
     <use xlink:href="#DejaVuSans-63" x="121.638672"/>
     <use xlink:href="#DejaVuSans-75" x="176.619141"/>
     <use xlink:href="#DejaVuSans-72" x="239.998047"/>
     <use xlink:href="#DejaVuSans-61" x="281.111328"/>
     <use xlink:href="#DejaVuSans-63" x="342.390625"/>
     <use xlink:href="#DejaVuSans-79" x="397.371094"/>
    </g>
   </g>
  </g>
  <g id="axes_2">
   <g id="patch_7">
    <path d="M 313.434 238.804 
L 565.632 238.804 
L 565.632 23.568 
L 313.434 23.568 
L 313.434 238.804 
z
" style="fill: none"/>
   </g>
   <g id="matplotlib.axis_3">
    <g id="xtick_4">
     <g id="line2d_23">
      <g>
       <use xlink:href="#m4de247aab0" x="357.650532" y="238.804" style="fill: #262626; stroke: #262626"/>
      </g>
     </g>
     <g id="text_16">
      <!-- Low -->
      <g style="fill: #262626" transform="translate(348.985282 253.790625) scale(0.088 -0.088)">
       <use xlink:href="#DejaVuSans-4c"/>
       <use xlink:href="#DejaVuSans-6f" x="53.962891"/>
       <use xlink:href="#DejaVuSans-77" x="115.144531"/>
      </g>
     </g>
    </g>
    <g id="xtick_5">
     <g id="line2d_24">
      <g>
       <use xlink:href="#m4de247aab0" x="439.533" y="238.804" style="fill: #262626; stroke: #262626"/>
      </g>
     </g>
     <g id="text_17">
      <!-- Medium -->
      <g style="fill: #262626" transform="translate(421.939188 253.790625) scale(0.088 -0.088)">
       <use xlink:href="#DejaVuSans-4d"/>
       <use xlink:href="#DejaVuSans-65" x="86.279297"/>
       <use xlink:href="#DejaVuSans-64" x="147.802734"/>
       <use xlink:href="#DejaVuSans-69" x="211.279297"/>
       <use xlink:href="#DejaVuSans-75" x="239.0625"/>
       <use xlink:href="#DejaVuSans-6d" x="302.441406"/>
      </g>
     </g>
    </g>
    <g id="xtick_6">
     <g id="line2d_25">
      <g>
       <use xlink:href="#m4de247aab0" x="521.415468" y="238.804" style="fill: #262626; stroke: #262626"/>
      </g>
     </g>
     <g id="text_18">
      <!-- High -->
      <g style="fill: #262626" transform="translate(511.302343 253.790625) scale(0.088 -0.088)">
       <use xlink:href="#DejaVuSans-48"/>
       <use xlink:href="#DejaVuSans-69" x="75.195312"/>
       <use xlink:href="#DejaVuSans-67" x="102.978516"/>
       <use xlink:href="#DejaVuSans-68" x="166.455078"/>
      </g>
     </g>
    </g>
   </g>
   <g id="matplotlib.axis_4">
    <g id="ytick_8">
     <g id="line2d_26">
      <g>
       <use xlink:href="#m4156cd0ff5" x="313.434" y="238.804" style="fill: #262626; stroke: #262626"/>
      </g>
     </g>
    </g>
    <g id="ytick_9">
     <g id="line2d_27">
      <g>
       <use xlink:href="#m4156cd0ff5" x="313.434" y="202.931333" style="fill: #262626; stroke: #262626"/>
      </g>
     </g>
    </g>
    <g id="ytick_10">
     <g id="line2d_28">
      <g>
       <use xlink:href="#m4156cd0ff5" x="313.434" y="167.058667" style="fill: #262626; stroke: #262626"/>
      </g>
     </g>
    </g>
    <g id="ytick_11">
     <g id="line2d_29">
      <g>
       <use xlink:href="#m4156cd0ff5" x="313.434" y="131.186" style="fill: #262626; stroke: #262626"/>
      </g>
     </g>
    </g>
    <g id="ytick_12">
     <g id="line2d_30">
      <g>
       <use xlink:href="#m4156cd0ff5" x="313.434" y="95.313333" style="fill: #262626; stroke: #262626"/>
      </g>
     </g>
    </g>
    <g id="ytick_13">
     <g id="line2d_31">
      <g>
       <use xlink:href="#m4156cd0ff5" x="313.434" y="59.440667" style="fill: #262626; stroke: #262626"/>
      </g>
     </g>
    </g>
    <g id="ytick_14">
     <g id="line2d_32">
      <g>
       <use xlink:href="#m4156cd0ff5" x="313.434" y="23.568" style="fill: #262626; stroke: #262626"/>
      </g>
     </g>
    </g>
   </g>
   <g id="PolyCollection_4">
    <defs>
     <path id="m1e26f8393f" d="M 382.079145 -87.051578 
L 333.22192 -87.051578 
L 332.640485 -87.928966 
L 332.075522 -88.806354 
L 331.528182 -89.683743 
L 330.999529 -90.561131 
L 330.490533 -91.438519 
L 330.002064 -92.315907 
L 329.534891 -93.193295 
L 329.089675 -94.070684 
L 328.666971 -94.948072 
L 328.267224 -95.82546 
L 327.890769 -96.702848 
L 327.537833 -97.580236 
L 327.208534 -98.457625 
L 326.902886 -99.335013 
L 326.6208 -100.212401 
L 326.362088 -101.089789 
L 326.126471 -101.967177 
L 325.913578 -102.844566 
L 325.722959 -103.721954 
L 325.554085 -104.599342 
L 325.406361 -105.47673 
L 325.279128 -106.354119 
L 325.171673 -107.231507 
L 325.083239 -108.108895 
L 325.013026 -108.986283 
L 324.960208 -109.863671 
L 324.923933 -110.74106 
L 324.903337 -111.618448 
L 324.897545 -112.495836 
L 324.905686 -113.373224 
L 324.926892 -114.250612 
L 324.960311 -115.128001 
L 325.005107 -116.005389 
L 325.060472 -116.882777 
L 325.125625 -117.760165 
L 325.199821 -118.637553 
L 325.282349 -119.514942 
L 325.372541 -120.39233 
L 325.469772 -121.269718 
L 325.573458 -122.147106 
L 325.683064 -123.024494 
L 325.798099 -123.901883 
L 325.918119 -124.779271 
L 326.042724 -125.656659 
L 326.17156 -126.534047 
L 326.304314 -127.411436 
L 326.440715 -128.288824 
L 326.58053 -129.166212 
L 326.723564 -130.0436 
L 326.869654 -130.920988 
L 327.018672 -131.798377 
L 327.170515 -132.675765 
L 327.325109 -133.553153 
L 327.482404 -134.430541 
L 327.642371 -135.307929 
L 327.805002 -136.185318 
L 327.970305 -137.062706 
L 328.138308 -137.940094 
L 328.309052 -138.817482 
L 328.482593 -139.69487 
L 328.659 -140.572259 
L 328.838358 -141.449647 
L 329.020763 -142.327035 
L 329.206325 -143.204423 
L 329.395168 -144.081812 
L 329.587433 -144.9592 
L 329.783271 -145.836588 
L 329.982854 -146.713976 
L 330.186367 -147.591364 
L 330.394011 -148.468753 
L 330.606008 -149.346141 
L 330.822594 -150.223529 
L 331.044022 -151.100917 
L 331.270565 -151.978305 
L 331.502507 -152.855694 
L 331.740152 -153.733082 
L 331.983813 -154.61047 
L 332.233815 -155.487858 
L 332.490492 -156.365246 
L 332.754182 -157.242635 
L 333.025226 -158.120023 
L 333.303963 -158.997411 
L 333.590722 -159.874799 
L 333.885826 -160.752188 
L 334.189579 -161.629576 
L 334.502263 -162.506964 
L 334.824137 -163.384352 
L 335.155426 -164.26174 
L 335.496318 -165.139129 
L 335.84696 -166.016517 
L 336.207452 -166.893905 
L 336.577842 -167.771293 
L 336.958124 -168.648681 
L 337.348232 -169.52607 
L 337.748037 -170.403458 
L 338.157346 -171.280846 
L 338.575899 -172.158234 
L 339.00337 -173.035622 
L 339.439363 -173.913011 
L 375.861702 -173.913011 
L 375.861702 -173.913011 
L 376.297695 -173.035622 
L 376.725166 -172.158234 
L 377.143719 -171.280846 
L 377.553028 -170.403458 
L 377.952833 -169.52607 
L 378.342941 -168.648681 
L 378.723223 -167.771293 
L 379.093613 -166.893905 
L 379.454105 -166.016517 
L 379.804747 -165.139129 
L 380.145639 -164.26174 
L 380.476928 -163.384352 
L 380.798802 -162.506964 
L 381.111486 -161.629576 
L 381.415239 -160.752188 
L 381.710343 -159.874799 
L 381.997102 -158.997411 
L 382.275838 -158.120023 
L 382.546883 -157.242635 
L 382.810573 -156.365246 
L 383.06725 -155.487858 
L 383.317252 -154.61047 
L 383.560913 -153.733082 
L 383.798558 -152.855694 
L 384.0305 -151.978305 
L 384.257043 -151.100917 
L 384.478471 -150.223529 
L 384.695057 -149.346141 
L 384.907054 -148.468753 
L 385.114698 -147.591364 
L 385.318211 -146.713976 
L 385.517793 -145.836588 
L 385.713632 -144.9592 
L 385.905897 -144.081812 
L 386.09474 -143.204423 
L 386.280302 -142.327035 
L 386.462707 -141.449647 
L 386.642064 -140.572259 
L 386.818472 -139.69487 
L 386.992013 -138.817482 
L 387.162757 -137.940094 
L 387.33076 -137.062706 
L 387.496063 -136.185318 
L 387.658694 -135.307929 
L 387.818661 -134.430541 
L 387.975956 -133.553153 
L 388.13055 -132.675765 
L 388.282393 -131.798377 
L 388.43141 -130.920988 
L 388.577501 -130.0436 
L 388.720535 -129.166212 
L 388.86035 -128.288824 
L 388.996751 -127.411436 
L 389.129505 -126.534047 
L 389.258341 -125.656659 
L 389.382946 -124.779271 
L 389.502966 -123.901883 
L 389.618001 -123.024494 
L 389.727607 -122.147106 
L 389.831293 -121.269718 
L 389.928524 -120.39233 
L 390.018716 -119.514942 
L 390.101244 -118.637553 
L 390.17544 -117.760165 
L 390.240593 -116.882777 
L 390.295958 -116.005389 
L 390.340754 -115.128001 
L 390.374173 -114.250612 
L 390.395379 -113.373224 
L 390.403519 -112.495836 
L 390.397728 -111.618448 
L 390.377132 -110.74106 
L 390.340857 -109.863671 
L 390.288039 -108.986283 
L 390.217826 -108.108895 
L 390.129391 -107.231507 
L 390.021937 -106.354119 
L 389.894704 -105.47673 
L 389.74698 -104.599342 
L 389.578106 -103.721954 
L 389.387487 -102.844566 
L 389.174594 -101.967177 
L 388.938977 -101.089789 
L 388.680265 -100.212401 
L 388.398179 -99.335013 
L 388.092531 -98.457625 
L 387.763232 -97.580236 
L 387.410296 -96.702848 
L 387.033841 -95.82546 
L 386.634094 -94.948072 
L 386.21139 -94.070684 
L 385.766174 -93.193295 
L 385.299001 -92.315907 
L 384.810532 -91.438519 
L 384.301536 -90.561131 
L 383.772883 -89.683743 
L 383.225543 -88.806354 
L 382.66058 -87.928966 
L 382.079145 -87.051578 
z
" style="stroke: #2f2f2f"/>
    </defs>
    <g clip-path="url(#pf464d57432)">
     <use xlink:href="#m1e26f8393f" x="0" y="288" style="fill: #58b2a3; stroke: #2f2f2f"/>
    </g>
   </g>
   <g id="PolyCollection_5">
    <defs>
     <path id="m0d2678866c" d="M 458.41218 -103.548525 
L 420.65382 -103.548525 
L 419.893654 -104.276097 
L 419.132676 -105.003669 
L 418.373189 -105.731242 
L 417.617584 -106.458814 
L 416.868334 -107.186386 
L 416.127976 -107.913958 
L 415.399094 -108.64153 
L 414.684303 -109.369102 
L 413.986229 -110.096674 
L 413.307492 -110.824246 
L 412.65068 -111.551818 
L 412.018331 -112.279391 
L 411.412911 -113.006963 
L 410.836789 -113.734535 
L 410.292219 -114.462107 
L 409.781315 -115.189679 
L 409.306034 -115.917251 
L 408.868153 -116.644823 
L 408.469253 -117.372395 
L 408.110703 -118.099967 
L 407.793644 -118.82754 
L 407.518981 -119.555112 
L 407.287369 -120.282684 
L 407.099207 -121.010256 
L 406.954638 -121.737828 
L 406.853543 -122.4654 
L 406.795545 -123.192972 
L 406.780013 -123.920544 
L 406.806072 -124.648116 
L 406.872608 -125.375689 
L 406.978287 -126.103261 
L 407.121565 -126.830833 
L 407.300706 -127.558405 
L 407.513806 -128.285977 
L 407.758805 -129.013549 
L 408.033518 -129.741121 
L 408.33565 -130.468693 
L 408.662825 -131.196265 
L 409.012606 -131.923838 
L 409.382519 -132.65141 
L 409.770079 -133.378982 
L 410.172808 -134.106554 
L 410.588257 -134.834126 
L 411.014031 -135.561698 
L 411.447799 -136.28927 
L 411.88732 -137.016842 
L 412.330451 -137.744414 
L 412.775164 -138.471987 
L 413.219558 -139.199559 
L 413.661865 -139.927131 
L 414.100462 -140.654703 
L 414.533871 -141.382275 
L 414.960771 -142.109847 
L 415.37999 -142.837419 
L 415.790513 -143.564991 
L 416.19148 -144.292563 
L 416.582179 -145.020135 
L 416.962048 -145.747708 
L 417.330666 -146.47528 
L 417.68775 -147.202852 
L 418.03315 -147.930424 
L 418.366835 -148.657996 
L 418.688897 -149.385568 
L 418.999532 -150.11314 
L 419.29904 -150.840712 
L 419.587811 -151.568284 
L 419.866323 -152.295857 
L 420.135128 -153.023429 
L 420.394848 -153.751001 
L 420.646163 -154.478573 
L 420.889807 -155.206145 
L 421.126557 -155.933717 
L 421.357229 -156.661289 
L 421.582664 -157.388861 
L 421.803728 -158.116433 
L 422.021299 -158.844006 
L 422.236263 -159.571578 
L 422.449504 -160.29915 
L 422.661899 -161.026722 
L 422.874314 -161.754294 
L 423.087589 -162.481866 
L 423.30254 -163.209438 
L 423.519948 -163.93701 
L 423.740554 -164.664582 
L 423.965052 -165.392155 
L 424.194085 -166.119727 
L 424.428241 -166.847299 
L 424.668042 -167.574871 
L 424.913946 -168.302443 
L 425.166341 -169.030015 
L 425.42554 -169.757587 
L 425.691779 -170.485159 
L 425.965217 -171.212731 
L 426.24593 -171.940304 
L 426.533915 -172.667876 
L 426.829085 -173.395448 
L 427.131275 -174.12302 
L 427.44024 -174.850592 
L 427.755656 -175.578164 
L 451.310344 -175.578164 
L 451.310344 -175.578164 
L 451.62576 -174.850592 
L 451.934725 -174.12302 
L 452.236915 -173.395448 
L 452.532085 -172.667876 
L 452.82007 -171.940304 
L 453.100783 -171.212731 
L 453.374221 -170.485159 
L 453.64046 -169.757587 
L 453.899659 -169.030015 
L 454.152054 -168.302443 
L 454.397958 -167.574871 
L 454.637759 -166.847299 
L 454.871915 -166.119727 
L 455.100948 -165.392155 
L 455.325446 -164.664582 
L 455.546052 -163.93701 
L 455.76346 -163.209438 
L 455.978411 -162.481866 
L 456.191686 -161.754294 
L 456.404101 -161.026722 
L 456.616496 -160.29915 
L 456.829737 -159.571578 
L 457.044701 -158.844006 
L 457.262272 -158.116433 
L 457.483336 -157.388861 
L 457.708771 -156.661289 
L 457.939443 -155.933717 
L 458.176193 -155.206145 
L 458.419837 -154.478573 
L 458.671152 -153.751001 
L 458.930872 -153.023429 
L 459.199677 -152.295857 
L 459.478189 -151.568284 
L 459.76696 -150.840712 
L 460.066468 -150.11314 
L 460.377103 -149.385568 
L 460.699165 -148.657996 
L 461.03285 -147.930424 
L 461.37825 -147.202852 
L 461.735334 -146.47528 
L 462.103952 -145.747708 
L 462.483821 -145.020135 
L 462.87452 -144.292563 
L 463.275487 -143.564991 
L 463.68601 -142.837419 
L 464.105229 -142.109847 
L 464.532129 -141.382275 
L 464.965538 -140.654703 
L 465.404135 -139.927131 
L 465.846442 -139.199559 
L 466.290836 -138.471987 
L 466.735549 -137.744414 
L 467.17868 -137.016842 
L 467.618201 -136.28927 
L 468.051969 -135.561698 
L 468.477743 -134.834126 
L 468.893192 -134.106554 
L 469.295921 -133.378982 
L 469.683481 -132.65141 
L 470.053394 -131.923838 
L 470.403175 -131.196265 
L 470.73035 -130.468693 
L 471.032482 -129.741121 
L 471.307195 -129.013549 
L 471.552194 -128.285977 
L 471.765294 -127.558405 
L 471.944435 -126.830833 
L 472.087713 -126.103261 
L 472.193392 -125.375689 
L 472.259928 -124.648116 
L 472.285987 -123.920544 
L 472.270455 -123.192972 
L 472.212457 -122.4654 
L 472.111362 -121.737828 
L 471.966793 -121.010256 
L 471.778631 -120.282684 
L 471.547019 -119.555112 
L 471.272356 -118.82754 
L 470.955297 -118.099967 
L 470.596747 -117.372395 
L 470.197847 -116.644823 
L 469.759966 -115.917251 
L 469.284685 -115.189679 
L 468.773781 -114.462107 
L 468.229211 -113.734535 
L 467.653089 -113.006963 
L 467.047669 -112.279391 
L 466.41532 -111.551818 
L 465.758508 -110.824246 
L 465.079771 -110.096674 
L 464.381697 -109.369102 
L 463.666906 -108.64153 
L 462.938024 -107.913958 
L 462.197666 -107.186386 
L 461.448416 -106.458814 
L 460.692811 -105.731242 
L 459.933324 -105.003669 
L 459.172346 -104.276097 
L 458.41218 -103.548525 
z
" style="stroke: #2f2f2f"/>
    </defs>
    <g clip-path="url(#pf464d57432)">
     <use xlink:href="#m0d2678866c" x="0" y="288" style="fill: #437695; stroke: #2f2f2f"/>
    </g>
   </g>
   <g id="PolyCollection_6">
    <defs>
     <path id="m26e4b37b1f" d="M 545.370138 -80.742315 
L 497.460797 -80.742315 
L 496.769527 -81.74485 
L 496.093968 -82.747385 
L 495.43634 -83.749919 
L 494.798827 -84.752454 
L 494.183561 -85.754989 
L 493.592607 -86.757524 
L 493.027947 -87.760059 
L 492.491467 -88.762593 
L 491.984944 -89.765128 
L 491.510029 -90.767663 
L 491.068241 -91.770198 
L 490.660948 -92.772733 
L 490.289359 -93.775267 
L 489.954515 -94.777802 
L 489.657282 -95.780337 
L 489.398339 -96.782872 
L 489.178177 -97.785407 
L 488.997089 -98.787942 
L 488.855175 -99.790476 
L 488.752335 -100.793011 
L 488.688268 -101.795546 
L 488.662481 -102.798081 
L 488.674284 -103.800616 
L 488.722801 -104.80315 
L 488.806976 -105.805685 
L 488.925576 -106.80822 
L 489.077208 -107.810755 
L 489.260322 -108.81329 
L 489.473229 -109.815825 
L 489.714109 -110.818359 
L 489.981028 -111.820894 
L 490.271953 -112.823429 
L 490.584762 -113.825964 
L 490.917266 -114.828499 
L 491.267223 -115.831033 
L 491.632353 -116.833568 
L 492.010352 -117.836103 
L 492.398917 -118.838638 
L 492.795752 -119.841173 
L 493.198589 -120.843707 
L 493.605203 -121.846242 
L 494.013424 -122.848777 
L 494.421153 -123.851312 
L 494.826375 -124.853847 
L 495.227171 -125.856382 
L 495.621727 -126.858916 
L 496.008346 -127.861451 
L 496.38546 -128.863986 
L 496.75163 -129.866521 
L 497.10556 -130.869056 
L 497.446101 -131.87159 
L 497.772253 -132.874125 
L 498.083171 -133.87666 
L 498.378163 -134.879195 
L 498.656697 -135.88173 
L 498.918397 -136.884265 
L 499.163042 -137.886799 
L 499.390563 -138.889334 
L 499.601044 -139.891869 
L 499.794712 -140.894404 
L 499.971936 -141.896939 
L 500.13322 -142.899473 
L 500.279196 -143.902008 
L 500.410616 -144.904543 
L 500.528347 -145.907078 
L 500.633359 -146.909613 
L 500.726716 -147.912147 
L 500.809569 -148.914682 
L 500.883143 -149.917217 
L 500.948731 -150.919752 
L 501.007677 -151.922287 
L 501.061371 -152.924822 
L 501.111235 -153.927356 
L 501.158713 -154.929891 
L 501.205257 -155.932426 
L 501.252323 -156.934961 
L 501.301353 -157.937496 
L 501.353766 -158.94003 
L 501.410952 -159.942565 
L 501.474256 -160.9451 
L 501.544971 -161.947635 
L 501.624329 -162.95017 
L 501.713493 -163.952705 
L 501.813546 -164.955239 
L 501.925486 -165.957774 
L 502.050218 -166.960309 
L 502.188551 -167.962844 
L 502.341186 -168.965379 
L 502.50872 -169.967913 
L 502.691636 -170.970448 
L 502.890302 -171.972983 
L 503.104974 -172.975518 
L 503.335786 -173.978053 
L 503.582759 -174.980587 
L 503.845796 -175.983122 
L 504.12469 -176.985657 
L 504.419118 -177.988192 
L 504.728655 -178.990727 
L 505.052771 -179.993262 
L 537.778164 -179.993262 
L 537.778164 -179.993262 
L 538.10228 -178.990727 
L 538.411817 -177.988192 
L 538.706245 -176.985657 
L 538.985139 -175.983122 
L 539.248176 -174.980587 
L 539.495149 -173.978053 
L 539.725961 -172.975518 
L 539.940633 -171.972983 
L 540.1393 -170.970448 
L 540.322215 -169.967913 
L 540.489749 -168.965379 
L 540.642385 -167.962844 
L 540.780717 -166.960309 
L 540.905449 -165.957774 
L 541.017389 -164.955239 
L 541.117442 -163.952705 
L 541.206606 -162.95017 
L 541.285964 -161.947635 
L 541.356679 -160.9451 
L 541.419983 -159.942565 
L 541.477169 -158.94003 
L 541.529582 -157.937496 
L 541.578612 -156.934961 
L 541.625678 -155.932426 
L 541.672222 -154.929891 
L 541.7197 -153.927356 
L 541.769564 -152.924822 
L 541.823258 -151.922287 
L 541.882204 -150.919752 
L 541.947792 -149.917217 
L 542.021366 -148.914682 
L 542.104219 -147.912147 
L 542.197576 -146.909613 
L 542.302588 -145.907078 
L 542.420319 -144.904543 
L 542.551739 -143.902008 
L 542.697715 -142.899473 
L 542.858999 -141.896939 
L 543.036223 -140.894404 
L 543.229891 -139.891869 
L 543.440372 -138.889334 
L 543.667893 -137.886799 
L 543.912538 -136.884265 
L 544.174238 -135.88173 
L 544.452772 -134.879195 
L 544.747765 -133.87666 
L 545.058682 -132.874125 
L 545.384834 -131.87159 
L 545.725375 -130.869056 
L 546.079305 -129.866521 
L 546.445475 -128.863986 
L 546.822589 -127.861451 
L 547.209208 -126.858916 
L 547.603764 -125.856382 
L 548.00456 -124.853847 
L 548.409782 -123.851312 
L 548.817511 -122.848777 
L 549.225732 -121.846242 
L 549.632346 -120.843707 
L 550.035183 -119.841173 
L 550.432018 -118.838638 
L 550.820583 -117.836103 
L 551.198583 -116.833568 
L 551.563712 -115.831033 
L 551.913669 -114.828499 
L 552.246173 -113.825964 
L 552.558982 -112.823429 
L 552.849907 -111.820894 
L 553.116826 -110.818359 
L 553.357706 -109.815825 
L 553.570613 -108.81329 
L 553.753727 -107.810755 
L 553.905359 -106.80822 
L 554.023959 -105.805685 
L 554.108134 -104.80315 
L 554.156651 -103.800616 
L 554.168455 -102.798081 
L 554.142667 -101.795546 
L 554.0786 -100.793011 
L 553.97576 -99.790476 
L 553.833846 -98.787942 
L 553.652758 -97.785407 
L 553.432596 -96.782872 
L 553.173653 -95.780337 
L 552.87642 -94.777802 
L 552.541576 -93.775267 
L 552.169987 -92.772733 
L 551.762694 -91.770198 
L 551.320906 -90.767663 
L 550.845992 -89.765128 
L 550.339468 -88.762593 
L 549.802988 -87.760059 
L 549.238328 -86.757524 
L 548.647374 -85.754989 
L 548.032108 -84.752454 
L 547.394596 -83.749919 
L 546.736968 -82.747385 
L 546.061408 -81.74485 
L 545.370138 -80.742315 
z
" style="stroke: #2f2f2f"/>
    </defs>
    <g clip-path="url(#pf464d57432)">
     <use xlink:href="#m26e4b37b1f" x="0" y="288" style="fill: #423b63; stroke: #2f2f2f"/>
    </g>
   </g>
   <g id="line2d_33">
    <path d="M 357.650532 200.948422 
L 357.650532 114.086989 
" clip-path="url(#pf464d57432)" style="fill: none; stroke: #2f2f2f; stroke-width: 1.5; stroke-linecap: round"/>
   </g>
   <g id="line2d_34">
    <path d="M 357.650532 181.653918 
L 357.650532 143.35873 
" clip-path="url(#pf464d57432)" style="fill: none; stroke: #2f2f2f; stroke-width: 4.5; stroke-linecap: round"/>
   </g>
   <g id="line2d_35">
    <path d="M 357.650532 163.072815 
" clip-path="url(#pf464d57432)" style="fill: none; stroke: #2f2f2f; stroke-width: 1.2; stroke-linecap: round"/>
    <g clip-path="url(#pf464d57432)">
     <use xlink:href="#m712f0ada1b" x="357.650532" y="163.072815" style="fill: #ffffff; stroke: #ffffff; stroke-width: 0.9"/>
    </g>
   </g>
   <g id="line2d_36">
    <path d="M 439.533 184.451475 
L 439.533 112.421836 
" clip-path="url(#pf464d57432)" style="fill: none; stroke: #2f2f2f; stroke-width: 1.5; stroke-linecap: round"/>
   </g>
   <g id="line2d_37">
    <path d="M 439.533 167.628074 
L 439.533 140.20112 
" clip-path="url(#pf464d57432)" style="fill: none; stroke: #2f2f2f; stroke-width: 4.5; stroke-linecap: round"/>
   </g>
   <g id="line2d_38">
    <path d="M 439.533 163.32933 
" clip-path="url(#pf464d57432)" style="fill: none; stroke: #2f2f2f; stroke-width: 1.2; stroke-linecap: round"/>
    <g clip-path="url(#pf464d57432)">
     <use xlink:href="#m712f0ada1b" x="439.533" y="163.32933" style="fill: #ffffff; stroke: #ffffff; stroke-width: 0.9"/>
    </g>
   </g>
   <g id="line2d_39">
    <path d="M 521.415468 207.257685 
L 521.415468 108.006738 
" clip-path="url(#pf464d57432)" style="fill: none; stroke: #2f2f2f; stroke-width: 1.5; stroke-linecap: round"/>
   </g>
   <g id="line2d_40">
    <path d="M 521.415468 186.701027 
L 521.415468 133.788162 
" clip-path="url(#pf464d57432)" style="fill: none; stroke: #2f2f2f; stroke-width: 4.5; stroke-linecap: round"/>
   </g>
   <g id="line2d_41">
    <path d="M 521.415468 180.914247 
" clip-path="url(#pf464d57432)" style="fill: none; stroke: #2f2f2f; stroke-width: 1.2; stroke-linecap: round"/>
    <g clip-path="url(#pf464d57432)">
     <use xlink:href="#m712f0ada1b" x="521.415468" y="180.914247" style="fill: #ffffff; stroke: #ffffff; stroke-width: 0.9"/>
    </g>
   </g>
   <g id="line2d_42">
    <path d="M 357.650532 104.419472 
L 357.650532 96.575775 
L 439.533 96.575775 
L 439.533 104.419472 
" clip-path="url(#pf464d57432)" style="fill: none; stroke: #000000; stroke-linecap: round"/>
   </g>
   <g id="line2d_43">
    <path d="M 439.533 90.070405 
L 439.533 81.867982 
L 521.415468 81.867982 
L 521.415468 90.070405 
" clip-path="url(#pf464d57432)" style="fill: none; stroke: #000000; stroke-linecap: round"/>
   </g>
   <g id="line2d_44">
    <path d="M 357.650532 75.721338 
L 357.650532 67.160189 
L 521.415468 67.160189 
L 521.415468 75.721338 
" clip-path="url(#pf464d57432)" style="fill: none; stroke: #000000; stroke-linecap: round"/>
   </g>
   <g id="patch_8">
    <path d="M 313.434 238.804 
L 313.434 23.568 
" style="fill: none; stroke: #262626; stroke-linejoin: miter; stroke-linecap: square"/>
   </g>
   <g id="patch_9">
    <path d="M 565.632 238.804 
L 565.632 23.568 
" style="fill: none; stroke: #262626; stroke-linejoin: miter; stroke-linecap: square"/>
   </g>
   <g id="patch_10">
    <path d="M 313.434 238.804 
L 565.632 238.804 
" style="fill: none; stroke: #262626; stroke-linejoin: miter; stroke-linecap: square"/>
   </g>
   <g id="patch_11">
    <path d="M 313.434 23.568 
L 565.632 23.568 
" style="fill: none; stroke: #262626; stroke-linejoin: miter; stroke-linecap: square"/>
   </g>
   <g id="text_19">
    <!-- ns -->
    <g transform="translate(393.049266 94.579275) scale(0.096 -0.096)">
     <use xlink:href="#DejaVuSans-6e"/>
     <use xlink:href="#DejaVuSans-73" x="63.378906"/>
    </g>
   </g>
   <g id="text_20">
    <!-- ns -->
    <g transform="translate(474.931734 79.871482) scale(0.096 -0.096)">
     <use xlink:href="#DejaVuSans-6e"/>
     <use xlink:href="#DejaVuSans-73" x="63.378906"/>
    </g>
   </g>
   <g id="text_21">
    <!-- ns -->
    <g transform="translate(433.9905 65.163689) scale(0.096 -0.096)">
     <use xlink:href="#DejaVuSans-6e"/>
     <use xlink:href="#DejaVuSans-73" x="63.378906"/>
    </g>
   </g>
   <g id="text_22">
    <!-- Speed -->
    <g style="fill: #262626" transform="translate(424.48425 17.568) scale(0.096 -0.096)">
     <defs>
      <path id="DejaVuSans-53" d="M 3425 4513 
L 3425 3897 
Q 3066 4069 2747 4153 
Q 2428 4238 2131 4238 
Q 1616 4238 1336 4038 
Q 1056 3838 1056 3469 
Q 1056 3159 1242 3001 
Q 1428 2844 1947 2747 
L 2328 2669 
Q 3034 2534 3370 2195 
Q 3706 1856 3706 1288 
Q 3706 609 3251 259 
Q 2797 -91 1919 -91 
Q 1588 -91 1214 -16 
Q 841 59 441 206 
L 441 856 
Q 825 641 1194 531 
Q 1563 422 1919 422 
Q 2459 422 2753 634 
Q 3047 847 3047 1241 
Q 3047 1584 2836 1778 
Q 2625 1972 2144 2069 
L 1759 2144 
Q 1053 2284 737 2584 
Q 422 2884 422 3419 
Q 422 4038 858 4394 
Q 1294 4750 2059 4750 
Q 2388 4750 2728 4690 
Q 3069 4631 3425 4513 
z
" transform="scale(0.015625)"/>
     </defs>
     <use xlink:href="#DejaVuSans-53"/>
     <use xlink:href="#DejaVuSans-70" x="63.476562"/>
     <use xlink:href="#DejaVuSans-65" x="126.953125"/>
     <use xlink:href="#DejaVuSans-65" x="188.476562"/>
     <use xlink:href="#DejaVuSans-64" x="250"/>
    </g>
   </g>
  </g>
  <g id="text_23">
   <!-- Average decision probability tertile -->
   <g style="fill: #262626" transform="translate(187.2072 282.7242) scale(0.1152 -0.1152)">
    <defs>
     <path id="DejaVuSans-76" d="M 191 3500 
L 800 3500 
L 1894 563 
L 2988 3500 
L 3597 3500 
L 2284 0 
L 1503 0 
L 191 3500 
z
" transform="scale(0.015625)"/>
    </defs>
    <use xlink:href="#DejaVuSans-41"/>
    <use xlink:href="#DejaVuSans-76" x="62.533203"/>
    <use xlink:href="#DejaVuSans-65" x="121.712891"/>
    <use xlink:href="#DejaVuSans-72" x="183.236328"/>
    <use xlink:href="#DejaVuSans-61" x="224.349609"/>
    <use xlink:href="#DejaVuSans-67" x="285.628906"/>
    <use xlink:href="#DejaVuSans-65" x="349.105469"/>
    <use xlink:href="#DejaVuSans-20" x="410.628906"/>
    <use xlink:href="#DejaVuSans-64" x="442.416016"/>
    <use xlink:href="#DejaVuSans-65" x="505.892578"/>
    <use xlink:href="#DejaVuSans-63" x="567.416016"/>
    <use xlink:href="#DejaVuSans-69" x="622.396484"/>
    <use xlink:href="#DejaVuSans-73" x="650.179688"/>
    <use xlink:href="#DejaVuSans-69" x="702.279297"/>
    <use xlink:href="#DejaVuSans-6f" x="730.0625"/>
    <use xlink:href="#DejaVuSans-6e" x="791.244141"/>
    <use xlink:href="#DejaVuSans-20" x="854.623047"/>
    <use xlink:href="#DejaVuSans-70" x="886.410156"/>
    <use xlink:href="#DejaVuSans-72" x="949.886719"/>
    <use xlink:href="#DejaVuSans-6f" x="988.75"/>
    <use xlink:href="#DejaVuSans-62" x="1049.931641"/>
    <use xlink:href="#DejaVuSans-61" x="1113.408203"/>
    <use xlink:href="#DejaVuSans-62" x="1174.6875"/>
    <use xlink:href="#DejaVuSans-69" x="1238.164062"/>
    <use xlink:href="#DejaVuSans-6c" x="1265.947266"/>
    <use xlink:href="#DejaVuSans-69" x="1293.730469"/>
    <use xlink:href="#DejaVuSans-74" x="1321.513672"/>
    <use xlink:href="#DejaVuSans-79" x="1360.722656"/>
    <use xlink:href="#DejaVuSans-20" x="1419.902344"/>
    <use xlink:href="#DejaVuSans-74" x="1451.689453"/>
    <use xlink:href="#DejaVuSans-65" x="1490.898438"/>
    <use xlink:href="#DejaVuSans-72" x="1552.421875"/>
    <use xlink:href="#DejaVuSans-74" x="1593.535156"/>
    <use xlink:href="#DejaVuSans-69" x="1632.744141"/>
    <use xlink:href="#DejaVuSans-6c" x="1660.527344"/>
    <use xlink:href="#DejaVuSans-65" x="1688.310547"/>
   </g>
  </g>
 </g>
 <defs>
  <clipPath id="pb1c5b593a2">
   <rect x="46.068" y="23.568" width="252.198" height="215.236"/>
  </clipPath>
  <clipPath id="pf464d57432">
   <rect x="313.434" y="23.568" width="252.198" height="215.236"/>
  </clipPath>
 </defs>
</svg>
