<?xml version="1.0" encoding="utf-8" standalone="no"?>
<!DOCTYPE svg PUBLIC "-//W3C//DTD SVG 1.1//EN"
  "http://www.w3.org/Graphics/SVG/1.1/DTD/svg11.dtd">
<svg xmlns:xlink="http://www.w3.org/1999/xlink" width="576pt" height="288pt" viewBox="0 0 576 288" xmlns="http://www.w3.org/2000/svg" version="1.1">
 <metadata>
  <rdf:RDF xmlns:dc="http://purl.org/dc/elements/1.1/" xmlns:cc="http://creativecommons.org/ns#" xmlns:rdf="http://www.w3.org/1999/02/22-rdf-syntax-ns#">
   <cc:Work>
    <dc:type rdf:resource="http://purl.org/dc/dcmitype/StillImage"/>
    <dc:date>2024-12-13T10:15:37.992902</dc:date>
    <dc:format>image/svg+xml</dc:format>
    <dc:creator>
     <cc:Agent>
      <dc:title>Matplotlib v3.9.2, https://matplotlib.org/</dc:title>
     </cc:Agent>
    </dc:creator>
   </cc:Work>
  </rdf:RDF>
 </metadata>
 <defs>
  <style type="text/css">*{stroke-linejoin: round; stroke-linecap: butt}</style>
 </defs>
 <g id="figure_1">
  <g id="patch_1">
   <path d="M 0 288 
L 576 288 
L 576 0 
L 0 0 
L 0 288 
z
" style="fill: none"/>
  </g>
  <g id="axes_1">
   <g id="patch_2">
    <path d="M 46.068 238.804 
L 298.266 238.804 
L 298.266 23.568 
L 46.068 23.568 
L 46.068 238.804 
z
" style="fill: none"/>
   </g>
   <g id="matplotlib.axis_1">
    <g id="xtick_1">
     <g id="line2d_1">
      <defs>
       <path id="medde694d29" d="M 0 0 
L 0 4.8 
" style="stroke: #262626"/>
      </defs>
      <g>
       <use xlink:href="#medde694d29" x="90.284532" y="238.804" style="fill: #262626; stroke: #262626"/>
      </g>
     </g>
     <g id="text_1">
      <!-- Low -->
      <g style="fill: #262626" transform="translate(81.619282 253.790625) scale(0.088 -0.088)">
       <defs>
        <path id="DejaVuSans-4c" d="M 628 4666 
L 1259 4666 
L 1259 531 
L 3531 531 
L 3531 0 
L 628 0 
L 628 4666 
z
" transform="scale(0.015625)"/>
        <path id="DejaVuSans-6f" d="M 1959 3097 
Q 1497 3097 1228 2736 
Q 959 2375 959 1747 
Q 959 1119 1226 758 
Q 1494 397 1959 397 
Q 2419 397 2687 759 
Q 2956 1122 2956 1747 
Q 2956 2369 2687 2733 
Q 2419 3097 1959 3097 
z
M 1959 3584 
Q 2709 3584 3137 3096 
Q 3566 2609 3566 1747 
Q 3566 888 3137 398 
Q 2709 -91 1959 -91 
Q 1206 -91 779 398 
Q 353 888 353 1747 
Q 353 2609 779 3096 
Q 1206 3584 1959 3584 
z
" transform="scale(0.015625)"/>
        <path id="DejaVuSans-77" d="M 269 3500 
L 844 3500 
L 1563 769 
L 2278 3500 
L 2956 3500 
L 3675 769 
L 4391 3500 
L 4966 3500 
L 4050 0 
L 3372 0 
L 2619 2869 
L 1863 0 
L 1184 0 
L 269 3500 
z
" transform="scale(0.015625)"/>
       </defs>
       <use xlink:href="#DejaVuSans-4c"/>
       <use xlink:href="#DejaVuSans-6f" x="53.962891"/>
       <use xlink:href="#DejaVuSans-77" x="115.144531"/>
      </g>
     </g>
    </g>
    <g id="xtick_2">
     <g id="line2d_2">
      <g>
       <use xlink:href="#medde694d29" x="172.167" y="238.804" style="fill: #262626; stroke: #262626"/>
      </g>
     </g>
     <g id="text_2">
      <!-- Medium -->
      <g style="fill: #262626" transform="translate(154.573187 253.790625) scale(0.088 -0.088)">
       <defs>
        <path id="DejaVuSans-4d" d="M 628 4666 
L 1569 4666 
L 2759 1491 
L 3956 4666 
L 4897 4666 
L 4897 0 
L 4281 0 
L 4281 4097 
L 3078 897 
L 2444 897 
L 1241 4097 
L 1241 0 
L 628 0 
L 628 4666 
z
" transform="scale(0.015625)"/>
        <path id="DejaVuSans-65" d="M 3597 1894 
L 3597 1613 
L 953 1613 
Q 991 1019 1311 708 
Q 1631 397 2203 397 
Q 2534 397 2845 478 
Q 3156 559 3463 722 
L 3463 178 
Q 3153 47 2828 -22 
Q 2503 -91 2169 -91 
Q 1331 -91 842 396 
Q 353 884 353 1716 
Q 353 2575 817 3079 
Q 1281 3584 2069 3584 
Q 2775 3584 3186 3129 
Q 3597 2675 3597 1894 
z
M 3022 2063 
Q 3016 2534 2758 2815 
Q 2500 3097 2075 3097 
Q 1594 3097 1305 2825 
Q 1016 2553 972 2059 
L 3022 2063 
z
" transform="scale(0.015625)"/>
        <path id="DejaVuSans-64" d="M 2906 2969 
L 2906 4863 
L 3481 4863 
L 3481 0 
L 2906 0 
L 2906 525 
Q 2725 213 2448 61 
Q 2172 -91 1784 -91 
Q 1150 -91 751 415 
Q 353 922 353 1747 
Q 353 2572 751 3078 
Q 1150 3584 1784 3584 
Q 2172 3584 2448 3432 
Q 2725 3281 2906 2969 
z
M 947 1747 
Q 947 1113 1208 752 
Q 1469 391 1925 391 
Q 2381 391 2643 752 
Q 2906 1113 2906 1747 
Q 2906 2381 2643 2742 
Q 2381 3103 1925 3103 
Q 1469 3103 1208 2742 
Q 947 2381 947 1747 
z
" transform="scale(0.015625)"/>
        <path id="DejaVuSans-69" d="M 603 3500 
L 1178 3500 
L 1178 0 
L 603 0 
L 603 3500 
z
M 603 4863 
L 1178 4863 
L 1178 4134 
L 603 4134 
L 603 4863 
z
" transform="scale(0.015625)"/>
        <path id="DejaVuSans-75" d="M 544 1381 
L 544 3500 
L 1119 3500 
L 1119 1403 
Q 1119 906 1312 657 
Q 1506 409 1894 409 
Q 2359 409 2629 706 
Q 2900 1003 2900 1516 
L 2900 3500 
L 3475 3500 
L 3475 0 
L 2900 0 
L 2900 538 
Q 2691 219 2414 64 
Q 2138 -91 1772 -91 
Q 1169 -91 856 284 
Q 544 659 544 1381 
z
M 1991 3584 
L 1991 3584 
z
" transform="scale(0.015625)"/>
        <path id="DejaVuSans-6d" d="M 3328 2828 
Q 3544 3216 3844 3400 
Q 4144 3584 4550 3584 
Q 5097 3584 5394 3201 
Q 5691 2819 5691 2113 
L 5691 0 
L 5113 0 
L 5113 2094 
Q 5113 2597 4934 2840 
Q 4756 3084 4391 3084 
Q 3944 3084 3684 2787 
Q 3425 2491 3425 1978 
L 3425 0 
L 2847 0 
L 2847 2094 
Q 2847 2600 2669 2842 
Q 2491 3084 2119 3084 
Q 1678 3084 1418 2786 
Q 1159 2488 1159 1978 
L 1159 0 
L 581 0 
L 581 3500 
L 1159 3500 
L 1159 2956 
Q 1356 3278 1631 3431 
Q 1906 3584 2284 3584 
Q 2666 3584 2933 3390 
Q 3200 3197 3328 2828 
z
" transform="scale(0.015625)"/>
       </defs>
       <use xlink:href="#DejaVuSans-4d"/>
       <use xlink:href="#DejaVuSans-65" x="86.279297"/>
       <use xlink:href="#DejaVuSans-64" x="147.802734"/>
       <use xlink:href="#DejaVuSans-69" x="211.279297"/>
       <use xlink:href="#DejaVuSans-75" x="239.0625"/>
       <use xlink:href="#DejaVuSans-6d" x="302.441406"/>
      </g>
     </g>
    </g>
    <g id="xtick_3">
     <g id="line2d_3">
      <g>
       <use xlink:href="#medde694d29" x="254.049468" y="238.804" style="fill: #262626; stroke: #262626"/>
      </g>
     </g>
     <g id="text_3">
      <!-- High -->
      <g style="fill: #262626" transform="translate(243.936343 253.790625) scale(0.088 -0.088)">
       <defs>
        <path id="DejaVuSans-48" d="M 628 4666 
L 1259 4666 
L 1259 2753 
L 3553 2753 
L 3553 4666 
L 4184 4666 
L 4184 0 
L 3553 0 
L 3553 2222 
L 1259 2222 
L 1259 0 
L 628 0 
L 628 4666 
z
" transform="scale(0.015625)"/>
        <path id="DejaVuSans-67" d="M 2906 1791 
Q 2906 2416 2648 2759 
Q 2391 3103 1925 3103 
Q 1463 3103 1205 2759 
Q 947 2416 947 1791 
Q 947 1169 1205 825 
Q 1463 481 1925 481 
Q 2391 481 2648 825 
Q 2906 1169 2906 1791 
z
M 3481 434 
Q 3481 -459 3084 -895 
Q 2688 -1331 1869 -1331 
Q 1566 -1331 1297 -1286 
Q 1028 -1241 775 -1147 
L 775 -588 
Q 1028 -725 1275 -790 
Q 1522 -856 1778 -856 
Q 2344 -856 2625 -561 
Q 2906 -266 2906 331 
L 2906 616 
Q 2728 306 2450 153 
Q 2172 0 1784 0 
Q 1141 0 747 490 
Q 353 981 353 1791 
Q 353 2603 747 3093 
Q 1141 3584 1784 3584 
Q 2172 3584 2450 3431 
Q 2728 3278 2906 2969 
L 2906 3500 
L 3481 3500 
L 3481 434 
z
" transform="scale(0.015625)"/>
        <path id="DejaVuSans-68" d="M 3513 2113 
L 3513 0 
L 2938 0 
L 2938 2094 
Q 2938 2591 2744 2837 
Q 2550 3084 2163 3084 
Q 1697 3084 1428 2787 
Q 1159 2491 1159 1978 
L 1159 0 
L 581 0 
L 581 4863 
L 1159 4863 
L 1159 2956 
Q 1366 3272 1645 3428 
Q 1925 3584 2291 3584 
Q 2894 3584 3203 3211 
Q 3513 2838 3513 2113 
z
" transform="scale(0.015625)"/>
       </defs>
       <use xlink:href="#DejaVuSans-48"/>
       <use xlink:href="#DejaVuSans-69" x="75.195312"/>
       <use xlink:href="#DejaVuSans-67" x="102.978516"/>
       <use xlink:href="#DejaVuSans-68" x="166.455078"/>
      </g>
     </g>
    </g>
   </g>
   <g id="matplotlib.axis_2">
    <g id="ytick_1">
     <g id="line2d_4">
      <defs>
       <path id="m922ede3d09" d="M 0 0 
L -4.8 0 
" style="stroke: #262626"/>
      </defs>
      <g>
       <use xlink:href="#m922ede3d09" x="46.068" y="238.804" style="fill: #262626; stroke: #262626"/>
      </g>
     </g>
     <g id="text_4">
      <!-- 0.5 -->
      <g style="fill: #262626" transform="translate(23.77325 242.147312) scale(0.088 -0.088)">
       <defs>
        <path id="DejaVuSans-30" d="M 2034 4250 
Q 1547 4250 1301 3770 
Q 1056 3291 1056 2328 
Q 1056 1369 1301 889 
Q 1547 409 2034 409 
Q 2525 409 2770 889 
Q 3016 1369 3016 2328 
Q 3016 3291 2770 3770 
Q 2525 4250 2034 4250 
z
M 2034 4750 
Q 2819 4750 3233 4129 
Q 3647 3509 3647 2328 
Q 3647 1150 3233 529 
Q 2819 -91 2034 -91 
Q 1250 -91 836 529 
Q 422 1150 422 2328 
Q 422 3509 836 4129 
Q 1250 4750 2034 4750 
z
" transform="scale(0.015625)"/>
        <path id="DejaVuSans-2e" d="M 684 794 
L 1344 794 
L 1344 0 
L 684 0 
L 684 794 
z
" transform="scale(0.015625)"/>
        <path id="DejaVuSans-35" d="M 691 4666 
L 3169 4666 
L 3169 4134 
L 1269 4134 
L 1269 2991 
Q 1406 3038 1543 3061 
Q 1681 3084 1819 3084 
Q 2600 3084 3056 2656 
Q 3513 2228 3513 1497 
Q 3513 744 3044 326 
Q 2575 -91 1722 -91 
Q 1428 -91 1123 -41 
Q 819 9 494 109 
L 494 744 
Q 775 591 1075 516 
Q 1375 441 1709 441 
Q 2250 441 2565 725 
Q 2881 1009 2881 1497 
Q 2881 1984 2565 2268 
Q 2250 2553 1709 2553 
Q 1456 2553 1204 2497 
Q 953 2441 691 2322 
L 691 4666 
z
" transform="scale(0.015625)"/>
       </defs>
       <use xlink:href="#DejaVuSans-30"/>
       <use xlink:href="#DejaVuSans-2e" x="63.623047"/>
       <use xlink:href="#DejaVuSans-35" x="95.410156"/>
      </g>
     </g>
    </g>
    <g id="ytick_2">
     <g id="line2d_5">
      <g>
       <use xlink:href="#m922ede3d09" x="46.068" y="202.931333" style="fill: #262626; stroke: #262626"/>
      </g>
     </g>
     <g id="text_5">
      <!-- 0.6 -->
      <g style="fill: #262626" transform="translate(23.77325 206.274646) scale(0.088 -0.088)">
       <defs>
        <path id="DejaVuSans-36" d="M 2113 2584 
Q 1688 2584 1439 2293 
Q 1191 2003 1191 1497 
Q 1191 994 1439 701 
Q 1688 409 2113 409 
Q 2538 409 2786 701 
Q 3034 994 3034 1497 
Q 3034 2003 2786 2293 
Q 2538 2584 2113 2584 
z
M 3366 4563 
L 3366 3988 
Q 3128 4100 2886 4159 
Q 2644 4219 2406 4219 
Q 1781 4219 1451 3797 
Q 1122 3375 1075 2522 
Q 1259 2794 1537 2939 
Q 1816 3084 2150 3084 
Q 2853 3084 3261 2657 
Q 3669 2231 3669 1497 
Q 3669 778 3244 343 
Q 2819 -91 2113 -91 
Q 1303 -91 875 529 
Q 447 1150 447 2328 
Q 447 3434 972 4092 
Q 1497 4750 2381 4750 
Q 2619 4750 2861 4703 
Q 3103 4656 3366 4563 
z
" transform="scale(0.015625)"/>
       </defs>
       <use xlink:href="#DejaVuSans-30"/>
       <use xlink:href="#DejaVuSans-2e" x="63.623047"/>
       <use xlink:href="#DejaVuSans-36" x="95.410156"/>
      </g>
     </g>
    </g>
    <g id="ytick_3">
     <g id="line2d_6">
      <g>
       <use xlink:href="#m922ede3d09" x="46.068" y="167.058667" style="fill: #262626; stroke: #262626"/>
      </g>
     </g>
     <g id="text_6">
      <!-- 0.7 -->
      <g style="fill: #262626" transform="translate(23.77325 170.401979) scale(0.088 -0.088)">
       <defs>
        <path id="DejaVuSans-37" d="M 525 4666 
L 3525 4666 
L 3525 4397 
L 1831 0 
L 1172 0 
L 2766 4134 
L 525 4134 
L 525 4666 
z
" transform="scale(0.015625)"/>
       </defs>
       <use xlink:href="#DejaVuSans-30"/>
       <use xlink:href="#DejaVuSans-2e" x="63.623047"/>
       <use xlink:href="#DejaVuSans-37" x="95.410156"/>
      </g>
     </g>
    </g>
    <g id="ytick_4">
     <g id="line2d_7">
      <g>
       <use xlink:href="#m922ede3d09" x="46.068" y="131.186" style="fill: #262626; stroke: #262626"/>
      </g>
     </g>
     <g id="text_7">
      <!-- 0.8 -->
      <g style="fill: #262626" transform="translate(23.77325 134.529312) scale(0.088 -0.088)">
       <defs>
        <path id="DejaVuSans-38" d="M 2034 2216 
Q 1584 2216 1326 1975 
Q 1069 1734 1069 1313 
Q 1069 891 1326 650 
Q 1584 409 2034 409 
Q 2484 409 2743 651 
Q 3003 894 3003 1313 
Q 3003 1734 2745 1975 
Q 2488 2216 2034 2216 
z
M 1403 2484 
Q 997 2584 770 2862 
Q 544 3141 544 3541 
Q 544 4100 942 4425 
Q 1341 4750 2034 4750 
Q 2731 4750 3128 4425 
Q 3525 4100 3525 3541 
Q 3525 3141 3298 2862 
Q 3072 2584 2669 2484 
Q 3125 2378 3379 2068 
Q 3634 1759 3634 1313 
Q 3634 634 3220 271 
Q 2806 -91 2034 -91 
Q 1263 -91 848 271 
Q 434 634 434 1313 
Q 434 1759 690 2068 
Q 947 2378 1403 2484 
z
M 1172 3481 
Q 1172 3119 1398 2916 
Q 1625 2713 2034 2713 
Q 2441 2713 2670 2916 
Q 2900 3119 2900 3481 
Q 2900 3844 2670 4047 
Q 2441 4250 2034 4250 
Q 1625 4250 1398 4047 
Q 1172 3844 1172 3481 
z
" transform="scale(0.015625)"/>
       </defs>
       <use xlink:href="#DejaVuSans-30"/>
       <use xlink:href="#DejaVuSans-2e" x="63.623047"/>
       <use xlink:href="#DejaVuSans-38" x="95.410156"/>
      </g>
     </g>
    </g>
    <g id="ytick_5">
     <g id="line2d_8">
      <g>
       <use xlink:href="#m922ede3d09" x="46.068" y="95.313333" style="fill: #262626; stroke: #262626"/>
      </g>
     </g>
     <g id="text_8">
      <!-- 0.9 -->
      <g style="fill: #262626" transform="translate(23.77325 98.656646) scale(0.088 -0.088)">
       <defs>
        <path id="DejaVuSans-39" d="M 703 97 
L 703 672 
Q 941 559 1184 500 
Q 1428 441 1663 441 
Q 2288 441 2617 861 
Q 2947 1281 2994 2138 
Q 2813 1869 2534 1725 
Q 2256 1581 1919 1581 
Q 1219 1581 811 2004 
Q 403 2428 403 3163 
Q 403 3881 828 4315 
Q 1253 4750 1959 4750 
Q 2769 4750 3195 4129 
Q 3622 3509 3622 2328 
Q 3622 1225 3098 567 
Q 2575 -91 1691 -91 
Q 1453 -91 1209 -44 
Q 966 3 703 97 
z
M 1959 2075 
Q 2384 2075 2632 2365 
Q 2881 2656 2881 3163 
Q 2881 3666 2632 3958 
Q 2384 4250 1959 4250 
Q 1534 4250 1286 3958 
Q 1038 3666 1038 3163 
Q 1038 2656 1286 2365 
Q 1534 2075 1959 2075 
z
" transform="scale(0.015625)"/>
       </defs>
       <use xlink:href="#DejaVuSans-30"/>
       <use xlink:href="#DejaVuSans-2e" x="63.623047"/>
       <use xlink:href="#DejaVuSans-39" x="95.410156"/>
      </g>
     </g>
    </g>
    <g id="ytick_6">
     <g id="line2d_9">
      <g>
       <use xlink:href="#m922ede3d09" x="46.068" y="59.440667" style="fill: #262626; stroke: #262626"/>
      </g>
     </g>
     <g id="text_9">
      <!-- 1.0 -->
      <g style="fill: #262626" transform="translate(23.77325 62.783979) scale(0.088 -0.088)">
       <defs>
        <path id="DejaVuSans-31" d="M 794 531 
L 1825 531 
L 1825 4091 
L 703 3866 
L 703 4441 
L 1819 4666 
L 2450 4666 
L 2450 531 
L 3481 531 
L 3481 0 
L 794 0 
L 794 531 
z
" transform="scale(0.015625)"/>
       </defs>
       <use xlink:href="#DejaVuSans-31"/>
       <use xlink:href="#DejaVuSans-2e" x="63.623047"/>
       <use xlink:href="#DejaVuSans-30" x="95.410156"/>
      </g>
     </g>
    </g>
    <g id="ytick_7">
     <g id="line2d_10">
      <g>
       <use xlink:href="#m922ede3d09" x="46.068" y="23.568" style="fill: #262626; stroke: #262626"/>
      </g>
     </g>
     <g id="text_10">
      <!-- 1.1 -->
      <g style="fill: #262626" transform="translate(23.77325 26.911313) scale(0.088 -0.088)">
       <use xlink:href="#DejaVuSans-31"/>
       <use xlink:href="#DejaVuSans-2e" x="63.623047"/>
       <use xlink:href="#DejaVuSans-31" x="95.410156"/>
      </g>
     </g>
    </g>
    <g id="text_11">
     <!-- Probability of correct response -->
     <g style="fill: #262626" transform="translate(17.77675 204.36575) rotate(-90) scale(0.096 -0.096)">
      <defs>
       <path id="DejaVuSans-50" d="M 1259 4147 
L 1259 2394 
L 2053 2394 
Q 2494 2394 2734 2622 
Q 2975 2850 2975 3272 
Q 2975 3691 2734 3919 
Q 2494 4147 2053 4147 
L 1259 4147 
z
M 628 4666 
L 2053 4666 
Q 2838 4666 3239 4311 
Q 3641 3956 3641 3272 
Q 3641 2581 3239 2228 
Q 2838 1875 2053 1875 
L 1259 1875 
L 1259 0 
L 628 0 
L 628 4666 
z
" transform="scale(0.015625)"/>
       <path id="DejaVuSans-72" d="M 2631 2963 
Q 2534 3019 2420 3045 
Q 2306 3072 2169 3072 
Q 1681 3072 1420 2755 
Q 1159 2438 1159 1844 
L 1159 0 
L 581 0 
L 581 3500 
L 1159 3500 
L 1159 2956 
Q 1341 3275 1631 3429 
Q 1922 3584 2338 3584 
Q 2397 3584 2469 3576 
Q 2541 3569 2628 3553 
L 2631 2963 
z
" transform="scale(0.015625)"/>
       <path id="DejaVuSans-62" d="M 3116 1747 
Q 3116 2381 2855 2742 
Q 2594 3103 2138 3103 
Q 1681 3103 1420 2742 
Q 1159 2381 1159 1747 
Q 1159 1113 1420 752 
Q 1681 391 2138 391 
Q 2594 391 2855 752 
Q 3116 1113 3116 1747 
z
M 1159 2969 
Q 1341 3281 1617 3432 
Q 1894 3584 2278 3584 
Q 2916 3584 3314 3078 
Q 3713 2572 3713 1747 
Q 3713 922 3314 415 
Q 2916 -91 2278 -91 
Q 1894 -91 1617 61 
Q 1341 213 1159 525 
L 1159 0 
L 581 0 
L 581 4863 
L 1159 4863 
L 1159 2969 
z
" transform="scale(0.015625)"/>
       <path id="DejaVuSans-61" d="M 2194 1759 
Q 1497 1759 1228 1600 
Q 959 1441 959 1056 
Q 959 750 1161 570 
Q 1363 391 1709 391 
Q 2188 391 2477 730 
Q 2766 1069 2766 1631 
L 2766 1759 
L 2194 1759 
z
M 3341 1997 
L 3341 0 
L 2766 0 
L 2766 531 
Q 2569 213 2275 61 
Q 1981 -91 1556 -91 
Q 1019 -91 701 211 
Q 384 513 384 1019 
Q 384 1609 779 1909 
Q 1175 2209 1959 2209 
L 2766 2209 
L 2766 2266 
Q 2766 2663 2505 2880 
Q 2244 3097 1772 3097 
Q 1472 3097 1187 3025 
Q 903 2953 641 2809 
L 641 3341 
Q 956 3463 1253 3523 
Q 1550 3584 1831 3584 
Q 2591 3584 2966 3190 
Q 3341 2797 3341 1997 
z
" transform="scale(0.015625)"/>
       <path id="DejaVuSans-6c" d="M 603 4863 
L 1178 4863 
L 1178 0 
L 603 0 
L 603 4863 
z
" transform="scale(0.015625)"/>
       <path id="DejaVuSans-74" d="M 1172 4494 
L 1172 3500 
L 2356 3500 
L 2356 3053 
L 1172 3053 
L 1172 1153 
Q 1172 725 1289 603 
Q 1406 481 1766 481 
L 2356 481 
L 2356 0 
L 1766 0 
Q 1100 0 847 248 
Q 594 497 594 1153 
L 594 3053 
L 172 3053 
L 172 3500 
L 594 3500 
L 594 4494 
L 1172 4494 
z
" transform="scale(0.015625)"/>
       <path id="DejaVuSans-79" d="M 2059 -325 
Q 1816 -950 1584 -1140 
Q 1353 -1331 966 -1331 
L 506 -1331 
L 506 -850 
L 844 -850 
Q 1081 -850 1212 -737 
Q 1344 -625 1503 -206 
L 1606 56 
L 191 3500 
L 800 3500 
L 1894 763 
L 2988 3500 
L 3597 3500 
L 2059 -325 
z
" transform="scale(0.015625)"/>
       <path id="DejaVuSans-20" transform="scale(0.015625)"/>
       <path id="DejaVuSans-66" d="M 2375 4863 
L 2375 4384 
L 1825 4384 
Q 1516 4384 1395 4259 
Q 1275 4134 1275 3809 
L 1275 3500 
L 2222 3500 
L 2222 3053 
L 1275 3053 
L 1275 0 
L 697 0 
L 697 3053 
L 147 3053 
L 147 3500 
L 697 3500 
L 697 3744 
Q 697 4328 969 4595 
Q 1241 4863 1831 4863 
L 2375 4863 
z
" transform="scale(0.015625)"/>
       <path id="DejaVuSans-63" d="M 3122 3366 
L 3122 2828 
Q 2878 2963 2633 3030 
Q 2388 3097 2138 3097 
Q 1578 3097 1268 2742 
Q 959 2388 959 1747 
Q 959 1106 1268 751 
Q 1578 397 2138 397 
Q 2388 397 2633 464 
Q 2878 531 3122 666 
L 3122 134 
Q 2881 22 2623 -34 
Q 2366 -91 2075 -91 
Q 1284 -91 818 406 
Q 353 903 353 1747 
Q 353 2603 823 3093 
Q 1294 3584 2113 3584 
Q 2378 3584 2631 3529 
Q 2884 3475 3122 3366 
z
" transform="scale(0.015625)"/>
       <path id="DejaVuSans-73" d="M 2834 3397 
L 2834 2853 
Q 2591 2978 2328 3040 
Q 2066 3103 1784 3103 
Q 1356 3103 1142 2972 
Q 928 2841 928 2578 
Q 928 2378 1081 2264 
Q 1234 2150 1697 2047 
L 1894 2003 
Q 2506 1872 2764 1633 
Q 3022 1394 3022 966 
Q 3022 478 2636 193 
Q 2250 -91 1575 -91 
Q 1294 -91 989 -36 
Q 684 19 347 128 
L 347 722 
Q 666 556 975 473 
Q 1284 391 1588 391 
Q 1994 391 2212 530 
Q 2431 669 2431 922 
Q 2431 1156 2273 1281 
Q 2116 1406 1581 1522 
L 1381 1569 
Q 847 1681 609 1914 
Q 372 2147 372 2553 
Q 372 3047 722 3315 
Q 1072 3584 1716 3584 
Q 2034 3584 2315 3537 
Q 2597 3491 2834 3397 
z
" transform="scale(0.015625)"/>
       <path id="DejaVuSans-70" d="M 1159 525 
L 1159 -1331 
L 581 -1331 
L 581 3500 
L 1159 3500 
L 1159 2969 
Q 1341 3281 1617 3432 
Q 1894 3584 2278 3584 
Q 2916 3584 3314 3078 
Q 3713 2572 3713 1747 
Q 3713 922 3314 415 
Q 2916 -91 2278 -91 
Q 1894 -91 1617 61 
Q 1341 213 1159 525 
z
M 3116 1747 
Q 3116 2381 2855 2742 
Q 2594 3103 2138 3103 
Q 1681 3103 1420 2742 
Q 1159 2381 1159 1747 
Q 1159 1113 1420 752 
Q 1681 391 2138 391 
Q 2594 391 2855 752 
Q 3116 1113 3116 1747 
z
" transform="scale(0.015625)"/>
       <path id="DejaVuSans-6e" d="M 3513 2113 
L 3513 0 
L 2938 0 
L 2938 2094 
Q 2938 2591 2744 2837 
Q 2550 3084 2163 3084 
Q 1697 3084 1428 2787 
Q 1159 2491 1159 1978 
L 1159 0 
L 581 0 
L 581 3500 
L 1159 3500 
L 1159 2956 
Q 1366 3272 1645 3428 
Q 1925 3584 2291 3584 
Q 2894 3584 3203 3211 
Q 3513 2838 3513 2113 
z
" transform="scale(0.015625)"/>
      </defs>
      <use xlink:href="#DejaVuSans-50"/>
      <use xlink:href="#DejaVuSans-72" x="58.552734"/>
      <use xlink:href="#DejaVuSans-6f" x="97.416016"/>
      <use xlink:href="#DejaVuSans-62" x="158.597656"/>
      <use xlink:href="#DejaVuSans-61" x="222.074219"/>
      <use xlink:href="#DejaVuSans-62" x="283.353516"/>
      <use xlink:href="#DejaVuSans-69" x="346.830078"/>
      <use xlink:href="#DejaVuSans-6c" x="374.613281"/>
      <use xlink:href="#DejaVuSans-69" x="402.396484"/>
      <use xlink:href="#DejaVuSans-74" x="430.179688"/>
      <use xlink:href="#DejaVuSans-79" x="469.388672"/>
      <use xlink:href="#DejaVuSans-20" x="528.568359"/>
      <use xlink:href="#DejaVuSans-6f" x="560.355469"/>
      <use xlink:href="#DejaVuSans-66" x="621.537109"/>
      <use xlink:href="#DejaVuSans-20" x="656.742188"/>
      <use xlink:href="#DejaVuSans-63" x="688.529297"/>
      <use xlink:href="#DejaVuSans-6f" x="743.509766"/>
      <use xlink:href="#DejaVuSans-72" x="804.691406"/>
      <use xlink:href="#DejaVuSans-72" x="844.054688"/>
      <use xlink:href="#DejaVuSans-65" x="882.917969"/>
      <use xlink:href="#DejaVuSans-63" x="944.441406"/>
      <use xlink:href="#DejaVuSans-74" x="999.421875"/>
      <use xlink:href="#DejaVuSans-20" x="1038.630859"/>
      <use xlink:href="#DejaVuSans-72" x="1070.417969"/>
      <use xlink:href="#DejaVuSans-65" x="1109.28125"/>
      <use xlink:href="#DejaVuSans-73" x="1170.804688"/>
      <use xlink:href="#DejaVuSans-70" x="1222.904297"/>
      <use xlink:href="#DejaVuSans-6f" x="1286.380859"/>
      <use xlink:href="#DejaVuSans-6e" x="1347.5625"/>
      <use xlink:href="#DejaVuSans-73" x="1410.941406"/>
      <use xlink:href="#DejaVuSans-65" x="1463.041016"/>
     </g>
    </g>
   </g>
   <g id="PolyCollection_1">
    <defs>
     <path id="mfe5cdf7b85" d="M 98.632948 -132.487572 
L 81.936117 -132.487572 
L 81.738399 -133.102198 
L 81.540571 -133.716824 
L 81.342003 -134.33145 
L 81.142012 -134.946076 
L 80.939865 -135.560701 
L 80.734794 -136.175327 
L 80.526006 -136.789953 
L 80.312696 -137.404579 
L 80.094058 -138.019205 
L 79.869298 -138.63383 
L 79.63765 -139.248456 
L 79.398384 -139.863082 
L 79.150823 -140.477708 
L 78.894354 -141.092334 
L 78.628437 -141.706959 
L 78.352617 -142.321585 
L 78.066533 -142.936211 
L 77.769924 -143.550837 
L 77.462636 -144.165463 
L 77.144627 -144.780088 
L 76.815967 -145.394714 
L 76.47684 -146.00934 
L 76.127544 -146.623966 
L 75.768483 -147.238592 
L 75.400167 -147.853217 
L 75.023202 -148.467843 
L 74.638282 -149.082469 
L 74.246177 -149.697095 
L 73.847725 -150.311721 
L 73.443816 -150.926346 
L 73.035377 -151.540972 
L 72.623363 -152.155598 
L 72.208735 -152.770224 
L 71.792452 -153.38485 
L 71.375449 -153.999475 
L 70.95863 -154.614101 
L 70.542847 -155.228727 
L 70.128895 -155.843353 
L 69.717495 -156.457979 
L 69.309286 -157.072604 
L 68.904819 -157.68723 
L 68.504551 -158.301856 
L 68.108838 -158.916482 
L 67.717939 -159.531107 
L 67.332014 -160.145733 
L 66.951127 -160.760359 
L 66.575255 -161.374985 
L 66.204294 -161.989611 
L 65.838069 -162.604236 
L 65.476349 -163.218862 
L 65.11886 -163.833488 
L 64.765299 -164.448114 
L 64.415355 -165.06274 
L 64.068726 -165.677365 
L 63.725134 -166.291991 
L 63.38435 -166.906617 
L 63.04621 -167.521243 
L 62.710633 -168.135869 
L 62.377639 -168.750494 
L 62.047366 -169.36512 
L 61.720082 -169.979746 
L 61.3962 -170.594372 
L 61.076287 -171.208998 
L 60.761074 -171.823623 
L 60.451454 -172.438249 
L 60.148491 -173.052875 
L 59.853417 -173.667501 
L 59.567621 -174.282127 
L 59.29265 -174.896752 
L 59.030192 -175.511378 
L 58.782066 -176.126004 
L 58.550199 -176.74063 
L 58.336614 -177.355256 
L 58.143402 -177.969881 
L 57.9727 -178.584507 
L 57.826666 -179.199133 
L 57.707452 -179.813759 
L 57.617173 -180.428385 
L 57.557883 -181.04301 
L 57.531545 -181.657636 
L 57.540002 -182.272262 
L 57.584952 -182.886888 
L 57.667921 -183.501514 
L 57.790241 -184.116139 
L 57.953027 -184.730765 
L 58.157159 -185.345391 
L 58.403266 -185.960017 
L 58.691711 -186.574643 
L 59.022586 -187.189268 
L 59.395697 -187.803894 
L 59.81057 -188.41852 
L 60.266448 -189.033146 
L 60.762292 -189.647771 
L 61.296793 -190.262397 
L 61.868381 -190.877023 
L 62.475237 -191.491649 
L 63.115314 -192.106275 
L 63.786351 -192.7209 
L 64.485896 -193.335526 
L 116.083169 -193.335526 
L 116.083169 -193.335526 
L 116.782714 -192.7209 
L 117.453751 -192.106275 
L 118.093828 -191.491649 
L 118.700684 -190.877023 
L 119.272272 -190.262397 
L 119.806773 -189.647771 
L 120.302617 -189.033146 
L 120.758495 -188.41852 
L 121.173368 -187.803894 
L 121.546479 -187.189268 
L 121.877353 -186.574643 
L 122.165799 -185.960017 
L 122.411906 -185.345391 
L 122.616038 -184.730765 
L 122.778824 -184.116139 
L 122.901144 -183.501514 
L 122.984113 -182.886888 
L 123.029062 -182.272262 
L 123.037519 -181.657636 
L 123.011181 -181.04301 
L 122.951892 -180.428385 
L 122.861613 -179.813759 
L 122.742399 -179.199133 
L 122.596365 -178.584507 
L 122.425663 -177.969881 
L 122.232451 -177.355256 
L 122.018866 -176.74063 
L 121.786999 -176.126004 
L 121.538873 -175.511378 
L 121.276415 -174.896752 
L 121.001444 -174.282127 
L 120.715648 -173.667501 
L 120.420573 -173.052875 
L 120.117611 -172.438249 
L 119.807991 -171.823623 
L 119.492778 -171.208998 
L 119.172865 -170.594372 
L 118.848983 -169.979746 
L 118.521699 -169.36512 
L 118.191425 -168.750494 
L 117.858432 -168.135869 
L 117.522855 -167.521243 
L 117.184715 -166.906617 
L 116.843931 -166.291991 
L 116.500339 -165.677365 
L 116.15371 -165.06274 
L 115.803766 -164.448114 
L 115.450205 -163.833488 
L 115.092716 -163.218862 
L 114.730996 -162.604236 
L 114.364771 -161.989611 
L 113.99381 -161.374985 
L 113.617938 -160.760359 
L 113.237051 -160.145733 
L 112.851126 -159.531107 
L 112.460227 -158.916482 
L 112.064514 -158.301856 
L 111.664246 -157.68723 
L 111.259779 -157.072604 
L 110.85157 -156.457979 
L 110.44017 -155.843353 
L 110.026218 -155.228727 
L 109.610435 -154.614101 
L 109.193616 -153.999475 
L 108.776613 -153.38485 
L 108.36033 -152.770224 
L 107.945702 -152.155598 
L 107.533688 -151.540972 
L 107.125249 -150.926346 
L 106.72134 -150.311721 
L 106.322888 -149.697095 
L 105.930783 -149.082469 
L 105.545863 -148.467843 
L 105.168898 -147.853217 
L 104.800582 -147.238592 
L 104.441521 -146.623966 
L 104.092225 -146.00934 
L 103.753098 -145.394714 
L 103.424438 -144.780088 
L 103.106429 -144.165463 
L 102.799141 -143.550837 
L 102.502532 -142.936211 
L 102.216448 -142.321585 
L 101.940628 -141.706959 
L 101.674711 -141.092334 
L 101.418242 -140.477708 
L 101.170681 -139.863082 
L 100.931415 -139.248456 
L 100.699767 -138.63383 
L 100.475007 -138.019205 
L 100.256369 -137.404579 
L 100.043059 -136.789953 
L 99.834271 -136.175327 
L 99.6292 -135.560701 
L 99.427053 -134.946076 
L 99.227062 -134.33145 
L 99.028494 -133.716824 
L 98.830666 -133.102198 
L 98.632948 -132.487572 
z
" style="stroke: #2f2f2f"/>
    </defs>
    <g clip-path="url(#p1975925ee7)">
     <use xlink:href="#mfe5cdf7b85" x="0" y="288" style="fill: #58b2a3; stroke: #2f2f2f"/>
    </g>
   </g>
   <g id="PolyCollection_2">
    <defs>
     <path id="ma2b9127719" d="M 185.279145 -149.038644 
L 159.054855 -149.038644 
L 158.631914 -149.546947 
L 158.210858 -150.05525 
L 157.792426 -150.563553 
L 157.377356 -151.071856 
L 156.966382 -151.580159 
L 156.560229 -152.088462 
L 156.159614 -152.596765 
L 155.765235 -153.105069 
L 155.37777 -153.613372 
L 154.997873 -154.121675 
L 154.626164 -154.629978 
L 154.263226 -155.138281 
L 153.9096 -155.646584 
L 153.565771 -156.154887 
L 153.232171 -156.66319 
L 152.909163 -157.171493 
L 152.59704 -157.679796 
L 152.296015 -158.1881 
L 152.006214 -158.696403 
L 151.727673 -159.204706 
L 151.460329 -159.713009 
L 151.204019 -160.221312 
L 150.958473 -160.729615 
L 150.723312 -161.237918 
L 150.49805 -161.746221 
L 150.282089 -162.254524 
L 150.074727 -162.762828 
L 149.875154 -163.271131 
L 149.682466 -163.779434 
L 149.495665 -164.287737 
L 149.313668 -164.79604 
L 149.135325 -165.304343 
L 148.95942 -165.812646 
L 148.784697 -166.320949 
L 148.609863 -166.829252 
L 148.433618 -167.337555 
L 148.254661 -167.845859 
L 148.071718 -168.354162 
L 147.883556 -168.862465 
L 147.689006 -169.370768 
L 147.486983 -169.879071 
L 147.276506 -170.387374 
L 147.056716 -170.895677 
L 146.826898 -171.40398 
L 146.586497 -171.912283 
L 146.335133 -172.420587 
L 146.072618 -172.92889 
L 145.798966 -173.437193 
L 145.514408 -173.945496 
L 145.219391 -174.453799 
L 144.914592 -174.962102 
L 144.600912 -175.470405 
L 144.279483 -175.978708 
L 143.951656 -176.487011 
L 143.618997 -176.995315 
L 143.283279 -177.503618 
L 142.946464 -178.011921 
L 142.610688 -178.520224 
L 142.278246 -179.028527 
L 141.951563 -179.53683 
L 141.633177 -180.045133 
L 141.325709 -180.553436 
L 141.03184 -181.061739 
L 140.754278 -181.570042 
L 140.495732 -182.078346 
L 140.25888 -182.586649 
L 140.046344 -183.094952 
L 139.860656 -183.603255 
L 139.704233 -184.111558 
L 139.579348 -184.619861 
L 139.488108 -185.128164 
L 139.432429 -185.636467 
L 139.414013 -186.14477 
L 139.434334 -186.653074 
L 139.49462 -187.161377 
L 139.595841 -187.66968 
L 139.7387 -188.177983 
L 139.923624 -188.686286 
L 140.150768 -189.194589 
L 140.420008 -189.702892 
L 140.730947 -190.211195 
L 141.082923 -190.719498 
L 141.475016 -191.227801 
L 141.906061 -191.736105 
L 142.37466 -192.244408 
L 142.879203 -192.752711 
L 143.41788 -193.261014 
L 143.988705 -193.769317 
L 144.589536 -194.27762 
L 145.218095 -194.785923 
L 145.871992 -195.294226 
L 146.548746 -195.802529 
L 147.245809 -196.310833 
L 147.960587 -196.819136 
L 148.69046 -197.327439 
L 149.432807 -197.835742 
L 150.185023 -198.344045 
L 150.944534 -198.852348 
L 151.708822 -199.360651 
L 192.625178 -199.360651 
L 192.625178 -199.360651 
L 193.389466 -198.852348 
L 194.148977 -198.344045 
L 194.901193 -197.835742 
L 195.64354 -197.327439 
L 196.373413 -196.819136 
L 197.088191 -196.310833 
L 197.785254 -195.802529 
L 198.462008 -195.294226 
L 199.115905 -194.785923 
L 199.744464 -194.27762 
L 200.345295 -193.769317 
L 200.91612 -193.261014 
L 201.454797 -192.752711 
L 201.95934 -192.244408 
L 202.427939 -191.736105 
L 202.858984 -191.227801 
L 203.251077 -190.719498 
L 203.603053 -190.211195 
L 203.913992 -189.702892 
L 204.183232 -189.194589 
L 204.410376 -188.686286 
L 204.5953 -188.177983 
L 204.738159 -187.66968 
L 204.83938 -187.161377 
L 204.899666 -186.653074 
L 204.919987 -186.14477 
L 204.901571 -185.636467 
L 204.845892 -185.128164 
L 204.754652 -184.619861 
L 204.629767 -184.111558 
L 204.473344 -183.603255 
L 204.287656 -183.094952 
L 204.07512 -182.586649 
L 203.838268 -182.078346 
L 203.579722 -181.570042 
L 203.30216 -181.061739 
L 203.008291 -180.553436 
L 202.700823 -180.045133 
L 202.382437 -179.53683 
L 202.055754 -179.028527 
L 201.723312 -178.520224 
L 201.387536 -178.011921 
L 201.050721 -177.503618 
L 200.715003 -176.995315 
L 200.382344 -176.487011 
L 200.054517 -175.978708 
L 199.733088 -175.470405 
L 199.419408 -174.962102 
L 199.114609 -174.453799 
L 198.819592 -173.945496 
L 198.535034 -173.437193 
L 198.261382 -172.92889 
L 197.998867 -172.420587 
L 197.747503 -171.912283 
L 197.507102 -171.40398 
L 197.277284 -170.895677 
L 197.057494 -170.387374 
L 196.847017 -169.879071 
L 196.644994 -169.370768 
L 196.450444 -168.862465 
L 196.262282 -168.354162 
L 196.079339 -167.845859 
L 195.900382 -167.337555 
L 195.724137 -166.829252 
L 195.549303 -166.320949 
L 195.37458 -165.812646 
L 195.198675 -165.304343 
L 195.020332 -164.79604 
L 194.838335 -164.287737 
L 194.651534 -163.779434 
L 194.458846 -163.271131 
L 194.259273 -162.762828 
L 194.051911 -162.254524 
L 193.83595 -161.746221 
L 193.610688 -161.237918 
L 193.375527 -160.729615 
L 193.129981 -160.221312 
L 192.873671 -159.713009 
L 192.606327 -159.204706 
L 192.327786 -158.696403 
L 192.037985 -158.1881 
L 191.73696 -157.679796 
L 191.424837 -157.171493 
L 191.101829 -156.66319 
L 190.768229 -156.154887 
L 190.4244 -155.646584 
L 190.070774 -155.138281 
L 189.707836 -154.629978 
L 189.336127 -154.121675 
L 188.95623 -153.613372 
L 188.568765 -153.105069 
L 188.174386 -152.596765 
L 187.773771 -152.088462 
L 187.367618 -151.580159 
L 186.956644 -151.071856 
L 186.541574 -150.563553 
L 186.123142 -150.05525 
L 185.702086 -149.546947 
L 185.279145 -149.038644 
z
" style="stroke: #2f2f2f"/>
    </defs>
    <g clip-path="url(#p1975925ee7)">
     <use xlink:href="#ma2b9127719" x="0" y="288" style="fill: #437695; stroke: #2f2f2f"/>
    </g>
   </g>
   <g id="PolyCollection_3">
    <defs>
     <path id="m628aab1514" d="M 274.53195 -150.613786 
L 233.566985 -150.613786 
L 233.088755 -151.253647 
L 232.627606 -151.893507 
L 232.183952 -152.533368 
L 231.758022 -153.173229 
L 231.34986 -153.813089 
L 230.959326 -154.45295 
L 230.586102 -155.092811 
L 230.2297 -155.732671 
L 229.889468 -156.372532 
L 229.56461 -157.012393 
L 229.254193 -157.652253 
L 228.95717 -158.292114 
L 228.672399 -158.931975 
L 228.398658 -159.571835 
L 228.134676 -160.211696 
L 227.879147 -160.851557 
L 227.630761 -161.491417 
L 227.388223 -162.131278 
L 227.150278 -162.771139 
L 226.915734 -163.410999 
L 226.683485 -164.05086 
L 226.452529 -164.690721 
L 226.22199 -165.330581 
L 225.991131 -165.970442 
L 225.759373 -166.610303 
L 225.526305 -167.250163 
L 225.291692 -167.890024 
L 225.055482 -168.529885 
L 224.817813 -169.169745 
L 224.579009 -169.809606 
L 224.339579 -170.449467 
L 224.100213 -171.089327 
L 223.861771 -171.729188 
L 223.625277 -172.369049 
L 223.3919 -173.008909 
L 223.162941 -173.64877 
L 222.939817 -174.288631 
L 222.72404 -174.928491 
L 222.517198 -175.568352 
L 222.320933 -176.208213 
L 222.136918 -176.848073 
L 221.966838 -177.487934 
L 221.812365 -178.127795 
L 221.675138 -178.767655 
L 221.556742 -179.407516 
L 221.458686 -180.047377 
L 221.382388 -180.687237 
L 221.329156 -181.327098 
L 221.300172 -181.966959 
L 221.296481 -182.606819 
L 221.318974 -183.24668 
L 221.368389 -183.886541 
L 221.445292 -184.526401 
L 221.550082 -185.166262 
L 221.682981 -185.806123 
L 221.844038 -186.445983 
L 222.03313 -187.085844 
L 222.249964 -187.725705 
L 222.494082 -188.365565 
L 222.76487 -189.005426 
L 223.061568 -189.645287 
L 223.383275 -190.285147 
L 223.728967 -190.925008 
L 224.097502 -191.564869 
L 224.487639 -192.204729 
L 224.898052 -192.84459 
L 225.32734 -193.484451 
L 225.774043 -194.124312 
L 226.236661 -194.764172 
L 226.713664 -195.404033 
L 227.203505 -196.043894 
L 227.704642 -196.683754 
L 228.21554 -197.323615 
L 228.734695 -197.963476 
L 229.260636 -198.603336 
L 229.791945 -199.243197 
L 230.327257 -199.883058 
L 230.865277 -200.522918 
L 231.404784 -201.162779 
L 231.944637 -201.80264 
L 232.483781 -202.4425 
L 233.021249 -203.082361 
L 233.556166 -203.722222 
L 234.08775 -204.362082 
L 234.615312 -205.001943 
L 235.138251 -205.641804 
L 235.656058 -206.281664 
L 236.168305 -206.921525 
L 236.674646 -207.561386 
L 237.174809 -208.201246 
L 237.668591 -208.841107 
L 238.15585 -209.480968 
L 238.636498 -210.120828 
L 239.110493 -210.760689 
L 239.577831 -211.40055 
L 240.038541 -212.04041 
L 240.492673 -212.680271 
L 240.94029 -213.320132 
L 241.381467 -213.959992 
L 266.717468 -213.959992 
L 266.717468 -213.959992 
L 267.158645 -213.320132 
L 267.606262 -212.680271 
L 268.060394 -212.04041 
L 268.521104 -211.40055 
L 268.988442 -210.760689 
L 269.462437 -210.120828 
L 269.943085 -209.480968 
L 270.430344 -208.841107 
L 270.924126 -208.201246 
L 271.424289 -207.561386 
L 271.930631 -206.921525 
L 272.442877 -206.281664 
L 272.960684 -205.641804 
L 273.483623 -205.001943 
L 274.011185 -204.362082 
L 274.542769 -203.722222 
L 275.077686 -203.082361 
L 275.615154 -202.4425 
L 276.154298 -201.80264 
L 276.694151 -201.162779 
L 277.233658 -200.522918 
L 277.771678 -199.883058 
L 278.30699 -199.243197 
L 278.838299 -198.603336 
L 279.36424 -197.963476 
L 279.883395 -197.323615 
L 280.394294 -196.683754 
L 280.89543 -196.043894 
L 281.385271 -195.404033 
L 281.862274 -194.764172 
L 282.324892 -194.124312 
L 282.771595 -193.484451 
L 283.200883 -192.84459 
L 283.611296 -192.204729 
L 284.001433 -191.564869 
L 284.369968 -190.925008 
L 284.71566 -190.285147 
L 285.037367 -189.645287 
L 285.334065 -189.005426 
L 285.604853 -188.365565 
L 285.848971 -187.725705 
L 286.065805 -187.085844 
L 286.254897 -186.445983 
L 286.415954 -185.806123 
L 286.548853 -185.166262 
L 286.653643 -184.526401 
L 286.730546 -183.886541 
L 286.779961 -183.24668 
L 286.802455 -182.606819 
L 286.798763 -181.966959 
L 286.769779 -181.327098 
L 286.716547 -180.687237 
L 286.640249 -180.047377 
L 286.542193 -179.407516 
L 286.423797 -178.767655 
L 286.28657 -178.127795 
L 286.132097 -177.487934 
L 285.962017 -176.848073 
L 285.778002 -176.208213 
L 285.581737 -175.568352 
L 285.374895 -174.928491 
L 285.159118 -174.288631 
L 284.935994 -173.64877 
L 284.707035 -173.008909 
L 284.473658 -172.369049 
L 284.237164 -171.729188 
L 283.998722 -171.089327 
L 283.759356 -170.449467 
L 283.519926 -169.809606 
L 283.281122 -169.169745 
L 283.043453 -168.529885 
L 282.807243 -167.890024 
L 282.57263 -167.250163 
L 282.339562 -166.610303 
L 282.107804 -165.970442 
L 281.876945 -165.330581 
L 281.646406 -164.690721 
L 281.41545 -164.05086 
L 281.183201 -163.410999 
L 280.948657 -162.771139 
L 280.710712 -162.131278 
L 280.468174 -161.491417 
L 280.219788 -160.851557 
L 279.964259 -160.211696 
L 279.700277 -159.571835 
L 279.426537 -158.931975 
L 279.141765 -158.292114 
L 278.844742 -157.652253 
L 278.534326 -157.012393 
L 278.209467 -156.372532 
L 277.869236 -155.732671 
L 277.512833 -155.092811 
L 277.139609 -154.45295 
L 276.749076 -153.813089 
L 276.340913 -153.173229 
L 275.914983 -152.533368 
L 275.471329 -151.893507 
L 275.01018 -151.253647 
L 274.53195 -150.613786 
z
" style="stroke: #2f2f2f"/>
    </defs>
    <g clip-path="url(#p1975925ee7)">
     <use xlink:href="#m628aab1514" x="0" y="288" style="fill: #423b63; stroke: #2f2f2f"/>
    </g>
   </g>
   <g id="line2d_11">
    <path d="M 90.284532 155.512428 
L 90.284532 94.664474 
" clip-path="url(#p1975925ee7)" style="fill: none; stroke: #2f2f2f; stroke-width: 1.5; stroke-linecap: round"/>
   </g>
   <g id="line2d_12">
    <path d="M 90.284532 124.663697 
L 90.284532 101.032164 
" clip-path="url(#p1975925ee7)" style="fill: none; stroke: #2f2f2f; stroke-width: 4.5; stroke-linecap: round"/>
   </g>
   <g id="line2d_13">
    <path d="M 90.284532 109.042379 
" clip-path="url(#p1975925ee7)" style="fill: none; stroke: #2f2f2f; stroke-width: 1.2; stroke-linecap: round"/>
    <defs>
     <path id="mf84cea5849" d="M 1.875 0 
L -1.875 -0 
" style="stroke: #ffffff; stroke-width: 0.9"/>
    </defs>
    <g clip-path="url(#p1975925ee7)">
     <use xlink:href="#mf84cea5849" x="90.284532" y="109.042379" style="fill: #ffffff; stroke: #ffffff; stroke-width: 0.9"/>
    </g>
   </g>
   <g id="line2d_14">
    <path d="M 172.167 138.961356 
L 172.167 88.639349 
" clip-path="url(#p1975925ee7)" style="fill: none; stroke: #2f2f2f; stroke-width: 1.5; stroke-linecap: round"/>
   </g>
   <g id="line2d_15">
    <path d="M 172.167 124.985786 
L 172.167 99.511199 
" clip-path="url(#p1975925ee7)" style="fill: none; stroke: #2f2f2f; stroke-width: 4.5; stroke-linecap: round"/>
   </g>
   <g id="line2d_16">
    <path d="M 172.167 102.735264 
" clip-path="url(#p1975925ee7)" style="fill: none; stroke: #2f2f2f; stroke-width: 1.2; stroke-linecap: round"/>
    <g clip-path="url(#p1975925ee7)">
     <use xlink:href="#mf84cea5849" x="172.167" y="102.735264" style="fill: #ffffff; stroke: #ffffff; stroke-width: 0.9"/>
    </g>
   </g>
   <g id="line2d_17">
    <path d="M 254.049468 137.386214 
L 254.049468 74.040008 
" clip-path="url(#p1975925ee7)" style="fill: none; stroke: #2f2f2f; stroke-width: 1.5; stroke-linecap: round"/>
   </g>
   <g id="line2d_18">
    <path d="M 254.049468 126.933055 
L 254.049468 94.783195 
" clip-path="url(#p1975925ee7)" style="fill: none; stroke: #2f2f2f; stroke-width: 4.5; stroke-linecap: round"/>
   </g>
   <g id="line2d_19">
    <path d="M 254.049468 108.097741 
" clip-path="url(#p1975925ee7)" style="fill: none; stroke: #2f2f2f; stroke-width: 1.2; stroke-linecap: round"/>
    <g clip-path="url(#p1975925ee7)">
     <use xlink:href="#mf84cea5849" x="254.049468" y="108.097741" style="fill: #ffffff; stroke: #ffffff; stroke-width: 0.9"/>
    </g>
   </g>
   <g id="line2d_20">
    <path d="M 90.284532 70.452741 
L 90.284532 61.759876 
L 172.167 61.759876 
L 172.167 70.452741 
" clip-path="url(#p1975925ee7)" style="fill: none; stroke: #000000; stroke-linecap: round"/>
   </g>
   <g id="line2d_21">
    <path d="M 172.167 56.103674 
L 172.167 47.052083 
L 254.049468 47.052083 
L 254.049468 56.103674 
" clip-path="url(#p1975925ee7)" style="fill: none; stroke: #000000; stroke-linecap: round"/>
   </g>
   <g id="line2d_22">
    <path d="M 90.284532 41.754608 
L 90.284532 32.34429 
L 254.049468 32.34429 
L 254.049468 41.754608 
" clip-path="url(#p1975925ee7)" style="fill: none; stroke: #000000; stroke-linecap: round"/>
   </g>
   <g id="patch_3">
    <path d="M 46.068 238.804 
L 46.068 23.568 
" style="fill: none; stroke: #262626; stroke-linejoin: miter; stroke-linecap: square"/>
   </g>
   <g id="patch_4">
    <path d="M 298.266 238.804 
L 298.266 23.568 
" style="fill: none; stroke: #262626; stroke-linejoin: miter; stroke-linecap: square"/>
   </g>
   <g id="patch_5">
    <path d="M 46.068 238.804 
L 298.266 238.804 
" style="fill: none; stroke: #262626; stroke-linejoin: miter; stroke-linecap: square"/>
   </g>
   <g id="patch_6">
    <path d="M 46.068 23.568 
L 298.266 23.568 
" style="fill: none; stroke: #262626; stroke-linejoin: miter; stroke-linecap: square"/>
   </g>
   <g id="text_12">
    <!-- ns -->
    <g transform="translate(125.683266 59.763376) scale(0.096 -0.096)">
     <use xlink:href="#DejaVuSans-6e"/>
     <use xlink:href="#DejaVuSans-73" x="63.378906"/>
    </g>
   </g>
   <g id="text_13">
    <!-- ns -->
    <g transform="translate(207.565734 45.055583) scale(0.096 -0.096)">
     <use xlink:href="#DejaVuSans-6e"/>
     <use xlink:href="#DejaVuSans-73" x="63.378906"/>
    </g>
   </g>
   <g id="text_14">
    <!-- ns -->
    <g transform="translate(166.6245 30.34779) scale(0.096 -0.096)">
     <use xlink:href="#DejaVuSans-6e"/>
     <use xlink:href="#DejaVuSans-73" x="63.378906"/>
    </g>
   </g>
   <g id="text_15">
    <!-- Accuracy -->
    <g style="fill: #262626" transform="translate(150.252 17.568) scale(0.096 -0.096)">
     <defs>
      <path id="DejaVuSans-41" d="M 2188 4044 
L 1331 1722 
L 3047 1722 
L 2188 4044 
z
M 1831 4666 
L 2547 4666 
L 4325 0 
L 3669 0 
L 3244 1197 
L 1141 1197 
L 716 0 
L 50 0 
L 1831 4666 
z
" transform="scale(0.015625)"/>
     </defs>
     <use xlink:href="#DejaVuSans-41"/>
     <use xlink:href="#DejaVuSans-63" x="66.658203"/>
     <use xlink:href="#DejaVuSans-63" x="121.638672"/>
     <use xlink:href="#DejaVuSans-75" x="176.619141"/>
     <use xlink:href="#DejaVuSans-72" x="239.998047"/>
     <use xlink:href="#DejaVuSans-61" x="281.111328"/>
     <use xlink:href="#DejaVuSans-63" x="342.390625"/>
     <use xlink:href="#DejaVuSans-79" x="397.371094"/>
    </g>
   </g>
  </g>
  <g id="axes_2">
   <g id="patch_7">
    <path d="M 313.434 238.804 
L 565.632 238.804 
L 565.632 23.568 
L 313.434 23.568 
L 313.434 238.804 
z
" style="fill: none"/>
   </g>
   <g id="matplotlib.axis_3">
    <g id="xtick_4">
     <g id="line2d_23">
      <g>
       <use xlink:href="#medde694d29" x="357.650532" y="238.804" style="fill: #262626; stroke: #262626"/>
      </g>
     </g>
     <g id="text_16">
      <!-- Low -->
      <g style="fill: #262626" transform="translate(348.985282 253.790625) scale(0.088 -0.088)">
       <use xlink:href="#DejaVuSans-4c"/>
       <use xlink:href="#DejaVuSans-6f" x="53.962891"/>
       <use xlink:href="#DejaVuSans-77" x="115.144531"/>
      </g>
     </g>
    </g>
    <g id="xtick_5">
     <g id="line2d_24">
      <g>
       <use xlink:href="#medde694d29" x="439.533" y="238.804" style="fill: #262626; stroke: #262626"/>
      </g>
     </g>
     <g id="text_17">
      <!-- Medium -->
      <g style="fill: #262626" transform="translate(421.939188 253.790625) scale(0.088 -0.088)">
       <use xlink:href="#DejaVuSans-4d"/>
       <use xlink:href="#DejaVuSans-65" x="86.279297"/>
       <use xlink:href="#DejaVuSans-64" x="147.802734"/>
       <use xlink:href="#DejaVuSans-69" x="211.279297"/>
       <use xlink:href="#DejaVuSans-75" x="239.0625"/>
       <use xlink:href="#DejaVuSans-6d" x="302.441406"/>
      </g>
     </g>
    </g>
    <g id="xtick_6">
     <g id="line2d_25">
      <g>
       <use xlink:href="#medde694d29" x="521.415468" y="238.804" style="fill: #262626; stroke: #262626"/>
      </g>
     </g>
     <g id="text_18">
      <!-- High -->
      <g style="fill: #262626" transform="translate(511.302343 253.790625) scale(0.088 -0.088)">
       <use xlink:href="#DejaVuSans-48"/>
       <use xlink:href="#DejaVuSans-69" x="75.195312"/>
       <use xlink:href="#DejaVuSans-67" x="102.978516"/>
       <use xlink:href="#DejaVuSans-68" x="166.455078"/>
      </g>
     </g>
    </g>
   </g>
   <g id="matplotlib.axis_4">
    <g id="ytick_8">
     <g id="line2d_26">
      <g>
       <use xlink:href="#m922ede3d09" x="313.434" y="238.804" style="fill: #262626; stroke: #262626"/>
      </g>
     </g>
    </g>
    <g id="ytick_9">
     <g id="line2d_27">
      <g>
       <use xlink:href="#m922ede3d09" x="313.434" y="202.931333" style="fill: #262626; stroke: #262626"/>
      </g>
     </g>
    </g>
    <g id="ytick_10">
     <g id="line2d_28">
      <g>
       <use xlink:href="#m922ede3d09" x="313.434" y="167.058667" style="fill: #262626; stroke: #262626"/>
      </g>
     </g>
    </g>
    <g id="ytick_11">
     <g id="line2d_29">
      <g>
       <use xlink:href="#m922ede3d09" x="313.434" y="131.186" style="fill: #262626; stroke: #262626"/>
      </g>
     </g>
    </g>
    <g id="ytick_12">
     <g id="line2d_30">
      <g>
       <use xlink:href="#m922ede3d09" x="313.434" y="95.313333" style="fill: #262626; stroke: #262626"/>
      </g>
     </g>
    </g>
    <g id="ytick_13">
     <g id="line2d_31">
      <g>
       <use xlink:href="#m922ede3d09" x="313.434" y="59.440667" style="fill: #262626; stroke: #262626"/>
      </g>
     </g>
    </g>
    <g id="ytick_14">
     <g id="line2d_32">
      <g>
       <use xlink:href="#m922ede3d09" x="313.434" y="23.568" style="fill: #262626; stroke: #262626"/>
      </g>
     </g>
    </g>
   </g>
   <g id="PolyCollection_4">
    <defs>
     <path id="mcdcb3a78c1" d="M 376.852122 -119.224505 
L 338.448942 -119.224505 
L 337.772356 -119.839235 
L 337.09487 -120.453965 
L 336.418097 -121.068695 
L 335.743723 -121.683425 
L 335.073501 -122.298155 
L 334.409246 -122.912884 
L 333.752825 -123.527614 
L 333.10615 -124.142344 
L 332.471165 -124.757074 
L 331.849836 -125.371804 
L 331.244139 -125.986533 
L 330.656044 -126.601263 
L 330.087505 -127.215993 
L 329.540441 -127.830723 
L 329.016723 -128.445453 
L 328.518154 -129.060182 
L 328.04646 -129.674912 
L 327.603262 -130.289642 
L 327.190073 -130.904372 
L 326.808269 -131.519102 
L 326.459083 -132.133831 
L 326.143584 -132.748561 
L 325.862667 -133.363291 
L 325.617037 -133.978021 
L 325.407201 -134.592751 
L 325.233455 -135.207481 
L 325.095876 -135.82221 
L 324.994318 -136.43694 
L 324.92841 -137.05167 
L 324.897545 -137.6664 
L 324.900893 -138.28113 
L 324.937395 -138.895859 
L 325.005768 -139.510589 
L 325.104521 -140.125319 
L 325.231956 -140.740049 
L 325.386186 -141.354779 
L 325.565144 -141.969508 
L 325.766609 -142.584238 
L 325.988214 -143.198968 
L 326.227475 -143.813698 
L 326.481806 -144.428428 
L 326.748549 -145.043158 
L 327.024993 -145.657887 
L 327.308401 -146.272617 
L 327.596037 -146.887347 
L 327.885189 -147.502077 
L 328.173196 -148.116807 
L 328.457476 -148.731536 
L 328.735544 -149.346266 
L 329.005044 -149.960996 
L 329.263765 -150.575726 
L 329.509665 -151.190456 
L 329.740888 -151.805185 
L 329.955786 -152.419915 
L 330.152928 -153.034645 
L 330.331118 -153.649375 
L 330.489402 -154.264105 
L 330.627079 -154.878835 
L 330.743704 -155.493564 
L 330.839093 -156.108294 
L 330.913319 -156.723024 
L 330.966716 -157.337754 
L 330.999867 -157.952484 
L 331.013603 -158.567213 
L 331.008986 -159.181943 
L 330.987305 -159.796673 
L 330.950053 -160.411403 
L 330.898919 -161.026133 
L 330.835764 -161.640862 
L 330.762605 -162.255592 
L 330.681592 -162.870322 
L 330.594989 -163.485052 
L 330.505149 -164.099782 
L 330.41449 -164.714511 
L 330.325475 -165.329241 
L 330.240586 -165.943971 
L 330.162301 -166.558701 
L 330.09307 -167.173431 
L 330.035294 -167.788161 
L 329.991301 -168.40289 
L 329.963329 -169.01762 
L 329.953503 -169.63235 
L 329.963818 -170.24708 
L 329.996122 -170.86181 
L 330.052102 -171.476539 
L 330.13327 -172.091269 
L 330.240951 -172.705999 
L 330.376275 -173.320729 
L 330.540167 -173.935459 
L 330.733344 -174.550188 
L 330.956311 -175.164918 
L 331.209357 -175.779648 
L 331.492558 -176.394378 
L 331.80578 -177.009108 
L 332.14868 -177.623838 
L 332.520714 -178.238567 
L 332.921145 -178.853297 
L 333.349051 -179.468027 
L 333.803336 -180.082757 
L 381.497729 -180.082757 
L 381.497729 -180.082757 
L 381.952014 -179.468027 
L 382.37992 -178.853297 
L 382.780351 -178.238567 
L 383.152385 -177.623838 
L 383.495285 -177.009108 
L 383.808507 -176.394378 
L 384.091708 -175.779648 
L 384.344754 -175.164918 
L 384.567721 -174.550188 
L 384.760898 -173.935459 
L 384.92479 -173.320729 
L 385.060114 -172.705999 
L 385.167795 -172.091269 
L 385.248963 -171.476539 
L 385.304943 -170.86181 
L 385.337247 -170.24708 
L 385.347562 -169.63235 
L 385.337736 -169.01762 
L 385.309764 -168.40289 
L 385.265771 -167.788161 
L 385.207995 -167.173431 
L 385.138764 -166.558701 
L 385.060479 -165.943971 
L 384.97559 -165.329241 
L 384.886575 -164.714511 
L 384.795916 -164.099782 
L 384.706076 -163.485052 
L 384.619472 -162.870322 
L 384.53846 -162.255592 
L 384.465301 -161.640862 
L 384.402146 -161.026133 
L 384.351012 -160.411403 
L 384.31376 -159.796673 
L 384.292079 -159.181943 
L 384.287462 -158.567213 
L 384.301198 -157.952484 
L 384.334349 -157.337754 
L 384.387746 -156.723024 
L 384.461972 -156.108294 
L 384.55736 -155.493564 
L 384.673986 -154.878835 
L 384.811663 -154.264105 
L 384.969947 -153.649375 
L 385.148137 -153.034645 
L 385.345279 -152.419915 
L 385.560176 -151.805185 
L 385.7914 -151.190456 
L 386.0373 -150.575726 
L 386.296021 -149.960996 
L 386.565521 -149.346266 
L 386.843589 -148.731536 
L 387.127869 -148.116807 
L 387.415876 -147.502077 
L 387.705028 -146.887347 
L 387.992664 -146.272617 
L 388.276072 -145.657887 
L 388.552516 -145.043158 
L 388.819259 -144.428428 
L 389.07359 -143.813698 
L 389.312851 -143.198968 
L 389.534456 -142.584238 
L 389.735921 -141.969508 
L 389.914879 -141.354779 
L 390.069109 -140.740049 
L 390.196544 -140.125319 
L 390.295297 -139.510589 
L 390.36367 -138.895859 
L 390.400171 -138.28113 
L 390.403519 -137.6664 
L 390.372655 -137.05167 
L 390.306746 -136.43694 
L 390.205189 -135.82221 
L 390.06761 -135.207481 
L 389.893864 -134.592751 
L 389.684027 -133.978021 
L 389.438398 -133.363291 
L 389.157481 -132.748561 
L 388.841982 -132.133831 
L 388.492796 -131.519102 
L 388.110992 -130.904372 
L 387.697803 -130.289642 
L 387.254605 -129.674912 
L 386.782911 -129.060182 
L 386.284342 -128.445453 
L 385.760624 -127.830723 
L 385.21356 -127.215993 
L 384.645021 -126.601263 
L 384.056926 -125.986533 
L 383.451229 -125.371804 
L 382.8299 -124.757074 
L 382.194915 -124.142344 
L 381.54824 -123.527614 
L 380.891819 -122.912884 
L 380.227564 -122.298155 
L 379.557342 -121.683425 
L 378.882968 -121.068695 
L 378.206195 -120.453965 
L 377.528709 -119.839235 
L 376.852122 -119.224505 
z
" style="stroke: #2f2f2f"/>
    </defs>
    <g clip-path="url(#pccdf2e05df)">
     <use xlink:href="#mcdcb3a78c1" x="0" y="288" style="fill: #58b2a3; stroke: #2f2f2f"/>
    </g>
   </g>
   <g id="PolyCollection_5">
    <defs>
     <path id="mc9af164fae" d="M 451.632971 -90.30951 
L 427.433029 -90.30951 
L 426.954125 -91.215406 
L 426.463723 -92.121303 
L 425.961611 -93.027199 
L 425.447634 -93.933096 
L 424.921707 -94.838992 
L 424.38383 -95.744889 
L 423.834102 -96.650785 
L 423.272738 -97.556682 
L 422.700074 -98.462578 
L 422.116585 -99.368474 
L 421.522893 -100.274371 
L 420.919774 -101.180267 
L 420.30816 -102.086164 
L 419.68915 -102.99206 
L 419.064001 -103.897957 
L 418.434135 -104.803853 
L 417.801125 -105.70975 
L 417.166695 -106.615646 
L 416.532702 -107.521543 
L 415.901128 -108.427439 
L 415.274063 -109.333336 
L 414.653685 -110.239232 
L 414.042243 -111.145129 
L 413.442031 -112.051025 
L 412.85537 -112.956922 
L 412.284579 -113.862818 
L 411.731954 -114.768715 
L 411.199743 -115.674611 
L 410.690118 -116.580508 
L 410.205157 -117.486404 
L 409.746817 -118.392301 
L 409.316913 -119.298197 
L 408.917101 -120.204094 
L 408.548861 -121.10999 
L 408.21348 -122.015887 
L 407.912039 -122.921783 
L 407.645408 -123.82768 
L 407.414235 -124.733576 
L 407.218945 -125.639473 
L 407.059737 -126.545369 
L 406.936586 -127.451265 
L 406.849252 -128.357162 
L 406.797279 -129.263058 
L 406.780013 -130.168955 
L 406.796606 -131.074851 
L 406.846035 -131.980748 
L 406.927115 -132.886644 
L 407.038513 -133.792541 
L 407.17877 -134.698437 
L 407.346314 -135.604334 
L 407.539482 -136.51023 
L 407.756538 -137.416127 
L 407.99569 -138.322023 
L 408.255109 -139.22792 
L 408.532949 -140.133816 
L 408.827362 -141.039713 
L 409.136515 -141.945609 
L 409.458605 -142.851506 
L 409.791876 -143.757402 
L 410.13463 -144.663299 
L 410.485243 -145.569195 
L 410.842171 -146.475092 
L 411.203965 -147.380988 
L 411.569278 -148.286885 
L 411.936873 -149.192781 
L 412.305632 -150.098678 
L 412.674556 -151.004574 
L 413.042775 -151.910471 
L 413.409547 -152.816367 
L 413.774264 -153.722264 
L 414.136448 -154.62816 
L 414.495753 -155.534056 
L 414.851963 -156.439953 
L 415.204989 -157.345849 
L 415.554864 -158.251746 
L 415.901737 -159.157642 
L 416.245868 -160.063539 
L 416.58762 -160.969435 
L 416.927446 -161.875332 
L 417.265883 -162.781228 
L 417.603542 -163.687125 
L 417.94109 -164.593021 
L 418.279242 -165.498918 
L 418.618745 -166.404814 
L 418.960368 -167.310711 
L 419.30488 -168.216607 
L 419.653045 -169.122504 
L 420.005599 -170.0284 
L 420.363243 -170.934297 
L 420.726624 -171.840193 
L 421.096326 -172.74609 
L 421.472855 -173.651986 
L 421.856631 -174.557883 
L 422.247978 -175.463779 
L 422.647113 -176.369676 
L 423.054144 -177.275572 
L 423.469062 -178.181469 
L 423.891741 -179.087365 
L 424.321932 -179.993262 
L 454.744068 -179.993262 
L 454.744068 -179.993262 
L 455.174259 -179.087365 
L 455.596938 -178.181469 
L 456.011856 -177.275572 
L 456.418887 -176.369676 
L 456.818022 -175.463779 
L 457.209369 -174.557883 
L 457.593145 -173.651986 
L 457.969674 -172.74609 
L 458.339376 -171.840193 
L 458.702757 -170.934297 
L 459.060401 -170.0284 
L 459.412955 -169.122504 
L 459.76112 -168.216607 
L 460.105632 -167.310711 
L 460.447255 -166.404814 
L 460.786758 -165.498918 
L 461.12491 -164.593021 
L 461.462458 -163.687125 
L 461.800117 -162.781228 
L 462.138554 -161.875332 
L 462.47838 -160.969435 
L 462.820132 -160.063539 
L 463.164263 -159.157642 
L 463.511136 -158.251746 
L 463.861011 -157.345849 
L 464.214037 -156.439953 
L 464.570247 -155.534056 
L 464.929552 -154.62816 
L 465.291736 -153.722264 
L 465.656453 -152.816367 
L 466.023225 -151.910471 
L 466.391444 -151.004574 
L 466.760368 -150.098678 
L 467.129127 -149.192781 
L 467.496722 -148.286885 
L 467.862035 -147.380988 
L 468.223829 -146.475092 
L 468.580757 -145.569195 
L 468.93137 -144.663299 
L 469.274124 -143.757402 
L 469.607395 -142.851506 
L 469.929485 -141.945609 
L 470.238638 -141.039713 
L 470.533051 -140.133816 
L 470.810891 -139.22792 
L 471.07031 -138.322023 
L 471.309462 -137.416127 
L 471.526518 -136.51023 
L 471.719686 -135.604334 
L 471.88723 -134.698437 
L 472.027487 -133.792541 
L 472.138885 -132.886644 
L 472.219965 -131.980748 
L 472.269394 -131.074851 
L 472.285987 -130.168955 
L 472.268721 -129.263058 
L 472.216748 -128.357162 
L 472.129414 -127.451265 
L 472.006263 -126.545369 
L 471.847055 -125.639473 
L 471.651765 -124.733576 
L 471.420592 -123.82768 
L 471.153961 -122.921783 
L 470.85252 -122.015887 
L 470.517139 -121.10999 
L 470.148899 -120.204094 
L 469.749087 -119.298197 
L 469.319183 -118.392301 
L 468.860843 -117.486404 
L 468.375882 -116.580508 
L 467.866257 -115.674611 
L 467.334046 -114.768715 
L 466.781421 -113.862818 
L 466.21063 -112.956922 
L 465.623969 -112.051025 
L 465.023757 -111.145129 
L 464.412315 -110.239232 
L 463.791937 -109.333336 
L 463.164872 -108.427439 
L 462.533298 -107.521543 
L 461.899305 -106.615646 
L 461.264875 -105.70975 
L 460.631865 -104.803853 
L 460.001999 -103.897957 
L 459.37685 -102.99206 
L 458.75784 -102.086164 
L 458.146226 -101.180267 
L 457.543107 -100.274371 
L 456.949415 -99.368474 
L 456.365926 -98.462578 
L 455.793262 -97.556682 
L 455.231898 -96.650785 
L 454.68217 -95.744889 
L 454.144293 -94.838992 
L 453.618366 -93.933096 
L 453.104389 -93.027199 
L 452.602277 -92.121303 
L 452.111875 -91.215406 
L 451.632971 -90.30951 
z
" style="stroke: #2f2f2f"/>
    </defs>
    <g clip-path="url(#pccdf2e05df)">
     <use xlink:href="#mc9af164fae" x="0" y="288" style="fill: #437695; stroke: #2f2f2f"/>
    </g>
   </g>
   <g id="PolyCollection_6">
    <defs>
     <path id="mf7aaee4a7d" d="M 549.490853 -61.814526 
L 493.340082 -61.814526 
L 492.814841 -62.852161 
L 492.315885 -63.889797 
L 491.844586 -64.927432 
L 491.402222 -65.965067 
L 490.989966 -67.002702 
L 490.608884 -68.040338 
L 490.259929 -69.077973 
L 489.943941 -70.115608 
L 489.661639 -71.153244 
L 489.413623 -72.190879 
L 489.200374 -73.228514 
L 489.022247 -74.26615 
L 488.879478 -75.303785 
L 488.772182 -76.34142 
L 488.700352 -77.379055 
L 488.663865 -78.416691 
L 488.662481 -79.454326 
L 488.695847 -80.491961 
L 488.763501 -81.529597 
L 488.864874 -82.567232 
L 488.999292 -83.604867 
L 489.165986 -84.642503 
L 489.364089 -85.680138 
L 489.592644 -86.717773 
L 489.850611 -87.755408 
L 490.136865 -88.793044 
L 490.450206 -89.830679 
L 490.789362 -90.868314 
L 491.152995 -91.90595 
L 491.539703 -92.943585 
L 491.948029 -93.98122 
L 492.376462 -95.018856 
L 492.823445 -96.056491 
L 493.287378 -97.094126 
L 493.766626 -98.131761 
L 494.259522 -99.169397 
L 494.764372 -100.207032 
L 495.279462 -101.244667 
L 495.803064 -102.282303 
L 496.333442 -103.319938 
L 496.868856 -104.357573 
L 497.407569 -105.395208 
L 497.947854 -106.432844 
L 498.488001 -107.470479 
L 499.026323 -108.508114 
L 499.561161 -109.54575 
L 500.090894 -110.583385 
L 500.613943 -111.62102 
L 501.128782 -112.658656 
L 501.63394 -113.696291 
L 502.128011 -114.733926 
L 502.609661 -115.771561 
L 503.077634 -116.809197 
L 503.530759 -117.846832 
L 503.967956 -118.884467 
L 504.388242 -119.922103 
L 504.790735 -120.959738 
L 505.174664 -121.997373 
L 505.539369 -123.035009 
L 505.884305 -124.072644 
L 506.209051 -125.110279 
L 506.513304 -126.147914 
L 506.796889 -127.18555 
L 507.059755 -128.223185 
L 507.30198 -129.26082 
L 507.523764 -130.298456 
L 507.725434 -131.336091 
L 507.907438 -132.373726 
L 508.070342 -133.411362 
L 508.214828 -134.448997 
L 508.341685 -135.486632 
L 508.45181 -136.524267 
L 508.546192 -137.561903 
L 508.625913 -138.599538 
L 508.692132 -139.637173 
L 508.746085 -140.674809 
L 508.789066 -141.712444 
L 508.822425 -142.750079 
L 508.847551 -143.787715 
L 508.865865 -144.82535 
L 508.87881 -145.862985 
L 508.887836 -146.90062 
L 508.89439 -147.938256 
L 508.899906 -148.975891 
L 508.905796 -150.013526 
L 508.913433 -151.051162 
L 508.924146 -152.088797 
L 508.939211 -153.126432 
L 508.959835 -154.164068 
L 508.987155 -155.201703 
L 509.022226 -156.239338 
L 509.066015 -157.276973 
L 509.119397 -158.314609 
L 509.183143 -159.352244 
L 509.257925 -160.389879 
L 509.344305 -161.427515 
L 509.442738 -162.46515 
L 509.553567 -163.502785 
L 509.677024 -164.540421 
L 533.153911 -164.540421 
L 533.153911 -164.540421 
L 533.277368 -163.502785 
L 533.388197 -162.46515 
L 533.48663 -161.427515 
L 533.57301 -160.389879 
L 533.647792 -159.352244 
L 533.711538 -158.314609 
L 533.76492 -157.276973 
L 533.808709 -156.239338 
L 533.843781 -155.201703 
L 533.871101 -154.164068 
L 533.891724 -153.126432 
L 533.906789 -152.088797 
L 533.917502 -151.051162 
L 533.925139 -150.013526 
L 533.931029 -148.975891 
L 533.936546 -147.938256 
L 533.943099 -146.90062 
L 533.952125 -145.862985 
L 533.96507 -144.82535 
L 533.983384 -143.787715 
L 534.00851 -142.750079 
L 534.041869 -141.712444 
L 534.08485 -140.674809 
L 534.138803 -139.637173 
L 534.205022 -138.599538 
L 534.284743 -137.561903 
L 534.379125 -136.524267 
L 534.48925 -135.486632 
L 534.616108 -134.448997 
L 534.760593 -133.411362 
L 534.923497 -132.373726 
L 535.105501 -131.336091 
L 535.307171 -130.298456 
L 535.528955 -129.26082 
L 535.77118 -128.223185 
L 536.034046 -127.18555 
L 536.317631 -126.147914 
L 536.621885 -125.110279 
L 536.94663 -124.072644 
L 537.291566 -123.035009 
L 537.656271 -121.997373 
L 538.0402 -120.959738 
L 538.442694 -119.922103 
L 538.862979 -118.884467 
L 539.300176 -117.846832 
L 539.753301 -116.809197 
L 540.221274 -115.771561 
L 540.702924 -114.733926 
L 541.196996 -113.696291 
L 541.702153 -112.658656 
L 542.216992 -111.62102 
L 542.740041 -110.583385 
L 543.269774 -109.54575 
L 543.804612 -108.508114 
L 544.342934 -107.470479 
L 544.883081 -106.432844 
L 545.423366 -105.395208 
L 545.962079 -104.357573 
L 546.497493 -103.319938 
L 547.027871 -102.282303 
L 547.551473 -101.244667 
L 548.066563 -100.207032 
L 548.571413 -99.169397 
L 549.064309 -98.131761 
L 549.543557 -97.094126 
L 550.00749 -96.056491 
L 550.454473 -95.018856 
L 550.882906 -93.98122 
L 551.291232 -92.943585 
L 551.67794 -91.90595 
L 552.041573 -90.868314 
L 552.380729 -89.830679 
L 552.69407 -88.793044 
L 552.980324 -87.755408 
L 553.238291 -86.717773 
L 553.466846 -85.680138 
L 553.664949 -84.642503 
L 553.831643 -83.604867 
L 553.966062 -82.567232 
L 554.067434 -81.529597 
L 554.135088 -80.491961 
L 554.168455 -79.454326 
L 554.167071 -78.416691 
L 554.130583 -77.379055 
L 554.058753 -76.34142 
L 553.951457 -75.303785 
L 553.808688 -74.26615 
L 553.630561 -73.228514 
L 553.417312 -72.190879 
L 553.169296 -71.153244 
L 552.886994 -70.115608 
L 552.571006 -69.077973 
L 552.222051 -68.040338 
L 551.840969 -67.002702 
L 551.428713 -65.965067 
L 550.986349 -64.927432 
L 550.51505 -63.889797 
L 550.016094 -62.852161 
L 549.490853 -61.814526 
z
" style="stroke: #2f2f2f"/>
    </defs>
    <g clip-path="url(#pccdf2e05df)">
     <use xlink:href="#mf7aaee4a7d" x="0" y="288" style="fill: #423b63; stroke: #2f2f2f"/>
    </g>
   </g>
   <g id="line2d_33">
    <path d="M 357.650532 168.775495 
L 357.650532 107.917243 
" clip-path="url(#pccdf2e05df)" style="fill: none; stroke: #2f2f2f; stroke-width: 1.5; stroke-linecap: round"/>
   </g>
   <g id="line2d_34">
    <path d="M 357.650532 150.736142 
L 357.650532 117.059976 
" clip-path="url(#pccdf2e05df)" style="fill: none; stroke: #2f2f2f; stroke-width: 4.5; stroke-linecap: round"/>
   </g>
   <g id="line2d_35">
    <path d="M 357.650532 146.749802 
" clip-path="url(#pccdf2e05df)" style="fill: none; stroke: #2f2f2f; stroke-width: 1.2; stroke-linecap: round"/>
    <g clip-path="url(#pccdf2e05df)">
     <use xlink:href="#mf84cea5849" x="357.650532" y="146.749802" style="fill: #ffffff; stroke: #ffffff; stroke-width: 0.9"/>
    </g>
   </g>
   <g id="line2d_36">
    <path d="M 439.533 197.69049 
L 439.533 108.006738 
" clip-path="url(#pccdf2e05df)" style="fill: none; stroke: #2f2f2f; stroke-width: 1.5; stroke-linecap: round"/>
   </g>
   <g id="line2d_37">
    <path d="M 439.533 168.656954 
L 439.533 138.230761 
" clip-path="url(#pccdf2e05df)" style="fill: none; stroke: #2f2f2f; stroke-width: 4.5; stroke-linecap: round"/>
   </g>
   <g id="line2d_38">
    <path d="M 439.533 158.113554 
" clip-path="url(#pccdf2e05df)" style="fill: none; stroke: #2f2f2f; stroke-width: 1.2; stroke-linecap: round"/>
    <g clip-path="url(#pccdf2e05df)">
     <use xlink:href="#mf84cea5849" x="439.533" y="158.113554" style="fill: #ffffff; stroke: #ffffff; stroke-width: 0.9"/>
    </g>
   </g>
   <g id="line2d_39">
    <path d="M 521.415468 226.185474 
L 521.415468 130.833443 
" clip-path="url(#pccdf2e05df)" style="fill: none; stroke: #2f2f2f; stroke-width: 1.5; stroke-linecap: round"/>
   </g>
   <g id="line2d_40">
    <path d="M 521.415468 219.823753 
L 521.415468 183.074923 
" clip-path="url(#pccdf2e05df)" style="fill: none; stroke: #2f2f2f; stroke-width: 4.5; stroke-linecap: round"/>
   </g>
   <g id="line2d_41">
    <path d="M 521.415468 202.931333 
" clip-path="url(#pccdf2e05df)" style="fill: none; stroke: #2f2f2f; stroke-width: 1.2; stroke-linecap: round"/>
    <g clip-path="url(#pccdf2e05df)">
     <use xlink:href="#mf84cea5849" x="521.415468" y="202.931333" style="fill: #ffffff; stroke: #ffffff; stroke-width: 0.9"/>
    </g>
   </g>
   <g id="line2d_42">
    <path d="M 357.650532 104.329977 
L 357.650532 96.484043 
L 439.533 96.484043 
L 439.533 104.329977 
" clip-path="url(#pccdf2e05df)" style="fill: none; stroke: #000000; stroke-linecap: round"/>
   </g>
   <g id="line2d_43">
    <path d="M 439.533 89.98091 
L 439.533 81.776249 
L 521.415468 81.776249 
L 521.415468 89.98091 
" clip-path="url(#pccdf2e05df)" style="fill: none; stroke: #000000; stroke-linecap: round"/>
   </g>
   <g id="line2d_44">
    <path d="M 357.650532 75.631843 
L 357.650532 67.068456 
L 521.415468 67.068456 
L 521.415468 75.631843 
" clip-path="url(#pccdf2e05df)" style="fill: none; stroke: #000000; stroke-linecap: round"/>
   </g>
   <g id="patch_8">
    <path d="M 313.434 238.804 
L 313.434 23.568 
" style="fill: none; stroke: #262626; stroke-linejoin: miter; stroke-linecap: square"/>
   </g>
   <g id="patch_9">
    <path d="M 565.632 238.804 
L 565.632 23.568 
" style="fill: none; stroke: #262626; stroke-linejoin: miter; stroke-linecap: square"/>
   </g>
   <g id="patch_10">
    <path d="M 313.434 238.804 
L 565.632 238.804 
" style="fill: none; stroke: #262626; stroke-linejoin: miter; stroke-linecap: square"/>
   </g>
   <g id="patch_11">
    <path d="M 313.434 23.568 
L 565.632 23.568 
" style="fill: none; stroke: #262626; stroke-linejoin: miter; stroke-linecap: square"/>
   </g>
   <g id="text_19">
    <!-- ns -->
    <g transform="translate(393.049266 94.487543) scale(0.096 -0.096)">
     <use xlink:href="#DejaVuSans-6e"/>
     <use xlink:href="#DejaVuSans-73" x="63.378906"/>
    </g>
   </g>
   <g id="text_20">
    <!-- * -->
    <g transform="translate(478.074234 79.779749) scale(0.096 -0.096)">
     <defs>
      <path id="DejaVuSans-2a" d="M 3009 3897 
L 1888 3291 
L 3009 2681 
L 2828 2375 
L 1778 3009 
L 1778 1831 
L 1422 1831 
L 1422 3009 
L 372 2375 
L 191 2681 
L 1313 3291 
L 191 3897 
L 372 4206 
L 1422 3572 
L 1422 4750 
L 1778 4750 
L 1778 3572 
L 2828 4206 
L 3009 3897 
z
" transform="scale(0.015625)"/>
     </defs>
     <use xlink:href="#DejaVuSans-2a"/>
    </g>
   </g>
   <g id="text_21">
    <!-- ** -->
    <g transform="translate(434.733 65.071956) scale(0.096 -0.096)">
     <use xlink:href="#DejaVuSans-2a"/>
     <use xlink:href="#DejaVuSans-2a" x="50"/>
    </g>
   </g>
   <g id="text_22">
    <!-- Speed -->
    <g style="fill: #262626" transform="translate(424.48425 17.568) scale(0.096 -0.096)">
     <defs>
      <path id="DejaVuSans-53" d="M 3425 4513 
L 3425 3897 
Q 3066 4069 2747 4153 
Q 2428 4238 2131 4238 
Q 1616 4238 1336 4038 
Q 1056 3838 1056 3469 
Q 1056 3159 1242 3001 
Q 1428 2844 1947 2747 
L 2328 2669 
Q 3034 2534 3370 2195 
Q 3706 1856 3706 1288 
Q 3706 609 3251 259 
Q 2797 -91 1919 -91 
Q 1588 -91 1214 -16 
Q 841 59 441 206 
L 441 856 
Q 825 641 1194 531 
Q 1563 422 1919 422 
Q 2459 422 2753 634 
Q 3047 847 3047 1241 
Q 3047 1584 2836 1778 
Q 2625 1972 2144 2069 
L 1759 2144 
Q 1053 2284 737 2584 
Q 422 2884 422 3419 
Q 422 4038 858 4394 
Q 1294 4750 2059 4750 
Q 2388 4750 2728 4690 
Q 3069 4631 3425 4513 
z
" transform="scale(0.015625)"/>
     </defs>
     <use xlink:href="#DejaVuSans-53"/>
     <use xlink:href="#DejaVuSans-70" x="63.476562"/>
     <use xlink:href="#DejaVuSans-65" x="126.953125"/>
     <use xlink:href="#DejaVuSans-65" x="188.476562"/>
     <use xlink:href="#DejaVuSans-64" x="250"/>
    </g>
   </g>
  </g>
  <g id="text_23">
   <!-- Average encoding probability tertile -->
   <g style="fill: #262626" transform="translate(184.5009 282.7242) scale(0.1152 -0.1152)">
    <defs>
     <path id="DejaVuSans-76" d="M 191 3500 
L 800 3500 
L 1894 563 
L 2988 3500 
L 3597 3500 
L 2284 0 
L 1503 0 
L 191 3500 
z
" transform="scale(0.015625)"/>
    </defs>
    <use xlink:href="#DejaVuSans-41"/>
    <use xlink:href="#DejaVuSans-76" x="62.533203"/>
    <use xlink:href="#DejaVuSans-65" x="121.712891"/>
    <use xlink:href="#DejaVuSans-72" x="183.236328"/>
    <use xlink:href="#DejaVuSans-61" x="224.349609"/>
    <use xlink:href="#DejaVuSans-67" x="285.628906"/>
    <use xlink:href="#DejaVuSans-65" x="349.105469"/>
    <use xlink:href="#DejaVuSans-20" x="410.628906"/>
    <use xlink:href="#DejaVuSans-65" x="442.416016"/>
    <use xlink:href="#DejaVuSans-6e" x="503.939453"/>
    <use xlink:href="#DejaVuSans-63" x="567.318359"/>
    <use xlink:href="#DejaVuSans-6f" x="622.298828"/>
    <use xlink:href="#DejaVuSans-64" x="683.480469"/>
    <use xlink:href="#DejaVuSans-69" x="746.957031"/>
    <use xlink:href="#DejaVuSans-6e" x="774.740234"/>
    <use xlink:href="#DejaVuSans-67" x="838.119141"/>
    <use xlink:href="#DejaVuSans-20" x="901.595703"/>
    <use xlink:href="#DejaVuSans-70" x="933.382812"/>
    <use xlink:href="#DejaVuSans-72" x="996.859375"/>
    <use xlink:href="#DejaVuSans-6f" x="1035.722656"/>
    <use xlink:href="#DejaVuSans-62" x="1096.904297"/>
    <use xlink:href="#DejaVuSans-61" x="1160.380859"/>
    <use xlink:href="#DejaVuSans-62" x="1221.660156"/>
    <use xlink:href="#DejaVuSans-69" x="1285.136719"/>
    <use xlink:href="#DejaVuSans-6c" x="1312.919922"/>
    <use xlink:href="#DejaVuSans-69" x="1340.703125"/>
    <use xlink:href="#DejaVuSans-74" x="1368.486328"/>
    <use xlink:href="#DejaVuSans-79" x="1407.695312"/>
    <use xlink:href="#DejaVuSans-20" x="1466.875"/>
    <use xlink:href="#DejaVuSans-74" x="1498.662109"/>
    <use xlink:href="#DejaVuSans-65" x="1537.871094"/>
    <use xlink:href="#DejaVuSans-72" x="1599.394531"/>
    <use xlink:href="#DejaVuSans-74" x="1640.507812"/>
    <use xlink:href="#DejaVuSans-69" x="1679.716797"/>
    <use xlink:href="#DejaVuSans-6c" x="1707.5"/>
    <use xlink:href="#DejaVuSans-65" x="1735.283203"/>
   </g>
  </g>
 </g>
 <defs>
  <clipPath id="p1975925ee7">
   <rect x="46.068" y="23.568" width="252.198" height="215.236"/>
  </clipPath>
  <clipPath id="pccdf2e05df">
   <rect x="313.434" y="23.568" width="252.198" height="215.236"/>
  </clipPath>
 </defs>
</svg>
