<?xml version="1.0" encoding="utf-8" standalone="no"?>
<!DOCTYPE svg PUBLIC "-//W3C//DTD SVG 1.1//EN"
  "http://www.w3.org/Graphics/SVG/1.1/DTD/svg11.dtd">
<svg xmlns:xlink="http://www.w3.org/1999/xlink" width="576pt" height="288pt" viewBox="0 0 576 288" xmlns="http://www.w3.org/2000/svg" version="1.1">
 <metadata>
  <rdf:RDF xmlns:dc="http://purl.org/dc/elements/1.1/" xmlns:cc="http://creativecommons.org/ns#" xmlns:rdf="http://www.w3.org/1999/02/22-rdf-syntax-ns#">
   <cc:Work>
    <dc:type rdf:resource="http://purl.org/dc/dcmitype/StillImage"/>
    <dc:date>2025-01-09T10:56:06.854190</dc:date>
    <dc:format>image/svg+xml</dc:format>
    <dc:creator>
     <cc:Agent>
      <dc:title>Matplotlib v3.9.2, https://matplotlib.org/</dc:title>
     </cc:Agent>
    </dc:creator>
   </cc:Work>
  </rdf:RDF>
 </metadata>
 <defs>
  <style type="text/css">*{stroke-linejoin: round; stroke-linecap: butt}</style>
 </defs>
 <g id="figure_1">
  <g id="patch_1">
   <path d="M 0 288 
L 576 288 
L 576 0 
L 0 0 
L 0 288 
z
" style="fill: none"/>
  </g>
  <g id="axes_1">
   <g id="patch_2">
    <path d="M 46.068 238.804 
L 298.266 238.804 
L 298.266 23.568 
L 46.068 23.568 
L 46.068 238.804 
z
" style="fill: none"/>
   </g>
   <g id="matplotlib.axis_1">
    <g id="xtick_1">
     <g id="line2d_1">
      <defs>
       <path id="m474d94fd00" d="M 0 0 
L 0 4.8 
" style="stroke: #262626"/>
      </defs>
      <g>
       <use xlink:href="#m474d94fd00" x="90.284532" y="238.804" style="fill: #262626; stroke: #262626"/>
      </g>
     </g>
     <g id="text_1">
      <!-- Low -->
      <g style="fill: #262626" transform="translate(81.619282 253.790625) scale(0.088 -0.088)">
       <defs>
        <path id="DejaVuSans-4c" d="M 628 4666 
L 1259 4666 
L 1259 531 
L 3531 531 
L 3531 0 
L 628 0 
L 628 4666 
z
" transform="scale(0.015625)"/>
        <path id="DejaVuSans-6f" d="M 1959 3097 
Q 1497 3097 1228 2736 
Q 959 2375 959 1747 
Q 959 1119 1226 758 
Q 1494 397 1959 397 
Q 2419 397 2687 759 
Q 2956 1122 2956 1747 
Q 2956 2369 2687 2733 
Q 2419 3097 1959 3097 
z
M 1959 3584 
Q 2709 3584 3137 3096 
Q 3566 2609 3566 1747 
Q 3566 888 3137 398 
Q 2709 -91 1959 -91 
Q 1206 -91 779 398 
Q 353 888 353 1747 
Q 353 2609 779 3096 
Q 1206 3584 1959 3584 
z
" transform="scale(0.015625)"/>
        <path id="DejaVuSans-77" d="M 269 3500 
L 844 3500 
L 1563 769 
L 2278 3500 
L 2956 3500 
L 3675 769 
L 4391 3500 
L 4966 3500 
L 4050 0 
L 3372 0 
L 2619 2869 
L 1863 0 
L 1184 0 
L 269 3500 
z
" transform="scale(0.015625)"/>
       </defs>
       <use xlink:href="#DejaVuSans-4c"/>
       <use xlink:href="#DejaVuSans-6f" x="53.962891"/>
       <use xlink:href="#DejaVuSans-77" x="115.144531"/>
      </g>
     </g>
    </g>
    <g id="xtick_2">
     <g id="line2d_2">
      <g>
       <use xlink:href="#m474d94fd00" x="172.167" y="238.804" style="fill: #262626; stroke: #262626"/>
      </g>
     </g>
     <g id="text_2">
      <!-- Medium -->
      <g style="fill: #262626" transform="translate(154.573187 253.790625) scale(0.088 -0.088)">
       <defs>
        <path id="DejaVuSans-4d" d="M 628 4666 
L 1569 4666 
L 2759 1491 
L 3956 4666 
L 4897 4666 
L 4897 0 
L 4281 0 
L 4281 4097 
L 3078 897 
L 2444 897 
L 1241 4097 
L 1241 0 
L 628 0 
L 628 4666 
z
" transform="scale(0.015625)"/>
        <path id="DejaVuSans-65" d="M 3597 1894 
L 3597 1613 
L 953 1613 
Q 991 1019 1311 708 
Q 1631 397 2203 397 
Q 2534 397 2845 478 
Q 3156 559 3463 722 
L 3463 178 
Q 3153 47 2828 -22 
Q 2503 -91 2169 -91 
Q 1331 -91 842 396 
Q 353 884 353 1716 
Q 353 2575 817 3079 
Q 1281 3584 2069 3584 
Q 2775 3584 3186 3129 
Q 3597 2675 3597 1894 
z
M 3022 2063 
Q 3016 2534 2758 2815 
Q 2500 3097 2075 3097 
Q 1594 3097 1305 2825 
Q 1016 2553 972 2059 
L 3022 2063 
z
" transform="scale(0.015625)"/>
        <path id="DejaVuSans-64" d="M 2906 2969 
L 2906 4863 
L 3481 4863 
L 3481 0 
L 2906 0 
L 2906 525 
Q 2725 213 2448 61 
Q 2172 -91 1784 -91 
Q 1150 -91 751 415 
Q 353 922 353 1747 
Q 353 2572 751 3078 
Q 1150 3584 1784 3584 
Q 2172 3584 2448 3432 
Q 2725 3281 2906 2969 
z
M 947 1747 
Q 947 1113 1208 752 
Q 1469 391 1925 391 
Q 2381 391 2643 752 
Q 2906 1113 2906 1747 
Q 2906 2381 2643 2742 
Q 2381 3103 1925 3103 
Q 1469 3103 1208 2742 
Q 947 2381 947 1747 
z
" transform="scale(0.015625)"/>
        <path id="DejaVuSans-69" d="M 603 3500 
L 1178 3500 
L 1178 0 
L 603 0 
L 603 3500 
z
M 603 4863 
L 1178 4863 
L 1178 4134 
L 603 4134 
L 603 4863 
z
" transform="scale(0.015625)"/>
        <path id="DejaVuSans-75" d="M 544 1381 
L 544 3500 
L 1119 3500 
L 1119 1403 
Q 1119 906 1312 657 
Q 1506 409 1894 409 
Q 2359 409 2629 706 
Q 2900 1003 2900 1516 
L 2900 3500 
L 3475 3500 
L 3475 0 
L 2900 0 
L 2900 538 
Q 2691 219 2414 64 
Q 2138 -91 1772 -91 
Q 1169 -91 856 284 
Q 544 659 544 1381 
z
M 1991 3584 
L 1991 3584 
z
" transform="scale(0.015625)"/>
        <path id="DejaVuSans-6d" d="M 3328 2828 
Q 3544 3216 3844 3400 
Q 4144 3584 4550 3584 
Q 5097 3584 5394 3201 
Q 5691 2819 5691 2113 
L 5691 0 
L 5113 0 
L 5113 2094 
Q 5113 2597 4934 2840 
Q 4756 3084 4391 3084 
Q 3944 3084 3684 2787 
Q 3425 2491 3425 1978 
L 3425 0 
L 2847 0 
L 2847 2094 
Q 2847 2600 2669 2842 
Q 2491 3084 2119 3084 
Q 1678 3084 1418 2786 
Q 1159 2488 1159 1978 
L 1159 0 
L 581 0 
L 581 3500 
L 1159 3500 
L 1159 2956 
Q 1356 3278 1631 3431 
Q 1906 3584 2284 3584 
Q 2666 3584 2933 3390 
Q 3200 3197 3328 2828 
z
" transform="scale(0.015625)"/>
       </defs>
       <use xlink:href="#DejaVuSans-4d"/>
       <use xlink:href="#DejaVuSans-65" x="86.279297"/>
       <use xlink:href="#DejaVuSans-64" x="147.802734"/>
       <use xlink:href="#DejaVuSans-69" x="211.279297"/>
       <use xlink:href="#DejaVuSans-75" x="239.0625"/>
       <use xlink:href="#DejaVuSans-6d" x="302.441406"/>
      </g>
     </g>
    </g>
    <g id="xtick_3">
     <g id="line2d_3">
      <g>
       <use xlink:href="#m474d94fd00" x="254.049468" y="238.804" style="fill: #262626; stroke: #262626"/>
      </g>
     </g>
     <g id="text_3">
      <!-- High -->
      <g style="fill: #262626" transform="translate(243.936343 253.790625) scale(0.088 -0.088)">
       <defs>
        <path id="DejaVuSans-48" d="M 628 4666 
L 1259 4666 
L 1259 2753 
L 3553 2753 
L 3553 4666 
L 4184 4666 
L 4184 0 
L 3553 0 
L 3553 2222 
L 1259 2222 
L 1259 0 
L 628 0 
L 628 4666 
z
" transform="scale(0.015625)"/>
        <path id="DejaVuSans-67" d="M 2906 1791 
Q 2906 2416 2648 2759 
Q 2391 3103 1925 3103 
Q 1463 3103 1205 2759 
Q 947 2416 947 1791 
Q 947 1169 1205 825 
Q 1463 481 1925 481 
Q 2391 481 2648 825 
Q 2906 1169 2906 1791 
z
M 3481 434 
Q 3481 -459 3084 -895 
Q 2688 -1331 1869 -1331 
Q 1566 -1331 1297 -1286 
Q 1028 -1241 775 -1147 
L 775 -588 
Q 1028 -725 1275 -790 
Q 1522 -856 1778 -856 
Q 2344 -856 2625 -561 
Q 2906 -266 2906 331 
L 2906 616 
Q 2728 306 2450 153 
Q 2172 0 1784 0 
Q 1141 0 747 490 
Q 353 981 353 1791 
Q 353 2603 747 3093 
Q 1141 3584 1784 3584 
Q 2172 3584 2450 3431 
Q 2728 3278 2906 2969 
L 2906 3500 
L 3481 3500 
L 3481 434 
z
" transform="scale(0.015625)"/>
        <path id="DejaVuSans-68" d="M 3513 2113 
L 3513 0 
L 2938 0 
L 2938 2094 
Q 2938 2591 2744 2837 
Q 2550 3084 2163 3084 
Q 1697 3084 1428 2787 
Q 1159 2491 1159 1978 
L 1159 0 
L 581 0 
L 581 4863 
L 1159 4863 
L 1159 2956 
Q 1366 3272 1645 3428 
Q 1925 3584 2291 3584 
Q 2894 3584 3203 3211 
Q 3513 2838 3513 2113 
z
" transform="scale(0.015625)"/>
       </defs>
       <use xlink:href="#DejaVuSans-48"/>
       <use xlink:href="#DejaVuSans-69" x="75.195312"/>
       <use xlink:href="#DejaVuSans-67" x="102.978516"/>
       <use xlink:href="#DejaVuSans-68" x="166.455078"/>
      </g>
     </g>
    </g>
   </g>
   <g id="matplotlib.axis_2">
    <g id="ytick_1">
     <g id="line2d_4">
      <defs>
       <path id="m8215b2c914" d="M 0 0 
L -4.8 0 
" style="stroke: #262626"/>
      </defs>
      <g>
       <use xlink:href="#m8215b2c914" x="46.068" y="238.804" style="fill: #262626; stroke: #262626"/>
      </g>
     </g>
     <g id="text_4">
      <!-- 0.5 -->
      <g style="fill: #262626" transform="translate(23.77325 242.147312) scale(0.088 -0.088)">
       <defs>
        <path id="DejaVuSans-30" d="M 2034 4250 
Q 1547 4250 1301 3770 
Q 1056 3291 1056 2328 
Q 1056 1369 1301 889 
Q 1547 409 2034 409 
Q 2525 409 2770 889 
Q 3016 1369 3016 2328 
Q 3016 3291 2770 3770 
Q 2525 4250 2034 4250 
z
M 2034 4750 
Q 2819 4750 3233 4129 
Q 3647 3509 3647 2328 
Q 3647 1150 3233 529 
Q 2819 -91 2034 -91 
Q 1250 -91 836 529 
Q 422 1150 422 2328 
Q 422 3509 836 4129 
Q 1250 4750 2034 4750 
z
" transform="scale(0.015625)"/>
        <path id="DejaVuSans-2e" d="M 684 794 
L 1344 794 
L 1344 0 
L 684 0 
L 684 794 
z
" transform="scale(0.015625)"/>
        <path id="DejaVuSans-35" d="M 691 4666 
L 3169 4666 
L 3169 4134 
L 1269 4134 
L 1269 2991 
Q 1406 3038 1543 3061 
Q 1681 3084 1819 3084 
Q 2600 3084 3056 2656 
Q 3513 2228 3513 1497 
Q 3513 744 3044 326 
Q 2575 -91 1722 -91 
Q 1428 -91 1123 -41 
Q 819 9 494 109 
L 494 744 
Q 775 591 1075 516 
Q 1375 441 1709 441 
Q 2250 441 2565 725 
Q 2881 1009 2881 1497 
Q 2881 1984 2565 2268 
Q 2250 2553 1709 2553 
Q 1456 2553 1204 2497 
Q 953 2441 691 2322 
L 691 4666 
z
" transform="scale(0.015625)"/>
       </defs>
       <use xlink:href="#DejaVuSans-30"/>
       <use xlink:href="#DejaVuSans-2e" x="63.623047"/>
       <use xlink:href="#DejaVuSans-35" x="95.410156"/>
      </g>
     </g>
    </g>
    <g id="ytick_2">
     <g id="line2d_5">
      <g>
       <use xlink:href="#m8215b2c914" x="46.068" y="202.931333" style="fill: #262626; stroke: #262626"/>
      </g>
     </g>
     <g id="text_5">
      <!-- 0.6 -->
      <g style="fill: #262626" transform="translate(23.77325 206.274646) scale(0.088 -0.088)">
       <defs>
        <path id="DejaVuSans-36" d="M 2113 2584 
Q 1688 2584 1439 2293 
Q 1191 2003 1191 1497 
Q 1191 994 1439 701 
Q 1688 409 2113 409 
Q 2538 409 2786 701 
Q 3034 994 3034 1497 
Q 3034 2003 2786 2293 
Q 2538 2584 2113 2584 
z
M 3366 4563 
L 3366 3988 
Q 3128 4100 2886 4159 
Q 2644 4219 2406 4219 
Q 1781 4219 1451 3797 
Q 1122 3375 1075 2522 
Q 1259 2794 1537 2939 
Q 1816 3084 2150 3084 
Q 2853 3084 3261 2657 
Q 3669 2231 3669 1497 
Q 3669 778 3244 343 
Q 2819 -91 2113 -91 
Q 1303 -91 875 529 
Q 447 1150 447 2328 
Q 447 3434 972 4092 
Q 1497 4750 2381 4750 
Q 2619 4750 2861 4703 
Q 3103 4656 3366 4563 
z
" transform="scale(0.015625)"/>
       </defs>
       <use xlink:href="#DejaVuSans-30"/>
       <use xlink:href="#DejaVuSans-2e" x="63.623047"/>
       <use xlink:href="#DejaVuSans-36" x="95.410156"/>
      </g>
     </g>
    </g>
    <g id="ytick_3">
     <g id="line2d_6">
      <g>
       <use xlink:href="#m8215b2c914" x="46.068" y="167.058667" style="fill: #262626; stroke: #262626"/>
      </g>
     </g>
     <g id="text_6">
      <!-- 0.7 -->
      <g style="fill: #262626" transform="translate(23.77325 170.401979) scale(0.088 -0.088)">
       <defs>
        <path id="DejaVuSans-37" d="M 525 4666 
L 3525 4666 
L 3525 4397 
L 1831 0 
L 1172 0 
L 2766 4134 
L 525 4134 
L 525 4666 
z
" transform="scale(0.015625)"/>
       </defs>
       <use xlink:href="#DejaVuSans-30"/>
       <use xlink:href="#DejaVuSans-2e" x="63.623047"/>
       <use xlink:href="#DejaVuSans-37" x="95.410156"/>
      </g>
     </g>
    </g>
    <g id="ytick_4">
     <g id="line2d_7">
      <g>
       <use xlink:href="#m8215b2c914" x="46.068" y="131.186" style="fill: #262626; stroke: #262626"/>
      </g>
     </g>
     <g id="text_7">
      <!-- 0.8 -->
      <g style="fill: #262626" transform="translate(23.77325 134.529312) scale(0.088 -0.088)">
       <defs>
        <path id="DejaVuSans-38" d="M 2034 2216 
Q 1584 2216 1326 1975 
Q 1069 1734 1069 1313 
Q 1069 891 1326 650 
Q 1584 409 2034 409 
Q 2484 409 2743 651 
Q 3003 894 3003 1313 
Q 3003 1734 2745 1975 
Q 2488 2216 2034 2216 
z
M 1403 2484 
Q 997 2584 770 2862 
Q 544 3141 544 3541 
Q 544 4100 942 4425 
Q 1341 4750 2034 4750 
Q 2731 4750 3128 4425 
Q 3525 4100 3525 3541 
Q 3525 3141 3298 2862 
Q 3072 2584 2669 2484 
Q 3125 2378 3379 2068 
Q 3634 1759 3634 1313 
Q 3634 634 3220 271 
Q 2806 -91 2034 -91 
Q 1263 -91 848 271 
Q 434 634 434 1313 
Q 434 1759 690 2068 
Q 947 2378 1403 2484 
z
M 1172 3481 
Q 1172 3119 1398 2916 
Q 1625 2713 2034 2713 
Q 2441 2713 2670 2916 
Q 2900 3119 2900 3481 
Q 2900 3844 2670 4047 
Q 2441 4250 2034 4250 
Q 1625 4250 1398 4047 
Q 1172 3844 1172 3481 
z
" transform="scale(0.015625)"/>
       </defs>
       <use xlink:href="#DejaVuSans-30"/>
       <use xlink:href="#DejaVuSans-2e" x="63.623047"/>
       <use xlink:href="#DejaVuSans-38" x="95.410156"/>
      </g>
     </g>
    </g>
    <g id="ytick_5">
     <g id="line2d_8">
      <g>
       <use xlink:href="#m8215b2c914" x="46.068" y="95.313333" style="fill: #262626; stroke: #262626"/>
      </g>
     </g>
     <g id="text_8">
      <!-- 0.9 -->
      <g style="fill: #262626" transform="translate(23.77325 98.656646) scale(0.088 -0.088)">
       <defs>
        <path id="DejaVuSans-39" d="M 703 97 
L 703 672 
Q 941 559 1184 500 
Q 1428 441 1663 441 
Q 2288 441 2617 861 
Q 2947 1281 2994 2138 
Q 2813 1869 2534 1725 
Q 2256 1581 1919 1581 
Q 1219 1581 811 2004 
Q 403 2428 403 3163 
Q 403 3881 828 4315 
Q 1253 4750 1959 4750 
Q 2769 4750 3195 4129 
Q 3622 3509 3622 2328 
Q 3622 1225 3098 567 
Q 2575 -91 1691 -91 
Q 1453 -91 1209 -44 
Q 966 3 703 97 
z
M 1959 2075 
Q 2384 2075 2632 2365 
Q 2881 2656 2881 3163 
Q 2881 3666 2632 3958 
Q 2384 4250 1959 4250 
Q 1534 4250 1286 3958 
Q 1038 3666 1038 3163 
Q 1038 2656 1286 2365 
Q 1534 2075 1959 2075 
z
" transform="scale(0.015625)"/>
       </defs>
       <use xlink:href="#DejaVuSans-30"/>
       <use xlink:href="#DejaVuSans-2e" x="63.623047"/>
       <use xlink:href="#DejaVuSans-39" x="95.410156"/>
      </g>
     </g>
    </g>
    <g id="ytick_6">
     <g id="line2d_9">
      <g>
       <use xlink:href="#m8215b2c914" x="46.068" y="59.440667" style="fill: #262626; stroke: #262626"/>
      </g>
     </g>
     <g id="text_9">
      <!-- 1.0 -->
      <g style="fill: #262626" transform="translate(23.77325 62.783979) scale(0.088 -0.088)">
       <defs>
        <path id="DejaVuSans-31" d="M 794 531 
L 1825 531 
L 1825 4091 
L 703 3866 
L 703 4441 
L 1819 4666 
L 2450 4666 
L 2450 531 
L 3481 531 
L 3481 0 
L 794 0 
L 794 531 
z
" transform="scale(0.015625)"/>
       </defs>
       <use xlink:href="#DejaVuSans-31"/>
       <use xlink:href="#DejaVuSans-2e" x="63.623047"/>
       <use xlink:href="#DejaVuSans-30" x="95.410156"/>
      </g>
     </g>
    </g>
    <g id="ytick_7">
     <g id="line2d_10">
      <g>
       <use xlink:href="#m8215b2c914" x="46.068" y="23.568" style="fill: #262626; stroke: #262626"/>
      </g>
     </g>
     <g id="text_10">
      <!-- 1.1 -->
      <g style="fill: #262626" transform="translate(23.77325 26.911313) scale(0.088 -0.088)">
       <use xlink:href="#DejaVuSans-31"/>
       <use xlink:href="#DejaVuSans-2e" x="63.623047"/>
       <use xlink:href="#DejaVuSans-31" x="95.410156"/>
      </g>
     </g>
    </g>
    <g id="text_11">
     <!-- Probability of correct response -->
     <g style="fill: #262626" transform="translate(17.77675 204.36575) rotate(-90) scale(0.096 -0.096)">
      <defs>
       <path id="DejaVuSans-50" d="M 1259 4147 
L 1259 2394 
L 2053 2394 
Q 2494 2394 2734 2622 
Q 2975 2850 2975 3272 
Q 2975 3691 2734 3919 
Q 2494 4147 2053 4147 
L 1259 4147 
z
M 628 4666 
L 2053 4666 
Q 2838 4666 3239 4311 
Q 3641 3956 3641 3272 
Q 3641 2581 3239 2228 
Q 2838 1875 2053 1875 
L 1259 1875 
L 1259 0 
L 628 0 
L 628 4666 
z
" transform="scale(0.015625)"/>
       <path id="DejaVuSans-72" d="M 2631 2963 
Q 2534 3019 2420 3045 
Q 2306 3072 2169 3072 
Q 1681 3072 1420 2755 
Q 1159 2438 1159 1844 
L 1159 0 
L 581 0 
L 581 3500 
L 1159 3500 
L 1159 2956 
Q 1341 3275 1631 3429 
Q 1922 3584 2338 3584 
Q 2397 3584 2469 3576 
Q 2541 3569 2628 3553 
L 2631 2963 
z
" transform="scale(0.015625)"/>
       <path id="DejaVuSans-62" d="M 3116 1747 
Q 3116 2381 2855 2742 
Q 2594 3103 2138 3103 
Q 1681 3103 1420 2742 
Q 1159 2381 1159 1747 
Q 1159 1113 1420 752 
Q 1681 391 2138 391 
Q 2594 391 2855 752 
Q 3116 1113 3116 1747 
z
M 1159 2969 
Q 1341 3281 1617 3432 
Q 1894 3584 2278 3584 
Q 2916 3584 3314 3078 
Q 3713 2572 3713 1747 
Q 3713 922 3314 415 
Q 2916 -91 2278 -91 
Q 1894 -91 1617 61 
Q 1341 213 1159 525 
L 1159 0 
L 581 0 
L 581 4863 
L 1159 4863 
L 1159 2969 
z
" transform="scale(0.015625)"/>
       <path id="DejaVuSans-61" d="M 2194 1759 
Q 1497 1759 1228 1600 
Q 959 1441 959 1056 
Q 959 750 1161 570 
Q 1363 391 1709 391 
Q 2188 391 2477 730 
Q 2766 1069 2766 1631 
L 2766 1759 
L 2194 1759 
z
M 3341 1997 
L 3341 0 
L 2766 0 
L 2766 531 
Q 2569 213 2275 61 
Q 1981 -91 1556 -91 
Q 1019 -91 701 211 
Q 384 513 384 1019 
Q 384 1609 779 1909 
Q 1175 2209 1959 2209 
L 2766 2209 
L 2766 2266 
Q 2766 2663 2505 2880 
Q 2244 3097 1772 3097 
Q 1472 3097 1187 3025 
Q 903 2953 641 2809 
L 641 3341 
Q 956 3463 1253 3523 
Q 1550 3584 1831 3584 
Q 2591 3584 2966 3190 
Q 3341 2797 3341 1997 
z
" transform="scale(0.015625)"/>
       <path id="DejaVuSans-6c" d="M 603 4863 
L 1178 4863 
L 1178 0 
L 603 0 
L 603 4863 
z
" transform="scale(0.015625)"/>
       <path id="DejaVuSans-74" d="M 1172 4494 
L 1172 3500 
L 2356 3500 
L 2356 3053 
L 1172 3053 
L 1172 1153 
Q 1172 725 1289 603 
Q 1406 481 1766 481 
L 2356 481 
L 2356 0 
L 1766 0 
Q 1100 0 847 248 
Q 594 497 594 1153 
L 594 3053 
L 172 3053 
L 172 3500 
L 594 3500 
L 594 4494 
L 1172 4494 
z
" transform="scale(0.015625)"/>
       <path id="DejaVuSans-79" d="M 2059 -325 
Q 1816 -950 1584 -1140 
Q 1353 -1331 966 -1331 
L 506 -1331 
L 506 -850 
L 844 -850 
Q 1081 -850 1212 -737 
Q 1344 -625 1503 -206 
L 1606 56 
L 191 3500 
L 800 3500 
L 1894 763 
L 2988 3500 
L 3597 3500 
L 2059 -325 
z
" transform="scale(0.015625)"/>
       <path id="DejaVuSans-20" transform="scale(0.015625)"/>
       <path id="DejaVuSans-66" d="M 2375 4863 
L 2375 4384 
L 1825 4384 
Q 1516 4384 1395 4259 
Q 1275 4134 1275 3809 
L 1275 3500 
L 2222 3500 
L 2222 3053 
L 1275 3053 
L 1275 0 
L 697 0 
L 697 3053 
L 147 3053 
L 147 3500 
L 697 3500 
L 697 3744 
Q 697 4328 969 4595 
Q 1241 4863 1831 4863 
L 2375 4863 
z
" transform="scale(0.015625)"/>
       <path id="DejaVuSans-63" d="M 3122 3366 
L 3122 2828 
Q 2878 2963 2633 3030 
Q 2388 3097 2138 3097 
Q 1578 3097 1268 2742 
Q 959 2388 959 1747 
Q 959 1106 1268 751 
Q 1578 397 2138 397 
Q 2388 397 2633 464 
Q 2878 531 3122 666 
L 3122 134 
Q 2881 22 2623 -34 
Q 2366 -91 2075 -91 
Q 1284 -91 818 406 
Q 353 903 353 1747 
Q 353 2603 823 3093 
Q 1294 3584 2113 3584 
Q 2378 3584 2631 3529 
Q 2884 3475 3122 3366 
z
" transform="scale(0.015625)"/>
       <path id="DejaVuSans-73" d="M 2834 3397 
L 2834 2853 
Q 2591 2978 2328 3040 
Q 2066 3103 1784 3103 
Q 1356 3103 1142 2972 
Q 928 2841 928 2578 
Q 928 2378 1081 2264 
Q 1234 2150 1697 2047 
L 1894 2003 
Q 2506 1872 2764 1633 
Q 3022 1394 3022 966 
Q 3022 478 2636 193 
Q 2250 -91 1575 -91 
Q 1294 -91 989 -36 
Q 684 19 347 128 
L 347 722 
Q 666 556 975 473 
Q 1284 391 1588 391 
Q 1994 391 2212 530 
Q 2431 669 2431 922 
Q 2431 1156 2273 1281 
Q 2116 1406 1581 1522 
L 1381 1569 
Q 847 1681 609 1914 
Q 372 2147 372 2553 
Q 372 3047 722 3315 
Q 1072 3584 1716 3584 
Q 2034 3584 2315 3537 
Q 2597 3491 2834 3397 
z
" transform="scale(0.015625)"/>
       <path id="DejaVuSans-70" d="M 1159 525 
L 1159 -1331 
L 581 -1331 
L 581 3500 
L 1159 3500 
L 1159 2969 
Q 1341 3281 1617 3432 
Q 1894 3584 2278 3584 
Q 2916 3584 3314 3078 
Q 3713 2572 3713 1747 
Q 3713 922 3314 415 
Q 2916 -91 2278 -91 
Q 1894 -91 1617 61 
Q 1341 213 1159 525 
z
M 3116 1747 
Q 3116 2381 2855 2742 
Q 2594 3103 2138 3103 
Q 1681 3103 1420 2742 
Q 1159 2381 1159 1747 
Q 1159 1113 1420 752 
Q 1681 391 2138 391 
Q 2594 391 2855 752 
Q 3116 1113 3116 1747 
z
" transform="scale(0.015625)"/>
       <path id="DejaVuSans-6e" d="M 3513 2113 
L 3513 0 
L 2938 0 
L 2938 2094 
Q 2938 2591 2744 2837 
Q 2550 3084 2163 3084 
Q 1697 3084 1428 2787 
Q 1159 2491 1159 1978 
L 1159 0 
L 581 0 
L 581 3500 
L 1159 3500 
L 1159 2956 
Q 1366 3272 1645 3428 
Q 1925 3584 2291 3584 
Q 2894 3584 3203 3211 
Q 3513 2838 3513 2113 
z
" transform="scale(0.015625)"/>
      </defs>
      <use xlink:href="#DejaVuSans-50"/>
      <use xlink:href="#DejaVuSans-72" x="58.552734"/>
      <use xlink:href="#DejaVuSans-6f" x="97.416016"/>
      <use xlink:href="#DejaVuSans-62" x="158.597656"/>
      <use xlink:href="#DejaVuSans-61" x="222.074219"/>
      <use xlink:href="#DejaVuSans-62" x="283.353516"/>
      <use xlink:href="#DejaVuSans-69" x="346.830078"/>
      <use xlink:href="#DejaVuSans-6c" x="374.613281"/>
      <use xlink:href="#DejaVuSans-69" x="402.396484"/>
      <use xlink:href="#DejaVuSans-74" x="430.179688"/>
      <use xlink:href="#DejaVuSans-79" x="469.388672"/>
      <use xlink:href="#DejaVuSans-20" x="528.568359"/>
      <use xlink:href="#DejaVuSans-6f" x="560.355469"/>
      <use xlink:href="#DejaVuSans-66" x="621.537109"/>
      <use xlink:href="#DejaVuSans-20" x="656.742188"/>
      <use xlink:href="#DejaVuSans-63" x="688.529297"/>
      <use xlink:href="#DejaVuSans-6f" x="743.509766"/>
      <use xlink:href="#DejaVuSans-72" x="804.691406"/>
      <use xlink:href="#DejaVuSans-72" x="844.054688"/>
      <use xlink:href="#DejaVuSans-65" x="882.917969"/>
      <use xlink:href="#DejaVuSans-63" x="944.441406"/>
      <use xlink:href="#DejaVuSans-74" x="999.421875"/>
      <use xlink:href="#DejaVuSans-20" x="1038.630859"/>
      <use xlink:href="#DejaVuSans-72" x="1070.417969"/>
      <use xlink:href="#DejaVuSans-65" x="1109.28125"/>
      <use xlink:href="#DejaVuSans-73" x="1170.804688"/>
      <use xlink:href="#DejaVuSans-70" x="1222.904297"/>
      <use xlink:href="#DejaVuSans-6f" x="1286.380859"/>
      <use xlink:href="#DejaVuSans-6e" x="1347.5625"/>
      <use xlink:href="#DejaVuSans-73" x="1410.941406"/>
      <use xlink:href="#DejaVuSans-65" x="1463.041016"/>
     </g>
    </g>
   </g>
   <g id="PolyCollection_1">
    <defs>
     <path id="m083cb00163" d="M 97.09184 -128.080611 
L 83.477225 -128.080611 
L 83.392045 -128.684744 
L 83.311293 -129.288876 
L 83.234031 -129.893009 
L 83.159199 -130.497141 
L 83.08562 -131.101274 
L 83.012009 -131.705407 
L 82.936986 -132.309539 
L 82.85909 -132.913672 
L 82.776788 -133.517805 
L 82.688494 -134.121937 
L 82.592589 -134.72607 
L 82.487432 -135.330202 
L 82.371383 -135.934335 
L 82.242821 -136.538468 
L 82.100165 -137.1426 
L 81.941893 -137.746733 
L 81.766558 -138.350866 
L 81.572813 -138.954998 
L 81.359426 -139.559131 
L 81.125294 -140.163263 
L 80.869467 -140.767396 
L 80.591153 -141.371529 
L 80.289738 -141.975661 
L 79.964791 -142.579794 
L 79.616078 -143.183926 
L 79.243562 -143.788059 
L 78.847412 -144.392192 
L 78.428 -144.996324 
L 77.985903 -145.600457 
L 77.521895 -146.20459 
L 77.036943 -146.808722 
L 76.5322 -147.412855 
L 76.008989 -148.016987 
L 75.468789 -148.62112 
L 74.913225 -149.225253 
L 74.344045 -149.829385 
L 73.763103 -150.433518 
L 73.172338 -151.037651 
L 72.573752 -151.641783 
L 71.96939 -152.245916 
L 71.361318 -152.850048 
L 70.751595 -153.454181 
L 70.142262 -154.058314 
L 69.535309 -154.662446 
L 68.932667 -155.266579 
L 68.33618 -155.870711 
L 67.747594 -156.474844 
L 67.168542 -157.078977 
L 66.600532 -157.683109 
L 66.044934 -158.287242 
L 65.502978 -158.891375 
L 64.975747 -159.495507 
L 64.464177 -160.09964 
L 63.969053 -160.703772 
L 63.491023 -161.307905 
L 63.030594 -161.912038 
L 62.588148 -162.51617 
L 62.163952 -163.120303 
L 61.758166 -163.724436 
L 61.370865 -164.328568 
L 61.002051 -164.932701 
L 60.651672 -165.536833 
L 60.319638 -166.140966 
L 60.005839 -166.745099 
L 59.710166 -167.349231 
L 59.432524 -167.953364 
L 59.172853 -168.557496 
L 58.931138 -169.161629 
L 58.707428 -169.765762 
L 58.501843 -170.369894 
L 58.314587 -170.974027 
L 58.145954 -171.57816 
L 57.996333 -172.182292 
L 57.86621 -172.786425 
L 57.756166 -173.390557 
L 57.666877 -173.99469 
L 57.599105 -174.598823 
L 57.553692 -175.202955 
L 57.531545 -175.807088 
L 57.53363 -176.411221 
L 57.560947 -177.015353 
L 57.614524 -177.619486 
L 57.695388 -178.223618 
L 57.804555 -178.827751 
L 57.943004 -179.431884 
L 58.111657 -180.036016 
L 58.311362 -180.640149 
L 58.542868 -181.244281 
L 58.80681 -181.848414 
L 59.10369 -182.452547 
L 59.433857 -183.056679 
L 59.797495 -183.660812 
L 60.194609 -184.264945 
L 60.625016 -184.869077 
L 61.088333 -185.47321 
L 61.583976 -186.077342 
L 62.111151 -186.681475 
L 62.668862 -187.285608 
L 63.255906 -187.88974 
L 117.313159 -187.88974 
L 117.313159 -187.88974 
L 117.900203 -187.285608 
L 118.457914 -186.681475 
L 118.985089 -186.077342 
L 119.480732 -185.47321 
L 119.944049 -184.869077 
L 120.374456 -184.264945 
L 120.77157 -183.660812 
L 121.135208 -183.056679 
L 121.465375 -182.452547 
L 121.762254 -181.848414 
L 122.026197 -181.244281 
L 122.257703 -180.640149 
L 122.457408 -180.036016 
L 122.626061 -179.431884 
L 122.764509 -178.827751 
L 122.873677 -178.223618 
L 122.954541 -177.619486 
L 123.008118 -177.015353 
L 123.035435 -176.411221 
L 123.037519 -175.807088 
L 123.015373 -175.202955 
L 122.96996 -174.598823 
L 122.902188 -173.99469 
L 122.812899 -173.390557 
L 122.702855 -172.786425 
L 122.572732 -172.182292 
L 122.423111 -171.57816 
L 122.254478 -170.974027 
L 122.067222 -170.369894 
L 121.861637 -169.765762 
L 121.637927 -169.161629 
L 121.396212 -168.557496 
L 121.136541 -167.953364 
L 120.858899 -167.349231 
L 120.563226 -166.745099 
L 120.249427 -166.140966 
L 119.917393 -165.536833 
L 119.567014 -164.932701 
L 119.1982 -164.328568 
L 118.810899 -163.724436 
L 118.405113 -163.120303 
L 117.980916 -162.51617 
L 117.538471 -161.912038 
L 117.078042 -161.307905 
L 116.600012 -160.703772 
L 116.104888 -160.09964 
L 115.593317 -159.495507 
L 115.066087 -158.891375 
L 114.524131 -158.287242 
L 113.968533 -157.683109 
L 113.400523 -157.078977 
L 112.821471 -156.474844 
L 112.232885 -155.870711 
L 111.636398 -155.266579 
L 111.033756 -154.662446 
L 110.426803 -154.058314 
L 109.81747 -153.454181 
L 109.207747 -152.850048 
L 108.599674 -152.245916 
L 107.995313 -151.641783 
L 107.396727 -151.037651 
L 106.805962 -150.433518 
L 106.225019 -149.829385 
L 105.65584 -149.225253 
L 105.100276 -148.62112 
L 104.560076 -148.016987 
L 104.036864 -147.412855 
L 103.532121 -146.808722 
L 103.04717 -146.20459 
L 102.583162 -145.600457 
L 102.141064 -144.996324 
L 101.721653 -144.392192 
L 101.325502 -143.788059 
L 100.952987 -143.183926 
L 100.604274 -142.579794 
L 100.279327 -141.975661 
L 99.977912 -141.371529 
L 99.699598 -140.767396 
L 99.443771 -140.163263 
L 99.209639 -139.559131 
L 98.996252 -138.954998 
L 98.802507 -138.350866 
L 98.627172 -137.746733 
L 98.4689 -137.1426 
L 98.326244 -136.538468 
L 98.197682 -135.934335 
L 98.081633 -135.330202 
L 97.976476 -134.72607 
L 97.88057 -134.121937 
L 97.792277 -133.517805 
L 97.709975 -132.913672 
L 97.632079 -132.309539 
L 97.557056 -131.705407 
L 97.483445 -131.101274 
L 97.409866 -130.497141 
L 97.335034 -129.893009 
L 97.257772 -129.288876 
L 97.17702 -128.684744 
L 97.09184 -128.080611 
z
" style="stroke: #2f2f2f"/>
    </defs>
    <g clip-path="url(#p0611e44fe4)">
     <use xlink:href="#m083cb00163" x="0" y="288" style="fill: #58b2a3; stroke: #2f2f2f"/>
    </g>
   </g>
   <g id="PolyCollection_2">
    <defs>
     <path id="mff8500931d" d="M 191.349761 -152.572897 
L 152.984239 -152.572897 
L 152.518625 -153.088367 
L 152.061888 -153.603837 
L 151.614551 -154.119307 
L 151.177074 -154.634777 
L 150.749849 -155.150247 
L 150.333199 -155.665717 
L 149.927381 -156.181187 
L 149.532586 -156.696657 
L 149.148938 -157.212127 
L 148.776498 -157.727597 
L 148.415269 -158.243067 
L 148.065196 -158.758538 
L 147.726171 -159.274008 
L 147.398037 -159.789478 
L 147.080592 -160.304948 
L 146.773595 -160.820418 
L 146.47677 -161.335888 
L 146.189813 -161.851358 
L 145.912392 -162.366828 
L 145.64416 -162.882298 
L 145.384751 -163.397768 
L 145.133794 -163.913238 
L 144.890911 -164.428708 
L 144.655726 -164.944179 
L 144.427864 -165.459649 
L 144.206961 -165.975119 
L 143.992663 -166.490589 
L 143.784634 -167.006059 
L 143.582551 -167.521529 
L 143.386114 -168.036999 
L 143.195045 -168.552469 
L 143.009088 -169.067939 
L 142.828014 -169.583409 
L 142.651617 -170.098879 
L 142.479718 -170.614349 
L 142.312165 -171.12982 
L 142.148831 -171.64529 
L 141.989614 -172.16076 
L 141.834437 -172.67623 
L 141.683248 -173.1917 
L 141.536016 -173.70717 
L 141.392734 -174.22264 
L 141.253414 -174.73811 
L 141.118087 -175.25358 
L 140.986805 -175.76905 
L 140.859633 -176.28452 
L 140.736657 -176.79999 
L 140.617975 -177.315461 
L 140.5037 -177.830931 
L 140.393961 -178.346401 
L 140.288897 -178.861871 
L 140.188664 -179.377341 
L 140.09343 -179.892811 
L 140.003375 -180.408281 
L 139.918696 -180.923751 
L 139.839601 -181.439221 
L 139.766316 -181.954691 
L 139.699083 -182.470161 
L 139.638157 -182.985631 
L 139.583817 -183.501102 
L 139.536356 -184.016572 
L 139.496089 -184.532042 
L 139.463352 -185.047512 
L 139.438503 -185.562982 
L 139.421923 -186.078452 
L 139.414013 -186.593922 
L 139.415201 -187.109392 
L 139.425938 -187.624862 
L 139.446695 -188.140332 
L 139.477968 -188.655802 
L 139.520273 -189.171272 
L 139.574144 -189.686743 
L 139.640135 -190.202213 
L 139.718812 -190.717683 
L 139.810753 -191.233153 
L 139.916544 -191.748623 
L 140.036776 -192.264093 
L 140.172036 -192.779563 
L 140.322908 -193.295033 
L 140.489964 -193.810503 
L 140.673756 -194.325973 
L 140.874817 -194.841443 
L 141.093646 -195.356913 
L 141.33071 -195.872384 
L 141.586429 -196.387854 
L 141.861177 -196.903324 
L 142.155269 -197.418794 
L 142.46896 -197.934264 
L 142.802437 -198.449734 
L 143.155809 -198.965204 
L 143.529112 -199.480674 
L 143.922291 -199.996144 
L 144.33521 -200.511614 
L 144.767636 -201.027084 
L 145.219244 -201.542554 
L 145.689616 -202.058025 
L 146.178233 -202.573495 
L 146.684482 -203.088965 
L 147.207656 -203.604435 
L 197.126344 -203.604435 
L 197.126344 -203.604435 
L 197.649518 -203.088965 
L 198.155767 -202.573495 
L 198.644384 -202.058025 
L 199.114756 -201.542554 
L 199.566364 -201.027084 
L 199.99879 -200.511614 
L 200.411709 -199.996144 
L 200.804888 -199.480674 
L 201.178191 -198.965204 
L 201.531563 -198.449734 
L 201.86504 -197.934264 
L 202.178731 -197.418794 
L 202.472823 -196.903324 
L 202.747571 -196.387854 
L 203.00329 -195.872384 
L 203.240354 -195.356913 
L 203.459183 -194.841443 
L 203.660244 -194.325973 
L 203.844036 -193.810503 
L 204.011092 -193.295033 
L 204.161964 -192.779563 
L 204.297224 -192.264093 
L 204.417456 -191.748623 
L 204.523247 -191.233153 
L 204.615188 -190.717683 
L 204.693865 -190.202213 
L 204.759856 -189.686743 
L 204.813727 -189.171272 
L 204.856032 -188.655802 
L 204.887305 -188.140332 
L 204.908062 -187.624862 
L 204.918799 -187.109392 
L 204.919987 -186.593922 
L 204.912077 -186.078452 
L 204.895497 -185.562982 
L 204.870648 -185.047512 
L 204.837911 -184.532042 
L 204.797644 -184.016572 
L 204.750183 -183.501102 
L 204.695843 -182.985631 
L 204.634917 -182.470161 
L 204.567684 -181.954691 
L 204.494399 -181.439221 
L 204.415304 -180.923751 
L 204.330625 -180.408281 
L 204.24057 -179.892811 
L 204.145336 -179.377341 
L 204.045103 -178.861871 
L 203.940039 -178.346401 
L 203.8303 -177.830931 
L 203.716025 -177.315461 
L 203.597343 -176.79999 
L 203.474367 -176.28452 
L 203.347195 -175.76905 
L 203.215913 -175.25358 
L 203.080586 -174.73811 
L 202.941266 -174.22264 
L 202.797984 -173.70717 
L 202.650752 -173.1917 
L 202.499563 -172.67623 
L 202.344386 -172.16076 
L 202.185169 -171.64529 
L 202.021835 -171.12982 
L 201.854282 -170.614349 
L 201.682383 -170.098879 
L 201.505986 -169.583409 
L 201.324912 -169.067939 
L 201.138955 -168.552469 
L 200.947886 -168.036999 
L 200.751449 -167.521529 
L 200.549366 -167.006059 
L 200.341337 -166.490589 
L 200.127039 -165.975119 
L 199.906136 -165.459649 
L 199.678274 -164.944179 
L 199.443089 -164.428708 
L 199.200206 -163.913238 
L 198.949249 -163.397768 
L 198.68984 -162.882298 
L 198.421608 -162.366828 
L 198.144187 -161.851358 
L 197.85723 -161.335888 
L 197.560405 -160.820418 
L 197.253408 -160.304948 
L 196.935963 -159.789478 
L 196.607829 -159.274008 
L 196.268804 -158.758538 
L 195.918731 -158.243067 
L 195.557502 -157.727597 
L 195.185062 -157.212127 
L 194.801414 -156.696657 
L 194.406619 -156.181187 
L 194.000801 -155.665717 
L 193.584151 -155.150247 
L 193.156926 -154.634777 
L 192.719449 -154.119307 
L 192.272112 -153.603837 
L 191.815375 -153.088367 
L 191.349761 -152.572897 
z
" style="stroke: #2f2f2f"/>
    </defs>
    <g clip-path="url(#p0611e44fe4)">
     <use xlink:href="#mff8500931d" x="0" y="288" style="fill: #437695; stroke: #2f2f2f"/>
    </g>
   </g>
   <g id="PolyCollection_3">
    <defs>
     <path id="m826644547d" d="M 272.712199 -150.896859 
L 235.386736 -150.896859 
L 235.043038 -151.481193 
L 234.722687 -152.065527 
L 234.426056 -152.649862 
L 234.15328 -153.234196 
L 233.90425 -153.81853 
L 233.678609 -154.402864 
L 233.47575 -154.987198 
L 233.294819 -155.571532 
L 233.134719 -156.155867 
L 232.994122 -156.740201 
L 232.871474 -157.324535 
L 232.765017 -157.908869 
L 232.672801 -158.493203 
L 232.592708 -159.077537 
L 232.522472 -159.661872 
L 232.459706 -160.246206 
L 232.401932 -160.83054 
L 232.346603 -161.414874 
L 232.291141 -161.999208 
L 232.232964 -162.583542 
L 232.169522 -163.167877 
L 232.098324 -163.752211 
L 232.016977 -164.336545 
L 231.923211 -164.920879 
L 231.814916 -165.505213 
L 231.690164 -166.089548 
L 231.547245 -166.673882 
L 231.384683 -167.258216 
L 231.201264 -167.84255 
L 230.996057 -168.426884 
L 230.768424 -169.011218 
L 230.518038 -169.595553 
L 230.244892 -170.179887 
L 229.949303 -170.764221 
L 229.631914 -171.348555 
L 229.293692 -171.932889 
L 228.935921 -172.517223 
L 228.560195 -173.101558 
L 228.168398 -173.685892 
L 227.762694 -174.270226 
L 227.3455 -174.85456 
L 226.919465 -175.438894 
L 226.487442 -176.023228 
L 226.052457 -176.607563 
L 225.617683 -177.191897 
L 225.1864 -177.776231 
L 224.761962 -178.360565 
L 224.347765 -178.944899 
L 223.947205 -179.529233 
L 223.563648 -180.113568 
L 223.20039 -180.697902 
L 222.860624 -181.282236 
L 222.547406 -181.86657 
L 222.263626 -182.450904 
L 222.011974 -183.035238 
L 221.794917 -183.619573 
L 221.614674 -184.203907 
L 221.473197 -184.788241 
L 221.372148 -185.372575 
L 221.312891 -185.956909 
L 221.296481 -186.541243 
L 221.323653 -187.125578 
L 221.394824 -187.709912 
L 221.510095 -188.294246 
L 221.66925 -188.87858 
L 221.87177 -189.462914 
L 222.116841 -190.047248 
L 222.403372 -190.631583 
L 222.73001 -191.215917 
L 223.095161 -191.800251 
L 223.497014 -192.384585 
L 223.933562 -192.968919 
L 224.402632 -193.553253 
L 224.901905 -194.137588 
L 225.428952 -194.721922 
L 225.981254 -195.306256 
L 226.556236 -195.89059 
L 227.151288 -196.474924 
L 227.763793 -197.059258 
L 228.391156 -197.643593 
L 229.030822 -198.227927 
L 229.680298 -198.812261 
L 230.337178 -199.396595 
L 230.999152 -199.980929 
L 231.664029 -200.565263 
L 232.329745 -201.149598 
L 232.994374 -201.733932 
L 233.656136 -202.318266 
L 234.313405 -202.9026 
L 234.964704 -203.486934 
L 235.608715 -204.071269 
L 236.244273 -204.655603 
L 236.870359 -205.239937 
L 237.486104 -205.824271 
L 238.090771 -206.408605 
L 238.683757 -206.992939 
L 239.264578 -207.577274 
L 239.832859 -208.161608 
L 240.388327 -208.745942 
L 267.710608 -208.745942 
L 267.710608 -208.745942 
L 268.266076 -208.161608 
L 268.834357 -207.577274 
L 269.415178 -206.992939 
L 270.008164 -206.408605 
L 270.612831 -205.824271 
L 271.228576 -205.239937 
L 271.854662 -204.655603 
L 272.49022 -204.071269 
L 273.134231 -203.486934 
L 273.785531 -202.9026 
L 274.442799 -202.318266 
L 275.104561 -201.733932 
L 275.76919 -201.149598 
L 276.434906 -200.565263 
L 277.099783 -199.980929 
L 277.761757 -199.396595 
L 278.418637 -198.812261 
L 279.068113 -198.227927 
L 279.707779 -197.643593 
L 280.335142 -197.059258 
L 280.947647 -196.474924 
L 281.542699 -195.89059 
L 282.117681 -195.306256 
L 282.669983 -194.721922 
L 283.19703 -194.137588 
L 283.696304 -193.553253 
L 284.165373 -192.968919 
L 284.601921 -192.384585 
L 285.003774 -191.800251 
L 285.368925 -191.215917 
L 285.695563 -190.631583 
L 285.982094 -190.047248 
L 286.227165 -189.462914 
L 286.429685 -188.87858 
L 286.58884 -188.294246 
L 286.704111 -187.709912 
L 286.775283 -187.125578 
L 286.802455 -186.541243 
L 286.786044 -185.956909 
L 286.726787 -185.372575 
L 286.625738 -184.788241 
L 286.484261 -184.203907 
L 286.304018 -183.619573 
L 286.086962 -183.035238 
L 285.835309 -182.450904 
L 285.551529 -181.86657 
L 285.238311 -181.282236 
L 284.898545 -180.697902 
L 284.535287 -180.113568 
L 284.15173 -179.529233 
L 283.751171 -178.944899 
L 283.336973 -178.360565 
L 282.912535 -177.776231 
L 282.481252 -177.191897 
L 282.046478 -176.607563 
L 281.611494 -176.023228 
L 281.17947 -175.438894 
L 280.753435 -174.85456 
L 280.336241 -174.270226 
L 279.930537 -173.685892 
L 279.538741 -173.101558 
L 279.163014 -172.517223 
L 278.805243 -171.932889 
L 278.467021 -171.348555 
L 278.149632 -170.764221 
L 277.854043 -170.179887 
L 277.580897 -169.595553 
L 277.330511 -169.011218 
L 277.102878 -168.426884 
L 276.897671 -167.84255 
L 276.714252 -167.258216 
L 276.55169 -166.673882 
L 276.408771 -166.089548 
L 276.284019 -165.505213 
L 276.175724 -164.920879 
L 276.081958 -164.336545 
L 276.000611 -163.752211 
L 275.929414 -163.167877 
L 275.865971 -162.583542 
L 275.807795 -161.999208 
L 275.752332 -161.414874 
L 275.697003 -160.83054 
L 275.639229 -160.246206 
L 275.576463 -159.661872 
L 275.506227 -159.077537 
L 275.426134 -158.493203 
L 275.333918 -157.908869 
L 275.227461 -157.324535 
L 275.104814 -156.740201 
L 274.964216 -156.155867 
L 274.804116 -155.571532 
L 274.623185 -154.987198 
L 274.420326 -154.402864 
L 274.194685 -153.81853 
L 273.945655 -153.234196 
L 273.672879 -152.649862 
L 273.376248 -152.065527 
L 273.055897 -151.481193 
L 272.712199 -150.896859 
z
" style="stroke: #2f2f2f"/>
    </defs>
    <g clip-path="url(#p0611e44fe4)">
     <use xlink:href="#m826644547d" x="0" y="288" style="fill: #423b63; stroke: #2f2f2f"/>
    </g>
   </g>
   <g id="line2d_11">
    <path d="M 90.284532 159.919389 
L 90.284532 100.11026 
" clip-path="url(#p0611e44fe4)" style="fill: none; stroke: #2f2f2f; stroke-width: 1.5; stroke-linecap: round"/>
   </g>
   <g id="line2d_12">
    <path d="M 90.284532 127.307874 
L 90.284532 103.32744 
" clip-path="url(#p0611e44fe4)" style="fill: none; stroke: #2f2f2f; stroke-width: 4.5; stroke-linecap: round"/>
   </g>
   <g id="line2d_13">
    <path d="M 90.284532 113.338023 
" clip-path="url(#p0611e44fe4)" style="fill: none; stroke: #2f2f2f; stroke-width: 1.2; stroke-linecap: round"/>
    <defs>
     <path id="ma259684082" d="M 1.875 0 
L -1.875 -0 
" style="stroke: #ffffff; stroke-width: 0.9"/>
    </defs>
    <g clip-path="url(#p0611e44fe4)">
     <use xlink:href="#ma259684082" x="90.284532" y="113.338023" style="fill: #ffffff; stroke: #ffffff; stroke-width: 0.9"/>
    </g>
   </g>
   <g id="line2d_14">
    <path d="M 172.167 135.427103 
L 172.167 84.395565 
" clip-path="url(#p0611e44fe4)" style="fill: none; stroke: #2f2f2f; stroke-width: 1.5; stroke-linecap: round"/>
   </g>
   <g id="line2d_15">
    <path d="M 172.167 119.677977 
L 172.167 93.016069 
" clip-path="url(#p0611e44fe4)" style="fill: none; stroke: #2f2f2f; stroke-width: 4.5; stroke-linecap: round"/>
   </g>
   <g id="line2d_16">
    <path d="M 172.167 105.23556 
" clip-path="url(#p0611e44fe4)" style="fill: none; stroke: #2f2f2f; stroke-width: 1.2; stroke-linecap: round"/>
    <g clip-path="url(#p0611e44fe4)">
     <use xlink:href="#ma259684082" x="172.167" y="105.23556" style="fill: #ffffff; stroke: #ffffff; stroke-width: 0.9"/>
    </g>
   </g>
   <g id="line2d_17">
    <path d="M 254.049468 137.103141 
L 254.049468 79.254058 
" clip-path="url(#p0611e44fe4)" style="fill: none; stroke: #2f2f2f; stroke-width: 1.5; stroke-linecap: round"/>
   </g>
   <g id="line2d_18">
    <path d="M 254.049468 129.41451 
L 254.049468 99.196457 
" clip-path="url(#p0611e44fe4)" style="fill: none; stroke: #2f2f2f; stroke-width: 4.5; stroke-linecap: round"/>
   </g>
   <g id="line2d_19">
    <path d="M 254.049468 105.178317 
" clip-path="url(#p0611e44fe4)" style="fill: none; stroke: #2f2f2f; stroke-width: 1.2; stroke-linecap: round"/>
    <g clip-path="url(#p0611e44fe4)">
     <use xlink:href="#ma259684082" x="254.049468" y="105.178317" style="fill: #ffffff; stroke: #ffffff; stroke-width: 0.9"/>
    </g>
   </g>
   <g id="line2d_20">
    <path d="M 90.284532 75.666791 
L 90.284532 67.104278 
L 172.167 67.104278 
L 172.167 75.666791 
" clip-path="url(#p0611e44fe4)" style="fill: none; stroke: #000000; stroke-linecap: round"/>
   </g>
   <g id="line2d_21">
    <path d="M 172.167 61.317725 
L 172.167 52.396485 
L 254.049468 52.396485 
L 254.049468 61.317725 
" clip-path="url(#p0611e44fe4)" style="fill: none; stroke: #000000; stroke-linecap: round"/>
   </g>
   <g id="line2d_22">
    <path d="M 90.284532 46.968658 
L 90.284532 37.688691 
L 254.049468 37.688691 
L 254.049468 46.968658 
" clip-path="url(#p0611e44fe4)" style="fill: none; stroke: #000000; stroke-linecap: round"/>
   </g>
   <g id="patch_3">
    <path d="M 46.068 238.804 
L 46.068 23.568 
" style="fill: none; stroke: #262626; stroke-linejoin: miter; stroke-linecap: square"/>
   </g>
   <g id="patch_4">
    <path d="M 298.266 238.804 
L 298.266 23.568 
" style="fill: none; stroke: #262626; stroke-linejoin: miter; stroke-linecap: square"/>
   </g>
   <g id="patch_5">
    <path d="M 46.068 238.804 
L 298.266 238.804 
" style="fill: none; stroke: #262626; stroke-linejoin: miter; stroke-linecap: square"/>
   </g>
   <g id="patch_6">
    <path d="M 46.068 23.568 
L 298.266 23.568 
" style="fill: none; stroke: #262626; stroke-linejoin: miter; stroke-linecap: square"/>
   </g>
   <g id="text_12">
    <!-- ns -->
    <g transform="translate(125.683266 65.107778) scale(0.096 -0.096)">
     <use xlink:href="#DejaVuSans-6e"/>
     <use xlink:href="#DejaVuSans-73" x="63.378906"/>
    </g>
   </g>
   <g id="text_13">
    <!-- ns -->
    <g transform="translate(207.565734 50.399985) scale(0.096 -0.096)">
     <use xlink:href="#DejaVuSans-6e"/>
     <use xlink:href="#DejaVuSans-73" x="63.378906"/>
    </g>
   </g>
   <g id="text_14">
    <!-- ns -->
    <g transform="translate(166.6245 35.692191) scale(0.096 -0.096)">
     <use xlink:href="#DejaVuSans-6e"/>
     <use xlink:href="#DejaVuSans-73" x="63.378906"/>
    </g>
   </g>
   <g id="text_15">
    <!-- Accuracy -->
    <g style="fill: #262626" transform="translate(150.252 17.568) scale(0.096 -0.096)">
     <defs>
      <path id="DejaVuSans-41" d="M 2188 4044 
L 1331 1722 
L 3047 1722 
L 2188 4044 
z
M 1831 4666 
L 2547 4666 
L 4325 0 
L 3669 0 
L 3244 1197 
L 1141 1197 
L 716 0 
L 50 0 
L 1831 4666 
z
" transform="scale(0.015625)"/>
     </defs>
     <use xlink:href="#DejaVuSans-41"/>
     <use xlink:href="#DejaVuSans-63" x="66.658203"/>
     <use xlink:href="#DejaVuSans-63" x="121.638672"/>
     <use xlink:href="#DejaVuSans-75" x="176.619141"/>
     <use xlink:href="#DejaVuSans-72" x="239.998047"/>
     <use xlink:href="#DejaVuSans-61" x="281.111328"/>
     <use xlink:href="#DejaVuSans-63" x="342.390625"/>
     <use xlink:href="#DejaVuSans-79" x="397.371094"/>
    </g>
   </g>
  </g>
  <g id="axes_2">
   <g id="patch_7">
    <path d="M 313.434 238.804 
L 565.632 238.804 
L 565.632 23.568 
L 313.434 23.568 
L 313.434 238.804 
z
" style="fill: none"/>
   </g>
   <g id="matplotlib.axis_3">
    <g id="xtick_4">
     <g id="line2d_23">
      <g>
       <use xlink:href="#m474d94fd00" x="357.650532" y="238.804" style="fill: #262626; stroke: #262626"/>
      </g>
     </g>
     <g id="text_16">
      <!-- Low -->
      <g style="fill: #262626" transform="translate(348.985282 253.790625) scale(0.088 -0.088)">
       <use xlink:href="#DejaVuSans-4c"/>
       <use xlink:href="#DejaVuSans-6f" x="53.962891"/>
       <use xlink:href="#DejaVuSans-77" x="115.144531"/>
      </g>
     </g>
    </g>
    <g id="xtick_5">
     <g id="line2d_24">
      <g>
       <use xlink:href="#m474d94fd00" x="439.533" y="238.804" style="fill: #262626; stroke: #262626"/>
      </g>
     </g>
     <g id="text_17">
      <!-- Medium -->
      <g style="fill: #262626" transform="translate(421.939188 253.790625) scale(0.088 -0.088)">
       <use xlink:href="#DejaVuSans-4d"/>
       <use xlink:href="#DejaVuSans-65" x="86.279297"/>
       <use xlink:href="#DejaVuSans-64" x="147.802734"/>
       <use xlink:href="#DejaVuSans-69" x="211.279297"/>
       <use xlink:href="#DejaVuSans-75" x="239.0625"/>
       <use xlink:href="#DejaVuSans-6d" x="302.441406"/>
      </g>
     </g>
    </g>
    <g id="xtick_6">
     <g id="line2d_25">
      <g>
       <use xlink:href="#m474d94fd00" x="521.415468" y="238.804" style="fill: #262626; stroke: #262626"/>
      </g>
     </g>
     <g id="text_18">
      <!-- High -->
      <g style="fill: #262626" transform="translate(511.302343 253.790625) scale(0.088 -0.088)">
       <use xlink:href="#DejaVuSans-48"/>
       <use xlink:href="#DejaVuSans-69" x="75.195312"/>
       <use xlink:href="#DejaVuSans-67" x="102.978516"/>
       <use xlink:href="#DejaVuSans-68" x="166.455078"/>
      </g>
     </g>
    </g>
   </g>
   <g id="matplotlib.axis_4">
    <g id="ytick_8">
     <g id="line2d_26">
      <g>
       <use xlink:href="#m8215b2c914" x="313.434" y="238.804" style="fill: #262626; stroke: #262626"/>
      </g>
     </g>
    </g>
    <g id="ytick_9">
     <g id="line2d_27">
      <g>
       <use xlink:href="#m8215b2c914" x="313.434" y="202.931333" style="fill: #262626; stroke: #262626"/>
      </g>
     </g>
    </g>
    <g id="ytick_10">
     <g id="line2d_28">
      <g>
       <use xlink:href="#m8215b2c914" x="313.434" y="167.058667" style="fill: #262626; stroke: #262626"/>
      </g>
     </g>
    </g>
    <g id="ytick_11">
     <g id="line2d_29">
      <g>
       <use xlink:href="#m8215b2c914" x="313.434" y="131.186" style="fill: #262626; stroke: #262626"/>
      </g>
     </g>
    </g>
    <g id="ytick_12">
     <g id="line2d_30">
      <g>
       <use xlink:href="#m8215b2c914" x="313.434" y="95.313333" style="fill: #262626; stroke: #262626"/>
      </g>
     </g>
    </g>
    <g id="ytick_13">
     <g id="line2d_31">
      <g>
       <use xlink:href="#m8215b2c914" x="313.434" y="59.440667" style="fill: #262626; stroke: #262626"/>
      </g>
     </g>
    </g>
    <g id="ytick_14">
     <g id="line2d_32">
      <g>
       <use xlink:href="#m8215b2c914" x="313.434" y="23.568" style="fill: #262626; stroke: #262626"/>
      </g>
     </g>
    </g>
   </g>
   <g id="PolyCollection_4">
    <defs>
     <path id="m43575b45e2" d="M 375.232658 -130.067629 
L 340.068407 -130.067629 
L 339.410255 -130.581735 
L 338.746874 -131.095841 
L 338.079589 -131.609948 
L 337.409824 -132.124054 
L 336.739099 -132.63816 
L 336.069027 -133.152266 
L 335.40131 -133.666373 
L 334.737732 -134.180479 
L 334.080153 -134.694585 
L 333.4305 -135.208692 
L 332.790753 -135.722798 
L 332.162939 -136.236904 
L 331.549114 -136.75101 
L 330.951347 -137.265117 
L 330.37171 -137.779223 
L 329.812251 -138.293329 
L 329.274986 -138.807435 
L 328.76187 -139.321542 
L 328.274784 -139.835648 
L 327.815513 -140.349754 
L 327.385725 -140.86386 
L 326.986952 -141.377967 
L 326.62057 -141.892073 
L 326.287782 -142.406179 
L 325.989599 -142.920285 
L 325.726825 -143.434392 
L 325.500046 -143.948498 
L 325.30961 -144.462604 
L 325.155627 -144.976711 
L 325.037954 -145.490817 
L 324.956194 -146.004923 
L 324.909694 -146.519029 
L 324.897545 -147.033136 
L 324.918588 -147.547242 
L 324.971417 -148.061348 
L 325.054394 -148.575454 
L 325.165659 -149.089561 
L 325.303148 -149.603667 
L 325.464609 -150.117773 
L 325.647625 -150.631879 
L 325.849637 -151.145986 
L 326.06797 -151.660092 
L 326.299858 -152.174198 
L 326.542475 -152.688305 
L 326.792962 -153.202411 
L 327.048458 -153.716517 
L 327.306133 -154.230623 
L 327.563211 -154.74473 
L 327.81701 -155.258836 
L 328.06496 -155.772942 
L 328.304639 -156.287048 
L 328.533794 -156.801155 
L 328.750368 -157.315261 
L 328.952518 -157.829367 
L 329.138639 -158.343473 
L 329.307376 -158.85758 
L 329.457643 -159.371686 
L 329.588627 -159.885792 
L 329.699801 -160.399898 
L 329.790924 -160.914005 
L 329.862045 -161.428111 
L 329.9135 -161.942217 
L 329.945903 -162.456324 
L 329.960143 -162.97043 
L 329.957367 -163.484536 
L 329.93897 -163.998642 
L 329.906574 -164.512749 
L 329.862011 -165.026855 
L 329.807301 -165.540961 
L 329.744628 -166.055067 
L 329.676317 -166.569174 
L 329.604806 -167.08328 
L 329.53262 -167.597386 
L 329.462343 -168.111492 
L 329.39659 -168.625599 
L 329.337983 -169.139705 
L 329.289116 -169.653811 
L 329.252537 -170.167918 
L 329.230715 -170.682024 
L 329.226023 -171.19613 
L 329.240707 -171.710236 
L 329.276869 -172.224343 
L 329.33645 -172.738449 
L 329.421207 -173.252555 
L 329.5327 -173.766661 
L 329.672282 -174.280768 
L 329.841084 -174.794874 
L 330.040009 -175.30898 
L 330.269726 -175.823086 
L 330.530669 -176.337193 
L 330.82303 -176.851299 
L 331.146768 -177.365405 
L 331.501608 -177.879511 
L 331.887049 -178.393618 
L 332.302371 -178.907724 
L 332.746645 -179.42183 
L 333.218747 -179.935937 
L 333.717366 -180.450043 
L 334.241027 -180.964149 
L 381.060038 -180.964149 
L 381.060038 -180.964149 
L 381.583698 -180.450043 
L 382.082318 -179.935937 
L 382.55442 -179.42183 
L 382.998694 -178.907724 
L 383.414016 -178.393618 
L 383.799457 -177.879511 
L 384.154297 -177.365405 
L 384.478035 -176.851299 
L 384.770396 -176.337193 
L 385.031339 -175.823086 
L 385.261056 -175.30898 
L 385.459981 -174.794874 
L 385.628783 -174.280768 
L 385.768365 -173.766661 
L 385.879858 -173.252555 
L 385.964615 -172.738449 
L 386.024195 -172.224343 
L 386.060358 -171.710236 
L 386.075042 -171.19613 
L 386.07035 -170.682024 
L 386.048528 -170.167918 
L 386.011949 -169.653811 
L 385.963082 -169.139705 
L 385.904475 -168.625599 
L 385.838722 -168.111492 
L 385.768445 -167.597386 
L 385.696259 -167.08328 
L 385.624748 -166.569174 
L 385.556437 -166.055067 
L 385.493764 -165.540961 
L 385.439054 -165.026855 
L 385.394491 -164.512749 
L 385.362095 -163.998642 
L 385.343698 -163.484536 
L 385.340922 -162.97043 
L 385.355162 -162.456324 
L 385.387565 -161.942217 
L 385.43902 -161.428111 
L 385.510141 -160.914005 
L 385.601264 -160.399898 
L 385.712438 -159.885792 
L 385.843422 -159.371686 
L 385.993688 -158.85758 
L 386.162426 -158.343473 
L 386.348547 -157.829367 
L 386.550697 -157.315261 
L 386.767271 -156.801155 
L 386.996426 -156.287048 
L 387.236105 -155.772942 
L 387.484055 -155.258836 
L 387.737854 -154.74473 
L 387.994932 -154.230623 
L 388.252607 -153.716517 
L 388.508103 -153.202411 
L 388.75859 -152.688305 
L 389.001207 -152.174198 
L 389.233095 -151.660092 
L 389.451428 -151.145986 
L 389.65344 -150.631879 
L 389.836456 -150.117773 
L 389.997917 -149.603667 
L 390.135406 -149.089561 
L 390.246671 -148.575454 
L 390.329648 -148.061348 
L 390.382477 -147.547242 
L 390.403519 -147.033136 
L 390.391371 -146.519029 
L 390.344871 -146.004923 
L 390.263111 -145.490817 
L 390.145438 -144.976711 
L 389.991455 -144.462604 
L 389.801019 -143.948498 
L 389.57424 -143.434392 
L 389.311466 -142.920285 
L 389.013283 -142.406179 
L 388.680495 -141.892073 
L 388.314113 -141.377967 
L 387.91534 -140.86386 
L 387.485552 -140.349754 
L 387.026281 -139.835648 
L 386.539195 -139.321542 
L 386.026079 -138.807435 
L 385.488814 -138.293329 
L 384.929355 -137.779223 
L 384.349718 -137.265117 
L 383.751951 -136.75101 
L 383.138126 -136.236904 
L 382.510312 -135.722798 
L 381.870565 -135.208692 
L 381.220912 -134.694585 
L 380.563333 -134.180479 
L 379.899755 -133.666373 
L 379.232038 -133.152266 
L 378.561966 -132.63816 
L 377.891241 -132.124054 
L 377.221476 -131.609948 
L 376.554191 -131.095841 
L 375.89081 -130.581735 
L 375.232658 -130.067629 
z
" style="stroke: #2f2f2f"/>
    </defs>
    <g clip-path="url(#p1f193d12b4)">
     <use xlink:href="#m43575b45e2" x="0" y="288" style="fill: #58b2a3; stroke: #2f2f2f"/>
    </g>
   </g>
   <g id="PolyCollection_5">
    <defs>
     <path id="md064edc69a" d="M 459.96823 -98.441852 
L 419.09777 -98.441852 
L 418.395195 -99.32135 
L 417.696817 -100.200848 
L 417.004556 -101.080346 
L 416.320366 -101.959843 
L 415.646223 -102.839341 
L 414.984121 -103.718839 
L 414.336051 -104.598337 
L 413.703995 -105.477835 
L 413.08991 -106.357332 
L 412.495714 -107.23683 
L 411.923272 -108.116328 
L 411.374381 -108.995826 
L 410.850756 -109.875323 
L 410.354015 -110.754821 
L 409.885664 -111.634319 
L 409.447082 -112.513817 
L 409.039509 -113.393315 
L 408.664033 -114.272812 
L 408.321574 -115.15231 
L 408.012879 -116.031808 
L 407.738507 -116.911306 
L 407.498824 -117.790804 
L 407.293994 -118.670301 
L 407.123977 -119.549799 
L 406.988522 -120.429297 
L 406.887169 -121.308795 
L 406.81925 -122.188293 
L 406.783889 -123.06779 
L 406.780013 -123.947288 
L 406.806354 -124.826786 
L 406.861461 -125.706284 
L 406.943712 -126.585781 
L 407.05133 -127.465279 
L 407.182392 -128.344777 
L 407.334855 -129.224275 
L 407.506566 -130.103773 
L 407.695292 -130.98327 
L 407.898731 -131.862768 
L 408.114544 -132.742266 
L 408.340371 -133.621764 
L 408.573855 -134.501262 
L 408.81267 -135.380759 
L 409.054537 -136.260257 
L 409.297253 -137.139755 
L 409.538708 -138.019253 
L 409.776905 -138.898751 
L 410.009986 -139.778248 
L 410.23624 -140.657746 
L 410.454126 -141.537244 
L 410.662284 -142.416742 
L 410.859548 -143.296239 
L 411.044954 -144.175737 
L 411.21775 -145.055235 
L 411.377395 -145.934733 
L 411.523569 -146.814231 
L 411.656169 -147.693728 
L 411.775303 -148.573226 
L 411.881294 -149.452724 
L 411.974665 -150.332222 
L 412.056132 -151.21172 
L 412.126597 -152.091217 
L 412.187129 -152.970715 
L 412.238953 -153.850213 
L 412.283435 -154.729711 
L 412.322061 -155.609209 
L 412.356424 -156.488706 
L 412.3882 -157.368204 
L 412.419135 -158.247702 
L 412.451019 -159.1272 
L 412.485671 -160.006697 
L 412.524918 -160.886195 
L 412.570576 -161.765693 
L 412.624432 -162.645191 
L 412.688226 -163.524689 
L 412.763637 -164.404186 
L 412.852261 -165.283684 
L 412.955605 -166.163182 
L 413.075065 -167.04268 
L 413.211923 -167.922178 
L 413.367329 -168.801675 
L 413.542297 -169.681173 
L 413.737698 -170.560671 
L 413.954249 -171.440169 
L 414.192516 -172.319666 
L 414.452906 -173.199164 
L 414.735667 -174.078662 
L 415.040891 -174.95816 
L 415.36851 -175.837658 
L 415.718306 -176.717155 
L 416.08991 -177.596653 
L 416.482807 -178.476151 
L 416.896347 -179.355649 
L 417.329749 -180.235147 
L 417.782108 -181.114644 
L 418.252406 -181.994142 
L 418.739523 -182.87364 
L 419.242244 -183.753138 
L 419.759271 -184.632636 
L 420.289233 -185.512133 
L 458.776767 -185.512133 
L 458.776767 -185.512133 
L 459.306729 -184.632636 
L 459.823756 -183.753138 
L 460.326477 -182.87364 
L 460.813594 -181.994142 
L 461.283892 -181.114644 
L 461.736251 -180.235147 
L 462.169653 -179.355649 
L 462.583193 -178.476151 
L 462.97609 -177.596653 
L 463.347694 -176.717155 
L 463.69749 -175.837658 
L 464.025109 -174.95816 
L 464.330333 -174.078662 
L 464.613094 -173.199164 
L 464.873484 -172.319666 
L 465.111751 -171.440169 
L 465.328302 -170.560671 
L 465.523703 -169.681173 
L 465.698671 -168.801675 
L 465.854077 -167.922178 
L 465.990935 -167.04268 
L 466.110395 -166.163182 
L 466.213739 -165.283684 
L 466.302363 -164.404186 
L 466.377774 -163.524689 
L 466.441568 -162.645191 
L 466.495424 -161.765693 
L 466.541082 -160.886195 
L 466.580329 -160.006697 
L 466.614981 -159.1272 
L 466.646865 -158.247702 
L 466.6778 -157.368204 
L 466.709576 -156.488706 
L 466.743939 -155.609209 
L 466.782565 -154.729711 
L 466.827047 -153.850213 
L 466.878871 -152.970715 
L 466.939403 -152.091217 
L 467.009868 -151.21172 
L 467.091335 -150.332222 
L 467.184706 -149.452724 
L 467.290697 -148.573226 
L 467.409831 -147.693728 
L 467.542431 -146.814231 
L 467.688605 -145.934733 
L 467.84825 -145.055235 
L 468.021046 -144.175737 
L 468.206452 -143.296239 
L 468.403716 -142.416742 
L 468.611874 -141.537244 
L 468.82976 -140.657746 
L 469.056014 -139.778248 
L 469.289095 -138.898751 
L 469.527292 -138.019253 
L 469.768747 -137.139755 
L 470.011463 -136.260257 
L 470.25333 -135.380759 
L 470.492145 -134.501262 
L 470.725629 -133.621764 
L 470.951456 -132.742266 
L 471.167269 -131.862768 
L 471.370708 -130.98327 
L 471.559434 -130.103773 
L 471.731145 -129.224275 
L 471.883608 -128.344777 
L 472.01467 -127.465279 
L 472.122288 -126.585781 
L 472.204539 -125.706284 
L 472.259646 -124.826786 
L 472.285987 -123.947288 
L 472.282111 -123.06779 
L 472.24675 -122.188293 
L 472.178831 -121.308795 
L 472.077478 -120.429297 
L 471.942023 -119.549799 
L 471.772006 -118.670301 
L 471.567176 -117.790804 
L 471.327493 -116.911306 
L 471.053121 -116.031808 
L 470.744426 -115.15231 
L 470.401967 -114.272812 
L 470.026491 -113.393315 
L 469.618918 -112.513817 
L 469.180336 -111.634319 
L 468.711985 -110.754821 
L 468.215244 -109.875323 
L 467.691619 -108.995826 
L 467.142728 -108.116328 
L 466.570286 -107.23683 
L 465.97609 -106.357332 
L 465.362005 -105.477835 
L 464.729949 -104.598337 
L 464.081879 -103.718839 
L 463.419777 -102.839341 
L 462.745634 -101.959843 
L 462.061444 -101.080346 
L 461.369183 -100.200848 
L 460.670805 -99.32135 
L 459.96823 -98.441852 
z
" style="stroke: #2f2f2f"/>
    </defs>
    <g clip-path="url(#p1f193d12b4)">
     <use xlink:href="#md064edc69a" x="0" y="288" style="fill: #437695; stroke: #2f2f2f"/>
    </g>
   </g>
   <g id="PolyCollection_6">
    <defs>
     <path id="ma9c3ff72c7" d="M 544.585437 -42.419048 
L 498.245498 -42.419048 
L 497.530143 -43.596851 
L 496.827658 -44.774654 
L 496.14035 -45.952457 
L 495.470521 -47.13026 
L 494.820454 -48.308063 
L 494.192402 -49.485866 
L 493.588575 -50.663669 
L 493.011126 -51.841472 
L 492.462136 -53.019275 
L 491.943608 -54.197078 
L 491.457445 -55.374881 
L 491.005447 -56.552684 
L 490.589293 -57.730487 
L 490.210533 -58.90829 
L 489.870578 -60.086093 
L 489.570687 -61.263896 
L 489.311965 -62.4417 
L 489.095346 -63.619503 
L 488.921596 -64.797306 
L 488.791298 -65.975109 
L 488.704855 -67.152912 
L 488.662481 -68.330715 
L 488.6642 -69.508518 
L 488.709847 -70.686321 
L 488.799064 -71.864124 
L 488.931304 -73.041927 
L 489.105831 -74.21973 
L 489.321725 -75.397533 
L 489.577886 -76.575336 
L 489.873038 -77.753139 
L 490.205739 -78.930942 
L 490.574384 -80.108745 
L 490.977218 -81.286548 
L 491.412345 -82.464351 
L 491.877733 -83.642154 
L 492.371233 -84.819957 
L 492.890587 -85.99776 
L 493.433438 -87.175563 
L 493.997348 -88.353366 
L 494.579809 -89.531169 
L 495.178257 -90.708972 
L 495.790087 -91.886775 
L 496.412665 -93.064579 
L 497.043349 -94.242382 
L 497.679494 -95.420185 
L 498.318477 -96.597988 
L 498.957703 -97.775791 
L 499.594623 -98.953594 
L 500.226751 -100.131397 
L 500.85167 -101.3092 
L 501.467055 -102.487003 
L 502.070676 -103.664806 
L 502.660416 -104.842609 
L 503.234283 -106.020412 
L 503.790415 -107.198215 
L 504.327097 -108.376018 
L 504.842763 -109.553821 
L 505.336011 -110.731624 
L 505.805605 -111.909427 
L 506.25048 -113.08723 
L 506.669753 -114.265033 
L 507.062722 -115.442836 
L 507.428867 -116.620639 
L 507.767857 -117.798442 
L 508.079544 -118.976245 
L 508.363968 -120.154048 
L 508.621346 -121.331851 
L 508.85208 -122.509655 
L 509.05674 -123.687458 
L 509.236065 -124.865261 
L 509.390956 -126.043064 
L 509.522463 -127.220867 
L 509.631778 -128.39867 
L 509.720226 -129.576473 
L 509.78925 -130.754276 
L 509.8404 -131.932079 
L 509.875322 -133.109882 
L 509.895739 -134.287685 
L 509.903441 -135.465488 
L 509.90027 -136.643291 
L 509.8881 -137.821094 
L 509.868829 -138.998897 
L 509.844355 -140.1767 
L 509.816569 -141.354503 
L 509.787334 -142.532306 
L 509.758471 -143.710109 
L 509.73175 -144.887912 
L 509.708867 -146.065715 
L 509.691441 -147.243518 
L 509.680996 -148.421321 
L 509.678951 -149.599124 
L 509.686612 -150.776927 
L 509.705162 -151.95473 
L 509.735653 -153.132534 
L 509.779003 -154.310337 
L 509.835987 -155.48814 
L 509.907238 -156.665943 
L 509.993242 -157.843746 
L 510.094341 -159.021549 
L 532.736594 -159.021549 
L 532.736594 -159.021549 
L 532.837693 -157.843746 
L 532.923698 -156.665943 
L 532.994948 -155.48814 
L 533.051932 -154.310337 
L 533.095282 -153.132534 
L 533.125773 -151.95473 
L 533.144323 -150.776927 
L 533.151984 -149.599124 
L 533.149939 -148.421321 
L 533.139494 -147.243518 
L 533.122068 -146.065715 
L 533.099185 -144.887912 
L 533.072464 -143.710109 
L 533.043601 -142.532306 
L 533.014366 -141.354503 
L 532.98658 -140.1767 
L 532.962106 -138.998897 
L 532.942835 -137.821094 
L 532.930665 -136.643291 
L 532.927494 -135.465488 
L 532.935196 -134.287685 
L 532.955613 -133.109882 
L 532.990535 -131.932079 
L 533.041685 -130.754276 
L 533.110709 -129.576473 
L 533.199157 -128.39867 
L 533.308472 -127.220867 
L 533.439979 -126.043064 
L 533.59487 -124.865261 
L 533.774195 -123.687458 
L 533.978855 -122.509655 
L 534.209589 -121.331851 
L 534.466968 -120.154048 
L 534.751391 -118.976245 
L 535.063078 -117.798442 
L 535.402068 -116.620639 
L 535.768213 -115.442836 
L 536.161182 -114.265033 
L 536.580455 -113.08723 
L 537.025331 -111.909427 
L 537.494924 -110.731624 
L 537.988172 -109.553821 
L 538.503839 -108.376018 
L 539.04052 -107.198215 
L 539.596652 -106.020412 
L 540.170519 -104.842609 
L 540.760259 -103.664806 
L 541.36388 -102.487003 
L 541.979265 -101.3092 
L 542.604184 -100.131397 
L 543.236312 -98.953594 
L 543.873233 -97.775791 
L 544.512458 -96.597988 
L 545.151441 -95.420185 
L 545.787586 -94.242382 
L 546.41827 -93.064579 
L 547.040849 -91.886775 
L 547.652678 -90.708972 
L 548.251126 -89.531169 
L 548.833587 -88.353366 
L 549.397497 -87.175563 
L 549.940348 -85.99776 
L 550.459702 -84.819957 
L 550.953202 -83.642154 
L 551.41859 -82.464351 
L 551.853717 -81.286548 
L 552.256551 -80.108745 
L 552.625196 -78.930942 
L 552.957897 -77.753139 
L 553.253049 -76.575336 
L 553.50921 -75.397533 
L 553.725104 -74.21973 
L 553.899631 -73.041927 
L 554.031871 -71.864124 
L 554.121088 -70.686321 
L 554.166735 -69.508518 
L 554.168455 -68.330715 
L 554.12608 -67.152912 
L 554.039637 -65.975109 
L 553.909339 -64.797306 
L 553.735589 -63.619503 
L 553.51897 -62.4417 
L 553.260248 -61.263896 
L 552.960357 -60.086093 
L 552.620402 -58.90829 
L 552.241642 -57.730487 
L 551.825488 -56.552684 
L 551.37349 -55.374881 
L 550.887327 -54.197078 
L 550.368799 -53.019275 
L 549.819809 -51.841472 
L 549.24236 -50.663669 
L 548.638533 -49.485866 
L 548.010481 -48.308063 
L 547.360414 -47.13026 
L 546.690585 -45.952457 
L 546.003277 -44.774654 
L 545.300792 -43.596851 
L 544.585437 -42.419048 
z
" style="stroke: #2f2f2f"/>
    </defs>
    <g clip-path="url(#p1f193d12b4)">
     <use xlink:href="#ma9c3ff72c7" x="0" y="288" style="fill: #423b63; stroke: #2f2f2f"/>
    </g>
   </g>
   <g id="line2d_33">
    <path d="M 357.650532 157.932371 
L 357.650532 107.035851 
" clip-path="url(#p1f193d12b4)" style="fill: none; stroke: #2f2f2f; stroke-width: 1.5; stroke-linecap: round"/>
   </g>
   <g id="line2d_34">
    <path d="M 357.650532 142.953753 
L 357.650532 115.491708 
" clip-path="url(#p1f193d12b4)" style="fill: none; stroke: #2f2f2f; stroke-width: 4.5; stroke-linecap: round"/>
   </g>
   <g id="line2d_35">
    <path d="M 357.650532 137.386214 
" clip-path="url(#p1f193d12b4)" style="fill: none; stroke: #2f2f2f; stroke-width: 1.2; stroke-linecap: round"/>
    <g clip-path="url(#p1f193d12b4)">
     <use xlink:href="#ma259684082" x="357.650532" y="137.386214" style="fill: #ffffff; stroke: #ffffff; stroke-width: 0.9"/>
    </g>
   </g>
   <g id="line2d_36">
    <path d="M 439.533 189.558148 
L 439.533 102.487867 
" clip-path="url(#p1f193d12b4)" style="fill: none; stroke: #2f2f2f; stroke-width: 1.5; stroke-linecap: round"/>
   </g>
   <g id="line2d_37">
    <path d="M 439.533 170.432828 
L 439.533 123.131041 
" clip-path="url(#p1f193d12b4)" style="fill: none; stroke: #2f2f2f; stroke-width: 4.5; stroke-linecap: round"/>
   </g>
   <g id="line2d_38">
    <path d="M 439.533 159.086963 
" clip-path="url(#p1f193d12b4)" style="fill: none; stroke: #2f2f2f; stroke-width: 1.2; stroke-linecap: round"/>
    <g clip-path="url(#p1f193d12b4)">
     <use xlink:href="#ma259684082" x="439.533" y="159.086963" style="fill: #ffffff; stroke: #ffffff; stroke-width: 0.9"/>
    </g>
   </g>
   <g id="line2d_39">
    <path d="M 521.415468 245.580952 
L 521.415468 193.156262 
" clip-path="url(#p1f193d12b4)" style="fill: none; stroke: #2f2f2f; stroke-width: 1.5; stroke-linecap: round"/>
   </g>
   <g id="line2d_40">
    <path d="M 521.415468 225.517827 
L 521.415468 193.156262 
" clip-path="url(#p1f193d12b4)" style="fill: none; stroke: #2f2f2f; stroke-width: 4.5; stroke-linecap: round"/>
   </g>
   <g id="line2d_41">
    <path d="M 521.415468 212.674527 
" clip-path="url(#p1f193d12b4)" style="fill: none; stroke: #2f2f2f; stroke-width: 1.2; stroke-linecap: round"/>
    <g clip-path="url(#p1f193d12b4)">
     <use xlink:href="#ma259684082" x="521.415468" y="212.674527" style="fill: #ffffff; stroke: #ffffff; stroke-width: 0.9"/>
    </g>
   </g>
   <g id="line2d_42">
    <path d="M 357.650532 98.9006 
L 357.650532 90.918932 
L 439.533 90.918932 
L 439.533 98.9006 
" clip-path="url(#p1f193d12b4)" style="fill: none; stroke: #000000; stroke-linecap: round"/>
   </g>
   <g id="line2d_43">
    <path d="M 439.533 84.551533 
L 439.533 76.211138 
L 521.415468 76.211138 
L 521.415468 84.551533 
" clip-path="url(#p1f193d12b4)" style="fill: none; stroke: #000000; stroke-linecap: round"/>
   </g>
   <g id="line2d_44">
    <path d="M 357.650532 70.202467 
L 357.650532 61.503345 
L 521.415468 61.503345 
L 521.415468 70.202467 
" clip-path="url(#p1f193d12b4)" style="fill: none; stroke: #000000; stroke-linecap: round"/>
   </g>
   <g id="patch_8">
    <path d="M 313.434 238.804 
L 313.434 23.568 
" style="fill: none; stroke: #262626; stroke-linejoin: miter; stroke-linecap: square"/>
   </g>
   <g id="patch_9">
    <path d="M 565.632 238.804 
L 565.632 23.568 
" style="fill: none; stroke: #262626; stroke-linejoin: miter; stroke-linecap: square"/>
   </g>
   <g id="patch_10">
    <path d="M 313.434 238.804 
L 565.632 238.804 
" style="fill: none; stroke: #262626; stroke-linejoin: miter; stroke-linecap: square"/>
   </g>
   <g id="patch_11">
    <path d="M 313.434 23.568 
L 565.632 23.568 
" style="fill: none; stroke: #262626; stroke-linejoin: miter; stroke-linecap: square"/>
   </g>
   <g id="text_19">
    <!-- ns -->
    <g transform="translate(393.049266 88.922432) scale(0.096 -0.096)">
     <use xlink:href="#DejaVuSans-6e"/>
     <use xlink:href="#DejaVuSans-73" x="63.378906"/>
    </g>
   </g>
   <g id="text_20">
    <!-- ** -->
    <g transform="translate(475.674234 74.214638) scale(0.096 -0.096)">
     <defs>
      <path id="DejaVuSans-2a" d="M 3009 3897 
L 1888 3291 
L 3009 2681 
L 2828 2375 
L 1778 3009 
L 1778 1831 
L 1422 1831 
L 1422 3009 
L 372 2375 
L 191 2681 
L 1313 3291 
L 191 3897 
L 372 4206 
L 1422 3572 
L 1422 4750 
L 1778 4750 
L 1778 3572 
L 2828 4206 
L 3009 3897 
z
" transform="scale(0.015625)"/>
     </defs>
     <use xlink:href="#DejaVuSans-2a"/>
     <use xlink:href="#DejaVuSans-2a" x="50"/>
    </g>
   </g>
   <g id="text_21">
    <!-- *** -->
    <g transform="translate(432.333 59.506845) scale(0.096 -0.096)">
     <use xlink:href="#DejaVuSans-2a"/>
     <use xlink:href="#DejaVuSans-2a" x="50"/>
     <use xlink:href="#DejaVuSans-2a" x="100"/>
    </g>
   </g>
   <g id="text_22">
    <!-- Speed -->
    <g style="fill: #262626" transform="translate(424.48425 17.568) scale(0.096 -0.096)">
     <defs>
      <path id="DejaVuSans-53" d="M 3425 4513 
L 3425 3897 
Q 3066 4069 2747 4153 
Q 2428 4238 2131 4238 
Q 1616 4238 1336 4038 
Q 1056 3838 1056 3469 
Q 1056 3159 1242 3001 
Q 1428 2844 1947 2747 
L 2328 2669 
Q 3034 2534 3370 2195 
Q 3706 1856 3706 1288 
Q 3706 609 3251 259 
Q 2797 -91 1919 -91 
Q 1588 -91 1214 -16 
Q 841 59 441 206 
L 441 856 
Q 825 641 1194 531 
Q 1563 422 1919 422 
Q 2459 422 2753 634 
Q 3047 847 3047 1241 
Q 3047 1584 2836 1778 
Q 2625 1972 2144 2069 
L 1759 2144 
Q 1053 2284 737 2584 
Q 422 2884 422 3419 
Q 422 4038 858 4394 
Q 1294 4750 2059 4750 
Q 2388 4750 2728 4690 
Q 3069 4631 3425 4513 
z
" transform="scale(0.015625)"/>
     </defs>
     <use xlink:href="#DejaVuSans-53"/>
     <use xlink:href="#DejaVuSans-70" x="63.476562"/>
     <use xlink:href="#DejaVuSans-65" x="126.953125"/>
     <use xlink:href="#DejaVuSans-65" x="188.476562"/>
     <use xlink:href="#DejaVuSans-64" x="250"/>
    </g>
   </g>
  </g>
  <g id="text_23">
   <!-- Average encoding probability tertile -->
   <g style="fill: #262626" transform="translate(184.5009 282.7242) scale(0.1152 -0.1152)">
    <defs>
     <path id="DejaVuSans-76" d="M 191 3500 
L 800 3500 
L 1894 563 
L 2988 3500 
L 3597 3500 
L 2284 0 
L 1503 0 
L 191 3500 
z
" transform="scale(0.015625)"/>
    </defs>
    <use xlink:href="#DejaVuSans-41"/>
    <use xlink:href="#DejaVuSans-76" x="62.533203"/>
    <use xlink:href="#DejaVuSans-65" x="121.712891"/>
    <use xlink:href="#DejaVuSans-72" x="183.236328"/>
    <use xlink:href="#DejaVuSans-61" x="224.349609"/>
    <use xlink:href="#DejaVuSans-67" x="285.628906"/>
    <use xlink:href="#DejaVuSans-65" x="349.105469"/>
    <use xlink:href="#DejaVuSans-20" x="410.628906"/>
    <use xlink:href="#DejaVuSans-65" x="442.416016"/>
    <use xlink:href="#DejaVuSans-6e" x="503.939453"/>
    <use xlink:href="#DejaVuSans-63" x="567.318359"/>
    <use xlink:href="#DejaVuSans-6f" x="622.298828"/>
    <use xlink:href="#DejaVuSans-64" x="683.480469"/>
    <use xlink:href="#DejaVuSans-69" x="746.957031"/>
    <use xlink:href="#DejaVuSans-6e" x="774.740234"/>
    <use xlink:href="#DejaVuSans-67" x="838.119141"/>
    <use xlink:href="#DejaVuSans-20" x="901.595703"/>
    <use xlink:href="#DejaVuSans-70" x="933.382812"/>
    <use xlink:href="#DejaVuSans-72" x="996.859375"/>
    <use xlink:href="#DejaVuSans-6f" x="1035.722656"/>
    <use xlink:href="#DejaVuSans-62" x="1096.904297"/>
    <use xlink:href="#DejaVuSans-61" x="1160.380859"/>
    <use xlink:href="#DejaVuSans-62" x="1221.660156"/>
    <use xlink:href="#DejaVuSans-69" x="1285.136719"/>
    <use xlink:href="#DejaVuSans-6c" x="1312.919922"/>
    <use xlink:href="#DejaVuSans-69" x="1340.703125"/>
    <use xlink:href="#DejaVuSans-74" x="1368.486328"/>
    <use xlink:href="#DejaVuSans-79" x="1407.695312"/>
    <use xlink:href="#DejaVuSans-20" x="1466.875"/>
    <use xlink:href="#DejaVuSans-74" x="1498.662109"/>
    <use xlink:href="#DejaVuSans-65" x="1537.871094"/>
    <use xlink:href="#DejaVuSans-72" x="1599.394531"/>
    <use xlink:href="#DejaVuSans-74" x="1640.507812"/>
    <use xlink:href="#DejaVuSans-69" x="1679.716797"/>
    <use xlink:href="#DejaVuSans-6c" x="1707.5"/>
    <use xlink:href="#DejaVuSans-65" x="1735.283203"/>
   </g>
  </g>
 </g>
 <defs>
  <clipPath id="p0611e44fe4">
   <rect x="46.068" y="23.568" width="252.198" height="215.236"/>
  </clipPath>
  <clipPath id="p1f193d12b4">
   <rect x="313.434" y="23.568" width="252.198" height="215.236"/>
  </clipPath>
 </defs>
</svg>
