<?xml version="1.0" encoding="utf-8" standalone="no"?>
<!DOCTYPE svg PUBLIC "-//W3C//DTD SVG 1.1//EN"
  "http://www.w3.org/Graphics/SVG/1.1/DTD/svg11.dtd">
<svg xmlns:xlink="http://www.w3.org/1999/xlink" width="576pt" height="288pt" viewBox="0 0 576 288" xmlns="http://www.w3.org/2000/svg" version="1.1">
 <metadata>
  <rdf:RDF xmlns:dc="http://purl.org/dc/elements/1.1/" xmlns:cc="http://creativecommons.org/ns#" xmlns:rdf="http://www.w3.org/1999/02/22-rdf-syntax-ns#">
   <cc:Work>
    <dc:type rdf:resource="http://purl.org/dc/dcmitype/StillImage"/>
    <dc:date>2025-01-09T10:56:07.769477</dc:date>
    <dc:format>image/svg+xml</dc:format>
    <dc:creator>
     <cc:Agent>
      <dc:title>Matplotlib v3.9.2, https://matplotlib.org/</dc:title>
     </cc:Agent>
    </dc:creator>
   </cc:Work>
  </rdf:RDF>
 </metadata>
 <defs>
  <style type="text/css">*{stroke-linejoin: round; stroke-linecap: butt}</style>
 </defs>
 <g id="figure_1">
  <g id="patch_1">
   <path d="M 0 288 
L 576 288 
L 576 0 
L 0 0 
L 0 288 
z
" style="fill: none"/>
  </g>
  <g id="axes_1">
   <g id="patch_2">
    <path d="M 46.068 238.804 
L 298.266 238.804 
L 298.266 23.568 
L 46.068 23.568 
L 46.068 238.804 
z
" style="fill: none"/>
   </g>
   <g id="matplotlib.axis_1">
    <g id="xtick_1">
     <g id="line2d_1">
      <defs>
       <path id="m0430732a87" d="M 0 0 
L 0 4.8 
" style="stroke: #262626"/>
      </defs>
      <g>
       <use xlink:href="#m0430732a87" x="90.284532" y="238.804" style="fill: #262626; stroke: #262626"/>
      </g>
     </g>
     <g id="text_1">
      <!-- Low -->
      <g style="fill: #262626" transform="translate(81.619282 253.790625) scale(0.088 -0.088)">
       <defs>
        <path id="DejaVuSans-4c" d="M 628 4666 
L 1259 4666 
L 1259 531 
L 3531 531 
L 3531 0 
L 628 0 
L 628 4666 
z
" transform="scale(0.015625)"/>
        <path id="DejaVuSans-6f" d="M 1959 3097 
Q 1497 3097 1228 2736 
Q 959 2375 959 1747 
Q 959 1119 1226 758 
Q 1494 397 1959 397 
Q 2419 397 2687 759 
Q 2956 1122 2956 1747 
Q 2956 2369 2687 2733 
Q 2419 3097 1959 3097 
z
M 1959 3584 
Q 2709 3584 3137 3096 
Q 3566 2609 3566 1747 
Q 3566 888 3137 398 
Q 2709 -91 1959 -91 
Q 1206 -91 779 398 
Q 353 888 353 1747 
Q 353 2609 779 3096 
Q 1206 3584 1959 3584 
z
" transform="scale(0.015625)"/>
        <path id="DejaVuSans-77" d="M 269 3500 
L 844 3500 
L 1563 769 
L 2278 3500 
L 2956 3500 
L 3675 769 
L 4391 3500 
L 4966 3500 
L 4050 0 
L 3372 0 
L 2619 2869 
L 1863 0 
L 1184 0 
L 269 3500 
z
" transform="scale(0.015625)"/>
       </defs>
       <use xlink:href="#DejaVuSans-4c"/>
       <use xlink:href="#DejaVuSans-6f" x="53.962891"/>
       <use xlink:href="#DejaVuSans-77" x="115.144531"/>
      </g>
     </g>
    </g>
    <g id="xtick_2">
     <g id="line2d_2">
      <g>
       <use xlink:href="#m0430732a87" x="172.167" y="238.804" style="fill: #262626; stroke: #262626"/>
      </g>
     </g>
     <g id="text_2">
      <!-- Medium -->
      <g style="fill: #262626" transform="translate(154.573187 253.790625) scale(0.088 -0.088)">
       <defs>
        <path id="DejaVuSans-4d" d="M 628 4666 
L 1569 4666 
L 2759 1491 
L 3956 4666 
L 4897 4666 
L 4897 0 
L 4281 0 
L 4281 4097 
L 3078 897 
L 2444 897 
L 1241 4097 
L 1241 0 
L 628 0 
L 628 4666 
z
" transform="scale(0.015625)"/>
        <path id="DejaVuSans-65" d="M 3597 1894 
L 3597 1613 
L 953 1613 
Q 991 1019 1311 708 
Q 1631 397 2203 397 
Q 2534 397 2845 478 
Q 3156 559 3463 722 
L 3463 178 
Q 3153 47 2828 -22 
Q 2503 -91 2169 -91 
Q 1331 -91 842 396 
Q 353 884 353 1716 
Q 353 2575 817 3079 
Q 1281 3584 2069 3584 
Q 2775 3584 3186 3129 
Q 3597 2675 3597 1894 
z
M 3022 2063 
Q 3016 2534 2758 2815 
Q 2500 3097 2075 3097 
Q 1594 3097 1305 2825 
Q 1016 2553 972 2059 
L 3022 2063 
z
" transform="scale(0.015625)"/>
        <path id="DejaVuSans-64" d="M 2906 2969 
L 2906 4863 
L 3481 4863 
L 3481 0 
L 2906 0 
L 2906 525 
Q 2725 213 2448 61 
Q 2172 -91 1784 -91 
Q 1150 -91 751 415 
Q 353 922 353 1747 
Q 353 2572 751 3078 
Q 1150 3584 1784 3584 
Q 2172 3584 2448 3432 
Q 2725 3281 2906 2969 
z
M 947 1747 
Q 947 1113 1208 752 
Q 1469 391 1925 391 
Q 2381 391 2643 752 
Q 2906 1113 2906 1747 
Q 2906 2381 2643 2742 
Q 2381 3103 1925 3103 
Q 1469 3103 1208 2742 
Q 947 2381 947 1747 
z
" transform="scale(0.015625)"/>
        <path id="DejaVuSans-69" d="M 603 3500 
L 1178 3500 
L 1178 0 
L 603 0 
L 603 3500 
z
M 603 4863 
L 1178 4863 
L 1178 4134 
L 603 4134 
L 603 4863 
z
" transform="scale(0.015625)"/>
        <path id="DejaVuSans-75" d="M 544 1381 
L 544 3500 
L 1119 3500 
L 1119 1403 
Q 1119 906 1312 657 
Q 1506 409 1894 409 
Q 2359 409 2629 706 
Q 2900 1003 2900 1516 
L 2900 3500 
L 3475 3500 
L 3475 0 
L 2900 0 
L 2900 538 
Q 2691 219 2414 64 
Q 2138 -91 1772 -91 
Q 1169 -91 856 284 
Q 544 659 544 1381 
z
M 1991 3584 
L 1991 3584 
z
" transform="scale(0.015625)"/>
        <path id="DejaVuSans-6d" d="M 3328 2828 
Q 3544 3216 3844 3400 
Q 4144 3584 4550 3584 
Q 5097 3584 5394 3201 
Q 5691 2819 5691 2113 
L 5691 0 
L 5113 0 
L 5113 2094 
Q 5113 2597 4934 2840 
Q 4756 3084 4391 3084 
Q 3944 3084 3684 2787 
Q 3425 2491 3425 1978 
L 3425 0 
L 2847 0 
L 2847 2094 
Q 2847 2600 2669 2842 
Q 2491 3084 2119 3084 
Q 1678 3084 1418 2786 
Q 1159 2488 1159 1978 
L 1159 0 
L 581 0 
L 581 3500 
L 1159 3500 
L 1159 2956 
Q 1356 3278 1631 3431 
Q 1906 3584 2284 3584 
Q 2666 3584 2933 3390 
Q 3200 3197 3328 2828 
z
" transform="scale(0.015625)"/>
       </defs>
       <use xlink:href="#DejaVuSans-4d"/>
       <use xlink:href="#DejaVuSans-65" x="86.279297"/>
       <use xlink:href="#DejaVuSans-64" x="147.802734"/>
       <use xlink:href="#DejaVuSans-69" x="211.279297"/>
       <use xlink:href="#DejaVuSans-75" x="239.0625"/>
       <use xlink:href="#DejaVuSans-6d" x="302.441406"/>
      </g>
     </g>
    </g>
    <g id="xtick_3">
     <g id="line2d_3">
      <g>
       <use xlink:href="#m0430732a87" x="254.049468" y="238.804" style="fill: #262626; stroke: #262626"/>
      </g>
     </g>
     <g id="text_3">
      <!-- High -->
      <g style="fill: #262626" transform="translate(243.936343 253.790625) scale(0.088 -0.088)">
       <defs>
        <path id="DejaVuSans-48" d="M 628 4666 
L 1259 4666 
L 1259 2753 
L 3553 2753 
L 3553 4666 
L 4184 4666 
L 4184 0 
L 3553 0 
L 3553 2222 
L 1259 2222 
L 1259 0 
L 628 0 
L 628 4666 
z
" transform="scale(0.015625)"/>
        <path id="DejaVuSans-67" d="M 2906 1791 
Q 2906 2416 2648 2759 
Q 2391 3103 1925 3103 
Q 1463 3103 1205 2759 
Q 947 2416 947 1791 
Q 947 1169 1205 825 
Q 1463 481 1925 481 
Q 2391 481 2648 825 
Q 2906 1169 2906 1791 
z
M 3481 434 
Q 3481 -459 3084 -895 
Q 2688 -1331 1869 -1331 
Q 1566 -1331 1297 -1286 
Q 1028 -1241 775 -1147 
L 775 -588 
Q 1028 -725 1275 -790 
Q 1522 -856 1778 -856 
Q 2344 -856 2625 -561 
Q 2906 -266 2906 331 
L 2906 616 
Q 2728 306 2450 153 
Q 2172 0 1784 0 
Q 1141 0 747 490 
Q 353 981 353 1791 
Q 353 2603 747 3093 
Q 1141 3584 1784 3584 
Q 2172 3584 2450 3431 
Q 2728 3278 2906 2969 
L 2906 3500 
L 3481 3500 
L 3481 434 
z
" transform="scale(0.015625)"/>
        <path id="DejaVuSans-68" d="M 3513 2113 
L 3513 0 
L 2938 0 
L 2938 2094 
Q 2938 2591 2744 2837 
Q 2550 3084 2163 3084 
Q 1697 3084 1428 2787 
Q 1159 2491 1159 1978 
L 1159 0 
L 581 0 
L 581 4863 
L 1159 4863 
L 1159 2956 
Q 1366 3272 1645 3428 
Q 1925 3584 2291 3584 
Q 2894 3584 3203 3211 
Q 3513 2838 3513 2113 
z
" transform="scale(0.015625)"/>
       </defs>
       <use xlink:href="#DejaVuSans-48"/>
       <use xlink:href="#DejaVuSans-69" x="75.195312"/>
       <use xlink:href="#DejaVuSans-67" x="102.978516"/>
       <use xlink:href="#DejaVuSans-68" x="166.455078"/>
      </g>
     </g>
    </g>
   </g>
   <g id="matplotlib.axis_2">
    <g id="ytick_1">
     <g id="line2d_4">
      <defs>
       <path id="m7bb4725e63" d="M 0 0 
L -4.8 0 
" style="stroke: #262626"/>
      </defs>
      <g>
       <use xlink:href="#m7bb4725e63" x="46.068" y="238.804" style="fill: #262626; stroke: #262626"/>
      </g>
     </g>
     <g id="text_4">
      <!-- 0.5 -->
      <g style="fill: #262626" transform="translate(23.77325 242.147312) scale(0.088 -0.088)">
       <defs>
        <path id="DejaVuSans-30" d="M 2034 4250 
Q 1547 4250 1301 3770 
Q 1056 3291 1056 2328 
Q 1056 1369 1301 889 
Q 1547 409 2034 409 
Q 2525 409 2770 889 
Q 3016 1369 3016 2328 
Q 3016 3291 2770 3770 
Q 2525 4250 2034 4250 
z
M 2034 4750 
Q 2819 4750 3233 4129 
Q 3647 3509 3647 2328 
Q 3647 1150 3233 529 
Q 2819 -91 2034 -91 
Q 1250 -91 836 529 
Q 422 1150 422 2328 
Q 422 3509 836 4129 
Q 1250 4750 2034 4750 
z
" transform="scale(0.015625)"/>
        <path id="DejaVuSans-2e" d="M 684 794 
L 1344 794 
L 1344 0 
L 684 0 
L 684 794 
z
" transform="scale(0.015625)"/>
        <path id="DejaVuSans-35" d="M 691 4666 
L 3169 4666 
L 3169 4134 
L 1269 4134 
L 1269 2991 
Q 1406 3038 1543 3061 
Q 1681 3084 1819 3084 
Q 2600 3084 3056 2656 
Q 3513 2228 3513 1497 
Q 3513 744 3044 326 
Q 2575 -91 1722 -91 
Q 1428 -91 1123 -41 
Q 819 9 494 109 
L 494 744 
Q 775 591 1075 516 
Q 1375 441 1709 441 
Q 2250 441 2565 725 
Q 2881 1009 2881 1497 
Q 2881 1984 2565 2268 
Q 2250 2553 1709 2553 
Q 1456 2553 1204 2497 
Q 953 2441 691 2322 
L 691 4666 
z
" transform="scale(0.015625)"/>
       </defs>
       <use xlink:href="#DejaVuSans-30"/>
       <use xlink:href="#DejaVuSans-2e" x="63.623047"/>
       <use xlink:href="#DejaVuSans-35" x="95.410156"/>
      </g>
     </g>
    </g>
    <g id="ytick_2">
     <g id="line2d_5">
      <g>
       <use xlink:href="#m7bb4725e63" x="46.068" y="202.931333" style="fill: #262626; stroke: #262626"/>
      </g>
     </g>
     <g id="text_5">
      <!-- 0.6 -->
      <g style="fill: #262626" transform="translate(23.77325 206.274646) scale(0.088 -0.088)">
       <defs>
        <path id="DejaVuSans-36" d="M 2113 2584 
Q 1688 2584 1439 2293 
Q 1191 2003 1191 1497 
Q 1191 994 1439 701 
Q 1688 409 2113 409 
Q 2538 409 2786 701 
Q 3034 994 3034 1497 
Q 3034 2003 2786 2293 
Q 2538 2584 2113 2584 
z
M 3366 4563 
L 3366 3988 
Q 3128 4100 2886 4159 
Q 2644 4219 2406 4219 
Q 1781 4219 1451 3797 
Q 1122 3375 1075 2522 
Q 1259 2794 1537 2939 
Q 1816 3084 2150 3084 
Q 2853 3084 3261 2657 
Q 3669 2231 3669 1497 
Q 3669 778 3244 343 
Q 2819 -91 2113 -91 
Q 1303 -91 875 529 
Q 447 1150 447 2328 
Q 447 3434 972 4092 
Q 1497 4750 2381 4750 
Q 2619 4750 2861 4703 
Q 3103 4656 3366 4563 
z
" transform="scale(0.015625)"/>
       </defs>
       <use xlink:href="#DejaVuSans-30"/>
       <use xlink:href="#DejaVuSans-2e" x="63.623047"/>
       <use xlink:href="#DejaVuSans-36" x="95.410156"/>
      </g>
     </g>
    </g>
    <g id="ytick_3">
     <g id="line2d_6">
      <g>
       <use xlink:href="#m7bb4725e63" x="46.068" y="167.058667" style="fill: #262626; stroke: #262626"/>
      </g>
     </g>
     <g id="text_6">
      <!-- 0.7 -->
      <g style="fill: #262626" transform="translate(23.77325 170.401979) scale(0.088 -0.088)">
       <defs>
        <path id="DejaVuSans-37" d="M 525 4666 
L 3525 4666 
L 3525 4397 
L 1831 0 
L 1172 0 
L 2766 4134 
L 525 4134 
L 525 4666 
z
" transform="scale(0.015625)"/>
       </defs>
       <use xlink:href="#DejaVuSans-30"/>
       <use xlink:href="#DejaVuSans-2e" x="63.623047"/>
       <use xlink:href="#DejaVuSans-37" x="95.410156"/>
      </g>
     </g>
    </g>
    <g id="ytick_4">
     <g id="line2d_7">
      <g>
       <use xlink:href="#m7bb4725e63" x="46.068" y="131.186" style="fill: #262626; stroke: #262626"/>
      </g>
     </g>
     <g id="text_7">
      <!-- 0.8 -->
      <g style="fill: #262626" transform="translate(23.77325 134.529312) scale(0.088 -0.088)">
       <defs>
        <path id="DejaVuSans-38" d="M 2034 2216 
Q 1584 2216 1326 1975 
Q 1069 1734 1069 1313 
Q 1069 891 1326 650 
Q 1584 409 2034 409 
Q 2484 409 2743 651 
Q 3003 894 3003 1313 
Q 3003 1734 2745 1975 
Q 2488 2216 2034 2216 
z
M 1403 2484 
Q 997 2584 770 2862 
Q 544 3141 544 3541 
Q 544 4100 942 4425 
Q 1341 4750 2034 4750 
Q 2731 4750 3128 4425 
Q 3525 4100 3525 3541 
Q 3525 3141 3298 2862 
Q 3072 2584 2669 2484 
Q 3125 2378 3379 2068 
Q 3634 1759 3634 1313 
Q 3634 634 3220 271 
Q 2806 -91 2034 -91 
Q 1263 -91 848 271 
Q 434 634 434 1313 
Q 434 1759 690 2068 
Q 947 2378 1403 2484 
z
M 1172 3481 
Q 1172 3119 1398 2916 
Q 1625 2713 2034 2713 
Q 2441 2713 2670 2916 
Q 2900 3119 2900 3481 
Q 2900 3844 2670 4047 
Q 2441 4250 2034 4250 
Q 1625 4250 1398 4047 
Q 1172 3844 1172 3481 
z
" transform="scale(0.015625)"/>
       </defs>
       <use xlink:href="#DejaVuSans-30"/>
       <use xlink:href="#DejaVuSans-2e" x="63.623047"/>
       <use xlink:href="#DejaVuSans-38" x="95.410156"/>
      </g>
     </g>
    </g>
    <g id="ytick_5">
     <g id="line2d_8">
      <g>
       <use xlink:href="#m7bb4725e63" x="46.068" y="95.313333" style="fill: #262626; stroke: #262626"/>
      </g>
     </g>
     <g id="text_8">
      <!-- 0.9 -->
      <g style="fill: #262626" transform="translate(23.77325 98.656646) scale(0.088 -0.088)">
       <defs>
        <path id="DejaVuSans-39" d="M 703 97 
L 703 672 
Q 941 559 1184 500 
Q 1428 441 1663 441 
Q 2288 441 2617 861 
Q 2947 1281 2994 2138 
Q 2813 1869 2534 1725 
Q 2256 1581 1919 1581 
Q 1219 1581 811 2004 
Q 403 2428 403 3163 
Q 403 3881 828 4315 
Q 1253 4750 1959 4750 
Q 2769 4750 3195 4129 
Q 3622 3509 3622 2328 
Q 3622 1225 3098 567 
Q 2575 -91 1691 -91 
Q 1453 -91 1209 -44 
Q 966 3 703 97 
z
M 1959 2075 
Q 2384 2075 2632 2365 
Q 2881 2656 2881 3163 
Q 2881 3666 2632 3958 
Q 2384 4250 1959 4250 
Q 1534 4250 1286 3958 
Q 1038 3666 1038 3163 
Q 1038 2656 1286 2365 
Q 1534 2075 1959 2075 
z
" transform="scale(0.015625)"/>
       </defs>
       <use xlink:href="#DejaVuSans-30"/>
       <use xlink:href="#DejaVuSans-2e" x="63.623047"/>
       <use xlink:href="#DejaVuSans-39" x="95.410156"/>
      </g>
     </g>
    </g>
    <g id="ytick_6">
     <g id="line2d_9">
      <g>
       <use xlink:href="#m7bb4725e63" x="46.068" y="59.440667" style="fill: #262626; stroke: #262626"/>
      </g>
     </g>
     <g id="text_9">
      <!-- 1.0 -->
      <g style="fill: #262626" transform="translate(23.77325 62.783979) scale(0.088 -0.088)">
       <defs>
        <path id="DejaVuSans-31" d="M 794 531 
L 1825 531 
L 1825 4091 
L 703 3866 
L 703 4441 
L 1819 4666 
L 2450 4666 
L 2450 531 
L 3481 531 
L 3481 0 
L 794 0 
L 794 531 
z
" transform="scale(0.015625)"/>
       </defs>
       <use xlink:href="#DejaVuSans-31"/>
       <use xlink:href="#DejaVuSans-2e" x="63.623047"/>
       <use xlink:href="#DejaVuSans-30" x="95.410156"/>
      </g>
     </g>
    </g>
    <g id="ytick_7">
     <g id="line2d_10">
      <g>
       <use xlink:href="#m7bb4725e63" x="46.068" y="23.568" style="fill: #262626; stroke: #262626"/>
      </g>
     </g>
     <g id="text_10">
      <!-- 1.1 -->
      <g style="fill: #262626" transform="translate(23.77325 26.911313) scale(0.088 -0.088)">
       <use xlink:href="#DejaVuSans-31"/>
       <use xlink:href="#DejaVuSans-2e" x="63.623047"/>
       <use xlink:href="#DejaVuSans-31" x="95.410156"/>
      </g>
     </g>
    </g>
    <g id="text_11">
     <!-- Probability of correct response -->
     <g style="fill: #262626" transform="translate(17.77675 204.36575) rotate(-90) scale(0.096 -0.096)">
      <defs>
       <path id="DejaVuSans-50" d="M 1259 4147 
L 1259 2394 
L 2053 2394 
Q 2494 2394 2734 2622 
Q 2975 2850 2975 3272 
Q 2975 3691 2734 3919 
Q 2494 4147 2053 4147 
L 1259 4147 
z
M 628 4666 
L 2053 4666 
Q 2838 4666 3239 4311 
Q 3641 3956 3641 3272 
Q 3641 2581 3239 2228 
Q 2838 1875 2053 1875 
L 1259 1875 
L 1259 0 
L 628 0 
L 628 4666 
z
" transform="scale(0.015625)"/>
       <path id="DejaVuSans-72" d="M 2631 2963 
Q 2534 3019 2420 3045 
Q 2306 3072 2169 3072 
Q 1681 3072 1420 2755 
Q 1159 2438 1159 1844 
L 1159 0 
L 581 0 
L 581 3500 
L 1159 3500 
L 1159 2956 
Q 1341 3275 1631 3429 
Q 1922 3584 2338 3584 
Q 2397 3584 2469 3576 
Q 2541 3569 2628 3553 
L 2631 2963 
z
" transform="scale(0.015625)"/>
       <path id="DejaVuSans-62" d="M 3116 1747 
Q 3116 2381 2855 2742 
Q 2594 3103 2138 3103 
Q 1681 3103 1420 2742 
Q 1159 2381 1159 1747 
Q 1159 1113 1420 752 
Q 1681 391 2138 391 
Q 2594 391 2855 752 
Q 3116 1113 3116 1747 
z
M 1159 2969 
Q 1341 3281 1617 3432 
Q 1894 3584 2278 3584 
Q 2916 3584 3314 3078 
Q 3713 2572 3713 1747 
Q 3713 922 3314 415 
Q 2916 -91 2278 -91 
Q 1894 -91 1617 61 
Q 1341 213 1159 525 
L 1159 0 
L 581 0 
L 581 4863 
L 1159 4863 
L 1159 2969 
z
" transform="scale(0.015625)"/>
       <path id="DejaVuSans-61" d="M 2194 1759 
Q 1497 1759 1228 1600 
Q 959 1441 959 1056 
Q 959 750 1161 570 
Q 1363 391 1709 391 
Q 2188 391 2477 730 
Q 2766 1069 2766 1631 
L 2766 1759 
L 2194 1759 
z
M 3341 1997 
L 3341 0 
L 2766 0 
L 2766 531 
Q 2569 213 2275 61 
Q 1981 -91 1556 -91 
Q 1019 -91 701 211 
Q 384 513 384 1019 
Q 384 1609 779 1909 
Q 1175 2209 1959 2209 
L 2766 2209 
L 2766 2266 
Q 2766 2663 2505 2880 
Q 2244 3097 1772 3097 
Q 1472 3097 1187 3025 
Q 903 2953 641 2809 
L 641 3341 
Q 956 3463 1253 3523 
Q 1550 3584 1831 3584 
Q 2591 3584 2966 3190 
Q 3341 2797 3341 1997 
z
" transform="scale(0.015625)"/>
       <path id="DejaVuSans-6c" d="M 603 4863 
L 1178 4863 
L 1178 0 
L 603 0 
L 603 4863 
z
" transform="scale(0.015625)"/>
       <path id="DejaVuSans-74" d="M 1172 4494 
L 1172 3500 
L 2356 3500 
L 2356 3053 
L 1172 3053 
L 1172 1153 
Q 1172 725 1289 603 
Q 1406 481 1766 481 
L 2356 481 
L 2356 0 
L 1766 0 
Q 1100 0 847 248 
Q 594 497 594 1153 
L 594 3053 
L 172 3053 
L 172 3500 
L 594 3500 
L 594 4494 
L 1172 4494 
z
" transform="scale(0.015625)"/>
       <path id="DejaVuSans-79" d="M 2059 -325 
Q 1816 -950 1584 -1140 
Q 1353 -1331 966 -1331 
L 506 -1331 
L 506 -850 
L 844 -850 
Q 1081 -850 1212 -737 
Q 1344 -625 1503 -206 
L 1606 56 
L 191 3500 
L 800 3500 
L 1894 763 
L 2988 3500 
L 3597 3500 
L 2059 -325 
z
" transform="scale(0.015625)"/>
       <path id="DejaVuSans-20" transform="scale(0.015625)"/>
       <path id="DejaVuSans-66" d="M 2375 4863 
L 2375 4384 
L 1825 4384 
Q 1516 4384 1395 4259 
Q 1275 4134 1275 3809 
L 1275 3500 
L 2222 3500 
L 2222 3053 
L 1275 3053 
L 1275 0 
L 697 0 
L 697 3053 
L 147 3053 
L 147 3500 
L 697 3500 
L 697 3744 
Q 697 4328 969 4595 
Q 1241 4863 1831 4863 
L 2375 4863 
z
" transform="scale(0.015625)"/>
       <path id="DejaVuSans-63" d="M 3122 3366 
L 3122 2828 
Q 2878 2963 2633 3030 
Q 2388 3097 2138 3097 
Q 1578 3097 1268 2742 
Q 959 2388 959 1747 
Q 959 1106 1268 751 
Q 1578 397 2138 397 
Q 2388 397 2633 464 
Q 2878 531 3122 666 
L 3122 134 
Q 2881 22 2623 -34 
Q 2366 -91 2075 -91 
Q 1284 -91 818 406 
Q 353 903 353 1747 
Q 353 2603 823 3093 
Q 1294 3584 2113 3584 
Q 2378 3584 2631 3529 
Q 2884 3475 3122 3366 
z
" transform="scale(0.015625)"/>
       <path id="DejaVuSans-73" d="M 2834 3397 
L 2834 2853 
Q 2591 2978 2328 3040 
Q 2066 3103 1784 3103 
Q 1356 3103 1142 2972 
Q 928 2841 928 2578 
Q 928 2378 1081 2264 
Q 1234 2150 1697 2047 
L 1894 2003 
Q 2506 1872 2764 1633 
Q 3022 1394 3022 966 
Q 3022 478 2636 193 
Q 2250 -91 1575 -91 
Q 1294 -91 989 -36 
Q 684 19 347 128 
L 347 722 
Q 666 556 975 473 
Q 1284 391 1588 391 
Q 1994 391 2212 530 
Q 2431 669 2431 922 
Q 2431 1156 2273 1281 
Q 2116 1406 1581 1522 
L 1381 1569 
Q 847 1681 609 1914 
Q 372 2147 372 2553 
Q 372 3047 722 3315 
Q 1072 3584 1716 3584 
Q 2034 3584 2315 3537 
Q 2597 3491 2834 3397 
z
" transform="scale(0.015625)"/>
       <path id="DejaVuSans-70" d="M 1159 525 
L 1159 -1331 
L 581 -1331 
L 581 3500 
L 1159 3500 
L 1159 2969 
Q 1341 3281 1617 3432 
Q 1894 3584 2278 3584 
Q 2916 3584 3314 3078 
Q 3713 2572 3713 1747 
Q 3713 922 3314 415 
Q 2916 -91 2278 -91 
Q 1894 -91 1617 61 
Q 1341 213 1159 525 
z
M 3116 1747 
Q 3116 2381 2855 2742 
Q 2594 3103 2138 3103 
Q 1681 3103 1420 2742 
Q 1159 2381 1159 1747 
Q 1159 1113 1420 752 
Q 1681 391 2138 391 
Q 2594 391 2855 752 
Q 3116 1113 3116 1747 
z
" transform="scale(0.015625)"/>
       <path id="DejaVuSans-6e" d="M 3513 2113 
L 3513 0 
L 2938 0 
L 2938 2094 
Q 2938 2591 2744 2837 
Q 2550 3084 2163 3084 
Q 1697 3084 1428 2787 
Q 1159 2491 1159 1978 
L 1159 0 
L 581 0 
L 581 3500 
L 1159 3500 
L 1159 2956 
Q 1366 3272 1645 3428 
Q 1925 3584 2291 3584 
Q 2894 3584 3203 3211 
Q 3513 2838 3513 2113 
z
" transform="scale(0.015625)"/>
      </defs>
      <use xlink:href="#DejaVuSans-50"/>
      <use xlink:href="#DejaVuSans-72" x="58.552734"/>
      <use xlink:href="#DejaVuSans-6f" x="97.416016"/>
      <use xlink:href="#DejaVuSans-62" x="158.597656"/>
      <use xlink:href="#DejaVuSans-61" x="222.074219"/>
      <use xlink:href="#DejaVuSans-62" x="283.353516"/>
      <use xlink:href="#DejaVuSans-69" x="346.830078"/>
      <use xlink:href="#DejaVuSans-6c" x="374.613281"/>
      <use xlink:href="#DejaVuSans-69" x="402.396484"/>
      <use xlink:href="#DejaVuSans-74" x="430.179688"/>
      <use xlink:href="#DejaVuSans-79" x="469.388672"/>
      <use xlink:href="#DejaVuSans-20" x="528.568359"/>
      <use xlink:href="#DejaVuSans-6f" x="560.355469"/>
      <use xlink:href="#DejaVuSans-66" x="621.537109"/>
      <use xlink:href="#DejaVuSans-20" x="656.742188"/>
      <use xlink:href="#DejaVuSans-63" x="688.529297"/>
      <use xlink:href="#DejaVuSans-6f" x="743.509766"/>
      <use xlink:href="#DejaVuSans-72" x="804.691406"/>
      <use xlink:href="#DejaVuSans-72" x="844.054688"/>
      <use xlink:href="#DejaVuSans-65" x="882.917969"/>
      <use xlink:href="#DejaVuSans-63" x="944.441406"/>
      <use xlink:href="#DejaVuSans-74" x="999.421875"/>
      <use xlink:href="#DejaVuSans-20" x="1038.630859"/>
      <use xlink:href="#DejaVuSans-72" x="1070.417969"/>
      <use xlink:href="#DejaVuSans-65" x="1109.28125"/>
      <use xlink:href="#DejaVuSans-73" x="1170.804688"/>
      <use xlink:href="#DejaVuSans-70" x="1222.904297"/>
      <use xlink:href="#DejaVuSans-6f" x="1286.380859"/>
      <use xlink:href="#DejaVuSans-6e" x="1347.5625"/>
      <use xlink:href="#DejaVuSans-73" x="1410.941406"/>
      <use xlink:href="#DejaVuSans-65" x="1463.041016"/>
     </g>
    </g>
   </g>
   <g id="PolyCollection_1">
    <defs>
     <path id="m99fc3984b3" d="M 99.075345 -133.368965 
L 81.49372 -133.368965 
L 81.27443 -133.984944 
L 81.053047 -134.600922 
L 80.828772 -135.216901 
L 80.600748 -135.83288 
L 80.368078 -136.448859 
L 80.129833 -137.064837 
L 79.885068 -137.680816 
L 79.632836 -138.296795 
L 79.372204 -138.912774 
L 79.102265 -139.528752 
L 78.82216 -140.144731 
L 78.531084 -140.76071 
L 78.228311 -141.376689 
L 77.913197 -141.992667 
L 77.585203 -142.608646 
L 77.243901 -143.224625 
L 76.888984 -143.840604 
L 76.520277 -144.456583 
L 76.137741 -145.072561 
L 75.741479 -145.68854 
L 75.331741 -146.304519 
L 74.908918 -146.920498 
L 74.473544 -147.536476 
L 74.026294 -148.152455 
L 73.567972 -148.768434 
L 73.099507 -149.384413 
L 72.621942 -150.000391 
L 72.136419 -150.61637 
L 71.644172 -151.232349 
L 71.146504 -151.848328 
L 70.644778 -152.464307 
L 70.140396 -153.080285 
L 69.634784 -153.696264 
L 69.129376 -154.312243 
L 68.625594 -154.928222 
L 68.124833 -155.5442 
L 67.628446 -156.160179 
L 67.137729 -156.776158 
L 66.653909 -157.392137 
L 66.178126 -158.008115 
L 65.711434 -158.624094 
L 65.254782 -159.240073 
L 64.809015 -159.856052 
L 64.374867 -160.47203 
L 63.952961 -161.088009 
L 63.543807 -161.703988 
L 63.147807 -162.319967 
L 62.765258 -162.935946 
L 62.396362 -163.551924 
L 62.041228 -164.167903 
L 61.699887 -164.783882 
L 61.3723 -165.399861 
L 61.058375 -166.015839 
L 60.757974 -166.631818 
L 60.470932 -167.247797 
L 60.197065 -167.863776 
L 59.936192 -168.479754 
L 59.688142 -169.095733 
L 59.452771 -169.711712 
L 59.22997 -170.327691 
L 59.019684 -170.943669 
L 58.821913 -171.559648 
L 58.636729 -172.175627 
L 58.464277 -172.791606 
L 58.304785 -173.407585 
L 58.158563 -174.023563 
L 58.026009 -174.639542 
L 57.907607 -175.255521 
L 57.803927 -175.8715 
L 57.715617 -176.487478 
L 57.643403 -177.103457 
L 57.588077 -177.719436 
L 57.55049 -178.335415 
L 57.531545 -178.951393 
L 57.532182 -179.567372 
L 57.553365 -180.183351 
L 57.596072 -180.79933 
L 57.66128 -181.415308 
L 57.749949 -182.031287 
L 57.86301 -182.647266 
L 58.001349 -183.263245 
L 58.165792 -183.879224 
L 58.357092 -184.495202 
L 58.575917 -185.111181 
L 58.822833 -185.72716 
L 59.098296 -186.343139 
L 59.402641 -186.959117 
L 59.736071 -187.575096 
L 60.098649 -188.191075 
L 60.490292 -188.807054 
L 60.910765 -189.423032 
L 61.35968 -190.039011 
L 61.83649 -190.65499 
L 62.340491 -191.270969 
L 62.870822 -191.886947 
L 63.426472 -192.502926 
L 64.006277 -193.118905 
L 64.608935 -193.734884 
L 65.233006 -194.350863 
L 115.336059 -194.350863 
L 115.336059 -194.350863 
L 115.96013 -193.734884 
L 116.562788 -193.118905 
L 117.142593 -192.502926 
L 117.698243 -191.886947 
L 118.228574 -191.270969 
L 118.732575 -190.65499 
L 119.209385 -190.039011 
L 119.6583 -189.423032 
L 120.078773 -188.807054 
L 120.470416 -188.191075 
L 120.832994 -187.575096 
L 121.166424 -186.959117 
L 121.470769 -186.343139 
L 121.746232 -185.72716 
L 121.993148 -185.111181 
L 122.211973 -184.495202 
L 122.403273 -183.879224 
L 122.567716 -183.263245 
L 122.706055 -182.647266 
L 122.819116 -182.031287 
L 122.907785 -181.415308 
L 122.972993 -180.79933 
L 123.0157 -180.183351 
L 123.036883 -179.567372 
L 123.037519 -178.951393 
L 123.018575 -178.335415 
L 122.980988 -177.719436 
L 122.925662 -177.103457 
L 122.853447 -176.487478 
L 122.765138 -175.8715 
L 122.661458 -175.255521 
L 122.543056 -174.639542 
L 122.410502 -174.023563 
L 122.26428 -173.407585 
L 122.104787 -172.791606 
L 121.932336 -172.175627 
L 121.747152 -171.559648 
L 121.549381 -170.943669 
L 121.339095 -170.327691 
L 121.116294 -169.711712 
L 120.880923 -169.095733 
L 120.632873 -168.479754 
L 120.372 -167.863776 
L 120.098133 -167.247797 
L 119.811091 -166.631818 
L 119.51069 -166.015839 
L 119.196765 -165.399861 
L 118.869178 -164.783882 
L 118.527837 -164.167903 
L 118.172703 -163.551924 
L 117.803806 -162.935946 
L 117.421258 -162.319967 
L 117.025258 -161.703988 
L 116.616104 -161.088009 
L 116.194198 -160.47203 
L 115.76005 -159.856052 
L 115.314283 -159.240073 
L 114.857631 -158.624094 
L 114.390938 -158.008115 
L 113.915156 -157.392137 
L 113.431336 -156.776158 
L 112.940619 -156.160179 
L 112.444232 -155.5442 
L 111.943471 -154.928222 
L 111.439689 -154.312243 
L 110.934281 -153.696264 
L 110.428669 -153.080285 
L 109.924287 -152.464307 
L 109.422561 -151.848328 
L 108.924893 -151.232349 
L 108.432646 -150.61637 
L 107.947123 -150.000391 
L 107.469558 -149.384413 
L 107.001093 -148.768434 
L 106.542771 -148.152455 
L 106.095521 -147.536476 
L 105.660147 -146.920498 
L 105.237324 -146.304519 
L 104.827586 -145.68854 
L 104.431324 -145.072561 
L 104.048788 -144.456583 
L 103.680081 -143.840604 
L 103.325164 -143.224625 
L 102.983861 -142.608646 
L 102.655868 -141.992667 
L 102.340754 -141.376689 
L 102.037981 -140.76071 
L 101.746905 -140.144731 
L 101.4668 -139.528752 
L 101.196861 -138.912774 
L 100.936229 -138.296795 
L 100.683997 -137.680816 
L 100.439232 -137.064837 
L 100.200987 -136.448859 
L 99.968317 -135.83288 
L 99.740293 -135.216901 
L 99.516018 -134.600922 
L 99.294635 -133.984944 
L 99.075345 -133.368965 
z
" style="stroke: #2f2f2f"/>
    </defs>
    <g clip-path="url(#p1db0fcbc5f)">
     <use xlink:href="#m99fc3984b3" x="0" y="288" style="fill: #58b2a3; stroke: #2f2f2f"/>
    </g>
   </g>
   <g id="PolyCollection_2">
    <defs>
     <path id="me90adc3914" d="M 187.377664 -146.387954 
L 156.956336 -146.387954 
L 156.593717 -146.901965 
L 156.239232 -147.415976 
L 155.893362 -147.929987 
L 155.556528 -148.443998 
L 155.229098 -148.958008 
L 154.911375 -149.472019 
L 154.603604 -149.98603 
L 154.305969 -150.500041 
L 154.018591 -151.014052 
L 153.741532 -151.528063 
L 153.47479 -152.042074 
L 153.218308 -152.556085 
L 152.971969 -153.070095 
L 152.735598 -153.584106 
L 152.508969 -154.098117 
L 152.2918 -154.612128 
L 152.083764 -155.126139 
L 151.88448 -155.64015 
L 151.693528 -156.154161 
L 151.51044 -156.668172 
L 151.334714 -157.182182 
L 151.165805 -157.696193 
L 151.003138 -158.210204 
L 150.846105 -158.724215 
L 150.694069 -159.238226 
L 150.546366 -159.752237 
L 150.402312 -160.266248 
L 150.261201 -160.780259 
L 150.122311 -161.29427 
L 149.984907 -161.80828 
L 149.848242 -162.322291 
L 149.711564 -162.836302 
L 149.57412 -163.350313 
L 149.435155 -163.864324 
L 149.293924 -164.378335 
L 149.149689 -164.892346 
L 149.001729 -165.406357 
L 148.849344 -165.920367 
L 148.691859 -166.434378 
L 148.528633 -166.948389 
L 148.359062 -167.4624 
L 148.182586 -167.976411 
L 147.998696 -168.490422 
L 147.806943 -169.004433 
L 147.60694 -169.518444 
L 147.398371 -170.032454 
L 147.181 -170.546465 
L 146.954672 -171.060476 
L 146.719326 -171.574487 
L 146.474994 -172.088498 
L 146.221812 -172.602509 
L 145.960022 -173.11652 
L 145.689978 -173.630531 
L 145.412145 -174.144541 
L 145.127107 -174.658552 
L 144.835566 -175.172563 
L 144.538344 -175.686574 
L 144.23638 -176.200585 
L 143.930728 -176.714596 
L 143.622561 -177.228607 
L 143.313156 -177.742618 
L 143.003898 -178.256628 
L 142.696269 -178.770639 
L 142.391841 -179.28465 
L 142.092267 -179.798661 
L 141.799271 -180.312672 
L 141.514637 -180.826683 
L 141.240198 -181.340694 
L 140.977821 -181.854705 
L 140.729395 -182.368716 
L 140.496816 -182.882726 
L 140.281972 -183.396737 
L 140.08673 -183.910748 
L 139.912919 -184.424759 
L 139.762314 -184.93877 
L 139.636624 -185.452781 
L 139.537475 -185.966792 
L 139.466398 -186.480803 
L 139.424811 -186.994813 
L 139.414013 -187.508824 
L 139.435166 -188.022835 
L 139.489289 -188.536846 
L 139.577244 -189.050857 
L 139.699733 -189.564868 
L 139.857285 -190.078879 
L 140.050256 -190.59289 
L 140.278821 -191.1069 
L 140.542975 -191.620911 
L 140.842529 -192.134922 
L 141.177113 -192.648933 
L 141.546174 -193.162944 
L 141.948987 -193.676955 
L 142.384652 -194.190966 
L 142.852107 -194.704977 
L 143.350131 -195.218987 
L 143.877355 -195.732998 
L 144.432273 -196.247009 
L 145.013252 -196.76102 
L 145.618543 -197.275031 
L 198.715457 -197.275031 
L 198.715457 -197.275031 
L 199.320748 -196.76102 
L 199.901727 -196.247009 
L 200.456645 -195.732998 
L 200.983869 -195.218987 
L 201.481893 -194.704977 
L 201.949348 -194.190966 
L 202.385013 -193.676955 
L 202.787826 -193.162944 
L 203.156887 -192.648933 
L 203.491471 -192.134922 
L 203.791025 -191.620911 
L 204.055179 -191.1069 
L 204.283744 -190.59289 
L 204.476715 -190.078879 
L 204.634267 -189.564868 
L 204.756756 -189.050857 
L 204.844711 -188.536846 
L 204.898834 -188.022835 
L 204.919987 -187.508824 
L 204.909189 -186.994813 
L 204.867602 -186.480803 
L 204.796525 -185.966792 
L 204.697376 -185.452781 
L 204.571686 -184.93877 
L 204.421081 -184.424759 
L 204.24727 -183.910748 
L 204.052028 -183.396737 
L 203.837184 -182.882726 
L 203.604605 -182.368716 
L 203.356179 -181.854705 
L 203.093802 -181.340694 
L 202.819363 -180.826683 
L 202.534729 -180.312672 
L 202.241733 -179.798661 
L 201.942159 -179.28465 
L 201.637731 -178.770639 
L 201.330102 -178.256628 
L 201.020844 -177.742618 
L 200.711439 -177.228607 
L 200.403272 -176.714596 
L 200.09762 -176.200585 
L 199.795656 -175.686574 
L 199.498434 -175.172563 
L 199.206893 -174.658552 
L 198.921855 -174.144541 
L 198.644022 -173.630531 
L 198.373978 -173.11652 
L 198.112188 -172.602509 
L 197.859006 -172.088498 
L 197.614674 -171.574487 
L 197.379328 -171.060476 
L 197.153 -170.546465 
L 196.935629 -170.032454 
L 196.72706 -169.518444 
L 196.527057 -169.004433 
L 196.335304 -168.490422 
L 196.151414 -167.976411 
L 195.974938 -167.4624 
L 195.805367 -166.948389 
L 195.642141 -166.434378 
L 195.484656 -165.920367 
L 195.332271 -165.406357 
L 195.184311 -164.892346 
L 195.040076 -164.378335 
L 194.898845 -163.864324 
L 194.75988 -163.350313 
L 194.622436 -162.836302 
L 194.485758 -162.322291 
L 194.349093 -161.80828 
L 194.211689 -161.29427 
L 194.072799 -160.780259 
L 193.931688 -160.266248 
L 193.787634 -159.752237 
L 193.639931 -159.238226 
L 193.487895 -158.724215 
L 193.330862 -158.210204 
L 193.168195 -157.696193 
L 192.999286 -157.182182 
L 192.82356 -156.668172 
L 192.640472 -156.154161 
L 192.44952 -155.64015 
L 192.250236 -155.126139 
L 192.0422 -154.612128 
L 191.825031 -154.098117 
L 191.598402 -153.584106 
L 191.362031 -153.070095 
L 191.115692 -152.556085 
L 190.85921 -152.042074 
L 190.592468 -151.528063 
L 190.315409 -151.014052 
L 190.028031 -150.500041 
L 189.730396 -149.98603 
L 189.422625 -149.472019 
L 189.104902 -148.958008 
L 188.777472 -148.443998 
L 188.440638 -147.929987 
L 188.094768 -147.415976 
L 187.740283 -146.901965 
L 187.377664 -146.387954 
z
" style="stroke: #2f2f2f"/>
    </defs>
    <g clip-path="url(#p1db0fcbc5f)">
     <use xlink:href="#me90adc3914" x="0" y="288" style="fill: #437695; stroke: #2f2f2f"/>
    </g>
   </g>
   <g id="PolyCollection_3">
    <defs>
     <path id="mf90d885998" d="M 276.950658 -156.285165 
L 231.148277 -156.285165 
L 230.769464 -156.815652 
L 230.411387 -157.346139 
L 230.073886 -157.876625 
L 229.756616 -158.407112 
L 229.459055 -158.937599 
L 229.180503 -159.468086 
L 228.920103 -159.998573 
L 228.676844 -160.52906 
L 228.449578 -161.059547 
L 228.237037 -161.590034 
L 228.03785 -162.120521 
L 227.850559 -162.651008 
L 227.673644 -163.181495 
L 227.505542 -163.711982 
L 227.344667 -164.242469 
L 227.189435 -164.772956 
L 227.038282 -165.303443 
L 226.889691 -165.83393 
L 226.74221 -166.364417 
L 226.594473 -166.894903 
L 226.445218 -167.42539 
L 226.293306 -167.955877 
L 226.137736 -168.486364 
L 225.977659 -169.016851 
L 225.812393 -169.547338 
L 225.641426 -170.077825 
L 225.464427 -170.608312 
L 225.281255 -171.138799 
L 225.09195 -171.669286 
L 224.896745 -172.199773 
L 224.696053 -172.73026 
L 224.49047 -173.260747 
L 224.280759 -173.791234 
L 224.067846 -174.321721 
L 223.852808 -174.852208 
L 223.636854 -175.382695 
L 223.421316 -175.913182 
L 223.207628 -176.443668 
L 222.997308 -176.974155 
L 222.791942 -177.504642 
L 222.593162 -178.035129 
L 222.402627 -178.565616 
L 222.222006 -179.096103 
L 222.052953 -179.62659 
L 221.897092 -180.157077 
L 221.755999 -180.687564 
L 221.631181 -181.218051 
L 221.524067 -181.748538 
L 221.435985 -182.279025 
L 221.368153 -182.809512 
L 221.321671 -183.339999 
L 221.297504 -183.870486 
L 221.296481 -184.400973 
L 221.319282 -184.93146 
L 221.366443 -185.461946 
L 221.438347 -185.992433 
L 221.535224 -186.52292 
L 221.657159 -187.053407 
L 221.804086 -187.583894 
L 221.975801 -188.114381 
L 222.171965 -188.644868 
L 222.39211 -189.175355 
L 222.635651 -189.705842 
L 222.901896 -190.236329 
L 223.190052 -190.766816 
L 223.499243 -191.297303 
L 223.828517 -191.82779 
L 224.176858 -192.358277 
L 224.543202 -192.888764 
L 224.926446 -193.419251 
L 225.325457 -193.949738 
L 225.739092 -194.480225 
L 226.166199 -195.010711 
L 226.605633 -195.541198 
L 227.056264 -196.071685 
L 227.516986 -196.602172 
L 227.986721 -197.132659 
L 228.464433 -197.663146 
L 228.949124 -198.193633 
L 229.439847 -198.72412 
L 229.935705 -199.254607 
L 230.435852 -199.785094 
L 230.939499 -200.315581 
L 231.44591 -200.846068 
L 231.954406 -201.376555 
L 232.464359 -201.907042 
L 232.975191 -202.437529 
L 233.486375 -202.968016 
L 233.997426 -203.498503 
L 234.507902 -204.028989 
L 235.017398 -204.559476 
L 235.52554 -205.089963 
L 236.031981 -205.62045 
L 236.536401 -206.150937 
L 237.038495 -206.681424 
L 237.537973 -207.211911 
L 238.034556 -207.742398 
L 238.527968 -208.272885 
L 239.017939 -208.803372 
L 269.080996 -208.803372 
L 269.080996 -208.803372 
L 269.570967 -208.272885 
L 270.064379 -207.742398 
L 270.560962 -207.211911 
L 271.06044 -206.681424 
L 271.562534 -206.150937 
L 272.066954 -205.62045 
L 272.573395 -205.089963 
L 273.081537 -204.559476 
L 273.591033 -204.028989 
L 274.101509 -203.498503 
L 274.61256 -202.968016 
L 275.123744 -202.437529 
L 275.634577 -201.907042 
L 276.144529 -201.376555 
L 276.653025 -200.846068 
L 277.159437 -200.315581 
L 277.663083 -199.785094 
L 278.16323 -199.254607 
L 278.659088 -198.72412 
L 279.149811 -198.193633 
L 279.634502 -197.663146 
L 280.112214 -197.132659 
L 280.581949 -196.602172 
L 281.042671 -196.071685 
L 281.493302 -195.541198 
L 281.932736 -195.010711 
L 282.359843 -194.480225 
L 282.773478 -193.949738 
L 283.172489 -193.419251 
L 283.555733 -192.888764 
L 283.922077 -192.358277 
L 284.270418 -191.82779 
L 284.599692 -191.297303 
L 284.908883 -190.766816 
L 285.197039 -190.236329 
L 285.463284 -189.705842 
L 285.706825 -189.175355 
L 285.92697 -188.644868 
L 286.123134 -188.114381 
L 286.294849 -187.583894 
L 286.441776 -187.053407 
L 286.563711 -186.52292 
L 286.660588 -185.992433 
L 286.732492 -185.461946 
L 286.779653 -184.93146 
L 286.802455 -184.400973 
L 286.801431 -183.870486 
L 286.777264 -183.339999 
L 286.730782 -182.809512 
L 286.662951 -182.279025 
L 286.574868 -181.748538 
L 286.467754 -181.218051 
L 286.342937 -180.687564 
L 286.201843 -180.157077 
L 286.045982 -179.62659 
L 285.876929 -179.096103 
L 285.696308 -178.565616 
L 285.505773 -178.035129 
L 285.306993 -177.504642 
L 285.101627 -176.974155 
L 284.891307 -176.443668 
L 284.677619 -175.913182 
L 284.462081 -175.382695 
L 284.246127 -174.852208 
L 284.031089 -174.321721 
L 283.818177 -173.791234 
L 283.608465 -173.260747 
L 283.402882 -172.73026 
L 283.20219 -172.199773 
L 283.006985 -171.669286 
L 282.817681 -171.138799 
L 282.634508 -170.608312 
L 282.45751 -170.077825 
L 282.286542 -169.547338 
L 282.121276 -169.016851 
L 281.9612 -168.486364 
L 281.80563 -167.955877 
L 281.653717 -167.42539 
L 281.504462 -166.894903 
L 281.356725 -166.364417 
L 281.209244 -165.83393 
L 281.060653 -165.303443 
L 280.909501 -164.772956 
L 280.754268 -164.242469 
L 280.593393 -163.711982 
L 280.425291 -163.181495 
L 280.248376 -162.651008 
L 280.061086 -162.120521 
L 279.861898 -161.590034 
L 279.649357 -161.059547 
L 279.422091 -160.52906 
L 279.178832 -159.998573 
L 278.918432 -159.468086 
L 278.639881 -158.937599 
L 278.342319 -158.407112 
L 278.025049 -157.876625 
L 277.687548 -157.346139 
L 277.329471 -156.815652 
L 276.950658 -156.285165 
z
" style="stroke: #2f2f2f"/>
    </defs>
    <g clip-path="url(#p1db0fcbc5f)">
     <use xlink:href="#mf90d885998" x="0" y="288" style="fill: #423b63; stroke: #2f2f2f"/>
    </g>
   </g>
   <g id="line2d_11">
    <path d="M 90.284532 154.631035 
L 90.284532 93.649137 
" clip-path="url(#p1db0fcbc5f)" style="fill: none; stroke: #2f2f2f; stroke-width: 1.5; stroke-linecap: round"/>
   </g>
   <g id="line2d_12">
    <path d="M 90.284532 127.857608 
L 90.284532 104.2815 
" clip-path="url(#p1db0fcbc5f)" style="fill: none; stroke: #2f2f2f; stroke-width: 4.5; stroke-linecap: round"/>
   </g>
   <g id="line2d_13">
    <path d="M 90.284532 112.45446 
" clip-path="url(#p1db0fcbc5f)" style="fill: none; stroke: #2f2f2f; stroke-width: 1.2; stroke-linecap: round"/>
    <defs>
     <path id="m23cae9b016" d="M 1.875 0 
L -1.875 -0 
" style="stroke: #ffffff; stroke-width: 0.9"/>
    </defs>
    <g clip-path="url(#p1db0fcbc5f)">
     <use xlink:href="#m23cae9b016" x="90.284532" y="112.45446" style="fill: #ffffff; stroke: #ffffff; stroke-width: 0.9"/>
    </g>
   </g>
   <g id="line2d_14">
    <path d="M 172.167 141.612046 
L 172.167 90.724969 
" clip-path="url(#p1db0fcbc5f)" style="fill: none; stroke: #2f2f2f; stroke-width: 1.5; stroke-linecap: round"/>
   </g>
   <g id="line2d_15">
    <path d="M 172.167 123.565382 
L 172.167 100.084575 
" clip-path="url(#p1db0fcbc5f)" style="fill: none; stroke: #2f2f2f; stroke-width: 4.5; stroke-linecap: round"/>
   </g>
   <g id="line2d_16">
    <path d="M 172.167 104.502391 
" clip-path="url(#p1db0fcbc5f)" style="fill: none; stroke: #2f2f2f; stroke-width: 1.2; stroke-linecap: round"/>
    <g clip-path="url(#p1db0fcbc5f)">
     <use xlink:href="#m23cae9b016" x="172.167" y="104.502391" style="fill: #ffffff; stroke: #ffffff; stroke-width: 0.9"/>
    </g>
   </g>
   <g id="line2d_17">
    <path d="M 254.049468 131.714835 
L 254.049468 79.196628 
" clip-path="url(#p1db0fcbc5f)" style="fill: none; stroke: #2f2f2f; stroke-width: 1.5; stroke-linecap: round"/>
   </g>
   <g id="line2d_18">
    <path d="M 254.049468 126.008502 
L 254.049468 98.271904 
" clip-path="url(#p1db0fcbc5f)" style="fill: none; stroke: #2f2f2f; stroke-width: 4.5; stroke-linecap: round"/>
   </g>
   <g id="line2d_19">
    <path d="M 254.049468 106.075133 
" clip-path="url(#p1db0fcbc5f)" style="fill: none; stroke: #2f2f2f; stroke-width: 1.2; stroke-linecap: round"/>
    <g clip-path="url(#p1db0fcbc5f)">
     <use xlink:href="#m23cae9b016" x="254.049468" y="106.075133" style="fill: #ffffff; stroke: #ffffff; stroke-width: 0.9"/>
    </g>
   </g>
   <g id="line2d_20">
    <path d="M 90.284532 75.609361 
L 90.284532 67.045412 
L 172.167 67.045412 
L 172.167 75.609361 
" clip-path="url(#p1db0fcbc5f)" style="fill: none; stroke: #000000; stroke-linecap: round"/>
   </g>
   <g id="line2d_21">
    <path d="M 172.167 61.260295 
L 172.167 52.337619 
L 254.049468 52.337619 
L 254.049468 61.260295 
" clip-path="url(#p1db0fcbc5f)" style="fill: none; stroke: #000000; stroke-linecap: round"/>
   </g>
   <g id="line2d_22">
    <path d="M 90.284532 46.911228 
L 90.284532 37.629825 
L 254.049468 37.629825 
L 254.049468 46.911228 
" clip-path="url(#p1db0fcbc5f)" style="fill: none; stroke: #000000; stroke-linecap: round"/>
   </g>
   <g id="patch_3">
    <path d="M 46.068 238.804 
L 46.068 23.568 
" style="fill: none; stroke: #262626; stroke-linejoin: miter; stroke-linecap: square"/>
   </g>
   <g id="patch_4">
    <path d="M 298.266 238.804 
L 298.266 23.568 
" style="fill: none; stroke: #262626; stroke-linejoin: miter; stroke-linecap: square"/>
   </g>
   <g id="patch_5">
    <path d="M 46.068 238.804 
L 298.266 238.804 
" style="fill: none; stroke: #262626; stroke-linejoin: miter; stroke-linecap: square"/>
   </g>
   <g id="patch_6">
    <path d="M 46.068 23.568 
L 298.266 23.568 
" style="fill: none; stroke: #262626; stroke-linejoin: miter; stroke-linecap: square"/>
   </g>
   <g id="text_12">
    <!-- ns -->
    <g transform="translate(125.683266 65.048912) scale(0.096 -0.096)">
     <use xlink:href="#DejaVuSans-6e"/>
     <use xlink:href="#DejaVuSans-73" x="63.378906"/>
    </g>
   </g>
   <g id="text_13">
    <!-- ns -->
    <g transform="translate(207.565734 50.341119) scale(0.096 -0.096)">
     <use xlink:href="#DejaVuSans-6e"/>
     <use xlink:href="#DejaVuSans-73" x="63.378906"/>
    </g>
   </g>
   <g id="text_14">
    <!-- ns -->
    <g transform="translate(166.6245 35.633325) scale(0.096 -0.096)">
     <use xlink:href="#DejaVuSans-6e"/>
     <use xlink:href="#DejaVuSans-73" x="63.378906"/>
    </g>
   </g>
   <g id="text_15">
    <!-- Accuracy -->
    <g style="fill: #262626" transform="translate(150.252 17.568) scale(0.096 -0.096)">
     <defs>
      <path id="DejaVuSans-41" d="M 2188 4044 
L 1331 1722 
L 3047 1722 
L 2188 4044 
z
M 1831 4666 
L 2547 4666 
L 4325 0 
L 3669 0 
L 3244 1197 
L 1141 1197 
L 716 0 
L 50 0 
L 1831 4666 
z
" transform="scale(0.015625)"/>
     </defs>
     <use xlink:href="#DejaVuSans-41"/>
     <use xlink:href="#DejaVuSans-63" x="66.658203"/>
     <use xlink:href="#DejaVuSans-63" x="121.638672"/>
     <use xlink:href="#DejaVuSans-75" x="176.619141"/>
     <use xlink:href="#DejaVuSans-72" x="239.998047"/>
     <use xlink:href="#DejaVuSans-61" x="281.111328"/>
     <use xlink:href="#DejaVuSans-63" x="342.390625"/>
     <use xlink:href="#DejaVuSans-79" x="397.371094"/>
    </g>
   </g>
  </g>
  <g id="axes_2">
   <g id="patch_7">
    <path d="M 313.434 238.804 
L 565.632 238.804 
L 565.632 23.568 
L 313.434 23.568 
L 313.434 238.804 
z
" style="fill: none"/>
   </g>
   <g id="matplotlib.axis_3">
    <g id="xtick_4">
     <g id="line2d_23">
      <g>
       <use xlink:href="#m0430732a87" x="357.650532" y="238.804" style="fill: #262626; stroke: #262626"/>
      </g>
     </g>
     <g id="text_16">
      <!-- Low -->
      <g style="fill: #262626" transform="translate(348.985282 253.790625) scale(0.088 -0.088)">
       <use xlink:href="#DejaVuSans-4c"/>
       <use xlink:href="#DejaVuSans-6f" x="53.962891"/>
       <use xlink:href="#DejaVuSans-77" x="115.144531"/>
      </g>
     </g>
    </g>
    <g id="xtick_5">
     <g id="line2d_24">
      <g>
       <use xlink:href="#m0430732a87" x="439.533" y="238.804" style="fill: #262626; stroke: #262626"/>
      </g>
     </g>
     <g id="text_17">
      <!-- Medium -->
      <g style="fill: #262626" transform="translate(421.939188 253.790625) scale(0.088 -0.088)">
       <use xlink:href="#DejaVuSans-4d"/>
       <use xlink:href="#DejaVuSans-65" x="86.279297"/>
       <use xlink:href="#DejaVuSans-64" x="147.802734"/>
       <use xlink:href="#DejaVuSans-69" x="211.279297"/>
       <use xlink:href="#DejaVuSans-75" x="239.0625"/>
       <use xlink:href="#DejaVuSans-6d" x="302.441406"/>
      </g>
     </g>
    </g>
    <g id="xtick_6">
     <g id="line2d_25">
      <g>
       <use xlink:href="#m0430732a87" x="521.415468" y="238.804" style="fill: #262626; stroke: #262626"/>
      </g>
     </g>
     <g id="text_18">
      <!-- High -->
      <g style="fill: #262626" transform="translate(511.302343 253.790625) scale(0.088 -0.088)">
       <use xlink:href="#DejaVuSans-48"/>
       <use xlink:href="#DejaVuSans-69" x="75.195312"/>
       <use xlink:href="#DejaVuSans-67" x="102.978516"/>
       <use xlink:href="#DejaVuSans-68" x="166.455078"/>
      </g>
     </g>
    </g>
   </g>
   <g id="matplotlib.axis_4">
    <g id="ytick_8">
     <g id="line2d_26">
      <g>
       <use xlink:href="#m7bb4725e63" x="313.434" y="238.804" style="fill: #262626; stroke: #262626"/>
      </g>
     </g>
    </g>
    <g id="ytick_9">
     <g id="line2d_27">
      <g>
       <use xlink:href="#m7bb4725e63" x="313.434" y="202.931333" style="fill: #262626; stroke: #262626"/>
      </g>
     </g>
    </g>
    <g id="ytick_10">
     <g id="line2d_28">
      <g>
       <use xlink:href="#m7bb4725e63" x="313.434" y="167.058667" style="fill: #262626; stroke: #262626"/>
      </g>
     </g>
    </g>
    <g id="ytick_11">
     <g id="line2d_29">
      <g>
       <use xlink:href="#m7bb4725e63" x="313.434" y="131.186" style="fill: #262626; stroke: #262626"/>
      </g>
     </g>
    </g>
    <g id="ytick_12">
     <g id="line2d_30">
      <g>
       <use xlink:href="#m7bb4725e63" x="313.434" y="95.313333" style="fill: #262626; stroke: #262626"/>
      </g>
     </g>
    </g>
    <g id="ytick_13">
     <g id="line2d_31">
      <g>
       <use xlink:href="#m7bb4725e63" x="313.434" y="59.440667" style="fill: #262626; stroke: #262626"/>
      </g>
     </g>
    </g>
    <g id="ytick_14">
     <g id="line2d_32">
      <g>
       <use xlink:href="#m7bb4725e63" x="313.434" y="23.568" style="fill: #262626; stroke: #262626"/>
      </g>
     </g>
    </g>
   </g>
   <g id="PolyCollection_4">
    <defs>
     <path id="m519c3d1a3f" d="M 379.316404 -95.731071 
L 335.984661 -95.731071 
L 335.387931 -96.582205 
L 334.802141 -97.433338 
L 334.228377 -98.284471 
L 333.66765 -99.135604 
L 333.120892 -99.986738 
L 332.58895 -100.837871 
L 332.072583 -101.689004 
L 331.572464 -102.540137 
L 331.089177 -103.39127 
L 330.62322 -104.242404 
L 330.175007 -105.093537 
L 329.744869 -105.94467 
L 329.333061 -106.795803 
L 328.939766 -107.646937 
L 328.565102 -108.49807 
L 328.209128 -109.349203 
L 327.87185 -110.200336 
L 327.553232 -111.05147 
L 327.253203 -111.902603 
L 326.971663 -112.753736 
L 326.708493 -113.604869 
L 326.463564 -114.456003 
L 326.236743 -115.307136 
L 326.027898 -116.158269 
L 325.83691 -117.009402 
L 325.663673 -117.860535 
L 325.508103 -118.711669 
L 325.370135 -119.562802 
L 325.249736 -120.413935 
L 325.146895 -121.265068 
L 325.06163 -122.116202 
L 324.993986 -122.967335 
L 324.944029 -123.818468 
L 324.911848 -124.669601 
L 324.897545 -125.520735 
L 324.901233 -126.371868 
L 324.923026 -127.223001 
L 324.963035 -128.074134 
L 325.021357 -128.925267 
L 325.09807 -129.776401 
L 325.193219 -130.627534 
L 325.306813 -131.478667 
L 325.438809 -132.3298 
L 325.589111 -133.180934 
L 325.757558 -134.032067 
L 325.943915 -134.8832 
L 326.14787 -135.734333 
L 326.369026 -136.585467 
L 326.606899 -137.4366 
L 326.860913 -138.287733 
L 327.1304 -139.138866 
L 327.414597 -139.99 
L 327.712651 -140.841133 
L 328.023622 -141.692266 
L 328.346487 -142.543399 
L 328.680144 -143.394532 
L 329.023423 -144.245666 
L 329.375097 -145.096799 
L 329.733888 -145.947932 
L 330.098482 -146.799065 
L 330.46754 -147.650199 
L 330.839716 -148.501332 
L 331.213666 -149.352465 
L 331.588065 -150.203598 
L 331.961622 -151.054732 
L 332.333097 -151.905865 
L 332.70131 -152.756998 
L 333.065161 -153.608131 
L 333.423638 -154.459265 
L 333.775834 -155.310398 
L 334.120953 -156.161531 
L 334.458323 -157.012664 
L 334.787403 -157.863797 
L 335.107787 -158.714931 
L 335.419211 -159.566064 
L 335.721556 -160.417197 
L 336.014844 -161.26833 
L 336.299243 -162.119464 
L 336.575056 -162.970597 
L 336.842722 -163.82173 
L 337.102804 -164.672863 
L 337.355983 -165.523997 
L 337.603046 -166.37513 
L 337.844875 -167.226263 
L 338.082429 -168.077396 
L 338.316739 -168.928529 
L 338.548881 -169.779663 
L 338.779971 -170.630796 
L 339.01114 -171.481929 
L 339.243524 -172.333062 
L 339.478245 -173.184196 
L 339.716393 -174.035329 
L 339.959017 -174.886462 
L 340.207105 -175.737595 
L 340.46157 -176.588729 
L 340.723243 -177.439862 
L 340.992858 -178.290995 
L 341.271043 -179.142128 
L 341.558315 -179.993262 
L 373.74275 -179.993262 
L 373.74275 -179.993262 
L 374.030022 -179.142128 
L 374.308207 -178.290995 
L 374.577822 -177.439862 
L 374.839495 -176.588729 
L 375.09396 -175.737595 
L 375.342047 -174.886462 
L 375.584672 -174.035329 
L 375.82282 -173.184196 
L 376.057541 -172.333062 
L 376.289925 -171.481929 
L 376.521094 -170.630796 
L 376.752184 -169.779663 
L 376.984326 -168.928529 
L 377.218635 -168.077396 
L 377.45619 -167.226263 
L 377.698019 -166.37513 
L 377.945082 -165.523997 
L 378.198261 -164.672863 
L 378.458343 -163.82173 
L 378.726009 -162.970597 
L 379.001822 -162.119464 
L 379.28622 -161.26833 
L 379.579509 -160.417197 
L 379.881854 -159.566064 
L 380.193278 -158.714931 
L 380.513662 -157.863797 
L 380.842741 -157.012664 
L 381.180112 -156.161531 
L 381.525231 -155.310398 
L 381.877426 -154.459265 
L 382.235904 -153.608131 
L 382.599755 -152.756998 
L 382.967968 -151.905865 
L 383.339443 -151.054732 
L 383.713 -150.203598 
L 384.087399 -149.352465 
L 384.461349 -148.501332 
L 384.833525 -147.650199 
L 385.202583 -146.799065 
L 385.567177 -145.947932 
L 385.925968 -145.096799 
L 386.277642 -144.245666 
L 386.620921 -143.394532 
L 386.954578 -142.543399 
L 387.277442 -141.692266 
L 387.588414 -140.841133 
L 387.886468 -139.99 
L 388.170665 -139.138866 
L 388.440151 -138.287733 
L 388.694166 -137.4366 
L 388.932039 -136.585467 
L 389.153195 -135.734333 
L 389.35715 -134.8832 
L 389.543507 -134.032067 
L 389.711954 -133.180934 
L 389.862256 -132.3298 
L 389.994252 -131.478667 
L 390.107846 -130.627534 
L 390.202995 -129.776401 
L 390.279708 -128.925267 
L 390.33803 -128.074134 
L 390.378039 -127.223001 
L 390.399832 -126.371868 
L 390.403519 -125.520735 
L 390.389217 -124.669601 
L 390.357036 -123.818468 
L 390.307079 -122.967335 
L 390.239435 -122.116202 
L 390.15417 -121.265068 
L 390.051329 -120.413935 
L 389.93093 -119.562802 
L 389.792962 -118.711669 
L 389.637392 -117.860535 
L 389.464155 -117.009402 
L 389.273167 -116.158269 
L 389.064322 -115.307136 
L 388.837501 -114.456003 
L 388.592572 -113.604869 
L 388.329402 -112.753736 
L 388.047862 -111.902603 
L 387.747833 -111.05147 
L 387.429215 -110.200336 
L 387.091937 -109.349203 
L 386.735963 -108.49807 
L 386.361299 -107.646937 
L 385.968004 -106.795803 
L 385.556196 -105.94467 
L 385.126058 -105.093537 
L 384.677845 -104.242404 
L 384.211888 -103.39127 
L 383.728601 -102.540137 
L 383.228482 -101.689004 
L 382.712115 -100.837871 
L 382.180173 -99.986738 
L 381.633415 -99.135604 
L 381.072688 -98.284471 
L 380.498924 -97.433338 
L 379.913134 -96.582205 
L 379.316404 -95.731071 
z
" style="stroke: #2f2f2f"/>
    </defs>
    <g clip-path="url(#p449a01369e)">
     <use xlink:href="#m519c3d1a3f" x="0" y="288" style="fill: #58b2a3; stroke: #2f2f2f"/>
    </g>
   </g>
   <g id="PolyCollection_5">
    <defs>
     <path id="m57ece19427" d="M 448.807538 -83.080761 
L 430.258462 -83.080761 
L 429.953069 -83.961199 
L 429.637807 -84.841637 
L 429.311533 -85.722076 
L 428.973075 -86.602514 
L 428.621258 -87.482953 
L 428.254915 -88.363391 
L 427.872917 -89.243829 
L 427.474189 -90.124268 
L 427.057739 -91.004706 
L 426.622676 -91.885145 
L 426.168238 -92.765583 
L 425.693812 -93.646021 
L 425.198957 -94.52646 
L 424.683424 -95.406898 
L 424.147177 -96.287336 
L 423.590404 -97.167775 
L 423.013539 -98.048213 
L 422.417265 -98.928652 
L 421.802529 -99.80909 
L 421.170543 -100.689528 
L 420.522783 -101.569967 
L 419.860992 -102.450405 
L 419.187165 -103.330844 
L 418.503548 -104.211282 
L 417.812614 -105.09172 
L 417.11705 -105.972159 
L 416.419733 -106.852597 
L 415.723705 -107.733036 
L 415.032146 -108.613474 
L 414.34834 -109.493912 
L 413.675641 -110.374351 
L 413.017441 -111.254789 
L 412.377132 -112.135227 
L 411.758066 -113.015666 
L 411.16352 -113.896104 
L 410.596658 -114.776543 
L 410.060494 -115.656981 
L 409.557856 -116.537419 
L 409.091352 -117.417858 
L 408.663345 -118.298296 
L 408.275915 -119.178735 
L 407.930844 -120.059173 
L 407.629592 -120.939611 
L 407.373277 -121.82005 
L 407.162666 -122.700488 
L 406.998169 -123.580926 
L 406.879831 -124.461365 
L 406.807336 -125.341803 
L 406.780013 -126.222242 
L 406.796846 -127.10268 
L 406.856489 -127.983118 
L 406.957286 -128.863557 
L 407.097293 -129.743995 
L 407.274302 -130.624434 
L 407.485874 -131.504872 
L 407.729371 -132.38531 
L 408.001985 -133.265749 
L 408.300781 -134.146187 
L 408.622727 -135.026625 
L 408.964735 -135.907064 
L 409.323699 -136.787502 
L 409.696531 -137.667941 
L 410.080194 -138.548379 
L 410.471741 -139.428817 
L 410.868348 -140.309256 
L 411.267339 -141.189694 
L 411.666219 -142.070133 
L 412.062696 -142.950571 
L 412.454705 -143.831009 
L 412.840421 -144.711448 
L 413.218278 -145.591886 
L 413.58698 -146.472324 
L 413.945501 -147.352763 
L 414.293097 -148.233201 
L 414.629297 -149.11364 
L 414.953903 -149.994078 
L 415.26698 -150.874516 
L 415.568847 -151.754955 
L 415.860057 -152.635393 
L 416.141386 -153.515832 
L 416.413806 -154.39627 
L 416.67847 -155.276708 
L 416.936683 -156.157147 
L 417.189878 -157.037585 
L 417.439588 -157.918024 
L 417.687422 -158.798462 
L 417.935033 -159.6789 
L 418.184094 -160.559339 
L 418.43627 -161.439777 
L 418.693189 -162.320215 
L 418.95642 -163.200654 
L 419.22745 -164.081092 
L 419.507659 -164.961531 
L 419.7983 -165.841969 
L 420.100488 -166.722407 
L 420.415175 -167.602846 
L 420.743146 -168.483284 
L 421.085003 -169.363723 
L 421.441165 -170.244161 
L 457.624835 -170.244161 
L 457.624835 -170.244161 
L 457.980997 -169.363723 
L 458.322854 -168.483284 
L 458.650825 -167.602846 
L 458.965512 -166.722407 
L 459.2677 -165.841969 
L 459.558341 -164.961531 
L 459.83855 -164.081092 
L 460.10958 -163.200654 
L 460.372811 -162.320215 
L 460.62973 -161.439777 
L 460.881906 -160.559339 
L 461.130967 -159.6789 
L 461.378578 -158.798462 
L 461.626412 -157.918024 
L 461.876122 -157.037585 
L 462.129317 -156.157147 
L 462.38753 -155.276708 
L 462.652194 -154.39627 
L 462.924614 -153.515832 
L 463.205943 -152.635393 
L 463.497153 -151.754955 
L 463.79902 -150.874516 
L 464.112097 -149.994078 
L 464.436703 -149.11364 
L 464.772903 -148.233201 
L 465.120499 -147.352763 
L 465.47902 -146.472324 
L 465.847722 -145.591886 
L 466.225579 -144.711448 
L 466.611295 -143.831009 
L 467.003304 -142.950571 
L 467.399781 -142.070133 
L 467.798661 -141.189694 
L 468.197652 -140.309256 
L 468.594259 -139.428817 
L 468.985806 -138.548379 
L 469.369469 -137.667941 
L 469.742301 -136.787502 
L 470.101265 -135.907064 
L 470.443273 -135.026625 
L 470.765219 -134.146187 
L 471.064015 -133.265749 
L 471.336629 -132.38531 
L 471.580126 -131.504872 
L 471.791698 -130.624434 
L 471.968707 -129.743995 
L 472.108714 -128.863557 
L 472.209511 -127.983118 
L 472.269154 -127.10268 
L 472.285987 -126.222242 
L 472.258664 -125.341803 
L 472.186169 -124.461365 
L 472.067831 -123.580926 
L 471.903334 -122.700488 
L 471.692723 -121.82005 
L 471.436408 -120.939611 
L 471.135156 -120.059173 
L 470.790085 -119.178735 
L 470.402655 -118.298296 
L 469.974648 -117.417858 
L 469.508144 -116.537419 
L 469.005506 -115.656981 
L 468.469342 -114.776543 
L 467.90248 -113.896104 
L 467.307934 -113.015666 
L 466.688868 -112.135227 
L 466.048559 -111.254789 
L 465.390359 -110.374351 
L 464.71766 -109.493912 
L 464.033854 -108.613474 
L 463.342295 -107.733036 
L 462.646267 -106.852597 
L 461.94895 -105.972159 
L 461.253386 -105.09172 
L 460.562452 -104.211282 
L 459.878835 -103.330844 
L 459.205008 -102.450405 
L 458.543217 -101.569967 
L 457.895457 -100.689528 
L 457.263471 -99.80909 
L 456.648735 -98.928652 
L 456.052461 -98.048213 
L 455.475596 -97.167775 
L 454.918823 -96.287336 
L 454.382576 -95.406898 
L 453.867043 -94.52646 
L 453.372188 -93.646021 
L 452.897762 -92.765583 
L 452.443324 -91.885145 
L 452.008261 -91.004706 
L 451.591811 -90.124268 
L 451.193083 -89.243829 
L 450.811085 -88.363391 
L 450.444742 -87.482953 
L 450.092925 -86.602514 
L 449.754467 -85.722076 
L 449.428193 -84.841637 
L 449.112931 -83.961199 
L 448.807538 -83.080761 
z
" style="stroke: #2f2f2f"/>
    </defs>
    <g clip-path="url(#p449a01369e)">
     <use xlink:href="#m57ece19427" x="0" y="288" style="fill: #437695; stroke: #2f2f2f"/>
    </g>
   </g>
   <g id="PolyCollection_6">
    <defs>
     <path id="m22b14455eb" d="M 552.558852 -89.497391 
L 490.272083 -89.497391 
L 489.943266 -90.322297 
L 489.65116 -91.147203 
L 489.396367 -91.972108 
L 489.179313 -92.797014 
L 489.000244 -93.62192 
L 488.859228 -94.446826 
L 488.756152 -95.271732 
L 488.690725 -96.096637 
L 488.662481 -96.921543 
L 488.670783 -97.746449 
L 488.714829 -98.571355 
L 488.793657 -99.396261 
L 488.906155 -100.221167 
L 489.051068 -101.046072 
L 489.22701 -101.870978 
L 489.43247 -102.695884 
L 489.66583 -103.52079 
L 489.925372 -104.345696 
L 490.209291 -105.170601 
L 490.51571 -105.995507 
L 490.842692 -106.820413 
L 491.188252 -107.645319 
L 491.550374 -108.470225 
L 491.927018 -109.295131 
L 492.316139 -110.120036 
L 492.715697 -110.944942 
L 493.123669 -111.769848 
L 493.538062 -112.594754 
L 493.956923 -113.41966 
L 494.37835 -114.244565 
L 494.800501 -115.069471 
L 495.221606 -115.894377 
L 495.639972 -116.719283 
L 496.05399 -117.544189 
L 496.462147 -118.369094 
L 496.863025 -119.194 
L 497.255309 -120.018906 
L 497.637792 -120.843812 
L 498.009375 -121.668718 
L 498.369073 -122.493624 
L 498.716014 -123.318529 
L 499.049439 -124.143435 
L 499.368706 -124.968341 
L 499.673285 -125.793247 
L 499.962758 -126.618153 
L 500.236817 -127.443058 
L 500.495265 -128.267964 
L 500.738005 -129.09287 
L 500.965047 -129.917776 
L 501.176493 -130.742682 
L 501.372544 -131.567588 
L 501.553487 -132.392493 
L 501.719693 -133.217399 
L 501.871615 -134.042305 
L 502.009777 -134.867211 
L 502.134776 -135.692117 
L 502.247269 -136.517022 
L 502.347973 -137.341928 
L 502.43766 -138.166834 
L 502.517145 -138.99174 
L 502.587287 -139.816646 
L 502.648984 -140.641551 
L 502.70316 -141.466457 
L 502.750768 -142.291363 
L 502.792779 -143.116269 
L 502.83018 -143.941175 
L 502.863969 -144.766081 
L 502.895145 -145.590986 
L 502.924708 -146.415892 
L 502.953654 -147.240798 
L 502.982967 -148.065704 
L 503.013615 -148.89061 
L 503.04655 -149.715515 
L 503.082696 -150.540421 
L 503.12295 -151.365327 
L 503.168179 -152.190233 
L 503.219209 -153.015139 
L 503.27683 -153.840045 
L 503.341786 -154.66495 
L 503.414774 -155.489856 
L 503.496443 -156.314762 
L 503.587387 -157.139668 
L 503.688145 -157.964574 
L 503.799197 -158.789479 
L 503.920965 -159.614385 
L 504.05381 -160.439291 
L 504.198026 -161.264197 
L 504.353846 -162.089103 
L 504.521439 -162.914009 
L 504.700907 -163.738914 
L 504.892287 -164.56382 
L 505.095551 -165.388726 
L 505.310608 -166.213632 
L 505.537303 -167.038538 
L 505.775421 -167.863443 
L 506.024683 -168.688349 
L 506.284758 -169.513255 
L 506.555256 -170.338161 
L 506.835735 -171.163067 
L 535.9952 -171.163067 
L 535.9952 -171.163067 
L 536.275679 -170.338161 
L 536.546177 -169.513255 
L 536.806252 -168.688349 
L 537.055515 -167.863443 
L 537.293632 -167.038538 
L 537.520327 -166.213632 
L 537.735384 -165.388726 
L 537.938648 -164.56382 
L 538.130028 -163.738914 
L 538.309496 -162.914009 
L 538.477089 -162.089103 
L 538.632909 -161.264197 
L 538.777126 -160.439291 
L 538.90997 -159.614385 
L 539.031738 -158.789479 
L 539.14279 -157.964574 
L 539.243548 -157.139668 
L 539.334492 -156.314762 
L 539.416161 -155.489856 
L 539.489149 -154.66495 
L 539.554105 -153.840045 
L 539.611726 -153.015139 
L 539.662757 -152.190233 
L 539.707985 -151.365327 
L 539.748239 -150.540421 
L 539.784385 -149.715515 
L 539.81732 -148.89061 
L 539.847968 -148.065704 
L 539.877281 -147.240798 
L 539.906227 -146.415892 
L 539.935791 -145.590986 
L 539.966966 -144.766081 
L 540.000755 -143.941175 
L 540.038156 -143.116269 
L 540.080168 -142.291363 
L 540.127775 -141.466457 
L 540.181951 -140.641551 
L 540.243648 -139.816646 
L 540.313791 -138.99174 
L 540.393276 -138.166834 
L 540.482962 -137.341928 
L 540.583666 -136.517022 
L 540.696159 -135.692117 
L 540.821158 -134.867211 
L 540.95932 -134.042305 
L 541.111242 -133.217399 
L 541.277448 -132.392493 
L 541.458391 -131.567588 
L 541.654442 -130.742682 
L 541.865889 -129.917776 
L 542.09293 -129.09287 
L 542.335671 -128.267964 
L 542.594118 -127.443058 
L 542.868177 -126.618153 
L 543.15765 -125.793247 
L 543.462229 -124.968341 
L 543.781496 -124.143435 
L 544.114921 -123.318529 
L 544.461862 -122.493624 
L 544.82156 -121.668718 
L 545.193144 -120.843812 
L 545.575626 -120.018906 
L 545.96791 -119.194 
L 546.368788 -118.369094 
L 546.776945 -117.544189 
L 547.190963 -116.719283 
L 547.609329 -115.894377 
L 548.030434 -115.069471 
L 548.452585 -114.244565 
L 548.874012 -113.41966 
L 549.292873 -112.594754 
L 549.707266 -111.769848 
L 550.115238 -110.944942 
L 550.514796 -110.120036 
L 550.903917 -109.295131 
L 551.280561 -108.470225 
L 551.642683 -107.645319 
L 551.988243 -106.820413 
L 552.315225 -105.995507 
L 552.621644 -105.170601 
L 552.905563 -104.345696 
L 553.165105 -103.52079 
L 553.398465 -102.695884 
L 553.603925 -101.870978 
L 553.779867 -101.046072 
L 553.92478 -100.221167 
L 554.037278 -99.396261 
L 554.116106 -98.571355 
L 554.160152 -97.746449 
L 554.168455 -96.921543 
L 554.140211 -96.096637 
L 554.074783 -95.271732 
L 553.971707 -94.446826 
L 553.830691 -93.62192 
L 553.651622 -92.797014 
L 553.434568 -91.972108 
L 553.179775 -91.147203 
L 552.887669 -90.322297 
L 552.558852 -89.497391 
z
" style="stroke: #2f2f2f"/>
    </defs>
    <g clip-path="url(#p449a01369e)">
     <use xlink:href="#m22b14455eb" x="0" y="288" style="fill: #423b63; stroke: #2f2f2f"/>
    </g>
   </g>
   <g id="line2d_33">
    <path d="M 357.650532 192.268929 
L 357.650532 108.006738 
" clip-path="url(#p449a01369e)" style="fill: none; stroke: #2f2f2f; stroke-width: 1.5; stroke-linecap: round"/>
   </g>
   <g id="line2d_34">
    <path d="M 357.650532 179.016222 
L 357.650532 142.436554 
" clip-path="url(#p449a01369e)" style="fill: none; stroke: #2f2f2f; stroke-width: 4.5; stroke-linecap: round"/>
   </g>
   <g id="line2d_35">
    <path d="M 357.650532 152.443877 
" clip-path="url(#p449a01369e)" style="fill: none; stroke: #2f2f2f; stroke-width: 1.2; stroke-linecap: round"/>
    <g clip-path="url(#p449a01369e)">
     <use xlink:href="#m23cae9b016" x="357.650532" y="152.443877" style="fill: #ffffff; stroke: #ffffff; stroke-width: 0.9"/>
    </g>
   </g>
   <g id="line2d_36">
    <path d="M 439.533 204.919239 
L 439.533 117.755839 
" clip-path="url(#p449a01369e)" style="fill: none; stroke: #2f2f2f; stroke-width: 1.5; stroke-linecap: round"/>
   </g>
   <g id="line2d_37">
    <path d="M 439.533 169.544891 
L 439.533 135.307142 
" clip-path="url(#p449a01369e)" style="fill: none; stroke: #2f2f2f; stroke-width: 4.5; stroke-linecap: round"/>
   </g>
   <g id="line2d_38">
    <path d="M 439.533 159.035731 
" clip-path="url(#p449a01369e)" style="fill: none; stroke: #2f2f2f; stroke-width: 1.2; stroke-linecap: round"/>
    <g clip-path="url(#p449a01369e)">
     <use xlink:href="#m23cae9b016" x="439.533" y="159.035731" style="fill: #ffffff; stroke: #ffffff; stroke-width: 0.9"/>
    </g>
   </g>
   <g id="line2d_39">
    <path d="M 521.415468 198.502609 
L 521.415468 116.836933 
" clip-path="url(#p449a01369e)" style="fill: none; stroke: #2f2f2f; stroke-width: 1.5; stroke-linecap: round"/>
   </g>
   <g id="line2d_40">
    <path d="M 521.415468 195.883303 
L 521.415468 143.517229 
" clip-path="url(#p449a01369e)" style="fill: none; stroke: #2f2f2f; stroke-width: 4.5; stroke-linecap: round"/>
   </g>
   <g id="line2d_41">
    <path d="M 521.415468 186.050078 
" clip-path="url(#p449a01369e)" style="fill: none; stroke: #2f2f2f; stroke-width: 1.2; stroke-linecap: round"/>
    <g clip-path="url(#p449a01369e)">
     <use xlink:href="#m23cae9b016" x="521.415468" y="186.050078" style="fill: #ffffff; stroke: #ffffff; stroke-width: 0.9"/>
    </g>
   </g>
   <g id="line2d_42">
    <path d="M 357.650532 104.419472 
L 357.650532 96.575775 
L 439.533 96.575775 
L 439.533 104.419472 
" clip-path="url(#p449a01369e)" style="fill: none; stroke: #000000; stroke-linecap: round"/>
   </g>
   <g id="line2d_43">
    <path d="M 439.533 90.070405 
L 439.533 81.867982 
L 521.415468 81.867982 
L 521.415468 90.070405 
" clip-path="url(#p449a01369e)" style="fill: none; stroke: #000000; stroke-linecap: round"/>
   </g>
   <g id="line2d_44">
    <path d="M 357.650532 75.721338 
L 357.650532 67.160189 
L 521.415468 67.160189 
L 521.415468 75.721338 
" clip-path="url(#p449a01369e)" style="fill: none; stroke: #000000; stroke-linecap: round"/>
   </g>
   <g id="patch_8">
    <path d="M 313.434 238.804 
L 313.434 23.568 
" style="fill: none; stroke: #262626; stroke-linejoin: miter; stroke-linecap: square"/>
   </g>
   <g id="patch_9">
    <path d="M 565.632 238.804 
L 565.632 23.568 
" style="fill: none; stroke: #262626; stroke-linejoin: miter; stroke-linecap: square"/>
   </g>
   <g id="patch_10">
    <path d="M 313.434 238.804 
L 565.632 238.804 
" style="fill: none; stroke: #262626; stroke-linejoin: miter; stroke-linecap: square"/>
   </g>
   <g id="patch_11">
    <path d="M 313.434 23.568 
L 565.632 23.568 
" style="fill: none; stroke: #262626; stroke-linejoin: miter; stroke-linecap: square"/>
   </g>
   <g id="text_19">
    <!-- ns -->
    <g transform="translate(393.049266 94.579275) scale(0.096 -0.096)">
     <use xlink:href="#DejaVuSans-6e"/>
     <use xlink:href="#DejaVuSans-73" x="63.378906"/>
    </g>
   </g>
   <g id="text_20">
    <!-- ns -->
    <g transform="translate(474.931734 79.871482) scale(0.096 -0.096)">
     <use xlink:href="#DejaVuSans-6e"/>
     <use xlink:href="#DejaVuSans-73" x="63.378906"/>
    </g>
   </g>
   <g id="text_21">
    <!-- ns -->
    <g transform="translate(433.9905 65.163689) scale(0.096 -0.096)">
     <use xlink:href="#DejaVuSans-6e"/>
     <use xlink:href="#DejaVuSans-73" x="63.378906"/>
    </g>
   </g>
   <g id="text_22">
    <!-- Speed -->
    <g style="fill: #262626" transform="translate(424.48425 17.568) scale(0.096 -0.096)">
     <defs>
      <path id="DejaVuSans-53" d="M 3425 4513 
L 3425 3897 
Q 3066 4069 2747 4153 
Q 2428 4238 2131 4238 
Q 1616 4238 1336 4038 
Q 1056 3838 1056 3469 
Q 1056 3159 1242 3001 
Q 1428 2844 1947 2747 
L 2328 2669 
Q 3034 2534 3370 2195 
Q 3706 1856 3706 1288 
Q 3706 609 3251 259 
Q 2797 -91 1919 -91 
Q 1588 -91 1214 -16 
Q 841 59 441 206 
L 441 856 
Q 825 641 1194 531 
Q 1563 422 1919 422 
Q 2459 422 2753 634 
Q 3047 847 3047 1241 
Q 3047 1584 2836 1778 
Q 2625 1972 2144 2069 
L 1759 2144 
Q 1053 2284 737 2584 
Q 422 2884 422 3419 
Q 422 4038 858 4394 
Q 1294 4750 2059 4750 
Q 2388 4750 2728 4690 
Q 3069 4631 3425 4513 
z
" transform="scale(0.015625)"/>
     </defs>
     <use xlink:href="#DejaVuSans-53"/>
     <use xlink:href="#DejaVuSans-70" x="63.476562"/>
     <use xlink:href="#DejaVuSans-65" x="126.953125"/>
     <use xlink:href="#DejaVuSans-65" x="188.476562"/>
     <use xlink:href="#DejaVuSans-64" x="250"/>
    </g>
   </g>
  </g>
  <g id="text_23">
   <!-- Average decision probability tertile -->
   <g style="fill: #262626" transform="translate(187.2072 282.7242) scale(0.1152 -0.1152)">
    <defs>
     <path id="DejaVuSans-76" d="M 191 3500 
L 800 3500 
L 1894 563 
L 2988 3500 
L 3597 3500 
L 2284 0 
L 1503 0 
L 191 3500 
z
" transform="scale(0.015625)"/>
    </defs>
    <use xlink:href="#DejaVuSans-41"/>
    <use xlink:href="#DejaVuSans-76" x="62.533203"/>
    <use xlink:href="#DejaVuSans-65" x="121.712891"/>
    <use xlink:href="#DejaVuSans-72" x="183.236328"/>
    <use xlink:href="#DejaVuSans-61" x="224.349609"/>
    <use xlink:href="#DejaVuSans-67" x="285.628906"/>
    <use xlink:href="#DejaVuSans-65" x="349.105469"/>
    <use xlink:href="#DejaVuSans-20" x="410.628906"/>
    <use xlink:href="#DejaVuSans-64" x="442.416016"/>
    <use xlink:href="#DejaVuSans-65" x="505.892578"/>
    <use xlink:href="#DejaVuSans-63" x="567.416016"/>
    <use xlink:href="#DejaVuSans-69" x="622.396484"/>
    <use xlink:href="#DejaVuSans-73" x="650.179688"/>
    <use xlink:href="#DejaVuSans-69" x="702.279297"/>
    <use xlink:href="#DejaVuSans-6f" x="730.0625"/>
    <use xlink:href="#DejaVuSans-6e" x="791.244141"/>
    <use xlink:href="#DejaVuSans-20" x="854.623047"/>
    <use xlink:href="#DejaVuSans-70" x="886.410156"/>
    <use xlink:href="#DejaVuSans-72" x="949.886719"/>
    <use xlink:href="#DejaVuSans-6f" x="988.75"/>
    <use xlink:href="#DejaVuSans-62" x="1049.931641"/>
    <use xlink:href="#DejaVuSans-61" x="1113.408203"/>
    <use xlink:href="#DejaVuSans-62" x="1174.6875"/>
    <use xlink:href="#DejaVuSans-69" x="1238.164062"/>
    <use xlink:href="#DejaVuSans-6c" x="1265.947266"/>
    <use xlink:href="#DejaVuSans-69" x="1293.730469"/>
    <use xlink:href="#DejaVuSans-74" x="1321.513672"/>
    <use xlink:href="#DejaVuSans-79" x="1360.722656"/>
    <use xlink:href="#DejaVuSans-20" x="1419.902344"/>
    <use xlink:href="#DejaVuSans-74" x="1451.689453"/>
    <use xlink:href="#DejaVuSans-65" x="1490.898438"/>
    <use xlink:href="#DejaVuSans-72" x="1552.421875"/>
    <use xlink:href="#DejaVuSans-74" x="1593.535156"/>
    <use xlink:href="#DejaVuSans-69" x="1632.744141"/>
    <use xlink:href="#DejaVuSans-6c" x="1660.527344"/>
    <use xlink:href="#DejaVuSans-65" x="1688.310547"/>
   </g>
  </g>
 </g>
 <defs>
  <clipPath id="p1db0fcbc5f">
   <rect x="46.068" y="23.568" width="252.198" height="215.236"/>
  </clipPath>
  <clipPath id="p449a01369e">
   <rect x="313.434" y="23.568" width="252.198" height="215.236"/>
  </clipPath>
 </defs>
</svg>
