<?xml version="1.0" encoding="utf-8" standalone="no"?>
<!DOCTYPE svg PUBLIC "-//W3C//DTD SVG 1.1//EN"
  "http://www.w3.org/Graphics/SVG/1.1/DTD/svg11.dtd">
<svg xmlns:xlink="http://www.w3.org/1999/xlink" width="576pt" height="288pt" viewBox="0 0 576 288" xmlns="http://www.w3.org/2000/svg" version="1.1">
 <metadata>
  <rdf:RDF xmlns:dc="http://purl.org/dc/elements/1.1/" xmlns:cc="http://creativecommons.org/ns#" xmlns:rdf="http://www.w3.org/1999/02/22-rdf-syntax-ns#">
   <cc:Work>
    <dc:type rdf:resource="http://purl.org/dc/dcmitype/StillImage"/>
    <dc:date>2025-01-15T17:24:55.121381</dc:date>
    <dc:format>image/svg+xml</dc:format>
    <dc:creator>
     <cc:Agent>
      <dc:title>Matplotlib v3.10.0, https://matplotlib.org/</dc:title>
     </cc:Agent>
    </dc:creator>
   </cc:Work>
  </rdf:RDF>
 </metadata>
 <defs>
  <style type="text/css">*{stroke-linejoin: round; stroke-linecap: butt}</style>
 </defs>
 <g id="figure_1">
  <g id="patch_1">
   <path d="M 0 288 
L 576 288 
L 576 0 
L 0 0 
L 0 288 
z
" style="fill: none"/>
  </g>
  <g id="axes_1">
   <g id="patch_2">
    <path d="M 46.068 238.804 
L 298.266 238.804 
L 298.266 23.568 
L 46.068 23.568 
L 46.068 238.804 
z
" style="fill: none"/>
   </g>
   <g id="matplotlib.axis_1">
    <g id="xtick_1">
     <g id="line2d_1">
      <defs>
       <path id="mf45f16be08" d="M 0 0 
L 0 4.8 
" style="stroke: #262626"/>
      </defs>
      <g>
       <use xlink:href="#mf45f16be08" x="90.284532" y="238.804" style="fill: #262626; stroke: #262626"/>
      </g>
     </g>
     <g id="text_1">
      <!-- Low -->
      <g style="fill: #262626" transform="translate(81.619282 253.790625) scale(0.088 -0.088)">
       <defs>
        <path id="DejaVuSans-4c" d="M 628 4666 
L 1259 4666 
L 1259 531 
L 3531 531 
L 3531 0 
L 628 0 
L 628 4666 
z
" transform="scale(0.015625)"/>
        <path id="DejaVuSans-6f" d="M 1959 3097 
Q 1497 3097 1228 2736 
Q 959 2375 959 1747 
Q 959 1119 1226 758 
Q 1494 397 1959 397 
Q 2419 397 2687 759 
Q 2956 1122 2956 1747 
Q 2956 2369 2687 2733 
Q 2419 3097 1959 3097 
z
M 1959 3584 
Q 2709 3584 3137 3096 
Q 3566 2609 3566 1747 
Q 3566 888 3137 398 
Q 2709 -91 1959 -91 
Q 1206 -91 779 398 
Q 353 888 353 1747 
Q 353 2609 779 3096 
Q 1206 3584 1959 3584 
z
" transform="scale(0.015625)"/>
        <path id="DejaVuSans-77" d="M 269 3500 
L 844 3500 
L 1563 769 
L 2278 3500 
L 2956 3500 
L 3675 769 
L 4391 3500 
L 4966 3500 
L 4050 0 
L 3372 0 
L 2619 2869 
L 1863 0 
L 1184 0 
L 269 3500 
z
" transform="scale(0.015625)"/>
       </defs>
       <use xlink:href="#DejaVuSans-4c"/>
       <use xlink:href="#DejaVuSans-6f" transform="translate(53.962891 0)"/>
       <use xlink:href="#DejaVuSans-77" transform="translate(115.144531 0)"/>
      </g>
     </g>
    </g>
    <g id="xtick_2">
     <g id="line2d_2">
      <g>
       <use xlink:href="#mf45f16be08" x="172.167" y="238.804" style="fill: #262626; stroke: #262626"/>
      </g>
     </g>
     <g id="text_2">
      <!-- Medium -->
      <g style="fill: #262626" transform="translate(154.573187 253.790625) scale(0.088 -0.088)">
       <defs>
        <path id="DejaVuSans-4d" d="M 628 4666 
L 1569 4666 
L 2759 1491 
L 3956 4666 
L 4897 4666 
L 4897 0 
L 4281 0 
L 4281 4097 
L 3078 897 
L 2444 897 
L 1241 4097 
L 1241 0 
L 628 0 
L 628 4666 
z
" transform="scale(0.015625)"/>
        <path id="DejaVuSans-65" d="M 3597 1894 
L 3597 1613 
L 953 1613 
Q 991 1019 1311 708 
Q 1631 397 2203 397 
Q 2534 397 2845 478 
Q 3156 559 3463 722 
L 3463 178 
Q 3153 47 2828 -22 
Q 2503 -91 2169 -91 
Q 1331 -91 842 396 
Q 353 884 353 1716 
Q 353 2575 817 3079 
Q 1281 3584 2069 3584 
Q 2775 3584 3186 3129 
Q 3597 2675 3597 1894 
z
M 3022 2063 
Q 3016 2534 2758 2815 
Q 2500 3097 2075 3097 
Q 1594 3097 1305 2825 
Q 1016 2553 972 2059 
L 3022 2063 
z
" transform="scale(0.015625)"/>
        <path id="DejaVuSans-64" d="M 2906 2969 
L 2906 4863 
L 3481 4863 
L 3481 0 
L 2906 0 
L 2906 525 
Q 2725 213 2448 61 
Q 2172 -91 1784 -91 
Q 1150 -91 751 415 
Q 353 922 353 1747 
Q 353 2572 751 3078 
Q 1150 3584 1784 3584 
Q 2172 3584 2448 3432 
Q 2725 3281 2906 2969 
z
M 947 1747 
Q 947 1113 1208 752 
Q 1469 391 1925 391 
Q 2381 391 2643 752 
Q 2906 1113 2906 1747 
Q 2906 2381 2643 2742 
Q 2381 3103 1925 3103 
Q 1469 3103 1208 2742 
Q 947 2381 947 1747 
z
" transform="scale(0.015625)"/>
        <path id="DejaVuSans-69" d="M 603 3500 
L 1178 3500 
L 1178 0 
L 603 0 
L 603 3500 
z
M 603 4863 
L 1178 4863 
L 1178 4134 
L 603 4134 
L 603 4863 
z
" transform="scale(0.015625)"/>
        <path id="DejaVuSans-75" d="M 544 1381 
L 544 3500 
L 1119 3500 
L 1119 1403 
Q 1119 906 1312 657 
Q 1506 409 1894 409 
Q 2359 409 2629 706 
Q 2900 1003 2900 1516 
L 2900 3500 
L 3475 3500 
L 3475 0 
L 2900 0 
L 2900 538 
Q 2691 219 2414 64 
Q 2138 -91 1772 -91 
Q 1169 -91 856 284 
Q 544 659 544 1381 
z
M 1991 3584 
L 1991 3584 
z
" transform="scale(0.015625)"/>
        <path id="DejaVuSans-6d" d="M 3328 2828 
Q 3544 3216 3844 3400 
Q 4144 3584 4550 3584 
Q 5097 3584 5394 3201 
Q 5691 2819 5691 2113 
L 5691 0 
L 5113 0 
L 5113 2094 
Q 5113 2597 4934 2840 
Q 4756 3084 4391 3084 
Q 3944 3084 3684 2787 
Q 3425 2491 3425 1978 
L 3425 0 
L 2847 0 
L 2847 2094 
Q 2847 2600 2669 2842 
Q 2491 3084 2119 3084 
Q 1678 3084 1418 2786 
Q 1159 2488 1159 1978 
L 1159 0 
L 581 0 
L 581 3500 
L 1159 3500 
L 1159 2956 
Q 1356 3278 1631 3431 
Q 1906 3584 2284 3584 
Q 2666 3584 2933 3390 
Q 3200 3197 3328 2828 
z
" transform="scale(0.015625)"/>
       </defs>
       <use xlink:href="#DejaVuSans-4d"/>
       <use xlink:href="#DejaVuSans-65" transform="translate(86.279297 0)"/>
       <use xlink:href="#DejaVuSans-64" transform="translate(147.802734 0)"/>
       <use xlink:href="#DejaVuSans-69" transform="translate(211.279297 0)"/>
       <use xlink:href="#DejaVuSans-75" transform="translate(239.0625 0)"/>
       <use xlink:href="#DejaVuSans-6d" transform="translate(302.441406 0)"/>
      </g>
     </g>
    </g>
    <g id="xtick_3">
     <g id="line2d_3">
      <g>
       <use xlink:href="#mf45f16be08" x="254.049468" y="238.804" style="fill: #262626; stroke: #262626"/>
      </g>
     </g>
     <g id="text_3">
      <!-- High -->
      <g style="fill: #262626" transform="translate(243.936343 253.790625) scale(0.088 -0.088)">
       <defs>
        <path id="DejaVuSans-48" d="M 628 4666 
L 1259 4666 
L 1259 2753 
L 3553 2753 
L 3553 4666 
L 4184 4666 
L 4184 0 
L 3553 0 
L 3553 2222 
L 1259 2222 
L 1259 0 
L 628 0 
L 628 4666 
z
" transform="scale(0.015625)"/>
        <path id="DejaVuSans-67" d="M 2906 1791 
Q 2906 2416 2648 2759 
Q 2391 3103 1925 3103 
Q 1463 3103 1205 2759 
Q 947 2416 947 1791 
Q 947 1169 1205 825 
Q 1463 481 1925 481 
Q 2391 481 2648 825 
Q 2906 1169 2906 1791 
z
M 3481 434 
Q 3481 -459 3084 -895 
Q 2688 -1331 1869 -1331 
Q 1566 -1331 1297 -1286 
Q 1028 -1241 775 -1147 
L 775 -588 
Q 1028 -725 1275 -790 
Q 1522 -856 1778 -856 
Q 2344 -856 2625 -561 
Q 2906 -266 2906 331 
L 2906 616 
Q 2728 306 2450 153 
Q 2172 0 1784 0 
Q 1141 0 747 490 
Q 353 981 353 1791 
Q 353 2603 747 3093 
Q 1141 3584 1784 3584 
Q 2172 3584 2450 3431 
Q 2728 3278 2906 2969 
L 2906 3500 
L 3481 3500 
L 3481 434 
z
" transform="scale(0.015625)"/>
        <path id="DejaVuSans-68" d="M 3513 2113 
L 3513 0 
L 2938 0 
L 2938 2094 
Q 2938 2591 2744 2837 
Q 2550 3084 2163 3084 
Q 1697 3084 1428 2787 
Q 1159 2491 1159 1978 
L 1159 0 
L 581 0 
L 581 4863 
L 1159 4863 
L 1159 2956 
Q 1366 3272 1645 3428 
Q 1925 3584 2291 3584 
Q 2894 3584 3203 3211 
Q 3513 2838 3513 2113 
z
" transform="scale(0.015625)"/>
       </defs>
       <use xlink:href="#DejaVuSans-48"/>
       <use xlink:href="#DejaVuSans-69" transform="translate(75.195312 0)"/>
       <use xlink:href="#DejaVuSans-67" transform="translate(102.978516 0)"/>
       <use xlink:href="#DejaVuSans-68" transform="translate(166.455078 0)"/>
      </g>
     </g>
    </g>
   </g>
   <g id="matplotlib.axis_2">
    <g id="ytick_1">
     <g id="line2d_4">
      <defs>
       <path id="m44608a86b0" d="M 0 0 
L -4.8 0 
" style="stroke: #262626"/>
      </defs>
      <g>
       <use xlink:href="#m44608a86b0" x="46.068" y="238.804" style="fill: #262626; stroke: #262626"/>
      </g>
     </g>
     <g id="text_4">
      <!-- 0.5 -->
      <g style="fill: #262626" transform="translate(23.77325 242.147312) scale(0.088 -0.088)">
       <defs>
        <path id="DejaVuSans-30" d="M 2034 4250 
Q 1547 4250 1301 3770 
Q 1056 3291 1056 2328 
Q 1056 1369 1301 889 
Q 1547 409 2034 409 
Q 2525 409 2770 889 
Q 3016 1369 3016 2328 
Q 3016 3291 2770 3770 
Q 2525 4250 2034 4250 
z
M 2034 4750 
Q 2819 4750 3233 4129 
Q 3647 3509 3647 2328 
Q 3647 1150 3233 529 
Q 2819 -91 2034 -91 
Q 1250 -91 836 529 
Q 422 1150 422 2328 
Q 422 3509 836 4129 
Q 1250 4750 2034 4750 
z
" transform="scale(0.015625)"/>
        <path id="DejaVuSans-2e" d="M 684 794 
L 1344 794 
L 1344 0 
L 684 0 
L 684 794 
z
" transform="scale(0.015625)"/>
        <path id="DejaVuSans-35" d="M 691 4666 
L 3169 4666 
L 3169 4134 
L 1269 4134 
L 1269 2991 
Q 1406 3038 1543 3061 
Q 1681 3084 1819 3084 
Q 2600 3084 3056 2656 
Q 3513 2228 3513 1497 
Q 3513 744 3044 326 
Q 2575 -91 1722 -91 
Q 1428 -91 1123 -41 
Q 819 9 494 109 
L 494 744 
Q 775 591 1075 516 
Q 1375 441 1709 441 
Q 2250 441 2565 725 
Q 2881 1009 2881 1497 
Q 2881 1984 2565 2268 
Q 2250 2553 1709 2553 
Q 1456 2553 1204 2497 
Q 953 2441 691 2322 
L 691 4666 
z
" transform="scale(0.015625)"/>
       </defs>
       <use xlink:href="#DejaVuSans-30"/>
       <use xlink:href="#DejaVuSans-2e" transform="translate(63.623047 0)"/>
       <use xlink:href="#DejaVuSans-35" transform="translate(95.410156 0)"/>
      </g>
     </g>
    </g>
    <g id="ytick_2">
     <g id="line2d_5">
      <g>
       <use xlink:href="#m44608a86b0" x="46.068" y="202.931333" style="fill: #262626; stroke: #262626"/>
      </g>
     </g>
     <g id="text_5">
      <!-- 0.6 -->
      <g style="fill: #262626" transform="translate(23.77325 206.274646) scale(0.088 -0.088)">
       <defs>
        <path id="DejaVuSans-36" d="M 2113 2584 
Q 1688 2584 1439 2293 
Q 1191 2003 1191 1497 
Q 1191 994 1439 701 
Q 1688 409 2113 409 
Q 2538 409 2786 701 
Q 3034 994 3034 1497 
Q 3034 2003 2786 2293 
Q 2538 2584 2113 2584 
z
M 3366 4563 
L 3366 3988 
Q 3128 4100 2886 4159 
Q 2644 4219 2406 4219 
Q 1781 4219 1451 3797 
Q 1122 3375 1075 2522 
Q 1259 2794 1537 2939 
Q 1816 3084 2150 3084 
Q 2853 3084 3261 2657 
Q 3669 2231 3669 1497 
Q 3669 778 3244 343 
Q 2819 -91 2113 -91 
Q 1303 -91 875 529 
Q 447 1150 447 2328 
Q 447 3434 972 4092 
Q 1497 4750 2381 4750 
Q 2619 4750 2861 4703 
Q 3103 4656 3366 4563 
z
" transform="scale(0.015625)"/>
       </defs>
       <use xlink:href="#DejaVuSans-30"/>
       <use xlink:href="#DejaVuSans-2e" transform="translate(63.623047 0)"/>
       <use xlink:href="#DejaVuSans-36" transform="translate(95.410156 0)"/>
      </g>
     </g>
    </g>
    <g id="ytick_3">
     <g id="line2d_6">
      <g>
       <use xlink:href="#m44608a86b0" x="46.068" y="167.058667" style="fill: #262626; stroke: #262626"/>
      </g>
     </g>
     <g id="text_6">
      <!-- 0.7 -->
      <g style="fill: #262626" transform="translate(23.77325 170.401979) scale(0.088 -0.088)">
       <defs>
        <path id="DejaVuSans-37" d="M 525 4666 
L 3525 4666 
L 3525 4397 
L 1831 0 
L 1172 0 
L 2766 4134 
L 525 4134 
L 525 4666 
z
" transform="scale(0.015625)"/>
       </defs>
       <use xlink:href="#DejaVuSans-30"/>
       <use xlink:href="#DejaVuSans-2e" transform="translate(63.623047 0)"/>
       <use xlink:href="#DejaVuSans-37" transform="translate(95.410156 0)"/>
      </g>
     </g>
    </g>
    <g id="ytick_4">
     <g id="line2d_7">
      <g>
       <use xlink:href="#m44608a86b0" x="46.068" y="131.186" style="fill: #262626; stroke: #262626"/>
      </g>
     </g>
     <g id="text_7">
      <!-- 0.8 -->
      <g style="fill: #262626" transform="translate(23.77325 134.529312) scale(0.088 -0.088)">
       <defs>
        <path id="DejaVuSans-38" d="M 2034 2216 
Q 1584 2216 1326 1975 
Q 1069 1734 1069 1313 
Q 1069 891 1326 650 
Q 1584 409 2034 409 
Q 2484 409 2743 651 
Q 3003 894 3003 1313 
Q 3003 1734 2745 1975 
Q 2488 2216 2034 2216 
z
M 1403 2484 
Q 997 2584 770 2862 
Q 544 3141 544 3541 
Q 544 4100 942 4425 
Q 1341 4750 2034 4750 
Q 2731 4750 3128 4425 
Q 3525 4100 3525 3541 
Q 3525 3141 3298 2862 
Q 3072 2584 2669 2484 
Q 3125 2378 3379 2068 
Q 3634 1759 3634 1313 
Q 3634 634 3220 271 
Q 2806 -91 2034 -91 
Q 1263 -91 848 271 
Q 434 634 434 1313 
Q 434 1759 690 2068 
Q 947 2378 1403 2484 
z
M 1172 3481 
Q 1172 3119 1398 2916 
Q 1625 2713 2034 2713 
Q 2441 2713 2670 2916 
Q 2900 3119 2900 3481 
Q 2900 3844 2670 4047 
Q 2441 4250 2034 4250 
Q 1625 4250 1398 4047 
Q 1172 3844 1172 3481 
z
" transform="scale(0.015625)"/>
       </defs>
       <use xlink:href="#DejaVuSans-30"/>
       <use xlink:href="#DejaVuSans-2e" transform="translate(63.623047 0)"/>
       <use xlink:href="#DejaVuSans-38" transform="translate(95.410156 0)"/>
      </g>
     </g>
    </g>
    <g id="ytick_5">
     <g id="line2d_8">
      <g>
       <use xlink:href="#m44608a86b0" x="46.068" y="95.313333" style="fill: #262626; stroke: #262626"/>
      </g>
     </g>
     <g id="text_8">
      <!-- 0.9 -->
      <g style="fill: #262626" transform="translate(23.77325 98.656646) scale(0.088 -0.088)">
       <defs>
        <path id="DejaVuSans-39" d="M 703 97 
L 703 672 
Q 941 559 1184 500 
Q 1428 441 1663 441 
Q 2288 441 2617 861 
Q 2947 1281 2994 2138 
Q 2813 1869 2534 1725 
Q 2256 1581 1919 1581 
Q 1219 1581 811 2004 
Q 403 2428 403 3163 
Q 403 3881 828 4315 
Q 1253 4750 1959 4750 
Q 2769 4750 3195 4129 
Q 3622 3509 3622 2328 
Q 3622 1225 3098 567 
Q 2575 -91 1691 -91 
Q 1453 -91 1209 -44 
Q 966 3 703 97 
z
M 1959 2075 
Q 2384 2075 2632 2365 
Q 2881 2656 2881 3163 
Q 2881 3666 2632 3958 
Q 2384 4250 1959 4250 
Q 1534 4250 1286 3958 
Q 1038 3666 1038 3163 
Q 1038 2656 1286 2365 
Q 1534 2075 1959 2075 
z
" transform="scale(0.015625)"/>
       </defs>
       <use xlink:href="#DejaVuSans-30"/>
       <use xlink:href="#DejaVuSans-2e" transform="translate(63.623047 0)"/>
       <use xlink:href="#DejaVuSans-39" transform="translate(95.410156 0)"/>
      </g>
     </g>
    </g>
    <g id="ytick_6">
     <g id="line2d_9">
      <g>
       <use xlink:href="#m44608a86b0" x="46.068" y="59.440667" style="fill: #262626; stroke: #262626"/>
      </g>
     </g>
     <g id="text_9">
      <!-- 1.0 -->
      <g style="fill: #262626" transform="translate(23.77325 62.783979) scale(0.088 -0.088)">
       <defs>
        <path id="DejaVuSans-31" d="M 794 531 
L 1825 531 
L 1825 4091 
L 703 3866 
L 703 4441 
L 1819 4666 
L 2450 4666 
L 2450 531 
L 3481 531 
L 3481 0 
L 794 0 
L 794 531 
z
" transform="scale(0.015625)"/>
       </defs>
       <use xlink:href="#DejaVuSans-31"/>
       <use xlink:href="#DejaVuSans-2e" transform="translate(63.623047 0)"/>
       <use xlink:href="#DejaVuSans-30" transform="translate(95.410156 0)"/>
      </g>
     </g>
    </g>
    <g id="ytick_7">
     <g id="line2d_10">
      <g>
       <use xlink:href="#m44608a86b0" x="46.068" y="23.568" style="fill: #262626; stroke: #262626"/>
      </g>
     </g>
     <g id="text_10">
      <!-- 1.1 -->
      <g style="fill: #262626" transform="translate(23.77325 26.911313) scale(0.088 -0.088)">
       <use xlink:href="#DejaVuSans-31"/>
       <use xlink:href="#DejaVuSans-2e" transform="translate(63.623047 0)"/>
       <use xlink:href="#DejaVuSans-31" transform="translate(95.410156 0)"/>
      </g>
     </g>
    </g>
    <g id="text_11">
     <!-- Probability of correct response -->
     <g style="fill: #262626" transform="translate(17.77675 204.36575) rotate(-90) scale(0.096 -0.096)">
      <defs>
       <path id="DejaVuSans-50" d="M 1259 4147 
L 1259 2394 
L 2053 2394 
Q 2494 2394 2734 2622 
Q 2975 2850 2975 3272 
Q 2975 3691 2734 3919 
Q 2494 4147 2053 4147 
L 1259 4147 
z
M 628 4666 
L 2053 4666 
Q 2838 4666 3239 4311 
Q 3641 3956 3641 3272 
Q 3641 2581 3239 2228 
Q 2838 1875 2053 1875 
L 1259 1875 
L 1259 0 
L 628 0 
L 628 4666 
z
" transform="scale(0.015625)"/>
       <path id="DejaVuSans-72" d="M 2631 2963 
Q 2534 3019 2420 3045 
Q 2306 3072 2169 3072 
Q 1681 3072 1420 2755 
Q 1159 2438 1159 1844 
L 1159 0 
L 581 0 
L 581 3500 
L 1159 3500 
L 1159 2956 
Q 1341 3275 1631 3429 
Q 1922 3584 2338 3584 
Q 2397 3584 2469 3576 
Q 2541 3569 2628 3553 
L 2631 2963 
z
" transform="scale(0.015625)"/>
       <path id="DejaVuSans-62" d="M 3116 1747 
Q 3116 2381 2855 2742 
Q 2594 3103 2138 3103 
Q 1681 3103 1420 2742 
Q 1159 2381 1159 1747 
Q 1159 1113 1420 752 
Q 1681 391 2138 391 
Q 2594 391 2855 752 
Q 3116 1113 3116 1747 
z
M 1159 2969 
Q 1341 3281 1617 3432 
Q 1894 3584 2278 3584 
Q 2916 3584 3314 3078 
Q 3713 2572 3713 1747 
Q 3713 922 3314 415 
Q 2916 -91 2278 -91 
Q 1894 -91 1617 61 
Q 1341 213 1159 525 
L 1159 0 
L 581 0 
L 581 4863 
L 1159 4863 
L 1159 2969 
z
" transform="scale(0.015625)"/>
       <path id="DejaVuSans-61" d="M 2194 1759 
Q 1497 1759 1228 1600 
Q 959 1441 959 1056 
Q 959 750 1161 570 
Q 1363 391 1709 391 
Q 2188 391 2477 730 
Q 2766 1069 2766 1631 
L 2766 1759 
L 2194 1759 
z
M 3341 1997 
L 3341 0 
L 2766 0 
L 2766 531 
Q 2569 213 2275 61 
Q 1981 -91 1556 -91 
Q 1019 -91 701 211 
Q 384 513 384 1019 
Q 384 1609 779 1909 
Q 1175 2209 1959 2209 
L 2766 2209 
L 2766 2266 
Q 2766 2663 2505 2880 
Q 2244 3097 1772 3097 
Q 1472 3097 1187 3025 
Q 903 2953 641 2809 
L 641 3341 
Q 956 3463 1253 3523 
Q 1550 3584 1831 3584 
Q 2591 3584 2966 3190 
Q 3341 2797 3341 1997 
z
" transform="scale(0.015625)"/>
       <path id="DejaVuSans-6c" d="M 603 4863 
L 1178 4863 
L 1178 0 
L 603 0 
L 603 4863 
z
" transform="scale(0.015625)"/>
       <path id="DejaVuSans-74" d="M 1172 4494 
L 1172 3500 
L 2356 3500 
L 2356 3053 
L 1172 3053 
L 1172 1153 
Q 1172 725 1289 603 
Q 1406 481 1766 481 
L 2356 481 
L 2356 0 
L 1766 0 
Q 1100 0 847 248 
Q 594 497 594 1153 
L 594 3053 
L 172 3053 
L 172 3500 
L 594 3500 
L 594 4494 
L 1172 4494 
z
" transform="scale(0.015625)"/>
       <path id="DejaVuSans-79" d="M 2059 -325 
Q 1816 -950 1584 -1140 
Q 1353 -1331 966 -1331 
L 506 -1331 
L 506 -850 
L 844 -850 
Q 1081 -850 1212 -737 
Q 1344 -625 1503 -206 
L 1606 56 
L 191 3500 
L 800 3500 
L 1894 763 
L 2988 3500 
L 3597 3500 
L 2059 -325 
z
" transform="scale(0.015625)"/>
       <path id="DejaVuSans-20" transform="scale(0.015625)"/>
       <path id="DejaVuSans-66" d="M 2375 4863 
L 2375 4384 
L 1825 4384 
Q 1516 4384 1395 4259 
Q 1275 4134 1275 3809 
L 1275 3500 
L 2222 3500 
L 2222 3053 
L 1275 3053 
L 1275 0 
L 697 0 
L 697 3053 
L 147 3053 
L 147 3500 
L 697 3500 
L 697 3744 
Q 697 4328 969 4595 
Q 1241 4863 1831 4863 
L 2375 4863 
z
" transform="scale(0.015625)"/>
       <path id="DejaVuSans-63" d="M 3122 3366 
L 3122 2828 
Q 2878 2963 2633 3030 
Q 2388 3097 2138 3097 
Q 1578 3097 1268 2742 
Q 959 2388 959 1747 
Q 959 1106 1268 751 
Q 1578 397 2138 397 
Q 2388 397 2633 464 
Q 2878 531 3122 666 
L 3122 134 
Q 2881 22 2623 -34 
Q 2366 -91 2075 -91 
Q 1284 -91 818 406 
Q 353 903 353 1747 
Q 353 2603 823 3093 
Q 1294 3584 2113 3584 
Q 2378 3584 2631 3529 
Q 2884 3475 3122 3366 
z
" transform="scale(0.015625)"/>
       <path id="DejaVuSans-73" d="M 2834 3397 
L 2834 2853 
Q 2591 2978 2328 3040 
Q 2066 3103 1784 3103 
Q 1356 3103 1142 2972 
Q 928 2841 928 2578 
Q 928 2378 1081 2264 
Q 1234 2150 1697 2047 
L 1894 2003 
Q 2506 1872 2764 1633 
Q 3022 1394 3022 966 
Q 3022 478 2636 193 
Q 2250 -91 1575 -91 
Q 1294 -91 989 -36 
Q 684 19 347 128 
L 347 722 
Q 666 556 975 473 
Q 1284 391 1588 391 
Q 1994 391 2212 530 
Q 2431 669 2431 922 
Q 2431 1156 2273 1281 
Q 2116 1406 1581 1522 
L 1381 1569 
Q 847 1681 609 1914 
Q 372 2147 372 2553 
Q 372 3047 722 3315 
Q 1072 3584 1716 3584 
Q 2034 3584 2315 3537 
Q 2597 3491 2834 3397 
z
" transform="scale(0.015625)"/>
       <path id="DejaVuSans-70" d="M 1159 525 
L 1159 -1331 
L 581 -1331 
L 581 3500 
L 1159 3500 
L 1159 2969 
Q 1341 3281 1617 3432 
Q 1894 3584 2278 3584 
Q 2916 3584 3314 3078 
Q 3713 2572 3713 1747 
Q 3713 922 3314 415 
Q 2916 -91 2278 -91 
Q 1894 -91 1617 61 
Q 1341 213 1159 525 
z
M 3116 1747 
Q 3116 2381 2855 2742 
Q 2594 3103 2138 3103 
Q 1681 3103 1420 2742 
Q 1159 2381 1159 1747 
Q 1159 1113 1420 752 
Q 1681 391 2138 391 
Q 2594 391 2855 752 
Q 3116 1113 3116 1747 
z
" transform="scale(0.015625)"/>
       <path id="DejaVuSans-6e" d="M 3513 2113 
L 3513 0 
L 2938 0 
L 2938 2094 
Q 2938 2591 2744 2837 
Q 2550 3084 2163 3084 
Q 1697 3084 1428 2787 
Q 1159 2491 1159 1978 
L 1159 0 
L 581 0 
L 581 3500 
L 1159 3500 
L 1159 2956 
Q 1366 3272 1645 3428 
Q 1925 3584 2291 3584 
Q 2894 3584 3203 3211 
Q 3513 2838 3513 2113 
z
" transform="scale(0.015625)"/>
      </defs>
      <use xlink:href="#DejaVuSans-50"/>
      <use xlink:href="#DejaVuSans-72" transform="translate(58.552734 0)"/>
      <use xlink:href="#DejaVuSans-6f" transform="translate(97.416016 0)"/>
      <use xlink:href="#DejaVuSans-62" transform="translate(158.597656 0)"/>
      <use xlink:href="#DejaVuSans-61" transform="translate(222.074219 0)"/>
      <use xlink:href="#DejaVuSans-62" transform="translate(283.353516 0)"/>
      <use xlink:href="#DejaVuSans-69" transform="translate(346.830078 0)"/>
      <use xlink:href="#DejaVuSans-6c" transform="translate(374.613281 0)"/>
      <use xlink:href="#DejaVuSans-69" transform="translate(402.396484 0)"/>
      <use xlink:href="#DejaVuSans-74" transform="translate(430.179688 0)"/>
      <use xlink:href="#DejaVuSans-79" transform="translate(469.388672 0)"/>
      <use xlink:href="#DejaVuSans-20" transform="translate(528.568359 0)"/>
      <use xlink:href="#DejaVuSans-6f" transform="translate(560.355469 0)"/>
      <use xlink:href="#DejaVuSans-66" transform="translate(621.537109 0)"/>
      <use xlink:href="#DejaVuSans-20" transform="translate(656.742188 0)"/>
      <use xlink:href="#DejaVuSans-63" transform="translate(688.529297 0)"/>
      <use xlink:href="#DejaVuSans-6f" transform="translate(743.509766 0)"/>
      <use xlink:href="#DejaVuSans-72" transform="translate(804.691406 0)"/>
      <use xlink:href="#DejaVuSans-72" transform="translate(844.054688 0)"/>
      <use xlink:href="#DejaVuSans-65" transform="translate(882.917969 0)"/>
      <use xlink:href="#DejaVuSans-63" transform="translate(944.441406 0)"/>
      <use xlink:href="#DejaVuSans-74" transform="translate(999.421875 0)"/>
      <use xlink:href="#DejaVuSans-20" transform="translate(1038.630859 0)"/>
      <use xlink:href="#DejaVuSans-72" transform="translate(1070.417969 0)"/>
      <use xlink:href="#DejaVuSans-65" transform="translate(1109.28125 0)"/>
      <use xlink:href="#DejaVuSans-73" transform="translate(1170.804688 0)"/>
      <use xlink:href="#DejaVuSans-70" transform="translate(1222.904297 0)"/>
      <use xlink:href="#DejaVuSans-6f" transform="translate(1286.380859 0)"/>
      <use xlink:href="#DejaVuSans-6e" transform="translate(1347.5625 0)"/>
      <use xlink:href="#DejaVuSans-73" transform="translate(1410.941406 0)"/>
      <use xlink:href="#DejaVuSans-65" transform="translate(1463.041016 0)"/>
     </g>
    </g>
   </g>
   <g id="FillBetweenPolyCollection_1">
    <defs>
     <path id="m245f21ebd5" d="M 99.294788 -141.350094 
L 81.274277 -141.350094 
L 81.061667 -141.829589 
L 80.853118 -142.309085 
L 80.648563 -142.78858 
L 80.447877 -143.268076 
L 80.250875 -143.747571 
L 80.057317 -144.227067 
L 79.866905 -144.706562 
L 79.67929 -145.186058 
L 79.494076 -145.665553 
L 79.310818 -146.145049 
L 79.129029 -146.624544 
L 78.948186 -147.10404 
L 78.767729 -147.583536 
L 78.58707 -148.063031 
L 78.405596 -148.542527 
L 78.22267 -149.022022 
L 78.037642 -149.501518 
L 77.849848 -149.981013 
L 77.658617 -150.460509 
L 77.463276 -150.940004 
L 77.263152 -151.4195 
L 77.057579 -151.898995 
L 76.845899 -152.378491 
L 76.627471 -152.857986 
L 76.401671 -153.337482 
L 76.167897 -153.816978 
L 75.925574 -154.296473 
L 75.674156 -154.775969 
L 75.413134 -155.255464 
L 75.142035 -155.73496 
L 74.860428 -156.214455 
L 74.567928 -156.693951 
L 74.264199 -157.173446 
L 73.948959 -157.652942 
L 73.621983 -158.132437 
L 73.283103 -158.611933 
L 72.93222 -159.091428 
L 72.569299 -159.570924 
L 72.194376 -160.050419 
L 71.807561 -160.529915 
L 71.409043 -161.009411 
L 70.999088 -161.488906 
L 70.578047 -161.968402 
L 70.146354 -162.447897 
L 69.70453 -162.927393 
L 69.253187 -163.406888 
L 68.793024 -163.886384 
L 68.324835 -164.365879 
L 67.849502 -164.845375 
L 67.368001 -165.32487 
L 66.881399 -165.804366 
L 66.390851 -166.283861 
L 65.897605 -166.763357 
L 65.402991 -167.242853 
L 64.908423 -167.722348 
L 64.415396 -168.201844 
L 63.925479 -168.681339 
L 63.440311 -169.160835 
L 62.961594 -169.64033 
L 62.491089 -170.119826 
L 62.030606 -170.599321 
L 61.581995 -171.078817 
L 61.147143 -171.558312 
L 60.727955 -172.037808 
L 60.326354 -172.517303 
L 59.944261 -172.996799 
L 59.58359 -173.476295 
L 59.246235 -173.95579 
L 58.934054 -174.435286 
L 58.648863 -174.914781 
L 58.392416 -175.394277 
L 58.166399 -175.873772 
L 57.972412 -176.353268 
L 57.81196 -176.832763 
L 57.68644 -177.312259 
L 57.597126 -177.791754 
L 57.545161 -178.27125 
L 57.531545 -178.750745 
L 57.557127 -179.230241 
L 57.622592 -179.709737 
L 57.728456 -180.189232 
L 57.875057 -180.668728 
L 58.062552 -181.148223 
L 58.290911 -181.627719 
L 58.559913 -182.107214 
L 58.869147 -182.58671 
L 59.21801 -183.066205 
L 59.605709 -183.545701 
L 60.031265 -184.025196 
L 60.493517 -184.504692 
L 60.991127 -184.984187 
L 61.522591 -185.463683 
L 62.086243 -185.943178 
L 62.680269 -186.422674 
L 63.302721 -186.90217 
L 63.951523 -187.381665 
L 64.624489 -187.861161 
L 65.319338 -188.340656 
L 66.03371 -188.820152 
L 114.535355 -188.820152 
L 114.535355 -188.820152 
L 115.249726 -188.340656 
L 115.944576 -187.861161 
L 116.617542 -187.381665 
L 117.266344 -186.90217 
L 117.888795 -186.422674 
L 118.482822 -185.943178 
L 119.046474 -185.463683 
L 119.577938 -184.984187 
L 120.075548 -184.504692 
L 120.5378 -184.025196 
L 120.963356 -183.545701 
L 121.351055 -183.066205 
L 121.699918 -182.58671 
L 122.009152 -182.107214 
L 122.278154 -181.627719 
L 122.506513 -181.148223 
L 122.694008 -180.668728 
L 122.840609 -180.189232 
L 122.946473 -179.709737 
L 123.011937 -179.230241 
L 123.037519 -178.750745 
L 123.023904 -178.27125 
L 122.971939 -177.791754 
L 122.882625 -177.312259 
L 122.757105 -176.832763 
L 122.596653 -176.353268 
L 122.402666 -175.873772 
L 122.176649 -175.394277 
L 121.920202 -174.914781 
L 121.635011 -174.435286 
L 121.32283 -173.95579 
L 120.985475 -173.476295 
L 120.624804 -172.996799 
L 120.242711 -172.517303 
L 119.84111 -172.037808 
L 119.421922 -171.558312 
L 118.987069 -171.078817 
L 118.538459 -170.599321 
L 118.077976 -170.119826 
L 117.607471 -169.64033 
L 117.128754 -169.160835 
L 116.643586 -168.681339 
L 116.153669 -168.201844 
L 115.660642 -167.722348 
L 115.166074 -167.242853 
L 114.67146 -166.763357 
L 114.178213 -166.283861 
L 113.687666 -165.804366 
L 113.201064 -165.32487 
L 112.719563 -164.845375 
L 112.24423 -164.365879 
L 111.776041 -163.886384 
L 111.315878 -163.406888 
L 110.864535 -162.927393 
L 110.422711 -162.447897 
L 109.991018 -161.968402 
L 109.569976 -161.488906 
L 109.160022 -161.009411 
L 108.761504 -160.529915 
L 108.374689 -160.050419 
L 107.999766 -159.570924 
L 107.636845 -159.091428 
L 107.285962 -158.611933 
L 106.947082 -158.132437 
L 106.620106 -157.652942 
L 106.304866 -157.173446 
L 106.001137 -156.693951 
L 105.708637 -156.214455 
L 105.42703 -155.73496 
L 105.155931 -155.255464 
L 104.894909 -154.775969 
L 104.643491 -154.296473 
L 104.401168 -153.816978 
L 104.167394 -153.337482 
L 103.941594 -152.857986 
L 103.723166 -152.378491 
L 103.511486 -151.898995 
L 103.305913 -151.4195 
L 103.105789 -150.940004 
L 102.910448 -150.460509 
L 102.719217 -149.981013 
L 102.531423 -149.501518 
L 102.346395 -149.022022 
L 102.163469 -148.542527 
L 101.981994 -148.063031 
L 101.801336 -147.583536 
L 101.620879 -147.10404 
L 101.440036 -146.624544 
L 101.258247 -146.145049 
L 101.074989 -145.665553 
L 100.889775 -145.186058 
L 100.70216 -144.706562 
L 100.511748 -144.227067 
L 100.31819 -143.747571 
L 100.121188 -143.268076 
L 99.920502 -142.78858 
L 99.715947 -142.309085 
L 99.507397 -141.829589 
L 99.294788 -141.350094 
z
" style="stroke: #2f2f2f"/>
    </defs>
    <g clip-path="url(#p2b4144610f)">
     <use xlink:href="#m245f21ebd5" x="0" y="288" style="fill: #58b2a3; stroke: #2f2f2f"/>
    </g>
   </g>
   <g id="FillBetweenPolyCollection_2">
    <defs>
     <path id="mb4ce4bb1f1" d="M 183.423087 -141.350094 
L 160.910913 -141.350094 
L 160.529891 -142.031797 
L 160.141674 -142.713501 
L 159.745756 -143.395205 
L 159.341621 -144.076908 
L 158.928764 -144.758612 
L 158.506695 -145.440316 
L 158.074961 -146.122019 
L 157.633154 -146.803723 
L 157.180932 -147.485427 
L 156.718025 -148.16713 
L 156.244253 -148.848834 
L 155.759541 -149.530538 
L 155.263923 -150.212241 
L 154.757559 -150.893945 
L 154.240744 -151.575649 
L 153.713908 -152.257352 
L 153.17763 -152.939056 
L 152.632636 -153.62076 
L 152.0798 -154.302463 
L 151.520146 -154.984167 
L 150.954842 -155.665871 
L 150.385195 -156.347574 
L 149.812645 -157.029278 
L 149.23875 -157.710982 
L 148.665179 -158.392685 
L 148.093698 -159.074389 
L 147.526149 -159.756093 
L 146.964439 -160.437796 
L 146.410516 -161.1195 
L 145.866356 -161.801204 
L 145.333936 -162.482908 
L 144.815217 -163.164611 
L 144.312124 -163.846315 
L 143.82652 -164.528019 
L 143.360193 -165.209722 
L 142.914831 -165.891426 
L 142.492004 -166.57313 
L 142.09315 -167.254833 
L 141.719553 -167.936537 
L 141.372337 -168.618241 
L 141.052446 -169.299944 
L 140.760642 -169.981648 
L 140.497489 -170.663352 
L 140.263355 -171.345055 
L 140.058408 -172.026759 
L 139.882612 -172.708463 
L 139.735734 -173.390166 
L 139.61735 -174.07187 
L 139.52685 -174.753574 
L 139.463448 -175.435277 
L 139.4262 -176.116981 
L 139.414013 -176.798685 
L 139.425665 -177.480388 
L 139.459824 -178.162092 
L 139.515066 -178.843796 
L 139.5899 -179.525499 
L 139.682786 -180.207203 
L 139.792162 -180.888907 
L 139.916462 -181.57061 
L 140.054146 -182.252314 
L 140.203717 -182.934018 
L 140.363743 -183.615721 
L 140.532881 -184.297425 
L 140.709894 -184.979129 
L 140.893667 -185.660832 
L 141.083223 -186.342536 
L 141.277738 -187.02424 
L 141.476549 -187.705943 
L 141.67916 -188.387647 
L 141.885253 -189.069351 
L 142.09468 -189.751055 
L 142.307473 -190.432758 
L 142.52383 -191.114462 
L 142.744115 -191.796166 
L 142.968842 -192.477869 
L 143.198668 -193.159573 
L 143.434376 -193.841277 
L 143.676856 -194.52298 
L 143.927089 -195.204684 
L 144.186125 -195.886388 
L 144.455061 -196.568091 
L 144.735019 -197.249795 
L 145.027124 -197.931499 
L 145.33248 -198.613202 
L 145.652144 -199.294906 
L 145.987112 -199.97661 
L 146.33829 -200.658313 
L 146.706479 -201.340017 
L 147.092355 -202.021721 
L 147.496454 -202.703424 
L 147.919161 -203.385128 
L 148.360692 -204.066832 
L 148.821095 -204.748535 
L 149.300235 -205.430239 
L 149.797797 -206.111943 
L 150.313284 -206.793646 
L 150.846019 -207.47535 
L 151.39515 -208.157054 
L 151.959658 -208.838757 
L 192.374342 -208.838757 
L 192.374342 -208.838757 
L 192.93885 -208.157054 
L 193.487981 -207.47535 
L 194.020716 -206.793646 
L 194.536203 -206.111943 
L 195.033765 -205.430239 
L 195.512905 -204.748535 
L 195.973308 -204.066832 
L 196.414839 -203.385128 
L 196.837546 -202.703424 
L 197.241645 -202.021721 
L 197.627521 -201.340017 
L 197.99571 -200.658313 
L 198.346888 -199.97661 
L 198.681856 -199.294906 
L 199.00152 -198.613202 
L 199.306876 -197.931499 
L 199.598981 -197.249795 
L 199.878939 -196.568091 
L 200.147875 -195.886388 
L 200.406911 -195.204684 
L 200.657144 -194.52298 
L 200.899624 -193.841277 
L 201.135332 -193.159573 
L 201.365158 -192.477869 
L 201.589885 -191.796166 
L 201.81017 -191.114462 
L 202.026527 -190.432758 
L 202.23932 -189.751055 
L 202.448747 -189.069351 
L 202.65484 -188.387647 
L 202.857451 -187.705943 
L 203.056262 -187.02424 
L 203.250777 -186.342536 
L 203.440333 -185.660832 
L 203.624106 -184.979129 
L 203.801119 -184.297425 
L 203.970257 -183.615721 
L 204.130283 -182.934018 
L 204.279854 -182.252314 
L 204.417538 -181.57061 
L 204.541838 -180.888907 
L 204.651214 -180.207203 
L 204.7441 -179.525499 
L 204.818934 -178.843796 
L 204.874176 -178.162092 
L 204.908335 -177.480388 
L 204.919987 -176.798685 
L 204.9078 -176.116981 
L 204.870552 -175.435277 
L 204.80715 -174.753574 
L 204.71665 -174.07187 
L 204.598266 -173.390166 
L 204.451388 -172.708463 
L 204.275592 -172.026759 
L 204.070645 -171.345055 
L 203.836511 -170.663352 
L 203.573358 -169.981648 
L 203.281554 -169.299944 
L 202.961663 -168.618241 
L 202.614447 -167.936537 
L 202.24085 -167.254833 
L 201.841996 -166.57313 
L 201.419169 -165.891426 
L 200.973807 -165.209722 
L 200.50748 -164.528019 
L 200.021876 -163.846315 
L 199.518783 -163.164611 
L 199.000064 -162.482908 
L 198.467644 -161.801204 
L 197.923484 -161.1195 
L 197.369561 -160.437796 
L 196.807851 -159.756093 
L 196.240302 -159.074389 
L 195.668821 -158.392685 
L 195.09525 -157.710982 
L 194.521355 -157.029278 
L 193.948805 -156.347574 
L 193.379158 -155.665871 
L 192.813854 -154.984167 
L 192.2542 -154.302463 
L 191.701364 -153.62076 
L 191.15637 -152.939056 
L 190.620092 -152.257352 
L 190.093256 -151.575649 
L 189.576441 -150.893945 
L 189.070077 -150.212241 
L 188.574459 -149.530538 
L 188.089747 -148.848834 
L 187.615975 -148.16713 
L 187.153068 -147.485427 
L 186.700846 -146.803723 
L 186.259039 -146.122019 
L 185.827305 -145.440316 
L 185.405236 -144.758612 
L 184.992379 -144.076908 
L 184.588244 -143.395205 
L 184.192326 -142.713501 
L 183.804109 -142.031797 
L 183.423087 -141.350094 
z
" style="stroke: #2f2f2f"/>
    </defs>
    <g clip-path="url(#p2b4144610f)">
     <use xlink:href="#mb4ce4bb1f1" x="0" y="288" style="fill: #437695; stroke: #2f2f2f"/>
    </g>
   </g>
   <g id="FillBetweenPolyCollection_3">
    <defs>
     <path id="m9cc17a1dd6" d="M 276.042021 -152.007241 
L 232.056914 -152.007241 
L 231.553197 -152.617762 
L 231.067217 -153.228283 
L 230.599554 -153.838805 
L 230.150628 -154.449326 
L 229.720699 -155.059847 
L 229.309867 -155.670369 
L 228.918071 -156.28089 
L 228.545094 -156.891411 
L 228.190567 -157.501933 
L 227.853979 -158.112454 
L 227.534681 -158.722976 
L 227.231901 -159.333497 
L 226.944756 -159.944018 
L 226.672263 -160.55454 
L 226.41336 -161.165061 
L 226.166917 -161.775582 
L 225.931759 -162.386104 
L 225.706681 -162.996625 
L 225.490473 -163.607146 
L 225.281934 -164.217668 
L 225.079899 -164.828189 
L 224.883255 -165.43871 
L 224.690963 -166.049232 
L 224.50208 -166.659753 
L 224.315774 -167.270274 
L 224.131345 -167.880796 
L 223.948239 -168.491317 
L 223.766065 -169.101838 
L 223.584607 -169.71236 
L 223.403832 -170.322881 
L 223.2239 -170.933403 
L 223.04517 -171.543924 
L 222.868199 -172.154445 
L 222.693744 -172.764967 
L 222.522755 -173.375488 
L 222.35637 -173.986009 
L 222.195905 -174.596531 
L 222.042836 -175.207052 
L 221.898787 -175.817573 
L 221.765508 -176.428095 
L 221.644855 -177.038616 
L 221.538761 -177.649137 
L 221.449213 -178.259659 
L 221.378224 -178.87018 
L 221.327802 -179.480701 
L 221.299918 -180.091223 
L 221.296481 -180.701744 
L 221.319301 -181.312265 
L 221.370066 -181.922787 
L 221.450309 -182.533308 
L 221.561382 -183.14383 
L 221.704435 -183.754351 
L 221.880388 -184.364872 
L 222.089921 -184.975394 
L 222.33345 -185.585915 
L 222.61112 -186.196436 
L 222.922799 -186.806958 
L 223.268068 -187.417479 
L 223.64623 -188.028 
L 224.056308 -188.638522 
L 224.497055 -189.249043 
L 224.966972 -189.859564 
L 225.464318 -190.470086 
L 225.987133 -191.080607 
L 226.533264 -191.691128 
L 227.100384 -192.30165 
L 227.686029 -192.912171 
L 228.287622 -193.522692 
L 228.902505 -194.133214 
L 229.527974 -194.743735 
L 230.161309 -195.354257 
L 230.799807 -195.964778 
L 231.440813 -196.575299 
L 232.081752 -197.185821 
L 232.720151 -197.796342 
L 233.353672 -198.406863 
L 233.980131 -199.017385 
L 234.59752 -199.627906 
L 235.204023 -200.238427 
L 235.79803 -200.848949 
L 236.378148 -201.45947 
L 236.943206 -202.069991 
L 237.49226 -202.680513 
L 238.024591 -203.291034 
L 238.539704 -203.901555 
L 239.037314 -204.512077 
L 239.517346 -205.122598 
L 239.979914 -205.733119 
L 240.42531 -206.343641 
L 240.853988 -206.954162 
L 241.266542 -207.564683 
L 241.66369 -208.175205 
L 242.046248 -208.785726 
L 242.415118 -209.396248 
L 242.771258 -210.006769 
L 243.115667 -210.61729 
L 243.44936 -211.227812 
L 243.773356 -211.838333 
L 244.088652 -212.448854 
L 264.010283 -212.448854 
L 264.010283 -212.448854 
L 264.325579 -211.838333 
L 264.649575 -211.227812 
L 264.983268 -210.61729 
L 265.327677 -210.006769 
L 265.683817 -209.396248 
L 266.052687 -208.785726 
L 266.435246 -208.175205 
L 266.832393 -207.564683 
L 267.244947 -206.954162 
L 267.673625 -206.343641 
L 268.119021 -205.733119 
L 268.581589 -205.122598 
L 269.061621 -204.512077 
L 269.559232 -203.901555 
L 270.074344 -203.291034 
L 270.606675 -202.680513 
L 271.155729 -202.069991 
L 271.720787 -201.45947 
L 272.300905 -200.848949 
L 272.894912 -200.238427 
L 273.501415 -199.627906 
L 274.118804 -199.017385 
L 274.745263 -198.406863 
L 275.378784 -197.796342 
L 276.017183 -197.185821 
L 276.658122 -196.575299 
L 277.299128 -195.964778 
L 277.937627 -195.354257 
L 278.570962 -194.743735 
L 279.19643 -194.133214 
L 279.811313 -193.522692 
L 280.412906 -192.912171 
L 280.998551 -192.30165 
L 281.565671 -191.691128 
L 282.111802 -191.080607 
L 282.634617 -190.470086 
L 283.131963 -189.859564 
L 283.60188 -189.249043 
L 284.042627 -188.638522 
L 284.452705 -188.028 
L 284.830867 -187.417479 
L 285.176136 -186.806958 
L 285.487815 -186.196436 
L 285.765485 -185.585915 
L 286.009014 -184.975394 
L 286.218547 -184.364872 
L 286.3945 -183.754351 
L 286.537553 -183.14383 
L 286.648626 -182.533308 
L 286.728869 -181.922787 
L 286.779634 -181.312265 
L 286.802455 -180.701744 
L 286.799017 -180.091223 
L 286.771133 -179.480701 
L 286.720711 -178.87018 
L 286.649722 -178.259659 
L 286.560174 -177.649137 
L 286.45408 -177.038616 
L 286.333427 -176.428095 
L 286.200148 -175.817573 
L 286.0561 -175.207052 
L 285.903031 -174.596531 
L 285.742565 -173.986009 
L 285.57618 -173.375488 
L 285.405191 -172.764967 
L 285.230736 -172.154445 
L 285.053765 -171.543924 
L 284.875035 -170.933403 
L 284.695103 -170.322881 
L 284.514328 -169.71236 
L 284.33287 -169.101838 
L 284.150696 -168.491317 
L 283.96759 -167.880796 
L 283.783161 -167.270274 
L 283.596855 -166.659753 
L 283.407972 -166.049232 
L 283.21568 -165.43871 
L 283.019036 -164.828189 
L 282.817001 -164.217668 
L 282.608462 -163.607146 
L 282.392254 -162.996625 
L 282.167176 -162.386104 
L 281.932018 -161.775582 
L 281.685575 -161.165061 
L 281.426672 -160.55454 
L 281.154179 -159.944018 
L 280.867034 -159.333497 
L 280.564254 -158.722976 
L 280.244956 -158.112454 
L 279.908368 -157.501933 
L 279.553841 -156.891411 
L 279.180864 -156.28089 
L 278.789068 -155.670369 
L 278.378236 -155.059847 
L 277.948307 -154.449326 
L 277.499381 -153.838805 
L 277.031718 -153.228283 
L 276.545738 -152.617762 
L 276.042021 -152.007241 
z
" style="stroke: #2f2f2f"/>
    </defs>
    <g clip-path="url(#p2b4144610f)">
     <use xlink:href="#m9cc17a1dd6" x="0" y="288" style="fill: #423b63; stroke: #2f2f2f"/>
    </g>
   </g>
   <g id="line2d_11">
    <path d="M 90.284532 146.649906 
L 90.284532 99.179848 
" clip-path="url(#p2b4144610f)" style="fill: none; stroke: #2f2f2f; stroke-width: 1.5; stroke-linecap: round"/>
   </g>
   <g id="line2d_12">
    <path d="M 90.284532 122.69222 
L 90.284532 106.394419 
" clip-path="url(#p2b4144610f)" style="fill: none; stroke: #2f2f2f; stroke-width: 4.5; stroke-linecap: round"/>
   </g>
   <g id="line2d_13">
    <path d="M 90.284532 110.431739 
" clip-path="url(#p2b4144610f)" style="fill: none; stroke: #2f2f2f; stroke-width: 1.2; stroke-linecap: round"/>
    <defs>
     <path id="mea05df23b6" d="M 1.875 0 
L -1.875 -0 
" style="stroke: #ffffff; stroke-width: 0.9"/>
    </defs>
    <g clip-path="url(#p2b4144610f)">
     <use xlink:href="#mea05df23b6" x="90.284532" y="110.431739" style="fill: #ffffff; stroke: #ffffff; stroke-width: 0.9"/>
    </g>
   </g>
   <g id="line2d_14">
    <path d="M 172.167 146.649906 
L 172.167 79.161243 
" clip-path="url(#p2b4144610f)" style="fill: none; stroke: #2f2f2f; stroke-width: 1.5; stroke-linecap: round"/>
   </g>
   <g id="line2d_15">
    <path d="M 172.167 121.706694 
L 172.167 89.856394 
" clip-path="url(#p2b4144610f)" style="fill: none; stroke: #2f2f2f; stroke-width: 4.5; stroke-linecap: round"/>
   </g>
   <g id="line2d_16">
    <path d="M 172.167 110.945503 
" clip-path="url(#p2b4144610f)" style="fill: none; stroke: #2f2f2f; stroke-width: 1.2; stroke-linecap: round"/>
    <g clip-path="url(#p2b4144610f)">
     <use xlink:href="#mea05df23b6" x="172.167" y="110.945503" style="fill: #ffffff; stroke: #ffffff; stroke-width: 0.9"/>
    </g>
   </g>
   <g id="line2d_17">
    <path d="M 254.049468 135.992759 
L 254.049468 75.551146 
" clip-path="url(#p2b4144610f)" style="fill: none; stroke: #2f2f2f; stroke-width: 1.5; stroke-linecap: round"/>
   </g>
   <g id="line2d_18">
    <path d="M 254.049468 122.69222 
L 254.049468 100.160991 
" clip-path="url(#p2b4144610f)" style="fill: none; stroke: #2f2f2f; stroke-width: 4.5; stroke-linecap: round"/>
   </g>
   <g id="line2d_19">
    <path d="M 254.049468 106.618119 
" clip-path="url(#p2b4144610f)" style="fill: none; stroke: #2f2f2f; stroke-width: 1.2; stroke-linecap: round"/>
    <g clip-path="url(#p2b4144610f)">
     <use xlink:href="#mea05df23b6" x="254.049468" y="106.618119" style="fill: #ffffff; stroke: #ffffff; stroke-width: 0.9"/>
    </g>
   </g>
   <g id="line2d_20">
    <path d="M 90.284532 71.963879 
L 90.284532 63.308793 
L 172.167 63.308793 
L 172.167 71.963879 
" clip-path="url(#p2b4144610f)" style="fill: none; stroke: #000000; stroke-linecap: round"/>
   </g>
   <g id="line2d_21">
    <path d="M 172.167 57.614812 
L 172.167 48.600999 
L 254.049468 48.600999 
L 254.049468 57.614812 
" clip-path="url(#p2b4144610f)" style="fill: none; stroke: #000000; stroke-linecap: round"/>
   </g>
   <g id="line2d_22">
    <path d="M 90.284532 43.265746 
L 90.284532 33.893206 
L 254.049468 33.893206 
L 254.049468 43.265746 
" clip-path="url(#p2b4144610f)" style="fill: none; stroke: #000000; stroke-linecap: round"/>
   </g>
   <g id="patch_3">
    <path d="M 46.068 238.804 
L 46.068 23.568 
" style="fill: none; stroke: #262626; stroke-linejoin: miter; stroke-linecap: square"/>
   </g>
   <g id="patch_4">
    <path d="M 298.266 238.804 
L 298.266 23.568 
" style="fill: none; stroke: #262626; stroke-linejoin: miter; stroke-linecap: square"/>
   </g>
   <g id="patch_5">
    <path d="M 46.068 238.804 
L 298.266 238.804 
" style="fill: none; stroke: #262626; stroke-linejoin: miter; stroke-linecap: square"/>
   </g>
   <g id="patch_6">
    <path d="M 46.068 23.568 
L 298.266 23.568 
" style="fill: none; stroke: #262626; stroke-linejoin: miter; stroke-linecap: square"/>
   </g>
   <g id="text_12">
    <!-- ns -->
    <g transform="translate(125.683266 61.312293) scale(0.096 -0.096)">
     <use xlink:href="#DejaVuSans-6e"/>
     <use xlink:href="#DejaVuSans-73" transform="translate(63.378906 0)"/>
    </g>
   </g>
   <g id="text_13">
    <!-- ns -->
    <g transform="translate(207.565734 46.604499) scale(0.096 -0.096)">
     <use xlink:href="#DejaVuSans-6e"/>
     <use xlink:href="#DejaVuSans-73" transform="translate(63.378906 0)"/>
    </g>
   </g>
   <g id="text_14">
    <!-- ns -->
    <g transform="translate(166.6245 31.896706) scale(0.096 -0.096)">
     <use xlink:href="#DejaVuSans-6e"/>
     <use xlink:href="#DejaVuSans-73" transform="translate(63.378906 0)"/>
    </g>
   </g>
   <g id="text_15">
    <!-- Accuracy -->
    <g style="fill: #262626" transform="translate(150.252 17.568) scale(0.096 -0.096)">
     <defs>
      <path id="DejaVuSans-41" d="M 2188 4044 
L 1331 1722 
L 3047 1722 
L 2188 4044 
z
M 1831 4666 
L 2547 4666 
L 4325 0 
L 3669 0 
L 3244 1197 
L 1141 1197 
L 716 0 
L 50 0 
L 1831 4666 
z
" transform="scale(0.015625)"/>
     </defs>
     <use xlink:href="#DejaVuSans-41"/>
     <use xlink:href="#DejaVuSans-63" transform="translate(66.658203 0)"/>
     <use xlink:href="#DejaVuSans-63" transform="translate(121.638672 0)"/>
     <use xlink:href="#DejaVuSans-75" transform="translate(176.619141 0)"/>
     <use xlink:href="#DejaVuSans-72" transform="translate(239.998047 0)"/>
     <use xlink:href="#DejaVuSans-61" transform="translate(281.111328 0)"/>
     <use xlink:href="#DejaVuSans-63" transform="translate(342.390625 0)"/>
     <use xlink:href="#DejaVuSans-79" transform="translate(397.371094 0)"/>
    </g>
   </g>
  </g>
  <g id="axes_2">
   <g id="patch_7">
    <path d="M 313.434 238.804 
L 565.632 238.804 
L 565.632 23.568 
L 313.434 23.568 
L 313.434 238.804 
z
" style="fill: none"/>
   </g>
   <g id="matplotlib.axis_3">
    <g id="xtick_4">
     <g id="line2d_23">
      <g>
       <use xlink:href="#mf45f16be08" x="357.650532" y="238.804" style="fill: #262626; stroke: #262626"/>
      </g>
     </g>
     <g id="text_16">
      <!-- Low -->
      <g style="fill: #262626" transform="translate(348.985282 253.790625) scale(0.088 -0.088)">
       <use xlink:href="#DejaVuSans-4c"/>
       <use xlink:href="#DejaVuSans-6f" transform="translate(53.962891 0)"/>
       <use xlink:href="#DejaVuSans-77" transform="translate(115.144531 0)"/>
      </g>
     </g>
    </g>
    <g id="xtick_5">
     <g id="line2d_24">
      <g>
       <use xlink:href="#mf45f16be08" x="439.533" y="238.804" style="fill: #262626; stroke: #262626"/>
      </g>
     </g>
     <g id="text_17">
      <!-- Medium -->
      <g style="fill: #262626" transform="translate(421.939188 253.790625) scale(0.088 -0.088)">
       <use xlink:href="#DejaVuSans-4d"/>
       <use xlink:href="#DejaVuSans-65" transform="translate(86.279297 0)"/>
       <use xlink:href="#DejaVuSans-64" transform="translate(147.802734 0)"/>
       <use xlink:href="#DejaVuSans-69" transform="translate(211.279297 0)"/>
       <use xlink:href="#DejaVuSans-75" transform="translate(239.0625 0)"/>
       <use xlink:href="#DejaVuSans-6d" transform="translate(302.441406 0)"/>
      </g>
     </g>
    </g>
    <g id="xtick_6">
     <g id="line2d_25">
      <g>
       <use xlink:href="#mf45f16be08" x="521.415468" y="238.804" style="fill: #262626; stroke: #262626"/>
      </g>
     </g>
     <g id="text_18">
      <!-- High -->
      <g style="fill: #262626" transform="translate(511.302343 253.790625) scale(0.088 -0.088)">
       <use xlink:href="#DejaVuSans-48"/>
       <use xlink:href="#DejaVuSans-69" transform="translate(75.195312 0)"/>
       <use xlink:href="#DejaVuSans-67" transform="translate(102.978516 0)"/>
       <use xlink:href="#DejaVuSans-68" transform="translate(166.455078 0)"/>
      </g>
     </g>
    </g>
   </g>
   <g id="matplotlib.axis_4">
    <g id="ytick_8">
     <g id="line2d_26">
      <g>
       <use xlink:href="#m44608a86b0" x="313.434" y="238.804" style="fill: #262626; stroke: #262626"/>
      </g>
     </g>
    </g>
    <g id="ytick_9">
     <g id="line2d_27">
      <g>
       <use xlink:href="#m44608a86b0" x="313.434" y="202.931333" style="fill: #262626; stroke: #262626"/>
      </g>
     </g>
    </g>
    <g id="ytick_10">
     <g id="line2d_28">
      <g>
       <use xlink:href="#m44608a86b0" x="313.434" y="167.058667" style="fill: #262626; stroke: #262626"/>
      </g>
     </g>
    </g>
    <g id="ytick_11">
     <g id="line2d_29">
      <g>
       <use xlink:href="#m44608a86b0" x="313.434" y="131.186" style="fill: #262626; stroke: #262626"/>
      </g>
     </g>
    </g>
    <g id="ytick_12">
     <g id="line2d_30">
      <g>
       <use xlink:href="#m44608a86b0" x="313.434" y="95.313333" style="fill: #262626; stroke: #262626"/>
      </g>
     </g>
    </g>
    <g id="ytick_13">
     <g id="line2d_31">
      <g>
       <use xlink:href="#m44608a86b0" x="313.434" y="59.440667" style="fill: #262626; stroke: #262626"/>
      </g>
     </g>
    </g>
    <g id="ytick_14">
     <g id="line2d_32">
      <g>
       <use xlink:href="#m44608a86b0" x="313.434" y="23.568" style="fill: #262626; stroke: #262626"/>
      </g>
     </g>
    </g>
   </g>
   <g id="FillBetweenPolyCollection_4">
    <defs>
     <path id="m77937fc266" d="M 383.882894 -115.183992 
L 331.418171 -115.183992 
L 330.859974 -115.76125 
L 330.32019 -116.338509 
L 329.800149 -116.915767 
L 329.301129 -117.493026 
L 328.824344 -118.070284 
L 328.370944 -118.647543 
L 327.942004 -119.224801 
L 327.538525 -119.80206 
L 327.161423 -120.379318 
L 326.811526 -120.956577 
L 326.489574 -121.533835 
L 326.196209 -122.111094 
L 325.931976 -122.688352 
L 325.697316 -123.265611 
L 325.492569 -123.842869 
L 325.317965 -124.420128 
L 325.173627 -124.997386 
L 325.059568 -125.574645 
L 324.975692 -126.151903 
L 324.921791 -126.729162 
L 324.897545 -127.30642 
L 324.902528 -127.883679 
L 324.9362 -128.460937 
L 324.99792 -129.038196 
L 325.086938 -129.615454 
L 325.202405 -130.192713 
L 325.343372 -130.769971 
L 325.508796 -131.34723 
L 325.697546 -131.924488 
L 325.908402 -132.501747 
L 326.14007 -133.079005 
L 326.391177 -133.656264 
L 326.660287 -134.233522 
L 326.945903 -134.810781 
L 327.246474 -135.388039 
L 327.560407 -135.965298 
L 327.886069 -136.542556 
L 328.221802 -137.119815 
L 328.565926 -137.697073 
L 328.916754 -138.274332 
L 329.272595 -138.85159 
L 329.631769 -139.428849 
L 329.992611 -140.006107 
L 330.353486 -140.583366 
L 330.712796 -141.160624 
L 331.068989 -141.737883 
L 331.420567 -142.315141 
L 331.766098 -142.8924 
L 332.104225 -143.469658 
L 332.43367 -144.046917 
L 332.753246 -144.624175 
L 333.061863 -145.201434 
L 333.358534 -145.778692 
L 333.642383 -146.355951 
L 333.912649 -146.933209 
L 334.16869 -147.510468 
L 334.409991 -148.087726 
L 334.636162 -148.664985 
L 334.846942 -149.242243 
L 335.042204 -149.819502 
L 335.221948 -150.39676 
L 335.386308 -150.974019 
L 335.535545 -151.551277 
L 335.670048 -152.128536 
L 335.79033 -152.705794 
L 335.897019 -153.283053 
L 335.990862 -153.860311 
L 336.07271 -154.43757 
L 336.143515 -155.014828 
L 336.204323 -155.592087 
L 336.256264 -156.169345 
L 336.300543 -156.746604 
L 336.33843 -157.323862 
L 336.371252 -157.901121 
L 336.40038 -158.478379 
L 336.427219 -159.055638 
L 336.453196 -159.632896 
L 336.479751 -160.210155 
L 336.508321 -160.787413 
L 336.540336 -161.364672 
L 336.5772 -161.94193 
L 336.620285 -162.519189 
L 336.670918 -163.096447 
L 336.730373 -163.673706 
L 336.799858 -164.250964 
L 336.880512 -164.828223 
L 336.973387 -165.405481 
L 337.079451 -165.98274 
L 337.199573 -166.559998 
L 337.334522 -167.137257 
L 337.484958 -167.714515 
L 337.651432 -168.291774 
L 337.834379 -168.869032 
L 338.034119 -169.446291 
L 338.250852 -170.023549 
L 338.484662 -170.600808 
L 338.735515 -171.178066 
L 339.003263 -171.755325 
L 339.287643 -172.332583 
L 376.013422 -172.332583 
L 376.013422 -172.332583 
L 376.297802 -171.755325 
L 376.56555 -171.178066 
L 376.816403 -170.600808 
L 377.050213 -170.023549 
L 377.266946 -169.446291 
L 377.466686 -168.869032 
L 377.649633 -168.291774 
L 377.816107 -167.714515 
L 377.966543 -167.137257 
L 378.101492 -166.559998 
L 378.221614 -165.98274 
L 378.327678 -165.405481 
L 378.420553 -164.828223 
L 378.501206 -164.250964 
L 378.570692 -163.673706 
L 378.630147 -163.096447 
L 378.68078 -162.519189 
L 378.723865 -161.94193 
L 378.760729 -161.364672 
L 378.792743 -160.787413 
L 378.821314 -160.210155 
L 378.847869 -159.632896 
L 378.873846 -159.055638 
L 378.900685 -158.478379 
L 378.929813 -157.901121 
L 378.962635 -157.323862 
L 379.000522 -156.746604 
L 379.044801 -156.169345 
L 379.096742 -155.592087 
L 379.15755 -155.014828 
L 379.228355 -154.43757 
L 379.310203 -153.860311 
L 379.404046 -153.283053 
L 379.510735 -152.705794 
L 379.631017 -152.128536 
L 379.76552 -151.551277 
L 379.914757 -150.974019 
L 380.079117 -150.39676 
L 380.258861 -149.819502 
L 380.454122 -149.242243 
L 380.664903 -148.664985 
L 380.891074 -148.087726 
L 381.132375 -147.510468 
L 381.388416 -146.933209 
L 381.658682 -146.355951 
L 381.942531 -145.778692 
L 382.239202 -145.201434 
L 382.547819 -144.624175 
L 382.867395 -144.046917 
L 383.19684 -143.469658 
L 383.534967 -142.8924 
L 383.880498 -142.315141 
L 384.232076 -141.737883 
L 384.588268 -141.160624 
L 384.947578 -140.583366 
L 385.308454 -140.006107 
L 385.669296 -139.428849 
L 386.02847 -138.85159 
L 386.384311 -138.274332 
L 386.735139 -137.697073 
L 387.079263 -137.119815 
L 387.414996 -136.542556 
L 387.740658 -135.965298 
L 388.054591 -135.388039 
L 388.355162 -134.810781 
L 388.640778 -134.233522 
L 388.909888 -133.656264 
L 389.160995 -133.079005 
L 389.392663 -132.501747 
L 389.603519 -131.924488 
L 389.792269 -131.34723 
L 389.957693 -130.769971 
L 390.09866 -130.192713 
L 390.214127 -129.615454 
L 390.303145 -129.038196 
L 390.364864 -128.460937 
L 390.398537 -127.883679 
L 390.403519 -127.30642 
L 390.379274 -126.729162 
L 390.325373 -126.151903 
L 390.241497 -125.574645 
L 390.127438 -124.997386 
L 389.9831 -124.420128 
L 389.808496 -123.842869 
L 389.603749 -123.265611 
L 389.369089 -122.688352 
L 389.104856 -122.111094 
L 388.811491 -121.533835 
L 388.489539 -120.956577 
L 388.139642 -120.379318 
L 387.76254 -119.80206 
L 387.359061 -119.224801 
L 386.930121 -118.647543 
L 386.476721 -118.070284 
L 385.999936 -117.493026 
L 385.500916 -116.915767 
L 384.980875 -116.338509 
L 384.441091 -115.76125 
L 383.882894 -115.183992 
z
" style="stroke: #2f2f2f"/>
    </defs>
    <g clip-path="url(#pbdeddd6588)">
     <use xlink:href="#m77937fc266" x="0" y="288" style="fill: #58b2a3; stroke: #2f2f2f"/>
    </g>
   </g>
   <g id="FillBetweenPolyCollection_5">
    <defs>
     <path id="m00529db8a6" d="M 455.357368 -83.600731 
L 423.708632 -83.600731 
L 423.070147 -84.587884 
L 422.423299 -85.575037 
L 421.769135 -86.56219 
L 421.108802 -87.549343 
L 420.443545 -88.536496 
L 419.774713 -89.523649 
L 419.103757 -90.510801 
L 418.432223 -91.497954 
L 417.761756 -92.485107 
L 417.094088 -93.47226 
L 416.431032 -94.459413 
L 415.77448 -95.446566 
L 415.126384 -96.433718 
L 414.48875 -97.420871 
L 413.863621 -98.408024 
L 413.253068 -99.395177 
L 412.659169 -100.38233 
L 412.083994 -101.369483 
L 411.529588 -102.356636 
L 410.997953 -103.343788 
L 410.491027 -104.330941 
L 410.010669 -105.318094 
L 409.558639 -106.305247 
L 409.136581 -107.2924 
L 408.746001 -108.279553 
L 408.388259 -109.266705 
L 408.064548 -110.253858 
L 407.775883 -111.241011 
L 407.523091 -112.228164 
L 407.306796 -113.215317 
L 407.127419 -114.20247 
L 406.985167 -115.189622 
L 406.880033 -116.176775 
L 406.811794 -117.163928 
L 406.780013 -118.151081 
L 406.784046 -119.138234 
L 406.823043 -120.125387 
L 406.895964 -121.11254 
L 407.001581 -122.099692 
L 407.138498 -123.086845 
L 407.305162 -124.073998 
L 407.499878 -125.061151 
L 407.72083 -126.048304 
L 407.966093 -127.035457 
L 408.233656 -128.022609 
L 408.521439 -129.009762 
L 408.827316 -129.996915 
L 409.149128 -130.984068 
L 409.484709 -131.971221 
L 409.831901 -132.958374 
L 410.188571 -133.945527 
L 410.552633 -134.932679 
L 410.922058 -135.919832 
L 411.294896 -136.906985 
L 411.669285 -137.894138 
L 412.043465 -138.881291 
L 412.41579 -139.868444 
L 412.78474 -140.855596 
L 413.148926 -141.842749 
L 413.507097 -142.829902 
L 413.858151 -143.817055 
L 414.201134 -144.804208 
L 414.535245 -145.791361 
L 414.85984 -146.778514 
L 415.174428 -147.765666 
L 415.478674 -148.752819 
L 415.772396 -149.739972 
L 416.055562 -150.727125 
L 416.328284 -151.714278 
L 416.590816 -152.701431 
L 416.843548 -153.688583 
L 417.086995 -154.675736 
L 417.321793 -155.662889 
L 417.548687 -156.650042 
L 417.768526 -157.637195 
L 417.982247 -158.624348 
L 418.190868 -159.611501 
L 418.395476 -160.598653 
L 418.597211 -161.585806 
L 418.797259 -162.572959 
L 418.996835 -163.560112 
L 419.19717 -164.547265 
L 419.399499 -165.534418 
L 419.605047 -166.52157 
L 419.815013 -167.508723 
L 420.030559 -168.495876 
L 420.252799 -169.483029 
L 420.482781 -170.470182 
L 420.721479 -171.457335 
L 420.969781 -172.444488 
L 421.228477 -173.43164 
L 421.498255 -174.418793 
L 421.779683 -175.405946 
L 422.073214 -176.393099 
L 422.379171 -177.380252 
L 422.697748 -178.367405 
L 423.029005 -179.354557 
L 423.372871 -180.34171 
L 423.729137 -181.328863 
L 455.336863 -181.328863 
L 455.336863 -181.328863 
L 455.693129 -180.34171 
L 456.036995 -179.354557 
L 456.368252 -178.367405 
L 456.686829 -177.380252 
L 456.992786 -176.393099 
L 457.286317 -175.405946 
L 457.567745 -174.418793 
L 457.837523 -173.43164 
L 458.096219 -172.444488 
L 458.344521 -171.457335 
L 458.583219 -170.470182 
L 458.813201 -169.483029 
L 459.035441 -168.495876 
L 459.250987 -167.508723 
L 459.460953 -166.52157 
L 459.666501 -165.534418 
L 459.86883 -164.547265 
L 460.069165 -163.560112 
L 460.268741 -162.572959 
L 460.468789 -161.585806 
L 460.670524 -160.598653 
L 460.875132 -159.611501 
L 461.083753 -158.624348 
L 461.297474 -157.637195 
L 461.517313 -156.650042 
L 461.744207 -155.662889 
L 461.979005 -154.675736 
L 462.222452 -153.688583 
L 462.475184 -152.701431 
L 462.737716 -151.714278 
L 463.010438 -150.727125 
L 463.293604 -149.739972 
L 463.587326 -148.752819 
L 463.891572 -147.765666 
L 464.20616 -146.778514 
L 464.530755 -145.791361 
L 464.864866 -144.804208 
L 465.207849 -143.817055 
L 465.558903 -142.829902 
L 465.917074 -141.842749 
L 466.28126 -140.855596 
L 466.65021 -139.868444 
L 467.022535 -138.881291 
L 467.396715 -137.894138 
L 467.771104 -136.906985 
L 468.143942 -135.919832 
L 468.513367 -134.932679 
L 468.877429 -133.945527 
L 469.234099 -132.958374 
L 469.581291 -131.971221 
L 469.916872 -130.984068 
L 470.238684 -129.996915 
L 470.544561 -129.009762 
L 470.832344 -128.022609 
L 471.099907 -127.035457 
L 471.34517 -126.048304 
L 471.566122 -125.061151 
L 471.760838 -124.073998 
L 471.927502 -123.086845 
L 472.064419 -122.099692 
L 472.170036 -121.11254 
L 472.242957 -120.125387 
L 472.281954 -119.138234 
L 472.285987 -118.151081 
L 472.254206 -117.163928 
L 472.185967 -116.176775 
L 472.080833 -115.189622 
L 471.938581 -114.20247 
L 471.759204 -113.215317 
L 471.542909 -112.228164 
L 471.290117 -111.241011 
L 471.001452 -110.253858 
L 470.677741 -109.266705 
L 470.319999 -108.279553 
L 469.929419 -107.2924 
L 469.507361 -106.305247 
L 469.055331 -105.318094 
L 468.574973 -104.330941 
L 468.068047 -103.343788 
L 467.536412 -102.356636 
L 466.982006 -101.369483 
L 466.406831 -100.38233 
L 465.812932 -99.395177 
L 465.202379 -98.408024 
L 464.57725 -97.420871 
L 463.939616 -96.433718 
L 463.29152 -95.446566 
L 462.634968 -94.459413 
L 461.971912 -93.47226 
L 461.304244 -92.485107 
L 460.633777 -91.497954 
L 459.962243 -90.510801 
L 459.291287 -89.523649 
L 458.622455 -88.536496 
L 457.957198 -87.549343 
L 457.296865 -86.56219 
L 456.642701 -85.575037 
L 455.995853 -84.587884 
L 455.357368 -83.600731 
z
" style="stroke: #2f2f2f"/>
    </defs>
    <g clip-path="url(#pbdeddd6588)">
     <use xlink:href="#m00529db8a6" x="0" y="288" style="fill: #437695; stroke: #2f2f2f"/>
    </g>
   </g>
   <g id="FillBetweenPolyCollection_6">
    <defs>
     <path id="mabf6ada0b0" d="M 544.836209 -69.838839 
L 497.994727 -69.838839 
L 497.3158 -70.819287 
L 496.651263 -71.799735 
L 496.00309 -72.780183 
L 495.373202 -73.760631 
L 494.763458 -74.741079 
L 494.17564 -75.721527 
L 493.611445 -76.701975 
L 493.072465 -77.682423 
L 492.560186 -78.662871 
L 492.075969 -79.643319 
L 491.621048 -80.623766 
L 491.196517 -81.604214 
L 490.803326 -82.584662 
L 490.442274 -83.56511 
L 490.114004 -84.545558 
L 489.819001 -85.526006 
L 489.55759 -86.506454 
L 489.329936 -87.486902 
L 489.136045 -88.46735 
L 488.975764 -89.447798 
L 488.84879 -90.428246 
L 488.75467 -91.408694 
L 488.692809 -92.389142 
L 488.662481 -93.36959 
L 488.662829 -94.350038 
L 488.692883 -95.330486 
L 488.751566 -96.310934 
L 488.837704 -97.291382 
L 488.95004 -98.27183 
L 489.087242 -99.252278 
L 489.247918 -100.232726 
L 489.430626 -101.213174 
L 489.633888 -102.193622 
L 489.856196 -103.17407 
L 490.09603 -104.154518 
L 490.351865 -105.134966 
L 490.622181 -106.115414 
L 490.905471 -107.095862 
L 491.200255 -108.07631 
L 491.505083 -109.056758 
L 491.818541 -110.037205 
L 492.139263 -111.017653 
L 492.46593 -111.998101 
L 492.797278 -112.978549 
L 493.132098 -113.958997 
L 493.469245 -114.939445 
L 493.807632 -115.919893 
L 494.146236 -116.900341 
L 494.484098 -117.880789 
L 494.820323 -118.861237 
L 495.154077 -119.841685 
L 495.484592 -120.822133 
L 495.811158 -121.802581 
L 496.133129 -122.783029 
L 496.449915 -123.763477 
L 496.760987 -124.743925 
L 497.065872 -125.724373 
L 497.364154 -126.704821 
L 497.655473 -127.685269 
L 497.939522 -128.665717 
L 498.216052 -129.646165 
L 498.484867 -130.626613 
L 498.745827 -131.607061 
L 498.998849 -132.587509 
L 499.243905 -133.567957 
L 499.481023 -134.548405 
L 499.710292 -135.528853 
L 499.931858 -136.509301 
L 500.145927 -137.489749 
L 500.352764 -138.470196 
L 500.552696 -139.450644 
L 500.746108 -140.431092 
L 500.933447 -141.41154 
L 501.115216 -142.391988 
L 501.291977 -143.372436 
L 501.464345 -144.352884 
L 501.632988 -145.333332 
L 501.798621 -146.31378 
L 501.962002 -147.294228 
L 502.12393 -148.274676 
L 502.285233 -149.255124 
L 502.446768 -150.235572 
L 502.60941 -151.21602 
L 502.774046 -152.196468 
L 502.941563 -153.176916 
L 503.112846 -154.157364 
L 503.288764 -155.137812 
L 503.470163 -156.11826 
L 503.657856 -157.098708 
L 503.852615 -158.079156 
L 504.055162 -159.059604 
L 504.26616 -160.040052 
L 504.486205 -161.0205 
L 504.715819 -162.000948 
L 504.955446 -162.981396 
L 505.205442 -163.961844 
L 505.46607 -164.942292 
L 505.737503 -165.92274 
L 506.019811 -166.903188 
L 536.811124 -166.903188 
L 536.811124 -166.903188 
L 537.093432 -165.92274 
L 537.364865 -164.942292 
L 537.625493 -163.961844 
L 537.875489 -162.981396 
L 538.115116 -162.000948 
L 538.34473 -161.0205 
L 538.564775 -160.040052 
L 538.775773 -159.059604 
L 538.97832 -158.079156 
L 539.173079 -157.098708 
L 539.360772 -156.11826 
L 539.542171 -155.137812 
L 539.718089 -154.157364 
L 539.889372 -153.176916 
L 540.056889 -152.196468 
L 540.221525 -151.21602 
L 540.384167 -150.235572 
L 540.545702 -149.255124 
L 540.707005 -148.274676 
L 540.868933 -147.294228 
L 541.032314 -146.31378 
L 541.197947 -145.333332 
L 541.36659 -144.352884 
L 541.538958 -143.372436 
L 541.715719 -142.391988 
L 541.897488 -141.41154 
L 542.084827 -140.431092 
L 542.278239 -139.450644 
L 542.478171 -138.470196 
L 542.685008 -137.489749 
L 542.899077 -136.509301 
L 543.120643 -135.528853 
L 543.349912 -134.548405 
L 543.587031 -133.567957 
L 543.832086 -132.587509 
L 544.085108 -131.607061 
L 544.346068 -130.626613 
L 544.614883 -129.646165 
L 544.891413 -128.665717 
L 545.175462 -127.685269 
L 545.466781 -126.704821 
L 545.765063 -125.724373 
L 546.069948 -124.743925 
L 546.38102 -123.763477 
L 546.697807 -122.783029 
L 547.019777 -121.802581 
L 547.346343 -120.822133 
L 547.676858 -119.841685 
L 548.010612 -118.861237 
L 548.346837 -117.880789 
L 548.684699 -116.900341 
L 549.023303 -115.919893 
L 549.36169 -114.939445 
L 549.698837 -113.958997 
L 550.033657 -112.978549 
L 550.365005 -111.998101 
L 550.691672 -111.017653 
L 551.012394 -110.037205 
L 551.325853 -109.056758 
L 551.63068 -108.07631 
L 551.925464 -107.095862 
L 552.208755 -106.115414 
L 552.47907 -105.134966 
L 552.734905 -104.154518 
L 552.974739 -103.17407 
L 553.197047 -102.193622 
L 553.400309 -101.213174 
L 553.583017 -100.232726 
L 553.743693 -99.252278 
L 553.880895 -98.27183 
L 553.993231 -97.291382 
L 554.079369 -96.310934 
L 554.138052 -95.330486 
L 554.168106 -94.350038 
L 554.168455 -93.36959 
L 554.138126 -92.389142 
L 554.076265 -91.408694 
L 553.982145 -90.428246 
L 553.855171 -89.447798 
L 553.694891 -88.46735 
L 553.500999 -87.486902 
L 553.273345 -86.506454 
L 553.011934 -85.526006 
L 552.716931 -84.545558 
L 552.388661 -83.56511 
L 552.027609 -82.584662 
L 551.634418 -81.604214 
L 551.209887 -80.623766 
L 550.754966 -79.643319 
L 550.270749 -78.662871 
L 549.75847 -77.682423 
L 549.21949 -76.701975 
L 548.655295 -75.721527 
L 548.067478 -74.741079 
L 547.457734 -73.760631 
L 546.827845 -72.780183 
L 546.179672 -71.799735 
L 545.515136 -70.819287 
L 544.836209 -69.838839 
z
" style="stroke: #2f2f2f"/>
    </defs>
    <g clip-path="url(#pbdeddd6588)">
     <use xlink:href="#mabf6ada0b0" x="0" y="288" style="fill: #423b63; stroke: #2f2f2f"/>
    </g>
   </g>
   <g id="line2d_33">
    <path d="M 357.650532 172.816008 
L 357.650532 115.667417 
" clip-path="url(#pbdeddd6588)" style="fill: none; stroke: #2f2f2f; stroke-width: 1.5; stroke-linecap: round"/>
   </g>
   <g id="line2d_34">
    <path d="M 357.650532 161.677767 
L 357.650532 127.541184 
" clip-path="url(#pbdeddd6588)" style="fill: none; stroke: #2f2f2f; stroke-width: 4.5; stroke-linecap: round"/>
   </g>
   <g id="line2d_35">
    <path d="M 357.650532 154.397725 
" clip-path="url(#pbdeddd6588)" style="fill: none; stroke: #2f2f2f; stroke-width: 1.2; stroke-linecap: round"/>
    <g clip-path="url(#pbdeddd6588)">
     <use xlink:href="#mea05df23b6" x="357.650532" y="154.397725" style="fill: #ffffff; stroke: #ffffff; stroke-width: 0.9"/>
    </g>
   </g>
   <g id="line2d_36">
    <path d="M 439.533 204.399269 
L 439.533 106.671137 
" clip-path="url(#pbdeddd6588)" style="fill: none; stroke: #2f2f2f; stroke-width: 1.5; stroke-linecap: round"/>
   </g>
   <g id="line2d_37">
    <path d="M 439.533 176.358988 
L 439.533 136.646931 
" clip-path="url(#pbdeddd6588)" style="fill: none; stroke: #2f2f2f; stroke-width: 4.5; stroke-linecap: round"/>
   </g>
   <g id="line2d_38">
    <path d="M 439.533 167.684873 
" clip-path="url(#pbdeddd6588)" style="fill: none; stroke: #2f2f2f; stroke-width: 1.2; stroke-linecap: round"/>
    <g clip-path="url(#pbdeddd6588)">
     <use xlink:href="#mea05df23b6" x="439.533" y="167.684873" style="fill: #ffffff; stroke: #ffffff; stroke-width: 0.9"/>
    </g>
   </g>
   <g id="line2d_39">
    <path d="M 521.415468 218.161161 
L 521.415468 121.096812 
" clip-path="url(#pbdeddd6588)" style="fill: none; stroke: #2f2f2f; stroke-width: 1.5; stroke-linecap: round"/>
   </g>
   <g id="line2d_40">
    <path d="M 521.415468 203.314998 
L 521.415468 158.623492 
" clip-path="url(#pbdeddd6588)" style="fill: none; stroke: #2f2f2f; stroke-width: 4.5; stroke-linecap: round"/>
   </g>
   <g id="line2d_41">
    <path d="M 521.415468 186.987926 
" clip-path="url(#pbdeddd6588)" style="fill: none; stroke: #2f2f2f; stroke-width: 1.2; stroke-linecap: round"/>
    <g clip-path="url(#pbdeddd6588)">
     <use xlink:href="#mea05df23b6" x="521.415468" y="186.987926" style="fill: #ffffff; stroke: #ffffff; stroke-width: 0.9"/>
    </g>
   </g>
   <g id="line2d_42">
    <path d="M 357.650532 103.08387 
L 357.650532 95.206784 
L 439.533 95.206784 
L 439.533 103.08387 
" clip-path="url(#pbdeddd6588)" style="fill: none; stroke: #000000; stroke-linecap: round"/>
   </g>
   <g id="line2d_43">
    <path d="M 439.533 88.734804 
L 439.533 80.49899 
L 521.415468 80.49899 
L 521.415468 88.734804 
" clip-path="url(#pbdeddd6588)" style="fill: none; stroke: #000000; stroke-linecap: round"/>
   </g>
   <g id="line2d_44">
    <path d="M 357.650532 74.385737 
L 357.650532 65.791197 
L 521.415468 65.791197 
L 521.415468 74.385737 
" clip-path="url(#pbdeddd6588)" style="fill: none; stroke: #000000; stroke-linecap: round"/>
   </g>
   <g id="patch_8">
    <path d="M 313.434 238.804 
L 313.434 23.568 
" style="fill: none; stroke: #262626; stroke-linejoin: miter; stroke-linecap: square"/>
   </g>
   <g id="patch_9">
    <path d="M 565.632 238.804 
L 565.632 23.568 
" style="fill: none; stroke: #262626; stroke-linejoin: miter; stroke-linecap: square"/>
   </g>
   <g id="patch_10">
    <path d="M 313.434 238.804 
L 565.632 238.804 
" style="fill: none; stroke: #262626; stroke-linejoin: miter; stroke-linecap: square"/>
   </g>
   <g id="patch_11">
    <path d="M 313.434 23.568 
L 565.632 23.568 
" style="fill: none; stroke: #262626; stroke-linejoin: miter; stroke-linecap: square"/>
   </g>
   <g id="text_19">
    <!-- ns -->
    <g transform="translate(393.049266 93.210284) scale(0.096 -0.096)">
     <use xlink:href="#DejaVuSans-6e"/>
     <use xlink:href="#DejaVuSans-73" transform="translate(63.378906 0)"/>
    </g>
   </g>
   <g id="text_20">
    <!-- ns -->
    <g transform="translate(474.931734 78.50249) scale(0.096 -0.096)">
     <use xlink:href="#DejaVuSans-6e"/>
     <use xlink:href="#DejaVuSans-73" transform="translate(63.378906 0)"/>
    </g>
   </g>
   <g id="text_21">
    <!-- ns -->
    <g transform="translate(433.9905 63.794697) scale(0.096 -0.096)">
     <use xlink:href="#DejaVuSans-6e"/>
     <use xlink:href="#DejaVuSans-73" transform="translate(63.378906 0)"/>
    </g>
   </g>
   <g id="text_22">
    <!-- Speed -->
    <g style="fill: #262626" transform="translate(424.48425 17.568) scale(0.096 -0.096)">
     <defs>
      <path id="DejaVuSans-53" d="M 3425 4513 
L 3425 3897 
Q 3066 4069 2747 4153 
Q 2428 4238 2131 4238 
Q 1616 4238 1336 4038 
Q 1056 3838 1056 3469 
Q 1056 3159 1242 3001 
Q 1428 2844 1947 2747 
L 2328 2669 
Q 3034 2534 3370 2195 
Q 3706 1856 3706 1288 
Q 3706 609 3251 259 
Q 2797 -91 1919 -91 
Q 1588 -91 1214 -16 
Q 841 59 441 206 
L 441 856 
Q 825 641 1194 531 
Q 1563 422 1919 422 
Q 2459 422 2753 634 
Q 3047 847 3047 1241 
Q 3047 1584 2836 1778 
Q 2625 1972 2144 2069 
L 1759 2144 
Q 1053 2284 737 2584 
Q 422 2884 422 3419 
Q 422 4038 858 4394 
Q 1294 4750 2059 4750 
Q 2388 4750 2728 4690 
Q 3069 4631 3425 4513 
z
" transform="scale(0.015625)"/>
     </defs>
     <use xlink:href="#DejaVuSans-53"/>
     <use xlink:href="#DejaVuSans-70" transform="translate(63.476562 0)"/>
     <use xlink:href="#DejaVuSans-65" transform="translate(126.953125 0)"/>
     <use xlink:href="#DejaVuSans-65" transform="translate(188.476562 0)"/>
     <use xlink:href="#DejaVuSans-64" transform="translate(250 0)"/>
    </g>
   </g>
  </g>
  <g id="text_23">
   <!-- Average encoding probability tertile -->
   <g style="fill: #262626" transform="translate(184.5009 282.7242) scale(0.1152 -0.1152)">
    <defs>
     <path id="DejaVuSans-76" d="M 191 3500 
L 800 3500 
L 1894 563 
L 2988 3500 
L 3597 3500 
L 2284 0 
L 1503 0 
L 191 3500 
z
" transform="scale(0.015625)"/>
    </defs>
    <use xlink:href="#DejaVuSans-41"/>
    <use xlink:href="#DejaVuSans-76" transform="translate(62.533203 0)"/>
    <use xlink:href="#DejaVuSans-65" transform="translate(121.712891 0)"/>
    <use xlink:href="#DejaVuSans-72" transform="translate(183.236328 0)"/>
    <use xlink:href="#DejaVuSans-61" transform="translate(224.349609 0)"/>
    <use xlink:href="#DejaVuSans-67" transform="translate(285.628906 0)"/>
    <use xlink:href="#DejaVuSans-65" transform="translate(349.105469 0)"/>
    <use xlink:href="#DejaVuSans-20" transform="translate(410.628906 0)"/>
    <use xlink:href="#DejaVuSans-65" transform="translate(442.416016 0)"/>
    <use xlink:href="#DejaVuSans-6e" transform="translate(503.939453 0)"/>
    <use xlink:href="#DejaVuSans-63" transform="translate(567.318359 0)"/>
    <use xlink:href="#DejaVuSans-6f" transform="translate(622.298828 0)"/>
    <use xlink:href="#DejaVuSans-64" transform="translate(683.480469 0)"/>
    <use xlink:href="#DejaVuSans-69" transform="translate(746.957031 0)"/>
    <use xlink:href="#DejaVuSans-6e" transform="translate(774.740234 0)"/>
    <use xlink:href="#DejaVuSans-67" transform="translate(838.119141 0)"/>
    <use xlink:href="#DejaVuSans-20" transform="translate(901.595703 0)"/>
    <use xlink:href="#DejaVuSans-70" transform="translate(933.382812 0)"/>
    <use xlink:href="#DejaVuSans-72" transform="translate(996.859375 0)"/>
    <use xlink:href="#DejaVuSans-6f" transform="translate(1035.722656 0)"/>
    <use xlink:href="#DejaVuSans-62" transform="translate(1096.904297 0)"/>
    <use xlink:href="#DejaVuSans-61" transform="translate(1160.380859 0)"/>
    <use xlink:href="#DejaVuSans-62" transform="translate(1221.660156 0)"/>
    <use xlink:href="#DejaVuSans-69" transform="translate(1285.136719 0)"/>
    <use xlink:href="#DejaVuSans-6c" transform="translate(1312.919922 0)"/>
    <use xlink:href="#DejaVuSans-69" transform="translate(1340.703125 0)"/>
    <use xlink:href="#DejaVuSans-74" transform="translate(1368.486328 0)"/>
    <use xlink:href="#DejaVuSans-79" transform="translate(1407.695312 0)"/>
    <use xlink:href="#DejaVuSans-20" transform="translate(1466.875 0)"/>
    <use xlink:href="#DejaVuSans-74" transform="translate(1498.662109 0)"/>
    <use xlink:href="#DejaVuSans-65" transform="translate(1537.871094 0)"/>
    <use xlink:href="#DejaVuSans-72" transform="translate(1599.394531 0)"/>
    <use xlink:href="#DejaVuSans-74" transform="translate(1640.507812 0)"/>
    <use xlink:href="#DejaVuSans-69" transform="translate(1679.716797 0)"/>
    <use xlink:href="#DejaVuSans-6c" transform="translate(1707.5 0)"/>
    <use xlink:href="#DejaVuSans-65" transform="translate(1735.283203 0)"/>
   </g>
  </g>
 </g>
 <defs>
  <clipPath id="p2b4144610f">
   <rect x="46.068" y="23.568" width="252.198" height="215.236"/>
  </clipPath>
  <clipPath id="pbdeddd6588">
   <rect x="313.434" y="23.568" width="252.198" height="215.236"/>
  </clipPath>
 </defs>
</svg>
