<?xml version="1.0" encoding="utf-8" standalone="no"?>
<!DOCTYPE svg PUBLIC "-//W3C//DTD SVG 1.1//EN"
  "http://www.w3.org/Graphics/SVG/1.1/DTD/svg11.dtd">
<svg xmlns:xlink="http://www.w3.org/1999/xlink" width="576pt" height="288pt" viewBox="0 0 576 288" xmlns="http://www.w3.org/2000/svg" version="1.1">
 <metadata>
  <rdf:RDF xmlns:dc="http://purl.org/dc/elements/1.1/" xmlns:cc="http://creativecommons.org/ns#" xmlns:rdf="http://www.w3.org/1999/02/22-rdf-syntax-ns#">
   <cc:Work>
    <dc:type rdf:resource="http://purl.org/dc/dcmitype/StillImage"/>
    <dc:date>2024-12-13T10:15:38.436906</dc:date>
    <dc:format>image/svg+xml</dc:format>
    <dc:creator>
     <cc:Agent>
      <dc:title>Matplotlib v3.9.2, https://matplotlib.org/</dc:title>
     </cc:Agent>
    </dc:creator>
   </cc:Work>
  </rdf:RDF>
 </metadata>
 <defs>
  <style type="text/css">*{stroke-linejoin: round; stroke-linecap: butt}</style>
 </defs>
 <g id="figure_1">
  <g id="patch_1">
   <path d="M 0 288 
L 576 288 
L 576 0 
L 0 0 
L 0 288 
z
" style="fill: none"/>
  </g>
  <g id="axes_1">
   <g id="patch_2">
    <path d="M 46.068 238.804 
L 298.266 238.804 
L 298.266 23.568 
L 46.068 23.568 
L 46.068 238.804 
z
" style="fill: none"/>
   </g>
   <g id="matplotlib.axis_1">
    <g id="xtick_1">
     <g id="line2d_1">
      <defs>
       <path id="md9deeb041f" d="M 0 0 
L 0 4.8 
" style="stroke: #262626"/>
      </defs>
      <g>
       <use xlink:href="#md9deeb041f" x="90.284532" y="238.804" style="fill: #262626; stroke: #262626"/>
      </g>
     </g>
     <g id="text_1">
      <!-- Low -->
      <g style="fill: #262626" transform="translate(81.619282 253.790625) scale(0.088 -0.088)">
       <defs>
        <path id="DejaVuSans-4c" d="M 628 4666 
L 1259 4666 
L 1259 531 
L 3531 531 
L 3531 0 
L 628 0 
L 628 4666 
z
" transform="scale(0.015625)"/>
        <path id="DejaVuSans-6f" d="M 1959 3097 
Q 1497 3097 1228 2736 
Q 959 2375 959 1747 
Q 959 1119 1226 758 
Q 1494 397 1959 397 
Q 2419 397 2687 759 
Q 2956 1122 2956 1747 
Q 2956 2369 2687 2733 
Q 2419 3097 1959 3097 
z
M 1959 3584 
Q 2709 3584 3137 3096 
Q 3566 2609 3566 1747 
Q 3566 888 3137 398 
Q 2709 -91 1959 -91 
Q 1206 -91 779 398 
Q 353 888 353 1747 
Q 353 2609 779 3096 
Q 1206 3584 1959 3584 
z
" transform="scale(0.015625)"/>
        <path id="DejaVuSans-77" d="M 269 3500 
L 844 3500 
L 1563 769 
L 2278 3500 
L 2956 3500 
L 3675 769 
L 4391 3500 
L 4966 3500 
L 4050 0 
L 3372 0 
L 2619 2869 
L 1863 0 
L 1184 0 
L 269 3500 
z
" transform="scale(0.015625)"/>
       </defs>
       <use xlink:href="#DejaVuSans-4c"/>
       <use xlink:href="#DejaVuSans-6f" x="53.962891"/>
       <use xlink:href="#DejaVuSans-77" x="115.144531"/>
      </g>
     </g>
    </g>
    <g id="xtick_2">
     <g id="line2d_2">
      <g>
       <use xlink:href="#md9deeb041f" x="172.167" y="238.804" style="fill: #262626; stroke: #262626"/>
      </g>
     </g>
     <g id="text_2">
      <!-- Medium -->
      <g style="fill: #262626" transform="translate(154.573187 253.790625) scale(0.088 -0.088)">
       <defs>
        <path id="DejaVuSans-4d" d="M 628 4666 
L 1569 4666 
L 2759 1491 
L 3956 4666 
L 4897 4666 
L 4897 0 
L 4281 0 
L 4281 4097 
L 3078 897 
L 2444 897 
L 1241 4097 
L 1241 0 
L 628 0 
L 628 4666 
z
" transform="scale(0.015625)"/>
        <path id="DejaVuSans-65" d="M 3597 1894 
L 3597 1613 
L 953 1613 
Q 991 1019 1311 708 
Q 1631 397 2203 397 
Q 2534 397 2845 478 
Q 3156 559 3463 722 
L 3463 178 
Q 3153 47 2828 -22 
Q 2503 -91 2169 -91 
Q 1331 -91 842 396 
Q 353 884 353 1716 
Q 353 2575 817 3079 
Q 1281 3584 2069 3584 
Q 2775 3584 3186 3129 
Q 3597 2675 3597 1894 
z
M 3022 2063 
Q 3016 2534 2758 2815 
Q 2500 3097 2075 3097 
Q 1594 3097 1305 2825 
Q 1016 2553 972 2059 
L 3022 2063 
z
" transform="scale(0.015625)"/>
        <path id="DejaVuSans-64" d="M 2906 2969 
L 2906 4863 
L 3481 4863 
L 3481 0 
L 2906 0 
L 2906 525 
Q 2725 213 2448 61 
Q 2172 -91 1784 -91 
Q 1150 -91 751 415 
Q 353 922 353 1747 
Q 353 2572 751 3078 
Q 1150 3584 1784 3584 
Q 2172 3584 2448 3432 
Q 2725 3281 2906 2969 
z
M 947 1747 
Q 947 1113 1208 752 
Q 1469 391 1925 391 
Q 2381 391 2643 752 
Q 2906 1113 2906 1747 
Q 2906 2381 2643 2742 
Q 2381 3103 1925 3103 
Q 1469 3103 1208 2742 
Q 947 2381 947 1747 
z
" transform="scale(0.015625)"/>
        <path id="DejaVuSans-69" d="M 603 3500 
L 1178 3500 
L 1178 0 
L 603 0 
L 603 3500 
z
M 603 4863 
L 1178 4863 
L 1178 4134 
L 603 4134 
L 603 4863 
z
" transform="scale(0.015625)"/>
        <path id="DejaVuSans-75" d="M 544 1381 
L 544 3500 
L 1119 3500 
L 1119 1403 
Q 1119 906 1312 657 
Q 1506 409 1894 409 
Q 2359 409 2629 706 
Q 2900 1003 2900 1516 
L 2900 3500 
L 3475 3500 
L 3475 0 
L 2900 0 
L 2900 538 
Q 2691 219 2414 64 
Q 2138 -91 1772 -91 
Q 1169 -91 856 284 
Q 544 659 544 1381 
z
M 1991 3584 
L 1991 3584 
z
" transform="scale(0.015625)"/>
        <path id="DejaVuSans-6d" d="M 3328 2828 
Q 3544 3216 3844 3400 
Q 4144 3584 4550 3584 
Q 5097 3584 5394 3201 
Q 5691 2819 5691 2113 
L 5691 0 
L 5113 0 
L 5113 2094 
Q 5113 2597 4934 2840 
Q 4756 3084 4391 3084 
Q 3944 3084 3684 2787 
Q 3425 2491 3425 1978 
L 3425 0 
L 2847 0 
L 2847 2094 
Q 2847 2600 2669 2842 
Q 2491 3084 2119 3084 
Q 1678 3084 1418 2786 
Q 1159 2488 1159 1978 
L 1159 0 
L 581 0 
L 581 3500 
L 1159 3500 
L 1159 2956 
Q 1356 3278 1631 3431 
Q 1906 3584 2284 3584 
Q 2666 3584 2933 3390 
Q 3200 3197 3328 2828 
z
" transform="scale(0.015625)"/>
       </defs>
       <use xlink:href="#DejaVuSans-4d"/>
       <use xlink:href="#DejaVuSans-65" x="86.279297"/>
       <use xlink:href="#DejaVuSans-64" x="147.802734"/>
       <use xlink:href="#DejaVuSans-69" x="211.279297"/>
       <use xlink:href="#DejaVuSans-75" x="239.0625"/>
       <use xlink:href="#DejaVuSans-6d" x="302.441406"/>
      </g>
     </g>
    </g>
    <g id="xtick_3">
     <g id="line2d_3">
      <g>
       <use xlink:href="#md9deeb041f" x="254.049468" y="238.804" style="fill: #262626; stroke: #262626"/>
      </g>
     </g>
     <g id="text_3">
      <!-- High -->
      <g style="fill: #262626" transform="translate(243.936343 253.790625) scale(0.088 -0.088)">
       <defs>
        <path id="DejaVuSans-48" d="M 628 4666 
L 1259 4666 
L 1259 2753 
L 3553 2753 
L 3553 4666 
L 4184 4666 
L 4184 0 
L 3553 0 
L 3553 2222 
L 1259 2222 
L 1259 0 
L 628 0 
L 628 4666 
z
" transform="scale(0.015625)"/>
        <path id="DejaVuSans-67" d="M 2906 1791 
Q 2906 2416 2648 2759 
Q 2391 3103 1925 3103 
Q 1463 3103 1205 2759 
Q 947 2416 947 1791 
Q 947 1169 1205 825 
Q 1463 481 1925 481 
Q 2391 481 2648 825 
Q 2906 1169 2906 1791 
z
M 3481 434 
Q 3481 -459 3084 -895 
Q 2688 -1331 1869 -1331 
Q 1566 -1331 1297 -1286 
Q 1028 -1241 775 -1147 
L 775 -588 
Q 1028 -725 1275 -790 
Q 1522 -856 1778 -856 
Q 2344 -856 2625 -561 
Q 2906 -266 2906 331 
L 2906 616 
Q 2728 306 2450 153 
Q 2172 0 1784 0 
Q 1141 0 747 490 
Q 353 981 353 1791 
Q 353 2603 747 3093 
Q 1141 3584 1784 3584 
Q 2172 3584 2450 3431 
Q 2728 3278 2906 2969 
L 2906 3500 
L 3481 3500 
L 3481 434 
z
" transform="scale(0.015625)"/>
        <path id="DejaVuSans-68" d="M 3513 2113 
L 3513 0 
L 2938 0 
L 2938 2094 
Q 2938 2591 2744 2837 
Q 2550 3084 2163 3084 
Q 1697 3084 1428 2787 
Q 1159 2491 1159 1978 
L 1159 0 
L 581 0 
L 581 4863 
L 1159 4863 
L 1159 2956 
Q 1366 3272 1645 3428 
Q 1925 3584 2291 3584 
Q 2894 3584 3203 3211 
Q 3513 2838 3513 2113 
z
" transform="scale(0.015625)"/>
       </defs>
       <use xlink:href="#DejaVuSans-48"/>
       <use xlink:href="#DejaVuSans-69" x="75.195312"/>
       <use xlink:href="#DejaVuSans-67" x="102.978516"/>
       <use xlink:href="#DejaVuSans-68" x="166.455078"/>
      </g>
     </g>
    </g>
   </g>
   <g id="matplotlib.axis_2">
    <g id="ytick_1">
     <g id="line2d_4">
      <defs>
       <path id="m8a045878d8" d="M 0 0 
L -4.8 0 
" style="stroke: #262626"/>
      </defs>
      <g>
       <use xlink:href="#m8a045878d8" x="46.068" y="238.804" style="fill: #262626; stroke: #262626"/>
      </g>
     </g>
     <g id="text_4">
      <!-- 0.5 -->
      <g style="fill: #262626" transform="translate(23.77325 242.147312) scale(0.088 -0.088)">
       <defs>
        <path id="DejaVuSans-30" d="M 2034 4250 
Q 1547 4250 1301 3770 
Q 1056 3291 1056 2328 
Q 1056 1369 1301 889 
Q 1547 409 2034 409 
Q 2525 409 2770 889 
Q 3016 1369 3016 2328 
Q 3016 3291 2770 3770 
Q 2525 4250 2034 4250 
z
M 2034 4750 
Q 2819 4750 3233 4129 
Q 3647 3509 3647 2328 
Q 3647 1150 3233 529 
Q 2819 -91 2034 -91 
Q 1250 -91 836 529 
Q 422 1150 422 2328 
Q 422 3509 836 4129 
Q 1250 4750 2034 4750 
z
" transform="scale(0.015625)"/>
        <path id="DejaVuSans-2e" d="M 684 794 
L 1344 794 
L 1344 0 
L 684 0 
L 684 794 
z
" transform="scale(0.015625)"/>
        <path id="DejaVuSans-35" d="M 691 4666 
L 3169 4666 
L 3169 4134 
L 1269 4134 
L 1269 2991 
Q 1406 3038 1543 3061 
Q 1681 3084 1819 3084 
Q 2600 3084 3056 2656 
Q 3513 2228 3513 1497 
Q 3513 744 3044 326 
Q 2575 -91 1722 -91 
Q 1428 -91 1123 -41 
Q 819 9 494 109 
L 494 744 
Q 775 591 1075 516 
Q 1375 441 1709 441 
Q 2250 441 2565 725 
Q 2881 1009 2881 1497 
Q 2881 1984 2565 2268 
Q 2250 2553 1709 2553 
Q 1456 2553 1204 2497 
Q 953 2441 691 2322 
L 691 4666 
z
" transform="scale(0.015625)"/>
       </defs>
       <use xlink:href="#DejaVuSans-30"/>
       <use xlink:href="#DejaVuSans-2e" x="63.623047"/>
       <use xlink:href="#DejaVuSans-35" x="95.410156"/>
      </g>
     </g>
    </g>
    <g id="ytick_2">
     <g id="line2d_5">
      <g>
       <use xlink:href="#m8a045878d8" x="46.068" y="202.931333" style="fill: #262626; stroke: #262626"/>
      </g>
     </g>
     <g id="text_5">
      <!-- 0.6 -->
      <g style="fill: #262626" transform="translate(23.77325 206.274646) scale(0.088 -0.088)">
       <defs>
        <path id="DejaVuSans-36" d="M 2113 2584 
Q 1688 2584 1439 2293 
Q 1191 2003 1191 1497 
Q 1191 994 1439 701 
Q 1688 409 2113 409 
Q 2538 409 2786 701 
Q 3034 994 3034 1497 
Q 3034 2003 2786 2293 
Q 2538 2584 2113 2584 
z
M 3366 4563 
L 3366 3988 
Q 3128 4100 2886 4159 
Q 2644 4219 2406 4219 
Q 1781 4219 1451 3797 
Q 1122 3375 1075 2522 
Q 1259 2794 1537 2939 
Q 1816 3084 2150 3084 
Q 2853 3084 3261 2657 
Q 3669 2231 3669 1497 
Q 3669 778 3244 343 
Q 2819 -91 2113 -91 
Q 1303 -91 875 529 
Q 447 1150 447 2328 
Q 447 3434 972 4092 
Q 1497 4750 2381 4750 
Q 2619 4750 2861 4703 
Q 3103 4656 3366 4563 
z
" transform="scale(0.015625)"/>
       </defs>
       <use xlink:href="#DejaVuSans-30"/>
       <use xlink:href="#DejaVuSans-2e" x="63.623047"/>
       <use xlink:href="#DejaVuSans-36" x="95.410156"/>
      </g>
     </g>
    </g>
    <g id="ytick_3">
     <g id="line2d_6">
      <g>
       <use xlink:href="#m8a045878d8" x="46.068" y="167.058667" style="fill: #262626; stroke: #262626"/>
      </g>
     </g>
     <g id="text_6">
      <!-- 0.7 -->
      <g style="fill: #262626" transform="translate(23.77325 170.401979) scale(0.088 -0.088)">
       <defs>
        <path id="DejaVuSans-37" d="M 525 4666 
L 3525 4666 
L 3525 4397 
L 1831 0 
L 1172 0 
L 2766 4134 
L 525 4134 
L 525 4666 
z
" transform="scale(0.015625)"/>
       </defs>
       <use xlink:href="#DejaVuSans-30"/>
       <use xlink:href="#DejaVuSans-2e" x="63.623047"/>
       <use xlink:href="#DejaVuSans-37" x="95.410156"/>
      </g>
     </g>
    </g>
    <g id="ytick_4">
     <g id="line2d_7">
      <g>
       <use xlink:href="#m8a045878d8" x="46.068" y="131.186" style="fill: #262626; stroke: #262626"/>
      </g>
     </g>
     <g id="text_7">
      <!-- 0.8 -->
      <g style="fill: #262626" transform="translate(23.77325 134.529312) scale(0.088 -0.088)">
       <defs>
        <path id="DejaVuSans-38" d="M 2034 2216 
Q 1584 2216 1326 1975 
Q 1069 1734 1069 1313 
Q 1069 891 1326 650 
Q 1584 409 2034 409 
Q 2484 409 2743 651 
Q 3003 894 3003 1313 
Q 3003 1734 2745 1975 
Q 2488 2216 2034 2216 
z
M 1403 2484 
Q 997 2584 770 2862 
Q 544 3141 544 3541 
Q 544 4100 942 4425 
Q 1341 4750 2034 4750 
Q 2731 4750 3128 4425 
Q 3525 4100 3525 3541 
Q 3525 3141 3298 2862 
Q 3072 2584 2669 2484 
Q 3125 2378 3379 2068 
Q 3634 1759 3634 1313 
Q 3634 634 3220 271 
Q 2806 -91 2034 -91 
Q 1263 -91 848 271 
Q 434 634 434 1313 
Q 434 1759 690 2068 
Q 947 2378 1403 2484 
z
M 1172 3481 
Q 1172 3119 1398 2916 
Q 1625 2713 2034 2713 
Q 2441 2713 2670 2916 
Q 2900 3119 2900 3481 
Q 2900 3844 2670 4047 
Q 2441 4250 2034 4250 
Q 1625 4250 1398 4047 
Q 1172 3844 1172 3481 
z
" transform="scale(0.015625)"/>
       </defs>
       <use xlink:href="#DejaVuSans-30"/>
       <use xlink:href="#DejaVuSans-2e" x="63.623047"/>
       <use xlink:href="#DejaVuSans-38" x="95.410156"/>
      </g>
     </g>
    </g>
    <g id="ytick_5">
     <g id="line2d_8">
      <g>
       <use xlink:href="#m8a045878d8" x="46.068" y="95.313333" style="fill: #262626; stroke: #262626"/>
      </g>
     </g>
     <g id="text_8">
      <!-- 0.9 -->
      <g style="fill: #262626" transform="translate(23.77325 98.656646) scale(0.088 -0.088)">
       <defs>
        <path id="DejaVuSans-39" d="M 703 97 
L 703 672 
Q 941 559 1184 500 
Q 1428 441 1663 441 
Q 2288 441 2617 861 
Q 2947 1281 2994 2138 
Q 2813 1869 2534 1725 
Q 2256 1581 1919 1581 
Q 1219 1581 811 2004 
Q 403 2428 403 3163 
Q 403 3881 828 4315 
Q 1253 4750 1959 4750 
Q 2769 4750 3195 4129 
Q 3622 3509 3622 2328 
Q 3622 1225 3098 567 
Q 2575 -91 1691 -91 
Q 1453 -91 1209 -44 
Q 966 3 703 97 
z
M 1959 2075 
Q 2384 2075 2632 2365 
Q 2881 2656 2881 3163 
Q 2881 3666 2632 3958 
Q 2384 4250 1959 4250 
Q 1534 4250 1286 3958 
Q 1038 3666 1038 3163 
Q 1038 2656 1286 2365 
Q 1534 2075 1959 2075 
z
" transform="scale(0.015625)"/>
       </defs>
       <use xlink:href="#DejaVuSans-30"/>
       <use xlink:href="#DejaVuSans-2e" x="63.623047"/>
       <use xlink:href="#DejaVuSans-39" x="95.410156"/>
      </g>
     </g>
    </g>
    <g id="ytick_6">
     <g id="line2d_9">
      <g>
       <use xlink:href="#m8a045878d8" x="46.068" y="59.440667" style="fill: #262626; stroke: #262626"/>
      </g>
     </g>
     <g id="text_9">
      <!-- 1.0 -->
      <g style="fill: #262626" transform="translate(23.77325 62.783979) scale(0.088 -0.088)">
       <defs>
        <path id="DejaVuSans-31" d="M 794 531 
L 1825 531 
L 1825 4091 
L 703 3866 
L 703 4441 
L 1819 4666 
L 2450 4666 
L 2450 531 
L 3481 531 
L 3481 0 
L 794 0 
L 794 531 
z
" transform="scale(0.015625)"/>
       </defs>
       <use xlink:href="#DejaVuSans-31"/>
       <use xlink:href="#DejaVuSans-2e" x="63.623047"/>
       <use xlink:href="#DejaVuSans-30" x="95.410156"/>
      </g>
     </g>
    </g>
    <g id="ytick_7">
     <g id="line2d_10">
      <g>
       <use xlink:href="#m8a045878d8" x="46.068" y="23.568" style="fill: #262626; stroke: #262626"/>
      </g>
     </g>
     <g id="text_10">
      <!-- 1.1 -->
      <g style="fill: #262626" transform="translate(23.77325 26.911313) scale(0.088 -0.088)">
       <use xlink:href="#DejaVuSans-31"/>
       <use xlink:href="#DejaVuSans-2e" x="63.623047"/>
       <use xlink:href="#DejaVuSans-31" x="95.410156"/>
      </g>
     </g>
    </g>
    <g id="text_11">
     <!-- Probability of correct response -->
     <g style="fill: #262626" transform="translate(17.77675 204.36575) rotate(-90) scale(0.096 -0.096)">
      <defs>
       <path id="DejaVuSans-50" d="M 1259 4147 
L 1259 2394 
L 2053 2394 
Q 2494 2394 2734 2622 
Q 2975 2850 2975 3272 
Q 2975 3691 2734 3919 
Q 2494 4147 2053 4147 
L 1259 4147 
z
M 628 4666 
L 2053 4666 
Q 2838 4666 3239 4311 
Q 3641 3956 3641 3272 
Q 3641 2581 3239 2228 
Q 2838 1875 2053 1875 
L 1259 1875 
L 1259 0 
L 628 0 
L 628 4666 
z
" transform="scale(0.015625)"/>
       <path id="DejaVuSans-72" d="M 2631 2963 
Q 2534 3019 2420 3045 
Q 2306 3072 2169 3072 
Q 1681 3072 1420 2755 
Q 1159 2438 1159 1844 
L 1159 0 
L 581 0 
L 581 3500 
L 1159 3500 
L 1159 2956 
Q 1341 3275 1631 3429 
Q 1922 3584 2338 3584 
Q 2397 3584 2469 3576 
Q 2541 3569 2628 3553 
L 2631 2963 
z
" transform="scale(0.015625)"/>
       <path id="DejaVuSans-62" d="M 3116 1747 
Q 3116 2381 2855 2742 
Q 2594 3103 2138 3103 
Q 1681 3103 1420 2742 
Q 1159 2381 1159 1747 
Q 1159 1113 1420 752 
Q 1681 391 2138 391 
Q 2594 391 2855 752 
Q 3116 1113 3116 1747 
z
M 1159 2969 
Q 1341 3281 1617 3432 
Q 1894 3584 2278 3584 
Q 2916 3584 3314 3078 
Q 3713 2572 3713 1747 
Q 3713 922 3314 415 
Q 2916 -91 2278 -91 
Q 1894 -91 1617 61 
Q 1341 213 1159 525 
L 1159 0 
L 581 0 
L 581 4863 
L 1159 4863 
L 1159 2969 
z
" transform="scale(0.015625)"/>
       <path id="DejaVuSans-61" d="M 2194 1759 
Q 1497 1759 1228 1600 
Q 959 1441 959 1056 
Q 959 750 1161 570 
Q 1363 391 1709 391 
Q 2188 391 2477 730 
Q 2766 1069 2766 1631 
L 2766 1759 
L 2194 1759 
z
M 3341 1997 
L 3341 0 
L 2766 0 
L 2766 531 
Q 2569 213 2275 61 
Q 1981 -91 1556 -91 
Q 1019 -91 701 211 
Q 384 513 384 1019 
Q 384 1609 779 1909 
Q 1175 2209 1959 2209 
L 2766 2209 
L 2766 2266 
Q 2766 2663 2505 2880 
Q 2244 3097 1772 3097 
Q 1472 3097 1187 3025 
Q 903 2953 641 2809 
L 641 3341 
Q 956 3463 1253 3523 
Q 1550 3584 1831 3584 
Q 2591 3584 2966 3190 
Q 3341 2797 3341 1997 
z
" transform="scale(0.015625)"/>
       <path id="DejaVuSans-6c" d="M 603 4863 
L 1178 4863 
L 1178 0 
L 603 0 
L 603 4863 
z
" transform="scale(0.015625)"/>
       <path id="DejaVuSans-74" d="M 1172 4494 
L 1172 3500 
L 2356 3500 
L 2356 3053 
L 1172 3053 
L 1172 1153 
Q 1172 725 1289 603 
Q 1406 481 1766 481 
L 2356 481 
L 2356 0 
L 1766 0 
Q 1100 0 847 248 
Q 594 497 594 1153 
L 594 3053 
L 172 3053 
L 172 3500 
L 594 3500 
L 594 4494 
L 1172 4494 
z
" transform="scale(0.015625)"/>
       <path id="DejaVuSans-79" d="M 2059 -325 
Q 1816 -950 1584 -1140 
Q 1353 -1331 966 -1331 
L 506 -1331 
L 506 -850 
L 844 -850 
Q 1081 -850 1212 -737 
Q 1344 -625 1503 -206 
L 1606 56 
L 191 3500 
L 800 3500 
L 1894 763 
L 2988 3500 
L 3597 3500 
L 2059 -325 
z
" transform="scale(0.015625)"/>
       <path id="DejaVuSans-20" transform="scale(0.015625)"/>
       <path id="DejaVuSans-66" d="M 2375 4863 
L 2375 4384 
L 1825 4384 
Q 1516 4384 1395 4259 
Q 1275 4134 1275 3809 
L 1275 3500 
L 2222 3500 
L 2222 3053 
L 1275 3053 
L 1275 0 
L 697 0 
L 697 3053 
L 147 3053 
L 147 3500 
L 697 3500 
L 697 3744 
Q 697 4328 969 4595 
Q 1241 4863 1831 4863 
L 2375 4863 
z
" transform="scale(0.015625)"/>
       <path id="DejaVuSans-63" d="M 3122 3366 
L 3122 2828 
Q 2878 2963 2633 3030 
Q 2388 3097 2138 3097 
Q 1578 3097 1268 2742 
Q 959 2388 959 1747 
Q 959 1106 1268 751 
Q 1578 397 2138 397 
Q 2388 397 2633 464 
Q 2878 531 3122 666 
L 3122 134 
Q 2881 22 2623 -34 
Q 2366 -91 2075 -91 
Q 1284 -91 818 406 
Q 353 903 353 1747 
Q 353 2603 823 3093 
Q 1294 3584 2113 3584 
Q 2378 3584 2631 3529 
Q 2884 3475 3122 3366 
z
" transform="scale(0.015625)"/>
       <path id="DejaVuSans-73" d="M 2834 3397 
L 2834 2853 
Q 2591 2978 2328 3040 
Q 2066 3103 1784 3103 
Q 1356 3103 1142 2972 
Q 928 2841 928 2578 
Q 928 2378 1081 2264 
Q 1234 2150 1697 2047 
L 1894 2003 
Q 2506 1872 2764 1633 
Q 3022 1394 3022 966 
Q 3022 478 2636 193 
Q 2250 -91 1575 -91 
Q 1294 -91 989 -36 
Q 684 19 347 128 
L 347 722 
Q 666 556 975 473 
Q 1284 391 1588 391 
Q 1994 391 2212 530 
Q 2431 669 2431 922 
Q 2431 1156 2273 1281 
Q 2116 1406 1581 1522 
L 1381 1569 
Q 847 1681 609 1914 
Q 372 2147 372 2553 
Q 372 3047 722 3315 
Q 1072 3584 1716 3584 
Q 2034 3584 2315 3537 
Q 2597 3491 2834 3397 
z
" transform="scale(0.015625)"/>
       <path id="DejaVuSans-70" d="M 1159 525 
L 1159 -1331 
L 581 -1331 
L 581 3500 
L 1159 3500 
L 1159 2969 
Q 1341 3281 1617 3432 
Q 1894 3584 2278 3584 
Q 2916 3584 3314 3078 
Q 3713 2572 3713 1747 
Q 3713 922 3314 415 
Q 2916 -91 2278 -91 
Q 1894 -91 1617 61 
Q 1341 213 1159 525 
z
M 3116 1747 
Q 3116 2381 2855 2742 
Q 2594 3103 2138 3103 
Q 1681 3103 1420 2742 
Q 1159 2381 1159 1747 
Q 1159 1113 1420 752 
Q 1681 391 2138 391 
Q 2594 391 2855 752 
Q 3116 1113 3116 1747 
z
" transform="scale(0.015625)"/>
       <path id="DejaVuSans-6e" d="M 3513 2113 
L 3513 0 
L 2938 0 
L 2938 2094 
Q 2938 2591 2744 2837 
Q 2550 3084 2163 3084 
Q 1697 3084 1428 2787 
Q 1159 2491 1159 1978 
L 1159 0 
L 581 0 
L 581 3500 
L 1159 3500 
L 1159 2956 
Q 1366 3272 1645 3428 
Q 1925 3584 2291 3584 
Q 2894 3584 3203 3211 
Q 3513 2838 3513 2113 
z
" transform="scale(0.015625)"/>
      </defs>
      <use xlink:href="#DejaVuSans-50"/>
      <use xlink:href="#DejaVuSans-72" x="58.552734"/>
      <use xlink:href="#DejaVuSans-6f" x="97.416016"/>
      <use xlink:href="#DejaVuSans-62" x="158.597656"/>
      <use xlink:href="#DejaVuSans-61" x="222.074219"/>
      <use xlink:href="#DejaVuSans-62" x="283.353516"/>
      <use xlink:href="#DejaVuSans-69" x="346.830078"/>
      <use xlink:href="#DejaVuSans-6c" x="374.613281"/>
      <use xlink:href="#DejaVuSans-69" x="402.396484"/>
      <use xlink:href="#DejaVuSans-74" x="430.179688"/>
      <use xlink:href="#DejaVuSans-79" x="469.388672"/>
      <use xlink:href="#DejaVuSans-20" x="528.568359"/>
      <use xlink:href="#DejaVuSans-6f" x="560.355469"/>
      <use xlink:href="#DejaVuSans-66" x="621.537109"/>
      <use xlink:href="#DejaVuSans-20" x="656.742188"/>
      <use xlink:href="#DejaVuSans-63" x="688.529297"/>
      <use xlink:href="#DejaVuSans-6f" x="743.509766"/>
      <use xlink:href="#DejaVuSans-72" x="804.691406"/>
      <use xlink:href="#DejaVuSans-72" x="844.054688"/>
      <use xlink:href="#DejaVuSans-65" x="882.917969"/>
      <use xlink:href="#DejaVuSans-63" x="944.441406"/>
      <use xlink:href="#DejaVuSans-74" x="999.421875"/>
      <use xlink:href="#DejaVuSans-20" x="1038.630859"/>
      <use xlink:href="#DejaVuSans-72" x="1070.417969"/>
      <use xlink:href="#DejaVuSans-65" x="1109.28125"/>
      <use xlink:href="#DejaVuSans-73" x="1170.804688"/>
      <use xlink:href="#DejaVuSans-70" x="1222.904297"/>
      <use xlink:href="#DejaVuSans-6f" x="1286.380859"/>
      <use xlink:href="#DejaVuSans-6e" x="1347.5625"/>
      <use xlink:href="#DejaVuSans-73" x="1410.941406"/>
      <use xlink:href="#DejaVuSans-65" x="1463.041016"/>
     </g>
    </g>
   </g>
   <g id="PolyCollection_1">
    <defs>
     <path id="m79847f6d60" d="M 98.706104 -132.487572 
L 81.862961 -132.487572 
L 81.66551 -133.092835 
L 81.46722 -133.698098 
L 81.26717 -134.303361 
L 81.064352 -134.908623 
L 80.857687 -135.513886 
L 80.646034 -136.119149 
L 80.428204 -136.724412 
L 80.202977 -137.329674 
L 79.969116 -137.934937 
L 79.725384 -138.5402 
L 79.470562 -139.145463 
L 79.203467 -139.750725 
L 78.922968 -140.355988 
L 78.628004 -140.961251 
L 78.317603 -141.566514 
L 77.990895 -142.171776 
L 77.647126 -142.777039 
L 77.285679 -143.382302 
L 76.906076 -143.987565 
L 76.507999 -144.592827 
L 76.09129 -145.19809 
L 75.655966 -145.803353 
L 75.202217 -146.408616 
L 74.730413 -147.013878 
L 74.241104 -147.619141 
L 73.735019 -148.224404 
L 73.213061 -148.829667 
L 72.6763 -149.434929 
L 72.125971 -150.040192 
L 71.563457 -150.645455 
L 70.990286 -151.250717 
L 70.408109 -151.85598 
L 69.818692 -152.461243 
L 69.2239 -153.066506 
L 68.625678 -153.671768 
L 68.026033 -154.277031 
L 67.427021 -154.882294 
L 66.830722 -155.487557 
L 66.239228 -156.092819 
L 65.654618 -156.698082 
L 65.078947 -157.303345 
L 64.514222 -157.908608 
L 63.96239 -158.51387 
L 63.425321 -159.119133 
L 62.904789 -159.724396 
L 62.402466 -160.329659 
L 61.919904 -160.934921 
L 61.458526 -161.540184 
L 61.01962 -162.145447 
L 60.604327 -162.75071 
L 60.21364 -163.355972 
L 59.848397 -163.961235 
L 59.509285 -164.566498 
L 59.196831 -165.171761 
L 58.911416 -165.777023 
L 58.653268 -166.382286 
L 58.422474 -166.987549 
L 58.218988 -167.592812 
L 58.042635 -168.198074 
L 57.893126 -168.803337 
L 57.770067 -169.4086 
L 57.672973 -170.013863 
L 57.601282 -170.619125 
L 57.554364 -171.224388 
L 57.531545 -171.829651 
L 57.532114 -172.434913 
L 57.555338 -173.040176 
L 57.600483 -173.645439 
L 57.666821 -174.250702 
L 57.753645 -174.855964 
L 57.860284 -175.461227 
L 57.986111 -176.06649 
L 58.130553 -176.671753 
L 58.2931 -177.277015 
L 58.473311 -177.882278 
L 58.670817 -178.487541 
L 58.885326 -179.092804 
L 59.116621 -179.698066 
L 59.36456 -180.303329 
L 59.629074 -180.908592 
L 59.910158 -181.513855 
L 60.207864 -182.119117 
L 60.522298 -182.72438 
L 60.853602 -183.329643 
L 61.201947 -183.934906 
L 61.567518 -184.540168 
L 61.950503 -185.145431 
L 62.351074 -185.750694 
L 62.769378 -186.355957 
L 63.205521 -186.961219 
L 63.65955 -187.566482 
L 64.131445 -188.171745 
L 64.621104 -188.777008 
L 65.128331 -189.38227 
L 65.652828 -189.987533 
L 66.194184 -190.592796 
L 66.751871 -191.198058 
L 67.325238 -191.803321 
L 67.913509 -192.408584 
L 112.655555 -192.408584 
L 112.655555 -192.408584 
L 113.243827 -191.803321 
L 113.817194 -191.198058 
L 114.374881 -190.592796 
L 114.916237 -189.987533 
L 115.440734 -189.38227 
L 115.947961 -188.777008 
L 116.43762 -188.171745 
L 116.909515 -187.566482 
L 117.363544 -186.961219 
L 117.799687 -186.355957 
L 118.217991 -185.750694 
L 118.618562 -185.145431 
L 119.001547 -184.540168 
L 119.367118 -183.934906 
L 119.715463 -183.329643 
L 120.046767 -182.72438 
L 120.361201 -182.119117 
L 120.658907 -181.513855 
L 120.939991 -180.908592 
L 121.204504 -180.303329 
L 121.452444 -179.698066 
L 121.683739 -179.092804 
L 121.898248 -178.487541 
L 122.095754 -177.882278 
L 122.275965 -177.277015 
L 122.438512 -176.671753 
L 122.582954 -176.06649 
L 122.70878 -175.461227 
L 122.81542 -174.855964 
L 122.902244 -174.250702 
L 122.968581 -173.645439 
L 123.013726 -173.040176 
L 123.036951 -172.434913 
L 123.037519 -171.829651 
L 123.014701 -171.224388 
L 122.967783 -170.619125 
L 122.896092 -170.013863 
L 122.798998 -169.4086 
L 122.675939 -168.803337 
L 122.52643 -168.198074 
L 122.350077 -167.592812 
L 122.146591 -166.987549 
L 121.915797 -166.382286 
L 121.657649 -165.777023 
L 121.372234 -165.171761 
L 121.05978 -164.566498 
L 120.720668 -163.961235 
L 120.355425 -163.355972 
L 119.964738 -162.75071 
L 119.549445 -162.145447 
L 119.110539 -161.540184 
L 118.649161 -160.934921 
L 118.166599 -160.329659 
L 117.664276 -159.724396 
L 117.143744 -159.119133 
L 116.606674 -158.51387 
L 116.054843 -157.908608 
L 115.490118 -157.303345 
L 114.914447 -156.698082 
L 114.329837 -156.092819 
L 113.738343 -155.487557 
L 113.142044 -154.882294 
L 112.543032 -154.277031 
L 111.943387 -153.671768 
L 111.345165 -153.066506 
L 110.750373 -152.461243 
L 110.160956 -151.85598 
L 109.578779 -151.250717 
L 109.005608 -150.645455 
L 108.443094 -150.040192 
L 107.892765 -149.434929 
L 107.356004 -148.829667 
L 106.834046 -148.224404 
L 106.327961 -147.619141 
L 105.838652 -147.013878 
L 105.366848 -146.408616 
L 104.913099 -145.803353 
L 104.477775 -145.19809 
L 104.061066 -144.592827 
L 103.662989 -143.987565 
L 103.283386 -143.382302 
L 102.921939 -142.777039 
L 102.57817 -142.171776 
L 102.251461 -141.566514 
L 101.94106 -140.961251 
L 101.646097 -140.355988 
L 101.365598 -139.750725 
L 101.098503 -139.145463 
L 100.843681 -138.5402 
L 100.599949 -137.934937 
L 100.366088 -137.329674 
L 100.140861 -136.724412 
L 99.923031 -136.119149 
L 99.711378 -135.513886 
L 99.504713 -134.908623 
L 99.301895 -134.303361 
L 99.101845 -133.698098 
L 98.903555 -133.092835 
L 98.706104 -132.487572 
z
" style="stroke: #2f2f2f"/>
    </defs>
    <g clip-path="url(#pea4fbdb76a)">
     <use xlink:href="#m79847f6d60" x="0" y="288" style="fill: #58b2a3; stroke: #2f2f2f"/>
    </g>
   </g>
   <g id="PolyCollection_2">
    <defs>
     <path id="m31fe699f30" d="M 181.68083 -145.504391 
L 162.65317 -145.504391 
L 162.384421 -146.112266 
L 162.112104 -146.720141 
L 161.83535 -147.328016 
L 161.553223 -147.935891 
L 161.264731 -148.543765 
L 160.968844 -149.15164 
L 160.664505 -149.759515 
L 160.350647 -150.36739 
L 160.026213 -150.975265 
L 159.690169 -151.58314 
L 159.341524 -152.191015 
L 158.979353 -152.79889 
L 158.602807 -153.406765 
L 158.211136 -154.01464 
L 157.803709 -154.622515 
L 157.380021 -155.23039 
L 156.939719 -155.838265 
L 156.482606 -156.44614 
L 156.008659 -157.054015 
L 155.518038 -157.66189 
L 155.011091 -158.269765 
L 154.488361 -158.877639 
L 153.95059 -159.485514 
L 153.398718 -160.093389 
L 152.833883 -160.701264 
L 152.257414 -161.309139 
L 151.670824 -161.917014 
L 151.0758 -162.524889 
L 150.474192 -163.132764 
L 149.867996 -163.740639 
L 149.25934 -164.348514 
L 148.650461 -164.956389 
L 148.043685 -165.564264 
L 147.441407 -166.172139 
L 146.846063 -166.780014 
L 146.260109 -167.387889 
L 145.685993 -167.995764 
L 145.126128 -168.603638 
L 144.582871 -169.211513 
L 144.058491 -169.819388 
L 143.555148 -170.427263 
L 143.07487 -171.035138 
L 142.61953 -171.643013 
L 142.190822 -172.250888 
L 141.79025 -172.858763 
L 141.419105 -173.466638 
L 141.078459 -174.074513 
L 140.769148 -174.682388 
L 140.491771 -175.290263 
L 140.246684 -175.898138 
L 140.033998 -176.506013 
L 139.853588 -177.113888 
L 139.705092 -177.721763 
L 139.58793 -178.329637 
L 139.501309 -178.937512 
L 139.444246 -179.545387 
L 139.415584 -180.153262 
L 139.414013 -180.761137 
L 139.438098 -181.369012 
L 139.486301 -181.976887 
L 139.557009 -182.584762 
L 139.648564 -183.192637 
L 139.759289 -183.800512 
L 139.887517 -184.408387 
L 140.03162 -185.016262 
L 140.190034 -185.624137 
L 140.361286 -186.232012 
L 140.544015 -186.839887 
L 140.736995 -187.447762 
L 140.939151 -188.055636 
L 141.149575 -188.663511 
L 141.367538 -189.271386 
L 141.592495 -189.879261 
L 141.824091 -190.487136 
L 142.062164 -191.095011 
L 142.306735 -191.702886 
L 142.558006 -192.310761 
L 142.816349 -192.918636 
L 143.082288 -193.526511 
L 143.356486 -194.134386 
L 143.639723 -194.742261 
L 143.932874 -195.350136 
L 144.236887 -195.958011 
L 144.552756 -196.565886 
L 144.881494 -197.173761 
L 145.224107 -197.781635 
L 145.581572 -198.38951 
L 145.954804 -198.997385 
L 146.344635 -199.60526 
L 146.751793 -200.213135 
L 147.176878 -200.82101 
L 147.620345 -201.428885 
L 148.082486 -202.03676 
L 148.563419 -202.644635 
L 149.06308 -203.25251 
L 149.581212 -203.860385 
L 150.117363 -204.46826 
L 150.670891 -205.076135 
L 151.240958 -205.68401 
L 193.093042 -205.68401 
L 193.093042 -205.68401 
L 193.663109 -205.076135 
L 194.216637 -204.46826 
L 194.752788 -203.860385 
L 195.27092 -203.25251 
L 195.770581 -202.644635 
L 196.251514 -202.03676 
L 196.713655 -201.428885 
L 197.157122 -200.82101 
L 197.582207 -200.213135 
L 197.989365 -199.60526 
L 198.379196 -198.997385 
L 198.752428 -198.38951 
L 199.109893 -197.781635 
L 199.452506 -197.173761 
L 199.781244 -196.565886 
L 200.097113 -195.958011 
L 200.401126 -195.350136 
L 200.694277 -194.742261 
L 200.977514 -194.134386 
L 201.251712 -193.526511 
L 201.517651 -192.918636 
L 201.775994 -192.310761 
L 202.027265 -191.702886 
L 202.271836 -191.095011 
L 202.509909 -190.487136 
L 202.741505 -189.879261 
L 202.966462 -189.271386 
L 203.184425 -188.663511 
L 203.394849 -188.055636 
L 203.597005 -187.447762 
L 203.789985 -186.839887 
L 203.972714 -186.232012 
L 204.143966 -185.624137 
L 204.30238 -185.016262 
L 204.446483 -184.408387 
L 204.574711 -183.800512 
L 204.685436 -183.192637 
L 204.776991 -182.584762 
L 204.847699 -181.976887 
L 204.895902 -181.369012 
L 204.919987 -180.761137 
L 204.918416 -180.153262 
L 204.889754 -179.545387 
L 204.832691 -178.937512 
L 204.74607 -178.329637 
L 204.628908 -177.721763 
L 204.480412 -177.113888 
L 204.300002 -176.506013 
L 204.087316 -175.898138 
L 203.842229 -175.290263 
L 203.564852 -174.682388 
L 203.255541 -174.074513 
L 202.914895 -173.466638 
L 202.54375 -172.858763 
L 202.143178 -172.250888 
L 201.71447 -171.643013 
L 201.25913 -171.035138 
L 200.778852 -170.427263 
L 200.275509 -169.819388 
L 199.751129 -169.211513 
L 199.207872 -168.603638 
L 198.648007 -167.995764 
L 198.073891 -167.387889 
L 197.487937 -166.780014 
L 196.892593 -166.172139 
L 196.290315 -165.564264 
L 195.683539 -164.956389 
L 195.07466 -164.348514 
L 194.466004 -163.740639 
L 193.859808 -163.132764 
L 193.2582 -162.524889 
L 192.663176 -161.917014 
L 192.076586 -161.309139 
L 191.500117 -160.701264 
L 190.935282 -160.093389 
L 190.38341 -159.485514 
L 189.845639 -158.877639 
L 189.322909 -158.269765 
L 188.815962 -157.66189 
L 188.325341 -157.054015 
L 187.851394 -156.44614 
L 187.394281 -155.838265 
L 186.953979 -155.23039 
L 186.530291 -154.622515 
L 186.122864 -154.01464 
L 185.731193 -153.406765 
L 185.354647 -152.79889 
L 184.992476 -152.191015 
L 184.643831 -151.58314 
L 184.307787 -150.975265 
L 183.983353 -150.36739 
L 183.669495 -149.759515 
L 183.365156 -149.15164 
L 183.069269 -148.543765 
L 182.780777 -147.935891 
L 182.49865 -147.328016 
L 182.221896 -146.720141 
L 181.949579 -146.112266 
L 181.68083 -145.504391 
z
" style="stroke: #2f2f2f"/>
    </defs>
    <g clip-path="url(#pea4fbdb76a)">
     <use xlink:href="#m31fe699f30" x="0" y="288" style="fill: #437695; stroke: #2f2f2f"/>
    </g>
   </g>
   <g id="PolyCollection_3">
    <defs>
     <path id="m7ae5dd9e14" d="M 280.027147 -155.928255 
L 228.071788 -155.928255 
L 227.663444 -156.4091 
L 227.280855 -156.889945 
L 226.924245 -157.37079 
L 226.593655 -157.851634 
L 226.288944 -158.332479 
L 226.009793 -158.813324 
L 225.75571 -159.294169 
L 225.526036 -159.775014 
L 225.319957 -160.255858 
L 225.136505 -160.736703 
L 224.974582 -161.217548 
L 224.83296 -161.698393 
L 224.710303 -162.179238 
L 224.605181 -162.660083 
L 224.51608 -163.140927 
L 224.441427 -163.621772 
L 224.379597 -164.102617 
L 224.328936 -164.583462 
L 224.287777 -165.064307 
L 224.254453 -165.545151 
L 224.227319 -166.025996 
L 224.204761 -166.506841 
L 224.185217 -166.987686 
L 224.167187 -167.468531 
L 224.149247 -167.949375 
L 224.130066 -168.43022 
L 224.108409 -168.911065 
L 224.083153 -169.39191 
L 224.053294 -169.872755 
L 224.017954 -170.353599 
L 223.976387 -170.834444 
L 223.927985 -171.315289 
L 223.87228 -171.796134 
L 223.808944 -172.276979 
L 223.737797 -172.757824 
L 223.658797 -173.238668 
L 223.572046 -173.719513 
L 223.477784 -174.200358 
L 223.376384 -174.681203 
L 223.26835 -175.162048 
L 223.15431 -175.642892 
L 223.035007 -176.123737 
L 222.911295 -176.604582 
L 222.784128 -177.085427 
L 222.654553 -177.566272 
L 222.523701 -178.047116 
L 222.392772 -178.527961 
L 222.263033 -179.008806 
L 222.135798 -179.489651 
L 222.012426 -179.970496 
L 221.894303 -180.451341 
L 221.782834 -180.932185 
L 221.679431 -181.41303 
L 221.585502 -181.893875 
L 221.502439 -182.37472 
L 221.43161 -182.855565 
L 221.374344 -183.336409 
L 221.331927 -183.817254 
L 221.305585 -184.298099 
L 221.296481 -184.778944 
L 221.305703 -185.259789 
L 221.334258 -185.740633 
L 221.383064 -186.221478 
L 221.452944 -186.702323 
L 221.54462 -187.183168 
L 221.65871 -187.664013 
L 221.795721 -188.144858 
L 221.956049 -188.625702 
L 222.139977 -189.106547 
L 222.347674 -189.587392 
L 222.579193 -190.068237 
L 222.834475 -190.549082 
L 223.11335 -191.029926 
L 223.415538 -191.510771 
L 223.740654 -191.991616 
L 224.088213 -192.472461 
L 224.457635 -192.953306 
L 224.848249 -193.43415 
L 225.2593 -193.914995 
L 225.689956 -194.39584 
L 226.139316 -194.876685 
L 226.606416 -195.35753 
L 227.090235 -195.838374 
L 227.589707 -196.319219 
L 228.103725 -196.800064 
L 228.631149 -197.280909 
L 229.170814 -197.761754 
L 229.721538 -198.242599 
L 230.282129 -198.723443 
L 230.851389 -199.204288 
L 231.428122 -199.685133 
L 232.011142 -200.165978 
L 232.599273 -200.646823 
L 233.19136 -201.127667 
L 233.786266 -201.608512 
L 234.382885 -202.089357 
L 234.980138 -202.570202 
L 235.576978 -203.051047 
L 236.172395 -203.531891 
L 271.92654 -203.531891 
L 271.92654 -203.531891 
L 272.521957 -203.051047 
L 273.118797 -202.570202 
L 273.71605 -202.089357 
L 274.312669 -201.608512 
L 274.907576 -201.127667 
L 275.499662 -200.646823 
L 276.087793 -200.165978 
L 276.670813 -199.685133 
L 277.247546 -199.204288 
L 277.816806 -198.723443 
L 278.377397 -198.242599 
L 278.928121 -197.761754 
L 279.467786 -197.280909 
L 279.99521 -196.800064 
L 280.509228 -196.319219 
L 281.0087 -195.838374 
L 281.492519 -195.35753 
L 281.959619 -194.876685 
L 282.408979 -194.39584 
L 282.839635 -193.914995 
L 283.250686 -193.43415 
L 283.6413 -192.953306 
L 284.010722 -192.472461 
L 284.358281 -191.991616 
L 284.683397 -191.510771 
L 284.985585 -191.029926 
L 285.26446 -190.549082 
L 285.519742 -190.068237 
L 285.751261 -189.587392 
L 285.958958 -189.106547 
L 286.142886 -188.625702 
L 286.303214 -188.144858 
L 286.440225 -187.664013 
L 286.554315 -187.183168 
L 286.645991 -186.702323 
L 286.715871 -186.221478 
L 286.764677 -185.740633 
L 286.793233 -185.259789 
L 286.802455 -184.778944 
L 286.79335 -184.298099 
L 286.767008 -183.817254 
L 286.724591 -183.336409 
L 286.667325 -182.855565 
L 286.596496 -182.37472 
L 286.513434 -181.893875 
L 286.419504 -181.41303 
L 286.316101 -180.932185 
L 286.204632 -180.451341 
L 286.086509 -179.970496 
L 285.963137 -179.489651 
L 285.835902 -179.008806 
L 285.706163 -178.527961 
L 285.575234 -178.047116 
L 285.444382 -177.566272 
L 285.314807 -177.085427 
L 285.18764 -176.604582 
L 285.063928 -176.123737 
L 284.944625 -175.642892 
L 284.830585 -175.162048 
L 284.722551 -174.681203 
L 284.621151 -174.200358 
L 284.526889 -173.719513 
L 284.440138 -173.238668 
L 284.361138 -172.757824 
L 284.289991 -172.276979 
L 284.226655 -171.796134 
L 284.17095 -171.315289 
L 284.122548 -170.834444 
L 284.080981 -170.353599 
L 284.045641 -169.872755 
L 284.015783 -169.39191 
L 283.990527 -168.911065 
L 283.968869 -168.43022 
L 283.949688 -167.949375 
L 283.931748 -167.468531 
L 283.913718 -166.987686 
L 283.894174 -166.506841 
L 283.871616 -166.025996 
L 283.844482 -165.545151 
L 283.811158 -165.064307 
L 283.769999 -164.583462 
L 283.719338 -164.102617 
L 283.657508 -163.621772 
L 283.582855 -163.140927 
L 283.493755 -162.660083 
L 283.388632 -162.179238 
L 283.265976 -161.698393 
L 283.124353 -161.217548 
L 282.96243 -160.736703 
L 282.778979 -160.255858 
L 282.572899 -159.775014 
L 282.343225 -159.294169 
L 282.089142 -158.813324 
L 281.809991 -158.332479 
L 281.50528 -157.851634 
L 281.17469 -157.37079 
L 280.81808 -156.889945 
L 280.435491 -156.4091 
L 280.027147 -155.928255 
z
" style="stroke: #2f2f2f"/>
    </defs>
    <g clip-path="url(#pea4fbdb76a)">
     <use xlink:href="#m7ae5dd9e14" x="0" y="288" style="fill: #423b63; stroke: #2f2f2f"/>
    </g>
   </g>
   <g id="line2d_11">
    <path d="M 90.284532 155.512428 
L 90.284532 95.591416 
" clip-path="url(#pea4fbdb76a)" style="fill: none; stroke: #2f2f2f; stroke-width: 1.5; stroke-linecap: round"/>
   </g>
   <g id="line2d_12">
    <path d="M 90.284532 126.701917 
L 90.284532 104.2815 
" clip-path="url(#pea4fbdb76a)" style="fill: none; stroke: #2f2f2f; stroke-width: 4.5; stroke-linecap: round"/>
   </g>
   <g id="line2d_13">
    <path d="M 90.284532 116.128337 
" clip-path="url(#pea4fbdb76a)" style="fill: none; stroke: #2f2f2f; stroke-width: 1.2; stroke-linecap: round"/>
    <defs>
     <path id="me454db9f01" d="M 1.875 0 
L -1.875 -0 
" style="stroke: #ffffff; stroke-width: 0.9"/>
    </defs>
    <g clip-path="url(#pea4fbdb76a)">
     <use xlink:href="#me454db9f01" x="90.284532" y="116.128337" style="fill: #ffffff; stroke: #ffffff; stroke-width: 0.9"/>
    </g>
   </g>
   <g id="line2d_14">
    <path d="M 172.167 142.495609 
L 172.167 82.31599 
" clip-path="url(#pea4fbdb76a)" style="fill: none; stroke: #2f2f2f; stroke-width: 1.5; stroke-linecap: round"/>
   </g>
   <g id="line2d_15">
    <path d="M 172.167 114.130262 
L 172.167 89.026371 
" clip-path="url(#pea4fbdb76a)" style="fill: none; stroke: #2f2f2f; stroke-width: 4.5; stroke-linecap: round"/>
   </g>
   <g id="line2d_16">
    <path d="M 172.167 108.097741 
" clip-path="url(#pea4fbdb76a)" style="fill: none; stroke: #2f2f2f; stroke-width: 1.2; stroke-linecap: round"/>
    <g clip-path="url(#pea4fbdb76a)">
     <use xlink:href="#me454db9f01" x="172.167" y="108.097741" style="fill: #ffffff; stroke: #ffffff; stroke-width: 0.9"/>
    </g>
   </g>
   <g id="line2d_17">
    <path d="M 254.049468 132.071745 
L 254.049468 84.468109 
" clip-path="url(#pea4fbdb76a)" style="fill: none; stroke: #2f2f2f; stroke-width: 1.5; stroke-linecap: round"/>
   </g>
   <g id="line2d_18">
    <path d="M 254.049468 129.706715 
L 254.049468 100.084575 
" clip-path="url(#pea4fbdb76a)" style="fill: none; stroke: #2f2f2f; stroke-width: 4.5; stroke-linecap: round"/>
   </g>
   <g id="line2d_19">
    <path d="M 254.049468 110.56142 
" clip-path="url(#pea4fbdb76a)" style="fill: none; stroke: #2f2f2f; stroke-width: 1.2; stroke-linecap: round"/>
    <g clip-path="url(#pea4fbdb76a)">
     <use xlink:href="#me454db9f01" x="254.049468" y="110.56142" style="fill: #ffffff; stroke: #ffffff; stroke-width: 0.9"/>
    </g>
   </g>
   <g id="line2d_20">
    <path d="M 90.284532 78.728724 
L 90.284532 70.242758 
L 172.167 70.242758 
L 172.167 78.728724 
" clip-path="url(#pea4fbdb76a)" style="fill: none; stroke: #000000; stroke-linecap: round"/>
   </g>
   <g id="line2d_21">
    <path d="M 172.167 64.379657 
L 172.167 55.534965 
L 254.049468 55.534965 
L 254.049468 64.379657 
" clip-path="url(#pea4fbdb76a)" style="fill: none; stroke: #000000; stroke-linecap: round"/>
   </g>
   <g id="line2d_22">
    <path d="M 90.284532 50.03059 
L 90.284532 40.827172 
L 254.049468 40.827172 
L 254.049468 50.03059 
" clip-path="url(#pea4fbdb76a)" style="fill: none; stroke: #000000; stroke-linecap: round"/>
   </g>
   <g id="patch_3">
    <path d="M 46.068 238.804 
L 46.068 23.568 
" style="fill: none; stroke: #262626; stroke-linejoin: miter; stroke-linecap: square"/>
   </g>
   <g id="patch_4">
    <path d="M 298.266 238.804 
L 298.266 23.568 
" style="fill: none; stroke: #262626; stroke-linejoin: miter; stroke-linecap: square"/>
   </g>
   <g id="patch_5">
    <path d="M 46.068 238.804 
L 298.266 238.804 
" style="fill: none; stroke: #262626; stroke-linejoin: miter; stroke-linecap: square"/>
   </g>
   <g id="patch_6">
    <path d="M 46.068 23.568 
L 298.266 23.568 
" style="fill: none; stroke: #262626; stroke-linejoin: miter; stroke-linecap: square"/>
   </g>
   <g id="text_12">
    <!-- ns -->
    <g transform="translate(125.683266 68.246258) scale(0.096 -0.096)">
     <use xlink:href="#DejaVuSans-6e"/>
     <use xlink:href="#DejaVuSans-73" x="63.378906"/>
    </g>
   </g>
   <g id="text_13">
    <!-- ns -->
    <g transform="translate(207.565734 53.538465) scale(0.096 -0.096)">
     <use xlink:href="#DejaVuSans-6e"/>
     <use xlink:href="#DejaVuSans-73" x="63.378906"/>
    </g>
   </g>
   <g id="text_14">
    <!-- ns -->
    <g transform="translate(166.6245 38.830672) scale(0.096 -0.096)">
     <use xlink:href="#DejaVuSans-6e"/>
     <use xlink:href="#DejaVuSans-73" x="63.378906"/>
    </g>
   </g>
   <g id="text_15">
    <!-- Accuracy -->
    <g style="fill: #262626" transform="translate(150.252 17.568) scale(0.096 -0.096)">
     <defs>
      <path id="DejaVuSans-41" d="M 2188 4044 
L 1331 1722 
L 3047 1722 
L 2188 4044 
z
M 1831 4666 
L 2547 4666 
L 4325 0 
L 3669 0 
L 3244 1197 
L 1141 1197 
L 716 0 
L 50 0 
L 1831 4666 
z
" transform="scale(0.015625)"/>
     </defs>
     <use xlink:href="#DejaVuSans-41"/>
     <use xlink:href="#DejaVuSans-63" x="66.658203"/>
     <use xlink:href="#DejaVuSans-63" x="121.638672"/>
     <use xlink:href="#DejaVuSans-75" x="176.619141"/>
     <use xlink:href="#DejaVuSans-72" x="239.998047"/>
     <use xlink:href="#DejaVuSans-61" x="281.111328"/>
     <use xlink:href="#DejaVuSans-63" x="342.390625"/>
     <use xlink:href="#DejaVuSans-79" x="397.371094"/>
    </g>
   </g>
  </g>
  <g id="axes_2">
   <g id="patch_7">
    <path d="M 313.434 238.804 
L 565.632 238.804 
L 565.632 23.568 
L 313.434 23.568 
L 313.434 238.804 
z
" style="fill: none"/>
   </g>
   <g id="matplotlib.axis_3">
    <g id="xtick_4">
     <g id="line2d_23">
      <g>
       <use xlink:href="#md9deeb041f" x="357.650532" y="238.804" style="fill: #262626; stroke: #262626"/>
      </g>
     </g>
     <g id="text_16">
      <!-- Low -->
      <g style="fill: #262626" transform="translate(348.985282 253.790625) scale(0.088 -0.088)">
       <use xlink:href="#DejaVuSans-4c"/>
       <use xlink:href="#DejaVuSans-6f" x="53.962891"/>
       <use xlink:href="#DejaVuSans-77" x="115.144531"/>
      </g>
     </g>
    </g>
    <g id="xtick_5">
     <g id="line2d_24">
      <g>
       <use xlink:href="#md9deeb041f" x="439.533" y="238.804" style="fill: #262626; stroke: #262626"/>
      </g>
     </g>
     <g id="text_17">
      <!-- Medium -->
      <g style="fill: #262626" transform="translate(421.939188 253.790625) scale(0.088 -0.088)">
       <use xlink:href="#DejaVuSans-4d"/>
       <use xlink:href="#DejaVuSans-65" x="86.279297"/>
       <use xlink:href="#DejaVuSans-64" x="147.802734"/>
       <use xlink:href="#DejaVuSans-69" x="211.279297"/>
       <use xlink:href="#DejaVuSans-75" x="239.0625"/>
       <use xlink:href="#DejaVuSans-6d" x="302.441406"/>
      </g>
     </g>
    </g>
    <g id="xtick_6">
     <g id="line2d_25">
      <g>
       <use xlink:href="#md9deeb041f" x="521.415468" y="238.804" style="fill: #262626; stroke: #262626"/>
      </g>
     </g>
     <g id="text_18">
      <!-- High -->
      <g style="fill: #262626" transform="translate(511.302343 253.790625) scale(0.088 -0.088)">
       <use xlink:href="#DejaVuSans-48"/>
       <use xlink:href="#DejaVuSans-69" x="75.195312"/>
       <use xlink:href="#DejaVuSans-67" x="102.978516"/>
       <use xlink:href="#DejaVuSans-68" x="166.455078"/>
      </g>
     </g>
    </g>
   </g>
   <g id="matplotlib.axis_4">
    <g id="ytick_8">
     <g id="line2d_26">
      <g>
       <use xlink:href="#m8a045878d8" x="313.434" y="238.804" style="fill: #262626; stroke: #262626"/>
      </g>
     </g>
    </g>
    <g id="ytick_9">
     <g id="line2d_27">
      <g>
       <use xlink:href="#m8a045878d8" x="313.434" y="202.931333" style="fill: #262626; stroke: #262626"/>
      </g>
     </g>
    </g>
    <g id="ytick_10">
     <g id="line2d_28">
      <g>
       <use xlink:href="#m8a045878d8" x="313.434" y="167.058667" style="fill: #262626; stroke: #262626"/>
      </g>
     </g>
    </g>
    <g id="ytick_11">
     <g id="line2d_29">
      <g>
       <use xlink:href="#m8a045878d8" x="313.434" y="131.186" style="fill: #262626; stroke: #262626"/>
      </g>
     </g>
    </g>
    <g id="ytick_12">
     <g id="line2d_30">
      <g>
       <use xlink:href="#m8a045878d8" x="313.434" y="95.313333" style="fill: #262626; stroke: #262626"/>
      </g>
     </g>
    </g>
    <g id="ytick_13">
     <g id="line2d_31">
      <g>
       <use xlink:href="#m8a045878d8" x="313.434" y="59.440667" style="fill: #262626; stroke: #262626"/>
      </g>
     </g>
    </g>
    <g id="ytick_14">
     <g id="line2d_32">
      <g>
       <use xlink:href="#m8a045878d8" x="313.434" y="23.568" style="fill: #262626; stroke: #262626"/>
      </g>
     </g>
    </g>
   </g>
   <g id="PolyCollection_4">
    <defs>
     <path id="m2493093194" d="M 370.724627 -122.203186 
L 344.576438 -122.203186 
L 344.06855 -122.663187 
L 343.548089 -123.123188 
L 343.015007 -123.583188 
L 342.469341 -124.043189 
L 341.91123 -124.50319 
L 341.340926 -124.963191 
L 340.758807 -125.423191 
L 340.165391 -125.883192 
L 339.561342 -126.343193 
L 338.947481 -126.803194 
L 338.324795 -127.263195 
L 337.694435 -127.723195 
L 337.057725 -128.183196 
L 336.416158 -128.643197 
L 335.771391 -129.103198 
L 335.125241 -129.563199 
L 334.479676 -130.023199 
L 333.836801 -130.4832 
L 333.198845 -130.943201 
L 332.568138 -131.403202 
L 331.947098 -131.863203 
L 331.338202 -132.323203 
L 330.743962 -132.783204 
L 330.1669 -133.243205 
L 329.609518 -133.703206 
L 329.07427 -134.163207 
L 328.563531 -134.623207 
L 328.079567 -135.083208 
L 327.624508 -135.543209 
L 327.200316 -136.00321 
L 326.80876 -136.463211 
L 326.451393 -136.923211 
L 326.129525 -137.383212 
L 325.844204 -137.843213 
L 325.596203 -138.303214 
L 325.386001 -138.763215 
L 325.213779 -139.223215 
L 325.07941 -139.683216 
L 324.982458 -140.143217 
L 324.922182 -140.603218 
L 324.897545 -141.063218 
L 324.90722 -141.523219 
L 324.949607 -141.98322 
L 325.022854 -142.443221 
L 325.124875 -142.903222 
L 325.25338 -143.363222 
L 325.405899 -143.823223 
L 325.579817 -144.283224 
L 325.772401 -144.743225 
L 325.980843 -145.203226 
L 326.202284 -145.663226 
L 326.433859 -146.123227 
L 326.672727 -146.583228 
L 326.916111 -147.043229 
L 327.161326 -147.50323 
L 327.405815 -147.96323 
L 327.647181 -148.423231 
L 327.883212 -148.883232 
L 328.111907 -149.343233 
L 328.331501 -149.803234 
L 328.540482 -150.263234 
L 328.737605 -150.723235 
L 328.921909 -151.183236 
L 329.092721 -151.643237 
L 329.24966 -152.103238 
L 329.392641 -152.563238 
L 329.521868 -153.023239 
L 329.637831 -153.48324 
L 329.741292 -153.943241 
L 329.833271 -154.403242 
L 329.915032 -154.863242 
L 329.988062 -155.323243 
L 330.054048 -155.783244 
L 330.114855 -156.243245 
L 330.172493 -156.703245 
L 330.2291 -157.163246 
L 330.286904 -157.623247 
L 330.348196 -158.083248 
L 330.415302 -158.543249 
L 330.490552 -159.003249 
L 330.576249 -159.46325 
L 330.674642 -159.923251 
L 330.787899 -160.383252 
L 330.918077 -160.843253 
L 331.067103 -161.303253 
L 331.236746 -161.763254 
L 331.4286 -162.223255 
L 331.644066 -162.683256 
L 331.884335 -163.143257 
L 332.150376 -163.603257 
L 332.442928 -164.063258 
L 332.762491 -164.523259 
L 333.109322 -164.98326 
L 333.483435 -165.443261 
L 333.884605 -165.903261 
L 334.312365 -166.363262 
L 334.766023 -166.823263 
L 335.244663 -167.283264 
L 335.747163 -167.743265 
L 379.553902 -167.743265 
L 379.553902 -167.743265 
L 380.056402 -167.283264 
L 380.535042 -166.823263 
L 380.9887 -166.363262 
L 381.41646 -165.903261 
L 381.81763 -165.443261 
L 382.191743 -164.98326 
L 382.538574 -164.523259 
L 382.858137 -164.063258 
L 383.150689 -163.603257 
L 383.41673 -163.143257 
L 383.656999 -162.683256 
L 383.872465 -162.223255 
L 384.064319 -161.763254 
L 384.233962 -161.303253 
L 384.382988 -160.843253 
L 384.513166 -160.383252 
L 384.626423 -159.923251 
L 384.724816 -159.46325 
L 384.810513 -159.003249 
L 384.885763 -158.543249 
L 384.952869 -158.083248 
L 385.014161 -157.623247 
L 385.071965 -157.163246 
L 385.128571 -156.703245 
L 385.18621 -156.243245 
L 385.247016 -155.783244 
L 385.313003 -155.323243 
L 385.386033 -154.863242 
L 385.467794 -154.403242 
L 385.559773 -153.943241 
L 385.663234 -153.48324 
L 385.779197 -153.023239 
L 385.908424 -152.563238 
L 386.051405 -152.103238 
L 386.208344 -151.643237 
L 386.379156 -151.183236 
L 386.56346 -150.723235 
L 386.760583 -150.263234 
L 386.969564 -149.803234 
L 387.189158 -149.343233 
L 387.417853 -148.883232 
L 387.653884 -148.423231 
L 387.89525 -147.96323 
L 388.139739 -147.50323 
L 388.384954 -147.043229 
L 388.628338 -146.583228 
L 388.867206 -146.123227 
L 389.098781 -145.663226 
L 389.320222 -145.203226 
L 389.528663 -144.743225 
L 389.721248 -144.283224 
L 389.895166 -143.823223 
L 390.047685 -143.363222 
L 390.17619 -142.903222 
L 390.278211 -142.443221 
L 390.351458 -141.98322 
L 390.393845 -141.523219 
L 390.403519 -141.063218 
L 390.378882 -140.603218 
L 390.318607 -140.143217 
L 390.221655 -139.683216 
L 390.087285 -139.223215 
L 389.915063 -138.763215 
L 389.704862 -138.303214 
L 389.456861 -137.843213 
L 389.17154 -137.383212 
L 388.849672 -136.923211 
L 388.492305 -136.463211 
L 388.100749 -136.00321 
L 387.676557 -135.543209 
L 387.221498 -135.083208 
L 386.737534 -134.623207 
L 386.226795 -134.163207 
L 385.691547 -133.703206 
L 385.134165 -133.243205 
L 384.557103 -132.783204 
L 383.962863 -132.323203 
L 383.353967 -131.863203 
L 382.732927 -131.403202 
L 382.10222 -130.943201 
L 381.464264 -130.4832 
L 380.821389 -130.023199 
L 380.175824 -129.563199 
L 379.529674 -129.103198 
L 378.884907 -128.643197 
L 378.243339 -128.183196 
L 377.60663 -127.723195 
L 376.97627 -127.263195 
L 376.353583 -126.803194 
L 375.739723 -126.343193 
L 375.135674 -125.883192 
L 374.542257 -125.423191 
L 373.960139 -124.963191 
L 373.389835 -124.50319 
L 372.831724 -124.043189 
L 372.286058 -123.583188 
L 371.752976 -123.123188 
L 371.232515 -122.663187 
L 370.724627 -122.203186 
z
" style="stroke: #2f2f2f"/>
    </defs>
    <g clip-path="url(#p576a5e7d44)">
     <use xlink:href="#m2493093194" x="0" y="288" style="fill: #58b2a3; stroke: #2f2f2f"/>
    </g>
   </g>
   <g id="PolyCollection_5">
    <defs>
     <path id="medcee40e2c" d="M 452.936327 -89.960394 
L 426.129673 -89.960394 
L 425.583595 -91.014757 
L 425.028198 -92.06912 
L 424.463806 -93.123483 
L 423.890786 -94.177846 
L 423.309563 -95.232209 
L 422.720622 -96.286572 
L 422.124517 -97.340935 
L 421.521877 -98.395298 
L 420.913412 -99.449661 
L 420.29992 -100.504024 
L 419.682288 -101.558387 
L 419.061501 -102.61275 
L 418.438642 -103.667113 
L 417.814892 -104.721476 
L 417.191534 -105.775839 
L 416.569948 -106.830201 
L 415.951613 -107.884564 
L 415.338099 -108.938927 
L 414.731064 -109.99329 
L 414.132249 -111.047653 
L 413.543467 -112.102016 
L 412.966593 -113.156379 
L 412.403559 -114.210742 
L 411.856336 -115.265105 
L 411.326924 -116.319468 
L 410.817336 -117.373831 
L 410.329587 -118.428194 
L 409.865675 -119.482557 
L 409.427565 -120.53692 
L 409.017174 -121.591283 
L 408.636351 -122.645646 
L 408.286863 -123.700009 
L 407.970376 -124.754372 
L 407.688436 -125.808735 
L 407.442458 -126.863098 
L 407.233703 -127.917461 
L 407.063266 -128.971824 
L 406.932062 -130.026187 
L 406.840812 -131.08055 
L 406.790029 -132.134913 
L 406.780013 -133.189276 
L 406.810835 -134.243639 
L 406.882336 -135.298002 
L 406.994119 -136.352365 
L 407.14555 -137.406728 
L 407.335755 -138.461091 
L 407.563624 -139.515454 
L 407.827814 -140.569817 
L 408.12676 -141.62418 
L 408.458685 -142.678543 
L 408.821608 -143.732906 
L 409.213368 -144.787269 
L 409.631635 -145.841631 
L 410.073933 -146.895994 
L 410.537662 -147.950357 
L 411.020125 -149.00472 
L 411.51855 -150.059083 
L 412.030119 -151.113446 
L 412.551995 -152.167809 
L 413.081354 -153.222172 
L 413.61541 -154.276535 
L 414.151447 -155.330898 
L 414.686842 -156.385261 
L 415.219098 -157.439624 
L 415.745867 -158.493987 
L 416.264969 -159.54835 
L 416.77442 -160.602713 
L 417.272449 -161.657076 
L 417.75751 -162.711439 
L 418.228298 -163.765802 
L 418.683758 -164.820165 
L 419.123089 -165.874528 
L 419.545749 -166.928891 
L 419.951452 -167.983254 
L 420.340162 -169.037617 
L 420.712088 -170.09198 
L 421.06767 -171.146343 
L 421.407565 -172.200706 
L 421.732628 -173.255069 
L 422.043895 -174.309432 
L 422.342561 -175.363795 
L 422.629951 -176.418158 
L 422.907503 -177.472521 
L 423.176735 -178.526884 
L 423.439221 -179.581247 
L 423.696566 -180.63561 
L 423.950376 -181.689973 
L 424.202236 -182.744336 
L 424.453685 -183.798698 
L 424.70619 -184.853061 
L 424.96113 -185.907424 
L 425.219772 -186.961787 
L 425.48326 -188.01615 
L 425.752596 -189.070513 
L 426.028629 -190.124876 
L 426.312049 -191.179239 
L 426.603381 -192.233602 
L 426.902978 -193.287965 
L 427.211026 -194.342328 
L 451.854974 -194.342328 
L 451.854974 -194.342328 
L 452.163022 -193.287965 
L 452.462619 -192.233602 
L 452.753951 -191.179239 
L 453.037371 -190.124876 
L 453.313404 -189.070513 
L 453.58274 -188.01615 
L 453.846228 -186.961787 
L 454.10487 -185.907424 
L 454.35981 -184.853061 
L 454.612315 -183.798698 
L 454.863764 -182.744336 
L 455.115624 -181.689973 
L 455.369434 -180.63561 
L 455.626779 -179.581247 
L 455.889265 -178.526884 
L 456.158497 -177.472521 
L 456.436049 -176.418158 
L 456.723439 -175.363795 
L 457.022105 -174.309432 
L 457.333372 -173.255069 
L 457.658435 -172.200706 
L 457.99833 -171.146343 
L 458.353912 -170.09198 
L 458.725838 -169.037617 
L 459.114548 -167.983254 
L 459.520251 -166.928891 
L 459.942911 -165.874528 
L 460.382242 -164.820165 
L 460.837702 -163.765802 
L 461.30849 -162.711439 
L 461.793551 -161.657076 
L 462.29158 -160.602713 
L 462.801031 -159.54835 
L 463.320133 -158.493987 
L 463.846902 -157.439624 
L 464.379158 -156.385261 
L 464.914553 -155.330898 
L 465.45059 -154.276535 
L 465.984646 -153.222172 
L 466.514005 -152.167809 
L 467.035881 -151.113446 
L 467.54745 -150.059083 
L 468.045875 -149.00472 
L 468.528338 -147.950357 
L 468.992067 -146.895994 
L 469.434365 -145.841631 
L 469.852632 -144.787269 
L 470.244392 -143.732906 
L 470.607315 -142.678543 
L 470.93924 -141.62418 
L 471.238186 -140.569817 
L 471.502376 -139.515454 
L 471.730245 -138.461091 
L 471.92045 -137.406728 
L 472.071881 -136.352365 
L 472.183664 -135.298002 
L 472.255165 -134.243639 
L 472.285987 -133.189276 
L 472.275971 -132.134913 
L 472.225188 -131.08055 
L 472.133938 -130.026187 
L 472.002734 -128.971824 
L 471.832297 -127.917461 
L 471.623542 -126.863098 
L 471.377564 -125.808735 
L 471.095624 -124.754372 
L 470.779137 -123.700009 
L 470.429649 -122.645646 
L 470.048826 -121.591283 
L 469.638435 -120.53692 
L 469.200325 -119.482557 
L 468.736413 -118.428194 
L 468.248664 -117.373831 
L 467.739076 -116.319468 
L 467.209664 -115.265105 
L 466.662441 -114.210742 
L 466.099407 -113.156379 
L 465.522533 -112.102016 
L 464.933751 -111.047653 
L 464.334936 -109.99329 
L 463.727901 -108.938927 
L 463.114387 -107.884564 
L 462.496052 -106.830201 
L 461.874466 -105.775839 
L 461.251108 -104.721476 
L 460.627358 -103.667113 
L 460.004499 -102.61275 
L 459.383712 -101.558387 
L 458.76608 -100.504024 
L 458.152588 -99.449661 
L 457.544123 -98.395298 
L 456.941483 -97.340935 
L 456.345378 -96.286572 
L 455.756437 -95.232209 
L 455.175214 -94.177846 
L 454.602194 -93.123483 
L 454.037802 -92.06912 
L 453.482405 -91.014757 
L 452.936327 -89.960394 
z
" style="stroke: #2f2f2f"/>
    </defs>
    <g clip-path="url(#p576a5e7d44)">
     <use xlink:href="#medcee40e2c" x="0" y="288" style="fill: #437695; stroke: #2f2f2f"/>
    </g>
   </g>
   <g id="PolyCollection_6">
    <defs>
     <path id="me5eaca268f" d="M 546.52309 -59.110556 
L 496.307846 -59.110556 
L 495.655352 -60.164355 
L 495.021158 -61.218154 
L 494.407265 -62.271953 
L 493.815632 -63.325752 
L 493.248164 -64.379551 
L 492.706705 -65.433349 
L 492.193024 -66.487148 
L 491.708811 -67.540947 
L 491.255661 -68.594746 
L 490.835071 -69.648545 
L 490.448429 -70.702344 
L 490.097006 -71.756143 
L 489.781948 -72.809942 
L 489.504274 -73.863741 
L 489.264864 -74.917539 
L 489.064457 -75.971338 
L 488.903648 -77.025137 
L 488.78288 -78.078936 
L 488.702446 -79.132735 
L 488.662481 -80.186534 
L 488.662966 -81.240333 
L 488.703725 -82.294132 
L 488.784425 -83.347931 
L 488.904579 -84.401729 
L 489.063543 -85.455528 
L 489.260526 -86.509327 
L 489.494586 -87.563126 
L 489.764639 -88.616925 
L 490.069462 -89.670724 
L 490.4077 -90.724523 
L 490.77787 -91.778322 
L 491.178369 -92.832121 
L 491.607482 -93.885919 
L 492.063391 -94.939718 
L 492.54418 -95.993517 
L 493.047851 -97.047316 
L 493.572325 -98.101115 
L 494.11546 -99.154914 
L 494.675055 -100.208713 
L 495.248867 -101.262512 
L 495.834616 -102.316311 
L 496.430002 -103.370109 
L 497.032711 -104.423908 
L 497.640429 -105.477707 
L 498.250857 -106.531506 
L 498.861716 -107.585305 
L 499.470763 -108.639104 
L 500.0758 -109.692903 
L 500.674687 -110.746702 
L 501.265352 -111.800501 
L 501.845801 -112.854299 
L 502.41413 -113.908098 
L 502.968533 -114.961897 
L 503.507309 -116.015696 
L 504.028878 -117.069495 
L 504.53178 -118.123294 
L 505.014689 -119.177093 
L 505.476417 -120.230892 
L 505.91592 -121.284691 
L 506.332301 -122.338489 
L 506.724818 -123.392288 
L 507.092886 -124.446087 
L 507.436077 -125.499886 
L 507.754122 -126.553685 
L 508.046915 -127.607484 
L 508.314505 -128.661283 
L 508.557102 -129.715082 
L 508.775069 -130.768881 
L 508.968919 -131.822679 
L 509.139313 -132.876478 
L 509.287048 -133.930277 
L 509.413058 -134.984076 
L 509.518399 -136.037875 
L 509.604246 -137.091674 
L 509.671879 -138.145473 
L 509.722677 -139.199272 
L 509.758101 -140.253071 
L 509.779691 -141.306869 
L 509.789045 -142.360668 
L 509.787812 -143.414467 
L 509.777679 -144.468266 
L 509.760355 -145.522065 
L 509.73756 -146.575864 
L 509.711012 -147.629663 
L 509.682412 -148.683462 
L 509.653434 -149.737261 
L 509.625711 -150.791059 
L 509.600821 -151.844858 
L 509.58028 -152.898657 
L 509.565527 -153.952456 
L 509.557916 -155.006255 
L 509.558709 -156.060054 
L 509.569063 -157.113853 
L 509.590025 -158.167652 
L 509.622528 -159.221451 
L 509.667383 -160.275249 
L 509.725277 -161.329048 
L 509.796768 -162.382847 
L 509.882287 -163.436646 
L 532.948648 -163.436646 
L 532.948648 -163.436646 
L 533.034167 -162.382847 
L 533.105658 -161.329048 
L 533.163552 -160.275249 
L 533.208407 -159.221451 
L 533.24091 -158.167652 
L 533.261872 -157.113853 
L 533.272226 -156.060054 
L 533.273019 -155.006255 
L 533.265409 -153.952456 
L 533.250655 -152.898657 
L 533.230114 -151.844858 
L 533.205224 -150.791059 
L 533.177501 -149.737261 
L 533.148523 -148.683462 
L 533.119923 -147.629663 
L 533.093375 -146.575864 
L 533.07058 -145.522065 
L 533.053256 -144.468266 
L 533.043123 -143.414467 
L 533.041891 -142.360668 
L 533.051244 -141.306869 
L 533.072834 -140.253071 
L 533.108258 -139.199272 
L 533.159056 -138.145473 
L 533.226689 -137.091674 
L 533.312536 -136.037875 
L 533.417878 -134.984076 
L 533.543887 -133.930277 
L 533.691623 -132.876478 
L 533.862016 -131.822679 
L 534.055866 -130.768881 
L 534.273833 -129.715082 
L 534.51643 -128.661283 
L 534.784021 -127.607484 
L 535.076813 -126.553685 
L 535.394858 -125.499886 
L 535.738049 -124.446087 
L 536.106117 -123.392288 
L 536.498634 -122.338489 
L 536.915016 -121.284691 
L 537.354518 -120.230892 
L 537.816246 -119.177093 
L 538.299155 -118.123294 
L 538.802057 -117.069495 
L 539.323626 -116.015696 
L 539.862402 -114.961897 
L 540.416805 -113.908098 
L 540.985134 -112.854299 
L 541.565583 -111.800501 
L 542.156248 -110.746702 
L 542.755135 -109.692903 
L 543.360172 -108.639104 
L 543.969219 -107.585305 
L 544.580078 -106.531506 
L 545.190506 -105.477707 
L 545.798224 -104.423908 
L 546.400933 -103.370109 
L 546.996319 -102.316311 
L 547.582068 -101.262512 
L 548.15588 -100.208713 
L 548.715475 -99.154914 
L 549.25861 -98.101115 
L 549.783084 -97.047316 
L 550.286755 -95.993517 
L 550.767544 -94.939718 
L 551.223453 -93.885919 
L 551.652566 -92.832121 
L 552.053065 -91.778322 
L 552.423235 -90.724523 
L 552.761473 -89.670724 
L 553.066296 -88.616925 
L 553.336349 -87.563126 
L 553.570409 -86.509327 
L 553.767392 -85.455528 
L 553.926356 -84.401729 
L 554.04651 -83.347931 
L 554.12721 -82.294132 
L 554.167969 -81.240333 
L 554.168455 -80.186534 
L 554.128489 -79.132735 
L 554.048055 -78.078936 
L 553.927287 -77.025137 
L 553.766478 -75.971338 
L 553.566071 -74.917539 
L 553.326661 -73.863741 
L 553.048987 -72.809942 
L 552.733929 -71.756143 
L 552.382506 -70.702344 
L 551.995864 -69.648545 
L 551.575274 -68.594746 
L 551.122124 -67.540947 
L 550.637911 -66.487148 
L 550.124231 -65.433349 
L 549.582771 -64.379551 
L 549.015303 -63.325752 
L 548.42367 -62.271953 
L 547.809777 -61.218154 
L 547.175583 -60.164355 
L 546.52309 -59.110556 
z
" style="stroke: #2f2f2f"/>
    </defs>
    <g clip-path="url(#p576a5e7d44)">
     <use xlink:href="#me5eaca268f" x="0" y="288" style="fill: #423b63; stroke: #2f2f2f"/>
    </g>
   </g>
   <g id="line2d_33">
    <path d="M 357.650532 165.796814 
L 357.650532 120.256735 
" clip-path="url(#p576a5e7d44)" style="fill: none; stroke: #2f2f2f; stroke-width: 1.5; stroke-linecap: round"/>
   </g>
   <g id="line2d_34">
    <path d="M 357.650532 149.786642 
L 357.650532 125.94091 
" clip-path="url(#p576a5e7d44)" style="fill: none; stroke: #2f2f2f; stroke-width: 4.5; stroke-linecap: round"/>
   </g>
   <g id="line2d_35">
    <path d="M 357.650532 146.484637 
" clip-path="url(#p576a5e7d44)" style="fill: none; stroke: #2f2f2f; stroke-width: 1.2; stroke-linecap: round"/>
    <g clip-path="url(#p576a5e7d44)">
     <use xlink:href="#me454db9f01" x="357.650532" y="146.484637" style="fill: #ffffff; stroke: #ffffff; stroke-width: 0.9"/>
    </g>
   </g>
   <g id="line2d_36">
    <path d="M 439.533 198.039606 
L 439.533 108.036644 
" clip-path="url(#p576a5e7d44)" style="fill: none; stroke: #2f2f2f; stroke-width: 1.5; stroke-linecap: round"/>
   </g>
   <g id="line2d_37">
    <path d="M 439.533 170.432828 
L 439.533 140.714677 
" clip-path="url(#p576a5e7d44)" style="fill: none; stroke: #2f2f2f; stroke-width: 4.5; stroke-linecap: round"/>
   </g>
   <g id="line2d_38">
    <path d="M 439.533 150.736142 
" clip-path="url(#p576a5e7d44)" style="fill: none; stroke: #2f2f2f; stroke-width: 1.2; stroke-linecap: round"/>
    <g clip-path="url(#p576a5e7d44)">
     <use xlink:href="#me454db9f01" x="439.533" y="150.736142" style="fill: #ffffff; stroke: #ffffff; stroke-width: 0.9"/>
    </g>
   </g>
   <g id="line2d_39">
    <path d="M 521.415468 228.889444 
L 521.415468 182.138299 
" clip-path="url(#p576a5e7d44)" style="fill: none; stroke: #2f2f2f; stroke-width: 1.5; stroke-linecap: round"/>
   </g>
   <g id="line2d_40">
    <path d="M 521.415468 215.943967 
L 521.415468 182.138299 
" clip-path="url(#p576a5e7d44)" style="fill: none; stroke: #2f2f2f; stroke-width: 4.5; stroke-linecap: round"/>
   </g>
   <g id="line2d_41">
    <path d="M 521.415468 200.274099 
" clip-path="url(#p576a5e7d44)" style="fill: none; stroke: #2f2f2f; stroke-width: 1.2; stroke-linecap: round"/>
    <g clip-path="url(#p576a5e7d44)">
     <use xlink:href="#me454db9f01" x="521.415468" y="200.274099" style="fill: #ffffff; stroke: #ffffff; stroke-width: 0.9"/>
    </g>
   </g>
   <g id="line2d_42">
    <path d="M 357.650532 90.070405 
L 357.650532 81.867982 
L 439.533 81.867982 
L 439.533 90.070405 
" clip-path="url(#p576a5e7d44)" style="fill: none; stroke: #000000; stroke-linecap: round"/>
   </g>
   <g id="line2d_43">
    <path d="M 439.533 75.721338 
L 439.533 67.160189 
L 521.415468 67.160189 
L 521.415468 75.721338 
" clip-path="url(#p576a5e7d44)" style="fill: none; stroke: #000000; stroke-linecap: round"/>
   </g>
   <g id="line2d_44">
    <path d="M 357.650532 61.372272 
L 357.650532 52.452395 
L 521.415468 52.452395 
L 521.415468 61.372272 
" clip-path="url(#p576a5e7d44)" style="fill: none; stroke: #000000; stroke-linecap: round"/>
   </g>
   <g id="patch_8">
    <path d="M 313.434 238.804 
L 313.434 23.568 
" style="fill: none; stroke: #262626; stroke-linejoin: miter; stroke-linecap: square"/>
   </g>
   <g id="patch_9">
    <path d="M 565.632 238.804 
L 565.632 23.568 
" style="fill: none; stroke: #262626; stroke-linejoin: miter; stroke-linecap: square"/>
   </g>
   <g id="patch_10">
    <path d="M 313.434 238.804 
L 565.632 238.804 
" style="fill: none; stroke: #262626; stroke-linejoin: miter; stroke-linecap: square"/>
   </g>
   <g id="patch_11">
    <path d="M 313.434 23.568 
L 565.632 23.568 
" style="fill: none; stroke: #262626; stroke-linejoin: miter; stroke-linecap: square"/>
   </g>
   <g id="text_19">
    <!-- ns -->
    <g transform="translate(393.049266 79.871482) scale(0.096 -0.096)">
     <use xlink:href="#DejaVuSans-6e"/>
     <use xlink:href="#DejaVuSans-73" x="63.378906"/>
    </g>
   </g>
   <g id="text_20">
    <!-- * -->
    <g transform="translate(478.074234 65.163689) scale(0.096 -0.096)">
     <defs>
      <path id="DejaVuSans-2a" d="M 3009 3897 
L 1888 3291 
L 3009 2681 
L 2828 2375 
L 1778 3009 
L 1778 1831 
L 1422 1831 
L 1422 3009 
L 372 2375 
L 191 2681 
L 1313 3291 
L 191 3897 
L 372 4206 
L 1422 3572 
L 1422 4750 
L 1778 4750 
L 1778 3572 
L 2828 4206 
L 3009 3897 
z
" transform="scale(0.015625)"/>
     </defs>
     <use xlink:href="#DejaVuSans-2a"/>
    </g>
   </g>
   <g id="text_21">
    <!-- ** -->
    <g transform="translate(434.733 50.455895) scale(0.096 -0.096)">
     <use xlink:href="#DejaVuSans-2a"/>
     <use xlink:href="#DejaVuSans-2a" x="50"/>
    </g>
   </g>
   <g id="text_22">
    <!-- Speed -->
    <g style="fill: #262626" transform="translate(424.48425 17.568) scale(0.096 -0.096)">
     <defs>
      <path id="DejaVuSans-53" d="M 3425 4513 
L 3425 3897 
Q 3066 4069 2747 4153 
Q 2428 4238 2131 4238 
Q 1616 4238 1336 4038 
Q 1056 3838 1056 3469 
Q 1056 3159 1242 3001 
Q 1428 2844 1947 2747 
L 2328 2669 
Q 3034 2534 3370 2195 
Q 3706 1856 3706 1288 
Q 3706 609 3251 259 
Q 2797 -91 1919 -91 
Q 1588 -91 1214 -16 
Q 841 59 441 206 
L 441 856 
Q 825 641 1194 531 
Q 1563 422 1919 422 
Q 2459 422 2753 634 
Q 3047 847 3047 1241 
Q 3047 1584 2836 1778 
Q 2625 1972 2144 2069 
L 1759 2144 
Q 1053 2284 737 2584 
Q 422 2884 422 3419 
Q 422 4038 858 4394 
Q 1294 4750 2059 4750 
Q 2388 4750 2728 4690 
Q 3069 4631 3425 4513 
z
" transform="scale(0.015625)"/>
     </defs>
     <use xlink:href="#DejaVuSans-53"/>
     <use xlink:href="#DejaVuSans-70" x="63.476562"/>
     <use xlink:href="#DejaVuSans-65" x="126.953125"/>
     <use xlink:href="#DejaVuSans-65" x="188.476562"/>
     <use xlink:href="#DejaVuSans-64" x="250"/>
    </g>
   </g>
  </g>
  <g id="text_23">
   <!-- Average n200 probability tertile -->
   <g style="fill: #262626" transform="translate(196.3062 282.7242) scale(0.1152 -0.1152)">
    <defs>
     <path id="DejaVuSans-76" d="M 191 3500 
L 800 3500 
L 1894 563 
L 2988 3500 
L 3597 3500 
L 2284 0 
L 1503 0 
L 191 3500 
z
" transform="scale(0.015625)"/>
     <path id="DejaVuSans-32" d="M 1228 531 
L 3431 531 
L 3431 0 
L 469 0 
L 469 531 
Q 828 903 1448 1529 
Q 2069 2156 2228 2338 
Q 2531 2678 2651 2914 
Q 2772 3150 2772 3378 
Q 2772 3750 2511 3984 
Q 2250 4219 1831 4219 
Q 1534 4219 1204 4116 
Q 875 4013 500 3803 
L 500 4441 
Q 881 4594 1212 4672 
Q 1544 4750 1819 4750 
Q 2544 4750 2975 4387 
Q 3406 4025 3406 3419 
Q 3406 3131 3298 2873 
Q 3191 2616 2906 2266 
Q 2828 2175 2409 1742 
Q 1991 1309 1228 531 
z
" transform="scale(0.015625)"/>
    </defs>
    <use xlink:href="#DejaVuSans-41"/>
    <use xlink:href="#DejaVuSans-76" x="62.533203"/>
    <use xlink:href="#DejaVuSans-65" x="121.712891"/>
    <use xlink:href="#DejaVuSans-72" x="183.236328"/>
    <use xlink:href="#DejaVuSans-61" x="224.349609"/>
    <use xlink:href="#DejaVuSans-67" x="285.628906"/>
    <use xlink:href="#DejaVuSans-65" x="349.105469"/>
    <use xlink:href="#DejaVuSans-20" x="410.628906"/>
    <use xlink:href="#DejaVuSans-6e" x="442.416016"/>
    <use xlink:href="#DejaVuSans-32" x="505.794922"/>
    <use xlink:href="#DejaVuSans-30" x="569.417969"/>
    <use xlink:href="#DejaVuSans-30" x="633.041016"/>
    <use xlink:href="#DejaVuSans-20" x="696.664062"/>
    <use xlink:href="#DejaVuSans-70" x="728.451172"/>
    <use xlink:href="#DejaVuSans-72" x="791.927734"/>
    <use xlink:href="#DejaVuSans-6f" x="830.791016"/>
    <use xlink:href="#DejaVuSans-62" x="891.972656"/>
    <use xlink:href="#DejaVuSans-61" x="955.449219"/>
    <use xlink:href="#DejaVuSans-62" x="1016.728516"/>
    <use xlink:href="#DejaVuSans-69" x="1080.205078"/>
    <use xlink:href="#DejaVuSans-6c" x="1107.988281"/>
    <use xlink:href="#DejaVuSans-69" x="1135.771484"/>
    <use xlink:href="#DejaVuSans-74" x="1163.554688"/>
    <use xlink:href="#DejaVuSans-79" x="1202.763672"/>
    <use xlink:href="#DejaVuSans-20" x="1261.943359"/>
    <use xlink:href="#DejaVuSans-74" x="1293.730469"/>
    <use xlink:href="#DejaVuSans-65" x="1332.939453"/>
    <use xlink:href="#DejaVuSans-72" x="1394.462891"/>
    <use xlink:href="#DejaVuSans-74" x="1435.576172"/>
    <use xlink:href="#DejaVuSans-69" x="1474.785156"/>
    <use xlink:href="#DejaVuSans-6c" x="1502.568359"/>
    <use xlink:href="#DejaVuSans-65" x="1530.351562"/>
   </g>
  </g>
 </g>
 <defs>
  <clipPath id="pea4fbdb76a">
   <rect x="46.068" y="23.568" width="252.198" height="215.236"/>
  </clipPath>
  <clipPath id="p576a5e7d44">
   <rect x="313.434" y="23.568" width="252.198" height="215.236"/>
  </clipPath>
 </defs>
</svg>
