<?xml version="1.0" encoding="utf-8" standalone="no"?>
<!DOCTYPE svg PUBLIC "-//W3C//DTD SVG 1.1//EN"
  "http://www.w3.org/Graphics/SVG/1.1/DTD/svg11.dtd">
<svg xmlns:xlink="http://www.w3.org/1999/xlink" width="576pt" height="288pt" viewBox="0 0 576 288" xmlns="http://www.w3.org/2000/svg" version="1.1">
 <metadata>
  <rdf:RDF xmlns:dc="http://purl.org/dc/elements/1.1/" xmlns:cc="http://creativecommons.org/ns#" xmlns:rdf="http://www.w3.org/1999/02/22-rdf-syntax-ns#">
   <cc:Work>
    <dc:type rdf:resource="http://purl.org/dc/dcmitype/StillImage"/>
    <dc:date>2025-01-15T17:24:56.213350</dc:date>
    <dc:format>image/svg+xml</dc:format>
    <dc:creator>
     <cc:Agent>
      <dc:title>Matplotlib v3.10.0, https://matplotlib.org/</dc:title>
     </cc:Agent>
    </dc:creator>
   </cc:Work>
  </rdf:RDF>
 </metadata>
 <defs>
  <style type="text/css">*{stroke-linejoin: round; stroke-linecap: butt}</style>
 </defs>
 <g id="figure_1">
  <g id="patch_1">
   <path d="M 0 288 
L 576 288 
L 576 0 
L 0 0 
L 0 288 
z
" style="fill: none"/>
  </g>
  <g id="axes_1">
   <g id="patch_2">
    <path d="M 46.068 238.804 
L 298.266 238.804 
L 298.266 23.568 
L 46.068 23.568 
L 46.068 238.804 
z
" style="fill: none"/>
   </g>
   <g id="matplotlib.axis_1">
    <g id="xtick_1">
     <g id="line2d_1">
      <defs>
       <path id="md8cc1702e2" d="M 0 0 
L 0 4.8 
" style="stroke: #262626"/>
      </defs>
      <g>
       <use xlink:href="#md8cc1702e2" x="90.284532" y="238.804" style="fill: #262626; stroke: #262626"/>
      </g>
     </g>
     <g id="text_1">
      <!-- Low -->
      <g style="fill: #262626" transform="translate(81.619282 253.790625) scale(0.088 -0.088)">
       <defs>
        <path id="DejaVuSans-4c" d="M 628 4666 
L 1259 4666 
L 1259 531 
L 3531 531 
L 3531 0 
L 628 0 
L 628 4666 
z
" transform="scale(0.015625)"/>
        <path id="DejaVuSans-6f" d="M 1959 3097 
Q 1497 3097 1228 2736 
Q 959 2375 959 1747 
Q 959 1119 1226 758 
Q 1494 397 1959 397 
Q 2419 397 2687 759 
Q 2956 1122 2956 1747 
Q 2956 2369 2687 2733 
Q 2419 3097 1959 3097 
z
M 1959 3584 
Q 2709 3584 3137 3096 
Q 3566 2609 3566 1747 
Q 3566 888 3137 398 
Q 2709 -91 1959 -91 
Q 1206 -91 779 398 
Q 353 888 353 1747 
Q 353 2609 779 3096 
Q 1206 3584 1959 3584 
z
" transform="scale(0.015625)"/>
        <path id="DejaVuSans-77" d="M 269 3500 
L 844 3500 
L 1563 769 
L 2278 3500 
L 2956 3500 
L 3675 769 
L 4391 3500 
L 4966 3500 
L 4050 0 
L 3372 0 
L 2619 2869 
L 1863 0 
L 1184 0 
L 269 3500 
z
" transform="scale(0.015625)"/>
       </defs>
       <use xlink:href="#DejaVuSans-4c"/>
       <use xlink:href="#DejaVuSans-6f" transform="translate(53.962891 0)"/>
       <use xlink:href="#DejaVuSans-77" transform="translate(115.144531 0)"/>
      </g>
     </g>
    </g>
    <g id="xtick_2">
     <g id="line2d_2">
      <g>
       <use xlink:href="#md8cc1702e2" x="172.167" y="238.804" style="fill: #262626; stroke: #262626"/>
      </g>
     </g>
     <g id="text_2">
      <!-- Medium -->
      <g style="fill: #262626" transform="translate(154.573187 253.790625) scale(0.088 -0.088)">
       <defs>
        <path id="DejaVuSans-4d" d="M 628 4666 
L 1569 4666 
L 2759 1491 
L 3956 4666 
L 4897 4666 
L 4897 0 
L 4281 0 
L 4281 4097 
L 3078 897 
L 2444 897 
L 1241 4097 
L 1241 0 
L 628 0 
L 628 4666 
z
" transform="scale(0.015625)"/>
        <path id="DejaVuSans-65" d="M 3597 1894 
L 3597 1613 
L 953 1613 
Q 991 1019 1311 708 
Q 1631 397 2203 397 
Q 2534 397 2845 478 
Q 3156 559 3463 722 
L 3463 178 
Q 3153 47 2828 -22 
Q 2503 -91 2169 -91 
Q 1331 -91 842 396 
Q 353 884 353 1716 
Q 353 2575 817 3079 
Q 1281 3584 2069 3584 
Q 2775 3584 3186 3129 
Q 3597 2675 3597 1894 
z
M 3022 2063 
Q 3016 2534 2758 2815 
Q 2500 3097 2075 3097 
Q 1594 3097 1305 2825 
Q 1016 2553 972 2059 
L 3022 2063 
z
" transform="scale(0.015625)"/>
        <path id="DejaVuSans-64" d="M 2906 2969 
L 2906 4863 
L 3481 4863 
L 3481 0 
L 2906 0 
L 2906 525 
Q 2725 213 2448 61 
Q 2172 -91 1784 -91 
Q 1150 -91 751 415 
Q 353 922 353 1747 
Q 353 2572 751 3078 
Q 1150 3584 1784 3584 
Q 2172 3584 2448 3432 
Q 2725 3281 2906 2969 
z
M 947 1747 
Q 947 1113 1208 752 
Q 1469 391 1925 391 
Q 2381 391 2643 752 
Q 2906 1113 2906 1747 
Q 2906 2381 2643 2742 
Q 2381 3103 1925 3103 
Q 1469 3103 1208 2742 
Q 947 2381 947 1747 
z
" transform="scale(0.015625)"/>
        <path id="DejaVuSans-69" d="M 603 3500 
L 1178 3500 
L 1178 0 
L 603 0 
L 603 3500 
z
M 603 4863 
L 1178 4863 
L 1178 4134 
L 603 4134 
L 603 4863 
z
" transform="scale(0.015625)"/>
        <path id="DejaVuSans-75" d="M 544 1381 
L 544 3500 
L 1119 3500 
L 1119 1403 
Q 1119 906 1312 657 
Q 1506 409 1894 409 
Q 2359 409 2629 706 
Q 2900 1003 2900 1516 
L 2900 3500 
L 3475 3500 
L 3475 0 
L 2900 0 
L 2900 538 
Q 2691 219 2414 64 
Q 2138 -91 1772 -91 
Q 1169 -91 856 284 
Q 544 659 544 1381 
z
M 1991 3584 
L 1991 3584 
z
" transform="scale(0.015625)"/>
        <path id="DejaVuSans-6d" d="M 3328 2828 
Q 3544 3216 3844 3400 
Q 4144 3584 4550 3584 
Q 5097 3584 5394 3201 
Q 5691 2819 5691 2113 
L 5691 0 
L 5113 0 
L 5113 2094 
Q 5113 2597 4934 2840 
Q 4756 3084 4391 3084 
Q 3944 3084 3684 2787 
Q 3425 2491 3425 1978 
L 3425 0 
L 2847 0 
L 2847 2094 
Q 2847 2600 2669 2842 
Q 2491 3084 2119 3084 
Q 1678 3084 1418 2786 
Q 1159 2488 1159 1978 
L 1159 0 
L 581 0 
L 581 3500 
L 1159 3500 
L 1159 2956 
Q 1356 3278 1631 3431 
Q 1906 3584 2284 3584 
Q 2666 3584 2933 3390 
Q 3200 3197 3328 2828 
z
" transform="scale(0.015625)"/>
       </defs>
       <use xlink:href="#DejaVuSans-4d"/>
       <use xlink:href="#DejaVuSans-65" transform="translate(86.279297 0)"/>
       <use xlink:href="#DejaVuSans-64" transform="translate(147.802734 0)"/>
       <use xlink:href="#DejaVuSans-69" transform="translate(211.279297 0)"/>
       <use xlink:href="#DejaVuSans-75" transform="translate(239.0625 0)"/>
       <use xlink:href="#DejaVuSans-6d" transform="translate(302.441406 0)"/>
      </g>
     </g>
    </g>
    <g id="xtick_3">
     <g id="line2d_3">
      <g>
       <use xlink:href="#md8cc1702e2" x="254.049468" y="238.804" style="fill: #262626; stroke: #262626"/>
      </g>
     </g>
     <g id="text_3">
      <!-- High -->
      <g style="fill: #262626" transform="translate(243.936343 253.790625) scale(0.088 -0.088)">
       <defs>
        <path id="DejaVuSans-48" d="M 628 4666 
L 1259 4666 
L 1259 2753 
L 3553 2753 
L 3553 4666 
L 4184 4666 
L 4184 0 
L 3553 0 
L 3553 2222 
L 1259 2222 
L 1259 0 
L 628 0 
L 628 4666 
z
" transform="scale(0.015625)"/>
        <path id="DejaVuSans-67" d="M 2906 1791 
Q 2906 2416 2648 2759 
Q 2391 3103 1925 3103 
Q 1463 3103 1205 2759 
Q 947 2416 947 1791 
Q 947 1169 1205 825 
Q 1463 481 1925 481 
Q 2391 481 2648 825 
Q 2906 1169 2906 1791 
z
M 3481 434 
Q 3481 -459 3084 -895 
Q 2688 -1331 1869 -1331 
Q 1566 -1331 1297 -1286 
Q 1028 -1241 775 -1147 
L 775 -588 
Q 1028 -725 1275 -790 
Q 1522 -856 1778 -856 
Q 2344 -856 2625 -561 
Q 2906 -266 2906 331 
L 2906 616 
Q 2728 306 2450 153 
Q 2172 0 1784 0 
Q 1141 0 747 490 
Q 353 981 353 1791 
Q 353 2603 747 3093 
Q 1141 3584 1784 3584 
Q 2172 3584 2450 3431 
Q 2728 3278 2906 2969 
L 2906 3500 
L 3481 3500 
L 3481 434 
z
" transform="scale(0.015625)"/>
        <path id="DejaVuSans-68" d="M 3513 2113 
L 3513 0 
L 2938 0 
L 2938 2094 
Q 2938 2591 2744 2837 
Q 2550 3084 2163 3084 
Q 1697 3084 1428 2787 
Q 1159 2491 1159 1978 
L 1159 0 
L 581 0 
L 581 4863 
L 1159 4863 
L 1159 2956 
Q 1366 3272 1645 3428 
Q 1925 3584 2291 3584 
Q 2894 3584 3203 3211 
Q 3513 2838 3513 2113 
z
" transform="scale(0.015625)"/>
       </defs>
       <use xlink:href="#DejaVuSans-48"/>
       <use xlink:href="#DejaVuSans-69" transform="translate(75.195312 0)"/>
       <use xlink:href="#DejaVuSans-67" transform="translate(102.978516 0)"/>
       <use xlink:href="#DejaVuSans-68" transform="translate(166.455078 0)"/>
      </g>
     </g>
    </g>
   </g>
   <g id="matplotlib.axis_2">
    <g id="ytick_1">
     <g id="line2d_4">
      <defs>
       <path id="m7f0549bb38" d="M 0 0 
L -4.8 0 
" style="stroke: #262626"/>
      </defs>
      <g>
       <use xlink:href="#m7f0549bb38" x="46.068" y="238.804" style="fill: #262626; stroke: #262626"/>
      </g>
     </g>
     <g id="text_4">
      <!-- 0.5 -->
      <g style="fill: #262626" transform="translate(23.77325 242.147312) scale(0.088 -0.088)">
       <defs>
        <path id="DejaVuSans-30" d="M 2034 4250 
Q 1547 4250 1301 3770 
Q 1056 3291 1056 2328 
Q 1056 1369 1301 889 
Q 1547 409 2034 409 
Q 2525 409 2770 889 
Q 3016 1369 3016 2328 
Q 3016 3291 2770 3770 
Q 2525 4250 2034 4250 
z
M 2034 4750 
Q 2819 4750 3233 4129 
Q 3647 3509 3647 2328 
Q 3647 1150 3233 529 
Q 2819 -91 2034 -91 
Q 1250 -91 836 529 
Q 422 1150 422 2328 
Q 422 3509 836 4129 
Q 1250 4750 2034 4750 
z
" transform="scale(0.015625)"/>
        <path id="DejaVuSans-2e" d="M 684 794 
L 1344 794 
L 1344 0 
L 684 0 
L 684 794 
z
" transform="scale(0.015625)"/>
        <path id="DejaVuSans-35" d="M 691 4666 
L 3169 4666 
L 3169 4134 
L 1269 4134 
L 1269 2991 
Q 1406 3038 1543 3061 
Q 1681 3084 1819 3084 
Q 2600 3084 3056 2656 
Q 3513 2228 3513 1497 
Q 3513 744 3044 326 
Q 2575 -91 1722 -91 
Q 1428 -91 1123 -41 
Q 819 9 494 109 
L 494 744 
Q 775 591 1075 516 
Q 1375 441 1709 441 
Q 2250 441 2565 725 
Q 2881 1009 2881 1497 
Q 2881 1984 2565 2268 
Q 2250 2553 1709 2553 
Q 1456 2553 1204 2497 
Q 953 2441 691 2322 
L 691 4666 
z
" transform="scale(0.015625)"/>
       </defs>
       <use xlink:href="#DejaVuSans-30"/>
       <use xlink:href="#DejaVuSans-2e" transform="translate(63.623047 0)"/>
       <use xlink:href="#DejaVuSans-35" transform="translate(95.410156 0)"/>
      </g>
     </g>
    </g>
    <g id="ytick_2">
     <g id="line2d_5">
      <g>
       <use xlink:href="#m7f0549bb38" x="46.068" y="202.931333" style="fill: #262626; stroke: #262626"/>
      </g>
     </g>
     <g id="text_5">
      <!-- 0.6 -->
      <g style="fill: #262626" transform="translate(23.77325 206.274646) scale(0.088 -0.088)">
       <defs>
        <path id="DejaVuSans-36" d="M 2113 2584 
Q 1688 2584 1439 2293 
Q 1191 2003 1191 1497 
Q 1191 994 1439 701 
Q 1688 409 2113 409 
Q 2538 409 2786 701 
Q 3034 994 3034 1497 
Q 3034 2003 2786 2293 
Q 2538 2584 2113 2584 
z
M 3366 4563 
L 3366 3988 
Q 3128 4100 2886 4159 
Q 2644 4219 2406 4219 
Q 1781 4219 1451 3797 
Q 1122 3375 1075 2522 
Q 1259 2794 1537 2939 
Q 1816 3084 2150 3084 
Q 2853 3084 3261 2657 
Q 3669 2231 3669 1497 
Q 3669 778 3244 343 
Q 2819 -91 2113 -91 
Q 1303 -91 875 529 
Q 447 1150 447 2328 
Q 447 3434 972 4092 
Q 1497 4750 2381 4750 
Q 2619 4750 2861 4703 
Q 3103 4656 3366 4563 
z
" transform="scale(0.015625)"/>
       </defs>
       <use xlink:href="#DejaVuSans-30"/>
       <use xlink:href="#DejaVuSans-2e" transform="translate(63.623047 0)"/>
       <use xlink:href="#DejaVuSans-36" transform="translate(95.410156 0)"/>
      </g>
     </g>
    </g>
    <g id="ytick_3">
     <g id="line2d_6">
      <g>
       <use xlink:href="#m7f0549bb38" x="46.068" y="167.058667" style="fill: #262626; stroke: #262626"/>
      </g>
     </g>
     <g id="text_6">
      <!-- 0.7 -->
      <g style="fill: #262626" transform="translate(23.77325 170.401979) scale(0.088 -0.088)">
       <defs>
        <path id="DejaVuSans-37" d="M 525 4666 
L 3525 4666 
L 3525 4397 
L 1831 0 
L 1172 0 
L 2766 4134 
L 525 4134 
L 525 4666 
z
" transform="scale(0.015625)"/>
       </defs>
       <use xlink:href="#DejaVuSans-30"/>
       <use xlink:href="#DejaVuSans-2e" transform="translate(63.623047 0)"/>
       <use xlink:href="#DejaVuSans-37" transform="translate(95.410156 0)"/>
      </g>
     </g>
    </g>
    <g id="ytick_4">
     <g id="line2d_7">
      <g>
       <use xlink:href="#m7f0549bb38" x="46.068" y="131.186" style="fill: #262626; stroke: #262626"/>
      </g>
     </g>
     <g id="text_7">
      <!-- 0.8 -->
      <g style="fill: #262626" transform="translate(23.77325 134.529312) scale(0.088 -0.088)">
       <defs>
        <path id="DejaVuSans-38" d="M 2034 2216 
Q 1584 2216 1326 1975 
Q 1069 1734 1069 1313 
Q 1069 891 1326 650 
Q 1584 409 2034 409 
Q 2484 409 2743 651 
Q 3003 894 3003 1313 
Q 3003 1734 2745 1975 
Q 2488 2216 2034 2216 
z
M 1403 2484 
Q 997 2584 770 2862 
Q 544 3141 544 3541 
Q 544 4100 942 4425 
Q 1341 4750 2034 4750 
Q 2731 4750 3128 4425 
Q 3525 4100 3525 3541 
Q 3525 3141 3298 2862 
Q 3072 2584 2669 2484 
Q 3125 2378 3379 2068 
Q 3634 1759 3634 1313 
Q 3634 634 3220 271 
Q 2806 -91 2034 -91 
Q 1263 -91 848 271 
Q 434 634 434 1313 
Q 434 1759 690 2068 
Q 947 2378 1403 2484 
z
M 1172 3481 
Q 1172 3119 1398 2916 
Q 1625 2713 2034 2713 
Q 2441 2713 2670 2916 
Q 2900 3119 2900 3481 
Q 2900 3844 2670 4047 
Q 2441 4250 2034 4250 
Q 1625 4250 1398 4047 
Q 1172 3844 1172 3481 
z
" transform="scale(0.015625)"/>
       </defs>
       <use xlink:href="#DejaVuSans-30"/>
       <use xlink:href="#DejaVuSans-2e" transform="translate(63.623047 0)"/>
       <use xlink:href="#DejaVuSans-38" transform="translate(95.410156 0)"/>
      </g>
     </g>
    </g>
    <g id="ytick_5">
     <g id="line2d_8">
      <g>
       <use xlink:href="#m7f0549bb38" x="46.068" y="95.313333" style="fill: #262626; stroke: #262626"/>
      </g>
     </g>
     <g id="text_8">
      <!-- 0.9 -->
      <g style="fill: #262626" transform="translate(23.77325 98.656646) scale(0.088 -0.088)">
       <defs>
        <path id="DejaVuSans-39" d="M 703 97 
L 703 672 
Q 941 559 1184 500 
Q 1428 441 1663 441 
Q 2288 441 2617 861 
Q 2947 1281 2994 2138 
Q 2813 1869 2534 1725 
Q 2256 1581 1919 1581 
Q 1219 1581 811 2004 
Q 403 2428 403 3163 
Q 403 3881 828 4315 
Q 1253 4750 1959 4750 
Q 2769 4750 3195 4129 
Q 3622 3509 3622 2328 
Q 3622 1225 3098 567 
Q 2575 -91 1691 -91 
Q 1453 -91 1209 -44 
Q 966 3 703 97 
z
M 1959 2075 
Q 2384 2075 2632 2365 
Q 2881 2656 2881 3163 
Q 2881 3666 2632 3958 
Q 2384 4250 1959 4250 
Q 1534 4250 1286 3958 
Q 1038 3666 1038 3163 
Q 1038 2656 1286 2365 
Q 1534 2075 1959 2075 
z
" transform="scale(0.015625)"/>
       </defs>
       <use xlink:href="#DejaVuSans-30"/>
       <use xlink:href="#DejaVuSans-2e" transform="translate(63.623047 0)"/>
       <use xlink:href="#DejaVuSans-39" transform="translate(95.410156 0)"/>
      </g>
     </g>
    </g>
    <g id="ytick_6">
     <g id="line2d_9">
      <g>
       <use xlink:href="#m7f0549bb38" x="46.068" y="59.440667" style="fill: #262626; stroke: #262626"/>
      </g>
     </g>
     <g id="text_9">
      <!-- 1.0 -->
      <g style="fill: #262626" transform="translate(23.77325 62.783979) scale(0.088 -0.088)">
       <defs>
        <path id="DejaVuSans-31" d="M 794 531 
L 1825 531 
L 1825 4091 
L 703 3866 
L 703 4441 
L 1819 4666 
L 2450 4666 
L 2450 531 
L 3481 531 
L 3481 0 
L 794 0 
L 794 531 
z
" transform="scale(0.015625)"/>
       </defs>
       <use xlink:href="#DejaVuSans-31"/>
       <use xlink:href="#DejaVuSans-2e" transform="translate(63.623047 0)"/>
       <use xlink:href="#DejaVuSans-30" transform="translate(95.410156 0)"/>
      </g>
     </g>
    </g>
    <g id="ytick_7">
     <g id="line2d_10">
      <g>
       <use xlink:href="#m7f0549bb38" x="46.068" y="23.568" style="fill: #262626; stroke: #262626"/>
      </g>
     </g>
     <g id="text_10">
      <!-- 1.1 -->
      <g style="fill: #262626" transform="translate(23.77325 26.911313) scale(0.088 -0.088)">
       <use xlink:href="#DejaVuSans-31"/>
       <use xlink:href="#DejaVuSans-2e" transform="translate(63.623047 0)"/>
       <use xlink:href="#DejaVuSans-31" transform="translate(95.410156 0)"/>
      </g>
     </g>
    </g>
    <g id="text_11">
     <!-- Probability of correct response -->
     <g style="fill: #262626" transform="translate(17.77675 204.36575) rotate(-90) scale(0.096 -0.096)">
      <defs>
       <path id="DejaVuSans-50" d="M 1259 4147 
L 1259 2394 
L 2053 2394 
Q 2494 2394 2734 2622 
Q 2975 2850 2975 3272 
Q 2975 3691 2734 3919 
Q 2494 4147 2053 4147 
L 1259 4147 
z
M 628 4666 
L 2053 4666 
Q 2838 4666 3239 4311 
Q 3641 3956 3641 3272 
Q 3641 2581 3239 2228 
Q 2838 1875 2053 1875 
L 1259 1875 
L 1259 0 
L 628 0 
L 628 4666 
z
" transform="scale(0.015625)"/>
       <path id="DejaVuSans-72" d="M 2631 2963 
Q 2534 3019 2420 3045 
Q 2306 3072 2169 3072 
Q 1681 3072 1420 2755 
Q 1159 2438 1159 1844 
L 1159 0 
L 581 0 
L 581 3500 
L 1159 3500 
L 1159 2956 
Q 1341 3275 1631 3429 
Q 1922 3584 2338 3584 
Q 2397 3584 2469 3576 
Q 2541 3569 2628 3553 
L 2631 2963 
z
" transform="scale(0.015625)"/>
       <path id="DejaVuSans-62" d="M 3116 1747 
Q 3116 2381 2855 2742 
Q 2594 3103 2138 3103 
Q 1681 3103 1420 2742 
Q 1159 2381 1159 1747 
Q 1159 1113 1420 752 
Q 1681 391 2138 391 
Q 2594 391 2855 752 
Q 3116 1113 3116 1747 
z
M 1159 2969 
Q 1341 3281 1617 3432 
Q 1894 3584 2278 3584 
Q 2916 3584 3314 3078 
Q 3713 2572 3713 1747 
Q 3713 922 3314 415 
Q 2916 -91 2278 -91 
Q 1894 -91 1617 61 
Q 1341 213 1159 525 
L 1159 0 
L 581 0 
L 581 4863 
L 1159 4863 
L 1159 2969 
z
" transform="scale(0.015625)"/>
       <path id="DejaVuSans-61" d="M 2194 1759 
Q 1497 1759 1228 1600 
Q 959 1441 959 1056 
Q 959 750 1161 570 
Q 1363 391 1709 391 
Q 2188 391 2477 730 
Q 2766 1069 2766 1631 
L 2766 1759 
L 2194 1759 
z
M 3341 1997 
L 3341 0 
L 2766 0 
L 2766 531 
Q 2569 213 2275 61 
Q 1981 -91 1556 -91 
Q 1019 -91 701 211 
Q 384 513 384 1019 
Q 384 1609 779 1909 
Q 1175 2209 1959 2209 
L 2766 2209 
L 2766 2266 
Q 2766 2663 2505 2880 
Q 2244 3097 1772 3097 
Q 1472 3097 1187 3025 
Q 903 2953 641 2809 
L 641 3341 
Q 956 3463 1253 3523 
Q 1550 3584 1831 3584 
Q 2591 3584 2966 3190 
Q 3341 2797 3341 1997 
z
" transform="scale(0.015625)"/>
       <path id="DejaVuSans-6c" d="M 603 4863 
L 1178 4863 
L 1178 0 
L 603 0 
L 603 4863 
z
" transform="scale(0.015625)"/>
       <path id="DejaVuSans-74" d="M 1172 4494 
L 1172 3500 
L 2356 3500 
L 2356 3053 
L 1172 3053 
L 1172 1153 
Q 1172 725 1289 603 
Q 1406 481 1766 481 
L 2356 481 
L 2356 0 
L 1766 0 
Q 1100 0 847 248 
Q 594 497 594 1153 
L 594 3053 
L 172 3053 
L 172 3500 
L 594 3500 
L 594 4494 
L 1172 4494 
z
" transform="scale(0.015625)"/>
       <path id="DejaVuSans-79" d="M 2059 -325 
Q 1816 -950 1584 -1140 
Q 1353 -1331 966 -1331 
L 506 -1331 
L 506 -850 
L 844 -850 
Q 1081 -850 1212 -737 
Q 1344 -625 1503 -206 
L 1606 56 
L 191 3500 
L 800 3500 
L 1894 763 
L 2988 3500 
L 3597 3500 
L 2059 -325 
z
" transform="scale(0.015625)"/>
       <path id="DejaVuSans-20" transform="scale(0.015625)"/>
       <path id="DejaVuSans-66" d="M 2375 4863 
L 2375 4384 
L 1825 4384 
Q 1516 4384 1395 4259 
Q 1275 4134 1275 3809 
L 1275 3500 
L 2222 3500 
L 2222 3053 
L 1275 3053 
L 1275 0 
L 697 0 
L 697 3053 
L 147 3053 
L 147 3500 
L 697 3500 
L 697 3744 
Q 697 4328 969 4595 
Q 1241 4863 1831 4863 
L 2375 4863 
z
" transform="scale(0.015625)"/>
       <path id="DejaVuSans-63" d="M 3122 3366 
L 3122 2828 
Q 2878 2963 2633 3030 
Q 2388 3097 2138 3097 
Q 1578 3097 1268 2742 
Q 959 2388 959 1747 
Q 959 1106 1268 751 
Q 1578 397 2138 397 
Q 2388 397 2633 464 
Q 2878 531 3122 666 
L 3122 134 
Q 2881 22 2623 -34 
Q 2366 -91 2075 -91 
Q 1284 -91 818 406 
Q 353 903 353 1747 
Q 353 2603 823 3093 
Q 1294 3584 2113 3584 
Q 2378 3584 2631 3529 
Q 2884 3475 3122 3366 
z
" transform="scale(0.015625)"/>
       <path id="DejaVuSans-73" d="M 2834 3397 
L 2834 2853 
Q 2591 2978 2328 3040 
Q 2066 3103 1784 3103 
Q 1356 3103 1142 2972 
Q 928 2841 928 2578 
Q 928 2378 1081 2264 
Q 1234 2150 1697 2047 
L 1894 2003 
Q 2506 1872 2764 1633 
Q 3022 1394 3022 966 
Q 3022 478 2636 193 
Q 2250 -91 1575 -91 
Q 1294 -91 989 -36 
Q 684 19 347 128 
L 347 722 
Q 666 556 975 473 
Q 1284 391 1588 391 
Q 1994 391 2212 530 
Q 2431 669 2431 922 
Q 2431 1156 2273 1281 
Q 2116 1406 1581 1522 
L 1381 1569 
Q 847 1681 609 1914 
Q 372 2147 372 2553 
Q 372 3047 722 3315 
Q 1072 3584 1716 3584 
Q 2034 3584 2315 3537 
Q 2597 3491 2834 3397 
z
" transform="scale(0.015625)"/>
       <path id="DejaVuSans-70" d="M 1159 525 
L 1159 -1331 
L 581 -1331 
L 581 3500 
L 1159 3500 
L 1159 2969 
Q 1341 3281 1617 3432 
Q 1894 3584 2278 3584 
Q 2916 3584 3314 3078 
Q 3713 2572 3713 1747 
Q 3713 922 3314 415 
Q 2916 -91 2278 -91 
Q 1894 -91 1617 61 
Q 1341 213 1159 525 
z
M 3116 1747 
Q 3116 2381 2855 2742 
Q 2594 3103 2138 3103 
Q 1681 3103 1420 2742 
Q 1159 2381 1159 1747 
Q 1159 1113 1420 752 
Q 1681 391 2138 391 
Q 2594 391 2855 752 
Q 3116 1113 3116 1747 
z
" transform="scale(0.015625)"/>
       <path id="DejaVuSans-6e" d="M 3513 2113 
L 3513 0 
L 2938 0 
L 2938 2094 
Q 2938 2591 2744 2837 
Q 2550 3084 2163 3084 
Q 1697 3084 1428 2787 
Q 1159 2491 1159 1978 
L 1159 0 
L 581 0 
L 581 3500 
L 1159 3500 
L 1159 2956 
Q 1366 3272 1645 3428 
Q 1925 3584 2291 3584 
Q 2894 3584 3203 3211 
Q 3513 2838 3513 2113 
z
" transform="scale(0.015625)"/>
      </defs>
      <use xlink:href="#DejaVuSans-50"/>
      <use xlink:href="#DejaVuSans-72" transform="translate(58.552734 0)"/>
      <use xlink:href="#DejaVuSans-6f" transform="translate(97.416016 0)"/>
      <use xlink:href="#DejaVuSans-62" transform="translate(158.597656 0)"/>
      <use xlink:href="#DejaVuSans-61" transform="translate(222.074219 0)"/>
      <use xlink:href="#DejaVuSans-62" transform="translate(283.353516 0)"/>
      <use xlink:href="#DejaVuSans-69" transform="translate(346.830078 0)"/>
      <use xlink:href="#DejaVuSans-6c" transform="translate(374.613281 0)"/>
      <use xlink:href="#DejaVuSans-69" transform="translate(402.396484 0)"/>
      <use xlink:href="#DejaVuSans-74" transform="translate(430.179688 0)"/>
      <use xlink:href="#DejaVuSans-79" transform="translate(469.388672 0)"/>
      <use xlink:href="#DejaVuSans-20" transform="translate(528.568359 0)"/>
      <use xlink:href="#DejaVuSans-6f" transform="translate(560.355469 0)"/>
      <use xlink:href="#DejaVuSans-66" transform="translate(621.537109 0)"/>
      <use xlink:href="#DejaVuSans-20" transform="translate(656.742188 0)"/>
      <use xlink:href="#DejaVuSans-63" transform="translate(688.529297 0)"/>
      <use xlink:href="#DejaVuSans-6f" transform="translate(743.509766 0)"/>
      <use xlink:href="#DejaVuSans-72" transform="translate(804.691406 0)"/>
      <use xlink:href="#DejaVuSans-72" transform="translate(844.054688 0)"/>
      <use xlink:href="#DejaVuSans-65" transform="translate(882.917969 0)"/>
      <use xlink:href="#DejaVuSans-63" transform="translate(944.441406 0)"/>
      <use xlink:href="#DejaVuSans-74" transform="translate(999.421875 0)"/>
      <use xlink:href="#DejaVuSans-20" transform="translate(1038.630859 0)"/>
      <use xlink:href="#DejaVuSans-72" transform="translate(1070.417969 0)"/>
      <use xlink:href="#DejaVuSans-65" transform="translate(1109.28125 0)"/>
      <use xlink:href="#DejaVuSans-73" transform="translate(1170.804688 0)"/>
      <use xlink:href="#DejaVuSans-70" transform="translate(1222.904297 0)"/>
      <use xlink:href="#DejaVuSans-6f" transform="translate(1286.380859 0)"/>
      <use xlink:href="#DejaVuSans-6e" transform="translate(1347.5625 0)"/>
      <use xlink:href="#DejaVuSans-73" transform="translate(1410.941406 0)"/>
      <use xlink:href="#DejaVuSans-65" transform="translate(1463.041016 0)"/>
     </g>
    </g>
   </g>
   <g id="FillBetweenPolyCollection_1">
    <defs>
     <path id="mba91c8645f" d="M 118.131232 -153.787522 
L 62.437833 -153.787522 
L 61.884422 -154.336665 
L 61.361957 -154.885809 
L 60.871685 -155.434952 
L 60.414642 -155.984096 
L 59.991636 -156.533239 
L 59.603242 -157.082383 
L 59.249799 -157.631526 
L 58.931405 -158.18067 
L 58.647916 -158.729813 
L 58.398951 -159.278957 
L 58.183894 -159.8281 
L 58.001903 -160.377244 
L 57.851919 -160.926387 
L 57.732678 -161.475531 
L 57.642726 -162.024674 
L 57.580434 -162.573818 
L 57.544014 -163.122961 
L 57.531545 -163.672105 
L 57.540987 -164.221248 
L 57.570207 -164.770392 
L 57.617 -165.319535 
L 57.679113 -165.868679 
L 57.754271 -166.417822 
L 57.840197 -166.966965 
L 57.934639 -167.516109 
L 58.035392 -168.065252 
L 58.140319 -168.614396 
L 58.247375 -169.163539 
L 58.354625 -169.712683 
L 58.460261 -170.261826 
L 58.562626 -170.81097 
L 58.66022 -171.360113 
L 58.751718 -171.909257 
L 58.835981 -172.4584 
L 58.912065 -173.007544 
L 58.979223 -173.556687 
L 59.036915 -174.105831 
L 59.084808 -174.654974 
L 59.122771 -175.204118 
L 59.150879 -175.753261 
L 59.169404 -176.302405 
L 59.178808 -176.851548 
L 59.179735 -177.400692 
L 59.173 -177.949835 
L 59.159575 -178.498979 
L 59.140578 -179.048122 
L 59.117252 -179.597266 
L 59.090956 -180.146409 
L 59.063139 -180.695552 
L 59.035331 -181.244696 
L 59.009115 -181.793839 
L 58.986117 -182.342983 
L 58.967981 -182.892126 
L 58.956353 -183.44127 
L 58.952863 -183.990413 
L 58.959106 -184.539557 
L 58.976628 -185.0887 
L 59.006907 -185.637844 
L 59.051342 -186.186987 
L 59.111234 -186.736131 
L 59.187784 -187.285274 
L 59.282071 -187.834418 
L 59.395054 -188.383561 
L 59.527557 -188.932705 
L 59.680269 -189.481848 
L 59.853735 -190.030992 
L 60.048362 -190.580135 
L 60.264409 -191.129279 
L 60.501998 -191.678422 
L 60.761108 -192.227566 
L 61.041586 -192.776709 
L 61.34315 -193.325853 
L 61.665393 -193.874996 
L 62.007795 -194.42414 
L 62.369732 -194.973283 
L 62.75048 -195.522426 
L 63.14923 -196.07157 
L 63.565096 -196.620713 
L 63.997128 -197.169857 
L 64.44432 -197.719 
L 64.905621 -198.268144 
L 65.379947 -198.817287 
L 65.86619 -199.366431 
L 66.363228 -199.915574 
L 66.869933 -200.464718 
L 67.385181 -201.013861 
L 67.90786 -201.563005 
L 68.436873 -202.112148 
L 68.97115 -202.661292 
L 69.509647 -203.210435 
L 70.051355 -203.759579 
L 70.595302 -204.308722 
L 71.140554 -204.857866 
L 71.686218 -205.407009 
L 72.231445 -205.956153 
L 72.775427 -206.505296 
L 73.317399 -207.05444 
L 73.856637 -207.603583 
L 74.392459 -208.152727 
L 106.176606 -208.152727 
L 106.176606 -208.152727 
L 106.712428 -207.603583 
L 107.251666 -207.05444 
L 107.793638 -206.505296 
L 108.33762 -205.956153 
L 108.882847 -205.407009 
L 109.428511 -204.857866 
L 109.973763 -204.308722 
L 110.51771 -203.759579 
L 111.059418 -203.210435 
L 111.597915 -202.661292 
L 112.132192 -202.112148 
L 112.661205 -201.563005 
L 113.183884 -201.013861 
L 113.699132 -200.464718 
L 114.205837 -199.915574 
L 114.702875 -199.366431 
L 115.189118 -198.817287 
L 115.663444 -198.268144 
L 116.124745 -197.719 
L 116.571937 -197.169857 
L 117.003969 -196.620713 
L 117.419835 -196.07157 
L 117.818585 -195.522426 
L 118.199333 -194.973283 
L 118.56127 -194.42414 
L 118.903672 -193.874996 
L 119.225915 -193.325853 
L 119.527479 -192.776709 
L 119.807957 -192.227566 
L 120.067067 -191.678422 
L 120.304656 -191.129279 
L 120.520703 -190.580135 
L 120.71533 -190.030992 
L 120.888796 -189.481848 
L 121.041508 -188.932705 
L 121.174011 -188.383561 
L 121.286994 -187.834418 
L 121.381281 -187.285274 
L 121.457831 -186.736131 
L 121.517723 -186.186987 
L 121.562158 -185.637844 
L 121.592437 -185.0887 
L 121.609959 -184.539557 
L 121.616202 -183.990413 
L 121.612712 -183.44127 
L 121.601084 -182.892126 
L 121.582948 -182.342983 
L 121.55995 -181.793839 
L 121.533734 -181.244696 
L 121.505926 -180.695552 
L 121.478109 -180.146409 
L 121.451813 -179.597266 
L 121.428487 -179.048122 
L 121.40949 -178.498979 
L 121.396065 -177.949835 
L 121.38933 -177.400692 
L 121.390257 -176.851548 
L 121.399661 -176.302405 
L 121.418186 -175.753261 
L 121.446294 -175.204118 
L 121.484257 -174.654974 
L 121.53215 -174.105831 
L 121.589842 -173.556687 
L 121.657 -173.007544 
L 121.733084 -172.4584 
L 121.817347 -171.909257 
L 121.908845 -171.360113 
L 122.006439 -170.81097 
L 122.108803 -170.261826 
L 122.21444 -169.712683 
L 122.32169 -169.163539 
L 122.428746 -168.614396 
L 122.533673 -168.065252 
L 122.634426 -167.516109 
L 122.728868 -166.966965 
L 122.814794 -166.417822 
L 122.889952 -165.868679 
L 122.952065 -165.319535 
L 122.998858 -164.770392 
L 123.028077 -164.221248 
L 123.037519 -163.672105 
L 123.025051 -163.122961 
L 122.988631 -162.573818 
L 122.926339 -162.024674 
L 122.836387 -161.475531 
L 122.717146 -160.926387 
L 122.567162 -160.377244 
L 122.385171 -159.8281 
L 122.170114 -159.278957 
L 121.921149 -158.729813 
L 121.63766 -158.18067 
L 121.319266 -157.631526 
L 120.965823 -157.082383 
L 120.577429 -156.533239 
L 120.154423 -155.984096 
L 119.69738 -155.434952 
L 119.207108 -154.885809 
L 118.684643 -154.336665 
L 118.131232 -153.787522 
z
" style="stroke: #2f2f2f"/>
    </defs>
    <g clip-path="url(#pecf5794043)">
     <use xlink:href="#mba91c8645f" x="0" y="288" style="fill: #58b2a3; stroke: #2f2f2f"/>
    </g>
   </g>
   <g id="FillBetweenPolyCollection_2">
    <defs>
     <path id="m5b98348163" d="M 180.182621 -151.239801 
L 164.151379 -151.239801 
L 163.954458 -151.727889 
L 163.755434 -152.215976 
L 163.552922 -152.704064 
L 163.34542 -153.192151 
L 163.131325 -153.680239 
L 162.908962 -154.168327 
L 162.676601 -154.656414 
L 162.432488 -155.144502 
L 162.174873 -155.632589 
L 161.902039 -156.120677 
L 161.61233 -156.608764 
L 161.304185 -157.096852 
L 160.976164 -157.58494 
L 160.62698 -158.073027 
L 160.255524 -158.561115 
L 159.860889 -159.049202 
L 159.442398 -159.53729 
L 158.999617 -160.025378 
L 158.532375 -160.513465 
L 158.040772 -161.001553 
L 157.525193 -161.48964 
L 156.986305 -161.977728 
L 156.42506 -162.465815 
L 155.842691 -162.953903 
L 155.240696 -163.441991 
L 154.620831 -163.930078 
L 153.985088 -164.418166 
L 153.335674 -164.906253 
L 152.674986 -165.394341 
L 152.005583 -165.882428 
L 151.330159 -166.370516 
L 150.651505 -166.858604 
L 149.972481 -167.346691 
L 149.295983 -167.834779 
L 148.624905 -168.322866 
L 147.96211 -168.810954 
L 147.3104 -169.299041 
L 146.672483 -169.787129 
L 146.050946 -170.275217 
L 145.448236 -170.763304 
L 144.866631 -171.251392 
L 144.30823 -171.739479 
L 143.774934 -172.227567 
L 143.268435 -172.715654 
L 142.790214 -173.203742 
L 142.341535 -173.69183 
L 141.923446 -174.179917 
L 141.536784 -174.668005 
L 141.182183 -175.156092 
L 140.860081 -175.64418 
L 140.570737 -176.132267 
L 140.314241 -176.620355 
L 140.090532 -177.108443 
L 139.899419 -177.59653 
L 139.74059 -178.084618 
L 139.613639 -178.572705 
L 139.518078 -179.060793 
L 139.453357 -179.54888 
L 139.418878 -180.036968 
L 139.414013 -180.525056 
L 139.438113 -181.013143 
L 139.490525 -181.501231 
L 139.570598 -181.989318 
L 139.677691 -182.477406 
L 139.811182 -182.965494 
L 139.97047 -183.453581 
L 140.154975 -183.941669 
L 140.364143 -184.429756 
L 140.597444 -184.917844 
L 140.854366 -185.405931 
L 141.134413 -185.894019 
L 141.437104 -186.382107 
L 141.761962 -186.870194 
L 142.108512 -187.358282 
L 142.476273 -187.846369 
L 142.864752 -188.334457 
L 143.273437 -188.822544 
L 143.701793 -189.310632 
L 144.149256 -189.79872 
L 144.615225 -190.286807 
L 145.099062 -190.774895 
L 145.600087 -191.262982 
L 146.117571 -191.75107 
L 146.65074 -192.239157 
L 147.19877 -192.727245 
L 147.76079 -193.215333 
L 148.335875 -193.70342 
L 148.923056 -194.191508 
L 149.521316 -194.679595 
L 150.129593 -195.167683 
L 150.746786 -195.65577 
L 151.371752 -196.143858 
L 152.003319 -196.631946 
L 152.640281 -197.120033 
L 153.281409 -197.608121 
L 153.925453 -198.096208 
L 154.57115 -198.584296 
L 155.217226 -199.072383 
L 155.862403 -199.560471 
L 188.471597 -199.560471 
L 188.471597 -199.560471 
L 189.116774 -199.072383 
L 189.76285 -198.584296 
L 190.408547 -198.096208 
L 191.052591 -197.608121 
L 191.693719 -197.120033 
L 192.330681 -196.631946 
L 192.962248 -196.143858 
L 193.587214 -195.65577 
L 194.204407 -195.167683 
L 194.812684 -194.679595 
L 195.410944 -194.191508 
L 195.998125 -193.70342 
L 196.57321 -193.215333 
L 197.13523 -192.727245 
L 197.68326 -192.239157 
L 198.216429 -191.75107 
L 198.733913 -191.262982 
L 199.234938 -190.774895 
L 199.718775 -190.286807 
L 200.184744 -189.79872 
L 200.632207 -189.310632 
L 201.060563 -188.822544 
L 201.469248 -188.334457 
L 201.857727 -187.846369 
L 202.225488 -187.358282 
L 202.572038 -186.870194 
L 202.896896 -186.382107 
L 203.199587 -185.894019 
L 203.479634 -185.405931 
L 203.736556 -184.917844 
L 203.969857 -184.429756 
L 204.179025 -183.941669 
L 204.36353 -183.453581 
L 204.522818 -182.965494 
L 204.656309 -182.477406 
L 204.763402 -181.989318 
L 204.843475 -181.501231 
L 204.895887 -181.013143 
L 204.919987 -180.525056 
L 204.915122 -180.036968 
L 204.880643 -179.54888 
L 204.815922 -179.060793 
L 204.720361 -178.572705 
L 204.59341 -178.084618 
L 204.434581 -177.59653 
L 204.243468 -177.108443 
L 204.019759 -176.620355 
L 203.763263 -176.132267 
L 203.473919 -175.64418 
L 203.151817 -175.156092 
L 202.797216 -174.668005 
L 202.410554 -174.179917 
L 201.992465 -173.69183 
L 201.543786 -173.203742 
L 201.065565 -172.715654 
L 200.559066 -172.227567 
L 200.02577 -171.739479 
L 199.467369 -171.251392 
L 198.885764 -170.763304 
L 198.283054 -170.275217 
L 197.661517 -169.787129 
L 197.0236 -169.299041 
L 196.37189 -168.810954 
L 195.709095 -168.322866 
L 195.038017 -167.834779 
L 194.361519 -167.346691 
L 193.682495 -166.858604 
L 193.003841 -166.370516 
L 192.328417 -165.882428 
L 191.659014 -165.394341 
L 190.998326 -164.906253 
L 190.348912 -164.418166 
L 189.713169 -163.930078 
L 189.093304 -163.441991 
L 188.491309 -162.953903 
L 187.90894 -162.465815 
L 187.347695 -161.977728 
L 186.808807 -161.48964 
L 186.293228 -161.001553 
L 185.801625 -160.513465 
L 185.334383 -160.025378 
L 184.891602 -159.53729 
L 184.473111 -159.049202 
L 184.078476 -158.561115 
L 183.70702 -158.073027 
L 183.357836 -157.58494 
L 183.029815 -157.096852 
L 182.72167 -156.608764 
L 182.431961 -156.120677 
L 182.159127 -155.632589 
L 181.901512 -155.144502 
L 181.657399 -154.656414 
L 181.425038 -154.168327 
L 181.202675 -153.680239 
L 180.98858 -153.192151 
L 180.781078 -152.704064 
L 180.578566 -152.215976 
L 180.379542 -151.727889 
L 180.182621 -151.239801 
z
" style="stroke: #2f2f2f"/>
    </defs>
    <g clip-path="url(#pecf5794043)">
     <use xlink:href="#m5b98348163" x="0" y="288" style="fill: #437695; stroke: #2f2f2f"/>
    </g>
   </g>
   <g id="FillBetweenPolyCollection_3">
    <defs>
     <path id="m228a2bfa64" d="M 260.658855 -125.425417 
L 247.44008 -125.425417 
L 247.368009 -126.135177 
L 247.301823 -126.844938 
L 247.24049 -127.554698 
L 247.182824 -128.264459 
L 247.127488 -128.974219 
L 247.073003 -129.68398 
L 247.017761 -130.39374 
L 246.960036 -131.103501 
L 246.898 -131.813261 
L 246.829739 -132.523022 
L 246.753269 -133.232782 
L 246.666561 -133.942543 
L 246.567559 -134.652303 
L 246.454201 -135.362064 
L 246.324446 -136.071824 
L 246.176292 -136.781585 
L 246.007805 -137.491345 
L 245.817142 -138.201106 
L 245.602572 -138.910866 
L 245.362501 -139.620627 
L 245.095494 -140.330387 
L 244.800299 -141.040148 
L 244.47586 -141.749908 
L 244.121342 -142.459669 
L 243.736142 -143.169429 
L 243.319907 -143.87919 
L 242.872541 -144.58895 
L 242.394219 -145.298711 
L 241.885389 -146.008471 
L 241.346777 -146.718232 
L 240.779385 -147.427992 
L 240.184491 -148.137753 
L 239.563642 -148.847513 
L 238.918643 -149.557274 
L 238.251543 -150.267034 
L 237.564625 -150.976795 
L 236.860384 -151.686555 
L 236.141503 -152.396316 
L 235.410835 -153.106076 
L 234.671374 -153.815837 
L 233.926227 -154.525597 
L 233.178584 -155.235358 
L 232.431689 -155.945118 
L 231.688809 -156.654879 
L 230.953199 -157.364639 
L 230.228071 -158.0744 
L 229.516566 -158.78416 
L 228.821719 -159.493921 
L 228.146435 -160.203681 
L 227.493456 -160.913442 
L 226.86534 -161.623202 
L 226.264441 -162.332963 
L 225.692885 -163.042724 
L 225.152555 -163.752484 
L 224.645083 -164.462245 
L 224.171836 -165.172005 
L 223.733917 -165.881766 
L 223.332157 -166.591526 
L 222.967126 -167.301287 
L 222.639134 -168.011047 
L 222.348244 -168.720808 
L 222.094287 -169.430568 
L 221.876876 -170.140329 
L 221.695429 -170.850089 
L 221.54919 -171.55985 
L 221.437253 -172.26961 
L 221.358586 -172.979371 
L 221.312062 -173.689131 
L 221.296481 -174.398892 
L 221.310598 -175.108652 
L 221.353153 -175.818413 
L 221.42289 -176.528173 
L 221.518586 -177.237934 
L 221.639065 -177.947694 
L 221.783225 -178.657455 
L 221.950049 -179.367215 
L 222.138618 -180.076976 
L 222.348123 -180.786736 
L 222.577868 -181.496497 
L 222.827277 -182.206257 
L 223.095889 -182.916018 
L 223.383355 -183.625778 
L 223.689436 -184.335539 
L 224.013985 -185.045299 
L 224.356939 -185.75506 
L 224.718305 -186.46482 
L 225.098138 -187.174581 
L 225.496528 -187.884341 
L 225.913579 -188.594102 
L 226.349388 -189.303862 
L 226.804025 -190.013623 
L 227.277515 -190.723383 
L 227.76982 -191.433144 
L 228.280816 -192.142904 
L 228.810284 -192.852665 
L 229.357893 -193.562425 
L 229.923187 -194.272186 
L 230.50558 -194.981946 
L 231.104346 -195.691707 
L 276.994589 -195.691707 
L 276.994589 -195.691707 
L 277.593355 -194.981946 
L 278.175748 -194.272186 
L 278.741042 -193.562425 
L 279.288651 -192.852665 
L 279.818119 -192.142904 
L 280.329115 -191.433144 
L 280.82142 -190.723383 
L 281.29491 -190.013623 
L 281.749547 -189.303862 
L 282.185356 -188.594102 
L 282.602407 -187.884341 
L 283.000798 -187.174581 
L 283.38063 -186.46482 
L 283.741996 -185.75506 
L 284.08495 -185.045299 
L 284.409499 -184.335539 
L 284.71558 -183.625778 
L 285.003047 -182.916018 
L 285.271658 -182.206257 
L 285.521067 -181.496497 
L 285.750812 -180.786736 
L 285.960317 -180.076976 
L 286.148886 -179.367215 
L 286.31571 -178.657455 
L 286.45987 -177.947694 
L 286.58035 -177.237934 
L 286.676045 -176.528173 
L 286.745782 -175.818413 
L 286.788337 -175.108652 
L 286.802455 -174.398892 
L 286.786873 -173.689131 
L 286.740349 -172.979371 
L 286.661682 -172.26961 
L 286.549745 -171.55985 
L 286.403506 -170.850089 
L 286.222059 -170.140329 
L 286.004649 -169.430568 
L 285.750691 -168.720808 
L 285.459802 -168.011047 
L 285.131809 -167.301287 
L 284.766778 -166.591526 
L 284.365018 -165.881766 
L 283.927099 -165.172005 
L 283.453852 -164.462245 
L 282.94638 -163.752484 
L 282.40605 -163.042724 
L 281.834494 -162.332963 
L 281.233595 -161.623202 
L 280.605479 -160.913442 
L 279.9525 -160.203681 
L 279.277216 -159.493921 
L 278.582369 -158.78416 
L 277.870864 -158.0744 
L 277.145736 -157.364639 
L 276.410126 -156.654879 
L 275.667246 -155.945118 
L 274.920351 -155.235358 
L 274.172708 -154.525597 
L 273.427561 -153.815837 
L 272.6881 -153.106076 
L 271.957432 -152.396316 
L 271.238551 -151.686555 
L 270.53431 -150.976795 
L 269.847392 -150.267034 
L 269.180292 -149.557274 
L 268.535293 -148.847513 
L 267.914444 -148.137753 
L 267.31955 -147.427992 
L 266.752158 -146.718232 
L 266.213546 -146.008471 
L 265.704716 -145.298711 
L 265.226394 -144.58895 
L 264.779028 -143.87919 
L 264.362793 -143.169429 
L 263.977593 -142.459669 
L 263.623075 -141.749908 
L 263.298636 -141.040148 
L 263.003441 -140.330387 
L 262.736435 -139.620627 
L 262.496364 -138.910866 
L 262.281793 -138.201106 
L 262.09113 -137.491345 
L 261.922643 -136.781585 
L 261.774489 -136.071824 
L 261.644734 -135.362064 
L 261.531376 -134.652303 
L 261.432374 -133.942543 
L 261.345666 -133.232782 
L 261.269196 -132.523022 
L 261.200935 -131.813261 
L 261.138899 -131.103501 
L 261.081174 -130.39374 
L 261.025932 -129.68398 
L 260.971447 -128.974219 
L 260.916111 -128.264459 
L 260.858445 -127.554698 
L 260.797112 -126.844938 
L 260.730926 -126.135177 
L 260.658855 -125.425417 
z
" style="stroke: #2f2f2f"/>
    </defs>
    <g clip-path="url(#pecf5794043)">
     <use xlink:href="#m228a2bfa64" x="0" y="288" style="fill: #423b63; stroke: #2f2f2f"/>
    </g>
   </g>
   <g id="line2d_11">
    <path d="M 90.284532 134.212478 
L 90.284532 79.847273 
" clip-path="url(#pecf5794043)" style="fill: none; stroke: #2f2f2f; stroke-width: 1.5; stroke-linecap: round"/>
   </g>
   <g id="line2d_12">
    <path d="M 90.284532 129.567684 
L 90.284532 97.003668 
" clip-path="url(#pecf5794043)" style="fill: none; stroke: #2f2f2f; stroke-width: 4.5; stroke-linecap: round"/>
   </g>
   <g id="line2d_13">
    <path d="M 90.284532 110.178682 
" clip-path="url(#pecf5794043)" style="fill: none; stroke: #2f2f2f; stroke-width: 1.2; stroke-linecap: round"/>
    <defs>
     <path id="m7e0bd2cf4e" d="M 1.875 0 
L -1.875 -0 
" style="stroke: #ffffff; stroke-width: 0.9"/>
    </defs>
    <g clip-path="url(#pecf5794043)">
     <use xlink:href="#m7e0bd2cf4e" x="90.284532" y="110.178682" style="fill: #ffffff; stroke: #ffffff; stroke-width: 0.9"/>
    </g>
   </g>
   <g id="line2d_14">
    <path d="M 172.167 136.760199 
L 172.167 88.439529 
" clip-path="url(#pecf5794043)" style="fill: none; stroke: #2f2f2f; stroke-width: 1.5; stroke-linecap: round"/>
   </g>
   <g id="line2d_15">
    <path d="M 172.167 116.409666 
L 172.167 99.696776 
" clip-path="url(#pecf5794043)" style="fill: none; stroke: #2f2f2f; stroke-width: 4.5; stroke-linecap: round"/>
   </g>
   <g id="line2d_16">
    <path d="M 172.167 107.747998 
" clip-path="url(#pecf5794043)" style="fill: none; stroke: #2f2f2f; stroke-width: 1.2; stroke-linecap: round"/>
    <g clip-path="url(#pecf5794043)">
     <use xlink:href="#m7e0bd2cf4e" x="172.167" y="107.747998" style="fill: #ffffff; stroke: #ffffff; stroke-width: 0.9"/>
    </g>
   </g>
   <g id="line2d_17">
    <path d="M 254.049468 129.141444 
L 254.049468 92.308293 
" clip-path="url(#pecf5794043)" style="fill: none; stroke: #2f2f2f; stroke-width: 1.5; stroke-linecap: round"/>
   </g>
   <g id="line2d_18">
    <path d="M 254.049468 121.596277 
L 254.049468 100.160991 
" clip-path="url(#pecf5794043)" style="fill: none; stroke: #2f2f2f; stroke-width: 4.5; stroke-linecap: round"/>
   </g>
   <g id="line2d_19">
    <path d="M 254.049468 119.970228 
" clip-path="url(#pecf5794043)" style="fill: none; stroke: #2f2f2f; stroke-width: 1.2; stroke-linecap: round"/>
    <g clip-path="url(#pecf5794043)">
     <use xlink:href="#m7e0bd2cf4e" x="254.049468" y="119.970228" style="fill: #ffffff; stroke: #ffffff; stroke-width: 0.9"/>
    </g>
   </g>
   <g id="line2d_20">
    <path d="M 90.284532 76.260007 
L 90.284532 67.712324 
L 172.167 67.712324 
L 172.167 76.260007 
" clip-path="url(#pecf5794043)" style="fill: none; stroke: #000000; stroke-linecap: round"/>
   </g>
   <g id="line2d_21">
    <path d="M 172.167 61.91094 
L 172.167 53.00453 
L 254.049468 53.00453 
L 254.049468 61.91094 
" clip-path="url(#pecf5794043)" style="fill: none; stroke: #000000; stroke-linecap: round"/>
   </g>
   <g id="line2d_22">
    <path d="M 90.284532 47.561873 
L 90.284532 38.296737 
L 254.049468 38.296737 
L 254.049468 47.561873 
" clip-path="url(#pecf5794043)" style="fill: none; stroke: #000000; stroke-linecap: round"/>
   </g>
   <g id="patch_3">
    <path d="M 46.068 238.804 
L 46.068 23.568 
" style="fill: none; stroke: #262626; stroke-linejoin: miter; stroke-linecap: square"/>
   </g>
   <g id="patch_4">
    <path d="M 298.266 238.804 
L 298.266 23.568 
" style="fill: none; stroke: #262626; stroke-linejoin: miter; stroke-linecap: square"/>
   </g>
   <g id="patch_5">
    <path d="M 46.068 238.804 
L 298.266 238.804 
" style="fill: none; stroke: #262626; stroke-linejoin: miter; stroke-linecap: square"/>
   </g>
   <g id="patch_6">
    <path d="M 46.068 23.568 
L 298.266 23.568 
" style="fill: none; stroke: #262626; stroke-linejoin: miter; stroke-linecap: square"/>
   </g>
   <g id="text_12">
    <!-- ns -->
    <g transform="translate(125.683266 65.715824) scale(0.096 -0.096)">
     <use xlink:href="#DejaVuSans-6e"/>
     <use xlink:href="#DejaVuSans-73" transform="translate(63.378906 0)"/>
    </g>
   </g>
   <g id="text_13">
    <!-- ns -->
    <g transform="translate(207.565734 51.00803) scale(0.096 -0.096)">
     <use xlink:href="#DejaVuSans-6e"/>
     <use xlink:href="#DejaVuSans-73" transform="translate(63.378906 0)"/>
    </g>
   </g>
   <g id="text_14">
    <!-- ns -->
    <g transform="translate(166.6245 36.300237) scale(0.096 -0.096)">
     <use xlink:href="#DejaVuSans-6e"/>
     <use xlink:href="#DejaVuSans-73" transform="translate(63.378906 0)"/>
    </g>
   </g>
   <g id="text_15">
    <!-- Accuracy -->
    <g style="fill: #262626" transform="translate(150.252 17.568) scale(0.096 -0.096)">
     <defs>
      <path id="DejaVuSans-41" d="M 2188 4044 
L 1331 1722 
L 3047 1722 
L 2188 4044 
z
M 1831 4666 
L 2547 4666 
L 4325 0 
L 3669 0 
L 3244 1197 
L 1141 1197 
L 716 0 
L 50 0 
L 1831 4666 
z
" transform="scale(0.015625)"/>
     </defs>
     <use xlink:href="#DejaVuSans-41"/>
     <use xlink:href="#DejaVuSans-63" transform="translate(66.658203 0)"/>
     <use xlink:href="#DejaVuSans-63" transform="translate(121.638672 0)"/>
     <use xlink:href="#DejaVuSans-75" transform="translate(176.619141 0)"/>
     <use xlink:href="#DejaVuSans-72" transform="translate(239.998047 0)"/>
     <use xlink:href="#DejaVuSans-61" transform="translate(281.111328 0)"/>
     <use xlink:href="#DejaVuSans-63" transform="translate(342.390625 0)"/>
     <use xlink:href="#DejaVuSans-79" transform="translate(397.371094 0)"/>
    </g>
   </g>
  </g>
  <g id="axes_2">
   <g id="patch_7">
    <path d="M 313.434 238.804 
L 565.632 238.804 
L 565.632 23.568 
L 313.434 23.568 
L 313.434 238.804 
z
" style="fill: none"/>
   </g>
   <g id="matplotlib.axis_3">
    <g id="xtick_4">
     <g id="line2d_23">
      <g>
       <use xlink:href="#md8cc1702e2" x="357.650532" y="238.804" style="fill: #262626; stroke: #262626"/>
      </g>
     </g>
     <g id="text_16">
      <!-- Low -->
      <g style="fill: #262626" transform="translate(348.985282 253.790625) scale(0.088 -0.088)">
       <use xlink:href="#DejaVuSans-4c"/>
       <use xlink:href="#DejaVuSans-6f" transform="translate(53.962891 0)"/>
       <use xlink:href="#DejaVuSans-77" transform="translate(115.144531 0)"/>
      </g>
     </g>
    </g>
    <g id="xtick_5">
     <g id="line2d_24">
      <g>
       <use xlink:href="#md8cc1702e2" x="439.533" y="238.804" style="fill: #262626; stroke: #262626"/>
      </g>
     </g>
     <g id="text_17">
      <!-- Medium -->
      <g style="fill: #262626" transform="translate(421.939188 253.790625) scale(0.088 -0.088)">
       <use xlink:href="#DejaVuSans-4d"/>
       <use xlink:href="#DejaVuSans-65" transform="translate(86.279297 0)"/>
       <use xlink:href="#DejaVuSans-64" transform="translate(147.802734 0)"/>
       <use xlink:href="#DejaVuSans-69" transform="translate(211.279297 0)"/>
       <use xlink:href="#DejaVuSans-75" transform="translate(239.0625 0)"/>
       <use xlink:href="#DejaVuSans-6d" transform="translate(302.441406 0)"/>
      </g>
     </g>
    </g>
    <g id="xtick_6">
     <g id="line2d_25">
      <g>
       <use xlink:href="#md8cc1702e2" x="521.415468" y="238.804" style="fill: #262626; stroke: #262626"/>
      </g>
     </g>
     <g id="text_18">
      <!-- High -->
      <g style="fill: #262626" transform="translate(511.302343 253.790625) scale(0.088 -0.088)">
       <use xlink:href="#DejaVuSans-48"/>
       <use xlink:href="#DejaVuSans-69" transform="translate(75.195312 0)"/>
       <use xlink:href="#DejaVuSans-67" transform="translate(102.978516 0)"/>
       <use xlink:href="#DejaVuSans-68" transform="translate(166.455078 0)"/>
      </g>
     </g>
    </g>
   </g>
   <g id="matplotlib.axis_4">
    <g id="ytick_8">
     <g id="line2d_26">
      <g>
       <use xlink:href="#m7f0549bb38" x="313.434" y="238.804" style="fill: #262626; stroke: #262626"/>
      </g>
     </g>
    </g>
    <g id="ytick_9">
     <g id="line2d_27">
      <g>
       <use xlink:href="#m7f0549bb38" x="313.434" y="202.931333" style="fill: #262626; stroke: #262626"/>
      </g>
     </g>
    </g>
    <g id="ytick_10">
     <g id="line2d_28">
      <g>
       <use xlink:href="#m7f0549bb38" x="313.434" y="167.058667" style="fill: #262626; stroke: #262626"/>
      </g>
     </g>
    </g>
    <g id="ytick_11">
     <g id="line2d_29">
      <g>
       <use xlink:href="#m7f0549bb38" x="313.434" y="131.186" style="fill: #262626; stroke: #262626"/>
      </g>
     </g>
    </g>
    <g id="ytick_12">
     <g id="line2d_30">
      <g>
       <use xlink:href="#m7f0549bb38" x="313.434" y="95.313333" style="fill: #262626; stroke: #262626"/>
      </g>
     </g>
    </g>
    <g id="ytick_13">
     <g id="line2d_31">
      <g>
       <use xlink:href="#m7f0549bb38" x="313.434" y="59.440667" style="fill: #262626; stroke: #262626"/>
      </g>
     </g>
    </g>
    <g id="ytick_14">
     <g id="line2d_32">
      <g>
       <use xlink:href="#m7f0549bb38" x="313.434" y="23.568" style="fill: #262626; stroke: #262626"/>
      </g>
     </g>
    </g>
   </g>
   <g id="FillBetweenPolyCollection_4">
    <defs>
     <path id="m177f32518b" d="M 382.514106 -48.73727 
L 332.786959 -48.73727 
L 332.093724 -49.881627 
L 331.419502 -51.025983 
L 330.766713 -52.17034 
L 330.137741 -53.314697 
L 329.534918 -54.459053 
L 328.960507 -55.60341 
L 328.416692 -56.747766 
L 327.905562 -57.892123 
L 327.429095 -59.03648 
L 326.98915 -60.180836 
L 326.587449 -61.325193 
L 326.22557 -62.469549 
L 325.904934 -63.613906 
L 325.626793 -64.758263 
L 325.392226 -65.902619 
L 325.202127 -67.046976 
L 325.0572 -68.191332 
L 324.957956 -69.335689 
L 324.904702 -70.480046 
L 324.897545 -71.624402 
L 324.93639 -72.768759 
L 325.020933 -73.913115 
L 325.15067 -75.057472 
L 325.324896 -76.201829 
L 325.542709 -77.346185 
L 325.803013 -78.490542 
L 326.10453 -79.634898 
L 326.445798 -80.779255 
L 326.82519 -81.923611 
L 327.240915 -83.067968 
L 327.691031 -84.212325 
L 328.173461 -85.356681 
L 328.685996 -86.501038 
L 329.226315 -87.645394 
L 329.791996 -88.789751 
L 330.380528 -89.934108 
L 330.98933 -91.078464 
L 331.61576 -92.222821 
L 332.257132 -93.367177 
L 332.910733 -94.511534 
L 333.573836 -95.655891 
L 334.243713 -96.800247 
L 334.917654 -97.944604 
L 335.592977 -99.08896 
L 336.267046 -100.233317 
L 336.937281 -101.377674 
L 337.601176 -102.52203 
L 338.256305 -103.666387 
L 338.900342 -104.810743 
L 339.531065 -105.9551 
L 340.146373 -107.099457 
L 340.744289 -108.243813 
L 341.322978 -109.38817 
L 341.880746 -110.532526 
L 342.416053 -111.676883 
L 342.927519 -112.82124 
L 343.413928 -113.965596 
L 343.87423 -115.109953 
L 344.307551 -116.254309 
L 344.713189 -117.398666 
L 345.09062 -118.543023 
L 345.439496 -119.687379 
L 345.759643 -120.831736 
L 346.051063 -121.976092 
L 346.313929 -123.120449 
L 346.548581 -124.264805 
L 346.755524 -125.409162 
L 346.935418 -126.553519 
L 347.089076 -127.697875 
L 347.217454 -128.842232 
L 347.321642 -129.986588 
L 347.402859 -131.130945 
L 347.462438 -132.275302 
L 347.501819 -133.419658 
L 347.522536 -134.564015 
L 347.526208 -135.708371 
L 347.514522 -136.852728 
L 347.489227 -137.997085 
L 347.452114 -139.141441 
L 347.40501 -140.285798 
L 347.349758 -141.430154 
L 347.288209 -142.574511 
L 347.222207 -143.718868 
L 347.153575 -144.863224 
L 347.084104 -146.007581 
L 347.015538 -147.151937 
L 346.949567 -148.296294 
L 346.887809 -149.440651 
L 346.831806 -150.585007 
L 346.78301 -151.729364 
L 346.742775 -152.87372 
L 346.712349 -154.018077 
L 346.692867 -155.162434 
L 346.685345 -156.30679 
L 346.690673 -157.451147 
L 346.709616 -158.595503 
L 346.742804 -159.73986 
L 346.790738 -160.884217 
L 346.853784 -162.028573 
L 368.447281 -162.028573 
L 368.447281 -162.028573 
L 368.510327 -160.884217 
L 368.558261 -159.73986 
L 368.591449 -158.595503 
L 368.610392 -157.451147 
L 368.61572 -156.30679 
L 368.608198 -155.162434 
L 368.588716 -154.018077 
L 368.55829 -152.87372 
L 368.518055 -151.729364 
L 368.469259 -150.585007 
L 368.413256 -149.440651 
L 368.351498 -148.296294 
L 368.285527 -147.151937 
L 368.216961 -146.007581 
L 368.14749 -144.863224 
L 368.078858 -143.718868 
L 368.012856 -142.574511 
L 367.951307 -141.430154 
L 367.896055 -140.285798 
L 367.848951 -139.141441 
L 367.811838 -137.997085 
L 367.786543 -136.852728 
L 367.774857 -135.708371 
L 367.778528 -134.564015 
L 367.799246 -133.419658 
L 367.838627 -132.275302 
L 367.898206 -131.130945 
L 367.979423 -129.986588 
L 368.083611 -128.842232 
L 368.211989 -127.697875 
L 368.365647 -126.553519 
L 368.545541 -125.409162 
L 368.752484 -124.264805 
L 368.987136 -123.120449 
L 369.250002 -121.976092 
L 369.541422 -120.831736 
L 369.861569 -119.687379 
L 370.210445 -118.543023 
L 370.587876 -117.398666 
L 370.993514 -116.254309 
L 371.426835 -115.109953 
L 371.887137 -113.965596 
L 372.373546 -112.82124 
L 372.885012 -111.676883 
L 373.420319 -110.532526 
L 373.978087 -109.38817 
L 374.556776 -108.243813 
L 375.154692 -107.099457 
L 375.77 -105.9551 
L 376.400723 -104.810743 
L 377.04476 -103.666387 
L 377.699889 -102.52203 
L 378.363784 -101.377674 
L 379.034019 -100.233317 
L 379.708088 -99.08896 
L 380.383411 -97.944604 
L 381.057352 -96.800247 
L 381.727229 -95.655891 
L 382.390332 -94.511534 
L 383.043933 -93.367177 
L 383.685305 -92.222821 
L 384.311735 -91.078464 
L 384.920537 -89.934108 
L 385.509069 -88.789751 
L 386.07475 -87.645394 
L 386.615069 -86.501038 
L 387.127604 -85.356681 
L 387.610033 -84.212325 
L 388.06015 -83.067968 
L 388.475875 -81.923611 
L 388.855267 -80.779255 
L 389.196535 -79.634898 
L 389.498052 -78.490542 
L 389.758356 -77.346185 
L 389.976169 -76.201829 
L 390.150395 -75.057472 
L 390.280132 -73.913115 
L 390.364675 -72.768759 
L 390.403519 -71.624402 
L 390.396363 -70.480046 
L 390.343109 -69.335689 
L 390.243864 -68.191332 
L 390.098938 -67.046976 
L 389.908839 -65.902619 
L 389.674272 -64.758263 
L 389.396131 -63.613906 
L 389.075495 -62.469549 
L 388.713616 -61.325193 
L 388.311915 -60.180836 
L 387.87197 -59.03648 
L 387.395503 -57.892123 
L 386.884373 -56.747766 
L 386.340558 -55.60341 
L 385.766147 -54.459053 
L 385.163324 -53.314697 
L 384.534352 -52.17034 
L 383.881563 -51.025983 
L 383.207341 -49.881627 
L 382.514106 -48.73727 
z
" style="stroke: #2f2f2f"/>
    </defs>
    <g clip-path="url(#p3f39f1e04b)">
     <use xlink:href="#m177f32518b" x="0" y="288" style="fill: #58b2a3; stroke: #2f2f2f"/>
    </g>
   </g>
   <g id="FillBetweenPolyCollection_5">
    <defs>
     <path id="m7503d11855" d="M 456.715357 -97.362624 
L 422.350643 -97.362624 
L 421.69451 -98.278922 
L 421.03477 -99.195219 
L 420.372692 -100.111516 
L 419.709607 -101.027814 
L 419.046908 -101.944111 
L 418.386049 -102.860409 
L 417.728538 -103.776706 
L 417.075937 -104.693004 
L 416.429851 -105.609301 
L 415.791925 -106.525599 
L 415.163836 -107.441896 
L 414.547283 -108.358194 
L 413.943976 -109.274491 
L 413.355627 -110.190789 
L 412.783935 -111.107086 
L 412.230576 -112.023383 
L 411.697188 -112.939681 
L 411.185354 -113.855978 
L 410.696591 -114.772276 
L 410.232333 -115.688573 
L 409.793919 -116.604871 
L 409.382572 -117.521168 
L 408.999392 -118.437466 
L 408.645338 -119.353763 
L 408.321221 -120.270061 
L 408.027687 -121.186358 
L 407.765211 -122.102656 
L 407.53409 -123.018953 
L 407.334436 -123.935251 
L 407.166174 -124.851548 
L 407.02904 -125.767845 
L 406.922582 -126.684143 
L 406.846163 -127.60044 
L 406.798968 -128.516738 
L 406.780013 -129.433035 
L 406.788154 -130.349333 
L 406.822099 -131.26563 
L 406.880426 -132.181928 
L 406.961598 -133.098225 
L 407.063978 -134.014523 
L 407.185855 -134.93082 
L 407.325459 -135.847118 
L 407.480983 -136.763415 
L 407.650609 -137.679713 
L 407.832525 -138.59601 
L 408.024946 -139.512307 
L 408.22614 -140.428605 
L 408.434444 -141.344902 
L 408.648281 -142.2612 
L 408.866182 -143.177497 
L 409.086798 -144.093795 
L 409.308916 -145.010092 
L 409.531467 -145.92639 
L 409.753538 -146.842687 
L 409.974376 -147.758985 
L 410.193396 -148.675282 
L 410.410178 -149.59158 
L 410.624471 -150.507877 
L 410.836187 -151.424175 
L 411.045395 -152.340472 
L 411.252316 -153.256769 
L 411.457312 -154.173067 
L 411.660877 -155.089364 
L 411.863621 -156.005662 
L 412.066258 -156.921959 
L 412.26959 -157.838257 
L 412.474495 -158.754554 
L 412.681905 -159.670852 
L 412.892793 -160.587149 
L 413.108159 -161.503447 
L 413.329007 -162.419744 
L 413.556337 -163.336042 
L 413.791124 -164.252339 
L 414.034307 -165.168637 
L 414.286777 -166.084934 
L 414.549362 -167.001231 
L 414.822819 -167.917529 
L 415.107824 -168.833826 
L 415.404964 -169.750124 
L 415.714731 -170.666421 
L 416.037517 -171.582719 
L 416.37361 -172.499016 
L 416.723192 -173.415314 
L 417.08634 -174.331611 
L 417.463024 -175.247909 
L 417.853108 -176.164206 
L 418.256355 -177.080504 
L 418.672429 -177.996801 
L 419.100899 -178.913098 
L 419.541245 -179.829396 
L 419.992863 -180.745693 
L 420.45507 -181.661991 
L 420.927111 -182.578288 
L 421.408169 -183.494586 
L 421.897365 -184.410883 
L 422.393773 -185.327181 
L 422.896421 -186.243478 
L 423.404302 -187.159776 
L 423.916378 -188.076073 
L 455.149622 -188.076073 
L 455.149622 -188.076073 
L 455.661698 -187.159776 
L 456.169579 -186.243478 
L 456.672227 -185.327181 
L 457.168635 -184.410883 
L 457.657831 -183.494586 
L 458.138889 -182.578288 
L 458.61093 -181.661991 
L 459.073137 -180.745693 
L 459.524755 -179.829396 
L 459.965101 -178.913098 
L 460.393571 -177.996801 
L 460.809645 -177.080504 
L 461.212892 -176.164206 
L 461.602976 -175.247909 
L 461.97966 -174.331611 
L 462.342808 -173.415314 
L 462.69239 -172.499016 
L 463.028483 -171.582719 
L 463.351269 -170.666421 
L 463.661036 -169.750124 
L 463.958176 -168.833826 
L 464.243181 -167.917529 
L 464.516638 -167.001231 
L 464.779223 -166.084934 
L 465.031693 -165.168637 
L 465.274876 -164.252339 
L 465.509663 -163.336042 
L 465.736993 -162.419744 
L 465.957841 -161.503447 
L 466.173207 -160.587149 
L 466.384095 -159.670852 
L 466.591505 -158.754554 
L 466.79641 -157.838257 
L 466.999742 -156.921959 
L 467.202379 -156.005662 
L 467.405123 -155.089364 
L 467.608688 -154.173067 
L 467.813684 -153.256769 
L 468.020605 -152.340472 
L 468.229813 -151.424175 
L 468.441529 -150.507877 
L 468.655822 -149.59158 
L 468.872604 -148.675282 
L 469.091624 -147.758985 
L 469.312462 -146.842687 
L 469.534533 -145.92639 
L 469.757084 -145.010092 
L 469.979202 -144.093795 
L 470.199818 -143.177497 
L 470.417719 -142.2612 
L 470.631556 -141.344902 
L 470.83986 -140.428605 
L 471.041054 -139.512307 
L 471.233475 -138.59601 
L 471.415391 -137.679713 
L 471.585017 -136.763415 
L 471.740541 -135.847118 
L 471.880145 -134.93082 
L 472.002022 -134.014523 
L 472.104402 -133.098225 
L 472.185574 -132.181928 
L 472.243901 -131.26563 
L 472.277846 -130.349333 
L 472.285987 -129.433035 
L 472.267032 -128.516738 
L 472.219837 -127.60044 
L 472.143418 -126.684143 
L 472.03696 -125.767845 
L 471.899826 -124.851548 
L 471.731564 -123.935251 
L 471.53191 -123.018953 
L 471.300789 -122.102656 
L 471.038313 -121.186358 
L 470.744779 -120.270061 
L 470.420662 -119.353763 
L 470.066608 -118.437466 
L 469.683428 -117.521168 
L 469.272081 -116.604871 
L 468.833667 -115.688573 
L 468.369409 -114.772276 
L 467.880646 -113.855978 
L 467.368812 -112.939681 
L 466.835424 -112.023383 
L 466.282065 -111.107086 
L 465.710373 -110.190789 
L 465.122024 -109.274491 
L 464.518717 -108.358194 
L 463.902164 -107.441896 
L 463.274075 -106.525599 
L 462.636149 -105.609301 
L 461.990063 -104.693004 
L 461.337462 -103.776706 
L 460.679951 -102.860409 
L 460.019092 -101.944111 
L 459.356393 -101.027814 
L 458.693308 -100.111516 
L 458.03123 -99.195219 
L 457.37149 -98.278922 
L 456.715357 -97.362624 
z
" style="stroke: #2f2f2f"/>
    </defs>
    <g clip-path="url(#p3f39f1e04b)">
     <use xlink:href="#m7503d11855" x="0" y="288" style="fill: #437695; stroke: #2f2f2f"/>
    </g>
   </g>
   <g id="FillBetweenPolyCollection_6">
    <defs>
     <path id="m364d8e5f58" d="M 535.006952 -123.05149 
L 507.823984 -123.05149 
L 507.312416 -123.571997 
L 506.788869 -124.092504 
L 506.253381 -124.61301 
L 505.706077 -125.133517 
L 505.147182 -125.654024 
L 504.577034 -126.17453 
L 503.996088 -126.695037 
L 503.404935 -127.215544 
L 502.804305 -127.73605 
L 502.195074 -128.256557 
L 501.578272 -128.777064 
L 500.955084 -129.297571 
L 500.326852 -129.818077 
L 499.695074 -130.338584 
L 499.061396 -130.859091 
L 498.427615 -131.379597 
L 497.795658 -131.900104 
L 497.167579 -132.420611 
L 496.545541 -132.941117 
L 495.9318 -133.461624 
L 495.328682 -133.982131 
L 494.738567 -134.502638 
L 494.163862 -135.023144 
L 493.606975 -135.543651 
L 493.070291 -136.064158 
L 492.556142 -136.584664 
L 492.066778 -137.105171 
L 491.604343 -137.625678 
L 491.170842 -138.146184 
L 490.768115 -138.666691 
L 490.397812 -139.187198 
L 490.061366 -139.707704 
L 489.759973 -140.228211 
L 489.49457 -140.748718 
L 489.265819 -141.269225 
L 489.07409 -141.789731 
L 488.919454 -142.310238 
L 488.801676 -142.830745 
L 488.720209 -143.351251 
L 488.674197 -143.871758 
L 488.662481 -144.392265 
L 488.683606 -144.912771 
L 488.735837 -145.433278 
L 488.817177 -145.953785 
L 488.925383 -146.474292 
L 489.057997 -146.994798 
L 489.21237 -147.515305 
L 489.385693 -148.035812 
L 489.575031 -148.556318 
L 489.777357 -149.076825 
L 489.989591 -149.597332 
L 490.208632 -150.117838 
L 490.431401 -150.638345 
L 490.654877 -151.158852 
L 490.876134 -151.679358 
L 491.092376 -152.199865 
L 491.300973 -152.720372 
L 491.499493 -153.240879 
L 491.685731 -153.761385 
L 491.857735 -154.281892 
L 492.013834 -154.802399 
L 492.152651 -155.322905 
L 492.273124 -155.843412 
L 492.374517 -156.363919 
L 492.456428 -156.884425 
L 492.518791 -157.404932 
L 492.561876 -157.925439 
L 492.586286 -158.445946 
L 492.592945 -158.966452 
L 492.583086 -159.486959 
L 492.558238 -160.007466 
L 492.520198 -160.527972 
L 492.471015 -161.048479 
L 492.412959 -161.568986 
L 492.348495 -162.089492 
L 492.28025 -162.609999 
L 492.210984 -163.130506 
L 492.14355 -163.651012 
L 492.080867 -164.171519 
L 492.02588 -164.692026 
L 491.981526 -165.212533 
L 491.950702 -165.733039 
L 491.93623 -166.253546 
L 491.940824 -166.774053 
L 491.967064 -167.294559 
L 492.017362 -167.815066 
L 492.093941 -168.335573 
L 492.19881 -168.856079 
L 492.333743 -169.376586 
L 492.500264 -169.897093 
L 492.699628 -170.4176 
L 492.932817 -170.938106 
L 493.200526 -171.458613 
L 493.503164 -171.97912 
L 493.840848 -172.499626 
L 494.21341 -173.020133 
L 494.620399 -173.54064 
L 495.061091 -174.061146 
L 495.534501 -174.581653 
L 547.296434 -174.581653 
L 547.296434 -174.581653 
L 547.769844 -174.061146 
L 548.210536 -173.54064 
L 548.617525 -173.020133 
L 548.990087 -172.499626 
L 549.327771 -171.97912 
L 549.630409 -171.458613 
L 549.898118 -170.938106 
L 550.131307 -170.4176 
L 550.330671 -169.897093 
L 550.497192 -169.376586 
L 550.632125 -168.856079 
L 550.736994 -168.335573 
L 550.813573 -167.815066 
L 550.863871 -167.294559 
L 550.890111 -166.774053 
L 550.894705 -166.253546 
L 550.880233 -165.733039 
L 550.849409 -165.212533 
L 550.805055 -164.692026 
L 550.750068 -164.171519 
L 550.687385 -163.651012 
L 550.619951 -163.130506 
L 550.550685 -162.609999 
L 550.48244 -162.089492 
L 550.417976 -161.568986 
L 550.35992 -161.048479 
L 550.310737 -160.527972 
L 550.272697 -160.007466 
L 550.247849 -159.486959 
L 550.237991 -158.966452 
L 550.244649 -158.445946 
L 550.269059 -157.925439 
L 550.312144 -157.404932 
L 550.374507 -156.884425 
L 550.456418 -156.363919 
L 550.557811 -155.843412 
L 550.678284 -155.322905 
L 550.817101 -154.802399 
L 550.9732 -154.281892 
L 551.145204 -153.761385 
L 551.331442 -153.240879 
L 551.529962 -152.720372 
L 551.738559 -152.199865 
L 551.954801 -151.679358 
L 552.176058 -151.158852 
L 552.399534 -150.638345 
L 552.622303 -150.117838 
L 552.841344 -149.597332 
L 553.053578 -149.076825 
L 553.255904 -148.556318 
L 553.445242 -148.035812 
L 553.618565 -147.515305 
L 553.772938 -146.994798 
L 553.905552 -146.474292 
L 554.013758 -145.953785 
L 554.095098 -145.433278 
L 554.147329 -144.912771 
L 554.168455 -144.392265 
L 554.156738 -143.871758 
L 554.110726 -143.351251 
L 554.029259 -142.830745 
L 553.911481 -142.310238 
L 553.756846 -141.789731 
L 553.565116 -141.269225 
L 553.336365 -140.748718 
L 553.070962 -140.228211 
L 552.769569 -139.707704 
L 552.433123 -139.187198 
L 552.06282 -138.666691 
L 551.660093 -138.146184 
L 551.226592 -137.625678 
L 550.764157 -137.105171 
L 550.274793 -136.584664 
L 549.760644 -136.064158 
L 549.22396 -135.543651 
L 548.667073 -135.023144 
L 548.092368 -134.502638 
L 547.502253 -133.982131 
L 546.899135 -133.461624 
L 546.285394 -132.941117 
L 545.663356 -132.420611 
L 545.035277 -131.900104 
L 544.40332 -131.379597 
L 543.769539 -130.859091 
L 543.135861 -130.338584 
L 542.504083 -129.818077 
L 541.875851 -129.297571 
L 541.252663 -128.777064 
L 540.635861 -128.256557 
L 540.02663 -127.73605 
L 539.426 -127.215544 
L 538.834847 -126.695037 
L 538.253902 -126.17453 
L 537.683753 -125.654024 
L 537.124858 -125.133517 
L 536.577555 -124.61301 
L 536.042066 -124.092504 
L 535.518519 -123.571997 
L 535.006952 -123.05149 
z
" style="stroke: #2f2f2f"/>
    </defs>
    <g clip-path="url(#p3f39f1e04b)">
     <use xlink:href="#m364d8e5f58" x="0" y="288" style="fill: #423b63; stroke: #2f2f2f"/>
    </g>
   </g>
   <g id="line2d_33">
    <path d="M 357.650532 239.26273 
L 357.650532 197.555068 
" clip-path="url(#p3f39f1e04b)" style="fill: none; stroke: #2f2f2f; stroke-width: 1.5; stroke-linecap: round"/>
   </g>
   <g id="line2d_34">
    <path d="M 357.650532 224.416567 
L 357.650532 197.555068 
" clip-path="url(#p3f39f1e04b)" style="fill: none; stroke: #2f2f2f; stroke-width: 4.5; stroke-linecap: round"/>
   </g>
   <g id="line2d_35">
    <path d="M 357.650532 212.413884 
" clip-path="url(#p3f39f1e04b)" style="fill: none; stroke: #2f2f2f; stroke-width: 1.2; stroke-linecap: round"/>
    <g clip-path="url(#p3f39f1e04b)">
     <use xlink:href="#m7e0bd2cf4e" x="357.650532" y="212.413884" style="fill: #ffffff; stroke: #ffffff; stroke-width: 0.9"/>
    </g>
   </g>
   <g id="line2d_36">
    <path d="M 439.533 190.637376 
L 439.533 99.923927 
" clip-path="url(#p3f39f1e04b)" style="fill: none; stroke: #2f2f2f; stroke-width: 1.5; stroke-linecap: round"/>
   </g>
   <g id="line2d_37">
    <path d="M 439.533 165.530257 
L 439.533 123.465374 
" clip-path="url(#p3f39f1e04b)" style="fill: none; stroke: #2f2f2f; stroke-width: 4.5; stroke-linecap: round"/>
   </g>
   <g id="line2d_38">
    <path d="M 439.533 155.411697 
" clip-path="url(#p3f39f1e04b)" style="fill: none; stroke: #2f2f2f; stroke-width: 1.2; stroke-linecap: round"/>
    <g clip-path="url(#p3f39f1e04b)">
     <use xlink:href="#m7e0bd2cf4e" x="439.533" y="155.411697" style="fill: #ffffff; stroke: #ffffff; stroke-width: 0.9"/>
    </g>
   </g>
   <g id="line2d_39">
    <path d="M 521.415468 164.94851 
L 521.415468 113.418347 
" clip-path="url(#p3f39f1e04b)" style="fill: none; stroke: #2f2f2f; stroke-width: 1.5; stroke-linecap: round"/>
   </g>
   <g id="line2d_40">
    <path d="M 521.415468 145.6463 
L 521.415468 118.908724 
" clip-path="url(#p3f39f1e04b)" style="fill: none; stroke: #2f2f2f; stroke-width: 4.5; stroke-linecap: round"/>
   </g>
   <g id="line2d_41">
    <path d="M 521.415468 143.586428 
" clip-path="url(#p3f39f1e04b)" style="fill: none; stroke: #2f2f2f; stroke-width: 1.2; stroke-linecap: round"/>
    <g clip-path="url(#p3f39f1e04b)">
     <use xlink:href="#m7e0bd2cf4e" x="521.415468" y="143.586428" style="fill: #ffffff; stroke: #ffffff; stroke-width: 0.9"/>
    </g>
   </g>
   <g id="line2d_42">
    <path d="M 357.650532 96.33666 
L 357.650532 88.290893 
L 439.533 88.290893 
L 439.533 96.33666 
" clip-path="url(#p3f39f1e04b)" style="fill: none; stroke: #000000; stroke-linecap: round"/>
   </g>
   <g id="line2d_43">
    <path d="M 439.533 81.987594 
L 439.533 73.5831 
L 521.415468 73.5831 
L 521.415468 81.987594 
" clip-path="url(#p3f39f1e04b)" style="fill: none; stroke: #000000; stroke-linecap: round"/>
   </g>
   <g id="line2d_44">
    <path d="M 357.650532 67.638527 
L 357.650532 58.875307 
L 521.415468 58.875307 
L 521.415468 67.638527 
" clip-path="url(#p3f39f1e04b)" style="fill: none; stroke: #000000; stroke-linecap: round"/>
   </g>
   <g id="patch_8">
    <path d="M 313.434 238.804 
L 313.434 23.568 
" style="fill: none; stroke: #262626; stroke-linejoin: miter; stroke-linecap: square"/>
   </g>
   <g id="patch_9">
    <path d="M 565.632 238.804 
L 565.632 23.568 
" style="fill: none; stroke: #262626; stroke-linejoin: miter; stroke-linecap: square"/>
   </g>
   <g id="patch_10">
    <path d="M 313.434 238.804 
L 565.632 238.804 
" style="fill: none; stroke: #262626; stroke-linejoin: miter; stroke-linecap: square"/>
   </g>
   <g id="patch_11">
    <path d="M 313.434 23.568 
L 565.632 23.568 
" style="fill: none; stroke: #262626; stroke-linejoin: miter; stroke-linecap: square"/>
   </g>
   <g id="text_19">
    <!-- ** -->
    <g transform="translate(393.791766 86.294393) scale(0.096 -0.096)">
     <defs>
      <path id="DejaVuSans-2a" d="M 3009 3897 
L 1888 3291 
L 3009 2681 
L 2828 2375 
L 1778 3009 
L 1778 1831 
L 1422 1831 
L 1422 3009 
L 372 2375 
L 191 2681 
L 1313 3291 
L 191 3897 
L 372 4206 
L 1422 3572 
L 1422 4750 
L 1778 4750 
L 1778 3572 
L 2828 4206 
L 3009 3897 
z
" transform="scale(0.015625)"/>
     </defs>
     <use xlink:href="#DejaVuSans-2a"/>
     <use xlink:href="#DejaVuSans-2a" transform="translate(50 0)"/>
    </g>
   </g>
   <g id="text_20">
    <!-- ns -->
    <g transform="translate(474.931734 71.5866) scale(0.096 -0.096)">
     <use xlink:href="#DejaVuSans-6e"/>
     <use xlink:href="#DejaVuSans-73" transform="translate(63.378906 0)"/>
    </g>
   </g>
   <g id="text_21">
    <!-- *** -->
    <g transform="translate(432.333 56.878807) scale(0.096 -0.096)">
     <use xlink:href="#DejaVuSans-2a"/>
     <use xlink:href="#DejaVuSans-2a" transform="translate(50 0)"/>
     <use xlink:href="#DejaVuSans-2a" transform="translate(100 0)"/>
    </g>
   </g>
   <g id="text_22">
    <!-- Speed -->
    <g style="fill: #262626" transform="translate(424.48425 17.568) scale(0.096 -0.096)">
     <defs>
      <path id="DejaVuSans-53" d="M 3425 4513 
L 3425 3897 
Q 3066 4069 2747 4153 
Q 2428 4238 2131 4238 
Q 1616 4238 1336 4038 
Q 1056 3838 1056 3469 
Q 1056 3159 1242 3001 
Q 1428 2844 1947 2747 
L 2328 2669 
Q 3034 2534 3370 2195 
Q 3706 1856 3706 1288 
Q 3706 609 3251 259 
Q 2797 -91 1919 -91 
Q 1588 -91 1214 -16 
Q 841 59 441 206 
L 441 856 
Q 825 641 1194 531 
Q 1563 422 1919 422 
Q 2459 422 2753 634 
Q 3047 847 3047 1241 
Q 3047 1584 2836 1778 
Q 2625 1972 2144 2069 
L 1759 2144 
Q 1053 2284 737 2584 
Q 422 2884 422 3419 
Q 422 4038 858 4394 
Q 1294 4750 2059 4750 
Q 2388 4750 2728 4690 
Q 3069 4631 3425 4513 
z
" transform="scale(0.015625)"/>
     </defs>
     <use xlink:href="#DejaVuSans-53"/>
     <use xlink:href="#DejaVuSans-70" transform="translate(63.476562 0)"/>
     <use xlink:href="#DejaVuSans-65" transform="translate(126.953125 0)"/>
     <use xlink:href="#DejaVuSans-65" transform="translate(188.476562 0)"/>
     <use xlink:href="#DejaVuSans-64" transform="translate(250 0)"/>
    </g>
   </g>
  </g>
  <g id="text_23">
   <!-- Average confirmation probability tertile -->
   <g style="fill: #262626" transform="translate(174.5406 282.7242) scale(0.1152 -0.1152)">
    <defs>
     <path id="DejaVuSans-76" d="M 191 3500 
L 800 3500 
L 1894 563 
L 2988 3500 
L 3597 3500 
L 2284 0 
L 1503 0 
L 191 3500 
z
" transform="scale(0.015625)"/>
    </defs>
    <use xlink:href="#DejaVuSans-41"/>
    <use xlink:href="#DejaVuSans-76" transform="translate(62.533203 0)"/>
    <use xlink:href="#DejaVuSans-65" transform="translate(121.712891 0)"/>
    <use xlink:href="#DejaVuSans-72" transform="translate(183.236328 0)"/>
    <use xlink:href="#DejaVuSans-61" transform="translate(224.349609 0)"/>
    <use xlink:href="#DejaVuSans-67" transform="translate(285.628906 0)"/>
    <use xlink:href="#DejaVuSans-65" transform="translate(349.105469 0)"/>
    <use xlink:href="#DejaVuSans-20" transform="translate(410.628906 0)"/>
    <use xlink:href="#DejaVuSans-63" transform="translate(442.416016 0)"/>
    <use xlink:href="#DejaVuSans-6f" transform="translate(497.396484 0)"/>
    <use xlink:href="#DejaVuSans-6e" transform="translate(558.578125 0)"/>
    <use xlink:href="#DejaVuSans-66" transform="translate(621.957031 0)"/>
    <use xlink:href="#DejaVuSans-69" transform="translate(657.162109 0)"/>
    <use xlink:href="#DejaVuSans-72" transform="translate(684.945312 0)"/>
    <use xlink:href="#DejaVuSans-6d" transform="translate(724.308594 0)"/>
    <use xlink:href="#DejaVuSans-61" transform="translate(821.720703 0)"/>
    <use xlink:href="#DejaVuSans-74" transform="translate(883 0)"/>
    <use xlink:href="#DejaVuSans-69" transform="translate(922.208984 0)"/>
    <use xlink:href="#DejaVuSans-6f" transform="translate(949.992188 0)"/>
    <use xlink:href="#DejaVuSans-6e" transform="translate(1011.173828 0)"/>
    <use xlink:href="#DejaVuSans-20" transform="translate(1074.552734 0)"/>
    <use xlink:href="#DejaVuSans-70" transform="translate(1106.339844 0)"/>
    <use xlink:href="#DejaVuSans-72" transform="translate(1169.816406 0)"/>
    <use xlink:href="#DejaVuSans-6f" transform="translate(1208.679688 0)"/>
    <use xlink:href="#DejaVuSans-62" transform="translate(1269.861328 0)"/>
    <use xlink:href="#DejaVuSans-61" transform="translate(1333.337891 0)"/>
    <use xlink:href="#DejaVuSans-62" transform="translate(1394.617188 0)"/>
    <use xlink:href="#DejaVuSans-69" transform="translate(1458.09375 0)"/>
    <use xlink:href="#DejaVuSans-6c" transform="translate(1485.876953 0)"/>
    <use xlink:href="#DejaVuSans-69" transform="translate(1513.660156 0)"/>
    <use xlink:href="#DejaVuSans-74" transform="translate(1541.443359 0)"/>
    <use xlink:href="#DejaVuSans-79" transform="translate(1580.652344 0)"/>
    <use xlink:href="#DejaVuSans-20" transform="translate(1639.832031 0)"/>
    <use xlink:href="#DejaVuSans-74" transform="translate(1671.619141 0)"/>
    <use xlink:href="#DejaVuSans-65" transform="translate(1710.828125 0)"/>
    <use xlink:href="#DejaVuSans-72" transform="translate(1772.351562 0)"/>
    <use xlink:href="#DejaVuSans-74" transform="translate(1813.464844 0)"/>
    <use xlink:href="#DejaVuSans-69" transform="translate(1852.673828 0)"/>
    <use xlink:href="#DejaVuSans-6c" transform="translate(1880.457031 0)"/>
    <use xlink:href="#DejaVuSans-65" transform="translate(1908.240234 0)"/>
   </g>
  </g>
 </g>
 <defs>
  <clipPath id="pecf5794043">
   <rect x="46.068" y="23.568" width="252.198" height="215.236"/>
  </clipPath>
  <clipPath id="p3f39f1e04b">
   <rect x="313.434" y="23.568" width="252.198" height="215.236"/>
  </clipPath>
 </defs>
</svg>
