<?xml version="1.0" encoding="utf-8" standalone="no"?>
<!DOCTYPE svg PUBLIC "-//W3C//DTD SVG 1.1//EN"
  "http://www.w3.org/Graphics/SVG/1.1/DTD/svg11.dtd">
<svg xmlns:xlink="http://www.w3.org/1999/xlink" width="576pt" height="288pt" viewBox="0 0 576 288" xmlns="http://www.w3.org/2000/svg" version="1.1">
 <metadata>
  <rdf:RDF xmlns:dc="http://purl.org/dc/elements/1.1/" xmlns:cc="http://creativecommons.org/ns#" xmlns:rdf="http://www.w3.org/1999/02/22-rdf-syntax-ns#">
   <cc:Work>
    <dc:type rdf:resource="http://purl.org/dc/dcmitype/StillImage"/>
    <dc:date>2025-01-15T17:24:55.492515</dc:date>
    <dc:format>image/svg+xml</dc:format>
    <dc:creator>
     <cc:Agent>
      <dc:title>Matplotlib v3.10.0, https://matplotlib.org/</dc:title>
     </cc:Agent>
    </dc:creator>
   </cc:Work>
  </rdf:RDF>
 </metadata>
 <defs>
  <style type="text/css">*{stroke-linejoin: round; stroke-linecap: butt}</style>
 </defs>
 <g id="figure_1">
  <g id="patch_1">
   <path d="M 0 288 
L 576 288 
L 576 0 
L 0 0 
L 0 288 
z
" style="fill: none"/>
  </g>
  <g id="axes_1">
   <g id="patch_2">
    <path d="M 46.068 238.804 
L 298.266 238.804 
L 298.266 23.568 
L 46.068 23.568 
L 46.068 238.804 
z
" style="fill: none"/>
   </g>
   <g id="matplotlib.axis_1">
    <g id="xtick_1">
     <g id="line2d_1">
      <defs>
       <path id="m20177cf906" d="M 0 0 
L 0 4.8 
" style="stroke: #262626"/>
      </defs>
      <g>
       <use xlink:href="#m20177cf906" x="90.284532" y="238.804" style="fill: #262626; stroke: #262626"/>
      </g>
     </g>
     <g id="text_1">
      <!-- Low -->
      <g style="fill: #262626" transform="translate(81.619282 253.790625) scale(0.088 -0.088)">
       <defs>
        <path id="DejaVuSans-4c" d="M 628 4666 
L 1259 4666 
L 1259 531 
L 3531 531 
L 3531 0 
L 628 0 
L 628 4666 
z
" transform="scale(0.015625)"/>
        <path id="DejaVuSans-6f" d="M 1959 3097 
Q 1497 3097 1228 2736 
Q 959 2375 959 1747 
Q 959 1119 1226 758 
Q 1494 397 1959 397 
Q 2419 397 2687 759 
Q 2956 1122 2956 1747 
Q 2956 2369 2687 2733 
Q 2419 3097 1959 3097 
z
M 1959 3584 
Q 2709 3584 3137 3096 
Q 3566 2609 3566 1747 
Q 3566 888 3137 398 
Q 2709 -91 1959 -91 
Q 1206 -91 779 398 
Q 353 888 353 1747 
Q 353 2609 779 3096 
Q 1206 3584 1959 3584 
z
" transform="scale(0.015625)"/>
        <path id="DejaVuSans-77" d="M 269 3500 
L 844 3500 
L 1563 769 
L 2278 3500 
L 2956 3500 
L 3675 769 
L 4391 3500 
L 4966 3500 
L 4050 0 
L 3372 0 
L 2619 2869 
L 1863 0 
L 1184 0 
L 269 3500 
z
" transform="scale(0.015625)"/>
       </defs>
       <use xlink:href="#DejaVuSans-4c"/>
       <use xlink:href="#DejaVuSans-6f" transform="translate(53.962891 0)"/>
       <use xlink:href="#DejaVuSans-77" transform="translate(115.144531 0)"/>
      </g>
     </g>
    </g>
    <g id="xtick_2">
     <g id="line2d_2">
      <g>
       <use xlink:href="#m20177cf906" x="172.167" y="238.804" style="fill: #262626; stroke: #262626"/>
      </g>
     </g>
     <g id="text_2">
      <!-- Medium -->
      <g style="fill: #262626" transform="translate(154.573187 253.790625) scale(0.088 -0.088)">
       <defs>
        <path id="DejaVuSans-4d" d="M 628 4666 
L 1569 4666 
L 2759 1491 
L 3956 4666 
L 4897 4666 
L 4897 0 
L 4281 0 
L 4281 4097 
L 3078 897 
L 2444 897 
L 1241 4097 
L 1241 0 
L 628 0 
L 628 4666 
z
" transform="scale(0.015625)"/>
        <path id="DejaVuSans-65" d="M 3597 1894 
L 3597 1613 
L 953 1613 
Q 991 1019 1311 708 
Q 1631 397 2203 397 
Q 2534 397 2845 478 
Q 3156 559 3463 722 
L 3463 178 
Q 3153 47 2828 -22 
Q 2503 -91 2169 -91 
Q 1331 -91 842 396 
Q 353 884 353 1716 
Q 353 2575 817 3079 
Q 1281 3584 2069 3584 
Q 2775 3584 3186 3129 
Q 3597 2675 3597 1894 
z
M 3022 2063 
Q 3016 2534 2758 2815 
Q 2500 3097 2075 3097 
Q 1594 3097 1305 2825 
Q 1016 2553 972 2059 
L 3022 2063 
z
" transform="scale(0.015625)"/>
        <path id="DejaVuSans-64" d="M 2906 2969 
L 2906 4863 
L 3481 4863 
L 3481 0 
L 2906 0 
L 2906 525 
Q 2725 213 2448 61 
Q 2172 -91 1784 -91 
Q 1150 -91 751 415 
Q 353 922 353 1747 
Q 353 2572 751 3078 
Q 1150 3584 1784 3584 
Q 2172 3584 2448 3432 
Q 2725 3281 2906 2969 
z
M 947 1747 
Q 947 1113 1208 752 
Q 1469 391 1925 391 
Q 2381 391 2643 752 
Q 2906 1113 2906 1747 
Q 2906 2381 2643 2742 
Q 2381 3103 1925 3103 
Q 1469 3103 1208 2742 
Q 947 2381 947 1747 
z
" transform="scale(0.015625)"/>
        <path id="DejaVuSans-69" d="M 603 3500 
L 1178 3500 
L 1178 0 
L 603 0 
L 603 3500 
z
M 603 4863 
L 1178 4863 
L 1178 4134 
L 603 4134 
L 603 4863 
z
" transform="scale(0.015625)"/>
        <path id="DejaVuSans-75" d="M 544 1381 
L 544 3500 
L 1119 3500 
L 1119 1403 
Q 1119 906 1312 657 
Q 1506 409 1894 409 
Q 2359 409 2629 706 
Q 2900 1003 2900 1516 
L 2900 3500 
L 3475 3500 
L 3475 0 
L 2900 0 
L 2900 538 
Q 2691 219 2414 64 
Q 2138 -91 1772 -91 
Q 1169 -91 856 284 
Q 544 659 544 1381 
z
M 1991 3584 
L 1991 3584 
z
" transform="scale(0.015625)"/>
        <path id="DejaVuSans-6d" d="M 3328 2828 
Q 3544 3216 3844 3400 
Q 4144 3584 4550 3584 
Q 5097 3584 5394 3201 
Q 5691 2819 5691 2113 
L 5691 0 
L 5113 0 
L 5113 2094 
Q 5113 2597 4934 2840 
Q 4756 3084 4391 3084 
Q 3944 3084 3684 2787 
Q 3425 2491 3425 1978 
L 3425 0 
L 2847 0 
L 2847 2094 
Q 2847 2600 2669 2842 
Q 2491 3084 2119 3084 
Q 1678 3084 1418 2786 
Q 1159 2488 1159 1978 
L 1159 0 
L 581 0 
L 581 3500 
L 1159 3500 
L 1159 2956 
Q 1356 3278 1631 3431 
Q 1906 3584 2284 3584 
Q 2666 3584 2933 3390 
Q 3200 3197 3328 2828 
z
" transform="scale(0.015625)"/>
       </defs>
       <use xlink:href="#DejaVuSans-4d"/>
       <use xlink:href="#DejaVuSans-65" transform="translate(86.279297 0)"/>
       <use xlink:href="#DejaVuSans-64" transform="translate(147.802734 0)"/>
       <use xlink:href="#DejaVuSans-69" transform="translate(211.279297 0)"/>
       <use xlink:href="#DejaVuSans-75" transform="translate(239.0625 0)"/>
       <use xlink:href="#DejaVuSans-6d" transform="translate(302.441406 0)"/>
      </g>
     </g>
    </g>
    <g id="xtick_3">
     <g id="line2d_3">
      <g>
       <use xlink:href="#m20177cf906" x="254.049468" y="238.804" style="fill: #262626; stroke: #262626"/>
      </g>
     </g>
     <g id="text_3">
      <!-- High -->
      <g style="fill: #262626" transform="translate(243.936343 253.790625) scale(0.088 -0.088)">
       <defs>
        <path id="DejaVuSans-48" d="M 628 4666 
L 1259 4666 
L 1259 2753 
L 3553 2753 
L 3553 4666 
L 4184 4666 
L 4184 0 
L 3553 0 
L 3553 2222 
L 1259 2222 
L 1259 0 
L 628 0 
L 628 4666 
z
" transform="scale(0.015625)"/>
        <path id="DejaVuSans-67" d="M 2906 1791 
Q 2906 2416 2648 2759 
Q 2391 3103 1925 3103 
Q 1463 3103 1205 2759 
Q 947 2416 947 1791 
Q 947 1169 1205 825 
Q 1463 481 1925 481 
Q 2391 481 2648 825 
Q 2906 1169 2906 1791 
z
M 3481 434 
Q 3481 -459 3084 -895 
Q 2688 -1331 1869 -1331 
Q 1566 -1331 1297 -1286 
Q 1028 -1241 775 -1147 
L 775 -588 
Q 1028 -725 1275 -790 
Q 1522 -856 1778 -856 
Q 2344 -856 2625 -561 
Q 2906 -266 2906 331 
L 2906 616 
Q 2728 306 2450 153 
Q 2172 0 1784 0 
Q 1141 0 747 490 
Q 353 981 353 1791 
Q 353 2603 747 3093 
Q 1141 3584 1784 3584 
Q 2172 3584 2450 3431 
Q 2728 3278 2906 2969 
L 2906 3500 
L 3481 3500 
L 3481 434 
z
" transform="scale(0.015625)"/>
        <path id="DejaVuSans-68" d="M 3513 2113 
L 3513 0 
L 2938 0 
L 2938 2094 
Q 2938 2591 2744 2837 
Q 2550 3084 2163 3084 
Q 1697 3084 1428 2787 
Q 1159 2491 1159 1978 
L 1159 0 
L 581 0 
L 581 4863 
L 1159 4863 
L 1159 2956 
Q 1366 3272 1645 3428 
Q 1925 3584 2291 3584 
Q 2894 3584 3203 3211 
Q 3513 2838 3513 2113 
z
" transform="scale(0.015625)"/>
       </defs>
       <use xlink:href="#DejaVuSans-48"/>
       <use xlink:href="#DejaVuSans-69" transform="translate(75.195312 0)"/>
       <use xlink:href="#DejaVuSans-67" transform="translate(102.978516 0)"/>
       <use xlink:href="#DejaVuSans-68" transform="translate(166.455078 0)"/>
      </g>
     </g>
    </g>
   </g>
   <g id="matplotlib.axis_2">
    <g id="ytick_1">
     <g id="line2d_4">
      <defs>
       <path id="m986d86ee6b" d="M 0 0 
L -4.8 0 
" style="stroke: #262626"/>
      </defs>
      <g>
       <use xlink:href="#m986d86ee6b" x="46.068" y="238.804" style="fill: #262626; stroke: #262626"/>
      </g>
     </g>
     <g id="text_4">
      <!-- 0.5 -->
      <g style="fill: #262626" transform="translate(23.77325 242.147312) scale(0.088 -0.088)">
       <defs>
        <path id="DejaVuSans-30" d="M 2034 4250 
Q 1547 4250 1301 3770 
Q 1056 3291 1056 2328 
Q 1056 1369 1301 889 
Q 1547 409 2034 409 
Q 2525 409 2770 889 
Q 3016 1369 3016 2328 
Q 3016 3291 2770 3770 
Q 2525 4250 2034 4250 
z
M 2034 4750 
Q 2819 4750 3233 4129 
Q 3647 3509 3647 2328 
Q 3647 1150 3233 529 
Q 2819 -91 2034 -91 
Q 1250 -91 836 529 
Q 422 1150 422 2328 
Q 422 3509 836 4129 
Q 1250 4750 2034 4750 
z
" transform="scale(0.015625)"/>
        <path id="DejaVuSans-2e" d="M 684 794 
L 1344 794 
L 1344 0 
L 684 0 
L 684 794 
z
" transform="scale(0.015625)"/>
        <path id="DejaVuSans-35" d="M 691 4666 
L 3169 4666 
L 3169 4134 
L 1269 4134 
L 1269 2991 
Q 1406 3038 1543 3061 
Q 1681 3084 1819 3084 
Q 2600 3084 3056 2656 
Q 3513 2228 3513 1497 
Q 3513 744 3044 326 
Q 2575 -91 1722 -91 
Q 1428 -91 1123 -41 
Q 819 9 494 109 
L 494 744 
Q 775 591 1075 516 
Q 1375 441 1709 441 
Q 2250 441 2565 725 
Q 2881 1009 2881 1497 
Q 2881 1984 2565 2268 
Q 2250 2553 1709 2553 
Q 1456 2553 1204 2497 
Q 953 2441 691 2322 
L 691 4666 
z
" transform="scale(0.015625)"/>
       </defs>
       <use xlink:href="#DejaVuSans-30"/>
       <use xlink:href="#DejaVuSans-2e" transform="translate(63.623047 0)"/>
       <use xlink:href="#DejaVuSans-35" transform="translate(95.410156 0)"/>
      </g>
     </g>
    </g>
    <g id="ytick_2">
     <g id="line2d_5">
      <g>
       <use xlink:href="#m986d86ee6b" x="46.068" y="202.931333" style="fill: #262626; stroke: #262626"/>
      </g>
     </g>
     <g id="text_5">
      <!-- 0.6 -->
      <g style="fill: #262626" transform="translate(23.77325 206.274646) scale(0.088 -0.088)">
       <defs>
        <path id="DejaVuSans-36" d="M 2113 2584 
Q 1688 2584 1439 2293 
Q 1191 2003 1191 1497 
Q 1191 994 1439 701 
Q 1688 409 2113 409 
Q 2538 409 2786 701 
Q 3034 994 3034 1497 
Q 3034 2003 2786 2293 
Q 2538 2584 2113 2584 
z
M 3366 4563 
L 3366 3988 
Q 3128 4100 2886 4159 
Q 2644 4219 2406 4219 
Q 1781 4219 1451 3797 
Q 1122 3375 1075 2522 
Q 1259 2794 1537 2939 
Q 1816 3084 2150 3084 
Q 2853 3084 3261 2657 
Q 3669 2231 3669 1497 
Q 3669 778 3244 343 
Q 2819 -91 2113 -91 
Q 1303 -91 875 529 
Q 447 1150 447 2328 
Q 447 3434 972 4092 
Q 1497 4750 2381 4750 
Q 2619 4750 2861 4703 
Q 3103 4656 3366 4563 
z
" transform="scale(0.015625)"/>
       </defs>
       <use xlink:href="#DejaVuSans-30"/>
       <use xlink:href="#DejaVuSans-2e" transform="translate(63.623047 0)"/>
       <use xlink:href="#DejaVuSans-36" transform="translate(95.410156 0)"/>
      </g>
     </g>
    </g>
    <g id="ytick_3">
     <g id="line2d_6">
      <g>
       <use xlink:href="#m986d86ee6b" x="46.068" y="167.058667" style="fill: #262626; stroke: #262626"/>
      </g>
     </g>
     <g id="text_6">
      <!-- 0.7 -->
      <g style="fill: #262626" transform="translate(23.77325 170.401979) scale(0.088 -0.088)">
       <defs>
        <path id="DejaVuSans-37" d="M 525 4666 
L 3525 4666 
L 3525 4397 
L 1831 0 
L 1172 0 
L 2766 4134 
L 525 4134 
L 525 4666 
z
" transform="scale(0.015625)"/>
       </defs>
       <use xlink:href="#DejaVuSans-30"/>
       <use xlink:href="#DejaVuSans-2e" transform="translate(63.623047 0)"/>
       <use xlink:href="#DejaVuSans-37" transform="translate(95.410156 0)"/>
      </g>
     </g>
    </g>
    <g id="ytick_4">
     <g id="line2d_7">
      <g>
       <use xlink:href="#m986d86ee6b" x="46.068" y="131.186" style="fill: #262626; stroke: #262626"/>
      </g>
     </g>
     <g id="text_7">
      <!-- 0.8 -->
      <g style="fill: #262626" transform="translate(23.77325 134.529312) scale(0.088 -0.088)">
       <defs>
        <path id="DejaVuSans-38" d="M 2034 2216 
Q 1584 2216 1326 1975 
Q 1069 1734 1069 1313 
Q 1069 891 1326 650 
Q 1584 409 2034 409 
Q 2484 409 2743 651 
Q 3003 894 3003 1313 
Q 3003 1734 2745 1975 
Q 2488 2216 2034 2216 
z
M 1403 2484 
Q 997 2584 770 2862 
Q 544 3141 544 3541 
Q 544 4100 942 4425 
Q 1341 4750 2034 4750 
Q 2731 4750 3128 4425 
Q 3525 4100 3525 3541 
Q 3525 3141 3298 2862 
Q 3072 2584 2669 2484 
Q 3125 2378 3379 2068 
Q 3634 1759 3634 1313 
Q 3634 634 3220 271 
Q 2806 -91 2034 -91 
Q 1263 -91 848 271 
Q 434 634 434 1313 
Q 434 1759 690 2068 
Q 947 2378 1403 2484 
z
M 1172 3481 
Q 1172 3119 1398 2916 
Q 1625 2713 2034 2713 
Q 2441 2713 2670 2916 
Q 2900 3119 2900 3481 
Q 2900 3844 2670 4047 
Q 2441 4250 2034 4250 
Q 1625 4250 1398 4047 
Q 1172 3844 1172 3481 
z
" transform="scale(0.015625)"/>
       </defs>
       <use xlink:href="#DejaVuSans-30"/>
       <use xlink:href="#DejaVuSans-2e" transform="translate(63.623047 0)"/>
       <use xlink:href="#DejaVuSans-38" transform="translate(95.410156 0)"/>
      </g>
     </g>
    </g>
    <g id="ytick_5">
     <g id="line2d_8">
      <g>
       <use xlink:href="#m986d86ee6b" x="46.068" y="95.313333" style="fill: #262626; stroke: #262626"/>
      </g>
     </g>
     <g id="text_8">
      <!-- 0.9 -->
      <g style="fill: #262626" transform="translate(23.77325 98.656646) scale(0.088 -0.088)">
       <defs>
        <path id="DejaVuSans-39" d="M 703 97 
L 703 672 
Q 941 559 1184 500 
Q 1428 441 1663 441 
Q 2288 441 2617 861 
Q 2947 1281 2994 2138 
Q 2813 1869 2534 1725 
Q 2256 1581 1919 1581 
Q 1219 1581 811 2004 
Q 403 2428 403 3163 
Q 403 3881 828 4315 
Q 1253 4750 1959 4750 
Q 2769 4750 3195 4129 
Q 3622 3509 3622 2328 
Q 3622 1225 3098 567 
Q 2575 -91 1691 -91 
Q 1453 -91 1209 -44 
Q 966 3 703 97 
z
M 1959 2075 
Q 2384 2075 2632 2365 
Q 2881 2656 2881 3163 
Q 2881 3666 2632 3958 
Q 2384 4250 1959 4250 
Q 1534 4250 1286 3958 
Q 1038 3666 1038 3163 
Q 1038 2656 1286 2365 
Q 1534 2075 1959 2075 
z
" transform="scale(0.015625)"/>
       </defs>
       <use xlink:href="#DejaVuSans-30"/>
       <use xlink:href="#DejaVuSans-2e" transform="translate(63.623047 0)"/>
       <use xlink:href="#DejaVuSans-39" transform="translate(95.410156 0)"/>
      </g>
     </g>
    </g>
    <g id="ytick_6">
     <g id="line2d_9">
      <g>
       <use xlink:href="#m986d86ee6b" x="46.068" y="59.440667" style="fill: #262626; stroke: #262626"/>
      </g>
     </g>
     <g id="text_9">
      <!-- 1.0 -->
      <g style="fill: #262626" transform="translate(23.77325 62.783979) scale(0.088 -0.088)">
       <defs>
        <path id="DejaVuSans-31" d="M 794 531 
L 1825 531 
L 1825 4091 
L 703 3866 
L 703 4441 
L 1819 4666 
L 2450 4666 
L 2450 531 
L 3481 531 
L 3481 0 
L 794 0 
L 794 531 
z
" transform="scale(0.015625)"/>
       </defs>
       <use xlink:href="#DejaVuSans-31"/>
       <use xlink:href="#DejaVuSans-2e" transform="translate(63.623047 0)"/>
       <use xlink:href="#DejaVuSans-30" transform="translate(95.410156 0)"/>
      </g>
     </g>
    </g>
    <g id="ytick_7">
     <g id="line2d_10">
      <g>
       <use xlink:href="#m986d86ee6b" x="46.068" y="23.568" style="fill: #262626; stroke: #262626"/>
      </g>
     </g>
     <g id="text_10">
      <!-- 1.1 -->
      <g style="fill: #262626" transform="translate(23.77325 26.911313) scale(0.088 -0.088)">
       <use xlink:href="#DejaVuSans-31"/>
       <use xlink:href="#DejaVuSans-2e" transform="translate(63.623047 0)"/>
       <use xlink:href="#DejaVuSans-31" transform="translate(95.410156 0)"/>
      </g>
     </g>
    </g>
    <g id="text_11">
     <!-- Probability of correct response -->
     <g style="fill: #262626" transform="translate(17.77675 204.36575) rotate(-90) scale(0.096 -0.096)">
      <defs>
       <path id="DejaVuSans-50" d="M 1259 4147 
L 1259 2394 
L 2053 2394 
Q 2494 2394 2734 2622 
Q 2975 2850 2975 3272 
Q 2975 3691 2734 3919 
Q 2494 4147 2053 4147 
L 1259 4147 
z
M 628 4666 
L 2053 4666 
Q 2838 4666 3239 4311 
Q 3641 3956 3641 3272 
Q 3641 2581 3239 2228 
Q 2838 1875 2053 1875 
L 1259 1875 
L 1259 0 
L 628 0 
L 628 4666 
z
" transform="scale(0.015625)"/>
       <path id="DejaVuSans-72" d="M 2631 2963 
Q 2534 3019 2420 3045 
Q 2306 3072 2169 3072 
Q 1681 3072 1420 2755 
Q 1159 2438 1159 1844 
L 1159 0 
L 581 0 
L 581 3500 
L 1159 3500 
L 1159 2956 
Q 1341 3275 1631 3429 
Q 1922 3584 2338 3584 
Q 2397 3584 2469 3576 
Q 2541 3569 2628 3553 
L 2631 2963 
z
" transform="scale(0.015625)"/>
       <path id="DejaVuSans-62" d="M 3116 1747 
Q 3116 2381 2855 2742 
Q 2594 3103 2138 3103 
Q 1681 3103 1420 2742 
Q 1159 2381 1159 1747 
Q 1159 1113 1420 752 
Q 1681 391 2138 391 
Q 2594 391 2855 752 
Q 3116 1113 3116 1747 
z
M 1159 2969 
Q 1341 3281 1617 3432 
Q 1894 3584 2278 3584 
Q 2916 3584 3314 3078 
Q 3713 2572 3713 1747 
Q 3713 922 3314 415 
Q 2916 -91 2278 -91 
Q 1894 -91 1617 61 
Q 1341 213 1159 525 
L 1159 0 
L 581 0 
L 581 4863 
L 1159 4863 
L 1159 2969 
z
" transform="scale(0.015625)"/>
       <path id="DejaVuSans-61" d="M 2194 1759 
Q 1497 1759 1228 1600 
Q 959 1441 959 1056 
Q 959 750 1161 570 
Q 1363 391 1709 391 
Q 2188 391 2477 730 
Q 2766 1069 2766 1631 
L 2766 1759 
L 2194 1759 
z
M 3341 1997 
L 3341 0 
L 2766 0 
L 2766 531 
Q 2569 213 2275 61 
Q 1981 -91 1556 -91 
Q 1019 -91 701 211 
Q 384 513 384 1019 
Q 384 1609 779 1909 
Q 1175 2209 1959 2209 
L 2766 2209 
L 2766 2266 
Q 2766 2663 2505 2880 
Q 2244 3097 1772 3097 
Q 1472 3097 1187 3025 
Q 903 2953 641 2809 
L 641 3341 
Q 956 3463 1253 3523 
Q 1550 3584 1831 3584 
Q 2591 3584 2966 3190 
Q 3341 2797 3341 1997 
z
" transform="scale(0.015625)"/>
       <path id="DejaVuSans-6c" d="M 603 4863 
L 1178 4863 
L 1178 0 
L 603 0 
L 603 4863 
z
" transform="scale(0.015625)"/>
       <path id="DejaVuSans-74" d="M 1172 4494 
L 1172 3500 
L 2356 3500 
L 2356 3053 
L 1172 3053 
L 1172 1153 
Q 1172 725 1289 603 
Q 1406 481 1766 481 
L 2356 481 
L 2356 0 
L 1766 0 
Q 1100 0 847 248 
Q 594 497 594 1153 
L 594 3053 
L 172 3053 
L 172 3500 
L 594 3500 
L 594 4494 
L 1172 4494 
z
" transform="scale(0.015625)"/>
       <path id="DejaVuSans-79" d="M 2059 -325 
Q 1816 -950 1584 -1140 
Q 1353 -1331 966 -1331 
L 506 -1331 
L 506 -850 
L 844 -850 
Q 1081 -850 1212 -737 
Q 1344 -625 1503 -206 
L 1606 56 
L 191 3500 
L 800 3500 
L 1894 763 
L 2988 3500 
L 3597 3500 
L 2059 -325 
z
" transform="scale(0.015625)"/>
       <path id="DejaVuSans-20" transform="scale(0.015625)"/>
       <path id="DejaVuSans-66" d="M 2375 4863 
L 2375 4384 
L 1825 4384 
Q 1516 4384 1395 4259 
Q 1275 4134 1275 3809 
L 1275 3500 
L 2222 3500 
L 2222 3053 
L 1275 3053 
L 1275 0 
L 697 0 
L 697 3053 
L 147 3053 
L 147 3500 
L 697 3500 
L 697 3744 
Q 697 4328 969 4595 
Q 1241 4863 1831 4863 
L 2375 4863 
z
" transform="scale(0.015625)"/>
       <path id="DejaVuSans-63" d="M 3122 3366 
L 3122 2828 
Q 2878 2963 2633 3030 
Q 2388 3097 2138 3097 
Q 1578 3097 1268 2742 
Q 959 2388 959 1747 
Q 959 1106 1268 751 
Q 1578 397 2138 397 
Q 2388 397 2633 464 
Q 2878 531 3122 666 
L 3122 134 
Q 2881 22 2623 -34 
Q 2366 -91 2075 -91 
Q 1284 -91 818 406 
Q 353 903 353 1747 
Q 353 2603 823 3093 
Q 1294 3584 2113 3584 
Q 2378 3584 2631 3529 
Q 2884 3475 3122 3366 
z
" transform="scale(0.015625)"/>
       <path id="DejaVuSans-73" d="M 2834 3397 
L 2834 2853 
Q 2591 2978 2328 3040 
Q 2066 3103 1784 3103 
Q 1356 3103 1142 2972 
Q 928 2841 928 2578 
Q 928 2378 1081 2264 
Q 1234 2150 1697 2047 
L 1894 2003 
Q 2506 1872 2764 1633 
Q 3022 1394 3022 966 
Q 3022 478 2636 193 
Q 2250 -91 1575 -91 
Q 1294 -91 989 -36 
Q 684 19 347 128 
L 347 722 
Q 666 556 975 473 
Q 1284 391 1588 391 
Q 1994 391 2212 530 
Q 2431 669 2431 922 
Q 2431 1156 2273 1281 
Q 2116 1406 1581 1522 
L 1381 1569 
Q 847 1681 609 1914 
Q 372 2147 372 2553 
Q 372 3047 722 3315 
Q 1072 3584 1716 3584 
Q 2034 3584 2315 3537 
Q 2597 3491 2834 3397 
z
" transform="scale(0.015625)"/>
       <path id="DejaVuSans-70" d="M 1159 525 
L 1159 -1331 
L 581 -1331 
L 581 3500 
L 1159 3500 
L 1159 2969 
Q 1341 3281 1617 3432 
Q 1894 3584 2278 3584 
Q 2916 3584 3314 3078 
Q 3713 2572 3713 1747 
Q 3713 922 3314 415 
Q 2916 -91 2278 -91 
Q 1894 -91 1617 61 
Q 1341 213 1159 525 
z
M 3116 1747 
Q 3116 2381 2855 2742 
Q 2594 3103 2138 3103 
Q 1681 3103 1420 2742 
Q 1159 2381 1159 1747 
Q 1159 1113 1420 752 
Q 1681 391 2138 391 
Q 2594 391 2855 752 
Q 3116 1113 3116 1747 
z
" transform="scale(0.015625)"/>
       <path id="DejaVuSans-6e" d="M 3513 2113 
L 3513 0 
L 2938 0 
L 2938 2094 
Q 2938 2591 2744 2837 
Q 2550 3084 2163 3084 
Q 1697 3084 1428 2787 
Q 1159 2491 1159 1978 
L 1159 0 
L 581 0 
L 581 3500 
L 1159 3500 
L 1159 2956 
Q 1366 3272 1645 3428 
Q 1925 3584 2291 3584 
Q 2894 3584 3203 3211 
Q 3513 2838 3513 2113 
z
" transform="scale(0.015625)"/>
      </defs>
      <use xlink:href="#DejaVuSans-50"/>
      <use xlink:href="#DejaVuSans-72" transform="translate(58.552734 0)"/>
      <use xlink:href="#DejaVuSans-6f" transform="translate(97.416016 0)"/>
      <use xlink:href="#DejaVuSans-62" transform="translate(158.597656 0)"/>
      <use xlink:href="#DejaVuSans-61" transform="translate(222.074219 0)"/>
      <use xlink:href="#DejaVuSans-62" transform="translate(283.353516 0)"/>
      <use xlink:href="#DejaVuSans-69" transform="translate(346.830078 0)"/>
      <use xlink:href="#DejaVuSans-6c" transform="translate(374.613281 0)"/>
      <use xlink:href="#DejaVuSans-69" transform="translate(402.396484 0)"/>
      <use xlink:href="#DejaVuSans-74" transform="translate(430.179688 0)"/>
      <use xlink:href="#DejaVuSans-79" transform="translate(469.388672 0)"/>
      <use xlink:href="#DejaVuSans-20" transform="translate(528.568359 0)"/>
      <use xlink:href="#DejaVuSans-6f" transform="translate(560.355469 0)"/>
      <use xlink:href="#DejaVuSans-66" transform="translate(621.537109 0)"/>
      <use xlink:href="#DejaVuSans-20" transform="translate(656.742188 0)"/>
      <use xlink:href="#DejaVuSans-63" transform="translate(688.529297 0)"/>
      <use xlink:href="#DejaVuSans-6f" transform="translate(743.509766 0)"/>
      <use xlink:href="#DejaVuSans-72" transform="translate(804.691406 0)"/>
      <use xlink:href="#DejaVuSans-72" transform="translate(844.054688 0)"/>
      <use xlink:href="#DejaVuSans-65" transform="translate(882.917969 0)"/>
      <use xlink:href="#DejaVuSans-63" transform="translate(944.441406 0)"/>
      <use xlink:href="#DejaVuSans-74" transform="translate(999.421875 0)"/>
      <use xlink:href="#DejaVuSans-20" transform="translate(1038.630859 0)"/>
      <use xlink:href="#DejaVuSans-72" transform="translate(1070.417969 0)"/>
      <use xlink:href="#DejaVuSans-65" transform="translate(1109.28125 0)"/>
      <use xlink:href="#DejaVuSans-73" transform="translate(1170.804688 0)"/>
      <use xlink:href="#DejaVuSans-70" transform="translate(1222.904297 0)"/>
      <use xlink:href="#DejaVuSans-6f" transform="translate(1286.380859 0)"/>
      <use xlink:href="#DejaVuSans-6e" transform="translate(1347.5625 0)"/>
      <use xlink:href="#DejaVuSans-73" transform="translate(1410.941406 0)"/>
      <use xlink:href="#DejaVuSans-65" transform="translate(1463.041016 0)"/>
     </g>
    </g>
   </g>
   <g id="FillBetweenPolyCollection_1">
    <defs>
     <path id="me306b77f46" d="M 97.804841 -136.854772 
L 82.764224 -136.854772 
L 82.622299 -137.433919 
L 82.483464 -138.013066 
L 82.347045 -138.592213 
L 82.212278 -139.171359 
L 82.078315 -139.750506 
L 81.944233 -140.329653 
L 81.809046 -140.9088 
L 81.671711 -141.487947 
L 81.531143 -142.067094 
L 81.386225 -142.646241 
L 81.235823 -143.225387 
L 81.078794 -143.804534 
L 80.914004 -144.383681 
L 80.740341 -144.962828 
L 80.556721 -145.541975 
L 80.362111 -146.121122 
L 80.155529 -146.700269 
L 79.936067 -147.279415 
L 79.702892 -147.858562 
L 79.455259 -148.437709 
L 79.192521 -149.016856 
L 78.91413 -149.596003 
L 78.619652 -150.17515 
L 78.308764 -150.754297 
L 77.98126 -151.333444 
L 77.637054 -151.91259 
L 77.27618 -152.491737 
L 76.898792 -153.070884 
L 76.505162 -153.650031 
L 76.095676 -154.229178 
L 75.670834 -154.808325 
L 75.231243 -155.387472 
L 74.777609 -155.966618 
L 74.310736 -156.545765 
L 73.831513 -157.124912 
L 73.340911 -157.704059 
L 72.839973 -158.283206 
L 72.329804 -158.862353 
L 71.811564 -159.4415 
L 71.286458 -160.020646 
L 70.755728 -160.599793 
L 70.220642 -161.17894 
L 69.682487 -161.758087 
L 69.142561 -162.337234 
L 68.602162 -162.916381 
L 68.062581 -163.495528 
L 67.525099 -164.074674 
L 66.990975 -164.653821 
L 66.461443 -165.232968 
L 65.937709 -165.812115 
L 65.420942 -166.391262 
L 64.912276 -166.970409 
L 64.412806 -167.549556 
L 63.923587 -168.128703 
L 63.445633 -168.707849 
L 62.979921 -169.286996 
L 62.52739 -169.866143 
L 62.088943 -170.44529 
L 61.665454 -171.024437 
L 61.25777 -171.603584 
L 60.866715 -172.182731 
L 60.493097 -172.761877 
L 60.137712 -173.341024 
L 59.801349 -173.920171 
L 59.484796 -174.499318 
L 59.188845 -175.078465 
L 58.914297 -175.657612 
L 58.661962 -176.236759 
L 58.432665 -176.815905 
L 58.22725 -177.395052 
L 58.046572 -177.974199 
L 57.891506 -178.553346 
L 57.762937 -179.132493 
L 57.66176 -179.71164 
L 57.588874 -180.290787 
L 57.545175 -180.869934 
L 57.531545 -181.44908 
L 57.548847 -182.028227 
L 57.597909 -182.607374 
L 57.679515 -183.186521 
L 57.79439 -183.765668 
L 57.943188 -184.344815 
L 58.126476 -184.923962 
L 58.344719 -185.503108 
L 58.598268 -186.082255 
L 58.887347 -186.661402 
L 59.212036 -187.240549 
L 59.57226 -187.819696 
L 59.967782 -188.398843 
L 60.398191 -188.97799 
L 60.862894 -189.557136 
L 61.361115 -190.136283 
L 61.891886 -190.71543 
L 62.454053 -191.294577 
L 63.046272 -191.873724 
L 63.66702 -192.452871 
L 64.314594 -193.032018 
L 64.987129 -193.611165 
L 65.682601 -194.190311 
L 114.886464 -194.190311 
L 114.886464 -194.190311 
L 115.581936 -193.611165 
L 116.254471 -193.032018 
L 116.902045 -192.452871 
L 117.522793 -191.873724 
L 118.115012 -191.294577 
L 118.677179 -190.71543 
L 119.20795 -190.136283 
L 119.70617 -189.557136 
L 120.170874 -188.97799 
L 120.601283 -188.398843 
L 120.996805 -187.819696 
L 121.357029 -187.240549 
L 121.681718 -186.661402 
L 121.970796 -186.082255 
L 122.224346 -185.503108 
L 122.442589 -184.923962 
L 122.625877 -184.344815 
L 122.774675 -183.765668 
L 122.88955 -183.186521 
L 122.971156 -182.607374 
L 123.020218 -182.028227 
L 123.037519 -181.44908 
L 123.02389 -180.869934 
L 122.980191 -180.290787 
L 122.907305 -179.71164 
L 122.806128 -179.132493 
L 122.677559 -178.553346 
L 122.522493 -177.974199 
L 122.341815 -177.395052 
L 122.1364 -176.815905 
L 121.907103 -176.236759 
L 121.654768 -175.657612 
L 121.38022 -175.078465 
L 121.084269 -174.499318 
L 120.767716 -173.920171 
L 120.431353 -173.341024 
L 120.075968 -172.761877 
L 119.70235 -172.182731 
L 119.311295 -171.603584 
L 118.903611 -171.024437 
L 118.480122 -170.44529 
L 118.041675 -169.866143 
L 117.589144 -169.286996 
L 117.123432 -168.707849 
L 116.645478 -168.128703 
L 116.156259 -167.549556 
L 115.656789 -166.970409 
L 115.148123 -166.391262 
L 114.631356 -165.812115 
L 114.107622 -165.232968 
L 113.57809 -164.653821 
L 113.043966 -164.074674 
L 112.506484 -163.495528 
L 111.966903 -162.916381 
L 111.426504 -162.337234 
L 110.886578 -161.758087 
L 110.348423 -161.17894 
L 109.813337 -160.599793 
L 109.282607 -160.020646 
L 108.757501 -159.4415 
L 108.239261 -158.862353 
L 107.729092 -158.283206 
L 107.228154 -157.704059 
L 106.737552 -157.124912 
L 106.258329 -156.545765 
L 105.791456 -155.966618 
L 105.337822 -155.387472 
L 104.898231 -154.808325 
L 104.473389 -154.229178 
L 104.063903 -153.650031 
L 103.670273 -153.070884 
L 103.292885 -152.491737 
L 102.932011 -151.91259 
L 102.587805 -151.333444 
L 102.260301 -150.754297 
L 101.949413 -150.17515 
L 101.654935 -149.596003 
L 101.376544 -149.016856 
L 101.113805 -148.437709 
L 100.866173 -147.858562 
L 100.632997 -147.279415 
L 100.413535 -146.700269 
L 100.206954 -146.121122 
L 100.012344 -145.541975 
L 99.828724 -144.962828 
L 99.65506 -144.383681 
L 99.490271 -143.804534 
L 99.333242 -143.225387 
L 99.182839 -142.646241 
L 99.037922 -142.067094 
L 98.897354 -141.487947 
L 98.760019 -140.9088 
L 98.624832 -140.329653 
L 98.49075 -139.750506 
L 98.356787 -139.171359 
L 98.22202 -138.592213 
L 98.085601 -138.013066 
L 97.946766 -137.433919 
L 97.804841 -136.854772 
z
" style="stroke: #2f2f2f"/>
    </defs>
    <g clip-path="url(#p5d69184413)">
     <use xlink:href="#me306b77f46" x="0" y="288" style="fill: #58b2a3; stroke: #2f2f2f"/>
    </g>
   </g>
   <g id="FillBetweenPolyCollection_2">
    <defs>
     <path id="m275403ad3e" d="M 190.675328 -152.138865 
L 153.658672 -152.138865 
L 153.29406 -152.650418 
L 152.937493 -153.161971 
L 152.588659 -153.673523 
L 152.247173 -154.185076 
L 151.912586 -154.696628 
L 151.584395 -155.208181 
L 151.262056 -155.719733 
L 150.944994 -156.231286 
L 150.632614 -156.742838 
L 150.324317 -157.254391 
L 150.019508 -157.765943 
L 149.717611 -158.277496 
L 149.41808 -158.789049 
L 149.120408 -159.300601 
L 148.824138 -159.812154 
L 148.528871 -160.323706 
L 148.234278 -160.835259 
L 147.940097 -161.346811 
L 147.646148 -161.858364 
L 147.352329 -162.369916 
L 147.058619 -162.881469 
L 146.76508 -163.393021 
L 146.471855 -163.904574 
L 146.179161 -164.416126 
L 145.887288 -164.927679 
L 145.596594 -165.439232 
L 145.307493 -165.950784 
L 145.020451 -166.462337 
L 144.735975 -166.973889 
L 144.454604 -167.485442 
L 144.176901 -167.996994 
L 143.903438 -168.508547 
L 143.63479 -169.020099 
L 143.371526 -169.531652 
L 143.114195 -170.043204 
L 142.863323 -170.554757 
L 142.619403 -171.066309 
L 142.382888 -171.577862 
L 142.154188 -172.089415 
L 141.933663 -172.600967 
L 141.721625 -173.11252 
L 141.518333 -173.624072 
L 141.323997 -174.135625 
L 141.138776 -174.647177 
L 140.962787 -175.15873 
L 140.796104 -175.670282 
L 140.638767 -176.181835 
L 140.490789 -176.693387 
L 140.352163 -177.20494 
L 140.222868 -177.716492 
L 140.102884 -178.228045 
L 139.992195 -178.739598 
L 139.890799 -179.25115 
L 139.79872 -179.762703 
L 139.716014 -180.274255 
L 139.642776 -180.785808 
L 139.579148 -181.29736 
L 139.525324 -181.808913 
L 139.481556 -182.320465 
L 139.448155 -182.832018 
L 139.425495 -183.34357 
L 139.414013 -183.855123 
L 139.414206 -184.366675 
L 139.42663 -184.878228 
L 139.451896 -185.389781 
L 139.490664 -185.901333 
L 139.543638 -186.412886 
L 139.611553 -186.924438 
L 139.69517 -187.435991 
L 139.795267 -187.947543 
L 139.912625 -188.459096 
L 140.048015 -188.970648 
L 140.202193 -189.482201 
L 140.375883 -189.993753 
L 140.569764 -190.505306 
L 140.784463 -191.016858 
L 141.020541 -191.528411 
L 141.278483 -192.039964 
L 141.558688 -192.551516 
L 141.861461 -193.063069 
L 142.187003 -193.574621 
L 142.535407 -194.086174 
L 142.906654 -194.597726 
L 143.300605 -195.109279 
L 143.716999 -195.620831 
L 144.155455 -196.132384 
L 144.615472 -196.643936 
L 145.096425 -197.155489 
L 145.597576 -197.667041 
L 146.118071 -198.178594 
L 146.656951 -198.690147 
L 147.213154 -199.201699 
L 147.785525 -199.713252 
L 148.372824 -200.224804 
L 148.973734 -200.736357 
L 149.586872 -201.247909 
L 150.210797 -201.759462 
L 150.844022 -202.271014 
L 151.485025 -202.782567 
L 192.848975 -202.782567 
L 192.848975 -202.782567 
L 193.489978 -202.271014 
L 194.123203 -201.759462 
L 194.747128 -201.247909 
L 195.360266 -200.736357 
L 195.961176 -200.224804 
L 196.548475 -199.713252 
L 197.120846 -199.201699 
L 197.677049 -198.690147 
L 198.215929 -198.178594 
L 198.736424 -197.667041 
L 199.237575 -197.155489 
L 199.718528 -196.643936 
L 200.178545 -196.132384 
L 200.617001 -195.620831 
L 201.033395 -195.109279 
L 201.427346 -194.597726 
L 201.798593 -194.086174 
L 202.146997 -193.574621 
L 202.472539 -193.063069 
L 202.775312 -192.551516 
L 203.055517 -192.039964 
L 203.313459 -191.528411 
L 203.549537 -191.016858 
L 203.764236 -190.505306 
L 203.958117 -189.993753 
L 204.131807 -189.482201 
L 204.285985 -188.970648 
L 204.421375 -188.459096 
L 204.538733 -187.947543 
L 204.63883 -187.435991 
L 204.722447 -186.924438 
L 204.790362 -186.412886 
L 204.843336 -185.901333 
L 204.882104 -185.389781 
L 204.90737 -184.878228 
L 204.919794 -184.366675 
L 204.919987 -183.855123 
L 204.908505 -183.34357 
L 204.885845 -182.832018 
L 204.852444 -182.320465 
L 204.808676 -181.808913 
L 204.754852 -181.29736 
L 204.691224 -180.785808 
L 204.617986 -180.274255 
L 204.53528 -179.762703 
L 204.443201 -179.25115 
L 204.341805 -178.739598 
L 204.231116 -178.228045 
L 204.111132 -177.716492 
L 203.981837 -177.20494 
L 203.843211 -176.693387 
L 203.695233 -176.181835 
L 203.537896 -175.670282 
L 203.371213 -175.15873 
L 203.195224 -174.647177 
L 203.010003 -174.135625 
L 202.815667 -173.624072 
L 202.612375 -173.11252 
L 202.400337 -172.600967 
L 202.179812 -172.089415 
L 201.951112 -171.577862 
L 201.714597 -171.066309 
L 201.470677 -170.554757 
L 201.219805 -170.043204 
L 200.962474 -169.531652 
L 200.69921 -169.020099 
L 200.430562 -168.508547 
L 200.157099 -167.996994 
L 199.879396 -167.485442 
L 199.598025 -166.973889 
L 199.313549 -166.462337 
L 199.026507 -165.950784 
L 198.737406 -165.439232 
L 198.446712 -164.927679 
L 198.154839 -164.416126 
L 197.862145 -163.904574 
L 197.56892 -163.393021 
L 197.275381 -162.881469 
L 196.981671 -162.369916 
L 196.687852 -161.858364 
L 196.393903 -161.346811 
L 196.099722 -160.835259 
L 195.805129 -160.323706 
L 195.509862 -159.812154 
L 195.213592 -159.300601 
L 194.91592 -158.789049 
L 194.616389 -158.277496 
L 194.314492 -157.765943 
L 194.009683 -157.254391 
L 193.701386 -156.742838 
L 193.389006 -156.231286 
L 193.071944 -155.719733 
L 192.749605 -155.208181 
L 192.421414 -154.696628 
L 192.086827 -154.185076 
L 191.745341 -153.673523 
L 191.396507 -153.161971 
L 191.03994 -152.650418 
L 190.675328 -152.138865 
z
" style="stroke: #2f2f2f"/>
    </defs>
    <g clip-path="url(#p5d69184413)">
     <use xlink:href="#m275403ad3e" x="0" y="288" style="fill: #437695; stroke: #2f2f2f"/>
    </g>
   </g>
   <g id="FillBetweenPolyCollection_3">
    <defs>
     <path id="m76ae450c0d" d="M 270.299559 -146.0522 
L 237.799376 -146.0522 
L 237.20013 -146.65778 
L 236.598415 -147.263361 
L 235.995208 -147.868941 
L 235.391511 -148.474522 
L 234.788349 -149.080102 
L 234.18677 -149.685683 
L 233.587839 -150.291263 
L 232.992638 -150.896843 
L 232.40226 -151.502424 
L 231.817805 -152.108004 
L 231.240379 -152.713585 
L 230.671084 -153.319165 
L 230.111017 -153.924746 
L 229.561261 -154.530326 
L 229.022883 -155.135906 
L 228.496924 -155.741487 
L 227.984393 -156.347067 
L 227.486265 -156.952648 
L 227.003469 -157.558228 
L 226.536885 -158.163809 
L 226.087341 -158.769389 
L 225.655601 -159.374969 
L 225.242365 -159.98055 
L 224.848265 -160.58613 
L 224.473859 -161.191711 
L 224.11963 -161.797291 
L 223.785985 -162.402872 
L 223.473252 -163.008452 
L 223.18168 -163.614033 
L 222.911442 -164.219613 
L 222.662635 -164.825193 
L 222.435283 -165.430774 
L 222.229339 -166.036354 
L 222.044691 -166.641935 
L 221.881166 -167.247515 
L 221.738533 -167.853096 
L 221.616512 -168.458676 
L 221.514776 -169.064256 
L 221.432958 -169.669837 
L 221.370659 -170.275417 
L 221.32745 -170.880998 
L 221.30288 -171.486578 
L 221.296481 -172.092159 
L 221.307771 -172.697739 
L 221.336261 -173.303319 
L 221.381458 -173.9089 
L 221.442867 -174.51448 
L 221.519996 -175.120061 
L 221.612356 -175.725641 
L 221.719467 -176.331222 
L 221.840853 -176.936802 
L 221.97605 -177.542382 
L 222.124603 -178.147963 
L 222.286065 -178.753543 
L 222.460003 -179.359124 
L 222.645991 -179.964704 
L 222.843614 -180.570285 
L 223.05247 -181.175865 
L 223.272164 -181.781445 
L 223.502315 -182.387026 
L 223.742552 -182.992606 
L 223.992516 -183.598187 
L 224.251861 -184.203767 
L 224.520254 -184.809348 
L 224.797379 -185.414928 
L 225.082933 -186.020508 
L 225.376635 -186.626089 
L 225.678219 -187.231669 
L 225.987443 -187.83725 
L 226.304084 -188.44283 
L 226.627945 -189.048411 
L 226.958851 -189.653991 
L 227.296654 -190.259571 
L 227.641229 -190.865152 
L 227.992478 -191.470732 
L 228.350325 -192.076313 
L 228.714719 -192.681893 
L 229.085631 -193.287474 
L 229.463048 -193.893054 
L 229.846976 -194.498634 
L 230.237433 -195.104215 
L 230.634443 -195.709795 
L 231.038038 -196.315376 
L 231.448247 -196.920956 
L 231.865091 -197.526537 
L 232.288584 -198.132117 
L 232.718717 -198.737698 
L 233.155462 -199.343278 
L 233.598762 -199.948858 
L 234.048523 -200.554439 
L 234.504614 -201.160019 
L 234.966859 -201.7656 
L 235.435036 -202.37118 
L 235.908868 -202.976761 
L 236.388026 -203.582341 
L 236.872122 -204.187921 
L 237.360713 -204.793502 
L 237.853296 -205.399082 
L 238.34931 -206.004663 
L 269.749625 -206.004663 
L 269.749625 -206.004663 
L 270.245639 -205.399082 
L 270.738222 -204.793502 
L 271.226813 -204.187921 
L 271.710909 -203.582341 
L 272.190067 -202.976761 
L 272.663899 -202.37118 
L 273.132076 -201.7656 
L 273.594321 -201.160019 
L 274.050412 -200.554439 
L 274.500173 -199.948858 
L 274.943473 -199.343278 
L 275.380218 -198.737698 
L 275.810351 -198.132117 
L 276.233844 -197.526537 
L 276.650688 -196.920956 
L 277.060897 -196.315376 
L 277.464492 -195.709795 
L 277.861502 -195.104215 
L 278.251959 -194.498634 
L 278.635887 -193.893054 
L 279.013304 -193.287474 
L 279.384216 -192.681893 
L 279.74861 -192.076313 
L 280.106457 -191.470732 
L 280.457706 -190.865152 
L 280.802281 -190.259571 
L 281.140084 -189.653991 
L 281.47099 -189.048411 
L 281.794851 -188.44283 
L 282.111492 -187.83725 
L 282.420716 -187.231669 
L 282.7223 -186.626089 
L 283.016002 -186.020508 
L 283.301556 -185.414928 
L 283.578681 -184.809348 
L 283.847074 -184.203767 
L 284.106419 -183.598187 
L 284.356383 -182.992606 
L 284.59662 -182.387026 
L 284.826771 -181.781445 
L 285.046465 -181.175865 
L 285.255321 -180.570285 
L 285.452944 -179.964704 
L 285.638932 -179.359124 
L 285.81287 -178.753543 
L 285.974332 -178.147963 
L 286.122885 -177.542382 
L 286.258082 -176.936802 
L 286.379468 -176.331222 
L 286.486579 -175.725641 
L 286.578939 -175.120061 
L 286.656068 -174.51448 
L 286.717477 -173.9089 
L 286.762674 -173.303319 
L 286.791164 -172.697739 
L 286.802455 -172.092159 
L 286.796055 -171.486578 
L 286.771485 -170.880998 
L 286.728276 -170.275417 
L 286.665977 -169.669837 
L 286.584159 -169.064256 
L 286.482423 -168.458676 
L 286.360402 -167.853096 
L 286.217769 -167.247515 
L 286.054244 -166.641935 
L 285.869596 -166.036354 
L 285.663652 -165.430774 
L 285.4363 -164.825193 
L 285.187493 -164.219613 
L 284.917255 -163.614033 
L 284.625683 -163.008452 
L 284.31295 -162.402872 
L 283.979305 -161.797291 
L 283.625076 -161.191711 
L 283.25067 -160.58613 
L 282.85657 -159.98055 
L 282.443334 -159.374969 
L 282.011594 -158.769389 
L 281.56205 -158.163809 
L 281.095466 -157.558228 
L 280.61267 -156.952648 
L 280.114542 -156.347067 
L 279.602011 -155.741487 
L 279.076052 -155.135906 
L 278.537674 -154.530326 
L 277.987918 -153.924746 
L 277.427851 -153.319165 
L 276.858556 -152.713585 
L 276.28113 -152.108004 
L 275.696675 -151.502424 
L 275.106297 -150.896843 
L 274.511096 -150.291263 
L 273.912165 -149.685683 
L 273.310586 -149.080102 
L 272.707424 -148.474522 
L 272.103727 -147.868941 
L 271.50052 -147.263361 
L 270.898805 -146.65778 
L 270.299559 -146.0522 
z
" style="stroke: #2f2f2f"/>
    </defs>
    <g clip-path="url(#p5d69184413)">
     <use xlink:href="#m76ae450c0d" x="0" y="288" style="fill: #423b63; stroke: #2f2f2f"/>
    </g>
   </g>
   <g id="line2d_11">
    <path d="M 90.284532 130.070788 
L 90.284532 93.809689 
" clip-path="url(#p5d69184413)" style="fill: none; stroke: #2f2f2f; stroke-width: 1.5; stroke-linecap: round"/>
   </g>
   <g id="line2d_12">
    <path d="M 90.284532 119.981439 
L 90.284532 99.820894 
" clip-path="url(#p5d69184413)" style="fill: none; stroke: #2f2f2f; stroke-width: 4.5; stroke-linecap: round"/>
   </g>
   <g id="line2d_13">
    <path d="M 90.284532 113.604842 
" clip-path="url(#p5d69184413)" style="fill: none; stroke: #2f2f2f; stroke-width: 1.2; stroke-linecap: round"/>
    <defs>
     <path id="m1b51b9ee81" d="M 1.875 0 
L -1.875 -0 
" style="stroke: #ffffff; stroke-width: 0.9"/>
    </defs>
    <g clip-path="url(#p5d69184413)">
     <use xlink:href="#m1b51b9ee81" x="90.284532" y="113.604842" style="fill: #ffffff; stroke: #ffffff; stroke-width: 0.9"/>
    </g>
   </g>
   <g id="line2d_14">
    <path d="M 172.167 135.861135 
L 172.167 85.217433 
" clip-path="url(#p5d69184413)" style="fill: none; stroke: #2f2f2f; stroke-width: 1.5; stroke-linecap: round"/>
   </g>
   <g id="line2d_15">
    <path d="M 172.167 117.059976 
L 172.167 97.252396 
" clip-path="url(#p5d69184413)" style="fill: none; stroke: #2f2f2f; stroke-width: 4.5; stroke-linecap: round"/>
   </g>
   <g id="line2d_16">
    <path d="M 172.167 113.656284 
" clip-path="url(#p5d69184413)" style="fill: none; stroke: #2f2f2f; stroke-width: 1.2; stroke-linecap: round"/>
    <g clip-path="url(#p5d69184413)">
     <use xlink:href="#m1b51b9ee81" x="172.167" y="113.656284" style="fill: #ffffff; stroke: #ffffff; stroke-width: 0.9"/>
    </g>
   </g>
   <g id="line2d_17">
    <path d="M 254.049468 141.9478 
L 254.049468 81.995337 
" clip-path="url(#p5d69184413)" style="fill: none; stroke: #2f2f2f; stroke-width: 1.5; stroke-linecap: round"/>
   </g>
   <g id="line2d_18">
    <path d="M 254.049468 123.530791 
L 254.049468 100.591357 
" clip-path="url(#p5d69184413)" style="fill: none; stroke: #2f2f2f; stroke-width: 4.5; stroke-linecap: round"/>
   </g>
   <g id="line2d_19">
    <path d="M 254.049468 110.825838 
" clip-path="url(#p5d69184413)" style="fill: none; stroke: #2f2f2f; stroke-width: 1.2; stroke-linecap: round"/>
    <g clip-path="url(#p5d69184413)">
     <use xlink:href="#m1b51b9ee81" x="254.049468" y="110.825838" style="fill: #ffffff; stroke: #ffffff; stroke-width: 0.9"/>
    </g>
   </g>
   <g id="line2d_20">
    <path d="M 90.284532 78.408071 
L 90.284532 69.914089 
L 172.167 69.914089 
L 172.167 78.408071 
" clip-path="url(#p5d69184413)" style="fill: none; stroke: #000000; stroke-linecap: round"/>
   </g>
   <g id="line2d_21">
    <path d="M 172.167 64.059004 
L 172.167 55.206296 
L 254.049468 55.206296 
L 254.049468 64.059004 
" clip-path="url(#p5d69184413)" style="fill: none; stroke: #000000; stroke-linecap: round"/>
   </g>
   <g id="line2d_22">
    <path d="M 90.284532 49.709937 
L 90.284532 40.498502 
L 254.049468 40.498502 
L 254.049468 49.709937 
" clip-path="url(#p5d69184413)" style="fill: none; stroke: #000000; stroke-linecap: round"/>
   </g>
   <g id="patch_3">
    <path d="M 46.068 238.804 
L 46.068 23.568 
" style="fill: none; stroke: #262626; stroke-linejoin: miter; stroke-linecap: square"/>
   </g>
   <g id="patch_4">
    <path d="M 298.266 238.804 
L 298.266 23.568 
" style="fill: none; stroke: #262626; stroke-linejoin: miter; stroke-linecap: square"/>
   </g>
   <g id="patch_5">
    <path d="M 46.068 238.804 
L 298.266 238.804 
" style="fill: none; stroke: #262626; stroke-linejoin: miter; stroke-linecap: square"/>
   </g>
   <g id="patch_6">
    <path d="M 46.068 23.568 
L 298.266 23.568 
" style="fill: none; stroke: #262626; stroke-linejoin: miter; stroke-linecap: square"/>
   </g>
   <g id="text_12">
    <!-- ns -->
    <g transform="translate(125.683266 67.917589) scale(0.096 -0.096)">
     <use xlink:href="#DejaVuSans-6e"/>
     <use xlink:href="#DejaVuSans-73" transform="translate(63.378906 0)"/>
    </g>
   </g>
   <g id="text_13">
    <!-- ns -->
    <g transform="translate(207.565734 53.209796) scale(0.096 -0.096)">
     <use xlink:href="#DejaVuSans-6e"/>
     <use xlink:href="#DejaVuSans-73" transform="translate(63.378906 0)"/>
    </g>
   </g>
   <g id="text_14">
    <!-- ns -->
    <g transform="translate(166.6245 38.502002) scale(0.096 -0.096)">
     <use xlink:href="#DejaVuSans-6e"/>
     <use xlink:href="#DejaVuSans-73" transform="translate(63.378906 0)"/>
    </g>
   </g>
   <g id="text_15">
    <!-- Accuracy -->
    <g style="fill: #262626" transform="translate(150.252 17.568) scale(0.096 -0.096)">
     <defs>
      <path id="DejaVuSans-41" d="M 2188 4044 
L 1331 1722 
L 3047 1722 
L 2188 4044 
z
M 1831 4666 
L 2547 4666 
L 4325 0 
L 3669 0 
L 3244 1197 
L 1141 1197 
L 716 0 
L 50 0 
L 1831 4666 
z
" transform="scale(0.015625)"/>
     </defs>
     <use xlink:href="#DejaVuSans-41"/>
     <use xlink:href="#DejaVuSans-63" transform="translate(66.658203 0)"/>
     <use xlink:href="#DejaVuSans-63" transform="translate(121.638672 0)"/>
     <use xlink:href="#DejaVuSans-75" transform="translate(176.619141 0)"/>
     <use xlink:href="#DejaVuSans-72" transform="translate(239.998047 0)"/>
     <use xlink:href="#DejaVuSans-61" transform="translate(281.111328 0)"/>
     <use xlink:href="#DejaVuSans-63" transform="translate(342.390625 0)"/>
     <use xlink:href="#DejaVuSans-79" transform="translate(397.371094 0)"/>
    </g>
   </g>
  </g>
  <g id="axes_2">
   <g id="patch_7">
    <path d="M 313.434 238.804 
L 565.632 238.804 
L 565.632 23.568 
L 313.434 23.568 
L 313.434 238.804 
z
" style="fill: none"/>
   </g>
   <g id="matplotlib.axis_3">
    <g id="xtick_4">
     <g id="line2d_23">
      <g>
       <use xlink:href="#m20177cf906" x="357.650532" y="238.804" style="fill: #262626; stroke: #262626"/>
      </g>
     </g>
     <g id="text_16">
      <!-- Low -->
      <g style="fill: #262626" transform="translate(348.985282 253.790625) scale(0.088 -0.088)">
       <use xlink:href="#DejaVuSans-4c"/>
       <use xlink:href="#DejaVuSans-6f" transform="translate(53.962891 0)"/>
       <use xlink:href="#DejaVuSans-77" transform="translate(115.144531 0)"/>
      </g>
     </g>
    </g>
    <g id="xtick_5">
     <g id="line2d_24">
      <g>
       <use xlink:href="#m20177cf906" x="439.533" y="238.804" style="fill: #262626; stroke: #262626"/>
      </g>
     </g>
     <g id="text_17">
      <!-- Medium -->
      <g style="fill: #262626" transform="translate(421.939188 253.790625) scale(0.088 -0.088)">
       <use xlink:href="#DejaVuSans-4d"/>
       <use xlink:href="#DejaVuSans-65" transform="translate(86.279297 0)"/>
       <use xlink:href="#DejaVuSans-64" transform="translate(147.802734 0)"/>
       <use xlink:href="#DejaVuSans-69" transform="translate(211.279297 0)"/>
       <use xlink:href="#DejaVuSans-75" transform="translate(239.0625 0)"/>
       <use xlink:href="#DejaVuSans-6d" transform="translate(302.441406 0)"/>
      </g>
     </g>
    </g>
    <g id="xtick_6">
     <g id="line2d_25">
      <g>
       <use xlink:href="#m20177cf906" x="521.415468" y="238.804" style="fill: #262626; stroke: #262626"/>
      </g>
     </g>
     <g id="text_18">
      <!-- High -->
      <g style="fill: #262626" transform="translate(511.302343 253.790625) scale(0.088 -0.088)">
       <use xlink:href="#DejaVuSans-48"/>
       <use xlink:href="#DejaVuSans-69" transform="translate(75.195312 0)"/>
       <use xlink:href="#DejaVuSans-67" transform="translate(102.978516 0)"/>
       <use xlink:href="#DejaVuSans-68" transform="translate(166.455078 0)"/>
      </g>
     </g>
    </g>
   </g>
   <g id="matplotlib.axis_4">
    <g id="ytick_8">
     <g id="line2d_26">
      <g>
       <use xlink:href="#m986d86ee6b" x="313.434" y="238.804" style="fill: #262626; stroke: #262626"/>
      </g>
     </g>
    </g>
    <g id="ytick_9">
     <g id="line2d_27">
      <g>
       <use xlink:href="#m986d86ee6b" x="313.434" y="202.931333" style="fill: #262626; stroke: #262626"/>
      </g>
     </g>
    </g>
    <g id="ytick_10">
     <g id="line2d_28">
      <g>
       <use xlink:href="#m986d86ee6b" x="313.434" y="167.058667" style="fill: #262626; stroke: #262626"/>
      </g>
     </g>
    </g>
    <g id="ytick_11">
     <g id="line2d_29">
      <g>
       <use xlink:href="#m986d86ee6b" x="313.434" y="131.186" style="fill: #262626; stroke: #262626"/>
      </g>
     </g>
    </g>
    <g id="ytick_12">
     <g id="line2d_30">
      <g>
       <use xlink:href="#m986d86ee6b" x="313.434" y="95.313333" style="fill: #262626; stroke: #262626"/>
      </g>
     </g>
    </g>
    <g id="ytick_13">
     <g id="line2d_31">
      <g>
       <use xlink:href="#m986d86ee6b" x="313.434" y="59.440667" style="fill: #262626; stroke: #262626"/>
      </g>
     </g>
    </g>
    <g id="ytick_14">
     <g id="line2d_32">
      <g>
       <use xlink:href="#m986d86ee6b" x="313.434" y="23.568" style="fill: #262626; stroke: #262626"/>
      </g>
     </g>
    </g>
   </g>
   <g id="FillBetweenPolyCollection_4">
    <defs>
     <path id="m6f36a52ee4" d="M 385.761902 -126.698675 
L 329.539163 -126.698675 
L 328.908324 -127.251986 
L 328.316638 -127.805297 
L 327.766542 -128.358608 
L 327.260241 -128.911919 
L 326.79969 -129.46523 
L 326.386579 -130.018541 
L 326.022318 -130.571852 
L 325.708033 -131.125162 
L 325.444553 -131.678473 
L 325.232411 -132.231784 
L 325.071842 -132.785095 
L 324.962786 -133.338406 
L 324.904897 -133.891717 
L 324.897545 -134.445028 
L 324.939835 -134.998339 
L 325.030616 -135.55165 
L 325.168499 -136.104961 
L 325.351876 -136.658272 
L 325.578941 -137.211583 
L 325.847707 -137.764894 
L 326.156036 -138.318205 
L 326.501654 -138.871516 
L 326.882182 -139.424827 
L 327.295156 -139.978138 
L 327.738052 -140.531448 
L 328.208309 -141.084759 
L 328.703351 -141.63807 
L 329.220609 -142.191381 
L 329.757539 -142.744692 
L 330.311644 -143.298003 
L 330.880486 -143.851314 
L 331.461705 -144.404625 
L 332.05303 -144.957936 
L 332.652288 -145.511247 
L 333.257416 -146.064558 
L 333.866467 -146.617869 
L 334.477613 -147.17118 
L 335.089147 -147.724491 
L 335.699487 -148.277802 
L 336.307174 -148.831113 
L 336.910868 -149.384424 
L 337.509344 -149.937735 
L 338.10149 -150.491045 
L 338.686296 -151.044356 
L 339.262852 -151.597667 
L 339.830338 -152.150978 
L 340.388013 -152.704289 
L 340.935212 -153.2576 
L 341.471337 -153.810911 
L 341.995846 -154.364222 
L 342.508245 -154.917533 
L 343.008086 -155.470844 
L 343.494956 -156.024155 
L 343.968474 -156.577466 
L 344.428284 -157.130777 
L 344.874053 -157.684088 
L 345.305467 -158.237399 
L 345.722232 -158.79071 
L 346.12407 -159.344021 
L 346.510722 -159.897332 
L 346.881946 -160.450642 
L 347.237525 -161.003953 
L 347.577263 -161.557264 
L 347.900996 -162.110575 
L 348.20859 -162.663886 
L 348.49995 -163.217197 
L 348.775021 -163.770508 
L 349.033799 -164.323819 
L 349.276329 -164.87713 
L 349.502716 -165.430441 
L 349.713127 -165.983752 
L 349.907794 -166.537063 
L 350.087018 -167.090374 
L 350.251173 -167.643685 
L 350.400707 -168.196996 
L 350.536143 -168.750307 
L 350.658077 -169.303618 
L 350.76718 -169.856929 
L 350.864193 -170.410239 
L 350.949924 -170.96355 
L 351.025243 -171.516861 
L 351.091078 -172.070172 
L 351.148407 -172.623483 
L 351.19825 -173.176794 
L 351.241662 -173.730105 
L 351.27972 -174.283416 
L 351.31352 -174.836727 
L 351.34416 -175.390038 
L 351.372734 -175.943349 
L 351.400319 -176.49666 
L 351.427966 -177.049971 
L 351.456689 -177.603282 
L 351.487455 -178.156593 
L 351.521175 -178.709904 
L 351.558694 -179.263215 
L 351.600787 -179.816526 
L 351.648147 -180.369836 
L 351.701381 -180.923147 
L 351.761007 -181.476458 
L 363.540058 -181.476458 
L 363.540058 -181.476458 
L 363.599684 -180.923147 
L 363.652918 -180.369836 
L 363.700278 -179.816526 
L 363.742371 -179.263215 
L 363.77989 -178.709904 
L 363.81361 -178.156593 
L 363.844376 -177.603282 
L 363.873099 -177.049971 
L 363.900746 -176.49666 
L 363.928331 -175.943349 
L 363.956905 -175.390038 
L 363.987545 -174.836727 
L 364.021345 -174.283416 
L 364.059403 -173.730105 
L 364.102814 -173.176794 
L 364.152658 -172.623483 
L 364.209987 -172.070172 
L 364.275822 -171.516861 
L 364.351141 -170.96355 
L 364.436872 -170.410239 
L 364.533884 -169.856929 
L 364.642988 -169.303618 
L 364.764922 -168.750307 
L 364.900358 -168.196996 
L 365.049892 -167.643685 
L 365.214047 -167.090374 
L 365.393271 -166.537063 
L 365.587938 -165.983752 
L 365.798349 -165.430441 
L 366.024736 -164.87713 
L 366.267266 -164.323819 
L 366.526044 -163.770508 
L 366.801115 -163.217197 
L 367.092475 -162.663886 
L 367.400069 -162.110575 
L 367.723802 -161.557264 
L 368.06354 -161.003953 
L 368.419119 -160.450642 
L 368.790343 -159.897332 
L 369.176995 -159.344021 
L 369.578833 -158.79071 
L 369.995598 -158.237399 
L 370.427012 -157.684088 
L 370.872781 -157.130777 
L 371.332591 -156.577466 
L 371.806109 -156.024155 
L 372.292979 -155.470844 
L 372.79282 -154.917533 
L 373.305219 -154.364222 
L 373.829728 -153.810911 
L 374.365853 -153.2576 
L 374.913052 -152.704289 
L 375.470727 -152.150978 
L 376.038213 -151.597667 
L 376.614769 -151.044356 
L 377.199575 -150.491045 
L 377.791721 -149.937735 
L 378.390197 -149.384424 
L 378.993891 -148.831113 
L 379.601578 -148.277802 
L 380.211918 -147.724491 
L 380.823452 -147.17118 
L 381.434598 -146.617869 
L 382.043649 -146.064558 
L 382.648777 -145.511247 
L 383.248035 -144.957936 
L 383.83936 -144.404625 
L 384.420579 -143.851314 
L 384.989421 -143.298003 
L 385.543526 -142.744692 
L 386.080456 -142.191381 
L 386.597714 -141.63807 
L 387.092756 -141.084759 
L 387.563013 -140.531448 
L 388.005909 -139.978138 
L 388.418883 -139.424827 
L 388.799411 -138.871516 
L 389.145029 -138.318205 
L 389.453357 -137.764894 
L 389.722124 -137.211583 
L 389.949189 -136.658272 
L 390.132566 -136.104961 
L 390.270449 -135.55165 
L 390.36123 -134.998339 
L 390.403519 -134.445028 
L 390.396168 -133.891717 
L 390.338278 -133.338406 
L 390.229223 -132.785095 
L 390.068654 -132.231784 
L 389.856512 -131.678473 
L 389.593032 -131.125162 
L 389.278747 -130.571852 
L 388.914486 -130.018541 
L 388.501375 -129.46523 
L 388.040824 -128.911919 
L 387.534523 -128.358608 
L 386.984427 -127.805297 
L 386.392741 -127.251986 
L 385.761902 -126.698675 
z
" style="stroke: #2f2f2f"/>
    </defs>
    <g clip-path="url(#pe2f4adeb0e)">
     <use xlink:href="#m6f36a52ee4" x="0" y="288" style="fill: #58b2a3; stroke: #2f2f2f"/>
    </g>
   </g>
   <g id="FillBetweenPolyCollection_5">
    <defs>
     <path id="me60595500a" d="M 456.883248 -90.940408 
L 422.182752 -90.940408 
L 421.553956 -91.884388 
L 420.924362 -92.828369 
L 420.295061 -93.772349 
L 419.667157 -94.71633 
L 419.041764 -95.660311 
L 418.420003 -96.604291 
L 417.803004 -97.548272 
L 417.191901 -98.492253 
L 416.587832 -99.436233 
L 415.99194 -100.380214 
L 415.405366 -101.324195 
L 414.829251 -102.268175 
L 414.264734 -103.212156 
L 413.712948 -104.156137 
L 413.17502 -105.100117 
L 412.652065 -106.044098 
L 412.145187 -106.988079 
L 411.655474 -107.932059 
L 411.18399 -108.87604 
L 410.73178 -109.820021 
L 410.299856 -110.764001 
L 409.889198 -111.707982 
L 409.500747 -112.651963 
L 409.135401 -113.595943 
L 408.794005 -114.539924 
L 408.477352 -115.483905 
L 408.18617 -116.427885 
L 407.921121 -117.371866 
L 407.682793 -118.315847 
L 407.471694 -119.259827 
L 407.288248 -120.203808 
L 407.132786 -121.147788 
L 407.005547 -122.091769 
L 406.906669 -123.03575 
L 406.836187 -123.97973 
L 406.794028 -124.923711 
L 406.780013 -125.867692 
L 406.793851 -126.811672 
L 406.835141 -127.755653 
L 406.903371 -128.699634 
L 406.997922 -129.643614 
L 407.118066 -130.587595 
L 407.262974 -131.531576 
L 407.431717 -132.475556 
L 407.623272 -133.419537 
L 407.836531 -134.363518 
L 408.070307 -135.307498 
L 408.323339 -136.251479 
L 408.594307 -137.19546 
L 408.881837 -138.13944 
L 409.184514 -139.083421 
L 409.500891 -140.027402 
L 409.829503 -140.971382 
L 410.168877 -141.915363 
L 410.517545 -142.859344 
L 410.874054 -143.803324 
L 411.236979 -144.747305 
L 411.604935 -145.691286 
L 411.97659 -146.635266 
L 412.350672 -147.579247 
L 412.725981 -148.523228 
L 413.101399 -149.467208 
L 413.475899 -150.411189 
L 413.84855 -151.355169 
L 414.218527 -152.29915 
L 414.585114 -153.243131 
L 414.94771 -154.187111 
L 415.305829 -155.131092 
L 415.659106 -156.075073 
L 416.007294 -157.019053 
L 416.350262 -157.963034 
L 416.687998 -158.907015 
L 417.0206 -159.850995 
L 417.34827 -160.794976 
L 417.671315 -161.738957 
L 417.990132 -162.682937 
L 418.305203 -163.626918 
L 418.617085 -164.570899 
L 418.9264 -165.514879 
L 419.233823 -166.45886 
L 419.540071 -167.402841 
L 419.845893 -168.346821 
L 420.152052 -169.290802 
L 420.459319 -170.234783 
L 420.768457 -171.178763 
L 421.08021 -172.122744 
L 421.39529 -173.066725 
L 421.714369 -174.010705 
L 422.038064 -174.954686 
L 422.36693 -175.898667 
L 422.70145 -176.842647 
L 423.042029 -177.786628 
L 423.388985 -178.730609 
L 423.742546 -179.674589 
L 424.102844 -180.61857 
L 424.469912 -181.56255 
L 424.843684 -182.506531 
L 425.223997 -183.450512 
L 425.610585 -184.394492 
L 453.455415 -184.394492 
L 453.455415 -184.394492 
L 453.842003 -183.450512 
L 454.222316 -182.506531 
L 454.596088 -181.56255 
L 454.963156 -180.61857 
L 455.323454 -179.674589 
L 455.677015 -178.730609 
L 456.023971 -177.786628 
L 456.36455 -176.842647 
L 456.69907 -175.898667 
L 457.027936 -174.954686 
L 457.351631 -174.010705 
L 457.67071 -173.066725 
L 457.98579 -172.122744 
L 458.297543 -171.178763 
L 458.606681 -170.234783 
L 458.913948 -169.290802 
L 459.220107 -168.346821 
L 459.525929 -167.402841 
L 459.832177 -166.45886 
L 460.1396 -165.514879 
L 460.448915 -164.570899 
L 460.760797 -163.626918 
L 461.075868 -162.682937 
L 461.394685 -161.738957 
L 461.71773 -160.794976 
L 462.0454 -159.850995 
L 462.378002 -158.907015 
L 462.715738 -157.963034 
L 463.058706 -157.019053 
L 463.406894 -156.075073 
L 463.760171 -155.131092 
L 464.11829 -154.187111 
L 464.480886 -153.243131 
L 464.847473 -152.29915 
L 465.21745 -151.355169 
L 465.590101 -150.411189 
L 465.964601 -149.467208 
L 466.340019 -148.523228 
L 466.715328 -147.579247 
L 467.08941 -146.635266 
L 467.461065 -145.691286 
L 467.829021 -144.747305 
L 468.191946 -143.803324 
L 468.548455 -142.859344 
L 468.897123 -141.915363 
L 469.236497 -140.971382 
L 469.565109 -140.027402 
L 469.881486 -139.083421 
L 470.184163 -138.13944 
L 470.471693 -137.19546 
L 470.742661 -136.251479 
L 470.995693 -135.307498 
L 471.229469 -134.363518 
L 471.442728 -133.419537 
L 471.634283 -132.475556 
L 471.803026 -131.531576 
L 471.947934 -130.587595 
L 472.068078 -129.643614 
L 472.162629 -128.699634 
L 472.230859 -127.755653 
L 472.272149 -126.811672 
L 472.285987 -125.867692 
L 472.271972 -124.923711 
L 472.229813 -123.97973 
L 472.159331 -123.03575 
L 472.060453 -122.091769 
L 471.933214 -121.147788 
L 471.777752 -120.203808 
L 471.594306 -119.259827 
L 471.383207 -118.315847 
L 471.144879 -117.371866 
L 470.87983 -116.427885 
L 470.588648 -115.483905 
L 470.271995 -114.539924 
L 469.930599 -113.595943 
L 469.565253 -112.651963 
L 469.176802 -111.707982 
L 468.766144 -110.764001 
L 468.33422 -109.820021 
L 467.88201 -108.87604 
L 467.410526 -107.932059 
L 466.920813 -106.988079 
L 466.413935 -106.044098 
L 465.89098 -105.100117 
L 465.353052 -104.156137 
L 464.801266 -103.212156 
L 464.236749 -102.268175 
L 463.660634 -101.324195 
L 463.07406 -100.380214 
L 462.478168 -99.436233 
L 461.874099 -98.492253 
L 461.262996 -97.548272 
L 460.645997 -96.604291 
L 460.024236 -95.660311 
L 459.398843 -94.71633 
L 458.770939 -93.772349 
L 458.141638 -92.828369 
L 457.512044 -91.884388 
L 456.883248 -90.940408 
z
" style="stroke: #2f2f2f"/>
    </defs>
    <g clip-path="url(#pe2f4adeb0e)">
     <use xlink:href="#me60595500a" x="0" y="288" style="fill: #437695; stroke: #2f2f2f"/>
    </g>
   </g>
   <g id="FillBetweenPolyCollection_6">
    <defs>
     <path id="mc0e9951739" d="M 534.340942 -50.572189 
L 508.489993 -50.572189 
L 507.952332 -51.768015 
L 507.402248 -52.963842 
L 506.839849 -54.159668 
L 506.265315 -55.355494 
L 505.678908 -56.55132 
L 505.080985 -57.747146 
L 504.47201 -58.942972 
L 503.852564 -60.138798 
L 503.223356 -61.334625 
L 502.58523 -62.530451 
L 501.939178 -63.726277 
L 501.286341 -64.922103 
L 500.62802 -66.117929 
L 499.965672 -67.313755 
L 499.300918 -68.509582 
L 498.635537 -69.705408 
L 497.971464 -70.901234 
L 497.310785 -72.09706 
L 496.655726 -73.292886 
L 496.008646 -74.488712 
L 495.372017 -75.684538 
L 494.748415 -76.880365 
L 494.140496 -78.076191 
L 493.550979 -79.272017 
L 492.982622 -80.467843 
L 492.438199 -81.663669 
L 491.920472 -82.859495 
L 491.432167 -84.055321 
L 490.975945 -85.251148 
L 490.554374 -86.446974 
L 490.169902 -87.6428 
L 489.824828 -88.838626 
L 489.521274 -90.034452 
L 489.261163 -91.230278 
L 489.046191 -92.426104 
L 488.877804 -93.621931 
L 488.75718 -94.817757 
L 488.685209 -96.013583 
L 488.662481 -97.209409 
L 488.689267 -98.405235 
L 488.765517 -99.601061 
L 488.890853 -100.796888 
L 489.064562 -101.992714 
L 489.285604 -103.18854 
L 489.552615 -104.384366 
L 489.863913 -105.580192 
L 490.217514 -106.776018 
L 490.611146 -107.971844 
L 491.042271 -109.167671 
L 491.5081 -110.363497 
L 492.005626 -111.559323 
L 492.531648 -112.755149 
L 493.0828 -113.950975 
L 493.655583 -115.146801 
L 494.246398 -116.342627 
L 494.851581 -117.538454 
L 495.467437 -118.73428 
L 496.090276 -119.930106 
L 496.716447 -121.125932 
L 497.342373 -122.321758 
L 497.964585 -123.517584 
L 498.579751 -124.713411 
L 499.184714 -125.909237 
L 499.776511 -127.105063 
L 500.352409 -128.300889 
L 500.909919 -129.496715 
L 501.446824 -130.692541 
L 501.961193 -131.888367 
L 502.451394 -133.084194 
L 502.916107 -134.28002 
L 503.354331 -135.475846 
L 503.765385 -136.671672 
L 504.14891 -137.867498 
L 504.504863 -139.063324 
L 504.833512 -140.25915 
L 505.13542 -141.454977 
L 505.411439 -142.650803 
L 505.662683 -143.846629 
L 505.890516 -145.042455 
L 506.096524 -146.238281 
L 506.282492 -147.434107 
L 506.450379 -148.629934 
L 506.602286 -149.82576 
L 506.740427 -151.021586 
L 506.867104 -152.217412 
L 506.984668 -153.413238 
L 507.095496 -154.609064 
L 507.201956 -155.80489 
L 507.306381 -157.000717 
L 507.411036 -158.196543 
L 507.5181 -159.392369 
L 507.629631 -160.588195 
L 507.747553 -161.784021 
L 507.873628 -162.979847 
L 508.009446 -164.175673 
L 508.156405 -165.3715 
L 508.315699 -166.567326 
L 508.488315 -167.763152 
L 508.675021 -168.958978 
L 534.155915 -168.958978 
L 534.155915 -168.958978 
L 534.34262 -167.763152 
L 534.515236 -166.567326 
L 534.67453 -165.3715 
L 534.821489 -164.175673 
L 534.957307 -162.979847 
L 535.083382 -161.784021 
L 535.201304 -160.588195 
L 535.312835 -159.392369 
L 535.419899 -158.196543 
L 535.524554 -157.000717 
L 535.628979 -155.80489 
L 535.735439 -154.609064 
L 535.846267 -153.413238 
L 535.963831 -152.217412 
L 536.090508 -151.021586 
L 536.228649 -149.82576 
L 536.380556 -148.629934 
L 536.548443 -147.434107 
L 536.734411 -146.238281 
L 536.940419 -145.042455 
L 537.168252 -143.846629 
L 537.419496 -142.650803 
L 537.695515 -141.454977 
L 537.997424 -140.25915 
L 538.326072 -139.063324 
L 538.682025 -137.867498 
L 539.06555 -136.671672 
L 539.476604 -135.475846 
L 539.914828 -134.28002 
L 540.379542 -133.084194 
L 540.869742 -131.888367 
L 541.384111 -130.692541 
L 541.921016 -129.496715 
L 542.478526 -128.300889 
L 543.054424 -127.105063 
L 543.646221 -125.909237 
L 544.251184 -124.713411 
L 544.86635 -123.517584 
L 545.488562 -122.321758 
L 546.114488 -121.125932 
L 546.740659 -119.930106 
L 547.363498 -118.73428 
L 547.979354 -117.538454 
L 548.584538 -116.342627 
L 549.175352 -115.146801 
L 549.748135 -113.950975 
L 550.299287 -112.755149 
L 550.825309 -111.559323 
L 551.322835 -110.363497 
L 551.788665 -109.167671 
L 552.219789 -107.971844 
L 552.613421 -106.776018 
L 552.967022 -105.580192 
L 553.27832 -104.384366 
L 553.545331 -103.18854 
L 553.766373 -101.992714 
L 553.940083 -100.796888 
L 554.065418 -99.601061 
L 554.141668 -98.405235 
L 554.168455 -97.209409 
L 554.145726 -96.013583 
L 554.073755 -94.817757 
L 553.953131 -93.621931 
L 553.784744 -92.426104 
L 553.569772 -91.230278 
L 553.309661 -90.034452 
L 553.006107 -88.838626 
L 552.661033 -87.6428 
L 552.276561 -86.446974 
L 551.85499 -85.251148 
L 551.398768 -84.055321 
L 550.910463 -82.859495 
L 550.392736 -81.663669 
L 549.848313 -80.467843 
L 549.279956 -79.272017 
L 548.690439 -78.076191 
L 548.08252 -76.880365 
L 547.458918 -75.684538 
L 546.822289 -74.488712 
L 546.175209 -73.292886 
L 545.52015 -72.09706 
L 544.859471 -70.901234 
L 544.195398 -69.705408 
L 543.530017 -68.509582 
L 542.865263 -67.313755 
L 542.202915 -66.117929 
L 541.544594 -64.922103 
L 540.891757 -63.726277 
L 540.245705 -62.530451 
L 539.607579 -61.334625 
L 538.978371 -60.138798 
L 538.358925 -58.942972 
L 537.74995 -57.747146 
L 537.152027 -56.55132 
L 536.56562 -55.355494 
L 535.991086 -54.159668 
L 535.428688 -52.963842 
L 534.878604 -51.768015 
L 534.340942 -50.572189 
z
" style="stroke: #2f2f2f"/>
    </defs>
    <g clip-path="url(#pe2f4adeb0e)">
     <use xlink:href="#mc0e9951739" x="0" y="288" style="fill: #423b63; stroke: #2f2f2f"/>
    </g>
   </g>
   <g id="line2d_33">
    <path d="M 357.650532 161.301325 
L 357.650532 131.186 
" clip-path="url(#pe2f4adeb0e)" style="fill: none; stroke: #2f2f2f; stroke-width: 1.5; stroke-linecap: round"/>
   </g>
   <g id="line2d_34">
    <path d="M 357.650532 157.275212 
L 357.650532 141.140195 
" clip-path="url(#pe2f4adeb0e)" style="fill: none; stroke: #2f2f2f; stroke-width: 4.5; stroke-linecap: round"/>
   </g>
   <g id="line2d_35">
    <path d="M 357.650532 153.371589 
" clip-path="url(#pe2f4adeb0e)" style="fill: none; stroke: #2f2f2f; stroke-width: 1.2; stroke-linecap: round"/>
    <g clip-path="url(#pe2f4adeb0e)">
     <use xlink:href="#m1b51b9ee81" x="357.650532" y="153.371589" style="fill: #ffffff; stroke: #ffffff; stroke-width: 0.9"/>
    </g>
   </g>
   <g id="line2d_36">
    <path d="M 439.533 197.059592 
L 439.533 103.605508 
" clip-path="url(#pe2f4adeb0e)" style="fill: none; stroke: #2f2f2f; stroke-width: 1.5; stroke-linecap: round"/>
   </g>
   <g id="line2d_37">
    <path d="M 439.533 173.621836 
L 439.533 136.646931 
" clip-path="url(#pe2f4adeb0e)" style="fill: none; stroke: #2f2f2f; stroke-width: 4.5; stroke-linecap: round"/>
   </g>
   <g id="line2d_38">
    <path d="M 439.533 159.809786 
" clip-path="url(#pe2f4adeb0e)" style="fill: none; stroke: #2f2f2f; stroke-width: 1.2; stroke-linecap: round"/>
    <g clip-path="url(#pe2f4adeb0e)">
     <use xlink:href="#m1b51b9ee81" x="439.533" y="159.809786" style="fill: #ffffff; stroke: #ffffff; stroke-width: 0.9"/>
    </g>
   </g>
   <g id="line2d_39">
    <path d="M 521.415468 210.029134 
L 521.415468 170.251522 
" clip-path="url(#pe2f4adeb0e)" style="fill: none; stroke: #2f2f2f; stroke-width: 1.5; stroke-linecap: round"/>
   </g>
   <g id="line2d_40">
    <path d="M 521.415468 196.31144 
L 521.415468 170.251522 
" clip-path="url(#pe2f4adeb0e)" style="fill: none; stroke: #2f2f2f; stroke-width: 4.5; stroke-linecap: round"/>
   </g>
   <g id="line2d_41">
    <path d="M 521.415468 184.577876 
" clip-path="url(#pe2f4adeb0e)" style="fill: none; stroke: #2f2f2f; stroke-width: 1.2; stroke-linecap: round"/>
    <g clip-path="url(#pe2f4adeb0e)">
     <use xlink:href="#m1b51b9ee81" x="521.415468" y="184.577876" style="fill: #ffffff; stroke: #ffffff; stroke-width: 0.9"/>
    </g>
   </g>
   <g id="line2d_42">
    <path d="M 357.650532 100.018241 
L 357.650532 92.064514 
L 439.533 92.064514 
L 439.533 100.018241 
" clip-path="url(#pe2f4adeb0e)" style="fill: none; stroke: #000000; stroke-linecap: round"/>
   </g>
   <g id="line2d_43">
    <path d="M 439.533 85.669174 
L 439.533 77.35672 
L 521.415468 77.35672 
L 521.415468 85.669174 
" clip-path="url(#pe2f4adeb0e)" style="fill: none; stroke: #000000; stroke-linecap: round"/>
   </g>
   <g id="line2d_44">
    <path d="M 357.650532 71.320108 
L 357.650532 62.648927 
L 521.415468 62.648927 
L 521.415468 71.320108 
" clip-path="url(#pe2f4adeb0e)" style="fill: none; stroke: #000000; stroke-linecap: round"/>
   </g>
   <g id="patch_8">
    <path d="M 313.434 238.804 
L 313.434 23.568 
" style="fill: none; stroke: #262626; stroke-linejoin: miter; stroke-linecap: square"/>
   </g>
   <g id="patch_9">
    <path d="M 565.632 238.804 
L 565.632 23.568 
" style="fill: none; stroke: #262626; stroke-linejoin: miter; stroke-linecap: square"/>
   </g>
   <g id="patch_10">
    <path d="M 313.434 238.804 
L 565.632 238.804 
" style="fill: none; stroke: #262626; stroke-linejoin: miter; stroke-linecap: square"/>
   </g>
   <g id="patch_11">
    <path d="M 313.434 23.568 
L 565.632 23.568 
" style="fill: none; stroke: #262626; stroke-linejoin: miter; stroke-linecap: square"/>
   </g>
   <g id="text_19">
    <!-- ns -->
    <g transform="translate(393.049266 90.068014) scale(0.096 -0.096)">
     <use xlink:href="#DejaVuSans-6e"/>
     <use xlink:href="#DejaVuSans-73" transform="translate(63.378906 0)"/>
    </g>
   </g>
   <g id="text_20">
    <!-- ns -->
    <g transform="translate(474.931734 75.36022) scale(0.096 -0.096)">
     <use xlink:href="#DejaVuSans-6e"/>
     <use xlink:href="#DejaVuSans-73" transform="translate(63.378906 0)"/>
    </g>
   </g>
   <g id="text_21">
    <!-- * -->
    <g transform="translate(437.133 60.652427) scale(0.096 -0.096)">
     <defs>
      <path id="DejaVuSans-2a" d="M 3009 3897 
L 1888 3291 
L 3009 2681 
L 2828 2375 
L 1778 3009 
L 1778 1831 
L 1422 1831 
L 1422 3009 
L 372 2375 
L 191 2681 
L 1313 3291 
L 191 3897 
L 372 4206 
L 1422 3572 
L 1422 4750 
L 1778 4750 
L 1778 3572 
L 2828 4206 
L 3009 3897 
z
" transform="scale(0.015625)"/>
     </defs>
     <use xlink:href="#DejaVuSans-2a"/>
    </g>
   </g>
   <g id="text_22">
    <!-- Speed -->
    <g style="fill: #262626" transform="translate(424.48425 17.568) scale(0.096 -0.096)">
     <defs>
      <path id="DejaVuSans-53" d="M 3425 4513 
L 3425 3897 
Q 3066 4069 2747 4153 
Q 2428 4238 2131 4238 
Q 1616 4238 1336 4038 
Q 1056 3838 1056 3469 
Q 1056 3159 1242 3001 
Q 1428 2844 1947 2747 
L 2328 2669 
Q 3034 2534 3370 2195 
Q 3706 1856 3706 1288 
Q 3706 609 3251 259 
Q 2797 -91 1919 -91 
Q 1588 -91 1214 -16 
Q 841 59 441 206 
L 441 856 
Q 825 641 1194 531 
Q 1563 422 1919 422 
Q 2459 422 2753 634 
Q 3047 847 3047 1241 
Q 3047 1584 2836 1778 
Q 2625 1972 2144 2069 
L 1759 2144 
Q 1053 2284 737 2584 
Q 422 2884 422 3419 
Q 422 4038 858 4394 
Q 1294 4750 2059 4750 
Q 2388 4750 2728 4690 
Q 3069 4631 3425 4513 
z
" transform="scale(0.015625)"/>
     </defs>
     <use xlink:href="#DejaVuSans-53"/>
     <use xlink:href="#DejaVuSans-70" transform="translate(63.476562 0)"/>
     <use xlink:href="#DejaVuSans-65" transform="translate(126.953125 0)"/>
     <use xlink:href="#DejaVuSans-65" transform="translate(188.476562 0)"/>
     <use xlink:href="#DejaVuSans-64" transform="translate(250 0)"/>
    </g>
   </g>
  </g>
  <g id="text_23">
   <!-- Average n200 probability tertile -->
   <g style="fill: #262626" transform="translate(196.3062 282.7242) scale(0.1152 -0.1152)">
    <defs>
     <path id="DejaVuSans-76" d="M 191 3500 
L 800 3500 
L 1894 563 
L 2988 3500 
L 3597 3500 
L 2284 0 
L 1503 0 
L 191 3500 
z
" transform="scale(0.015625)"/>
     <path id="DejaVuSans-32" d="M 1228 531 
L 3431 531 
L 3431 0 
L 469 0 
L 469 531 
Q 828 903 1448 1529 
Q 2069 2156 2228 2338 
Q 2531 2678 2651 2914 
Q 2772 3150 2772 3378 
Q 2772 3750 2511 3984 
Q 2250 4219 1831 4219 
Q 1534 4219 1204 4116 
Q 875 4013 500 3803 
L 500 4441 
Q 881 4594 1212 4672 
Q 1544 4750 1819 4750 
Q 2544 4750 2975 4387 
Q 3406 4025 3406 3419 
Q 3406 3131 3298 2873 
Q 3191 2616 2906 2266 
Q 2828 2175 2409 1742 
Q 1991 1309 1228 531 
z
" transform="scale(0.015625)"/>
    </defs>
    <use xlink:href="#DejaVuSans-41"/>
    <use xlink:href="#DejaVuSans-76" transform="translate(62.533203 0)"/>
    <use xlink:href="#DejaVuSans-65" transform="translate(121.712891 0)"/>
    <use xlink:href="#DejaVuSans-72" transform="translate(183.236328 0)"/>
    <use xlink:href="#DejaVuSans-61" transform="translate(224.349609 0)"/>
    <use xlink:href="#DejaVuSans-67" transform="translate(285.628906 0)"/>
    <use xlink:href="#DejaVuSans-65" transform="translate(349.105469 0)"/>
    <use xlink:href="#DejaVuSans-20" transform="translate(410.628906 0)"/>
    <use xlink:href="#DejaVuSans-6e" transform="translate(442.416016 0)"/>
    <use xlink:href="#DejaVuSans-32" transform="translate(505.794922 0)"/>
    <use xlink:href="#DejaVuSans-30" transform="translate(569.417969 0)"/>
    <use xlink:href="#DejaVuSans-30" transform="translate(633.041016 0)"/>
    <use xlink:href="#DejaVuSans-20" transform="translate(696.664062 0)"/>
    <use xlink:href="#DejaVuSans-70" transform="translate(728.451172 0)"/>
    <use xlink:href="#DejaVuSans-72" transform="translate(791.927734 0)"/>
    <use xlink:href="#DejaVuSans-6f" transform="translate(830.791016 0)"/>
    <use xlink:href="#DejaVuSans-62" transform="translate(891.972656 0)"/>
    <use xlink:href="#DejaVuSans-61" transform="translate(955.449219 0)"/>
    <use xlink:href="#DejaVuSans-62" transform="translate(1016.728516 0)"/>
    <use xlink:href="#DejaVuSans-69" transform="translate(1080.205078 0)"/>
    <use xlink:href="#DejaVuSans-6c" transform="translate(1107.988281 0)"/>
    <use xlink:href="#DejaVuSans-69" transform="translate(1135.771484 0)"/>
    <use xlink:href="#DejaVuSans-74" transform="translate(1163.554688 0)"/>
    <use xlink:href="#DejaVuSans-79" transform="translate(1202.763672 0)"/>
    <use xlink:href="#DejaVuSans-20" transform="translate(1261.943359 0)"/>
    <use xlink:href="#DejaVuSans-74" transform="translate(1293.730469 0)"/>
    <use xlink:href="#DejaVuSans-65" transform="translate(1332.939453 0)"/>
    <use xlink:href="#DejaVuSans-72" transform="translate(1394.462891 0)"/>
    <use xlink:href="#DejaVuSans-74" transform="translate(1435.576172 0)"/>
    <use xlink:href="#DejaVuSans-69" transform="translate(1474.785156 0)"/>
    <use xlink:href="#DejaVuSans-6c" transform="translate(1502.568359 0)"/>
    <use xlink:href="#DejaVuSans-65" transform="translate(1530.351562 0)"/>
   </g>
  </g>
 </g>
 <defs>
  <clipPath id="p5d69184413">
   <rect x="46.068" y="23.568" width="252.198" height="215.236"/>
  </clipPath>
  <clipPath id="pe2f4adeb0e">
   <rect x="313.434" y="23.568" width="252.198" height="215.236"/>
  </clipPath>
 </defs>
</svg>
