<?xml version="1.0" encoding="utf-8" standalone="no"?>
<!DOCTYPE svg PUBLIC "-//W3C//DTD SVG 1.1//EN"
  "http://www.w3.org/Graphics/SVG/1.1/DTD/svg11.dtd">
<svg xmlns:xlink="http://www.w3.org/1999/xlink" width="576pt" height="288pt" viewBox="0 0 576 288" xmlns="http://www.w3.org/2000/svg" version="1.1">
 <metadata>
  <rdf:RDF xmlns:dc="http://purl.org/dc/elements/1.1/" xmlns:cc="http://creativecommons.org/ns#" xmlns:rdf="http://www.w3.org/1999/02/22-rdf-syntax-ns#">
   <cc:Work>
    <dc:type rdf:resource="http://purl.org/dc/dcmitype/StillImage"/>
    <dc:date>2025-01-09T10:56:07.286577</dc:date>
    <dc:format>image/svg+xml</dc:format>
    <dc:creator>
     <cc:Agent>
      <dc:title>Matplotlib v3.9.2, https://matplotlib.org/</dc:title>
     </cc:Agent>
    </dc:creator>
   </cc:Work>
  </rdf:RDF>
 </metadata>
 <defs>
  <style type="text/css">*{stroke-linejoin: round; stroke-linecap: butt}</style>
 </defs>
 <g id="figure_1">
  <g id="patch_1">
   <path d="M 0 288 
L 576 288 
L 576 0 
L 0 0 
L 0 288 
z
" style="fill: none"/>
  </g>
  <g id="axes_1">
   <g id="patch_2">
    <path d="M 46.068 238.804 
L 298.266 238.804 
L 298.266 23.568 
L 46.068 23.568 
L 46.068 238.804 
z
" style="fill: none"/>
   </g>
   <g id="matplotlib.axis_1">
    <g id="xtick_1">
     <g id="line2d_1">
      <defs>
       <path id="m8b52b42739" d="M 0 0 
L 0 4.8 
" style="stroke: #262626"/>
      </defs>
      <g>
       <use xlink:href="#m8b52b42739" x="90.284532" y="238.804" style="fill: #262626; stroke: #262626"/>
      </g>
     </g>
     <g id="text_1">
      <!-- Low -->
      <g style="fill: #262626" transform="translate(81.619282 253.790625) scale(0.088 -0.088)">
       <defs>
        <path id="DejaVuSans-4c" d="M 628 4666 
L 1259 4666 
L 1259 531 
L 3531 531 
L 3531 0 
L 628 0 
L 628 4666 
z
" transform="scale(0.015625)"/>
        <path id="DejaVuSans-6f" d="M 1959 3097 
Q 1497 3097 1228 2736 
Q 959 2375 959 1747 
Q 959 1119 1226 758 
Q 1494 397 1959 397 
Q 2419 397 2687 759 
Q 2956 1122 2956 1747 
Q 2956 2369 2687 2733 
Q 2419 3097 1959 3097 
z
M 1959 3584 
Q 2709 3584 3137 3096 
Q 3566 2609 3566 1747 
Q 3566 888 3137 398 
Q 2709 -91 1959 -91 
Q 1206 -91 779 398 
Q 353 888 353 1747 
Q 353 2609 779 3096 
Q 1206 3584 1959 3584 
z
" transform="scale(0.015625)"/>
        <path id="DejaVuSans-77" d="M 269 3500 
L 844 3500 
L 1563 769 
L 2278 3500 
L 2956 3500 
L 3675 769 
L 4391 3500 
L 4966 3500 
L 4050 0 
L 3372 0 
L 2619 2869 
L 1863 0 
L 1184 0 
L 269 3500 
z
" transform="scale(0.015625)"/>
       </defs>
       <use xlink:href="#DejaVuSans-4c"/>
       <use xlink:href="#DejaVuSans-6f" x="53.962891"/>
       <use xlink:href="#DejaVuSans-77" x="115.144531"/>
      </g>
     </g>
    </g>
    <g id="xtick_2">
     <g id="line2d_2">
      <g>
       <use xlink:href="#m8b52b42739" x="172.167" y="238.804" style="fill: #262626; stroke: #262626"/>
      </g>
     </g>
     <g id="text_2">
      <!-- Medium -->
      <g style="fill: #262626" transform="translate(154.573187 253.790625) scale(0.088 -0.088)">
       <defs>
        <path id="DejaVuSans-4d" d="M 628 4666 
L 1569 4666 
L 2759 1491 
L 3956 4666 
L 4897 4666 
L 4897 0 
L 4281 0 
L 4281 4097 
L 3078 897 
L 2444 897 
L 1241 4097 
L 1241 0 
L 628 0 
L 628 4666 
z
" transform="scale(0.015625)"/>
        <path id="DejaVuSans-65" d="M 3597 1894 
L 3597 1613 
L 953 1613 
Q 991 1019 1311 708 
Q 1631 397 2203 397 
Q 2534 397 2845 478 
Q 3156 559 3463 722 
L 3463 178 
Q 3153 47 2828 -22 
Q 2503 -91 2169 -91 
Q 1331 -91 842 396 
Q 353 884 353 1716 
Q 353 2575 817 3079 
Q 1281 3584 2069 3584 
Q 2775 3584 3186 3129 
Q 3597 2675 3597 1894 
z
M 3022 2063 
Q 3016 2534 2758 2815 
Q 2500 3097 2075 3097 
Q 1594 3097 1305 2825 
Q 1016 2553 972 2059 
L 3022 2063 
z
" transform="scale(0.015625)"/>
        <path id="DejaVuSans-64" d="M 2906 2969 
L 2906 4863 
L 3481 4863 
L 3481 0 
L 2906 0 
L 2906 525 
Q 2725 213 2448 61 
Q 2172 -91 1784 -91 
Q 1150 -91 751 415 
Q 353 922 353 1747 
Q 353 2572 751 3078 
Q 1150 3584 1784 3584 
Q 2172 3584 2448 3432 
Q 2725 3281 2906 2969 
z
M 947 1747 
Q 947 1113 1208 752 
Q 1469 391 1925 391 
Q 2381 391 2643 752 
Q 2906 1113 2906 1747 
Q 2906 2381 2643 2742 
Q 2381 3103 1925 3103 
Q 1469 3103 1208 2742 
Q 947 2381 947 1747 
z
" transform="scale(0.015625)"/>
        <path id="DejaVuSans-69" d="M 603 3500 
L 1178 3500 
L 1178 0 
L 603 0 
L 603 3500 
z
M 603 4863 
L 1178 4863 
L 1178 4134 
L 603 4134 
L 603 4863 
z
" transform="scale(0.015625)"/>
        <path id="DejaVuSans-75" d="M 544 1381 
L 544 3500 
L 1119 3500 
L 1119 1403 
Q 1119 906 1312 657 
Q 1506 409 1894 409 
Q 2359 409 2629 706 
Q 2900 1003 2900 1516 
L 2900 3500 
L 3475 3500 
L 3475 0 
L 2900 0 
L 2900 538 
Q 2691 219 2414 64 
Q 2138 -91 1772 -91 
Q 1169 -91 856 284 
Q 544 659 544 1381 
z
M 1991 3584 
L 1991 3584 
z
" transform="scale(0.015625)"/>
        <path id="DejaVuSans-6d" d="M 3328 2828 
Q 3544 3216 3844 3400 
Q 4144 3584 4550 3584 
Q 5097 3584 5394 3201 
Q 5691 2819 5691 2113 
L 5691 0 
L 5113 0 
L 5113 2094 
Q 5113 2597 4934 2840 
Q 4756 3084 4391 3084 
Q 3944 3084 3684 2787 
Q 3425 2491 3425 1978 
L 3425 0 
L 2847 0 
L 2847 2094 
Q 2847 2600 2669 2842 
Q 2491 3084 2119 3084 
Q 1678 3084 1418 2786 
Q 1159 2488 1159 1978 
L 1159 0 
L 581 0 
L 581 3500 
L 1159 3500 
L 1159 2956 
Q 1356 3278 1631 3431 
Q 1906 3584 2284 3584 
Q 2666 3584 2933 3390 
Q 3200 3197 3328 2828 
z
" transform="scale(0.015625)"/>
       </defs>
       <use xlink:href="#DejaVuSans-4d"/>
       <use xlink:href="#DejaVuSans-65" x="86.279297"/>
       <use xlink:href="#DejaVuSans-64" x="147.802734"/>
       <use xlink:href="#DejaVuSans-69" x="211.279297"/>
       <use xlink:href="#DejaVuSans-75" x="239.0625"/>
       <use xlink:href="#DejaVuSans-6d" x="302.441406"/>
      </g>
     </g>
    </g>
    <g id="xtick_3">
     <g id="line2d_3">
      <g>
       <use xlink:href="#m8b52b42739" x="254.049468" y="238.804" style="fill: #262626; stroke: #262626"/>
      </g>
     </g>
     <g id="text_3">
      <!-- High -->
      <g style="fill: #262626" transform="translate(243.936343 253.790625) scale(0.088 -0.088)">
       <defs>
        <path id="DejaVuSans-48" d="M 628 4666 
L 1259 4666 
L 1259 2753 
L 3553 2753 
L 3553 4666 
L 4184 4666 
L 4184 0 
L 3553 0 
L 3553 2222 
L 1259 2222 
L 1259 0 
L 628 0 
L 628 4666 
z
" transform="scale(0.015625)"/>
        <path id="DejaVuSans-67" d="M 2906 1791 
Q 2906 2416 2648 2759 
Q 2391 3103 1925 3103 
Q 1463 3103 1205 2759 
Q 947 2416 947 1791 
Q 947 1169 1205 825 
Q 1463 481 1925 481 
Q 2391 481 2648 825 
Q 2906 1169 2906 1791 
z
M 3481 434 
Q 3481 -459 3084 -895 
Q 2688 -1331 1869 -1331 
Q 1566 -1331 1297 -1286 
Q 1028 -1241 775 -1147 
L 775 -588 
Q 1028 -725 1275 -790 
Q 1522 -856 1778 -856 
Q 2344 -856 2625 -561 
Q 2906 -266 2906 331 
L 2906 616 
Q 2728 306 2450 153 
Q 2172 0 1784 0 
Q 1141 0 747 490 
Q 353 981 353 1791 
Q 353 2603 747 3093 
Q 1141 3584 1784 3584 
Q 2172 3584 2450 3431 
Q 2728 3278 2906 2969 
L 2906 3500 
L 3481 3500 
L 3481 434 
z
" transform="scale(0.015625)"/>
        <path id="DejaVuSans-68" d="M 3513 2113 
L 3513 0 
L 2938 0 
L 2938 2094 
Q 2938 2591 2744 2837 
Q 2550 3084 2163 3084 
Q 1697 3084 1428 2787 
Q 1159 2491 1159 1978 
L 1159 0 
L 581 0 
L 581 4863 
L 1159 4863 
L 1159 2956 
Q 1366 3272 1645 3428 
Q 1925 3584 2291 3584 
Q 2894 3584 3203 3211 
Q 3513 2838 3513 2113 
z
" transform="scale(0.015625)"/>
       </defs>
       <use xlink:href="#DejaVuSans-48"/>
       <use xlink:href="#DejaVuSans-69" x="75.195312"/>
       <use xlink:href="#DejaVuSans-67" x="102.978516"/>
       <use xlink:href="#DejaVuSans-68" x="166.455078"/>
      </g>
     </g>
    </g>
   </g>
   <g id="matplotlib.axis_2">
    <g id="ytick_1">
     <g id="line2d_4">
      <defs>
       <path id="m3f6de86993" d="M 0 0 
L -4.8 0 
" style="stroke: #262626"/>
      </defs>
      <g>
       <use xlink:href="#m3f6de86993" x="46.068" y="238.804" style="fill: #262626; stroke: #262626"/>
      </g>
     </g>
     <g id="text_4">
      <!-- 0.5 -->
      <g style="fill: #262626" transform="translate(23.77325 242.147312) scale(0.088 -0.088)">
       <defs>
        <path id="DejaVuSans-30" d="M 2034 4250 
Q 1547 4250 1301 3770 
Q 1056 3291 1056 2328 
Q 1056 1369 1301 889 
Q 1547 409 2034 409 
Q 2525 409 2770 889 
Q 3016 1369 3016 2328 
Q 3016 3291 2770 3770 
Q 2525 4250 2034 4250 
z
M 2034 4750 
Q 2819 4750 3233 4129 
Q 3647 3509 3647 2328 
Q 3647 1150 3233 529 
Q 2819 -91 2034 -91 
Q 1250 -91 836 529 
Q 422 1150 422 2328 
Q 422 3509 836 4129 
Q 1250 4750 2034 4750 
z
" transform="scale(0.015625)"/>
        <path id="DejaVuSans-2e" d="M 684 794 
L 1344 794 
L 1344 0 
L 684 0 
L 684 794 
z
" transform="scale(0.015625)"/>
        <path id="DejaVuSans-35" d="M 691 4666 
L 3169 4666 
L 3169 4134 
L 1269 4134 
L 1269 2991 
Q 1406 3038 1543 3061 
Q 1681 3084 1819 3084 
Q 2600 3084 3056 2656 
Q 3513 2228 3513 1497 
Q 3513 744 3044 326 
Q 2575 -91 1722 -91 
Q 1428 -91 1123 -41 
Q 819 9 494 109 
L 494 744 
Q 775 591 1075 516 
Q 1375 441 1709 441 
Q 2250 441 2565 725 
Q 2881 1009 2881 1497 
Q 2881 1984 2565 2268 
Q 2250 2553 1709 2553 
Q 1456 2553 1204 2497 
Q 953 2441 691 2322 
L 691 4666 
z
" transform="scale(0.015625)"/>
       </defs>
       <use xlink:href="#DejaVuSans-30"/>
       <use xlink:href="#DejaVuSans-2e" x="63.623047"/>
       <use xlink:href="#DejaVuSans-35" x="95.410156"/>
      </g>
     </g>
    </g>
    <g id="ytick_2">
     <g id="line2d_5">
      <g>
       <use xlink:href="#m3f6de86993" x="46.068" y="202.931333" style="fill: #262626; stroke: #262626"/>
      </g>
     </g>
     <g id="text_5">
      <!-- 0.6 -->
      <g style="fill: #262626" transform="translate(23.77325 206.274646) scale(0.088 -0.088)">
       <defs>
        <path id="DejaVuSans-36" d="M 2113 2584 
Q 1688 2584 1439 2293 
Q 1191 2003 1191 1497 
Q 1191 994 1439 701 
Q 1688 409 2113 409 
Q 2538 409 2786 701 
Q 3034 994 3034 1497 
Q 3034 2003 2786 2293 
Q 2538 2584 2113 2584 
z
M 3366 4563 
L 3366 3988 
Q 3128 4100 2886 4159 
Q 2644 4219 2406 4219 
Q 1781 4219 1451 3797 
Q 1122 3375 1075 2522 
Q 1259 2794 1537 2939 
Q 1816 3084 2150 3084 
Q 2853 3084 3261 2657 
Q 3669 2231 3669 1497 
Q 3669 778 3244 343 
Q 2819 -91 2113 -91 
Q 1303 -91 875 529 
Q 447 1150 447 2328 
Q 447 3434 972 4092 
Q 1497 4750 2381 4750 
Q 2619 4750 2861 4703 
Q 3103 4656 3366 4563 
z
" transform="scale(0.015625)"/>
       </defs>
       <use xlink:href="#DejaVuSans-30"/>
       <use xlink:href="#DejaVuSans-2e" x="63.623047"/>
       <use xlink:href="#DejaVuSans-36" x="95.410156"/>
      </g>
     </g>
    </g>
    <g id="ytick_3">
     <g id="line2d_6">
      <g>
       <use xlink:href="#m3f6de86993" x="46.068" y="167.058667" style="fill: #262626; stroke: #262626"/>
      </g>
     </g>
     <g id="text_6">
      <!-- 0.7 -->
      <g style="fill: #262626" transform="translate(23.77325 170.401979) scale(0.088 -0.088)">
       <defs>
        <path id="DejaVuSans-37" d="M 525 4666 
L 3525 4666 
L 3525 4397 
L 1831 0 
L 1172 0 
L 2766 4134 
L 525 4134 
L 525 4666 
z
" transform="scale(0.015625)"/>
       </defs>
       <use xlink:href="#DejaVuSans-30"/>
       <use xlink:href="#DejaVuSans-2e" x="63.623047"/>
       <use xlink:href="#DejaVuSans-37" x="95.410156"/>
      </g>
     </g>
    </g>
    <g id="ytick_4">
     <g id="line2d_7">
      <g>
       <use xlink:href="#m3f6de86993" x="46.068" y="131.186" style="fill: #262626; stroke: #262626"/>
      </g>
     </g>
     <g id="text_7">
      <!-- 0.8 -->
      <g style="fill: #262626" transform="translate(23.77325 134.529312) scale(0.088 -0.088)">
       <defs>
        <path id="DejaVuSans-38" d="M 2034 2216 
Q 1584 2216 1326 1975 
Q 1069 1734 1069 1313 
Q 1069 891 1326 650 
Q 1584 409 2034 409 
Q 2484 409 2743 651 
Q 3003 894 3003 1313 
Q 3003 1734 2745 1975 
Q 2488 2216 2034 2216 
z
M 1403 2484 
Q 997 2584 770 2862 
Q 544 3141 544 3541 
Q 544 4100 942 4425 
Q 1341 4750 2034 4750 
Q 2731 4750 3128 4425 
Q 3525 4100 3525 3541 
Q 3525 3141 3298 2862 
Q 3072 2584 2669 2484 
Q 3125 2378 3379 2068 
Q 3634 1759 3634 1313 
Q 3634 634 3220 271 
Q 2806 -91 2034 -91 
Q 1263 -91 848 271 
Q 434 634 434 1313 
Q 434 1759 690 2068 
Q 947 2378 1403 2484 
z
M 1172 3481 
Q 1172 3119 1398 2916 
Q 1625 2713 2034 2713 
Q 2441 2713 2670 2916 
Q 2900 3119 2900 3481 
Q 2900 3844 2670 4047 
Q 2441 4250 2034 4250 
Q 1625 4250 1398 4047 
Q 1172 3844 1172 3481 
z
" transform="scale(0.015625)"/>
       </defs>
       <use xlink:href="#DejaVuSans-30"/>
       <use xlink:href="#DejaVuSans-2e" x="63.623047"/>
       <use xlink:href="#DejaVuSans-38" x="95.410156"/>
      </g>
     </g>
    </g>
    <g id="ytick_5">
     <g id="line2d_8">
      <g>
       <use xlink:href="#m3f6de86993" x="46.068" y="95.313333" style="fill: #262626; stroke: #262626"/>
      </g>
     </g>
     <g id="text_8">
      <!-- 0.9 -->
      <g style="fill: #262626" transform="translate(23.77325 98.656646) scale(0.088 -0.088)">
       <defs>
        <path id="DejaVuSans-39" d="M 703 97 
L 703 672 
Q 941 559 1184 500 
Q 1428 441 1663 441 
Q 2288 441 2617 861 
Q 2947 1281 2994 2138 
Q 2813 1869 2534 1725 
Q 2256 1581 1919 1581 
Q 1219 1581 811 2004 
Q 403 2428 403 3163 
Q 403 3881 828 4315 
Q 1253 4750 1959 4750 
Q 2769 4750 3195 4129 
Q 3622 3509 3622 2328 
Q 3622 1225 3098 567 
Q 2575 -91 1691 -91 
Q 1453 -91 1209 -44 
Q 966 3 703 97 
z
M 1959 2075 
Q 2384 2075 2632 2365 
Q 2881 2656 2881 3163 
Q 2881 3666 2632 3958 
Q 2384 4250 1959 4250 
Q 1534 4250 1286 3958 
Q 1038 3666 1038 3163 
Q 1038 2656 1286 2365 
Q 1534 2075 1959 2075 
z
" transform="scale(0.015625)"/>
       </defs>
       <use xlink:href="#DejaVuSans-30"/>
       <use xlink:href="#DejaVuSans-2e" x="63.623047"/>
       <use xlink:href="#DejaVuSans-39" x="95.410156"/>
      </g>
     </g>
    </g>
    <g id="ytick_6">
     <g id="line2d_9">
      <g>
       <use xlink:href="#m3f6de86993" x="46.068" y="59.440667" style="fill: #262626; stroke: #262626"/>
      </g>
     </g>
     <g id="text_9">
      <!-- 1.0 -->
      <g style="fill: #262626" transform="translate(23.77325 62.783979) scale(0.088 -0.088)">
       <defs>
        <path id="DejaVuSans-31" d="M 794 531 
L 1825 531 
L 1825 4091 
L 703 3866 
L 703 4441 
L 1819 4666 
L 2450 4666 
L 2450 531 
L 3481 531 
L 3481 0 
L 794 0 
L 794 531 
z
" transform="scale(0.015625)"/>
       </defs>
       <use xlink:href="#DejaVuSans-31"/>
       <use xlink:href="#DejaVuSans-2e" x="63.623047"/>
       <use xlink:href="#DejaVuSans-30" x="95.410156"/>
      </g>
     </g>
    </g>
    <g id="ytick_7">
     <g id="line2d_10">
      <g>
       <use xlink:href="#m3f6de86993" x="46.068" y="23.568" style="fill: #262626; stroke: #262626"/>
      </g>
     </g>
     <g id="text_10">
      <!-- 1.1 -->
      <g style="fill: #262626" transform="translate(23.77325 26.911313) scale(0.088 -0.088)">
       <use xlink:href="#DejaVuSans-31"/>
       <use xlink:href="#DejaVuSans-2e" x="63.623047"/>
       <use xlink:href="#DejaVuSans-31" x="95.410156"/>
      </g>
     </g>
    </g>
    <g id="text_11">
     <!-- Probability of correct response -->
     <g style="fill: #262626" transform="translate(17.77675 204.36575) rotate(-90) scale(0.096 -0.096)">
      <defs>
       <path id="DejaVuSans-50" d="M 1259 4147 
L 1259 2394 
L 2053 2394 
Q 2494 2394 2734 2622 
Q 2975 2850 2975 3272 
Q 2975 3691 2734 3919 
Q 2494 4147 2053 4147 
L 1259 4147 
z
M 628 4666 
L 2053 4666 
Q 2838 4666 3239 4311 
Q 3641 3956 3641 3272 
Q 3641 2581 3239 2228 
Q 2838 1875 2053 1875 
L 1259 1875 
L 1259 0 
L 628 0 
L 628 4666 
z
" transform="scale(0.015625)"/>
       <path id="DejaVuSans-72" d="M 2631 2963 
Q 2534 3019 2420 3045 
Q 2306 3072 2169 3072 
Q 1681 3072 1420 2755 
Q 1159 2438 1159 1844 
L 1159 0 
L 581 0 
L 581 3500 
L 1159 3500 
L 1159 2956 
Q 1341 3275 1631 3429 
Q 1922 3584 2338 3584 
Q 2397 3584 2469 3576 
Q 2541 3569 2628 3553 
L 2631 2963 
z
" transform="scale(0.015625)"/>
       <path id="DejaVuSans-62" d="M 3116 1747 
Q 3116 2381 2855 2742 
Q 2594 3103 2138 3103 
Q 1681 3103 1420 2742 
Q 1159 2381 1159 1747 
Q 1159 1113 1420 752 
Q 1681 391 2138 391 
Q 2594 391 2855 752 
Q 3116 1113 3116 1747 
z
M 1159 2969 
Q 1341 3281 1617 3432 
Q 1894 3584 2278 3584 
Q 2916 3584 3314 3078 
Q 3713 2572 3713 1747 
Q 3713 922 3314 415 
Q 2916 -91 2278 -91 
Q 1894 -91 1617 61 
Q 1341 213 1159 525 
L 1159 0 
L 581 0 
L 581 4863 
L 1159 4863 
L 1159 2969 
z
" transform="scale(0.015625)"/>
       <path id="DejaVuSans-61" d="M 2194 1759 
Q 1497 1759 1228 1600 
Q 959 1441 959 1056 
Q 959 750 1161 570 
Q 1363 391 1709 391 
Q 2188 391 2477 730 
Q 2766 1069 2766 1631 
L 2766 1759 
L 2194 1759 
z
M 3341 1997 
L 3341 0 
L 2766 0 
L 2766 531 
Q 2569 213 2275 61 
Q 1981 -91 1556 -91 
Q 1019 -91 701 211 
Q 384 513 384 1019 
Q 384 1609 779 1909 
Q 1175 2209 1959 2209 
L 2766 2209 
L 2766 2266 
Q 2766 2663 2505 2880 
Q 2244 3097 1772 3097 
Q 1472 3097 1187 3025 
Q 903 2953 641 2809 
L 641 3341 
Q 956 3463 1253 3523 
Q 1550 3584 1831 3584 
Q 2591 3584 2966 3190 
Q 3341 2797 3341 1997 
z
" transform="scale(0.015625)"/>
       <path id="DejaVuSans-6c" d="M 603 4863 
L 1178 4863 
L 1178 0 
L 603 0 
L 603 4863 
z
" transform="scale(0.015625)"/>
       <path id="DejaVuSans-74" d="M 1172 4494 
L 1172 3500 
L 2356 3500 
L 2356 3053 
L 1172 3053 
L 1172 1153 
Q 1172 725 1289 603 
Q 1406 481 1766 481 
L 2356 481 
L 2356 0 
L 1766 0 
Q 1100 0 847 248 
Q 594 497 594 1153 
L 594 3053 
L 172 3053 
L 172 3500 
L 594 3500 
L 594 4494 
L 1172 4494 
z
" transform="scale(0.015625)"/>
       <path id="DejaVuSans-79" d="M 2059 -325 
Q 1816 -950 1584 -1140 
Q 1353 -1331 966 -1331 
L 506 -1331 
L 506 -850 
L 844 -850 
Q 1081 -850 1212 -737 
Q 1344 -625 1503 -206 
L 1606 56 
L 191 3500 
L 800 3500 
L 1894 763 
L 2988 3500 
L 3597 3500 
L 2059 -325 
z
" transform="scale(0.015625)"/>
       <path id="DejaVuSans-20" transform="scale(0.015625)"/>
       <path id="DejaVuSans-66" d="M 2375 4863 
L 2375 4384 
L 1825 4384 
Q 1516 4384 1395 4259 
Q 1275 4134 1275 3809 
L 1275 3500 
L 2222 3500 
L 2222 3053 
L 1275 3053 
L 1275 0 
L 697 0 
L 697 3053 
L 147 3053 
L 147 3500 
L 697 3500 
L 697 3744 
Q 697 4328 969 4595 
Q 1241 4863 1831 4863 
L 2375 4863 
z
" transform="scale(0.015625)"/>
       <path id="DejaVuSans-63" d="M 3122 3366 
L 3122 2828 
Q 2878 2963 2633 3030 
Q 2388 3097 2138 3097 
Q 1578 3097 1268 2742 
Q 959 2388 959 1747 
Q 959 1106 1268 751 
Q 1578 397 2138 397 
Q 2388 397 2633 464 
Q 2878 531 3122 666 
L 3122 134 
Q 2881 22 2623 -34 
Q 2366 -91 2075 -91 
Q 1284 -91 818 406 
Q 353 903 353 1747 
Q 353 2603 823 3093 
Q 1294 3584 2113 3584 
Q 2378 3584 2631 3529 
Q 2884 3475 3122 3366 
z
" transform="scale(0.015625)"/>
       <path id="DejaVuSans-73" d="M 2834 3397 
L 2834 2853 
Q 2591 2978 2328 3040 
Q 2066 3103 1784 3103 
Q 1356 3103 1142 2972 
Q 928 2841 928 2578 
Q 928 2378 1081 2264 
Q 1234 2150 1697 2047 
L 1894 2003 
Q 2506 1872 2764 1633 
Q 3022 1394 3022 966 
Q 3022 478 2636 193 
Q 2250 -91 1575 -91 
Q 1294 -91 989 -36 
Q 684 19 347 128 
L 347 722 
Q 666 556 975 473 
Q 1284 391 1588 391 
Q 1994 391 2212 530 
Q 2431 669 2431 922 
Q 2431 1156 2273 1281 
Q 2116 1406 1581 1522 
L 1381 1569 
Q 847 1681 609 1914 
Q 372 2147 372 2553 
Q 372 3047 722 3315 
Q 1072 3584 1716 3584 
Q 2034 3584 2315 3537 
Q 2597 3491 2834 3397 
z
" transform="scale(0.015625)"/>
       <path id="DejaVuSans-70" d="M 1159 525 
L 1159 -1331 
L 581 -1331 
L 581 3500 
L 1159 3500 
L 1159 2969 
Q 1341 3281 1617 3432 
Q 1894 3584 2278 3584 
Q 2916 3584 3314 3078 
Q 3713 2572 3713 1747 
Q 3713 922 3314 415 
Q 2916 -91 2278 -91 
Q 1894 -91 1617 61 
Q 1341 213 1159 525 
z
M 3116 1747 
Q 3116 2381 2855 2742 
Q 2594 3103 2138 3103 
Q 1681 3103 1420 2742 
Q 1159 2381 1159 1747 
Q 1159 1113 1420 752 
Q 1681 391 2138 391 
Q 2594 391 2855 752 
Q 3116 1113 3116 1747 
z
" transform="scale(0.015625)"/>
       <path id="DejaVuSans-6e" d="M 3513 2113 
L 3513 0 
L 2938 0 
L 2938 2094 
Q 2938 2591 2744 2837 
Q 2550 3084 2163 3084 
Q 1697 3084 1428 2787 
Q 1159 2491 1159 1978 
L 1159 0 
L 581 0 
L 581 3500 
L 1159 3500 
L 1159 2956 
Q 1366 3272 1645 3428 
Q 1925 3584 2291 3584 
Q 2894 3584 3203 3211 
Q 3513 2838 3513 2113 
z
" transform="scale(0.015625)"/>
      </defs>
      <use xlink:href="#DejaVuSans-50"/>
      <use xlink:href="#DejaVuSans-72" x="58.552734"/>
      <use xlink:href="#DejaVuSans-6f" x="97.416016"/>
      <use xlink:href="#DejaVuSans-62" x="158.597656"/>
      <use xlink:href="#DejaVuSans-61" x="222.074219"/>
      <use xlink:href="#DejaVuSans-62" x="283.353516"/>
      <use xlink:href="#DejaVuSans-69" x="346.830078"/>
      <use xlink:href="#DejaVuSans-6c" x="374.613281"/>
      <use xlink:href="#DejaVuSans-69" x="402.396484"/>
      <use xlink:href="#DejaVuSans-74" x="430.179688"/>
      <use xlink:href="#DejaVuSans-79" x="469.388672"/>
      <use xlink:href="#DejaVuSans-20" x="528.568359"/>
      <use xlink:href="#DejaVuSans-6f" x="560.355469"/>
      <use xlink:href="#DejaVuSans-66" x="621.537109"/>
      <use xlink:href="#DejaVuSans-20" x="656.742188"/>
      <use xlink:href="#DejaVuSans-63" x="688.529297"/>
      <use xlink:href="#DejaVuSans-6f" x="743.509766"/>
      <use xlink:href="#DejaVuSans-72" x="804.691406"/>
      <use xlink:href="#DejaVuSans-72" x="844.054688"/>
      <use xlink:href="#DejaVuSans-65" x="882.917969"/>
      <use xlink:href="#DejaVuSans-63" x="944.441406"/>
      <use xlink:href="#DejaVuSans-74" x="999.421875"/>
      <use xlink:href="#DejaVuSans-20" x="1038.630859"/>
      <use xlink:href="#DejaVuSans-72" x="1070.417969"/>
      <use xlink:href="#DejaVuSans-65" x="1109.28125"/>
      <use xlink:href="#DejaVuSans-73" x="1170.804688"/>
      <use xlink:href="#DejaVuSans-70" x="1222.904297"/>
      <use xlink:href="#DejaVuSans-6f" x="1286.380859"/>
      <use xlink:href="#DejaVuSans-6e" x="1347.5625"/>
      <use xlink:href="#DejaVuSans-73" x="1410.941406"/>
      <use xlink:href="#DejaVuSans-65" x="1463.041016"/>
     </g>
    </g>
   </g>
   <g id="PolyCollection_1">
    <defs>
     <path id="m2c7246a155" d="M 98.383069 -135.131749 
L 82.185996 -135.131749 
L 82.018551 -135.710303 
L 81.850377 -136.288857 
L 81.680244 -136.867411 
L 81.506812 -137.445965 
L 81.328645 -138.024519 
L 81.14423 -138.603073 
L 80.951992 -139.181627 
L 80.750317 -139.76018 
L 80.537571 -140.338734 
L 80.312124 -140.917288 
L 80.072376 -141.495842 
L 79.816778 -142.074396 
L 79.54386 -142.65295 
L 79.252253 -143.231504 
L 78.940717 -143.810058 
L 78.608161 -144.388612 
L 78.253665 -144.967165 
L 77.876505 -145.545719 
L 77.476163 -146.124273 
L 77.05235 -146.702827 
L 76.605017 -147.281381 
L 76.134361 -147.859935 
L 75.640835 -148.438489 
L 75.125152 -149.017043 
L 74.58828 -149.595597 
L 74.03144 -150.17415 
L 73.456099 -150.752704 
L 72.863954 -151.331258 
L 72.25692 -151.909812 
L 71.63711 -152.488366 
L 71.006811 -153.06692 
L 70.36846 -153.645474 
L 69.724619 -154.224028 
L 69.077939 -154.802581 
L 68.431135 -155.381135 
L 67.786951 -155.959689 
L 67.148124 -156.538243 
L 66.517355 -157.116797 
L 65.897276 -157.695351 
L 65.290414 -158.273905 
L 64.699164 -158.852459 
L 64.125763 -159.431013 
L 63.572258 -160.009566 
L 63.04049 -160.58812 
L 62.532071 -161.166674 
L 62.048369 -161.745228 
L 61.590499 -162.323782 
L 61.159312 -162.902336 
L 60.755395 -163.48089 
L 60.379074 -164.059444 
L 60.030416 -164.637998 
L 59.709239 -165.216551 
L 59.415134 -165.795105 
L 59.147472 -166.373659 
L 58.905434 -166.952213 
L 58.688033 -167.530767 
L 58.49414 -168.109321 
L 58.322514 -168.687875 
L 58.171834 -169.266429 
L 58.04073 -169.844982 
L 57.927816 -170.423536 
L 57.831718 -171.00209 
L 57.751114 -171.580644 
L 57.684754 -172.159198 
L 57.631493 -172.737752 
L 57.590317 -173.316306 
L 57.560364 -173.89486 
L 57.540941 -174.473414 
L 57.531545 -175.051967 
L 57.53187 -175.630521 
L 57.541816 -176.209075 
L 57.561491 -176.787629 
L 57.591212 -177.366183 
L 57.6315 -177.944737 
L 57.683066 -178.523291 
L 57.746803 -179.101845 
L 57.823766 -179.680399 
L 57.915151 -180.258952 
L 58.022274 -180.837506 
L 58.146542 -181.41606 
L 58.289429 -181.994614 
L 58.452442 -182.573168 
L 58.637094 -183.151722 
L 58.844872 -183.730276 
L 59.077205 -184.30883 
L 59.335437 -184.887383 
L 59.620796 -185.465937 
L 59.934367 -186.044491 
L 60.277068 -186.623045 
L 60.649627 -187.201599 
L 61.052563 -187.780153 
L 61.48617 -188.358707 
L 61.950505 -188.937261 
L 62.445378 -189.515815 
L 62.970346 -190.094368 
L 63.524715 -190.672922 
L 64.107539 -191.251476 
L 64.717628 -191.83003 
L 65.353557 -192.408584 
L 115.215508 -192.408584 
L 115.215508 -192.408584 
L 115.851437 -191.83003 
L 116.461525 -191.251476 
L 117.044349 -190.672922 
L 117.598718 -190.094368 
L 118.123687 -189.515815 
L 118.61856 -188.937261 
L 119.082895 -188.358707 
L 119.516502 -187.780153 
L 119.919438 -187.201599 
L 120.291997 -186.623045 
L 120.634698 -186.044491 
L 120.948269 -185.465937 
L 121.233627 -184.887383 
L 121.49186 -184.30883 
L 121.724193 -183.730276 
L 121.93197 -183.151722 
L 122.116623 -182.573168 
L 122.279636 -181.994614 
L 122.422523 -181.41606 
L 122.546791 -180.837506 
L 122.653914 -180.258952 
L 122.745299 -179.680399 
L 122.822262 -179.101845 
L 122.885999 -178.523291 
L 122.937565 -177.944737 
L 122.977853 -177.366183 
L 123.007574 -176.787629 
L 123.027249 -176.209075 
L 123.037195 -175.630521 
L 123.037519 -175.051967 
L 123.028124 -174.473414 
L 123.008701 -173.89486 
L 122.978748 -173.316306 
L 122.937572 -172.737752 
L 122.884311 -172.159198 
L 122.817951 -171.580644 
L 122.737347 -171.00209 
L 122.641249 -170.423536 
L 122.528335 -169.844982 
L 122.397231 -169.266429 
L 122.246551 -168.687875 
L 122.074925 -168.109321 
L 121.881032 -167.530767 
L 121.663631 -166.952213 
L 121.421593 -166.373659 
L 121.153931 -165.795105 
L 120.859825 -165.216551 
L 120.538649 -164.637998 
L 120.189991 -164.059444 
L 119.81367 -163.48089 
L 119.409753 -162.902336 
L 118.978566 -162.323782 
L 118.520696 -161.745228 
L 118.036994 -161.166674 
L 117.528575 -160.58812 
L 116.996807 -160.009566 
L 116.443302 -159.431013 
L 115.869901 -158.852459 
L 115.278651 -158.273905 
L 114.671789 -157.695351 
L 114.05171 -157.116797 
L 113.420941 -156.538243 
L 112.782114 -155.959689 
L 112.13793 -155.381135 
L 111.491126 -154.802581 
L 110.844446 -154.224028 
L 110.200605 -153.645474 
L 109.562254 -153.06692 
L 108.931955 -152.488366 
L 108.312145 -151.909812 
L 107.705111 -151.331258 
L 107.112966 -150.752704 
L 106.537625 -150.17415 
L 105.980785 -149.595597 
L 105.443913 -149.017043 
L 104.92823 -148.438489 
L 104.434704 -147.859935 
L 103.964048 -147.281381 
L 103.516715 -146.702827 
L 103.092902 -146.124273 
L 102.69256 -145.545719 
L 102.3154 -144.967165 
L 101.960904 -144.388612 
L 101.628348 -143.810058 
L 101.316812 -143.231504 
L 101.025205 -142.65295 
L 100.752287 -142.074396 
L 100.496689 -141.495842 
L 100.256941 -140.917288 
L 100.031494 -140.338734 
L 99.818748 -139.76018 
L 99.617073 -139.181627 
L 99.424835 -138.603073 
L 99.24042 -138.024519 
L 99.062253 -137.445965 
L 98.888821 -136.867411 
L 98.718688 -136.288857 
L 98.550514 -135.710303 
L 98.383069 -135.131749 
z
" style="stroke: #2f2f2f"/>
    </defs>
    <g clip-path="url(#pe470fb590a)">
     <use xlink:href="#m2c7246a155" x="0" y="288" style="fill: #58b2a3; stroke: #2f2f2f"/>
    </g>
   </g>
   <g id="PolyCollection_2">
    <defs>
     <path id="m2704471279" d="M 194.029267 -149.038644 
L 150.304733 -149.038644 
L 149.88302 -149.599614 
L 149.471718 -150.160584 
L 149.071066 -150.721555 
L 148.681252 -151.282525 
L 148.30241 -151.843495 
L 147.934624 -152.404465 
L 147.577932 -152.965436 
L 147.232328 -153.526406 
L 146.897766 -154.087376 
L 146.574161 -154.648346 
L 146.261399 -155.209317 
L 145.959335 -155.770287 
L 145.667798 -156.331257 
L 145.386598 -156.892228 
L 145.115526 -157.453198 
L 144.85436 -158.014168 
L 144.602867 -158.575138 
L 144.360808 -159.136109 
L 144.127937 -159.697079 
L 143.904009 -160.258049 
L 143.688778 -160.81902 
L 143.482 -161.37999 
L 143.283433 -161.94096 
L 143.092843 -162.50193 
L 142.909997 -163.062901 
L 142.734671 -163.623871 
L 142.566645 -164.184841 
L 142.405702 -164.745812 
L 142.251634 -165.306782 
L 142.104232 -165.867752 
L 141.963294 -166.428722 
L 141.828616 -166.989693 
L 141.699997 -167.550663 
L 141.577234 -168.111633 
L 141.460122 -168.672604 
L 141.348454 -169.233574 
L 141.242019 -169.794544 
L 141.140599 -170.355514 
L 141.043975 -170.916485 
L 140.951918 -171.477455 
L 140.864196 -172.038425 
L 140.780572 -172.599396 
L 140.700804 -173.160366 
L 140.624647 -173.721336 
L 140.551855 -174.282306 
L 140.48218 -174.843277 
L 140.415378 -175.404247 
L 140.351211 -175.965217 
L 140.289447 -176.526187 
L 140.229866 -177.087158 
L 140.172262 -177.648128 
L 140.11645 -178.209098 
L 140.062264 -178.770069 
L 140.009569 -179.331039 
L 139.958256 -179.892009 
L 139.908254 -180.452979 
L 139.859529 -181.01395 
L 139.812093 -181.57492 
L 139.766002 -182.13589 
L 139.721363 -182.696861 
L 139.678336 -183.257831 
L 139.637138 -183.818801 
L 139.598043 -184.379771 
L 139.561387 -184.940742 
L 139.527565 -185.501712 
L 139.497034 -186.062682 
L 139.470315 -186.623653 
L 139.447987 -187.184623 
L 139.430688 -187.745593 
L 139.419114 -188.306563 
L 139.414013 -188.867534 
L 139.416183 -189.428504 
L 139.426467 -189.989474 
L 139.445747 -190.550445 
L 139.474936 -191.111415 
L 139.514977 -191.672385 
L 139.566829 -192.233355 
L 139.631463 -192.794326 
L 139.709853 -193.355296 
L 139.802966 -193.916266 
L 139.911753 -194.477236 
L 140.037142 -195.038207 
L 140.180026 -195.599177 
L 140.341256 -196.160147 
L 140.521629 -196.721118 
L 140.721882 -197.282088 
L 140.94268 -197.843058 
L 141.18461 -198.404028 
L 141.448174 -198.964999 
L 141.73378 -199.525969 
L 142.041736 -200.086939 
L 142.372244 -200.64791 
L 142.725398 -201.20888 
L 143.101177 -201.76985 
L 143.499445 -202.33082 
L 143.919945 -202.891791 
L 144.362304 -203.452761 
L 144.826029 -204.013731 
L 145.310512 -204.574702 
L 199.023488 -204.574702 
L 199.023488 -204.574702 
L 199.507971 -204.013731 
L 199.971696 -203.452761 
L 200.414055 -202.891791 
L 200.834555 -202.33082 
L 201.232823 -201.76985 
L 201.608602 -201.20888 
L 201.961756 -200.64791 
L 202.292264 -200.086939 
L 202.60022 -199.525969 
L 202.885826 -198.964999 
L 203.14939 -198.404028 
L 203.39132 -197.843058 
L 203.612118 -197.282088 
L 203.812371 -196.721118 
L 203.992744 -196.160147 
L 204.153974 -195.599177 
L 204.296858 -195.038207 
L 204.422247 -194.477236 
L 204.531034 -193.916266 
L 204.624147 -193.355296 
L 204.702537 -192.794326 
L 204.767171 -192.233355 
L 204.819023 -191.672385 
L 204.859064 -191.111415 
L 204.888253 -190.550445 
L 204.907533 -189.989474 
L 204.917817 -189.428504 
L 204.919987 -188.867534 
L 204.914886 -188.306563 
L 204.903312 -187.745593 
L 204.886013 -187.184623 
L 204.863685 -186.623653 
L 204.836966 -186.062682 
L 204.806435 -185.501712 
L 204.772613 -184.940742 
L 204.735957 -184.379771 
L 204.696862 -183.818801 
L 204.655664 -183.257831 
L 204.612637 -182.696861 
L 204.567998 -182.13589 
L 204.521907 -181.57492 
L 204.474471 -181.01395 
L 204.425746 -180.452979 
L 204.375744 -179.892009 
L 204.324431 -179.331039 
L 204.271736 -178.770069 
L 204.21755 -178.209098 
L 204.161738 -177.648128 
L 204.104134 -177.087158 
L 204.044553 -176.526187 
L 203.982789 -175.965217 
L 203.918622 -175.404247 
L 203.85182 -174.843277 
L 203.782145 -174.282306 
L 203.709353 -173.721336 
L 203.633196 -173.160366 
L 203.553428 -172.599396 
L 203.469804 -172.038425 
L 203.382082 -171.477455 
L 203.290025 -170.916485 
L 203.193401 -170.355514 
L 203.091981 -169.794544 
L 202.985546 -169.233574 
L 202.873878 -168.672604 
L 202.756766 -168.111633 
L 202.634003 -167.550663 
L 202.505384 -166.989693 
L 202.370706 -166.428722 
L 202.229768 -165.867752 
L 202.082366 -165.306782 
L 201.928298 -164.745812 
L 201.767355 -164.184841 
L 201.599329 -163.623871 
L 201.424003 -163.062901 
L 201.241157 -162.50193 
L 201.050567 -161.94096 
L 200.852 -161.37999 
L 200.645222 -160.81902 
L 200.429991 -160.258049 
L 200.206063 -159.697079 
L 199.973192 -159.136109 
L 199.731133 -158.575138 
L 199.47964 -158.014168 
L 199.218474 -157.453198 
L 198.947402 -156.892228 
L 198.666202 -156.331257 
L 198.374665 -155.770287 
L 198.072601 -155.209317 
L 197.759839 -154.648346 
L 197.436234 -154.087376 
L 197.101672 -153.526406 
L 196.756068 -152.965436 
L 196.399376 -152.404465 
L 196.03159 -151.843495 
L 195.652748 -151.282525 
L 195.262934 -150.721555 
L 194.862282 -150.160584 
L 194.45098 -149.599614 
L 194.029267 -149.038644 
z
" style="stroke: #2f2f2f"/>
    </defs>
    <g clip-path="url(#pe470fb590a)">
     <use xlink:href="#m2704471279" x="0" y="288" style="fill: #437695; stroke: #2f2f2f"/>
    </g>
   </g>
   <g id="PolyCollection_3">
    <defs>
     <path id="m841192ed2f" d="M 272.2102 -151.878203 
L 235.888735 -151.878203 
L 235.520079 -152.452625 
L 235.170789 -153.027046 
L 234.841027 -153.601468 
L 234.530727 -154.17589 
L 234.239597 -154.750311 
L 233.967118 -155.324733 
L 233.712544 -155.899154 
L 233.474912 -156.473576 
L 233.25305 -157.047998 
L 233.04559 -157.622419 
L 232.85098 -158.196841 
L 232.667507 -158.771262 
L 232.493316 -159.345684 
L 232.326433 -159.920106 
L 232.164789 -160.494527 
L 232.006254 -161.068949 
L 231.848658 -161.64337 
L 231.689828 -162.217792 
L 231.527614 -162.792214 
L 231.359926 -163.366635 
L 231.184761 -163.941057 
L 231.000237 -164.515478 
L 230.804622 -165.0899 
L 230.596362 -165.664322 
L 230.374111 -166.238743 
L 230.136753 -166.813165 
L 229.883425 -167.387586 
L 229.613537 -167.962008 
L 229.32679 -168.53643 
L 229.023182 -169.110851 
L 228.703024 -169.685273 
L 228.366942 -170.259694 
L 228.015874 -170.834116 
L 227.651074 -171.408538 
L 227.274095 -171.982959 
L 226.886786 -172.557381 
L 226.49127 -173.131802 
L 226.089923 -173.706224 
L 225.685356 -174.280646 
L 225.280385 -174.855067 
L 224.877996 -175.429489 
L 224.481322 -176.00391 
L 224.093599 -176.578332 
L 223.718134 -177.152754 
L 223.358262 -177.727175 
L 223.017314 -178.301597 
L 222.69857 -178.876018 
L 222.405228 -179.45044 
L 222.140357 -180.024862 
L 221.906866 -180.599283 
L 221.707469 -181.173705 
L 221.544651 -181.748126 
L 221.420637 -182.322548 
L 221.337369 -182.89697 
L 221.296481 -183.471391 
L 221.299279 -184.045813 
L 221.346732 -184.620235 
L 221.439455 -185.194656 
L 221.577708 -185.769078 
L 221.761393 -186.343499 
L 221.990059 -186.917921 
L 222.262908 -187.492343 
L 222.57881 -188.066764 
L 222.936315 -188.641186 
L 223.333681 -189.215607 
L 223.768889 -189.790029 
L 224.239674 -190.364451 
L 224.743557 -190.938872 
L 225.277871 -191.513294 
L 225.839798 -192.087715 
L 226.426401 -192.662137 
L 227.034662 -193.236559 
L 227.661512 -193.81098 
L 228.303871 -194.385402 
L 228.958677 -194.959823 
L 229.622921 -195.534245 
L 230.293676 -196.108667 
L 230.968125 -196.683088 
L 231.643584 -197.25751 
L 232.31753 -197.831931 
L 232.987613 -198.406353 
L 233.651679 -198.980775 
L 234.307774 -199.555196 
L 234.954163 -200.129618 
L 235.589325 -200.704039 
L 236.211963 -201.278461 
L 236.820998 -201.852883 
L 237.415567 -202.427304 
L 237.995014 -203.001726 
L 238.558882 -203.576147 
L 239.106898 -204.150569 
L 239.638961 -204.724991 
L 240.155127 -205.299412 
L 240.65559 -205.873834 
L 241.140662 -206.448255 
L 241.610761 -207.022677 
L 242.066387 -207.597099 
L 242.508104 -208.17152 
L 242.936525 -208.745942 
L 265.16241 -208.745942 
L 265.16241 -208.745942 
L 265.590831 -208.17152 
L 266.032548 -207.597099 
L 266.488174 -207.022677 
L 266.958273 -206.448255 
L 267.443345 -205.873834 
L 267.943808 -205.299412 
L 268.459974 -204.724991 
L 268.992037 -204.150569 
L 269.540053 -203.576147 
L 270.103921 -203.001726 
L 270.683368 -202.427304 
L 271.277937 -201.852883 
L 271.886972 -201.278461 
L 272.50961 -200.704039 
L 273.144772 -200.129618 
L 273.791161 -199.555196 
L 274.447256 -198.980775 
L 275.111322 -198.406353 
L 275.781405 -197.831931 
L 276.455351 -197.25751 
L 277.13081 -196.683088 
L 277.805259 -196.108667 
L 278.476014 -195.534245 
L 279.140258 -194.959823 
L 279.795065 -194.385402 
L 280.437423 -193.81098 
L 281.064273 -193.236559 
L 281.672534 -192.662137 
L 282.259137 -192.087715 
L 282.821064 -191.513294 
L 283.355378 -190.938872 
L 283.859261 -190.364451 
L 284.330046 -189.790029 
L 284.765254 -189.215607 
L 285.16262 -188.641186 
L 285.520125 -188.066764 
L 285.836027 -187.492343 
L 286.108876 -186.917921 
L 286.337542 -186.343499 
L 286.521227 -185.769078 
L 286.65948 -185.194656 
L 286.752203 -184.620235 
L 286.799656 -184.045813 
L 286.802455 -183.471391 
L 286.761566 -182.89697 
L 286.678298 -182.322548 
L 286.554284 -181.748126 
L 286.391466 -181.173705 
L 286.192069 -180.599283 
L 285.958578 -180.024862 
L 285.693707 -179.45044 
L 285.400365 -178.876018 
L 285.081621 -178.301597 
L 284.740673 -177.727175 
L 284.380802 -177.152754 
L 284.005336 -176.578332 
L 283.617613 -176.00391 
L 283.220939 -175.429489 
L 282.81855 -174.855067 
L 282.413579 -174.280646 
L 282.009012 -173.706224 
L 281.607665 -173.131802 
L 281.212149 -172.557381 
L 280.82484 -171.982959 
L 280.447861 -171.408538 
L 280.083061 -170.834116 
L 279.731994 -170.259694 
L 279.395911 -169.685273 
L 279.075753 -169.110851 
L 278.772146 -168.53643 
L 278.485398 -167.962008 
L 278.21551 -167.387586 
L 277.962182 -166.813165 
L 277.724824 -166.238743 
L 277.502573 -165.664322 
L 277.294313 -165.0899 
L 277.098698 -164.515478 
L 276.914174 -163.941057 
L 276.739009 -163.366635 
L 276.571321 -162.792214 
L 276.409107 -162.217792 
L 276.250277 -161.64337 
L 276.092681 -161.068949 
L 275.934146 -160.494527 
L 275.772502 -159.920106 
L 275.605619 -159.345684 
L 275.431428 -158.771262 
L 275.247955 -158.196841 
L 275.053345 -157.622419 
L 274.845885 -157.047998 
L 274.624023 -156.473576 
L 274.386391 -155.899154 
L 274.131817 -155.324733 
L 273.859338 -154.750311 
L 273.568208 -154.17589 
L 273.257908 -153.601468 
L 272.928146 -153.027046 
L 272.578856 -152.452625 
L 272.2102 -151.878203 
z
" style="stroke: #2f2f2f"/>
    </defs>
    <g clip-path="url(#pe470fb590a)">
     <use xlink:href="#m841192ed2f" x="0" y="288" style="fill: #423b63; stroke: #2f2f2f"/>
    </g>
   </g>
   <g id="line2d_11">
    <path d="M 90.284532 152.868251 
L 90.284532 95.591416 
" clip-path="url(#pe470fb590a)" style="fill: none; stroke: #2f2f2f; stroke-width: 1.5; stroke-linecap: round"/>
   </g>
   <g id="line2d_12">
    <path d="M 90.284532 125.8051 
L 90.284532 101.032164 
" clip-path="url(#pe470fb590a)" style="fill: none; stroke: #2f2f2f; stroke-width: 4.5; stroke-linecap: round"/>
   </g>
   <g id="line2d_13">
    <path d="M 90.284532 116.872276 
" clip-path="url(#pe470fb590a)" style="fill: none; stroke: #2f2f2f; stroke-width: 1.2; stroke-linecap: round"/>
    <defs>
     <path id="m9f75afef9a" d="M 1.875 0 
L -1.875 -0 
" style="stroke: #ffffff; stroke-width: 0.9"/>
    </defs>
    <g clip-path="url(#pe470fb590a)">
     <use xlink:href="#m9f75afef9a" x="90.284532" y="116.872276" style="fill: #ffffff; stroke: #ffffff; stroke-width: 0.9"/>
    </g>
   </g>
   <g id="line2d_14">
    <path d="M 172.167 138.961356 
L 172.167 83.425298 
" clip-path="url(#pe470fb590a)" style="fill: none; stroke: #2f2f2f; stroke-width: 1.5; stroke-linecap: round"/>
   </g>
   <g id="line2d_15">
    <path d="M 172.167 120.73065 
L 172.167 89.026371 
" clip-path="url(#pe470fb590a)" style="fill: none; stroke: #2f2f2f; stroke-width: 4.5; stroke-linecap: round"/>
   </g>
   <g id="line2d_16">
    <path d="M 172.167 108.097741 
" clip-path="url(#pe470fb590a)" style="fill: none; stroke: #2f2f2f; stroke-width: 1.2; stroke-linecap: round"/>
    <g clip-path="url(#pe470fb590a)">
     <use xlink:href="#m9f75afef9a" x="172.167" y="108.097741" style="fill: #ffffff; stroke: #ffffff; stroke-width: 0.9"/>
    </g>
   </g>
   <g id="line2d_17">
    <path d="M 254.049468 136.121797 
L 254.049468 79.254058 
" clip-path="url(#pe470fb590a)" style="fill: none; stroke: #2f2f2f; stroke-width: 1.5; stroke-linecap: round"/>
   </g>
   <g id="line2d_18">
    <path d="M 254.049468 125.871531 
L 254.049468 100.226127 
" clip-path="url(#pe470fb590a)" style="fill: none; stroke: #2f2f2f; stroke-width: 4.5; stroke-linecap: round"/>
   </g>
   <g id="line2d_19">
    <path d="M 254.049468 107.917243 
" clip-path="url(#pe470fb590a)" style="fill: none; stroke: #2f2f2f; stroke-width: 1.2; stroke-linecap: round"/>
    <g clip-path="url(#pe470fb590a)">
     <use xlink:href="#m9f75afef9a" x="254.049468" y="107.917243" style="fill: #ffffff; stroke: #ffffff; stroke-width: 0.9"/>
    </g>
   </g>
   <g id="line2d_20">
    <path d="M 90.284532 75.666791 
L 90.284532 67.104278 
L 172.167 67.104278 
L 172.167 75.666791 
" clip-path="url(#pe470fb590a)" style="fill: none; stroke: #000000; stroke-linecap: round"/>
   </g>
   <g id="line2d_21">
    <path d="M 172.167 61.317725 
L 172.167 52.396485 
L 254.049468 52.396485 
L 254.049468 61.317725 
" clip-path="url(#pe470fb590a)" style="fill: none; stroke: #000000; stroke-linecap: round"/>
   </g>
   <g id="line2d_22">
    <path d="M 90.284532 46.968658 
L 90.284532 37.688691 
L 254.049468 37.688691 
L 254.049468 46.968658 
" clip-path="url(#pe470fb590a)" style="fill: none; stroke: #000000; stroke-linecap: round"/>
   </g>
   <g id="patch_3">
    <path d="M 46.068 238.804 
L 46.068 23.568 
" style="fill: none; stroke: #262626; stroke-linejoin: miter; stroke-linecap: square"/>
   </g>
   <g id="patch_4">
    <path d="M 298.266 238.804 
L 298.266 23.568 
" style="fill: none; stroke: #262626; stroke-linejoin: miter; stroke-linecap: square"/>
   </g>
   <g id="patch_5">
    <path d="M 46.068 238.804 
L 298.266 238.804 
" style="fill: none; stroke: #262626; stroke-linejoin: miter; stroke-linecap: square"/>
   </g>
   <g id="patch_6">
    <path d="M 46.068 23.568 
L 298.266 23.568 
" style="fill: none; stroke: #262626; stroke-linejoin: miter; stroke-linecap: square"/>
   </g>
   <g id="text_12">
    <!-- ns -->
    <g transform="translate(125.683266 65.107778) scale(0.096 -0.096)">
     <use xlink:href="#DejaVuSans-6e"/>
     <use xlink:href="#DejaVuSans-73" x="63.378906"/>
    </g>
   </g>
   <g id="text_13">
    <!-- ns -->
    <g transform="translate(207.565734 50.399985) scale(0.096 -0.096)">
     <use xlink:href="#DejaVuSans-6e"/>
     <use xlink:href="#DejaVuSans-73" x="63.378906"/>
    </g>
   </g>
   <g id="text_14">
    <!-- ns -->
    <g transform="translate(166.6245 35.692191) scale(0.096 -0.096)">
     <use xlink:href="#DejaVuSans-6e"/>
     <use xlink:href="#DejaVuSans-73" x="63.378906"/>
    </g>
   </g>
   <g id="text_15">
    <!-- Accuracy -->
    <g style="fill: #262626" transform="translate(150.252 17.568) scale(0.096 -0.096)">
     <defs>
      <path id="DejaVuSans-41" d="M 2188 4044 
L 1331 1722 
L 3047 1722 
L 2188 4044 
z
M 1831 4666 
L 2547 4666 
L 4325 0 
L 3669 0 
L 3244 1197 
L 1141 1197 
L 716 0 
L 50 0 
L 1831 4666 
z
" transform="scale(0.015625)"/>
     </defs>
     <use xlink:href="#DejaVuSans-41"/>
     <use xlink:href="#DejaVuSans-63" x="66.658203"/>
     <use xlink:href="#DejaVuSans-63" x="121.638672"/>
     <use xlink:href="#DejaVuSans-75" x="176.619141"/>
     <use xlink:href="#DejaVuSans-72" x="239.998047"/>
     <use xlink:href="#DejaVuSans-61" x="281.111328"/>
     <use xlink:href="#DejaVuSans-63" x="342.390625"/>
     <use xlink:href="#DejaVuSans-79" x="397.371094"/>
    </g>
   </g>
  </g>
  <g id="axes_2">
   <g id="patch_7">
    <path d="M 313.434 238.804 
L 565.632 238.804 
L 565.632 23.568 
L 313.434 23.568 
L 313.434 238.804 
z
" style="fill: none"/>
   </g>
   <g id="matplotlib.axis_3">
    <g id="xtick_4">
     <g id="line2d_23">
      <g>
       <use xlink:href="#m8b52b42739" x="357.650532" y="238.804" style="fill: #262626; stroke: #262626"/>
      </g>
     </g>
     <g id="text_16">
      <!-- Low -->
      <g style="fill: #262626" transform="translate(348.985282 253.790625) scale(0.088 -0.088)">
       <use xlink:href="#DejaVuSans-4c"/>
       <use xlink:href="#DejaVuSans-6f" x="53.962891"/>
       <use xlink:href="#DejaVuSans-77" x="115.144531"/>
      </g>
     </g>
    </g>
    <g id="xtick_5">
     <g id="line2d_24">
      <g>
       <use xlink:href="#m8b52b42739" x="439.533" y="238.804" style="fill: #262626; stroke: #262626"/>
      </g>
     </g>
     <g id="text_17">
      <!-- Medium -->
      <g style="fill: #262626" transform="translate(421.939188 253.790625) scale(0.088 -0.088)">
       <use xlink:href="#DejaVuSans-4d"/>
       <use xlink:href="#DejaVuSans-65" x="86.279297"/>
       <use xlink:href="#DejaVuSans-64" x="147.802734"/>
       <use xlink:href="#DejaVuSans-69" x="211.279297"/>
       <use xlink:href="#DejaVuSans-75" x="239.0625"/>
       <use xlink:href="#DejaVuSans-6d" x="302.441406"/>
      </g>
     </g>
    </g>
    <g id="xtick_6">
     <g id="line2d_25">
      <g>
       <use xlink:href="#m8b52b42739" x="521.415468" y="238.804" style="fill: #262626; stroke: #262626"/>
      </g>
     </g>
     <g id="text_18">
      <!-- High -->
      <g style="fill: #262626" transform="translate(511.302343 253.790625) scale(0.088 -0.088)">
       <use xlink:href="#DejaVuSans-48"/>
       <use xlink:href="#DejaVuSans-69" x="75.195312"/>
       <use xlink:href="#DejaVuSans-67" x="102.978516"/>
       <use xlink:href="#DejaVuSans-68" x="166.455078"/>
      </g>
     </g>
    </g>
   </g>
   <g id="matplotlib.axis_4">
    <g id="ytick_8">
     <g id="line2d_26">
      <g>
       <use xlink:href="#m3f6de86993" x="313.434" y="238.804" style="fill: #262626; stroke: #262626"/>
      </g>
     </g>
    </g>
    <g id="ytick_9">
     <g id="line2d_27">
      <g>
       <use xlink:href="#m3f6de86993" x="313.434" y="202.931333" style="fill: #262626; stroke: #262626"/>
      </g>
     </g>
    </g>
    <g id="ytick_10">
     <g id="line2d_28">
      <g>
       <use xlink:href="#m3f6de86993" x="313.434" y="167.058667" style="fill: #262626; stroke: #262626"/>
      </g>
     </g>
    </g>
    <g id="ytick_11">
     <g id="line2d_29">
      <g>
       <use xlink:href="#m3f6de86993" x="313.434" y="131.186" style="fill: #262626; stroke: #262626"/>
      </g>
     </g>
    </g>
    <g id="ytick_12">
     <g id="line2d_30">
      <g>
       <use xlink:href="#m3f6de86993" x="313.434" y="95.313333" style="fill: #262626; stroke: #262626"/>
      </g>
     </g>
    </g>
    <g id="ytick_13">
     <g id="line2d_31">
      <g>
       <use xlink:href="#m3f6de86993" x="313.434" y="59.440667" style="fill: #262626; stroke: #262626"/>
      </g>
     </g>
    </g>
    <g id="ytick_14">
     <g id="line2d_32">
      <g>
       <use xlink:href="#m3f6de86993" x="313.434" y="23.568" style="fill: #262626; stroke: #262626"/>
      </g>
     </g>
    </g>
   </g>
   <g id="PolyCollection_4">
    <defs>
     <path id="m9a95647fba" d="M 381.068782 -131.874816 
L 334.232283 -131.874816 
L 333.620789 -132.282816 
L 333.021905 -132.690817 
L 332.436998 -133.098817 
L 331.867386 -133.506817 
L 331.314336 -133.914817 
L 330.779051 -134.322818 
L 330.262672 -134.730818 
L 329.766265 -135.138818 
L 329.29082 -135.546818 
L 328.837246 -135.954819 
L 328.406366 -136.362819 
L 327.998916 -136.770819 
L 327.615537 -137.178819 
L 327.25678 -137.58682 
L 326.923095 -137.99482 
L 326.614839 -138.40282 
L 326.332269 -138.81082 
L 326.075545 -139.218821 
L 325.844731 -139.626821 
L 325.63979 -140.034821 
L 325.460596 -140.442821 
L 325.306926 -140.850822 
L 325.178469 -141.258822 
L 325.074825 -141.666822 
L 324.995511 -142.074822 
L 324.939965 -142.482823 
L 324.907546 -142.890823 
L 324.897545 -143.298823 
L 324.909184 -143.706823 
L 324.941624 -144.114824 
L 324.993969 -144.522824 
L 325.065272 -144.930824 
L 325.154543 -145.338824 
L 325.26075 -145.746825 
L 325.382827 -146.154825 
L 325.519683 -146.562825 
L 325.670204 -146.970825 
L 325.833259 -147.378826 
L 326.00771 -147.786826 
L 326.192413 -148.194826 
L 326.386227 -148.602826 
L 326.58802 -149.010827 
L 326.796672 -149.418827 
L 327.011082 -149.826827 
L 327.230176 -150.234827 
L 327.452906 -150.642828 
L 327.678261 -151.050828 
L 327.905269 -151.458828 
L 328.133001 -151.866828 
L 328.360575 -152.274829 
L 328.587164 -152.682829 
L 328.811994 -153.090829 
L 329.034352 -153.498829 
L 329.253583 -153.90683 
L 329.469103 -154.31483 
L 329.68039 -154.72283 
L 329.886995 -155.13083 
L 330.088538 -155.538831 
L 330.284714 -155.946831 
L 330.475289 -156.354831 
L 330.660106 -156.762831 
L 330.839081 -157.170832 
L 331.012208 -157.578832 
L 331.179552 -157.986832 
L 331.341255 -158.394832 
L 331.497528 -158.802833 
L 331.648657 -159.210833 
L 331.794995 -159.618833 
L 331.936961 -160.026833 
L 332.07504 -160.434834 
L 332.209775 -160.842834 
L 332.341767 -161.250834 
L 332.471672 -161.658834 
L 332.60019 -162.066835 
L 332.728068 -162.474835 
L 332.85609 -162.882835 
L 332.985073 -163.290835 
L 333.115859 -163.698836 
L 333.249313 -164.106836 
L 333.386311 -164.514836 
L 333.527739 -164.922836 
L 333.674479 -165.330837 
L 333.827409 -165.738837 
L 333.987392 -166.146837 
L 334.155268 -166.554838 
L 334.331849 -166.962838 
L 334.517912 -167.370838 
L 334.714188 -167.778838 
L 334.921359 -168.186839 
L 335.140053 -168.594839 
L 335.370832 -169.002839 
L 335.61419 -169.410839 
L 335.87055 -169.81884 
L 336.140253 -170.22684 
L 336.42356 -170.63484 
L 336.720646 -171.04284 
L 337.031596 -171.450841 
L 337.356406 -171.858841 
L 337.694978 -172.266841 
L 377.606087 -172.266841 
L 377.606087 -172.266841 
L 377.944659 -171.858841 
L 378.269469 -171.450841 
L 378.580419 -171.04284 
L 378.877505 -170.63484 
L 379.160812 -170.22684 
L 379.430515 -169.81884 
L 379.686875 -169.410839 
L 379.930233 -169.002839 
L 380.161012 -168.594839 
L 380.379706 -168.186839 
L 380.586877 -167.778838 
L 380.783153 -167.370838 
L 380.969216 -166.962838 
L 381.145797 -166.554838 
L 381.313673 -166.146837 
L 381.473656 -165.738837 
L 381.626586 -165.330837 
L 381.773326 -164.922836 
L 381.914753 -164.514836 
L 382.051752 -164.106836 
L 382.185206 -163.698836 
L 382.315992 -163.290835 
L 382.444975 -162.882835 
L 382.572997 -162.474835 
L 382.700875 -162.066835 
L 382.829393 -161.658834 
L 382.959298 -161.250834 
L 383.09129 -160.842834 
L 383.226025 -160.434834 
L 383.364104 -160.026833 
L 383.50607 -159.618833 
L 383.652408 -159.210833 
L 383.803537 -158.802833 
L 383.95981 -158.394832 
L 384.121513 -157.986832 
L 384.288857 -157.578832 
L 384.461984 -157.170832 
L 384.640959 -156.762831 
L 384.825776 -156.354831 
L 385.016351 -155.946831 
L 385.212526 -155.538831 
L 385.41407 -155.13083 
L 385.620675 -154.72283 
L 385.831962 -154.31483 
L 386.047481 -153.90683 
L 386.266713 -153.498829 
L 386.48907 -153.090829 
L 386.713901 -152.682829 
L 386.94049 -152.274829 
L 387.168064 -151.866828 
L 387.395796 -151.458828 
L 387.622804 -151.050828 
L 387.848159 -150.642828 
L 388.070889 -150.234827 
L 388.289983 -149.826827 
L 388.504393 -149.418827 
L 388.713045 -149.010827 
L 388.914838 -148.602826 
L 389.108652 -148.194826 
L 389.293355 -147.786826 
L 389.467805 -147.378826 
L 389.630861 -146.970825 
L 389.781381 -146.562825 
L 389.918238 -146.154825 
L 390.040315 -145.746825 
L 390.146522 -145.338824 
L 390.235793 -144.930824 
L 390.307096 -144.522824 
L 390.359441 -144.114824 
L 390.391881 -143.706823 
L 390.403519 -143.298823 
L 390.393518 -142.890823 
L 390.3611 -142.482823 
L 390.305554 -142.074822 
L 390.22624 -141.666822 
L 390.122596 -141.258822 
L 389.994139 -140.850822 
L 389.840469 -140.442821 
L 389.661275 -140.034821 
L 389.456334 -139.626821 
L 389.225519 -139.218821 
L 388.968796 -138.81082 
L 388.686226 -138.40282 
L 388.37797 -137.99482 
L 388.044285 -137.58682 
L 387.685527 -137.178819 
L 387.302149 -136.770819 
L 386.894699 -136.362819 
L 386.463819 -135.954819 
L 386.010245 -135.546818 
L 385.5348 -135.138818 
L 385.038393 -134.730818 
L 384.522014 -134.322818 
L 383.986729 -133.914817 
L 383.433679 -133.506817 
L 382.864067 -133.098817 
L 382.27916 -132.690817 
L 381.680276 -132.282816 
L 381.068782 -131.874816 
z
" style="stroke: #2f2f2f"/>
    </defs>
    <g clip-path="url(#p586de7968e)">
     <use xlink:href="#m9a95647fba" x="0" y="288" style="fill: #58b2a3; stroke: #2f2f2f"/>
    </g>
   </g>
   <g id="PolyCollection_5">
    <defs>
     <path id="m86f281da64" d="M 459.837604 -98.441852 
L 419.228396 -98.441852 
L 418.513278 -99.365947 
L 417.80207 -100.290042 
L 417.096796 -101.214136 
L 416.399522 -102.138231 
L 415.712339 -103.062326 
L 415.037354 -103.986421 
L 414.376678 -104.910515 
L 413.732409 -105.83461 
L 413.106618 -106.758705 
L 412.501334 -107.6828 
L 411.918529 -108.606894 
L 411.3601 -109.530989 
L 410.827856 -110.455084 
L 410.323499 -111.379178 
L 409.848612 -112.303273 
L 409.404642 -113.227368 
L 408.992888 -114.151463 
L 408.614485 -115.075557 
L 408.270395 -115.999652 
L 407.961396 -116.923747 
L 407.688072 -117.847842 
L 407.450808 -118.771936 
L 407.249784 -119.696031 
L 407.084972 -120.620126 
L 406.956136 -121.544221 
L 406.862829 -122.468315 
L 406.804404 -123.39241 
L 406.780013 -124.316505 
L 406.788618 -125.240599 
L 406.829 -126.164694 
L 406.899773 -127.088789 
L 406.999393 -128.012884 
L 407.126179 -128.936978 
L 407.278326 -129.861073 
L 407.453925 -130.785168 
L 407.650982 -131.709263 
L 407.867438 -132.633357 
L 408.101189 -133.557452 
L 408.350104 -134.481547 
L 408.612052 -135.405642 
L 408.884917 -136.329736 
L 409.166619 -137.253831 
L 409.45513 -138.177926 
L 409.748498 -139.10202 
L 410.044858 -140.026115 
L 410.342446 -140.95021 
L 410.639618 -141.874305 
L 410.934853 -142.798399 
L 411.226772 -143.722494 
L 411.514137 -144.646589 
L 411.795863 -145.570684 
L 412.071016 -146.494778 
L 412.338822 -147.418873 
L 412.598659 -148.342968 
L 412.850064 -149.267063 
L 413.092722 -150.191157 
L 413.326467 -151.115252 
L 413.551272 -152.039347 
L 413.767245 -152.963441 
L 413.97462 -153.887536 
L 414.173748 -154.811631 
L 414.365087 -155.735726 
L 414.549195 -156.65982 
L 414.726715 -157.583915 
L 414.898369 -158.50801 
L 415.064947 -159.432105 
L 415.227294 -160.356199 
L 415.386304 -161.280294 
L 415.542906 -162.204389 
L 415.69806 -163.128484 
L 415.852741 -164.052578 
L 416.007938 -164.976673 
L 416.16464 -165.900768 
L 416.323831 -166.824862 
L 416.486483 -167.748957 
L 416.653547 -168.673052 
L 416.825948 -169.597147 
L 417.004581 -170.521241 
L 417.190302 -171.445336 
L 417.383922 -172.369431 
L 417.586206 -173.293526 
L 417.797866 -174.21762 
L 418.019554 -175.141715 
L 418.251861 -176.06581 
L 418.495315 -176.989905 
L 418.75037 -177.913999 
L 419.017408 -178.838094 
L 419.296736 -179.762189 
L 419.588581 -180.686283 
L 419.893088 -181.610378 
L 420.21032 -182.534473 
L 420.540253 -183.458568 
L 420.882778 -184.382662 
L 421.2377 -185.306757 
L 421.604737 -186.230852 
L 421.983521 -187.154947 
L 422.373603 -188.079041 
L 422.77445 -189.003136 
L 423.185449 -189.927231 
L 455.880551 -189.927231 
L 455.880551 -189.927231 
L 456.29155 -189.003136 
L 456.692397 -188.079041 
L 457.082479 -187.154947 
L 457.461263 -186.230852 
L 457.8283 -185.306757 
L 458.183222 -184.382662 
L 458.525747 -183.458568 
L 458.85568 -182.534473 
L 459.172912 -181.610378 
L 459.477419 -180.686283 
L 459.769264 -179.762189 
L 460.048592 -178.838094 
L 460.31563 -177.913999 
L 460.570685 -176.989905 
L 460.814139 -176.06581 
L 461.046446 -175.141715 
L 461.268134 -174.21762 
L 461.479794 -173.293526 
L 461.682078 -172.369431 
L 461.875698 -171.445336 
L 462.061419 -170.521241 
L 462.240052 -169.597147 
L 462.412453 -168.673052 
L 462.579517 -167.748957 
L 462.742169 -166.824862 
L 462.90136 -165.900768 
L 463.058062 -164.976673 
L 463.213259 -164.052578 
L 463.36794 -163.128484 
L 463.523094 -162.204389 
L 463.679696 -161.280294 
L 463.838706 -160.356199 
L 464.001053 -159.432105 
L 464.167631 -158.50801 
L 464.339285 -157.583915 
L 464.516805 -156.65982 
L 464.700913 -155.735726 
L 464.892252 -154.811631 
L 465.09138 -153.887536 
L 465.298755 -152.963441 
L 465.514728 -152.039347 
L 465.739533 -151.115252 
L 465.973278 -150.191157 
L 466.215936 -149.267063 
L 466.467341 -148.342968 
L 466.727178 -147.418873 
L 466.994984 -146.494778 
L 467.270137 -145.570684 
L 467.551863 -144.646589 
L 467.839228 -143.722494 
L 468.131147 -142.798399 
L 468.426382 -141.874305 
L 468.723554 -140.95021 
L 469.021142 -140.026115 
L 469.317502 -139.10202 
L 469.61087 -138.177926 
L 469.899381 -137.253831 
L 470.181083 -136.329736 
L 470.453948 -135.405642 
L 470.715896 -134.481547 
L 470.964811 -133.557452 
L 471.198562 -132.633357 
L 471.415018 -131.709263 
L 471.612075 -130.785168 
L 471.787674 -129.861073 
L 471.939821 -128.936978 
L 472.066607 -128.012884 
L 472.166227 -127.088789 
L 472.237 -126.164694 
L 472.277382 -125.240599 
L 472.285987 -124.316505 
L 472.261596 -123.39241 
L 472.203171 -122.468315 
L 472.109864 -121.544221 
L 471.981028 -120.620126 
L 471.816216 -119.696031 
L 471.615192 -118.771936 
L 471.377928 -117.847842 
L 471.104604 -116.923747 
L 470.795605 -115.999652 
L 470.451515 -115.075557 
L 470.073112 -114.151463 
L 469.661358 -113.227368 
L 469.217388 -112.303273 
L 468.742501 -111.379178 
L 468.238144 -110.455084 
L 467.7059 -109.530989 
L 467.147471 -108.606894 
L 466.564666 -107.6828 
L 465.959382 -106.758705 
L 465.333591 -105.83461 
L 464.689322 -104.910515 
L 464.028646 -103.986421 
L 463.353661 -103.062326 
L 462.666478 -102.138231 
L 461.969204 -101.214136 
L 461.26393 -100.290042 
L 460.552722 -99.365947 
L 459.837604 -98.441852 
z
" style="stroke: #2f2f2f"/>
    </defs>
    <g clip-path="url(#p586de7968e)">
     <use xlink:href="#m86f281da64" x="0" y="288" style="fill: #437695; stroke: #2f2f2f"/>
    </g>
   </g>
   <g id="PolyCollection_6">
    <defs>
     <path id="m97fa8a6702" d="M 537.488748 -40.611861 
L 505.342188 -40.611861 
L 504.653849 -41.807918 
L 503.955711 -43.003976 
L 503.24914 -44.200033 
L 502.53563 -45.39609 
L 501.816806 -46.592148 
L 501.094426 -47.788205 
L 500.370371 -48.984263 
L 499.646649 -50.18032 
L 498.925387 -51.376378 
L 498.208823 -52.572435 
L 497.499297 -53.768493 
L 496.799244 -54.96455 
L 496.111177 -56.160608 
L 495.43768 -57.356665 
L 494.781383 -58.552722 
L 494.144956 -59.74878 
L 493.53108 -60.944837 
L 492.942438 -62.140895 
L 492.381686 -63.336952 
L 491.851438 -64.53301 
L 491.354239 -65.729067 
L 490.892547 -66.925125 
L 490.468708 -68.121182 
L 490.084935 -69.31724 
L 489.743286 -70.513297 
L 489.445645 -71.709354 
L 489.193698 -72.905412 
L 488.988917 -74.101469 
L 488.832544 -75.297527 
L 488.72557 -76.493584 
L 488.668729 -77.689642 
L 488.662481 -78.885699 
L 488.707004 -80.081757 
L 488.802191 -81.277814 
L 488.947639 -82.473872 
L 489.142654 -83.669929 
L 489.38625 -84.865986 
L 489.677151 -86.062044 
L 490.0138 -87.258101 
L 490.39437 -88.454159 
L 490.81677 -89.650216 
L 491.278666 -90.846274 
L 491.777491 -92.042331 
L 492.310472 -93.238389 
L 492.874642 -94.434446 
L 493.466868 -95.630504 
L 494.083873 -96.826561 
L 494.722263 -98.022618 
L 495.378552 -99.218676 
L 496.049187 -100.414733 
L 496.730581 -101.610791 
L 497.419135 -102.806848 
L 498.111271 -104.002906 
L 498.803454 -105.198963 
L 499.492226 -106.395021 
L 500.174225 -107.591078 
L 500.846215 -108.787136 
L 501.50511 -109.983193 
L 502.147993 -111.17925 
L 502.77214 -112.375308 
L 503.375037 -113.571365 
L 503.9544 -114.767423 
L 504.508186 -115.96348 
L 505.034609 -117.159538 
L 505.53215 -118.355595 
L 505.999561 -119.551653 
L 506.435877 -120.74771 
L 506.840414 -121.943768 
L 507.212769 -123.139825 
L 507.552823 -124.335883 
L 507.860733 -125.53194 
L 508.136923 -126.727997 
L 508.382079 -127.924055 
L 508.597137 -129.120112 
L 508.783265 -130.31617 
L 508.941853 -131.512227 
L 509.074493 -132.708285 
L 509.182959 -133.904342 
L 509.269188 -135.1004 
L 509.33526 -136.296457 
L 509.383371 -137.492515 
L 509.415812 -138.688572 
L 509.434947 -139.884629 
L 509.443186 -141.080687 
L 509.442959 -142.276744 
L 509.436697 -143.472802 
L 509.426806 -144.668859 
L 509.41564 -145.864917 
L 509.405486 -147.060974 
L 509.398539 -148.257032 
L 509.396882 -149.453089 
L 509.402472 -150.649147 
L 509.41712 -151.845204 
L 509.442478 -153.041261 
L 509.480028 -154.237319 
L 509.531069 -155.433376 
L 509.596713 -156.629434 
L 509.677878 -157.825491 
L 509.775283 -159.021549 
L 533.055652 -159.021549 
L 533.055652 -159.021549 
L 533.153057 -157.825491 
L 533.234222 -156.629434 
L 533.299866 -155.433376 
L 533.350907 -154.237319 
L 533.388457 -153.041261 
L 533.413815 -151.845204 
L 533.428463 -150.649147 
L 533.434053 -149.453089 
L 533.432396 -148.257032 
L 533.425449 -147.060974 
L 533.415295 -145.864917 
L 533.404129 -144.668859 
L 533.394238 -143.472802 
L 533.387976 -142.276744 
L 533.387749 -141.080687 
L 533.395988 -139.884629 
L 533.415123 -138.688572 
L 533.447565 -137.492515 
L 533.495675 -136.296457 
L 533.561747 -135.1004 
L 533.647976 -133.904342 
L 533.756442 -132.708285 
L 533.889082 -131.512227 
L 534.04767 -130.31617 
L 534.233798 -129.120112 
L 534.448856 -127.924055 
L 534.694012 -126.727997 
L 534.970202 -125.53194 
L 535.278112 -124.335883 
L 535.618166 -123.139825 
L 535.990521 -121.943768 
L 536.395058 -120.74771 
L 536.831374 -119.551653 
L 537.298785 -118.355595 
L 537.796326 -117.159538 
L 538.322749 -115.96348 
L 538.876535 -114.767423 
L 539.455898 -113.571365 
L 540.058795 -112.375308 
L 540.682942 -111.17925 
L 541.325825 -109.983193 
L 541.98472 -108.787136 
L 542.65671 -107.591078 
L 543.338709 -106.395021 
L 544.027481 -105.198963 
L 544.719664 -104.002906 
L 545.4118 -102.806848 
L 546.100354 -101.610791 
L 546.781748 -100.414733 
L 547.452383 -99.218676 
L 548.108672 -98.022618 
L 548.747062 -96.826561 
L 549.364067 -95.630504 
L 549.956293 -94.434446 
L 550.520463 -93.238389 
L 551.053444 -92.042331 
L 551.552269 -90.846274 
L 552.014165 -89.650216 
L 552.436565 -88.454159 
L 552.817135 -87.258101 
L 553.153784 -86.062044 
L 553.444685 -84.865986 
L 553.688281 -83.669929 
L 553.883296 -82.473872 
L 554.028745 -81.277814 
L 554.123931 -80.081757 
L 554.168455 -78.885699 
L 554.162206 -77.689642 
L 554.105365 -76.493584 
L 553.998392 -75.297527 
L 553.842018 -74.101469 
L 553.637237 -72.905412 
L 553.38529 -71.709354 
L 553.087649 -70.513297 
L 552.746 -69.31724 
L 552.362228 -68.121182 
L 551.938388 -66.925125 
L 551.476696 -65.729067 
L 550.979497 -64.53301 
L 550.449249 -63.336952 
L 549.888497 -62.140895 
L 549.299855 -60.944837 
L 548.68598 -59.74878 
L 548.049552 -58.552722 
L 547.393255 -57.356665 
L 546.719758 -56.160608 
L 546.031692 -54.96455 
L 545.331638 -53.768493 
L 544.622113 -52.572435 
L 543.905548 -51.376378 
L 543.184286 -50.18032 
L 542.460564 -48.984263 
L 541.736509 -47.788205 
L 541.014129 -46.592148 
L 540.295306 -45.39609 
L 539.581795 -44.200033 
L 538.875224 -43.003976 
L 538.177087 -41.807918 
L 537.488748 -40.611861 
z
" style="stroke: #2f2f2f"/>
    </defs>
    <g clip-path="url(#p586de7968e)">
     <use xlink:href="#m97fa8a6702" x="0" y="288" style="fill: #423b63; stroke: #2f2f2f"/>
    </g>
   </g>
   <g id="line2d_33">
    <path d="M 357.650532 156.125184 
L 357.650532 115.733159 
" clip-path="url(#p586de7968e)" style="fill: none; stroke: #2f2f2f; stroke-width: 1.5; stroke-linecap: round"/>
   </g>
   <g id="line2d_34">
    <path d="M 357.650532 148.647827 
L 357.650532 125.94091 
" clip-path="url(#p586de7968e)" style="fill: none; stroke: #2f2f2f; stroke-width: 4.5; stroke-linecap: round"/>
   </g>
   <g id="line2d_35">
    <path d="M 357.650532 140.929193 
" clip-path="url(#p586de7968e)" style="fill: none; stroke: #2f2f2f; stroke-width: 1.2; stroke-linecap: round"/>
    <g clip-path="url(#p586de7968e)">
     <use xlink:href="#m9f75afef9a" x="357.650532" y="140.929193" style="fill: #ffffff; stroke: #ffffff; stroke-width: 0.9"/>
    </g>
   </g>
   <g id="line2d_36">
    <path d="M 439.533 189.558148 
L 439.533 98.072769 
" clip-path="url(#p586de7968e)" style="fill: none; stroke: #2f2f2f; stroke-width: 1.5; stroke-linecap: round"/>
   </g>
   <g id="line2d_37">
    <path d="M 439.533 164.326351 
L 439.533 127.636101 
" clip-path="url(#p586de7968e)" style="fill: none; stroke: #2f2f2f; stroke-width: 4.5; stroke-linecap: round"/>
   </g>
   <g id="line2d_38">
    <path d="M 439.533 161.80226 
" clip-path="url(#p586de7968e)" style="fill: none; stroke: #2f2f2f; stroke-width: 1.2; stroke-linecap: round"/>
    <g clip-path="url(#p586de7968e)">
     <use xlink:href="#m9f75afef9a" x="439.533" y="161.80226" style="fill: #ffffff; stroke: #ffffff; stroke-width: 0.9"/>
    </g>
   </g>
   <g id="line2d_39">
    <path d="M 521.415468 247.388139 
L 521.415468 192.234086 
" clip-path="url(#p586de7968e)" style="fill: none; stroke: #2f2f2f; stroke-width: 1.5; stroke-linecap: round"/>
   </g>
   <g id="line2d_40">
    <path d="M 521.415468 216.027704 
L 521.415468 192.234086 
" clip-path="url(#p586de7968e)" style="fill: none; stroke: #2f2f2f; stroke-width: 4.5; stroke-linecap: round"/>
   </g>
   <g id="line2d_41">
    <path d="M 521.415468 205.588568 
" clip-path="url(#p586de7968e)" style="fill: none; stroke: #2f2f2f; stroke-width: 1.2; stroke-linecap: round"/>
    <g clip-path="url(#p586de7968e)">
     <use xlink:href="#m9f75afef9a" x="521.415468" y="205.588568" style="fill: #ffffff; stroke: #ffffff; stroke-width: 0.9"/>
    </g>
   </g>
   <g id="line2d_42">
    <path d="M 357.650532 94.485503 
L 357.650532 86.393457 
L 439.533 86.393457 
L 439.533 94.485503 
" clip-path="url(#p586de7968e)" style="fill: none; stroke: #000000; stroke-linecap: round"/>
   </g>
   <g id="line2d_43">
    <path d="M 439.533 80.136436 
L 439.533 71.685663 
L 521.415468 71.685663 
L 521.415468 80.136436 
" clip-path="url(#p586de7968e)" style="fill: none; stroke: #000000; stroke-linecap: round"/>
   </g>
   <g id="line2d_44">
    <path d="M 357.650532 65.787369 
L 357.650532 56.97787 
L 521.415468 56.97787 
L 521.415468 65.787369 
" clip-path="url(#p586de7968e)" style="fill: none; stroke: #000000; stroke-linecap: round"/>
   </g>
   <g id="patch_8">
    <path d="M 313.434 238.804 
L 313.434 23.568 
" style="fill: none; stroke: #262626; stroke-linejoin: miter; stroke-linecap: square"/>
   </g>
   <g id="patch_9">
    <path d="M 565.632 238.804 
L 565.632 23.568 
" style="fill: none; stroke: #262626; stroke-linejoin: miter; stroke-linecap: square"/>
   </g>
   <g id="patch_10">
    <path d="M 313.434 238.804 
L 565.632 238.804 
" style="fill: none; stroke: #262626; stroke-linejoin: miter; stroke-linecap: square"/>
   </g>
   <g id="patch_11">
    <path d="M 313.434 23.568 
L 565.632 23.568 
" style="fill: none; stroke: #262626; stroke-linejoin: miter; stroke-linecap: square"/>
   </g>
   <g id="text_19">
    <!-- ns -->
    <g transform="translate(393.049266 84.396957) scale(0.096 -0.096)">
     <use xlink:href="#DejaVuSans-6e"/>
     <use xlink:href="#DejaVuSans-73" x="63.378906"/>
    </g>
   </g>
   <g id="text_20">
    <!-- * -->
    <g transform="translate(478.074234 69.689163) scale(0.096 -0.096)">
     <defs>
      <path id="DejaVuSans-2a" d="M 3009 3897 
L 1888 3291 
L 3009 2681 
L 2828 2375 
L 1778 3009 
L 1778 1831 
L 1422 1831 
L 1422 3009 
L 372 2375 
L 191 2681 
L 1313 3291 
L 191 3897 
L 372 4206 
L 1422 3572 
L 1422 4750 
L 1778 4750 
L 1778 3572 
L 2828 4206 
L 3009 3897 
z
" transform="scale(0.015625)"/>
     </defs>
     <use xlink:href="#DejaVuSans-2a"/>
    </g>
   </g>
   <g id="text_21">
    <!-- *** -->
    <g transform="translate(432.333 54.98137) scale(0.096 -0.096)">
     <use xlink:href="#DejaVuSans-2a"/>
     <use xlink:href="#DejaVuSans-2a" x="50"/>
     <use xlink:href="#DejaVuSans-2a" x="100"/>
    </g>
   </g>
   <g id="text_22">
    <!-- Speed -->
    <g style="fill: #262626" transform="translate(424.48425 17.568) scale(0.096 -0.096)">
     <defs>
      <path id="DejaVuSans-53" d="M 3425 4513 
L 3425 3897 
Q 3066 4069 2747 4153 
Q 2428 4238 2131 4238 
Q 1616 4238 1336 4038 
Q 1056 3838 1056 3469 
Q 1056 3159 1242 3001 
Q 1428 2844 1947 2747 
L 2328 2669 
Q 3034 2534 3370 2195 
Q 3706 1856 3706 1288 
Q 3706 609 3251 259 
Q 2797 -91 1919 -91 
Q 1588 -91 1214 -16 
Q 841 59 441 206 
L 441 856 
Q 825 641 1194 531 
Q 1563 422 1919 422 
Q 2459 422 2753 634 
Q 3047 847 3047 1241 
Q 3047 1584 2836 1778 
Q 2625 1972 2144 2069 
L 1759 2144 
Q 1053 2284 737 2584 
Q 422 2884 422 3419 
Q 422 4038 858 4394 
Q 1294 4750 2059 4750 
Q 2388 4750 2728 4690 
Q 3069 4631 3425 4513 
z
" transform="scale(0.015625)"/>
     </defs>
     <use xlink:href="#DejaVuSans-53"/>
     <use xlink:href="#DejaVuSans-70" x="63.476562"/>
     <use xlink:href="#DejaVuSans-65" x="126.953125"/>
     <use xlink:href="#DejaVuSans-65" x="188.476562"/>
     <use xlink:href="#DejaVuSans-64" x="250"/>
    </g>
   </g>
  </g>
  <g id="text_23">
   <!-- Average n200 probability tertile -->
   <g style="fill: #262626" transform="translate(196.3062 282.7242) scale(0.1152 -0.1152)">
    <defs>
     <path id="DejaVuSans-76" d="M 191 3500 
L 800 3500 
L 1894 563 
L 2988 3500 
L 3597 3500 
L 2284 0 
L 1503 0 
L 191 3500 
z
" transform="scale(0.015625)"/>
     <path id="DejaVuSans-32" d="M 1228 531 
L 3431 531 
L 3431 0 
L 469 0 
L 469 531 
Q 828 903 1448 1529 
Q 2069 2156 2228 2338 
Q 2531 2678 2651 2914 
Q 2772 3150 2772 3378 
Q 2772 3750 2511 3984 
Q 2250 4219 1831 4219 
Q 1534 4219 1204 4116 
Q 875 4013 500 3803 
L 500 4441 
Q 881 4594 1212 4672 
Q 1544 4750 1819 4750 
Q 2544 4750 2975 4387 
Q 3406 4025 3406 3419 
Q 3406 3131 3298 2873 
Q 3191 2616 2906 2266 
Q 2828 2175 2409 1742 
Q 1991 1309 1228 531 
z
" transform="scale(0.015625)"/>
    </defs>
    <use xlink:href="#DejaVuSans-41"/>
    <use xlink:href="#DejaVuSans-76" x="62.533203"/>
    <use xlink:href="#DejaVuSans-65" x="121.712891"/>
    <use xlink:href="#DejaVuSans-72" x="183.236328"/>
    <use xlink:href="#DejaVuSans-61" x="224.349609"/>
    <use xlink:href="#DejaVuSans-67" x="285.628906"/>
    <use xlink:href="#DejaVuSans-65" x="349.105469"/>
    <use xlink:href="#DejaVuSans-20" x="410.628906"/>
    <use xlink:href="#DejaVuSans-6e" x="442.416016"/>
    <use xlink:href="#DejaVuSans-32" x="505.794922"/>
    <use xlink:href="#DejaVuSans-30" x="569.417969"/>
    <use xlink:href="#DejaVuSans-30" x="633.041016"/>
    <use xlink:href="#DejaVuSans-20" x="696.664062"/>
    <use xlink:href="#DejaVuSans-70" x="728.451172"/>
    <use xlink:href="#DejaVuSans-72" x="791.927734"/>
    <use xlink:href="#DejaVuSans-6f" x="830.791016"/>
    <use xlink:href="#DejaVuSans-62" x="891.972656"/>
    <use xlink:href="#DejaVuSans-61" x="955.449219"/>
    <use xlink:href="#DejaVuSans-62" x="1016.728516"/>
    <use xlink:href="#DejaVuSans-69" x="1080.205078"/>
    <use xlink:href="#DejaVuSans-6c" x="1107.988281"/>
    <use xlink:href="#DejaVuSans-69" x="1135.771484"/>
    <use xlink:href="#DejaVuSans-74" x="1163.554688"/>
    <use xlink:href="#DejaVuSans-79" x="1202.763672"/>
    <use xlink:href="#DejaVuSans-20" x="1261.943359"/>
    <use xlink:href="#DejaVuSans-74" x="1293.730469"/>
    <use xlink:href="#DejaVuSans-65" x="1332.939453"/>
    <use xlink:href="#DejaVuSans-72" x="1394.462891"/>
    <use xlink:href="#DejaVuSans-74" x="1435.576172"/>
    <use xlink:href="#DejaVuSans-69" x="1474.785156"/>
    <use xlink:href="#DejaVuSans-6c" x="1502.568359"/>
    <use xlink:href="#DejaVuSans-65" x="1530.351562"/>
   </g>
  </g>
 </g>
 <defs>
  <clipPath id="pe470fb590a">
   <rect x="46.068" y="23.568" width="252.198" height="215.236"/>
  </clipPath>
  <clipPath id="p586de7968e">
   <rect x="313.434" y="23.568" width="252.198" height="215.236"/>
  </clipPath>
 </defs>
</svg>
